<?xml version="1.0" standalone="no"?>
<!DOCTYPE svg PUBLIC "-//W3C//DTD SVG 1.1//EN" "http://www.w3.org/Graphics/SVG/1.1/DTD/svg11.dtd" >
<svg xmlns="http://www.w3.org/2000/svg" xmlns:svg="http://www.w3.org/2000/svg" xmlns:xlink="http://www.w3.org/1999/xlink" viewBox="0 0 1024 1024"><path d="M379.47 403.63Q358.66 187.1 390.27 142.83L370.36 115.59Q391.86 119.71 367.56 130.18Q401.92 113.36 406.67 114.3Q473.51 111.09 502.87 130.38Q566.78 110.82 581.97 134.05Q626.94 138.34 617.92 141.57Q646.84 135.65 616.84 121.07Q649.37 111.56 654.29 168.65Q649.49 192.12 652.66 201.51Q628.37 285.84 657.55 394.01Q654.72 570.48 620.79 622.43Q646.63 676.08 625.04 672.41Q633.39 702.49 628.35 705.9Q605.01 714.96 561.7 692.48Q536.96 714.84 492.06 677.65Q423.56 695.47 414.88 709.87Q396.05 679.17 358.06 674.6Q359.66 667.78 381.58 536.24Q358.78 474.66 351.1 419.3ZM800.32 837.6Q804.26 802.83 799.3 820.53Q807.41 811.66 831.51 804.48Q840.43 799.73 863.9 832.43Q876.35 838.64 868.4 830.02Q872.01 836.62 865.94 715.84Q870.3 614.36 875.63 489.24Q872.4 371.56 883.84 299.73Q868.71 228.32 882.37 208.35Q861.34 137.74 869.73 133.45Q900.92 140.54 898.11 142.92Q895.14 124.05 885.1 143.75Q911.22 143.34 942.74 139.69L949.64 131.98L923.01 533.24Q938.48 687.73 930.44 803.38Q953.54 908.42 932.08 891.88Q917.49 900.28 937.91 908.14Q938.29 923.34 908.21 904.83Q856.15 937.45 854.8 915.2Q823.81 884.3 792.44 887.46Q775.58 874.08 788.01 861.13Q772.85 833.8 791.08 808.8ZM688.58 327.15Q678.5 258.09 702.06 206.67Q694.12 149.34 703.07 144.95Q700.19 162.38 707.34 150.67Q717.55 157.95 691.83 132.15Q727.05 140.34 713.3 143.81Q736.38 122.06 723.58 141.72Q745.11 147.87 739.22 147.78Q747.55 145.05 757.33 166.38Q757.28 231.18 779.37 341.32Q763.82 431 767.92 445.73Q756.76 485.76 761.35 499.17Q760.95 524.16 774.75 538.78Q764.77 538.38 726.44 558.74Q725.8 541.93 711.66 521.85Q685.24 514.71 680.29 472.03Q679.58 446.06 694.19 349.8ZM95.5 846Q166.3 811.8 213.08 771.12Q232.28 767.24 244.16 766.06Q254.43 752.12 230.88 769.07Q261.55 759.66 274.75 751.87Q271.4 755.89 264.7 767.17Q269.86 778.43 259.46 814.94Q275.55 835.57 241.65 844.74Q238.48 842.55 199.93 847.07Q188.14 852.08 167.43 861.57Q167.75 904.18 126.1 889.38Q130.63 906.59 134.72 897.52Q110.55 914.35 95.43 908.54Q66.45 886.35 79.54 859.29Q71.84 851.49 132.1 823.12ZM425.55 636.06H577.51L555.94 567.29Q549.73 556.79 552.24 547.35Q587.94 535.85 553.91 511.02Q556.07 531.07 582.2 498.87Q569.31 511.86 577.07 515.19Q554.78 526.45 538.91 521.72Q541.78 509.77 516.92 491.03Q499.21 519.53 478.71 501.68Q440.26 499.23 465.52 493.57Q465.24 505.99 448.42 537.77Q463 563.16 439.9 567.96ZM88.45 131.31Q117.37 102.34 110.05 115.1Q107.02 91.35 124.77 118.4Q149.52 105.9 127.14 95.17Q180.88 82.34 188.57 97.28Q206.17 118.18 220.58 104.32Q225.82 133.87 233.86 132.11Q299.32 153.03 303.51 145.95Q296.77 159.65 322.59 164.4Q291.98 174.6 307.68 198.77L269.32 214.2L205.63 195.37Q143.91 159.98 147.96 162.58Q91.33 156.4 102.06 170.8Q92.81 164.41 100.65 154.5Q110.48 145.96 107.8 133.75ZM521.4 257.83H587.93L585.58 229.14V209.7Q584.81 179.53 556.14 188.97Q559.42 188.44 554.7 156.93Q552.39 166.62 538.01 184.44Q530.16 166.68 497.57 161.71L450.43 189.53V275.18ZM106.49 368.63Q82.03 333.64 92.72 341.76Q105.51 319.14 91.39 317.85Q120.15 335.29 107.42 309.46Q141.77 316.1 124.81 326.09Q139.99 318.93 200.12 351.82Q251.08 352.72 262.17 366.33Q260.56 360.24 263.53 376.72Q254.53 357.9 261.18 371.61Q280 389.47 248.47 398.94Q220.37 421.73 227.95 430.16Q195.53 397.93 197.51 412.8Q171.16 415.87 135.5 383.75L108.85 386.12ZM353.22 835.36Q375.6 767.38 387.55 737.57Q415.44 746.01 417.73 740.27Q437.5 731.94 434.77 736.82Q473.95 756.35 453.93 791.44Q445.75 806.73 426.8 862.23Q390.75 892.64 380.4 919.84Q371.2 905.92 365.66 909.49Q364.24 906.94 348.81 923Q330.09 915.75 352.03 882.74Q343.51 879.69 371.05 840.96ZM514.9 736.1Q550.66 736.49 552.46 748.21Q542.91 736.59 563.25 744.11Q561.31 732.19 578.78 748.42Q589.74 761.21 608.76 785.35Q635.4 831.63 652.89 862.67Q642.21 869.92 643.95 875.82Q628.83 876.72 621.77 887.46Q614.26 891.76 613.55 865.57Q565.37 869.14 545.97 858.26Q511.18 803.44 522.88 790.46Q508.82 770.68 504.03 770.64Q488.32 759.06 520.39 747.47ZM437.65 336.45L442.86 418.48L498.05 420.91Q548.29 438.13 542.91 427.53Q559.85 435.03 558.68 437.54Q584.4 436.7 552.53 423.7Q580.68 384.55 585.53 394.77L584.45 339.09L542.12 364.83Q525.66 329.27 493.7 355.74Q464.08 366.59 471.1 340.69Z" fill="black"></path></svg>