<svg xmlns="http://www.w3.org/2000/svg" width="200" height="200" viewBox="0 0 200 200" version="1.1">
	<path d="M 91.386 75.364 C 82.855 78.345, 78.373 82.099, 75.447 88.716 C 67.483 106.724, 80.731 127.028, 100.420 126.990 C 119.025 126.954, 132.335 105.896, 124.530 88.846 C 121.111 81.377, 116.581 77.295, 109.251 75.076 C 103.718 73.401, 103.050 73.379, 101.604 74.825 C 100.158 76.270, 99.909 76.270, 98.760 74.818 C 97.616 73.374, 96.939 73.424, 91.386 75.364 M 90.239 78.335 C 79.017 82.405, 73.316 95.309, 77.124 108.019 C 79.836 117.072, 89.872 123.997, 100.282 123.999 C 122.018 124.003, 132.168 95.768, 115.645 81.262 C 111.373 77.511, 104.559 76.013, 102.253 78.318 C 100.880 79.692, 101.170 79.969, 105.093 81.025 C 107.497 81.672, 111.575 83.970, 114.155 86.130 C 118.592 89.844, 118.882 90.397, 119.497 96.279 C 120.335 104.294, 117.880 110.219, 111.582 115.379 C 102.690 122.665, 90.499 120.869, 83.675 111.267 C 79.441 105.308, 78.951 98.411, 82.237 91 C 84.309 86.327, 85.264 85.296, 88.588 84.142 C 93.967 82.274, 97 80.232, 97 78.477 C 97 76.740, 94.765 76.693, 90.239 78.335 M 92.299 85.353 C 87.060 87.973, 85.858 89.083, 84.549 92.510 C 83.697 94.741, 83 98.601, 83 101.086 C 83 106.993, 87.558 113.453, 93.531 116.013 C 105.240 121.032, 119.385 108.890, 116.741 96.090 C 115.213 88.693, 110.255 84.686, 100 82.562 C 99.175 82.391, 95.710 83.647, 92.299 85.353" stroke="none" fill="black" fill-rule="evenodd"/>
</svg>