<svg xmlns="http://www.w3.org/2000/svg" width="200" height="200" viewBox="0 0 200 200" version="1.1">
	<path d="M 72.970 31.250 C 72.919 59.645, 68.902 90.364, 62.803 109 C 57.683 124.647, 47.686 144.758, 41.427 152 C 38.813 155.025, 32.397 162.675, 27.170 169 C 21.943 175.325, 17.005 181.278, 16.197 182.229 C 14.900 183.755, 14.911 184.029, 16.288 184.557 C 18.657 185.466, 39.078 173.680, 50.637 164.733 C 64.512 153.992, 77.747 138.266, 85.814 122.933 C 92.344 110.521, 99.341 89.940, 100.750 79 L 101.588 72.500 102.330 79.500 C 103.811 93.465, 108.126 112.934, 112.474 125.261 C 118.931 143.571, 127.401 156.743, 141.043 169.691 L 151.500 179.616 159.773 175.058 C 166.582 171.307, 188.710 154.256, 187.770 153.485 C 187.622 153.364, 181.239 150.930, 173.586 148.077 C 160.533 143.211, 159.049 142.377, 149.586 134.584 C 128.517 117.232, 116.499 97.043, 110.184 68.389 C 108.417 60.373, 106.833 49.637, 106.438 43 C 106.040 36.325, 104.860 28.353, 103.626 24 L 101.500 16.500 96 15.849 C 92.975 15.491, 86.563 15.153, 81.750 15.099 L 73 15 72.970 31.250 M 75.846 28.748 C 76.262 41.700, 74.729 60.722, 71.472 83 C 68.565 102.890, 63.525 118.582, 54.287 136.500 C 49.242 146.287, 45.961 150.989, 36.496 162 C 30.113 169.425, 24.432 176.322, 23.870 177.326 C 22.942 178.984, 23.062 179.040, 25.174 177.940 C 50.846 164.563, 71.431 144.562, 83.776 121 C 91.306 106.629, 97.363 86.608, 99.130 70.250 C 99.992 62.268, 100.725 59, 101.654 59 C 103.300 59, 103.641 60.710, 104.941 75.500 C 107.466 104.224, 114.588 128.763, 125.606 146.703 C 133.176 159.028, 133.737 159.706, 144.225 169.185 L 151.951 176.167 159.042 172.337 C 165.594 168.799, 170.175 165.442, 178.855 157.822 C 180.700 156.202, 181.986 154.653, 181.713 154.380 C 181.440 154.106, 176.044 151.920, 169.723 149.522 C 159.648 145.699, 157.003 144.165, 148.292 137.090 C 133.877 125.383, 122.919 111.246, 116.054 95.500 C 109.473 80.406, 105.396 63.277, 103.915 44.500 C 102.875 31.301, 100.986 22.079, 98.745 19.250 C 98.060 18.384, 94.333 17.999, 86.628 17.998 L 75.500 17.996 75.846 28.748" stroke="none" fill="black" fill-rule="evenodd"/>
</svg>