<svg xmlns="http://www.w3.org/2000/svg" width="200" height="200" viewBox="0 0 200 200" version="1.1">
	<path d="M 72.730 15.959 C 66.257 17.470, 60.750 18.917, 60.492 19.175 C 60.234 19.433, 61.168 28.323, 62.568 38.932 C 63.968 49.540, 64.975 58.326, 64.807 58.455 C 63.448 59.496, 34.484 64.450, 26.784 64.958 C 17.493 65.571, 14.902 66.235, 16.309 67.642 C 16.662 67.996, 24.195 67.883, 33.048 67.392 L 49.144 66.500 56.072 74.860 C 59.882 79.457, 62.993 83.732, 62.985 84.360 C 62.977 84.987, 61.209 93.150, 59.057 102.500 C 56.296 114.491, 53.372 123.858, 49.134 134.288 C 43.156 149, 43.064 149.148, 31.397 162.788 C 24.946 170.330, 18.998 177.287, 18.179 178.250 C 16.779 179.895, 17.172 180, 24.735 180 L 32.780 180 47.886 168.250 L 62.993 156.500 72.498 142.263 L 82.003 128.026 85.525 111.263 C 87.462 102.043, 90.942 88.745, 93.258 81.710 C 98.632 65.386, 98.854 65.292, 109.988 74.612 C 117.821 81.170, 118.088 81.533, 117.571 84.954 C 117.276 86.904, 116.546 102.548, 115.949 119.718 L 114.863 150.936 122.181 165.023 L 129.500 179.111 146.500 178.523 C 173.819 177.579, 170.895 178.738, 177.594 166.198 L 183.309 155.500 182.081 142 C 180.336 122.807, 179.882 120, 178.521 120 C 177.857 120, 174.499 126.637, 171.058 134.750 C 167.617 142.863, 164.449 149.875, 164.018 150.333 C 163.586 150.792, 158.656 148.119, 153.061 144.394 L 142.889 137.621 143.476 125.061 C 143.799 118.152, 144.504 102.663, 145.043 90.640 L 146.023 68.780 139.379 58.140 C 135.724 52.288, 132.638 47.382, 132.521 47.238 C 132.404 47.093, 125.404 50.820, 116.964 55.520 C 102.346 63.660, 101.541 63.980, 99.946 62.282 C 98.885 61.152, 96.930 53.728, 94.604 42 C 92.586 31.825, 90.468 21.138, 89.897 18.250 C 88.658 11.990, 89.346 12.082, 72.730 15.959 M 74.184 18.498 C 68.510 19.764, 63.681 20.986, 63.453 21.214 C 63.225 21.442, 64.152 29.924, 65.514 40.064 C 66.875 50.204, 67.992 59.012, 67.995 59.637 C 67.998 60.262, 64.963 61.339, 61.250 62.030 C 49.895 64.144, 50.065 63.436, 58.474 73.524 C 62.589 78.461, 65.966 83.003, 65.978 83.618 C 65.990 84.232, 64.209 92.580, 62.020 102.168 C 59.099 114.960, 56.368 123.713, 51.761 135.050 C 45.518 150.410, 45.418 150.574, 34.491 163.294 C 28.446 170.330, 23.350 176.518, 23.167 177.044 C 22.983 177.570, 24.660 178, 26.893 178 C 30.549 178, 32.438 176.846, 45.849 166.420 C 60.646 154.917, 60.806 154.749, 69.969 141.170 L 79.192 127.500 82.974 109.867 C 85.055 100.168, 88.881 85.858, 91.478 78.067 L 96.199 63.900 91.407 39.950 C 88.695 26.396, 86.156 16.043, 85.558 16.098 C 84.976 16.152, 79.858 17.232, 74.184 18.498 M 118.014 58.008 C 111.146 61.808, 105.390 65.330, 105.222 65.835 C 105.053 66.340, 108.310 69.607, 112.458 73.096 C 119.211 78.775, 120.002 79.809, 120.015 82.970 C 120.023 84.911, 119.491 100.904, 118.832 118.510 L 117.634 150.520 124.471 163.408 L 131.308 176.297 145.404 175.652 C 153.157 175.298, 161.824 175.006, 164.665 175.004 L 169.831 175 175.203 164.839 L 180.575 154.678 179.300 142.089 C 178.598 135.165, 177.903 128.838, 177.754 128.030 C 177.606 127.221, 174.788 132.953, 171.492 140.767 C 168.196 148.581, 165.149 154.980, 164.721 154.987 C 164.292 154.994, 158.540 151.381, 151.938 146.958 L 139.934 138.917 140.471 130.208 C 140.765 125.419, 141.490 109.780, 142.081 95.456 L 143.155 69.412 137.412 60.206 C 134.253 55.143, 131.406 51.022, 131.085 51.049 C 130.763 51.076, 124.881 54.208, 118.014 58.008" stroke="none" fill="black" fill-rule="evenodd"/>
</svg>