<svg xmlns="http://www.w3.org/2000/svg" width="200" height="200" viewBox="0 0 200 200" version="1.1">
	<path d="M 148.262 23.721 L 136.025 35.339 104.262 35.589 C 65.868 35.891, 23.380 37.287, 22.389 38.278 C 21.992 38.675, 22.004 39.337, 22.417 39.750 C 22.829 40.162, 37.529 40.500, 55.084 40.500 C 72.638 40.500, 87 40.724, 87 40.999 C 87 41.273, 84.945 47.665, 82.432 55.203 L 77.865 68.909 65.561 83.204 C 56.436 93.807, 49.114 100.986, 37.220 110.994 C 28.400 118.415, 21.375 124.797, 21.609 125.176 C 21.843 125.554, 24.433 126.401, 27.364 127.057 L 32.694 128.250 51.492 116.005 L 70.290 103.761 78.810 103.229 C 86.560 102.746, 87.271 102.852, 86.674 104.408 C 86.312 105.349, 85.716 123.582, 85.349 144.925 L 84.680 183.730 98.929 181.443 C 106.766 180.185, 113.338 178.995, 113.535 178.798 C 113.732 178.601, 114.027 156.066, 114.192 128.720 L 114.491 79 117.495 79.047 C 119.148 79.072, 123.320 79.635, 126.767 80.297 L 133.035 81.500 130.374 85.226 L 127.714 88.953 133.607 95.715 C 136.848 99.434, 142.973 106.372, 147.217 111.133 L 154.934 119.789 169.511 120.517 C 177.528 120.918, 184.293 121.040, 184.545 120.788 C 185.179 120.155, 167.148 86.755, 165.450 85.417 C 164.694 84.822, 158.196 83.285, 151.010 82.002 C 143.824 80.718, 138.069 79.346, 138.222 78.952 C 138.375 78.559, 144.350 69.865, 151.500 59.632 C 162.701 43.603, 164.861 41.027, 167.110 41.014 C 169.450 41.001, 170.036 40.170, 172.761 32.998 C 175.457 25.901, 175.616 22.883, 173.214 24.367 C 172.782 24.635, 170.425 27.760, 167.975 31.314 L 163.521 37.774 155.010 38.249 C 150.330 38.510, 146.330 38.578, 146.123 38.401 C 145.915 38.223, 149.637 32.633, 154.394 25.978 C 161.998 15.338, 163.693 11.864, 161.191 12.052 C 160.811 12.080, 154.993 17.332, 148.262 23.721 M 143 32.500 C 137.117 38.436, 136.778 39, 139.097 39 C 141.077 39, 142.669 37.566, 146.313 32.500 C 148.885 28.925, 150.641 26, 150.216 26 C 149.790 26, 146.543 28.925, 143 32.500 M 94.314 37.724 C 91.149 38.115, 91.091 38.226, 85.814 54.028 L 80.500 69.938 69 83.591 C 60.549 93.624, 53.454 100.677, 42.236 110.195 C 33.841 117.318, 27.230 123.563, 27.545 124.073 C 29.028 126.473, 34.058 124.123, 50.608 113.299 C 67.453 102.282, 68.880 101.554, 75 100.850 C 78.575 100.439, 83.188 100.080, 85.251 100.051 L 89.003 100 88.339 140 L 87.675 180 90.087 179.949 C 91.414 179.921, 96.772 179.134, 101.993 178.199 L 111.486 176.500 111.493 121.988 L 111.500 67.475 119.376 53.287 C 123.708 45.483, 127.983 38.903, 128.876 38.665 C 129.769 38.427, 123.674 38.180, 115.332 38.116 C 106.989 38.052, 99.564 37.850, 98.832 37.666 C 98.099 37.482, 96.066 37.508, 94.314 37.724 M 132.521 41.892 C 128.604 42.490, 128.425 42.708, 121.208 55.649 C 114.986 66.807, 113.922 69.399, 114.188 72.765 L 114.500 76.730 126.431 60.072 C 132.993 50.910, 138.543 42.870, 138.764 42.207 C 139.188 40.936, 138.876 40.921, 132.521 41.892 M 131.486 57.708 C 124.894 66.898, 119.500 74.855, 119.500 75.391 C 119.500 76.558, 134.221 79.200, 135.141 78.198 C 135.493 77.814, 140.623 70.525, 146.539 62 C 152.455 53.475, 158.160 45.263, 159.216 43.750 L 161.136 41 152.304 41 L 143.472 41 131.486 57.708 M 133.643 85.197 C 131.532 87.894, 131.314 88.711, 132.365 89.975 C 133.062 90.814, 138.528 97.125, 144.511 104 C 150.494 110.875, 155.418 116.579, 155.454 116.676 C 155.715 117.388, 179.995 118.097, 179.977 117.392 C 179.964 116.901, 176.408 109.975, 172.074 102 L 164.195 87.500 153.347 85.336 C 147.381 84.146, 141.080 82.896, 139.344 82.558 C 136.620 82.029, 135.840 82.390, 133.643 85.197" stroke="none" fill="black" fill-rule="evenodd"/>
</svg>