<svg xmlns="http://www.w3.org/2000/svg" width="200" height="200" viewBox="0 0 200 200" version="1.1">
	<path d="M 90.430 33.980 L 71.563 56.959 52.114 57.230 C 38.873 57.414, 32.546 57.857, 32.293 58.619 C 32.088 59.236, 35.108 60.920, 39.017 62.369 C 45.776 64.875, 47.029 64.999, 65.307 64.986 C 75.863 64.979, 85.513 64.701, 86.750 64.370 C 92.935 62.712, 86.952 61.999, 66.750 61.985 C 54.112 61.976, 43.852 61.551, 43 61 C 41.996 60.351, 46.626 60.026, 57.007 60.015 L 72.515 60 90.190 38.499 C 103.098 22.796, 108.002 17.470, 108.375 18.749 C 108.656 19.712, 109.196 25.225, 109.574 31 L 110.261 41.500 119.380 50.709 L 128.500 59.917 144.499 56.041 C 153.298 53.908, 160.623 52.289, 160.776 52.443 C 160.930 52.596, 159.875 58.297, 158.433 65.111 L 155.810 77.500 142.155 90.827 C 133.685 99.094, 123.226 107.977, 114.610 114.223 C 101.598 123.655, 99.543 124.762, 82.110 131.729 C 71.874 135.820, 63.153 139.499, 62.728 139.905 C 62.123 140.485, 70.766 147.871, 80.601 155.179 C 82.436 156.543, 121.285 158.984, 141.286 158.992 C 157.077 158.999, 161.462 159.341, 168.786 161.138 C 173.579 162.315, 177.864 163.601, 178.310 163.998 C 178.755 164.395, 173.200 168.579, 165.966 173.297 L 152.813 181.875 136.656 181.362 C 127.770 181.081, 112.020 179.984, 101.656 178.925 C 91.292 177.866, 82.245 177, 81.553 177 C 80.550 177, 69.349 164.171, 55.871 147.585 C 54.272 145.617, 54.112 145.685, 47.371 151.174 C 43.592 154.251, 37.130 159.713, 33.011 163.312 C 28.891 166.910, 25.397 169.730, 25.244 169.578 C 25.092 169.426, 27.138 164.171, 29.791 157.901 C 33.673 148.724, 36.452 144.094, 44.036 134.164 L 53.458 121.828 55.479 131.664 C 56.591 137.074, 57.886 141.453, 58.359 141.395 C 58.831 141.338, 66.483 135.861, 75.362 129.223 C 87.686 120.012, 94.494 113.994, 104.130 103.795 C 115.306 91.964, 117.675 88.805, 124.807 76.217 L 132.863 62 111.931 62 C 94.131 62, 91 62.221, 91 63.478 C 91 64.718, 93.954 65, 109.384 65.228 L 127.768 65.500 121.090 77.270 C 111.867 93.528, 95.486 110.920, 75.012 126.192 C 67.043 132.137, 60.236 137, 59.886 137 C 59.535 137, 58.456 132.838, 57.488 127.750 C 56.520 122.662, 55.442 117.952, 55.093 117.283 C 54.714 116.557, 49.812 122.199, 42.930 131.283 C 32.287 145.333, 30.955 147.598, 25.568 160.817 C 21.915 169.780, 20.086 175.486, 20.676 176.076 C 21.266 176.666, 25.335 173.734, 31.559 168.234 C 43.300 157.859, 52.921 149.993, 53.842 150.017 C 54.204 150.027, 59.900 156.571, 66.499 164.561 C 73.099 172.550, 79.399 179.276, 80.499 179.507 C 86.630 180.793, 126.624 183.962, 139.159 184.155 L 153.818 184.382 169.875 173.957 C 178.706 168.223, 185.610 163.250, 185.216 162.905 C 184.822 162.560, 178.774 160.866, 171.776 159.139 C 159.620 156.140, 158.126 155.998, 138.276 155.960 C 126.849 155.937, 109.610 155.344, 99.966 154.642 L 82.433 153.365 74.761 147.433 C 70.541 144.170, 67.083 141.275, 67.075 141 C 67.067 140.725, 74.809 137.471, 84.280 133.768 C 100.257 127.522, 102.491 126.321, 115.227 117.126 C 123.317 111.286, 134.908 101.525, 143.451 93.358 L 157.947 79.500 161.327 64.500 C 163.861 53.258, 164.393 49.424, 163.450 49.195 C 162.758 49.027, 154.725 50.702, 145.599 52.917 L 129.007 56.943 121.103 48.736 L 113.198 40.529 111.947 25.764 C 111.259 17.644, 110.381 11, 109.997 11 C 109.612 11, 100.807 21.341, 90.430 33.980" stroke="none" fill="black" fill-rule="evenodd"/>
</svg>