<svg xmlns="http://www.w3.org/2000/svg" width="200" height="200" viewBox="0 0 200 200" version="1.1">
	<path d="M 80.133 33.750 L 80.458 53.500 70.479 53.187 C 64.991 53.015, 53.300 52.456, 44.500 51.946 C 35.700 51.435, 26.250 51.014, 23.500 51.008 L 18.500 50.999 18.813 91.729 C 18.985 114.130, 19.228 132.561, 19.352 132.686 C 19.477 132.810, 25.636 130.658, 33.040 127.901 C 52.720 120.575, 78.118 111.783, 78.493 112.167 C 78.893 112.576, 80.784 148.458, 81.611 171.315 C 82.055 183.605, 82.536 188.008, 83.397 187.678 C 84.045 187.429, 91.442 184.410, 99.835 180.969 C 114.612 174.911, 115.079 174.630, 114.565 172.106 C 114.273 170.673, 112.858 160.848, 111.420 150.274 L 108.804 131.048 118.076 121.024 C 123.176 115.511, 127.520 111, 127.729 111 C 127.938 111, 133.730 115.612, 140.600 121.250 C 147.471 126.888, 153.409 131.612, 153.796 131.748 C 154.183 131.884, 158.887 127.085, 164.250 121.082 L 174 110.169 173.996 89.834 C 173.992 69.847, 173.934 69.281, 170.564 56.651 C 168.678 49.584, 166.879 43.546, 166.567 43.233 C 165.826 42.493, 162.448 43.610, 145.294 50.268 L 131.088 55.782 119.133 47.391 C 102.192 35.500, 100.827 36.103, 112.360 50.386 L 119.720 59.500 129.610 62.901 C 135.049 64.771, 139.684 66.455, 139.908 66.642 C 140.132 66.830, 134.957 74.039, 128.408 82.664 C 121.859 91.288, 116.008 99.007, 115.408 99.817 C 114.573 100.942, 114.048 98.958, 113.180 91.395 C 112.227 83.092, 107.001 56.401, 105.519 52.268 C 105.238 51.486, 101.484 53.519, 95.238 57.835 C 89.827 61.575, 84.811 64.999, 84.091 65.444 C 83.045 66.090, 82.845 64.670, 83.099 58.377 C 83.274 54.044, 83.323 42.288, 83.208 32.250 C 83.026 16.293, 82.799 14, 81.404 14 C 79.985 14, 79.844 16.197, 80.133 33.750 M 147.119 52.498 L 130.738 58.862 123.119 53.586 C 112.356 46.133, 112.080 46.041, 116.439 51.360 C 121.012 56.941, 122.320 57.677, 135.271 61.953 L 145.042 65.179 142.271 68.889 C 128.404 87.459, 112.641 107.975, 112.415 107.748 C 112.261 107.594, 111.637 102.525, 111.028 96.484 C 110.113 87.404, 104.466 57.328, 103.457 56.168 C 103.238 55.915, 90.412 64.316, 83.750 69.077 C 83.306 69.394, 83.661 77.202, 84.537 86.427 C 85.414 95.653, 85.937 103.396, 85.699 103.634 C 85.191 104.142, 50.606 111.924, 50.277 111.605 C 50.155 111.486, 52.365 104.750, 55.189 96.635 L 60.323 81.883 70.186 75.191 C 79.593 68.809, 80.034 68.350, 79.725 65.250 C 79.547 63.462, 79.791 62, 80.267 62 C 80.743 62, 80.990 60.763, 80.816 59.250 L 80.500 56.500 51.211 55.123 C 35.101 54.365, 21.807 53.915, 21.667 54.123 C 21.527 54.330, 21.591 71.238, 21.807 91.696 L 22.202 128.891 31.851 125.355 C 58.284 115.667, 80.405 108.072, 80.861 108.528 C 81.682 109.349, 82.986 131.599, 83.771 158.167 C 84.172 171.734, 84.751 183.085, 85.057 183.391 C 85.363 183.696, 91.438 181.502, 98.557 178.514 C 110.067 173.683, 111.478 172.828, 111.301 170.791 C 111.191 169.531, 109.909 159.812, 108.452 149.193 L 105.802 129.885 116.151 119.193 C 121.843 113.312, 126.950 108.379, 127.500 108.231 C 128.050 108.083, 134.074 112.488, 140.887 118.019 C 147.699 123.550, 153.620 127.946, 154.044 127.788 C 154.468 127.630, 158.447 123.450, 162.887 118.500 L 170.959 109.500 171.220 95.500 C 171.667 71.610, 171.538 70.072, 168.064 57.750 C 166.242 51.287, 164.469 46.030, 164.125 46.067 C 163.781 46.104, 156.129 48.998, 147.119 52.498 M 71.053 77.787 L 62.735 83.602 58.411 95.801 C 56.033 102.510, 54.296 108, 54.551 108 C 55.653 108, 82.468 101.866, 82.795 101.539 C 83.382 100.951, 80.759 73.571, 80.035 72.736 C 79.670 72.316, 75.629 74.589, 71.053 77.787" stroke="none" fill="black" fill-rule="evenodd"/>
</svg>