<svg xmlns="http://www.w3.org/2000/svg" width="200" height="200" viewBox="0 0 200 200" version="1.1">
	<path d="M 145.963 25.675 C 142.504 29.979, 139.084 34.148, 138.362 34.940 C 137.522 35.861, 129.763 37.496, 116.846 39.476 C 104.324 41.394, 96.489 43.033, 96.238 43.786 C 95.670 45.489, 97.769 45.346, 115.639 42.462 C 124.289 41.066, 131.971 40.053, 132.710 40.212 C 133.636 40.410, 133.134 41.613, 131.100 44.073 C 128.610 47.085, 125.737 48.560, 112.823 53.455 C 104.395 56.650, 97.076 59.651, 96.558 60.124 C 95.742 60.869, 96.795 71.870, 98.652 82 C 99.016 83.987, 97.252 86.842, 90.054 95.916 C 85.074 102.195, 81.182 107.515, 81.405 107.739 C 81.629 107.963, 83.542 107.665, 85.656 107.078 C 87.770 106.491, 90.267 106.009, 91.203 106.006 C 92.754 106, 92.774 106.246, 91.426 108.750 C 90.611 110.263, 87.228 121.835, 83.909 134.467 C 78.995 153.163, 78.121 157.626, 79.206 158.467 C 79.939 159.035, 84.992 162.874, 90.436 166.997 L 100.332 174.493 96.416 175.189 C 91.267 176.104, 53.046 176.178, 46 175.287 C 41.538 174.723, 41.036 174.488, 43.343 174.046 C 45.979 173.539, 46.818 172.008, 54.945 152.862 L 63.705 132.224 58.856 116.862 C 56.189 108.413, 54.006 101.419, 54.004 101.320 C 54.002 101.220, 54.946 100.995, 56.101 100.820 C 57.691 100.578, 61.242 95.041, 70.673 78.103 C 78.383 64.254, 82.735 55.454, 82.075 55.046 C 81.488 54.684, 73.018 52.220, 63.254 49.571 C 53.489 46.922, 45.105 44.393, 44.623 43.951 C 44.141 43.508, 54.828 43.408, 68.373 43.728 C 85.121 44.123, 93 43.977, 93 43.270 C 93 41.748, 84.959 41.092, 62.752 40.805 C 43.062 40.550, 42.999 40.556, 41.369 42.883 C 40.151 44.622, 40.038 45.405, 40.925 45.953 C 41.579 46.358, 50.077 48.825, 59.808 51.435 C 69.538 54.044, 77.827 56.489, 78.226 56.866 C 78.772 57.382, 58.318 95.887, 56.448 97.866 C 56.258 98.067, 54.729 97.753, 53.051 97.168 C 51.342 96.572, 50 96.503, 50 97.011 C 50 97.509, 52.427 105.616, 55.394 115.026 L 60.788 132.135 52.841 150.818 C 48.470 161.093, 44.478 169.917, 43.970 170.426 C 43.463 170.936, 36.673 172.162, 28.882 173.152 C 21.090 174.141, 14.472 175.195, 14.175 175.492 C 12.040 177.627, 21.292 177.995, 87.030 178.390 C 126.339 178.627, 159.085 178.974, 159.801 179.160 C 161.358 179.567, 179.844 164.042, 179.936 162.250 C 180.030 160.416, 178.313 160.644, 163 164.500 C 155.356 166.425, 148.966 168, 148.801 167.999 C 148.635 167.999, 148.495 149.131, 148.489 126.072 C 148.483 103.012, 148.156 83.823, 147.762 83.429 C 147.368 83.035, 139.836 85.231, 131.023 88.308 C 122.210 91.385, 115 93.769, 115 93.606 C 115 93.443, 130.148 81.878, 148.661 67.905 C 177.509 46.133, 181.937 42.454, 179.624 42.180 C 178.139 42.004, 168.799 42.566, 158.868 43.430 C 148.937 44.293, 139.245 45, 137.330 45 L 133.848 45 136.174 42.090 C 137.453 40.489, 139.431 38.926, 140.568 38.616 C 143.169 37.908, 154.487 20.087, 153.171 18.771 C 152.611 18.211, 149.791 20.912, 145.963 25.675 M 151.500 46.650 C 142.150 47.419, 133.492 48.475, 132.260 48.998 C 131.028 49.520, 123.727 57.858, 116.036 67.525 L 102.052 85.102 102.675 89.801 C 103.017 92.385, 103.568 95.243, 103.899 96.150 C 104.372 97.450, 111.840 92.272, 139 71.810 C 157.975 57.515, 173.688 45.635, 173.917 45.410 C 174.488 44.848, 171.190 45.031, 151.500 46.650 M 111.500 56.889 C 97.754 62.279, 98.152 61.677, 100.257 73.910 L 101.531 81.321 113.286 66.660 C 119.752 58.597, 124.695 52.041, 124.271 52.092 C 123.847 52.142, 118.100 54.301, 111.500 56.889 M 127 92.706 C 115.094 96.992, 110.998 98.812, 114.185 98.399 L 118.870 97.792 119.418 101.146 C 120.469 107.582, 124 139.833, 124 142.994 C 124 145.069, 121.351 151.063, 116.409 160.167 C 112.235 167.859, 109.025 174.358, 109.276 174.609 C 109.528 174.861, 121.123 175.470, 135.044 175.962 L 160.354 176.858 166.701 171.286 C 170.191 168.222, 172.912 165.578, 172.745 165.412 C 172.579 165.246, 166.490 166.611, 159.213 168.446 C 151.937 170.281, 145.841 171.494, 145.666 171.141 C 145.491 170.789, 145.642 160.825, 146 149 C 146.530 131.490, 145.625 86.945, 144.730 86.517 C 144.604 86.457, 136.625 89.242, 127 92.706 M 93.058 96.429 C 88.909 101.506, 87.346 104.047, 88.589 103.693 C 89.640 103.394, 92.075 102.857, 94 102.500 C 100.837 101.232, 101.006 101.101, 100.900 97.183 C 100.845 95.157, 100.494 92.402, 100.119 91.060 C 99.482 88.776, 99.033 89.116, 93.058 96.429 M 107.011 102.619 C 102.974 103.501, 99.196 105.104, 97.011 106.861 C 93.647 109.569, 93.241 110.644, 87.315 132.593 C 83.913 145.192, 81.213 155.802, 81.315 156.171 C 81.417 156.540, 86.859 160.937, 93.408 165.942 L 105.317 175.043 113.531 159.772 L 121.745 144.500 119.421 125 C 118.143 114.275, 117.075 104.487, 117.048 103.250 C 116.992 100.640, 116.273 100.595, 107.011 102.619" stroke="none" fill="black" fill-rule="evenodd"/>
</svg>