<svg xmlns="http://www.w3.org/2000/svg" width="200" height="200" viewBox="0 0 200 200" version="1.1">
	<path d="M 63 20.436 C 63 21.914, 72.057 22.982, 84.691 22.993 C 89.196 22.997, 93.078 23.337, 93.318 23.750 C 93.558 24.163, 93.182 29, 92.482 34.500 C 91.782 40, 91.050 52.375, 90.855 62 L 90.500 79.500 103 80.815 L 115.500 82.129 130 75.914 C 144.042 69.895, 144.773 69.431, 153.140 61.230 L 161.780 52.761 172.344 61.259 L 182.908 69.757 138.204 78.503 C 113.617 83.313, 93.101 87.615, 92.612 88.062 C 91.081 89.465, 90.662 120.960, 91.967 136.623 C 92.648 144.805, 93.396 151.699, 93.628 151.942 C 93.861 152.186, 101.267 153.197, 110.087 154.190 L 126.123 155.996 141.102 149.760 L 156.081 143.524 158.626 135.181 C 160.025 130.592, 161.312 126.986, 161.484 127.169 C 161.656 127.351, 163.003 133.502, 164.477 140.839 C 166.830 152.552, 167.072 155.492, 166.458 164.964 L 165.759 175.750 160.629 176.384 C 157.808 176.733, 143.956 177.310, 129.846 177.667 C 106.070 178.268, 103.141 178.147, 89.846 176.015 C 81.956 174.751, 74.852 173.377, 74.061 172.962 C 73.262 172.544, 71.148 166.708, 69.313 159.854 L 66.004 147.500 67.133 128.427 L 68.263 109.355 64.131 100.539 C 61.859 95.690, 60 91.579, 60 91.402 C 60 91.225, 61.868 90.521, 64.151 89.837 L 68.302 88.593 67.654 70.046 C 67.297 59.846, 67.004 45.538, 67.003 38.250 C 67 26.658, 66.796 25, 65.366 25 C 63.874 25, 63.796 27.673, 64.464 55.827 L 65.195 86.654 50.848 90.978 C 37.402 95.031, 21.021 100.645, 20.176 101.491 C 19.969 101.698, 20.075 102.312, 20.410 102.855 C 20.785 103.460, 28.209 101.980, 39.585 99.030 L 58.150 94.218 61.689 101.859 L 65.229 109.500 64.221 128.271 L 63.213 147.041 66.856 161.271 L 70.500 175.500 86 178.195 C 97.384 180.175, 105.052 180.905, 114.877 180.945 C 126.972 180.995, 167.088 179.156, 167.787 178.520 C 167.945 178.377, 168.539 172.813, 169.107 166.156 C 170.105 154.467, 170.036 153.548, 167.068 139.276 C 165.377 131.149, 163.762 123.487, 163.478 122.250 C 162.359 117.374, 160.270 120.151, 157.070 130.768 L 153.824 141.537 139.769 147.348 L 125.715 153.159 111.107 151.457 C 103.073 150.520, 96.384 149.656, 96.241 149.535 C 94.708 148.236, 92.948 91.719, 94.396 90.271 C 94.692 89.974, 123.436 84.265, 180.483 73.172 L 189.466 71.425 176.124 60.713 C 168.787 54.821, 162.278 50, 161.661 50 C 161.044 50, 156.706 53.812, 152.020 58.472 C 143.839 66.606, 142.943 67.187, 129.502 73.076 C 114.275 79.748, 114.482 79.720, 97.169 77.343 L 92.839 76.749 93.467 61.124 C 94.037 46.937, 95.236 32.662, 96.556 24.338 L 97.058 21.176 89.779 20.622 C 71.101 19.201, 63 19.145, 63 20.436" stroke="none" fill="black" fill-rule="evenodd"/>
</svg>