<svg xmlns="http://www.w3.org/2000/svg" width="200" height="200" viewBox="0 0 200 200" version="1.1">
	<path d="M 58.193 11.750 C 59.019 12.713, 65.895 21.375, 73.472 31 C 81.049 40.625, 87.781 49.073, 88.433 49.774 C 89.390 50.802, 91.891 50.556, 101.376 48.506 L 113.134 45.964 122.567 54.639 C 127.755 59.411, 132 63.527, 132 63.786 C 132 64.045, 126.037 63.916, 118.750 63.499 C 102.832 62.589, 58.838 62.632, 39.750 63.576 C 29.957 64.061, 26 64.608, 26 65.478 C 26 66.322, 31.128 67.236, 42.566 68.432 L 59.131 70.164 74.816 79.580 C 83.442 84.758, 90.329 89.334, 90.120 89.747 C 89.911 90.161, 82.809 96.462, 74.338 103.750 L 58.935 117 52.467 117 C 47.770 117, 46 117.362, 46 118.323 C 46 119.226, 52.114 121.011, 65.250 123.942 C 75.838 126.305, 84.890 128.596, 85.366 129.035 C 86.058 129.672, 84.437 172.896, 83.693 173.640 C 83.585 173.749, 73.037 174.521, 60.255 175.356 C 47.472 176.190, 36.563 177.152, 36.012 177.492 C 35.461 177.833, 34.603 178.874, 34.104 179.806 C 33.255 181.392, 37.397 181.479, 98.849 181.178 C 134.957 181.001, 168.412 180.551, 173.192 180.178 L 181.885 179.500 171.692 168.711 C 166.087 162.776, 160.933 157.939, 160.240 157.961 C 159.548 157.982, 149.937 162.526, 138.883 168.059 C 127.828 173.591, 118.673 177.979, 118.538 177.809 C 118.403 177.639, 116.638 168.152, 114.616 156.727 C 112.595 145.302, 110.689 134.696, 110.382 133.158 L 109.823 130.363 128.902 125.996 C 139.395 123.595, 148.342 121.376, 148.784 121.065 C 149.468 120.584, 160.646 107.169, 164.869 101.761 C 165.824 100.538, 160.180 102.130, 145.864 107.122 C 134.664 111.027, 124.754 114.439, 123.842 114.704 C 122.480 115.099, 121.292 112.357, 117.189 99.343 C 114.442 90.629, 111.930 82.597, 111.607 81.493 C 111.059 79.622, 112.403 79.187, 131.260 75.118 C 142.392 72.716, 152.249 70.469, 153.165 70.125 C 154.727 69.539, 167.042 55.173, 166.964 54.028 C 166.945 53.738, 162.332 50.731, 156.714 47.347 C 148.634 42.480, 141.903 39.585, 124.500 33.488 C 93.695 22.697, 93.495 22.614, 87.416 18.025 C 81.956 13.902, 78.177 13.328, 81.632 17.146 C 83.036 18.697, 80.783 18.167, 70.577 14.547 C 63.528 12.046, 57.519 10, 57.225 10 C 56.931 10, 57.366 10.787, 58.193 11.750 M 76.652 30.750 C 83.065 38.862, 88.838 46.081, 89.482 46.791 C 90.435 47.841, 92.405 47.692, 100.044 45.990 C 105.209 44.840, 109.579 43.755, 109.754 43.579 C 109.930 43.403, 105.169 38.813, 99.175 33.380 C 88.448 23.657, 88.101 23.441, 77.272 19.750 C 71.220 17.688, 65.981 16, 65.630 16 C 65.279 16, 70.239 22.637, 76.652 30.750 M 103.500 29.695 C 104.050 30.239, 108.502 33.554, 113.392 37.062 C 122.261 43.423, 122.277 43.443, 119.576 44.547 L 116.868 45.654 127.962 55.965 C 134.065 61.636, 138.866 66.467, 138.633 66.700 C 138.400 66.934, 125.449 66.647, 109.854 66.064 C 92.657 65.420, 75.401 65.336, 66 65.849 C 57.475 66.314, 52.452 66.763, 54.838 66.847 C 58.436 66.974, 62.227 68.831, 77.089 77.746 C 86.941 83.657, 94.889 88.805, 94.751 89.187 C 94.259 90.548, 60.877 119.001, 59.700 119.063 C 57.237 119.194, 62.895 120.762, 75.833 123.536 L 89.166 126.394 88.457 140.447 C 88.067 148.176, 87.467 159.450, 87.124 165.500 L 86.500 176.500 78 177.064 C 72.641 177.419, 78.080 177.696, 92.719 177.814 C 110.906 177.960, 115.851 177.729, 115.540 176.750 C 114.579 173.726, 106.822 128.845, 107.196 128.471 C 107.425 128.242, 116.587 125.987, 127.556 123.459 C 138.525 120.931, 147.757 118.557, 148.071 118.182 C 155.884 108.850, 158.178 106, 157.871 106 C 157.667 106, 149.141 108.889, 138.925 112.419 L 120.350 118.838 114.175 99.084 C 110.779 88.219, 108 78.877, 108 78.323 C 108 77.521, 132.469 71.688, 149.656 68.393 C 151.986 67.946, 154.167 66.096, 157.996 61.318 C 160.848 57.759, 163.028 54.700, 162.840 54.520 C 162.653 54.341, 158.857 51.938, 154.405 49.182 C 146.895 44.533, 142.708 42.875, 104.279 29.332 C 103.102 28.918, 102.838 29.040, 103.500 29.695 M 109.636 39.014 C 111.911 41.340, 114.340 43.053, 115.035 42.822 C 115.729 42.590, 113.868 40.687, 110.899 38.593 L 105.500 34.785 109.636 39.014 M 142.500 169.441 L 125.500 177.826 150.750 177.913 C 164.637 177.961, 176 177.652, 176 177.227 C 176 176.387, 160.762 160.982, 159.978 161.028 C 159.715 161.044, 151.850 164.830, 142.500 169.441 M 60.813 178.683 C 61.534 178.972, 62.397 178.936, 62.729 178.604 C 63.061 178.272, 62.471 178.036, 61.417 178.079 C 60.252 178.127, 60.015 178.364, 60.813 178.683" stroke="none" fill="black" fill-rule="evenodd"/>
</svg>