<svg xmlns="http://www.w3.org/2000/svg" width="200" height="200" viewBox="0 0 200 200" version="1.1">
	<path d="M 76.371 23.750 C 76.672 25.813, 77.185 31.325, 77.511 36 C 78.281 47.033, 78.914 50.171, 80.208 49.371 C 81.237 48.736, 80.665 33.739, 79.322 26.110 L 78.725 22.719 91.376 23.207 C 98.334 23.475, 104.327 23.993, 104.693 24.359 C 106.552 26.218, 107.571 40.405, 106.859 54.500 C 106.042 70.682, 105.799 69.197, 113.108 92.650 L 114.089 95.801 126.770 88.400 C 140.463 80.410, 140.639 80.366, 154.250 81.652 L 161 82.289 161 88.774 L 161 95.258 154.250 94.643 C 128.566 92.301, 127.801 92.359, 109.500 98.057 L 106.500 98.991 106.500 130.377 L 106.500 161.763 112.566 168.632 C 115.902 172.409, 118.966 176.063, 119.375 176.750 C 119.963 177.739, 113.905 177.981, 90.309 177.910 C 72.610 177.856, 61.719 177.483, 63.500 176.990 C 65.150 176.534, 70.042 175.392, 74.372 174.453 L 82.244 172.745 81.449 157.622 C 81.011 149.305, 80.619 122.739, 80.577 98.586 C 80.514 62.424, 80.259 54.591, 79.135 54.214 C 77.989 53.830, 77.831 63.151, 78.147 112.251 L 78.525 170.745 66.012 173.341 C 56.678 175.278, 49.623 176.033, 38.237 176.315 C 29.843 176.522, 22.673 176.994, 22.304 177.363 C 19.766 179.901, 26.609 180.197, 94.643 180.496 C 133.614 180.668, 169.887 181.138, 175.250 181.541 C 180.613 181.944, 185 181.972, 185 181.604 C 185 181.078, 171.821 160.809, 170.361 159.090 C 169.845 158.482, 163.695 160.431, 141.639 168.190 C 130.715 172.034, 121.461 174.800, 121.074 174.339 C 120.686 173.878, 117.860 170.575, 114.793 167 L 109.217 160.500 109.299 130.766 L 109.381 101.031 114.440 99.570 C 128.244 95.582, 128.182 95.587, 145.596 96.799 C 154.821 97.440, 162.584 97.749, 162.849 97.484 C 163.114 97.219, 163.542 93.354, 163.800 88.894 C 164.147 82.903, 163.930 80.575, 162.969 79.981 C 162.253 79.538, 156.624 78.861, 150.460 78.476 L 139.253 77.776 128.114 84.388 C 121.988 88.025, 116.621 91, 116.188 91 C 115.756 91, 113.959 86.075, 112.195 80.056 C 109.037 69.279, 108.998 68.893, 109.642 54.706 C 110.076 45.169, 109.872 37.087, 109.039 30.796 L 107.781 21.293 96.641 20.651 C 90.513 20.298, 83.323 20.007, 80.662 20.005 L 75.824 20 76.371 23.750 M 146.117 169.518 C 134.356 173.597, 124.456 177.235, 124.117 177.603 C 123.777 177.971, 129.575 178.013, 137 177.696 C 144.425 177.380, 156.958 177.573, 164.851 178.126 C 172.744 178.679, 179.368 178.966, 179.571 178.763 C 180.111 178.222, 169.098 161.991, 168.233 162.051 C 167.830 162.080, 157.877 165.440, 146.117 169.518" stroke="none" fill="black" fill-rule="evenodd"/>
</svg>