<svg xmlns="http://www.w3.org/2000/svg" width="200" height="200" viewBox="0 0 200 200" version="1.1">
	<path d="M 122 18.547 C 105.225 23.166, 79.350 29.656, 64.500 32.971 C 49.650 36.285, 36.487 39.231, 35.250 39.518 C 29.883 40.759, 33.661 42.687, 50.750 47.428 C 60.513 50.137, 69.103 52.651, 69.839 53.016 C 71.400 53.789, 45.235 54.992, 26.750 54.997 C 16.549 54.999, 14 55.277, 14 56.386 C 14 57.971, 15.765 58.276, 37.975 60.539 C 46.486 61.407, 53.648 62.315, 53.891 62.558 C 54.134 62.801, 53.808 63, 53.167 63 C 52.525 63, 52 63.675, 52 64.500 C 52 66.252, 52.489 66.344, 54.912 65.047 C 56.323 64.292, 57.150 64.711, 58.888 67.062 C 60.496 69.237, 60.737 70.145, 59.791 70.457 C 59.081 70.691, 50.979 72.101, 41.787 73.590 L 25.075 76.296 27.234 79.398 C 28.422 81.104, 31.969 85.913, 35.116 90.085 L 40.839 97.670 40.265 115.429 L 39.691 133.187 60.062 116.144 C 71.267 106.770, 80.539 99.206, 80.668 99.335 C 80.797 99.464, 78.155 107.074, 74.796 116.246 L 68.689 132.922 41.468 155.700 C 26.181 168.491, 14.451 179.012, 14.714 179.696 C 15.020 180.496, 26.216 175.396, 47.235 164.882 C 64.933 156.030, 79.560 149.283, 79.894 149.817 C 84.020 156.410, 107.640 190.926, 108.048 190.958 C 108.350 190.981, 109.678 175.475, 111 156.500 C 112.322 137.525, 113.715 122, 114.095 122 C 114.475 122, 122.771 133.243, 132.529 146.985 L 150.271 171.970 160.003 162.997 C 165.355 158.062, 170.267 153.383, 170.918 152.599 C 172.162 151.100, 171.886 150.875, 142.703 129.547 C 136.764 125.207, 131.719 121.355, 131.492 120.987 C 131.264 120.618, 141.973 117.947, 155.289 115.050 C 168.605 112.153, 179.839 109.471, 180.253 109.089 C 180.667 108.707, 175.168 104.143, 168.034 98.947 C 159.432 92.682, 155.203 88.995, 155.479 88 C 155.707 87.175, 156.194 82.869, 156.560 78.432 L 157.227 70.364 150.071 69.013 C 145.822 68.212, 143.078 67.224, 143.316 66.582 C 143.537 65.987, 144.294 63.889, 144.998 61.920 C 146.223 58.497, 146.743 58.188, 156.889 54.853 C 170.381 50.419, 171.019 48.624, 159.250 48.210 C 154.713 48.050, 151 47.679, 151 47.385 C 151 47.092, 153.307 41.241, 156.126 34.385 C 158.945 27.528, 161.031 21.697, 160.761 21.427 C 160.302 20.969, 112.438 46.326, 110.707 47.945 C 109.937 48.665, 129.627 49.988, 141.225 49.996 L 146.950 50 145.919 52.750 C 145.352 54.263, 142.632 57.796, 139.874 60.602 L 134.860 65.704 124.933 63.648 C 116.034 61.805, 114.151 61.718, 106.753 62.806 C 99.827 63.825, 95.806 63.747, 81.750 62.318 C 72.537 61.382, 65 60.300, 65 59.915 C 65 58.552, 68.587 57.615, 75.921 57.061 C 83.635 56.478, 86.071 54.857, 81.516 53.339 C 79.221 52.574, 83.210 50.240, 117.148 32.489 C 138.166 21.495, 155.544 11.938, 155.765 11.250 C 155.992 10.544, 155.369 10.032, 154.333 10.075 C 153.325 10.116, 138.775 13.928, 122 18.547 M 113.500 23.648 C 98.650 27.736, 76.178 33.322, 63.562 36.062 C 50.946 38.801, 40.482 41.185, 40.309 41.358 C 39.940 41.727, 73.119 51, 74.806 51 C 75.761 51, 140.654 17.521, 141.917 16.377 C 142.717 15.652, 140.313 16.268, 113.500 23.648 M 137.045 36.488 C 127.388 41.699, 120.241 46.122, 121.045 46.389 C 121.845 46.655, 128.227 47.034, 135.227 47.231 L 147.954 47.589 151.590 38.545 C 153.589 33.570, 155.447 28.938, 155.719 28.250 C 155.991 27.563, 155.828 27.016, 155.357 27.035 C 154.886 27.054, 146.645 31.308, 137.045 36.488 M 148.583 52.643 C 148.237 53.547, 148.076 54.386, 148.226 54.508 C 148.377 54.630, 150.750 53.926, 153.500 52.943 L 158.500 51.155 153.857 51.078 C 150.424 51.020, 149.050 51.428, 148.583 52.643 M 42.500 58.057 C 48.127 59.221, 52.239 59.195, 51.500 58 C 51.160 57.450, 48.096 57.052, 44.691 57.115 C 38.753 57.225, 38.663 57.264, 42.500 58.057 M 55 58.500 C 56.578 60.401, 59.071 60.413, 61.559 58.532 C 63.352 57.175, 63.129 57.061, 58.628 57.032 C 54.408 57.004, 53.922 57.201, 55 58.500 M 61.563 66.245 C 63.178 68.030, 64.500 69.561, 64.500 69.648 C 64.500 69.897, 81.218 67.045, 84 66.322 C 86.336 65.715, 69.271 63.238, 61.563 63.066 L 58.626 63 61.563 66.245 M 139.980 64.524 C 139.284 65.362, 138.968 66.301, 139.276 66.610 C 139.585 66.919, 140.340 66.233, 140.954 65.086 C 142.264 62.638, 141.778 62.358, 139.980 64.524 M 104.584 65.856 L 95.668 67.500 89.011 85.500 C 85.350 95.400, 79.782 110.489, 76.637 119.032 L 70.919 134.564 48.959 152.943 C 36.882 163.052, 27 171.484, 27 171.682 C 27 171.880, 38.954 166.038, 53.564 158.700 L 80.129 145.358 92.814 164.101 C 103.402 179.746, 105.610 182.486, 106.164 180.673 C 106.528 179.478, 107.823 164.100, 109.041 146.500 C 110.258 128.900, 111.432 114.302, 111.650 114.060 C 111.868 113.819, 112.674 114.494, 113.442 115.560 C 117.582 121.314, 117.910 121.578, 118.966 120 C 120.824 117.223, 120.030 116.158, 111.531 110.022 C 106.872 106.659, 102.806 103.495, 102.495 102.991 C 102.183 102.487, 108.917 94.440, 117.460 85.107 L 132.991 68.140 127.246 66.997 C 124.085 66.368, 119.925 65.439, 118 64.932 C 116.075 64.426, 114.275 64.057, 114 64.112 C 113.725 64.167, 109.488 64.952, 104.584 65.856 M 79.183 70.046 C 73.508 71.054, 68.435 72.022, 67.908 72.197 C 67.382 72.373, 70.615 76.922, 75.094 82.307 C 79.572 87.692, 83.382 91.952, 83.560 91.773 C 84.043 91.291, 91.976 69.621, 91.989 68.750 C 92.003 67.800, 91.608 67.840, 79.183 70.046 M 121 85.146 C 113.025 93.995, 106.500 101.599, 106.500 102.042 C 106.500 103.036, 119.551 113, 120.853 113 C 121.608 113, 139 71.306, 139 69.498 C 139 69.224, 138.213 69.012, 137.250 69.028 C 136.277 69.043, 129.061 76.201, 121 85.146 M 141.216 71.702 C 140.718 72.691, 136.579 82.872, 132.018 94.328 C 124.387 113.497, 123.855 115.284, 125.341 116.770 C 126.827 118.256, 128.728 118.001, 149.228 113.565 C 161.478 110.915, 172.342 108.436, 173.371 108.056 C 174.875 107.502, 173.005 105.757, 163.823 99.146 L 152.404 90.926 153.300 82.938 C 153.792 78.545, 153.962 74.344, 153.677 73.602 C 153.393 72.860, 151.436 71.947, 149.330 71.573 C 147.223 71.199, 144.740 70.671, 143.811 70.399 C 142.818 70.108, 141.748 70.645, 141.216 71.702 M 46.311 75.521 C 39.058 76.791, 32.413 77.980, 31.546 78.165 C 30.363 78.416, 31.623 80.760, 36.586 87.538 L 43.204 96.576 43.056 111.288 C 42.975 119.380, 43.266 125.974, 43.704 125.941 C 45.208 125.830, 80.500 95.455, 80.500 94.271 C 80.500 93.620, 76.758 88.568, 72.185 83.044 C 66.061 75.648, 63.293 73.028, 61.685 73.106 C 60.483 73.165, 53.565 74.251, 46.311 75.521 M 123.199 122.041 C 121.384 122.441, 119.736 122.933, 119.537 123.134 C 119.339 123.335, 126.278 133.516, 134.957 145.757 L 150.738 168.014 159.470 159.757 L 168.201 151.500 148.427 137 C 137.551 129.025, 128.168 122.233, 127.576 121.906 C 126.984 121.580, 125.015 121.640, 123.199 122.041" stroke="none" fill="black" fill-rule="evenodd"/>
</svg>