<svg xmlns="http://www.w3.org/2000/svg" width="200" height="200" viewBox="0 0 200 200" version="1.1">
	<path d="M 131.500 16.410 L 123.500 19.719 92.021 21.406 C 57.653 23.249, 60.155 23.485, 57.063 18.110 C 55.711 15.760, 53.809 17.774, 55.101 20.188 C 56.728 23.229, 54.830 23.967, 45.332 23.985 C 40.839 23.993, 36.501 24.254, 35.692 24.565 C 34.413 25.056, 34.290 31.729, 34.760 75.458 L 35.300 125.787 28.024 145.435 C 24.023 156.241, 21.022 165.355, 21.356 165.689 C 21.689 166.023, 30.858 162.589, 41.731 158.060 C 57.594 151.451, 64.859 147.726, 78.500 139.208 C 106.818 121.526, 106.290 121.890, 105.180 120.780 C 104.479 120.079, 97.565 123.947, 83.327 133.006 C 65.650 144.254, 59.702 147.435, 44 154.041 C 33.825 158.322, 25.403 161.730, 25.285 161.614 C 25.167 161.499, 28.014 153.551, 31.612 143.952 L 38.152 126.500 37.553 76.750 L 36.954 27 42.227 26.991 C 45.127 26.987, 49.781 26.708, 52.569 26.373 L 57.638 25.764 59.239 30.132 C 60.597 33.838, 60.903 41.591, 61.253 81.250 C 61.480 106.962, 61.950 128.283, 62.296 128.629 C 63.032 129.365, 105.054 119.132, 106.433 117.880 C 109.051 115.505, 104.273 116.183, 85.784 120.812 C 74.628 123.605, 65.206 125.577, 64.848 125.195 C 64.489 124.813, 64.026 104.162, 63.819 79.304 C 63.612 54.447, 63.523 34.197, 63.622 34.304 C 63.721 34.412, 71.766 47.775, 81.500 64 C 91.234 80.225, 99.311 93.621, 99.450 93.768 C 99.589 93.916, 104.954 87.656, 111.371 79.858 L 123.039 65.680 114.270 60.564 C 109.446 57.750, 99.753 52.098, 92.730 48.004 C 83.186 42.440, 80.407 40.389, 81.730 39.888 C 82.703 39.519, 92.915 35.343, 104.423 30.608 C 123.137 22.909, 126.014 22, 131.673 22 L 138 22 138.016 31.750 C 138.026 37.112, 137.068 53.200, 135.890 67.500 L 133.746 93.500 124.123 114.627 L 114.500 135.755 93.500 150.950 C 78.036 162.139, 71.219 167.732, 67.642 172.164 C 64.474 176.089, 63.124 178.524, 63.762 179.162 C 64.856 180.256, 101.396 165.040, 128.895 152.038 L 145.500 144.186 163.874 163.136 C 173.980 173.558, 182.435 181.898, 182.664 181.669 C 182.893 181.440, 180.577 171.184, 177.517 158.877 C 173.464 142.577, 170.326 132.562, 165.963 122 C 162.668 114.025, 159.979 106.736, 159.986 105.802 C 159.994 104.867, 162.295 93.633, 165.100 80.836 L 170.200 57.569 168.555 39.072 C 167.650 28.899, 166.807 20.474, 166.682 20.349 C 166.558 20.224, 160.728 19.804, 153.728 19.415 L 141 18.708 141 15.854 C 141 14.284, 140.662 13.023, 140.250 13.050 C 139.838 13.078, 135.900 14.590, 131.500 16.410 M 135 18 C 133.787 18.784, 133.931 18.972, 135.750 18.985 C 136.988 18.993, 138 18.550, 138 18 C 138 16.747, 136.939 16.747, 135 18 M 140.945 31.750 C 140.915 37.112, 139.883 53.425, 138.652 68 L 136.413 94.500 126.518 116.055 L 116.622 137.611 95.782 152.555 C 84.320 160.775, 73.584 169.188, 71.924 171.250 C 70.264 173.312, 69.087 175, 69.309 175 C 70.527 175, 114.003 156.066, 128.658 149.153 L 145.816 141.060 161.583 157.021 C 170.255 165.800, 177.470 172.863, 177.616 172.717 C 177.763 172.570, 175.725 163.912, 173.088 153.475 C 169.851 140.666, 166.406 130.012, 162.487 120.688 L 156.681 106.877 161.993 82.127 L 167.305 57.376 165.902 40.482 C 164.266 20.763, 165.544 22.264, 150.250 22.100 L 141 22 140.945 31.750 M 83.234 24.490 C 72.088 25.155, 62.792 25.879, 62.577 26.099 C 62.003 26.688, 99.383 88.968, 100.158 88.715 C 100.860 88.485, 118.961 66.619, 118.672 66.349 C 118.577 66.261, 108.414 60.313, 96.086 53.132 C 75.917 41.382, 73.915 39.982, 76.086 39.149 C 83.669 36.240, 113.448 23.885, 113.853 23.481 C 114.510 22.823, 107.072 23.069, 83.234 24.490" stroke="none" fill="black" fill-rule="evenodd"/>
</svg>