<svg xmlns="http://www.w3.org/2000/svg" width="200" height="200" viewBox="0 0 200 200" version="1.1">
	<path d="M 76.175 21.467 L 71.145 42.037 51.054 62.871 C 38.783 75.595, 29.172 86.504, 26.360 90.898 C 23.829 94.854, 21.925 98.244, 22.129 98.430 C 22.333 98.617, 32.400 95.017, 44.500 90.431 L 66.500 82.092 89.500 83.699 C 102.613 84.616, 112.980 85.778, 113.616 86.403 C 114.524 87.296, 120 107.208, 120 109.618 C 120 109.992, 116.162 110.026, 111.471 109.695 C 106.780 109.364, 90.472 108.836, 75.233 108.521 L 47.524 107.948 52.502 113.224 C 55.240 116.126, 61.190 122.327, 65.724 127.003 L 73.967 135.507 74.234 163.354 L 74.500 191.201 89.500 177.940 L 104.500 164.680 105 156.365 L 105.500 148.051 124.861 163.016 C 135.510 171.246, 144.563 177.770, 144.979 177.513 C 146.522 176.559, 171.490 136.696, 171.219 135.619 C 171.064 135.004, 167.753 125.906, 163.860 115.403 L 156.781 96.307 151.793 93.864 L 146.805 91.422 168.393 84.461 C 180.267 80.632, 189.986 77.232, 189.991 76.904 C 189.996 76.576, 181.787 71.440, 171.750 65.489 C 121.555 35.733, 113.762 30.562, 104.607 20.941 C 99.873 15.967, 96.005 12.483, 96.012 13.199 C 96.018 13.914, 96.677 16.954, 97.475 19.953 C 98.273 22.953, 98.822 25.512, 98.694 25.640 C 98.566 25.768, 94.579 20.253, 89.834 13.385 L 81.206 0.898 76.175 21.467 M 77.949 25.750 L 73.722 43.500 53.111 64.567 C 41.775 76.154, 31.483 87.472, 30.241 89.719 L 27.982 93.804 47.241 86.532 C 62.172 80.895, 67.319 79.365, 70.144 79.727 L 73.788 80.194 75.945 70.847 C 77.131 65.706, 78.308 60.825, 78.559 60 C 78.810 59.175, 84.412 55.125, 91.007 51 C 97.847 46.722, 102.979 42.856, 102.955 42 C 102.850 38.296, 99.716 32.393, 91.621 20.646 C 86.827 13.691, 82.741 8, 82.540 8 C 82.340 8, 80.274 15.988, 77.949 25.750 M 101.056 22 C 100.985 25.288, 103.881 33.920, 106.029 36.826 C 107.943 39.414, 108.622 39.738, 110.281 38.850 C 111.479 38.209, 112.499 38.160, 112.877 38.726 C 113.220 39.238, 117.536 45.834, 122.469 53.382 C 130.400 65.518, 131.701 67.041, 133.705 66.538 C 135.792 66.014, 135.884 66.161, 134.861 68.405 C 133.941 70.425, 134.118 71.357, 135.894 73.851 C 137.978 76.778, 137.352 78.954, 134.867 77.418 C 134.243 77.032, 135.591 79.453, 137.862 82.797 C 140.133 86.140, 142.330 89.056, 142.745 89.275 C 143.160 89.495, 152.725 86.671, 164 83 L 184.500 76.326 179.627 73.413 C 126.272 41.520, 112.369 32.591, 106.853 26.679 C 103.683 23.280, 101.074 21.175, 101.056 22 M 111.559 44.667 C 117.669 53.988, 127.554 67.779, 127.886 67.447 C 128.533 66.800, 112.306 42.602, 110.914 42.138 C 110.099 41.866, 110.339 42.807, 111.559 44.667 M 107 44.826 C 107 45.501, 108.409 51.677, 110.130 58.552 C 112.693 68.783, 113.555 70.966, 114.880 70.579 C 115.771 70.319, 118.214 69.802, 120.310 69.431 C 122.939 68.964, 123.959 68.335, 123.600 67.400 C 123.063 66, 109.478 46.238, 107.892 44.550 C 107.338 43.960, 107 44.064, 107 44.826 M 92.328 53.347 L 81.157 60.442 79.072 69.381 C 77.925 74.298, 77.103 78.403, 77.244 78.504 C 77.622 78.776, 109.426 71.836, 109.928 71.372 C 110.382 70.953, 105.119 49.291, 104.099 47.376 C 103.722 46.669, 99.360 48.882, 92.328 53.347 M 119 72.277 C 116.525 72.847, 114.367 73.413, 114.205 73.535 C 114.043 73.657, 114.434 75.836, 115.074 78.378 C 116.576 84.345, 118.616 84.395, 123.380 78.582 C 129.260 71.405, 128.367 70.119, 119 72.277 M 131 73.378 C 131 73.585, 131.787 74.373, 132.750 75.128 C 134.336 76.371, 134.371 76.336, 133.128 74.750 C 131.821 73.084, 131 72.555, 131 73.378 M 98 76.966 C 91.125 78.447, 84.825 79.890, 84 80.174 C 83.175 80.459, 88.125 81.004, 95 81.386 C 101.875 81.768, 108.797 82.336, 110.382 82.649 C 113.244 83.213, 113.259 83.192, 112.554 79.358 C 112.164 77.236, 111.542 75.224, 111.172 74.887 C 110.802 74.550, 104.875 75.486, 98 76.966 M 124.677 81.043 C 122.357 84.051, 120.070 86, 118.860 86 C 117.429 86, 117.012 86.494, 117.386 87.750 C 119.008 93.205, 123 110.113, 123 111.529 C 123 112.976, 122.173 113.112, 116.750 112.557 C 109.074 111.772, 109.346 111.956, 128.500 120.497 C 136.750 124.175, 143.829 127.495, 144.231 127.874 C 144.634 128.253, 136.868 132.590, 126.975 137.512 C 117.082 142.435, 109.103 146.766, 109.244 147.138 C 109.549 147.945, 143.277 173.996, 144 173.983 C 144.275 173.979, 149.956 165.482, 156.623 155.101 L 168.747 136.227 161.675 117.170 L 154.603 98.113 147.754 94.956 C 141.543 92.093, 140.388 91.062, 135.369 83.899 C 132.324 79.555, 129.533 76.019, 129.167 76.043 C 128.800 76.066, 126.780 78.316, 124.677 81.043 M 64.750 122.157 L 76 133.531 76 159.349 C 76 175.264, 76.365 185.039, 76.952 184.833 C 77.476 184.650, 83.321 179.775, 89.941 174 L 101.978 163.500 101.980 157 C 101.982 149.686, 100.129 112.796, 99.740 112.407 C 99.602 112.269, 89.141 111.847, 76.494 111.469 L 53.500 110.783 64.750 122.157 M 103.534 128.723 C 103.927 137.950, 104.305 145.565, 104.374 145.645 C 104.443 145.724, 112.324 141.866, 121.887 137.071 L 139.273 128.352 126.387 122.529 C 119.299 119.326, 111.097 115.634, 108.160 114.325 L 102.820 111.945 103.534 128.723" stroke="none" fill="black" fill-rule="evenodd"/>
</svg>