<svg xmlns="http://www.w3.org/2000/svg" width="200" height="200" viewBox="0 0 200 200" version="1.1">
	<path d="M 146.452 97.400 L 133.404 107.702 98.133 107.753 C 78.734 107.782, 62.593 108.074, 62.264 108.402 C 61.936 108.731, 61.902 109.235, 62.189 109.522 C 62.477 109.810, 78.801 110.163, 98.466 110.307 L 134.221 110.569 147.292 100.384 L 160.362 90.199 169.130 98.285 C 179.548 107.892, 182.549 111.575, 180.576 112.332 C 178.398 113.168, 21.144 113.477, 20.314 112.648 C 18.295 110.628, 23.876 109.965, 41.446 110.136 C 53.512 110.254, 60.516 109.953, 60.731 109.308 C 61.183 107.950, 50.385 107.004, 35 107.056 C 23.449 107.095, 22.044 107.311, 16.500 109.900 L 10.500 112.702 16 114.410 C 20.995 115.962, 28.519 116.112, 98 116.039 C 167.019 115.968, 187 115.577, 187 114.302 C 187 111.899, 162.564 86.919, 160.341 87.049 C 159.879 87.077, 153.628 91.735, 146.452 97.400" stroke="none" fill="black" fill-rule="evenodd"/>
</svg>