<svg xmlns="http://www.w3.org/2000/svg" width="200" height="200" viewBox="0 0 200 200" version="1.1">
	<path d="M 55.103 30.752 C 52.684 39.413, 47.992 54.150, 44.676 63.500 C 39.220 78.882, 37.612 82.153, 27.795 97.868 L 16.945 115.235 21.722 114.580 C 29.992 113.445, 32 112.875, 32 111.663 C 32 110.876, 30.465 110.608, 27.372 110.854 C 23.676 111.148, 22.908 110.948, 23.555 109.861 C 24 109.112, 28.043 102.650, 32.538 95.500 C 41.655 81.001, 48.442 64.171, 56.069 37.156 C 58.345 29.095, 60.546 22.137, 60.961 21.693 C 61.538 21.075, 79.403 41.727, 83.186 47.385 C 83.638 48.060, 88.086 47.479, 96.186 45.685 C 107.280 43.229, 109.738 43.018, 121 43.563 C 127.875 43.896, 134.005 44.319, 134.622 44.503 C 135.386 44.732, 134.829 48.607, 132.873 56.669 C 130.485 66.510, 129.908 71.443, 129.438 86 L 128.874 103.500 138.187 118.360 L 147.500 133.220 161.777 141.971 C 169.630 146.783, 176.273 150.940, 176.540 151.207 C 176.807 151.474, 176.216 155.243, 175.227 159.583 L 173.428 167.473 164.152 172.341 C 159.050 175.018, 154.750 177.049, 154.598 176.854 C 154.445 176.659, 150.682 170.416, 146.236 162.979 C 138.442 149.942, 137.987 148.832, 133.539 131.979 C 129.498 116.665, 123.882 99.893, 122.097 97.801 C 121.769 97.416, 117.134 104.616, 111.798 113.801 C 102.626 129.588, 101.424 131.164, 89.798 142.659 C 73.396 158.876, 57.760 168.995, 38.125 176.100 C 30.710 178.783, 24.505 180.838, 24.334 180.668 C 24.164 180.497, 25.482 179.310, 27.262 178.028 C 29.043 176.747, 37.743 169.892, 46.595 162.794 C 61.839 150.573, 63.196 149.192, 72.235 136.689 C 84.748 119.382, 93.980 100.060, 101.947 74.503 C 107.570 56.465, 107.668 55.956, 105.612 55.472 C 104.450 55.199, 98.202 53.914, 91.726 52.617 L 79.953 50.258 78.140 52.879 C 77.143 54.320, 72.681 61.575, 68.224 69 C 61.417 80.339, 58.430 84.178, 49.560 92.982 C 40.142 102.331, 37.381 106, 39.766 106 C 40.188 106, 45.554 100.938, 51.691 94.750 C 61.381 84.981, 64.043 81.509, 71.908 68.382 L 80.967 53.265 92.022 55.505 C 98.103 56.736, 103.279 57.946, 103.525 58.192 C 103.771 58.438, 101.687 66.022, 98.894 75.046 C 91.721 98.222, 82.228 118.015, 70.252 134.762 C 61.109 147.548, 60.154 148.517, 43.634 161.774 C 34.211 169.337, 23.701 177.544, 20.279 180.012 C 14.689 184.045, 12.421 187, 14.915 187 C 15.418 187, 24.057 184.057, 34.114 180.459 C 50.103 174.740, 54.101 172.841, 65.950 165.341 C 76.870 158.428, 81.888 154.409, 91.804 144.632 C 103.177 133.417, 104.753 131.385, 112.652 117.750 C 117.351 109.638, 121.317 103, 121.464 103 C 122.256 103, 127.442 119.519, 131.039 133.500 C 135.040 149.049, 135.411 149.930, 144.198 164.750 C 149.172 173.138, 153.631 180, 154.108 180 C 154.586 180, 159.681 177.660, 165.432 174.800 L 175.888 169.600 177.496 162.375 C 180.430 149.186, 181.460 150.920, 164.516 140.526 L 149.533 131.334 140.419 116.417 L 131.305 101.500 132.045 85 C 132.642 71.701, 133.392 65.998, 135.912 55.603 C 137.632 48.510, 138.867 42.533, 138.655 42.322 C 138.444 42.110, 131.572 41.535, 123.385 41.044 C 109.282 40.197, 107.884 40.285, 96.767 42.731 L 85.033 45.312 83.124 42.906 C 74.928 32.574, 60.718 15.454, 60.172 15.252 C 59.802 15.115, 57.521 22.090, 55.103 30.752" stroke="none" fill="black" fill-rule="evenodd"/>
</svg>