<svg xmlns="http://www.w3.org/2000/svg" width="200" height="200" viewBox="0 0 200 200" version="1.1">
	<path d="M 163 28.197 L 144.500 31.168 83.750 31.670 C 50.337 31.946, 23 32.511, 23 32.926 C 23 33.754, 64.275 35, 91.693 35 L 109.061 35 108.385 50.812 L 107.709 66.624 121.105 71.313 C 128.472 73.893, 140.109 78.224, 146.964 80.939 L 159.428 85.876 169.214 97.966 C 174.596 104.616, 179 110.302, 179 110.602 C 179 111.384, 162.655 129, 161.929 129 C 160.905 129, 144.046 109.326, 133.704 96.063 L 123.908 83.500 116.204 81.280 C 111.967 80.059, 108.201 79.047, 107.835 79.030 C 106.854 78.986, 107.869 146.614, 109.049 159.933 C 109.851 168.982, 109.795 171.607, 108.781 172.519 C 106.624 174.460, 89.994 187, 89.577 187 C 89.362 187, 87.626 181.937, 85.720 175.750 L 82.255 164.500 83.001 104.500 C 83.411 71.500, 83.466 44.225, 83.123 43.889 C 82.780 43.553, 78.174 41.588, 72.886 39.524 L 63.271 35.770 47.169 36.777 C 31.784 37.739, 30.616 37.677, 20.945 35.392 C 9.011 32.571, 10 32.663, 10 34.377 C 10 35.297, 13.222 36.498, 19.725 38.001 C 28.630 40.058, 30.890 40.188, 46.513 39.542 L 63.575 38.835 72.845 42.546 C 80.329 45.541, 81.981 46.569, 81.418 47.878 C 81.035 48.770, 80.415 75.375, 80.040 107 L 79.359 164.500 83.430 177.741 C 85.668 185.024, 87.868 190.986, 88.319 190.991 C 88.769 190.996, 94.526 186.893, 101.111 181.874 L 113.085 172.749 112.577 168.624 C 111.130 156.881, 110.761 147.634, 110.510 116.750 C 110.310 92.123, 110.542 83.005, 111.368 83.019 C 111.991 83.030, 114.617 83.592, 117.204 84.269 C 121.585 85.415, 122.582 86.361, 131.720 98.039 C 143.910 113.616, 161.040 133.153, 162.175 132.775 C 162.642 132.619, 167.517 127.587, 173.007 121.592 L 182.989 110.693 179.680 106.596 C 177.860 104.343, 172.944 98.225, 168.754 93 L 161.136 83.500 146.318 77.722 C 138.168 74.545, 126.824 70.270, 121.108 68.222 L 110.716 64.500 110.891 54.500 C 111.117 41.579, 111.766 37.988, 113.861 38.045 C 114.763 38.069, 128.100 38.703, 143.500 39.453 L 171.500 40.817 179.492 32.909 C 189.016 23.484, 190.214 23.826, 163 28.197 M 156 31.597 C 146.375 32.896, 133.550 34.282, 127.500 34.678 C 116.794 35.379, 117.221 35.432, 143.500 36.657 L 170.500 37.916 174.987 33.458 L 179.474 29 176.487 29.118 C 174.844 29.183, 165.625 30.298, 156 31.597" stroke="none" fill="black" fill-rule="evenodd"/>
</svg>