<svg xmlns="http://www.w3.org/2000/svg" width="200" height="200" viewBox="0 0 200 200" version="1.1">
	<path d="M 78.307 9.162 L 76.345 14.323 58.894 23.638 L 41.442 32.954 32.490 60.086 L 23.538 87.218 26.341 92.239 C 28.858 96.747, 29.406 99.569, 31.708 119.880 C 34.097 140.957, 34.996 145.338, 36.602 143.732 C 36.951 143.383, 36.024 132.618, 34.543 119.811 C 32.181 99.395, 31.525 95.949, 29.221 91.851 L 26.593 87.176 35.047 61.048 L 43.500 34.919 59 26.615 C 67.525 22.048, 74.627 18.406, 74.782 18.521 C 74.937 18.636, 73.231 23.854, 70.990 30.115 C 68.750 36.377, 64.641 50.500, 61.860 61.500 L 56.803 81.500 58.492 105.397 L 60.180 129.293 56.871 156.147 C 55.052 170.916, 53.255 183, 52.879 183 C 52.503 183, 47.114 177.367, 40.904 170.481 C 30.757 159.232, 27.590 156.548, 27.976 159.525 C 28.129 160.700, 53.944 189, 54.863 189 C 55.218 189, 57.194 175.613, 59.255 159.250 L 63.002 129.500 61.337 106 L 59.672 82.500 64.403 63 C 67.005 52.275, 71.284 37.425, 73.911 30 L 78.688 16.500 82.094 16.267 C 85.496 16.035, 85.515 16.058, 99.339 37.767 L 113.178 59.500 112.488 85.500 C 111.907 107.387, 111.276 114.980, 108.501 133.500 C 106.689 145.600, 105.154 155.050, 105.091 154.500 C 105.028 153.950, 103.207 143.906, 101.045 132.179 L 97.113 110.858 99.050 85.179 C 100.115 71.056, 100.990 58.746, 100.993 57.825 C 100.999 56.403, 98.844 56.870, 86.750 60.912 L 72.500 65.675 72.242 122.924 C 72.100 154.410, 72.362 180.021, 72.824 179.836 C 73.287 179.651, 82.054 175.734, 92.308 171.131 L 110.951 162.762 136.242 169.053 L 161.534 175.344 172.767 166.505 C 180.783 160.196, 184 157.056, 184 155.539 C 184 154.370, 183.303 140.158, 182.450 123.957 L 180.900 94.500 183.614 77.247 C 186.151 61.122, 186.252 57.280, 184.080 59.567 C 183.592 60.080, 179.982 71.975, 176.056 86 C 170.274 106.656, 167.090 115.827, 159.292 134.282 C 153.997 146.813, 149.341 156.713, 148.944 156.282 C 147.766 155.004, 138.779 111.167, 139.466 110.054 C 140.643 108.151, 140.273 17.787, 139.086 17.053 C 138.485 16.682, 128.207 15.823, 116.247 15.144 C 85.581 13.405, 86.944 13.686, 83.611 8.417 C 82.074 5.988, 80.693 4, 80.542 4 C 80.391 4, 79.385 6.323, 78.307 9.162 M 80.525 10.960 C 79.677 12.332, 80.428 13.362, 81.905 12.854 C 82.511 12.646, 82.588 11.940, 82.093 11.143 C 81.468 10.137, 81.063 10.090, 80.525 10.960 M 89 16.360 C 89 16.637, 95.113 26.402, 102.585 38.059 L 116.170 59.255 115.500 83.877 C 114.958 103.801, 114.179 113.175, 111.416 133 C 107.552 160.722, 107.521 161.121, 109.277 160.447 C 109.979 160.178, 121.792 162.701, 135.527 166.054 C 156.011 171.054, 160.844 171.937, 162.415 170.963 C 163.469 170.311, 168.076 166.789, 172.654 163.138 C 182.460 155.318, 181.634 160.413, 179.567 120.500 C 178.798 105.650, 178.418 92.150, 178.721 90.500 C 179.835 84.446, 178.154 88.817, 174.676 101.017 C 169.873 117.863, 148.421 168.526, 147.584 165 C 147.257 163.625, 144.773 152.140, 142.063 139.478 L 137.136 116.455 137.318 68.311 C 137.418 41.832, 137.275 19.950, 137 19.684 C 136.725 19.418, 128.175 18.700, 118 18.087 C 107.825 17.475, 97.138 16.722, 94.250 16.415 C 91.362 16.108, 89 16.083, 89 16.360 M 85.192 64.261 C 76.648 67.277, 74.020 68.609, 74.442 69.708 C 74.749 70.509, 75 94.726, 75 123.526 L 75 175.888 89.203 169.407 C 97.015 165.843, 103.490 162.831, 103.591 162.713 C 103.693 162.596, 101.659 150.941, 99.072 136.814 L 94.369 111.128 96.131 87.814 C 98.205 60.368, 98.222 59.960, 97.250 60.134 C 96.838 60.208, 91.411 62.065, 85.192 64.261" stroke="none" fill="black" fill-rule="evenodd"/>
</svg>