<svg xmlns="http://www.w3.org/2000/svg" width="200" height="200" viewBox="0 0 200 200" version="1.1">
	<path d="M 156.750 33.750 C 155.882 36.913, 154.665 41.413, 154.047 43.750 L 152.923 48 141.507 48 L 130.091 48 129.426 44.457 C 128.772 40.969, 128.697 40.921, 124.631 41.416 C 114.424 42.658, 98.670 43.192, 76 43.064 C 51.509 42.925, 24.327 44.471, 22.567 46.102 C 22.053 46.578, 21.904 47.237, 22.234 47.567 C 23.183 48.517, 55.932 51.402, 56.727 50.606 C 57.981 49.352, 54.646 48.033, 50 47.945 C 47.525 47.898, 44.600 47.473, 43.500 47 C 41.169 45.998, 40.335 46.026, 86.500 45.562 C 104.650 45.379, 121.188 44.895, 123.250 44.484 C 126.643 43.809, 127 43.941, 127 45.869 L 127 48 94 48 C 65.466 48, 61 48.201, 61 49.487 C 61 50.767, 65.610 51.010, 94.223 51.237 L 127.445 51.500 129.266 67.391 C 130.870 81.382, 131.351 83.489, 133.294 85.022 C 134.507 85.980, 136.619 87.671, 137.986 88.782 L 140.471 90.800 138.717 97.384 C 135.589 109.124, 135.545 109.188, 131.257 108.423 C 129.191 108.054, 126.584 106.921, 125.464 105.903 C 121.801 102.575, 111.155 101.923, 72.321 102.646 C 40.545 103.238, 33.455 103.788, 35.195 105.529 C 35.413 105.746, 41.645 107.236, 49.045 108.839 C 62.197 111.688, 62.894 111.735, 80 110.941 C 89.625 110.494, 103.931 110.395, 111.790 110.721 L 126.081 111.314 129.040 115.051 C 130.668 117.106, 131.971 119.623, 131.934 120.644 C 131.898 121.665, 128.861 132.834, 125.184 145.464 L 118.500 168.429 104.500 167.964 C 84.106 167.288, 19.712 167.605, 16.555 168.397 C 11.308 169.714, 14.785 171.439, 26.993 173.577 C 38.902 175.663, 41.634 175.732, 102.425 175.495 C 143.277 175.336, 169.552 174.821, 177 174.032 C 183.325 173.363, 188.618 172.702, 188.762 172.562 C 188.906 172.423, 182.764 167.501, 175.114 161.623 C 162.253 151.742, 160.247 149.730, 148.510 134.935 C 135.951 119.103, 135.826 118.895, 136.690 115.217 C 137.636 111.185, 138.297 110.725, 151.767 104.733 L 159.033 101.500 151.517 95.714 C 147.383 92.532, 144.013 89.607, 144.030 89.214 C 144.046 88.821, 146.456 80.175, 149.385 70 L 154.710 51.500 163.232 51.213 L 171.755 50.926 165.627 39.474 C 162.257 33.175, 159.236 28.017, 158.914 28.011 C 158.592 28.005, 157.618 30.587, 156.750 33.750 M 157.672 40.957 C 156.752 44.264, 156 47.202, 156 47.485 C 156 47.768, 158.518 48, 161.595 48 L 167.191 48 163.985 42.250 C 162.222 39.087, 160.457 36.150, 160.062 35.722 C 159.667 35.294, 158.591 37.649, 157.672 40.957 M 130.511 54.750 C 130.805 56.813, 131.674 63.832, 132.442 70.349 C 133.535 79.624, 134.236 82.485, 135.669 83.518 C 136.676 84.244, 138.395 85.509, 139.489 86.330 C 141.421 87.780, 141.631 87.294, 146.710 69.662 C 149.586 59.673, 151.954 51.388, 151.970 51.250 C 151.987 51.112, 147.045 51, 140.988 51 L 129.976 51 130.511 54.750 M 142.575 94.157 C 141.122 98.659, 139.139 106.472, 139.386 106.720 C 140.017 107.351, 152.966 101.448, 152.707 100.647 C 152.556 100.178, 150.311 98.224, 147.720 96.305 C 144.360 93.816, 142.884 93.200, 142.575 94.157 M 58 105.880 L 50.500 106.500 58.208 107.884 C 62.843 108.717, 67.959 108.998, 71.037 108.589 C 73.853 108.216, 86.771 107.915, 99.743 107.920 C 118.250 107.928, 123.068 107.668, 122.115 106.715 C 120.775 105.374, 71.824 104.737, 58 105.880 M 130.970 112.944 C 132.194 115.230, 134 116.540, 134 115.141 C 134 114.603, 134.273 113.452, 134.607 112.582 C 135.066 111.385, 134.570 111, 132.572 111 C 130.265 111, 130.062 111.247, 130.970 112.944 M 129.103 141.750 C 126.203 152.063, 123.169 162.835, 122.362 165.688 L 120.894 170.876 75.947 170.279 C 45.383 169.873, 31 170.012, 31 170.712 C 31 172.590, 41.203 173.186, 68 172.875 C 82.575 172.705, 111.825 172.484, 133 172.383 C 154.175 172.282, 173.929 171.817, 176.899 171.350 L 182.298 170.500 170.829 161.764 C 160.845 154.159, 157.814 151.084, 147.430 138.020 C 140.868 129.766, 135.247 123.010, 134.938 123.006 C 134.629 123.003, 132.004 131.438, 129.103 141.750" stroke="none" fill="black" fill-rule="evenodd"/>
</svg>