<svg xmlns="http://www.w3.org/2000/svg" width="200" height="200" viewBox="0 0 200 200" version="1.1">
	<path d="M 43.670 17.127 C 42.179 22.832, 36.405 44.457, 30.837 65.183 L 20.715 102.866 27.336 124.183 C 39.706 164.006, 48.586 189.500, 50.086 189.500 C 51.174 189.500, 52.662 181.895, 56.542 156.500 C 61.005 127.288, 61.513 121.154, 59.283 123.384 C 58.786 123.880, 50.256 177.438, 49.946 182 C 49.823 183.816, 36.004 143.056, 28.793 119.608 L 23.598 102.717 26.169 93.108 C 27.583 87.824, 33.186 66.909, 38.620 46.632 L 48.500 9.763 56.500 10.403 C 60.900 10.754, 67.230 11.311, 70.567 11.640 L 76.633 12.239 67.434 36.369 L 58.235 60.500 57.531 87.750 C 56.905 111.990, 56.998 115, 58.376 115 C 59.637 115, 59.978 113.344, 60.212 106.084 L 60.500 97.167 80.695 109.834 C 100.009 121.947, 100.802 122.568, 98.864 124.066 C 97.638 125.013, 93.137 135.058, 87.471 149.494 C 78.897 171.340, 78.249 173.463, 79.803 174.619 C 82.199 176.401, 84.716 176.679, 120 179.071 L 151.500 181.207 170.316 171.970 C 180.666 166.890, 188.766 162.388, 188.316 161.966 C 187.867 161.545, 174.230 156.847, 158.010 151.527 C 141.791 146.207, 128.372 141.705, 128.190 141.523 C 128.008 141.341, 134.303 136.582, 142.179 130.947 L 156.500 120.701 173.306 98.286 C 182.550 85.957, 190.323 75.323, 190.579 74.654 C 190.899 73.822, 182.831 71.075, 165.076 65.969 C 150.792 61.861, 139.419 58.242, 139.802 57.926 C 140.186 57.610, 148.825 54.944, 159 52.001 C 169.175 49.058, 178.124 46.339, 178.888 45.958 C 179.707 45.550, 174.047 43.185, 165.076 40.188 L 149.877 35.110 138.188 24.225 L 126.500 13.341 92 10.602 C 73.025 9.096, 54.998 7.614, 51.940 7.309 L 46.379 6.755 43.670 17.127 M 79.170 12.880 C 79.351 13.354, 96.825 33.157, 118 56.886 C 139.175 80.615, 156.421 100.350, 156.325 100.740 C 155.842 102.699, 152.910 100.919, 134.512 87.496 C 120.770 77.470, 114.387 73.360, 113.918 74.234 C 113.545 74.930, 112.235 82.700, 111.008 91.500 C 108.884 106.742, 107.923 110.256, 106.319 108.653 C 105.927 108.260, 104.823 93.956, 103.866 76.866 C 102.910 59.777, 101.968 45.635, 101.774 45.440 C 101.579 45.246, 98.838 45.886, 95.681 46.862 L 89.943 48.638 93.521 53.324 L 97.100 58.010 81.050 76.566 C 72.222 86.771, 65 95.506, 65 95.977 C 65 96.448, 74.219 102.609, 85.486 109.667 C 96.753 116.725, 105.978 122.767, 105.986 123.093 C 105.994 123.418, 104.441 124.525, 102.536 125.551 C 99.439 127.219, 98.530 128.799, 93.958 140.458 C 83.094 168.164, 81.713 172.112, 82.599 172.942 C 83.095 173.406, 98.709 174.829, 117.298 176.104 L 151.096 178.422 166.798 170.566 C 176.230 165.847, 181.901 162.486, 181 162.150 C 180.175 161.842, 166.472 157.278, 150.549 152.008 L 121.599 142.426 138.252 130.445 L 154.905 118.465 170.952 97.065 C 179.777 85.295, 186.844 75.510, 186.655 75.322 C 186.467 75.134, 173.311 71.219, 157.419 66.623 L 128.525 58.266 137.013 55.702 C 141.681 54.291, 151.125 51.468, 158 49.426 C 164.875 47.385, 170.641 45.601, 170.813 45.461 C 170.985 45.322, 166.035 43.534, 159.813 41.489 C 148.953 37.920, 148.200 37.485, 141 30.622 C 136.875 26.690, 131.700 21.833, 129.500 19.828 L 125.500 16.183 105 14.569 C 93.725 13.681, 83.226 12.743, 81.670 12.486 C 80.113 12.229, 78.988 12.406, 79.170 12.880 M 76.585 20.178 C 75.831 22.005, 72.052 31.825, 68.190 42 L 61.166 60.500 60.486 78.500 L 59.806 96.500 61.827 94.500 C 65.540 90.826, 92.216 59.518, 92.723 58.239 C 92.998 57.545, 91.597 54.994, 89.611 52.571 C 87.625 50.147, 86 47.938, 86 47.663 C 86 47.388, 89.037 46.166, 92.750 44.948 C 96.463 43.729, 99.844 42.537, 100.264 42.299 C 100.946 41.911, 81.009 18.742, 78.840 17.401 C 78.355 17.101, 77.340 18.351, 76.585 20.178 M 105.361 54.500 C 105.689 58.900, 106.262 69.181, 106.635 77.347 C 107.008 85.512, 107.630 91.587, 108.018 90.847 C 108.405 90.106, 109.284 85.225, 109.970 80 C 110.655 74.775, 111.505 69.974, 111.858 69.331 C 112.271 68.579, 118.035 72.203, 128 79.479 C 136.525 85.703, 143.659 90.645, 143.853 90.462 C 144.186 90.146, 112.599 54.359, 107.258 49 L 104.766 46.500 105.361 54.500" stroke="none" fill="black" fill-rule="evenodd"/>
</svg>