<svg xmlns="http://www.w3.org/2000/svg" width="200" height="200" viewBox="0 0 200 200" version="1.1">
	<path d="M 78 12.828 C 78 14.385, 76.113 14.989, 65.250 16.905 C 58.237 18.142, 51.746 19.365, 50.824 19.621 C 49.623 19.955, 46.870 27.101, 41.123 44.794 C 34.702 64.562, 31.196 73.430, 23.577 89.166 C 13.163 110.678, 13.007 111.067, 14.585 111.653 C 15.182 111.875, 16.491 110.237, 17.495 108.012 C 19.554 103.444, 19.145 103.443, 29.980 108.058 C 33.566 109.586, 36.629 111.464, 36.788 112.233 C 36.946 113.001, 35.954 126.858, 34.583 143.026 C 33.211 159.195, 32.182 172.508, 32.295 172.613 C 33.175 173.427, 62.568 181.767, 63.194 181.380 C 63.637 181.106, 64 159.109, 64 132.499 L 64 84.115 67.490 67.808 C 71.617 48.518, 79.037 18.837, 80.016 17.697 C 80.395 17.256, 84.241 21.508, 88.564 27.147 L 96.422 37.399 83.211 63.111 C 75.945 77.253, 70 89.011, 70 89.241 C 70 89.471, 74.162 88.978, 79.250 88.146 C 87.635 86.775, 89.466 86.042, 98.827 80.317 C 104.507 76.842, 109.457 73.999, 109.827 73.998 C 110.197 73.998, 110.220 84.685, 109.877 97.748 C 109.534 110.812, 109.197 133.988, 109.127 149.250 C 109.006 175.621, 109.092 177, 110.849 177 C 111.865 177, 117.783 175.875, 124 174.500 C 130.217 173.125, 135.491 172, 135.721 172 C 135.951 172, 139.876 164.238, 144.445 154.750 L 152.751 137.500 166.375 132 C 174.410 128.756, 179.999 125.947, 179.999 125.152 C 180 124.041, 176.212 123.933, 158.404 124.538 L 136.807 125.271 145.992 112.885 C 151.043 106.073, 159.001 96.626, 163.676 91.892 L 172.176 83.284 168.338 82.701 C 166.227 82.380, 157.834 81.348, 149.687 80.407 C 137.735 79.027, 135.128 78.454, 136.187 77.441 C 136.909 76.750, 143.507 72.336, 150.848 67.632 C 163.531 59.506, 164.561 58.593, 171.525 49.300 C 175.555 43.921, 178.743 39.410, 178.609 39.275 C 178.474 39.141, 166.950 42.842, 153 47.500 C 139.050 52.158, 127.541 55.864, 127.426 55.735 C 127.310 55.606, 128.267 48.987, 129.551 41.027 C 130.836 33.067, 131.800 26.476, 131.694 26.382 C 131.587 26.287, 124.075 22.760, 115 18.545 L 98.500 10.880 90.043 12.446 C 82.521 13.839, 81.493 13.846, 80.744 12.506 C 79.582 10.430, 78 10.615, 78 12.828 M 89.148 15.362 L 83.796 16.500 91.398 26.402 C 95.579 31.848, 99 36.800, 99 37.407 C 99 38.013, 93.574 49.019, 86.942 61.864 C 80.311 74.708, 75.059 85.393, 75.273 85.606 C 75.487 85.820, 78.325 85.515, 81.581 84.929 C 86.065 84.122, 90.475 82.062, 99.775 76.432 C 106.527 72.344, 112.276 69, 112.550 69 C 112.825 69, 112.740 92.692, 112.361 121.650 L 111.672 174.299 114.086 173.728 C 115.414 173.415, 120.500 172.342, 125.390 171.345 L 134.280 169.531 142.454 152.516 L 150.628 135.500 160.314 131.593 C 165.641 129.445, 170 127.511, 170 127.295 C 170 127.080, 161.450 127.219, 151 127.604 C 140.550 127.989, 132 127.994, 132 127.616 C 132 126.042, 153.766 97.984, 159.712 91.894 L 166.161 85.287 157.331 84.147 C 152.474 83.520, 143.662 82.482, 137.750 81.840 C 131.838 81.199, 127.022 80.410, 127.049 80.087 C 127.076 79.764, 135.139 74.374, 144.965 68.109 C 154.941 61.749, 163.831 55.345, 165.094 53.609 C 166.338 51.899, 168.429 49.070, 169.741 47.322 L 172.127 44.145 166.313 46.013 C 163.116 47.040, 152.400 50.548, 142.500 53.808 C 132.600 57.068, 124.351 59.609, 124.168 59.453 C 123.986 59.297, 124.754 53.394, 125.875 46.335 C 126.996 39.276, 128.045 32.239, 128.207 30.698 C 128.489 28.001, 127.939 27.634, 113.629 20.948 C 105.450 17.127, 97.800 14.050, 96.629 14.112 C 95.458 14.174, 92.091 14.736, 89.148 15.362 M 62.411 20.214 L 51.322 22.223 43.551 46.355 C 39.277 59.627, 34.190 73.640, 32.246 77.493 C 25.701 90.471, 20.078 103.070, 21.118 102.427 C 22.491 101.579, 40 108.961, 39.998 110.387 C 39.995 112.396, 36.060 160.378, 35.470 165.598 L 34.894 170.696 47.316 174.348 C 54.148 176.357, 60.022 178, 60.369 178 C 60.716 178, 61 157.048, 61 131.440 L 61 84.880 65.495 64.190 C 67.967 52.811, 71.525 37.763, 73.401 30.750 C 76.372 19.645, 76.599 18.013, 75.156 18.103 C 74.245 18.159, 68.510 19.109, 62.411 20.214" stroke="none" fill="black" fill-rule="evenodd"/>
</svg>