<svg xmlns="http://www.w3.org/2000/svg" width="200" height="200" viewBox="0 0 200 200" version="1.1">
	<path d="M 133.217 6.151 C 133.428 6.784, 141.006 11.396, 150.056 16.401 C 159.107 21.405, 167.180 25.931, 167.996 26.457 C 169.060 27.144, 165.717 28.167, 156.204 30.068 L 142.927 32.722 129.851 28.807 C 122.659 26.654, 116.546 25.121, 116.266 25.401 C 115.986 25.681, 116.067 29.227, 116.447 33.280 L 117.138 40.650 129.962 38.134 L 142.786 35.617 163.036 41.511 C 174.174 44.752, 182.751 47.583, 182.097 47.801 C 181.442 48.019, 175.205 49.671, 168.237 51.473 C 158.593 53.965, 155.155 54.490, 153.840 53.668 C 152.566 52.872, 143.878 53.419, 120.809 55.748 C 103.593 57.486, 89.239 58.591, 88.910 58.204 C 88.582 57.817, 85.685 47.466, 82.474 35.201 C 78.835 21.307, 76.337 13.434, 75.845 14.312 C 75.411 15.088, 71.877 24.313, 67.992 34.813 L 60.927 53.904 60.420 84.202 C 59.961 111.682, 59.525 117.728, 55.738 149.197 C 53.441 168.281, 51.412 183.746, 51.230 183.563 C 51.048 183.381, 47.141 171.259, 42.548 156.625 L 34.198 130.017 26.099 119.880 C 21.645 114.305, 18 109.167, 18 108.462 C 18 107.757, 23.180 92.684, 29.512 74.966 C 38.237 50.550, 41.868 38.848, 44.509 26.626 C 46.426 17.757, 48.229 9.487, 48.516 8.250 C 48.881 6.675, 48.582 6, 47.519 6 C 46.684 6, 46 6.221, 46 6.492 C 46 6.762, 44.243 14.975, 42.096 24.742 C 39.029 38.691, 35.628 49.676, 26.239 75.960 L 14.286 109.421 22.969 120.235 L 31.652 131.049 40.935 160.774 C 46.042 177.123, 50.612 190.920, 51.093 191.433 C 51.574 191.947, 52.284 192.049, 52.672 191.661 C 53.060 191.273, 55.523 173.978, 58.144 153.228 C 62.859 115.912, 62.912 115.176, 62.956 85.805 L 63 56.111 69.158 39.555 C 72.546 30.450, 75.583 23.002, 75.908 23.003 C 76.234 23.005, 78.475 30.543, 80.889 39.753 C 83.303 48.964, 85.484 57.050, 85.735 57.723 C 86.029 58.506, 84.721 59.181, 82.097 59.601 C 76.305 60.527, 76.578 63, 82.472 63 L 86.944 63 88.417 68.250 C 89.226 71.138, 92.197 82.275, 95.017 93 C 97.837 103.725, 100.755 114.612, 101.502 117.193 L 102.858 121.886 87.517 144.193 C 79.080 156.462, 72.474 166.772, 72.838 167.105 C 73.202 167.437, 82.500 169.634, 93.500 171.987 C 104.500 174.340, 114.456 176.623, 115.625 177.061 C 117.021 177.583, 117.980 179.081, 118.420 181.428 C 118.789 183.393, 119.408 185, 119.795 185 C 120.183 185, 121.850 183.485, 123.500 181.633 L 126.500 178.265 151.500 174.533 C 165.250 172.480, 176.583 170.725, 176.684 170.633 C 176.785 170.541, 175.558 156.523, 173.958 139.483 C 172.358 122.442, 171.037 107.487, 171.024 106.250 C 171.003 104.288, 170.456 103.988, 166.750 103.907 C 163.184 103.829, 164.391 103.307, 174.250 100.660 C 180.713 98.925, 186 97.243, 186 96.921 C 186 96.599, 177.230 93.898, 166.511 90.918 C 155.792 87.938, 147.017 85.226, 147.011 84.890 C 147.005 84.555, 153.412 83.708, 161.250 83.009 C 169.088 82.309, 176.036 81.455, 176.692 81.111 C 177.448 80.714, 174.246 76.313, 167.939 69.079 C 162.469 62.806, 158.190 57.476, 158.431 57.236 C 158.672 56.995, 166.380 54.837, 175.560 52.440 C 184.739 50.044, 192.407 47.926, 192.600 47.734 C 192.792 47.541, 183.173 44.539, 171.225 41.061 C 159.276 37.583, 149.375 34.634, 149.223 34.508 C 149.070 34.382, 155.282 33.026, 163.028 31.494 C 170.773 29.963, 176.748 28.368, 176.305 27.949 C 174.772 26.499, 135.119 5, 133.979 5 C 133.349 5, 133.006 5.518, 133.217 6.151 M 119 33 C 119 37.490, 119.384 37.632, 127 35.967 C 137.122 33.755, 137.056 33.948, 128.556 31.391 C 124.187 30.076, 120.249 29, 119.806 29 C 119.363 29, 119 30.800, 119 33 M 126 57.915 L 110.500 59.561 117.500 60.273 C 128.243 61.367, 131.801 61.102, 141 58.528 C 151.431 55.609, 148.756 55.499, 126 57.915 M 144.500 60.515 C 137.177 62.650, 134.527 62.854, 113.183 62.924 C 91.469 62.995, 89.900 63.120, 90.373 64.750 C 90.652 65.713, 93.900 77.975, 97.591 92 C 101.282 106.025, 104.598 117.841, 104.959 118.258 C 105.320 118.674, 118.323 121.558, 133.854 124.665 C 153.670 128.630, 161.956 130.673, 161.632 131.517 C 161.378 132.178, 153.924 142.074, 145.066 153.507 C 136.209 164.941, 129.160 174.493, 129.401 174.735 C 129.961 175.295, 172.280 168.857, 173.147 168.080 C 173.594 167.680, 168.571 107.066, 168.040 106.454 C 168.018 106.428, 163.613 106.582, 158.250 106.795 C 151.570 107.061, 144.148 108.266, 134.679 110.622 L 120.858 114.061 113.179 109.781 L 105.500 105.500 113 104.881 C 117.125 104.540, 126.924 104.203, 134.776 104.131 C 147.135 104.018, 150.762 103.578, 161.776 100.861 C 168.774 99.134, 174.847 97.415, 175.270 97.041 C 176.446 96.001, 139.702 85.997, 134.801 86.022 C 132.435 86.034, 124.650 86.666, 117.500 87.427 C 110.350 88.187, 104.374 88.688, 104.220 88.541 C 104.066 88.394, 107.057 85.755, 110.866 82.678 L 117.792 77.082 127.646 79.891 L 137.500 82.699 154.500 80.885 C 163.850 79.887, 171.855 79.055, 172.290 79.035 C 172.724 79.016, 168.930 74.275, 163.859 68.500 C 158.788 62.725, 154.157 58.041, 153.569 58.091 C 152.981 58.141, 148.900 59.231, 144.500 60.515 M 115.500 82.567 L 112.500 85.070 120.500 84.400 C 124.900 84.032, 128.658 83.596, 128.851 83.431 C 129.044 83.266, 127.328 82.627, 125.038 82.010 C 122.748 81.394, 120.341 80.704, 119.687 80.477 C 119.034 80.251, 117.150 81.191, 115.500 82.567 M 115 107.474 C 115 107.735, 116.398 108.672, 118.108 109.556 C 120.972 111.037, 121.756 111.030, 128.108 109.474 C 131.898 108.545, 135 107.608, 135 107.392 C 135 107.177, 130.500 107, 125 107 C 119.500 107, 115 107.213, 115 107.474 M 106 122.601 C 106 123.051, 109.009 134.843, 112.687 148.805 C 118.781 171.938, 119.592 174.275, 121.826 175.124 C 123.174 175.637, 124.366 175.931, 124.475 175.778 C 124.641 175.545, 154.523 136.781, 157.147 133.396 C 157.746 132.623, 150.891 130.879, 134.251 127.573 C 121.188 124.978, 109.487 122.614, 108.250 122.319 C 107.013 122.024, 106 122.151, 106 122.601 M 90.699 144.426 C 83.696 154.598, 77.735 163.526, 77.452 164.265 C 77.062 165.281, 81.621 166.605, 96.218 169.714 C 106.823 171.973, 115.677 173.646, 115.894 173.433 C 116.244 173.088, 105.665 132.195, 104.067 127.715 C 103.588 126.372, 100.275 130.512, 90.699 144.426" stroke="none" fill="black" fill-rule="evenodd"/>
</svg>