<svg xmlns="http://www.w3.org/2000/svg" width="200" height="200" viewBox="0 0 200 200" version="1.1">
	<path d="M 91.437 22.202 C 83.847 30.616, 77.381 37.803, 77.068 38.173 C 76.756 38.543, 69.750 39.793, 61.500 40.950 C 53.250 42.107, 44.475 43.470, 42 43.979 C 39.525 44.488, 34.237 45.417, 30.250 46.043 C 25.099 46.851, 23 47.601, 23 48.633 C 23 49.839, 25.288 50.062, 36.439 49.943 L 49.878 49.799 54.439 53.611 C 56.948 55.708, 59 57.579, 59 57.769 C 59 57.959, 51.843 66.016, 43.095 75.673 L 27.191 93.232 30.772 103.366 C 32.742 108.940, 34.438 113.626, 34.541 113.781 C 34.760 114.109, 74.321 106.877, 74.870 106.409 C 75.220 106.111, 71.501 76.591, 70.386 70.807 C 70.078 69.211, 69.362 68.307, 68.629 68.589 C 67.673 68.956, 67.927 72.938, 69.752 86.176 C 71.049 95.588, 71.748 103.613, 71.305 104.009 C 70.862 104.405, 63.750 105.946, 55.500 107.434 C 47.250 108.922, 39.600 110.354, 38.499 110.616 C 36.784 111.024, 36.104 109.978, 33.739 103.296 C 32.222 99.008, 30.985 94.948, 30.990 94.273 C 31 93.061, 59.551 60.819, 61.200 60.158 C 61.669 59.970, 63.860 61.447, 66.067 63.442 C 68.322 65.479, 70.582 66.758, 71.224 66.362 C 71.954 65.911, 70.640 64.092, 67.587 61.328 C 64.958 58.947, 63.302 57, 63.908 57 C 64.993 57, 90 70.947, 90 71.552 C 90 71.723, 85.489 83.256, 79.976 97.181 L 69.953 122.500 47.735 144.750 C 35.515 156.988, 26.013 167, 26.619 167 C 27.225 167, 32.370 166.052, 38.052 164.893 C 45.251 163.425, 53.690 160.557, 65.896 155.431 C 75.528 151.386, 83.561 148.228, 83.747 148.413 C 83.932 148.599, 88.275 159.218, 93.398 172.011 C 98.522 184.805, 102.938 194.874, 103.213 194.386 C 103.488 193.899, 106.349 178.941, 109.572 161.147 C 112.794 143.352, 115.896 128.174, 116.465 127.418 C 117.266 126.353, 121.981 131.815, 137.355 151.616 C 148.275 165.682, 157.575 176.810, 158.021 176.345 C 162.644 171.525, 182 149.490, 182 149.048 C 182 148.728, 168.950 140.840, 153 131.517 C 137.050 122.195, 124 114.326, 124 114.031 C 124 112.578, 156.324 98.966, 163.500 97.398 C 167.900 96.436, 171.845 95.360, 172.268 95.007 C 172.690 94.654, 166.971 84.959, 159.559 73.463 L 146.084 52.560 159.792 45.296 C 167.331 41.301, 174.287 37.769, 175.250 37.448 C 177.121 36.825, 177.700 34, 175.958 34 C 174.848 34, 134.489 42.310, 127.128 44.054 C 124.724 44.624, 122.642 44.957, 122.501 44.795 C 122.361 44.633, 118.543 36.175, 114.017 26 C 109.491 15.825, 105.664 7.366, 105.513 7.202 C 105.361 7.038, 99.027 13.788, 91.437 22.202 M 95.487 21.691 C 90.610 27.086, 85.243 33.001, 83.560 34.834 L 80.500 38.169 85.500 37.500 C 88.250 37.133, 91.287 36.614, 92.250 36.349 C 93.338 36.048, 94 36.417, 94 37.324 C 94 38.953, 92.146 39.534, 83.731 40.543 C 78.214 41.205, 77.700 41.521, 71.971 47.773 L 65.981 54.310 68.740 55.972 C 70.258 56.887, 76.154 60.263, 81.842 63.475 C 87.530 66.687, 92.392 69.859, 92.647 70.524 C 92.903 71.188, 88.358 83.604, 82.549 98.113 L 71.988 124.494 52.744 143.804 C 39.165 157.429, 34.236 162.952, 36 162.564 C 37.375 162.262, 40.682 161.550, 43.350 160.981 C 46.017 160.412, 56.151 156.584, 65.869 152.473 C 75.587 148.363, 84.014 145, 84.595 145 C 85.176 145, 89.217 153.976, 93.576 164.948 C 97.934 175.919, 101.774 184.581, 102.108 184.198 C 102.443 183.814, 105.053 170.675, 107.909 155 C 112.330 130.739, 113.441 126.157, 115.379 124.194 L 117.657 121.889 137.525 147.470 C 156.195 171.507, 157.492 172.943, 159.014 171.275 C 173.780 155.090, 178.176 149.789, 177.410 149.090 C 176.909 148.634, 163.900 140.941, 148.500 131.995 C 133.100 123.049, 119.928 115.202, 119.229 114.558 C 117.515 112.979, 150.708 97.586, 160.973 95.201 C 164.998 94.265, 168.268 93.136, 168.238 92.691 C 168.146 91.298, 143.833 54, 143.018 54 C 141.570 54, 140.338 56.496, 132.999 74.295 C 128.964 84.083, 125.400 92.244, 125.081 92.432 C 124.411 92.826, 106 71.421, 106 70.249 C 106 69.822, 113.453 65.754, 122.561 61.209 C 136.817 54.097, 139.267 52.533, 140.159 49.973 C 141.350 46.556, 141.818 46.369, 143.482 48.644 C 144.562 50.121, 145.746 49.715, 155.092 44.665 C 160.816 41.571, 165.181 39.031, 164.791 39.020 C 164.401 39.009, 154.527 41.029, 142.849 43.509 C 131.172 45.988, 121.291 47.676, 120.893 47.259 C 120.495 46.841, 116.978 39.367, 113.078 30.649 C 109.178 21.931, 105.619 14.142, 105.171 13.340 C 104.551 12.234, 102.218 14.246, 95.487 21.691 M 61.274 43.928 C 52.018 45.458, 47.035 47, 51.348 47 C 52.273 47, 55.437 48.358, 58.378 50.018 L 63.726 53.036 68.440 47.518 C 71.033 44.483, 72.782 42.054, 72.327 42.119 C 71.872 42.185, 66.898 42.999, 61.274 43.928 M 123.250 63.845 C 115.963 67.486, 110.002 70.698, 110.005 70.983 C 110.007 71.267, 113.239 75.269, 117.186 79.877 C 123.235 86.937, 124.477 87.959, 125.092 86.377 C 125.494 85.344, 128.343 78.468, 131.423 71.095 C 134.504 63.723, 136.906 57.586, 136.762 57.457 C 136.618 57.329, 130.537 60.203, 123.250 63.845" stroke="none" fill="black" fill-rule="evenodd"/>
</svg>