<svg xmlns="http://www.w3.org/2000/svg" width="200" height="200" viewBox="0 0 200 200" version="1.1">
	<path d="M 43 6.508 C 43 6.787, 41.667 15.749, 40.037 26.423 C 37.108 45.605, 36.951 46.166, 26.537 74.612 C 20.742 90.442, 16 103.742, 16 104.168 C 16 104.594, 19.600 107.921, 24 111.561 L 32 118.179 32 149.090 C 32 177.097, 32.600 184.354, 34.370 177.750 C 34.701 176.512, 34.979 162.376, 34.986 146.336 L 35 117.173 27 110.500 C 22.600 106.830, 19 103.681, 19 103.502 C 19 103.322, 23.699 90.353, 29.442 74.681 C 39.743 46.572, 39.922 45.934, 42.633 27.593 C 44.708 13.553, 45.727 9, 46.792 9 C 47.568 9, 70.348 11.713, 97.413 15.029 C 142.215 20.519, 147.764 21.405, 159.371 24.923 C 166.383 27.048, 172.404 29.070, 172.751 29.417 C 173.098 29.764, 172.861 42.750, 172.226 58.274 C 171.079 86.268, 171.025 86.728, 165.607 114.230 L 160.144 141.959 167.497 158.992 C 171.541 168.360, 174.474 175.793, 174.014 175.509 C 173.554 175.225, 166.335 169.404, 157.972 162.574 L 142.765 150.156 129.792 158.128 C 122.656 162.513, 113.372 168.246, 109.159 170.868 C 104.947 173.491, 100.825 176.004, 100 176.453 C 99.175 176.902, 102.610 173.046, 107.634 167.885 C 116.036 159.252, 117.983 156.405, 131.935 132.355 L 147.102 106.210 149.039 76.855 C 150.104 60.710, 150.981 46.117, 150.988 44.426 C 151 41.382, 150.803 41.267, 130.869 32.641 C 119.796 27.850, 110.545 24.122, 110.309 24.357 C 110.074 24.593, 113.796 32.596, 118.581 42.143 C 130.598 66.121, 136.133 78.199, 134.707 77.330 C 131.027 75.087, 109.306 58.581, 108.250 57.224 C 107.563 56.340, 107 53.980, 107 51.979 C 107 48.976, 105.030 45.481, 95.741 32 C 85.415 17.013, 82 13.017, 82 15.920 C 82 16.517, 87.018 25.798, 93.152 36.545 L 104.304 56.083 102.568 85.624 C 101.613 101.872, 100.982 115.295, 101.166 115.454 C 101.350 115.613, 106.900 118.103, 113.500 120.988 C 120.100 123.872, 125.813 126.518, 126.195 126.866 C 126.577 127.215, 115.552 134.544, 101.695 143.152 C 87.838 151.761, 76.332 158.643, 76.128 158.447 C 75.923 158.250, 76.259 151.656, 76.875 143.794 C 77.490 135.932, 78.708 115.182, 79.580 97.681 L 81.165 65.862 74.932 47.882 C 71.503 37.993, 68.383 30.262, 67.997 30.701 C 67.612 31.140, 64.736 43.535, 61.606 58.244 L 55.916 84.987 57.088 115.258 L 58.260 145.529 51.130 169.070 C 47.209 182.018, 44 193.186, 44 193.889 C 44 194.592, 44.529 194.990, 45.175 194.775 C 45.821 194.560, 49.645 183.610, 53.672 170.442 L 60.993 146.500 59.864 116.096 L 58.734 85.693 63.617 62.281 C 69.157 35.719, 68.151 36.342, 74.609 55.471 L 78.313 66.443 76.616 100.471 C 75.682 119.187, 74.447 140.173, 73.871 147.108 C 73.295 154.042, 72.976 160.664, 73.162 161.823 C 73.489 163.864, 73.661 163.831, 78.500 160.803 C 110.621 140.702, 131.008 128.190, 130.678 128.779 C 115.590 155.695, 114.285 157.493, 99.291 172.033 C 84.227 186.641, 81.724 190.986, 92.043 184.617 C 95.044 182.765, 107.094 175.317, 118.821 168.066 C 130.548 160.815, 140.773 154.640, 141.545 154.344 C 142.377 154.025, 149.575 159.207, 159.224 167.071 C 168.176 174.366, 176.082 180.781, 176.792 181.325 C 180.483 184.152, 179.068 178.828, 171.405 161.058 L 163.021 141.616 168.490 113.558 C 173.925 85.681, 173.968 85.314, 175.139 56.657 C 176.056 34.221, 176.051 27.650, 175.116 27.072 C 174.455 26.663, 167.521 24.460, 159.707 22.175 C 146.606 18.344, 141.660 17.553, 96.189 12.010 C 46.398 5.942, 43 5.590, 43 6.508 M 128.197 55.559 C 137.155 73.742, 140.957 82.443, 140.253 83.147 C 139.550 83.850, 134.269 80.500, 123.510 72.523 C 114.866 66.115, 107.569 61.098, 107.293 61.373 C 106.791 61.876, 104.084 101.884, 104.029 109.614 L 104 113.728 118.021 120.010 C 125.733 123.464, 132.199 126.113, 132.391 125.895 C 132.583 125.678, 135.441 120.775, 138.743 115 L 144.747 104.500 146.504 74.214 C 147.471 57.557, 147.982 43.649, 147.640 43.307 C 147.083 42.749, 116.100 29, 115.402 29 C 115.243 29, 121.001 40.952, 128.197 55.559" stroke="none" fill="black" fill-rule="evenodd"/>
</svg>