<svg xmlns="http://www.w3.org/2000/svg" width="200" height="200" viewBox="0 0 200 200" version="1.1">
	<path d="M 116.500 10 C 115.733 11.241, 115.380 10.675, 127.262 27.250 L 137.118 41 148.309 41.109 C 154.464 41.168, 162.067 41.506, 165.205 41.859 L 170.911 42.500 145.955 56.899 C 132.230 64.818, 121 71.397, 121 71.518 C 121 71.640, 131.800 73.459, 145 75.562 C 158.200 77.665, 169 79.697, 169 80.079 C 169 80.460, 165.738 82.736, 161.750 85.136 L 154.500 89.500 133.165 89.837 C 121.431 90.022, 110.743 89.901, 109.415 89.568 C 107.450 89.075, 107 88.324, 107 85.540 C 107 83.658, 107.375 81.886, 107.833 81.603 C 108.292 81.320, 108.488 79.831, 108.270 78.294 C 108.052 76.757, 108.802 64.741, 109.937 51.591 C 111.072 38.441, 112 26.645, 112 25.378 C 112 23.358, 109.839 24.610, 94.500 35.514 L 77 47.955 77.124 40.727 C 77.193 36.752, 77.530 30.354, 77.874 26.508 L 78.500 19.517 92.835 18.340 C 100.719 17.693, 107.401 16.932, 107.685 16.649 C 109.303 15.031, 106.156 14.491, 98.817 15.127 C 94.242 15.523, 87.125 16.064, 83 16.329 C 72.515 17.002, 45.556 19.273, 45.229 19.511 C 44.614 19.959, 25 84.366, 25 85.939 C 25 86.880, 26.091 90.856, 27.424 94.775 C 29.312 100.328, 30.343 107.366, 32.095 126.654 L 34.342 151.407 47.921 168.636 C 60.973 185.196, 61.512 185.738, 61.802 182.578 L 62.103 179.290 83.302 179.776 C 94.961 180.044, 122.387 179.926, 144.250 179.514 C 175.815 178.920, 184 178.498, 184 177.466 C 184 176.071, 182.376 175.655, 160.500 171.455 C 152.800 169.977, 146.367 168.649, 146.204 168.504 C 145.759 168.109, 139.878 132.781, 140.211 132.509 C 140.370 132.379, 148.966 129.465, 159.313 126.033 C 169.660 122.600, 177.985 119.653, 177.813 119.483 C 177.641 119.312, 167.639 116.364, 155.587 112.931 C 133.963 106.772, 133.549 106.603, 124.164 100.095 L 114.654 93.500 123.577 92.856 C 128.485 92.502, 137.652 92.164, 143.948 92.106 L 155.396 92 166.720 85.261 C 176.226 79.605, 177.680 78.426, 175.773 77.921 C 174.523 77.590, 164.050 75.826, 152.500 74.001 C 140.950 72.176, 131.159 70.390, 130.742 70.033 C 130.325 69.676, 141.228 62.885, 154.972 54.942 C 168.716 46.999, 179.970 40.163, 179.980 39.750 C 179.991 39.337, 176.287 38.998, 171.750 38.996 C 167.213 38.994, 157.746 38.698, 150.713 38.340 L 137.927 37.688 127.822 23.344 C 122.264 15.455, 117.582 9, 117.417 9 C 117.253 9, 116.840 9.450, 116.500 10 M 57.052 21.168 C 51.855 21.660, 47.453 22.213, 47.270 22.397 C 47.087 22.580, 42.525 36.992, 37.133 54.424 L 27.328 86.118 30.016 93.809 C 32.241 100.175, 33.083 105.715, 34.903 125.959 C 36.113 139.411, 37.466 150.886, 37.912 151.459 C 38.357 152.032, 43.234 158.222, 48.750 165.216 L 58.778 177.933 59.375 154.716 C 59.703 141.947, 60.248 115.082, 60.587 95.016 L 61.203 58.533 67.601 40.016 C 71.120 29.832, 74 21.163, 74 20.750 C 74 19.857, 69.783 19.961, 57.052 21.168 M 69.210 43.832 L 63.997 59.574 62.881 116.836 C 62.267 148.330, 62.016 174.349, 62.322 174.655 C 62.903 175.236, 112.985 149.875, 112.983 149 C 112.982 148.725, 103.120 143.422, 91.067 137.216 L 69.152 125.932 69.607 120.716 C 70.425 111.337, 74.987 28.653, 74.701 28.368 C 74.549 28.215, 72.078 35.174, 69.210 43.832 M 94.999 38.538 C 87.575 43.786, 81.500 48.503, 81.500 49.018 C 81.500 50.249, 104.139 75.194, 104.724 74.609 C 105.260 74.073, 109.148 30.944, 108.764 29.792 C 108.618 29.354, 102.424 33.289, 94.999 38.538 M 74.670 82.750 C 73.723 100.763, 72.723 117.525, 72.448 120 L 71.947 124.500 95.474 136.492 C 108.413 143.088, 118.997 148.713, 118.994 148.992 C 118.991 149.271, 107.178 155.575, 92.744 163 L 66.500 176.500 109.500 176.802 C 133.150 176.969, 155.875 176.780, 160 176.382 L 167.500 175.660 155.612 173.359 C 149.074 172.093, 143.633 170.932, 143.521 170.779 C 143.061 170.147, 136.842 130.827, 137.157 130.544 C 137.346 130.374, 144.025 128.120, 152 125.534 C 159.975 122.949, 166.837 120.511, 167.249 120.117 C 167.662 119.723, 160.237 117.203, 150.749 114.516 C 133.601 109.659, 133.429 109.582, 121.357 101.341 L 109.213 93.052 93.439 92.776 C 84.014 92.611, 77.530 92.096, 77.331 91.495 C 77.147 90.943, 79.585 89.498, 82.748 88.285 C 85.912 87.071, 92.211 84.672, 96.747 82.953 L 104.994 79.827 91.388 64.914 C 83.905 56.711, 77.470 50, 77.087 50 C 76.705 50, 75.617 64.737, 74.670 82.750 M 95 86.553 L 86.500 89.899 95.250 89.950 L 104 90 104 86.500 C 104 84.575, 103.888 83.047, 103.750 83.104 C 103.612 83.161, 99.675 84.713, 95 86.553" stroke="none" fill="black" fill-rule="evenodd"/>
</svg>