<svg xmlns="http://www.w3.org/2000/svg" width="200" height="200" viewBox="0 0 200 200" version="1.1">
	<path d="M 77.500 11.558 C 59.900 12.249, 44.938 12.856, 44.250 12.907 C 43.563 12.958, 43 13.521, 43 14.159 C 43 15.315, 75.653 14.896, 105.500 13.356 L 117.500 12.737 129.468 27.296 L 141.436 41.856 151.718 44.581 C 157.373 46.080, 161.985 47.575, 161.966 47.903 C 161.923 48.655, 127.963 71.324, 127.592 70.849 C 127.441 70.657, 123.407 57.923, 118.627 42.552 C 110.316 15.823, 109.379 13.135, 108.703 14.083 C 108.376 14.542, 84.056 41.927, 80.248 46.124 L 77.867 48.748 89.416 56.940 C 95.767 61.446, 101.190 65.499, 101.467 65.946 C 101.978 66.773, 74.276 77.610, 73.538 76.871 C 73.316 76.650, 71.803 66.211, 70.175 53.675 C 68.547 41.138, 66.934 30.601, 66.591 30.257 C 65.012 28.679, 63.960 33.354, 60.008 59.500 L 55.777 87.500 56.456 120.500 C 56.829 138.650, 57.325 154.179, 57.558 155.009 C 57.852 156.055, 54.353 158.696, 46.143 163.627 L 34.305 170.736 33.655 153.618 C 33.298 144.203, 33.005 129.072, 33.003 119.993 L 33 103.486 29.443 94.493 C 27.486 89.547, 25.832 84.825, 25.768 84 C 25.703 83.175, 30.050 68.325, 35.428 51 C 40.806 33.675, 45.272 19.106, 45.353 18.625 C 45.434 18.144, 44.966 17.553, 44.312 17.312 C 43.558 17.035, 42.017 20.456, 40.088 26.687 C 38.419 32.084, 33.740 47.139, 29.692 60.143 L 22.331 83.786 26.056 93.143 L 29.782 102.500 30.523 138.750 C 30.931 158.687, 31.523 175, 31.839 175 C 32.155 175, 38.620 171.297, 46.207 166.770 L 60 158.541 59.938 147.020 C 59.904 140.684, 59.521 124.925, 59.086 112 C 58.651 99.075, 58.502 87.938, 58.755 87.250 C 59.055 86.432, 61.376 86, 65.465 86 L 71.715 86 72.336 91.937 C 72.677 95.202, 73.248 99.702, 73.606 101.937 L 74.256 106 68.628 106 C 64.324 106, 63 106.348, 63 107.481 C 63 108.295, 64.237 109.242, 65.750 109.585 C 75.094 111.701, 74.435 111.186, 75.320 117.059 C 75.771 120.052, 76.322 123.400, 76.543 124.500 C 76.827 125.910, 82.014 129.239, 94.112 135.778 C 103.553 140.881, 111.464 144.870, 111.691 144.642 C 111.919 144.415, 109.311 138.322, 105.897 131.103 C 102.484 123.883, 99.916 117.751, 100.192 117.475 C 100.468 117.199, 108.196 118.554, 117.367 120.487 C 126.538 122.419, 134.365 124, 134.761 124 C 135.158 124, 126.282 133.208, 115.037 144.463 C 103.793 155.717, 94.798 165.132, 95.050 165.383 C 95.677 166.010, 139.483 185.859, 141.025 186.215 C 141.855 186.406, 145.270 175.654, 151.415 153.500 L 160.568 120.500 168.720 108.020 C 173.204 101.155, 176.706 95.373, 176.503 95.170 C 176.132 94.799, 136.586 89.036, 134.250 89.012 C 133.563 89.006, 133 88.325, 133 87.500 C 133 86.528, 133.969 86.003, 135.750 86.008 C 145.962 86.036, 188.616 82.518, 189.218 81.598 C 190.319 79.914, 187.632 79.412, 158.750 75.905 C 144.037 74.118, 132.010 72.396, 132.023 72.078 C 132.035 71.760, 140.160 66.130, 150.077 59.566 C 159.995 53.003, 168.301 47.322, 168.536 46.942 C 168.771 46.562, 163.179 44.749, 156.111 42.914 L 143.258 39.578 130.991 24.789 L 118.724 10 114.112 10.151 C 111.575 10.234, 95.100 10.867, 77.500 11.558 M 95.069 33.536 L 81.907 48.173 93.703 56.648 C 100.192 61.309, 106.056 65.667, 106.735 66.333 C 107.965 67.536, 107.057 67.928, 79.250 78.204 C 70.852 81.307, 72.362 82.600, 85.250 83.343 C 91.438 83.699, 103.806 83.993, 112.736 83.995 L 128.972 84 127.092 78.750 C 126.059 75.862, 121.497 61.350, 116.956 46.500 C 112.414 31.650, 108.593 19.365, 108.465 19.199 C 108.337 19.034, 102.309 25.485, 95.069 33.536 M 62.533 61.533 C 60.946 72.230, 59.876 81.209, 60.155 81.488 C 60.433 81.766, 62.762 81.278, 65.330 80.403 C 69.229 79.075, 70 78.397, 70 76.299 C 70 73.715, 66.012 42.679, 65.631 42.298 C 65.514 42.181, 64.120 50.837, 62.533 61.533 M 129.519 77.102 C 131.420 83.196, 132.023 84.128, 133.751 83.643 C 134.713 83.373, 141.786 82.841, 149.468 82.462 C 174.440 81.228, 174.888 80.747, 153.500 78.135 C 143.050 76.858, 133.211 75.564, 131.636 75.259 C 128.988 74.746, 128.828 74.886, 129.519 77.102 M 69 82 C 67.718 82.828, 67.754 82.972, 69.250 82.985 C 70.213 82.993, 71 82.550, 71 82 C 71 80.780, 70.887 80.780, 69 82 M 75.642 95.750 C 76.349 101.112, 76.944 105.612, 76.964 105.750 C 76.984 105.888, 80.125 106, 83.945 106 L 90.890 106 88.458 100.500 C 87.120 97.475, 86.288 95, 86.610 95 C 87.355 95, 109.430 102.773, 113.750 104.556 C 119.660 106.996, 117.546 108, 106.500 108 C 98.515 108, 96 108.313, 96 109.309 C 96 112.706, 99.029 113.849, 119 117.987 C 130.275 120.323, 139.704 122.423, 139.954 122.654 C 140.204 122.885, 131.102 132.395, 119.728 143.787 L 99.048 164.500 119.662 173.779 C 130.999 178.882, 140.374 182.932, 140.495 182.779 C 140.615 182.625, 144.491 168.561, 149.107 151.524 L 157.500 120.547 164.789 109.146 C 168.798 102.876, 171.912 97.579, 171.708 97.375 C 171.505 97.172, 163.050 95.852, 152.919 94.442 C 133.413 91.729, 130 90.870, 130 88.677 C 130 87.140, 112.228 86.010, 87.928 86.004 L 74.356 86 75.642 95.750 M 92 100.959 C 92 101.604, 92.466 103.002, 93.035 104.066 C 93.900 105.681, 95.169 106, 100.735 106 C 108.297 106, 108.106 105.084, 100 102.477 C 96.975 101.505, 93.938 100.501, 93.250 100.247 C 92.563 99.994, 92 100.314, 92 100.959 M 86 110.938 C 90.125 111.897, 93.623 112.593, 93.774 112.484 C 93.924 112.375, 93.763 111.547, 93.417 110.643 C 92.908 109.318, 91.405 109.019, 85.643 109.097 L 78.500 109.194 86 110.938 M 78.459 118.341 C 78.842 121.722, 79.232 124.546, 79.327 124.617 C 81.043 125.897, 105.593 138.740, 105.844 138.489 C 106.039 138.294, 103.828 133.144, 100.932 127.045 C 97.140 119.060, 95.082 115.819, 93.583 115.473 C 92.437 115.209, 88.409 114.363, 84.632 113.593 L 77.764 112.195 78.459 118.341" stroke="none" fill="black" fill-rule="evenodd"/>
</svg>