<svg xmlns="http://www.w3.org/2000/svg" width="200" height="200" viewBox="0 0 200 200" version="1.1">
	<path d="M 43.388 15.651 C 39.553 24.311, 18.730 93.142, 19.682 94.009 C 20.132 94.419, 22.863 95.521, 25.750 96.457 L 31 98.161 31 120.427 C 31 132.673, 31.287 146.731, 31.637 151.667 L 32.274 160.641 46.387 169.866 L 60.500 179.092 61.009 118.296 L 61.518 57.500 67.818 38.524 C 71.283 28.087, 74.269 19.397, 74.453 19.213 C 74.638 19.029, 75.623 21.043, 76.644 23.689 C 78.378 28.184, 78.500 32.454, 78.500 88.750 C 78.500 146.512, 78.576 149, 80.334 149 C 81.342 149, 91.671 147.403, 103.287 145.452 C 114.903 143.500, 125.690 142.038, 127.258 142.202 C 129.890 142.477, 130.612 143.607, 136.616 156.856 C 140.193 164.752, 142.975 171.359, 142.796 171.537 C 142.617 171.716, 125.940 172.187, 105.736 172.584 C 78.400 173.121, 69 173.610, 69 174.496 C 69 175.342, 73.812 175.876, 85.660 176.343 C 108.552 177.246, 188.005 177.174, 187.980 176.250 C 187.969 175.838, 182.124 167.850, 174.992 158.500 L 162.025 141.500 166.263 141 L 170.500 140.500 170.235 112.500 C 170.090 97.100, 169.691 70.629, 169.350 53.676 L 168.729 22.852 175.865 23.555 C 182.080 24.168, 183 24.048, 183 22.629 C 183 21.633, 182.172 21, 180.869 21 C 178.281 21, 59.862 11.301, 51.739 10.423 L 45.978 9.801 43.388 15.651 M 45.271 18.190 C 43.211 23.097, 23.644 86.115, 22.851 90.396 C 22.570 91.917, 23.638 92.676, 28.250 94.230 L 34 96.167 34.022 127.333 L 34.044 158.500 45.772 166.240 L 57.500 173.979 58.109 148.740 C 58.443 134.858, 58.781 108.669, 58.859 90.543 L 59 57.586 65.500 37.388 C 69.075 26.279, 72 16.741, 72 16.193 C 72 15.247, 69.036 14.797, 54 13.459 L 47.500 12.880 45.271 18.190 M 76 15.603 C 76 15.865, 76.869 17.783, 77.932 19.866 L 79.863 23.652 103.182 26.872 C 139.923 31.946, 141 32.134, 141 33.492 C 141 34.913, 135.717 35.607, 117.162 36.620 C 109.652 37.030, 104.671 37.725, 104.432 38.397 C 104.216 39.004, 107.145 48.950, 110.940 60.500 L 117.841 81.500 117.991 67.500 C 118.073 59.800, 118.476 52.646, 118.885 51.602 C 119.503 50.027, 121.563 52.069, 130.989 63.602 C 137.236 71.246, 142.986 78.256, 143.766 79.180 C 144.994 80.636, 144.901 83.246, 143.070 98.680 C 141.908 108.481, 140.750 117.444, 140.497 118.598 C 140.134 120.256, 142.125 122.509, 149.995 129.348 C 159.051 137.217, 160.326 138, 164.086 138 L 168.221 138 167.602 106.750 C 167.262 89.563, 166.711 63.698, 166.379 49.274 L 165.775 23.048 162.637 22.551 C 160.912 22.277, 142.175 20.688, 121 19.020 C 99.825 17.351, 81.037 15.793, 79.250 15.556 C 77.463 15.319, 76 15.340, 76 15.603 M 81.847 28.750 C 82.352 29.712, 93.685 54.800, 107.033 84.500 C 120.381 114.200, 131.420 138.649, 131.565 138.831 C 131.710 139.013, 132.747 139.013, 133.870 138.831 C 135.704 138.534, 134.956 136.770, 126.518 121.500 C 120.811 111.173, 117.482 104.136, 118.038 103.574 C 119.039 102.560, 118.832 102.413, 129.784 111.934 C 133.790 115.416, 137.264 118.069, 137.504 117.829 C 138.538 116.795, 142.099 82.552, 141.332 81.012 C 140.875 80.093, 136.225 74.118, 131 67.734 L 121.500 56.128 121 73.732 C 120.261 99.747, 120.731 100.349, 106.051 54.591 C 102.715 44.191, 100.123 35.544, 100.292 35.375 C 100.460 35.207, 105.076 34.791, 110.549 34.451 C 116.022 34.112, 121.175 33.579, 122 33.266 C 123.438 32.721, 89.460 27.225, 83.715 27.074 C 81.370 27.012, 81.075 27.277, 81.847 28.750 M 81.470 90.553 C 81.453 121.049, 81.678 146.009, 81.970 146.019 C 82.977 146.056, 127.501 138.679, 127.837 138.420 C 128.136 138.189, 85.486 42.759, 82.644 37.303 C 81.772 35.630, 81.493 48.307, 81.470 90.553 M 128.023 118.578 C 130.417 122.935, 133.133 127.760, 134.058 129.301 C 135.740 132.102, 135.740 132.102, 136.356 129.801 C 137.927 123.937, 137.141 121.543, 132.307 117.462 C 123.578 110.092, 123.387 110.142, 128.023 118.578 M 139.594 128.240 C 139.319 130.033, 138.815 133.254, 138.474 135.398 L 137.854 139.296 143.177 138.657 C 146.105 138.305, 150.075 137.996, 152 137.970 L 155.500 137.922 149.500 132.432 C 140.902 124.564, 140.203 124.269, 139.594 128.240 M 133.450 142.750 C 133.815 143.713, 137.086 151.137, 140.719 159.250 L 147.323 174 165.248 174 L 183.173 174 180.177 169.926 C 178.529 167.685, 172.977 160.275, 167.840 153.460 L 158.500 141.068 145.643 141.034 C 133.804 141.003, 132.839 141.139, 133.450 142.750" stroke="none" fill="black" fill-rule="evenodd"/>
</svg>