<svg xmlns="http://www.w3.org/2000/svg" width="200" height="200" viewBox="0 0 200 200" version="1.1">
	<path d="M 46.391 9.250 L 45.498 13.500 38.749 13.796 C 35.037 13.958, 32 14.485, 32 14.966 C 32 15.447, 34.850 16.146, 38.333 16.519 L 44.665 17.197 41.408 31.849 C 38.459 45.116, 36.962 49.186, 25.562 74.933 C 17.595 92.929, 13.365 103.608, 14.041 104.025 C 14.628 104.388, 19.584 105.506, 25.054 106.510 L 35 108.335 34.996 112.417 C 34.994 114.663, 34.303 130.172, 33.461 146.882 C 32.619 163.591, 32.157 177.491, 32.435 177.769 C 33.100 178.434, 61.186 168.018, 62.561 166.597 C 63.297 165.836, 63.372 157.082, 62.805 138 C 62.356 122.875, 62.235 98.575, 62.536 84 L 63.082 57.500 70.291 38.264 C 74.256 27.685, 77.745 19.022, 78.045 19.014 C 78.616 18.999, 88.018 58.497, 88.007 60.861 C 88.003 61.610, 83.437 68.810, 77.860 76.861 C 72.283 84.912, 67.539 92.175, 67.318 93 C 66.984 94.243, 70.180 105.068, 81.060 139.548 L 82.022 142.595 100.761 140.724 C 111.067 139.695, 119.826 138.537, 120.224 138.152 C 121.955 136.478, 137.040 92.305, 136.668 90 C 136.446 88.625, 132.857 79.287, 128.691 69.250 C 124.525 59.213, 121.376 51, 121.693 51 C 122.009 51, 127.199 52.688, 133.224 54.750 L 144.180 58.500 143.482 91.500 C 142.865 120.720, 142.587 124.729, 141.055 126.500 C 117.903 153.258, 115.782 156.032, 117.141 157.760 C 126.336 169.453, 142.378 187.884, 143.016 187.490 C 143.469 187.210, 150.828 176.885, 159.370 164.545 L 174.900 142.109 171.877 110.305 L 168.854 78.500 175.337 56.509 C 178.903 44.414, 181.641 34.228, 181.422 33.874 C 181.203 33.520, 176.568 29.349, 171.122 24.606 L 161.219 15.982 121.046 15.327 L 80.872 14.673 79.610 11.586 L 78.348 8.500 77.655 11.250 L 76.962 14 62.586 14 L 48.211 14 49.081 10.250 C 50.241 5.257, 50.220 5, 48.642 5 C 47.851 5, 46.911 6.775, 46.391 9.250 M 44.206 31.961 C 41.219 45.550, 39.818 49.412, 28.923 74.092 C 22.326 89.036, 17.161 101.494, 17.444 101.778 C 17.728 102.061, 22.308 103.116, 27.622 104.122 C 32.937 105.128, 37.487 106.154, 37.734 106.400 C 37.980 106.647, 37.457 121.799, 36.571 140.071 C 35.685 158.344, 35.163 173.497, 35.411 173.745 C 35.659 173.993, 41.567 172.049, 48.539 169.426 L 61.216 164.657 60.483 154.079 C 60.080 148.260, 59.775 124.150, 59.805 100.500 L 59.859 57.500 67.430 37.768 C 71.593 26.915, 75 17.802, 75 17.518 C 75 17.233, 68.812 17, 61.248 17 L 47.496 17 44.206 31.961 M 81.521 19.390 C 81.790 20.551, 83.829 29.375, 86.053 39 C 88.276 48.625, 90.218 56.933, 90.368 57.461 C 90.518 57.990, 91.828 56.675, 93.280 54.539 C 95.913 50.664, 95.921 50.661, 96.844 53.078 C 97.354 54.410, 100.761 63.351, 104.417 72.947 L 111.065 90.394 109.524 97.947 C 105.806 116.170, 104.760 120, 103.501 120 C 102.248 120, 99.999 111.527, 92.419 78.250 C 90.884 71.513, 89.374 66.016, 89.064 66.036 C 88.308 66.085, 70.585 91.948, 70.190 93.577 C 69.930 94.654, 72.972 104.836, 82.581 135.049 L 84.027 139.599 101.103 137.877 C 110.495 136.930, 118.310 136.007, 118.471 135.827 C 119.249 134.957, 133.999 92.414, 133.993 91.059 C 133.990 90.201, 130.267 80.500, 125.720 69.500 L 117.453 49.500 111.477 47.248 C 105.982 45.179, 99.174 44.804, 92.942 46.228 C 92.286 46.377, 91.558 45.980, 91.323 45.345 C 90.777 43.866, 96.822 41.864, 103.215 41.408 C 105.946 41.213, 119.876 39.017, 134.172 36.527 C 148.467 34.037, 160.577 32, 161.082 32 C 161.587 32, 162 32.586, 162 33.302 C 162 34.086, 154.444 37.315, 143 41.422 C 132.550 45.172, 124 48.374, 124 48.537 C 124 48.701, 128.983 50.495, 135.072 52.524 C 141.162 54.553, 146.385 56.839, 146.678 57.603 C 146.971 58.368, 146.766 74.059, 146.221 92.473 L 145.232 125.953 133.754 139.269 C 127.441 146.592, 121.688 153.526, 120.969 154.678 C 119.766 156.604, 120.568 157.861, 131.002 170.414 C 137.239 177.918, 142.649 183.707, 143.025 183.279 C 143.804 182.390, 170.244 144.122, 171.327 142.316 C 171.717 141.664, 170.689 127.039, 169.041 109.816 L 166.044 78.500 172.406 56.744 L 178.768 34.989 169.870 27.100 L 160.972 19.212 144.736 18.624 C 135.806 18.301, 117.820 17.867, 104.766 17.659 C 81.042 17.280, 81.032 17.281, 81.521 19.390 M 124.500 40.925 L 109.500 43.619 114.408 45.303 L 119.317 46.987 130.908 42.846 C 137.284 40.569, 142.688 38.547, 142.917 38.353 C 143.748 37.648, 139.212 38.282, 124.500 40.925 M 93.669 59.063 C 92.751 60.373, 92 62.173, 92 63.063 C 92 64.389, 102.279 109.194, 103.336 112.476 C 103.509 113.014, 104.657 108.289, 105.887 101.976 L 108.123 90.500 102.454 75.500 C 99.336 67.250, 96.459 59.641, 96.061 58.590 C 95.378 56.786, 95.245 56.812, 93.669 59.063" stroke="none" fill="black" fill-rule="evenodd"/>
</svg>