<svg xmlns="http://www.w3.org/2000/svg" width="200" height="200" viewBox="0 0 200 200" version="1.1">
	<path d="M 112.602 24.989 L 99.847 40.977 93.969 37.821 C 88.261 34.758, 87.996 34.430, 84.880 26.583 C 83.114 22.137, 81.480 18.275, 81.248 18 C 80.859 17.537, 79.652 18.839, 74.954 24.793 L 73.145 27.085 57.943 19.472 C 49.583 15.284, 42.411 12.228, 42.007 12.679 C 41.602 13.131, 37.597 28.800, 33.107 47.500 L 24.942 81.500 26.408 89.500 C 27.214 93.900, 28.625 108.075, 29.543 121 L 31.214 144.500 40.805 169.390 C 47.922 187.860, 50.598 193.792, 51.180 192.390 C 51.611 191.350, 54.710 175.650, 58.066 157.500 C 61.422 139.350, 64.393 124.275, 64.667 124 C 64.942 123.725, 70.518 123.340, 77.059 123.145 L 88.952 122.791 82.414 137.645 C 78.818 145.815, 73.146 158.705, 69.809 166.288 C 66.472 173.871, 63.992 180.325, 64.296 180.630 C 64.817 181.150, 104.906 167.794, 107.342 166.288 C 109.689 164.838, 150.214 163.231, 170.972 163.764 L 192.444 164.316 184.422 154.908 C 169.569 137.490, 155.362 120.508, 154.704 119.386 C 154.344 118.773, 160.563 109.585, 168.524 98.968 C 176.484 88.351, 182.874 79.540, 182.722 79.389 C 182.571 79.238, 175.637 79.811, 167.315 80.662 L 152.182 82.211 141.922 74.441 L 131.661 66.670 144.081 62.277 C 176.723 50.729, 185.330 47.423, 185.155 46.500 C 185.034 45.858, 177.708 45.629, 164.709 45.860 L 144.452 46.220 135.566 27.610 C 130.679 17.375, 126.382 9, 126.018 9 C 125.655 9, 119.617 16.195, 112.602 24.989 M 114.011 27.512 C 108.242 34.895, 103.405 41.288, 103.263 41.718 C 103.121 42.148, 108.291 45.200, 114.752 48.500 L 126.500 54.500 127.358 59.250 C 127.874 62.104, 128.747 64, 129.546 64 C 131.064 64, 173.172 49.167, 173.974 48.349 C 174.263 48.055, 167.411 48.141, 158.746 48.541 L 142.991 49.269 134.439 31.634 C 129.735 21.935, 125.575 14.020, 125.193 14.044 C 124.812 14.069, 119.780 20.129, 114.011 27.512 M 43.485 17.250 C 43.236 17.938, 39.616 32.450, 35.440 49.500 L 27.847 80.500 29.405 90.500 C 30.263 96, 31.669 110.400, 32.530 122.500 L 34.096 144.500 41.728 164.270 C 45.926 175.143, 49.656 183.693, 50.017 183.270 C 50.378 182.846, 52.808 170.800, 55.417 156.500 C 58.026 142.200, 60.602 128.406, 61.142 125.847 L 62.124 121.194 74.312 120.503 C 81.015 120.123, 87.948 119.967, 89.717 120.156 L 92.935 120.500 80.607 148.500 C 73.828 163.900, 68.363 176.608, 68.464 176.741 C 68.565 176.873, 77.840 173.799, 89.074 169.910 L 109.500 162.839 130.500 161.670 C 142.050 161.026, 159.263 160.725, 168.752 161 C 178.240 161.275, 186.003 161.378, 186.002 161.229 C 186.001 161.079, 178.596 152.220, 169.548 141.541 C 160.499 130.862, 152.560 121.268, 151.905 120.220 C 150.863 118.550, 152.232 116.291, 163.009 101.908 C 169.770 92.883, 175.796 84.867, 176.401 84.093 C 177.336 82.897, 176.155 82.789, 168.500 83.368 C 163.550 83.743, 157.700 84.290, 155.500 84.585 C 151.791 85.081, 150.918 84.672, 143.500 78.956 C 139.100 75.565, 134.190 71.856, 132.590 70.713 L 129.679 68.635 130.338 72.568 C 131.372 78.730, 140 143.184, 140 144.740 C 140 145.636, 133.591 142.813, 122.013 136.816 C 112.120 131.692, 104.020 126.938, 104.013 126.250 C 104.006 125.563, 104.300 125, 104.667 125 C 105.033 125, 112.285 128.623, 120.782 133.052 C 129.278 137.480, 136.364 140.968, 136.528 140.802 C 136.975 140.349, 128.166 75.358, 127.087 71.145 C 126.573 69.140, 125.634 64.899, 124.999 61.720 L 123.846 55.939 112.939 50.470 C 106.941 47.461, 101.599 45, 101.068 45 C 100.536 45, 98.935 46.530, 97.509 48.399 L 94.916 51.799 108.448 85.609 C 116.204 104.989, 121.605 119.795, 121.103 120.297 C 120.600 120.800, 119.896 120.641, 119.454 119.926 C 119.030 119.239, 112.723 103.787, 105.440 85.588 C 92.389 52.981, 92.155 52.500, 89.348 52.500 L 86.500 52.500 85.166 75.500 C 84.432 88.150, 83.682 98.650, 83.499 98.834 C 83.316 99.017, 77.054 97.901, 69.583 96.353 C 59.205 94.202, 56 93.173, 56 91.991 C 56 91.140, 58.003 78.624, 60.451 64.178 C 64.684 39.199, 65.059 37.713, 68.109 33.862 C 70.710 30.578, 71.050 29.641, 69.908 28.899 C 67.559 27.373, 45.195 16, 44.544 16 C 44.210 16, 43.734 16.563, 43.485 17.250 M 77.652 25.600 C 76.635 26.995, 75.960 28.274, 76.152 28.441 C 76.799 29.007, 82.897 32, 83.402 32 C 83.678 32, 83.154 29.975, 82.236 27.500 C 81.319 25.025, 80.328 23.014, 80.034 23.031 C 79.740 23.049, 78.668 24.204, 77.652 25.600 M 70.450 35.289 C 67.652 39.152, 67.046 41.591, 63.102 64.818 C 60.737 78.743, 59.106 90.443, 59.477 90.818 C 59.847 91.193, 64.801 92.439, 70.486 93.587 L 80.822 95.674 81.364 91.587 C 81.662 89.339, 82.172 80.750, 82.498 72.500 C 83.357 50.730, 83.474 50.189, 87.477 49.438 L 90.787 48.817 88.523 43.159 C 86.494 38.086, 85.650 37.166, 80.380 34.278 C 77.146 32.506, 74.275 31.061, 74 31.067 C 73.725 31.073, 72.128 32.973, 70.450 35.289 M 90.460 40.657 C 90.869 41.671, 91.653 43.737, 92.200 45.250 C 93.412 48.599, 93.993 48.634, 96.273 45.500 L 98.045 43.064 93.880 40.939 C 90.013 38.966, 89.768 38.946, 90.460 40.657" stroke="none" fill="black" fill-rule="evenodd"/>
</svg>