<svg xmlns="http://www.w3.org/2000/svg" width="200" height="200" viewBox="0 0 200 200" version="1.1">
	<path d="M 62 11.941 C 62 15.273, 61.663 17.997, 61.250 17.993 C 60.837 17.990, 59.183 17.119, 57.574 16.058 L 54.648 14.129 44.383 27.815 C 38.068 36.233, 34.473 41.859, 35.042 42.433 C 35.550 42.947, 36.127 43.172, 36.324 42.933 C 36.520 42.695, 40.834 36.964, 45.910 30.199 L 55.139 17.897 58.320 19.767 L 61.500 21.636 61.234 36.068 C 61.087 44.006, 59.975 69.837, 58.762 93.470 L 56.557 136.440 46.194 153.802 C 40.494 163.351, 35.607 170.940, 35.334 170.667 C 35.060 170.394, 34.185 153.703, 33.388 133.576 L 31.940 96.982 28.590 86.281 C 26.748 80.395, 24.736 75.412, 24.120 75.207 C 22.397 74.632, 22.745 76.802, 26.020 87.049 C 28.974 96.295, 29.071 97.260, 30.501 131.500 C 31.305 150.750, 31.971 169.852, 31.981 173.950 C 31.993 178.474, 32.359 181.027, 32.914 180.450 C 33.416 179.927, 39.522 170.108, 46.483 158.629 L 59.138 137.758 61.560 95.129 C 62.891 71.683, 63.985 46.088, 63.990 38.250 C 63.996 30.412, 64.257 24, 64.572 24 C 64.886 24, 67.158 25.180, 69.620 26.623 C 72.479 28.299, 75.382 31.257, 77.657 34.812 L 81.217 40.378 76.038 66.285 C 73.190 80.534, 71.031 92.364, 71.240 92.574 C 71.450 92.783, 85.319 94.601, 102.061 96.613 C 118.802 98.625, 132.687 100.435, 132.917 100.635 C 133.962 101.550, 131.245 102.335, 118.165 104.899 C 104.734 107.532, 103.415 108.020, 86.589 116.574 C 76.932 121.483, 69.023 125.779, 69.015 126.120 C 69.007 126.460, 73.445 130.735, 78.879 135.620 C 88.353 144.137, 88.784 144.705, 89.420 149.500 C 89.785 152.250, 90.320 156.134, 90.609 158.130 L 91.135 161.760 101.694 159.481 L 112.252 157.201 111.664 162.350 C 110.420 173.241, 109.743 186, 110.410 186 C 111.729 186, 178.501 162.820, 179.263 162.097 C 180.830 160.612, 176.894 110.324, 172.876 80.501 C 170.654 64.001, 168.741 50.408, 168.626 50.293 C 168.353 50.020, 134.171 47.013, 131.250 47.006 C 130.012 47.003, 129 46.409, 129 45.686 C 129 44.694, 135.555 43.775, 155.738 41.936 C 177.393 39.963, 182.528 39.215, 182.755 38 C 182.964 36.879, 175.782 33.848, 154.321 26 C 138.529 20.225, 124.786 15.355, 123.781 15.177 C 122.198 14.898, 122.028 15.367, 122.509 18.677 C 122.815 20.780, 123.637 26.847, 124.335 32.159 L 125.605 41.819 120.552 42.391 C 117.774 42.705, 112.779 43.244, 109.454 43.587 L 103.408 44.212 89.954 35.982 L 76.500 27.752 70.082 17.332 C 66.553 11.600, 63.290 6.679, 62.832 6.396 C 62.375 6.113, 62 8.609, 62 11.941 M 65 17.808 C 65 20.296, 65.632 21.276, 68.043 22.522 L 71.085 24.096 68.408 19.798 C 66.936 17.434, 65.566 15.313, 65.365 15.083 C 65.164 14.854, 65 16.080, 65 17.808 M 126.811 30.250 C 127.615 36.438, 128.324 41.564, 128.386 41.642 C 128.671 41.998, 173.939 37.394, 174.368 36.966 C 174.800 36.533, 127.322 18.895, 125.925 18.969 C 125.608 18.986, 126.007 24.063, 126.811 30.250 M 81.966 36.445 L 84.127 39.942 79.070 65.144 C 76.288 79.005, 74.122 90.409, 74.256 90.487 C 74.390 90.566, 87.640 92.187, 103.700 94.091 L 132.900 97.553 132.321 93.027 C 132.002 90.537, 131.462 88.215, 131.120 87.867 C 130.779 87.519, 127.156 87.649, 123.069 88.155 C 118.982 88.662, 115.045 88.947, 114.321 88.788 C 113.546 88.619, 116.294 84.662, 121.002 79.170 C 128.833 70.035, 130.371 66.674, 128.235 63.360 C 127.831 62.733, 121.339 58.458, 113.808 53.860 C 106.277 49.262, 95.546 42.676, 89.960 39.224 L 79.805 32.949 81.966 36.445 M 120.762 45.707 C 122.006 45.946, 123.806 45.937, 124.762 45.687 C 125.718 45.437, 124.700 45.241, 122.500 45.252 C 120.300 45.263, 119.518 45.468, 120.762 45.707 M 117 52.512 C 128.652 59.786, 127.824 59.648, 127.240 54.217 C 126.962 51.623, 126.681 49.438, 126.617 49.362 C 126.553 49.286, 122.675 48.910, 118 48.527 L 109.500 47.830 117 52.512 M 130.312 55.734 C 130.637 58.888, 131.312 61.604, 131.810 61.770 C 132.309 61.936, 133.567 62.694, 134.607 63.454 C 136.447 64.800, 136.438 64.916, 134.262 67.860 C 132.772 69.875, 132.175 71.819, 132.471 73.692 C 132.716 75.236, 133.180 78.188, 133.503 80.250 C 134.032 83.627, 134.392 84, 137.113 84 C 139.512 84, 140.033 84.361, 139.642 85.750 C 139.371 86.713, 138.857 89.075, 138.500 91 C 138.143 92.925, 137.641 95.250, 137.384 96.167 C 137.011 97.503, 137.954 98, 142.126 98.667 C 149.241 99.805, 149.416 101.564, 142.556 102.988 C 136.104 104.328, 136.356 103.332, 138.500 119 C 139.290 124.775, 139.951 129.775, 139.968 130.110 C 139.986 130.446, 143.437 133.596, 147.637 137.110 L 155.274 143.500 150.887 144.176 C 148.474 144.548, 144.835 144.885, 142.800 144.926 L 139.099 145 138.402 138.835 C 137.765 133.202, 137.320 132.312, 133.249 128.520 L 128.794 124.371 130.766 114.665 L 132.738 104.958 129.391 105.586 C 106.241 109.929, 104.714 110.412, 89.250 118.267 C 80.862 122.527, 74 126.378, 74 126.825 C 74 127.271, 78.003 131.308, 82.896 135.795 L 91.792 143.953 92.498 150.977 C 92.938 155.364, 93.652 158, 94.398 158 C 95.056 158, 99.793 157.083, 104.927 155.963 C 110.060 154.843, 114.467 154.133, 114.720 154.386 C 114.973 154.639, 114.633 160.750, 113.966 167.966 C 113.298 175.181, 112.987 181.320, 113.275 181.608 C 113.874 182.208, 175.076 161.307, 176.313 160.080 C 178.704 157.709, 168.773 56.750, 165.831 53.519 C 164.973 52.576, 143.188 50.205, 134.110 50.067 L 129.720 50 130.312 55.734 M 124.310 79.536 C 121.455 82.790, 119.205 85.519, 119.310 85.601 C 119.414 85.682, 122.088 85.524, 125.250 85.250 C 130.703 84.778, 130.994 84.616, 130.882 82.126 C 130.817 80.682, 130.479 78.177, 130.132 76.559 L 129.500 73.619 124.310 79.536 M 134.070 87.750 C 134.109 88.162, 134.527 89.400, 135 90.500 C 135.762 92.272, 135.867 92.187, 135.930 89.750 C 135.968 88.237, 135.550 87, 135 87 C 134.450 87, 134.032 87.338, 134.070 87.750 M 133.134 116.859 C 131.908 122.959, 131.948 123.315, 134.099 125.605 C 135.332 126.918, 136.461 127.872, 136.607 127.726 C 136.754 127.579, 136.320 123.644, 135.643 118.980 L 134.411 110.500 133.134 116.859 M 141 138.500 C 141 141.869, 141.139 142, 144.696 142 L 148.392 142 145 138.500 C 143.134 136.575, 141.471 135, 141.304 135 C 141.137 135, 141 136.575, 141 138.500" stroke="none" fill="black" fill-rule="evenodd"/>
</svg>