<svg xmlns="http://www.w3.org/2000/svg" width="200" height="200" viewBox="0 0 200 200" version="1.1">
	<path d="M 41.234 21.250 L 30.297 42.500 25.004 72.500 C 22.093 89, 19.746 103.762, 19.790 105.303 C 19.934 110.413, 27.078 162.463, 27.915 164.509 C 28.646 166.293, 31.321 166.883, 51.836 169.783 L 74.935 173.048 86.969 167.015 L 99.004 160.983 113.252 165.399 C 121.088 167.828, 130.200 170.307, 133.500 170.908 C 140.517 172.186, 177.103 176.269, 177.440 175.812 C 177.986 175.072, 184.295 95.961, 183.844 95.510 C 183.569 95.235, 172.129 95.904, 158.422 96.995 C 123.231 99.797, 125.588 99.729, 125.239 97.962 C 125.012 96.812, 128.116 95.324, 137.536 92.067 C 144.467 89.670, 150.965 86.987, 151.977 86.105 C 155.162 83.326, 179.188 53.855, 178.682 53.349 C 178.416 53.083, 168.142 51.706, 155.849 50.290 C 143.557 48.873, 133.341 47.582, 133.147 47.420 C 132.953 47.259, 134.451 45.146, 136.475 42.723 L 140.156 38.320 166.828 36.623 C 200.541 34.478, 200 34.563, 200 31.455 C 200 30.105, 199.837 29, 199.638 29 C 198.138 29, 174.628 23.888, 173.814 23.385 C 173.244 23.033, 171.128 22.621, 169.113 22.471 C 167.097 22.321, 163.504 21.674, 161.128 21.034 C 156.918 19.901, 156.853 19.820, 158.580 17.912 C 159.794 16.571, 160.029 15.629, 159.325 14.925 C 158.621 14.221, 157.770 14.702, 156.626 16.449 C 155.706 17.852, 154.206 19, 153.292 19 C 152.377 19, 131.689 14.725, 107.318 9.500 C 82.229 4.121, 60.657 0, 57.589 0 L 52.171 0 41.234 21.250 M 43.663 22.658 L 32.885 44.243 27.537 74.343 L 22.190 104.443 26.180 133.972 C 28.374 150.212, 30.246 163.577, 30.339 163.670 C 30.432 163.764, 40.446 165.266, 52.593 167.009 L 74.678 170.177 86.837 164.082 L 98.996 157.987 109.748 161.421 C 129.273 167.658, 131.328 168.094, 152.905 170.569 C 164.677 171.919, 174.469 172.864, 174.665 172.668 C 175.272 172.061, 181.361 99.028, 180.848 98.514 C 180.323 97.990, 129.754 101.958, 129.110 102.574 C 128.814 102.857, 133.522 109.667, 137.605 114.861 C 137.760 115.059, 140.691 114.275, 144.118 113.118 C 147.544 111.961, 150.445 111.123, 150.563 111.257 C 151.639 112.466, 168.672 155.995, 168.239 156.428 C 167.924 156.743, 167.351 157, 166.966 157 C 166.581 157, 160.060 148.788, 152.476 138.750 C 144.892 128.713, 138.312 120.077, 137.853 119.559 C 137.342 118.984, 133.521 119.736, 128.018 121.494 L 119.019 124.370 109.259 122.546 C 94.770 119.837, 95.350 120.646, 101.702 112 C 106.699 105.197, 107.015 104.470, 105.105 104.180 C 101.657 103.657, 102.709 101.416, 107.081 99.973 C 109.412 99.204, 112.383 97.146, 114.008 95.174 L 116.854 91.721 112.807 86.361 C 110.581 83.412, 108.194 81, 107.502 81 C 106.810 81, 104.671 81.657, 102.749 82.460 C 97.205 84.777, 96.453 82.832, 100.923 77.741 L 103.845 74.412 92.673 59.596 C 86.528 51.447, 81.393 45.392, 81.262 46.140 C 81.131 46.888, 78.990 61.225, 76.504 78 L 71.983 108.500 62.909 135.750 C 56.723 154.324, 53.382 163, 52.417 163 C 51.215 163, 50.998 156.048, 50.985 117.250 L 50.970 71.500 56.692 43.750 C 59.839 28.487, 62.658 16.017, 62.957 16.037 C 63.256 16.057, 67.775 21.890, 73 29 C 78.225 36.110, 83.068 41.943, 83.763 41.963 C 84.458 41.983, 94.785 43.141, 106.712 44.536 L 128.398 47.072 132.449 42.925 L 136.500 38.777 126.136 39.442 C 112.437 40.321, 92 39.149, 92 37.483 C 92 36.024, 91.808 36.065, 122.500 30.929 C 143.589 27.400, 146.796 26.620, 148.937 24.497 C 150.830 22.620, 151.053 21.969, 149.937 21.580 C 149.147 21.304, 128.250 16.791, 103.500 11.550 C 78.750 6.309, 57.587 1.808, 56.471 1.547 C 54.704 1.134, 53.051 3.858, 43.663 22.658 M 63.656 24.236 C 63.340 25.495, 61.038 36.350, 58.541 48.360 L 54 70.194 54.078 111.347 L 54.155 152.500 61.623 130.500 L 69.090 108.500 74.113 75.195 L 79.135 41.890 71.682 31.919 C 65.172 23.208, 64.157 22.237, 63.656 24.236 M 152.872 24.673 C 151.640 26.176, 151.755 26.279, 154 25.687 C 155.375 25.324, 157.287 25.021, 158.250 25.014 C 159.213 25.006, 160 24.550, 160 24 C 160 22.342, 154.346 22.877, 152.872 24.673 M 157 27.808 C 149.849 29.087, 148.131 29.779, 146.174 32.164 L 143.848 35 146.909 35 C 150.343 35, 192.662 32.092, 195 31.695 C 197.307 31.304, 171.886 25.980, 168.490 26.144 C 166.846 26.223, 161.675 26.972, 157 27.808 M 126.377 33.008 C 117.509 34.546, 109.409 36.059, 108.377 36.371 C 107.345 36.682, 113.700 36.716, 122.500 36.446 L 138.500 35.955 141.481 32.978 C 143.120 31.340, 144.020 30.048, 143.481 30.106 C 142.941 30.164, 135.245 31.470, 126.377 33.008 M 95.160 58.517 C 100.790 65.952, 105.704 71.914, 106.081 71.767 C 107.729 71.124, 125.780 50.439, 125.174 49.889 C 124.638 49.402, 88.754 44.947, 85.711 44.989 C 85.277 44.995, 89.529 51.083, 95.160 58.517 M 120 60.647 C 114.775 66.411, 109.869 72.019, 109.097 73.110 C 106.197 77.209, 109.629 76.818, 123.456 71.473 C 131.131 68.506, 137.570 66.236, 137.763 66.429 C 137.956 66.623, 134.056 72.342, 129.096 79.140 C 121.407 89.679, 120.283 91.705, 121.464 92.889 C 122.646 94.074, 124.834 93.581, 136.367 89.528 L 149.885 84.779 161.970 70.250 C 168.617 62.260, 173.929 55.596, 173.774 55.441 C 173.493 55.160, 130.614 49.926, 129.886 50.084 C 129.674 50.130, 125.225 54.884, 120 60.647 M 119.796 75.746 L 111.092 79.301 114.274 83.733 C 116.025 86.170, 117.727 88.331, 118.057 88.535 C 118.387 88.739, 121.423 85.102, 124.804 80.453 C 128.185 75.804, 130.399 72.043, 129.725 72.096 C 129.051 72.149, 124.583 73.791, 119.796 75.746 M 117.500 95 C 117.160 95.550, 117.359 96, 117.941 96 C 118.523 96, 119 95.550, 119 95 C 119 94.450, 118.802 94, 118.559 94 C 118.316 94, 117.840 94.450, 117.500 95 M 118 99 C 116.865 99.734, 117.305 99.973, 119.809 99.985 C 121.764 99.994, 122.865 99.591, 122.500 99 C 121.724 97.744, 119.944 97.744, 118 99 M 111.429 104.412 C 110.320 105.189, 107.501 108.550, 105.164 111.882 C 100.319 118.789, 99.509 117.790, 112.017 120.333 C 118.242 121.599, 118.890 121.539, 126.517 118.994 C 130.908 117.529, 134.439 115.994, 134.364 115.583 C 134.289 115.172, 132.298 112.172, 129.940 108.918 L 125.653 103 119.549 103 C 115.911 103, 112.631 103.570, 111.429 104.412 M 143.206 116.334 L 139.911 117.540 150.011 131.020 C 155.566 138.434, 160.558 144.950, 161.105 145.500 C 161.652 146.049, 159.246 139.527, 155.758 131.005 C 151.945 121.687, 148.836 115.435, 147.959 115.320 C 147.156 115.215, 145.018 115.671, 143.206 116.334" stroke="none" fill="black" fill-rule="evenodd"/>
</svg>