<svg xmlns="http://www.w3.org/2000/svg" width="200" height="200" viewBox="0 0 200 200" version="1.1">
	<path d="M 36.541 9.250 C 36.323 9.938, 35.607 15.900, 34.949 22.500 C 34.026 31.769, 31.623 42.666, 24.391 70.378 L 15.027 106.256 21.264 125.756 L 27.500 145.257 39.883 158.879 C 46.694 166.370, 52.656 172.650, 53.133 172.833 C 53.614 173.018, 53.986 154.765, 53.968 131.833 C 53.937 92.753, 54.083 89.315, 56.652 68.768 C 58.147 56.816, 59.464 47.141, 59.579 47.268 C 59.694 47.396, 60.310 58.975, 60.949 73 C 61.939 94.744, 61.852 103.982, 60.361 135.722 C 59.399 156.195, 58.909 173.242, 59.272 173.605 C 59.635 173.968, 66.585 172.596, 74.716 170.556 C 85.491 167.852, 95.128 166.271, 110.252 164.725 C 121.665 163.558, 130.665 162.277, 130.252 161.877 C 129.838 161.478, 120.275 156.319, 109 150.412 C 97.725 144.505, 88.286 139.494, 88.023 139.276 C 87.249 138.632, 95.424 132.149, 96.317 132.699 C 96.767 132.975, 97.379 132.368, 97.678 131.351 C 97.977 130.333, 100.975 127.097, 104.341 124.160 L 110.461 118.820 112.493 125.589 L 114.524 132.359 129.890 138.679 C 138.341 142.156, 145.350 145, 145.465 145 C 145.580 145, 146.235 139.037, 146.921 131.750 C 147.607 124.463, 148.431 117.600, 148.754 116.500 C 149.116 115.265, 151.154 121.572, 154.086 133 L 158.831 151.500 149.727 160.262 C 143.841 165.927, 140.967 169.367, 141.595 169.995 C 142.222 170.622, 149.268 168.402, 161.533 163.713 L 180.500 156.461 181.151 147.981 C 181.509 143.316, 181.846 124.708, 181.901 106.628 L 182 73.756 177.896 43.128 C 175.639 26.283, 173.657 12.356, 173.492 12.179 C 173.327 12.003, 168.199 12.854, 162.096 14.070 C 154.282 15.627, 151 16.696, 151 17.686 C 151 19.206, 152.963 19.021, 164.484 16.420 C 167.775 15.676, 170.741 15.390, 171.075 15.784 C 171.408 16.178, 173.356 29.550, 175.403 45.500 L 179.126 74.500 178.813 114.400 L 178.500 154.301 164.525 159.650 C 156.838 162.593, 150.240 165, 149.861 165 C 149.483 165, 151.988 162.297, 155.428 158.994 L 161.683 152.987 155.767 128.744 L 149.851 104.500 152.290 81.500 L 154.730 58.500 141.118 35.750 C 129.338 16.062, 125 10.183, 125 13.909 C 125 14.409, 129.961 34.996, 136.024 59.659 L 147.047 104.500 145.442 120.500 C 144.560 129.300, 143.536 137.465, 143.169 138.645 C 142.514 140.745, 142.231 140.683, 129.753 135.724 L 117.006 130.659 114.800 123.812 L 112.595 116.965 117.373 112.732 L 122.152 108.500 123.545 77 C 124.311 59.675, 124.952 41.635, 124.969 36.911 L 125 28.321 94.750 23.272 C 78.112 20.496, 64.388 18.323, 64.250 18.445 C 64.113 18.567, 70.750 43.087, 79 72.934 C 87.250 102.782, 94 127.795, 94 128.518 C 94 129.242, 91.465 132.058, 88.367 134.775 L 82.734 139.716 102.515 150.059 C 113.395 155.747, 121.892 160.508, 121.398 160.639 C 120.904 160.770, 113.300 161.607, 104.500 162.499 C 93.878 163.575, 84.011 165.297, 75.144 167.620 C 67.797 169.545, 61.693 170.981, 61.578 170.810 C 61.462 170.640, 62.162 154.975, 63.133 136 C 64.748 104.430, 64.775 98.655, 63.455 68 C 62.661 49.575, 62.009 33.038, 62.006 31.250 C 62.002 29.030, 61.524 28, 60.500 28 C 59.675 28, 58.998 28.337, 58.995 28.750 C 58.993 29.163, 57.195 43.225, 55 60 L 51.009 90.500 50.964 128.500 L 50.920 166.500 40.598 155.548 L 30.276 144.595 24.107 125.279 L 17.938 105.962 27.036 71.307 C 35.336 39.692, 38.949 21.241, 38.991 10.250 C 39.001 7.867, 37.211 7.136, 36.541 9.250 M 68.156 23.270 C 69.830 30.493, 91.555 107.834, 91.748 107.256 C 91.887 106.840, 91.180 100.525, 90.177 93.223 L 88.355 79.947 91.571 75.171 L 94.788 70.394 87.437 47.541 C 83.395 34.971, 79.730 24.353, 79.294 23.945 C 78.857 23.537, 76.095 22.885, 73.156 22.495 C 68.708 21.905, 67.870 22.035, 68.156 23.270 M 130.050 23.500 C 130.118 24.908, 147.796 95.610, 147.928 95 C 147.987 94.725, 148.901 86.500, 149.958 76.723 L 151.880 58.946 140.941 40.723 C 134.924 30.700, 130.024 22.950, 130.050 23.500 M 83.301 25.254 C 98.596 62.505, 100.056 66.555, 99.014 68.855 C 98.131 70.804, 99.103 74.812, 104.652 92.105 C 108.339 103.597, 111.867 113, 112.491 113 C 113.115 113, 114.948 111.621, 116.563 109.936 L 119.500 106.872 121.067 69.186 C 121.930 48.459, 122.498 31.318, 122.330 31.096 C 122.162 30.873, 114.482 29.434, 105.262 27.896 C 96.043 26.359, 87.215 24.855, 85.645 24.555 C 83.604 24.164, 82.935 24.364, 83.301 25.254 M 93.169 77.250 L 91.174 80.500 94.213 103 C 95.884 115.375, 97.398 125.666, 97.578 125.868 C 98.125 126.487, 109 116.829, 109 115.725 C 109 114.278, 96.011 74, 95.544 74 C 95.335 74, 94.266 75.463, 93.169 77.250" stroke="none" fill="black" fill-rule="evenodd"/>
</svg>