<svg xmlns="http://www.w3.org/2000/svg" width="200" height="200" viewBox="0 0 200 200" version="1.1">
	<path d="M 101.258 15.086 C 100.655 18.983, 99.925 22.408, 99.637 22.697 C 99.348 22.985, 80.524 21.365, 57.806 19.095 C 35.088 16.825, 15.727 14.975, 14.781 14.984 C 13.588 14.995, 13.259 15.511, 13.705 16.674 C 14.192 17.942, 13.942 18.192, 12.674 17.705 C 11.605 17.295, 11 17.564, 11 18.448 C 11 19.210, 12.213 20.238, 13.696 20.732 C 15.836 21.445, 18.065 24.706, 24.519 36.565 C 28.989 44.779, 32.972 51.406, 33.368 51.291 C 35.020 50.813, 51.938 31.544, 51.250 30.925 C 50.838 30.553, 43.417 27.908, 34.760 25.045 C 26.103 22.183, 18.764 19.426, 18.451 18.920 C 18.138 18.414, 18.246 18.002, 18.691 18.005 C 21.932 18.027, 98.388 26.055, 98.745 26.411 C 98.994 26.661, 98.897 28.652, 98.528 30.836 C 98.029 33.785, 93.742 40.558, 81.866 57.154 C 73.071 69.444, 65.174 80.175, 64.317 81 C 62.916 82.348, 62.816 82.197, 63.324 79.500 C 65.613 67.348, 67.262 54.929, 66.666 54.333 C 65.457 53.124, 63.787 55.593, 45.930 85 L 28.623 113.500 26.378 135.483 C 25.143 147.574, 24.330 157.663, 24.570 157.904 C 25.014 158.347, 49.912 153.421, 50.575 152.759 C 50.772 152.561, 52.320 138.247, 54.013 120.949 C 55.707 103.652, 57.305 88.487, 57.565 87.250 C 58.216 84.152, 59.839 84.393, 59.245 87.500 C 58.620 90.768, 60.759 90.798, 63.462 87.559 C 65.492 85.127, 65.584 85.117, 87.253 84.809 L 109.006 84.500 108.361 94 C 108.006 99.225, 107.442 105.352, 107.108 107.616 L 106.500 111.732 95 106.410 C 88.675 103.484, 83.248 101.069, 82.939 101.045 C 82.372 101, 92.742 171.075, 93.399 171.733 C 93.595 171.928, 99.283 170.830, 106.040 169.294 L 118.325 166.500 124.485 143.500 C 130.999 119.179, 132.197 115.342, 131.509 121 C 131.275 122.925, 130.816 129.450, 130.488 135.500 L 129.893 146.500 144.247 160.134 L 158.601 173.768 168.891 142.845 C 177.766 116.173, 178.997 111.687, 177.845 110.211 C 177.111 109.270, 172.074 103.184, 166.651 96.688 C 161.228 90.191, 156.964 84.703, 157.174 84.493 C 157.385 84.282, 163.956 83.793, 171.778 83.406 C 179.600 83.019, 186 82.520, 186 82.297 C 186 82.074, 178.324 73.478, 168.941 63.196 C 148.105 40.359, 114.680 10.452, 114.237 14.247 C 114.092 15.486, 113.744 18.300, 113.464 20.500 L 112.954 24.500 107.855 24.145 L 102.757 23.791 103.363 19.645 C 103.696 17.365, 104.260 13.813, 104.615 11.750 C 105.117 8.840, 104.936 8, 103.808 8 C 102.777 8, 102.037 10.058, 101.258 15.086 M 116 21.500 C 116 24.256, 116.399 25, 117.875 25 C 118.906 25, 121.269 25.273, 123.125 25.607 L 126.500 26.214 122 22.149 C 119.525 19.914, 117.162 18.066, 116.750 18.043 C 116.338 18.019, 116 19.575, 116 21.500 M 26.594 34.750 C 29.731 40.663, 32.645 45.892, 33.069 46.371 C 33.731 47.116, 45.946 35.203, 46.800 32.980 C 47.061 32.302, 23.851 24, 21.694 24 C 21.252 24, 23.457 28.837, 26.594 34.750 M 101.436 30.671 C 100.826 34.823, 98.433 38.689, 84.363 58.250 C 75.363 70.763, 68 81.225, 68 81.500 C 68 81.775, 77.338 81.993, 88.750 81.985 C 100.162 81.976, 108.961 81.627, 108.302 81.208 C 107.486 80.689, 106.875 74.551, 106.391 62.002 L 105.678 43.559 108.426 45.360 C 109.937 46.350, 111.300 47.011, 111.455 46.830 C 111.611 46.648, 112.049 42.112, 112.429 36.750 L 113.121 27 109.142 27 C 106.954 27, 104.485 26.739, 103.655 26.421 C 102.489 25.974, 101.985 26.938, 101.436 30.671 M 115.645 31.633 C 115.332 33.760, 114.946 38.629, 114.787 42.454 L 114.500 49.408 128.500 59.274 C 143.104 69.566, 146.548 71.773, 145.786 70.350 C 145.536 69.882, 141.115 60.500, 135.961 49.500 C 130.808 38.500, 126.468 29.322, 126.317 29.105 C 126.167 28.888, 123.833 28.498, 121.130 28.238 L 116.215 27.766 115.645 31.633 M 130 29.765 C 130 30.219, 134.563 40.225, 140.140 51.999 C 146.167 64.723, 149.825 73.558, 149.159 73.780 C 148.496 74.001, 149.154 75.553, 150.769 77.577 L 153.500 81 166.833 81 C 175.023 81, 180.038 80.625, 179.833 80.029 C 179.650 79.494, 172.975 71.814, 165 62.961 C 151.969 48.495, 130 27.659, 130 29.765 M 109.147 61.191 C 109.273 71.721, 109.402 72.633, 110.038 67.500 C 111.149 58.554, 111.131 50.199, 110 49.500 C 109.351 49.099, 109.052 53.204, 109.147 61.191 M 113.570 60.697 C 113.234 64.989, 112.752 70.412, 112.499 72.750 C 112.203 75.480, 112.436 77, 113.151 77 C 115.763 77, 139.570 72.610, 140.289 71.996 C 140.905 71.469, 117.996 54.509, 114.897 53.197 C 114.503 53.030, 113.906 56.405, 113.570 60.697 M 46.812 88.958 L 31.163 114.789 29.138 134.618 C 28.024 145.523, 27.248 154.581, 27.412 154.746 C 27.577 154.910, 32.284 154.072, 37.872 152.882 C 46.501 151.044, 48.099 150.400, 48.471 148.609 C 48.873 146.675, 55.056 84.466, 55.017 82.750 C 55.008 82.338, 56.095 82, 57.433 82 C 58.895 82, 60.062 81.302, 60.358 80.250 C 61.265 77.034, 63.208 63.874, 62.832 63.498 C 62.628 63.294, 55.419 74.751, 46.812 88.958 M 128.560 77.221 C 119.793 78.775, 112.405 80.262, 112.143 80.524 C 110.876 81.790, 114.003 81.906, 131.208 81.230 L 149.789 80.500 147.144 77.447 L 144.500 74.395 128.560 77.221 M 111.664 87.250 C 111.357 89.037, 110.799 96.022, 110.423 102.771 C 110.048 109.520, 109.461 115.205, 109.120 115.404 C 108.779 115.602, 103.632 113.523, 97.682 110.784 C 91.732 108.044, 86.674 105.993, 86.442 106.225 C 86.092 106.574, 94.962 168.012, 95.466 168.731 C 95.832 169.253, 115.221 164.170, 115.917 163.369 C 116.333 162.891, 120.165 149.225, 124.433 133 C 128.701 116.775, 132.592 103.080, 133.080 102.567 C 135.116 100.424, 135.281 104.068, 134.063 124.256 L 132.782 145.500 144.599 156.750 C 151.099 162.938, 156.666 168, 156.972 168 C 157.278 168, 161.524 155.963, 166.408 141.250 C 171.292 126.537, 175.474 113.994, 175.702 113.376 C 175.931 112.757, 170.857 105.895, 164.428 98.126 L 152.739 84 132.481 84 L 112.223 84 111.664 87.250" stroke="none" fill="black" fill-rule="evenodd"/>
</svg>