<svg xmlns="http://www.w3.org/2000/svg" width="200" height="200" viewBox="0 0 200 200" version="1.1">
	<path d="M 91.097 13.750 C 90.558 15.813, 89.136 21.775, 87.937 27 C 86.738 32.225, 85.515 36.909, 85.221 37.409 C 84.927 37.908, 83.175 35.321, 81.329 31.659 C 79.483 27.996, 77.529 25, 76.986 25 C 75.321 25, 75.846 26.739, 80.011 35.022 L 84.022 43 82.373 49.750 C 81.467 53.463, 80.377 56.887, 79.951 57.361 C 79.520 57.841, 71.311 57.666, 61.401 56.965 L 43.625 55.708 33.327 61.104 L 23.029 66.500 22.936 97.500 C 22.885 114.550, 22.509 135.700, 22.101 144.500 L 21.358 160.500 33.405 173.250 C 40.030 180.262, 45.698 186, 46.001 186 C 46.303 186, 47.576 176.662, 48.830 165.250 C 50.085 153.838, 51.340 143.148, 51.621 141.495 C 52.431 136.719, 82.537 109.013, 93.680 102.788 C 98.377 100.164, 102.555 98.225, 102.965 98.478 C 103.375 98.731, 109.063 106.652, 115.605 116.079 L 127.500 133.219 135.250 137.121 C 139.512 139.267, 143 141.193, 143 141.402 C 143 141.611, 135.328 145.066, 125.951 149.079 L 108.901 156.377 123.688 171.188 C 131.821 179.335, 138.718 186, 139.014 186 C 139.311 186, 146.517 180.845, 155.027 174.544 L 170.500 163.087 170.527 124.294 C 170.542 102.957, 170.892 81.675, 171.306 77 L 172.058 68.500 161.582 60.266 L 151.106 52.031 132.937 55.567 C 122.944 57.511, 114.068 58.966, 113.213 58.801 C 112.125 58.590, 109.937 52.701, 105.926 39.180 C 102.774 28.555, 99.918 19.585, 99.580 19.247 C 97.608 17.274, 97.487 22.719, 99.097 41 C 100.090 52.275, 100.925 62.085, 100.951 62.800 C 100.986 63.717, 102.355 64.012, 105.592 63.800 L 110.184 63.500 112.049 69.460 C 113.074 72.738, 113.759 75.574, 113.571 75.763 C 113.382 75.951, 112.278 74.897, 111.117 73.421 C 109.079 70.831, 108.680 70.742, 99.753 70.886 C 94.664 70.968, 87.958 71.305, 84.851 71.635 L 79.202 72.235 80.741 66.705 L 82.280 61.175 89.725 61.738 L 97.170 62.301 92.074 52.147 L 86.978 41.993 90.865 26.539 C 93.003 18.039, 94.508 10.841, 94.209 10.543 C 92.942 9.276, 92.017 10.229, 91.097 13.750 M 101.286 36 C 101.599 37.375, 102.170 43.563, 102.556 49.750 C 103.144 59.179, 103.520 60.998, 104.879 60.985 C 109.070 60.945, 109.113 59.744, 105.382 46.939 C 102.102 35.685, 99.847 29.661, 101.286 36 M 85.047 51 C 84.406 53.475, 83.652 56.288, 83.373 57.250 C 82.942 58.735, 83.556 59, 87.433 59 C 89.945 59, 91.979 58.663, 91.953 58.250 C 91.927 57.837, 90.625 55.025, 89.059 52 L 86.212 46.500 85.047 51 M 131.017 58.658 C 121.401 60.569, 113.387 62.280, 113.206 62.461 C 113.026 62.641, 113.848 65.980, 115.033 69.881 C 116.878 75.957, 118.894 79.187, 129.093 92.416 C 140.341 107.004, 142.218 110, 140.106 110 C 139.614 110, 132.098 101.716, 123.404 91.592 L 107.596 73.184 96.048 73.642 C 76.853 74.403, 78.865 73.145, 75.062 86.763 C 71.140 100.809, 71.678 99.723, 61.697 113.715 C 54.495 123.812, 51.912 126.213, 52.045 122.691 C 52.070 122.036, 56.730 110.475, 62.401 97 C 70.502 77.749, 73.133 72.437, 74.679 72.204 C 76.117 71.987, 76.991 70.560, 77.930 66.895 C 78.637 64.138, 79.002 61.669, 78.742 61.409 C 78.482 61.149, 70.541 60.414, 61.094 59.776 L 43.919 58.615 34.536 63.557 L 25.154 68.500 25.693 92 C 25.989 104.925, 25.737 125.335, 25.132 137.357 L 24.031 159.213 33.692 169.631 C 39.005 175.360, 43.656 179.700, 44.027 179.274 C 44.399 178.848, 45.715 169.367, 46.953 158.204 L 49.203 137.908 58.851 128.673 C 79.946 108.481, 83.726 105.192, 89.500 101.998 C 92.800 100.172, 97.321 97.636, 99.548 96.363 L 103.595 94.047 116.548 112.636 L 129.500 131.225 139.291 136.142 C 144.676 138.846, 148.856 141.424, 148.580 141.871 C 148.304 142.317, 140.748 145.749, 131.789 149.496 C 122.830 153.244, 115.171 156.592, 114.768 156.937 C 114.365 157.282, 119.765 163.254, 126.768 170.208 L 139.500 182.851 153.945 172.054 L 168.390 161.257 167.945 146.378 C 167.287 124.367, 167.402 102.466, 168.269 85 L 169.039 69.500 159.630 62.250 C 154.456 58.263, 149.834 55.041, 149.361 55.091 C 148.887 55.142, 140.633 56.746, 131.017 58.658 M 71.343 82.836 C 69.607 87.051, 66.102 95.444, 63.555 101.488 C 58.592 113.264, 58.633 113.391, 64.668 105 C 67.647 100.858, 69.447 96.594, 71.959 87.730 C 73.793 81.257, 75.115 75.783, 74.897 75.566 C 74.679 75.349, 73.079 78.620, 71.343 82.836" stroke="none" fill="black" fill-rule="evenodd"/>
</svg>