<svg xmlns="http://www.w3.org/2000/svg" width="200" height="200" viewBox="0 0 200 200" version="1.1">
	<path d="M 153 12.171 C 153 12.815, 153.747 14.168, 154.661 15.177 C 155.574 16.187, 156.136 17.158, 155.911 17.337 C 155.685 17.516, 141.550 20.504, 124.500 23.977 L 93.500 30.291 53.750 29.644 C 20.396 29.101, 14 29.218, 14 30.371 C 14 31.992, 13.359 31.885, 48.750 36.138 C 63.737 37.939, 75.991 39.657, 75.980 39.956 C 75.970 40.255, 68.237 44.118, 58.796 48.541 L 41.632 56.582 31.177 77.541 L 20.722 98.500 22.475 137.500 C 23.440 158.950, 24.516 178.969, 24.867 181.986 L 25.505 187.472 40.002 167.785 L 54.500 148.098 67 143.902 C 73.875 141.594, 80.032 139.511, 80.682 139.272 C 81.450 138.990, 84.573 147.253, 89.619 162.919 C 93.884 176.164, 97.631 187, 97.944 187 C 98.258 187, 105.623 172.774, 114.312 155.387 C 123 138.001, 130.262 123.938, 130.450 124.137 C 130.637 124.337, 132.848 132.417, 135.363 142.093 C 139.639 158.542, 149.342 188.502, 150.978 190.304 C 151.380 190.746, 156.915 175.671, 163.278 156.804 L 174.848 122.500 174.105 88.264 C 173.696 69.434, 173.096 53.762, 172.771 53.438 C 172.447 53.113, 163.765 53.220, 153.478 53.674 L 134.775 54.500 149.638 40.326 C 159.463 30.956, 164.161 25.820, 163.500 25.170 C 162.147 23.841, 103.951 55.707, 104.607 57.418 C 104.953 58.320, 108.059 58.547, 116.289 58.271 C 126.554 57.927, 127.336 58.027, 125.559 59.448 C 123.998 60.696, 120.666 61, 108.559 61.002 C 100.276 61.004, 83.037 61.300, 70.250 61.662 C 51.808 62.183, 47 62.597, 47 63.660 C 47 64.482, 45.841 65, 44 65 C 40.564 65, 40.504 64.857, 42.402 61.200 C 43.511 59.063, 48.211 56.438, 64.933 48.615 C 76.555 43.178, 85.889 38.555, 85.675 38.342 C 85.462 38.129, 76.335 36.833, 65.394 35.463 C 54.452 34.092, 44.825 32.828, 44 32.653 C 43.175 32.478, 53.750 32.540, 67.500 32.792 L 92.500 33.249 126 26.539 C 144.425 22.848, 159.832 19.512, 160.237 19.127 C 160.643 18.741, 159.598 16.755, 157.915 14.713 C 154.825 10.964, 153 10.021, 153 12.171 M 133.305 43.321 C 114.646 53.650, 108.687 57.331, 113.332 55.659 C 114.339 55.297, 118.614 54.979, 122.832 54.954 L 130.500 54.909 142.500 43.479 C 149.100 37.192, 154.275 32.070, 154 32.096 C 153.725 32.122, 144.412 37.173, 133.305 43.321 M 142.876 56.745 C 134.148 57.008, 131.958 57.389, 130.608 58.880 C 129.037 60.616, 129.237 60.691, 135.178 60.598 L 141.390 60.500 144.655 85.500 C 148.332 113.669, 148.580 117.359, 146.750 116.753 C 146.063 116.525, 141.467 107.469, 136.537 96.628 C 130.423 83.181, 127.380 77.486, 126.961 78.708 C 126.624 79.694, 123.919 93.662, 120.950 109.750 C 115.424 139.697, 113.737 144.533, 112.581 133.750 C 112.271 130.863, 111.297 116.629, 110.416 102.121 L 108.814 75.742 114.883 69.621 L 120.952 63.500 89.559 64 C 72.293 64.275, 57.895 64.771, 57.564 65.102 C 57.233 65.433, 62.405 65.955, 69.057 66.261 C 75.709 66.568, 81.377 67.043, 81.652 67.318 C 82.148 67.814, 80.479 98.677, 79.412 108.750 C 79.060 112.074, 78.384 114, 77.570 114 C 76.840 114, 74.092 108.262, 71.223 100.750 C 68.441 93.463, 65.924 88.175, 65.631 89 C 65.339 89.825, 62.351 99.950, 58.993 111.500 C 50.841 139.535, 51.024 139, 49.580 139 C 48.595 139, 48.184 131.228, 47.724 103.900 C 47.400 84.596, 46.935 68.601, 46.691 68.358 C 46.447 68.114, 44.730 67.673, 42.874 67.378 L 39.500 66.841 31.432 83.170 L 23.365 99.500 25.132 135 C 26.104 154.525, 27.034 172.640, 27.199 175.255 L 27.500 180.011 40.500 162.755 L 53.500 145.500 67 140.819 C 74.425 138.245, 81.257 136.107, 82.182 136.069 C 83.508 136.015, 85.404 140.782, 91.137 158.584 L 98.410 181.168 114.850 148.334 L 131.289 115.500 137.020 137.500 C 142.272 157.659, 149.356 180.408, 150.958 182.257 C 151.319 182.674, 156.203 169.399, 161.811 152.757 L 172.007 122.500 171.343 89.250 L 170.678 56 162.089 56.212 C 157.365 56.329, 148.719 56.569, 142.876 56.745 M 118.600 69.900 L 111.753 76.799 113.016 99.150 C 113.711 111.442, 114.571 122.061, 114.927 122.746 C 115.283 123.431, 117.771 111.956, 120.457 97.246 C 123.142 82.536, 125.615 69.942, 125.954 69.260 C 126.292 68.578, 130.332 76.349, 134.932 86.529 C 139.532 96.708, 143.495 104.839, 143.738 104.595 C 144.124 104.209, 141.028 77.152, 139.408 66.750 L 138.824 63 132.135 63 L 125.446 63 118.600 69.900 M 50.114 84.695 C 50.177 93.938, 50.514 107.335, 50.864 114.466 L 51.500 127.432 58.405 103.753 C 62.203 90.730, 65.610 80.259, 65.976 80.485 C 66.343 80.712, 68.845 86.747, 71.538 93.898 C 74.231 101.049, 76.515 106.809, 76.613 106.700 C 77.328 105.902, 78.978 70.593, 78.328 70 C 77.873 69.584, 71.313 68.940, 63.750 68.567 L 50 67.890 50.114 84.695" stroke="none" fill="black" fill-rule="evenodd"/>
</svg>