<svg xmlns="http://www.w3.org/2000/svg" width="200" height="200" viewBox="0 0 200 200" version="1.1">
	<path d="M 109.063 10.116 C 107.924 11.977, 96.757 30.450, 84.246 51.167 C 71.736 71.884, 61.415 88.534, 61.311 88.167 C 61.206 87.800, 60.636 78.950, 60.043 68.500 L 58.965 49.500 52.639 39.052 C 46.867 29.519, 44 26.140, 44 28.870 C 44 29.440, 46.767 34.488, 50.149 40.086 L 56.299 50.266 57.498 71.883 C 58.158 83.772, 58.541 93.688, 58.349 93.917 C 58.156 94.147, 52.487 92.085, 45.750 89.337 L 33.500 84.339 33.500 76.419 C 33.500 72.064, 33.847 60.963, 34.271 51.750 C 34.914 37.794, 34.812 35, 33.661 35 C 32.575 35, 32.139 38.260, 31.622 50.250 C 31.260 58.638, 30.691 70.029, 30.358 75.564 L 29.752 85.628 43.204 91.249 C 51.098 94.547, 61.789 98.071, 69.078 99.776 L 81.500 102.683 82.124 117.091 C 82.468 125.016, 82.805 136.677, 82.874 143.004 L 83 154.508 67.250 157.758 C 58.587 159.546, 51.170 161.007, 50.767 161.004 C 50.364 161.002, 50.322 149.847, 50.672 136.215 L 51.309 111.429 38.405 109.692 C 31.307 108.736, 25.209 107.965, 24.854 107.977 C 24.499 107.990, 23.933 114.638, 23.598 122.750 C 23.262 130.863, 22.737 142.905, 22.431 149.511 L 21.874 161.523 29.902 172.186 L 37.930 182.849 56.458 175.424 L 74.986 168 99.205 168 L 123.424 168 140.299 177.612 C 149.581 182.899, 157.524 186.837, 157.950 186.362 C 158.377 185.888, 161.974 177.457, 165.943 167.626 L 173.161 149.752 171.510 129.126 C 170.602 117.782, 169.542 106.716, 169.155 104.536 L 168.451 100.572 155.885 112.279 L 143.319 123.987 140.062 142.744 C 138.271 153.060, 136.583 162.483, 136.311 163.685 C 135.864 165.659, 134.510 164.847, 122.271 155.266 L 108.727 144.664 109.375 130.082 C 109.731 122.062, 110.298 110.969, 110.635 105.432 L 111.249 95.364 125.874 98.177 C 133.918 99.724, 140.771 100.992, 141.102 100.995 C 141.433 100.998, 146.922 95.443, 153.299 88.650 L 164.895 76.301 162.352 51.900 C 160.954 38.480, 159.647 27.332, 159.449 27.127 C 159.250 26.922, 153.669 31.833, 147.046 38.039 C 138.889 45.684, 134.733 50.320, 134.164 52.412 C 133.702 54.110, 131.347 62.813, 128.931 71.750 C 126.515 80.688, 124.254 88, 123.906 88 C 123.557 88, 120.039 80.320, 116.088 70.934 L 108.904 53.867 111.059 31.341 C 113.364 7.251, 113.024 3.642, 109.063 10.116 M 85.242 54.738 C 72.005 76.607, 61.348 94.675, 61.560 94.890 C 61.772 95.104, 67.020 96.469, 73.223 97.923 L 84.500 100.567 85.288 128.412 C 85.722 143.726, 85.937 156.396, 85.767 156.566 C 85.274 157.059, 51.054 164, 49.117 164 C 47.484 164, 47.396 162.319, 47.812 139.051 L 48.258 114.103 45.879 113.574 C 40.910 112.469, 27.667 110.999, 27.169 111.497 C 26.883 111.783, 26.240 123.040, 25.740 136.512 L 24.831 161.006 31.666 170.002 C 35.425 174.950, 38.991 178.999, 39.591 178.999 C 40.192 179, 47.783 176.075, 56.462 172.500 L 72.241 166 98.871 166 L 125.500 166 140.471 174.500 C 148.704 179.175, 155.745 183, 156.118 183 C 156.490 183, 159.817 175.462, 163.513 166.250 L 170.231 149.500 168.528 128 C 167.591 116.175, 166.750 106.424, 166.659 106.330 C 166.568 106.237, 161.857 110.512, 156.191 115.830 L 145.887 125.500 141.968 147.392 C 139.813 159.433, 137.838 169.496, 137.579 169.754 C 137.089 170.245, 107.496 147.611, 106.481 145.970 C 105.739 144.768, 108.034 93.728, 108.871 92.814 C 109.217 92.437, 112.421 92.741, 115.990 93.491 C 119.560 94.240, 122.602 94.732, 122.749 94.584 C 122.897 94.437, 119.200 85.289, 114.535 74.257 L 106.052 54.197 107.962 34.868 C 109.012 24.236, 109.745 15.412, 109.590 15.257 C 109.436 15.102, 98.479 32.869, 85.242 54.738 M 147.328 41.750 L 137.155 51.500 131.442 72.815 C 128.209 84.879, 126.114 94.474, 126.615 94.924 C 127.368 95.600, 137.864 98, 140.065 98 C 140.467 98, 145.561 92.891, 151.385 86.646 L 161.975 75.292 159.737 53.646 L 157.500 32 147.328 41.750" stroke="none" fill="black" fill-rule="evenodd"/>
</svg>