<svg xmlns="http://www.w3.org/2000/svg" width="200" height="200" viewBox="0 0 200 200" version="1.1">
	<path d="M 109.500 17.750 C 110.588 25.540, 115.986 61.616, 116.457 64.250 L 116.950 67 100.896 67 L 84.841 67 85.365 64.250 C 88.437 48.108, 89.569 19.896, 87.034 22.629 C 86.590 23.108, 83.291 32.725, 79.704 44 L 73.182 64.500 56.841 64.558 C 36.612 64.630, 28.605 65.806, 29.658 68.551 C 30.118 69.751, 33.723 70, 50.607 70 C 61.823 70, 71 70.362, 71 70.805 C 71 71.248, 69.937 74.736, 68.637 78.555 C 66.938 83.550, 65.836 85.422, 64.713 85.224 C 63.854 85.072, 62.917 85.747, 62.630 86.724 C 62.343 87.701, 60.248 95.475, 57.975 104 C 53.923 119.197, 53.645 119.823, 43.816 136 C 38.302 145.075, 29.563 158.173, 24.395 165.106 C 15.288 177.325, 13.550 180.498, 16.333 179.823 C 17.066 179.645, 25.504 175.070, 35.083 169.656 L 52.500 159.812 64.744 145.656 C 76.301 132.294, 100.697 100.309, 99.878 99.591 C 99.670 99.409, 92.330 97.942, 83.567 96.331 C 74.804 94.720, 67.499 92.974, 67.333 92.451 C 67.168 91.928, 67.436 90.862, 67.929 90.082 C 68.696 88.868, 71.769 88.836, 89.163 89.861 C 116.600 91.476, 121.926 93.336, 121.986 101.320 C 121.994 102.322, 126.501 109.583, 132.003 117.456 C 137.505 125.329, 142.626 133.285, 143.383 135.136 C 144.140 136.986, 147.141 146.281, 150.050 155.792 C 155.259 172.819, 155.380 173.077, 157.920 172.598 C 159.339 172.330, 166.028 171.568, 172.785 170.904 C 183.889 169.813, 187.221 168.888, 185.663 167.330 C 185.178 166.845, 168.084 168.345, 160.417 169.545 L 157.334 170.028 151.559 151.264 L 145.785 132.500 135.838 118.242 C 126.386 104.694, 123.051 98.616, 124.354 97.313 C 126.001 95.665, 141.290 103.744, 155.304 113.667 C 163.662 119.585, 170.810 124.876, 171.189 125.424 C 171.568 125.973, 174.469 132.851, 177.636 140.711 C 181.225 149.618, 183.925 155, 184.804 155 C 186.455 155, 186.765 155.978, 179.225 137.379 L 173.500 123.258 157.500 111.905 C 145.864 103.648, 139.053 99.564, 132.530 96.933 L 123.560 93.314 121.859 81.911 C 120.923 75.640, 120.304 70.363, 120.483 70.184 C 121.181 69.485, 132.631 69.156, 158.854 69.080 L 186.207 69 182.934 65.250 C 181.133 63.188, 175.950 57.515, 171.416 52.644 L 163.172 43.788 152.836 51.050 C 147.151 55.045, 139.771 60.231, 136.435 62.575 L 130.371 66.836 123.576 55.905 C 116.306 44.209, 116.120 43.653, 113.502 25.750 C 112.243 17.149, 111.407 14, 110.380 14 C 109.332 14, 109.109 14.949, 109.500 17.750 M 81.092 48.803 C 78.701 56.336, 76.516 63.321, 76.237 64.323 C 75.806 65.869, 76.244 66.098, 79.114 65.823 L 82.500 65.500 84.211 50.544 C 85.152 42.319, 85.813 35.480, 85.680 35.347 C 85.547 35.214, 83.482 41.269, 81.092 48.803 M 148.705 57.186 C 141.667 62.167, 136.042 66.301, 136.205 66.371 C 136.367 66.442, 146.297 66.363, 158.271 66.195 L 180.042 65.889 171.771 56.959 C 167.222 52.048, 163.050 48.052, 162.500 48.079 C 161.950 48.106, 155.742 52.204, 148.705 57.186 M 118.554 59 C 118.911 62.575, 119.550 65.870, 119.974 66.323 C 120.398 66.775, 122.145 67, 123.855 66.823 L 126.965 66.500 122.435 59.500 L 117.905 52.500 118.554 59 M 71.808 77.981 L 69.179 86 72.340 86.047 C 85.487 86.244, 112.999 88.962, 116.250 90.385 L 120 92.027 119.925 89.263 C 119.884 87.744, 119.318 82.900, 118.667 78.500 L 117.484 70.500 95.961 70.231 L 74.437 69.962 71.808 77.981 M 59.883 107.797 C 56.759 119.719, 56.107 121.110, 45.442 138.574 C 39.298 148.633, 31.261 160.720, 27.582 165.432 C 23.902 170.144, 21.096 174, 21.346 174 C 21.596 174, 28.314 170.287, 36.276 165.750 C 50.664 157.550, 50.818 157.424, 61.747 144.956 C 71.929 133.339, 93.458 105.575, 94.608 102.578 C 94.945 101.701, 93.861 101.067, 91.305 100.644 C 89.212 100.298, 82.022 98.956, 75.327 97.663 L 63.154 95.312 59.883 107.797" stroke="none" fill="black" fill-rule="evenodd"/>
</svg>