<svg xmlns="http://www.w3.org/2000/svg" width="200" height="200" viewBox="0 0 200 200" version="1.1">
	<path d="M 120 22.194 L 91.500 27.206 73.500 25.204 L 55.500 23.203 45.250 30.666 L 35 38.129 35 63.416 L 35 88.704 47.250 93.229 L 59.500 97.754 59.775 113.216 L 60.049 128.679 45.142 149.174 C 31.960 167.295, 20.726 185, 22.409 185 C 23.502 185, 68.483 158.768, 70.206 157.126 C 71.144 156.232, 75.686 146.759, 80.298 136.075 C 88.114 117.972, 89.220 116.018, 96.541 107.357 C 100.863 102.246, 104.508 98.174, 104.641 98.308 C 104.775 98.442, 104.158 109.340, 103.269 122.526 L 101.654 146.500 110.488 163.402 L 119.323 180.303 145.410 179.603 C 159.758 179.218, 171.800 178.587, 172.170 178.202 C 173.137 177.194, 183.284 139.951, 182.741 139.407 C 182.491 139.158, 178.735 140.471, 174.393 142.325 C 167.423 145.303, 164.519 145.889, 149.570 147.335 C 140.258 148.236, 132.476 148.809, 132.276 148.609 C 131.821 148.154, 129.771 99.876, 130.192 99.527 C 130.362 99.386, 136.060 99.912, 142.857 100.696 C 149.653 101.479, 155.335 101.981, 155.484 101.810 C 155.633 101.640, 157.741 91.825, 160.169 80 L 164.583 58.500 164.041 38.833 C 163.744 28.016, 163.207 18.873, 162.849 18.516 C 162.491 18.158, 153.742 20.604, 143.405 23.951 C 133.069 27.299, 124.137 29.856, 123.556 29.635 C 122.130 29.092, 123.307 28.653, 139.425 23.716 C 152.701 19.649, 157.665 16.887, 151.333 17.091 C 149.775 17.141, 135.675 19.438, 120 22.194 M 144.176 26.530 C 135.198 29.452, 127.174 32.103, 126.347 32.420 C 125.152 32.879, 126.495 36.151, 132.854 48.281 L 140.866 63.565 131.855 71.532 C 126.900 75.915, 122.542 79.609, 122.173 79.741 C 121.415 80.013, 79.669 47.213, 79.197 45.976 C 79.030 45.538, 86.807 42.557, 96.479 39.351 C 106.151 36.145, 113.541 33.347, 112.902 33.134 C 112.263 32.921, 102.845 33.537, 91.973 34.502 C 71.858 36.289, 63 35.997, 63 33.546 C 63 31.850, 64.364 31.348, 71.343 30.476 C 74.454 30.088, 77 29.433, 77 29.023 C 77 28.612, 73.556 27.964, 69.347 27.582 C 65.138 27.201, 60.526 26.657, 59.097 26.374 C 57.046 25.967, 54.557 27.260, 47.250 32.528 L 38 39.197 38 63.027 L 38 86.856 43.750 88.972 C 46.913 90.136, 52.538 92.232, 56.250 93.631 L 63 96.175 63 112.710 L 63 129.245 47.642 150.373 C 33.558 169.748, 27.531 178.933, 29.667 177.765 C 45.309 169.214, 68.527 155.090, 69.464 153.555 C 70.154 152.425, 74.228 143.321, 78.519 133.324 C 86.304 115.186, 86.343 115.120, 97.160 102.494 L 108 89.840 107.914 94.170 C 107.867 96.551, 107.062 108.850, 106.126 121.500 L 104.424 144.500 112.448 160.750 L 120.472 177 135.986 176.995 C 144.519 176.992, 155.788 176.706, 161.028 176.359 L 170.556 175.728 174.742 160.161 C 177.045 151.600, 178.751 144.418, 178.534 144.201 C 178.317 143.984, 175.296 144.916, 171.820 146.272 C 166.937 148.178, 161.431 149.114, 147.604 150.390 C 137.762 151.299, 129.598 151.920, 129.462 151.771 C 129.090 151.362, 126.976 96.691, 127.319 96.348 C 127.483 96.184, 133.391 96.726, 140.448 97.552 C 147.506 98.378, 153.363 98.929, 153.464 98.777 C 153.564 98.624, 155.510 89.275, 157.788 78 L 161.928 57.500 161.214 39.359 L 160.500 21.218 144.176 26.530 M 117 25.464 C 113.425 26.165, 108.250 27.098, 105.500 27.537 C 102.750 27.975, 101.287 28.517, 102.250 28.740 C 103.213 28.964, 104 29.552, 104 30.048 C 104 31.225, 108.308 30.326, 118.896 26.939 C 128.151 23.979, 127.429 23.417, 117 25.464 M 82 31.584 C 76.372 32.744, 76.156 32.862, 80.390 32.462 C 83.079 32.208, 87.241 32, 89.640 32 C 92.038 32, 94 31.550, 94 31 C 94 29.716, 90.157 29.903, 82 31.584 M 102.129 40.369 L 83.759 46.581 102.791 61.704 L 121.824 76.827 129.162 70.272 C 133.198 66.666, 136.686 63.557, 136.912 63.362 C 137.647 62.732, 122.533 34.030, 121.500 34.095 C 120.950 34.129, 112.233 36.953, 102.129 40.369" stroke="none" fill="black" fill-rule="evenodd"/>
</svg>