<svg xmlns="http://www.w3.org/2000/svg" width="200" height="200" viewBox="0 0 200 200" version="1.1">
	<path d="M 140.569 15.031 L 103.638 20.854 60.569 18.580 C 36.881 17.329, 17.315 16.459, 17.089 16.647 C 16.864 16.834, 17.476 17.868, 18.450 18.945 C 19.424 20.021, 24.164 33.272, 28.983 48.391 L 37.745 75.880 27.955 116.689 C 22.570 139.134, 18.260 157.594, 18.378 157.711 C 18.911 158.244, 58 131.978, 58 131.087 C 58 130.534, 54.175 118.133, 49.500 103.529 C 44.825 88.925, 41.003 76.195, 41.006 75.238 C 41.009 74.282, 41.480 71.813, 42.053 69.750 L 43.094 66 64.953 66 L 86.812 66 88.297 70.250 C 89.113 72.588, 91.374 78.856, 93.322 84.179 L 96.862 93.859 90.181 91.327 C 72.282 84.545, 60.470 80.294, 60.186 80.532 C 60.013 80.676, 62.654 89.404, 66.054 99.927 L 72.236 119.058 61.524 145.602 C 55.633 160.201, 51.075 172.408, 51.395 172.729 C 51.716 173.049, 60.918 171.442, 71.845 169.156 C 98.628 163.553, 107.456 163.528, 148.543 168.939 C 164.995 171.106, 178.588 172.745, 178.750 172.583 C 178.913 172.420, 175.436 159.062, 171.023 142.897 C 161.150 106.729, 161.130 106.397, 167.500 83 C 169.971 73.925, 171.994 66.162, 171.996 65.750 C 171.998 65.338, 168.199 65, 163.553 65 L 155.105 65 168.552 37.750 C 175.947 22.762, 181.999 10.162, 181.999 9.750 C 182.001 8.568, 179.678 8.864, 140.569 15.031 M 149.500 16.472 C 134.650 18.815, 121.600 20.938, 120.500 21.190 C 119.400 21.442, 126.150 21.982, 135.500 22.390 C 144.850 22.797, 153.100 23.327, 153.833 23.566 C 157.556 24.781, 152.718 26.831, 136.701 30.825 L 119.042 35.228 132.271 49.212 C 139.547 56.904, 146.258 63.602, 147.184 64.098 C 150.662 65.960, 151.996 64.957, 155.633 57.750 C 164.571 40.034, 177.801 12.009, 177.181 12.106 C 176.806 12.164, 164.350 14.128, 149.500 16.472 M 33.459 29.541 C 40.328 36.053, 43.096 39.304, 42.382 40.018 C 41.667 40.733, 39.061 39.192, 33.981 35.052 C 29.931 31.751, 26.453 29.214, 26.253 29.414 C 25.665 30.002, 38.377 69, 39.157 69 C 39.547 69, 40.010 67.763, 40.184 66.250 L 40.500 63.500 61.811 63 L 83.122 62.500 63.061 46.670 C 52.027 37.964, 43 30.706, 43 30.542 C 43 30.378, 49.525 29.234, 57.500 28 C 65.475 26.766, 71.993 25.474, 71.985 25.128 C 71.923 22.579, 69.333 22.008, 53.464 21.047 C 44.134 20.482, 33.575 20.037, 30 20.060 L 23.500 20.100 33.459 29.541 M 78.500 23 C 79.600 23.473, 82.075 23.838, 84 23.811 L 87.500 23.763 84.500 23 C 82.850 22.580, 80.375 22.215, 79 22.189 C 76.732 22.145, 76.685 22.220, 78.500 23 M 97.500 24.432 C 96.950 24.654, 94.700 25.156, 92.500 25.547 C 88.563 26.247, 88.689 26.320, 100.500 30.135 L 112.500 34.012 127.365 30.360 C 136.238 28.180, 141.679 26.404, 140.865 25.953 C 139.420 25.153, 99.206 23.743, 97.500 24.432 M 77.750 27.689 C 76.787 27.941, 76.010 28.226, 76.023 28.323 C 76.036 28.420, 78.898 36.375, 82.384 46 L 88.722 63.500 93.361 63.805 C 95.912 63.972, 98 63.879, 98 63.596 C 98 63.314, 95.741 58.258, 92.981 52.361 C 89.625 45.194, 88.294 41.306, 88.964 40.636 C 90.232 39.368, 89.710 38.505, 95.991 52.250 L 101.361 64 121.808 64 L 142.255 64 137.933 59.250 C 124.227 44.185, 115.121 35.137, 114.760 36.221 C 114.465 37.106, 109.655 35.971, 97.845 32.229 C 88.768 29.353, 80.927 27.052, 80.421 27.116 C 79.914 27.180, 78.713 27.438, 77.750 27.689 M 58.639 30.566 C 54.315 31.294, 50.579 32.088, 50.336 32.330 C 50.093 32.573, 57.382 38.710, 66.533 45.967 C 75.685 53.224, 83.344 58.989, 83.554 58.779 C 83.765 58.569, 81.589 51.789, 78.718 43.714 L 73.500 29.031 70 29.138 C 68.075 29.196, 62.962 29.839, 58.639 30.566 M 97 70 C 99.475 72.167, 101.847 73.954, 102.270 73.970 C 102.694 73.987, 102.122 72.200, 101 70 C 99.248 66.565, 98.503 66.004, 95.730 66.030 L 92.500 66.060 97 70 M 104.362 70.250 C 105.126 72.037, 106.335 74.750, 107.048 76.277 C 109.552 81.636, 106.752 81.180, 98.726 74.922 C 94.477 71.609, 91 69.109, 91 69.368 C 91 69.626, 93.090 75.545, 95.644 82.521 C 99.581 93.271, 100.686 95.349, 102.894 96.151 C 104.327 96.671, 107.073 99.101, 108.996 101.550 C 110.919 103.999, 112.824 105.889, 113.230 105.751 C 113.636 105.613, 120.275 96.993, 127.984 86.597 C 135.693 76.200, 141.995 68.325, 141.989 69.097 C 141.982 69.868, 140.859 81.971, 139.493 95.990 L 137.008 121.481 126.043 132.446 C 120.012 138.477, 114.909 143.206, 114.702 142.956 C 114.495 142.705, 110.698 132.375, 106.264 120 L 98.201 97.500 81.851 91.251 C 72.858 87.815, 65.231 85.115, 64.903 85.251 C 64.574 85.388, 66.744 93.097, 69.724 102.381 L 75.142 119.262 65.005 144.232 C 59.429 157.965, 55.010 169.332, 55.184 169.493 C 55.358 169.653, 63.600 168.022, 73.500 165.868 L 91.500 161.951 108.669 162.579 C 118.304 162.932, 136.624 164.609, 150.419 166.400 C 163.938 168.156, 175 169.191, 175 168.700 C 175 168.209, 171.877 156.263, 168.059 142.154 C 158.675 107.471, 158.491 104.627, 164.291 83.863 L 168.658 68.225 164.190 67.613 C 155.940 66.482, 154.050 66.795, 152.818 69.500 C 152.192 70.875, 151.380 72, 151.014 72 C 150.648 72, 149.292 70.875, 148 69.500 L 145.651 67 124.312 67 L 102.973 67 104.362 70.250 M 125.500 94.587 L 113.500 110.979 111.500 108.715 C 110.400 107.469, 108.050 104.687, 106.278 102.531 C 104.505 100.375, 102.805 98.862, 102.498 99.168 C 102.049 99.618, 110.824 125.365, 115.083 136.094 C 116.107 138.671, 116.175 138.624, 125.372 129.094 L 134.631 119.500 136.450 99.218 C 137.451 88.063, 138.096 78.769, 137.885 78.565 C 137.673 78.361, 132.100 85.570, 125.500 94.587 M 33.007 107.688 C 29.596 121.885, 25.771 137.662, 24.509 142.750 C 23.246 147.838, 22.401 152, 22.630 152 C 23.104 152, 53.050 132.154, 54.332 130.990 C 54.996 130.388, 40.752 83.419, 39.538 82.204 C 39.357 82.024, 36.419 93.492, 33.007 107.688" stroke="none" fill="black" fill-rule="evenodd"/>
</svg>