<svg xmlns="http://www.w3.org/2000/svg" width="200" height="200" viewBox="0 0 200 200" version="1.1">
	<path d="M 74.718 18.615 C 74.380 18.953, 75.211 22.172, 76.565 25.768 C 77.918 29.365, 78.825 32.509, 78.579 32.755 C 78.212 33.122, 66.543 26.278, 57.404 20.335 C 55.365 19.009, 55.077 19.585, 46.654 41.820 C 41.895 54.386, 38 64.967, 38 65.333 C 38 65.700, 40.439 66, 43.421 66 C 48.539 66, 48.871 66.153, 49.372 68.750 C 50.305 73.592, 54.259 113.074, 53.851 113.482 C 53.635 113.699, 45.180 115.028, 35.063 116.437 C 24.946 117.846, 16.473 119.194, 16.234 119.433 C 15.995 119.672, 16.096 120.347, 16.459 120.933 C 16.893 121.637, 24.619 122, 39.130 122 C 57.313 122, 61.402 122.260, 62.635 123.492 C 63.484 124.341, 63.795 125.527, 63.357 126.242 C 62.779 127.187, 37.283 160.177, 29.681 169.819 C 28.906 170.802, 29.388 171.766, 31.570 173.600 C 39.083 179.913, 35.797 180.894, 66.677 163.113 C 81.980 154.301, 95.294 146.508, 96.263 145.796 C 97.841 144.637, 96.710 143.606, 85.560 136.037 C 78.703 131.382, 73.184 127.515, 73.296 127.443 C 73.594 127.250, 112.903 130.826, 114.501 131.191 C 115.247 131.361, 124.027 142.750, 134.013 156.500 C 143.999 170.250, 152.312 181.644, 152.487 181.819 C 152.661 181.994, 159.385 177.753, 167.428 172.395 C 177.171 165.904, 181.718 162.318, 181.053 161.653 C 180.387 160.987, 175.663 163.578, 166.901 169.415 C 155.976 176.692, 153.527 177.950, 152.446 176.838 C 149.802 174.121, 119.997 132.670, 120.399 132.268 C 120.627 132.039, 130.948 135.035, 143.334 138.926 C 155.720 142.817, 166.111 146, 166.427 146 C 166.742 146, 167 145.420, 167 144.711 C 167 143.452, 122.571 128.990, 118.725 128.997 C 117.196 129, 115 125.521, 115 123.095 C 115 122.669, 128.941 122.016, 145.980 121.644 C 163.018 121.272, 178.993 120.689, 181.480 120.348 C 190.429 119.121, 186.441 117.454, 167.750 114.610 C 157.713 113.083, 148.805 111.645, 147.955 111.414 C 146.764 111.091, 145.887 107.167, 144.122 94.248 C 142.864 85.036, 141.633 76.600, 141.386 75.500 C 141.003 73.790, 143.593 72.127, 159.219 64.046 L 177.500 54.592 159.226 50.939 C 149.175 48.929, 140.689 47.022, 140.367 46.701 C 140.046 46.379, 140.255 41.264, 140.833 35.333 C 141.411 29.403, 141.753 24.419, 141.592 24.259 C 141.431 24.098, 135.052 30.724, 127.416 38.983 C 119.780 47.242, 113.075 53.994, 112.516 53.987 C 111.957 53.980, 105.201 50.024, 97.501 45.196 L 83.503 36.417 80.103 27.208 C 76.857 18.417, 76.110 17.224, 74.718 18.615 M 49.158 42.993 C 45.221 53.440, 42 62.215, 42 62.493 C 42 62.772, 44.176 63, 46.835 63 L 51.670 63 54.448 89.053 C 55.977 103.382, 56.930 115.404, 56.566 115.768 C 56.202 116.131, 52.213 116.956, 47.702 117.599 L 39.500 118.769 52.500 118.855 L 65.500 118.941 79 103.369 C 98.982 80.320, 97.363 82.789, 95.446 78.299 C 94.554 76.210, 91.205 67.075, 88.005 58 C 84.805 48.925, 81.881 40.739, 81.508 39.808 C 80.845 38.152, 59.143 24, 57.267 24 C 56.745 24, 53.096 32.547, 49.158 42.993 M 125.716 44.750 C 114.245 57.240, 114.005 57.596, 114.003 62.196 C 114 66.630, 115.511 88.025, 116.411 96.306 C 116.807 99.952, 116.640 100.201, 112.412 102.255 C 109.986 103.434, 108.018 104.646, 108.040 104.949 C 108.061 105.252, 109.316 108.650, 110.827 112.500 L 113.575 119.500 136.055 119.169 C 148.419 118.987, 161.002 118.537, 164.017 118.169 C 169.431 117.508, 169.341 117.476, 156.750 115.596 C 149.384 114.497, 143.988 113.230, 143.970 112.596 C 143.954 111.993, 142.658 102.725, 141.089 92 C 139.521 81.275, 138.373 72.275, 138.539 72 C 138.705 71.725, 145.393 68.125, 153.402 64 C 161.410 59.875, 167.971 56.257, 167.981 55.960 C 167.991 55.662, 161.137 54.070, 152.750 52.421 L 137.500 49.422 137.844 40.711 C 138.033 35.920, 138.016 32, 137.807 32 C 137.597 32, 132.156 37.737, 125.716 44.750 M 89.114 52.198 C 91.365 58.414, 93.910 65.509, 94.770 67.965 L 96.335 72.431 103.166 64.965 C 106.923 60.859, 109.998 57.193, 109.999 56.818 C 110 56.289, 93.420 45.659, 86.261 41.598 C 85.580 41.212, 86.864 45.982, 89.114 52.198 M 104.044 68.029 C 98.866 73.855, 97.905 75.485, 98.425 77.557 C 99.024 79.943, 99.321 79.750, 105.009 73.278 C 109.166 68.548, 110.970 65.669, 110.983 63.750 C 110.992 62.237, 110.841 61, 110.646 61 C 110.451 61, 107.480 64.163, 104.044 68.029 M 106.715 79.241 L 101.930 87.279 104.099 93.889 C 106.935 102.534, 106.574 102.171, 110.485 100.306 L 113.895 98.680 113.374 92.590 C 113.088 89.240, 112.549 83.058, 112.177 78.852 L 111.500 71.204 106.715 79.241 M 101 82 C 100.411 83.100, 100.155 84, 100.430 84 C 100.705 84, 101.411 83.100, 102 82 C 102.589 80.900, 102.845 80, 102.570 80 C 102.295 80, 101.589 80.900, 101 82 M 83.180 102.500 L 68.919 119 74.237 119 L 79.554 119 89.027 103.390 C 94.237 94.805, 98.650 87.380, 98.833 86.890 C 100.026 83.704, 95.681 88.037, 83.180 102.500 M 95.500 97.745 C 93.300 101.387, 90.447 106.109, 89.160 108.240 L 86.819 112.113 95.160 107.940 C 99.747 105.645, 103.698 103.585, 103.939 103.361 C 104.417 102.919, 101.107 92.935, 100.110 91.812 C 99.775 91.433, 97.700 94.103, 95.500 97.745 M 92.722 112.271 L 80.944 118.500 95.044 119.344 C 102.799 119.809, 109.393 119.940, 109.697 119.637 C 110.337 118.997, 105.912 105.989, 105.065 106.021 C 104.754 106.033, 99.200 108.845, 92.722 112.271 M 66.616 123.016 C 67.710 124.110, 111.886 128.448, 112.784 127.549 C 113.082 127.252, 112.811 125.882, 112.184 124.504 L 111.043 122 88.321 122 C 72.932 122, 65.928 122.328, 66.616 123.016 M 49.705 148.430 C 40.517 160.248, 33.025 170.273, 33.055 170.708 C 33.086 171.144, 34.408 172.524, 35.994 173.775 L 38.878 176.051 66.002 160.389 C 80.921 151.774, 92.761 144.408, 92.313 144.019 C 90.412 142.366, 69.073 127.965, 67.802 127.477 C 66.878 127.123, 60.785 134.177, 49.705 148.430" stroke="none" fill="black" fill-rule="evenodd"/>
</svg>