<svg xmlns="http://www.w3.org/2000/svg" width="200" height="200" viewBox="0 0 200 200" version="1.1">
	<path d="M 76.920 20.276 C 64.650 24.862, 58.094 28.502, 48 36.335 C 45.506 38.271, 45.541 38.274, 63 37.678 L 80.500 37.082 87.483 42.008 C 91.895 45.121, 94.816 46.584, 95.416 45.984 C 95.939 45.461, 96.172 44.876, 95.933 44.683 C 95.695 44.490, 92.371 42.128, 88.547 39.434 L 81.595 34.535 68.047 34.837 L 54.500 35.139 59.886 31.319 C 62.985 29.122, 70.611 25.544, 77.846 22.893 L 90.419 18.286 101.460 21.995 L 112.500 25.704 112.141 32.011 L 111.783 38.319 103.838 45.909 L 95.893 53.500 100.302 68 C 102.727 75.975, 107.193 87.675, 110.228 94 C 114.729 103.382, 117.319 107.268, 124.287 115.097 C 128.986 120.376, 137.202 128.595, 142.546 133.362 C 150.723 140.657, 154.221 142.966, 164.631 147.946 C 171.434 151.200, 177 154.140, 177 154.479 C 177 156.395, 163.430 174.604, 156.893 181.463 C 155.578 182.842, 142.633 169.823, 131.370 155.796 C 123.147 145.552, 121.213 142.349, 115.882 130.132 L 109.791 116.173 104.197 115.837 L 98.603 115.500 91.101 126 C 77.065 145.646, 50.332 168.308, 33.123 175.148 C 29.066 176.761, 25.614 177.947, 25.452 177.785 C 25.290 177.623, 31.157 171.990, 38.490 165.267 C 49.570 155.110, 53.283 150.919, 60.465 140.466 C 75.327 118.834, 85.345 94.355, 91.036 65.769 C 93.132 55.242, 93.232 51.435, 91.363 53.304 C 91.012 53.654, 89.461 59.917, 87.916 67.220 C 81.885 95.729, 72.777 117.798, 58.481 138.551 C 49.837 151.098, 39.936 161.375, 22.927 175.453 C 17.715 179.767, 14.468 183.139, 14.882 183.809 C 15.357 184.578, 19.652 183.340, 28.490 179.888 C 51.576 170.870, 75.023 152.321, 91.108 130.353 C 97.060 122.223, 100.787 118, 102.011 118 C 107.084 118, 108.431 119.622, 113.830 132.228 C 118.232 142.508, 120.658 146.571, 127.773 155.586 C 136.056 166.083, 154.547 186, 156.009 186 C 157.878 186, 181 155.897, 181 153.464 C 181 153.190, 174.674 149.834, 166.942 146.006 C 150.730 137.979, 141.512 130.572, 126.625 113.611 C 119.356 105.330, 116.775 101.445, 112.362 92.142 C 109.398 85.895, 105.192 74.827, 103.014 67.547 L 99.054 54.310 107.027 46.337 C 115.731 37.632, 114.978 39.470, 115.429 25.838 C 115.491 23.945, 113.935 23.153, 102.920 19.469 L 90.340 15.261 76.920 20.276" stroke="none" fill="black" fill-rule="evenodd"/>
</svg>