<svg xmlns="http://www.w3.org/2000/svg" width="200" height="200" viewBox="0 0 200 200" version="1.1">
	<path d="M 57.250 23.018 C 53.263 29.051, 50 34.440, 50 34.994 C 50 37.607, 52.231 35.195, 58.445 25.862 L 65.195 15.724 68.996 19.612 C 72.012 22.698, 74.350 27.367, 80.330 42.250 C 84.474 52.563, 87.557 61.002, 87.182 61.005 C 86.807 61.007, 83.216 59.814, 79.202 58.353 C 74.288 56.565, 71.573 56.027, 70.893 56.707 C 70.213 57.387, 73.312 59.746, 80.376 63.927 C 86.147 67.342, 91.276 70.668, 91.775 71.318 C 93.217 73.198, 101.302 94.031, 100.789 94.545 C 100.534 94.800, 94.964 95.748, 88.413 96.653 C 69.709 99.234, 70.083 100.370, 90.693 103.580 C 105.382 105.867, 108 106.930, 108 110.607 C 108 111.280, 103.496 116.548, 97.992 122.313 C 90.428 130.236, 88.151 133.229, 88.666 134.571 C 89.202 135.970, 88.974 136.204, 87.592 135.674 C 86.626 135.303, 71.383 135, 53.717 135 L 21.597 135 41.549 121.443 C 56.013 111.613, 61.410 107.420, 61.172 106.193 C 59.279 96.428, 46.932 45.544, 46.315 44.963 C 44.929 43.661, 30.731 43.364, 30.300 44.628 C 30.049 45.361, 32.497 45.999, 37.284 46.448 L 44.653 47.138 51.631 76.970 L 58.609 106.802 35.708 122.151 L 12.806 137.500 40.342 138 L 67.878 138.500 43.371 159.849 C 29.893 171.591, 19.008 181.339, 19.182 181.512 C 19.357 181.684, 28.500 180.079, 39.500 177.944 C 50.500 175.810, 59.989 174.049, 60.587 174.032 C 61.185 174.014, 67.645 166.606, 74.944 157.570 L 88.213 141.139 102.857 141.715 C 110.911 142.031, 118.396 142.612, 119.491 143.006 C 120.917 143.519, 123.231 148.087, 127.650 159.111 L 133.818 174.500 158.159 174.153 C 171.547 173.961, 182.829 173.498, 183.231 173.122 C 183.633 172.746, 171.933 165.172, 157.231 156.291 C 137.255 144.225, 129.489 140.042, 126.500 139.740 L 122.500 139.336 126.386 139.168 C 130.261 139.001, 175.577 133.511, 181.750 132.462 C 188.941 131.239, 184.998 129.379, 166.750 125.384 L 148.500 121.388 148.160 116.444 C 147.973 113.725, 148.136 100.150, 148.522 86.278 L 149.224 61.057 161.693 49.867 L 174.161 38.677 163.830 28.889 C 158.149 23.505, 153.171 19.078, 152.769 19.050 C 152.367 19.023, 141.878 25.331, 129.461 33.068 L 106.883 47.137 93.293 34.318 C 73.663 15.803, 71.451 13.949, 70.328 15.072 C 69.694 15.706, 68.711 15.338, 67.521 14.024 C 66.514 12.911, 65.422 12.011, 65.095 12.024 C 64.768 12.038, 61.237 16.985, 57.250 23.018 M 77.062 23.535 C 78.471 25.166, 90.022 37.558, 102.730 51.074 C 116.670 65.898, 125.555 76.102, 125.127 76.795 C 124.631 77.597, 119.979 76.298, 109.647 72.471 C 86.838 64.023, 87.237 64.851, 113.565 80.628 C 124.275 87.045, 132.848 92.485, 132.617 92.717 C 132.385 92.948, 126.483 93.976, 119.500 95 C 112.517 96.024, 106.523 97.144, 106.179 97.488 C 105.835 97.832, 106.230 99.325, 107.056 100.807 C 108.433 103.275, 109.411 103.620, 118.779 104.940 C 124.401 105.731, 129 106.717, 129 107.130 C 129 107.543, 125.648 110.198, 121.550 113.030 L 114.100 118.180 115.948 122.840 C 121.711 137.377, 120.621 135.998, 126.359 136.015 C 132.225 136.032, 175.209 130.875, 174.565 130.232 C 174.332 129.999, 167.698 128.376, 159.821 126.624 L 145.500 123.439 145.823 91.970 L 146.146 60.500 153.812 53.500 C 158.028 49.650, 163.435 44.687, 165.827 42.470 L 170.175 38.441 161.180 30.219 L 152.184 21.997 129.586 36.122 L 106.988 50.247 104.038 47.874 C 102.415 46.568, 95.105 39.891, 87.794 33.035 C 80.482 26.180, 75.653 21.905, 77.062 23.535 M 78.125 29.594 C 78.331 30.196, 81.425 37.948, 85 46.820 C 91.466 62.869, 91.521 62.960, 95.500 64.379 C 97.700 65.164, 104 67.454, 109.500 69.467 L 119.500 73.128 115.936 69.314 C 103.812 56.340, 79.494 30.340, 78.698 29.500 C 78.071 28.838, 77.877 28.870, 78.125 29.594 M 87.733 65.124 C 88.412 65.808, 89.219 66.115, 89.526 65.807 C 89.834 65.499, 89.279 64.940, 88.293 64.564 C 86.868 64.022, 86.753 64.136, 87.733 65.124 M 100.194 84 C 103.259 91.582, 104.681 94, 106.077 94 C 109.524 94, 123.497 91.759, 124.242 91.086 C 124.857 90.530, 98.152 74, 96.638 74 C 96.370 74, 97.970 78.500, 100.194 84 M 91.500 98.892 C 86.685 99.624, 87.742 100.511, 94.500 101.410 C 97.250 101.776, 100.745 102.321, 102.266 102.621 C 104.926 103.145, 104.988 103.067, 103.856 100.583 C 102.599 97.824, 100.455 97.530, 91.500 98.892 M 110 108.059 C 110 108.641, 110.450 108.840, 111 108.500 C 111.550 108.160, 112 107.684, 112 107.441 C 112 107.198, 111.550 107, 111 107 C 110.450 107, 110 107.477, 110 108.059 M 113.987 109.514 C 111.801 111.841, 111.464 113.550, 113.002 114.501 C 113.782 114.984, 123 109.395, 123 108.440 C 123 108.318, 121.419 108.034, 119.487 107.809 C 116.850 107.501, 115.479 107.926, 113.987 109.514 M 107.097 118.083 L 104.818 121.166 107.409 119.468 C 108.834 118.534, 110 117.147, 110 116.385 C 110 114.416, 109.661 114.615, 107.097 118.083 M 104.217 125.052 C 100.291 127.818, 96.130 131.413, 94.971 133.040 L 92.864 136 105.432 136 C 112.344 136, 118 135.837, 118 135.638 C 118 135.122, 112.022 120.688, 111.657 120.324 C 111.491 120.158, 108.143 122.285, 104.217 125.052 M 114.762 139.707 C 116.006 139.946, 117.806 139.937, 118.762 139.687 C 119.718 139.437, 118.700 139.241, 116.500 139.252 C 114.300 139.263, 113.518 139.468, 114.762 139.707 M 48.875 158.610 C 37.332 168.724, 28.475 176.998, 29.194 176.996 C 29.912 176.994, 37.250 175.664, 45.500 174.040 C 57.824 171.614, 60.837 170.678, 62.387 168.794 C 73.439 155.362, 84.125 141.801, 83.846 141.562 C 83.656 141.399, 80.432 141.029, 76.681 140.742 L 69.863 140.219 48.875 158.610 M 124.552 144.250 C 124.821 144.938, 127.432 151.350, 130.355 158.500 L 135.670 171.500 146.085 171.756 C 151.813 171.896, 160.775 171.671, 166 171.256 L 175.500 170.500 152.845 156.750 C 136.791 147.007, 129.296 143, 127.126 143 C 125.081 143, 124.225 143.416, 124.552 144.250" stroke="none" fill="black" fill-rule="evenodd"/>
</svg>