<svg xmlns="http://www.w3.org/2000/svg" width="200" height="200" viewBox="0 0 200 200" version="1.1">
	<path d="M 128 23.633 C 114.778 24.558, 107.763 24.677, 106.210 24.002 C 104.546 23.279, 102.935 23.418, 100.314 24.513 C 97.437 25.715, 89.348 26.152, 60.309 26.673 C 34.731 27.132, 24.042 27.649, 24.353 28.413 C 24.596 29.011, 26.698 34.450, 29.024 40.500 C 31.350 46.550, 33.564 51.845, 33.943 52.267 C 34.323 52.689, 49.143 47.401, 66.877 40.517 C 87.009 32.702, 100.487 28, 102.757 28 C 106.945 28, 115.043 32.868, 112.809 34.043 C 112.089 34.422, 104.305 36.624, 95.511 38.938 C 86.717 41.252, 79.457 43.225, 79.379 43.322 C 79.300 43.420, 78.618 48.675, 77.864 55 L 76.493 66.500 64.996 66.230 C 58.673 66.081, 48.663 65.695, 42.750 65.371 C 33.293 64.852, 32 64.975, 32 66.391 C 32 67.276, 32.563 68.012, 33.250 68.026 C 33.938 68.040, 44.175 69.142, 56 70.475 C 74.678 72.580, 77.646 72.708, 78.610 71.449 C 79.444 70.361, 82.120 70, 89.360 70 C 94.662 70, 99 70.302, 99 70.670 C 99 71.039, 97.537 75.549, 95.750 80.692 L 92.500 90.043 77 89.497 C 68.475 89.198, 58.346 88.729, 54.491 88.456 L 47.481 87.960 39.335 99.390 L 31.189 110.821 25.555 147.160 C 19.022 189.295, 19.115 188.500, 20.735 188.500 C 22.101 188.500, 53.939 139.333, 57.530 131.677 C 58.774 129.025, 60.007 127.225, 60.269 127.677 C 60.531 128.130, 65.149 140.650, 70.531 155.500 C 75.912 170.350, 80.623 182.855, 80.997 183.289 C 81.372 183.724, 99.594 183.724, 121.490 183.289 L 161.301 182.500 175.069 160.502 C 182.641 148.402, 188.719 138.386, 188.576 138.243 C 188.433 138.100, 180.359 140.975, 170.633 144.633 C 160.907 148.290, 152.715 151.048, 152.428 150.762 C 152.142 150.476, 155.785 137.338, 160.523 121.568 L 169.138 92.895 168.069 82.274 C 167.481 76.432, 166.978 63.743, 166.951 54.076 L 166.902 36.500 161.701 42.461 C 158.840 45.739, 154.865 50.217, 152.868 52.411 L 149.235 56.402 135.035 45.771 L 120.834 35.140 124.167 34.220 C 126 33.714, 135.036 31.320, 144.247 28.900 C 154.621 26.174, 160.995 24.024, 160.997 23.250 C 161.001 21.697, 154.581 21.772, 128 23.633 M 120.250 26.744 C 115.713 26.929, 112 27.428, 112 27.852 C 112 28.277, 113.319 29.599, 114.932 30.791 L 117.863 32.959 129.682 29.878 C 136.182 28.184, 141.688 26.618, 141.917 26.399 C 142.332 26.002, 135.933 26.104, 120.250 26.744 M 42.339 29.958 L 28.177 30.500 31.721 39.750 C 33.670 44.837, 35.768 48.998, 36.382 48.995 C 36.997 48.992, 48.975 44.506, 63 39.027 L 88.500 29.065 72.500 29.241 C 63.700 29.337, 50.127 29.660, 42.339 29.958 M 99.034 40.666 C 89.978 43.104, 82.401 45.266, 82.197 45.470 C 81.993 45.674, 81.418 49.364, 80.920 53.670 C 80.422 57.977, 79.810 62.676, 79.560 64.113 L 79.105 66.726 90.589 67.232 C 96.905 67.511, 102.271 67.938, 102.514 68.181 C 102.757 68.423, 101.390 73, 99.478 78.352 C 97.565 83.703, 96 88.478, 96 88.962 C 96 89.705, 110.778 90.964, 111.870 90.313 C 112.074 90.192, 109.824 87.865, 106.870 85.143 C 103.917 82.420, 101.745 79.942, 102.044 79.635 C 102.344 79.329, 112.432 74.321, 124.462 68.507 C 136.730 62.578, 145.933 57.570, 145.418 57.103 C 142.011 54.010, 117.150 36.023, 116.413 36.117 C 115.911 36.181, 108.090 38.229, 99.034 40.666 M 143.801 67.386 C 124.635 89.875, 124.183 90.508, 127.051 90.813 C 130.789 91.211, 130.776 92.110, 127 94.341 C 125.350 95.316, 124 96.442, 124 96.844 C 124 97.247, 127.825 101.076, 132.500 105.355 C 137.175 109.634, 141 113.589, 141 114.145 C 141 114.701, 136.444 122.580, 130.876 131.654 C 124.122 142.659, 120.418 147.818, 119.751 147.151 C 119.083 146.483, 121.969 140.907, 128.417 130.402 L 138.085 114.655 133.292 109.747 C 130.657 107.048, 126.812 103.488, 124.749 101.835 L 120.999 98.831 116.115 102.415 C 108.067 108.324, 106.449 106.705, 112.984 99.281 C 115.175 96.792, 116.723 94.361, 116.425 93.878 C 116.126 93.395, 111.017 93, 105.071 93 L 94.259 93 89.073 108.074 L 83.887 123.147 90.381 130.324 C 93.953 134.271, 102.416 143.254, 109.188 150.287 L 121.500 163.073 134.265 158.222 C 141.285 155.554, 147.416 152.950, 147.889 152.435 C 148.362 151.921, 152.668 138.350, 157.458 122.277 L 166.168 93.054 165.041 78.277 C 164.420 70.150, 163.820 59.173, 163.706 53.886 L 163.500 44.271 143.801 67.386 M 124.611 71.420 L 105.723 80.546 111.442 85.773 C 114.587 88.648, 117.912 90.973, 118.831 90.939 C 120.323 90.885, 144.685 63.260, 143.845 62.575 C 143.655 62.421, 135 66.401, 124.611 71.420 M 44.500 96.794 C 42.300 99.904, 39.002 104.557, 37.171 107.134 C 33.921 111.710, 33.716 112.628, 28.479 146.134 C 25.529 165.007, 23.231 180.565, 23.373 180.706 C 23.989 181.322, 54.005 132.824, 56.922 126.500 L 60.150 119.500 61.382 122.500 C 62.060 124.150, 67.089 137.816, 72.557 152.868 C 78.026 167.921, 83.081 180.463, 83.791 180.741 C 84.500 181.018, 101.902 180.913, 122.460 180.507 L 159.838 179.770 170.871 162.170 C 176.938 152.489, 181.707 144.373, 181.467 144.134 C 181.227 143.894, 174.092 146.283, 165.611 149.443 L 150.190 155.188 149.062 159.666 C 148.364 162.442, 147.472 163.975, 146.717 163.697 C 145.416 163.219, 145.388 162.757, 146.452 159.250 C 146.828 158.012, 146.732 157, 146.240 157 C 145.748 157, 139.755 159.066, 132.923 161.591 L 120.500 166.181 111.141 156.341 C 105.994 150.928, 97.049 141.435, 91.263 135.245 L 80.744 123.990 85.872 109.086 C 88.692 100.889, 91 93.937, 91 93.637 C 91 92.632, 84.636 92.109, 66.500 91.622 L 48.500 91.139 44.500 96.794" stroke="none" fill="black" fill-rule="evenodd"/>
</svg>