<svg xmlns="http://www.w3.org/2000/svg" width="200" height="200" viewBox="0 0 200 200" version="1.1">
	<path d="M 99.389 11.924 L 83.277 20.629 65.889 21.809 C 56.325 22.458, 42.793 23.283, 35.818 23.643 C 15.356 24.699, 15.528 26.913, 36.236 29.024 C 49.624 30.389, 53 31.685, 53 35.460 C 53 36.317, 47.635 39.727, 40.019 43.710 C 32.880 47.445, 27.049 50.725, 27.062 51 C 27.091 51.600, 75.369 79.794, 75.801 79.463 C 75.966 79.336, 71.850 69.971, 66.654 58.653 C 59.928 44.001, 57.537 37.820, 58.353 37.192 C 58.984 36.707, 65.125 33.357, 72 29.748 L 84.500 23.186 98.751 22.465 L 113.001 21.744 112.508 24.622 C 112.237 26.205, 111.332 33.714, 110.495 41.309 L 108.975 55.117 97.356 70.809 C 90.965 79.439, 85.564 86.694, 85.354 86.931 C 85.143 87.169, 73.708 86.775, 59.943 86.057 C 46.178 85.338, 34.659 85.008, 34.344 85.322 C 34.030 85.637, 40.128 93.566, 47.895 102.943 L 62.017 119.992 44.571 146.150 L 27.125 172.307 32.081 176.253 C 34.807 178.424, 37.591 179.961, 38.269 179.670 C 38.946 179.378, 48.275 171.167, 59 161.422 L 78.500 143.704 86.031 120.102 C 90.173 107.121, 93.793 95.878, 94.075 95.119 C 94.357 94.359, 96.688 101.559, 99.255 111.119 C 103.277 126.095, 104.281 131.891, 106.508 153 C 107.930 166.475, 109.293 178.460, 109.536 179.633 C 109.974 181.742, 110.328 181.771, 140.240 182.218 C 156.883 182.466, 170.827 182.394, 171.227 182.058 C 172.170 181.264, 185.199 137.066, 184.802 136.006 C 184.636 135.564, 178.295 139.206, 170.710 144.101 C 163.126 148.995, 156.601 152.989, 156.210 152.976 C 155.820 152.964, 149.070 146.776, 141.212 139.226 L 126.924 125.500 138.917 108.437 L 150.910 91.373 166.955 85.018 C 176.464 81.251, 183 78.120, 183 77.331 C 183 76.599, 182.662 76.007, 182.250 76.014 C 181.838 76.022, 170.250 78.702, 156.500 81.970 C 137.166 86.564, 131.248 87.637, 130.390 86.705 C 129.574 85.820, 129.766 80.726, 131.116 67.500 C 133.073 48.328, 132.788 49.257, 141.144 34.815 L 145.012 28.131 153.662 31.055 C 158.419 32.663, 162.489 34.155, 162.705 34.371 C 162.921 34.588, 160.395 40.777, 157.092 48.126 C 152.853 57.557, 151.405 61.783, 152.168 62.493 C 152.888 63.163, 153.382 63.165, 153.643 62.500 C 153.859 61.950, 156.894 55.200, 160.387 47.500 C 163.881 39.800, 166.568 33.198, 166.359 32.829 C 166.151 32.460, 161.709 30.735, 156.490 28.997 C 151.270 27.258, 147 25.629, 147 25.378 C 147 25.126, 147.931 23.095, 149.070 20.863 C 150.208 18.632, 150.996 16.703, 150.820 16.576 C 150.506 16.350, 130.173 17.525, 120.668 18.319 L 115.836 18.722 116.490 12.611 C 116.850 9.250, 117.367 5.713, 117.639 4.750 C 117.939 3.693, 117.613 3.043, 116.817 3.109 C 116.093 3.169, 108.250 7.136, 99.389 11.924 M 101.500 14.096 L 90.500 20.120 101.500 19.457 C 107.550 19.092, 112.626 18.676, 112.781 18.532 C 113.581 17.789, 114.148 8.005, 113.389 8.036 C 112.900 8.056, 107.550 10.783, 101.500 14.096 M 130.500 20.480 L 115.500 21.500 113.962 35.750 C 113.116 43.588, 112.498 50, 112.589 50 C 112.680 50, 117.377 43.813, 123.027 36.250 C 128.676 28.688, 133.465 22.304, 133.668 22.065 C 133.871 21.826, 136.232 22.332, 138.916 23.190 C 143.752 24.737, 143.807 24.730, 145.066 22.377 C 145.765 21.071, 146.148 19.881, 145.918 19.732 C 145.688 19.582, 138.750 19.919, 130.500 20.480 M 66 24.560 C 65.175 24.740, 58.650 25.225, 51.500 25.636 L 38.500 26.384 45.602 27.270 C 52.379 28.115, 52.779 28.313, 54.344 31.596 L 55.985 35.036 61.742 32.116 C 64.909 30.511, 69.525 28.033, 72 26.610 L 76.500 24.024 72 24.128 C 69.525 24.185, 66.825 24.380, 66 24.560 M 123.150 40.564 L 111.800 56.070 119.274 68.611 C 127.913 83.106, 127.024 83.751, 129.078 61.500 L 130.278 48.500 136.139 38.151 C 139.362 32.458, 142 27.665, 142 27.498 C 142 27.142, 135.978 24.987, 135.101 25.029 C 134.770 25.045, 129.393 32.035, 123.150 40.564 M 43.753 44.822 C 37.855 47.945, 33.135 50.836, 33.264 51.246 C 33.533 52.097, 69.290 73.043, 69.727 72.606 C 69.961 72.373, 55.283 39.950, 54.664 39.331 C 54.561 39.228, 49.651 41.699, 43.753 44.822 M 97.974 74.463 C 84.602 92.485, 89.435 90.666, 59.738 88.855 C 49.409 88.225, 40.695 87.971, 40.375 88.292 C 40.055 88.612, 45.464 95.749, 52.396 104.151 C 59.328 112.553, 65 119.669, 64.999 119.964 C 64.999 120.259, 57.338 131.975, 47.976 146 L 30.954 171.500 34.027 174.281 L 37.101 177.062 40.425 174.281 C 42.253 172.751, 51 164.975, 59.864 157 L 75.979 142.500 81.075 126.500 C 83.878 117.700, 87.998 104.709, 90.229 97.631 C 92.709 89.766, 94.574 85.294, 95.025 86.131 C 95.430 86.884, 98.273 96.950, 101.342 108.500 C 106.334 127.288, 107.198 132.081, 109.545 154 C 110.988 167.475, 112.243 178.551, 112.334 178.612 C 112.425 178.674, 125.333 179.022, 141.017 179.385 L 169.535 180.046 175.181 160.773 C 178.286 150.173, 180.740 141.412, 180.634 141.304 C 180.528 141.196, 174.886 144.668, 168.097 149.018 L 155.752 156.928 139.876 141.788 C 131.144 133.462, 124 126.300, 124 125.875 C 124 125.449, 129.617 117.090, 136.483 107.300 C 148.922 89.563, 148.988 89.490, 155.233 86.788 C 158.680 85.296, 161.171 84.059, 160.769 84.038 C 160.366 84.017, 153.211 85.604, 144.867 87.564 C 132.692 90.424, 129.530 90.868, 128.851 89.814 C 128.386 89.091, 124.067 81.873, 119.253 73.774 C 114.439 65.674, 110.263 59.037, 109.974 59.024 C 109.685 59.011, 104.285 65.959, 97.974 74.463" stroke="none" fill="black" fill-rule="evenodd"/>
</svg>