<svg xmlns="http://www.w3.org/2000/svg" width="200" height="200" viewBox="0 0 200 200" version="1.1">
	<path d="M 70.698 20.983 C 58.157 21.930, 47.500 23.108, 47.017 23.602 C 46.533 24.096, 43.407 30.977, 40.069 38.893 L 34 53.285 34 81.143 C 34 106.957, 34.128 109.010, 35.750 109.132 C 36.712 109.204, 42.675 109.541, 49 109.882 L 60.500 110.500 60.776 126.465 L 61.053 142.430 40.285 163.215 C 28.863 174.647, 20.189 183.979, 21.009 183.953 C 21.829 183.927, 28.469 182.689, 35.765 181.203 L 49.031 178.500 68.146 160.573 L 87.261 142.647 94.593 127.573 L 101.925 112.500 101.233 134 C 100.852 145.825, 100.531 157.483, 100.520 159.906 L 100.500 164.313 118 175.228 C 127.625 181.232, 136.048 186.379, 136.718 186.666 C 137.613 187.051, 185.315 172.638, 186.724 171.557 C 186.950 171.383, 177.042 132.693, 176.690 132.375 C 176.586 132.281, 167.960 138.942, 157.523 147.177 C 141.255 160.014, 138.438 161.890, 137.784 160.325 C 136.586 157.457, 127.070 113.597, 127.543 113.124 C 127.776 112.891, 135.027 114.114, 143.658 115.842 C 152.288 117.570, 159.571 118.763, 159.841 118.492 C 160.111 118.222, 161.365 106.413, 162.628 92.251 C 164.895 66.818, 165.892 24.664, 164.250 23.659 C 163.838 23.407, 152.025 25.072, 138 27.361 C 118.733 30.505, 112.500 31.865, 112.500 32.928 C 112.500 33.811, 115.843 35.437, 121.500 37.304 C 126.450 38.937, 130.630 40.379, 130.788 40.508 C 130.946 40.637, 128.584 47.318, 125.538 55.355 C 122.492 63.392, 120.006 70.538, 120.013 71.234 C 120.020 71.930, 123.395 74.692, 127.513 77.371 C 131.631 80.050, 135 82.545, 135 82.916 C 135 83.286, 129.827 88.214, 123.505 93.866 L 112.011 104.143 86.505 101.355 C 72.477 99.821, 61 98.304, 61 97.984 C 61 97.663, 66.451 90.762, 73.114 82.648 C 79.777 74.534, 85.053 67.720, 84.839 67.506 C 84.625 67.291, 81.347 66.266, 77.555 65.227 L 70.660 63.339 65.737 51.669 C 62.771 44.641, 60.254 40, 59.407 40 C 58.633 40, 58 40.120, 58 40.268 C 58 40.415, 60.385 46.143, 63.301 52.998 L 68.602 65.460 73.749 67.011 C 76.580 67.864, 79.187 68.853, 79.543 69.209 C 79.898 69.565, 74.890 76.301, 68.413 84.178 C 61.937 92.055, 56.271 98.994, 55.823 99.597 C 55.250 100.369, 61.543 101.393, 77.018 103.047 C 89.124 104.341, 99.535 105.713, 100.155 106.096 C 100.910 106.562, 98.539 112.525, 92.978 124.146 L 84.675 141.500 69.772 155.500 C 47.818 176.125, 48.321 175.756, 39.862 177.487 C 35.813 178.316, 31.375 179.246, 30 179.554 C 28.235 179.949, 32.790 174.805, 45.500 162.049 L 63.500 143.984 63.811 126.141 L 64.123 108.298 57.915 107.649 C 54.500 107.292, 48.398 107, 44.353 107 L 37 107 37 80.146 L 37 53.292 42.861 39.396 L 48.723 25.500 68.865 24.087 C 79.944 23.310, 89.269 22.936, 89.589 23.256 C 89.909 23.576, 87.838 27.295, 84.987 31.520 C 81.530 36.642, 80.136 39.536, 80.802 40.202 C 81.469 40.869, 83.439 38.752, 86.713 33.851 C 94.753 21.815, 96.313 18.985, 94.832 19.131 C 94.099 19.203, 83.239 20.036, 70.698 20.983 M 141.133 29.671 C 129.931 31.453, 120.317 33.061, 119.769 33.244 C 119.220 33.427, 122.198 34.651, 126.386 35.964 C 130.574 37.278, 134 38.883, 134 39.532 C 134 40.182, 131.516 47.331, 128.480 55.419 C 125.444 63.508, 123.180 70.482, 123.448 70.916 C 123.717 71.351, 127.578 74.097, 132.029 77.019 L 140.122 82.332 137.811 84.543 C 136.540 85.758, 130.376 91.359, 124.113 96.990 C 113.230 106.773, 112.560 107.204, 108.996 106.726 L 105.267 106.226 104.612 124.363 C 104.251 134.338, 103.691 147, 103.366 152.500 L 102.776 162.500 119.322 172.756 C 128.423 178.397, 136.524 183.264, 137.324 183.571 C 138.125 183.878, 148.730 180.907, 160.890 176.968 C 178.012 171.422, 182.991 169.434, 182.961 168.153 C 182.888 165.095, 175.410 137.896, 174.632 137.860 C 174.209 137.841, 165.466 144.420, 155.204 152.480 C 143.716 161.502, 136.380 166.641, 136.118 165.853 C 134.700 161.600, 123.430 109, 123.936 109 C 124.276 109, 131.956 110.548, 141.003 112.440 C 150.051 114.332, 157.526 115.795, 157.615 115.690 C 157.705 115.586, 158.751 104.250, 159.940 90.500 C 161.480 72.701, 162.016 59.873, 161.801 45.966 L 161.500 26.431 141.133 29.671" stroke="none" fill="black" fill-rule="evenodd"/>
</svg>