<svg xmlns="http://www.w3.org/2000/svg" width="200" height="200" viewBox="0 0 200 200" version="1.1">
	<path d="M 42.031 29.981 C 30.222 36.491, 20.449 42.196, 20.311 42.658 C 20.174 43.121, 22.635 45.044, 25.781 46.931 C 28.926 48.818, 33.207 51.423, 35.294 52.721 L 39.088 55.080 27.794 64.675 C 21.582 69.953, 16.309 74.438, 16.076 74.642 C 15.843 74.847, 19.432 88.736, 24.051 105.507 C 32.209 135.126, 32.523 136.002, 34.975 136.070 C 41.880 136.263, 41.907 136.179, 27.575 158.771 C 20.168 170.447, 14.646 180.002, 15.304 180.003 C 15.962 180.005, 31.874 176.555, 50.664 172.337 L 84.828 164.668 94.662 173.897 L 104.497 183.127 124.249 143.426 C 140.264 111.236, 145.042 102.505, 149.501 97.282 C 152.525 93.739, 154.976 91.439, 154.948 92.170 C 154.919 92.902, 150.268 111.050, 144.612 132.500 L 134.329 171.500 147.926 171.776 C 155.405 171.928, 163.988 171.697, 167 171.264 L 172.475 170.476 178.183 127.488 C 181.323 103.845, 183.916 84.204, 183.946 83.842 C 184.072 82.305, 154.016 43.145, 152.341 42.662 C 143.705 40.174, 125.631 36.978, 125.096 37.845 C 124.746 38.411, 122.989 50.771, 121.192 65.313 L 117.923 91.754 109.991 110.127 L 102.059 128.500 102.046 123 C 102.038 119.975, 102.685 106.476, 103.484 93.002 L 104.936 68.503 100.317 63.814 L 95.699 59.125 96.859 53.349 L 98.019 47.573 91.788 41.286 C 85.775 35.220, 83 33.629, 83 36.250 C 83.001 38.359, 90.065 57.405, 91.439 59 C 92.507 60.241, 91.700 65.939, 86.761 92 C 83.479 109.325, 80.652 123.650, 80.480 123.833 C 80.308 124.016, 72.257 118.861, 62.590 112.376 C 52.923 105.892, 45.348 100.302, 45.757 99.955 C 46.166 99.607, 49.619 98.774, 53.431 98.103 C 60.235 96.906, 60.571 96.698, 71.868 86.692 C 78.197 81.086, 84.078 75.968, 84.937 75.317 C 85.983 74.526, 86.169 73.798, 85.500 73.118 C 84.827 72.434, 80.739 75.392, 73 82.164 C 66.675 87.698, 60.600 92.798, 59.500 93.498 C 58.400 94.197, 53.112 95.538, 47.750 96.477 C 42.388 97.416, 38 98.351, 38 98.554 C 38 99.403, 82.490 129.015, 82.678 128.292 C 82.791 127.856, 85.401 114, 88.478 97.500 C 91.555 81, 94.400 66.469, 94.800 65.209 C 95.523 62.933, 95.549 62.940, 98.783 66.276 L 102.038 69.634 100.364 100.567 L 98.690 131.500 94.345 143.870 C 89.547 157.528, 89.445 158, 91.274 158 C 91.997 158, 98.674 143.613, 106.705 124.750 L 120.862 91.500 123.947 66.067 C 125.644 52.079, 127.175 40.492, 127.349 40.318 C 127.908 39.759, 151.456 45.235, 152.696 46.212 C 153.354 46.731, 160.008 55.425, 167.483 65.531 L 181.072 83.906 175.536 125.993 C 172.491 149.142, 170 168.288, 170 168.541 C 170 168.793, 162.748 169, 153.883 169 C 139.018 169, 137.804 168.864, 138.247 167.250 C 140.726 158.218, 158.943 88.051, 159.184 86.604 C 159.895 82.338, 156.844 84.425, 149.227 93.414 C 141.630 102.379, 140.155 104.990, 122.662 140.453 C 112.475 161.104, 103.761 178, 103.297 178 C 102.833 178, 98.874 174.400, 94.500 170 C 90.126 165.600, 85.985 162, 85.297 162 C 84.610 162, 70.015 165.164, 52.865 169.030 C 35.715 172.897, 21.332 175.935, 20.904 175.780 C 20.476 175.626, 25.948 166.379, 33.063 155.232 C 40.178 144.085, 46 134.770, 46 134.532 C 46 134.294, 43.443 133.965, 40.317 133.800 L 34.634 133.500 26.840 105.500 C 22.553 90.100, 19.148 77.009, 19.273 76.409 C 19.398 75.809, 24.675 70.919, 31 65.543 C 37.325 60.167, 42.627 55.440, 42.782 55.039 C 42.937 54.638, 39.232 51.960, 34.550 49.088 C 29.867 46.216, 25.831 43.535, 25.580 43.129 C 25.125 42.393, 58.859 23.503, 59.464 24.156 C 59.640 24.345, 55.611 35.741, 50.512 49.480 C 45.412 63.220, 41.448 75.004, 41.703 75.667 C 42.351 77.358, 44.550 76.305, 44.716 74.224 C 44.820 72.917, 60.115 30.845, 64.519 19.750 C 64.901 18.788, 64.828 18.033, 64.357 18.073 C 63.886 18.113, 53.839 23.472, 42.031 29.981 M 89.757 48.267 C 91.266 52.515, 92.779 55.992, 93.119 55.995 C 93.460 55.998, 94.013 54.313, 94.349 52.250 C 94.904 48.850, 94.590 48.129, 90.987 44.522 L 87.014 40.543 89.757 48.267" stroke="none" fill="black" fill-rule="evenodd"/>
</svg>