<svg xmlns="http://www.w3.org/2000/svg" width="200" height="200" viewBox="0 0 200 200" version="1.1">
	<path d="M 83.427 16.528 C 84.338 17.919, 84.830 19.466, 84.521 19.967 C 84.211 20.467, 84.579 21.242, 85.338 21.689 C 86.097 22.135, 88.593 25.935, 90.885 30.133 L 95.052 37.765 90.386 38.465 C 86.972 38.977, 85.493 38.807, 84.875 37.832 C 84.055 36.538, 83.587 33.435, 83.934 31.592 C 84.029 31.092, 83.710 30.417, 83.227 30.092 C 82.744 29.766, 81.671 27.025, 80.842 24 C 79.874 20.464, 78.740 18.385, 77.668 18.177 C 76.287 17.909, 76 18.727, 76 22.927 C 76 26.319, 75.586 28, 74.750 28 C 74.063 28, 62.524 25.975, 49.108 23.500 C 35.693 21.025, 24.622 19, 24.507 19 C 24.392 19, 23.975 31.793, 23.580 47.428 L 22.863 75.856 33.843 93.114 L 44.824 110.373 42.987 114.937 C 41.977 117.446, 35.958 132.245, 29.611 147.822 C 23.263 163.398, 18.443 175.998, 18.898 175.822 C 19.353 175.645, 25.241 173.027, 31.983 170.003 L 44.240 164.507 58.369 136.503 L 72.499 108.500 73.118 120 C 74.624 147.975, 74.396 151.056, 69.533 168.453 C 67.080 177.228, 65.255 184.589, 65.478 184.812 C 66.054 185.387, 109.040 148.060, 109.658 146.448 C 109.940 145.714, 109.452 141.643, 108.575 137.401 C 107.697 133.158, 107.169 129.498, 107.401 129.266 C 107.632 129.034, 108.375 131.318, 109.052 134.342 C 109.729 137.365, 110.567 140.299, 110.915 140.862 C 111.345 141.559, 115.785 141.525, 124.802 140.755 C 139.935 139.463, 138.468 140.766, 139.542 127.676 C 139.896 123.372, 140.305 119.997, 140.452 120.176 C 142.015 122.076, 158.108 152.226, 157.749 152.584 C 157.485 152.849, 151.965 151.919, 145.483 150.517 C 139.001 149.116, 133.549 148.118, 133.367 148.300 C 133.062 148.604, 152.345 185.679, 153.309 186.642 C 153.543 186.876, 160.343 176.636, 168.421 163.887 L 183.109 140.706 181.501 109.603 C 179.963 79.832, 179.977 77.258, 181.839 49.500 C 182.909 33.550, 183.649 20.354, 183.484 20.175 C 183.318 19.996, 174.029 21.685, 162.841 23.928 C 151.654 26.171, 141.375 28.018, 140 28.031 C 138.625 28.045, 127.942 26.388, 116.260 24.348 C 98.854 21.310, 94.920 20.322, 94.461 18.877 C 94.117 17.792, 91.840 16.514, 88.547 15.557 C 81.588 13.534, 81.478 13.555, 83.427 16.528 M 88.768 19.168 C 89.350 19.750, 90.415 20.028, 91.137 19.788 C 91.886 19.538, 91.432 19.085, 90.080 18.731 C 88.417 18.296, 88.026 18.426, 88.768 19.168 M 26.655 39.383 C 26.298 48.798, 26.005 60.794, 26.003 66.041 L 26 75.583 36.940 92.906 L 47.881 110.229 46.014 114.864 C 44.987 117.414, 39.424 131.066, 33.652 145.203 L 23.157 170.906 28.828 168.334 C 31.948 166.920, 36.179 165.029, 38.231 164.131 C 41.774 162.582, 42.787 160.871, 58.344 130.139 L 74.727 97.779 75.340 107.639 C 75.677 113.063, 76.235 125.150, 76.581 134.500 L 77.209 151.500 73.605 164.245 C 71.622 171.255, 70 177.244, 70 177.555 C 70 177.866, 78.212 171.034, 88.250 162.373 C 98.287 153.713, 106.693 146.480, 106.930 146.301 C 107.166 146.121, 105.162 134.730, 102.478 120.987 L 97.596 96 94.548 95.951 C 88.512 95.853, 59.985 93.319, 59.504 92.838 C 59.234 92.567, 66.607 88.864, 75.889 84.609 L 92.766 76.873 90.389 68.186 C 83.922 44.551, 83.542 43.516, 81.215 43.180 C 79.041 42.867, 78.998 43.078, 78.883 54.680 C 78.819 61.181, 78.481 69.378, 78.133 72.896 L 77.500 79.292 59.500 64.563 C 49.600 56.463, 41.372 49.487, 41.215 49.062 C 41.058 48.637, 48.708 46.747, 58.215 44.861 L 75.500 41.433 75.802 36.216 C 75.969 33.347, 75.723 31, 75.256 31 C 74.469 31, 32.467 23.406, 28.902 22.620 C 27.506 22.311, 27.223 24.428, 26.655 39.383 M 92.204 26.933 C 93.449 29.096, 94.573 30.761, 94.701 30.632 C 95.476 29.857, 92.423 23, 91.302 23 C 90.306 23, 90.548 24.055, 92.204 26.933 M 161.500 26.942 L 143.500 30.596 143.860 52.672 C 144.114 68.272, 143.701 80.606, 142.451 94.717 L 140.682 114.687 152.212 135.593 C 158.553 147.092, 163.611 156.651, 163.452 156.835 C 163.294 157.019, 157.873 156.006, 151.408 154.585 C 144.942 153.163, 139.263 152, 138.789 152 C 137.790 152, 152.501 180.334, 153.708 180.736 C 154.150 180.883, 155.679 179.091, 157.105 176.752 C 158.531 174.413, 164.333 165.169, 169.997 156.208 L 180.296 139.916 178.686 109.708 C 177.075 79.476, 177.333 67.512, 180.420 29.250 C 180.698 25.813, 180.604 23.065, 180.212 23.144 C 179.821 23.223, 171.400 24.932, 161.500 26.942 M 96.373 25.750 C 96.652 26.712, 97.375 29.413, 97.979 31.750 C 98.861 35.164, 99.512 35.991, 101.289 35.953 C 105.743 35.858, 130.454 30.258, 129 29.673 C 127.315 28.996, 99.334 24, 97.223 24 C 96.403 24, 96.066 24.693, 96.373 25.750 M 119.728 35.342 C 101.999 38.880, 100.016 39.474, 100.532 41.099 C 101.578 44.396, 137.435 108.898, 137.941 108.393 C 140.089 106.244, 141.996 41.477, 140.132 33.949 L 139.500 31.398 119.728 35.342 M 79 36.269 C 79 40.077, 79.286 40.827, 80.552 40.342 C 81.709 39.898, 81.936 38.953, 81.446 36.623 C 80.348 31.401, 79 31.205, 79 36.269 M 90.204 41.175 C 86.865 41.922, 86.021 42.510, 86.415 43.818 C 86.693 44.743, 88.744 51.993, 90.972 59.928 C 93.200 67.863, 95.244 74.577, 95.514 74.848 C 95.909 75.242, 106 71.061, 106 70.502 C 106 69.619, 99.590 47.470, 98.402 44.250 C 96.728 39.710, 96.737 39.714, 90.204 41.175 M 61.225 46.959 C 53.923 48.476, 47.726 49.941, 47.453 50.214 C 47.013 50.654, 71.329 71.273, 74.679 73.300 C 75.751 73.948, 76 71.260, 76 59.050 C 76 50.772, 75.662 44.045, 75.250 44.101 C 74.838 44.156, 68.526 45.443, 61.225 46.959 M 107.071 63.747 C 108.132 67.458, 109 70.990, 109 71.597 C 109 72.204, 106.050 73.954, 102.445 75.486 C 98.695 77.080, 96.080 78.766, 96.333 79.426 C 96.577 80.062, 100.491 93.759, 105.030 109.865 L 113.284 139.149 117.892 138.598 C 120.426 138.295, 125.537 137.759, 129.250 137.407 C 135.694 136.796, 136.002 136.648, 136.054 134.134 C 136.084 132.685, 136.500 127.900, 136.979 123.500 L 137.851 115.500 121.819 86.250 C 113.001 70.162, 105.642 57, 105.464 57 C 105.286 57, 106.009 60.036, 107.071 63.747 M 81.229 85.221 C 74.499 88.312, 70.470 90.676, 71.229 91.088 C 73.113 92.113, 97 93.353, 97 92.426 C 97 90.593, 93.685 80.002, 93.118 80.023 C 92.778 80.035, 87.428 82.374, 81.229 85.221" stroke="none" fill="black" fill-rule="evenodd"/>
</svg>