<svg xmlns="http://www.w3.org/2000/svg" width="200" height="200" viewBox="0 0 200 200" version="1.1">
	<path d="M 125 14.964 C 90.793 20.981, 41.737 30.348, 38.195 31.540 C 37.257 31.856, 37.709 33.178, 39.801 36.240 L 42.711 40.500 34.358 69.419 C 29.764 85.324, 26.116 98.444, 26.252 98.574 C 26.389 98.704, 30.775 97.052, 36 94.903 L 45.500 90.995 29.500 106.453 C 20.700 114.954, 13.878 121.930, 14.340 121.955 C 17.455 122.122, 48.831 127.236, 50.196 127.800 C 51.610 128.384, 48.999 132.982, 34.464 155.500 C 24.879 170.350, 17.029 182.817, 17.019 183.205 C 17.008 183.593, 31.063 179.160, 48.250 173.355 L 79.500 162.800 88.745 153.150 L 97.990 143.500 97.432 139 L 96.875 134.500 102.687 140.719 L 108.500 146.939 125.500 142.719 L 142.500 138.500 143 129.643 L 143.500 120.786 148.891 137.143 C 151.856 146.139, 154.462 153.984, 154.681 154.575 C 154.901 155.167, 149.443 157.865, 142.543 160.575 C 135.647 163.284, 130.004 165.737, 130.003 166.027 C 130.001 166.316, 140.012 168.037, 152.250 169.851 C 164.488 171.664, 175.512 173.388, 176.750 173.682 L 179 174.217 179.124 136.358 C 179.192 115.536, 179.530 86.350, 179.874 71.500 L 180.500 44.500 172.810 26.520 C 168.580 16.631, 164.755 8.462, 164.310 8.366 C 163.864 8.271, 146.175 11.240, 125 14.964 M 160.500 11.551 C 159.950 11.763, 146.225 14.207, 130 16.984 C 101.434 21.872, 42.887 32.938, 42.125 33.594 C 41.919 33.771, 42.637 35.316, 43.720 37.026 L 45.689 40.136 37.951 66.818 C 33.695 81.493, 30.322 93.619, 30.455 93.766 C 30.589 93.912, 35.603 91.968, 41.599 89.448 C 51.886 85.122, 53.092 84.296, 63 74.791 C 73.416 64.797, 73.459 64.172, 63.282 70.682 C 60.377 72.541, 58 73.788, 58 73.453 C 58 73.118, 62.292 64.590, 67.539 54.503 L 77.077 36.161 85.789 34.180 C 110.565 28.544, 131.211 24.780, 132.042 25.748 C 132.397 26.162, 135.458 36.400, 138.845 48.500 L 145.004 70.500 144.141 91 L 143.278 111.500 150.616 133.973 C 154.652 146.333, 157.627 156.759, 157.227 157.141 C 156.827 157.523, 152.679 159.412, 148.009 161.338 C 138.103 165.424, 137.285 164.959, 160.250 168.301 L 176 170.593 176.033 143.047 C 176.051 127.896, 176.470 99.607, 176.962 80.182 L 177.858 44.863 170.641 28.252 C 163.715 12.311, 162.733 10.693, 160.500 11.551 M 123.081 29.374 C 120.101 30, 117.513 30.962, 117.330 31.511 C 117.146 32.061, 122.334 48.483, 128.858 68.005 L 140.720 103.500 141.474 86.925 L 142.227 70.349 136.280 49.480 C 133.009 38.002, 129.920 28.527, 129.416 28.424 C 128.912 28.321, 126.062 28.749, 123.081 29.374 M 105.658 38.111 C 100.186 43.152, 97.986 45.839, 98.311 47.081 C 98.655 48.397, 97.190 49.824, 92.637 52.610 C 87.076 56.013, 60.484 79.817, 61.315 80.649 C 61.507 80.840, 65.801 79.202, 70.859 77.008 L 80.055 73.019 99.028 75.659 C 112.989 77.602, 118 78.656, 118 79.650 C 118 81.333, 119.861 81.450, 98.695 78.429 L 80.684 75.858 69.394 80.609 C 63.185 83.222, 58.292 85.663, 58.521 86.034 C 58.750 86.405, 66.555 91.316, 75.865 96.948 L 92.793 107.187 93.396 112.594 C 95.318 129.807, 94.571 127.839, 102.344 136.159 L 109.500 143.819 124.500 140.144 L 139.500 136.469 140.062 124.484 L 140.624 112.500 127.046 71.707 L 113.468 30.914 105.658 38.111 M 92.687 35.346 L 78.874 38.500 71.957 51.937 C 68.153 59.327, 65.204 65.538, 65.405 65.739 C 65.774 66.107, 80.591 57.048, 84.747 53.912 C 88.404 51.153, 108.243 31.991, 107.334 32.096 C 106.875 32.149, 100.284 33.612, 92.687 35.346 M 36.526 103.412 C 19.864 119.442, 19.606 119.753, 22.526 120.333 C 24.162 120.659, 32.025 121.899, 40 123.091 C 47.975 124.282, 54.875 125.597, 55.333 126.012 C 55.791 126.427, 49.128 137.696, 40.527 151.055 C 31.925 164.413, 24.451 176.158, 23.918 177.154 C 23.169 178.553, 29.248 176.807, 50.716 169.453 C 81.052 159.062, 80.536 159.351, 91.135 146.798 L 95.105 142.096 93.990 135.942 C 92.878 129.815, 92.790 129.695, 73.687 108.479 C 63.134 96.759, 54.275 87.150, 54 87.126 C 53.725 87.101, 45.862 94.430, 36.526 103.412 M 64.637 94.259 C 65.616 95.892, 91.257 124.111, 91.448 123.766 C 91.529 123.620, 91.349 120.233, 91.048 116.241 L 90.500 108.981 77.197 101 C 69.880 96.610, 64.228 93.577, 64.637 94.259" stroke="none" fill="black" fill-rule="evenodd"/>
</svg>