<svg xmlns="http://www.w3.org/2000/svg" width="200" height="200" viewBox="0 0 200 200" version="1.1">
	<path d="M 123 15.522 L 92.500 17.797 68.031 27.399 C 54.573 32.679, 43.084 37, 42.499 37 C 41.873 37, 40.090 46.727, 38.147 60.750 C 36.337 73.813, 34.633 85.287, 34.361 86.250 C 34.048 87.355, 34.414 88, 35.353 88 C 37.160 88, 37.297 87.345, 40.493 63.500 C 43.521 40.909, 43.879 39, 45.085 39 C 45.594 39, 56.921 34.767, 70.256 29.593 L 94.500 20.186 125.779 18.052 C 142.983 16.878, 157.608 16.233, 158.279 16.618 C 158.951 17.002, 163.714 20.277, 168.864 23.895 L 178.228 30.473 177.587 61.987 C 177.129 84.527, 177.355 100.192, 178.379 117 L 179.812 140.500 170.186 162.250 C 164.893 174.213, 160.313 184, 160.010 184 C 159.144 184, 133 158.924, 133 158.094 C 133 157.686, 140.200 159.219, 149 161.500 C 158.184 163.881, 165 165.201, 165 164.600 C 165 164.023, 160.209 149.815, 154.353 133.026 L 143.706 102.500 144.357 79.169 L 145.009 55.839 135.845 40.562 L 126.682 25.286 121.722 26.872 C 118.994 27.744, 116.571 28.953, 116.339 29.559 C 116.107 30.165, 121.560 46.923, 128.458 66.800 C 138.788 96.567, 141 103.940, 141 108.609 C 141 113.786, 140.254 115.702, 132.394 130.732 C 127.660 139.782, 123.452 146.808, 123.042 146.344 C 121.581 144.689, 105.995 104.460, 105.997 102.349 C 105.999 101.166, 107.823 90.877, 110.051 79.483 C 112.279 68.090, 113.958 58.625, 113.782 58.448 C 113.606 58.272, 108.520 58.785, 102.481 59.587 C 96.441 60.389, 90.600 60.968, 89.500 60.874 C 88.400 60.780, 86.825 60.968, 86 61.291 C 84.443 61.902, 67.704 63.879, 67.232 63.508 C 67.084 63.392, 75.745 55.488, 86.477 45.944 C 99.339 34.506, 105.654 28.254, 105.002 27.602 C 104.350 26.950, 103.074 27.476, 101.257 29.144 C 99.740 30.536, 89.402 39.631, 78.281 49.354 L 58.063 67.033 60.889 74.767 C 62.444 79.020, 66.088 89.652, 68.988 98.393 C 72.223 108.144, 74.544 113.747, 74.994 112.893 C 75.397 112.127, 78.353 101.938, 81.563 90.250 C 84.773 78.563, 87.670 69, 88 69 C 88.988 69, 102.220 102.651, 101.845 104.212 C 101.655 105.004, 95.048 115.967, 87.162 128.576 C 73.596 150.268, 72.494 151.723, 66.662 155.640 C 63.273 157.916, 54.440 163.947, 47.032 169.040 C 36.033 176.604, 34.108 177.643, 36.532 174.711 C 50.479 157.838, 50.681 157.514, 60.919 135.500 C 66.546 123.400, 71.229 113.128, 71.325 112.673 C 71.421 112.219, 61.514 111.904, 49.310 111.973 L 27.120 112.099 26.810 107.877 C 26.406 102.377, 23.995 101.333, 24.014 106.667 C 24.021 108.775, 24.317 111.581, 24.670 112.903 L 25.313 115.306 46.157 114.636 C 58.370 114.243, 67 114.339, 67 114.868 C 67 115.364, 62.749 124.934, 57.553 136.135 C 48.271 156.143, 47.902 156.743, 36.498 170.395 C 29.200 179.131, 25.242 184.642, 25.837 185.237 C 26.432 185.832, 35.690 180.115, 50.773 169.841 L 74.764 153.500 89.366 130.127 C 100.630 112.098, 104.128 107.183, 104.666 108.627 C 109.200 120.796, 122.821 153.061, 123.322 152.818 C 123.684 152.643, 132.293 160.804, 142.453 170.953 C 152.614 181.103, 161.085 189.203, 161.279 188.953 C 161.473 188.704, 166.294 178.037, 171.992 165.250 L 182.352 142 181.034 114.949 C 180.137 96.532, 179.947 78.540, 180.439 58.580 L 181.162 29.261 169.625 21.131 C 162.611 16.187, 157.189 13.048, 155.794 13.123 C 154.532 13.191, 139.775 14.270, 123 15.522 M 120.750 29.689 C 119.787 29.941, 119 30.401, 119 30.711 C 119 31.021, 123.838 45.196, 129.750 62.209 L 140.500 93.144 141.141 87.322 C 141.494 84.120, 141.832 75.798, 141.891 68.830 L 142 56.159 133.866 42.580 C 125.814 29.137, 125.194 28.528, 120.750 29.689 M 96.185 63.023 C 93.261 63.449, 90.653 64.014, 90.388 64.279 C 90.123 64.543, 92.952 72.352, 96.674 81.630 C 100.396 90.909, 103.581 97.825, 103.753 97 C 103.924 96.175, 105.552 87.963, 107.371 78.750 L 110.678 62 106.089 62.125 C 103.565 62.193, 99.108 62.598, 96.185 63.023 M 73.558 65.653 C 67.540 66.422, 62.370 67.297, 62.068 67.598 C 61.767 67.900, 63.920 75.201, 66.852 83.823 C 75.268 108.568, 73.753 108.326, 79.918 85.914 C 82.855 75.236, 85.473 65.938, 85.736 65.250 C 85.999 64.563, 85.828 64.058, 85.357 64.128 C 84.886 64.199, 79.576 64.885, 73.558 65.653 M 134.516 132.508 C 129.025 143.154, 124.750 152.041, 125.016 152.255 C 126.186 153.197, 161 161.718, 161 161.062 C 161 160.660, 157.470 150.244, 153.156 137.916 C 148.842 125.587, 145.130 114.971, 144.906 114.325 C 144.683 113.679, 140.007 121.862, 134.516 132.508" stroke="none" fill="black" fill-rule="evenodd"/>
</svg>