<svg xmlns="http://www.w3.org/2000/svg" width="200" height="200" viewBox="0 0 200 200" version="1.1">
	<path d="M 64.131 10.728 C 63.604 12.803, 62.171 19.220, 60.946 24.990 C 58.736 35.405, 58.626 35.628, 45.496 56.490 C 33.667 75.284, 25.615 89.623, 22.941 96.656 C 21.813 99.622, 19.669 100.892, 44.562 83.852 C 64.077 70.494, 64.805 69.869, 78.868 54.352 C 86.770 45.634, 93.520 38.401, 93.868 38.279 C 94.215 38.157, 102.231 45.582, 111.679 54.779 L 128.858 71.500 128.311 77.720 C 127.667 85.047, 127.929 84.892, 115.045 85.511 C 110.010 85.752, 105.544 86.164, 105.122 86.425 C 102.874 87.814, 60.842 90.854, 42.177 90.978 C 35.630 91.021, 39.166 93.994, 54 100.918 C 63.656 105.425, 68.403 108.156, 68.211 109.093 C 68.052 109.867, 63.552 120.140, 58.211 131.923 L 48.500 153.346 33.125 169.156 C 21.642 180.966, 18.151 185.121, 19.333 185.574 C 21.062 186.238, 58.386 168.912, 61.169 166.154 C 62.087 165.244, 68.572 156.184, 75.579 146.021 C 85.574 131.525, 90.279 123.485, 97.410 108.721 L 106.500 89.899 116.750 105.955 C 122.387 114.785, 127 122.459, 127 123.008 C 127 123.557, 120.813 131.238, 113.250 140.077 C 99.978 155.588, 90.793 169.314, 92.619 170.907 C 94.032 172.140, 135.272 179.132, 136.086 178.276 C 136.493 177.849, 140.240 166.629, 144.413 153.343 L 152 129.185 152 107.629 L 152 86.073 142 78.500 C 134.089 72.509, 132 70.412, 132 68.463 C 132 67.109, 132.267 66, 132.594 66 C 132.920 66, 139.932 72.412, 148.176 80.250 C 156.420 88.088, 163.488 94.620, 163.883 94.767 C 164.684 95.064, 191.208 61.615, 191.172 60.351 C 191.098 57.685, 188.170 60.704, 177 74.964 C 170.125 83.741, 164.177 90.828, 163.781 90.711 C 163.386 90.595, 156.045 83.975, 147.468 76 L 131.874 61.500 132.557 52 C 132.932 46.775, 133.312 42.410, 133.402 42.300 C 133.492 42.191, 142.098 47.440, 152.527 53.964 C 164.936 61.728, 171.731 65.436, 172.190 64.693 C 172.576 64.069, 172.803 63.491, 172.696 63.410 C 168.015 59.874, 131.632 38.034, 131.178 38.489 C 130.817 38.850, 130.291 43.275, 130.010 48.323 L 129.499 57.500 127.380 52 C 126.215 48.975, 123.065 40.485, 120.381 33.133 C 116.819 23.377, 114.960 19.568, 113.500 19.036 C 112.400 18.635, 103.175 17.533, 93 16.587 L 74.500 14.868 69.794 10.912 L 65.089 6.956 64.131 10.728 M 66.500 13 C 66.160 13.550, 66.610 14, 67.500 14 C 68.390 14, 68.840 13.550, 68.500 13 C 68.160 12.450, 67.710 12, 67.500 12 C 67.290 12, 66.840 12.450, 66.500 13 M 63.557 26.250 C 61.779 35.267, 61.386 36.055, 47.982 57.500 C 35.692 77.162, 29 88.805, 29 90.524 C 29 90.849, 36.489 86.029, 45.642 79.814 C 61.481 69.058, 63.006 67.722, 77.272 52.104 L 92.262 35.694 85.881 29.830 C 80.944 25.293, 67.910 17, 65.716 17 C 65.532 17, 64.561 21.163, 63.557 26.250 M 78.904 19.384 C 79.608 20.232, 84.418 23.209, 89.592 25.998 C 94.766 28.788, 99 31.356, 99 31.706 C 99 32.056, 98.306 33.110, 97.457 34.047 C 96.036 35.618, 97.200 36.984, 112.207 51.374 C 123.533 62.234, 128.606 66.500, 128.849 65.367 C 129.040 64.471, 128.709 62.784, 128.111 61.619 C 127.514 60.453, 123.928 50.950, 120.142 40.500 L 113.259 21.500 102.880 20.377 C 78.579 17.748, 77.509 17.704, 78.904 19.384 M 90.646 31.012 C 91.826 32.235, 93.401 33.031, 94.146 32.779 C 94.963 32.504, 94.112 31.622, 92 30.556 L 88.500 28.789 90.646 31.012 M 130.798 80.203 L 130.500 86.452 126.500 87.107 C 124.300 87.467, 119.494 88.073, 115.821 88.453 L 109.141 89.144 120.094 106.191 C 129.380 120.644, 130.853 123.477, 129.774 124.803 C 129.073 125.664, 122.517 133.361, 115.203 141.909 C 102.511 156.743, 95.109 167.623, 96.742 169.043 C 97.519 169.719, 134.165 176.252, 134.461 175.768 C 134.551 175.621, 137.864 165.150, 141.823 152.500 L 149.021 129.500 149.010 108.371 L 149 87.242 141.291 81.371 C 137.051 78.142, 133.022 75.152, 132.339 74.727 C 131.410 74.149, 131.021 75.528, 130.798 80.203 M 93 91.024 C 89.975 91.432, 78.388 92.112, 67.250 92.536 C 56.112 92.960, 47 93.612, 47 93.986 C 47 94.360, 52.625 97.282, 59.500 100.480 C 66.375 103.678, 72 106.751, 72 107.308 C 72 107.866, 67.213 118.712, 61.363 131.411 L 50.727 154.500 38.613 167.409 C 31.951 174.509, 26.996 180.134, 27.603 179.909 C 28.209 179.684, 35.634 176.172, 44.103 172.104 L 59.500 164.708 72.813 145.319 C 83.178 130.222, 87.994 122.035, 94.563 108.340 C 99.203 98.665, 103 90.581, 103 90.375 C 103 89.893, 99.885 90.095, 93 91.024" stroke="none" fill="black" fill-rule="evenodd"/>
</svg>