<svg xmlns="http://www.w3.org/2000/svg" width="200" height="200" viewBox="0 0 200 200" version="1.1">
	<path d="M 36.991 13.489 C 36.987 14.045, 36.527 19.646, 35.971 25.935 C 34.970 37.245, 34.992 37.471, 37.964 46.435 C 40.562 54.270, 41.102 57.844, 41.942 72.766 L 42.915 90.032 30.928 107.102 L 18.941 124.173 26.881 132.836 C 38.303 145.300, 41.648 148.336, 43.022 147.487 C 43.808 147.001, 40.425 142.943, 33.131 135.624 L 22.045 124.500 33.869 107.500 L 45.692 90.500 44.800 73 C 44.019 57.674, 43.534 54.359, 40.894 46.315 C 37.989 37.468, 37.908 36.735, 38.689 26.358 L 39.500 15.586 45 15.858 C 48.025 16.008, 76.276 17.883, 107.779 20.024 L 165.059 23.917 167.679 27.030 C 169.120 28.742, 172.076 32.249, 174.248 34.822 L 178.198 39.500 177.555 75.500 C 177.202 95.300, 176.145 122.738, 175.206 136.473 L 173.500 161.446 152.500 166.173 C 140.950 168.773, 131.135 170.922, 130.689 170.950 C 130.243 170.977, 133.843 166.145, 138.689 160.211 L 147.500 149.423 153.454 119.305 L 159.407 89.187 151.064 65.843 C 146.475 53.005, 142.510 41.938, 142.253 41.250 C 141.938 40.406, 142.877 39.997, 145.143 39.991 C 152.415 39.972, 159 38.722, 159 37.361 C 159 36.612, 158.613 36, 158.139 36 C 157.052 36, 56.991 24.270, 51.250 23.470 C 47.816 22.991, 47 23.176, 47 24.434 C 47 25.458, 54.098 29.555, 67.750 36.410 C 79.162 42.140, 89.263 47.430, 90.196 48.164 C 91.738 49.379, 90.595 51.582, 77.577 72.500 C 69.704 85.150, 63.383 95.641, 63.529 95.814 C 63.676 95.987, 70.424 93.442, 78.524 90.157 L 93.254 84.186 92.684 89.343 C 92.370 92.179, 91.565 100.800, 90.895 108.500 C 90.224 116.200, 89.526 122.685, 89.344 122.911 C 89.161 123.136, 88.222 122.642, 87.256 121.811 C 86.290 120.981, 79.931 116.369, 73.125 111.564 L 60.750 102.826 61.485 134.193 L 62.220 165.560 46.904 171.648 C 38.480 174.996, 31.418 178.245, 31.211 178.868 C 30.554 180.838, 32.970 180.153, 49.176 173.776 L 64.994 167.552 64.336 138.276 C 63.974 122.174, 63.896 109, 64.164 109 C 64.431 109, 70.674 113.254, 78.038 118.453 C 85.402 123.652, 91.526 127.808, 91.645 127.688 C 92.058 127.275, 96.109 81.826, 95.805 81.019 C 95.637 80.575, 90.129 82.423, 83.565 85.127 C 77 87.831, 71.300 89.921, 70.897 89.772 C 70.493 89.622, 75.918 80.275, 82.951 69 C 89.984 57.725, 95.536 48.147, 95.288 47.714 C 95.041 47.282, 86.276 42.643, 75.811 37.406 C 65.347 32.168, 56.985 27.681, 57.231 27.436 C 57.679 26.987, 137.139 36.095, 137.917 36.684 C 139.041 37.536, 136.009 37.958, 117.500 39.525 C 106.500 40.457, 97.293 41.414, 97.040 41.653 C 96.787 41.891, 99.311 47.580, 102.650 54.293 L 108.719 66.500 104.435 97.850 L 100.151 129.199 85.002 155.726 C 75.178 172.929, 70.195 182.595, 70.827 183.227 C 71.458 183.858, 78.777 179.264, 91.650 170.159 L 111.500 156.118 122.733 124.809 L 133.965 93.500 136.565 71.500 C 137.994 59.400, 139.489 48.416, 139.885 47.092 C 140.456 45.183, 142.264 49.325, 148.606 67.081 L 156.607 89.478 150.690 119.071 L 144.773 148.664 133.991 161.582 C 128.060 168.687, 123.550 174.630, 123.968 174.788 C 124.745 175.082, 175.183 164.150, 175.774 163.559 C 176.739 162.594, 180.062 99.990, 180.645 71.812 L 181.320 39.124 173.981 30.312 C 169.945 25.465, 166.606 21.420, 166.561 21.323 C 166.484 21.156, 94.551 16.203, 55.250 13.659 C 43.059 12.870, 36.997 12.813, 36.991 13.489 M 115.333 42.399 C 108.091 43.005, 101.876 43.791, 101.521 44.146 C 101.167 44.500, 103.154 49.329, 105.938 54.877 C 108.722 60.425, 111 66.203, 111 67.717 C 111 69.231, 109.160 83.886, 106.912 100.283 L 102.823 130.096 89.412 153.526 C 82.035 166.413, 76 177.184, 76 177.462 C 76 177.893, 106.212 156.946, 108.203 155.134 C 108.590 154.782, 113.849 140.995, 119.889 124.497 L 130.872 94.500 134.265 67.750 L 137.658 41 133.079 41.148 C 130.561 41.229, 122.575 41.792, 115.333 42.399" stroke="none" fill="black" fill-rule="evenodd"/>
</svg>