<svg xmlns="http://www.w3.org/2000/svg" width="200" height="200" viewBox="0 0 200 200" version="1.1">
	<path d="M 115.888 14.750 C 115.304 16.262, 112.788 23.125, 110.298 30 C 107.808 36.875, 105.480 43.039, 105.125 43.698 C 104.699 44.488, 97.853 40.322, 85.023 31.465 C 74.322 24.077, 65.271 18.363, 64.908 18.766 C 64.546 19.170, 63.203 25.019, 61.925 31.765 C 60.646 38.510, 59.353 44.404, 59.050 44.862 C 58.748 45.320, 48.150 47.596, 35.500 49.919 C 8.682 54.845, 9.291 54.691, 10.780 56.180 C 11.599 56.999, 14.093 56.871, 20.197 55.696 C 24.764 54.817, 35.987 52.685, 45.138 50.960 L 61.775 47.822 64.022 36.161 C 65.259 29.747, 66.613 24.119, 67.032 23.653 C 67.704 22.907, 75.063 27.709, 97.736 43.687 L 103.973 48.081 102.669 51.276 L 101.365 54.471 67.183 54.134 C 36.365 53.831, 33 53.955, 33 55.399 C 33 56.835, 36.448 57, 66.500 57 C 88.862 57, 100 57.343, 100 58.032 C 100 58.600, 99.337 60.650, 98.527 62.589 L 97.054 66.114 78.277 65.544 C 67.950 65.230, 54.001 64.733, 47.281 64.440 C 35.162 63.911, 35.057 63.926, 34.517 66.203 C 34.217 67.466, 31.492 79.252, 28.462 92.394 L 22.953 116.288 26.534 155.368 C 28.503 176.862, 30.237 194.570, 30.386 194.719 C 30.535 194.869, 37.597 182.118, 46.079 166.384 L 61.500 137.777 61.769 160.466 C 61.921 173.299, 62.427 183.012, 62.935 182.827 C 63.428 182.647, 71.069 175.597, 79.916 167.159 C 94.550 153.202, 96 151.511, 96 148.409 L 96 145 102.250 144.995 C 105.688 144.992, 112.798 144.705, 118.050 144.357 L 127.600 143.725 130.472 153.112 C 132.811 160.757, 134.920 164.868, 141.828 175.250 C 146.494 182.263, 150.579 187.994, 150.906 187.987 C 151.233 187.979, 156.344 173.917, 162.264 156.737 L 173.027 125.500 173.014 92.750 L 173 60 170.830 60 C 167.901 60, 119.342 63.870, 115.250 64.430 C 111.286 64.972, 111.243 64.397, 114.941 60.333 L 117.823 57.167 145.411 56.439 C 166.556 55.882, 173 55.417, 173 54.451 C 173 53.744, 167.839 51.365, 161.250 49.035 L 149.500 44.879 145 37.378 C 142.525 33.253, 140.024 29.471, 139.441 28.975 C 138.749 28.385, 134.658 32.560, 127.622 41.036 L 116.862 54 110.931 54 C 106.434 54, 105 53.652, 105 52.559 C 105 50.429, 106.875 49.651, 108.586 51.072 C 109.478 51.811, 110.437 51.948, 110.954 51.408 C 111.749 50.578, 119.013 16.146, 119.004 13.250 C 118.997 10.976, 116.969 11.953, 115.888 14.750 M 129.119 43.312 L 120.738 53.500 131.619 53.819 C 137.604 53.995, 147.225 53.820, 153 53.431 L 163.500 52.724 155.764 50.112 C 148.078 47.517, 148.001 47.455, 143.717 40.568 C 141.346 36.755, 138.977 33.520, 138.453 33.380 C 137.929 33.239, 133.729 37.709, 129.119 43.312 M 109.241 40.996 C 107.972 44.524, 107.490 47.185, 108.058 47.536 C 109.111 48.186, 109.304 47.726, 110.956 40.628 C 112.545 33.802, 111.770 33.968, 109.241 40.996 M 102.201 60.321 C 100.538 64.920, 100.576 65, 104.416 65 C 107.207 65, 108.412 64.268, 111 61 L 114.168 57 108.785 57 C 103.596 57, 103.359 57.120, 102.201 60.321 M 135.254 65.451 C 120.818 66.665, 108.706 67.961, 108.337 68.330 C 107.968 68.698, 108.304 69.023, 109.083 69.051 C 114.805 69.257, 132.185 70.851, 132.536 71.203 C 132.776 71.443, 133.277 87.921, 133.648 107.820 C 134.270 141.149, 134.192 144, 132.662 144 C 130.543 144, 130.545 144.023, 133.414 153.322 C 135.072 158.697, 137.967 164.402, 142.664 171.555 C 146.424 177.280, 149.740 181.973, 150.033 181.982 C 150.327 181.992, 155.126 168.613, 160.698 152.250 L 170.829 122.500 170.296 92.750 L 169.764 63 165.632 63.121 C 163.359 63.188, 149.689 64.236, 135.254 65.451 M 36.675 69.238 C 36.373 70.482, 33.801 81.582, 30.958 93.905 L 25.789 116.311 28.948 150.876 C 30.686 169.887, 32.196 185.519, 32.304 185.615 C 32.412 185.711, 39.091 173.574, 47.146 158.645 C 55.547 143.075, 62.469 131.364, 63.378 131.180 C 64.782 130.897, 64.993 133.517, 65.231 154.180 L 65.500 177.500 79.752 163.544 C 91.376 152.162, 93.885 149.212, 93.357 147.548 C 93 146.426, 92.142 145.056, 91.448 144.504 C 90.755 143.952, 85.820 136.764, 80.481 128.530 L 70.774 113.561 67.790 117.280 C 66.149 119.326, 64.351 121, 63.795 121 C 63.239 121, 59.907 118.711, 56.392 115.914 C 52.121 112.516, 49.991 110.110, 49.974 108.664 C 49.960 107.474, 49.520 99.552, 48.998 91.060 C 48.475 82.567, 48.238 75.429, 48.471 75.196 C 48.825 74.842, 59.298 90.438, 68.695 105.313 L 71.104 109.125 81.552 96.460 C 87.298 89.495, 92 82.958, 92 81.935 C 92 80.911, 92.900 77.791, 94 75 C 95.100 72.209, 96 69.750, 96 69.535 C 96 68.720, 84.691 68.065, 61.361 67.530 L 37.223 66.976 36.675 69.238 M 97.939 72.642 C 96.845 75.194, 96.129 77.462, 96.348 77.682 C 96.567 77.901, 98.646 75.812, 100.966 73.040 C 105.185 68.002, 105.185 68, 102.558 68 C 100.383 68, 99.585 68.801, 97.939 72.642 M 108.204 73.174 C 108.467 73.903, 113.364 89.463, 119.088 107.750 C 124.812 126.037, 129.834 141, 130.248 141 C 131.230 141, 131.232 74.251, 130.250 73.688 C 129.838 73.451, 124.601 72.941, 118.614 72.553 C 109.777 71.981, 107.817 72.098, 108.204 73.174 M 99.422 79.239 L 94.467 85.500 95.133 106 C 95.500 117.275, 95.845 129.988, 95.900 134.250 L 96 142 111 142 C 123.791 142, 126 141.775, 126 140.472 C 126 138.519, 106.006 74.756, 105.074 73.739 C 104.691 73.320, 102.147 75.795, 99.422 79.239 M 51.725 90.753 C 51.900 94.464, 52.293 100.302, 52.599 103.727 C 53.185 110.301, 52.996 110.048, 62.662 117.234 C 63.425 117.802, 64.751 116.882, 66.528 114.553 L 69.232 111.007 60.956 98.254 C 56.405 91.239, 52.394 85.164, 52.043 84.753 C 51.692 84.342, 51.549 87.042, 51.725 90.753 M 82.250 99.854 C 77.162 105.949, 73 111.164, 73 111.443 C 73 111.722, 77.491 118.824, 82.980 127.225 L 92.961 142.500 92.855 130 C 92.796 123.125, 92.468 111.037, 92.124 103.137 L 91.500 88.773 82.250 99.854" stroke="none" fill="black" fill-rule="evenodd"/>
</svg>