<svg xmlns="http://www.w3.org/2000/svg" width="200" height="200" viewBox="0 0 200 200" version="1.1">
	<path d="M 78.397 21.681 C 78.751 26.532, 79.295 34.100, 79.604 38.500 L 80.167 46.500 70.334 53.802 L 60.500 61.105 44.500 60.391 C 22.075 59.390, 22.736 59.383, 22.314 60.600 C 21.892 61.818, 32.608 62.990, 44.401 63.015 C 49.354 63.026, 51.046 63.324, 50 64 C 49.175 64.533, 45.350 64.981, 41.500 64.996 C 32.840 65.028, 27 65.942, 27 67.265 C 27 68.229, 58.408 67.486, 62.058 66.436 C 63.075 66.143, 66.117 68.940, 70.825 74.498 L 78.034 83.008 73.038 100.369 C 69.234 113.587, 66.261 121.400, 60.578 133.114 L 53.115 148.500 38.647 163.491 C 30.690 171.736, 24.391 178.824, 24.649 179.241 C 24.907 179.659, 27.904 179.991, 31.309 179.981 L 37.500 179.962 53.418 168.991 C 69.075 158.200, 69.523 157.788, 80.716 143.904 L 92.096 129.788 97.971 113.144 C 101.201 103.990, 105.763 90.088, 108.108 82.250 L 112.371 68 126.435 68.014 C 146 68.033, 144.714 67.305, 143.727 77.807 C 143.278 82.588, 142.593 98.200, 142.205 112.500 L 141.500 138.500 128.538 147.250 C 121.408 152.063, 115.052 156, 114.412 156 C 113.772 156, 110.662 154.856, 107.501 153.458 C 104.339 152.060, 101.426 151.047, 101.026 151.208 C 100.291 151.504, 124.627 185.330, 125.842 185.701 C 126.204 185.811, 133.471 183.088, 141.992 179.650 L 157.484 173.399 164.717 156.295 L 171.950 139.191 172.518 122.345 C 172.831 113.080, 174.030 97.378, 175.183 87.452 L 177.280 69.403 170.420 58.952 C 166.647 53.203, 163.413 48.292, 163.234 48.037 C 163.054 47.783, 155.604 51.218, 146.677 55.672 L 130.447 63.769 118.973 56.820 C 112.663 52.998, 107.167 49.545, 106.761 49.146 C 106.355 48.748, 108.494 41.504, 111.515 33.048 C 114.536 24.593, 116.894 17.566, 116.754 17.433 C 116.614 17.300, 109.300 16.461, 100.500 15.568 C 91.700 14.675, 82.982 13.701, 81.126 13.404 L 77.752 12.863 78.397 21.681 M 81.403 25.642 C 81.764 31.064, 82.312 38.204, 82.621 41.509 L 83.181 47.518 72.576 55.509 C 64.185 61.831, 62.382 63.604, 63.942 64 C 66.669 64.691, 81.108 82.053, 80.549 83.969 C 80.304 84.811, 77.806 93.540, 74.999 103.367 C 70.999 117.373, 68.376 124.288, 62.862 135.367 C 55.851 149.454, 55.784 149.544, 42.177 163.250 L 28.527 177 32.759 177 C 36.517 177, 38.756 175.774, 52.745 166.062 C 68.122 155.387, 68.752 154.806, 79 141.860 L 89.500 128.595 95.243 112.548 C 98.401 103.721, 103.086 89.430, 105.654 80.788 L 110.323 65.076 118.394 64.788 L 126.464 64.500 114.732 57.525 C 108.279 53.688, 103 50.224, 103 49.828 C 103 49.431, 105.244 42.687, 107.987 34.840 C 110.729 26.993, 112.642 20.283, 112.237 19.928 C 111.832 19.573, 105.425 18.731, 98 18.058 C 90.575 17.384, 83.655 16.597, 82.623 16.309 C 80.848 15.813, 80.782 16.318, 81.403 25.642 M 147.500 58.802 L 134.500 65.500 141.024 65.791 L 147.548 66.081 146.328 81.291 C 145.657 89.656, 145.084 106.025, 145.054 117.666 L 145 138.832 141.250 141.762 C 139.188 143.373, 132.621 147.949, 126.657 151.931 C 115.690 159.252, 114.994 159.470, 109.394 157.321 C 107.365 156.542, 107.544 156.822, 119.519 173.126 L 126.589 182.752 141.010 176.996 L 155.431 171.240 162.413 154.870 L 169.396 138.500 170.023 119 C 170.368 108.275, 171.486 92.928, 172.507 84.895 L 174.364 70.291 168.484 61.145 C 165.250 56.115, 162.131 52.023, 161.552 52.052 C 160.973 52.081, 154.650 55.118, 147.500 58.802" stroke="none" fill="black" fill-rule="evenodd"/>
</svg>