<svg xmlns="http://www.w3.org/2000/svg" width="200" height="200" viewBox="0 0 200 200" version="1.1">
	<path d="M 47.868 25.750 C 38.238 38.813, 30.029 50.058, 29.627 50.740 C 28.236 53.095, 22.276 168.896, 23.147 176.639 L 23.500 179.777 40.500 173.759 L 57.500 167.740 78.772 170.514 C 90.472 172.040, 100.233 173.100, 100.462 172.871 C 100.692 172.641, 101.420 165.489, 102.080 156.977 L 103.281 141.500 108.052 132 C 110.963 126.202, 113.032 123.085, 113.361 124 C 113.657 124.825, 116.671 134.203, 120.059 144.840 C 123.447 155.477, 126.549 163.802, 126.952 163.340 C 127.355 162.878, 129.425 157.786, 131.552 152.025 L 135.420 141.551 138.146 159.378 C 139.646 169.184, 141.139 177.473, 141.465 177.798 C 142.053 178.386, 175.143 176.190, 175.814 175.519 C 176.007 175.327, 177.285 156.569, 178.655 133.835 C 180.727 99.474, 181.077 86.637, 180.731 57.750 C 180.502 38.637, 180.694 23, 181.157 23 C 181.621 23, 182 22.325, 182 21.500 C 182 20.675, 181.550 20, 181 20 C 180.450 20, 180 17.712, 180 14.917 C 180 11.285, 179.643 9.957, 178.750 10.268 C 178 10.529, 177.535 12.363, 177.586 14.851 C 177.657 18.269, 177.343 19, 175.801 19 C 174.771 19, 154.707 15.873, 131.214 12.051 C 73.250 2.621, 69.293 2, 67.199 2 C 65.978 2, 59.595 9.842, 47.868 25.750 M 63.129 9.470 L 59.919 13.939 68.940 18.470 C 73.901 20.961, 78.166 23, 78.419 23 C 78.671 23, 79.184 20.954, 79.559 18.454 C 79.934 15.953, 80.524 14.189, 80.870 14.533 C 81.217 14.877, 82.400 17.857, 83.500 21.156 L 85.500 27.153 102.750 36.052 C 116.362 43.074, 120.004 44.587, 120.020 43.225 C 120.032 42.276, 124.359 35.964, 129.636 29.199 C 134.913 22.433, 139.040 16.707, 138.806 16.473 C 138.243 15.910, 71.465 5, 68.581 5 C 67.072 5, 65.290 6.460, 63.129 9.470 M 45.430 33.613 L 31.587 52.353 29.805 83.426 C 28.028 114.405, 25.229 175.247, 25.556 175.781 C 25.651 175.936, 32.793 173.550, 41.427 170.479 L 57.125 164.896 77.219 167.504 C 92.395 169.474, 97.492 169.823, 98.043 168.930 C 98.445 168.280, 99.084 162.067, 99.463 155.124 L 100.152 142.500 105.669 130.653 C 110.079 121.184, 111.065 118.160, 110.582 115.584 C 109.986 112.406, 100.677 93.444, 98.758 91.500 C 98.216 90.950, 98.536 92.014, 99.471 93.865 C 100.405 95.716, 100.794 97.569, 100.335 97.984 C 99.876 98.399, 95.377 99.738, 90.337 100.960 L 81.175 103.181 79.608 111.840 C 78.747 116.603, 77.278 125, 76.344 130.500 C 75.410 136, 74.524 140.664, 74.375 140.865 C 74.116 141.213, 47.829 136.953, 47.195 136.460 C 47.027 136.330, 49.189 130.273, 52 123 C 54.811 115.727, 56.959 109.625, 56.773 109.440 C 56.588 109.254, 52.013 110.225, 46.608 111.598 C 41.203 112.970, 36.406 113.960, 35.948 113.797 C 35.491 113.634, 38.690 105.192, 43.058 95.037 C 47.426 84.883, 51 76.137, 51 75.602 C 51 75.067, 50.023 73.589, 48.829 72.318 C 46.339 69.668, 46.256 69.811, 51.388 67.927 C 55.176 66.537, 55.453 66.090, 62.127 50.567 L 68.977 34.634 64.853 25.567 C 62.584 20.580, 60.401 16.134, 60 15.686 C 59.600 15.239, 53.044 23.306, 45.430 33.613 M 141.410 21.639 C 141.755 24.313, 143.820 43.600, 145.998 64.500 L 149.959 102.500 143.643 119.322 L 137.327 136.143 139.139 147.822 C 140.135 154.245, 141.472 163.048, 142.110 167.384 L 143.269 175.268 155.385 174.595 C 162.048 174.225, 168.881 173.680, 170.568 173.384 L 173.636 172.846 175.893 131.673 C 177.614 100.264, 178.073 82.437, 177.825 56.500 L 177.500 22.500 165 20.338 C 158.125 19.149, 149.863 17.862, 146.641 17.478 L 140.782 16.778 141.410 21.639 M 67.744 25.551 C 69.241 28.603, 70.624 30.628, 70.816 30.051 C 71.009 29.473, 71.782 29, 72.533 29 C 73.496 29, 73.989 30.701, 74.200 34.750 L 74.500 40.500 75.867 34.526 C 76.620 31.240, 77.427 28.051, 77.662 27.439 C 78.019 26.508, 67.485 20, 65.621 20 C 65.291 20, 66.247 22.498, 67.744 25.551 M 131.500 31.226 C 127.650 36.188, 124.136 40.874, 123.691 41.640 C 123.078 42.695, 134.828 124.136, 136.360 129.451 C 136.510 129.974, 138.993 124.027, 141.877 116.237 L 147.121 102.072 143.024 62.786 C 140.770 41.179, 138.831 23.208, 138.713 22.852 C 138.596 22.495, 135.350 26.263, 131.500 31.226 M 78.618 35.079 C 76.537 44.296, 76.531 44.205, 79.637 51.125 C 82.432 57.353, 82.902 57.627, 87.846 55.904 C 90.592 54.947, 90.908 54.472, 90.342 52.154 C 88.687 45.381, 82.380 28.595, 81.368 28.273 C 80.689 28.056, 79.590 30.776, 78.618 35.079 M 87 31.577 C 87 32.865, 93.268 52.532, 93.868 53.125 C 94.216 53.469, 99.422 52.091, 105.437 50.062 L 116.374 46.374 106.937 41.309 C 92.902 33.776, 87 30.895, 87 31.577 M 64.789 51.284 C 61.702 58.553, 59.331 64.657, 59.521 64.850 C 59.969 65.303, 67.263 62.973, 68.276 62.054 C 68.923 61.465, 71.101 38.945, 70.574 38.284 C 70.480 38.166, 67.876 44.016, 64.789 51.284 M 107.500 52.216 C 100.900 54.448, 95.349 56.401, 95.164 56.556 C 94.596 57.033, 111.128 108.260, 113.125 112.210 C 114.156 114.251, 115.010 116.951, 115.023 118.210 C 115.036 119.470, 117.685 128.600, 120.911 138.500 C 125.282 151.917, 126.972 155.991, 127.549 154.500 C 132.381 142.023, 134 137.175, 134 135.182 C 134 133.882, 131.075 113.932, 127.500 90.848 C 123.925 67.764, 121 48.680, 121 48.438 C 121 47.711, 119.971 47.999, 107.500 52.216 M 74.653 52.598 C 74.294 54.744, 73.731 57.484, 73.400 58.687 C 72.826 60.778, 72.958 60.826, 76.400 59.769 C 78.380 59.162, 79.980 58.402, 79.955 58.082 C 79.930 57.762, 78.873 55.519, 77.607 53.098 L 75.304 48.696 74.653 52.598 M 86.514 59.351 C 84.038 60.417, 83.797 60.796, 85.099 61.568 C 85.963 62.081, 90.188 69.144, 94.488 77.264 C 98.788 85.384, 102.443 91.890, 102.611 91.722 C 102.779 91.554, 100.555 84.013, 97.668 74.964 C 94.252 64.254, 91.910 58.434, 90.960 58.289 C 90.157 58.166, 88.156 58.644, 86.514 59.351 M 76.250 62.698 C 73.912 63.506, 72 64.804, 72 65.583 C 72 67.100, 69.390 67.568, 68.833 66.151 C 68.650 65.684, 66.116 65.973, 63.203 66.793 C 59.057 67.958, 57.562 68.946, 56.326 71.336 L 54.747 74.389 61.795 80.723 L 68.843 87.056 65.443 95.716 C 63.573 100.479, 62.162 104.495, 62.308 104.641 C 62.548 104.881, 78.298 101.048, 78.650 100.664 C 78.733 100.574, 80.020 93.417, 81.511 84.760 C 84.211 69.081, 84.251 65.972, 81.793 62.865 C 80.625 61.389, 80.088 61.372, 76.250 62.698 M 52 71.059 C 52 71.641, 52.450 71.840, 53 71.500 C 53.550 71.160, 54 70.684, 54 70.441 C 54 70.198, 53.550 70, 53 70 C 52.450 70, 52 70.477, 52 71.059 M 84.069 86.036 C 82.813 93.231, 81.945 99.271, 82.142 99.458 C 82.786 100.071, 97 96.535, 97 95.763 C 97 94.854, 87.906 74.822, 86.997 73.727 C 86.643 73.302, 85.326 78.841, 84.069 86.036 M 46.643 93.648 C 42.969 102.255, 40.125 109.458, 40.322 109.655 C 40.518 109.852, 44.741 109.066, 49.705 107.908 L 58.731 105.803 61.866 97.551 C 63.590 93.013, 65 88.844, 65 88.287 C 65 87.079, 55.472 78, 54.204 78 C 53.719 78, 50.316 85.042, 46.643 93.648 M 69.178 105.945 C 65.151 106.934, 61.470 108.139, 60.997 108.622 C 59.351 110.303, 50.949 133.349, 51.722 134.061 C 52.726 134.986, 71.230 138.103, 71.878 137.456 C 72.296 137.038, 77.915 106.909, 77.978 104.750 C 78.006 103.791, 77.885 103.807, 69.178 105.945" stroke="none" fill="black" fill-rule="evenodd"/>
</svg>