<svg xmlns="http://www.w3.org/2000/svg" width="200" height="200" viewBox="0 0 200 200" version="1.1">
	<path d="M 65.899 18.531 C 64.617 21.624, 63.101 23.869, 62.460 23.623 C 59.531 22.499, 31.943 15, 30.737 15 C 29.719 15, 28.919 18.994, 27.583 30.750 C 26.598 39.413, 25.563 47.914, 25.283 49.643 C 24.796 52.644, 24.948 52.811, 28.637 53.345 C 30.761 53.653, 36.438 54.191, 41.250 54.542 C 46.063 54.893, 50 55.503, 50 55.899 C 50 56.294, 49.430 57.398, 48.732 58.351 C 47.792 59.637, 44.759 60.405, 36.982 61.326 C 27.516 62.448, 26.521 62.758, 26.716 64.534 C 26.835 65.615, 28.787 78.820, 31.053 93.877 C 34.582 117.319, 35.665 122.417, 38.587 129.347 C 40.464 133.798, 41.977 137.903, 41.949 138.470 C 41.920 139.036, 35.900 148.725, 28.570 160 C 21.240 171.275, 15.330 180.605, 15.437 180.733 C 15.544 180.860, 32.352 177.377, 52.787 172.992 L 89.943 165.019 101.712 171.470 C 108.184 175.017, 113.772 177.600, 114.128 177.210 C 114.484 176.819, 122.100 157.243, 131.051 133.706 L 147.325 90.912 151.163 94.659 C 153.273 96.720, 155 98.934, 155 99.580 C 155 100.225, 149.811 120.445, 143.468 144.512 C 137.126 168.579, 132.075 188.408, 132.244 188.577 C 132.413 188.746, 142.777 180.353, 155.275 169.925 L 178 150.966 178.035 145.233 C 178.054 142.080, 178.691 123.543, 179.450 104.039 L 180.830 68.578 165.918 52.914 C 157.717 44.299, 150.425 36.767, 149.713 36.177 C 149.002 35.586, 140.257 33.728, 130.282 32.047 C 113.866 29.282, 110.093 28.232, 90.550 20.996 C 78.674 16.598, 68.785 13, 68.574 13 C 68.364 13, 67.160 15.489, 65.899 18.531 M 67.810 20.803 L 66.316 24.606 87.408 30.429 C 99.009 33.632, 110.975 37.023, 114 37.964 C 117.025 38.905, 122.763 40.510, 126.750 41.530 C 131.107 42.645, 134 43.907, 134 44.693 C 134 46.370, 134.137 46.383, 124.863 43.841 C 120.530 42.654, 116.730 41.936, 116.419 42.247 C 116.109 42.558, 117.041 58.861, 118.491 78.476 C 120.682 108.107, 120.906 114.425, 119.814 115.820 C 116.225 120.408, 81.716 158.049, 81.394 157.727 C 81.190 157.523, 81.457 151.763, 81.988 144.928 C 82.520 138.093, 82.965 131.312, 82.977 129.860 C 82.994 127.958, 85.541 124.395, 92.089 117.118 L 101.177 107.017 103.915 74.258 C 105.421 56.241, 106.531 41.338, 106.382 41.139 C 106.234 40.941, 100.799 43.866, 94.306 47.639 C 82.642 54.417, 82.545 54.504, 86.250 54.810 C 88.703 55.013, 90 55.619, 90 56.560 C 90 57.352, 89.808 58, 89.572 58 C 89.337 58, 85.628 58.489, 81.329 59.087 C 75.644 59.878, 71.811 61.126, 67.266 63.668 C 63.829 65.590, 60.815 67.490, 60.567 67.892 C 60.319 68.293, 66.589 75.569, 74.500 84.061 C 83.182 93.380, 88.523 99.864, 87.974 100.418 C 86.637 101.767, 53.205 79.297, 51.423 75.852 C 49.399 71.938, 49.643 70.483, 52.547 69.161 C 55.060 68.016, 55.070 67.967, 53.297 65.446 C 51.544 62.953, 51.293 62.906, 43 63.504 C 31.783 64.313, 30 64.810, 30 67.130 C 30 68.182, 31.767 80.620, 33.928 94.771 C 37.303 116.881, 38.358 121.691, 41.428 128.970 C 43.392 133.628, 44.997 137.903, 44.993 138.470 C 44.989 139.036, 39.623 147.822, 33.069 157.992 C 26.514 168.163, 21.240 176.573, 21.347 176.681 C 21.455 176.789, 36.991 173.544, 55.872 169.470 L 90.202 162.062 101.222 168.077 C 107.283 171.385, 112.395 173.938, 112.583 173.751 C 112.770 173.563, 120.192 154.305, 129.075 130.955 C 137.959 107.605, 145.516 88.182, 145.869 87.794 C 146.781 86.792, 158 96.853, 158 98.673 C 158 99.502, 153.251 118.190, 147.446 140.203 C 141.642 162.216, 137.084 180.418, 137.318 180.652 C 137.854 181.188, 174.999 150.211, 175.001 149.226 C 175.002 148.827, 175.685 130.774, 176.520 109.109 L 178.036 69.719 172.332 63.609 C 169.195 60.249, 162.336 53.072, 157.089 47.660 L 147.549 37.821 128.524 34.511 C 111.533 31.554, 107.495 30.441, 90.743 24.100 C 80.426 20.195, 71.382 17, 70.644 17 C 69.907 17, 68.631 18.711, 67.810 20.803 M 31.598 21.750 C 30.278 30.322, 27.925 50.258, 28.202 50.532 C 28.366 50.695, 33.690 51.147, 40.034 51.536 L 51.569 52.245 56.894 39.565 C 59.822 32.591, 62.057 26.727, 61.859 26.533 C 61.488 26.170, 33.538 18, 32.666 18 C 32.396 18, 31.916 19.688, 31.598 21.750 M 60.121 39.003 C 57.304 45.672, 55 51.505, 55 51.965 C 55 52.426, 60.134 53.123, 66.408 53.515 L 77.816 54.228 91.006 46.459 C 99.726 41.322, 103.739 38.440, 102.848 37.953 C 102.107 37.548, 93.929 35.116, 84.675 32.548 C 75.421 29.980, 67.263 27.654, 66.545 27.379 C 65.660 27.039, 63.595 30.777, 60.121 39.003 M 107.122 68.750 C 103.677 111.905, 104.863 107.183, 94.695 118.259 L 86.035 127.693 85.470 136.597 C 85.159 141.493, 84.713 146.850, 84.478 148.500 L 84.052 151.500 87.776 147.410 C 89.824 145.161, 97.526 136.702, 104.891 128.613 L 118.283 113.905 116.110 83.202 C 113.066 40.193, 113.043 40, 111.071 40 C 109.624 40, 109.130 43.602, 107.122 68.750 M 52.439 57.193 C 52.097 58.270, 51.971 59.245, 52.159 59.361 C 52.346 59.476, 56.775 59.075, 62 58.469 C 72.251 57.281, 71.592 56.451, 59.780 55.676 C 53.775 55.282, 52.994 55.443, 52.439 57.193 M 57.135 61.882 C 53.831 62.489, 53.806 62.532, 55.741 64.274 C 57.636 65.981, 57.879 65.952, 62.105 63.536 C 66.382 61.091, 66.420 61.027, 63.500 61.144 C 61.850 61.209, 58.986 61.542, 57.135 61.882 M 54.637 71.276 C 51.643 73.466, 53.750 75.794, 66.384 84.250 L 78.500 92.360 68.113 81.180 C 62.400 75.031, 57.424 70, 57.054 70 C 56.685 70, 55.597 70.574, 54.637 71.276" stroke="none" fill="black" fill-rule="evenodd"/>
</svg>