<svg xmlns="http://www.w3.org/2000/svg" width="200" height="200" viewBox="0 0 200 200" version="1.1">
	<path d="M 71 29.531 C 53.863 39.946, 49.926 41.950, 47 41.748 C 39.961 41.263, 43.445 44.392, 62.215 55.414 C 72.508 61.459, 80.833 66.487, 80.715 66.589 C 80.597 66.690, 68.809 66.177, 54.521 65.449 C 40.232 64.721, 28.307 64.359, 28.021 64.645 C 27.734 64.931, 27.349 81.285, 27.164 100.988 L 26.828 136.811 36.036 162.155 C 46.509 190.981, 46.784 191.616, 48.199 190.201 C 48.757 189.643, 51.320 173.058, 53.896 153.344 L 58.580 117.500 67.534 96.250 L 76.489 75 84.245 75 C 88.510 75, 92 75.243, 92 75.540 C 92 75.838, 88.400 82.344, 84 90 C 76.081 103.779, 74.888 106.537, 77.182 105.773 C 78.179 105.440, 95.137 79.515, 96.330 76.500 C 97.359 73.901, 97.979 77.682, 98.555 90.048 L 99.180 103.500 86.588 110.348 C 79.663 114.115, 73.757 117.584, 73.464 118.058 C 73.171 118.532, 72.352 123.733, 71.643 129.616 L 70.354 140.313 83.927 159.334 C 91.392 169.796, 97.950 178.471, 98.500 178.612 C 99.050 178.754, 108.145 168.886, 118.712 156.685 L 137.923 134.500 126.956 129.018 C 120.924 126.002, 116.103 123.221, 116.244 122.838 C 116.491 122.165, 143.922 101, 144.547 101 C 144.716 101, 144.608 110.338, 144.306 121.750 L 143.759 142.500 137.815 164.352 C 134.546 176.371, 132.013 186.329, 132.186 186.481 C 132.359 186.633, 142.051 179.724, 153.725 171.129 L 174.949 155.500 174.725 117.163 L 174.500 78.825 155.500 72.598 L 136.500 66.370 136.713 57.556 C 136.830 52.708, 137.168 48.498, 137.465 48.202 C 137.762 47.905, 148.016 45.718, 160.252 43.341 C 185.274 38.481, 185.754 38.354, 184.327 36.927 C 183.663 36.263, 171.558 36.157, 148.759 36.617 L 114.199 37.313 110.899 43.179 L 107.600 49.045 102.747 38.772 C 100.078 33.123, 96.731 25.913, 95.310 22.750 C 93.889 19.587, 92.451 17.017, 92.113 17.037 C 91.776 17.057, 82.275 22.680, 71 29.531 M 70.778 32.756 C 59.931 39.215, 51.043 44.774, 51.028 45.108 C 51.013 45.442, 57.638 49.592, 65.750 54.329 C 87.551 67.059, 88.009 67.367, 87.187 68.697 C 86.618 69.618, 80.423 69.566, 59.975 68.472 C 45.414 67.692, 32.712 67.042, 31.750 67.027 C 30.116 67.002, 30 69.337, 30 102.295 L 30 137.589 38.418 160.544 C 44.755 177.822, 46.974 182.880, 47.393 180.999 C 47.698 179.625, 49.745 164.550, 51.942 147.500 L 55.936 116.500 65.289 94.500 L 74.641 72.500 84.215 72.791 L 93.789 73.083 99.831 62.553 L 105.872 52.024 98.687 36.512 C 94.736 27.980, 91.277 21.003, 91.001 21.006 C 90.726 21.010, 81.625 26.297, 70.778 32.756 M 131.063 39.960 L 115.626 40.500 112.281 46.229 L 108.935 51.958 113.824 62.322 L 118.712 72.685 125.003 73.343 C 128.463 73.704, 135.052 74, 139.647 74 L 148 74 147.941 85.750 C 147.909 92.213, 147.509 108.075, 147.052 121 L 146.222 144.500 141.551 161.320 C 138.982 170.572, 137.020 178.503, 137.190 178.945 C 137.361 179.387, 145.268 173.959, 154.762 166.882 L 172.025 154.015 171.762 117.292 L 171.500 80.569 152.500 74.409 C 142.050 71.021, 133.545 67.743, 133.600 67.124 C 133.655 66.506, 133.768 61.388, 133.851 55.750 L 134.003 45.500 150.251 42.340 L 166.500 39.180 156.500 39.300 C 151 39.366, 139.553 39.663, 131.063 39.960 M 104.188 60.322 C 102.280 63.702, 101 67.381, 101 69.485 L 101 73 108.513 73 L 116.025 73 112.703 66.250 C 110.876 62.538, 108.930 58.414, 108.378 57.087 C 107.413 54.764, 107.256 54.884, 104.188 60.322 M 101.344 90.400 L 101.998 104.799 88.992 112.005 C 79.668 117.170, 75.858 119.817, 75.536 121.355 C 75.289 122.535, 74.647 127.080, 74.109 131.456 L 73.132 139.412 85.185 156.456 C 91.814 165.830, 97.587 173.880, 98.013 174.344 C 98.683 175.074, 133 137.038, 133 135.565 C 133 135.264, 127.948 132.483, 121.774 129.387 L 110.548 123.757 114.524 120.418 C 116.711 118.582, 124.408 112.674, 131.628 107.290 L 144.757 97.500 145.128 87.369 L 145.500 77.238 139 76.626 C 135.425 76.290, 129.676 76.011, 126.224 76.007 L 119.949 76 121.611 79.216 C 123.168 82.225, 123.159 83.185, 121.474 94.171 C 120.483 100.628, 119.321 106.480, 118.891 107.176 C 117.016 110.210, 116.914 106.301, 118.575 95.049 C 120.243 83.749, 120.250 82.748, 118.695 79.486 L 117.032 76 108.861 76 L 100.689 76 101.344 90.400" stroke="none" fill="black" fill-rule="evenodd"/>
</svg>