<svg xmlns="http://www.w3.org/2000/svg" width="200" height="200" viewBox="0 0 200 200" version="1.1">
	<path d="M 89.923 27.144 L 69.454 48.339 47.727 48.802 C 29.469 49.190, 26 49.499, 26 50.737 C 26 52.011, 28.998 52.113, 48.250 51.494 L 70.500 50.778 89.375 31.348 C 99.757 20.661, 108.453 12.119, 108.700 12.366 C 108.947 12.613, 109.771 19.269, 110.532 27.158 C 111.293 35.046, 112.182 43.694, 112.509 46.377 C 113.023 50.603, 112.886 51.170, 111.479 50.630 C 110.017 50.069, 109.923 51.123, 110.530 61.254 C 110.901 67.439, 111.498 77.675, 111.857 84 C 112.395 93.467, 112.774 95.442, 114.005 95.171 C 114.827 94.990, 124.583 91.002, 135.685 86.309 L 155.869 77.776 166.661 85.638 L 177.453 93.500 155.477 94 L 133.500 94.500 116.029 101.771 C 106.419 105.771, 98.242 109.371, 97.856 109.771 C 97.470 110.172, 90.608 119.045, 82.606 129.488 C 70.764 144.944, 68.377 148.591, 69.779 149.091 C 70.725 149.429, 80.354 149.993, 91.176 150.345 L 110.852 150.984 119.869 141.313 C 127.573 133.050, 129.053 130.903, 130.031 126.571 C 130.660 123.782, 131.379 120.749, 131.629 119.831 C 131.990 118.505, 136.753 121.136, 154.792 132.625 C 167.281 140.580, 177.621 147.431, 177.768 147.850 C 177.916 148.268, 175.315 155.786, 171.988 164.555 C 168.662 173.325, 165.728 181.101, 165.469 181.835 C 165.195 182.609, 159.315 176.221, 151.463 166.618 L 137.928 150.067 119.214 156.549 C 108.921 160.114, 89.479 166.440, 76.010 170.606 C 55.049 177.089, 51.229 178.001, 49.510 176.931 C 48.404 176.244, 43.049 172.080, 37.610 167.678 L 27.720 159.675 44.561 153.803 C 53.824 150.573, 61.599 147.734, 61.840 147.493 C 62.651 146.682, 75.984 100.651, 75.538 100.204 C 75.294 99.961, 66.282 98.578, 55.512 97.131 C 44.741 95.684, 35.832 94.050, 35.714 93.500 C 35.577 92.859, 44.746 92.404, 61.250 92.233 C 84.905 91.988, 87.001 91.825, 87.010 90.233 C 87.021 88.208, 83.839 51.583, 83.629 51.327 C 83.294 50.917, 31.794 54.872, 31.322 55.344 C 29.421 57.246, 34.652 57.355, 56.170 55.864 C 69.551 54.937, 80.674 54.350, 80.886 54.559 C 81.301 54.967, 83.890 81.675, 83.959 86.250 L 84 89 59.485 89 L 34.971 89 32.989 92.250 C 31.899 94.038, 31.006 95.745, 31.004 96.046 C 31.002 96.346, 40.090 97.823, 51.201 99.330 C 62.311 100.836, 71.616 102.282, 71.877 102.544 C 72.270 102.937, 60.301 145.201, 59.694 145.560 C 59.587 145.624, 51.285 148.552, 41.244 152.069 C 31.203 155.585, 23.103 158.764, 23.244 159.134 C 23.664 160.235, 49.860 181, 50.829 181 C 52.719 181, 104.326 164.775, 120.307 159.157 L 137.114 153.248 151.249 170.632 C 159.023 180.193, 165.680 187.675, 166.041 187.258 C 166.402 186.841, 169.982 177.768, 173.996 167.095 C 178.867 154.142, 180.995 147.244, 180.397 146.349 C 179.904 145.613, 168.488 138.042, 155.028 129.526 C 138.412 119.012, 130.348 114.437, 129.907 115.271 C 129.551 115.947, 128.687 119.650, 127.989 123.500 C 126.736 130.402, 126.596 130.625, 118.023 139.375 L 109.328 148.249 91.167 147.375 L 73.006 146.500 86.411 128.993 L 99.817 111.485 117.658 104.243 L 135.500 97 160.842 96.750 L 186.183 96.500 172.024 86.193 C 164.236 80.523, 157.313 75.674, 156.640 75.415 C 155.967 75.157, 146.435 78.755, 135.458 83.410 L 115.500 91.875 114.884 85.687 C 114.544 82.284, 113.960 73.763, 113.585 66.750 L 112.903 54 116.202 54.004 C 118.016 54.006, 131.378 55.140, 145.896 56.524 C 160.414 57.908, 172.441 58.893, 172.621 58.712 C 173.045 58.288, 154.114 32.589, 153.110 32.225 C 152.694 32.074, 144.355 35.787, 134.580 40.475 C 124.806 45.164, 116.478 49, 116.074 49 C 115.670 49, 114.528 39.888, 113.536 28.750 C 112.544 17.613, 111.430 7.926, 111.062 7.224 C 110.623 6.389, 103.319 13.272, 89.923 27.144 M 135.500 43.069 C 126.700 47.416, 119.725 51.022, 120 51.081 C 121.943 51.503, 166.571 55.648, 166.838 55.432 C 167.280 55.073, 152.652 35.038, 152 35.110 C 151.725 35.141, 144.300 38.722, 135.500 43.069" stroke="none" fill="black" fill-rule="evenodd"/>
</svg>