<svg xmlns="http://www.w3.org/2000/svg" width="200" height="200" viewBox="0 0 200 200" version="1.1">
	<path d="M 61.045 13.678 C 61.070 14.130, 66.467 18.550, 73.038 23.500 L 84.986 32.500 84.743 42.362 L 84.500 52.224 73.500 56.103 C 67.450 58.236, 62.163 59.986, 61.750 59.991 C 61.337 59.996, 61 50.729, 61 39.397 L 61 18.794 54 25 C 50.150 28.413, 47 31.835, 47 32.603 C 47 34.881, 48.170 34.257, 53.216 29.288 L 58 24.575 58 43.105 L 58 61.635 52.500 63.368 C 49.080 64.447, 47 65.664, 47 66.588 C 47 67.405, 49.273 77.169, 52.050 88.287 C 59.360 117.543, 58.877 115.984, 60.454 115.379 C 61.624 114.930, 61.759 110.626, 61.276 89.128 L 60.698 63.414 72.836 59.259 L 84.975 55.105 84.448 65.303 C 84.158 70.911, 83.509 89.167, 83.006 105.871 C 82.503 122.575, 81.893 136.441, 81.650 136.683 C 81.408 136.926, 75.214 132.823, 67.885 127.567 C 57.516 120.130, 54.312 118.286, 53.436 119.255 C 52.818 119.940, 47.032 127.178, 40.580 135.341 C 34.127 143.503, 28.705 150.028, 28.531 149.841 C 28.357 149.653, 26.067 141.625, 23.442 132 L 18.671 114.500 18.894 85 C 19.101 57.638, 19.332 54.196, 22.076 37.500 C 23.703 27.600, 25.288 18.262, 25.597 16.750 C 26.021 14.673, 25.772 14, 24.579 14 C 23.711 14, 22.994 14.338, 22.987 14.750 C 22.980 15.162, 21.411 24.725, 19.500 36 C 16.075 56.210, 16.026 56.917, 16.030 86 L 16.035 115.500 21.488 135.387 C 24.487 146.325, 27.122 155.456, 27.345 155.678 C 27.567 155.900, 33.768 148.431, 41.124 139.079 C 48.481 129.727, 54.725 122.062, 55 122.046 C 55.275 122.030, 62.025 126.715, 70 132.457 L 84.500 142.898 85.117 128.199 C 85.457 120.114, 86.076 100.571, 86.494 84.768 C 86.985 66.170, 87.649 55.520, 88.376 54.573 C 88.994 53.768, 90.808 52.793, 92.406 52.407 L 95.311 51.705 94.677 106.103 L 94.042 160.500 107.422 171.185 L 120.802 181.869 121.334 178.685 C 121.627 176.933, 122.648 163.800, 123.602 149.500 C 125.202 125.529, 125.219 121.471, 123.819 97.500 L 122.299 71.500 128.994 54.627 C 132.676 45.347, 136.360 37.378, 137.181 36.919 C 138.426 36.222, 139.607 40.027, 144.317 59.923 L 149.960 83.762 143.864 105.631 L 137.767 127.500 139.505 142 C 140.460 149.975, 141.562 157.096, 141.953 157.825 C 142.448 158.749, 148.185 154.061, 160.916 142.330 L 179.169 125.511 178.614 120.506 C 178.309 117.752, 177.530 105.300, 176.883 92.833 C 175.757 71.140, 176.225 53.451, 178.659 25.802 L 179.248 19.105 174.063 20.763 C 170.236 21.987, 168.691 22.118, 168.164 21.266 C 167.544 20.262, 133.389 17.614, 80.500 14.469 C 75.550 14.175, 69.138 13.692, 66.250 13.395 C 63.362 13.099, 61.020 13.226, 61.045 13.678 M 69.558 17.095 C 69.761 17.423, 73.993 20.792, 78.963 24.582 L 88 31.474 88 41.143 L 88 50.813 91.518 49.733 C 94.156 48.923, 97.448 45.842, 104.689 37.406 C 115.538 24.765, 113.480 25.746, 133 23.916 C 139.875 23.272, 145.829 22.451, 146.231 22.092 C 146.633 21.732, 129.463 20.327, 108.075 18.969 C 86.687 17.611, 69.354 16.768, 69.558 17.095 M 152.500 24.555 C 146.450 25.277, 140.929 25.898, 140.231 25.934 C 139.359 25.979, 139.168 26.861, 139.622 28.750 C 139.984 30.262, 140.439 31.684, 140.632 31.908 C 141.004 32.341, 162.460 25.276, 165 23.883 C 166.906 22.838, 166.848 22.841, 152.500 24.555 M 158.321 29.216 C 147.816 32.878, 141.296 35.651, 141.539 36.353 C 141.757 36.984, 144.395 47.894, 147.401 60.598 L 152.866 83.695 146.789 105.598 L 140.712 127.500 141.903 138.573 C 143.774 155.961, 142.703 155.423, 154.217 144.752 C 159.708 139.663, 166.882 133.025, 170.159 130 L 176.118 124.500 174.476 98 C 172.970 73.703, 172.963 69.511, 174.401 47.567 C 175.263 34.405, 175.863 23.543, 175.734 23.431 C 175.605 23.318, 167.769 25.922, 158.321 29.216 M 125.752 27.398 L 116.004 28.500 108.454 37.250 C 104.302 42.063, 101.290 46, 101.761 46 C 102.232 46, 106.191 44.724, 110.559 43.163 C 114.926 41.603, 121.952 39.096, 126.170 37.591 C 133.259 35.063, 133.961 34.556, 135.420 30.907 C 137.213 26.427, 137.298 25.941, 136.250 26.148 C 135.838 26.230, 131.113 26.792, 125.752 27.398 M 113.896 44.731 L 98.291 50.251 97.603 99.876 C 97.224 127.169, 96.705 151.525, 96.450 154 L 95.985 158.500 107.053 167.357 C 113.140 172.228, 118.286 176.047, 118.490 175.844 C 118.693 175.641, 119.708 163.780, 120.745 149.487 C 122.418 126.435, 122.492 121.298, 121.394 104 C 119.279 70.644, 119.170 71.890, 125.598 55.647 C 128.678 47.866, 131.426 40.938, 131.705 40.250 C 132.484 38.336, 130.710 38.782, 113.896 44.731 M 52.750 66.162 C 51.237 66.715, 50.012 67.467, 50.027 67.833 C 50.043 68.200, 52.027 76.150, 54.437 85.500 C 59.364 104.618, 59.573 104.254, 58.345 78.658 C 57.657 64.303, 57.682 64.361, 52.750 66.162" stroke="none" fill="black" fill-rule="evenodd"/>
</svg>