<svg xmlns="http://www.w3.org/2000/svg" width="200" height="200" viewBox="0 0 200 200" version="1.1">
	<path d="M 115.154 22.498 C 100.613 29.577, 85.917 34.054, 56 40.519 C 43.081 43.311, 38.641 44.698, 35.544 46.910 C 33.368 48.465, 31.418 50.246, 31.211 50.868 C 30.569 52.793, 33.152 52.122, 36.649 49.454 C 39.141 47.553, 43.983 46.027, 55.744 43.435 C 87.676 36.397, 100.701 32.478, 115.449 25.470 L 129.367 18.857 139.934 22.545 C 145.745 24.574, 150.846 26.550, 151.269 26.936 C 151.692 27.322, 152.897 30.644, 153.948 34.319 L 155.859 41 138.437 41 L 121.015 41 114.978 53.043 L 108.941 65.087 113.066 78.211 C 115.335 85.429, 117.421 91.934, 117.703 92.667 C 118.046 93.563, 117.378 94, 115.666 94 C 114.265 94, 112.841 94.448, 112.503 94.995 C 112.165 95.542, 111.896 109.753, 111.906 126.574 L 111.924 157.158 108.855 169.829 C 107.167 176.798, 105.721 182.571, 105.643 182.658 C 105.357 182.974, 84.947 178.280, 84.452 177.785 C 84.171 177.505, 84.390 170.576, 84.936 162.388 C 85.483 154.199, 85.984 139.832, 86.050 130.461 L 86.169 113.422 81.616 103.152 L 77.062 92.883 82.647 80.859 L 88.231 68.836 82.939 57.368 C 80.029 51.061, 77.320 45.697, 76.919 45.450 C 75.826 44.774, 44.645 49.140, 43.567 50.119 C 41.387 52.099, 44.747 52.085, 59.556 50.056 C 68.182 48.873, 75.364 48.040, 75.517 48.203 C 75.671 48.366, 77.911 53.069, 80.497 58.653 L 85.197 68.805 80.400 79.153 C 77.762 84.844, 75.496 89.659, 75.365 89.854 C 75.233 90.048, 67.998 89.660, 59.287 88.991 C 47.233 88.066, 40.825 88.046, 32.474 88.910 C 15.512 90.665, 13 91.124, 13 92.469 C 13 93.313, 17.737 94.352, 27.750 95.706 C 41.396 97.552, 43.547 97.599, 56.500 96.341 C 64.200 95.592, 71.570 95.097, 72.878 95.240 C 74.853 95.456, 76.003 97.186, 79.652 105.433 L 84.047 115.367 82.862 143.933 C 82.210 159.645, 81.637 174.285, 81.588 176.467 L 81.500 180.434 91.236 182.603 C 96.591 183.796, 102.514 185.061, 104.399 185.415 L 107.825 186.058 111.557 170.327 C 115.257 154.731, 115.284 154.468, 114.626 139.893 C 114.261 131.806, 114.265 118.847, 114.635 111.095 L 115.308 97 145.987 97 C 162.861 97, 176.906 96.761, 177.198 96.469 C 177.674 95.993, 174.644 79.298, 173.532 76.274 C 173.210 75.397, 169.725 76.212, 161.291 79.137 C 154.806 81.386, 142.915 85.128, 134.868 87.451 L 120.235 91.676 116.061 78.463 L 111.887 65.250 117.172 54.625 L 122.456 44 140.728 44 C 154.690 44, 158.995 43.705, 158.979 42.750 C 158.957 41.417, 154.207 24.813, 153.763 24.517 C 153.137 24.099, 129.722 16, 129.142 16.001 C 128.789 16.001, 122.494 18.925, 115.154 22.498 M 158 83.098 C 151.675 85.264, 141.440 88.455, 135.255 90.190 C 129.071 91.925, 124.208 93.542, 124.450 93.783 C 125.081 94.414, 173.138 94.196, 173.775 93.559 C 174.621 92.712, 171.606 79.682, 170.500 79.408 C 169.950 79.272, 164.325 80.933, 158 83.098 M 30.500 91.907 L 25.500 92.500 34 93.724 C 40.069 94.598, 45.217 94.677, 52 94.001 C 57.225 93.480, 62.625 92.973, 64 92.875 C 65.375 92.776, 63.575 92.366, 60 91.964 C 52.317 91.101, 37.542 91.072, 30.500 91.907" stroke="none" fill="black" fill-rule="evenodd"/>
</svg>