<svg xmlns="http://www.w3.org/2000/svg" width="200" height="200" viewBox="0 0 200 200" version="1.1">
	<path d="M 40.847 44.264 L 30.195 69.500 29.051 82.500 C 28.422 89.650, 27.641 97.862, 27.316 100.750 C 26.846 104.925, 27.019 106, 28.164 106 C 29.300 106, 29.976 102.116, 31.375 87.548 L 33.147 69.097 43.146 45.809 C 48.645 33.001, 53.282 22.385, 53.450 22.217 C 53.797 21.870, 80.445 28.489, 84.010 29.808 C 85.752 30.452, 87.177 32.817, 89.603 39.086 C 91.393 43.714, 92.553 47.783, 92.179 48.128 C 91.806 48.474, 82.500 52.150, 71.500 56.297 C 40.598 67.949, 40 68.199, 40 69.509 C 40 70.438, 47.636 70.955, 71.189 71.620 L 102.378 72.500 106.126 82 C 108.188 87.225, 109.903 92.335, 109.937 93.356 C 109.972 94.377, 108.668 96.893, 107.041 98.948 L 104.082 102.684 89.065 103.334 L 74.048 103.984 50.856 116.492 C 38.101 123.371, 27.539 129, 27.386 129 C 27.233 129, 38.108 118.361, 51.554 105.357 C 64.999 92.353, 76 81.328, 76 80.857 C 76 78.342, 71.469 82.248, 46.651 106.161 C 31.718 120.549, 18.954 132.812, 18.286 133.411 C 17.619 134.010, 17.411 135.048, 17.826 135.718 C 18.359 136.581, 26.961 132.425, 47.318 121.468 L 76.058 106 88.564 106 C 102.340 106, 102.401 106.045, 96.751 112.003 C 94.705 114.161, 91.383 115.114, 72.648 118.924 C 55.519 122.406, 50.981 123.655, 51.210 124.821 C 51.406 125.821, 56.205 127.537, 66 130.111 C 73.975 132.207, 81.175 133.920, 82 133.918 C 82.825 133.917, 86.379 130.101, 89.899 125.439 C 93.418 120.778, 97.243 116.745, 98.399 116.479 C 104.186 115.144, 115.282 113, 116.405 113 C 117.106 113, 118.192 114.126, 118.819 115.503 C 119.943 117.970, 119.770 118.101, 106.730 124.614 C 82.537 136.699, 42.513 157.279, 41.583 158.113 C 39.136 160.305, 46.107 159.923, 69.758 156.571 L 95.500 152.923 102.500 145.701 C 106.350 141.729, 112.368 135.428, 115.874 131.697 C 119.380 127.967, 122.355 125.046, 122.486 125.207 C 123.261 126.163, 129.214 143.119, 128.888 143.445 C 128.525 143.808, 62.273 173.755, 52.108 178.151 C 49.693 179.196, 47.899 180.232, 48.121 180.455 C 48.344 180.677, 54.194 181.619, 61.121 182.547 L 73.716 184.235 115.608 171.995 C 138.649 165.264, 157.843 159.446, 158.262 159.067 C 158.680 158.687, 152.508 149.003, 144.544 137.547 L 130.066 116.717 131.986 114.019 C 135.873 108.561, 134.995 108.499, 160.058 116.017 C 172.908 119.872, 183.779 122.907, 184.216 122.761 C 184.654 122.615, 177.634 114.475, 168.616 104.672 L 152.221 86.848 153.599 81.674 C 154.356 78.828, 154.982 71.978, 154.988 66.451 L 155 56.401 139.329 42.492 C 130.710 34.842, 122.397 27.522, 120.855 26.225 L 118.052 23.866 103.276 25.917 L 88.500 27.969 71.003 23.484 C 61.379 21.018, 53.054 19.006, 52.503 19.014 C 51.951 19.022, 46.706 30.385, 40.847 44.264 M 104.500 28.445 C 100.100 29.102, 97.175 29.930, 98 30.286 C 100.640 31.423, 128.211 38.098, 129.013 37.793 C 129.438 37.632, 127.112 35.138, 123.844 32.250 C 117.291 26.460, 117.512 26.504, 104.500 28.445 M 90 31.814 C 90 32.463, 95.086 46.238, 95.535 46.805 C 95.667 46.972, 99.764 45.570, 104.638 43.689 L 113.500 40.270 114.133 46.385 C 114.481 49.748, 114.819 56.438, 114.883 61.250 L 115 70 119.318 70 L 123.636 70 127.461 56.443 C 129.669 48.619, 130.909 42.538, 130.393 42.062 C 129.182 40.943, 90 31.003, 90 31.814 M 129.995 57.517 L 125.654 73 120.389 73 L 115.125 73 114.812 84.250 C 114.635 90.635, 114.978 97.014, 115.606 99 C 116.643 102.284, 116.982 102.504, 121.106 102.567 C 123.523 102.604, 128.019 103.404, 131.098 104.344 C 134.177 105.284, 137.514 105.740, 138.512 105.357 C 139.764 104.877, 140.103 105.024, 139.605 105.830 C 139.207 106.474, 139.092 107, 139.348 107 C 139.605 107, 147.958 109.475, 157.911 112.500 C 167.864 115.525, 176.280 118, 176.613 118 C 176.947 118, 173.008 113.447, 167.860 107.883 C 162.712 102.319, 156.370 95.392, 153.766 92.490 L 149.031 87.214 150.505 82.357 C 151.377 79.482, 151.983 73.411, 151.989 67.479 L 152 57.457 144.750 50.978 C 140.762 47.414, 136.788 43.944, 135.918 43.267 C 134.522 42.179, 133.827 43.853, 129.995 57.517 M 104 46.740 C 100.425 48.144, 97.326 49.439, 97.113 49.617 C 96.901 49.795, 98.420 54.454, 100.489 59.970 L 104.251 70 108.125 70 L 112 70 112 57 C 112 49.850, 111.662 44.042, 111.250 44.094 C 110.838 44.145, 107.575 45.336, 104 46.740 M 71.232 59.193 C 59.535 63.650, 50.175 67.508, 50.432 67.765 C 50.885 68.218, 100.190 69.849, 100.805 69.431 C 101.417 69.015, 94.297 51.600, 93.412 51.349 C 92.911 51.206, 82.929 54.736, 71.232 59.193 M 106.004 73.750 C 106.006 74.162, 107.340 77.875, 108.969 82 L 111.931 89.500 111.966 81.250 L 112 73 109 73 C 107.350 73, 106.002 73.338, 106.004 73.750 M 109.634 99.852 C 107.335 102.393, 107.580 103, 110.906 103 C 113.328 103, 113.725 102.664, 113.286 100.984 C 112.533 98.104, 111.504 97.786, 109.634 99.852 M 109.500 105.742 C 105.428 106.155, 102.621 107.972, 100.802 111.370 C 99.699 113.432, 100.069 113.415, 112.196 110.850 C 116.702 109.898, 116.847 109.759, 115.786 107.429 C 115.177 106.093, 114.414 105.076, 114.089 105.168 C 113.765 105.261, 111.700 105.519, 109.500 105.742 M 118.015 105.750 C 118.066 108.209, 119.886 109.042, 123.833 108.411 C 128.435 107.675, 129.206 106.556, 125.750 105.630 C 122.591 104.784, 117.997 104.855, 118.015 105.750 M 124.691 110.722 C 121.705 111.171, 120.103 113.503, 121.690 115.090 C 122.835 116.235, 129.031 113.872, 130.952 111.558 C 132.064 110.218, 131.912 110.021, 129.872 110.150 C 128.568 110.232, 126.236 110.490, 124.691 110.722 M 73.750 121.360 C 65.638 123.077, 59 124.727, 59 125.027 C 59 125.884, 81.051 131.087, 82.054 130.467 C 82.547 130.162, 85.013 127.232, 87.534 123.956 C 92.935 116.936, 93.844 117.107, 73.750 121.360 M 125.967 120.540 C 124.540 122.259, 124.751 123.144, 129.819 136.653 L 132.878 144.806 95.508 161.610 C 74.954 170.851, 58.329 178.723, 58.563 179.102 C 58.797 179.481, 62.485 180.100, 66.757 180.479 L 74.526 181.166 114.513 169.461 C 136.506 163.023, 154.611 157.662, 154.747 157.547 C 155.160 157.200, 128.547 119.053, 127.872 119.026 C 127.527 119.012, 126.670 119.693, 125.967 120.540 M 85.776 138.272 C 67.228 147.747, 52.620 155.627, 53.314 155.782 C 54.499 156.048, 95.251 150.194, 95.517 149.720 C 95.585 149.599, 101.347 143.356, 108.320 135.847 C 120.488 122.745, 121.914 120.973, 120.250 121.022 C 119.838 121.034, 104.324 128.797, 85.776 138.272" stroke="none" fill="black" fill-rule="evenodd"/>
</svg>