<svg xmlns="http://www.w3.org/2000/svg" width="200" height="200" viewBox="0 0 200 200" version="1.1">
	<path d="M 144.691 20.409 L 126.883 30.786 115.191 31.435 C 104.780 32.012, 31.164 34.974, 26.750 34.993 C 25.788 34.997, 25 35.631, 25 36.403 C 25 37.562, 29.557 37.866, 51.250 38.153 C 65.688 38.344, 85.825 38.252, 96 37.949 C 106.175 37.645, 114.620 37.465, 114.766 37.548 C 114.912 37.631, 109.287 41.062, 102.266 45.172 C 95.245 49.283, 89.595 53.124, 89.712 53.708 C 89.828 54.291, 83.528 57.079, 75.712 59.903 L 61.500 65.036 46.114 65.018 L 30.728 65 31.350 76.250 C 31.692 82.438, 32.267 96.050, 32.628 106.500 L 33.284 125.500 37.551 137.500 C 43.863 155.253, 43.951 155.449, 45.065 154.335 C 45.720 153.680, 44.384 148.599, 41.127 139.361 L 36.198 125.379 35.097 99.440 C 34.491 85.173, 33.996 72.263, 33.998 70.750 L 34 68 47.827 68 L 61.654 68 73.966 63.472 C 80.738 60.982, 86.433 59.099, 86.622 59.289 C 87.441 60.108, 70.740 73.965, 67.536 75.123 C 65.080 76.011, 63.989 77.028, 63.965 78.451 C 63.943 79.747, 60.790 83.254, 55.382 87.999 L 46.833 95.498 49.794 97.999 C 51.423 99.374, 58.826 106.237, 66.246 113.250 C 79.148 125.443, 82 127.525, 82 124.751 C 82 124.063, 78.802 113.906, 74.893 102.179 L 67.786 80.857 69.998 78.502 C 71.215 77.207, 78.310 73.564, 85.765 70.406 L 99.321 64.664 104.194 70.082 L 109.067 75.500 108.419 91.258 C 108.063 99.925, 107.485 111.400, 107.136 116.758 L 106.500 126.500 97 127.640 C 91.775 128.267, 80.975 129.076, 73 129.438 C 55.795 130.219, 52 130.718, 52 132.199 C 52 134.240, 106.725 130.608, 108.912 128.422 C 109.188 128.145, 110.017 115.986, 110.754 101.401 L 112.094 74.883 106.965 69.271 L 101.836 63.660 114.581 58.293 C 121.591 55.341, 127.640 53.280, 128.023 53.713 C 128.407 54.146, 129.459 58.325, 130.361 63 C 131.619 69.516, 132.001 77.493, 132.001 97.170 L 132 122.841 125.839 139.670 C 122.451 148.927, 119.289 157.010, 118.813 157.634 C 118.337 158.258, 114.044 159.093, 109.273 159.490 C 104.502 159.888, 99.722 160.537, 98.650 160.934 C 97.083 161.514, 101.051 164.634, 118.968 176.910 C 131.214 185.301, 141.591 191.792, 142.029 191.333 C 142.467 190.875, 147.176 180.829, 152.495 169.010 L 162.165 147.519 161.056 112.510 C 160.446 93.254, 159.672 72.083, 159.336 65.463 L 158.725 53.426 172.863 40.589 C 186.433 28.268, 187.916 26.618, 186.250 25.708 C 185.838 25.483, 173.125 30.560, 158 36.990 L 130.500 48.682 128.791 41.633 C 127.851 37.756, 127.186 34.481, 127.312 34.355 C 127.438 34.228, 131.132 33.821, 135.521 33.450 L 143.500 32.775 153.750 22.656 C 162.850 13.671, 165.636 9.965, 163.250 10.016 C 162.838 10.025, 154.486 14.702, 144.691 20.409 M 143.007 24.587 C 137.786 27.648, 133.286 30.406, 133.007 30.717 C 132.728 31.028, 134.750 30.987, 137.500 30.627 C 141.841 30.059, 143.223 29.250, 147.989 24.486 C 151.008 21.469, 153.258 19.005, 152.989 19.011 C 152.720 19.017, 148.228 21.526, 143.007 24.587 M 154 41.637 C 141.625 46.881, 131.339 51.331, 131.143 51.526 C 130.946 51.722, 131.733 56.311, 132.893 61.725 C 134.724 70.279, 135 74.914, 135 97.127 L 135 122.686 128.078 141.431 C 124.271 151.742, 120.996 160.337, 120.800 160.533 C 120.605 160.729, 116.934 161.325, 112.643 161.857 C 108.352 162.390, 104.698 162.978, 104.523 163.163 C 104.070 163.643, 138.995 187.500, 140.151 187.500 C 140.677 187.500, 145.186 178.500, 150.170 167.500 L 159.233 147.500 158.616 121 C 158.276 106.425, 157.483 85.090, 156.853 73.589 L 155.707 52.677 160.603 48.079 C 163.297 45.550, 168.389 40.898, 171.920 37.741 C 175.452 34.583, 177.927 32.023, 177.420 32.052 C 176.914 32.081, 166.375 36.394, 154 41.637 M 107.723 45.132 L 93.947 53.224 95.723 56.257 C 98.897 61.673, 99.435 61.649, 114.232 55.449 C 121.769 52.290, 127.776 49.435, 127.579 49.103 C 127.383 48.771, 126.690 45.913, 126.040 42.750 C 125.164 38.487, 124.424 37.005, 123.179 37.019 C 122.256 37.030, 115.301 40.680, 107.723 45.132 M 86 64.038 L 79.500 70.010 87.975 66.446 C 92.636 64.487, 96.564 62.770, 96.702 62.631 C 97.133 62.200, 93.926 57.998, 93.193 58.033 C 92.812 58.052, 89.575 60.754, 86 64.038 M 57.790 89.296 L 51.080 95.500 64.252 107.704 C 71.497 114.417, 77.547 119.786, 77.696 119.637 C 78.205 119.128, 65.830 83, 65.163 83.046 C 64.799 83.072, 61.480 85.884, 57.790 89.296" stroke="none" fill="black" fill-rule="evenodd"/>
</svg>