<svg xmlns="http://www.w3.org/2000/svg" width="200" height="200" viewBox="0 0 200 200" version="1.1">
	<path d="M 105 14.596 C 91.573 17.956, 91.308 17.981, 56 19.064 C 36.475 19.664, 20.114 20.528, 19.643 20.985 C 18.281 22.303, 21.694 23.535, 33.750 26.076 C 39.938 27.380, 45 28.757, 45 29.136 C 45 29.514, 43.303 30.111, 41.230 30.461 C 34.005 31.682, 33.844 31.095, 47.964 54.976 C 55.197 67.210, 60.976 77.320, 60.807 77.445 C 60.638 77.569, 54.875 78.227, 48 78.907 C 36.347 80.060, 32.708 81.042, 34.277 82.611 C 34.631 82.965, 46.882 84.490, 61.500 86 C 76.118 87.510, 88.231 88.915, 88.417 89.123 C 88.755 89.500, 72.050 119.284, 70.798 120.535 C 70.204 121.129, 43.892 119.981, 22.250 118.417 C 15.126 117.902, 14 118.037, 14 119.410 C 14 120.285, 14.338 121.002, 14.750 121.005 C 15.162 121.008, 24.544 122.096, 35.598 123.422 L 55.697 125.835 69.800 132.900 C 83.064 139.545, 83.934 140.159, 84.429 143.232 C 84.718 145.030, 86.103 157.275, 87.506 170.445 C 88.909 183.615, 90.173 194.506, 90.316 194.649 C 90.458 194.791, 92.847 190.991, 95.624 186.204 C 98.401 181.417, 107.530 165.688, 115.912 151.250 L 131.151 125 158.075 125 C 180.149 125, 185 124.754, 185 123.636 C 185 122.842, 178.394 119.295, 169.190 115.147 L 153.380 108.023 133.073 111.561 C 121.904 113.507, 112.655 114.964, 112.521 114.799 C 112.219 114.431, 128.462 88.134, 130.393 85.865 C 131.567 84.485, 135.295 84.115, 154.275 83.496 C 175.743 82.796, 181.132 82.058, 178.275 80.206 C 177.601 79.770, 168.841 78.593, 158.808 77.591 C 143.795 76.092, 139.144 75.232, 132.533 72.738 C 128.115 71.071, 124.356 69.591, 124.179 69.449 C 124.003 69.308, 127.226 60.261, 131.341 49.346 C 135.456 38.431, 139.139 27.808, 139.525 25.739 C 139.911 23.670, 140.578 21.761, 141.007 21.496 C 142.132 20.800, 166.260 34.477, 165.846 35.575 C 165.656 36.081, 158.525 42.731, 150 50.352 C 135.584 63.240, 133.167 65.837, 135.341 66.103 C 136.321 66.223, 170.959 35.828, 170.983 34.827 C 170.993 34.457, 165.488 31.119, 158.750 27.410 C 152.012 23.702, 145.174 19.748, 143.553 18.625 C 140.976 16.839, 139.315 16.617, 130.316 16.853 L 120.025 17.124 120.638 14.062 C 121.386 10.322, 122.187 10.295, 105 14.596 M 109 16.500 L 104.500 17.804 110.750 17.902 C 115.683 17.979, 117 17.684, 117 16.500 C 117 14.729, 115.115 14.729, 109 16.500 M 97.500 21.075 C 90.281 21.568, 82.032 22.997, 73.500 25.234 C 61.773 28.308, 60.723 28.762, 62.778 29.871 C 64.031 30.547, 64.875 31.415, 64.654 31.800 C 64.433 32.185, 63.932 42.737, 63.541 55.250 L 62.830 78 74.215 78 L 85.599 78 98.117 62.750 L 110.634 47.500 113.317 34.990 C 114.793 28.110, 116 21.923, 116 21.240 C 116 19.888, 115.029 19.879, 97.500 21.075 M 117.157 30.250 C 115.960 35.888, 114.985 40.868, 114.990 41.318 C 114.998 41.982, 126.167 29.037, 131.874 21.750 C 133.151 20.120, 132.769 20, 126.289 20 L 119.334 20 117.157 30.250 M 125.247 34.168 C 113.701 48.048, 113.272 48.735, 111.648 55.936 C 110.726 60.025, 110.315 63.664, 110.736 64.020 C 111.830 64.950, 121.072 68.281, 121.374 67.856 C 121.514 67.660, 124.842 58.950, 128.771 48.500 C 135.363 30.967, 138.420 21.086, 137.528 20.195 C 137.330 19.997, 131.804 26.285, 125.247 34.168 M 52.500 21.967 C 42.050 22.260, 33.950 22.773, 34.500 23.106 C 35.050 23.440, 39.425 24.520, 44.223 25.507 C 52.477 27.205, 53.363 27.211, 60.723 25.620 C 65 24.695, 70.525 23.307, 73 22.536 C 76.663 21.395, 76.942 21.162, 74.500 21.283 C 72.850 21.366, 62.950 21.673, 52.500 21.967 M 46.654 32.100 C 42.911 33.045, 39.683 33.983, 39.481 34.186 C 39.278 34.389, 43.700 42.331, 49.306 51.836 L 59.500 69.118 60.129 65.309 C 60.475 63.214, 60.970 54.923, 61.229 46.884 L 61.700 32.268 57.580 31.325 C 54.468 30.613, 51.794 30.803, 46.654 32.100 M 97.548 67.652 L 86.595 81 67.548 81.110 C 45.933 81.234, 47.259 81.886, 74.500 84.529 C 84.400 85.489, 92.664 86.415, 92.865 86.586 C 93.066 86.757, 88.566 95.278, 82.865 105.520 L 72.500 124.143 64.500 123.600 L 56.500 123.057 71.500 130.641 C 79.750 134.813, 86.564 138.288, 86.642 138.363 C 86.721 138.438, 87.774 147.950, 88.984 159.500 C 90.194 171.050, 91.479 181.737, 91.842 183.250 C 92.425 185.686, 94.609 182.380, 111 154.250 L 129.500 122.500 153.500 122.222 L 177.500 121.944 165.293 116.441 L 153.085 110.938 130.293 114.827 C 117.757 116.966, 107.367 118.610, 107.205 118.480 C 107.043 118.350, 111.916 110.089, 118.034 100.122 C 127.803 84.208, 129.484 81.984, 131.829 81.868 C 133.298 81.796, 139.675 81.459, 146 81.118 L 157.500 80.500 148 79.301 C 142.407 78.595, 135.415 76.893, 131 75.163 C 126.875 73.546, 123.197 72.404, 122.826 72.624 C 122.456 72.844, 121.407 75.268, 120.496 78.012 C 119.545 80.876, 118.235 83, 117.420 83 C 115.620 83, 115.615 83.051, 118.014 76.964 C 119.122 74.154, 119.806 71.496, 119.535 71.057 C 119.264 70.619, 116.333 69.246, 113.021 68.008 C 106.528 65.580, 106.557 65.632, 108.059 59.118 C 108.615 56.708, 108.941 54.639, 108.785 54.520 C 108.628 54.401, 103.571 60.310, 97.548 67.652" stroke="none" fill="black" fill-rule="evenodd"/>
</svg>