<svg xmlns="http://www.w3.org/2000/svg" width="200" height="200" viewBox="0 0 200 200" version="1.1">
	<path d="M 78.973 22.229 L 74.500 35.458 56.043 56.979 C 36.177 80.142, 26.476 93.192, 27.377 95.539 C 27.802 96.649, 31.740 94.672, 43.719 87.336 C 52.398 82.020, 63.884 75.016, 69.243 71.770 C 77.537 66.748, 80.498 64.168, 89.151 54.427 C 94.742 48.132, 99.459 43.126, 99.635 43.301 C 99.876 43.542, 81.354 86.728, 80.593 87.697 C 80.508 87.806, 75.840 88.688, 70.219 89.658 C 63.454 90.825, 60 91.856, 60 92.710 C 60 93.667, 62.307 94, 68.937 94 L 77.873 94 73.420 104.184 C 70.970 109.785, 68.813 114.520, 68.627 114.706 C 68.327 115.006, 53.012 112.971, 44.250 111.467 L 41 110.909 41.003 122.705 C 41.004 129.192, 41.300 143.612, 41.661 154.750 L 42.317 175 55.409 175.024 C 62.609 175.038, 79.578 174.048, 93.118 172.826 L 117.736 170.602 136.118 175.551 C 146.228 178.273, 154.943 180.500, 155.485 180.500 C 156.447 180.500, 161.313 130.050, 160.645 127 C 160.465 126.175, 155.991 119.641, 150.703 112.479 L 141.090 99.458 131.866 95.553 L 122.643 91.647 130.019 88.293 C 134.075 86.448, 137.578 84.755, 137.803 84.530 C 138.028 84.306, 130.790 73.935, 121.719 61.485 C 110.065 45.490, 105.374 38.285, 105.730 36.925 C 106.007 35.866, 106.577 35, 106.997 35 C 107.416 35, 113.725 44.461, 121.016 56.025 C 128.306 67.589, 134.743 77.341, 135.319 77.697 C 136.260 78.279, 182.220 83.120, 182.646 82.682 C 182.743 82.582, 179.018 76.200, 174.367 68.500 C 169.716 60.800, 165.587 53.958, 165.191 53.295 C 164.795 52.633, 163.953 52.411, 163.320 52.802 C 162.547 53.280, 164.742 57.781, 170.003 66.505 C 174.312 73.650, 177.762 79.542, 177.669 79.599 C 177.576 79.655, 168.284 78.756, 157.020 77.601 L 136.540 75.500 122.669 53.557 L 108.799 31.614 109.940 27.807 C 110.567 25.713, 111.460 24, 111.924 24 C 112.388 24, 114.463 25.912, 116.535 28.250 C 126.102 39.042, 146.293 58.937, 147.144 58.411 C 148.231 57.739, 145.186 54.288, 125.295 33.645 L 110.982 18.791 107.563 26.291 C 105.683 30.417, 103.733 34.047, 103.229 34.358 C 102.726 34.670, 98.110 29.091, 92.973 21.962 C 87.835 14.833, 83.590 9, 83.539 9 C 83.488 9, 81.433 14.953, 78.973 22.229 M 80.497 26.008 L 76.771 37.191 58.098 58.846 C 40.124 79.689, 32.016 90.033, 33.702 89.971 C 34.141 89.954, 44.152 83.992, 55.949 76.721 L 77.398 63.500 88.660 51 C 94.854 44.125, 99.939 37.996, 99.961 37.381 C 99.993 36.470, 87.742 18.704, 84.984 15.662 C 84.566 15.201, 82.547 19.857, 80.497 26.008 M 94.500 62.685 C 89.550 74.045, 85.156 84.221, 84.735 85.298 C 84.044 87.067, 84.285 87.192, 87.235 86.592 C 103.097 83.369, 103.425 83.372, 111.693 86.823 L 119.418 90.047 126.729 86.834 C 130.750 85.067, 133.919 83.320, 133.770 82.953 C 133.206 81.557, 104.476 42.099, 104 42.065 C 103.725 42.046, 99.450 51.325, 94.500 62.685 M 93.526 88.165 C 88.041 89.165, 83.091 90.176, 82.526 90.412 C 81.962 90.649, 88.663 90.878, 97.417 90.921 C 106.171 90.964, 113.137 90.803, 112.896 90.563 C 112.656 90.322, 110.443 89.276, 107.980 88.236 C 103.614 86.396, 103.246 86.394, 93.526 88.165 M 99.572 93.976 L 80.643 94.500 76.379 104 C 74.033 109.225, 72.089 114.063, 72.057 114.750 C 72.016 115.647, 74.181 116, 79.726 116 L 87.453 116 94.521 108.979 L 101.590 101.957 117.545 107.888 C 126.320 111.150, 134.259 114.122, 135.187 114.492 C 136.115 114.862, 136.656 115.734, 136.389 116.428 C 136.028 117.371, 129.939 117.840, 112.320 118.285 L 88.735 118.880 85.867 121.627 C 84.290 123.138, 83 124.727, 83 125.158 C 83 125.711, 111.501 149.111, 118.815 154.562 C 119.115 154.786, 113.007 160.644, 106.500 166.376 L 103.500 169.018 111 168.407 C 117.867 167.848, 119.959 168.197, 135.775 172.540 C 145.276 175.149, 153.266 177.067, 153.531 176.802 C 153.796 176.537, 154.955 165.220, 156.108 151.652 L 158.203 126.984 148.651 114.242 L 139.099 101.500 129.800 97.629 C 124.685 95.500, 120.050 93.689, 119.500 93.605 C 118.950 93.521, 109.982 93.688, 99.572 93.976 M 96.924 110.577 L 91.568 116 100.034 115.888 C 104.690 115.827, 112.775 115.489, 118 115.138 L 127.500 114.500 123 112.857 C 120.525 111.953, 114.851 109.850, 110.390 108.184 L 102.280 105.154 96.924 110.577 M 44 139.856 C 44 154.098, 44.281 167.156, 44.625 168.875 L 45.250 172 58.875 172.007 C 73.360 172.015, 97.977 170.205, 99.282 169.036 C 99.712 168.651, 90.393 163.680, 78.574 157.989 L 57.084 147.643 67.673 136.682 L 78.263 125.721 74.382 122.397 C 69.742 118.425, 67.034 117.461, 56.500 116.026 C 52.100 115.427, 47.487 114.717, 46.250 114.449 L 44 113.962 44 139.856 M 76.861 121.033 C 79.800 123.482, 80.257 123.479, 82.500 121 C 84.287 119.026, 84.247 119, 79.405 119.033 L 74.500 119.067 76.861 121.033 M 70.628 137.445 L 61.941 146.891 81.621 156.445 C 92.445 161.700, 101.687 166, 102.159 166 C 102.631 166, 105.707 163.528, 108.994 160.506 L 114.970 155.012 98.116 141.506 C 88.846 134.078, 80.824 128, 80.288 128 C 79.753 128, 75.406 132.250, 70.628 137.445" stroke="none" fill="black" fill-rule="evenodd"/>
</svg>