<svg xmlns="http://www.w3.org/2000/svg" width="200" height="200" viewBox="0 0 200 200" version="1.1">
	<path d="M 74.994 24.078 C 51.829 63.336, 56.429 57.478, 34.008 76.271 C 23.004 85.495, 14 93.531, 14 94.129 C 14 95.925, 17.371 94.600, 42.500 82.932 L 66.500 71.788 83 72.406 C 92.075 72.745, 104.563 73.304, 110.750 73.647 C 125.442 74.463, 125.811 73.014, 112.451 66.978 C 104.946 63.587, 92.021 55.354, 88.194 51.527 C 87.904 51.237, 93.479 51.004, 100.583 51.009 L 113.500 51.017 120.848 61.527 C 124.890 67.307, 128.396 72.816, 128.640 73.768 C 129.007 75.201, 126.071 76.589, 111.615 81.816 L 94.146 88.131 67.073 89.751 C 46.197 91.001, 40 91.672, 40 92.686 C 40 94.313, 39.959 94.314, 77.471 92.532 C 93.955 91.749, 107.570 91.236, 107.725 91.392 C 107.881 91.548, 107.517 93.088, 106.915 94.815 C 105.400 99.160, 76.544 122.344, 73.550 121.622 C 68.735 120.459, 40.807 115.860, 40.490 116.177 C 39.999 116.667, 41.561 177.897, 42.077 178.401 C 42.310 178.628, 50.544 177.204, 60.374 175.237 L 78.249 171.661 106.874 174.917 L 135.500 178.173 149.969 170.567 C 157.927 166.384, 164.768 162.632, 165.171 162.229 C 165.574 161.826, 161.600 151.372, 156.340 138.998 C 151.080 126.624, 145.767 112.900, 144.534 108.500 C 143.301 104.100, 140.394 95.668, 138.075 89.763 L 133.858 79.026 136.589 76.677 C 139.892 73.836, 139.152 71.611, 135.381 73.045 C 132.764 74.040, 131 73.598, 131 71.948 C 131 71.435, 127.860 66.652, 124.022 61.319 C 117.589 52.383, 116.023 49.238, 119.226 51.691 C 119.927 52.227, 131.003 60.876, 143.840 70.910 C 156.677 80.943, 167.389 88.944, 167.644 88.690 C 167.899 88.435, 168.900 81.176, 169.870 72.559 C 171.101 61.615, 171.311 56.689, 170.566 56.220 C 169.980 55.851, 157.800 50.346, 143.500 43.987 C 117.761 32.540, 117.372 32.321, 104.708 22.212 C 97.672 16.595, 91.297 12, 90.541 12 C 89.785 12, 88.291 10.798, 87.220 9.328 L 85.274 6.656 74.994 24.078 M 70.661 36.693 L 56.036 61.500 40.518 74.398 C 27.170 85.493, 22.591 89.607, 25.789 87.630 C 26.224 87.362, 35.561 83.021, 46.539 77.983 L 66.500 68.825 80 69.425 C 87.425 69.756, 98 70.254, 103.500 70.534 L 113.500 71.041 106.551 67.406 C 102.729 65.408, 95.079 60.336, 89.551 56.136 L 79.500 48.500 95.185 48 L 110.870 47.500 98.868 30.500 C 92.267 21.150, 86.511 13.137, 86.077 12.693 C 85.642 12.250, 78.705 23.050, 70.661 36.693 M 96.620 22.630 C 114.424 47.899, 114.479 47.967, 116.812 47.983 C 118.278 47.994, 127.550 54.614, 142.152 66.076 C 154.818 76.019, 165.331 84.002, 165.515 83.819 C 165.899 83.434, 168.829 58.627, 168.534 58.253 C 168.426 58.116, 156.675 52.854, 142.419 46.559 C 117.966 35.760, 115.910 34.643, 106.071 26.806 C 91.233 14.988, 91.237 14.990, 96.620 22.630 M 116.039 83.103 C 108.636 85.845, 102.388 88.279, 102.154 88.513 C 101.920 88.747, 104.053 88.663, 106.894 88.326 L 112.059 87.714 111.002 90.496 C 110.420 92.026, 110.115 93.448, 110.324 93.657 C 110.646 93.979, 126.610 81.681, 129.450 78.923 C 130.778 77.633, 130.989 77.567, 116.039 83.103 M 119.656 90.239 L 108.002 99.500 103.896 112.500 C 101.639 119.650, 99.414 126.210, 98.952 127.079 C 98.192 128.508, 97.101 128.478, 87.394 126.755 C 76.892 124.891, 76.624 124.890, 74.150 126.737 C 72.762 127.774, 71.494 129.044, 71.332 129.561 C 71.170 130.077, 83.166 137.015, 97.990 144.979 C 112.814 152.942, 124.618 159.742, 124.221 160.090 C 123.825 160.437, 115.878 162.607, 106.563 164.913 L 89.627 169.104 73.813 153.314 C 65.116 144.629, 58 137.200, 58 136.805 C 58 136.410, 61.163 133.530, 65.030 130.406 C 68.896 127.282, 71.891 124.557, 71.684 124.350 C 71.168 123.835, 43.630 119.037, 43.268 119.399 C 43.108 119.559, 43.279 132.134, 43.649 147.345 C 44.135 167.352, 44.643 175, 45.487 175 C 46.128 175, 53.571 173.604, 62.028 171.897 L 77.404 168.794 105.984 172.067 L 134.564 175.340 147.885 168.484 C 155.211 164.713, 161.398 161.125, 161.634 160.512 C 161.869 159.898, 157.819 149.412, 152.634 137.209 C 147.448 125.007, 142.647 112.655, 141.965 109.761 C 140.910 105.285, 132.511 82.178, 131.613 81.279 C 131.447 81.113, 126.066 85.145, 119.656 90.239 M 91.522 112.797 L 79.544 122.427 85.522 123.670 C 96.959 126.048, 96.342 126.435, 100.399 114.321 C 102.366 108.447, 103.868 103.535, 103.737 103.404 C 103.607 103.274, 98.110 107.500, 91.522 112.797 M 64.990 134.039 L 61.500 136.918 76.093 151.547 L 90.685 166.177 103.093 162.944 C 109.917 161.166, 115.863 159.391, 116.306 159 C 116.750 158.608, 106.400 152.536, 93.306 145.506 C 80.213 138.476, 69.271 132.372, 68.990 131.942 C 68.710 131.511, 66.910 132.455, 64.990 134.039" stroke="none" fill="black" fill-rule="evenodd"/>
</svg>