<svg xmlns="http://www.w3.org/2000/svg" width="200" height="200" viewBox="0 0 200 200" version="1.1">
	<path d="M 105.118 25.091 C 88.408 26.652, 74.488 28.179, 74.185 28.482 C 72.197 30.470, 78.468 30.446, 100.500 28.380 C 114.250 27.090, 125.923 26.168, 126.440 26.331 C 126.957 26.494, 120.780 31.098, 112.713 36.563 C 104.646 42.028, 98.035 46.774, 98.023 47.108 C 98.010 47.442, 102.162 48.280, 107.250 48.969 C 112.338 49.658, 116.848 50.430, 117.274 50.685 C 117.700 50.939, 114.641 53.636, 110.476 56.678 C 105.216 60.519, 102.284 62.046, 100.874 61.677 C 99.320 61.271, 98.617 61.801, 97.870 63.943 C 97.290 65.608, 94.609 68.310, 91.247 70.620 L 85.599 74.500 90.145 74.798 L 94.690 75.097 92.595 82.586 C 90.654 89.525, 90.316 90.055, 88 89.788 C 85.501 89.500, 85.500 89.503, 84.418 102 C 83.516 112.426, 82.286 118.109, 77.004 136.252 C 73.521 148.216, 70.883 158.216, 71.142 158.475 C 71.529 158.862, 111.824 149.164, 112.804 148.448 C 112.971 148.326, 114.918 142.212, 117.131 134.863 C 119.343 127.513, 121.682 120.987, 122.327 120.360 C 123.826 118.903, 149.288 112.917, 150.139 113.821 C 151.190 114.938, 164 145.313, 164 146.689 C 164 148.393, 144.942 178.085, 143.491 178.642 C 142.863 178.883, 131.583 176.766, 118.424 173.938 L 94.500 168.795 76.067 169.148 L 57.634 169.500 50.177 151.250 L 42.720 133 39.360 133 C 37.512 133, 36 132.744, 36 132.431 C 36 132.117, 39.843 123.468, 44.540 113.210 C 51.451 98.116, 53.786 93.980, 56.781 91.529 C 58.816 89.863, 61.804 87.327, 63.422 85.894 L 66.362 83.287 53.221 73.437 C 45.993 68.020, 40.323 63.344, 40.620 63.047 C 40.917 62.750, 45.410 62.232, 50.603 61.897 C 55.797 61.561, 60.276 61.058, 60.555 60.778 C 60.835 60.499, 59.699 54.138, 58.032 46.642 C 56.364 39.147, 55 31.886, 55 30.507 C 55 28.945, 54.435 28, 53.500 28 C 51.398 28, 51.611 30.535, 54.967 45.476 C 56.570 52.612, 57.796 58.520, 57.691 58.605 C 57.586 58.689, 51.650 59.150, 44.500 59.629 L 31.500 60.500 46.790 72 L 62.080 83.500 59.753 85.500 C 58.474 86.600, 55.940 88.742, 54.124 90.261 C 51.609 92.363, 48.491 98.090, 41.058 114.261 L 31.295 135.500 36.350 136 L 41.405 136.500 48.604 154.500 L 55.802 172.500 75.651 172.156 L 95.500 171.813 118.880 176.906 C 131.740 179.708, 142.990 181.990, 143.880 181.979 C 144.874 181.966, 149.805 175.233, 156.632 164.573 L 167.763 147.189 159.845 128.891 C 155.489 118.827, 151.773 110.440, 151.587 110.254 C 151.401 110.067, 145.519 111.284, 138.516 112.957 C 131.514 114.631, 125.183 116, 124.446 116 C 123.353 116, 123.390 115.036, 124.645 110.750 C 125.490 107.862, 126.577 105.086, 127.060 104.581 C 127.591 104.025, 130.905 104.479, 135.433 105.727 C 140.980 107.255, 143.168 107.494, 143.851 106.646 C 144.359 106.016, 149.935 96.419, 156.242 85.319 C 166.777 66.780, 167.765 64.596, 168.393 58.468 C 168.769 54.799, 168.692 51.280, 168.222 50.649 C 160.373 40.103, 149.478 27.143, 148.958 27.733 C 148.586 28.155, 143.230 44.250, 137.056 63.500 C 130.881 82.750, 125.530 98.792, 125.164 99.149 C 124.555 99.745, 94.571 91.904, 93.549 90.882 C 93.117 90.450, 96.946 76.008, 97.760 75 C 97.982 74.725, 102.867 74.238, 108.614 73.918 C 122.505 73.144, 123.388 72.038, 113.655 67.602 C 109.445 65.684, 106 63.901, 106 63.642 C 106 63.382, 110.262 60.119, 115.472 56.390 C 120.682 52.661, 124.779 49.446, 124.577 49.244 C 124.375 49.042, 120.009 48.201, 114.874 47.374 C 109.739 46.548, 105.391 45.724, 105.211 45.545 C 105.032 45.365, 111.998 40.384, 120.692 34.477 C 138.253 22.544, 139.042 21.944, 136.950 22.125 C 136.153 22.194, 121.828 23.529, 105.118 25.091 M 143.928 51.217 C 130.173 93.927, 128.111 100.444, 128.302 100.610 C 128.411 100.705, 131.534 101.687, 135.243 102.792 L 141.985 104.801 153.441 84.651 C 163.533 66.897, 164.975 63.773, 165.561 58.392 L 166.226 52.283 158.183 42.108 L 150.139 31.934 143.928 51.217 M 100.750 67.088 C 99.787 67.644, 99 69.033, 99 70.175 C 99 71.966, 99.428 72.164, 102.125 71.625 C 103.844 71.281, 107.106 70.980, 109.375 70.956 L 113.500 70.912 110 69.083 C 104.907 66.422, 102.720 65.950, 100.750 67.088 M 88.079 94.583 C 88.127 95.748, 88.364 95.985, 88.683 95.188 C 88.972 94.466, 88.936 93.603, 88.604 93.271 C 88.272 92.939, 88.036 93.529, 88.079 94.583 M 91.168 97.161 C 88.053 107.111, 86.139 115.077, 85.741 119.750 C 85.370 124.107, 85.566 124.987, 86.897 124.924 C 87.779 124.882, 95.475 123.182, 104 121.146 L 119.500 117.444 121.691 111.472 C 122.895 108.187, 123.908 104.815, 123.941 103.978 C 123.993 102.625, 114.196 99.443, 94.357 94.371 C 92.605 93.923, 92.023 94.432, 91.168 97.161 M 98.586 125.073 C 89.833 127.186, 82.339 129.451, 81.934 130.107 C 80.678 132.139, 74.676 154.009, 75.224 154.557 C 75.834 155.167, 109.127 147.053, 110.303 146.008 C 111.036 145.356, 117.966 123.489, 117.990 121.750 C 118.006 120.561, 115.509 120.989, 98.586 125.073" stroke="none" fill="black" fill-rule="evenodd"/>
</svg>