<svg xmlns="http://www.w3.org/2000/svg" width="200" height="200" viewBox="0 0 200 200" version="1.1">
	<path d="M 103.123 14.404 C 98.516 19.726, 94.548 23.882, 94.306 23.639 C 94.064 23.397, 94.351 19.710, 94.944 15.444 C 95.538 11.179, 95.896 7.563, 95.741 7.407 C 95.585 7.252, 87.719 12.960, 78.261 20.091 C 63.491 31.227, 60.806 32.896, 59.235 31.915 C 57.801 31.019, 52.666 31.619, 35.453 34.691 L 13.500 38.610 13.855 98.055 C 14.050 130.750, 14.335 157.636, 14.490 157.802 C 14.741 158.073, 32.892 141.951, 42.089 133.289 L 45.678 129.908 58.907 133.053 C 66.183 134.783, 72.340 135.993, 72.589 135.744 C 72.839 135.494, 77.085 122.098, 82.024 105.976 C 86.964 89.853, 91.121 76.546, 91.261 76.405 C 91.402 76.265, 94.213 78.180, 97.509 80.663 C 100.804 83.145, 104.341 85.779, 105.370 86.516 C 107.169 87.806, 107.007 88.827, 101.061 113.678 C 97.662 127.880, 94.646 140.311, 94.357 141.302 C 94.068 142.293, 83.407 151.455, 70.666 161.660 C 57.925 171.866, 47.500 180.730, 47.500 181.358 C 47.500 183.009, 49.665 182.635, 67.925 177.826 L 84.350 173.500 106.060 148.952 L 127.770 124.405 129.385 116.595 C 130.273 112.300, 131.047 108.497, 131.105 108.143 C 131.193 107.601, 138.837 168.048, 138.959 170.250 C 138.981 170.662, 148.921 171, 161.047 171 L 183.094 171 167.797 150.826 L 152.500 130.651 143.424 104.576 C 138.432 90.234, 134.692 78.359, 135.114 78.187 C 135.536 78.014, 137.551 78.334, 139.592 78.898 C 142.401 79.673, 146.832 79.445, 157.823 77.956 C 165.809 76.875, 172.560 75.773, 172.825 75.508 C 173.438 74.895, 161.978 43, 161.145 43 C 160.805 43, 150.505 44.647, 138.257 46.661 C 126.009 48.674, 115.735 50.068, 115.425 49.759 C 115.116 49.449, 114.216 40.264, 113.425 29.348 C 112.634 18.432, 111.877 8.426, 111.743 7.114 C 111.534 5.065, 110.316 6.096, 103.123 14.404 M 102 19.779 C 92.924 30.276, 93.210 29.699, 91.907 40.110 C 90.919 48.003, 89.386 52.878, 82.288 70.689 C 76.399 85.467, 73.449 91.726, 72.538 91.376 C 71.583 91.010, 73.466 85.298, 79.535 70.145 C 85.461 55.352, 88.133 47.289, 88.867 41.990 C 89.434 37.905, 89.807 34.476, 89.698 34.369 C 89.589 34.262, 86.713 37.447, 83.307 41.446 L 77.113 48.718 80.559 52.057 C 82.855 54.283, 83.671 55.729, 83.004 56.396 C 82.337 57.063, 80.877 56.304, 78.624 54.120 L 75.243 50.844 59.577 68.672 L 43.910 86.500 44.429 94.500 C 44.714 98.900, 45.250 105.537, 45.619 109.250 C 46.158 114.677, 46.016 116, 44.895 115.999 C 43.857 115.998, 42.116 108.511, 38.094 86.749 C 35.120 70.662, 32.498 56.972, 32.266 56.327 C 32.034 55.682, 37.617 50.817, 44.673 45.516 C 51.728 40.215, 57.650 35.456, 57.833 34.939 C 58.017 34.423, 57.342 34.002, 56.333 34.005 C 54.005 34.011, 17.015 40.652, 16.512 41.154 C 16.307 41.360, 16.445 66.388, 16.819 96.773 L 17.500 152.017 31.258 139.452 L 45.017 126.886 57.684 129.967 C 65.146 131.782, 70.588 132.659, 70.926 132.101 C 71.242 131.580, 75.550 117.848, 80.500 101.586 C 85.450 85.324, 89.786 72.015, 90.137 72.010 C 90.618 72.002, 107.617 84.560, 109.905 86.613 C 110.128 86.813, 107.203 99.885, 103.405 115.662 L 96.500 144.347 76.531 160.423 C 65.548 169.266, 55.873 177.064, 55.031 177.752 C 53.706 178.836, 53.702 178.941, 55 178.528 C 55.825 178.266, 62.229 176.497, 69.230 174.597 C 76.232 172.697, 82.402 170.869, 82.943 170.535 C 83.483 170.201, 92.337 160.382, 102.617 148.714 C 112.898 137.046, 122.180 126.528, 123.245 125.339 C 124.472 123.970, 126.092 118.841, 127.667 111.339 C 130.026 100.098, 131.223 96.890, 132.558 98.225 C 132.884 98.550, 135.007 114.383, 137.276 133.408 L 141.402 168 159.251 168 C 173.742 168, 176.949 167.753, 176.300 166.685 C 175.860 165.961, 169.690 157.695, 162.590 148.316 L 149.679 131.262 139.924 102.881 C 134.558 87.271, 130.284 74.384, 130.426 74.242 C 130.567 74.100, 133.792 74.671, 137.591 75.511 C 143.912 76.909, 145.577 76.888, 157.161 75.269 L 169.822 73.500 165.047 60.220 C 162.421 52.916, 160.047 46.713, 159.770 46.437 C 159.494 46.161, 148.841 47.680, 136.098 49.814 C 123.355 51.947, 112.770 53.425, 112.578 53.096 C 112.385 52.768, 111.665 43.725, 110.978 33 C 110.291 22.275, 109.452 13.221, 109.114 12.881 C 108.776 12.540, 105.575 15.644, 102 19.779 M 77.113 24.314 L 62.726 35.335 68.275 40.667 C 71.327 43.600, 74.278 46, 74.833 46 C 75.388 46, 79.209 42.075, 83.324 37.278 L 90.807 28.557 91.496 21.204 C 91.875 17.160, 92.031 13.725, 91.842 13.572 C 91.654 13.418, 85.026 18.252, 77.113 24.314 M 48.349 46.097 C 41.832 51.074, 36.192 55.451, 35.816 55.823 C 35.141 56.491, 40.070 84.448, 41.013 85.299 C 41.465 85.706, 72.174 50.712, 72.769 49.111 C 72.916 48.713, 70.149 45.836, 66.618 42.717 L 60.199 37.047 48.349 46.097" stroke="none" fill="black" fill-rule="evenodd"/>
</svg>