<svg xmlns="http://www.w3.org/2000/svg" width="200" height="200" viewBox="0 0 200 200" version="1.1">
	<path d="M 81.508 11.250 C 80.677 13.672, 75 43.972, 75 45.985 C 75 47.977, 90.534 80, 91.500 80 C 91.769 80, 95.642 72.688, 100.107 63.750 C 104.572 54.813, 108.287 47.441, 108.363 47.368 C 108.438 47.296, 112.489 47.521, 117.365 47.868 L 126.230 48.500 128.598 55 C 130.756 60.920, 130.969 63.105, 130.996 79.500 C 131.021 94.195, 131.666 102.366, 134.509 124 C 136.425 138.575, 137.994 150.838, 137.996 151.250 C 137.998 151.662, 138.625 152, 139.389 152 C 140.961 152, 140.776 152.883, 145.080 124.739 L 148.255 103.977 141.128 83.098 C 134.593 63.957, 134 61.544, 134 54.109 C 134 46.281, 133.919 46, 131.667 46 C 130.383 46, 129.007 45.673, 128.608 45.274 C 128.209 44.875, 125.321 43.577, 122.191 42.389 C 114.211 39.362, 113.083 39.515, 164.413 36.662 L 167.325 36.500 171.624 53.500 L 175.922 70.500 175.962 100 L 176.003 129.500 171.099 148.819 C 168.402 159.444, 165.959 168.374, 165.670 168.664 C 165.380 168.953, 157.761 165.329, 148.737 160.609 L 132.332 152.029 118.989 156.504 C 111.650 158.965, 105.578 160.871, 105.496 160.740 C 105.414 160.608, 107.044 146.550, 109.120 129.500 C 111.196 112.450, 112.918 97.750, 112.947 96.834 C 112.983 95.691, 107.116 91.871, 94.252 84.665 C 83.941 78.889, 75.360 74.307, 75.184 74.483 C 75.008 74.659, 79.782 83.285, 85.793 93.651 C 91.803 104.018, 97.267 113.544, 97.933 114.820 C 98.808 116.495, 96.205 115.104, 88.574 109.820 C 82.759 105.794, 77.101 101.883, 76.001 101.128 C 74.107 99.830, 74.001 99.964, 74.021 103.628 C 74.033 105.758, 74.682 117.069, 75.463 128.765 L 76.884 150.031 66.192 167.985 C 60.311 177.860, 55.232 185.953, 54.904 185.970 C 54.576 185.986, 53.719 172.950, 53 157 C 52.281 141.050, 51.406 128, 51.054 128 C 50.703 128, 44.626 132.785, 37.549 138.634 C 30.473 144.483, 24.927 148.645, 25.225 147.884 C 25.523 147.123, 28.744 138.920, 32.383 129.656 C 36.023 120.393, 39 112.225, 39 111.506 C 39 110.787, 36.124 103.406, 32.609 95.104 L 26.217 80.008 40.684 70.815 C 54.661 61.933, 55.080 61.569, 53.060 60.045 C 51.910 59.178, 45.595 55.101, 39.027 50.984 C 32.458 46.868, 27.065 43.246, 27.042 42.936 C 27.019 42.626, 37.125 38.155, 49.500 33 C 62.660 27.518, 72 23.082, 72 22.314 C 72 21.591, 71.790 21, 71.534 21 C 70.621 21, 22.486 41.242, 21.714 41.950 C 21.282 42.347, 27.504 46.851, 35.542 51.958 C 43.579 57.066, 49.783 61.562, 49.328 61.950 C 48.872 62.338, 42.875 66.192, 36 70.514 C 29.125 74.836, 23.353 78.473, 23.174 78.596 C 22.994 78.719, 25.807 85.912, 29.424 94.581 C 33.041 103.251, 36 110.898, 36 111.576 C 36 112.253, 32.177 122.603, 27.505 134.575 C 22.832 146.547, 19.127 156.460, 19.271 156.604 C 19.414 156.748, 26.050 151.534, 34.016 145.019 C 41.982 138.503, 48.601 133.272, 48.724 133.394 C 48.927 133.594, 51.957 188.589, 52.032 193.441 C 52.064 195.494, 52.068 195.494, 53.581 193.500 C 54.415 192.400, 60.627 182.275, 67.385 171 L 79.673 150.500 78.410 132 C 77.715 121.825, 77.114 111.598, 77.074 109.273 L 77 105.046 89.170 113.620 C 95.863 118.335, 101.893 122.405, 102.569 122.665 C 105.845 123.922, 104.178 119.840, 94.889 103.861 C 83.379 84.063, 81.499 80.586, 82.667 81.261 C 83.125 81.526, 89.350 85.019, 96.500 89.025 C 103.650 93.030, 109.659 96.434, 109.852 96.589 C 110.221 96.885, 103.345 156.463, 102.390 161.250 C 102.006 163.174, 102.251 164, 103.204 164 C 103.954 164, 110.846 161.996, 118.520 159.547 L 132.472 155.094 149.361 164.047 C 158.650 168.971, 166.627 173, 167.087 173 C 168.018 173, 168.065 172.835, 174.449 147.290 L 179 129.081 178.914 99.290 L 178.827 69.500 174.164 51.500 C 169.640 34.042, 169.425 33.505, 167 33.678 C 165.625 33.777, 151.770 34.645, 136.211 35.608 C 112.466 37.079, 107.969 37.596, 108.211 38.832 C 108.370 39.641, 111.200 41.360, 114.500 42.652 L 120.500 44.999 113.629 44.750 L 106.757 44.500 99.372 59.250 C 95.311 67.362, 91.768 74, 91.500 74 C 91.233 74, 87.931 67.813, 84.164 60.250 L 77.314 46.500 80.594 30 C 82.397 20.925, 83.902 12.713, 83.937 11.750 C 84.009 9.749, 82.154 9.367, 81.508 11.250 M 129.699 49.958 C 130.466 52.891, 132.239 53.706, 131.834 50.939 C 131.650 49.684, 130.973 48.483, 130.329 48.271 C 129.582 48.026, 129.354 48.638, 129.699 49.958 M 134.053 84.500 C 133.941 98.991, 138.854 142.376, 140.086 137.770 C 140.460 136.374, 141.764 128.092, 142.984 119.366 L 145.204 103.500 139.679 87.500 L 134.154 71.500 134.053 84.500" stroke="none" fill="black" fill-rule="evenodd"/>
</svg>