<svg xmlns="http://www.w3.org/2000/svg" width="200" height="200" viewBox="0 0 200 200" version="1.1">
	<path d="M 123 22.720 L 80.500 29.193 65.939 27.996 L 51.378 26.799 35.112 34.944 L 18.846 43.089 19.442 52.794 C 21.382 84.380, 21.895 110.399, 21.014 132.500 C 20.487 145.700, 20.044 159.434, 20.028 163.020 L 20 169.540 39.750 168.294 C 50.612 167.609, 72.495 165.936, 88.377 164.575 L 117.254 162.100 140.159 173.185 C 152.757 179.281, 163.261 184.073, 163.500 183.833 C 163.740 183.593, 165.719 172.170, 167.899 158.449 C 171.729 134.332, 171.884 132.399, 172.542 100.500 L 173.222 67.500 168.611 44.180 C 166.075 31.354, 164 20.441, 164 19.930 C 164 19.418, 164.900 19, 166 19 C 167.111 19, 168 18.333, 168 17.500 C 168 16.675, 167.438 16.056, 166.750 16.124 C 166.063 16.191, 146.375 19.160, 123 22.720 M 119.154 26.049 C 105.213 28.145, 93.606 30.061, 93.360 30.307 C 93.113 30.553, 97.994 31.072, 104.206 31.460 L 115.500 32.165 132 27.460 C 141.075 24.873, 148.688 22.586, 148.917 22.378 C 149.767 21.606, 143.880 22.333, 119.154 26.049 M 139.562 28.051 C 130.246 30.750, 122.146 33.165, 121.562 33.418 C 120.978 33.670, 125.530 33.614, 131.677 33.292 L 142.855 32.708 143.527 36.293 L 144.200 39.878 149.776 33.189 C 152.842 29.510, 156.017 25.712, 156.831 24.750 C 158.775 22.450, 159.117 22.385, 139.562 28.051 M 152.543 34.178 L 143.897 44.500 144.698 66.500 C 145.574 90.519, 145.599 93.671, 145.218 130.500 L 144.960 155.500 139.717 150 C 136.833 146.975, 130.114 139.810, 124.785 134.078 L 115.096 123.657 108.798 127.551 L 102.500 131.445 83 133.138 C 72.275 134.069, 63.449 134.756, 63.388 134.665 C 63.326 134.574, 63.007 120.008, 62.679 102.296 L 62.083 70.093 66.623 68.796 L 71.163 67.500 59.832 52.753 L 48.500 38.005 41.769 38.003 C 36.205 38, 33.907 38.558, 28.519 41.215 C 23.024 43.925, 22.005 44.827, 22.033 46.965 C 22.052 48.359, 22.648 62.775, 23.359 79 C 24.174 97.620, 24.377 115.692, 23.910 128 C 23.502 138.725, 23.131 151.777, 23.084 157.004 L 23 166.508 37.250 165.697 C 45.088 165.251, 66.350 163.608, 84.500 162.045 L 117.500 159.203 139.342 169.676 C 151.355 175.436, 161.315 180.003, 161.474 179.824 C 161.633 179.646, 163.486 168.925, 165.591 156 C 169.378 132.741, 169.421 132.161, 169.781 99.500 L 170.144 66.500 165.986 45.500 C 163.699 33.950, 161.684 24.355, 161.509 24.178 C 161.334 24.002, 157.299 28.502, 152.543 34.178 M 47 32 C 42.823 34.287, 43.572 34.360, 55.254 32.804 C 61.093 32.027, 63.582 31.352, 62.367 30.875 C 58.735 29.447, 50.571 30.045, 47 32 M 69.500 33.449 C 62.728 34.688, 63.136 34.731, 82 34.755 C 93.896 34.771, 99.940 34.479, 97.500 34.008 C 89.373 32.437, 76.444 32.179, 69.500 33.449 M 116 36.744 C 111.875 36.934, 97.700 37.408, 84.500 37.795 L 60.500 38.500 94 47.394 C 112.425 52.285, 128.010 56.476, 128.634 56.706 C 129.258 56.937, 132.296 54.146, 135.384 50.506 C 140.137 44.904, 141 43.280, 141 39.943 L 141 36 132.250 36.199 C 127.438 36.308, 120.125 36.553, 116 36.744 M 54.630 41.250 C 55.042 41.938, 59.597 47.973, 64.752 54.663 L 74.126 66.826 85.313 63.853 C 91.466 62.218, 98.714 60.233, 101.420 59.443 C 104.126 58.653, 106.511 58.178, 106.721 58.387 C 106.930 58.597, 103.069 64.975, 98.140 72.561 L 89.179 86.354 92.670 90.927 C 94.591 93.442, 96.561 95.500, 97.048 95.500 C 97.851 95.500, 128.119 59.786, 127.684 59.351 C 127.367 59.033, 55.595 40, 54.715 40 C 54.257 40, 54.219 40.563, 54.630 41.250 M 136.804 53.041 C 133.337 57.220, 133.232 57.542, 135.105 58.235 C 136.884 58.893, 137.040 59.605, 136.529 64.737 C 136.214 67.907, 135.292 79.950, 134.479 91.500 C 133.298 108.293, 132.689 112.700, 131.442 113.500 C 130.584 114.050, 127.178 116.196, 123.872 118.268 L 117.861 122.037 120.923 125.768 C 122.607 127.821, 128.297 134, 133.568 139.500 L 143.150 149.500 142.515 104 C 142.166 78.975, 141.570 56.269, 141.190 53.543 L 140.500 48.585 136.804 53.041 M 116.257 77.786 C 108.141 87.531, 100.896 96.275, 100.157 97.217 C 98.973 98.726, 99.786 100.184, 107.010 109.513 C 111.518 115.335, 115.498 119.963, 115.853 119.799 C 116.209 119.634, 119.529 117.700, 123.232 115.500 C 131.086 110.833, 130.468 112.735, 131.996 88.500 C 132.585 79.150, 133.321 69.202, 133.631 66.394 C 134.684 56.848, 132.504 58.278, 116.257 77.786 M 87.128 66.051 C 81.423 67.624, 76.620 69.047, 76.453 69.214 C 76.287 69.380, 78.660 72.778, 81.727 76.764 C 86.710 83.241, 87.433 83.825, 88.523 82.256 C 89.194 81.290, 92.278 76.563, 95.377 71.750 C 99.714 65.015, 100.607 63.022, 99.256 63.096 C 98.290 63.148, 92.833 64.478, 87.128 66.051 M 68.093 71.159 L 64.686 72.138 65.381 101.773 C 65.762 118.072, 66.170 131.487, 66.287 131.583 C 66.404 131.680, 74.310 131.091, 83.855 130.274 C 100.745 128.829, 101.368 128.695, 107.122 125.268 C 111.058 122.923, 112.745 121.371, 112.171 120.623 C 111.696 120.005, 108.050 115.333, 104.068 110.239 L 96.829 100.978 92.165 106.651 L 87.500 112.324 86.500 99.149 L 85.500 85.973 79.247 77.987 C 75.808 73.594, 72.658 70.041, 72.247 70.090 C 71.836 70.140, 69.967 70.621, 68.093 71.159 M 89 95.781 C 89 98.561, 89.283 101.573, 89.628 102.472 C 90.180 103.912, 90.541 103.840, 92.628 101.880 C 93.933 100.654, 95 99.342, 95 98.963 C 95 98.585, 93.650 96.576, 92 94.500 L 89 90.725 89 95.781" stroke="none" fill="black" fill-rule="evenodd"/>
</svg>