<svg xmlns="http://www.w3.org/2000/svg" width="200" height="200" viewBox="0 0 200 200" version="1.1">
	<path d="M 150.500 15.486 C 146.100 16.752, 131.555 20.975, 118.178 24.870 C 97.395 30.922, 89.102 32.756, 61.178 37.482 C 22.365 44.050, 24 43.705, 24 45.336 C 24 46.244, 32.479 48.218, 52.250 51.915 C 77.138 56.568, 83.749 57.997, 80.417 58.001 C 78.483 58.004, 25.639 66.027, 25.296 66.370 C 25.097 66.569, 26.706 75.005, 28.871 85.116 C 31.036 95.227, 33.584 109.125, 34.534 116 L 36.261 128.500 43.800 139 C 47.947 144.775, 56.287 154.894, 62.333 161.487 L 73.326 173.474 69.413 174.103 C 67.261 174.449, 54.137 175.795, 40.250 177.094 C 8.388 180.076, 7.100 181.427, 35.250 182.339 C 60.984 183.172, 156.246 183.202, 162.257 182.378 L 166.792 181.757 163.646 179.061 C 156.054 172.554, 151.909 170.321, 133.751 162.949 C 123.163 158.650, 115.175 154.908, 116 154.633 C 116.825 154.359, 132.350 152.482, 150.500 150.464 C 168.650 148.446, 183.641 146.662, 183.814 146.500 C 183.987 146.338, 177.574 141.154, 169.564 134.981 C 161.554 128.808, 155 123.366, 155 122.887 C 155 122.408, 158.464 115.072, 162.698 106.583 L 170.395 91.150 168.557 81.325 C 167.546 75.921, 166.516 70.958, 166.269 70.295 C 166.022 69.632, 163.273 68.374, 160.160 67.499 C 157.047 66.623, 153.976 65.732, 153.335 65.518 C 152.497 65.237, 152.708 63.399, 154.085 58.975 C 155.138 55.591, 156 52.286, 156 51.632 C 156 50.427, 130.262 41.405, 129.369 42.297 C 129.103 42.564, 131.824 47.732, 135.416 53.784 C 140.560 62.450, 142.589 65.010, 144.973 65.841 C 146.638 66.421, 148 67.273, 148 67.733 C 148 68.898, 127.197 133.137, 126.639 133.694 C 126.292 134.041, 94.451 109.559, 90.745 106.096 C 90.330 105.708, 93.190 101.002, 97.102 95.639 C 103.540 86.812, 104.464 85.938, 106.857 86.419 C 116.685 88.392, 128.227 89.978, 129.052 89.468 C 131.014 88.255, 128.776 87.115, 117.395 83.530 C 106.881 80.219, 105.634 80.021, 104.093 81.416 C 102.560 82.803, 101.266 82.761, 90.946 80.984 C 84.651 79.900, 79.375 79.010, 79.221 79.007 C 79.068 79.003, 93.593 65.838, 111.498 49.750 L 144.053 20.500 152.130 18 C 156.572 16.625, 160.193 15.061, 160.178 14.525 C 160.133 12.943, 158.918 13.063, 150.500 15.486 M 115.500 28.501 C 97.962 33.574, 87.431 35.894, 63.576 39.940 C 47.117 42.731, 33.529 45.137, 33.380 45.287 C 33.146 45.521, 48.822 48.526, 82.250 54.654 C 88.144 55.734, 91 56.699, 91 57.610 C 91 59.336, 91.712 59.198, 57.500 64.111 C 41.550 66.402, 28.417 68.334, 28.316 68.405 C 28.215 68.476, 29.472 74.602, 31.110 82.017 C 32.747 89.433, 35.156 102.550, 36.463 111.166 C 37.770 119.782, 39.298 127.657, 39.858 128.666 C 42.830 134.020, 55.970 150.470, 66.825 162.425 C 73.604 169.891, 78.779 176.029, 78.325 176.065 C 77.871 176.101, 70.075 176.945, 61 177.941 L 44.500 179.751 102.462 179.875 L 160.424 180 156.962 177.051 C 153.787 174.346, 143.684 169.801, 117.743 159.409 C 110.977 156.698, 108.068 155.046, 108.253 154.018 C 108.466 152.839, 115.056 151.780, 140.510 148.835 C 158.105 146.799, 173.625 144.991, 175 144.817 C 177.264 144.530, 176.886 144.032, 171 139.546 C 167.425 136.821, 161.468 132.193, 157.761 129.262 L 151.023 123.933 159.336 107.216 L 167.650 90.500 165.723 80.886 L 163.796 71.271 157.771 69.596 C 154.457 68.675, 151.540 68.127, 151.288 68.379 C 151.036 68.631, 145.907 84.061, 139.891 102.669 C 133.874 121.276, 128.749 137.069, 128.502 137.765 C 128.225 138.541, 120.463 133.036, 108.392 123.503 C 94.957 112.893, 88.379 108.281, 87.616 108.939 C 87.002 109.468, 82.450 115.525, 77.500 122.398 C 69.539 133.451, 66 137.047, 66 134.079 C 66 133.192, 82.488 102.179, 83.494 101.172 C 83.766 100.901, 84.810 101.423, 85.815 102.333 C 87.550 103.903, 87.987 103.517, 94.419 94.744 L 101.194 85.500 88.847 83.451 L 76.500 81.402 70.811 86.298 C 62.794 93.198, 61.171 91.407, 68.619 83.880 C 71.819 80.646, 74.800 78, 75.244 78 C 75.688 78, 89.427 66.007, 105.776 51.348 C 140.474 20.237, 138.557 21.981, 137.964 22.069 C 137.709 22.106, 127.600 25.001, 115.500 28.501 M 135.229 48.291 C 136.001 49.506, 138.294 53.265, 140.324 56.644 C 142.879 60.895, 144.819 62.989, 146.626 63.442 C 148.061 63.803, 149.347 63.963, 149.483 63.799 C 150.098 63.055, 153.165 52.838, 152.852 52.576 C 152.658 52.415, 148.298 50.887, 143.162 49.183 C 134.088 46.170, 133.864 46.145, 135.229 48.291 M 81.500 110 C 80.106 112.750, 79.123 115, 79.314 115 C 79.812 115, 86 106.288, 86 105.587 C 86 105.264, 85.558 105, 85.017 105 C 84.476 105, 82.894 107.250, 81.500 110" stroke="none" fill="black" fill-rule="evenodd"/>
</svg>