<svg xmlns="http://www.w3.org/2000/svg" width="200" height="200" viewBox="0 0 200 200" version="1.1">
	<path d="M 155.673 11.750 C 155.429 12.162, 154.910 14.862, 154.520 17.750 L 153.812 23 147.656 23.062 C 144.270 23.096, 123.500 23.476, 101.500 23.907 L 61.500 24.691 53.261 28.265 C 46.411 31.236, 43.333 31.958, 35.011 32.548 C 27.066 33.111, 25 33.569, 25 34.767 C 25 36.013, 25.989 36.159, 30.699 35.606 C 33.833 35.237, 36.196 35.125, 35.949 35.356 C 35.702 35.588, 31 37.672, 25.500 39.988 C 20 42.303, 15.160 44.516, 14.745 44.904 C 13.696 45.885, 16.503 147.928, 17.606 148.899 C 18.098 149.333, 25.551 155.607, 34.169 162.843 L 49.838 176 96.958 176 L 144.077 176 147.887 172.250 C 149.982 170.188, 157.654 162.351, 164.937 154.835 L 178.178 141.171 176.055 91.385 C 174.888 64.003, 173.823 41.490, 173.690 41.357 C 173.556 41.223, 168.965 47.652, 163.487 55.644 C 158.010 63.635, 153.155 70.404, 152.700 70.685 C 152.245 70.967, 152.168 69.623, 152.528 67.700 L 153.185 64.203 139.170 54.351 L 125.156 44.500 125.728 40.149 L 126.299 35.799 120.293 36.145 C 114.575 36.474, 113.987 36.281, 108.040 32.109 L 101.794 27.728 85.147 28.882 C 75.991 29.517, 65.350 30.257, 61.500 30.527 L 54.500 31.016 58.500 29.082 C 61.918 27.430, 64.829 27.137, 78.500 27.072 C 87.300 27.031, 108.290 26.701, 125.144 26.339 L 155.788 25.682 156.894 20.174 C 157.502 17.145, 158 13.841, 158 12.833 C 158 11.009, 156.521 10.320, 155.673 11.750 M 66.486 32.884 L 45.471 34.500 31.121 40.500 L 16.771 46.500 17.374 67 C 17.705 78.275, 18.276 100.840, 18.642 117.145 L 19.307 146.790 34.903 159.883 L 50.500 172.976 97.012 172.988 L 143.523 173 159.401 157.100 L 175.278 141.199 173.460 95.079 C 172.460 69.712, 171.336 49.305, 170.961 49.729 C 170.587 50.153, 166.231 56.398, 161.280 63.607 L 152.280 76.713 151.048 120.107 C 150.370 143.973, 149.627 163.692, 149.397 163.927 C 149.167 164.162, 148.421 163.643, 147.740 162.774 C 147.058 161.906, 142.935 157.112, 138.578 152.122 L 130.655 143.050 123.192 147.170 L 115.729 151.290 93.114 153.013 C 80.676 153.960, 70.212 154.574, 69.860 154.377 C 69.509 154.180, 65.999 148.086, 62.062 140.836 L 54.903 127.654 56.888 123.077 C 57.980 120.560, 63.151 109.515, 68.380 98.533 C 75.432 83.720, 77.611 78.236, 76.820 77.283 C 76.068 76.376, 72.418 76, 64.378 76 C 58.120 76, 53 75.589, 53 75.086 C 53 74.583, 54.586 70.014, 56.525 64.933 L 60.051 55.695 53.441 47.097 L 46.832 38.500 56.166 37.862 C 61.300 37.511, 75.400 37.161, 87.500 37.085 L 109.500 36.946 106 34 C 102.770 31.281, 101.921 31.062, 95 31.161 C 90.875 31.220, 78.044 31.995, 66.486 32.884 M 78.163 39.975 L 51.826 40.500 56.163 46.220 C 60.504 51.945, 61.987 53.093, 62.015 50.750 C 62.070 46.299, 63.329 46.579, 90.136 56.999 C 104.636 62.636, 117.063 67.465, 117.750 67.731 C 118.605 68.061, 119 67.101, 119 64.695 C 119 62.759, 119.675 57.649, 120.500 53.338 C 121.325 49.027, 122 45.464, 122 45.420 C 122 45.375, 120.014 43.913, 117.587 42.170 C 114.037 39.620, 112.324 39.044, 108.837 39.225 C 106.451 39.349, 92.648 39.686, 78.163 39.975 M 120 40.500 C 120.685 41.325, 121.640 42, 122.122 42 C 122.605 42, 123 41.325, 123 40.500 C 123 39.638, 122.098 39, 120.878 39 C 119.104 39, 118.960 39.247, 120 40.500 M 123.114 54.269 C 122.501 57.786, 122 62.666, 122 65.113 C 122 69.063, 122.313 69.679, 124.790 70.615 C 127.291 71.559, 127.924 72.850, 130.902 83.084 C 132.729 89.363, 134.581 94.885, 135.018 95.356 C 135.455 95.827, 139.005 91.455, 142.906 85.640 C 149.273 76.150, 150 74.569, 150 70.210 L 150 65.353 138.550 57.164 C 132.253 52.661, 126.454 48.728, 125.664 48.424 C 124.569 48.004, 123.963 49.393, 123.114 54.269 M 63.968 52.584 C 63.102 54.861, 63.737 56.117, 69.748 64.022 L 76.500 72.902 98.450 72.951 C 113.603 72.985, 120.079 72.679, 119.363 71.963 C 118.532 71.132, 101.292 64.173, 67.220 50.914 C 65.298 50.166, 64.788 50.428, 63.968 52.584 M 59.187 65.607 C 57.919 69.241, 57.078 72.411, 57.318 72.652 C 57.559 72.892, 61.154 72.956, 65.308 72.794 L 72.860 72.500 67.827 65.750 C 65.059 62.038, 62.502 59, 62.144 59 C 61.786 59, 60.456 61.973, 59.187 65.607 M 122.603 74.408 C 123.128 75.777, 120.635 75.992, 101.489 76.230 L 79.780 76.500 86.968 86.250 C 90.922 91.612, 94.364 96, 94.619 96 C 94.873 96, 96.407 95.019, 98.028 93.821 C 99.649 92.623, 101.158 91.835, 101.380 92.071 C 101.603 92.307, 104.605 97, 108.053 102.500 C 111.500 108, 115.405 114.228, 116.730 116.341 L 119.140 120.182 126.113 110.116 L 133.086 100.051 129.194 86.775 C 126.413 77.291, 124.831 73.408, 123.654 73.177 C 122.517 72.955, 122.192 73.335, 122.603 74.408 M 68.585 104.623 C 62.708 117.039, 58.034 127.497, 58.200 127.862 C 58.365 128.228, 61.362 133.844, 64.859 140.343 L 71.218 152.158 75.859 151.604 C 78.412 151.299, 88.150 150.531, 97.500 149.896 C 114.156 148.765, 114.636 148.669, 121.243 145.121 C 124.952 143.129, 127.990 141.219, 127.993 140.875 C 127.997 140.531, 122.920 134.456, 116.712 127.375 C 110.503 120.294, 102.847 111.254, 99.698 107.287 C 96.132 102.793, 93.455 100.272, 92.598 100.601 C 91.676 100.955, 89.520 98.152, 86.048 92.084 C 83.201 87.109, 80.512 82.816, 80.071 82.544 C 79.631 82.272, 74.462 92.207, 68.585 104.623 M 142.268 91.280 L 136.037 100.500 141.017 117.418 C 143.756 126.724, 145.885 134.436, 145.748 134.557 C 145.612 134.679, 142.658 136.345, 139.185 138.260 L 132.869 141.743 139.685 149.530 L 146.500 157.317 147.115 152.368 C 147.807 146.802, 149.413 81.983, 148.857 82.030 C 148.661 82.047, 145.696 86.209, 142.268 91.280 M 97.714 97.100 C 96.098 98.041, 96.427 98.776, 101.167 104.820 C 109.617 115.592, 130.389 139.001, 131.489 138.991 C 132.045 138.985, 134.819 137.651, 137.653 136.026 L 142.806 133.070 138.791 119.285 C 136.583 111.703, 134.471 105.167, 134.099 104.761 C 133.727 104.355, 130.290 108.694, 126.461 114.405 C 122.632 120.115, 119.208 124.612, 118.851 124.397 C 118.495 124.183, 114.287 117.706, 109.502 110.004 C 104.717 102.302, 100.509 96.014, 100.151 96.030 C 99.793 96.047, 98.696 96.529, 97.714 97.100" stroke="none" fill="black" fill-rule="evenodd"/>
</svg>