<svg xmlns="http://www.w3.org/2000/svg" width="200" height="200" viewBox="0 0 200 200" version="1.1">
	<path d="M 91.250 23.883 C 80.566 32.612, 81.281 29.965, 83.469 52.705 L 84.932 67.911 79.816 79.533 C 75.279 89.842, 74.463 91.091, 72.600 90.591 C 71.445 90.281, 68.025 89.943, 65 89.839 C 59.965 89.666, 59.859 89.618, 63.750 89.268 C 66.609 89.010, 68 88.413, 68 87.443 C 68 85.683, 68.331 85.682, 48 87.500 C 38.925 88.311, 30.938 88.981, 30.250 88.988 C 29.563 88.994, 29 89.607, 29 90.349 C 29 91.419, 33.500 91.837, 50.750 92.372 C 62.713 92.743, 74.992 93.308, 78.038 93.629 L 83.575 94.212 83.538 128.211 L 83.500 162.210 75.655 169.304 L 67.810 176.398 49.406 174.585 L 31.002 172.771 23.751 177.136 L 16.500 181.500 88 182.050 L 159.500 182.599 171.500 179.679 C 178.100 178.072, 184.103 176.435, 184.840 176.039 C 186.439 175.181, 158.420 156.604, 156.643 157.345 C 156.014 157.607, 149.650 162.362, 142.500 167.910 C 135.350 173.458, 129.265 177.998, 128.978 177.999 C 128.691 178, 124.794 174.287, 120.319 169.750 L 112.182 161.500 113.185 146.500 C 113.737 138.250, 113.920 123.063, 113.592 112.750 L 112.994 94 117.747 93.969 C 124.182 93.928, 176.989 89.344, 177.555 88.778 C 178.188 88.146, 152.094 66.773, 150.506 66.623 C 149.792 66.555, 143.957 71.399, 137.540 77.386 C 131.122 83.373, 125.514 87.873, 125.076 87.386 C 120.874 82.709, 111 67.748, 111 66.058 C 111 64.871, 112.383 56.484, 114.074 47.421 C 115.765 38.359, 117.002 30.553, 116.824 30.076 C 116.646 29.599, 112.900 26.309, 108.500 22.767 L 100.500 16.325 91.250 23.883 M 92.337 26.467 L 84.430 32.898 86.036 50.699 L 87.642 68.500 82.821 79.455 C 80.169 85.480, 78 90.542, 78 90.705 C 78 90.867, 79.313 91, 80.918 91 C 86.803 91, 86.509 89.058, 86.467 127.566 L 86.429 163.107 77.964 171.005 L 69.500 178.904 97.624 178.952 L 125.748 179 118.124 171.546 L 110.500 164.092 110.500 128.071 L 110.500 92.050 114.500 91.533 C 116.700 91.248, 119.714 90.900, 121.198 90.758 C 123.860 90.504, 123.787 90.349, 115.948 79.538 C 111.577 73.509, 108 67.740, 108 66.719 C 108 65.697, 109.350 57.650, 111 48.837 C 112.650 40.024, 113.979 32.293, 113.953 31.657 C 113.911 30.644, 104.898 22.769, 101.490 20.769 C 100.723 20.318, 97.205 22.509, 92.337 26.467 M 139.292 79.359 L 128.500 89.952 133 89.972 C 138.154 89.995, 170.187 87.147, 170.715 86.619 C 170.907 86.426, 167.112 82.983, 162.282 78.966 C 157.452 74.949, 152.731 71.011, 151.792 70.214 C 150.245 68.903, 149.063 69.768, 139.292 79.359 M 145.241 169.254 L 133.205 178.500 138.352 179.151 C 149.603 180.574, 158.888 180.043, 169.572 177.366 L 180.083 174.732 172.291 169.560 C 168.006 166.716, 162.875 163.403, 160.889 162.198 L 157.278 160.009 145.241 169.254 M 28.441 177.468 C 26.711 178.777, 28.349 178.927, 43.500 178.848 L 60.500 178.759 49.500 177.445 C 34.925 175.704, 30.767 175.709, 28.441 177.468" stroke="none" fill="black" fill-rule="evenodd"/>
</svg>