<svg xmlns="http://www.w3.org/2000/svg" width="200" height="200" viewBox="0 0 200 200" version="1.1">
	<path d="M 100.500 28.179 C 92.800 37.499, 85.640 46.269, 84.589 47.669 C 82.995 49.791, 82.291 54.538, 80.344 76.278 C 79.060 90.614, 78.120 102.438, 78.255 102.554 C 78.390 102.671, 85.003 102.384, 92.951 101.917 C 100.899 101.451, 107.510 101.177, 107.643 101.309 C 107.775 101.442, 101.399 107.164, 93.475 114.025 C 85.550 120.886, 79.039 126.950, 79.007 127.500 C 78.963 128.261, 40.731 147.256, 36.214 148.762 C 35.733 148.922, 34.541 145.554, 33.565 141.277 C 31.950 134.193, 31.880 130.869, 32.784 104 C 33.418 85.187, 33.436 69.247, 32.834 60 L 31.891 45.500 44.193 33.742 C 50.959 27.275, 56.598 22.325, 56.725 22.742 C 56.852 23.159, 59.188 32.933, 61.917 44.462 L 66.878 65.424 62.412 72.589 L 57.946 79.754 60.473 105.326 C 61.863 119.390, 63 131.370, 63 131.949 C 63 132.527, 63.703 133, 64.561 133 C 65.819 133, 66.014 132.175, 65.561 128.750 C 65.253 126.413, 64.054 114.457, 62.898 102.183 L 60.795 79.866 65.369 72.988 L 69.943 66.109 64.216 42.305 C 61.066 29.212, 58.041 18.457, 57.494 18.404 C 56.947 18.351, 50.335 24.201, 42.800 31.404 L 29.099 44.500 30.079 59.500 C 30.732 69.491, 30.712 84.351, 30.019 104 C 29.009 132.607, 29.043 133.787, 31.136 143 C 32.323 148.225, 33.384 152.618, 33.494 152.763 C 33.796 153.162, 45.807 147.536, 74.407 133.602 C 88.655 126.660, 100.487 121.153, 100.699 121.366 C 100.911 121.578, 97.400 131.595, 92.895 143.626 C 84.786 165.285, 84.624 165.605, 76.353 176.167 C 68.269 186.491, 66.841 189, 69.049 189 C 69.625 189, 83.187 178.365, 99.186 165.366 C 115.185 152.367, 128.865 141.680, 129.585 141.616 C 130.306 141.552, 134.406 146.666, 138.698 152.980 L 146.500 164.461 168 168.179 C 179.825 170.224, 189.812 171.808, 190.193 171.699 C 190.575 171.589, 180.533 162.725, 167.878 152 C 155.223 141.275, 144.240 131.807, 143.470 130.961 C 142.223 129.588, 144.638 128.956, 165.786 125.118 C 188.116 121.065, 192.275 119.942, 190.720 118.387 C 190.364 118.031, 178.469 117.132, 164.287 116.388 C 150.104 115.645, 137.437 114.916, 136.138 114.768 C 134.320 114.562, 138.401 111.399, 153.845 101.041 C 164.883 93.638, 173.798 87.464, 173.655 87.321 C 172.456 86.123, 149.596 83.942, 133.416 83.482 C 122.462 83.171, 111.109 82.674, 108.186 82.378 L 102.871 81.840 120.859 70.011 L 138.847 58.182 162.462 56.408 C 182.767 54.882, 186.034 54.414, 185.777 53.067 C 185.578 52.029, 178.099 48.714, 163.619 43.247 L 141.761 34.993 133.016 37.390 L 124.270 39.786 119.950 25.837 C 117.573 18.165, 115.375 11.741, 115.064 11.561 C 114.754 11.381, 108.200 18.859, 100.500 28.179 M 99.367 33.871 L 85.392 50.801 83.199 75.070 C 81.993 88.418, 81.133 99.466, 81.287 99.620 C 81.441 99.775, 88.911 99.444, 97.886 98.886 C 106.861 98.327, 114.407 98.073, 114.654 98.321 C 114.902 98.568, 108.556 104.501, 100.552 111.506 C 92.548 118.510, 86 124.415, 86 124.629 C 86 124.843, 90.500 122.760, 96 120 C 101.500 117.240, 106 115.375, 106 115.856 C 106 116.337, 101.742 128.058, 96.537 141.902 C 89.400 160.887, 86.154 168.232, 83.331 171.787 C 81.273 174.379, 79.119 177.167, 78.544 177.982 C 77.970 178.797, 82.225 175.624, 88 170.932 C 122.176 143.162, 129.928 137.002, 130.672 137.019 C 131.128 137.030, 135.063 142.450, 139.418 149.064 C 143.772 155.678, 147.669 161.296, 148.078 161.548 C 148.486 161.801, 156.398 163.313, 165.660 164.910 C 182.254 167.770, 182.461 167.781, 179.852 165.656 C 160.405 149.823, 136.280 128.428, 137.273 127.894 C 137.948 127.532, 146.782 125.740, 156.904 123.914 C 169.890 121.570, 174.555 120.391, 172.750 119.908 C 171.343 119.532, 161.937 118.898, 151.846 118.498 C 141.756 118.098, 131.800 117.485, 129.722 117.136 L 125.945 116.500 145.990 103.050 C 160.152 93.548, 165.620 89.367, 164.619 88.807 C 162.765 87.769, 139.680 86.132, 114.098 85.224 L 93.697 84.500 116.098 69.899 L 138.500 55.297 156.500 54.079 C 166.400 53.408, 175.364 52.612, 176.419 52.309 C 177.674 51.949, 172.015 49.362, 160.094 44.847 L 141.850 37.935 132.275 40.484 C 127.008 41.886, 122.605 42.913, 122.490 42.766 C 122.375 42.620, 120.603 37.100, 118.553 30.500 C 116.503 23.900, 114.491 18.149, 114.083 17.721 C 113.675 17.292, 107.053 24.560, 99.367 33.871" stroke="none" fill="black" fill-rule="evenodd"/>
</svg>