<svg xmlns="http://www.w3.org/2000/svg" width="200" height="200" viewBox="0 0 200 200" version="1.1">
	<path d="M 123.500 19.975 L 79.500 26.760 48.170 23.793 C 30.938 22.162, 16.637 21.030, 16.388 21.278 C 15.167 22.499, 19.870 185.204, 21.164 186.498 C 21.388 186.721, 37.755 183.612, 57.536 179.588 C 77.316 175.563, 97.600 171.451, 102.610 170.449 L 111.721 168.628 143.001 173.840 C 160.205 176.707, 174.449 178.884, 174.655 178.679 C 174.861 178.473, 175.303 157.198, 175.639 131.402 L 176.249 84.500 169.631 53.500 C 165.991 36.450, 162.793 21.551, 162.523 20.390 C 162.100 18.571, 162.742 18.089, 167.186 16.890 C 172.935 15.339, 174.924 12.941, 170.333 13.095 C 168.775 13.148, 147.700 16.244, 123.500 19.975 M 145.813 19.683 C 146.534 19.972, 147.397 19.936, 147.729 19.604 C 148.061 19.272, 147.471 19.036, 146.417 19.079 C 145.252 19.127, 145.015 19.364, 145.813 19.683 M 116.080 23.857 C 101.006 26.202, 92.513 27.945, 92.247 28.750 C 92.019 29.438, 92.208 29.993, 92.667 29.984 C 103.490 29.779, 119.389 27.415, 130.388 24.376 C 137.600 22.384, 143.688 20.584, 143.917 20.377 C 144.802 19.576, 138.671 20.342, 116.080 23.857 M 143.500 23.373 C 134.085 26.049, 133.034 26.544, 136.207 26.808 L 139.915 27.116 140.207 34.237 L 140.500 41.359 146.044 33.929 C 154.238 22.948, 156.228 19.986, 155.318 20.123 C 154.868 20.190, 149.550 21.653, 143.500 23.373 M 151.793 30.676 C 138.216 48.719, 139.568 45.042, 139 65.472 L 138.500 83.445 132.061 74.745 C 128.519 69.960, 125.461 66.206, 125.264 66.403 C 125.067 66.600, 116.627 77.907, 106.508 91.529 L 88.111 116.298 92.055 119.155 L 96 122.013 96 137.506 C 96 146.028, 96.203 153, 96.452 153 C 97.636 153, 145.576 135.810, 146.095 135.200 C 146.422 134.815, 143.845 124.150, 140.369 111.500 C 136.893 98.850, 134.037 88.162, 134.024 87.750 C 134.011 87.338, 134.597 87, 135.326 87 C 136.151 87, 141.019 98.743, 148.207 118.070 C 159.493 148.417, 159.712 149.159, 157.586 149.967 C 156.389 150.422, 142.950 154.522, 127.720 159.079 C 112.490 163.635, 100.161 167.495, 100.323 167.656 C 100.484 167.818, 103.290 167.470, 106.558 166.884 C 111.897 165.926, 115.293 166.285, 140 170.423 C 155.125 172.956, 168.738 175.283, 170.250 175.594 L 173 176.159 173 129.613 L 173 83.068 166.474 52.342 C 162.885 35.442, 159.777 21.444, 159.567 21.234 C 159.357 21.024, 155.859 25.273, 151.793 30.676 M 19.419 59.109 C 20.115 97.953, 23.009 182.227, 23.673 182.962 C 24.268 183.620, 68.312 174.899, 69.408 173.906 C 69.932 173.432, 63.853 159.954, 55.042 142.054 L 39.769 111.023 40.415 79.262 C 40.770 61.793, 41.320 44.885, 41.636 41.688 L 42.211 35.877 36.105 36.568 C 30.934 37.153, 30 37.019, 30 35.690 C 30 34.576, 31.373 33.939, 34.750 33.487 C 41.650 32.563, 42 32.353, 42 29.147 C 42 25.935, 43.073 26.239, 25.143 24.377 L 18.785 23.717 19.419 59.109 M 44.794 28.980 C 45.812 30.763, 47.105 31.794, 48 31.537 C 48.825 31.300, 53.325 30.541, 58 29.849 L 66.500 28.593 60 27.867 C 56.425 27.468, 51.158 26.883, 48.294 26.567 L 43.089 25.993 44.794 28.980 M 75.250 30.716 C 76.763 30.945, 79.237 30.945, 80.750 30.716 C 82.263 30.487, 81.025 30.300, 78 30.300 C 74.975 30.300, 73.737 30.487, 75.250 30.716 M 118 31.162 C 114.975 31.665, 110.475 32.036, 108 31.988 C 102.712 31.884, 54.518 34.936, 51.290 35.578 C 49.228 35.989, 49.680 37.014, 58.103 51.009 C 63.066 59.254, 67.582 66, 68.140 66 C 69.287 66, 72.079 63.249, 80.009 54.308 L 85.500 48.117 108.936 44.077 C 121.825 41.856, 132.537 40.203, 132.738 40.405 C 132.940 40.607, 132.212 44.258, 131.121 48.518 C 130.030 52.778, 129.476 55.866, 129.891 55.382 C 136.494 47.657, 137 46.427, 137 38.106 L 137 30 130.250 30.125 C 126.537 30.193, 121.025 30.660, 118 31.162 M 43.661 63.162 C 43.297 78.102, 43 95.049, 43 100.823 L 43 111.322 57.933 141.661 C 66.146 158.347, 73.364 172, 73.972 172 C 75.104 172, 155.282 148.045, 155.770 147.561 C 155.919 147.413, 153.808 141.264, 151.080 133.896 C 145.669 119.287, 144.931 118.169, 147.994 129.219 C 149.090 133.176, 149.652 136.725, 149.244 137.107 C 148.515 137.788, 94.691 157, 93.514 157 C 93.185 157, 92.976 149.476, 93.050 140.280 L 93.185 123.559 90.342 121.284 C 88.779 120.033, 87.161 119.008, 86.747 119.005 C 86.333 119.002, 81.858 124.625, 76.803 131.500 C 71.747 138.375, 66.976 144, 66.199 144 C 64.167 144, 64.926 142.544, 74.089 128.868 C 79.488 120.808, 81.970 116.252, 81.386 115.473 C 80.899 114.823, 75.307 107.813, 68.960 99.896 C 62.613 91.978, 56.209 83.893, 54.728 81.929 L 52.036 78.359 58.518 73.600 C 62.083 70.982, 65 68.606, 65 68.321 C 65 67.152, 45.820 36, 45.101 36 C 44.672 36, 44.024 48.223, 43.661 63.162 M 105.088 47.441 L 86.675 50.695 81.107 57.097 C 78.044 60.619, 74.128 64.803, 72.404 66.395 L 69.271 69.290 80.273 87.645 C 86.325 97.740, 91.552 105.985, 91.888 105.966 C 92.225 105.947, 99.781 96.135, 108.679 84.161 C 124.224 63.242, 124.939 62.072, 126.929 54.278 C 128.068 49.817, 129 45.679, 129 45.083 C 129 43.491, 125.477 43.839, 105.088 47.441 M 131.791 57.455 L 127.082 63.829 131.291 69.384 C 133.606 72.440, 135.838 74.953, 136.250 74.970 C 136.662 74.986, 137 69.600, 137 63 C 137 56.400, 136.887 51.018, 136.750 51.041 C 136.613 51.064, 134.381 53.950, 131.791 57.455 M 62.500 74.129 C 60.300 75.789, 57.863 77.511, 57.084 77.956 C 56.001 78.575, 58.683 82.608, 68.508 95.133 C 80.666 110.632, 82.688 112.948, 84.093 112.985 C 84.418 112.993, 85.498 111.491, 86.491 109.647 L 88.297 106.294 78.509 89.897 C 73.125 80.879, 68.221 72.963, 67.610 72.306 C 66.761 71.392, 65.559 71.821, 62.500 74.129" stroke="none" fill="black" fill-rule="evenodd"/>
</svg>