<svg xmlns="http://www.w3.org/2000/svg" width="200" height="200" viewBox="0 0 200 200" version="1.1">
	<path d="M 162.500 19.559 C 158.100 25.254, 154.275 29.925, 154 29.938 C 153.725 29.951, 149.226 27.291, 144.002 24.028 C 138.106 20.345, 134.150 18.450, 133.569 19.031 C 133.054 19.546, 132.828 20.118, 133.067 20.304 C 133.305 20.489, 137.664 23.237, 142.753 26.411 C 148.617 30.069, 151.749 32.607, 151.307 33.341 C 150.922 33.979, 146.458 39.675, 141.385 46 C 133.520 55.807, 124.330 65.042, 114.017 73.500 L 111.578 75.500 113.132 73 C 113.986 71.625, 116.556 67.526, 118.843 63.892 C 123.062 57.185, 123.830 55, 121.966 55 C 121.397 55, 111.973 62.630, 101.022 71.957 C 90.071 81.283, 80.223 89.468, 79.136 90.147 C 77.439 91.207, 75.530 90.628, 65.571 86.033 C 59.197 83.092, 53.699 80.967, 53.354 81.312 C 52.816 81.851, 57.905 102.874, 59.833 108.074 C 60.399 109.599, 61.825 108.742, 69.214 102.436 C 74.006 98.346, 78.124 95, 78.364 95 C 78.604 95, 82.696 96.791, 87.456 98.980 L 96.112 102.960 89.521 111.124 C 83.491 118.592, 82.211 121.076, 84.330 121.193 C 85.691 121.268, 112 108.670, 112 107.943 C 112 107.560, 109.533 106.179, 106.517 104.874 C 103.501 103.568, 101.026 102.161, 101.017 101.747 C 101.008 101.332, 108.271 91.882, 117.159 80.747 L 133.318 60.500 149.408 49.754 C 158.257 43.843, 165.619 38.643, 165.767 38.198 C 165.916 37.753, 164.242 36.380, 162.048 35.147 C 159.855 33.914, 157.799 32.484, 157.481 31.969 C 156.883 31.002, 168.115 15.781, 168.870 16.536 C 169.103 16.770, 170.119 26.082, 171.126 37.230 L 172.959 57.500 159.729 70.169 C 150.507 79, 146.954 83.001, 148 83.376 C 148.825 83.673, 155.125 85.568, 162 87.588 C 168.875 89.609, 174.811 91.540, 175.191 91.881 C 175.571 92.221, 174.293 103.571, 172.351 117.102 L 168.819 141.703 175.891 153.037 C 179.781 159.270, 182.801 164.533, 182.602 164.731 C 182.403 164.930, 174.363 162.794, 164.735 159.984 L 147.230 154.876 125.124 165.938 C 112.965 172.022, 102.769 177, 102.466 177 C 102.162 177, 110.454 166.828, 120.891 154.395 L 139.869 131.789 133.685 122.374 L 127.500 112.960 111.500 129.434 C 97.885 143.452, 92.560 148.075, 75.772 160.454 C 64.922 168.454, 55.844 175, 55.598 175 C 55.352 175, 58.493 164.993, 62.579 152.763 C 66.665 140.532, 69.894 130.198, 69.754 129.799 C 69.614 129.400, 60.540 133.334, 49.588 138.541 C 38.636 143.748, 29.481 147.815, 29.244 147.578 C 29.007 147.340, 29.548 138.971, 30.447 128.980 L 32.082 110.814 26.935 87.657 L 21.789 64.500 32.031 42 C 37.664 29.625, 42.577 19.156, 42.950 18.736 C 43.517 18.097, 45.969 26.010, 53.224 51.900 L 54.177 55.300 74.695 54.602 L 95.212 53.903 116.236 43.382 C 130.253 36.368, 136.927 32.527, 136.261 31.861 C 135.594 31.194, 128.220 34.384, 114.139 41.430 L 93.018 52 74.584 52 L 56.150 52 54.766 47.250 C 54.005 44.637, 51.383 35.413, 48.941 26.752 C 46.498 18.090, 44.224 11.002, 43.887 11.002 C 43.550 11.001, 37.799 22.967, 31.107 37.593 L 18.940 64.185 24.081 87.343 L 29.222 110.500 27.508 130.814 C 26.565 141.986, 26.036 151.369, 26.332 151.665 C 26.628 151.961, 35.526 148.109, 46.105 143.105 C 56.685 138.101, 65.461 134.128, 65.609 134.275 C 65.756 134.423, 62.297 145.063, 57.921 157.921 C 53.545 170.778, 50.155 181.488, 50.388 181.721 C 50.620 181.954, 61.316 174.401, 74.156 164.937 C 94.468 149.964, 99.362 145.798, 111.832 132.865 C 119.715 124.689, 126.465 118.011, 126.832 118.024 C 127.654 118.053, 136 130.199, 136 131.366 C 136 131.828, 127 142.936, 116 156.049 C 98.781 176.576, 94.135 183, 96.508 183 C 96.787 183, 108.361 177.324, 122.228 170.386 L 147.440 157.772 167.970 163.803 C 179.261 167.119, 188.645 169.688, 188.822 169.511 C 188.999 169.334, 185.211 162.959, 180.405 155.345 L 171.665 141.500 175.340 116.058 C 177.362 102.065, 178.675 90.302, 178.258 89.918 C 177.841 89.534, 171.915 87.597, 165.088 85.614 C 158.261 83.632, 152.539 81.872, 152.372 81.705 C 152.205 81.538, 157.350 76.133, 163.805 69.694 L 175.543 57.987 173.521 34.073 C 172.410 20.920, 171.275 9.943, 171 9.681 C 170.725 9.418, 166.900 13.863, 162.500 19.559 M 147.164 43 C 143.200 47.950, 140.196 52, 140.487 52 C 141.441 52, 161 38.711, 161 38.063 C 161 37.473, 155.684 34, 154.781 34 C 154.555 34, 151.127 38.050, 147.164 43 M 98.500 77.531 C 89.150 85.478, 81.500 92.285, 81.500 92.658 C 81.500 93.031, 85.163 95.016, 89.640 97.068 L 97.779 100.800 108.890 86.917 C 115 79.282, 120 72.706, 120 72.305 C 120 71.904, 117.862 73.594, 115.250 76.062 C 106.635 84.199, 105.012 85.412, 104.044 84.437 C 103.469 83.858, 105.212 80.253, 108.607 75 C 114.471 65.926, 116.242 62.975, 115.785 63.042 C 115.628 63.064, 107.850 69.585, 98.500 77.531 M 58.918 94.560 C 60.374 99.818, 61.836 104.206, 62.167 104.310 C 62.499 104.415, 65.603 102.036, 69.067 99.023 L 75.363 93.547 66.432 89.325 C 61.519 87.002, 57.224 85.079, 56.886 85.051 C 56.548 85.023, 57.463 89.302, 58.918 94.560 M 93.530 110.269 C 90.897 113.560, 89.165 116.083, 89.682 115.876 C 95.869 113.398, 106 108.490, 106 107.971 C 106 107.604, 104.272 106.624, 102.159 105.795 L 98.318 104.286 93.530 110.269" stroke="none" fill="black" fill-rule="evenodd"/>
</svg>