<svg xmlns="http://www.w3.org/2000/svg" width="200" height="200" viewBox="0 0 200 200" version="1.1">
	<path d="M 115.656 15.662 C 115.307 17.773, 115.015 22.650, 115.007 26.500 C 114.999 30.350, 114.698 39.258, 114.339 46.296 L 113.687 59.092 108.725 47.546 C 105.997 41.196, 103.432 36, 103.026 36 C 102.619 36, 96.236 40.612, 88.841 46.250 C 80.285 52.772, 72.050 58.086, 66.198 60.861 C 61.109 63.274, 57 65.843, 57 66.611 C 57 67.375, 57.233 68, 57.518 68 C 57.803 68, 62.606 65.707, 68.191 62.904 C 73.972 60.003, 83.350 53.973, 89.964 48.904 C 96.354 44.007, 101.822 40, 102.114 40 C 102.406 40, 105.072 45.850, 108.038 53 C 111.005 60.150, 113.953 66, 114.591 66 C 116.248 66, 116.984 61.223, 117.112 49.625 C 117.173 44.056, 117.511 35.374, 117.862 30.332 L 118.500 21.164 127.240 37.241 L 135.980 53.319 136.649 78.659 C 137.018 92.597, 137.705 104, 138.176 104 C 138.648 104, 143.945 101.537, 149.949 98.526 L 160.864 93.052 149.932 73.055 L 139 53.058 139.116 42.279 L 139.232 31.500 142.781 46.156 L 146.329 60.812 163.306 65.380 C 172.643 67.893, 180.482 70.148, 180.726 70.392 C 180.970 70.636, 177.882 84.551, 173.865 101.315 L 166.561 131.793 151.530 133.491 L 136.500 135.190 127 132.786 L 117.500 130.381 116.350 106.441 C 115.718 93.273, 115.155 79.463, 115.100 75.750 C 115.022 70.500, 114.671 69, 113.519 69 C 112.705 69, 111.808 70.013, 111.527 71.250 C 103.227 107.767, 96.176 141.549, 96.752 142.036 C 97.760 142.889, 144.233 160.016, 145.500 160.002 C 146.050 159.996, 154.572 156.628, 164.439 152.517 C 174.305 148.407, 182.514 145.180, 182.681 145.348 C 182.848 145.515, 178.924 153.894, 173.962 163.967 L 164.939 182.284 158.219 181.649 C 154.524 181.300, 140.245 181.011, 126.489 181.007 L 101.478 181 90.695 159.406 L 79.912 137.813 79.297 110.923 C 78.763 87.550, 78.474 83.971, 77.091 83.553 C 72.104 82.044, 56.650 79.016, 56.205 79.461 C 55.916 79.750, 57.856 90.227, 60.515 102.743 C 63.175 115.260, 65.360 126.175, 65.372 127 C 65.383 127.825, 60.742 134.492, 55.059 141.815 L 44.725 155.129 41.113 154.597 C 39.126 154.304, 33.900 153.789, 29.500 153.453 C 25.100 153.117, 20.733 152.628, 19.795 152.368 C 18.311 151.955, 19.305 148.347, 27.446 124.580 L 36.802 97.266 31.901 83.622 C 29.205 76.118, 26.993 69.420, 26.985 68.739 C 26.977 68.058, 30.678 57.013, 35.209 44.196 C 42.474 23.646, 43.605 21.105, 44.778 22.696 C 45.510 23.688, 49.347 30.683, 53.305 38.240 C 57.262 45.797, 61.063 51.984, 61.750 51.990 C 62.438 51.995, 63 51.693, 63 51.318 C 63 49.640, 43.509 14.103, 42.950 14.761 C 42.054 15.817, 23.991 67.250, 23.996 68.732 C 23.998 69.410, 26.226 76.078, 28.947 83.550 L 33.893 97.137 23.994 126.068 L 14.094 155 16.797 155.067 C 18.284 155.104, 25.350 155.711, 32.500 156.416 C 39.650 157.122, 45.772 157.555, 46.105 157.380 C 46.438 157.204, 51.686 150.605, 57.767 142.714 L 68.823 128.368 63.898 105.531 C 61.189 92.970, 59.092 82.615, 59.237 82.519 C 59.381 82.423, 63.160 83.189, 67.633 84.221 L 75.766 86.097 76.499 112.948 L 77.231 139.799 88.475 161.650 L 99.719 183.500 133.348 183.763 L 166.978 184.027 177.993 162.013 C 184.052 149.906, 188.649 140, 188.209 140 C 187.769 140, 178.879 143.536, 168.454 147.858 C 158.029 152.180, 148.455 156.045, 147.178 156.448 C 145.485 156.982, 138.852 154.961, 122.678 148.981 C 110.480 144.472, 100.218 140.494, 99.874 140.141 C 99.261 139.514, 111.291 83.376, 112.242 82.425 C 112.507 82.159, 113.029 91.518, 113.400 103.221 C 113.772 114.924, 114.329 126.372, 114.638 128.660 L 115.200 132.821 125.850 135.455 L 136.500 138.089 152.236 136.225 C 160.891 135.200, 168.196 134.137, 168.470 133.863 C 169.096 133.237, 184 71.550, 184 69.584 C 184 68.787, 183.213 67.904, 182.250 67.621 C 181.287 67.339, 173.525 65.241, 165 62.959 C 156.475 60.677, 149.257 58.415, 148.959 57.933 C 148.661 57.451, 146.186 47.825, 143.459 36.542 C 140.303 23.485, 138.046 16.022, 137.250 16.013 C 136.303 16.003, 135.996 19.818, 135.985 31.750 L 135.970 47.500 128.874 34.500 C 124.972 27.350, 120.544 19.323, 119.034 16.662 L 116.290 11.824 115.656 15.662 M 139.412 79.464 C 139.788 90.445, 140.252 99.586, 140.444 99.778 C 140.636 99.969, 144.447 98.289, 148.912 96.044 L 157.032 91.962 155.438 88.881 C 152.150 82.522, 139.837 60.506, 139.294 60.013 C 138.982 59.731, 139.035 68.484, 139.412 79.464" stroke="none" fill="black" fill-rule="evenodd"/>
</svg>