<svg xmlns="http://www.w3.org/2000/svg" width="200" height="200" viewBox="0 0 200 200" version="1.1">
	<path d="M 43.250 15.605 C 41.045 19.397, 34.435 30.956, 28.561 41.290 L 17.881 60.081 25.304 79.290 L 32.727 98.500 28.366 128.919 C 25.967 145.650, 24.204 159.537, 24.447 159.780 C 24.690 160.023, 35.151 151.712, 47.694 141.312 C 60.237 130.912, 71.056 122.064, 71.735 121.651 C 72.515 121.177, 72.235 122.852, 70.974 126.200 C 56.897 163.572, 50.271 182.638, 51.076 183.458 C 51.669 184.063, 56.724 179.453, 64.783 170.958 C 89.267 145.150, 86.576 149.066, 97.569 123.250 C 103.014 110.463, 107.723 100, 108.032 100 C 108.825 100, 112.385 152.554, 111.711 154.311 C 111.406 155.104, 103.688 161.041, 94.560 167.502 C 77.637 179.482, 76.282 180.618, 77.486 181.817 C 77.864 182.192, 91.303 178.055, 107.351 172.621 L 136.529 162.743 160.468 169.334 C 173.635 172.960, 184.504 175.829, 184.622 175.711 C 184.741 175.593, 178.397 166.769, 170.525 156.103 L 156.212 136.710 159.036 130.105 C 160.588 126.472, 165.438 115.400, 169.812 105.500 C 174.187 95.600, 177.610 87.233, 177.420 86.906 C 177.230 86.580, 170.106 82.319, 161.589 77.438 C 153.071 72.558, 146.221 68.445, 146.367 68.300 C 146.512 68.155, 149.750 68.928, 153.562 70.018 C 157.375 71.108, 161.171 72, 161.999 72 C 163.751 72, 176.483 44.064, 175.264 42.895 C 172.702 40.437, 135.650 19.963, 135.017 20.655 C 134.591 21.120, 131.026 35.675, 127.094 53 C 123.162 70.325, 119.761 85.024, 119.537 85.664 C 118.934 87.385, 105.005 81.982, 104.981 80.017 C 104.936 76.279, 110.375 43.395, 111.187 42.500 C 111.686 41.950, 115.300 41.275, 119.218 41 C 124.116 40.656, 126.488 40.060, 126.808 39.091 C 127.193 37.923, 125.871 37.791, 119.062 38.316 L 110.852 38.949 111.416 36.224 C 112.109 32.873, 114.990 14.784, 114.996 13.750 C 114.998 13.338, 114.402 13, 113.671 13 C 112.737 13, 111.760 16.793, 110.387 25.750 L 108.432 38.500 102.966 39.218 C 99.960 39.613, 93.548 40.217, 88.719 40.560 C 80.073 41.175, 79.797 41.277, 70.837 47.161 C 65.832 50.447, 61.402 52.768, 60.994 52.318 C 60.585 51.868, 57.651 42.500, 54.473 31.500 C 51.295 20.500, 48.371 10.872, 47.976 10.105 C 47.483 9.146, 46.003 10.869, 43.250 15.605 M 33.658 37.769 L 20.816 60.319 28.235 79.310 L 35.653 98.301 31.809 124.401 C 29.695 138.755, 28.085 151.229, 28.232 152.119 C 28.417 153.237, 36.245 147.306, 53.500 132.976 C 67.250 121.557, 78.599 112.302, 78.719 112.409 C 78.898 112.569, 70.502 135.503, 56.904 172 L 54.854 177.500 67.331 164.440 C 74.194 157.258, 81.024 149.937, 82.509 148.172 C 83.994 146.406, 90.274 133.158, 96.463 118.731 C 103.540 102.237, 108.293 92.386, 109.267 92.194 C 110.568 91.938, 110.943 93.872, 111.595 104.194 L 112.373 116.500 115.530 103.500 C 117.266 96.350, 118.420 90.202, 118.093 89.838 C 117.616 89.305, 105.213 84, 104.444 84 C 104.328 84, 103.998 84.900, 103.710 86 C 102.953 88.897, 101.185 88.453, 100.816 85.273 C 100.533 82.835, 99.494 82.150, 91 78.804 C 85.775 76.746, 80.711 75.048, 79.747 75.031 C 78.461 75.008, 75.530 79.935, 68.759 93.500 C 63.680 103.675, 58.957 112, 58.263 112 C 57.280 112, 57 106.563, 57 87.500 C 57 74.025, 57.216 63, 57.480 63 C 57.744 63, 62.478 64.800, 68 67 C 73.522 69.200, 78.484 71, 79.026 71 C 79.569 71, 85.852 67.110, 92.988 62.357 C 104.951 54.387, 106.008 53.432, 106.539 50.107 C 106.856 48.123, 107.323 45.487, 107.577 44.250 C 108.116 41.619, 107.626 41.580, 91.258 42.936 L 81.015 43.785 71.583 49.895 C 66.395 53.255, 61.472 56.265, 60.642 56.584 C 59.481 57.029, 58.637 55.471, 56.980 49.831 C 51.514 31.214, 46.805 15.487, 46.660 15.360 C 46.572 15.283, 40.721 25.367, 33.658 37.769 M 129.263 55.717 C 125.283 73.157, 122.358 87.717, 122.763 88.072 C 123.169 88.427, 132.162 92.043, 142.749 96.109 C 159.818 102.663, 164.584 105, 160.882 105 C 160.268 105, 149.181 108.417, 136.246 112.593 L 112.727 120.185 113.353 128.843 C 113.698 133.604, 114.247 141.775, 114.575 147 L 115.171 156.500 101.085 166.321 C 93.338 171.723, 87 176.248, 87 176.378 C 87 176.508, 98.137 172.847, 111.750 168.243 L 136.500 159.872 156.859 165.493 C 168.057 168.585, 177.357 170.976, 177.526 170.807 C 177.694 170.638, 172.249 162.957, 165.425 153.737 L 153.018 136.974 163.509 113.074 C 169.279 99.928, 173.987 88.797, 173.970 88.337 C 173.954 87.876, 165.195 82.550, 154.504 76.500 C 143.814 70.450, 135.053 64.938, 135.034 64.250 C 134.987 62.529, 135.517 62.596, 149.180 66.045 C 155.814 67.720, 161.475 68.858, 161.759 68.575 C 162.043 68.291, 164.632 62.701, 167.512 56.154 L 172.749 44.250 155.122 34.125 C 145.426 28.556, 137.270 24.002, 136.997 24.004 C 136.724 24.006, 133.244 38.277, 129.263 55.717 M 92.742 65.724 C 87.375 69.350, 83.159 72.493, 83.374 72.708 C 83.590 72.923, 87.642 74.621, 92.381 76.481 C 100.965 79.851, 100.998 79.855, 101.443 77.682 C 102.053 74.700, 103.215 58.984, 102.819 59.066 C 102.643 59.102, 98.109 62.098, 92.742 65.724 M 60.053 85.643 L 60.105 104.500 67.960 89 C 72.281 80.475, 75.520 73.218, 75.158 72.873 C 74.796 72.529, 72.025 71.330, 69 70.210 C 65.975 69.089, 62.712 67.860, 61.750 67.479 C 60.120 66.833, 60.004 68.075, 60.053 85.643 M 119.173 99.750 C 116.600 110.976, 115.675 116, 116.181 116 C 117.144 116, 153.028 104.305, 153.494 103.839 C 153.912 103.421, 123.062 91, 121.605 91 C 121.371 91, 120.277 94.938, 119.173 99.750" stroke="none" fill="black" fill-rule="evenodd"/>
</svg>