<svg xmlns="http://www.w3.org/2000/svg" width="200" height="200" viewBox="0 0 200 200" version="1.1">
	<path d="M 68.310 29.750 L 59.199 51.500 49.850 52.190 C 44.707 52.569, 36.337 53.174, 31.250 53.533 C 16.714 54.560, 19.014 56.035, 42.750 60.907 C 54.162 63.249, 63.632 65.299, 63.794 65.461 C 63.957 65.624, 56.195 76.856, 46.545 90.423 L 29 115.089 29 121.156 L 29 127.224 37.227 137.731 C 44.946 147.588, 47.383 149.951, 48.587 148.747 C 48.862 148.472, 45.242 143.396, 40.543 137.468 C 32.104 126.821, 32 126.621, 32.022 121.095 L 32.044 115.500 50.519 89.500 C 60.681 75.200, 68.996 63.444, 68.997 63.375 C 68.999 63.306, 61.239 61.731, 51.753 59.875 C 35.377 56.670, 34.759 56.467, 39.503 55.838 C 42.251 55.473, 47.283 55.136, 50.685 55.088 C 61.080 54.940, 60.524 55.576, 69.907 33.109 C 74.530 22.038, 78.414 13.097, 78.537 13.240 C 79.139 13.941, 104.161 54.493, 104.318 55.022 C 104.447 55.455, 76.773 79.295, 71.158 83.589 C 70.138 84.369, 68.054 130.059, 68.029 152.191 C 68.013 166.321, 67.627 178.112, 67.172 178.394 C 66.716 178.675, 59.629 177.172, 51.422 175.053 C 42.685 172.797, 36.113 171.566, 35.567 172.083 C 35.053 172.569, 34.828 173.153, 35.067 173.381 C 35.305 173.608, 43.263 175.823, 52.750 178.301 L 70 182.808 70 178.760 L 70 174.713 101.750 175.106 C 119.213 175.322, 143.758 175.387, 156.295 175.250 L 179.089 175 170.295 166.598 L 161.500 158.195 150.500 156.015 C 129.605 151.873, 129.812 151.933, 130.456 150.253 C 130.784 149.400, 136.832 139.207, 143.896 127.601 C 150.961 115.995, 157.255 105.506, 157.884 104.291 C 158.951 102.228, 158.215 101.471, 146.763 92.855 C 125.538 76.887, 106.916 58.751, 109.298 56.369 C 109.595 56.072, 110.309 56.709, 110.885 57.785 C 111.820 59.531, 112.363 59.625, 115.974 58.662 C 119.117 57.823, 125.184 58.080, 143.258 59.820 C 156.041 61.051, 166.786 62.045, 167.136 62.029 C 167.940 61.992, 173.325 40.440, 172.851 39.152 C 172.658 38.626, 160.527 41.894, 145.894 46.414 C 127.822 51.996, 118.195 54.504, 115.882 54.234 C 112.555 53.846, 112.376 53.581, 108.066 42.668 C 100.850 24.400, 100.965 24.635, 99.802 25.798 C 98.902 26.698, 101.005 38.448, 103.554 46.750 C 103.765 47.438, 103.794 48, 103.620 48 C 103.445 48, 97.733 39, 90.925 28 C 84.118 17, 78.295 8, 77.985 8 C 77.675 8, 73.322 17.788, 68.310 29.750 M 150 48.010 C 139.825 51.211, 130.600 54.145, 129.500 54.530 C 128.328 54.940, 134.328 55.983, 144 57.049 C 167.897 59.685, 165.465 60.183, 167.422 52.250 C 168.338 48.538, 169.323 44.712, 169.611 43.750 C 169.899 42.788, 169.767 42.043, 169.317 42.095 C 168.868 42.147, 160.175 44.809, 150 48.010 M 107.086 49.500 C 107.190 51.394, 108.856 54.584, 108.914 53 C 108.945 52.175, 108.533 50.825, 108 50 C 107.467 49.175, 107.055 48.950, 107.086 49.500 M 89.500 71.743 L 73.500 85.277 72.802 94.888 C 72.013 105.746, 70.043 170.336, 70.487 170.804 C 71.045 171.393, 112 156.719, 112 155.930 C 112 155.489, 107.950 144.746, 103 132.055 C 98.050 119.364, 94 108.535, 94 107.990 C 94 106.555, 96.752 106.773, 97.280 108.250 C 97.525 108.938, 97.934 109.275, 98.188 109 C 99.095 108.019, 107.317 66.436, 107.255 63.146 C 107.221 61.301, 106.811 59.436, 106.346 59.001 C 105.881 58.565, 98.300 64.299, 89.500 71.743 M 105.058 90.821 L 99.813 116.500 107.520 136 C 111.759 146.725, 115.288 156.126, 115.364 156.891 C 115.456 157.830, 109.368 160.459, 96.632 164.981 L 77.764 171.679 90.632 172.336 C 106.528 173.146, 151.577 173.031, 162.793 172.151 L 171.086 171.500 165.668 166.158 L 160.250 160.816 143.375 157.374 C 134.094 155.481, 126.150 153.831, 125.722 153.707 C 125.294 153.583, 131.547 142.686, 139.617 129.491 C 147.688 116.296, 154.473 104.825, 154.696 104 C 154.959 103.024, 151.339 99.703, 144.340 94.500 C 138.422 90.100, 128.342 81.695, 121.941 75.821 L 110.303 65.142 105.058 90.821" stroke="none" fill="black" fill-rule="evenodd"/>
</svg>