<svg xmlns="http://www.w3.org/2000/svg" width="200" height="200" viewBox="0 0 200 200" version="1.1">
	<path d="M 91.213 25.583 C 81.635 32.742, 81.165 33.265, 81.585 36.305 C 81.828 38.062, 82.674 45.992, 83.464 53.927 L 84.901 68.353 79.451 79.009 C 73.532 90.580, 73.386 91, 75.270 91 C 75.969 91, 79.050 85.937, 82.118 79.750 L 87.696 68.500 86.398 55.500 C 85.684 48.350, 84.872 40.666, 84.593 38.424 L 84.086 34.348 92.422 28.174 C 97.007 24.778, 101.147 22, 101.623 22 C 102.099 22, 105.304 23.909, 108.744 26.242 C 112.990 29.121, 114.989 31.129, 114.967 32.492 C 114.948 33.596, 113.910 41.809, 112.659 50.742 L 110.386 66.984 116.680 77.742 C 120.142 83.659, 122.981 88.928, 122.988 89.450 C 122.994 89.973, 120.313 94.476, 117.029 99.456 L 111.058 108.512 112.580 142.473 C 113.417 161.152, 114.294 176.628, 114.530 176.863 C 114.765 177.098, 121.291 174.453, 129.032 170.986 L 143.106 164.681 154.803 166.434 C 161.236 167.398, 166.588 168.270, 166.695 168.371 C 166.802 168.473, 164.777 170.832, 162.195 173.614 L 157.500 178.672 111.730 178.086 L 65.961 177.500 77.024 172.532 L 88.087 167.564 87.293 154.032 C 86.404 138.854, 86.296 125.213, 86.928 107.517 L 87.355 95.533 75.928 92.217 C 64.685 88.954, 64.223 88.905, 47.377 89.200 C 33.992 89.435, 30.358 89.227, 30.734 88.250 C 31.093 87.314, 35.715 87, 49.107 87 C 64.345 87, 67 86.777, 67 85.500 C 67 84.221, 64.287 84, 48.582 84 L 30.163 84 28.082 87.368 C 26.937 89.220, 26 91.048, 26 91.430 C 26 91.811, 34.888 92.066, 45.750 91.997 C 64.799 91.874, 65.837 91.972, 75 94.737 L 84.500 97.603 84.002 111.052 C 83.326 129.269, 83.366 134.126, 84.325 151.066 L 85.149 165.633 74.184 170.737 L 63.219 175.840 44.610 176.562 C 31.116 177.086, 26 177.617, 26 178.494 C 26 180.134, 53.754 180.970, 112.994 181.114 L 159.488 181.228 163.815 176.364 C 166.194 173.689, 168.994 170.327, 170.036 168.894 L 171.931 166.288 157.375 164.014 L 142.818 161.741 130.263 167.391 C 123.358 170.499, 117.462 172.796, 117.162 172.496 C 116.862 172.196, 116.006 157.802, 115.259 140.510 L 113.901 109.070 119.889 100.166 C 123.181 95.269, 126.477 91.031, 127.211 90.749 C 127.945 90.467, 136.418 91.157, 146.039 92.281 L 163.531 94.325 172.515 88.444 C 177.457 85.209, 181.712 82.411, 181.971 82.227 C 182.897 81.567, 179.358 80.036, 166.285 75.443 L 153.019 70.782 140.487 78.891 C 133.594 83.351, 127.339 87, 126.586 87 C 125.834 87, 122.535 82.388, 119.256 76.750 L 113.294 66.500 115.618 49.500 C 116.897 40.150, 117.955 31.795, 117.971 30.934 C 117.994 29.694, 108.460 22.206, 102.392 18.698 C 101.782 18.345, 96.752 21.444, 91.213 25.583 M 142.155 80.933 L 131.809 87.714 141.155 88.915 C 163.064 91.731, 162.142 91.794, 169.514 86.991 C 173.136 84.631, 175.740 82.373, 175.300 81.974 C 174.394 81.152, 154.260 73.959, 153.193 74.076 C 152.812 74.118, 147.845 77.204, 142.155 80.933" stroke="none" fill="black" fill-rule="evenodd"/>
</svg>