<svg xmlns="http://www.w3.org/2000/svg" width="200" height="200" viewBox="0 0 200 200" version="1.1">
	<path d="M 136.726 19.697 C 136.474 20.139, 135.271 23.538, 134.052 27.252 C 132.349 32.439, 131.334 34.105, 129.668 34.444 C 125.240 35.345, 89.616 37.880, 88.765 37.355 C 88.280 37.055, 88.157 35.559, 88.493 34.032 C 88.937 32.012, 88.667 31.086, 87.504 30.640 C 86.625 30.302, 85.432 28.670, 84.855 27.013 C 83.468 23.035, 81 23.039, 81 27.019 C 81 29.632, 80.697 29.971, 78.750 29.536 C 75.066 28.714, 22.755 21.908, 22.492 22.216 C 22.359 22.372, 21.736 37.800, 21.107 56.500 C 20.478 75.200, 19.859 93.575, 19.732 97.333 L 19.500 104.166 40.500 112.654 L 61.500 121.142 70.117 120.545 C 75.041 120.204, 79.862 120.377, 81.367 120.949 C 83.706 121.839, 83.999 122.484, 83.990 126.725 L 83.980 131.500 62.740 138.878 C 51.058 142.936, 40.425 146.661, 39.111 147.156 C 36.940 147.974, 38.569 149.308, 56.977 161.778 L 77.232 175.500 49.945 178 C 32.992 179.553, 22.520 180.919, 22.294 181.606 C 21.654 183.546, 87.004 184.313, 137.300 182.955 C 162.160 182.284, 182.920 181.352, 183.433 180.884 C 183.947 180.416, 184.073 179.740, 183.714 179.380 C 183.355 179.021, 169.885 177.453, 153.780 175.896 C 137.676 174.339, 124.354 173.050, 124.175 173.032 C 123.996 173.014, 129.621 166.907, 136.675 159.460 C 143.729 152.012, 149.632 145.541, 149.793 145.080 C 149.954 144.618, 146.579 142.201, 142.293 139.709 C 136.617 136.408, 128.024 133.094, 110.661 127.511 C 97.549 123.295, 86.976 119.691, 87.165 119.502 C 87.354 119.313, 94.812 118.591, 103.740 117.897 C 112.667 117.203, 120.527 116.292, 121.207 115.872 C 124.146 114.056, 120.129 113.760, 107.207 114.843 C 99.611 115.479, 91.732 116, 89.698 116 C 86.093 116, 86 115.906, 86 112.260 C 86 108.744, 87.093 107.426, 104.250 90.251 C 121.391 73.092, 122.627 71.602, 124.582 65.741 L 126.664 59.500 134.332 59.208 L 142 58.916 142 46.458 L 142 34 138.433 34 C 134.532 34, 134.588 34.421, 137.394 26.287 L 138.503 23.074 148.034 31.787 C 153.276 36.579, 160.557 43.224, 164.212 46.553 L 170.860 52.606 173.990 81.410 C 175.712 97.251, 176.941 110.393, 176.721 110.612 C 176.359 110.975, 143.067 106.757, 135.250 105.359 C 132.687 104.900, 132 105.118, 132 106.389 C 132 107.275, 132.338 107.997, 132.750 107.993 C 133.162 107.990, 143.768 109.384, 156.317 111.093 C 168.866 112.801, 179.373 113.960, 179.665 113.668 C 180.227 113.106, 174.248 54.559, 173.367 52 C 172.894 50.625, 139.712 19.891, 137.951 19.197 C 137.529 19.031, 136.977 19.256, 136.726 19.697 M 24.970 27.705 C 24.953 29.242, 24.304 46.475, 23.527 66 C 22.750 85.525, 22.426 101.800, 22.807 102.166 C 23.188 102.533, 32.038 106.246, 42.474 110.416 C 59.567 117.248, 62.119 118, 68.224 118 C 71.951 118, 75 117.656, 75 117.236 C 75 116.815, 68.051 110.628, 59.557 103.486 C 51.063 96.344, 44.088 90.200, 44.057 89.833 C 44.026 89.466, 49.063 87.497, 55.250 85.458 C 61.438 83.419, 66.795 81.469, 67.155 81.125 C 67.516 80.781, 61.172 75.325, 53.057 69 L 38.303 57.500 60.152 57.231 L 82 56.962 82 49.540 C 82 45.458, 81.662 41.935, 81.250 41.711 C 80.838 41.488, 71.275 42.114, 60 43.104 C 34.748 45.320, 32.711 45.369, 33.248 43.750 C 33.606 42.672, 46.712 39.481, 73.500 33.951 C 76.800 33.269, 79.050 32.565, 78.500 32.387 C 77.950 32.208, 67.150 30.698, 54.500 29.033 C 41.850 27.367, 30.038 25.758, 28.250 25.457 C 25.233 24.949, 24.998 25.109, 24.970 27.705 M 84.015 35.750 C 84.007 36.987, 84.450 38, 85 38 C 86.253 38, 86.253 36.939, 85 35 C 84.216 33.787, 84.028 33.931, 84.015 35.750 M 70.718 37.243 C 65.338 38.358, 61.131 39.465, 61.369 39.703 C 61.607 39.941, 66.121 39.818, 71.401 39.431 C 79.846 38.811, 81 38.502, 81 36.863 C 81 35.838, 80.888 35.049, 80.750 35.108 C 80.612 35.168, 76.098 36.129, 70.718 37.243 M 109.500 38.895 C 98.186 39.851, 90.584 40.905, 90.707 41.500 C 90.821 42.050, 92.063 45.650, 93.466 49.500 L 96.017 56.500 110.492 56.199 L 124.967 55.898 127.602 47.199 C 129.051 42.414, 130.435 38.163, 130.678 37.750 C 130.920 37.337, 130.529 37.065, 129.809 37.145 C 129.089 37.225, 119.950 38.012, 109.500 38.895 M 133.476 38.250 C 131.698 43.069, 128 54.499, 128 55.175 C 128 55.629, 130.475 56, 133.500 56 L 139 56 139 46.500 C 139 37.002, 138.999 37, 136.469 37 C 135.076 37, 133.730 37.563, 133.476 38.250 M 84.009 43.677 C 84.013 45.230, 84.301 48.862, 84.648 51.750 L 85.279 57 89.207 57 C 93.630 57, 93.601 57.561, 89.693 47.473 C 87.125 40.841, 83.994 38.750, 84.009 43.677 M 46.456 59.928 C 46.771 60.439, 52.873 65.426, 60.015 71.012 C 67.157 76.597, 73 81.480, 73 81.863 C 73 82.246, 67.541 84.360, 60.868 86.560 L 48.736 90.560 64.279 103.780 C 80.161 117.288, 84 119.375, 84 114.500 C 84 112.667, 83.467 112, 82 112 C 79.642 112, 79.534 111.201, 81.532 108.559 C 83.192 106.364, 83.439 95.465, 82.345 72.658 L 81.690 59 63.786 59 C 53.025 59, 46.111 59.370, 46.456 59.928 M 85.117 70.250 C 85.182 76.438, 85.520 85.944, 85.867 91.376 L 86.500 101.253 93.885 89.876 L 101.271 78.500 98.968 72 C 94.229 58.629, 94.500 59, 89.487 59 L 85 59 85.117 70.250 M 99.674 65.750 C 104.985 79.625, 105.155 77.724, 97.593 89.081 C 93.890 94.643, 91.008 99.341, 91.188 99.522 C 91.369 99.702, 97.943 93.154, 105.797 84.969 C 117.974 72.280, 120.358 69.272, 121.985 64.544 L 123.892 59 110.491 59 L 97.090 59 99.674 65.750 M 86.805 128.164 L 86.500 133.500 65.250 140.896 C 53.562 144.964, 44 148.594, 44 148.964 C 44 149.334, 52.755 155.580, 63.456 162.843 C 74.157 170.106, 83.148 176.431, 83.437 176.897 C 83.725 177.364, 77.332 178.365, 69.230 179.123 L 54.500 180.500 72 180.821 C 89.454 181.142, 158.378 180.044, 157.789 179.455 C 157.618 179.285, 149.608 178.417, 139.989 177.527 C 130.370 176.638, 121.409 175.677, 120.076 175.392 C 117.867 174.921, 118.915 173.608, 131.826 160.675 C 139.622 152.865, 146 146.176, 146 145.810 C 146 143.489, 132.142 137.434, 112 130.955 C 99.625 126.974, 88.962 123.517, 88.305 123.273 C 87.494 122.971, 87.012 124.542, 86.805 128.164" stroke="none" fill="black" fill-rule="evenodd"/>
</svg>