<svg xmlns="http://www.w3.org/2000/svg" width="200" height="200" viewBox="0 0 200 200" version="1.1">
	<path d="M 59.442 30.354 L 60.168 45.012 52.334 42.100 C 48.025 40.499, 41.221 37.963, 37.213 36.465 C 33.205 34.967, 29.657 34.010, 29.328 34.338 C 29 34.667, 27.285 42.713, 25.518 52.218 L 22.306 69.500 33.403 74.732 C 39.506 77.610, 46.750 81.098, 49.500 82.483 L 54.500 85.001 43.614 84.751 L 32.728 84.500 28.823 98 C 24.979 111.287, 24.928 111.681, 25.585 123 L 26.253 134.500 37.500 159.845 L 48.747 185.190 67.567 163.595 C 77.919 151.718, 86.638 142.010, 86.944 142.023 C 87.250 142.035, 94.700 153.058, 103.500 166.518 C 115.410 184.736, 119.674 190.545, 120.182 189.245 C 120.557 188.285, 122.286 171.300, 124.025 151.500 C 125.763 131.700, 127.497 114.202, 127.877 112.615 C 128.307 110.818, 129.265 118.361, 130.417 132.615 C 133.169 166.656, 131.569 162.186, 145.206 173.924 C 151.644 179.466, 157.269 183.999, 157.706 183.999 C 158.143 183.998, 163.239 174.210, 169.031 162.249 L 179.562 140.500 174.355 111.625 C 171.492 95.743, 168.666 82.266, 168.075 81.675 C 167.359 80.959, 166.996 71.056, 166.989 52.050 C 166.983 36.348, 166.715 21.910, 166.393 19.966 L 165.808 16.432 133.404 23.050 C 115.581 26.690, 100.854 29.855, 100.677 30.084 C 79.632 57.307, 78.344 58.351, 84.038 43.565 C 85.709 39.226, 86.721 35.367, 86.288 34.990 C 85.855 34.613, 82.463 32.211, 78.750 29.652 C 75.037 27.093, 69.011 22.907, 65.358 20.348 L 58.716 15.696 59.442 30.354 M 131.500 26.220 L 102.500 32.257 94.710 42.150 C 90.426 47.591, 86.683 52.663, 86.392 53.421 C 86.042 54.334, 87.092 55.205, 89.501 56 C 91.503 56.661, 93.340 57.722, 93.584 58.357 C 93.828 58.993, 90.945 66.261, 87.178 74.507 C 83.411 82.753, 78.364 94.338, 75.962 100.250 C 73.410 106.529, 71.026 111, 70.230 111 C 69.272 111, 69.076 110.330, 69.573 108.750 C 70.826 104.770, 84.875 72.192, 88.054 65.892 C 89.747 62.540, 90.989 59.696, 90.815 59.571 C 90.642 59.447, 88.972 58.736, 87.105 57.991 C 83.368 56.501, 83.406 56.475, 76.932 64.973 C 72.882 70.290, 71.676 68.100, 74.509 60.571 L 76.910 54.194 70.205 51.706 L 63.500 49.218 63.219 51.359 C 62.856 54.124, 65.682 132.015, 66.163 132.496 C 66.363 132.696, 76.480 126.479, 88.646 118.680 C 113.523 102.732, 112.930 103.910, 96.803 102.483 C 89.663 101.851, 86.872 100.795, 88.373 99.293 C 88.689 98.978, 93.571 99.240, 99.223 99.876 C 104.876 100.512, 113.148 101.264, 117.607 101.548 L 125.714 102.063 126.295 96.426 C 126.615 93.326, 127.100 90.567, 127.372 90.295 C 128.721 88.945, 130.002 91.617, 130.015 95.809 C 130.024 98.389, 130.412 101.101, 130.878 101.836 C 131.405 102.668, 136.948 103.906, 145.558 105.115 C 153.166 106.183, 159.503 107.170, 159.641 107.308 C 159.779 107.445, 159.578 108.037, 159.196 108.623 C 158.710 109.366, 154.329 109.190, 144.659 108.036 L 130.818 106.384 131.387 111.442 C 131.699 114.224, 132.654 125.500, 133.508 136.500 C 134.362 147.500, 135.274 157.863, 135.534 159.530 C 135.902 161.883, 138.244 164.450, 146.029 171.030 C 151.541 175.688, 156.376 179.593, 156.775 179.708 C 157.174 179.822, 161.820 171.021, 167.100 160.150 L 176.700 140.385 171.600 112.036 L 166.500 83.686 142.754 71.514 C 129.694 64.819, 118.763 59.096, 118.463 58.796 C 118.162 58.496, 123.354 54.762, 130 50.500 C 136.646 46.238, 142.223 42.919, 142.394 43.125 C 142.565 43.331, 147.554 50.155, 153.480 58.289 C 159.406 66.423, 164.310 72.948, 164.377 72.789 C 164.445 72.630, 164.360 60.688, 164.189 46.250 C 163.905 22.361, 163.725 20.008, 162.189 20.091 C 161.260 20.141, 147.450 22.899, 131.500 26.220 M 62.074 29.667 C 62.115 33.975, 62.452 39.470, 62.824 41.878 C 63.497 46.239, 63.529 46.268, 70.717 49.026 L 77.933 51.795 79.878 46.647 C 80.947 43.816, 82.271 40.342, 82.819 38.927 C 83.773 36.466, 83.376 36.054, 73.675 29.427 C 68.098 25.617, 63.190 22.350, 62.767 22.167 C 62.345 21.983, 62.033 25.358, 62.074 29.667 M 28.616 50.943 C 27.177 58.549, 26.009 65.611, 26.019 66.636 C 26.034 68.064, 29.718 70.189, 41.769 75.719 C 50.421 79.690, 58.288 83.226, 59.250 83.576 C 60.853 84.160, 60.989 83.303, 60.869 73.357 C 60.797 67.386, 60.460 59.167, 60.119 55.093 L 59.500 47.687 51 44.526 C 46.325 42.788, 39.965 40.409, 36.866 39.240 L 31.231 37.115 28.616 50.943 M 132.250 52.253 C 127.713 55.133, 124 57.809, 124 58.201 C 124 58.737, 160.380 77.824, 165.268 79.853 C 165.736 80.047, 160.645 72.735, 153.956 63.603 C 147.267 54.471, 141.503 47.004, 141.147 47.009 C 140.791 47.013, 136.787 49.373, 132.250 52.253 M 34.541 88.131 C 34.272 88.884, 32.632 94.645, 30.895 100.934 C 27.918 111.717, 27.778 112.989, 28.431 123.303 L 29.123 134.238 39.157 156.869 C 44.675 169.316, 49.307 179.621, 49.449 179.770 C 49.590 179.918, 58.156 170.337, 68.484 158.479 L 87.261 136.917 102.556 160.182 C 115.481 179.842, 117.931 183.063, 118.373 180.973 C 118.660 179.613, 120.346 162.374, 122.120 142.665 C 125.695 102.926, 125.887 105.044, 118.703 105.015 C 115.482 105.002, 111.009 107.513, 89.203 121.570 L 63.500 138.141 62.882 126.820 C 62.541 120.594, 62.204 109.564, 62.132 102.309 C 62.059 95.054, 61.663 88.915, 61.250 88.666 C 60.837 88.417, 54.769 87.887, 47.764 87.487 C 37.400 86.896, 34.938 87.016, 34.541 88.131" stroke="none" fill="black" fill-rule="evenodd"/>
</svg>