<svg xmlns="http://www.w3.org/2000/svg" width="200" height="200" viewBox="0 0 200 200" version="1.1">
	<path d="M 98 31.307 C 98 31.476, 99.535 35.413, 101.411 40.057 L 104.823 48.500 98.161 49.274 C 94.498 49.700, 84.998 49.925, 77.050 49.774 L 62.600 49.500 75.390 42.140 C 94.287 31.264, 91.846 31.039, 57.775 40.514 C 42.224 44.839, 28.938 48.798, 28.250 49.312 C 27.278 50.038, 27 61.969, 27 103.041 L 27 155.837 30.368 157.918 C 32.220 159.063, 34.215 160, 34.801 160 C 35.387 160, 49.769 153.475, 66.762 145.500 C 83.754 137.525, 97.974 131, 98.360 131 C 98.747 131, 95.923 135.063, 92.084 140.030 C 87.878 145.472, 83.057 153.374, 79.948 159.920 L 74.791 170.781 66.398 176.483 C 56.952 182.899, 55.888 184.007, 59.191 183.985 C 76.506 183.869, 179.434 180.899, 179.829 180.504 C 181.377 178.957, 176.499 177.953, 156.119 175.627 C 143.810 174.222, 133.614 172.943, 133.461 172.786 C 133.308 172.629, 139.476 167.325, 147.168 161 C 154.859 154.675, 161.931 148.776, 162.882 147.892 C 164.476 146.410, 164.516 145.243, 163.399 133.085 L 162.185 119.886 168.086 105.536 L 173.987 91.187 161.864 70.556 C 155.197 59.209, 149.913 49.790, 150.121 49.626 C 150.330 49.463, 156.229 46.076, 163.230 42.101 C 170.232 38.125, 176.168 34.537, 176.422 34.127 C 176.675 33.717, 160.596 32.838, 140.691 32.173 C 102.644 30.904, 98 30.809, 98 31.307 M 104.582 40.623 C 106.006 44.405, 107.599 48.017, 108.123 48.648 C 108.647 49.279, 109.256 50.732, 109.476 51.876 C 109.697 53.021, 110.847 56.619, 112.034 59.872 L 114.190 65.787 134.595 66.515 C 150.616 67.088, 155 67.532, 155 68.584 C 155 70.132, 152.580 70.806, 133.500 74.574 C 125.800 76.095, 119.385 77.415, 119.245 77.507 C 119.106 77.600, 119.482 79.083, 120.081 80.804 L 121.172 83.932 131.336 84.216 C 139.486 84.444, 141.500 84.791, 141.500 85.971 C 141.500 86.987, 138.951 88.051, 133.250 89.412 C 128.713 90.496, 125 91.738, 125 92.171 C 125 92.605, 130.175 106.282, 136.500 122.565 C 142.825 138.847, 148 152.363, 148 152.600 C 148 152.837, 134.234 142.650, 117.408 129.963 C 100.582 117.275, 86.295 107.114, 85.658 107.382 C 77.734 110.720, 78.451 110.921, 62.922 101 C 44.331 89.123, 44.635 89.432, 50.662 88.529 C 57.278 87.539, 57.648 87.116, 54.358 84.308 L 51.500 81.869 64 82.495 C 75.761 83.084, 77.639 82.897, 95.760 79.341 C 107.029 77.129, 114.878 75.133, 114.678 74.531 C 114.460 73.871, 102.706 73.246, 82.047 72.796 C 64.289 72.409, 49.505 71.839, 49.196 71.529 C 47.968 70.301, 51.409 68.874, 74.452 61.056 C 87.625 56.587, 98.650 52.659, 98.952 52.328 C 99.253 51.997, 88.971 51.989, 76.103 52.310 C 59.276 52.730, 53.011 52.589, 53.792 51.808 C 54.389 51.211, 59.517 48.091, 65.189 44.875 C 70.860 41.659, 75.078 39.021, 74.563 39.014 C 74.048 39.006, 63.843 41.745, 51.886 45.099 L 30.145 51.199 29.822 102.349 C 29.507 152.463, 29.541 153.535, 31.500 155.228 C 32.600 156.178, 34.006 156.966, 34.624 156.978 C 35.242 156.990, 50.977 149.834, 69.591 141.075 C 88.204 132.316, 103.786 125.368, 104.217 125.634 C 105.706 126.554, 104.966 127.818, 96.901 138.137 C 91.718 144.769, 86.622 152.855, 82.746 160.597 C 77.066 171.943, 76.311 172.958, 70.595 176.937 L 64.500 181.180 85 180.597 C 96.275 180.276, 116.975 179.695, 131 179.305 L 156.500 178.597 144.500 177.271 C 123.877 174.992, 123.921 176.681, 144.058 160.072 C 153.651 152.160, 161.560 145.644, 161.633 145.593 C 161.706 145.542, 161.225 139.650, 160.564 132.500 L 159.363 119.500 163.105 110.500 C 165.163 105.550, 167.745 99.213, 168.843 96.418 L 170.839 91.335 158.537 70.418 C 151.771 58.913, 146.403 49.212, 146.608 48.861 C 146.813 48.509, 151.598 45.587, 157.240 42.366 L 167.500 36.510 159.500 35.856 C 155.100 35.496, 140.361 34.874, 126.747 34.473 L 101.994 33.746 104.582 40.623 M 83.117 61.127 C 70.256 65.420, 59.494 69.173, 59.200 69.466 C 58.907 69.760, 70.967 70, 86 70 C 113.922 70, 121.492 68.899, 99.751 68 C 90.594 67.621, 87.547 67.159, 87.196 66.097 C 86.807 64.924, 88.723 64.785, 98.866 65.252 C 105.539 65.560, 111 65.480, 111 65.076 C 111 64.671, 109.987 61.861, 108.750 58.831 L 106.500 53.321 83.117 61.127 M 121.301 69.741 C 124.779 69.958, 127.298 70.612, 127.590 71.374 C 127.968 72.358, 129.312 72.422, 133.539 71.655 C 136.543 71.111, 139 70.291, 139 69.833 C 139 69.375, 133.713 69.085, 127.250 69.189 C 120.787 69.293, 118.111 69.541, 121.301 69.741 M 117.550 73.933 C 118.106 74.480, 119.952 74.522, 122 74.036 L 125.500 73.205 121.050 73.102 C 118.284 73.039, 116.960 73.353, 117.550 73.933 M 104 80.414 L 93.500 82.616 101.401 83.308 C 112.611 84.290, 118 84.169, 118 82.934 C 118 81.371, 116.045 77.983, 115.215 78.107 C 114.822 78.165, 109.775 79.204, 104 80.414 M 61.269 85.693 C 62.242 85.947, 63.592 85.930, 64.269 85.656 C 64.946 85.382, 64.150 85.175, 62.500 85.195 C 60.850 85.215, 60.296 85.439, 61.269 85.693 M 69.506 87.293 L 64.511 88.512 75.680 96.234 L 86.848 103.956 103.174 97.332 C 112.153 93.688, 119.819 90.432, 120.208 90.095 C 120.598 89.759, 120.512 88.828, 120.016 88.026 C 118.797 86.054, 77.066 85.448, 69.506 87.293 M 123 88 C 123 89.145, 124.425 89.145, 128 88 C 130.231 87.285, 130.097 87.189, 126.750 87.100 C 124.688 87.045, 123 87.450, 123 88 M 59.500 89.532 C 58.950 89.693, 57.208 90.112, 55.629 90.462 C 52.901 91.067, 53.289 91.445, 63.392 98.021 C 69.241 101.829, 74.911 105.417, 75.993 105.996 C 77.919 107.027, 83 106.408, 83 105.142 C 83 104.789, 79.087 101.800, 74.305 98.500 C 62.188 90.138, 60.637 89.199, 59.500 89.532 M 105.265 99.294 C 96.886 102.707, 90.060 105.725, 90.095 106 C 90.131 106.275, 101.863 115.190, 116.167 125.811 C 130.471 136.433, 141.908 144.308, 141.583 143.311 C 139.093 135.677, 122.034 93.520, 121.357 93.329 C 120.886 93.196, 113.644 95.880, 105.265 99.294" stroke="none" fill="black" fill-rule="evenodd"/>
</svg>