<svg xmlns="http://www.w3.org/2000/svg" width="200" height="200" viewBox="0 0 200 200" version="1.1">
	<path d="M 106.821 17.500 C 106.349 18.278, 98.079 44.816, 95.368 54.250 C 94.972 55.628, 93.760 56, 89.671 56 L 84.477 56 72.082 44.237 L 59.688 32.475 62.164 29.596 L 64.640 26.717 76.324 29.522 C 87.100 32.108, 90.791 32.285, 88.433 30.103 C 87.566 29.299, 65.722 23.956, 63.500 24.003 C 62.950 24.015, 61.446 25.651, 60.157 27.640 L 57.815 31.254 51.917 25.418 C 43.796 17.382, 43.049 18.727, 47.783 32.867 L 51.558 44.143 54.847 39.563 L 58.136 34.983 69.047 45.179 C 75.048 50.787, 79.855 55.449, 79.729 55.540 C 79.603 55.631, 70.275 55.121, 59 54.406 C 47.725 53.692, 35.953 53.083, 32.840 53.054 L 27.180 53 26.518 61.250 C 26.154 65.787, 26.001 72.957, 26.178 77.181 L 26.500 84.862 56 73.125 L 85.500 61.388 88.250 63.382 C 91.323 65.610, 91.502 66.591, 89.847 72.115 C 89.109 74.579, 87.941 76.173, 86.597 76.549 C 82.099 77.806, 35.460 94.328, 34.803 94.897 C 34.420 95.229, 46.217 103.375, 61.020 113 C 75.823 122.625, 87.949 130.753, 87.967 131.061 C 87.985 131.370, 79.112 133.535, 68.250 135.872 C 42.653 141.378, 41 141.833, 41 143.367 C 41 144.198, 49.183 146.938, 63.972 151.057 C 76.606 154.577, 86.619 157.748, 86.222 158.104 C 85.825 158.461, 73.013 163.601, 57.750 169.526 C 40.444 176.246, 30 180.808, 30 181.650 C 30 182.769, 40.237 182.992, 89.750 182.951 L 149.500 182.902 162 178.201 C 168.875 175.616, 174.500 173.050, 174.500 172.500 C 174.500 171.255, 155.591 170.283, 127 170.060 L 105.500 169.892 136.321 154.407 C 155.205 144.920, 166.985 138.454, 166.738 137.712 C 166.440 136.816, 159.875 136.430, 141.580 136.232 L 116.825 135.965 128.239 126.566 C 139.336 117.429, 140.187 116.429, 158.918 90.509 C 169.514 75.847, 178.030 63.726, 177.842 63.575 C 177.654 63.423, 170.412 61.622, 161.750 59.572 C 153.088 57.523, 146 55.459, 146 54.985 C 146 54.511, 148.684 47.546, 151.964 39.506 C 156.699 27.901, 157.563 25.004, 156.156 25.450 C 155.181 25.760, 145.860 30.026, 135.442 34.931 C 123.138 40.724, 116.334 43.438, 116.027 42.675 C 115.766 42.029, 113.725 35.875, 111.490 29 C 109.256 22.125, 107.154 16.950, 106.821 17.500 M 50.177 32.059 L 52.279 38.282 54.117 35.891 C 55.128 34.576, 55.927 33.275, 55.893 33 C 55.859 32.725, 54.086 31.001, 51.953 29.168 L 48.076 25.837 50.177 32.059 M 106.850 26.503 C 105.764 28.391, 97.667 56, 98.083 56.396 C 98.435 56.730, 154.049 67, 155.505 67 C 155.777 67, 156 67.619, 156 68.375 C 156 70.068, 155.417 70.182, 129.500 73.552 C 117.950 75.054, 108.195 76.556, 107.823 76.891 C 107.450 77.226, 114.092 83.983, 122.583 91.906 C 131.073 99.830, 137.882 106.451, 137.714 106.620 C 137.395 106.939, 78.365 119.994, 77.177 120.008 C 76.804 120.013, 80.760 122.814, 85.967 126.234 L 95.435 132.452 90.967 133.651 C 88.510 134.310, 77.556 136.767, 66.625 139.110 L 46.750 143.370 70.387 150.030 C 83.387 153.694, 94.275 156.941, 94.581 157.248 C 95.091 157.758, 87.539 160.843, 52 174.645 L 39.500 179.500 93 180.233 L 146.500 180.967 155.283 177.835 C 160.113 176.112, 164.271 174.370, 164.523 173.963 C 164.774 173.556, 150.603 173.057, 133.031 172.853 C 110.321 172.589, 100.742 172.142, 99.906 171.306 C 99.005 170.405, 105.892 166.552, 129.385 154.815 L 160.039 139.500 134.810 139 L 109.582 138.500 123.658 126.851 L 137.735 115.203 155.349 90.851 C 165.036 77.458, 172.971 66.215, 172.981 65.867 C 172.992 65.520, 166.137 63.541, 157.750 61.471 C 149.363 59.401, 142.365 57.601, 142.200 57.470 C 142.034 57.339, 144.374 51.066, 147.399 43.529 C 150.423 35.992, 152.359 30.048, 151.699 30.320 C 151.040 30.592, 142.788 34.457, 133.363 38.907 C 123.938 43.358, 115.789 47, 115.254 47 C 114.720 47, 112.739 42.164, 110.853 36.253 C 108.967 30.341, 107.166 25.954, 106.850 26.503 M 29.339 56.558 C 29.116 57.140, 29.061 62.825, 29.217 69.191 L 29.500 80.765 56.186 70.152 C 70.863 64.314, 82.638 59.305, 82.353 59.019 C 81.217 57.884, 29.747 55.494, 29.339 56.558 M 89.675 59.658 C 88.955 60.378, 90.783 63, 92.006 63 C 92.424 63, 93.002 62.100, 93.290 61 C 93.665 59.566, 93.320 59, 92.073 59 C 91.116 59, 90.037 59.296, 89.675 59.658 M 95.945 61.644 C 94.590 65.210, 94.569 65.160, 99.425 69.927 L 103.851 74.270 124.900 71.443 C 136.477 69.888, 145.838 68.505, 145.703 68.369 C 145.568 68.234, 135.342 66.292, 122.978 64.054 C 110.615 61.815, 99.688 59.798, 98.695 59.571 C 97.479 59.293, 96.582 59.969, 95.945 61.644 M 92.618 72.160 C 92.270 73.898, 92.125 75.459, 92.296 75.629 C 92.466 75.799, 94.293 75.664, 96.356 75.330 L 100.107 74.721 97.366 71.860 C 93.903 68.246, 93.394 68.278, 92.618 72.160 M 96.185 78.023 C 93.261 78.449, 90.743 78.956, 90.588 79.149 C 90.151 79.696, 79.095 116.431, 79.310 116.626 C 79.730 117.009, 130.552 105.726, 131.241 105.096 C 131.982 104.418, 103.341 76.890, 102.138 77.125 C 101.787 77.193, 99.108 77.598, 96.185 78.023 M 63.039 87.476 L 39.577 95.760 57.409 107.426 C 67.216 113.843, 75.342 118.960, 75.467 118.796 C 76.186 117.856, 87.050 80.667, 86.801 79.999 C 86.636 79.555, 75.942 82.919, 63.039 87.476" stroke="none" fill="black" fill-rule="evenodd"/>
</svg>