<svg xmlns="http://www.w3.org/2000/svg" width="200" height="200" viewBox="0 0 200 200" version="1.1">
	<path d="M 72.830 13.952 C 48.262 14.803, 27.801 15.861, 27.362 16.302 C 26.922 16.743, 26.064 26.868, 25.454 38.802 C 24.660 54.367, 23.102 69.024, 19.946 90.654 L 15.545 120.809 23.956 130.154 C 28.582 135.294, 33.618 140.854, 35.146 142.509 L 37.925 145.518 30.059 159.009 C 25.733 166.429, 22.287 172.600, 22.402 172.722 C 22.758 173.101, 80.087 158.246, 80.724 157.609 C 81.305 157.028, 72.332 100.999, 71.529 100.196 C 69.409 98.076, 69.960 104.747, 73.822 127.965 C 76.297 142.841, 78.078 155.255, 77.781 155.553 C 77.109 156.225, 28 168.882, 28 168.383 C 28 168.184, 30.973 162.870, 34.607 156.574 L 41.213 145.126 29.788 132.496 L 18.363 119.866 23.114 86.683 C 26.565 62.573, 28.049 48.646, 28.540 35.750 L 29.215 18 38.107 18 C 43.197 18, 47 18.416, 47 18.972 C 47 19.506, 50.233 26.969, 54.184 35.555 L 61.368 51.167 56.720 60.334 C 54.163 65.375, 48.963 75.451, 45.165 82.724 C 37.731 96.958, 37.762 96.101, 44.643 97.481 C 47.674 98.089, 48.239 97.592, 60.523 83.493 L 73.261 68.874 78.076 76.114 L 82.890 83.354 78.945 88.066 C 76.775 90.657, 75 92.989, 75 93.246 C 75 93.504, 83.438 96.105, 93.750 99.026 C 104.063 101.946, 112.652 104.450, 112.838 104.589 C 113.024 104.729, 105.662 117.504, 96.478 132.978 C 87.294 148.452, 79.941 161.260, 80.140 161.439 C 80.338 161.619, 86.210 159.175, 93.189 156.008 L 105.878 150.250 116.689 166.106 C 122.635 174.828, 127.800 181.971, 128.167 181.982 C 128.534 181.992, 135.663 175.587, 144.009 167.750 C 152.355 159.912, 160.741 152.200, 162.643 150.612 L 166.102 147.724 168.970 150.471 C 173.013 154.345, 174.556 152.893, 171.747 147.858 L 169.500 143.831 179.250 134.666 C 184.613 129.625, 188.968 125.050, 188.929 124.500 C 188.889 123.950, 180.134 115.625, 169.473 106 C 158.813 96.375, 150.070 88.156, 150.045 87.735 C 150.020 87.314, 153.825 80.181, 158.500 71.884 C 163.175 63.587, 167 56.388, 167 55.886 C 167 55.384, 163.872 48.730, 160.050 41.100 L 153.100 27.226 138.300 20.970 C 130.160 17.530, 122.150 14.195, 120.500 13.559 C 118.209 12.677, 106.949 12.769, 72.830 13.952 M 80.328 16.420 C 64.283 17.014, 50.898 17.760, 50.584 18.077 C 49.836 18.832, 81.960 53.186, 83.049 52.797 C 83.507 52.634, 90.489 44.850, 98.564 35.500 C 106.639 26.150, 113.936 17.712, 114.778 16.750 C 116.202 15.124, 116.069 15.012, 112.905 15.170 C 111.032 15.264, 96.373 15.826, 80.328 16.420 M 118 30.449 L 118 44.897 108.500 56.372 C 103.275 62.682, 99 68.055, 99 68.310 C 99 68.864, 112.684 80, 113.364 80 C 113.623 80, 115.259 75.725, 117 70.500 C 118.741 65.275, 120.282 61, 120.425 61 C 120.569 61, 131.219 78.995, 144.093 100.989 C 156.967 122.983, 167.725 140.975, 168 140.972 C 168.275 140.968, 172.424 137.261, 177.220 132.733 L 185.940 124.500 166.067 106.500 L 146.195 88.500 148.944 83.500 C 150.455 80.750, 154.543 73.391, 158.028 67.148 L 164.364 55.795 157.778 42.580 L 151.192 29.365 135.346 22.680 C 126.631 19.003, 119.162 15.996, 118.750 15.997 C 118.338 15.999, 118 22.502, 118 30.449 M 101 36.766 C 82.376 58.237, 83.620 55.461, 90.067 61.169 C 93.055 63.814, 95.950 65.951, 96.500 65.918 C 97.050 65.885, 101.664 60.746, 106.754 54.499 L 116.008 43.140 115.254 32.171 L 114.500 21.202 101 36.766 M 53 26.278 C 53 26.522, 55.293 31.620, 58.096 37.608 L 63.193 48.495 64.880 45.231 C 66.262 42.559, 66.811 42.197, 67.909 43.234 C 68.733 44.012, 69.106 44.068, 68.875 43.378 C 68.478 42.192, 53 25.518, 53 26.278 M 66.156 48.556 C 65.203 50.649, 65.606 51.826, 69.213 57.484 L 73.369 64.002 75.776 61.751 C 80.536 57.301, 80.408 56.685, 73.585 51.218 L 67.255 46.145 66.156 48.556 M 53 73.500 C 45.898 87.171, 43.096 93.496, 43.822 94.222 C 44.396 94.796, 45.486 95.028, 46.244 94.737 C 47.002 94.446, 53.079 87.926, 59.749 80.248 L 71.876 66.289 68.304 60.895 C 66.339 57.928, 64.392 55.123, 63.977 54.661 C 63.562 54.200, 58.622 62.677, 53 73.500 M 78.321 62.866 L 75.143 66.696 79.952 73.927 L 84.761 81.159 89.437 75.418 L 94.113 69.678 88.841 64.339 C 85.941 61.402, 83.103 59.008, 82.534 59.018 C 81.965 59.028, 80.070 60.759, 78.321 62.866 M 117.619 76.576 L 114.826 85.153 112.663 83.355 C 111.473 82.367, 109.152 80.420, 107.504 79.029 L 104.507 76.500 106.585 79 C 109.846 82.924, 163.110 140, 163.511 140 C 163.708 140, 157.326 128.863, 149.329 115.250 C 141.332 101.637, 131.852 85.438, 128.263 79.250 C 124.673 73.063, 121.438 68, 121.074 68 C 120.710 68, 119.155 71.859, 117.619 76.576 M 87.750 81.529 C 83.487 86.736, 80.006 91.334, 80.012 91.748 C 80.019 92.161, 88.007 94.700, 97.762 97.388 C 107.518 100.077, 115.853 102.591, 116.285 102.974 C 116.717 103.357, 110.126 115.332, 101.638 129.585 C 93.150 143.838, 86.315 155.618, 86.449 155.763 C 86.583 155.908, 90.249 154.398, 94.596 152.408 C 98.943 150.419, 103.502 148.403, 104.726 147.929 C 106.761 147.142, 107.869 148.406, 117.574 162.585 C 123.415 171.119, 128.541 177.966, 128.964 177.801 C 130.522 177.191, 164.023 145.575, 163.766 144.957 C 163.355 143.967, 96.566 72.179, 96 72.118 C 95.725 72.088, 92.013 76.323, 87.750 81.529" stroke="none" fill="black" fill-rule="evenodd"/>
</svg>