<svg xmlns="http://www.w3.org/2000/svg" width="200" height="200" viewBox="0 0 200 200" version="1.1">
	<path d="M 128 16.165 C 110.109 22.488, 105.530 23.636, 72.500 30.074 C 31.500 38.065, 33 37.710, 33 39.416 C 33 40.392, 39.203 41.004, 59.033 41.983 C 73.351 42.689, 85.351 42.983, 85.699 42.634 C 87.292 41.041, 83.540 40.453, 65.180 39.416 C 54.356 38.806, 45.803 38.237, 46.173 38.153 C 46.543 38.069, 55.093 36.399, 65.173 34.442 C 75.253 32.486, 88.900 29.820, 95.500 28.518 C 102.100 27.216, 115.936 23.232, 126.247 19.663 C 143.659 13.637, 144.957 13.329, 144.475 15.338 C 144.189 16.527, 143.170 21.200, 142.210 25.723 L 140.464 33.945 124.522 45.016 C 115.754 51.105, 108.337 56.347, 108.040 56.665 C 107.743 56.983, 113.952 56.920, 121.837 56.524 L 136.174 55.805 134.472 58.402 C 133.536 59.831, 131.948 61, 130.944 61 C 129.940 61, 128.840 61.450, 128.500 62 C 128.160 62.550, 128.584 63, 129.441 63 C 130.298 63, 131 63.246, 131 63.547 C 131 63.847, 128.933 67.677, 126.406 72.058 L 121.812 80.022 116.901 77.350 C 114.200 75.879, 111.779 74.887, 111.522 75.144 C 110.903 75.763, 92.004 121.302, 92.002 122.180 C 92.001 122.555, 92.901 123.005, 94.003 123.180 C 95.785 123.465, 95.170 124.918, 88.429 136.342 C 84.261 143.405, 81.058 149.392, 81.312 149.645 C 81.566 149.899, 91.062 145.470, 102.414 139.803 L 123.055 129.500 124.077 125.500 C 124.639 123.300, 125.256 121.019, 125.448 120.431 C 125.648 119.820, 131.943 118.826, 140.149 118.111 C 148.042 117.422, 155.318 116.625, 156.319 116.340 C 157.875 115.896, 157.759 116.422, 155.513 119.979 L 152.889 124.136 155.528 143.015 C 156.980 153.398, 158.017 162.643, 157.834 163.558 C 157.622 164.615, 154.029 166.597, 148 168.984 L 138.500 172.745 105 174.926 C 86.575 176.126, 65.425 177.993, 58 179.076 C 50.575 180.159, 42.925 181.277, 41 181.560 C 38.398 181.943, 77.379 165.542, 95.393 158.675 C 96.434 158.278, 97.109 157.782, 96.893 157.573 C 96.677 157.364, 85.700 155.573, 72.500 153.593 C 59.300 151.613, 47.502 149.764, 46.282 149.485 C 44.723 149.129, 41.947 145.389, 36.946 136.908 C 33.031 130.270, 29.979 124.700, 30.164 124.532 C 30.349 124.363, 38.825 122.316, 49 119.982 C 59.175 117.649, 67.656 115.604, 67.847 115.439 C 68.412 114.951, 80.068 82.731, 79.772 82.479 C 79.622 82.351, 71.175 85.830, 61 90.209 C 36.389 100.800, 24 105.963, 24 105.628 C 24 105.477, 27.934 102.011, 32.742 97.927 C 37.549 93.842, 48.211 84.669, 56.434 77.541 L 71.385 64.582 55.442 61.470 L 39.500 58.357 66.750 57.551 C 88.995 56.894, 94 56.490, 94 55.353 C 94 54.183, 89.935 54.048, 68.750 54.513 C 35.090 55.250, 25 55.903, 25 57.343 C 25 58.052, 32.783 59.999, 45.102 62.371 C 64.440 66.094, 65.133 66.309, 63.352 68.019 C 62.333 68.997, 51.150 78.660, 38.500 89.492 C 17.499 107.476, 12.954 112, 15.888 112 C 16.456 112, 29.989 106.428, 45.961 99.619 C 61.932 92.809, 75.004 87.521, 75.008 87.869 C 75.028 89.440, 66.597 111.619, 65.609 112.595 C 64.999 113.197, 55.838 115.643, 45.250 118.032 C 34.662 120.420, 26 122.693, 26 123.082 C 26 123.576, 39.619 147.306, 42.400 151.657 C 42.455 151.744, 52.288 153.295, 64.250 155.105 C 76.213 156.915, 85.995 158.645, 85.988 158.948 C 85.981 159.252, 72.011 165.064, 54.943 171.865 C 36.297 179.295, 24.070 184.683, 24.310 185.365 C 24.795 186.743, 24.655 186.756, 49.500 183.082 C 62.611 181.144, 81.211 179.394, 103.500 178.003 L 137.500 175.882 149.250 171.348 C 159.757 167.294, 161 166.558, 161 164.398 C 161 163.069, 159.828 153.628, 158.396 143.419 L 155.792 124.856 159.315 119.180 C 161.252 116.059, 162.731 113.397, 162.600 113.266 C 162.469 113.135, 154.293 113.858, 144.431 114.872 C 134.569 115.886, 126.379 116.621, 126.232 116.506 C 125.756 116.135, 131.293 90.529, 132.033 89.676 C 132.427 89.222, 136.414 90.694, 140.894 92.947 L 149.039 97.042 160.597 87.354 C 168.580 80.664, 171.745 77.438, 170.828 76.926 C 170.098 76.518, 162.525 73.408, 154 70.014 C 145.475 66.621, 138.167 63.523, 137.759 63.131 C 137.352 62.739, 146.689 60.220, 158.509 57.533 C 174.513 53.894, 180 52.273, 180 51.180 C 180 49.964, 178.673 49.817, 172.250 50.323 C 154.553 51.716, 142 52.242, 142 51.589 C 142 51.207, 145.379 45.207, 149.509 38.256 C 153.992 30.711, 156.653 25.253, 156.113 24.713 C 155.572 24.172, 153.072 25.245, 149.909 27.375 C 146.995 29.338, 144.476 30.809, 144.312 30.645 C 144.147 30.481, 144.929 26.148, 146.050 21.016 C 147.170 15.884, 147.954 11.142, 147.793 10.479 C 147.597 9.674, 141.026 11.562, 128 16.165 M 146.813 32.654 C 143.809 34.718, 142.925 36.123, 142.042 40.240 C 141.446 43.018, 141.133 45.466, 141.346 45.679 C 141.643 45.977, 147.120 37.239, 150.704 30.750 C 151.312 29.648, 150.878 29.861, 146.813 32.654 M 128.248 45.685 C 122.082 49.912, 117.209 53.542, 117.419 53.753 C 117.630 53.963, 122.034 53.825, 127.206 53.445 L 136.611 52.755 138.113 45.377 C 138.940 41.320, 139.581 38, 139.537 38 C 139.494 38, 134.414 41.458, 128.248 45.685 M 145.840 54.739 C 140.882 54.998, 139.024 55.496, 138.567 56.687 C 138.229 57.566, 138.160 58.494, 138.414 58.747 C 138.667 59.001, 143.516 58.087, 149.187 56.717 C 159.358 54.260, 159.007 54.052, 145.840 54.739 M 129.239 72.540 C 126.908 76.608, 125 80.328, 125 80.807 C 125 81.287, 126.119 82.189, 127.488 82.812 C 130.293 84.091, 129.910 84.888, 132.432 72.511 C 133.215 68.667, 133.771 65.438, 133.667 65.334 C 133.563 65.230, 131.571 68.473, 129.239 72.540 M 134.700 74.806 C 133.765 79.683, 133 84.191, 133 84.825 C 133 85.459, 136.509 87.742, 140.797 89.898 L 148.595 93.819 157.047 86.818 C 161.696 82.968, 165.859 79.477, 166.299 79.060 C 166.917 78.474, 150.946 71.410, 137.950 66.522 C 136.692 66.049, 136.079 67.610, 134.700 74.806 M 104.236 99.167 C 96.470 118.089, 95.200 122.377, 98.381 118.940 C 99.729 117.484, 120 83.309, 120 82.493 C 120 81.926, 114.354 78.995, 113.300 79.015 C 112.860 79.023, 108.781 88.092, 104.236 99.167 M 112.334 101.253 C 106.743 110.739, 102.333 118.665, 102.535 118.867 C 102.981 119.315, 122.237 117.097, 122.801 116.532 C 123.323 116.011, 128.930 89.994, 128.970 87.911 C 128.996 86.532, 125.251 83.994, 123.203 84.003 C 122.816 84.005, 117.925 91.767, 112.334 101.253 M 108.509 121.172 C 104.114 121.673, 100.212 122.401, 99.838 122.791 C 98.629 124.053, 87.081 144, 87.560 144 C 87.940 144, 120.138 128.084, 120.661 127.637 C 120.749 127.562, 121.137 125.813, 121.522 123.750 C 122.330 119.423, 122.890 119.534, 108.509 121.172" stroke="none" fill="black" fill-rule="evenodd"/>
</svg>