<svg xmlns="http://www.w3.org/2000/svg" width="200" height="200" viewBox="0 0 200 200" version="1.1">
	<path d="M 104.439 18.073 C 103.373 19.256, 100.443 21.947, 97.929 24.055 L 93.357 27.887 85.813 25.955 C 81.664 24.892, 73.697 22.942, 68.109 21.621 L 57.950 19.220 43.229 30.860 L 28.508 42.500 40.004 43.118 C 46.327 43.459, 56.225 43.803, 62 43.884 C 73.335 44.042, 76.158 44.794, 73.547 46.961 C 72.696 47.667, 72 48.904, 72 49.710 C 72 50.955, 70.212 51.069, 60.127 50.467 L 48.254 49.758 37.120 77.964 C 30.997 93.477, 26.208 106.528, 26.479 106.967 C 26.750 107.405, 30.691 109.239, 35.236 111.041 C 39.781 112.843, 44.206 114.668, 45.068 115.097 C 46.490 115.803, 46.480 117.027, 44.961 128.188 C 43.750 137.087, 43.593 140.707, 44.393 141.246 C 45.002 141.656, 51.489 145.411, 58.808 149.589 L 72.116 157.186 64.308 162.961 C 60.014 166.137, 50.260 173.332, 42.634 178.951 C 33.358 185.785, 29.099 189.499, 29.771 190.171 C 30.442 190.842, 44.633 186.804, 72.637 177.973 C 95.662 170.712, 116.842 164.091, 119.705 163.259 C 124.869 161.759, 124.919 161.705, 125.935 156.623 C 127.689 147.848, 132.948 115.615, 132.671 115.338 C 132.526 115.193, 128.603 114.198, 123.954 113.127 C 119.304 112.057, 115.725 111.144, 116 111.100 C 116.275 111.055, 127.719 112.132, 141.432 113.494 C 155.145 114.855, 166.443 115.864, 166.540 115.735 C 167.363 114.639, 171.867 99.533, 171.485 99.152 C 171.212 98.879, 158.812 99.229, 143.930 99.930 C 129.047 100.631, 116.673 101.006, 116.431 100.765 C 115.504 99.838, 118.819 92.505, 120.125 92.594 C 120.881 92.646, 129.877 93.006, 140.115 93.395 L 158.730 94.102 159.390 75.301 C 159.754 64.960, 160.317 53.688, 160.642 50.250 C 161.155 44.824, 161.011 44, 159.549 44 C 158.418 44, 158.032 43.425, 158.374 42.250 C 159.649 37.868, 162.296 23.968, 161.920 23.633 C 161.689 23.428, 150.250 21.836, 136.500 20.095 C 122.750 18.354, 110.348 16.703, 108.939 16.427 C 107.145 16.075, 105.798 16.567, 104.439 18.073 M 102.143 23.820 L 96.786 28.573 120.643 34.308 C 135.587 37.901, 146.634 40.035, 150.211 40.022 L 155.923 40 156.879 36.250 C 159.312 26.712, 159.308 26.110, 156.821 25.575 C 155.545 25.301, 145.275 23.933, 134 22.535 C 122.725 21.137, 112.150 19.785, 110.500 19.530 C 108.011 19.146, 106.588 19.877, 102.143 23.820 M 47.583 30.798 L 36.667 39.473 40.583 40.106 C 42.737 40.453, 52.158 41.023, 61.518 41.372 L 78.536 42.006 85.018 36.119 L 91.500 30.232 87.500 29.161 C 85.300 28.572, 78.550 26.933, 72.500 25.520 C 66.450 24.106, 60.825 22.763, 60 22.536 C 59.175 22.308, 53.587 26.026, 47.583 30.798 M 88.500 36.515 L 82.500 41.951 87 42.110 C 93.667 42.344, 105.801 42.058, 121 41.308 L 134.500 40.642 115 35.857 C 104.275 33.225, 95.275 31.073, 95 31.075 C 94.725 31.077, 91.800 33.525, 88.500 36.515 M 125.500 44.048 C 117.250 44.430, 103.491 44.800, 94.924 44.871 C 80.019 44.994, 79.255 45.100, 77.174 47.314 C 75.978 48.587, 75 50.083, 75 50.637 C 75 51.248, 86.218 52.372, 103.460 53.489 C 130.627 55.248, 135.421 55.913, 133.660 57.673 C 133.230 58.103, 120.418 59.365, 105.189 60.478 L 77.500 62.500 77.851 65.500 C 78.043 67.150, 78.407 68.838, 78.660 69.250 C 78.912 69.662, 84.905 70, 91.977 70 C 99.050 70, 105.548 70.273, 106.418 70.607 C 110.700 72.250, 106.697 73, 93.646 73 L 79.292 73 80.756 80.360 L 82.221 87.721 90.360 88.354 C 94.837 88.703, 102.631 88.991, 107.679 88.994 L 116.859 89 121.654 74.500 C 127.032 58.236, 129 56.093, 129 66.500 C 129 71.611, 128.679 73, 127.500 73 C 126.675 73, 125.982 72.438, 125.960 71.750 C 125.938 71.063, 124.554 74.703, 122.884 79.841 C 121.214 84.978, 119.995 89.314, 120.174 89.475 C 120.353 89.637, 128.440 90.092, 138.143 90.487 L 155.787 91.206 156.416 78.353 C 156.762 71.284, 157.305 61.159, 157.623 55.853 L 158.201 46.206 151.153 44.603 C 147.277 43.721, 143.294 43.080, 142.303 43.177 C 141.311 43.275, 133.750 43.667, 125.500 44.048 M 49.136 55.109 C 48.630 56.424, 44.516 66.725, 39.993 78 C 35.471 89.275, 31.189 100.128, 30.477 102.117 L 29.182 105.735 38.341 109.380 C 43.379 111.385, 48.005 113.357, 48.622 113.762 C 49.439 114.300, 49.269 117.750, 47.991 126.500 C 47.028 133.100, 46.412 138.796, 46.622 139.159 C 46.833 139.521, 53.529 143.485, 61.503 147.968 C 69.476 152.450, 76 156.495, 76 156.956 C 76 157.418, 67.488 164.029, 57.084 171.648 C 46.680 179.266, 38.245 185.577, 38.339 185.672 C 38.656 185.990, 121.492 159.774, 122.194 159.134 C 122.576 158.785, 124.267 150.175, 125.952 140 C 127.636 129.825, 129.226 120.562, 129.485 119.415 C 129.908 117.541, 129.174 117.163, 122.205 115.665 C 117.942 114.749, 113.790 114.011, 112.977 114.024 C 111.934 114.041, 109.152 121.357, 103.500 138.948 C 99.100 152.642, 95.228 163.544, 94.896 163.173 C 94.564 162.803, 91.951 150.575, 89.088 136 C 82.807 104.011, 83.365 106, 80.663 106 C 79.203 106, 75.262 102.758, 68.980 96.390 L 59.500 86.780 69.250 87.450 C 77.240 88, 79 87.869, 79 86.727 C 79 83.975, 76.649 73.489, 75.922 72.996 C 75.166 72.484, 71.001 62.120, 71.001 60.750 C 71 60.337, 71.684 60, 72.519 60 C 73.669 60, 73.878 59.333, 73.378 57.250 C 73.016 55.737, 72.663 54.418, 72.595 54.319 C 72.526 54.219, 67.428 53.818, 61.264 53.428 C 50.081 52.720, 50.055 52.724, 49.136 55.109 M 76.207 57 C 76.375 58.435, 77.139 59.493, 78 59.484 C 85.612 59.402, 106.982 57.647, 106.487 57.144 C 106.137 56.790, 99.116 56.050, 90.883 55.500 L 75.915 54.500 76.207 57 M 73 96.500 C 80.883 104.454, 82.498 104.808, 81.533 98.372 C 81.151 95.827, 80.622 93.177, 80.356 92.484 C 79.808 91.056, 75.471 90, 70.154 90 L 66.558 90 73 96.500 M 83.283 93.089 C 83.602 94.415, 84.158 97.126, 84.518 99.114 L 85.172 102.728 96.836 102.309 C 112.745 101.737, 112.538 101.805, 114.344 96.505 L 115.879 92 110.689 91.995 C 107.835 91.993, 100.370 91.695, 94.101 91.334 L 82.702 90.677 83.283 93.089 M 136.500 103.040 C 129.900 103.419, 122.348 103.790, 119.719 103.864 C 116.424 103.958, 114.753 104.480, 114.345 105.543 C 114.019 106.392, 113.989 107.323, 114.278 107.612 C 114.794 108.128, 164.239 113.153, 164.551 112.721 C 164.784 112.398, 168 102.701, 168 102.322 C 168 101.846, 150.240 102.251, 136.500 103.040 M 96.250 104.746 C 90.612 104.924, 85.997 105.392, 85.993 105.785 C 85.970 107.992, 95.439 152.894, 95.843 152.491 C 97.021 151.312, 108.853 113.464, 108.214 112.918 C 107.821 112.583, 103.563 111.507, 98.750 110.527 C 92.866 109.329, 90 108.296, 90 107.373 C 90 105.812, 91.273 105.769, 102.500 106.948 C 108.234 107.551, 110.708 107.465, 111.235 106.644 C 112.546 104.602, 112.052 103.996, 109.250 104.211 C 107.737 104.327, 101.888 104.568, 96.250 104.746" stroke="none" fill="black" fill-rule="evenodd"/>
</svg>