<svg xmlns="http://www.w3.org/2000/svg" width="200" height="200" viewBox="0 0 200 200" version="1.1">
	<path d="M 80.992 21.023 C 76.687 32.660, 76.431 33.076, 73.022 33.981 C 71.085 34.496, 59.600 37.206, 47.500 40.004 C 35.400 42.801, 24.713 45.325, 23.750 45.612 C 20.229 46.663, 21.984 48.831, 27.250 49.936 C 53.679 55.480, 66.627 58.411, 67.302 59.001 C 67.742 59.387, 55.592 70.194, 40.302 83.016 C 25.011 95.837, 12.073 106.704, 11.550 107.164 C 10.951 107.691, 10.962 108.362, 11.579 108.979 C 12.218 109.618, 22.417 105.281, 40.926 96.500 C 56.529 89.098, 70.085 82.790, 71.051 82.484 C 72.527 82.015, 73.883 84.685, 79.548 99.213 C 83.256 108.721, 86.464 116.702, 86.677 116.949 C 86.890 117.196, 89.983 115.958, 93.551 114.199 C 97.119 112.439, 100.479 111, 101.019 111 C 101.605 111, 102 115.733, 102 122.746 L 102 134.493 85.364 117.856 L 68.728 101.220 46.877 114.360 C 34.859 121.587, 25.024 127.725, 25.021 128 C 25.018 128.275, 30.637 131.562, 37.508 135.305 C 44.379 139.048, 49.993 142.198, 49.984 142.305 C 49.976 142.412, 44.132 153.959, 36.999 167.964 C 29.030 183.610, 24.386 193.786, 24.956 194.356 C 25.526 194.926, 36.028 185.374, 52.192 169.584 L 78.500 143.884 89.590 144.531 C 95.690 144.886, 103.995 145.475, 108.046 145.839 L 115.412 146.500 124.370 168.286 C 129.297 180.269, 133.658 189.719, 134.062 189.286 C 134.466 188.854, 140.912 174.904, 148.386 158.286 C 158.207 136.447, 162.151 126.568, 162.612 122.647 L 163.249 117.223 156.375 116.072 C 152.594 115.439, 144.775 114.138, 139 113.180 C 128.610 111.457, 128.483 111.403, 126.879 107.970 C 123.338 100.389, 123.331 100.412, 130.010 97.415 C 137.128 94.221, 137.354 94.734, 125.119 86.287 L 116.738 80.500 111.407 69 C 102.753 50.331, 103.348 50.368, 124.294 69.809 L 142.588 86.788 163.044 83.927 C 189.975 80.161, 190.773 80.010, 188.971 79.015 C 188.162 78.569, 174.047 72.734, 157.603 66.048 C 138.933 58.457, 127.354 54.246, 126.766 54.834 C 125.523 56.077, 124.161 55.434, 151.500 66.507 C 164.700 71.853, 176.555 76.773, 177.845 77.441 C 179.888 78.499, 178.153 78.940, 164.345 80.872 C 155.630 82.092, 147.326 83.182, 145.892 83.295 C 143.786 83.460, 139.696 80.222, 124.679 66.500 L 106.074 49.500 106.037 36.750 C 106.017 29.738, 106.290 24, 106.645 24 C 107 24, 111.915 28.551, 117.568 34.114 L 127.845 44.228 139.673 44.196 L 151.500 44.164 136.078 46.332 C 126.280 47.709, 120.506 48.956, 120.244 49.750 C 120.018 50.438, 120.433 50.998, 121.167 50.995 C 124.677 50.981, 182.210 43.124, 182.749 42.584 C 184.571 40.762, 179.110 40.456, 155.518 41.058 L 129.537 41.722 117.205 30.111 C 110.423 23.725, 104.452 18.350, 103.937 18.167 C 103.383 17.970, 103 23.615, 103 31.976 C 103 39.986, 102.614 45.879, 102.110 45.568 C 101.620 45.265, 97.972 36.914, 94.004 27.009 C 90.035 17.104, 86.484 9, 86.113 9 C 85.742 9, 83.438 14.410, 80.992 21.023 M 84.957 18.588 C 84.379 20.190, 82.688 24.622, 81.200 28.439 L 78.494 35.377 69.497 37.592 C 64.549 38.810, 53.300 41.503, 44.500 43.576 L 28.500 47.346 44 50.684 C 72.324 56.784, 74.095 57.217, 73.796 57.966 C 73.633 58.376, 63.150 67.388, 50.500 77.993 C 37.850 88.597, 26.375 98.355, 25 99.677 C 22.231 102.340, 23.159 101.941, 56.498 86.167 C 73.357 78.190, 73.506 78.143, 74.716 80.312 C 75.386 81.516, 78.699 89.542, 82.077 98.149 L 88.218 113.798 94.949 110.649 L 101.681 107.500 102.336 95 C 102.697 88.125, 102.993 76.875, 102.995 70 C 102.998 58.184, 102.834 57.153, 99.999 51.160 C 98.350 47.673, 97 44.117, 97 43.258 C 97 41.855, 87.334 17.090, 86.395 16.088 C 86.183 15.861, 85.536 16.986, 84.957 18.588 M 105.661 67.944 C 105.298 69.762, 105 79.041, 105 88.562 L 105 105.875 111.750 102.842 C 115.463 101.173, 118.845 99.484, 119.266 99.088 C 119.688 98.692, 117.280 91.647, 113.915 83.434 C 110.551 75.220, 107.466 67.631, 107.060 66.569 C 106.444 64.956, 106.214 65.182, 105.661 67.944 M 118 85.374 C 118 87.619, 122.590 97, 123.688 97 C 125.203 97, 131.413 94.033, 130.843 93.581 C 128.640 91.837, 118 85.038, 118 85.374 M 112.250 105.506 L 105 108.882 105 124.441 C 105 132.998, 104.646 140, 104.213 140 C 103.780 140, 95.585 132.113, 86.002 122.474 C 76.420 112.834, 68.112 105.131, 67.540 105.356 C 66.968 105.581, 58.261 110.715, 48.192 116.765 L 29.884 127.765 33.192 129.750 C 35.011 130.842, 40.400 133.835, 45.166 136.402 L 53.831 141.070 42.282 163.785 L 30.732 186.500 39.616 178.005 C 44.502 173.333, 55.057 163.070, 63.070 155.197 L 77.640 140.884 97.321 142.276 C 108.145 143.041, 117.146 143.855, 117.323 144.084 C 117.501 144.313, 121.185 153.168, 125.510 163.763 C 129.835 174.358, 133.712 182.683, 134.126 182.263 C 136.132 180.228, 159.337 126.983, 159.742 123.486 L 160.207 119.473 143.124 116.580 L 126.042 113.686 123.776 107.843 C 122.530 104.629, 121.058 102.029, 120.505 102.065 C 119.952 102.101, 116.237 103.649, 112.250 105.506" stroke="none" fill="black" fill-rule="evenodd"/>
</svg>