<svg xmlns="http://www.w3.org/2000/svg" width="200" height="200" viewBox="0 0 200 200" version="1.1">
	<path d="M 106.538 35.187 C 87.639 56.123, 87.569 56.186, 85.812 54.017 C 84.843 52.819, 80.326 49.493, 75.775 46.626 C 71.224 43.759, 63.341 38.395, 58.258 34.707 C 49.191 28.127, 47.264 27, 48.500 29 C 49.572 30.735, 47.936 30.106, 42 26.500 C 38.831 24.575, 35.975 23, 35.653 23 C 35.332 23, 32.527 30.763, 29.421 40.250 C 23.873 57.194, 23.714 58.006, 20.464 86 C 18.645 101.675, 17.458 114.787, 17.828 115.137 C 18.198 115.487, 25.250 118.830, 33.500 122.565 C 41.750 126.301, 48.657 129.471, 48.848 129.610 C 49.039 129.749, 41.469 140.959, 32.025 154.521 C 21.919 169.036, 15.082 179.771, 15.406 180.616 C 16.037 182.261, 14.015 183.426, 42.432 165.044 C 52.845 158.308, 61.868 152.604, 62.483 152.368 C 63.183 152.100, 64.687 156.456, 66.500 164 C 68.633 172.878, 69.751 175.926, 70.735 175.548 C 71.471 175.266, 81.546 167.076, 93.123 157.349 C 106.026 146.509, 114.439 140.093, 114.859 140.772 C 115.236 141.382, 118.218 153.608, 121.486 167.940 C 126.961 191.949, 128.726 196.956, 130.234 192.750 C 130.481 192.063, 133.566 177.214, 137.091 159.753 C 140.616 142.292, 143.785 128.117, 144.134 128.253 C 144.483 128.389, 152.995 137.628, 163.049 148.785 C 173.883 160.806, 181.697 168.703, 182.230 168.170 C 182.763 167.637, 177.735 156.471, 169.887 140.762 L 156.645 114.254 159.572 110.749 C 161.183 108.821, 166.952 102.453, 172.394 96.599 C 177.836 90.745, 182.105 85.772, 181.881 85.548 C 181.657 85.324, 172.367 83.433, 161.237 81.346 C 150.107 79.260, 141.015 77.316, 141.033 77.026 C 141.051 76.737, 149.409 70.480, 159.606 63.123 C 169.803 55.765, 177.775 49.405, 177.323 48.989 C 176.870 48.573, 169.806 46.043, 161.625 43.366 L 146.749 38.500 137.196 27.500 C 131.941 21.450, 127.160 15.978, 126.571 15.340 C 125.783 14.487, 120.489 19.732, 106.538 35.187 M 108.529 37 C 99.195 47.355, 91.402 56.295, 91.211 56.866 C 91.021 57.438, 92.948 64.490, 95.495 72.537 L 100.125 87.168 104.480 89.094 L 108.835 91.021 99.285 119.650 C 93.396 137.306, 89.446 147.747, 88.979 146.890 C 88.563 146.125, 84.498 133.125, 79.945 118 C 75.392 102.875, 70.940 88.767, 70.050 86.648 L 68.434 82.796 59.467 92.648 C 54.535 98.067, 50.163 102.650, 49.750 102.833 C 49.337 103.017, 49 107.404, 49 112.583 C 49 120.287, 48.727 122, 47.500 122 C 46.202 122, 46 118.167, 46 93.500 C 46 77.014, 46.384 65, 46.911 65 C 47.413 65, 51.463 66.558, 55.911 68.462 C 60.914 70.603, 63.976 71.462, 63.936 70.712 C 63.900 70.045, 60.849 61.654, 57.154 52.064 L 50.437 34.627 44.468 30.884 C 41.186 28.825, 38.050 27.110, 37.500 27.073 C 36.950 27.035, 34.141 34.541, 31.257 43.752 C 26.285 59.637, 25.862 61.864, 23.050 86.959 C 21.419 101.511, 20.178 113.481, 20.292 113.559 C 20.407 113.636, 27.700 116.967, 36.500 120.961 C 45.300 124.954, 52.656 128.365, 52.847 128.541 C 53.037 128.717, 45.967 139.242, 37.135 151.930 C 28.302 164.619, 21.285 175, 21.541 175 C 21.797 175, 31.496 168.876, 43.095 161.392 C 54.694 153.907, 64.533 148.170, 64.959 148.642 C 65.386 149.114, 66.968 154.552, 68.476 160.726 L 71.217 171.951 78.358 166.092 C 82.286 162.869, 92.250 154.559, 100.500 147.625 C 108.750 140.692, 115.779 135.015, 116.120 135.009 C 116.753 135, 117.921 139.724, 124.583 169.236 C 126.661 178.441, 128.513 185.820, 128.698 185.635 C 128.883 185.450, 131.952 170.944, 135.516 153.399 C 139.081 135.855, 142.232 120.487, 142.518 119.250 C 142.804 118.013, 143.744 117, 144.607 117 C 145.873 117, 146.050 117.743, 145.525 120.850 C 144.879 124.678, 144.956 124.789, 159.517 140.850 C 167.571 149.732, 174.351 157, 174.584 157 C 174.818 157, 170.109 147.208, 164.120 135.239 L 153.231 113.478 165.101 100.558 C 171.629 93.451, 176.837 87.504, 176.675 87.341 C 176.512 87.178, 166.997 85.238, 155.530 83.030 C 144.063 80.821, 134.537 78.870, 134.361 78.695 C 134.186 78.519, 142.583 72.184, 153.021 64.615 C 163.460 57.047, 172 50.531, 172 50.136 C 172 49.741, 165.877 47.414, 158.393 44.965 L 144.787 40.513 136.232 30.507 C 131.527 25.003, 127.187 19.976, 126.589 19.336 C 125.781 18.473, 121.114 23.038, 108.529 37 M 55 38.379 C 55 40.128, 68.350 73.603, 69.284 74.197 C 71.269 75.458, 71.483 75.304, 78.325 67.659 C 83.197 62.216, 84.757 59.788, 84.361 58.271 C 83.500 54.981, 55 35.672, 55 38.379 M 80.645 69.103 C 77.540 72.534, 75 75.652, 75 76.032 C 75 76.737, 95.067 85.327, 95.466 84.793 C 95.587 84.632, 93.572 79.632, 90.988 73.682 L 86.290 62.865 80.645 69.103 M 49 84.700 C 49 93.335, 49.366 99.973, 49.812 99.450 C 50.259 98.928, 54.347 94.365, 58.897 89.310 C 64.143 83.484, 67.047 79.458, 66.835 78.310 C 66.521 76.615, 53.253 69.217, 50.250 69.064 C 49.300 69.015, 49 72.773, 49 84.700 M 71 79.620 C 71 79.962, 72.965 86.374, 75.367 93.870 C 77.769 101.367, 81.913 114.868, 84.576 123.872 L 89.418 140.245 97.331 116.507 C 103.656 97.533, 104.971 92.600, 103.886 91.930 C 103.025 91.398, 102.231 91.623, 101.715 92.545 C 100.522 94.676, 99.298 94.324, 98.629 91.656 C 98.155 89.769, 95.648 88.303, 85.770 84.137 C 74.021 79.182, 71 78.258, 71 79.620" stroke="none" fill="black" fill-rule="evenodd"/>
</svg>