<svg xmlns="http://www.w3.org/2000/svg" width="200" height="200" viewBox="0 0 200 200" version="1.1">
	<path d="M 104.520 30.441 C 103.697 46.910, 104.694 45.625, 94 43.993 C 81.153 42.033, 81.067 42.005, 79.635 39.273 C 78.272 36.671, 78.241 36.665, 77.558 38.816 C 76.733 41.417, 75.741 41.464, 63 39.500 C 51.350 37.704, 52 37.711, 52 39.385 C 52 40.358, 54.453 41.119, 60.250 41.945 C 76.732 44.292, 76 44.086, 75.996 46.378 C 75.993 47.545, 73.522 62, 70.504 78.500 L 65.017 108.500 65.008 140.750 C 65.004 158.488, 64.662 172.996, 64.250 172.992 C 63.837 172.987, 58.556 169.716, 52.513 165.722 L 41.527 158.461 37.265 135.481 L 33.004 112.500 35.112 101.500 C 37.520 88.933, 45.018 42.685, 44.699 42.366 C 44.583 42.250, 41.678 41.837, 38.244 41.448 C 32.851 40.838, 32 40.964, 32 42.371 C 32 43.632, 33.004 44, 36.441 44 C 38.884 44, 41.068 44.337, 41.294 44.750 C 41.817 45.701, 34.902 88.656, 32.127 101.689 L 30.039 111.500 34.512 135.910 C 36.973 149.335, 39.102 160.402, 39.243 160.502 C 42.653 162.928, 65.335 177.191, 66.484 177.632 C 67.941 178.191, 68.081 175.917, 67.945 153.875 L 67.796 129.500 91.468 129.232 C 110.378 129.017, 114.987 129.219, 114.376 130.232 C 113.955 130.929, 104.923 143.079, 94.305 157.230 C 83.687 171.382, 75 183.420, 75 183.980 C 75 186.038, 77.540 184.814, 91.777 175.894 L 106.311 166.788 135.203 175.127 C 156.017 181.135, 164.297 183.137, 164.820 182.291 C 165.220 181.644, 167.030 175.073, 168.844 167.687 L 172.142 154.259 164.191 138.380 L 156.241 122.500 166.097 95 C 171.518 79.875, 175.964 67.129, 175.977 66.676 C 175.990 66.223, 164.640 65.998, 150.756 66.176 L 125.512 66.500 123.662 57.677 C 122.645 52.825, 121.967 48.707, 122.156 48.526 C 122.345 48.345, 135.662 47.867, 151.750 47.465 C 174.151 46.903, 181 46.438, 181 45.477 C 181 44.024, 179.851 43.790, 158.653 40.926 L 142.805 38.786 125.314 27.827 C 115.694 21.800, 107.243 16.647, 106.535 16.375 C 105.541 15.994, 105.082 19.197, 104.520 30.441 M 107.625 24.125 C 107.281 25.844, 107 31.418, 107 36.511 L 107 45.773 111.508 46.449 C 115.392 47.031, 116.287 47.635, 117.972 50.812 L 119.927 54.500 119.328 49.750 L 118.728 45 139.114 44.970 C 159.270 44.940, 163.533 43.943, 149.500 42.541 C 142.809 41.873, 141.766 41.382, 125.889 31.421 C 116.753 25.690, 109.046 21, 108.764 21 C 108.481 21, 107.969 22.406, 107.625 24.125 M 77.122 57.613 C 75.897 64.701, 73.097 80.075, 70.900 91.779 C 68.240 105.951, 67.005 115.135, 67.203 119.279 L 67.500 125.500 81.250 101.943 C 88.813 88.987, 94.976 77.737, 94.947 76.943 C 94.918 76.149, 91.397 68.576, 87.122 60.113 L 79.350 44.725 77.122 57.613 M 83 45.493 C 83 45.785, 86.545 53.106, 90.877 61.762 L 98.755 77.500 85.272 100.500 C 77.856 113.150, 71.563 124.063, 71.288 124.750 C 70.894 125.730, 76.107 126, 95.393 126 C 108.927 126, 120 126.299, 120 126.665 C 120 127.031, 111.447 138.731, 100.993 152.665 C 90.539 166.599, 82.263 178, 82.602 178 C 82.941 178, 88.352 174.795, 94.628 170.878 L 106.037 163.755 133.944 171.878 C 149.293 176.345, 162.057 180, 162.309 180 C 162.561 180, 164.206 174.216, 165.963 167.147 L 169.159 154.294 161.216 138.397 L 153.272 122.500 162.614 96.500 C 167.753 82.200, 171.967 70.092, 171.979 69.594 C 171.998 68.758, 129.087 69.579, 128.236 70.430 C 128.040 70.627, 130.831 76.679, 134.440 83.879 C 140.883 96.738, 142.005 100, 139.986 100 C 139.429 100, 133.691 95.781, 127.236 90.625 C 120.781 85.468, 115.376 81.564, 115.225 81.949 C 115.074 82.334, 116.770 91.344, 118.994 101.972 C 121.218 112.600, 122.917 121.382, 122.769 121.488 C 122.621 121.594, 117.888 120.594, 112.250 119.266 L 102 116.852 102.001 111.176 C 102.002 108.054, 102.472 92.733, 103.047 77.129 C 103.621 61.525, 103.928 48.594, 103.728 48.394 C 103.528 48.194, 99.794 47.563, 95.432 46.993 C 91.069 46.422, 86.487 45.731, 85.250 45.458 C 84.013 45.185, 83 45.201, 83 45.493 M 106.621 55.750 C 106.301 59.462, 105.750 74.253, 105.397 88.617 L 104.753 114.735 111.627 116.279 C 115.407 117.128, 118.686 117.639, 118.914 117.414 C 119.142 117.189, 117.422 107.988, 115.092 96.969 C 112.762 85.949, 111.013 76.461, 111.205 75.885 C 111.487 75.038, 126.344 85.947, 134.361 92.889 C 135.384 93.775, 131.109 84.263, 124.861 71.751 C 113.654 49.311, 113.457 49.003, 110.351 49.001 L 107.203 49 106.621 55.750" stroke="none" fill="black" fill-rule="evenodd"/>
</svg>