<svg xmlns="http://www.w3.org/2000/svg" width="200" height="200" viewBox="0 0 200 200" version="1.1">
	<path d="M 103.596 18.845 C 103.309 19.309, 106.207 24.711, 110.037 30.848 L 117 42.007 117 64.504 C 117 78.094, 116.623 87, 116.047 87 C 113.983 87, 110.013 84.611, 109.564 83.098 C 109.304 82.219, 107.456 72.950, 105.458 62.500 C 103.460 52.050, 101.657 43.331, 101.453 43.124 C 101.248 42.916, 96.501 47.543, 90.905 53.405 C 85.308 59.267, 80.547 63.880, 80.324 63.658 C 80.102 63.435, 79.145 59.069, 78.198 53.956 C 77.249 48.830, 75.921 44.474, 75.238 44.246 C 73.576 43.692, 73.663 45.190, 75.984 57.165 L 77.969 67.402 69.338 76.222 C 64.591 81.072, 60.886 85.216, 61.104 85.431 C 61.726 86.042, 83.639 94, 84.702 94 C 85.226 94, 84.556 88.181, 83.207 81.023 L 80.762 68.047 90.131 58.141 C 95.284 52.693, 99.612 48.332, 99.749 48.450 C 99.885 48.568, 101.634 57.114, 103.634 67.441 L 107.272 86.218 112.386 88.599 C 115.199 89.909, 118.063 90.985, 118.750 90.990 C 119.711 90.998, 120.005 85.977, 120.022 69.250 C 120.043 48.460, 120.121 47.597, 121.772 49.694 C 123.463 51.841, 123.780 51.868, 136.500 50.981 C 143.650 50.482, 151.554 50.058, 154.065 50.037 L 158.630 50 156.372 68.750 C 155.129 79.063, 153.850 89.311, 153.529 91.524 L 152.945 95.547 165.649 98.961 L 178.352 102.374 164.257 107.085 C 151.240 111.436, 148.568 111.960, 129.331 113.937 C 117.874 115.115, 107.239 116.398, 105.698 116.789 C 103.094 117.450, 104.580 118.661, 126.698 133.898 C 145.057 146.546, 153.794 151.864, 164.907 157.157 C 172.831 160.931, 179.131 164.179, 178.907 164.374 C 177.985 165.177, 141.872 179.201, 141.591 178.865 C 141.423 178.664, 135.112 168.271, 127.567 155.768 C 114.307 133.797, 113.717 133.002, 109.924 132.018 C 107.766 131.458, 104.133 130.515, 101.851 129.921 C 96.832 128.617, 98.481 127.152, 78.287 150.859 L 63.500 168.217 45.051 174.076 C 34.904 177.298, 26.463 179.796, 26.293 179.626 C 26.123 179.456, 30.704 176.075, 36.474 172.112 C 46.555 165.187, 47.688 164.015, 65.568 142.023 C 75.800 129.437, 84.246 118.771, 84.336 118.320 C 84.501 117.494, 40.306 110.221, 34.250 110.077 C 32.462 110.035, 31 109.888, 31 109.750 C 31 109.612, 32.350 99.673, 34 87.662 C 35.650 75.652, 37 65.182, 37 64.397 C 37 63.611, 41.442 60.095, 46.871 56.584 C 52.300 53.072, 60.962 47.145, 66.119 43.414 L 75.497 36.629 71.337 41.564 C 69.050 44.279, 65.563 48.051, 63.589 49.946 C 60.214 53.187, 58.941 56, 60.849 56 C 61.316 56, 66.577 50.713, 72.540 44.250 C 87.793 27.718, 87.493 28.088, 86.437 27.074 C 85.872 26.532, 81.136 29.344, 74.500 34.163 C 68.450 38.557, 57.081 46.452, 49.236 51.708 C 39.889 57.969, 34.818 61.994, 34.525 63.382 C 33.795 66.842, 28.019 111.353, 28.269 111.586 C 28.396 111.703, 36.375 112.976, 46 114.413 C 75.117 118.762, 79.084 119.467, 79.099 120.296 C 79.127 121.846, 46.001 161.830, 42.279 164.740 C 40.201 166.365, 32.939 171.405, 26.142 175.939 C 17.981 181.384, 14.121 184.521, 14.775 185.175 C 15.429 185.829, 24.130 183.529, 40.392 178.402 L 65.019 170.639 80.507 152.444 C 89.026 142.436, 96.631 133.721, 97.407 133.077 C 98.497 132.173, 100.333 132.309, 105.464 133.677 L 112.109 135.447 126.199 158.724 C 133.948 171.526, 140.782 182, 141.385 182 C 143.643 182, 185.988 164.592, 185.260 163.963 C 184.842 163.603, 177.242 159.913, 168.371 155.765 C 155.352 149.677, 148.254 145.469, 131.553 133.940 C 118.247 124.755, 111.333 119.409, 112.181 118.964 C 112.906 118.583, 121.375 117.504, 131 116.566 C 147.352 114.972, 149.764 114.458, 167.759 108.725 C 178.351 105.350, 186.451 102.281, 185.759 101.904 C 185.067 101.527, 178.200 99.528, 170.500 97.464 C 162.800 95.399, 156.423 93.660, 156.329 93.600 C 156.235 93.541, 157.411 83.144, 158.942 70.496 C 160.473 57.848, 161.578 47.328, 161.398 47.118 C 161.217 46.908, 152.892 47.247, 142.897 47.870 C 122.903 49.117, 124.125 49.387, 120.817 43 C 118.769 39.045, 105.105 18, 104.586 18 C 104.329 18, 103.883 18.380, 103.596 18.845 M 72.056 77.434 C 68.512 81.015, 65.812 84.117, 66.056 84.326 C 67.132 85.248, 81.160 90.174, 81.563 89.771 C 81.809 89.524, 81.221 85.182, 80.255 80.123 L 78.500 70.923 72.056 77.434" stroke="none" fill="black" fill-rule="evenodd"/>
</svg>