<svg xmlns="http://www.w3.org/2000/svg" width="200" height="200" viewBox="0 0 200 200" version="1.1">
	<path d="M 114.537 19.167 C 114.282 19.900, 112.915 25.225, 111.500 31 C 110.085 36.775, 108.712 42.115, 108.450 42.868 C 108.138 43.761, 106.840 42.760, 104.707 39.982 C 101.911 36.340, 99.299 34.739, 86.535 28.850 C 76.926 24.416, 71.284 22.316, 70.660 22.940 C 70.036 23.564, 74.278 26.046, 82.596 29.926 C 100.439 38.247, 99.971 37.954, 103.737 43.197 C 106.605 47.190, 107.011 48.426, 106.444 51.447 C 106.077 53.401, 105.460 55, 105.073 55 C 104.685 55, 103.061 52.265, 101.463 48.922 C 99.865 45.580, 98.237 42.646, 97.844 42.403 C 97.451 42.160, 93.177 44.511, 88.346 47.628 C 78.272 54.126, 78.055 53.740, 93.322 56.461 C 98.724 57.423, 103.334 58.726, 103.566 59.355 C 103.799 59.985, 100.895 72.733, 97.113 87.684 L 90.238 114.867 106.489 125.903 L 122.740 136.938 127.897 123.388 L 133.054 109.838 130.027 104.548 C 128.362 101.637, 127 98.974, 127 98.628 C 127 98.283, 131.882 98, 137.849 98 L 148.697 98 162.499 104.590 L 176.301 111.179 157.401 130.168 L 138.500 149.156 117.500 159.754 L 96.500 170.352 68.500 176.643 C 42.814 182.415, 40.397 182.798, 39.250 181.276 C 37.413 178.839, 37.662 178.314, 41.250 177.060 C 43.038 176.435, 55.750 172.053, 69.500 167.321 C 83.250 162.590, 94.907 158.352, 95.405 157.904 C 95.926 157.435, 93.221 150.390, 89.027 141.295 C 85.022 132.608, 81.636 125.372, 81.504 125.215 C 81.315 124.991, 46.210 135.907, 38.285 138.655 C 37.303 138.995, 44.600 133.518, 54.500 126.484 C 64.400 119.450, 72.702 113.525, 72.948 113.316 C 73.507 112.844, 67.864 102.168, 66.500 101.117 C 65.950 100.693, 57.873 101.604, 48.552 103.141 C 39.230 104.679, 31.495 105.828, 31.362 105.695 C 31.229 105.562, 40.811 101.864, 52.655 97.477 C 64.499 93.091, 74.341 89.257, 74.526 88.959 C 75.046 88.116, 68.868 60.614, 67.929 59.598 C 67.201 58.810, 59.914 60.606, 35.750 67.531 C 33.138 68.280, 31 68.749, 31 68.575 C 31 68.400, 39.794 61.828, 50.541 53.970 C 63.036 44.834, 69.736 39.336, 69.122 38.722 C 68.507 38.107, 62.092 42.198, 51.330 50.066 C 22.209 71.357, 21.550 71.890, 23.469 72.626 C 24.420 72.992, 33.618 70.942, 44.035 68.043 C 54.399 65.158, 63.656 62.731, 64.605 62.649 C 66.026 62.526, 66.807 64.682, 69.022 74.847 L 71.712 87.194 67.606 88.914 C 65.348 89.860, 52.591 94.653, 39.257 99.567 C 25.337 104.696, 15.011 109.032, 15.007 109.750 C 15.003 110.438, 15.713 111, 16.584 111 C 18.178 111, 58.627 104.413, 62.666 103.496 C 64.412 103.099, 65.321 103.880, 67.361 107.530 L 69.891 112.057 64.061 116.278 C 60.855 118.600, 51.446 125.225, 43.153 131 C 29.628 140.418, 25.760 144, 29.114 144 C 29.727 144, 41.089 140.571, 54.364 136.380 C 67.639 132.189, 78.853 128.701, 79.284 128.630 C 79.716 128.558, 82.940 134.697, 86.450 142.272 L 92.831 156.044 89.665 157.341 C 87.924 158.055, 74.800 162.620, 60.500 167.487 C 46.200 172.353, 34.382 176.415, 34.238 176.513 C 33.829 176.791, 38.034 186, 38.571 186 C 38.833 186, 52.021 183.110, 67.876 179.579 L 96.704 173.157 118.102 162.495 L 139.500 151.834 159.750 131.676 C 170.887 120.589, 180 111.167, 180 110.737 C 180 110.307, 172.960 106.590, 164.355 102.478 L 148.709 95 137.021 95 C 130.593 95, 125.077 94.744, 124.764 94.431 C 124.451 94.118, 126.430 89.055, 129.162 83.181 L 134.129 72.500 152.798 53.756 L 171.468 35.012 152.484 35.525 C 142.043 35.808, 130.029 36.240, 125.787 36.485 L 118.074 36.932 117.787 27.797 C 117.592 21.594, 117.099 18.529, 116.251 18.248 C 115.563 18.020, 114.792 18.434, 114.537 19.167 M 112.328 38.482 L 110.156 47.465 114.677 53.800 C 117.163 57.285, 119.001 60.332, 118.761 60.573 C 118.520 60.813, 115.928 60.555, 113 60 C 110.072 59.445, 107.483 59.183, 107.248 59.419 C 107.012 59.655, 110.434 66.733, 114.851 75.150 L 122.884 90.452 126.989 81.476 C 130.903 72.917, 131.889 71.702, 148.231 55.305 L 165.368 38.110 140.245 38.711 L 115.122 39.311 114.811 34.406 L 114.500 29.500 112.328 38.482 M 91.257 48.766 C 88.924 50.270, 87.011 51.746, 87.007 52.047 C 86.999 52.674, 100.256 55.077, 100.789 54.545 C 101.332 54.001, 97.054 45.998, 96.230 46.016 C 95.828 46.025, 93.591 47.262, 91.257 48.766 M 108.662 53.184 C 107.943 55.934, 108.613 57, 111.059 57 C 113.479 57, 113.487 56.435, 111.114 53.418 L 109.228 51.020 108.662 53.184 M 105.598 66 C 105.304 66.825, 102.394 77.927, 99.130 90.672 L 93.194 113.843 107.112 123.074 C 114.766 128.151, 121.210 132.124, 121.431 131.902 C 121.652 131.681, 123.663 126.779, 125.901 121.009 L 129.969 110.519 126.734 104.263 C 124.558 100.053, 122.902 98.006, 121.671 98.004 C 120.203 98.001, 119.954 97.455, 120.412 95.250 C 120.858 93.106, 119.347 89.415, 113.557 78.500 C 109.101 70.100, 105.917 65.100, 105.598 66" stroke="none" fill="black" fill-rule="evenodd"/>
</svg>