<svg xmlns="http://www.w3.org/2000/svg" width="200" height="200" viewBox="0 0 200 200" version="1.1">
	<path d="M 43.367 8.250 L 42.451 12.500 35.225 12.203 C 29.537 11.968, 28 12.205, 28 13.314 C 28 14.310, 29.778 14.883, 34.079 15.273 C 37.422 15.577, 40.380 16.047, 40.652 16.318 C 40.923 16.590, 39.119 24.842, 36.641 34.656 C 29.334 63.606, 17.365 134.872, 19.581 136.237 C 20.239 136.643, 26.790 139.058, 34.139 141.604 C 41.487 144.151, 47.661 146.379, 47.857 146.557 C 48.138 146.812, 26.300 174.007, 19.176 182.274 C 18.165 183.447, 17.983 184.383, 18.640 185.040 C 19.296 185.696, 28.917 181.021, 47.066 171.226 C 62.155 163.083, 77.558 155.124, 81.296 153.541 C 85.033 151.957, 88.263 150.384, 88.472 150.045 C 88.682 149.705, 89.809 135.044, 90.976 117.464 L 93.099 85.500 86.550 73.373 C 82.947 66.703, 80 60.809, 80 60.275 C 80 59.741, 85.372 58.416, 91.937 57.332 L 103.875 55.360 101.374 58.332 C 99.132 60.997, 98.929 61.934, 99.410 67.402 C 99.705 70.756, 100.226 85.425, 100.568 100 C 101.166 125.554, 104.265 182.598, 105.099 183.432 C 105.323 183.656, 115.468 178.266, 127.644 171.454 L 149.781 159.070 164.641 165.513 L 179.500 171.956 180.097 139.228 C 180.682 107.175, 179.917 36.521, 178.976 35.707 C 178.714 35.480, 174.331 32.513, 169.237 29.113 L 159.973 22.930 104.737 18.410 C 74.356 15.925, 48.462 13.675, 47.193 13.412 C 45.578 13.077, 45.039 12.419, 45.396 11.217 C 47.112 5.434, 47.182 4, 45.750 4 C 44.836 4, 43.939 5.599, 43.367 8.250 M 39.549 34.754 C 36.965 45.065, 33.975 58.225, 32.904 64 C 30.095 79.148, 21.999 129.976, 22.006 132.425 C 22.010 134.204, 24.225 135.266, 37.548 139.874 C 51.571 144.725, 52.949 145.407, 51.695 146.874 C 49.854 149.028, 26.995 177.098, 25.593 178.927 C 24.992 179.711, 27.425 178.743, 31 176.776 C 52.356 165.021, 75.269 153.016, 80.153 151.021 L 85.805 148.713 86.370 143.606 C 86.681 140.798, 87.687 126.740, 88.605 112.366 L 90.275 86.232 83.355 73.366 C 77.208 61.939, 76.166 60.530, 74.029 60.772 C 72.706 60.921, 71.527 61.146, 71.408 61.272 C 71.290 61.397, 69.725 72.750, 67.931 86.500 C 66.137 100.250, 64.364 111.857, 63.991 112.293 C 63.177 113.247, 50 88.438, 50 85.951 C 50 84.994, 52.925 69.958, 56.500 52.538 C 60.075 35.119, 63 20.230, 63 19.452 C 63 17.804, 61.089 17.330, 51.373 16.568 L 44.246 16.009 39.549 34.754 M 65.456 20.750 C 66.622 25.518, 76.078 54.507, 76.901 55.840 C 77.526 56.851, 80.767 56.570, 92.594 54.480 C 100.792 53.032, 107.759 51.544, 108.076 51.173 C 108.393 50.803, 112.403 46.225, 116.987 41 C 121.572 35.775, 125.472 31.315, 125.655 31.090 C 125.837 30.864, 132.451 33.564, 140.353 37.090 L 154.719 43.500 155.354 53 C 155.704 58.225, 155.987 73.525, 155.984 87 L 155.978 111.500 146.739 135.417 C 141.658 148.572, 136.938 159.522, 136.250 159.751 C 134.591 160.303, 134.629 154.799, 136.508 123 L 138.014 97.500 144.929 72.506 C 148.733 58.759, 151.719 47.386, 151.567 47.234 C 151.414 47.081, 141.887 48.587, 130.395 50.581 C 109.620 54.185, 109.478 54.227, 105.760 57.857 L 102.021 61.509 103.004 93.504 C 103.933 123.732, 106.831 178.077, 107.555 178.861 C 107.739 179.060, 117.294 174, 128.788 167.618 L 149.688 156.013 163.515 162.006 C 171.119 165.303, 177.490 168, 177.671 168 C 178.192 168, 177.780 91.136, 177.109 63 L 176.500 37.500 167.794 31.599 L 159.088 25.699 114.294 21.888 C 89.657 19.792, 68.439 18.060, 67.142 18.039 C 65.067 18.005, 64.864 18.331, 65.456 20.750 M 58.699 55.720 C 55.564 71.075, 53 84.404, 53 85.339 C 53 87.479, 62.201 105.858, 62.592 104.500 C 62.750 103.950, 64.044 94.500, 65.467 83.500 C 68.895 57.002, 68.604 58.178, 71.817 57.808 L 74.500 57.500 69.449 42.651 L 64.398 27.801 58.699 55.720 M 119.336 42.287 C 115.396 46.804, 112.272 50.601, 112.394 50.724 C 112.516 50.848, 120.914 49.445, 131.058 47.607 L 149.500 44.266 146 42.723 C 144.075 41.874, 138.956 39.564, 134.625 37.590 C 130.294 35.615, 126.694 34.017, 126.625 34.037 C 126.556 34.058, 123.276 37.771, 119.336 42.287 M 146.605 77 L 140.710 98.500 139.339 122.500 C 138.585 135.700, 138.088 147.143, 138.234 147.930 C 138.381 148.716, 141.928 140.166, 146.118 128.930 L 153.737 108.500 153.118 82 L 152.500 55.500 146.605 77" stroke="none" fill="black" fill-rule="evenodd"/>
</svg>