<svg xmlns="http://www.w3.org/2000/svg" width="200" height="200" viewBox="0 0 200 200" version="1.1">
	<path d="M 71.275 35.356 C 66.788 49.397, 64.893 53.668, 57.857 65.603 C 53.350 73.246, 44.955 85.493, 39.200 92.818 C 32.548 101.285, 29.084 106.484, 29.692 107.092 C 31.252 108.652, 50.704 83.020, 60.115 67 C 67.341 54.702, 69.374 50.185, 73.505 37.250 L 78.376 22 90.242 22 L 102.107 22 101.481 32.750 L 100.855 43.500 106.516 47.489 C 113.382 52.327, 114.185 53.419, 110.242 52.553 C 107.686 51.992, 104.749 53.288, 90.662 61.196 C 81.547 66.313, 74.069 70.725, 74.045 71 C 74.021 71.275, 77.813 74.575, 82.472 78.333 C 87.891 82.705, 94.595 89.663, 101.078 97.644 C 106.652 104.507, 111.026 110.308, 110.798 110.535 C 110.445 110.888, 89.939 114, 87.967 114 C 87.591 114, 83.122 107.453, 78.037 99.451 C 72.952 91.450, 68.425 85.037, 67.977 85.201 C 67.529 85.366, 61.139 90.383, 53.778 96.351 C 45.032 103.441, 38.160 108.164, 33.947 109.977 C 17.769 116.942, 15.654 118.054, 16.660 119.060 C 17.344 119.744, 21.616 118.354, 29.824 114.776 C 40.418 110.158, 43.580 108.167, 54.497 99.239 C 61.384 93.608, 67.352 89.017, 67.760 89.038 C 68.167 89.058, 72.312 95.168, 76.970 102.615 C 81.629 110.062, 85.756 116.349, 86.140 116.587 C 86.525 116.825, 91.676 116.340, 97.588 115.511 C 103.499 114.681, 108.532 114.199, 108.774 114.440 C 109.015 114.681, 104.152 120.615, 97.968 127.625 C 81.349 146.465, 67.513 157.474, 44.527 170.146 L 25.845 180.445 32.172 182.569 L 38.500 184.692 52 179.946 C 59.425 177.335, 67.750 174.338, 70.500 173.286 C 80.093 169.614, 103.125 155.038, 115.645 144.714 C 125.966 136.204, 129.845 132.153, 138.891 120.434 C 152.325 103.031, 165.051 80.594, 171.616 62.738 C 174.197 55.718, 176.127 49.839, 175.904 49.672 C 175.682 49.506, 169.732 46.979, 162.683 44.056 L 149.865 38.743 134.539 45.372 C 126.110 49.017, 118.782 52, 118.256 52 C 117.729 52, 114.242 49.686, 110.507 46.859 L 103.715 41.717 104.281 30.993 L 104.847 20.269 98.777 19.634 C 95.438 19.286, 89.060 19.001, 84.603 19.003 L 76.500 19.006 71.275 35.356 M 135.500 47.796 C 128.350 50.912, 123.175 53.556, 124 53.672 C 124.825 53.787, 128.988 54.172, 133.250 54.526 C 138.119 54.931, 140.997 55.604, 140.993 56.335 C 140.967 60.373, 128.322 89.029, 122.145 99.049 C 116.919 107.526, 115.393 110.769, 116.183 111.721 C 116.982 112.683, 116.778 113, 115.363 113 C 114.328 113, 112.938 113.869, 112.275 114.932 C 111.611 115.995, 106.020 122.587, 99.850 129.581 C 83.958 147.597, 68.364 160.191, 48.565 171 C 33.282 179.344, 33.047 179.522, 35.827 180.683 C 38.357 181.740, 40.543 181.190, 56.307 175.528 C 78.323 167.620, 96.395 157.242, 114.628 142.037 C 124.607 133.716, 128.608 129.493, 137.207 118.212 C 149.867 101.603, 161.552 81.186, 168.104 64.230 C 170.781 57.304, 172.851 51.518, 172.705 51.372 C 171.971 50.637, 150.551 42.009, 149.602 42.065 C 148.996 42.101, 142.650 44.680, 135.500 47.796 M 93.302 62.790 C 86.043 67.031, 79.815 70.803, 79.463 71.173 C 79.110 71.543, 81.975 74.421, 85.829 77.570 C 89.682 80.718, 97.417 88.883, 103.017 95.714 C 108.617 102.545, 113.327 107.992, 113.484 107.817 C 113.640 107.643, 116.671 102.775, 120.219 97 C 127.361 85.376, 138.714 58.146, 136.680 57.521 C 136.031 57.321, 131.450 56.886, 126.500 56.553 C 121.550 56.221, 115.025 55.753, 112 55.515 C 106.645 55.092, 106.151 55.285, 93.302 62.790" stroke="none" fill="black" fill-rule="evenodd"/>
</svg>