<svg xmlns="http://www.w3.org/2000/svg" width="200" height="200" viewBox="0 0 200 200" version="1.1">
	<path d="M 101.559 28.022 C 90.063 42.264, 80.060 54.147, 79.329 54.427 C 78.598 54.708, 77.985 55.514, 77.967 56.219 C 77.948 56.923, 77.049 58.562, 75.967 59.860 L 74.001 62.220 67.401 59.890 L 60.800 57.560 61.381 49.530 C 61.700 45.113, 62.258 34.526, 62.621 26.003 L 63.280 10.507 48.982 24.003 C 41.117 31.426, 32.327 39.750, 29.447 42.500 L 24.211 47.500 23.724 67 C 23.270 85.171, 23.468 88.169, 26.619 111 C 29.794 134.008, 29.939 136.255, 29 147.895 C 28.450 154.713, 28 162.250, 28 164.645 L 28 169 42.750 168.966 C 57.618 168.931, 93.909 167.431, 94.500 166.826 C 94.674 166.647, 91.266 152.100, 86.925 134.500 C 82.584 116.900, 79.025 101.783, 79.016 100.907 C 79.004 99.707, 82.397 98.375, 92.750 95.516 C 105.165 92.087, 108.103 91.655, 123 91.069 C 132.075 90.712, 139.634 90.497, 139.798 90.591 C 139.962 90.686, 140.365 93.966, 140.693 97.882 C 141.119 102.963, 140.958 105, 140.128 105 C 139.490 105, 133.286 104.089, 126.342 102.975 C 119.398 101.861, 113.561 101.105, 113.371 101.296 C 113.073 101.594, 102.718 128.424, 95.485 147.636 L 93.176 153.771 108.024 164.386 C 117.361 171.060, 123.798 175, 125.365 175 C 126.736 175, 128.528 175.671, 129.348 176.491 C 130.286 177.429, 131.890 177.787, 133.670 177.457 C 135.226 177.168, 144.806 178.503, 154.958 180.425 C 165.110 182.346, 173.496 183.824, 173.593 183.709 C 173.691 183.594, 174.947 170, 176.384 153.500 C 177.821 137, 179.220 121.700, 179.494 119.500 C 179.979 115.611, 179.719 115.196, 170.139 104.550 C 161.922 95.420, 159.472 93.314, 155.393 91.878 L 150.500 90.155 156.110 90.078 C 159.196 90.035, 163.741 89.723, 166.209 89.385 L 170.698 88.770 172.940 71.309 C 174.173 61.706, 175.028 53.703, 174.841 53.524 C 174.653 53.346, 167.075 57.594, 158 62.964 C 148.925 68.334, 141.400 72.652, 141.278 72.559 C 141.155 72.465, 140.128 67.464, 138.995 61.444 C 135.070 40.599, 134.914 40, 133.410 40 C 132.428 40, 132.122 40.723, 132.459 42.250 C 133.376 46.395, 139.046 85.288, 138.771 85.546 C 138.340 85.951, 77.029 63.555, 77.049 63 C 77.058 62.725, 77.916 61.482, 78.954 60.237 L 80.842 57.974 96.171 63.922 C 109.701 69.171, 111.583 69.672, 112.205 68.185 C 113.059 66.145, 123.232 2.899, 122.779 2.446 C 122.604 2.271, 113.055 13.780, 101.559 28.022 M 102 31.663 C 92.925 42.879, 84.914 52.896, 84.197 53.924 C 82.983 55.664, 83.798 56.144, 96.088 60.922 C 103.345 63.743, 109.475 65.858, 109.712 65.622 C 110.160 65.173, 119.025 11.653, 118.691 11.410 C 118.586 11.334, 111.075 20.448, 102 31.663 M 43.401 32.951 L 27.302 48.014 26.651 67.757 C 26.031 86.569, 26.158 88.631, 29.330 111.500 C 32.533 134.588, 32.622 136.079, 31.664 150.751 C 31.117 159.139, 30.857 166.191, 31.087 166.421 C 31.590 166.923, 90.315 164.898, 90.927 164.357 C 91.161 164.150, 87.831 149.704, 83.526 132.255 C 79.222 114.807, 75.655 99.868, 75.600 99.057 C 75.528 98.004, 79.344 96.466, 89 93.657 C 100.597 90.284, 104.799 89.573, 118.808 88.615 L 135.116 87.500 105.675 76.750 C 89.482 70.838, 75.798 66, 75.266 66 C 74.734 66, 72.365 68.424, 70.001 71.386 C 66.419 75.875, 64.351 80.564, 57.575 99.561 C 53.104 112.096, 48.896 122.535, 48.223 122.759 C 47.336 123.055, 47.009 121.287, 47.034 116.333 C 47.091 104.693, 49.742 54.925, 50.336 54.331 C 50.645 54.022, 52.344 54.273, 54.111 54.889 C 55.878 55.505, 57.570 55.764, 57.870 55.464 C 58.504 54.829, 60.194 23.615, 59.780 20.193 C 59.538 18.201, 57.303 19.942, 43.401 32.951 M 51.128 84.120 C 50.456 98.486, 50.066 110.399, 50.260 110.594 C 50.455 110.788, 53.455 102.972, 56.927 93.224 C 61.984 79.025, 64.104 74.410, 67.586 70.019 L 71.931 64.537 67.716 62.824 C 61.572 60.329, 61.002 60.492, 60.986 64.750 C 60.969 69.397, 60.051 73, 58.883 73 C 58.398 73, 58 69.898, 58 66.107 C 58 60.744, 57.649 59.079, 56.418 58.607 C 52.415 57.071, 52.385 57.216, 51.128 84.120 M 156.500 66.991 C 140.359 76.482, 139.907 77.003, 141.723 84.011 L 142.558 87.234 155 87.062 C 161.844 86.968, 167.615 86.719, 167.825 86.509 C 168.184 86.149, 171.885 58.690, 171.622 58.335 C 171.555 58.244, 164.750 62.139, 156.500 66.991 M 143.358 94.750 C 143.699 96.813, 143.983 100.142, 143.989 102.148 L 144 105.797 156 107.623 C 162.600 108.628, 167.993 109.686, 167.984 109.975 C 167.976 110.264, 160.597 124.675, 151.587 142 C 142.577 159.325, 135.323 173.627, 135.467 173.781 C 135.612 173.936, 143.660 175.541, 153.354 177.349 L 170.978 180.634 171.463 177.567 C 171.730 175.880, 172.863 163.700, 173.979 150.500 C 175.096 137.300, 176.273 124.231, 176.594 121.459 L 177.178 116.417 168.125 106.356 C 159.611 96.893, 158.639 96.136, 151.786 93.642 C 147.779 92.184, 144.104 90.993, 143.619 90.995 C 143.135 90.998, 143.017 92.688, 143.358 94.750 M 114.512 105.750 C 109.278 118.789, 97.011 151.546, 97.046 152.388 C 97.122 154.234, 121.993 171.211, 126.177 172.273 C 128.319 172.817, 130.272 173.062, 130.516 172.817 C 131.241 172.092, 140.307 108.974, 139.764 108.431 C 139.346 108.013, 117.808 104.027, 115.857 104.007 C 115.503 104.003, 114.898 104.787, 114.512 105.750 M 142.974 109.440 C 142.959 110.023, 140.996 123.550, 138.611 139.500 C 136.225 155.450, 134.328 168.579, 134.395 168.675 C 134.615 168.992, 162.896 114.323, 163.201 112.991 C 163.414 112.065, 160.540 111.212, 153.250 110.035 C 146.392 108.927, 142.991 108.731, 142.974 109.440" stroke="none" fill="black" fill-rule="evenodd"/>
</svg>