<svg xmlns="http://www.w3.org/2000/svg" width="200" height="200" viewBox="0 0 200 200" version="1.1">
	<path d="M 46.727 37.932 C 32.552 43.861, 20.737 48.929, 20.472 49.194 C 20.207 49.459, 28.093 53.584, 37.995 58.360 C 47.898 63.137, 56 67.298, 56 67.607 C 56 67.916, 46.319 79.464, 34.486 93.270 C 21.141 108.840, 13.327 118.727, 13.907 119.307 C 14.486 119.886, 26.358 112.296, 45.171 99.316 C 75.311 78.521, 75.582 78.362, 88.667 73.775 L 101.835 69.159 103.487 76.830 C 104.395 81.048, 105.363 85.287, 105.637 86.250 C 106.282 88.516, 105.995 88.499, 90.230 85.354 C 77.840 82.883, 74.304 82.771, 76.567 84.920 C 77.080 85.408, 84.295 87.933, 92.601 90.531 L 107.701 95.256 108.898 101.748 C 109.556 105.318, 109.960 108.345, 109.797 108.474 C 109.634 108.603, 96.225 110.387, 80 112.439 C 49.790 116.258, 44.730 117.553, 50.225 120.057 L 52.775 121.218 49.054 127.859 C 38.682 146.369, 24.643 175.039, 25.532 175.892 C 26.139 176.474, 34.149 171.237, 47 161.856 C 58.275 153.626, 68.355 146.414, 69.401 145.830 C 71.231 144.807, 71.277 145.137, 70.617 154.712 L 69.932 164.655 86.621 171.873 C 95.799 175.843, 103.633 178.733, 104.030 178.296 C 104.426 177.858, 107.994 167.713, 111.958 155.750 C 115.923 143.787, 119.395 134, 119.674 134 C 119.953 134, 129.928 141.715, 141.841 151.144 C 153.753 160.574, 164.082 168.745, 164.792 169.302 C 165.575 169.915, 166.446 169.954, 167.001 169.399 C 167.555 168.845, 160.813 159.117, 149.911 144.742 L 131.906 121 127.870 121 C 125.123 121, 123.944 120.600, 124.178 119.750 C 124.368 119.063, 132.119 114.753, 141.403 110.174 L 158.283 101.848 163.604 107.103 C 167.669 111.117, 169.065 111.995, 169.515 110.822 C 170.171 109.113, 159 80.472, 151.101 63.611 C 148.296 57.622, 146 52.408, 146 52.026 C 146 51.643, 150.613 49.261, 156.250 46.732 C 161.887 44.203, 169.613 40.739, 173.417 39.034 C 178.175 36.901, 180.011 35.611, 179.301 34.901 C 178.590 34.190, 174.762 35.437, 167.034 38.897 L 155.801 43.926 130.150 41.498 C 116.043 40.162, 102.408 38.819, 99.852 38.514 L 95.203 37.958 96.136 42.111 C 96.649 44.395, 96.846 46.487, 96.574 46.760 C 96.301 47.033, 91.268 42.698, 85.390 37.128 C 79.512 31.558, 74.207 27.034, 73.601 27.076 C 72.996 27.117, 60.902 32.003, 46.727 37.932 M 50.183 39.462 C 37.908 44.599, 27.616 49.050, 27.311 49.355 C 27.006 49.660, 34.237 53.497, 43.379 57.883 C 52.520 62.268, 59.994 66.225, 59.986 66.678 C 59.972 67.425, 53.756 74.887, 30.500 102.072 C 26.100 107.215, 23.175 111.009, 24 110.502 C 24.825 109.995, 36.327 102.090, 49.559 92.935 C 72.991 76.725, 73.970 76.166, 87.059 71.533 C 94.452 68.916, 100.634 66.655, 100.797 66.507 C 100.960 66.360, 100.550 63.290, 99.886 59.684 L 98.678 53.129 86.337 41.564 C 79.549 35.204, 73.659 30.028, 73.248 30.062 C 72.836 30.096, 62.457 34.326, 50.183 39.462 M 99.524 45.223 C 100.469 50.928, 100.996 51.788, 106.999 57.402 C 111.303 61.428, 112.609 62.128, 114.946 61.661 C 117.469 61.156, 119.727 62.944, 138.121 80.012 C 149.329 90.413, 159.063 98.940, 159.750 98.962 C 160.438 98.983, 161 99.659, 161 100.465 C 161 101.270, 161.900 102.411, 162.999 103 C 164.989 104.065, 164.990 104.049, 163.101 99.285 C 155.251 79.481, 152.497 72.960, 147.586 62.548 C 144.514 56.035, 142 50.544, 142 50.345 C 142 50.146, 143.819 49.256, 146.041 48.367 C 148.264 47.477, 149.938 46.605, 149.761 46.428 C 149.584 46.251, 139.778 45.184, 127.970 44.057 C 116.161 42.929, 104.771 41.769, 102.658 41.477 L 98.815 40.947 99.524 45.223 M 102.322 58.397 C 102.695 59.369, 103.007 60.689, 103.015 61.332 C 103.048 63.791, 104.757 65.212, 106.875 64.540 C 109.782 63.617, 109.577 62.960, 105.322 59.566 C 102.686 57.462, 101.836 57.131, 102.322 58.397 M 116.996 66.496 L 119.341 68.992 115.670 78.265 C 113.652 83.366, 112 88.041, 112 88.655 C 112 89.312, 119.926 91.276, 131.250 93.425 C 141.838 95.434, 151.175 97.307, 152 97.586 C 153.747 98.178, 151.587 96.041, 131.849 77.651 C 123.791 70.143, 116.625 64, 115.924 64 C 115.180 64, 115.625 65.036, 116.996 66.496 M 107.250 67.220 C 106.013 67.817, 105.026 69.024, 105.057 69.903 C 105.188 73.552, 108.674 87.337, 109.236 86.428 C 109.571 85.885, 111.248 81.910, 112.963 77.594 C 115.909 70.176, 115.987 69.644, 114.385 67.873 C 112.495 65.784, 110.590 65.610, 107.250 67.220 M 110 93.078 C 110 95.556, 113.229 108, 113.872 108 C 114.263 108, 119.739 107.340, 126.042 106.533 C 132.344 105.726, 139.868 104.875, 142.761 104.641 C 145.655 104.407, 149.255 103.398, 150.761 102.399 L 153.500 100.582 134.500 96.863 C 124.050 94.818, 114.263 92.898, 112.750 92.597 C 111.179 92.285, 110 92.491, 110 93.078 M 132.500 108.507 C 131.950 108.698, 127.563 109.384, 122.750 110.031 C 117.513 110.735, 114.002 111.667, 114.006 112.353 C 114.009 112.984, 114.480 115.188, 115.053 117.250 C 115.892 120.271, 116.567 121, 118.528 121 C 120.236 121, 121.135 120.312, 121.541 118.692 C 121.957 117.033, 124.422 115.223, 130.310 112.251 C 135.967 109.396, 137.727 108.124, 136 108.138 C 134.625 108.149, 133.050 108.315, 132.500 108.507 M 91 114.366 L 76.500 116.500 76.169 119.402 L 75.838 122.304 82.669 121.659 C 86.426 121.304, 94.818 121.011, 101.317 121.007 C 112.084 121.001, 113.093 120.844, 112.660 119.250 C 112.399 118.287, 111.910 116.263, 111.574 114.750 C 110.835 111.429, 110.943 111.431, 91 114.366 M 58.530 118.892 L 54.560 119.500 57.327 120.750 C 58.849 121.438, 62.998 122, 66.547 122 C 72.333 122, 73 121.793, 73 120 C 73 118.236, 72.381 118.017, 67.750 118.142 C 64.862 118.220, 60.713 118.557, 58.530 118.892 M 47.686 136.250 C 34.102 162.148, 30.141 170.119, 31.008 169.815 C 31.502 169.642, 40.922 162.975, 51.942 155 L 71.978 140.500 71.989 136.284 C 72 132.084, 71.973 132.053, 64.750 128.047 C 60.763 125.836, 56.738 124.020, 55.806 124.013 C 54.650 124.004, 52.069 127.894, 47.686 136.250 M 65 124.418 C 65 124.947, 71.518 129, 72.368 129 C 72.716 129, 73 127.875, 73 126.500 C 73 124.250, 72.600 124, 69 124 C 66.800 124, 65 124.188, 65 124.418 M 75.630 126.250 C 74.564 130.229, 74.925 130.921, 79.205 133.105 C 83.896 135.498, 84.155 134.736, 76.686 140.500 C 74.235 142.391, 74.078 143.061, 73.797 152.823 L 73.500 163.146 87 169.048 C 94.425 172.295, 100.950 174.959, 101.500 174.968 C 102.050 174.978, 105.805 165.338, 109.845 153.547 C 116.805 133.234, 117.106 131.990, 115.595 129.832 C 114.718 128.580, 114 126.755, 114 125.777 C 114 124.137, 112.545 124, 95.117 124 C 76.379 124, 76.229 124.017, 75.630 126.250 M 117 126 C 117 127.100, 117.398 128, 117.883 128 C 118.369 128, 119.002 127.100, 119.290 126 C 119.630 124.700, 119.320 124, 118.406 124 C 117.633 124, 117 124.900, 117 126 M 121.305 127.358 L 120.274 130.716 137.808 144.608 C 147.452 152.249, 156 158.894, 156.805 159.375 C 157.609 159.855, 152.102 152.093, 144.567 142.125 L 130.866 124 126.601 124 C 122.632 124, 122.264 124.233, 121.305 127.358 M 75 136.154 C 75 137.899, 75.248 138.039, 76.500 137 C 77.325 136.315, 78 135.633, 78 135.485 C 78 135.336, 77.325 134.955, 76.500 134.638 C 75.461 134.240, 75 134.706, 75 136.154" stroke="none" fill="black" fill-rule="evenodd"/>
</svg>