<svg xmlns="http://www.w3.org/2000/svg" width="200" height="200" viewBox="0 0 200 200" version="1.1">
	<path d="M 129.500 29.651 L 112.500 34.119 89.500 33.310 C 76.850 32.864, 56.233 32.629, 43.684 32.787 C 23.055 33.046, 20.898 33.233, 21.187 34.734 C 21.419 35.937, 24.122 37.015, 31.003 38.651 C 41.457 41.137, 45 41.490, 45 40.047 C 45 39.098, 39.309 37.173, 35.500 36.833 C 34.400 36.735, 38.671 36.395, 44.992 36.077 L 56.484 35.500 62.492 39.505 C 65.796 41.708, 71.537 45.404, 75.250 47.719 C 79.590 50.425, 82 52.581, 82 53.757 C 82 55.978, 78.180 84.565, 77.449 87.818 L 76.928 90.136 51.964 89.420 C 29.154 88.766, 27 88.846, 27 90.352 C 27 91.695, 28.083 92, 32.843 92 C 36.057 92, 44.087 92.290, 50.688 92.645 L 62.690 93.291 68.845 103.555 C 72.230 109.201, 75 114.250, 75 114.776 C 75 115.302, 69.938 124.325, 63.750 134.828 L 52.500 153.924 35 166.064 C 14.601 180.215, 16.385 178.785, 17.608 180.008 C 18.240 180.640, 23.130 180.177, 31.541 178.690 L 44.500 176.397 64.535 163.233 L 84.569 150.068 95.035 131.562 C 100.791 121.384, 105.725 113.046, 106 113.034 C 106.801 113, 109.562 118.035, 122.687 143.478 C 129.490 156.666, 135.381 167.780, 135.778 168.174 C 137.144 169.533, 168.435 178.965, 169.148 178.233 C 169.541 177.830, 171.862 171.979, 174.306 165.232 C 177.389 156.723, 178.406 152.745, 177.625 152.248 C 177.006 151.854, 167.887 147.700, 157.360 143.016 L 138.219 134.500 124.500 117.693 C 116.954 108.449, 111.082 100.585, 111.451 100.216 C 111.820 99.847, 126.832 96.795, 144.811 93.435 C 185.123 85.900, 185.868 85.358, 160.286 82.176 L 142.500 79.964 126.635 83.033 C 117.909 84.722, 110.641 85.967, 110.483 85.802 C 110.325 85.636, 110.578 77.625, 111.045 68 C 111.513 58.375, 111.919 48.109, 111.948 45.186 L 112 39.873 132.250 40.536 L 152.500 41.199 165.250 35.052 C 172.262 31.670, 178 28.319, 178 27.604 C 178 26.659, 175.086 26.126, 167.344 25.652 C 150.408 24.616, 147.475 24.926, 129.500 29.651 M 129.500 32.347 L 113.500 36.500 119.500 37.162 C 122.800 37.526, 131.575 37.933, 139 38.067 L 152.500 38.309 161.221 33.946 C 166.775 31.167, 169.499 29.301, 168.721 28.807 C 168.050 28.380, 162.550 28.067, 156.500 28.112 C 146.996 28.183, 143.325 28.759, 129.500 32.347 M 66 38.482 C 69.025 40.469, 74.537 43.977, 78.250 46.277 C 82.178 48.711, 85 51.152, 85 52.114 C 85 55.253, 79.904 91.346, 79.330 92.275 C 78.999 92.811, 76.045 92.917, 72.377 92.524 C 68.870 92.148, 66.001 92.214, 66.002 92.670 C 66.002 93.127, 68.871 98.274, 72.377 104.108 L 78.751 114.717 66.777 135.142 L 54.804 155.566 39.913 165.961 C 31.723 171.678, 25.159 176.492, 25.326 176.660 C 25.494 176.827, 29.651 176.274, 34.565 175.430 C 43.496 173.897, 43.509 173.890, 63.058 160.926 L 82.615 147.956 94.012 127.978 C 100.281 116.990, 105.662 108, 105.971 108 C 107.019 108, 113.430 119.431, 125.562 142.932 L 137.659 166.364 151.080 170.660 C 158.461 173.022, 165.238 174.966, 166.139 174.978 C 167.310 174.994, 168.826 172.145, 171.450 165.003 C 173.470 159.505, 174.905 154.656, 174.640 154.227 C 174.375 153.798, 165.685 149.699, 155.329 145.118 L 136.500 136.790 120.879 117.645 C 112.287 107.115, 105.367 98.370, 105.501 98.211 C 105.635 98.052, 119.639 95.310, 136.622 92.117 C 169.431 85.948, 169.165 86.086, 152.372 83.924 C 143.652 82.802, 142.455 82.897, 125.639 86.059 C 115.957 87.879, 107.875 89.173, 107.681 88.934 C 107.486 88.695, 107.815 76.966, 108.413 62.870 L 109.500 37.240 97 36.597 C 90.125 36.244, 79.100 35.710, 72.500 35.412 L 60.500 34.869 66 38.482" stroke="none" fill="black" fill-rule="evenodd"/>
</svg>