<svg xmlns="http://www.w3.org/2000/svg" width="200" height="200" viewBox="0 0 200 200" version="1.1">
	<path d="M 65 1.838 C 65 2.299, 67.391 5.307, 70.314 8.523 L 75.628 14.371 70.939 34.261 C 68.359 45.200, 65.856 54.522, 65.375 54.975 C 64.894 55.428, 56.046 57.586, 45.712 59.770 C 35.379 61.955, 26.672 63.995, 26.362 64.304 C 25.202 65.465, 27.218 67, 29.903 67 C 32.466 67, 54.075 79.916, 54.770 81.864 C 54.919 82.280, 48.991 92.943, 41.599 105.560 L 28.157 128.500 34.328 129.178 C 37.723 129.551, 48.375 130.610, 58 131.532 C 67.625 132.454, 79.325 133.724, 84 134.354 L 92.500 135.500 79.869 149 L 67.238 162.500 44.187 170.956 C 31.510 175.607, 21.308 179.689, 21.516 180.026 C 21.724 180.363, 25.192 181.460, 29.221 182.463 L 36.547 184.288 56.523 179.020 C 67.510 176.123, 78.300 173.208, 80.500 172.542 C 82.700 171.877, 91.205 166.532, 99.399 160.666 C 107.594 154.800, 114.569 150.006, 114.899 150.012 C 115.230 150.019, 122.430 156.544, 130.900 164.512 C 139.370 172.481, 146.754 179, 147.309 179 C 148.801 179, 176.381 170.769, 177.207 170.077 C 177.596 169.752, 169.895 161.956, 160.093 152.753 L 142.271 136.021 141.558 122.569 L 140.845 109.116 146.945 90.090 L 153.045 71.064 157.773 69.687 C 160.373 68.930, 168.012 66.821, 174.750 65 C 181.488 63.180, 187 61.401, 187 61.048 C 187 60.402, 156.481 50.708, 154.361 50.681 C 153.735 50.673, 146.337 53.290, 137.922 56.497 L 122.622 62.327 119.561 58.811 C 117.877 56.878, 113.006 51.458, 108.736 46.768 L 100.972 38.240 105.042 24.986 C 107.280 17.696, 108.837 11.017, 108.502 10.144 C 107.597 7.785, 106.631 9.711, 102.437 22.240 C 100.459 28.147, 98.466 33.212, 98.007 33.496 C 97.547 33.780, 90.496 26.621, 82.336 17.588 C 69.039 2.868, 65 -0.801, 65 1.838 M 73.096 36.946 C 70.673 47.360, 68.409 56.339, 68.063 56.897 C 67.718 57.456, 60.700 59.308, 52.468 61.013 C 44.236 62.718, 36.873 64.323, 36.108 64.579 C 35.315 64.845, 39.974 68.485, 46.931 73.036 L 59.148 81.025 57.197 84.263 C 51.534 93.664, 33.845 124.240, 33.402 125.394 C 33 126.443, 35.354 126.892, 44.194 127.452 C 50.412 127.846, 64.500 129.254, 75.500 130.581 C 86.500 131.907, 96.110 132.994, 96.856 132.996 C 98.265 133, 90.099 142.339, 75.810 157.064 L 67.500 165.628 48 172.557 L 28.500 179.486 32.811 180.398 C 36.581 181.195, 39.996 180.550, 59.993 175.259 L 82.862 169.208 98.288 158.152 C 106.772 152.071, 114.176 146.961, 114.740 146.798 C 115.304 146.634, 122.830 153.211, 131.465 161.413 L 147.163 176.326 156.672 173.579 C 161.902 172.069, 167.720 170.300, 169.601 169.649 L 173.022 168.464 156.600 153.154 L 140.178 137.843 139.611 132.171 C 139.299 129.052, 138.818 122.225, 138.541 117 L 138.039 107.500 144.770 88.019 L 151.500 68.538 164.174 65.019 C 171.145 63.084, 177.100 61.245, 177.408 60.933 C 177.715 60.621, 172.583 58.737, 166.003 56.745 L 154.039 53.124 148.270 55.428 C 145.096 56.695, 138.173 59.390, 132.885 61.417 L 123.270 65.102 122.025 74.301 C 121.057 81.449, 119.001 88.181, 112.800 104.500 C 108.411 116.050, 104.717 125.606, 104.591 125.736 C 104.095 126.246, 66.003 117.458, 66.001 116.833 C 66.001 116.467, 69.892 107.242, 74.648 96.333 C 79.404 85.425, 86.378 67.782, 90.145 57.128 L 96.994 37.755 87.887 27.878 C 82.878 22.445, 78.492 18.002, 78.140 18.005 C 77.788 18.008, 75.518 26.531, 73.096 36.946 M 99.667 42.667 C 98.088 44.246, 99.474 47.061, 106.277 56.089 L 113.502 65.678 116.849 64.551 L 120.196 63.424 110.483 52.712 C 105.141 46.820, 100.671 42, 100.551 42 C 100.432 42, 100.033 42.300, 99.667 42.667 M 91.457 61.750 C 88.815 69.313, 82.906 84.135, 78.326 94.689 C 73.747 105.243, 70 114.266, 70 114.742 C 70 115.545, 102.125 123.144, 102.811 122.502 C 102.983 122.342, 106.449 113.457, 110.515 102.758 C 117.111 85.400, 119.969 75.008, 119.992 68.301 C 120 66.161, 119.903 66.142, 116.368 67.619 C 114.371 68.454, 112.408 68.769, 112.006 68.318 C 111.605 67.868, 108.009 63.112, 104.016 57.750 C 100.023 52.388, 96.645 48, 96.509 48 C 96.373 48, 94.100 54.188, 91.457 61.750" stroke="none" fill="black" fill-rule="evenodd"/>
</svg>