<svg xmlns="http://www.w3.org/2000/svg" width="200" height="200" viewBox="0 0 200 200" version="1.1">
	<path d="M 76.633 8.086 C 76.285 9.826, 76 13.800, 76 16.918 L 76 22.585 63.138 26.421 L 50.276 30.256 47.970 43.166 C 46.702 50.267, 45.340 55.550, 44.943 54.908 C 44.546 54.265, 43.897 45.307, 43.500 35 C 42.825 17.458, 42.097 12.570, 40.410 14.257 C 39.715 14.952, 41.613 62.540, 42.583 68.750 C 42.862 70.537, 43.638 72, 44.306 72 C 45.097 72, 46.717 65.369, 48.946 53.010 C 50.829 42.565, 52.624 33.629, 52.935 33.151 C 53.457 32.349, 72.746 26, 74.659 26 C 75.125 26, 75.138 32.188, 74.688 39.750 C 74.238 47.313, 74.117 68.575, 74.419 87 C 74.850 113.279, 74.573 126.701, 73.135 149.265 C 72.127 165.086, 71.057 178.276, 70.757 178.576 C 70.457 178.876, 65.439 171.601, 59.606 162.409 L 49 145.698 49 136.349 C 49 129.478, 48.665 127, 47.735 127 C 47.040 127, 40.419 139.129, 33.023 153.954 C 25.627 168.779, 19.452 180.786, 19.302 180.635 C 19.152 180.485, 19.920 169.143, 21.010 155.431 C 22.100 141.719, 22.993 129.548, 22.995 128.384 C 22.998 127.057, 29.320 119.258, 39.974 107.441 C 49.309 97.086, 56.840 88.507, 56.709 88.376 C 56.578 88.245, 49.502 87.205, 40.985 86.065 C 32.468 84.925, 23.979 83.738, 22.121 83.427 L 18.742 82.861 19.415 56.180 C 19.785 41.506, 20.344 27.588, 20.657 25.250 C 21.111 21.870, 20.917 21, 19.712 21 C 17.873 21, 17.078 32.587, 16.729 64.466 L 16.500 85.432 33.461 87.761 C 42.790 89.041, 50.611 90.278, 50.842 90.508 C 51.072 90.739, 45.273 97.582, 37.953 105.714 C 30.634 113.846, 23.746 121.513, 22.648 122.750 C 20.889 124.733, 20.378 128.365, 18.359 153.250 C 15.650 186.643, 15.577 189, 17.258 189 C 17.951 189, 24.813 176.512, 32.508 161.250 L 46.500 133.500 47 141.062 L 47.500 148.624 60 168.268 C 66.875 179.072, 72.754 187.931, 73.063 187.956 C 74.718 188.086, 77.349 123.173, 77.197 86 C 77.108 64.275, 77.365 41.550, 77.768 35.500 C 78.436 25.459, 78.679 24.474, 80.548 24.207 C 82.386 23.944, 83.284 26.093, 89.330 45.207 L 96.066 66.500 87.691 100.500 C 83.085 119.200, 79.382 134.600, 79.462 134.721 C 79.543 134.843, 87.685 136.105, 97.555 137.525 C 107.425 138.946, 116.387 140.461, 117.472 140.893 C 119.177 141.571, 116.498 144.683, 97.661 163.905 C 78.779 183.172, 73.910 189.104, 77.625 188.314 C 78.106 188.212, 89.625 182.024, 103.222 174.564 C 116.820 167.104, 128.520 161, 129.222 161.001 C 129.925 161.002, 141.276 165.510, 154.448 171.019 C 167.619 176.528, 178.738 180.915, 179.158 180.767 C 179.577 180.620, 174.361 169.978, 167.567 157.118 C 156.335 135.855, 155.297 133.453, 156.120 130.618 C 156.618 128.903, 160.220 115.605, 164.124 101.067 L 171.223 74.634 168.467 65.300 C 166.044 57.095, 165.395 55.887, 163.105 55.314 C 161.672 54.955, 153.300 52.825, 144.500 50.581 L 128.500 46.500 127.378 39 C 126.762 34.875, 125.473 26.259, 124.514 19.853 L 122.771 8.205 119.642 9.103 C 115.356 10.332, 115.232 10.300, 114.406 7.750 C 113.711 5.605, 113.615 5.652, 112.336 8.750 C 111.598 10.538, 110.819 12, 110.604 12 C 110.389 12, 104.446 13.780, 97.395 15.955 C 90.345 18.131, 84.441 19.774, 84.274 19.608 C 84.108 19.441, 82.933 16.225, 81.663 12.461 C 79.062 4.750, 77.561 3.444, 76.633 8.086 M 117.294 12.797 C 116.399 13.366, 117.106 16.648, 120.035 25.532 C 124.058 37.733, 124.187 37.404, 121.899 20.750 C 120.741 12.324, 120.014 11.068, 117.294 12.797 M 79.070 17.750 C 79.032 19.538, 79.450 21, 80 21 C 81.187 21, 81.187 19.263, 80 16.500 C 79.280 14.824, 79.129 15.026, 79.070 17.750 M 97 18.801 C 90.675 20.774, 85.397 22.441, 85.272 22.506 C 85.146 22.571, 87.549 30.471, 90.612 40.062 C 95.852 56.468, 98 61.619, 98 57.776 C 98 56.883, 100.700 47.120, 104 36.082 C 107.300 25.044, 110 15.785, 110 15.506 C 110 14.770, 109.601 14.871, 97 18.801 M 113.079 15.136 C 113.036 15.486, 110.343 24.545, 107.096 35.266 C 97.509 66.918, 97.460 61.210, 107.592 92.611 C 112.364 107.400, 116.560 119.830, 116.917 120.233 C 117.274 120.636, 122.568 115.911, 128.682 109.733 L 139.798 98.500 127.098 58 C 114.442 17.640, 113.229 13.930, 113.079 15.136 M 130.659 60.208 C 132.583 66.419, 136.139 77.800, 138.560 85.500 L 142.964 99.500 129.746 112.750 C 122.476 120.038, 116.295 126, 116.011 126 C 115.727 126, 111.719 114.188, 107.105 99.750 C 102.490 85.313, 98.423 73.166, 98.066 72.759 C 97.709 72.351, 94.130 85.545, 90.113 102.080 C 86.096 118.614, 82.966 132.299, 83.157 132.490 C 83.348 132.681, 92.053 134.027, 102.502 135.480 C 112.951 136.933, 122.294 138.432, 123.265 138.811 C 124.692 139.368, 121.174 143.482, 104.933 160.250 C 93.879 171.662, 85.026 181, 85.260 181 C 85.494 181, 95.236 175.784, 106.910 169.409 C 122.704 160.783, 128.726 157.965, 130.445 158.397 C 131.716 158.716, 141.899 162.793, 153.075 167.458 C 164.251 172.123, 173.544 175.789, 173.727 175.606 C 173.910 175.423, 169.326 166.324, 163.540 155.387 C 157.754 144.449, 153.016 134.673, 153.010 133.661 C 153.005 132.650, 156.375 119.303, 160.500 104 C 164.625 88.697, 168 75.382, 168 74.409 C 168 73.437, 166.995 69.521, 165.767 65.707 C 163.169 57.642, 164.449 58.385, 144.657 53.445 C 136.871 51.501, 129.748 49.687, 128.830 49.414 C 127.424 48.995, 127.714 50.704, 130.659 60.208" stroke="none" fill="black" fill-rule="evenodd"/>
</svg>