<svg xmlns="http://www.w3.org/2000/svg" width="200" height="200" viewBox="0 0 200 200" version="1.1">
	<path d="M 28 9.005 C 28 9.524, 26.172 20.197, 23.938 32.724 C 20.087 54.316, 19.797 57.364, 18.358 91.371 L 16.840 127.241 19.337 135.371 C 20.710 139.842, 23.217 148.034, 24.906 153.576 L 27.978 163.651 37.739 164.915 C 43.108 165.610, 48.628 166.397, 50.008 166.666 C 52.423 167.135, 52.877 166.290, 62.403 143.555 C 67.841 130.576, 72.563 120.215, 72.895 120.530 C 73.228 120.845, 76.425 129.967, 80 140.801 L 86.500 160.500 95.128 166.348 L 103.756 172.196 137.128 175.578 C 155.483 177.438, 171.428 178.969, 172.563 178.980 C 174.445 178.998, 174.907 177.489, 177.840 161.750 C 179.608 152.262, 181.017 142.700, 180.971 140.500 C 180.926 138.300, 179.676 129.365, 178.194 120.644 L 175.500 104.787 165.038 99.006 C 159.283 95.827, 154.449 92.837, 154.295 92.363 C 154.140 91.888, 160.937 82.500, 169.398 71.500 C 177.859 60.500, 184.704 51.410, 184.609 51.301 C 184.513 51.191, 180.175 50.176, 174.967 49.044 C 169.760 47.913, 164.559 46.774, 163.409 46.514 C 161.940 46.182, 160.481 44.026, 158.508 39.271 C 156.963 35.547, 155.176 31.926, 154.539 31.225 C 153.901 30.524, 144.123 27.117, 132.811 23.655 L 112.244 17.359 100.486 22.568 L 88.728 27.777 83.114 25.938 C 80.026 24.927, 66.925 20.680, 54 16.501 C 41.075 12.322, 29.938 8.714, 29.250 8.483 C 28.563 8.252, 28 8.487, 28 9.005 M 26.213 36.750 C 22.299 60.112, 22.001 63.350, 20.899 94.500 L 19.732 127.500 24.781 143.831 C 27.557 152.814, 30.044 160.378, 30.307 160.640 C 30.570 160.903, 35.213 161.737, 40.625 162.493 C 47.618 163.469, 50.658 163.554, 51.133 162.785 C 51.501 162.190, 56.459 150.530, 62.151 136.874 C 67.843 123.217, 72.744 112.034, 73.043 112.022 C 73.342 112.010, 76.950 122.462, 81.061 135.250 L 88.536 158.500 96.669 164.050 L 104.802 169.599 138.046 172.854 C 156.331 174.644, 171.620 175.747, 172.021 175.304 C 172.422 174.862, 174.104 167.075, 175.757 158 L 178.764 141.500 176.017 124.218 C 174.506 114.713, 173.097 106.790, 172.885 106.611 C 172.673 106.432, 167.438 103.482, 161.250 100.056 C 155.063 96.629, 150 93.489, 150 93.077 C 150 92.665, 156.704 83.592, 164.898 72.914 C 174.071 60.961, 179.355 53.266, 178.648 52.890 C 178.017 52.555, 173.502 51.459, 168.616 50.456 L 159.732 48.631 156.046 40.592 L 152.360 32.552 132.454 26.449 L 112.548 20.346 103.274 24.407 C 98.173 26.641, 94 28.711, 94 29.008 C 94 29.304, 101.088 31.930, 109.750 34.844 C 123.438 39.447, 125.877 40.594, 128.380 43.607 C 129.964 45.513, 131.086 47.247, 130.873 47.460 C 130.660 47.673, 115.338 48.866, 96.824 50.112 L 63.161 52.376 62.643 54.938 C 62.299 56.635, 62.693 57.938, 63.812 58.798 C 64.740 59.511, 73.984 64.461, 84.352 69.798 C 97.761 76.698, 103.457 80.150, 104.078 81.750 C 104.558 82.987, 105.121 84, 105.329 84 C 105.537 84, 110.041 81.975, 115.338 79.500 C 120.634 77.025, 125.347 75, 125.810 75 C 126.274 75, 128.102 80.175, 129.872 86.499 L 133.090 97.999 129.512 131.749 C 127.543 150.312, 125.714 166.512, 125.447 167.750 C 124.057 174.194, 122.102 168.327, 113 130.402 C 107.775 108.631, 103.215 90.355, 102.867 89.789 C 102.477 89.155, 98.365 90.534, 92.155 93.380 C 86.612 95.921, 81.722 97.983, 81.288 97.963 C 80.855 97.942, 77.640 92.977, 74.144 86.928 C 68.542 77.234, 67.594 76.081, 66.144 77.200 C 65.240 77.898, 61.763 80.828, 58.417 83.710 L 52.335 88.950 48.493 102.024 C 46.380 109.214, 44.250 115.346, 43.759 115.649 C 41.601 116.982, 41.870 114.312, 44.893 104.393 C 46.670 98.561, 47.966 93.633, 47.773 93.440 C 47.580 93.247, 44.091 95.967, 40.018 99.484 C 35.946 103.002, 32.227 105.640, 31.754 105.348 C 31.281 105.056, 31.031 104.490, 31.197 104.091 C 31.427 103.540, 43.133 93.128, 49.212 88.069 C 49.988 87.423, 58 61.958, 58 60.138 C 58 59.523, 53.865 56.943, 48.811 54.405 C 42.449 51.210, 40.065 49.556, 41.061 49.027 C 41.853 48.607, 51.500 44.305, 62.500 39.467 C 73.500 34.630, 82.873 30.350, 83.330 29.956 C 83.951 29.421, 32.957 12, 30.769 12 C 30.545 12, 28.494 23.137, 26.213 36.750 M 67.250 40.254 C 56.113 45.229, 47 49.599, 47 49.966 C 47 50.799, 58.839 56.514, 59.351 55.928 C 59.558 55.693, 60.162 54.150, 60.694 52.500 L 61.661 49.500 75.081 48.740 C 82.461 48.322, 96.600 47.422, 106.500 46.740 C 130.268 45.103, 130.303 44.402, 107 36.763 C 97.375 33.607, 89.050 31.066, 88.500 31.117 C 87.950 31.167, 78.388 35.279, 67.250 40.254 M 60.558 62.167 C 58.039 69.756, 54.315 83, 54.701 83 C 54.971 83, 58.012 80.525, 61.457 77.500 C 64.903 74.475, 67.943 72, 68.212 72 C 68.482 72, 71.722 77.157, 75.413 83.460 L 82.122 94.921 87.311 92.598 C 101.736 86.141, 103.073 85.161, 101.235 82.395 C 100.831 81.787, 91.613 76.687, 80.750 71.062 C 66.833 63.855, 60.870 61.228, 60.558 62.167 M 115.250 82.608 C 110.162 84.983, 106 87.538, 106 88.286 C 106 89.632, 122.938 160.271, 123.362 160.696 C 123.484 160.817, 125.079 146.647, 126.907 129.208 L 130.231 97.500 127.493 88 C 125.988 82.775, 124.698 78.453, 124.628 78.395 C 124.557 78.337, 120.338 80.233, 115.250 82.608" stroke="none" fill="black" fill-rule="evenodd"/>
</svg>