<svg xmlns="http://www.w3.org/2000/svg" width="200" height="200" viewBox="0 0 200 200" version="1.1">
	<path d="M 46.622 18.803 C 46.238 19.424, 46.833 21.713, 47.944 23.890 L 49.963 27.848 34.982 27.272 C 26.742 26.955, 19.938 26.877, 19.863 27.098 C 19.787 27.319, 19.173 43.025, 18.497 62 L 17.269 96.500 27.440 117.500 L 37.612 138.500 31.327 155 C 27.870 164.075, 25.032 171.982, 25.021 172.570 C 25.008 173.238, 34.090 172.003, 49.172 169.286 L 73.345 164.931 85.187 154.416 C 96.480 144.389, 98.993 143.006, 99.006 146.809 C 99.009 147.739, 99.481 150.192, 100.055 152.260 C 100.946 155.467, 104.418 158.857, 123.610 175.260 C 135.990 185.842, 146.430 194.591, 146.810 194.703 C 147.189 194.815, 155.270 183.336, 164.767 169.194 L 182.034 143.481 179.247 109.371 L 176.459 75.262 178.404 49.139 C 179.474 34.772, 180.035 22.702, 179.651 22.318 C 178.614 21.280, 100.716 27.040, 99.208 28.265 C 98.339 28.971, 90.957 29.106, 76.708 28.678 L 55.500 28.042 53 24.842 C 47.528 17.839, 47.332 17.654, 46.622 18.803 M 141.319 27.014 C 121.969 28.397, 105.872 29.794, 105.548 30.119 C 105.103 30.563, 112.272 47.662, 113.307 48.627 C 113.802 49.089, 145.300 52.033, 145.680 51.653 C 145.918 51.416, 145.459 48.584, 144.660 45.361 C 141.884 34.151, 141.867 34, 143.391 34 C 144.381 34, 145.562 37.155, 147.230 44.250 C 148.555 49.888, 149.548 54.635, 149.436 54.801 C 149.324 54.966, 140.795 54.314, 130.482 53.352 L 111.732 51.602 107.116 42.051 C 103.763 35.114, 101.942 32.420, 100.462 32.208 C 99.151 32.021, 93.877 35.336, 85.687 41.496 L 72.950 51.075 79.651 59.787 C 83.337 64.579, 86.727 68.931, 87.185 69.458 C 87.672 70.020, 88.518 69.088, 89.227 67.208 C 89.894 65.444, 91.127 63.995, 91.969 63.988 C 93.549 63.977, 157.391 76.763, 159.917 77.598 C 160.897 77.921, 161.014 78.386, 160.295 79.105 C 159.577 79.823, 153.128 79.024, 139.378 76.511 C 128.445 74.513, 118.600 72.636, 117.500 72.340 C 116.400 72.043, 121.577 78.033, 129.006 85.651 C 136.434 93.268, 146.003 103.117, 150.272 107.538 L 158.032 115.577 150.064 122.038 C 145.681 125.592, 142.074 128.788, 142.048 129.140 C 142.022 129.492, 144.925 136.145, 148.500 143.924 C 152.075 151.704, 155 158.279, 155 158.535 C 155 161.627, 147.446 152.625, 120.468 117.388 L 88.611 75.776 86.472 80.638 L 84.334 85.500 86.380 86.297 C 87.506 86.735, 88.572 87.239, 88.749 87.416 C 89.465 88.131, 69.914 119.500, 68.753 119.500 C 67.009 119.500, 67.381 118.326, 74.112 102.582 C 77.385 94.926, 79.711 88.363, 79.282 87.996 C 78.437 87.275, 58.304 83, 55.753 83 C 54.569 83, 54.039 84.636, 53.507 89.929 C 52.462 100.335, 50.862 99.849, 46.158 87.698 C 43.987 82.089, 42.287 77.413, 42.382 77.306 C 42.477 77.200, 44.514 77.553, 46.909 78.091 C 49.304 78.629, 51.475 78.858, 51.733 78.600 C 51.991 78.342, 53.242 69.929, 54.512 59.905 L 56.821 41.680 54.237 36.411 C 52.694 33.264, 50.817 30.918, 49.577 30.585 C 48.434 30.278, 41.763 30.021, 34.750 30.014 L 22 30 21.991 36.250 C 21.985 39.688, 21.532 54.515, 20.984 69.201 L 19.986 95.901 30.288 117.201 L 40.591 138.500 34.741 153.862 C 31.523 162.311, 29.082 169.416, 29.317 169.650 C 29.697 170.030, 67.191 163.553, 71.040 162.443 C 71.887 162.198, 78.637 156.628, 86.040 150.065 L 99.500 138.131 101.538 146.316 L 103.577 154.500 124.931 172.807 C 136.676 182.877, 146.612 190.752, 147.011 190.307 C 147.410 189.863, 154.820 179.008, 163.478 166.184 L 179.218 142.869 176.465 109.684 L 173.712 76.500 175.500 51.430 C 176.483 37.642, 177.110 25.942, 176.893 25.430 C 176.658 24.873, 162.380 25.509, 141.319 27.014 M 60.590 34.750 C 67.714 44.200, 71.302 48.477, 71.877 48.204 C 72.219 48.041, 77.225 44.441, 83 40.204 L 93.500 32.500 83.500 31.867 C 78 31.520, 69.959 31.182, 65.631 31.117 L 57.763 31 60.590 34.750 M 60.661 42.730 C 65.134 51.262, 67.052 53.342, 68.414 51.139 C 68.872 50.397, 59.811 37.351, 56.858 34.500 C 56.288 33.950, 57.999 37.653, 60.661 42.730 M 58.167 53.571 C 55.807 70.355, 54.812 79.145, 55.223 79.557 C 55.626 79.960, 79.470 85, 80.974 85 C 81.358 85, 82.807 82.372, 84.193 79.159 L 86.713 73.319 80.246 64.909 C 76.689 60.284, 73.190 55.665, 72.471 54.645 C 71.208 52.852, 71.062 52.850, 68.113 54.592 C 64.578 56.680, 64.960 56.922, 61.763 50.571 L 59.282 45.642 58.167 53.571 M 91.013 69.969 C 89.892 72.676, 90.043 73.273, 92.718 76.719 C 94.333 78.799, 106.824 95.125, 120.478 113 C 134.131 130.875, 145.707 145.950, 146.201 146.500 C 146.696 147.050, 145.278 143.554, 143.051 138.732 C 140.823 133.909, 139.022 129.409, 139.048 128.732 C 139.074 128.054, 142.415 124.812, 146.470 121.528 L 153.845 115.555 149.776 111.028 C 147.538 108.537, 137.608 98.307, 127.709 88.293 L 109.711 70.087 102.248 68.543 C 92.456 66.518, 92.442 66.520, 91.013 69.969 M 47 81.717 C 47 82.111, 47.784 84.473, 48.743 86.967 L 50.485 91.500 51.105 87 C 51.720 82.536, 51.011 81.049, 48.250 81.015 C 47.563 81.007, 47 81.322, 47 81.717 M 82.667 89.750 C 81.475 91.730, 79.006 98.377, 79.788 97.500 C 81.963 95.062, 85.067 89, 84.141 89 C 83.578 89, 82.915 89.338, 82.667 89.750" stroke="none" fill="black" fill-rule="evenodd"/>
</svg>