<svg xmlns="http://www.w3.org/2000/svg" width="200" height="200" viewBox="0 0 200 200" version="1.1">
	<path d="M 98.453 14.131 C 99.446 18.407, 102.994 37.476, 102.997 38.557 C 102.999 39.293, 100.451 39.271, 94.589 38.485 C 87.086 37.479, 85.817 37.549, 82.839 39.136 C 77.646 41.905, 76.882 41.592, 77.616 37 C 78.103 33.957, 77.926 33.002, 76.878 33.010 C 74.054 33.030, 20.849 40.818, 20.388 41.279 C 20.037 41.630, 32.915 64.060, 34.436 65.745 C 34.558 65.880, 43.346 61.704, 53.966 56.466 C 64.585 51.227, 73.413 47.080, 73.584 47.251 C 74.375 48.041, 71.212 66.251, 70.173 66.893 C 69.525 67.293, 61.572 70.274, 52.498 73.516 C 42.700 77.017, 36 79.937, 36 80.705 C 36 81.667, 38.274 82, 44.846 82 C 49.712 82, 57.762 82.289, 62.736 82.642 L 71.779 83.284 72.325 80.392 C 72.626 78.801, 73.140 75.450, 73.468 72.943 L 74.065 68.387 80.667 66.240 L 87.270 64.093 98.135 74.215 C 104.111 79.783, 109 84.506, 109 84.713 C 109 84.919, 108.438 84.997, 107.750 84.886 C 107.063 84.775, 105.825 84.973, 105 85.326 C 104.175 85.679, 95.481 88.029, 85.681 90.548 L 67.862 95.129 41.931 117.173 C 27.669 129.298, 16 139.335, 16 139.478 C 16 139.622, 23.562 141.883, 32.805 144.503 L 49.611 149.267 56.748 163.383 C 60.673 171.148, 64.473 178.265, 65.192 179.201 C 66.321 180.668, 70.777 181.133, 97.677 182.586 C 114.824 183.512, 129.486 184.028, 130.259 183.731 C 131.031 183.434, 137.206 174.936, 143.981 164.846 C 150.755 154.756, 161.923 138.940, 168.798 129.699 C 175.863 120.205, 180.907 112.542, 180.399 112.078 C 179.905 111.627, 175.450 109.896, 170.500 108.232 C 136.902 96.934, 119.263 90.584, 117.750 89.242 C 116.787 88.388, 116 86.635, 116 85.345 C 116 84.055, 115.601 83, 115.114 83 C 114.133 83, 109.593 60.074, 110.412 59.255 C 110.694 58.973, 119.475 66.690, 129.926 76.405 L 148.926 94.068 152.902 87.784 C 155.089 84.328, 162.719 72.275, 169.858 61 C 176.997 49.725, 182.428 40.351, 181.926 40.169 C 181.424 39.987, 173.156 38.371, 163.552 36.579 C 149.506 33.957, 145.991 33.582, 145.577 34.660 C 145.294 35.397, 145.161 36.004, 145.281 36.008 C 146.883 36.065, 177.377 42.044, 177.696 42.363 C 178.401 43.067, 149.369 88.500, 148.214 88.500 C 147.639 88.500, 139.302 81.300, 129.688 72.500 C 113.187 57.396, 112.356 56.463, 114.854 55.837 C 116.309 55.472, 126.406 53.933, 137.291 52.418 C 153.605 50.147, 157.030 49.394, 156.787 48.130 C 156.552 46.913, 151.452 45.927, 131.996 43.338 C 118.523 41.546, 107.218 40.061, 106.874 40.039 C 106.530 40.018, 105.479 35.837, 104.539 30.750 C 103.598 25.663, 102.616 20.825, 102.356 20 C 102.096 19.175, 103.597 20.099, 105.691 22.054 C 128.172 43.034, 129.130 43.805, 128.910 40.750 C 128.827 39.585, 105.891 17.781, 100.383 13.631 C 97.904 11.764, 97.903 11.764, 98.453 14.131 M 48.821 39.514 C 36.348 41.314, 25.695 42.947, 25.148 43.143 C 24.358 43.427, 33.160 59.493, 35.253 61.586 C 35.971 62.304, 73.212 44.266, 74.191 42.726 C 74.619 42.051, 74.976 40.263, 74.985 38.750 C 75.003 35.449, 77.509 35.376, 48.821 39.514 M 81.750 42.543 C 79.138 43.915, 76.984 45.142, 76.964 45.269 C 75.661 53.629, 74.520 65, 74.984 65 C 75.329 65, 78.400 64.058, 81.808 62.908 L 88.004 60.815 99.153 71.423 C 105.285 77.258, 110.484 81.850, 110.706 81.627 C 110.929 81.405, 109.511 72.705, 107.555 62.295 C 105.600 51.884, 104 43.122, 104 42.822 C 104 42.522, 100.963 41.967, 97.250 41.589 C 93.537 41.212, 89.600 40.710, 88.500 40.475 C 87.400 40.239, 84.362 41.170, 81.750 42.543 M 107.442 46.750 C 108.570 53.112, 109.062 54.111, 110.831 53.623 C 111.749 53.369, 119.799 52.137, 128.719 50.884 C 137.640 49.631, 144.771 48.438, 144.565 48.232 C 144.231 47.897, 109.740 43.014, 107.639 43.004 C 107.165 43.002, 107.076 44.688, 107.442 46.750 M 58.500 74.171 C 52.450 76.402, 47.072 78.626, 46.550 79.113 C 45.994 79.632, 50.659 80, 57.800 80 L 70 80 70.014 77.250 C 70.021 75.737, 70.299 73.487, 70.630 72.250 C 70.962 71.013, 70.843 70.026, 70.367 70.058 C 69.890 70.090, 64.550 71.941, 58.500 74.171 M 108.225 88.250 C 106.904 89.868, 94.987 118.921, 95.043 120.386 C 95.087 121.542, 104.851 129.508, 105.436 128.864 C 105.924 128.327, 112 91.496, 112 89.071 C 112 86.779, 109.814 86.303, 108.225 88.250 M 83.186 94.005 L 68.873 97.857 60.186 105.242 C 55.409 109.304, 44.975 118.173, 37 124.950 C 29.025 131.727, 22.376 137.583, 22.225 137.962 C 22.074 138.341, 28.299 140.417, 36.059 142.575 C 43.819 144.734, 50.498 146.725, 50.901 147 C 51.303 147.275, 55.132 154.250, 59.408 162.500 C 63.684 170.750, 67.314 177.635, 67.475 177.801 C 67.892 178.228, 116.243 180.964, 123.738 180.983 L 129.975 181 143.159 161.250 C 150.409 150.387, 161.029 135.277, 166.758 127.670 C 172.487 120.064, 177.022 113.716, 176.837 113.564 C 176.652 113.413, 164.350 109.113, 149.500 104.009 C 134.650 98.905, 121.004 94.123, 119.175 93.384 L 115.850 92.039 116.422 94.770 C 118.461 104.493, 124.037 135.286, 123.795 135.484 C 120.853 137.887, 72 169.821, 72 169.342 C 72 168.970, 76.315 158.085, 81.589 145.154 C 92.446 118.531, 92.312 122.439, 82.621 115 C 80.114 113.075, 78.048 111.233, 78.031 110.907 C 78.005 110.419, 83.358 105.411, 98.964 91.322 C 101.167 89.334, 99.483 89.620, 83.186 94.005 M 92.003 101.144 L 81.815 110.431 86.157 114.186 C 88.546 116.251, 90.970 117.954, 91.545 117.970 C 92.601 118, 103.343 93.009, 102.595 92.262 C 102.373 92.039, 97.606 96.037, 92.003 101.144 M 110.571 116.500 C 109.008 126.125, 107.516 134, 107.256 134 C 106.996 134, 103.887 131.695, 100.347 128.878 C 96.807 126.061, 93.685 123.982, 93.409 124.258 C 92.153 125.514, 77.388 162.881, 78.380 162.294 C 78.996 161.929, 88.881 155.379, 100.347 147.739 C 117.337 136.417, 121.102 133.496, 120.697 131.949 C 120.424 130.904, 118.922 123.064, 117.361 114.525 C 115.799 105.986, 114.272 99, 113.967 99 C 113.662 99, 112.134 106.875, 110.571 116.500" stroke="none" fill="black" fill-rule="evenodd"/>
</svg>