<svg xmlns="http://www.w3.org/2000/svg" width="200" height="200" viewBox="0 0 200 200" version="1.1">
	<path d="M 101.029 28.250 C 100.318 32.237, 99.567 35.950, 99.359 36.500 C 99.114 37.149, 90.829 37.305, 75.740 36.945 C 62.958 36.640, 52.275 36.298, 52 36.186 C 51.725 36.074, 54.332 34.115, 57.793 31.834 C 61.882 29.138, 63.744 27.344, 63.110 26.710 C 62.476 26.076, 58.094 27.955, 50.596 32.076 C 44.250 35.564, 39.512 38.698, 40.067 39.041 C 40.621 39.384, 34.721 43.879, 26.955 49.030 C 16.114 56.220, 13.261 58.545, 14.668 59.041 C 15.675 59.397, 29.438 62.767, 45.250 66.531 C 61.063 70.294, 74 73.633, 74 73.950 C 74 74.267, 60.498 81.266, 43.996 89.502 C 27.494 97.738, 14.163 104.932, 14.371 105.489 C 14.580 106.045, 15.369 106.356, 16.125 106.179 C 18.324 105.666, 81.987 73.557, 81.994 72.958 C 81.997 72.659, 70.188 69.605, 55.750 66.170 C 41.313 62.735, 27.250 59.350, 24.500 58.647 L 19.501 57.369 33.245 48.170 L 46.990 38.971 72.495 39.645 L 98 40.319 98 42.600 C 98 43.855, 97.627 45.112, 97.171 45.394 C 96.715 45.676, 82.090 47.596, 64.671 49.661 C 41.658 52.389, 33 53.763, 33 54.689 C 33 56.311, 32.474 56.208, 64.928 60.985 C 80.014 63.206, 92.535 65.201, 92.752 65.419 C 92.970 65.636, 92.122 70.742, 90.870 76.766 L 88.592 87.718 77.546 88.354 C 71.471 88.704, 63.949 88.993, 60.832 88.995 C 54.638 89, 52 89.666, 52 91.222 C 52 91.889, 58.087 91.983, 70 91.500 C 79.900 91.098, 87.981 90.934, 87.958 91.135 C 87.934 91.336, 87.339 93.975, 86.636 97 L 85.356 102.500 74.928 103.127 C 69.193 103.473, 56.400 103.815, 46.500 103.888 C 27.893 104.027, 21 104.633, 21 106.131 C 21 106.609, 35.175 107, 52.500 107 C 70.006 107, 84 107.392, 84 107.881 C 84 108.366, 70.491 116.307, 53.980 125.528 C 37.469 134.749, 24.096 142.429, 24.262 142.596 C 24.429 142.762, 38.275 148.139, 55.032 154.545 C 71.790 160.951, 85.785 166.368, 86.133 166.582 C 86.481 166.797, 92.947 157.417, 100.503 145.737 C 108.059 134.056, 114.384 124.340, 114.558 124.145 C 114.938 123.721, 132 133.935, 132 134.587 C 132 134.836, 128.662 147.068, 124.583 161.770 C 116.077 192.424, 116.136 192.164, 117.598 192.679 C 118.202 192.891, 127.544 180.894, 138.358 166.018 C 157.935 139.089, 158.068 138.869, 168.970 115.792 L 179.920 92.614 172.026 88.396 C 167.684 86.076, 157.745 80.902, 149.939 76.898 L 135.747 69.619 142.945 67.059 L 150.144 64.500 160.697 47.675 C 166.501 38.421, 170.856 30.495, 170.375 30.062 C 169.599 29.362, 107.913 20.935, 103.910 20.982 C 102.726 20.995, 101.991 22.848, 101.029 28.250 M 104.535 25.250 C 104.104 26.588, 102 36.797, 102 37.549 C 102 37.797, 102.787 37.989, 103.750 37.976 C 104.713 37.963, 115.063 40.315, 126.750 43.203 C 141.809 46.923, 148 48.861, 148 49.854 C 148 51.029, 145.046 51.149, 129.750 50.598 C 119.713 50.237, 108.773 49.687, 105.441 49.375 L 99.381 48.808 98.144 55.524 C 97.463 59.217, 97.072 62.405, 97.274 62.607 C 97.476 62.809, 105.449 64.111, 114.991 65.499 L 132.340 68.022 140.459 64.958 L 148.578 61.894 157.754 47.197 C 166.471 33.236, 166.820 32.466, 164.715 31.814 C 162.652 31.175, 108.896 24, 106.172 24 C 105.493 24, 104.756 24.563, 104.535 25.250 M 100.618 43.160 C 100.270 44.898, 100.102 46.411, 100.243 46.522 C 100.692 46.877, 132.260 47.925, 131.872 47.573 C 131.369 47.116, 103.548 40, 102.266 40 C 101.707 40, 100.966 41.422, 100.618 43.160 M 68.750 51.864 C 56.788 53.286, 47 54.698, 47 55.001 C 47 55.677, 92.921 62.413, 93.509 61.824 C 93.740 61.593, 94.580 58.613, 95.376 55.202 L 96.823 49 93.661 49.139 C 91.923 49.216, 80.713 50.442, 68.750 51.864 M 95.536 68.250 C 95.260 69.487, 94.352 73.565, 93.517 77.312 C 91.053 88.377, 90.175 87.597, 104.249 86.845 C 110.987 86.484, 119.318 86.147, 122.763 86.095 L 129.025 86 125.488 78.977 L 121.951 71.954 124.226 71.090 C 126.827 70.102, 127.091 70.168, 110 67.494 C 97.183 65.489, 96.140 65.544, 95.536 68.250 M 129.037 72.110 C 127.682 72.651, 126.391 73.276, 126.168 73.498 C 125.946 73.721, 127.413 76.904, 129.429 80.571 C 131.444 84.239, 132.855 87.478, 132.563 87.770 C 132.271 88.062, 122.913 88.742, 111.766 89.281 C 100.620 89.820, 91.357 90.382, 91.183 90.531 C 90.852 90.813, 88.098 101.943, 88.036 103.250 C 88.016 103.662, 91.713 104.021, 96.250 104.046 C 103.875 104.088, 106.636 103.428, 132.677 95.333 C 148.175 90.515, 160.648 86.240, 160.396 85.832 C 159.898 85.027, 132.869 70.959, 132.019 71.063 C 131.733 71.098, 130.391 71.569, 129.037 72.110 M 142 104.670 C 129.075 113.660, 118.383 121.363, 118.240 121.788 C 118.097 122.213, 121.801 124.797, 126.472 127.530 C 131.142 130.264, 134.972 132.963, 134.982 133.530 C 134.997 134.375, 123.595 176.226, 121.393 183.409 C 121.040 184.559, 128.618 174.700, 138.232 161.500 C 155.130 138.299, 156.054 136.775, 165.999 115.726 C 171.656 103.750, 176.109 93.792, 175.893 93.596 C 175.677 93.401, 173.250 92.134, 170.500 90.782 L 165.500 88.324 142 104.670 M 131.500 98.586 C 114.942 103.903, 106.325 106.156, 100.735 106.631 L 92.971 107.290 103.551 113.645 C 109.370 117.140, 114.360 120, 114.639 120 C 115.128 120, 150.391 95.761, 154.500 92.602 C 155.600 91.756, 156.050 91.094, 155.500 91.132 C 154.950 91.170, 144.150 94.524, 131.500 98.586 M 83.100 130.052 C 79.633 144.509, 77.413 151.964, 76.656 151.698 C 75.248 151.204, 75.098 152.302, 79.465 131.108 C 81.437 121.543, 82.863 113.530, 82.635 113.302 C 82.154 112.821, 31.013 141.251, 31.011 142 C 31.008 142.862, 85.096 163.059, 85.967 162.521 C 86.817 161.995, 112 123.380, 112 122.601 C 112 122.193, 89.344 108, 88.693 108 C 88.526 108, 86.009 117.923, 83.100 130.052" stroke="none" fill="black" fill-rule="evenodd"/>
</svg>