<svg xmlns="http://www.w3.org/2000/svg" width="200" height="200" viewBox="0 0 200 200" version="1.1">
	<path d="M 104.021 27.561 L 105.934 33.123 102.467 31.061 C 100.560 29.928, 97.537 28.137, 95.750 27.083 L 92.500 25.166 53 34.083 C 31.275 38.987, 12.862 43.240, 12.083 43.533 C 11.095 43.904, 10.983 44.383, 11.713 45.113 C 12.443 45.843, 25.452 45.446, 54.630 43.803 C 77.659 42.506, 99.377 41.682, 102.893 41.973 L 109.286 42.500 114.670 58.389 C 117.631 67.129, 119.906 74.428, 119.724 74.609 C 119.542 74.791, 111.543 71.210, 101.947 66.652 C 86.403 59.268, 84.466 58.078, 84.189 55.740 C 83.913 53.413, 83.236 52.989, 78.189 51.985 C 75.060 51.363, 70.945 50.447, 69.044 49.951 C 66.561 49.302, 65.372 49.393, 64.820 50.274 C 64.289 51.121, 66.801 52.871, 72.952 55.938 L 81.852 60.377 82.219 73.438 C 82.421 80.622, 82.936 87.246, 83.364 88.157 C 83.981 89.470, 81.272 88.897, 70.321 85.401 C 62.720 82.975, 54.813 80.524, 52.750 79.956 L 49 78.923 48.926 70.711 C 48.885 66.195, 48.548 60.566, 48.176 58.201 L 47.500 53.903 35.588 75.863 C 29.036 87.942, 23.721 98.198, 23.777 98.655 C 23.833 99.112, 28.519 100.658, 34.190 102.090 C 39.860 103.522, 44.434 105.100, 44.353 105.597 C 44.271 106.094, 42.298 113.564, 39.968 122.198 C 36.368 135.536, 35.424 137.942, 33.694 138.198 C 30.993 138.598, 30.364 140.758, 32.827 141.173 C 34.661 141.482, 34.499 142.471, 29.904 159 C 27.228 168.625, 25.030 176.895, 25.020 177.378 C 25.001 178.195, 38.873 177.835, 63.576 176.379 L 73.652 175.785 81.479 157.392 L 89.305 139 95.256 139 L 101.207 139 98.104 142.535 C 96.397 144.479, 95.003 146.391, 95.007 146.785 C 95.017 147.829, 178.969 180.364, 179.719 179.614 C 180.067 179.266, 177.507 165.148, 174.030 148.241 C 168.975 123.664, 166.208 112.888, 160.233 94.500 L 152.759 71.500 154.885 67.589 C 156.054 65.437, 156.885 63.552, 156.732 63.398 C 156.578 63.245, 148.813 58.554, 139.476 52.973 L 122.500 42.826 131.500 43.379 C 164.249 45.387, 184.099 46.234, 184.686 45.647 C 185.060 45.273, 184.947 44.565, 184.433 44.073 C 183.651 43.324, 104.760 22, 102.771 22 C 102.406 22, 102.969 24.503, 104.021 27.561 M 107 26.634 C 107 26.983, 107.530 29.035, 108.177 31.195 C 109.064 34.157, 110.355 35.696, 113.427 37.457 C 117.128 39.578, 119.463 39.894, 139 40.919 C 150.825 41.539, 162.525 42.303, 165 42.617 C 167.475 42.930, 169.266 42.949, 168.981 42.658 C 168.535 42.203, 108.683 26, 107.449 26 C 107.202 26, 107 26.285, 107 26.634 M 62.017 34.820 C 45.801 38.482, 33.314 41.629, 34.269 41.813 C 35.223 41.997, 47.862 41.439, 62.355 40.574 C 76.847 39.708, 93.101 39, 98.475 39 C 106.956 39, 108.084 38.806, 107.025 37.530 C 106.021 36.320, 92.196 27.816, 91.662 28.080 C 91.573 28.124, 78.232 31.157, 62.017 34.820 M 112.011 42.250 C 112.018 42.388, 114.634 50.150, 117.826 59.500 L 123.629 76.500 137.766 83.500 L 151.903 90.500 144.554 98.500 C 138.150 105.472, 137.450 106.592, 139.103 107.218 C 142.216 108.396, 141.393 110.329, 138.062 109.662 L 135.123 109.075 143.177 132.287 C 147.607 145.054, 152.166 158.298, 153.309 161.718 L 155.387 167.935 165.734 172.094 C 171.425 174.381, 176.254 176.080, 176.465 175.868 C 176.677 175.657, 174.013 161.987, 170.547 145.492 C 165.807 122.936, 162.451 109.941, 157.010 93.075 C 149.855 70.900, 149.794 70.618, 151.497 67.735 C 152.445 66.132, 152.833 64.463, 152.360 64.028 C 149.967 61.824, 115.186 42, 113.713 42 C 112.771 42, 112.005 42.112, 112.011 42.250 M 78.813 55.683 C 79.534 55.972, 80.397 55.936, 80.729 55.604 C 81.061 55.272, 80.471 55.036, 79.417 55.079 C 78.252 55.127, 78.015 55.364, 78.813 55.683 M 84 72.033 C 84 80.771, 84.325 82.708, 86.517 87.033 C 87.901 89.765, 89.589 92.003, 90.267 92.007 C 90.945 92.012, 100 94.724, 110.389 98.035 C 120.777 101.347, 129.477 103.856, 129.721 103.612 C 129.965 103.369, 128.285 97.782, 125.987 91.197 L 121.810 79.225 103.835 70.613 C 93.949 65.876, 85.442 62, 84.930 62 C 84.418 62, 84 66.513, 84 72.033 M 36.500 79.803 C 31.550 88.945, 27.374 96.707, 27.220 97.053 C 27.065 97.399, 31.678 98.722, 37.470 99.993 C 43.261 101.264, 48 102.508, 48 102.758 C 48 103.007, 47.300 105.914, 46.444 109.216 C 45.588 112.519, 45.026 115.340, 45.194 115.486 C 45.520 115.768, 93.283 109.825, 93.813 109.436 C 93.985 109.310, 92.343 105.659, 90.162 101.323 L 86.198 93.438 66.658 87.203 L 47.118 80.967 46.554 76.733 C 46.244 74.405, 45.880 70.403, 45.745 67.841 L 45.500 63.182 36.500 79.803 M 126 81.867 C 126 83.312, 133.017 103.417, 133.791 104.191 C 134.224 104.624, 137.468 102.063, 141 98.500 C 144.937 94.527, 147.050 91.681, 146.461 91.143 C 144.785 89.610, 126 81.094, 126 81.867 M 91 95.414 C 91 95.715, 92.463 98.934, 94.250 102.566 C 97.462 109.093, 97.541 109.164, 101 108.651 C 102.925 108.366, 108.905 107.595, 114.288 106.938 C 119.672 106.281, 123.929 105.596, 123.749 105.415 C 123.478 105.145, 115.936 102.712, 92.750 95.416 C 91.787 95.113, 91 95.112, 91 95.414 M 112 109.878 C 100.783 111.334, 99.489 111.705, 99.390 113.500 C 99.329 114.600, 97.875 118.790, 96.158 122.812 C 93.530 128.968, 93.310 130.047, 94.768 129.639 C 95.721 129.373, 100.405 128.629, 105.178 127.985 L 113.856 126.814 122.508 117.407 L 131.159 108 127.830 108.128 C 125.998 108.198, 118.875 108.986, 112 109.878 M 125.528 117.972 C 121.723 121.806, 118.837 125.170, 119.114 125.447 C 119.391 125.724, 122.050 125.663, 125.023 125.311 C 129.661 124.762, 130.114 124.530, 128.214 123.682 C 126.997 123.139, 126 122.340, 126 121.906 C 126 120.174, 127.793 120.228, 131.943 122.086 C 134.338 123.158, 136.453 123.881, 136.642 123.691 C 136.959 123.374, 133.049 111, 132.631 111 C 132.530 111, 129.333 114.137, 125.528 117.972 M 69.294 115.369 C 55.980 117.091, 44.679 118.950, 44.180 119.500 C 43.031 120.766, 38.885 136.219, 39.523 136.856 C 40.140 137.473, 85.879 131.147, 88.500 130.083 C 89.723 129.586, 91.697 126.401, 93.583 121.883 C 96.632 114.576, 96.931 111.888, 94.667 112.119 C 94.025 112.185, 82.607 113.647, 69.294 115.369 M 125.760 127.880 C 115.922 129.364, 114.746 129.778, 111.760 132.807 L 108.500 136.114 124.500 135.426 C 133.300 135.047, 140.614 134.645, 140.754 134.531 C 141.336 134.060, 138.262 126.598, 137.419 126.436 C 136.913 126.339, 131.667 126.989, 125.760 127.880 M 101 131.390 C 96.875 132.001, 92.938 132.864, 92.250 133.309 C 89.482 135.100, 91.342 136, 97.813 136 C 104.077 136, 104.857 135.759, 107.500 133 C 109.081 131.350, 109.952 130.063, 109.437 130.140 C 108.922 130.218, 105.125 130.780, 101 131.390 M 76 135.066 L 64.500 136.772 75.781 136.886 C 85.098 136.980, 87.166 136.731, 87.655 135.457 C 87.981 134.608, 88.079 133.789, 87.874 133.637 C 87.668 133.485, 82.325 134.128, 76 135.066 M 109.899 138.716 C 106.248 139.019, 104.614 139.804, 101.984 142.517 C 98.932 145.665, 98.822 145.994, 100.585 146.664 C 101.638 147.064, 113.651 151.750, 127.280 157.077 C 149.048 165.586, 151.979 166.504, 151.399 164.632 C 151.036 163.459, 148.834 157.100, 146.507 150.500 L 142.275 138.500 128.388 138.417 C 120.749 138.372, 112.430 138.506, 109.899 138.716 M 62.021 140.261 C 49.108 140.699, 38.241 141.382, 37.873 141.779 C 37.132 142.577, 29 172.087, 29 173.979 C 29 174.876, 33.472 175.013, 47.250 174.540 C 74.359 173.608, 70.572 175.785, 78.922 156.335 C 82.845 147.197, 85.930 139.663, 85.777 139.593 C 85.625 139.523, 74.935 139.823, 62.021 140.261" stroke="none" fill="black" fill-rule="evenodd"/>
</svg>