<svg xmlns="http://www.w3.org/2000/svg" width="200" height="200" viewBox="0 0 200 200" version="1.1">
	<path d="M 99 24.011 C 91.874 25.802, 78.372 27.925, 63.500 29.595 C 50.300 31.076, 38.964 32.786, 38.309 33.394 C 37.093 34.523, 18.780 73.118, 19.245 73.573 C 19.385 73.711, 30.300 67.444, 43.500 59.647 L 67.500 45.471 101.161 45.816 L 134.822 46.162 135.509 52.081 C 135.999 56.296, 136.618 58, 137.659 58 C 138.825 58, 138.997 57.033, 138.507 53.250 C 137.257 43.611, 138.156 44.378, 127.269 43.657 C 121.896 43.301, 105.884 43.008, 91.686 43.005 L 65.871 43 47.686 53.846 C 22.235 69.026, 24.505 68.329, 28.431 59.756 C 37.141 40.735, 39.911 35, 40.389 35 C 47.135 35, 88.970 29.194, 98.900 26.880 L 112.299 23.758 135.595 30.517 L 158.892 37.277 166.350 47.888 C 170.690 54.063, 173.325 58.676, 172.654 58.920 C 172.019 59.151, 158.225 63.489, 142 68.559 C 122.649 74.605, 112.400 78.272, 112.210 79.217 C 111.987 80.323, 115.695 81.409, 128.210 83.902 C 144.600 87.166, 153.374 90.391, 159.192 95.290 L 161.817 97.500 157.956 114.187 L 154.095 130.875 159.457 149.577 L 164.818 168.280 161.974 165.390 C 160.409 163.800, 151.940 154.442, 143.154 144.593 L 127.178 126.685 115.089 97.512 C 108.440 81.466, 103 68.037, 103 67.669 C 103 67.301, 107.275 67, 112.500 67 C 117.725 67, 122 66.582, 122 66.072 C 122 64.614, 113.689 64.105, 82.250 63.641 C 59.622 63.306, 53 63.486, 53 64.432 C 53 65.105, 54.071 68.320, 55.379 71.578 C 56.688 74.835, 58.043 78.433, 58.390 79.573 C 58.916 81.296, 56.652 83.716, 44.962 93.927 C 37.230 100.682, 31.093 106.724, 31.326 107.354 C 31.882 108.856, 30.351 109.243, 55.500 101.240 C 67.600 97.390, 78.625 93.906, 80 93.499 C 81.375 93.092, 67.650 103.233, 49.500 116.033 C 31.350 128.834, 16.305 139.471, 16.067 139.670 C 15.828 139.870, 16.074 140.474, 16.612 141.012 C 17.250 141.650, 26.271 139.215, 42.545 134.010 C 56.270 129.620, 67.838 126.022, 68.250 126.014 C 68.662 126.006, 69 128.654, 69 131.897 L 69 137.795 40.993 153.504 C 25.590 162.144, 12.720 169.645, 12.393 170.173 C 12.067 170.701, 12.071 171.405, 12.403 171.736 C 12.735 172.068, 26.221 168.663, 42.373 164.170 C 58.524 159.676, 72.135 156.009, 72.620 156.019 C 73.104 156.029, 71.266 157.440, 68.535 159.154 L 63.571 162.271 87.943 174.135 C 101.348 180.661, 112.625 186, 113.003 186 C 113.381 186, 114.127 171.487, 114.659 153.750 L 115.629 121.500 111.803 105.595 C 109.698 96.847, 108.130 89.537, 108.317 89.350 C 108.504 89.163, 112.214 97.670, 116.561 108.255 C 124.151 126.736, 124.763 127.837, 131.962 136 C 138.201 143.072, 163.217 171.215, 166.141 174.450 C 166.681 175.047, 167.393 175.007, 168.057 174.343 C 168.799 173.601, 167.307 166.997, 163.044 152.154 L 156.976 131.022 160.474 115.261 C 162.399 106.592, 164.195 98.560, 164.465 97.412 C 164.874 95.674, 163.539 94.470, 156.495 90.226 C 148.864 85.628, 146.732 84.871, 134.767 82.511 C 127.470 81.072, 120.825 79.654, 120 79.361 C 119.175 79.068, 131.689 74.705, 147.808 69.664 C 163.928 64.624, 177.156 60.116, 177.205 59.647 C 177.254 59.178, 173.544 53.435, 168.960 46.884 L 160.627 34.974 154.064 33.059 C 150.454 32.007, 139.753 28.862, 130.284 26.073 C 120.814 23.283, 112.489 21.027, 111.784 21.061 C 111.078 21.094, 105.325 22.422, 99 24.011 M 59.087 73.564 C 60.689 77.724, 62 81.476, 62 81.902 C 62 82.530, 48.993 94.294, 39.543 102.212 C 37.226 104.154, 40.226 103.308, 71.994 93.056 C 83.756 89.260, 90.836 87.436, 91.444 88.044 C 92.048 88.648, 92.050 89.312, 91.450 89.846 C 90.927 90.312, 76.208 100.732, 58.740 113.003 C 41.272 125.274, 27.112 135.445, 27.273 135.606 C 27.434 135.767, 37.347 132.771, 49.303 128.949 C 61.258 125.127, 71.274 122, 71.559 122 C 71.844 122, 71.948 125.931, 71.789 130.736 L 71.500 139.472 48.354 152.486 C 35.624 159.644, 25.311 165.612, 25.437 165.749 C 25.563 165.887, 38.558 162.399, 54.316 157.999 C 70.074 153.600, 83.424 150, 83.983 150 C 86.913 150, 84.121 153.003, 77.479 156.994 C 73.365 159.466, 70.024 161.716, 70.053 161.994 C 70.117 162.609, 110.162 182.173, 110.550 181.779 C 110.701 181.625, 111.316 168.225, 111.918 152 L 113.011 122.500 106.351 94.899 L 99.690 67.299 84.686 66.649 C 76.434 66.292, 66.643 66, 62.928 66 L 56.175 66 59.087 73.564" stroke="none" fill="black" fill-rule="evenodd"/>
</svg>