<svg xmlns="http://www.w3.org/2000/svg" width="200" height="200" viewBox="0 0 200 200" version="1.1">
	<path d="M 100.513 36.982 L 86.860 55.131 83.680 52.743 C 81.931 51.429, 73.426 45.333, 64.780 39.195 L 49.059 28.035 36.030 33.101 C 27.839 36.285, 23 38.693, 23 39.583 C 23 40.363, 23.113 40.999, 23.250 40.998 C 23.387 40.997, 28.675 38.944, 35 36.436 C 41.325 33.929, 47.175 31.825, 48 31.762 C 49.263 31.665, 63.653 41.437, 83.091 55.594 L 87.683 58.937 100.555 41.483 C 107.635 31.883, 113.739 24.359, 114.119 24.764 C 114.790 25.480, 128 55.676, 128 56.495 C 128 56.721, 125.787 56.644, 123.082 56.323 C 118.310 55.758, 117.684 56.013, 102.066 64.870 C 93.212 69.892, 85.673 74, 85.313 74 C 84.952 74, 83.835 73.255, 82.829 72.345 C 81.124 70.802, 80.863 70.814, 78.965 72.532 C 76.985 74.323, 76.521 74.300, 61.715 71.669 C 53.347 70.181, 45.766 68.972, 44.869 68.982 C 43.518 68.997, 43.129 70.673, 42.601 78.750 C 42.251 84.112, 41.701 91.537, 41.380 95.250 C 41.060 98.963, 41.180 101.984, 41.649 101.965 C 42.117 101.946, 49.025 98.186, 57 93.609 C 64.975 89.031, 71.610 85.369, 71.743 85.470 C 72.108 85.745, 67.099 162.234, 66.689 162.644 C 66.173 163.160, 30.993 167.998, 27.750 167.999 L 25 168 24.992 152.250 C 24.987 143.588, 24.094 119.175, 23.006 98 C 21.919 76.825, 21.023 57.813, 21.015 55.750 C 21.004 53.090, 20.564 52, 19.500 52 C 17.695 52, 17.693 49.337, 19.524 83.500 C 20.349 98.900, 21.442 124.936, 21.953 141.358 C 22.464 157.780, 23.022 171.335, 23.191 171.480 C 23.995 172.166, 69.391 165.308, 69.627 164.465 C 69.775 163.934, 70.815 148.200, 71.938 129.500 C 74.922 79.814, 74.405 83.344, 79.042 80.979 C 81.175 79.890, 83.848 79, 84.982 79 C 87.138 79, 121.476 105.857, 120.530 106.803 C 120.234 107.099, 118.911 106.326, 117.591 105.085 C 115.286 102.920, 115.165 102.906, 114.581 104.746 C 114.062 106.379, 113.199 106.609, 108.736 106.300 C 89.997 105.004, 76.462 104.233, 76.234 104.448 C 75.902 104.761, 81.888 183.303, 82.583 187.750 C 82.862 189.537, 83.633 190.998, 84.295 190.995 C 84.967 190.992, 92.134 173.064, 100.487 150.495 C 111.418 120.962, 115.895 110, 117.029 110 C 117.884 110, 120.590 112.130, 123.042 114.733 C 125.494 117.336, 126.292 118.411, 124.816 117.121 L 122.133 114.776 121.546 118.138 C 121.010 121.212, 116 165.165, 116 166.796 C 116 167.476, 183.135 167.142, 183.856 166.459 C 184.052 166.273, 180.083 149.257, 175.035 128.645 L 165.859 91.168 160.928 90.490 C 158.217 90.117, 156.231 89.435, 156.516 88.975 C 156.800 88.514, 162.202 85.136, 168.521 81.467 C 174.839 77.798, 180.252 74.402, 180.550 73.920 C 180.847 73.438, 179.158 68.512, 176.796 62.973 L 172.500 52.903 157.088 37.730 C 143.681 24.531, 141.574 22.814, 140.891 24.529 C 140.459 25.613, 138.499 38.425, 136.536 53 C 134.573 67.575, 132.733 80.648, 132.448 82.050 L 131.929 84.601 112.214 80.848 C 101.371 78.784, 91.397 77.073, 90.050 77.047 C 88.541 77.018, 87.965 76.648, 88.550 76.084 C 90.133 74.558, 118.426 58.686, 119.500 58.721 C 120.050 58.740, 123.286 59.090, 126.691 59.500 L 132.882 60.245 124.098 40.113 C 119.267 29.040, 115.056 19.722, 114.740 19.407 C 114.425 19.092, 108.023 27, 100.513 36.982 M 142.606 30.712 C 141.050 38.337, 135.059 84.393, 135.559 84.893 C 136.282 85.615, 146.720 87.850, 149.774 87.936 C 151.025 87.971, 157.858 84.585, 164.958 80.411 C 175.078 74.463, 177.735 72.463, 177.251 71.161 C 176.911 70.247, 175.028 65.882, 173.066 61.459 C 169.789 54.070, 168.434 52.387, 156.338 40.671 C 143.518 28.255, 143.161 27.996, 142.606 30.712 M 45.608 76.250 C 44.597 84.602, 44.074 97, 44.734 97 C 45.103 97, 51.276 93.650, 58.452 89.556 C 67.496 84.397, 71.863 81.310, 72.683 79.499 C 73.593 77.487, 73.593 76.798, 72.683 76.506 C 71.379 76.087, 47.912 72, 46.811 72 C 46.432 72, 45.891 73.912, 45.608 76.250 M 93 80.282 C 93.275 80.574, 100.250 86.220, 108.500 92.829 L 123.500 104.845 126.481 102.975 C 129.601 101.018, 130.274 99.471, 131.297 91.911 L 131.918 87.321 114.209 84.103 C 104.469 82.332, 95.600 80.629, 94.500 80.318 C 93.400 80.006, 92.725 79.990, 93 80.282 M 133.664 93.191 C 133.326 96.046, 133.170 98.504, 133.319 98.652 C 133.467 98.800, 136.718 97.046, 140.544 94.753 L 147.500 90.585 141.500 89.336 C 138.200 88.649, 135.225 88.068, 134.889 88.044 C 134.553 88.020, 134.002 90.336, 133.664 93.191 M 141.250 97.510 C 133.766 102.011, 132 103.524, 132 105.434 C 132 107.765, 132.173 107.804, 145.750 108.527 C 153.313 108.930, 160.281 109.546, 161.236 109.897 C 162.581 110.390, 160.479 112.540, 151.916 119.432 L 140.859 128.331 153.556 141.056 C 169.102 156.637, 169.574 160.164, 154.319 146.764 C 148.519 141.669, 142.228 136.213, 140.340 134.639 L 136.907 131.778 131.038 136.389 C 127.810 138.925, 124.990 141, 124.771 141 C 124.552 141, 124.940 136.850, 125.634 131.777 C 126.594 124.759, 126.616 122.381, 125.727 121.831 C 125.084 121.434, 124.400 121.267, 124.206 121.460 C 123.620 122.046, 118.916 164.249, 119.384 164.718 C 119.624 164.957, 133.530 164.829, 150.286 164.432 L 180.752 163.710 179.544 158.605 C 170.352 119.783, 163.516 94.028, 162.277 93.553 C 161.481 93.247, 158.506 92.761, 155.665 92.472 C 150.772 91.973, 150.013 92.239, 141.250 97.510 M 127.166 105.876 C 126.092 106.557, 126.141 106.840, 127.416 107.329 C 128.418 107.714, 129 107.398, 129 106.469 C 129 104.769, 128.942 104.750, 127.166 105.876 M 79.010 107.845 C 79.061 111.193, 84.964 182.297, 85.211 182.545 C 85.392 182.725, 91.665 166.364, 99.153 146.186 L 112.766 109.500 104.133 108.859 C 85.593 107.481, 79 107.215, 79.010 107.845 M 125 112.500 C 126.292 113.875, 127.495 115, 127.674 115 C 127.853 115, 128 113.875, 128 112.500 C 128 110.457, 127.512 110, 125.326 110 L 122.651 110 125 112.500 M 130.811 114.490 C 130.457 117.524, 130.959 118.525, 134.655 122.152 C 137.746 125.185, 139.259 126.054, 140.203 125.337 C 140.916 124.794, 144.795 121.684, 148.822 118.425 L 156.144 112.500 151.322 111.838 C 148.670 111.473, 143.062 111.136, 138.859 111.088 L 131.219 111 130.811 114.490 M 128.628 129.696 C 128.279 132.243, 128.136 134.469, 128.309 134.643 C 128.483 134.816, 130.035 133.730, 131.759 132.229 L 134.892 129.500 132.077 127.283 L 129.263 125.066 128.628 129.696" stroke="none" fill="black" fill-rule="evenodd"/>
</svg>