<svg xmlns="http://www.w3.org/2000/svg" width="200" height="200" viewBox="0 0 200 200" version="1.1">
	<path d="M 95.694 5.750 C 95.460 6.162, 92.672 14.375, 89.498 24 C 86.324 33.625, 83.556 41.695, 83.347 41.933 C 83.139 42.171, 73.537 41.098, 62.010 39.549 L 41.052 36.732 31.276 45.771 C 19.874 56.314, 15.478 60.825, 16.073 61.371 C 16.308 61.586, 22.194 62.716, 29.154 63.882 L 41.807 66.001 56.654 56.934 C 64.819 51.947, 72.625 47.093, 74 46.147 C 75.862 44.866, 77.607 44.585, 80.840 45.043 C 84.623 45.579, 85.279 45.392, 85.953 43.579 C 86.378 42.436, 88.914 34.862, 91.587 26.750 C 94.261 18.637, 96.718 12, 97.048 12 C 97.378 12, 100.539 17.253, 104.074 23.674 C 107.608 30.095, 111.175 36.139, 112 37.105 C 113.131 38.430, 116.697 39.244, 126.500 40.418 C 145.900 42.742, 179 48.286, 179 49.212 C 179 49.658, 173.488 55.580, 166.750 62.372 L 154.500 74.722 138.778 76.535 C 130.131 77.531, 122.594 78.633, 122.028 78.983 C 121.462 79.333, 119.411 86.567, 117.470 95.059 C 115.530 103.552, 113.685 111.333, 113.371 112.351 C 112.874 113.966, 113.197 114.116, 115.900 113.522 C 117.605 113.147, 119 113.241, 119 113.730 C 119 120.145, 97.722 187, 95.680 187 C 94.991 187, 69.026 168.845, 61.260 162.933 C 59.071 161.267, 59.323 161.153, 72.260 157.980 C 79.542 156.194, 85.787 154.455, 86.138 154.116 C 86.849 153.430, 83.677 111.344, 82.853 110.519 C 82.566 110.233, 72.919 110.667, 61.416 111.485 C 36.243 113.274, 34.286 113.314, 35.581 112.019 C 36.121 111.479, 48.923 110.292, 64.031 109.380 C 79.139 108.468, 91.671 107.576, 91.879 107.398 C 92.087 107.221, 86.889 100.646, 80.327 92.788 C 73.765 84.929, 68.035 77.904, 67.593 77.175 C 66.931 76.083, 70.346 75.978, 87.006 76.574 L 107.223 77.298 128.104 70.899 C 139.589 67.380, 148.989 64.189, 148.993 63.809 C 148.997 63.430, 145.504 59.435, 141.231 54.932 L 133.462 46.745 107.061 47.623 C 86.167 48.317, 80.566 48.786, 80.207 49.871 C 79.826 51.020, 83.701 51.130, 104.126 50.550 C 117.532 50.169, 129.223 49.655, 130.106 49.407 C 131.124 49.121, 134.124 51.428, 138.297 55.704 C 141.918 59.416, 144.769 62.565, 144.631 62.702 C 144.494 62.840, 135.858 65.554, 125.441 68.734 L 106.500 74.516 90.500 73.858 C 63.885 72.763, 54.782 72.847, 55.228 74.184 C 55.445 74.836, 57.719 76.073, 60.282 76.934 C 64.348 78.301, 66.295 80.128, 75.589 91.298 C 81.446 98.337, 85.968 104.366, 85.638 104.695 C 85.308 105.025, 74.117 105.951, 60.769 106.753 C 37.457 108.153, 36.325 108.317, 32.069 110.897 C 22.629 116.621, 24.415 116.863, 58.476 114.468 C 70.462 113.625, 80.377 113.062, 80.511 113.218 C 80.917 113.692, 83.825 151.476, 83.482 151.835 C 83.306 152.020, 76.544 153.914, 68.455 156.045 C 60.366 158.176, 53.617 160.050, 53.459 160.210 C 53.197 160.473, 93.469 189.519, 96.461 191.225 C 98.164 192.196, 113.600 147.929, 118.596 127.750 L 122.248 113 125.252 113 C 128.790 113, 171.744 116.722, 177.369 117.516 C 180.467 117.953, 181.128 117.775, 180.685 116.621 C 179.466 113.446, 166.414 96.098, 165.209 96.050 C 164.498 96.023, 153.540 99.179, 140.857 103.065 C 128.174 106.951, 117.623 109.957, 117.411 109.744 C 117.118 109.452, 122.905 82.032, 123.400 81.365 C 123.455 81.290, 130.925 80.278, 140 79.115 L 156.500 77 170.732 62.250 C 182.293 50.267, 184.638 47.365, 183.232 46.780 C 179.844 45.370, 119.960 36.001, 114.332 36 C 114.240 36, 110.258 29.025, 105.484 20.500 C 100.710 11.975, 96.650 5, 96.461 5 C 96.272 5, 95.927 5.338, 95.694 5.750 M 30.664 49.836 L 20.865 59.671 31.026 61.359 L 41.186 63.046 56.489 53.773 C 64.905 48.673, 71.613 44.312, 71.395 44.082 C 70.840 43.498, 47.161 40.058, 43.481 40.026 C 40.977 40.004, 38.793 41.676, 30.664 49.836 M 145.500 104.480 C 132.887 108.417, 129.145 109.933, 131 110.357 C 135.380 111.357, 174.022 114.311, 174.641 113.693 C 175.513 112.820, 165.586 99.528, 163.919 99.337 C 163.139 99.248, 154.850 101.562, 145.500 104.480" stroke="none" fill="black" fill-rule="evenodd"/>
</svg>