<svg xmlns="http://www.w3.org/2000/svg" width="200" height="200" viewBox="0 0 200 200" version="1.1">
	<path d="M 133 23.500 L 119.500 30.970 100 31.053 C 78.631 31.144, 46.613 33.054, 45.354 34.313 C 43.151 36.516, 50.285 36.970, 87.250 36.985 C 121.145 36.998, 127 36.788, 127 35.563 C 127 34.673, 125.763 34.007, 123.750 33.813 C 120.790 33.528, 121.691 32.847, 133.833 26.196 C 145.290 19.920, 147.400 19.075, 148.833 20.194 C 149.750 20.910, 154.663 24.959, 159.752 29.192 L 169.004 36.889 158.252 42.558 C 138.617 52.911, 112.512 67.155, 111.644 67.989 C 111.174 68.441, 112.426 76.325, 114.427 85.508 L 118.066 102.205 114.572 111.649 L 111.077 121.094 112.224 140.450 L 113.371 159.806 102.023 172.153 C 95.781 178.944, 90.440 184.500, 90.154 184.500 C 89.867 184.500, 83.922 179.325, 76.942 173 C 65.126 162.292, 60.667 157.046, 62.670 156.205 C 63.126 156.013, 68.900 153.976, 75.500 151.678 L 87.500 147.500 88.176 143 C 88.548 140.525, 88.885 131.020, 88.926 121.878 L 89 105.257 76.750 101.878 C 64.706 98.557, 64.198 98.504, 46.500 98.728 L 28.500 98.955 32.692 96.569 L 36.883 94.182 56.192 96.583 C 66.811 97.904, 76.201 98.988, 77.058 98.992 C 78.143 98.998, 79.919 95.402, 82.897 87.170 L 87.178 75.340 98.220 69.920 C 109.175 64.543, 109.356 64.396, 121.131 51.332 C 132.114 39.146, 134.374 36, 132.142 36 C 131.670 36, 125.987 41.881, 119.513 49.070 C 107.832 62.039, 107.655 62.183, 96.401 67.785 L 85.059 73.430 80.877 84.715 C 77.350 94.233, 76.367 95.994, 74.598 95.959 C 73.444 95.936, 64.400 94.864, 54.500 93.577 L 36.500 91.236 29.250 95.317 C 17.798 101.763, 18.753 102.238, 41.493 101.412 L 60.987 100.703 73.514 104.004 L 86.042 107.304 85.771 126.315 L 85.500 145.325 72.560 149.652 C 65.444 152.032, 59.184 154.416, 58.651 154.949 C 56.872 156.728, 62.573 163.499, 76.493 176.140 C 83.978 182.938, 90.326 188.407, 90.600 188.294 C 90.873 188.181, 96.700 181.959, 103.549 174.467 C 117.838 158.833, 116.657 162.668, 114.881 137.668 L 113.757 121.835 118.015 110.343 L 122.274 98.850 126.887 99.424 C 129.424 99.740, 138.410 100.694, 146.856 101.545 C 164.464 103.318, 162.297 103.955, 173.412 93.735 L 180.325 87.380 165.912 84.798 L 151.500 82.217 136.782 89.108 C 128.686 92.899, 121.476 96, 120.758 96 C 119.892 96, 118.514 91.586, 116.667 82.893 C 115.135 75.684, 114.020 69.648, 114.191 69.480 C 114.596 69.080, 148.372 50.874, 162.728 43.317 L 173.957 37.407 161.062 26.704 C 153.969 20.817, 147.792 16.007, 147.333 16.015 C 146.875 16.023, 140.425 19.392, 133 23.500 M 139.500 90.921 C 132.900 94.169, 128.400 96.875, 129.500 96.933 C 130.600 96.992, 137.575 97.697, 145 98.500 C 152.425 99.303, 159.400 99.949, 160.500 99.934 C 161.600 99.920, 165.140 97.510, 168.366 94.579 L 174.231 89.250 164.866 87.555 C 159.715 86.622, 154.600 85.670, 153.500 85.438 C 152.373 85.200, 146.262 87.594, 139.500 90.921" stroke="none" fill="black" fill-rule="evenodd"/>
</svg>