<svg xmlns="http://www.w3.org/2000/svg" width="200" height="200" viewBox="0 0 200 200" version="1.1">
	<path d="M 92 27.174 L 87.500 43.324 80.750 45.596 C 77.037 46.846, 74 47.525, 74 47.105 C 74 46.685, 76.700 40.113, 80 32.500 C 83.300 24.887, 86 18.252, 86 17.756 C 86 14.897, 82.324 18.796, 76.105 28.250 C 72.216 34.163, 68.449 39, 67.735 39 C 67.021 39, 56.115 40.350, 43.500 42 C 30.885 43.650, 19.949 45, 19.199 45 C 17.087 45, 17.894 46.116, 26.767 55.462 L 35.034 64.169 42.693 61.594 C 46.906 60.178, 50.526 59.192, 50.738 59.404 C 50.949 59.616, 46.565 68.394, 40.996 78.911 L 30.868 98.032 31.566 108.766 L 32.263 119.500 42.695 132.821 C 51.785 144.428, 52.960 146.358, 51.828 147.821 C 50.778 149.179, 29.791 172.569, 19.215 184.169 C 15.890 187.816, 17.187 189.650, 21.329 187.158 C 62.558 162.357, 73.770 155.469, 75.102 154.121 C 75.983 153.230, 82.508 140.246, 89.602 125.269 L 102.500 98.038 103.123 108.769 C 103.465 114.671, 103.803 124.839, 103.873 131.365 L 104 143.230 120.621 167.365 C 129.762 180.639, 137.368 191.643, 137.523 191.819 C 137.677 191.994, 150.923 183.492, 166.958 172.925 C 187.631 159.302, 195.802 153.402, 195.045 152.645 C 194.287 151.887, 187.362 152.376, 171.238 154.325 C 158.732 155.837, 148.003 157.057, 147.395 157.037 C 146.787 157.017, 142.536 145.841, 137.948 132.202 L 129.606 107.404 134.146 103.220 C 136.642 100.918, 139.881 98.095, 141.343 96.945 L 144 94.855 144 120.627 C 144 138.441, 144.321 146.079, 145.038 145.362 C 147.165 143.235, 183.858 82.490, 183.166 82.241 C 182.770 82.099, 170.734 79.153, 156.420 75.695 L 130.393 69.409 111.274 73.567 C 95.216 77.060, 91.322 77.594, 86.951 76.903 C 84.089 76.451, 81.642 75.950, 81.514 75.790 C 81.386 75.631, 83.178 68.784, 85.498 60.575 C 88.804 48.873, 90.143 45.491, 91.700 44.915 C 92.792 44.511, 97.019 44.794, 101.093 45.543 C 105.167 46.292, 123.350 49.638, 141.500 52.979 C 159.650 56.319, 175.128 59.153, 175.896 59.276 C 176.664 59.399, 177.475 58.980, 177.698 58.344 C 177.944 57.645, 176.050 56.747, 172.910 56.074 C 161.199 53.563, 96.292 41.847, 93.674 41.772 C 91.590 41.713, 90.963 41.272, 91.286 40.096 C 91.528 39.218, 93.222 33.190, 95.050 26.700 L 98.375 14.899 112.937 29.396 L 127.500 43.893 154.226 40.637 C 168.926 38.846, 181.263 37.070, 181.643 36.690 C 183.610 34.723, 178.750 34.921, 154.764 37.782 L 128.540 40.909 113.389 25.955 C 105.056 17.730, 97.847 11.005, 97.369 11.012 C 96.891 11.018, 94.475 18.291, 92 27.174 M 73.631 36.981 C 72.182 39.171, 69.985 41.180, 68.748 41.445 C 67.512 41.711, 57.050 43.099, 45.500 44.530 C 33.950 45.961, 24.214 47.215, 23.864 47.316 C 23.514 47.417, 26.015 50.535, 29.422 54.244 L 35.615 60.987 44.558 57.974 C 53.291 55.030, 53.570 54.838, 56.500 49.730 L 59.500 44.500 59.816 48.342 C 60.113 51.961, 60.287 52.145, 62.816 51.518 C 68.854 50.020, 70.279 48.592, 73.563 40.750 C 75.348 36.487, 76.687 33, 76.537 33 C 76.388 33, 75.080 34.792, 73.631 36.981 M 78.301 49.268 L 72.102 51.352 67.542 61.926 C 65.034 67.742, 62.986 72.792, 62.991 73.149 C 62.998 73.669, 74.732 75.281, 77.740 75.174 C 78.473 75.148, 85.923 50.791, 85.975 48.250 C 86.006 46.701, 85.890 46.716, 78.301 49.268 M 63.750 54.162 C 61.428 55.010, 61.002 55.738, 61.014 58.833 C 61.021 60.850, 61.310 63.557, 61.656 64.849 C 62.194 66.858, 62.699 66.229, 65.143 60.500 C 66.714 56.816, 68 53.622, 68 53.401 C 68 52.821, 66.867 53.024, 63.750 54.162 M 56.426 56.782 C 55.836 57.177, 50.549 66.613, 44.676 77.752 C 34.587 96.891, 34.004 98.319, 34.073 103.752 C 34.237 116.684, 35.013 118.867, 43.064 129.048 C 47.174 134.247, 51.943 140.303, 53.661 142.508 L 56.784 146.515 47.336 157.008 C 25.106 181.693, 25.238 181.533, 28.815 179.440 C 30.637 178.373, 41.432 171.855, 52.802 164.955 L 73.476 152.409 88.427 121.205 C 96.797 103.735, 103.955 90, 104.689 90 C 105.735 90, 106 95.057, 106 115.066 C 106 131.915, 106.374 140.847, 107.142 142.316 C 108.953 145.779, 138.063 188, 138.640 188 C 139.443 188, 188.102 155.768, 187.782 155.448 C 187.626 155.293, 178.724 156.246, 168 157.567 C 157.275 158.888, 147.600 159.971, 146.500 159.975 C 144.777 159.981, 143.284 156.411, 135.738 134.241 C 130.919 120.083, 127.021 107.825, 127.075 107 C 127.163 105.647, 145.031 89, 146.395 89 C 146.708 89, 147.085 99.742, 147.232 112.870 L 147.500 136.740 163.352 110.805 C 172.070 96.541, 178.960 84.626, 178.662 84.328 C 178.364 84.031, 167.302 81.182, 154.080 77.999 L 130.040 72.211 112.270 76.192 C 97.139 79.582, 93.450 80.082, 87.428 79.561 L 80.357 78.949 74.045 101.498 C 68.274 122.112, 66.781 126.114, 65.381 124.715 C 64.883 124.216, 60.288 83.036, 59.333 70.500 C 58.538 60.073, 57.665 55.953, 56.426 56.782 M 62.998 77.943 C 62.994 80.864, 66.059 110.492, 66.625 113 C 67.032 114.806, 68.540 110.781, 72.057 98.500 C 74.735 89.150, 76.942 80.776, 76.963 79.891 C 76.992 78.649, 75.402 78.065, 70 77.334 C 63.925 76.512, 63 76.592, 62.998 77.943" stroke="none" fill="black" fill-rule="evenodd"/>
</svg>