<svg xmlns="http://www.w3.org/2000/svg" width="200" height="200" viewBox="0 0 200 200" version="1.1">
	<path d="M 97.678 21.656 C 97.305 22.028, 97 26.308, 97 31.167 L 97 40 85.654 40 C 79.413 40, 70.076 40.288, 64.904 40.639 C 59.732 40.991, 55.738 41.015, 56.030 40.693 C 56.321 40.371, 62.171 38.328, 69.030 36.153 C 77.328 33.522, 81.606 31.676, 81.817 30.634 C 82.100 29.233, 81.626 29.215, 77.317 30.463 C 74.668 31.230, 58.775 35.529, 42 40.016 C 25.225 44.504, 11.376 48.297, 11.224 48.446 C 11.073 48.596, 21.279 55.829, 33.905 64.521 L 56.862 80.325 53.309 87.380 C 51.354 91.261, 47.608 98.303, 44.984 103.029 C 40.170 111.699, 21.382 157.715, 22.287 158.620 C 22.555 158.888, 28.338 156.782, 35.137 153.938 C 41.937 151.095, 48.603 148.347, 49.952 147.832 C 52.348 146.917, 52.363 146.941, 50.605 148.884 C 48.846 150.827, 48.882 150.885, 52.153 151.414 C 53.994 151.711, 62.475 152.643, 71 153.484 C 79.525 154.324, 88.029 155.267, 89.898 155.579 L 93.296 156.146 92.610 170.669 C 92.160 180.202, 92.267 185.073, 92.923 184.846 C 94.287 184.374, 125.885 157.648, 125.949 156.913 C 125.977 156.590, 120.037 155.765, 112.750 155.079 C 105.463 154.393, 98.713 153.615, 97.750 153.349 C 96.298 152.948, 96 151.684, 96 145.933 C 96 142.120, 96.112 138.949, 96.250 138.886 C 96.388 138.823, 102.242 138.486, 109.260 138.136 L 122.020 137.500 115.510 127.772 C 111.929 122.422, 109 117.810, 109 117.524 C 109 117.237, 121.262 126.580, 136.250 138.286 C 172.416 166.534, 170.941 165.459, 172.026 164.374 C 172.604 163.796, 168.770 156.461, 161.954 145.104 L 150.948 126.767 158.506 117.929 L 166.065 109.091 158.155 104.529 L 150.246 99.967 148.592 89.348 C 147.682 83.507, 147.064 78.648, 147.219 78.549 C 147.374 78.450, 150.935 75.600, 155.133 72.216 C 161.159 67.358, 162.883 65.372, 163.325 62.782 C 164.872 53.697, 167.321 32.987, 166.897 32.564 C 166.503 32.170, 120.417 24.560, 105.500 22.426 C 103.300 22.111, 100.792 21.657, 99.928 21.416 C 99.063 21.175, 98.050 21.283, 97.678 21.656 M 100 32.217 L 100 40.157 115.810 39.902 C 124.506 39.762, 132.111 39.951, 132.712 40.322 C 133.816 41.004, 146 60.351, 146 61.422 C 146 61.740, 145.438 61.999, 144.750 61.998 C 144.063 61.996, 141.714 59.071, 139.532 55.498 C 137.349 51.924, 135.099 49.004, 134.532 49.009 C 133.244 49.020, 109.002 51.759, 103.250 52.543 L 99 53.123 99 59 L 99 64.877 103.750 65.577 C 112.767 66.906, 112.717 66.410, 105.016 77.977 C 100.381 84.938, 98.445 88.657, 99.212 89.131 C 99.845 89.522, 103.211 90.379, 106.694 91.037 C 110.176 91.694, 113.249 92.594, 113.523 93.037 C 113.797 93.480, 110.195 97.365, 105.518 101.671 L 97.016 109.500 97.008 122.750 L 97 136 100.250 135.993 C 102.037 135.989, 106.484 135.704, 110.130 135.359 L 116.761 134.733 109.302 123.293 C 105.139 116.909, 102.086 111.219, 102.393 110.417 C 102.991 108.860, 101.919 108.075, 142.500 139.786 C 155.150 149.671, 165.624 157.652, 165.776 157.520 C 165.928 157.389, 161.990 150.473, 157.026 142.153 C 152.062 133.832, 148 126.758, 148 126.433 C 148 126.108, 150.925 122.488, 154.500 118.389 C 158.075 114.290, 161 110.609, 161 110.210 C 161 109.810, 157.981 107.671, 154.291 105.457 L 147.583 101.430 145.801 89.539 C 144.820 82.999, 144.127 77.586, 144.259 77.509 C 148.042 75.312, 160.128 64.270, 160.481 62.689 C 161.173 59.585, 164 38.285, 164 36.171 C 164 34.644, 160.783 33.903, 139.750 30.585 C 126.412 28.480, 112.013 26.200, 107.750 25.518 L 100 24.277 100 32.217 M 30.254 45.928 L 17.009 49.564 38.504 64.399 C 50.327 72.558, 60 79.414, 60 79.634 C 60 80.345, 49.308 101.319, 45.754 107.579 C 43.008 112.415, 33.444 135.290, 27.132 152.116 C 26.170 154.684, 26.417 154.621, 40.326 148.798 C 48.121 145.535, 55.725 142.332, 57.222 141.682 C 58.719 141.032, 67.860 133.124, 77.535 124.109 L 95.127 107.718 94.973 98.109 C 94.889 92.824, 95.150 83.725, 95.553 77.888 L 96.287 67.276 92.894 66.697 C 91.027 66.378, 77.688 64.189, 63.250 61.832 C 26.750 55.874, 27.159 55.380, 71 52.460 C 83.925 51.599, 95.063 50.708, 95.750 50.479 C 96.446 50.247, 97 48.444, 97 46.414 L 97 42.766 71.250 43.133 C 57.087 43.335, 45.050 43.228, 44.500 42.896 C 43.950 42.564, 37.539 43.928, 30.254 45.928 M 107.250 42.744 L 99 43.081 99 46.669 L 99 50.258 103.750 49.657 C 106.362 49.326, 113.675 48.529, 120 47.885 C 126.325 47.241, 131.908 46.347, 132.408 45.899 C 132.942 45.420, 132.788 44.450, 132.035 43.542 C 130.719 41.957, 128.376 41.881, 107.250 42.744 M 87.500 54.038 C 83.650 54.453, 74.313 55.128, 66.750 55.537 C 59.188 55.946, 53 56.555, 53.001 56.890 C 53.001 57.390, 92.769 64.105, 95.250 64.024 C 95.662 64.011, 96 61.525, 96 58.500 C 96 55.475, 95.662 53.064, 95.250 53.142 C 94.838 53.220, 91.350 53.623, 87.500 54.038 M 98.651 72.533 C 98.293 75.143, 98 78.674, 98 80.379 C 98 83.303, 98.260 83.091, 102.580 76.652 C 105.098 72.898, 106.954 69.621, 106.703 69.370 C 106.453 69.120, 104.685 68.661, 102.774 68.351 L 99.301 67.787 98.651 72.533 M 98 98.716 L 98 105.432 103.526 99.974 L 109.052 94.517 104.276 93.278 C 101.649 92.596, 99.162 92.030, 98.750 92.019 C 98.338 92.009, 98 95.022, 98 98.716 M 80.826 124.752 C 73.855 131.205, 68.230 136.530, 68.326 136.584 C 68.422 136.638, 74.237 136.475, 81.250 136.221 L 94 135.759 94 124.379 C 94 118.121, 93.888 113.004, 93.750 113.009 C 93.612 113.014, 87.797 118.298, 80.826 124.752 M 66.244 140.976 C 61.640 143.066, 54.680 148.013, 55.372 148.705 C 55.805 149.139, 92.324 153.056, 92.580 152.697 C 92.658 152.589, 92.992 149.463, 93.323 145.750 L 93.925 139 82.212 139.022 C 72.806 139.040, 69.662 139.424, 66.244 140.976 M 95.476 167.547 C 95.079 173.895, 94.922 179.243, 95.127 179.432 C 95.332 179.621, 101.077 174.988, 107.893 169.138 L 120.285 158.500 113.393 157.833 C 109.602 157.467, 104.182 156.905, 101.348 156.586 L 96.197 156.006 95.476 167.547" stroke="none" fill="black" fill-rule="evenodd"/>
</svg>