<svg xmlns="http://www.w3.org/2000/svg" width="200" height="200" viewBox="0 0 200 200" version="1.1">
	<path d="M 108.677 21.578 C 99.043 26.969, 98.641 27.092, 87.677 28.040 C 71.441 29.443, 68 29.995, 68 31.197 C 68 31.943, 71.591 32.051, 79.750 31.550 C 86.213 31.153, 91.275 31.027, 91 31.270 C 90.725 31.513, 81.725 36.565, 71 42.497 C 60.275 48.428, 51.086 53.517, 50.580 53.805 C 50.074 54.093, 49.954 53.562, 50.314 52.625 C 50.821 51.303, 49.285 49.865, 43.461 46.211 C 39.333 43.620, 32.343 39.217, 27.928 36.426 L 19.901 31.352 45.200 27.049 C 59.115 24.682, 70.877 22.527, 71.337 22.260 C 71.798 21.993, 71.753 21.353, 71.239 20.839 C 70.462 20.062, 19.440 27.891, 14.092 29.607 C 13.317 29.855, 20.396 34.883, 29.822 40.779 C 39.248 46.676, 46.969 52.026, 46.980 52.668 C 46.991 53.311, 41.997 66.504, 35.882 81.985 L 24.764 110.134 26.416 128.317 C 28.141 147.313, 33.562 187.095, 34.881 190.435 C 35.447 191.871, 39.050 183.862, 48.840 159.401 L 62.034 126.432 73.065 115.466 C 79.131 109.435, 83.854 105.175, 83.561 106 C 82.327 109.465, 62.062 186.395, 62.316 186.649 C 62.469 186.802, 70.584 178.928, 80.349 169.151 L 98.104 151.376 103.011 115.438 C 106.673 88.621, 108.731 76.770, 111.119 68.743 C 112.879 62.827, 114.516 58.182, 114.755 58.422 C 114.995 58.662, 115.831 73.219, 116.613 90.770 L 118.034 122.683 108.085 146.592 L 98.135 170.500 122.318 171.230 C 135.618 171.631, 155.016 172.640, 165.425 173.472 C 175.833 174.303, 184.571 174.762, 184.842 174.491 C 185.114 174.220, 181.150 160.161, 176.034 143.249 L 166.733 112.500 162.474 76.983 C 158.129 40.750, 154.232 21, 151.428 21 C 150.226 21, 149.764 22.654, 147.238 36 C 146.495 39.925, 146.074 40.485, 143.943 40.381 C 137.340 40.058, 93 34.530, 93 34.030 C 93 33.714, 94.485 32.655, 96.301 31.677 C 98.729 30.370, 104.870 29.449, 119.538 28.194 C 143.941 26.106, 145.187 25.173, 130.280 20.148 C 124.901 18.334, 120.050 16.678, 119.500 16.467 C 118.950 16.256, 114.080 18.556, 108.677 21.578 M 112.500 22.646 L 106.500 26.142 117 25.514 C 131.244 24.662, 132.588 24.188, 126.959 21.998 C 119.155 18.961, 118.798 18.977, 112.500 22.646 M 150.548 33.527 C 150.158 36.128, 149.602 38.875, 149.311 39.631 C 148.957 40.553, 149.808 41.212, 151.892 41.628 L 155 42.250 154.982 77.875 L 154.963 113.500 150.027 132.371 C 147.312 142.751, 144.838 151.496, 144.529 151.805 C 142.869 153.464, 141.853 147.963, 139.115 122.500 L 136.105 94.500 140.900 69.500 C 145.159 47.300, 145.517 44.423, 144.098 43.813 C 141.921 42.877, 88.011 36.656, 87.397 37.270 C 87.128 37.539, 84.507 50.659, 81.574 66.426 C 78.640 82.193, 76.051 95.282, 75.820 95.513 C 75.589 95.745, 69.572 86.988, 62.450 76.054 C 55.327 65.119, 49.243 56.472, 48.929 56.837 C 48.615 57.202, 43.703 69.390, 38.014 83.921 L 27.669 110.342 29.380 129.421 C 30.904 146.415, 35.538 180.872, 36.419 181.752 C 36.604 181.938, 41.821 169.357, 48.012 153.795 L 59.267 125.500 73.836 110.785 C 81.848 102.692, 88.512 96.178, 88.643 96.310 C 88.775 96.442, 85.576 108.913, 81.536 124.025 C 77.495 139.136, 72.580 157.561, 70.613 164.968 L 67.037 178.437 81.289 164.211 L 95.541 149.984 100.488 113.742 C 104.941 81.123, 105.898 76, 110.065 62.500 C 113.153 52.495, 115.162 47.500, 116.097 47.500 C 117.247 47.500, 117.795 54.326, 119.140 85.412 L 120.779 123.325 111.566 145.412 L 102.354 167.500 121.427 168.246 C 131.917 168.657, 149.696 169.661, 160.935 170.478 C 172.174 171.295, 181.453 171.859, 181.553 171.732 C 181.654 171.604, 177.765 158.450, 172.912 142.500 L 164.087 113.500 160.013 79 C 154.946 36.099, 152.166 22.741, 150.548 33.527 M 67.772 47.303 C 59.671 51.812, 53.033 55.800, 53.022 56.167 C 52.982 57.380, 74.414 89.260, 74.671 88.371 C 74.809 87.892, 76.765 77.375, 79.017 65 C 81.269 52.625, 83.342 41.712, 83.623 40.750 C 83.905 39.788, 83.767 39.024, 83.317 39.053 C 82.868 39.083, 75.872 42.795, 67.772 47.303 M 143.676 69.766 L 138.852 95.531 141.439 118.445 C 142.862 131.048, 144.177 141.511, 144.362 141.695 C 144.546 141.879, 146.340 135.609, 148.348 127.761 L 152 113.491 152 78.745 C 152 46.321, 151.883 44, 150.250 44 C 148.753 44.001, 147.801 47.732, 143.676 69.766" stroke="none" fill="black" fill-rule="evenodd"/>
</svg>