<svg xmlns="http://www.w3.org/2000/svg" width="200" height="200" viewBox="0 0 200 200" version="1.1">
	<path d="M 99.679 13.245 C 99.383 14.485, 98.827 19.775, 98.445 25 C 98.063 30.225, 97.301 35.063, 96.753 35.750 C 94.780 38.222, 93.225 36.988, 92.538 32.403 C 91.861 27.893, 91.788 27.816, 88.674 28.356 C 86.928 28.659, 81.675 29.418, 77 30.044 C 70.500 30.914, 62.443 33.454, 42.754 40.841 C 28.593 46.153, 17.006 50.735, 17.004 51.021 C 17.002 51.308, 22.367 52.461, 28.927 53.584 L 40.854 55.625 55.177 51.346 C 63.055 48.993, 69.828 47.165, 70.229 47.284 C 70.630 47.403, 62.605 59.349, 52.394 73.832 C 42.184 88.314, 34.049 100.382, 34.316 100.649 C 34.582 100.916, 39.896 99.520, 46.125 97.548 L 57.448 93.963 65.929 102.443 C 70.593 107.108, 74.205 111.093, 73.955 111.300 C 73.705 111.507, 62.700 116.322, 49.500 121.998 C 36.300 127.675, 22.575 133.636, 19 135.244 L 12.500 138.168 32.549 148.334 C 47.271 155.799, 55.709 160.825, 64.307 167.250 C 74.609 174.948, 76.513 176, 80.147 176 L 84.278 176 83.727 182.075 C 83.221 187.658, 83.311 188.039, 84.838 186.766 C 85.752 186.005, 88.750 183.576, 91.500 181.370 L 96.500 177.358 111 178.605 C 118.975 179.290, 126.907 179.885, 128.627 179.926 C 131.519 179.994, 132.616 178.852, 143.203 164.750 C 149.500 156.362, 161.049 141.400, 168.866 131.500 C 178.674 119.078, 182.604 113.400, 181.548 113.178 C 180.706 113.001, 167.381 110.456, 151.936 107.523 C 136.492 104.589, 123.710 102.034, 123.532 101.845 C 123.354 101.655, 129.056 91.906, 136.202 80.181 C 143.348 68.456, 148.968 58.634, 148.690 58.356 C 148.411 58.078, 137.093 58.834, 123.537 60.037 C 109.981 61.240, 98.641 61.974, 98.336 61.670 C 97.795 61.128, 99.543 40.124, 100.183 39.484 C 100.361 39.305, 112.298 42.187, 126.710 45.888 L 152.912 52.616 167.956 48.090 C 182.111 43.832, 185.583 41.883, 181.250 40.628 C 180.287 40.349, 169.825 38.955, 158 37.529 C 146.175 36.103, 135.572 34.739, 134.439 34.497 C 132.663 34.118, 122.591 27.263, 104.860 14.366 C 100.259 11.020, 100.215 11.010, 99.679 13.245 M 101.515 22.741 C 101.159 26.458, 100.786 31.029, 100.684 32.899 L 100.500 36.297 126.747 43.064 L 152.994 49.830 163.451 46.628 C 169.203 44.866, 174.150 43.183, 174.446 42.888 C 174.741 42.592, 165.264 41.139, 153.385 39.658 L 131.787 36.965 118.144 27.185 C 110.640 21.806, 103.974 17.085, 103.331 16.693 C 102.504 16.190, 101.972 17.965, 101.515 22.741 M 78 32.655 C 71.035 33.699, 62.967 36.137, 47.768 41.790 C 36.365 46.030, 27.028 49.758, 27.018 50.072 C 27.008 50.387, 30.096 51.124, 33.880 51.710 L 40.760 52.775 65.130 45.589 L 89.500 38.403 89.810 34.702 C 90.027 32.117, 89.725 31.035, 88.810 31.116 C 88.090 31.179, 83.225 31.872, 78 32.655 M 94.750 39.757 C 93.230 40.096, 93.013 41.350, 93.100 49.323 C 93.185 57.196, 94.598 66.977, 94.900 61.789 C 94.955 60.848, 95.495 55.531, 96.099 49.972 C 96.704 44.413, 97.042 39.754, 96.849 39.617 C 96.657 39.480, 95.713 39.543, 94.750 39.757 M 84.500 42.708 C 81.750 43.511, 79.167 44.486, 78.761 44.874 C 78.354 45.262, 80.959 48.486, 84.550 52.039 L 91.078 58.500 90.402 50 C 90.030 45.325, 89.675 41.443, 89.613 41.373 C 89.551 41.304, 87.250 41.904, 84.500 42.708 M 57.305 71.521 C 47.848 84.985, 40.682 96, 41.380 96 C 42.078 96, 45.936 94.882, 49.952 93.516 L 57.254 91.033 60.877 93.942 C 67.051 98.900, 79.253 111.726, 78.335 112.293 C 77.394 112.874, 25.130 135.564, 21 137.184 C 18.720 138.078, 20.086 138.972, 36.500 147.332 C 48.710 153.551, 58.002 159.124, 65.387 164.658 C 73.856 171.004, 77.149 172.899, 80.212 173.192 C 82.378 173.398, 84.289 173.327, 84.460 173.034 C 84.630 172.740, 85.570 163.524, 86.547 152.554 C 87.878 137.626, 88.033 132.511, 87.163 132.221 C 85.526 131.675, 85.709 129, 87.383 129 C 88.375 129, 88.965 126.863, 89.475 121.426 C 89.865 117.260, 90.031 113.739, 89.842 113.602 C 89.654 113.465, 88.003 112.318, 86.173 111.053 C 82.102 108.240, 83.298 105.839, 87.424 108.542 C 88.875 109.493, 90.214 110.097, 90.398 109.885 C 90.583 109.673, 91.009 105.675, 91.344 101 L 91.954 92.500 83.055 83.006 C 78.160 77.784, 74.321 73.346, 74.523 73.143 C 74.852 72.815, 87.764 75.360, 92.250 76.637 C 93.767 77.068, 94 76.393, 94 71.567 C 94 67.285, 93.654 66, 92.500 66 C 91.675 66, 91 65.202, 91 64.227 C 91 62.711, 76.334 46.961, 74.978 47.021 C 74.715 47.033, 66.762 58.058, 57.305 71.521 M 125 62.561 C 117.575 63.281, 108.178 64.168, 104.117 64.533 L 96.734 65.196 106.097 74.598 C 111.247 79.769, 114.794 83.988, 113.980 83.974 C 113.166 83.960, 108.825 83.117, 104.333 82.101 L 96.167 80.254 95.482 86.151 L 94.798 92.048 101.271 99.274 C 104.831 103.248, 111.619 110.775, 116.354 116 L 124.963 125.500 120.492 126.500 L 116.021 127.500 127.008 134.500 C 133.051 138.350, 137.996 141.805, 137.997 142.178 C 137.999 142.550, 129.379 149.975, 118.843 158.678 L 99.687 174.500 104.093 175.134 C 106.517 175.483, 113.450 176.079, 119.500 176.460 L 130.500 177.153 140.500 163.891 C 146 156.598, 156.689 142.726, 164.254 133.066 C 171.819 123.406, 177.588 115.363, 177.074 115.191 C 176.560 115.020, 163.476 112.475, 147.998 109.535 C 132.520 106.595, 119.670 104.003, 119.442 103.776 C 119.215 103.548, 124.469 94.393, 131.119 83.431 C 137.769 72.469, 143.435 62.938, 143.712 62.250 C 144.309 60.764, 143.386 60.779, 125 62.561 M 96.850 72.288 C 96.767 73.779, 96.655 75.533, 96.600 76.185 C 96.515 77.186, 105.925 80.409, 106.692 79.641 C 106.836 79.497, 104.714 77.173, 101.977 74.477 C 97.046 69.621, 96.999 69.600, 96.850 72.288 M 82.807 78.598 C 83.378 79.644, 85.906 82.506, 88.423 84.958 L 93 89.416 93 84.336 L 93 79.256 89.087 78.630 C 86.936 78.286, 84.408 77.710, 83.471 77.351 C 82.048 76.804, 81.938 77.010, 82.807 78.598 M 93.989 101.250 C 93.983 103.588, 93.726 107.075, 93.419 109 L 92.860 112.500 102.863 118.808 C 111.746 124.408, 113.260 125.042, 116.370 124.458 L 119.873 123.801 107.727 110.401 C 101.046 103.030, 95.224 97, 94.790 97 C 94.355 97, 93.995 98.912, 93.989 101.250 M 92.600 117.600 C 92.270 118.460, 92 121.204, 92 123.697 L 92 128.230 97.398 127.556 C 100.367 127.185, 104.017 126.555, 105.509 126.156 C 108.200 125.436, 108.179 125.402, 102.861 121.878 C 94.301 116.205, 93.296 115.787, 92.600 117.600 M 100.384 129.781 L 91.268 131.304 89.582 150.402 C 88.654 160.906, 87.685 170.512, 87.429 171.750 C 86.998 173.825, 87.320 174, 91.564 174 C 96.008 174, 96.757 173.513, 113.333 159.853 C 122.775 152.072, 131.319 144.941, 132.320 144.005 C 134.057 142.382, 133.634 141.978, 123.029 135.152 C 116.918 131.218, 111.374 128.058, 110.709 128.129 C 110.044 128.200, 105.398 128.943, 100.384 129.781 M 87 179.035 C 87 180.741, 87.315 180.902, 88.944 180.030 C 92.064 178.360, 92.340 177, 89.559 177 C 87.652 177, 87 177.518, 87 179.035" stroke="none" fill="black" fill-rule="evenodd"/>
</svg>