<svg xmlns="http://www.w3.org/2000/svg" width="200" height="200" viewBox="0 0 200 200" version="1.1">
	<path d="M 105.067 31.750 C 103.213 38.763, 101.427 44.803, 101.098 45.173 C 100.769 45.543, 96.711 46.171, 92.079 46.567 L 83.659 47.288 85.944 43.591 C 87.200 41.558, 88.064 39.748, 87.864 39.569 C 87.567 39.303, 44.071 32.267, 39.049 31.672 C 38.056 31.554, 34.552 38.608, 27.958 54 C 22.657 66.375, 18.454 76.669, 18.618 76.875 C 18.782 77.081, 26.698 71.476, 36.208 64.419 L 53.500 51.587 60.500 50.856 C 64.350 50.453, 70.067 50.096, 73.205 50.062 L 78.910 50 86.831 59.421 C 93.322 67.141, 94.663 69.311, 94.257 71.436 C 93.984 72.862, 93.404 74.250, 92.967 74.521 C 92.530 74.791, 89.026 71.563, 85.180 67.348 L 78.188 59.685 56.594 75.397 C 44.717 84.039, 35 91.460, 35 91.888 C 35 93.634, 36.383 93.776, 40.216 92.424 C 42.436 91.641, 44.686 91, 45.217 91 C 45.831 91, 45.919 98.965, 45.460 112.837 L 44.738 134.674 53.619 136.430 C 58.504 137.395, 65.557 138.872, 69.293 139.711 L 76.085 141.236 75.403 149.868 C 75.027 154.616, 74.382 159.400, 73.970 160.500 C 73.389 162.048, 66.646 164.853, 44.110 172.919 C 25.755 179.488, 15 183.829, 15 184.669 C 15 185.401, 15.338 186.002, 15.750 186.004 C 16.163 186.006, 28.521 184.398, 43.214 182.431 L 69.929 178.854 93.622 169.483 C 117.001 160.236, 117.357 160.133, 120.408 161.695 C 122.108 162.566, 133.786 169.092, 146.359 176.198 C 158.931 183.303, 169.394 188.939, 169.611 188.723 C 169.827 188.506, 165.770 178.243, 160.596 165.915 L 151.187 143.500 147.995 124.182 C 146.239 113.557, 144.959 104.715, 145.151 104.533 C 145.343 104.351, 154.275 98.704, 165 91.985 C 175.725 85.265, 184.695 79.587, 184.933 79.367 C 185.172 79.147, 184.924 78.524, 184.383 77.983 C 183.737 77.337, 174.993 78.873, 158.971 82.445 L 134.544 87.892 117.522 79.624 C 108.160 75.077, 99.922 70.650, 99.216 69.785 C 98.156 68.487, 98.390 66.568, 100.563 58.735 L 103.192 49.256 108.104 48.674 C 112.892 48.107, 113.431 48.332, 129.480 57.622 L 145.944 67.153 165.222 59.973 C 175.825 56.024, 184.869 52.449, 185.319 52.028 C 185.770 51.607, 178.570 49.840, 169.319 48.102 C 160.069 46.364, 150.250 44.490, 147.500 43.937 C 143.485 43.129, 139.259 40.574, 126.046 30.965 C 116.997 24.384, 109.333 19, 109.015 19 C 108.698 19, 106.921 24.738, 105.067 31.750 M 107.559 33.142 C 106.068 38.692, 104.609 43.856, 104.317 44.617 C 103.904 45.692, 105.021 46, 109.332 46 C 114.499 46, 115.949 46.620, 130.562 55.067 L 146.246 64.135 161.766 58.353 C 179.480 51.754, 179.994 52.751, 156.662 48.457 L 141.825 45.727 127.085 35.029 C 118.978 29.145, 111.878 24.043, 111.308 23.690 C 110.674 23.298, 109.219 26.967, 107.559 33.142 M 35.288 43.747 C 33.022 49.111, 29.545 57.276, 27.561 61.891 C 25.578 66.506, 24.528 69.827, 25.228 69.272 C 25.927 68.716, 32.575 63.777, 40 58.295 L 53.500 48.330 66.898 47.653 C 77.931 47.097, 80.529 46.670, 81.616 45.239 C 82.342 44.282, 82.951 43.036, 82.968 42.469 C 82.986 41.898, 73.965 39.974, 62.750 38.156 C 51.612 36.350, 41.804 34.675, 40.954 34.434 C 39.807 34.108, 38.345 36.511, 35.288 43.747 M 85.689 49.868 L 82.878 50.500 89.042 57.814 C 92.431 61.837, 95.398 64.935, 95.635 64.699 C 96.118 64.216, 100 50.924, 100 49.753 C 100 48.870, 89.766 48.952, 85.689 49.868 M 61.508 75.089 C 44.901 87.269, 43.360 88.569, 46.743 87.547 L 48.986 86.870 48.743 109.675 L 48.500 132.481 63.223 135.547 C 71.321 137.233, 78.217 138.884, 78.548 139.215 C 79.308 139.975, 77.083 163.286, 76.173 164.105 C 75.803 164.438, 65.484 168.262, 53.243 172.603 C 41.001 176.943, 31.382 180.627, 31.866 180.789 C 32.350 180.950, 41.016 179.954, 51.123 178.574 L 69.500 176.066 93.660 166.529 L 117.821 156.992 140.955 169.996 C 153.679 177.148, 164.248 183, 164.442 183 C 164.636 183, 161.202 174.563, 156.812 164.250 C 148.953 145.788, 148.778 145.193, 145.428 125.500 C 143.557 114.500, 142.020 104.970, 142.013 104.322 C 142.006 103.675, 149.401 98.513, 158.447 92.853 C 167.493 87.192, 174.758 82.425, 174.592 82.258 C 174.426 82.092, 166.012 83.787, 155.895 86.025 C 145.778 88.262, 136.375 90.124, 135 90.163 C 132.715 90.226, 101.692 75.649, 98.534 73.028 C 97.032 71.781, 96.568 72.275, 95.658 76.094 C 95.185 78.081, 95.644 79.252, 97.618 81.094 C 103.195 86.299, 104.066 88.643, 108.059 109.176 C 110.216 120.273, 111.869 129.464, 111.732 129.601 C 111.345 129.988, 71.937 121.270, 71.330 120.663 C 69.137 118.470, 73.883 118.869, 89.414 122.183 C 99.266 124.286, 107.538 125.796, 107.794 125.539 C 108.051 125.282, 106.750 117.069, 104.903 107.288 C 101.747 90.571, 101.341 89.276, 98.133 85.725 C 96.255 83.647, 94.536 82.130, 94.312 82.355 C 94.088 82.579, 92.598 87.594, 91 93.500 C 87.912 104.916, 87.652 105.521, 86.208 104.629 C 85.686 104.306, 86.771 98.611, 88.705 91.527 L 92.126 78.997 85.334 71.498 C 81.599 67.374, 78.083 64.021, 77.521 64.047 C 76.960 64.072, 69.753 69.042, 61.508 75.089" stroke="none" fill="black" fill-rule="evenodd"/>
</svg>