<svg xmlns="http://www.w3.org/2000/svg" width="200" height="200" viewBox="0 0 200 200" version="1.1">
	<path d="M 114.625 1.750 C 114.345 2.712, 112.955 10.025, 111.537 18 C 110.118 25.975, 108.706 33.737, 108.399 35.250 L 107.841 38 95.814 38 C 85.111 38, 83.855 37.821, 84.411 36.371 C 85.542 33.425, 87.265 25.929, 86.878 25.637 C 86.670 25.479, 70.188 29.880, 50.250 35.417 C 27.127 41.838, 14 45.939, 14 46.742 C 14 48.428, 13.361 48.482, 40.288 44.500 C 61.574 41.352, 80 40.005, 80 41.596 C 80 41.924, 79.306 44.579, 78.458 47.496 L 76.916 52.801 58.984 65.150 C 49.121 71.943, 41.040 77.774, 41.026 78.110 C 41.012 78.445, 54.163 79.048, 70.250 79.451 C 86.338 79.854, 99.667 80.346, 99.870 80.545 C 100.074 80.744, 99.970 81.985, 99.639 83.303 L 99.038 85.699 55.519 87.011 C 21.759 88.029, 12 88.607, 12 89.590 C 12 91.274, 17.045 91.736, 49 92.979 C 90.304 94.585, 97 95.079, 97 96.520 C 97 97.215, 95.803 98.084, 94.339 98.451 C 92.875 98.818, 81.656 105.030, 69.407 112.254 L 47.136 125.388 42.621 137.003 L 38.107 148.618 41.303 158.824 L 44.500 169.031 75 168.410 C 105.255 167.793, 105.780 167.818, 140.309 171.456 C 159.454 173.473, 175.972 174.983, 177.016 174.812 C 178.569 174.557, 176.831 171.730, 167.457 159.271 L 156 144.043 156.003 135.771 C 156.005 131.222, 156.303 120.361, 156.665 111.636 L 157.323 95.772 163.746 92.890 C 171.205 89.543, 171.514 87.642, 164.672 87.195 C 162.102 87.028, 160 86.459, 160 85.933 C 160 85.406, 160.878 81.808, 161.950 77.937 C 163.399 72.707, 163.592 70.790, 162.700 70.475 C 162.040 70.241, 158.885 69.476, 155.689 68.775 L 149.878 67.500 167.411 55.055 C 177.054 48.210, 184.798 42.465, 184.620 42.287 C 183.711 41.378, 122.659 30.917, 121.302 31.438 C 118.418 32.544, 120.887 33.348, 135.772 36.144 L 150.500 38.912 131.333 38.706 C 120.792 38.593, 111.874 38.207, 111.515 37.849 C 111.157 37.490, 112.392 28.828, 114.259 18.599 C 116.781 4.778, 117.330 0, 116.394 0 C 115.701 0, 114.906 0.788, 114.625 1.750 M 60.773 35.304 C 48.824 38.646, 39.167 41.500, 39.315 41.648 C 39.462 41.795, 43.614 41.231, 48.541 40.394 C 53.469 39.558, 62.852 38.564, 69.393 38.186 L 81.285 37.500 82.537 33.250 C 83.226 30.913, 83.499 29.051, 83.144 29.114 C 82.790 29.176, 72.723 31.962, 60.773 35.304 M 156.867 40.821 C 156.665 41.384, 146.150 43.306, 133.500 45.093 C 120.850 46.880, 109.993 48.827, 109.373 49.421 C 108.753 50.014, 107.965 52.381, 107.623 54.679 L 106.999 58.858 112.750 60.020 C 115.912 60.660, 124.712 62.462, 132.305 64.026 L 146.110 66.869 161.555 55.834 C 170.050 49.764, 177 44.460, 177 44.046 C 177 43.632, 173.963 42.790, 170.250 42.175 C 166.537 41.560, 162.090 40.773, 160.367 40.427 C 158.555 40.062, 157.080 40.228, 156.867 40.821 M 81.973 45.101 C 81.365 47.356, 81.027 49.360, 81.220 49.553 C 81.562 49.895, 100.246 47.432, 104.750 46.452 C 106.347 46.104, 107 45.242, 107 43.481 L 107 41 95.039 41 L 83.077 41 81.973 45.101 M 109.740 43.577 C 109.317 45.794, 109.545 46.086, 111.374 45.661 C 112.543 45.390, 117.775 44.617, 123 43.945 C 137.213 42.116, 137.165 41.065, 122.867 41.030 L 110.233 41 109.740 43.577 M 93.500 50.862 C 87.450 51.763, 81.759 52.950, 80.854 53.500 C 79.242 54.480, 75.547 64.881, 76.480 65.814 C 77.499 66.832, 103.152 59.582, 103.929 58.057 C 105.046 55.863, 106.015 48.977, 105.187 49.112 C 104.809 49.174, 99.550 49.961, 93.500 50.862 M 61.164 66.844 L 48.828 75.500 58.164 76.138 C 63.299 76.489, 74.987 76.827, 84.137 76.888 L 100.774 77 102.008 70.455 C 102.688 66.855, 102.967 63.633, 102.629 63.295 C 102.290 62.957, 95.464 64.381, 87.459 66.459 C 79.455 68.538, 72.701 70.034, 72.451 69.784 C 72.201 69.534, 72.667 67.118, 73.487 64.415 C 75.193 58.794, 75.293 57.963, 74.250 58.094 C 73.838 58.145, 67.949 62.083, 61.164 66.844 M 105.173 68.365 C 103.243 78.838, 102.193 78, 117.250 78 L 130.500 78 136.407 73.810 C 141.487 70.206, 142.047 69.509, 140.407 68.831 C 138.311 67.965, 109.689 62, 107.629 62 C 106.842 62, 105.892 64.460, 105.173 68.365 M 138.563 75.548 L 130.627 81.244 116.876 80.806 L 103.125 80.367 102.514 82.801 C 102.178 84.140, 102.037 85.351, 102.201 85.492 C 102.366 85.632, 114.698 86.066, 129.608 86.456 L 156.715 87.165 158.358 80.627 C 159.261 77.031, 160 73.676, 160 73.172 C 160 72.668, 158.313 71.985, 156.250 71.654 C 154.188 71.324, 151.150 70.783, 149.500 70.453 C 146.967 69.946, 145.264 70.739, 138.563 75.548 M 76.267 88.984 C 66.238 89.341, 57.791 89.875, 57.496 90.171 C 57.200 90.467, 66.032 91.033, 77.123 91.430 C 93.387 92.013, 97.450 91.896, 98.129 90.826 C 99.493 88.674, 99.138 87.990, 96.750 88.167 C 95.513 88.259, 86.295 88.626, 76.267 88.984 M 101.288 89.691 C 100.419 91.957, 102.107 93, 106.642 93 C 112.639 93, 111.976 94.783, 104.927 97.617 L 99.500 99.798 97.778 109.093 C 96.830 114.206, 96.155 118.470, 96.278 118.569 C 96.400 118.668, 109.626 113.121, 125.668 106.242 C 145.906 97.563, 154.978 93.193, 155.298 91.967 C 155.720 90.353, 154.445 90.148, 140.630 89.603 C 109.999 88.396, 101.778 88.414, 101.288 89.691 M 158 91 C 158 92.253, 159.061 92.253, 161 91 C 162.213 90.216, 162.069 90.028, 160.250 90.015 C 159.012 90.007, 158 90.450, 158 91 M 124.250 109.737 C 108.162 116.666, 95 122.759, 95 123.277 C 95 123.847, 99.246 123.967, 105.750 123.583 L 116.500 122.947 126.325 129.223 C 131.729 132.676, 136.146 135.901, 136.141 136.391 C 136.129 137.785, 86.533 160.861, 86.239 159.610 C 86.095 158.999, 87.247 151.525, 88.800 143 L 91.622 127.500 86.811 127.198 C 84.165 127.031, 82 126.463, 82 125.935 C 82 125.407, 84.428 123.901, 87.395 122.589 C 93.268 119.991, 93.525 119.458, 95.548 105.641 C 96.227 101.007, 96.162 100.814, 94.138 101.456 C 92.971 101.827, 82.416 107.798, 70.682 114.727 L 49.348 127.324 45.242 137.952 L 41.136 148.580 43.785 157.415 L 46.434 166.250 75.467 165.562 C 104.148 164.883, 104.911 164.918, 138.407 168.446 C 157.057 170.411, 172.468 171.865, 172.656 171.678 C 172.843 171.490, 168.477 165.308, 162.954 157.939 L 152.913 144.541 153.610 120.771 C 153.993 107.697, 154.125 97.031, 153.903 97.069 C 153.682 97.107, 140.338 102.807, 124.250 109.737 M 98.463 126.722 L 94.426 127.094 91.886 141.297 C 90.489 149.109, 89.429 155.624, 89.531 155.775 C 89.848 156.245, 131 136.708, 130.998 136.087 C 130.997 135.764, 127.641 133.363, 123.539 130.750 C 116.385 126.193, 115.807 126.007, 109.291 126.175 C 105.556 126.271, 100.683 126.517, 98.463 126.722" stroke="none" fill="black" fill-rule="evenodd"/>
</svg>