<svg xmlns="http://www.w3.org/2000/svg" width="200" height="200" viewBox="0 0 200 200" version="1.1">
	<path d="M 98.529 31.370 L 97.819 42.741 83.659 43.912 C 75.872 44.556, 68.450 45.308, 67.166 45.582 C 63.475 46.370, 65.237 44.767, 75.503 37.998 C 82 33.714, 84.754 31.354, 84.064 30.664 C 83.374 29.974, 74.915 32.165, 57.773 37.476 C 43.873 41.782, 29.013 46.379, 24.750 47.691 C 19.371 49.346, 17 50.558, 17 51.651 C 17 52.931, 17.799 53.116, 21.250 52.638 C 29.206 51.535, 50.793 49.764, 51.788 50.133 C 52.333 50.335, 47.429 62.171, 40.890 76.435 C 34.350 90.700, 29 102.461, 29 102.571 C 29 102.682, 36.221 103.101, 45.046 103.502 L 61.092 104.232 64.568 111.136 L 68.045 118.040 38.523 132.447 C 12.094 145.345, 5.884 149, 10.402 149 C 11.174 149, 19.466 146.327, 28.830 143.059 L 45.855 137.119 45.373 140.309 C 44.233 147.860, 39.275 188.523, 39.466 188.755 C 39.681 189.016, 76.948 147.531, 80.418 143.169 L 82.336 140.758 77.168 130.367 C 74.326 124.652, 72 119.769, 72 119.516 C 72 118.621, 82.509 114.211, 83.115 114.851 C 83.454 115.208, 85.224 125.057, 87.049 136.739 C 92.224 169.855, 93.125 168.867, 95.473 127.500 C 96.441 110.450, 97.362 96.356, 97.519 96.181 C 97.957 95.692, 114 98.162, 114 98.719 C 114 98.988, 111.525 114.865, 108.500 134 C 102.857 169.698, 102.458 172.973, 103.750 173.038 C 104.162 173.059, 121.375 174.133, 142 175.424 C 162.625 176.716, 179.582 177.704, 179.683 177.620 C 179.783 177.536, 174.706 167.976, 168.400 156.376 L 156.935 135.284 168.542 100.045 L 180.149 64.806 171.423 50.153 C 166.624 42.094, 162.643 35.415, 162.576 35.310 C 162.455 35.123, 100.227 20, 99.576 20 C 99.391 20, 98.920 25.117, 98.529 31.370 M 101.625 27.125 C 101.281 28.844, 101 32.956, 101 36.263 L 101 42.275 109.750 41.591 C 114.563 41.215, 120.840 40.643, 123.701 40.321 L 128.902 39.736 138.451 54.347 C 143.703 62.383, 148 69.122, 148 69.322 C 148 69.522, 145.267 71.996, 141.927 74.821 L 135.853 79.957 139.927 81.587 C 142.167 82.484, 144 83.843, 144 84.609 C 144 86.323, 144.471 86.368, 138.446 84.078 L 133.392 82.157 125.622 88.747 C 119.830 93.660, 118.214 95.540, 119.275 96.134 C 120.516 96.829, 139.418 98.997, 144.250 98.999 C 145.213 99, 146 99.688, 146 100.528 C 146 102.162, 141.868 102.041, 125.095 99.915 C 121.022 99.399, 117.459 99.207, 117.178 99.489 C 116.612 100.055, 106.087 165.278, 106.034 168.551 C 106.001 170.541, 106.958 170.655, 138.250 172.384 C 155.988 173.364, 171.512 174.402, 172.750 174.691 C 173.988 174.980, 175 174.968, 175 174.665 C 175 174.361, 170.273 165.467, 164.496 154.899 L 153.993 135.685 165.546 100.294 L 177.100 64.902 168.800 51.235 L 160.500 37.569 133 30.832 C 117.875 27.126, 104.769 24.073, 103.875 24.047 C 102.838 24.017, 102.024 25.131, 101.625 27.125 M 54.115 41.363 C 43.454 44.738, 35.697 47.645, 36.879 47.821 C 38.060 47.998, 43.489 47.696, 48.943 47.149 C 58.550 46.187, 59.096 45.996, 66.430 41.047 C 70.593 38.238, 74 35.728, 74 35.470 C 74 35.211, 73.888 35.051, 73.750 35.113 C 73.612 35.174, 64.777 37.987, 54.115 41.363 M 110.250 44.254 L 100 45.214 100 51.467 C 100 54.907, 99.731 59.696, 99.402 62.110 L 98.805 66.500 115.075 72.500 C 124.024 75.800, 131.651 78.628, 132.024 78.784 C 132.931 79.163, 144 69.816, 144 68.671 C 144 68.177, 140.349 62.199, 135.886 55.387 C 126.598 41.207, 129.471 42.455, 110.250 44.254 M 75 47.558 C 68.125 48.269, 61.825 48.898, 61 48.955 C 57.240 49.214, 91.373 64.968, 95.750 64.993 C 96.645 64.998, 97 62.754, 97 57.082 C 97 52.727, 97.273 48.452, 97.607 47.582 C 98.353 45.637, 93.612 45.632, 75 47.558 M 43.897 76.256 C 38.065 89.040, 33.479 99.837, 33.706 100.250 C 34.165 101.085, 59 101.306, 59 100.475 C 59 100.186, 57.419 96.811, 55.487 92.975 C 53.274 88.580, 52.442 86.009, 53.237 86.024 C 53.932 86.036, 61.243 87.146, 69.484 88.490 C 77.725 89.833, 84.787 90.610, 85.178 90.216 C 85.568 89.822, 86.974 84.889, 88.301 79.254 C 90.034 71.895, 90.402 68.757, 89.607 68.121 C 87.157 66.158, 75.075 60.578, 66.548 57.471 C 61.572 55.657, 56.825 53.912, 56 53.593 C 54.848 53.147, 52.043 58.399, 43.897 76.256 M 93.499 69.250 C 93.257 69.938, 91.994 75.225, 90.691 81 L 88.321 91.500 91.257 91.821 C 92.871 91.997, 94.335 91.997, 94.510 91.821 C 94.685 91.644, 95.153 86.213, 95.550 79.750 C 96.085 71.048, 95.969 68, 95.105 68 C 94.463 68, 93.740 68.563, 93.499 69.250 M 98.648 75.250 C 98.301 78.138, 98.013 83.264, 98.009 86.642 C 97.999 93.582, 97.716 93.361, 108.227 94.597 L 113.870 95.260 121.318 88.880 C 125.414 85.371, 128.748 82.050, 128.727 81.500 C 128.695 80.652, 102.081 70, 99.995 70 C 99.601 70, 98.995 72.362, 98.648 75.250 M 57 89.651 C 57 89.818, 58.219 92.441, 59.708 95.478 L 62.417 101 69.590 101 C 76.637 101, 76.810 100.938, 79.482 97.434 C 80.978 95.473, 82.044 93.717, 81.851 93.533 C 81.373 93.075, 57 89.268, 57 89.651 M 81.642 98.929 L 77.785 104 70.902 104 L 64.019 104 67.187 110.425 L 70.355 116.850 75.928 114.055 C 86.355 108.826, 85.332 107.878, 87.992 125.238 C 89.278 133.632, 90.628 141.625, 90.991 143 C 91.354 144.375, 92.321 134.250, 93.139 120.500 C 93.958 106.750, 94.599 95.430, 94.564 95.344 C 94.529 95.257, 92.475 94.888, 90 94.522 C 85.508 93.859, 85.493 93.867, 81.642 98.929 M 50.500 129.572 C 41.150 134.196, 33.759 137.984, 34.075 137.990 C 34.391 137.995, 37.879 136.902, 41.825 135.560 C 45.771 134.217, 48.997 133.205, 48.994 133.310 C 48.990 133.414, 47.650 144.047, 46.014 156.937 C 44.379 169.827, 43.144 180.460, 43.270 180.565 C 43.544 180.792, 75.923 144.664, 77.798 142.039 C 78.920 140.469, 78.446 138.911, 74.323 130.611 C 71.697 125.325, 69.088 121.037, 68.524 121.082 C 67.961 121.127, 59.850 124.947, 50.500 129.572" stroke="none" fill="black" fill-rule="evenodd"/>
</svg>