<svg xmlns="http://www.w3.org/2000/svg" width="200" height="200" viewBox="0 0 200 200" version="1.1">
	<path d="M 84.730 20.662 C 82.326 24.423, 77.943 31.464, 74.989 36.309 C 72.036 41.154, 69.283 45.325, 68.873 45.578 C 68.463 45.832, 59.324 41.789, 48.564 36.594 C 37.804 31.399, 28.973 27.227, 28.940 27.324 C 28.646 28.185, 22.307 83.566, 22.479 83.770 C 22.604 83.918, 28.708 76.381, 36.043 67.020 L 49.380 50 97.690 50 C 124.260 50, 146 50.370, 146 50.823 C 146 51.275, 142.287 55.256, 137.750 59.670 L 129.500 67.695 115 68.344 C 107.025 68.701, 94.650 69.004, 87.500 69.018 C 76.280 69.040, 73.199 69.424, 65 71.822 C 50.814 75.969, 52.126 77.228, 70.500 77.099 C 78.750 77.041, 91.575 76.699, 99 76.340 C 110.527 75.781, 112.337 75.892, 111.384 77.093 C 110.771 77.867, 107.327 82.338, 103.732 87.029 C 98.162 94.296, 95.250 96.921, 84.046 104.779 L 70.897 114 45.008 114 C 20.962 114, 16.145 114.478, 18.316 116.649 C 18.600 116.933, 26.858 117.952, 36.666 118.912 L 54.500 120.659 71.500 128.425 C 80.850 132.696, 88.868 136.539, 89.318 136.964 C 89.769 137.389, 82.681 142.119, 73.568 147.475 C 64.456 152.831, 57 157.642, 57 158.166 C 57 158.690, 61.790 165.389, 67.645 173.051 L 78.290 186.984 81.895 184.777 C 83.878 183.563, 91.840 178.445, 99.590 173.403 L 113.680 164.235 114.340 151.961 C 114.703 145.210, 115 135.301, 115 129.941 L 115 120.196 118.250 119.055 C 120.896 118.126, 126.189 118.512, 146.739 121.135 C 160.620 122.906, 172.222 124.112, 172.520 123.813 C 173.171 123.163, 170.017 101.798, 169.124 100.808 C 168.781 100.427, 157.987 103.465, 145.138 107.558 C 123.058 114.592, 119 115.671, 119 114.510 C 119 114.241, 121.764 108.471, 125.143 101.688 L 131.285 89.357 146.705 80.004 L 162.124 70.652 172.904 55.076 C 179.774 45.148, 183.199 39.383, 182.348 39.178 C 181.613 39.001, 171.074 40.050, 158.927 41.509 L 136.841 44.162 126.171 33.763 C 120.302 28.043, 114.375 22.653, 113 21.785 C 111.625 20.916, 106.401 19.044, 101.392 17.626 C 96.382 16.207, 91.567 14.771, 90.691 14.435 C 89.523 13.987, 87.936 15.644, 84.730 20.662 M 81.669 30.854 C 77.050 38.359, 72.958 45.063, 72.576 45.750 C 72.027 46.738, 78.539 47, 103.686 47 L 135.489 47 123.898 35.408 L 112.306 23.816 101.187 20.512 L 90.069 17.208 81.669 30.854 M 31 32.413 C 31 33.401, 26.940 67.882, 26.397 71.500 C 25.827 75.307, 26.342 74.812, 37.073 61.250 L 48.348 47 55.924 46.965 L 63.500 46.930 48.105 39.465 C 33.725 32.492, 31 31.369, 31 32.413 M 157.250 44.344 C 147.762 45.480, 140 46.767, 140 47.205 C 140 47.642, 143.037 48.022, 146.750 48.049 L 153.500 48.098 141.556 59.458 L 129.612 70.817 102.056 71.267 C 84.965 71.545, 73.361 72.149, 71.500 72.856 C 69.167 73.742, 73.908 73.900, 92.811 73.566 C 106.748 73.320, 116.989 73.516, 116.811 74.025 C 116.640 74.513, 112.675 79.928, 108 86.057 C 100.041 96.491, 98.600 97.832, 85.369 107.101 L 71.238 117 61.870 117 L 52.502 117 71.501 125.579 C 81.950 130.297, 91.737 134.616, 93.250 135.176 C 94.763 135.737, 95.993 136.489, 95.984 136.848 C 95.974 137.207, 87.920 142.247, 78.085 148.048 L 60.203 158.596 69.186 170.548 C 74.126 177.122, 78.787 182.441, 79.544 182.368 C 80.301 182.295, 87.625 177.892, 95.821 172.583 L 110.722 162.930 111.361 156.818 C 111.713 153.457, 112 144.535, 112 136.993 C 112 121.292, 112.769 114, 114.424 114 C 115.058 114, 118.702 107.986, 122.522 100.635 L 129.468 87.271 144.887 77.885 L 160.305 68.500 169.152 55.693 C 174.019 48.650, 178 42.687, 178 42.443 C 178 41.870, 177.615 41.906, 157.250 44.344 M 146.765 109.862 C 132.350 114.445, 129.543 115.625, 131.765 116.170 C 135.825 117.163, 169.027 121.310, 169.440 120.875 C 169.794 120.501, 168.455 110.532, 167.476 106.250 C 167.193 105.013, 166.408 104.050, 165.731 104.112 C 165.054 104.174, 156.519 106.761, 146.765 109.862" stroke="none" fill="black" fill-rule="evenodd"/>
</svg>