<svg xmlns="http://www.w3.org/2000/svg" width="200" height="200" viewBox="0 0 200 200" version="1.1">
	<path d="M 102.565 27.250 C 100.983 35.088, 99.489 41.866, 99.245 42.314 C 99.002 42.762, 96.817 40.400, 94.390 37.064 L 89.977 31 82.239 31.003 C 77.982 31.005, 67.430 31.300, 58.788 31.658 L 43.076 32.310 31.965 51.282 C 24.489 64.046, 21.184 70.584, 21.863 71.263 C 22.542 71.942, 28.691 67.974, 40.658 59.136 L 58.443 46 78.221 46 C 93.377 46, 98 46.292, 98.001 47.250 C 98.003 51.509, 92.533 75, 91.539 75 C 90.443 75, 81.373 72.562, 78 71.361 C 76.928 70.979, 78.327 69.177, 82.907 65.043 C 87.352 61.030, 89.127 58.772, 88.703 57.668 C 88.155 56.240, 87.496 56.285, 82.296 58.108 C 77.789 59.688, 55.817 63.917, 51.750 63.987 C 51.337 63.994, 51 64.598, 51 65.328 C 51 66.155, 54.778 67.731, 61 69.500 C 66.500 71.064, 71 72.650, 71 73.024 C 71 73.399, 68.542 75.994, 65.537 78.790 C 60.901 83.105, 58.802 86.421, 51.680 100.687 L 43.285 117.500 46.096 152.500 C 47.642 171.750, 49.040 189.075, 49.203 191 C 49.469 194.136, 50.730 192.106, 61.319 171.500 C 67.819 158.850, 73.669 148.001, 74.319 147.391 C 74.986 146.766, 85.300 145.549, 98 144.598 C 110.375 143.672, 121.520 142.698, 122.767 142.434 C 124.777 142.008, 123.959 144.100, 115.512 160.977 C 110.275 171.440, 106.330 179.985, 106.745 179.966 C 108.390 179.892, 153.046 169.288, 153.460 168.873 C 153.985 168.349, 155.991 119.324, 155.996 106.910 L 156 98.319 145.750 93.991 C 125.263 85.339, 122.492 83.844, 124.378 82.465 C 125.311 81.783, 139.785 73.227, 156.542 63.451 C 173.299 53.675, 186.893 45.560, 186.750 45.417 C 186.608 45.274, 177.268 43.774, 165.995 42.083 C 154.723 40.392, 144.375 38.626, 143 38.158 C 141.625 37.690, 132.682 31.838, 123.127 25.153 C 113.572 18.469, 105.684 13, 105.598 13 C 105.513 13, 104.148 19.412, 102.565 27.250 M 105.096 28.750 C 103.865 34.663, 102.635 40.288, 102.362 41.250 C 101.914 42.829, 102.799 43, 111.451 43 C 120.966 43, 121.110 43.037, 131.059 48.030 C 137.873 51.449, 140.850 53.450, 140.359 54.280 C 139.962 54.951, 136.073 60.842, 131.717 67.372 C 127.362 73.901, 124.181 79.026, 124.649 78.761 C 149.282 64.801, 177.909 47.531, 177.306 46.994 C 176.862 46.599, 168.512 45.068, 158.749 43.592 L 140.998 40.907 124.626 29.454 C 115.621 23.154, 108.046 18, 107.793 18 C 107.541 18, 106.327 22.837, 105.096 28.750 M 50.500 34.748 L 44.500 35.111 35.831 50.055 C 31.063 58.275, 27.368 65, 27.620 65 C 27.872 65, 34.799 60.060, 43.014 54.022 L 57.951 43.044 76.516 42.772 L 95.080 42.500 91.954 38.250 L 88.827 34 72.663 34.193 C 63.774 34.299, 53.800 34.549, 50.500 34.748 M 107.270 56.250 C 110.606 61.888, 114.989 69.316, 117.010 72.758 L 120.684 79.016 127.168 69.258 C 130.734 63.891, 134.442 58.286, 135.407 56.802 L 137.162 54.104 129.103 50.052 C 121.303 46.130, 120.726 46, 111.125 46 L 101.205 46 107.270 56.250 M 97.889 62.750 C 96.585 69.213, 95.514 74.933, 95.509 75.463 C 95.500 76.440, 118.026 83.308, 118.776 82.557 C 119.293 82.040, 101.718 51.086, 100.880 51.036 C 100.539 51.016, 99.193 56.287, 97.889 62.750 M 77.450 62.477 C 75.223 63.181, 70.609 64.081, 67.198 64.477 C 63.787 64.873, 60.802 65.511, 60.565 65.894 C 60.328 66.278, 63.310 67.410, 67.190 68.409 L 74.247 70.227 78.860 65.614 C 83.790 60.684, 83.707 60.500, 77.450 62.477 M 68.308 79.250 C 64.344 83.312, 61.254 88.372, 54.659 101.605 L 46.134 118.710 48.566 149.105 C 49.903 165.822, 51.111 180.625, 51.249 182 C 51.431 183.814, 54.367 178.943, 61.949 164.250 C 70.690 147.309, 72.753 144, 74.576 144 C 75.775 144, 77.214 143.438, 77.774 142.750 C 78.632 141.697, 84 117.564, 84 114.759 C 84 114.241, 79.760 113.961, 74.317 114.119 C 60.838 114.512, 60.705 112.517, 74.151 111.635 C 79.770 111.267, 84.549 110.784, 84.772 110.562 C 84.994 110.339, 86.481 103.934, 88.075 96.329 C 89.670 88.723, 91.197 81.554, 91.469 80.399 C 91.907 78.538, 91.117 78.052, 84.568 76.149 C 80.501 74.967, 76.331 74, 75.302 74 C 74.273 74, 71.126 76.362, 68.308 79.250 M 91.249 94.679 C 89.464 103.291, 88.167 110.500, 88.367 110.700 C 88.567 110.900, 94.304 110.937, 101.115 110.782 L 113.500 110.500 103.119 103.681 C 96.316 99.212, 93.077 96.523, 93.721 95.879 C 94.366 95.234, 98.776 97.498, 106.517 102.448 C 113.013 106.601, 119.064 110, 119.962 110 C 121.254 110, 121.954 107.862, 123.319 99.750 C 124.267 94.112, 125.033 89.217, 125.021 88.871 C 124.990 87.947, 120.818 86.461, 108.500 82.987 C 102.450 81.281, 96.824 79.691, 95.997 79.454 C 94.796 79.109, 93.843 82.166, 91.249 94.679 M 127.540 92.250 C 126.542 96.759, 124 111.253, 124 112.436 C 124 113.104, 127.375 115.789, 131.500 118.402 C 135.625 121.015, 139 123.465, 139 123.847 C 139 124.229, 126.871 128.566, 112.047 133.484 C 97.223 138.403, 85.185 142.513, 85.297 142.618 C 85.409 142.722, 95.175 142.008, 107 141.031 C 118.825 140.053, 128.639 139.373, 128.809 139.519 C 128.979 139.665, 125.039 147.933, 120.054 157.892 C 115.068 167.852, 111.168 176, 111.387 176 C 112.720 176, 150.398 166.936, 150.820 166.513 C 151.268 166.065, 151.785 153.980, 153.244 109.849 L 153.563 100.198 141.360 95.099 C 134.648 92.295, 128.905 90, 128.598 90 C 128.290 90, 127.814 91.013, 127.540 92.250 M 98.250 113.747 C 92.063 113.922, 86.998 114.388, 86.995 114.783 C 86.992 115.177, 85.854 120.850, 84.466 127.388 C 83.079 133.927, 82.150 139.484, 82.403 139.737 C 82.958 140.292, 133.002 123.751, 132.995 123.015 C 132.992 122.732, 129.596 120.362, 125.449 117.750 C 119.187 113.806, 117.194 113.036, 113.704 113.214 C 111.392 113.331, 104.438 113.571, 98.250 113.747" stroke="none" fill="black" fill-rule="evenodd"/>
</svg>