<svg xmlns="http://www.w3.org/2000/svg" width="200" height="200" viewBox="0 0 200 200" version="1.1">
	<path d="M 104.032 17.750 C 104.049 18.712, 104.710 24.225, 105.500 30 C 106.290 35.775, 106.951 40.837, 106.968 41.250 C 107.058 43.383, 103.867 41.322, 97.878 35.379 L 91.205 28.757 67.428 31.905 L 43.651 35.052 28.325 44.690 C 19.896 49.991, 13 54.929, 13 55.664 C 13 56.399, 13.242 57, 13.537 57 C 13.833 57, 20.906 52.652, 29.255 47.338 L 44.436 37.675 67.321 34.702 L 90.206 31.730 95.186 36.710 L 100.166 41.689 78.442 42.399 L 56.719 43.108 40.352 58.747 C 29.931 68.704, 24.333 74.733, 24.942 75.342 C 25.552 75.952, 31.729 70.749, 41.948 61.019 L 57.996 45.738 80.248 45.046 L 102.500 44.353 105.199 46.926 C 107.149 48.787, 108.080 50.909, 108.555 54.584 L 109.214 59.668 95.357 60.814 C 86.991 61.506, 73.459 63.659, 61.209 66.249 L 40.919 70.537 56.349 91.345 L 71.779 112.152 70.303 115.826 C 69.016 119.029, 66.495 120.952, 50.663 130.820 C 40.673 137.046, 31.859 142.520, 31.076 142.986 C 29.927 143.670, 31.534 148.032, 39.434 165.666 C 44.813 177.675, 49.309 187.605, 49.424 187.733 C 49.539 187.861, 62.203 183.026, 77.567 176.987 C 92.930 170.949, 105.950 166.011, 106.500 166.014 C 107.050 166.018, 118.300 170.922, 131.500 176.913 C 144.700 182.904, 155.567 187.736, 155.649 187.653 C 156.064 187.226, 171.034 127.701, 170.788 127.454 C 170.629 127.296, 164.095 126.841, 156.268 126.444 L 142.037 125.721 133.643 114.611 L 125.249 103.500 137.343 97.500 L 149.438 91.500 164.219 68.588 C 177.779 47.568, 179.858 44, 178.544 44 C 178.293 44, 171.498 42.630, 163.445 40.955 C 149.184 37.989, 148.232 37.625, 126.910 26.955 C 114.869 20.930, 104.788 16, 104.509 16 C 104.229 16, 104.014 16.788, 104.032 17.750 M 107.544 23.720 C 107.861 25.799, 108.431 30.425, 108.810 34 L 109.500 40.500 118.081 41 L 126.662 41.500 141.330 50.500 C 157.687 60.537, 157.731 60.711, 144 60.909 C 139.875 60.969, 134.116 61.304, 131.202 61.654 L 125.904 62.290 128.659 65.166 L 131.414 68.042 123.065 76.435 C 115.282 84.259, 114.759 85.045, 115.355 88.027 C 115.979 91.145, 122.510 101.077, 123.835 100.923 C 124.201 100.880, 129.655 98.293, 135.955 95.173 L 147.411 89.500 161.241 68.119 C 168.847 56.359, 174.906 46.572, 174.704 46.370 C 174.502 46.169, 168.524 44.833, 161.418 43.402 C 149.178 40.937, 147.409 40.253, 127.733 30.371 L 106.967 19.941 107.544 23.720 M 110 45.573 C 110 46.438, 112.813 49.802, 116.250 53.048 L 122.500 58.951 129 58.867 C 132.575 58.821, 138.200 58.494, 141.500 58.141 L 147.500 57.500 136.500 50.756 L 125.500 44.011 117.750 44.006 C 111.366 44.001, 110 44.277, 110 45.573 M 111.365 54.875 C 111.714 56.731, 112 58.644, 112 59.125 C 112 60.245, 116.712 60.274, 117.402 59.158 C 117.688 58.696, 116.304 56.783, 114.326 54.908 L 110.730 51.500 111.365 54.875 M 112.888 62.445 C 112.234 63.099, 114.212 80, 114.943 80 C 115.284 80, 118.227 77.307, 121.484 74.016 L 127.405 68.032 124.516 65.016 C 122.211 62.611, 120.786 62, 117.480 62 C 115.199 62, 113.133 62.200, 112.888 62.445 M 90 63.683 C 86.208 64.077, 46.698 72.026, 46.191 72.497 C 46.021 72.655, 52.407 81.563, 60.383 92.291 L 74.883 111.798 73.138 116.396 C 71.464 120.806, 70.621 121.479, 52.583 132.817 C 42.238 139.319, 33.761 144.973, 33.746 145.382 C 33.732 145.791, 37.495 154.653, 42.110 165.076 C 49.658 182.124, 50.714 183.976, 52.627 183.525 C 53.797 183.249, 64.372 179.214, 76.127 174.558 L 97.500 166.093 79.677 166.047 C 63.829 166.005, 61.889 165.821, 62.177 164.388 C 62.389 163.327, 72.162 158.657, 90.712 150.750 L 118.924 138.725 118.322 134.113 C 117.990 131.576, 115.474 124.871, 112.730 119.212 C 109.987 113.554, 107.912 108.774, 108.121 108.590 C 108.329 108.405, 109.968 107.508, 111.761 106.596 C 114.292 105.309, 114.920 104.440, 114.566 102.719 C 114.315 101.498, 113.838 98.399, 113.506 95.832 C 112.443 87.611, 110.914 87.642, 102.444 96.056 C 98.350 100.123, 95.001 103.011, 95.001 102.475 C 95.004 100.016, 99.019 70.647, 99.406 70.261 C 99.645 70.022, 102.228 73.015, 105.145 76.913 C 108.062 80.811, 110.855 84, 111.352 84 C 111.849 84, 111.992 82.313, 111.669 80.250 C 111.346 78.188, 110.776 73.463, 110.403 69.750 L 109.724 63 101.612 63.160 C 97.150 63.248, 91.925 63.484, 90 63.683 M 100.663 80.259 C 100.356 82.041, 99.795 86.166, 99.416 89.425 L 98.726 95.350 103.832 91.045 L 108.937 86.740 105.740 82.288 C 101.597 76.518, 101.324 76.409, 100.663 80.259 M 117 100.847 C 117 103.308, 117.336 103.725, 118.976 103.296 C 120.544 102.886, 120.750 102.401, 119.971 100.945 C 118.273 97.772, 117 97.730, 117 100.847 M 119.663 106.129 C 118.074 107.052, 117.913 108.027, 118.466 113.348 C 118.817 116.732, 119.342 120.737, 119.632 122.250 L 120.159 125 129.116 125 L 138.073 125 130.500 115 C 126.335 109.500, 122.606 105.014, 122.213 105.030 C 121.821 105.047, 120.673 105.541, 119.663 106.129 M 113.124 108.920 C 111.977 109.632, 112.060 110.583, 113.624 114.637 C 115.272 118.908, 115.537 119.178, 115.806 116.856 C 116.304 112.554, 114.738 107.919, 113.124 108.920 M 120.527 128 C 120.375 128.275, 120.593 130.975, 121.011 134 C 121.429 137.025, 121.480 139.820, 121.125 140.210 C 120.770 140.601, 109.009 145.878, 94.990 151.936 L 69.500 162.951 89.750 163.192 C 100.888 163.325, 112.799 163.448, 116.220 163.467 L 122.441 163.500 130.649 147 C 135.163 137.925, 138.889 129.969, 138.928 129.321 C 138.977 128.519, 136.093 128.039, 129.901 127.821 C 124.897 127.644, 120.679 127.725, 120.527 128 M 133.400 147.493 L 124.500 165.986 120.083 165.993 C 117.654 165.997, 115.969 166.302, 116.339 166.672 C 117.123 167.456, 153.398 183.893, 153.711 183.605 C 153.827 183.499, 156.997 171.438, 160.756 156.803 L 167.590 130.195 164.045 129.609 C 162.095 129.286, 156.405 129.017, 151.400 129.011 L 142.300 129 133.400 147.493" stroke="none" fill="black" fill-rule="evenodd"/>
</svg>