<svg xmlns="http://www.w3.org/2000/svg" width="200" height="200" viewBox="0 0 200 200" version="1.1">
	<path d="M 99 22.540 C 99 23.408, 98.563 23.848, 98.030 23.518 C 97.496 23.189, 85.737 24.962, 71.898 27.459 C 58.059 29.957, 46.408 32, 46.007 32 C 44.658 32, 10.416 58.489, 10.458 59.500 C 10.545 61.571, 13.130 59.939, 29.340 47.577 L 45.989 34.881 68.245 30.950 C 80.485 28.787, 91.711 26.759, 93.190 26.443 C 95.456 25.958, 96.132 26.355, 97.480 28.962 C 98.557 31.045, 98.866 33.195, 98.426 35.542 C 97.787 38.950, 97.667 39.026, 93.136 38.920 C 90.347 38.855, 77.347 41.658, 60.500 45.956 C 27.201 54.451, 29.380 53.780, 30.724 55.124 C 31.469 55.869, 40.635 53.957, 61.641 48.677 C 81.582 43.664, 92.580 41.346, 94.750 41.699 C 97.929 42.215, 98 42.339, 97.985 47.363 C 97.976 50.189, 97.639 53.007, 97.235 53.628 C 96.831 54.248, 94.475 55.078, 92 55.473 C 86.507 56.349, 38.818 69.964, 37.701 70.975 C 37.261 71.373, 45.959 82.381, 57.030 95.437 C 68.101 108.492, 77.010 119.306, 76.829 119.467 C 76.648 119.628, 63.675 120.543, 48 121.500 C 32.325 122.457, 19.361 123.363, 19.191 123.513 C 18.312 124.286, 56.680 144.933, 70.686 151.223 C 79.588 155.221, 86.335 158.793, 85.679 159.160 C 85.023 159.527, 72.150 164.593, 57.073 170.417 C 41.996 176.241, 29.536 181.131, 29.384 181.282 C 29.233 181.434, 29.422 182.037, 29.804 182.622 C 30.291 183.366, 35.618 183.166, 47.500 181.959 C 56.850 181.009, 82.725 179.666, 105 178.975 C 127.275 178.283, 145.624 177.619, 145.775 177.500 C 145.927 177.380, 146.668 173.470, 147.422 168.809 C 148.646 161.251, 149.831 158.387, 158.397 142.296 C 163.679 132.375, 168 123.940, 168 123.552 C 168 123.164, 162.488 123.157, 155.750 123.537 L 143.500 124.227 127 119.473 C 108.643 114.184, 103.275 111.353, 113.500 112.355 C 116.800 112.678, 123.775 113.219, 129 113.557 L 138.500 114.171 152.750 86.750 C 160.588 71.669, 166.980 58.468, 166.955 57.415 C 166.930 56.362, 165.243 51.065, 163.205 45.644 L 159.500 35.789 131.500 28.891 C 116.100 25.097, 102.487 21.761, 101.250 21.477 C 99.649 21.111, 99 21.417, 99 22.540 M 102 28.540 C 102 30.487, 102.899 33.841, 103.997 35.994 C 105.546 39.030, 106.724 40.033, 109.247 40.466 C 113.628 41.217, 155.939 46, 158.204 46 C 160.796 46, 160.418 48.872, 157.750 49.447 C 156.512 49.714, 146.275 51.125, 135 52.584 C 123.725 54.042, 114.293 55.427, 114.040 55.661 C 113.787 55.895, 116.398 61.744, 119.842 68.658 C 123.286 75.572, 125.897 81.436, 125.644 81.689 C 125.280 82.053, 110.582 78.334, 100.750 75.389 C 96.417 74.092, 99.727 79.197, 109.716 89.217 C 122.762 102.303, 122.624 103.473, 108.564 98.970 C 103.204 97.253, 98.580 96.086, 98.289 96.377 C 97.232 97.435, 99.097 101.583, 102.262 105.217 L 105.500 108.934 119.116 110.054 C 126.605 110.670, 133.725 111.023, 134.939 110.837 C 136.708 110.567, 139.883 105.276, 150.918 84.206 L 164.690 57.913 161.159 47.995 L 157.628 38.076 130.857 31.538 C 116.132 27.942, 103.616 25, 103.043 25 C 102.469 25, 102 26.593, 102 28.540 M 101 38.500 C 101 39.325, 101.436 40, 101.969 40 C 102.501 40, 102.678 39.325, 102.362 38.500 C 102.045 37.675, 101.609 37, 101.393 37 C 101.177 37, 101 37.675, 101 38.500 M 100.989 44.344 C 100.983 45.530, 100.699 48.188, 100.358 50.250 C 99.744 53.968, 99.767 54, 103.119 53.985 C 108.823 53.959, 109.434 52.947, 106.898 47.727 C 104.437 42.661, 101.008 40.698, 100.989 44.344 M 108 43.365 C 108 43.685, 108.990 45.985, 110.201 48.477 C 111.683 51.526, 112.908 52.870, 113.951 52.589 C 114.803 52.358, 121.800 51.398, 129.500 50.455 C 137.200 49.512, 143.835 48.440, 144.245 48.075 C 144.655 47.709, 137.680 46.607, 128.745 45.627 C 119.810 44.647, 111.487 43.606, 110.250 43.314 C 109.013 43.022, 108 43.045, 108 43.365 M 102.891 56.703 C 100.428 57.083, 100.248 57.508, 99.681 64.260 C 99.351 68.195, 99.265 71.599, 99.490 71.823 C 100.163 72.496, 120.361 77.973, 120.746 77.587 C 120.942 77.391, 118.727 72.454, 115.823 66.615 C 110.152 55.212, 110.553 55.519, 102.891 56.703 M 89.500 58.693 C 87.281 59.204, 41.591 72.192, 41.346 72.381 C 41.261 72.446, 50.542 83.525, 61.970 97 C 73.399 110.475, 82.339 121.656, 81.837 121.846 C 81.336 122.036, 68.909 122.936, 54.223 123.846 L 27.519 125.500 41.375 133.376 C 48.996 137.708, 64.024 145.210, 74.772 150.047 L 94.312 158.843 90.906 160.252 C 89.033 161.027, 77.075 165.675, 64.333 170.580 C 51.591 175.486, 41.276 179.609, 41.410 179.744 C 41.545 179.878, 44.995 179.532, 49.078 178.973 C 55.258 178.127, 123.663 175.133, 139.128 175.031 L 143.757 175 144.900 167.315 C 146.044 159.622, 147.904 155.504, 160.768 132.175 L 164.257 125.849 153.878 126.490 C 143.689 127.120, 143.223 127.051, 128.275 122.701 C 119.901 120.264, 113.295 118.669, 113.596 119.156 C 114.516 120.643, 94.820 153.868, 93.353 153.305 C 92.326 152.911, 92.204 150.140, 92.776 140.153 C 93.174 133.194, 93.500 124.141, 93.500 120.036 L 93.500 112.572 89.559 111.462 C 83.641 109.796, 83.827 108, 89.917 108 L 95 108 95 104.312 C 95 101.449, 93.979 99.325, 90.434 94.812 C 87.922 91.616, 86.066 89, 86.308 89 C 86.550 89, 88.569 89.642, 90.795 90.428 C 95.574 92.114, 96 91.603, 96 84.197 C 96 79.890, 95.588 79.142, 90.256 73.753 L 84.512 67.949 89.506 69.464 C 97.066 71.757, 97 71.800, 97 64.500 C 97 58.048, 96.980 58.001, 94.250 58.116 C 92.737 58.180, 90.600 58.439, 89.500 58.693 M 98.653 85.165 C 96.894 91.733, 97.500 92.653, 105.106 94.964 C 109.014 96.151, 112.376 96.957, 112.577 96.756 C 112.779 96.555, 109.869 93.339, 106.111 89.610 C 99.685 83.233, 99.241 82.969, 98.653 85.165 M 97 105.671 C 97 106.834, 97.739 108.070, 98.643 108.417 C 101.291 109.433, 101.563 108.118, 99.194 105.750 L 97 103.556 97 105.671 M 96.577 123.750 C 96.241 129.113, 95.732 136.650, 95.445 140.500 L 94.925 147.500 100.528 138 C 103.610 132.775, 107.188 126.687, 108.479 124.470 C 111.487 119.307, 110.559 117.541, 103.785 115.529 C 100.954 114.688, 98.311 114, 97.912 114 C 97.513 114, 96.912 118.388, 96.577 123.750" stroke="none" fill="black" fill-rule="evenodd"/>
</svg>