<svg xmlns="http://www.w3.org/2000/svg" width="200" height="200" viewBox="0 0 200 200" version="1.1">
	<path d="M 138 9.615 C 136.075 9.790, 113.125 11.127, 87 12.585 L 39.500 15.236 30.750 20.748 C 25.937 23.780, 22 26.576, 22 26.963 C 22 29.094, 24.026 28.350, 31.689 23.406 L 40.168 17.936 91.834 14.979 C 120.250 13.353, 145.331 12.017, 147.569 12.011 L 151.638 12 160.750 29.750 L 169.862 47.500 167.441 60.500 C 165.149 72.811, 165.020 75.542, 165.010 112.012 L 165 150.524 146.886 166.910 C 136.923 175.923, 129.032 182.442, 129.350 181.398 C 134.520 164.447, 145 127.248, 145 125.851 C 145 124.460, 131.837 75.230, 128.417 63.829 C 127.967 62.331, 127.244 62.435, 121.465 64.829 C 117.918 66.298, 115.012 67.797, 115.008 68.159 C 115.003 68.522, 119.325 79.772, 124.612 93.159 C 136.442 123.118, 136.230 122.563, 135.646 121.979 C 135.382 121.716, 125.246 109.161, 113.120 94.081 L 91.073 66.662 94.582 62.777 C 96.512 60.641, 98.517 57.904, 99.037 56.696 C 100.054 54.331, 105.205 30.805, 104.765 30.533 C 103.137 29.527, 78.832 19.856, 78.619 20.130 C 78.461 20.334, 75.925 23.987, 72.982 28.250 C 70.040 32.513, 67.332 36, 66.964 36 C 66.596 36, 63.866 32.868, 60.897 29.039 C 55.631 22.247, 53 20.419, 53 23.550 C 53 24.908, 58.286 46.036, 59.609 49.965 C 59.938 50.943, 61.122 49.863, 63.170 46.715 C 64.856 44.122, 66.585 42, 67.011 42 C 67.437 42, 72.184 47.480, 77.560 54.177 L 87.334 66.353 86.055 78.427 C 85.352 85.067, 83.759 93.730, 82.517 97.679 C 80.549 103.933, 80.322 106.322, 80.760 116.234 L 81.262 127.610 91.691 136.982 C 98.874 143.437, 101.712 146.580, 100.810 147.082 C 95.875 149.828, 44.755 172.986, 43.753 172.930 C 42.511 172.861, 24.877 153.130, 24.175 151.024 C 23.974 150.421, 28.264 143.981, 33.709 136.714 C 39.155 129.446, 43.979 122.890, 44.429 122.144 C 45.005 121.191, 42.500 118.027, 36.008 111.508 L 26.767 102.229 35.536 95.614 C 40.359 91.976, 44.737 89, 45.266 89 C 46.631 89, 69 71.008, 69 69.910 C 69 67.816, 65.931 69.479, 56.039 76.932 C 43.890 86.084, 46.881 86.646, 31.520 72.324 L 21.701 63.168 22.653 51.834 C 23.310 44.003, 23.279 40.278, 22.552 39.782 C 21.192 38.854, 20.414 42.653, 19.518 54.604 L 18.806 64.094 27.153 71.853 C 31.744 76.121, 37.237 81.183, 39.360 83.102 L 43.221 86.591 33.110 93.969 C 27.550 98.027, 23 101.598, 23 101.906 C 23 102.213, 27.229 106.747, 32.398 111.982 L 41.796 121.500 30.802 136.269 L 19.808 151.038 27.552 159.769 C 31.812 164.571, 37.025 170.396, 39.136 172.714 L 42.975 176.929 74.488 162.325 C 91.819 154.293, 106 147.387, 106 146.979 C 106 146.571, 101.099 141.838, 95.109 136.462 L 84.218 126.687 83.535 116.593 C 82.928 107.623, 83.125 105.555, 85.303 98 C 86.650 93.325, 88.080 85.926, 88.480 81.558 C 88.880 77.190, 89.498 72.837, 89.853 71.885 C 90.341 70.580, 96.397 77.527, 114.500 100.158 C 127.700 116.660, 139.063 130.481, 139.752 130.872 C 140.693 131.405, 138.882 138.866, 132.457 160.913 C 127.757 177.045, 124.043 190.360, 124.205 190.502 C 124.367 190.643, 134.284 181.926, 146.242 171.130 L 167.984 151.500 168.033 111.500 C 168.079 74.215, 168.237 70.672, 170.362 59.309 L 172.641 47.118 163.071 28.309 L 153.500 9.500 147.500 9.398 C 144.200 9.341, 139.925 9.439, 138 9.615 M 74.973 30.132 C 72.178 33.974, 69.698 37.654, 69.460 38.309 C 69.222 38.964, 73.567 45.053, 79.116 51.840 L 89.203 64.179 92.188 61.340 C 93.829 59.778, 95.571 57.766, 96.058 56.868 C 96.921 55.279, 102.052 32.719, 101.644 32.311 C 101.532 32.198, 96.628 30.090, 90.747 27.626 L 80.054 23.146 74.973 30.132 M 57.387 30.750 C 57.675 31.712, 58.441 34.750, 59.091 37.500 C 60.628 44.009, 61.449 44.771, 63.518 41.612 C 65.193 39.056, 65.156 38.922, 61.406 34.005 C 57.291 28.610, 56.576 28.030, 57.387 30.750 M 121.819 67.815 L 118.175 69.500 129.757 98.785 C 136.127 114.892, 141.630 127.598, 141.987 127.021 C 142.586 126.052, 127.143 67.796, 125.982 66.645 C 125.697 66.362, 123.824 66.889, 121.819 67.815" stroke="none" fill="black" fill-rule="evenodd"/>
</svg>