<svg xmlns="http://www.w3.org/2000/svg" width="200" height="200" viewBox="0 0 200 200" version="1.1">
	<path d="M 129 20.058 C 110.575 23.288, 94.150 25.958, 92.500 25.992 C 90.850 26.027, 75.883 24.172, 59.240 21.871 C 42.598 19.569, 28.678 17.989, 28.307 18.360 C 26.690 19.977, 30.917 20.903, 54 23.986 C 67.475 25.786, 78.845 27.568, 79.267 27.947 C 79.689 28.325, 76.314 29.225, 71.767 29.946 C 62.534 31.412, 59.507 32.491, 62 33.431 C 62.825 33.742, 79.250 34.110, 98.500 34.248 L 133.500 34.500 104.032 42.730 L 74.564 50.960 69.580 55.944 C 66.838 58.686, 64.799 61.109, 65.048 61.329 C 65.493 61.722, 135.883 66.054, 141.250 66.018 C 142.762 66.008, 144 66.358, 144 66.795 C 144 67.233, 133.336 69.370, 120.301 71.545 C 97.126 75.413, 96.215 75.656, 79.052 82.566 C 67.685 87.143, 61.394 90.193, 61.195 91.225 C 60.932 92.593, 61.987 92.478, 68.694 90.409 C 72.987 89.084, 77.017 88, 77.650 88 C 78.282 88, 83.772 93.738, 89.848 100.750 C 100.245 112.748, 100.797 113.600, 99.199 115.200 C 97.795 116.605, 84.534 121.019, 59.603 128.378 C 55.940 129.459, 54.758 130.988, 39.853 153.912 C 31.134 167.323, 24 177.840, 24 177.282 C 24 176.724, 27.145 161.245, 30.990 142.884 L 37.980 109.500 37.990 71.750 C 37.999 37.783, 37.839 34, 36.397 34 C 34.951 34, 34.820 37.679, 35.055 71.750 L 35.316 109.500 27.617 146 C 23.383 166.075, 19.699 183.234, 19.430 184.132 C 19.161 185.029, 19.573 186.006, 20.346 186.302 C 21.323 186.677, 27.165 178.490, 39.512 159.440 L 57.273 132.038 65.886 129.403 C 87.977 122.645, 92.997 121.244, 92.951 121.849 C 92.924 122.207, 87.771 127.895, 81.501 134.488 C 74.338 142.020, 70.546 146.711, 71.300 147.107 C 71.960 147.454, 78.269 148.312, 85.320 149.013 C 95.608 150.037, 97.879 150.534, 96.820 151.531 C 96.094 152.214, 85.600 158.962, 73.500 166.526 C 61.400 174.091, 51.275 180.503, 51 180.775 C 50.185 181.582, 109.968 180.110, 144.500 178.472 C 184.958 176.554, 189 176.196, 189 174.529 C 189 173.807, 187.988 172.983, 186.750 172.696 C 185.512 172.410, 171.975 169.345, 156.666 165.886 C 135.922 161.198, 129.199 159.329, 130.274 158.548 C 131.067 157.972, 140.579 152.781, 151.412 147.014 C 165.992 139.252, 170.640 136.346, 169.304 135.829 C 168.312 135.445, 156.700 134.160, 143.500 132.974 C 130.300 131.787, 119.212 130.520, 118.861 130.158 C 115.932 127.143, 109.975 119.692, 110.263 119.404 C 110.661 119.005, 173.826 113, 177.622 113 C 178.930 113, 179.990 112.662, 179.978 112.250 C 179.966 111.838, 172.653 106.702, 163.728 100.838 C 149.408 91.430, 147.088 90.227, 144 90.607 C 142.075 90.843, 147.025 89.160, 155 86.865 C 162.975 84.571, 169.582 82.643, 169.683 82.581 C 170.084 82.332, 177.901 32.568, 177.588 32.255 C 177.403 32.070, 170.560 39.024, 162.380 47.709 L 147.508 63.500 143.004 63.328 C 129.738 62.822, 78.874 59.875, 75.103 59.394 L 70.705 58.833 73.603 56.004 C 76.093 53.572, 81.447 51.804, 111.750 43.405 C 135.304 36.877, 147 33.198, 147 32.318 C 147 31.277, 142.953 30.977, 127.750 30.889 L 108.500 30.777 137.250 23.678 C 156.380 18.954, 166 16.147, 166 15.289 C 166 13.537, 166.796 13.435, 129 20.058 M 114.750 25.662 C 115.438 25.940, 116.563 25.940, 117.250 25.662 C 117.938 25.385, 117.375 25.158, 116 25.158 C 114.625 25.158, 114.063 25.385, 114.750 25.662 M 105 27 L 101.500 27.737 105 27.769 C 106.925 27.786, 109.625 27.440, 111 27 L 113.500 26.199 111 26.231 C 109.625 26.249, 106.925 26.595, 105 27 M 88 30.028 C 85.424 30.550, 86.721 30.771, 92.917 30.868 C 97.546 30.941, 101.146 30.838, 100.917 30.641 C 99.932 29.792, 91.208 29.378, 88 30.028 M 162.056 51.984 L 150.811 64 154.324 64 C 163.951 64, 163.211 67.310, 153.250 68.804 L 145.500 69.966 135.338 80.733 C 129.750 86.655, 125.283 91.608, 125.412 91.741 C 125.542 91.873, 135.048 89.360, 146.537 86.156 L 167.425 80.330 170.647 60.433 C 172.419 49.489, 173.741 40.408, 173.585 40.252 C 173.429 40.096, 168.241 45.375, 162.056 51.984 M 116.500 74.968 C 101.040 77.689, 93.453 79.525, 87.742 81.929 L 79.985 85.193 82.383 88.043 C 90.705 97.934, 102.423 111, 102.971 111 C 103.327 111, 105.817 108.453, 108.504 105.341 L 113.390 99.682 109.445 100.314 C 107.275 100.662, 104.037 101.240, 102.250 101.598 C 99.752 102.099, 99 101.907, 99 100.767 C 99 99.735, 102.045 98.467, 109.028 96.590 L 119.055 93.895 126.902 85.698 C 137.342 74.792, 140.475 70.970, 138.839 71.136 C 138.103 71.210, 128.050 72.934, 116.500 74.968 M 132.271 95.853 L 119.041 98.500 113.941 103.500 C 106.752 110.548, 104.476 113.876, 105.884 115.284 C 106.723 116.123, 115.359 115.675, 139.507 113.538 C 157.378 111.956, 171.989 110.401, 171.975 110.081 C 171.941 109.297, 147.212 92.973, 146.256 93.103 C 145.840 93.160, 139.547 94.398, 132.271 95.853 M 101.762 119.928 C 98.554 120.419, 96.451 122.197, 86.947 132.454 C 77.762 142.365, 76.180 144.519, 77.685 145.059 C 78.683 145.417, 85.250 146.289, 92.278 146.995 C 99.305 147.702, 105.226 148.557, 105.436 148.896 C 105.645 149.235, 97.940 154.460, 88.312 160.506 C 78.685 166.553, 68.489 172.995, 65.654 174.822 L 60.500 178.144 90 177.539 C 117.133 176.981, 175.990 174.343, 176.681 173.653 C 176.843 173.490, 165.619 170.794, 151.738 167.660 C 137.857 164.526, 125.164 161.605, 123.531 161.167 C 120.542 160.367, 124.213 158.187, 161 138.920 C 162.333 138.222, 162.333 138.080, 161 137.647 C 160.175 137.379, 150.275 136.347, 139 135.353 L 118.500 133.546 114.892 129.523 C 105.647 119.214, 105.782 119.312, 101.762 119.928" stroke="none" fill="black" fill-rule="evenodd"/>
</svg>