<svg xmlns="http://www.w3.org/2000/svg" width="200" height="200" viewBox="0 0 200 200" version="1.1">
	<path d="M 86.184 24.036 C 82.163 30.608, 79.157 36.444, 79.504 37.007 C 80.045 37.881, 80.623 77.763, 80.920 134.750 C 80.973 144.864, 81.360 150, 82.070 150 C 82.820 150, 83.074 132.825, 82.919 92.568 L 82.698 35.135 88.099 26.096 C 91.070 21.124, 93.961 17.044, 94.525 17.028 C 95.089 17.013, 98.750 20.262, 102.661 24.250 L 109.772 31.500 108.982 51.231 C 108.547 62.083, 108.041 87.733, 107.855 108.231 L 107.519 145.500 121.509 152.737 C 129.204 156.717, 135.725 159.979, 136 159.985 C 136.275 159.992, 140.720 152.530, 145.877 143.403 C 154.149 128.764, 156.093 124.316, 162.377 105.654 L 169.500 84.500 169.471 127.196 C 169.455 150.679, 169.222 170.112, 168.953 170.381 C 168.684 170.650, 163.088 171.789, 156.519 172.913 L 144.575 174.956 134.981 165.530 L 125.387 156.105 119.943 156.551 C 116.949 156.797, 104.375 157.453, 92 158.009 C 79.625 158.565, 65.216 159.298, 59.979 159.637 L 50.459 160.254 39.556 172.121 C 33.560 178.647, 28.526 183.859, 28.370 183.703 C 28.214 183.547, 27.116 177.362, 25.930 169.960 C 24.003 157.926, 23.758 152.177, 23.618 115.691 L 23.462 74.883 31.851 65.361 C 36.465 60.124, 40.582 56.213, 41 56.670 C 41.418 57.126, 43.529 61.550, 45.691 66.500 L 49.622 75.500 48.839 113.944 C 48.408 135.089, 48.301 152.639, 48.600 152.944 C 48.900 153.250, 56.570 154.192, 65.645 155.037 C 80.120 156.386, 84.543 156.210, 82.692 154.359 C 82.271 153.938, 56.515 151.127, 52.182 151.030 C 51.102 151.005, 50.993 144.080, 51.580 112.691 L 52.296 74.381 47.001 62.691 C 44.088 56.261, 41.434 51.027, 41.103 51.059 C 40.771 51.091, 36.016 56.284, 30.536 62.598 L 20.571 74.077 20.709 114.377 C 20.839 152.625, 20.982 155.562, 23.511 172.088 C 24.977 181.665, 26.296 189.623, 26.444 189.773 C 26.591 189.922, 32.289 183.988, 39.106 176.585 L 51.500 163.124 58.500 162.531 C 62.350 162.205, 78.758 161.302, 94.962 160.524 L 124.425 159.110 134.185 168.581 C 142.053 176.216, 144.387 177.953, 146.223 177.541 C 147.475 177.260, 152.775 176.342, 158 175.500 C 163.225 174.658, 168.512 173.743, 169.750 173.466 L 172 172.962 172 132.116 C 172 96.859, 172.274 89.248, 174 76.500 C 176.334 59.263, 176.442 56.686, 174.806 57.231 C 174.149 57.450, 171.484 65.475, 168.885 75.065 C 160.666 105.384, 153.425 124.593, 144.026 141.013 C 139.465 148.981, 135.549 155.707, 135.323 155.960 C 135.098 156.213, 129.288 153.618, 122.412 150.193 L 109.911 143.966 110.447 123.733 C 110.742 112.605, 111.230 86.850, 111.532 66.500 L 112.081 29.500 106.290 23.986 C 103.106 20.953, 98.924 17.035, 96.998 15.280 L 93.497 12.089 86.184 24.036" stroke="none" fill="black" fill-rule="evenodd"/>
</svg>