<svg xmlns="http://www.w3.org/2000/svg" width="200" height="200" viewBox="0 0 200 200" version="1.1">
	<path d="M 103.052 24.750 C 104.578 32.313, 105.646 38.682, 105.425 38.906 C 105.203 39.129, 93.727 38.268, 79.921 36.993 C 58.533 35.017, 54.691 34.882, 53.952 36.078 C 53.223 37.257, 52.590 37.189, 49.991 35.653 C 48.289 34.648, 46.207 34.090, 45.364 34.414 C 44.123 34.890, 44.520 35.941, 47.455 39.938 L 51.078 44.874 48.613 50.687 C 47.258 53.884, 42.469 64.375, 37.973 74 C 31.112 88.688, 22.172 113.505, 23.327 114.660 C 23.508 114.841, 31.831 108.086, 41.824 99.648 C 53.639 89.672, 61.781 81.945, 65.108 77.551 C 69.318 71.989, 70.444 71.033, 71.475 72.147 C 72.855 73.638, 93.238 100.855, 94.261 102.573 C 94.662 103.247, 88.881 102.777, 78.736 101.311 C 69.846 100.027, 62.223 99.094, 61.795 99.238 C 60.716 99.601, 81.794 132.445, 83.290 132.732 C 83.956 132.860, 91.925 128.760, 101 123.621 L 117.500 114.277 118 107.388 L 118.500 100.500 120.391 110.500 C 121.431 116, 122.462 120.986, 122.682 121.579 C 122.903 122.173, 116.427 128.377, 108.291 135.366 C 96.010 145.918, 90.022 150.146, 73 160.290 C 61.725 167.009, 46.763 175.198, 39.750 178.489 C 32.737 181.779, 27 185.040, 27 185.735 C 27 187.477, 26.816 187.499, 50.974 182.916 C 72.235 178.883, 72.734 178.730, 91.500 170.483 L 110.500 162.134 127.697 148.436 C 142.556 136.600, 146.470 132.850, 156.487 120.846 C 162.863 113.206, 168.283 106.402, 168.530 105.727 C 168.812 104.958, 163.175 101.718, 153.422 97.045 C 144.866 92.945, 137.623 89.199, 137.328 88.722 C 136.595 87.535, 133.827 55.247, 134.200 52.223 C 134.421 50.431, 136.972 54.510, 143.923 67.772 L 153.346 85.750 169.914 90.800 C 179.027 93.578, 186.630 95.704, 186.809 95.524 C 186.989 95.345, 182.043 85.141, 175.818 72.849 L 164.500 50.500 150.062 46.785 C 142.121 44.741, 134.921 42.735, 134.062 42.326 C 132.488 41.576, 131.473 41.473, 122.665 41.168 L 117.829 41 118.518 33.655 L 119.206 26.310 110.183 18.655 C 105.220 14.445, 100.961 11, 100.718 11 C 100.475 11, 101.526 17.188, 103.052 24.750 M 105 19.387 C 105 20.697, 107.081 31.567, 108.516 37.750 C 108.934 39.552, 109.731 40, 112.519 40 L 116 40 115.944 33.250 L 115.888 26.500 110.444 22.203 C 106.901 19.406, 105 18.423, 105 19.387 M 56.403 38.843 C 56.689 39.307, 60.653 41.839, 65.212 44.471 C 75.035 50.143, 74.606 49.806, 73.433 50.920 C 72.880 51.445, 69.049 49.820, 64.024 46.929 C 59.363 44.246, 55.167 42.433, 54.700 42.900 C 54.233 43.367, 57.551 48.748, 62.074 54.859 L 70.296 65.969 76.253 57.984 C 79.529 53.593, 82.612 50, 83.104 50 C 85.081 50, 83.669 52.870, 77.984 60.409 C 74.300 65.294, 72.341 68.736, 72.860 69.409 C 86.268 86.801, 100.736 106.992, 99.771 106.967 C 99.072 106.948, 91.193 105.910, 82.262 104.660 L 66.023 102.387 67.356 104.443 C 68.088 105.575, 71.992 111.675, 76.031 118 C 80.069 124.325, 83.467 129.640, 83.580 129.810 C 83.694 129.981, 90.810 126.189, 99.393 121.385 L 115 112.649 115.040 99.074 C 115.075 87.086, 114.585 82.977, 110.848 63.899 L 106.617 42.298 84.058 40.142 C 59.202 37.766, 55.634 37.598, 56.403 38.843 M 110 44.361 C 110 46.232, 114.119 66.400, 114.607 66.917 C 114.823 67.146, 115 61.858, 115 55.167 L 115 43 112.500 43 C 111.058 43, 110 43.576, 110 44.361 M 117.748 56 C 117.263 80.425, 118.545 91.288, 125.489 121.625 C 125.887 123.362, 123.170 126.163, 110.579 136.996 C 94.639 150.711, 76.886 162.285, 50.500 176.166 C 44.450 179.349, 39.950 181.960, 40.500 181.969 C 41.050 181.977, 48.396 180.646, 56.825 179.010 C 70.707 176.315, 73.903 175.262, 90.762 167.831 C 109.203 159.703, 109.526 159.506, 126.080 146.320 C 139.713 135.461, 144.584 130.850, 152.555 121.257 C 157.928 114.790, 162.972 108.738, 163.765 107.808 C 165.082 106.260, 163.891 105.458, 149.853 98.445 C 141.409 94.226, 134.433 90.712, 134.352 90.637 C 134.271 90.562, 133.459 81.050, 132.548 69.500 C 131.638 57.950, 130.693 47.528, 130.450 46.339 C 130.065 44.463, 129.215 44.133, 124.001 43.839 L 117.996 43.500 117.748 56 M 136.132 46.796 C 136.334 47.350, 140.720 55.834, 145.877 65.651 L 155.254 83.500 167.877 87.279 C 174.820 89.358, 180.840 91.045, 181.255 91.029 C 181.670 91.013, 177.740 82.469, 172.522 72.043 L 163.033 53.086 158.767 51.981 C 153.175 50.533, 140.008 47.011, 137.632 46.327 C 136.599 46.030, 135.928 46.240, 136.132 46.796 M 52 48.992 C 52 49.630, 47.679 59.455, 42.399 70.826 C 33.820 89.298, 27.436 105.769, 28.458 106.791 C 28.662 106.995, 35.280 101.700, 43.164 95.025 C 55.787 84.337, 68 71.155, 68 68.217 C 68 67.041, 54.149 48.587, 52.950 48.167 C 52.428 47.983, 52 48.355, 52 48.992" stroke="none" fill="black" fill-rule="evenodd"/>
</svg>