<svg xmlns="http://www.w3.org/2000/svg" width="200" height="200" viewBox="0 0 200 200" version="1.1">
	<path d="M 116.694 26.267 C 113.643 31.980, 108.350 42.020, 104.933 48.577 C 101.515 55.135, 98.385 60.874, 97.978 61.331 C 97.571 61.788, 91.396 63.635, 84.256 65.435 L 71.274 68.709 76.724 57.044 C 81.964 45.829, 82.336 45.323, 86.337 43.939 C 90.711 42.427, 91.484 40.720, 88.040 40.180 C 86.918 40.005, 86 39.506, 86 39.071 C 86 38.637, 87.613 34.791, 89.584 30.525 C 91.980 25.339, 92.835 22.435, 92.165 21.765 C 91.494 21.094, 90.478 22.103, 89.099 24.807 C 86.643 29.620, 89.804 29.080, 47.057 31.985 C 20.495 33.790, 12.816 34.930, 17.083 36.434 C 17.862 36.709, 30.200 37.846, 44.500 38.961 C 77.023 41.498, 81.439 41.986, 80.364 42.931 C 79.889 43.348, 67.800 47.874, 53.500 52.987 C 39.200 58.101, 27.377 62.381, 27.227 62.499 C 27.076 62.617, 38.154 71.441, 51.844 82.107 C 65.533 92.773, 76.586 101.670, 76.406 101.878 C 76.055 102.282, 41.343 108.902, 39.250 108.963 C 38.563 108.983, 38 109.658, 38 110.461 C 38 111.339, 39.699 112.370, 42.250 113.042 C 47.790 114.500, 64.135 119.020, 65.775 119.547 C 66.696 119.843, 66.209 121.624, 64.028 125.944 L 61.005 131.932 50.253 132.216 L 39.500 132.500 44.765 135.750 C 48.077 137.794, 51.328 139, 53.529 139 L 57.029 139 54.060 144.882 L 51.091 150.763 59.148 154.446 C 63.579 156.472, 67.309 157.987, 67.437 157.814 C 67.565 157.642, 69.144 153.787, 70.947 149.250 L 74.225 141 78.401 141 C 84.559 141, 118.272 143.939, 118.860 144.527 C 119.137 144.804, 117.025 154.587, 114.166 166.266 C 111.308 177.944, 108.976 187.842, 108.984 188.261 C 108.996 188.852, 161.327 146.569, 166.722 141.608 C 167.678 140.729, 167.217 137.366, 164.604 126.152 L 161.264 111.820 162.565 91.660 C 163.280 80.572, 164.126 68.068, 164.446 63.873 L 165.026 56.245 140.763 49.399 C 127.418 45.634, 117.175 42.444, 118 42.310 C 118.825 42.176, 131.650 40.922, 146.500 39.523 C 179.633 36.402, 182 36.073, 182 34.587 C 182 33.894, 170.053 29.924, 153.250 25.034 C 137.438 20.432, 123.992 16.490, 123.371 16.273 C 122.750 16.056, 119.745 20.553, 116.694 26.267 M 118.215 29.146 C 115.308 34.710, 113.095 39.429, 113.298 39.631 C 113.813 40.146, 165.845 35.111, 169.466 34.195 C 171.954 33.565, 168.699 32.359, 149.224 26.694 C 136.460 22.982, 125.451 19.738, 124.759 19.486 C 123.978 19.202, 121.494 22.868, 118.215 29.146 M 63.500 33.550 C 54.150 34.259, 44.475 34.928, 42 35.036 C 39.525 35.144, 38.175 35.393, 39 35.591 C 40.490 35.947, 78.200 39, 81.110 39 C 81.946 39, 83.381 37.425, 84.299 35.500 L 85.968 32 83.234 32.130 C 81.730 32.202, 72.850 32.841, 63.500 33.550 M 106.147 52.065 C 103.753 56.500, 101.967 60.300, 102.178 60.511 C 102.388 60.722, 107.589 59.622, 113.734 58.067 C 124.366 55.377, 126 55.256, 126 57.158 C 126 57.612, 118.240 63.162, 108.754 69.491 C 94.270 79.157, 91.989 81.003, 94.504 81.021 C 100.805 81.064, 127.327 82.994, 127.775 83.442 C 128.322 83.989, 131.902 100.759, 131.961 103.048 C 131.994 104.349, 128.440 104.883, 109.750 106.384 C 97.512 107.367, 87.463 108.245, 87.418 108.336 C 86.165 110.854, 82.846 120.161, 83.119 120.389 C 83.329 120.563, 99.025 119.671, 118 118.406 C 136.975 117.142, 153.738 116.083, 155.250 116.054 C 161.303 115.936, 157.300 118.920, 142.250 125.746 L 126.500 132.889 101.811 133.565 C 81.049 134.134, 77.028 134.484, 76.537 135.764 C 76.216 136.601, 76.077 137.410, 76.228 137.562 C 76.380 137.713, 86.853 138.615, 99.502 139.567 C 112.151 140.518, 122.617 141.384, 122.761 141.492 C 123.017 141.685, 114.382 178.116, 113.410 180.944 C 113.007 182.117, 113.251 182.094, 114.707 180.824 C 115.693 179.963, 127.300 170.384, 140.500 159.535 C 153.700 148.687, 164.455 139.291, 164.401 138.656 C 164.346 138.020, 163.023 131.763, 161.460 124.752 L 158.618 112.003 160.262 85.288 C 161.166 70.594, 161.793 58.460, 161.656 58.323 C 161.411 58.077, 111.438 43.999, 110.819 44.001 C 110.643 44.002, 108.541 47.630, 106.147 52.065 M 66 51.416 C 59.675 53.729, 49.666 57.330, 43.757 59.417 C 37.848 61.505, 33.221 63.549, 33.475 63.959 C 34.243 65.203, 78.102 99.234, 78.446 98.854 C 79.026 98.212, 86 84.061, 86 83.525 C 86 83.236, 83.188 82.994, 79.750 82.986 C 72.820 82.971, 69 82.224, 69 80.883 C 69 80.398, 73.403 80, 78.785 80 L 88.571 80 91.834 73.382 C 93.629 69.742, 94.905 66.572, 94.670 66.337 C 94.322 65.989, 74.378 70.637, 67.772 72.606 C 66.473 72.993, 67.532 69.967, 72.041 60.413 C 75.340 53.424, 77.917 47.594, 77.769 47.458 C 77.621 47.322, 72.325 49.103, 66 51.416 M 108.210 62.347 C 100.051 64.467, 99.872 64.581, 96.977 69.501 C 95.358 72.250, 94.026 74.848, 94.017 75.272 C 94.008 75.697, 98.838 72.826, 104.750 68.891 C 114.773 62.221, 118.044 59.863, 116.950 60.096 C 116.703 60.148, 112.769 61.161, 108.210 62.347 M 85.034 92.051 C 81.560 98.729, 80.940 100.674, 81.831 102.101 C 82.752 103.576, 82.568 103.922, 80.718 104.185 C 79.151 104.407, 77.516 106.361, 75.145 110.845 C 71.555 117.635, 71.717 118.593, 76.627 119.575 C 79.640 120.178, 79.740 120.067, 82.661 112.844 L 85.630 105.500 106.945 103.787 C 118.668 102.845, 128.434 101.900, 128.647 101.686 C 129.205 101.128, 126.067 86.658, 125.214 85.859 C 124.821 85.491, 116.589 84.871, 106.921 84.481 L 89.342 83.771 85.034 92.051 M 60.750 107.795 C 53.188 109.219, 47 110.648, 47 110.971 C 47 111.505, 66.504 117.058, 68.236 117.017 C 68.640 117.008, 70.334 114.300, 72 111 C 73.666 107.700, 74.910 105.047, 74.764 105.104 C 74.619 105.160, 68.313 106.372, 60.750 107.795 M 113.667 121.388 L 81.833 123.500 80.452 126 C 77.429 131.471, 76.971 131.375, 102.852 130.668 L 126.704 130.017 138.102 124.580 C 144.371 121.590, 148.600 119.174, 147.500 119.210 C 146.400 119.247, 131.175 120.227, 113.667 121.388 M 66.752 126.434 L 64.022 132 66.886 132 C 73.370 132, 75.616 130.951, 76.933 127.309 C 78.399 123.255, 77.815 122.397, 72.991 121.512 C 69.538 120.878, 69.437 120.958, 66.752 126.434 M 63.250 134.662 C 60.115 135.927, 62.487 137.074, 67.671 136.800 C 74.966 136.414, 76.464 133.962, 69.333 134.079 C 66.675 134.122, 63.938 134.385, 63.250 134.662 M 52.264 135.718 C 53.784 135.947, 56.034 135.941, 57.264 135.704 C 58.494 135.467, 57.250 135.279, 54.500 135.286 C 51.750 135.294, 50.744 135.488, 52.264 135.718 M 57.378 144.241 C 55.996 146.968, 55.018 149.351, 55.203 149.537 C 56.469 150.803, 65.463 153.919, 66.021 153.285 C 67.146 152.007, 71.396 141.058, 70.929 140.641 C 70.693 140.430, 68.113 140.038, 65.195 139.770 L 59.890 139.283 57.378 144.241" stroke="none" fill="black" fill-rule="evenodd"/>
</svg>