<svg xmlns="http://www.w3.org/2000/svg" width="200" height="200" viewBox="0 0 200 200" version="1.1">
	<path d="M 60.269 26.746 C 52.442 40.947, 45.458 53.359, 44.750 54.327 C 43.629 55.860, 42.554 53.585, 36.465 36.794 C 31.752 23.797, 28.994 17.500, 28.015 17.500 C 26.869 17.500, 25.552 24.565, 21.774 51 C 19.140 69.425, 17.160 84.960, 17.374 85.521 C 17.587 86.083, 24.136 88.522, 31.927 90.942 C 39.719 93.362, 46.268 95.625, 46.482 95.971 C 46.696 96.317, 39.668 104.677, 30.866 114.550 C 22.063 124.422, 14.622 133.056, 14.329 133.735 C 13.783 135.003, 30.036 176.970, 31.080 176.989 C 31.398 176.995, 35.184 164.173, 39.492 148.496 C 43.801 132.819, 47.515 120.182, 47.747 120.414 C 48.038 120.705, 54.813 188.370, 54.990 192.750 C 55.005 193.128, 58 193.050, 58 192.672 C 58 192.492, 62.502 177.761, 68.004 159.938 L 78.007 127.532 86.754 118.698 C 98.945 106.384, 99.722 106.161, 95.354 116.231 C 89.741 129.171, 89.141 128, 101.383 128 C 107.223 128, 112 127.832, 112 127.626 C 112 127.420, 111.307 125.287, 110.460 122.885 C 108.611 117.647, 107.993 116.976, 121.901 135.295 L 133.134 150.090 132.042 165.795 C 131.442 174.433, 130.748 182.738, 130.500 184.250 C 130.153 186.371, 130.445 186.991, 131.775 186.960 C 132.945 186.933, 139.094 177.736, 150.886 158.375 L 168.273 129.830 173.078 110.690 C 175.721 100.163, 177.728 91.394, 177.538 91.205 C 177.349 91.015, 168.963 89.530, 158.903 87.903 C 148.844 86.277, 140.532 84.846, 140.434 84.723 C 139.230 83.226, 137.033 77.756, 137.397 77.166 C 137.661 76.740, 149.138 69.447, 162.903 60.960 C 176.667 52.473, 187.608 45.220, 187.215 44.843 C 186.822 44.465, 176.413 36.006, 164.083 26.044 L 141.667 7.932 134.267 25.211 C 127.041 42.082, 124.839 46, 122.581 46 C 121.971 46, 117.834 38.709, 113.388 29.798 L 105.305 13.595 94.728 45.310 C 88.911 62.753, 84.679 76.717, 85.325 76.342 C 85.971 75.966, 90.550 72.486, 95.500 68.608 C 100.450 64.730, 108.089 59.194, 112.476 56.307 C 122.480 49.722, 123.351 50.573, 118.489 62.187 L 114.983 70.562 97.242 74.945 C 87.484 77.356, 78.773 79.516, 77.884 79.746 C 76.427 80.122, 76.181 76.266, 75.384 40.545 L 74.500 0.926 60.269 26.746 M 58.192 36.079 L 44.884 60.139 48.087 69.091 C 50.999 77.233, 51.388 80.872, 49.085 78.433 C 48.600 77.920, 44.729 67.825, 40.482 56 C 36.236 44.175, 31.827 32.025, 30.686 29 L 28.611 23.500 24.342 53 C 21.993 69.225, 20.204 82.945, 20.366 83.488 C 20.527 84.032, 27.787 86.744, 36.499 89.515 L 52.338 94.553 36.009 113.027 C 27.028 123.187, 19.001 132.294, 18.171 133.265 C 16.802 134.867, 17.299 136.602, 23.538 152.022 C 27.372 161.496, 30.709 168.457, 31.082 167.756 C 31.450 167.065, 35.252 153.787, 39.530 138.250 C 44.803 119.097, 47.742 110, 48.654 110 C 49.394 110, 50 110.191, 50 110.424 C 50 111.485, 56.019 175.112, 56.582 180 L 57.215 185.500 66.478 155.583 L 75.741 125.665 89.277 112.583 L 102.812 99.500 107.980 87.157 C 110.822 80.369, 112.946 74.613, 112.699 74.366 C 112.452 74.119, 104.112 75.961, 94.165 78.458 C 84.219 80.956, 75.388 83, 74.540 83 C 73.190 83, 72.987 79.327, 72.891 53.250 C 72.832 36.887, 72.494 20.917, 72.141 17.760 L 71.500 12.019 58.192 36.079 M 136.808 26.240 C 133.710 33.533, 131.323 39.649, 131.502 39.831 C 131.682 40.013, 132.767 39.660, 133.914 39.046 C 135.061 38.432, 136 38.337, 136 38.836 C 136 39.334, 134.446 44.804, 132.546 50.991 L 129.093 62.240 132.104 68.205 C 134.359 72.674, 135.515 74.016, 136.711 73.557 C 139.232 72.590, 182.987 45.557, 182.933 45 C 182.868 44.335, 144.767 13.756, 143.459 13.320 C 142.899 13.133, 139.905 18.947, 136.808 26.240 M 97.759 45.189 C 93.517 57.944, 90.178 68.511, 90.340 68.673 C 90.502 68.835, 94 66.388, 98.113 63.234 C 102.226 60.080, 108.609 55.535, 112.296 53.133 C 115.983 50.730, 119 48.373, 119 47.893 C 119 46.631, 106.638 22, 106.005 22 C 105.713 22, 102.002 32.435, 97.759 45.189 M 129.144 45.327 C 126.515 48.495, 124.936 54.011, 126.058 56.108 C 126.665 57.243, 127.302 58.020, 127.472 57.836 C 127.643 57.651, 128.688 54.462, 129.794 50.750 C 131.722 44.282, 131.506 42.481, 129.144 45.327 M 121.199 62.660 C 119.944 65.735, 119.140 68.473, 119.412 68.745 C 119.684 69.017, 121.017 68.962, 122.374 68.621 C 125.470 67.844, 126.712 63.236, 124.806 59.599 C 123.486 57.080, 123.472 57.092, 121.199 62.660 M 126.739 68.891 C 126.399 70.189, 124.967 70.999, 122.180 71.470 C 117.228 72.306, 116.808 72.789, 112.925 82.093 C 107.345 95.462, 107.388 94.967, 112.190 90.398 C 114.560 88.142, 120.100 84.121, 124.500 81.461 C 128.900 78.802, 132.633 76.539, 132.796 76.434 C 133.324 76.091, 128.623 67, 127.917 67 C 127.541 67, 127.011 67.851, 126.739 68.891 M 125.464 84.037 C 121.044 86.777, 114.355 92.115, 110.600 95.900 L 103.772 102.780 105.016 106.548 C 105.700 108.621, 112.954 119.151, 121.135 129.950 L 136.011 149.583 134.917 162.649 C 134.316 169.836, 133.976 176.642, 134.162 177.774 C 134.395 179.191, 139.386 171.836, 150.181 154.166 L 165.863 128.500 170.295 110.838 L 174.727 93.177 156.733 90.348 L 138.740 87.519 136.671 83.260 C 135.533 80.917, 134.354 79.012, 134.051 79.027 C 133.748 79.042, 129.884 81.296, 125.464 84.037 M 98.577 115.724 C 97.038 119.451, 95.555 123.063, 95.282 123.750 C 94.915 124.675, 96.531 125, 101.500 125 C 106.451 125, 108.093 124.672, 107.753 123.750 C 107.499 123.063, 106.498 120.025, 105.528 117 C 102.671 108.089, 101.797 107.929, 98.577 115.724" stroke="none" fill="black" fill-rule="evenodd"/>
</svg>