<svg xmlns="http://www.w3.org/2000/svg" width="200" height="200" viewBox="0 0 200 200" version="1.1">
	<path d="M 98 14.748 C 98 15.020, 102.053 21.712, 107.007 29.620 L 116.014 43.996 115.356 51.080 L 114.698 58.164 105.599 57.603 C 100.594 57.295, 84.668 56.764, 70.206 56.423 L 43.913 55.804 44.488 58.152 C 45.687 63.040, 38.385 90.825, 31.526 107.475 C 27.542 117.147, 25.336 123.736, 25.895 124.295 C 27.061 125.461, 27.465 124.674, 34.540 107.500 C 38.542 97.783, 41.456 88.505, 44.064 77.173 C 46.130 68.193, 47.974 60.698, 48.160 60.517 C 48.347 60.336, 51.806 67.761, 55.846 77.016 L 63.192 93.843 55.689 103.672 C 51.562 109.077, 42.980 118.657, 36.617 124.960 L 25.048 136.420 22.134 133.628 C 17.634 129.317, 16.912 132.379, 21.376 136.842 L 25.002 140.469 38.056 127.484 C 45.235 120.343, 54.083 110.525, 57.718 105.666 C 62.264 99.589, 64.557 97.248, 65.064 98.166 C 66.162 100.152, 88 150.029, 88 150.551 C 88 150.798, 80.237 151.045, 70.750 151.100 C 61.263 151.155, 52.494 151.492, 51.264 151.850 C 49.359 152.404, 51.277 154.066, 64.264 163.116 C 80.815 174.648, 98.461 186.021, 99.714 185.964 C 100.146 185.944, 104.518 179.249, 109.429 171.086 L 118.357 156.243 118.098 108.622 L 117.839 61 122.304 61 L 126.770 61 133.499 71.750 C 137.879 78.747, 142.082 87.313, 145.535 96.284 C 149.853 107.501, 167.169 142, 168.481 142 C 168.766 142, 185.024 123.543, 189.698 117.912 C 190.829 116.551, 189.697 113.984, 181.758 99.912 L 172.500 83.500 157.012 73.272 C 148.494 67.646, 138.458 61.796, 134.710 60.272 C 128.346 57.683, 127.598 57.037, 123.388 50.500 L 118.881 43.500 119.638 35 C 121.047 19.169, 122.148 21.032, 109.250 17.411 C 103.063 15.674, 98 14.475, 98 14.748 M 104.582 20.250 C 104.968 20.938, 107.807 25.550, 110.891 30.500 L 116.500 39.500 117.284 31.584 C 117.715 27.230, 117.715 23.342, 117.284 22.945 C 116.553 22.270, 105.986 19, 104.537 19 C 104.177 19, 104.197 19.563, 104.582 20.250 M 118 53 L 118 58 121.459 58 L 124.917 58 121.809 53 C 120.100 50.250, 118.543 48, 118.351 48 C 118.158 48, 118 50.250, 118 53 M 58.500 59.506 C 59.050 59.702, 63.381 61.015, 68.124 62.425 L 76.747 64.987 74.474 75.518 C 72.895 82.831, 71.405 87.091, 69.600 89.458 C 68.170 91.333, 67 93.470, 67 94.207 C 67 94.944, 72.628 108.322, 79.506 123.934 C 86.385 139.547, 91.765 152.568, 91.464 152.870 C 91.162 153.172, 83.171 153.662, 73.707 153.959 L 56.500 154.500 66 161.109 C 71.225 164.744, 80.763 171.128, 87.196 175.297 L 98.893 182.876 107.269 169.188 L 115.646 155.500 115.222 108 C 114.988 81.875, 114.730 60.450, 114.648 60.389 C 114.567 60.328, 101.675 60.024, 86 59.714 C 70.325 59.404, 57.950 59.310, 58.500 59.506 M 52 61.295 C 52 61.458, 54.285 66.745, 57.077 73.045 C 59.870 79.345, 62.804 86.038, 63.597 87.918 L 65.038 91.336 67.385 88.156 C 69.926 84.711, 73.755 68.309, 72.326 66.989 C 70.936 65.706, 52 60.401, 52 61.295 M 131.582 63.250 C 131.968 63.938, 134.670 68.336, 137.588 73.024 C 140.538 77.763, 145.169 87.531, 148.018 95.024 C 152.623 107.135, 167.615 137, 169.089 137 C 170.226 137, 187 117.129, 186.964 115.822 C 186.945 115.095, 183.226 107.975, 178.700 100 L 170.470 85.500 158.485 77.305 C 147.942 70.096, 133.730 62, 131.616 62 C 131.212 62, 131.197 62.563, 131.582 63.250" stroke="none" fill="black" fill-rule="evenodd"/>
</svg>