<svg xmlns="http://www.w3.org/2000/svg" width="200" height="200" viewBox="0 0 200 200" version="1.1">
	<path d="M 123.500 20.557 L 88.500 25.862 61.892 20.931 C 47.257 18.219, 34.992 16, 34.636 16 C 34.279 16, 34.259 31.637, 34.591 50.750 L 35.195 85.500 31.112 119.560 L 27.029 153.621 30.582 160.310 C 32.535 163.990, 34.364 167, 34.646 167 C 34.927 167, 43.708 162.235, 54.158 156.412 C 64.608 150.589, 73.346 146.013, 73.577 146.244 C 73.808 146.475, 71.295 155.177, 67.992 165.582 C 61.112 187.261, 61.135 187.164, 62.588 187.676 C 63.187 187.886, 75.517 175.213, 89.988 159.513 C 104.460 143.812, 116.417 131.087, 116.560 131.233 C 116.704 131.380, 120.276 144.775, 124.500 161 C 128.724 177.225, 132.364 190.688, 132.590 190.917 C 133.136 191.471, 131.699 193.797, 149.225 164 L 164.813 137.500 163.445 130 C 162.155 122.919, 162.222 121.789, 164.654 109.771 C 166.071 102.769, 167.008 96.463, 166.737 95.757 C 166.466 95.050, 162.927 93.411, 158.872 92.114 C 149.396 89.083, 146 87.319, 146 85.429 C 146 84.593, 153.762 75.134, 163.250 64.408 C 179.291 46.274, 182.534 42, 180.252 42 C 179.759 42, 168.353 46.435, 154.905 51.857 L 130.454 61.713 119.477 62.341 C 113.440 62.686, 99.296 63.077, 88.046 63.209 L 67.591 63.449 63.248 52.605 C 60.860 46.641, 59.114 41.553, 59.369 41.298 C 59.623 41.043, 69.657 42.662, 81.666 44.895 L 103.500 48.955 123.500 39.270 C 145.575 28.579, 146.468 28.068, 145.221 26.821 C 144.735 26.335, 135.332 30.365, 123.760 36.017 L 103.163 46.078 78.892 41.562 C 65.543 39.078, 54.526 37.148, 54.409 37.273 C 54.293 37.398, 56.380 42.900, 59.049 49.500 C 61.717 56.100, 63.923 62.063, 63.950 62.750 C 63.981 63.529, 62.637 64, 60.386 64 L 56.772 64 63.376 70.250 C 69.903 76.427, 70.054 76.692, 76.364 93 C 81.844 107.165, 82.518 109.587, 81.124 110.114 C 80.231 110.451, 74.213 111.293, 67.750 111.983 C 59.467 112.868, 56 113.620, 56 114.530 C 56 115.440, 58.578 115.997, 64.750 116.418 C 89.622 118.118, 89.258 118.112, 88.716 116.783 C 88.428 116.078, 87.908 114.797, 87.561 113.937 C 87.031 112.625, 88.498 112.190, 96.705 111.230 C 106.213 110.117, 106.549 110.147, 108.990 112.322 C 116.251 118.790, 114.084 119.839, 129.594 102.339 C 138.167 92.666, 143.615 87.247, 143.800 88.206 C 143.986 89.169, 147.609 91.001, 153.300 93.009 C 158.360 94.795, 162.876 96.597, 163.336 97.014 C 163.795 97.430, 163.071 103.215, 161.727 109.869 C 159.455 121.115, 159.375 122.497, 160.594 129.509 L 161.906 137.052 148.203 160.480 C 140.666 173.366, 134.234 183.929, 133.908 183.954 C 133.583 183.979, 130.037 171.287, 126.030 155.750 C 122.023 140.212, 118.425 127.146, 118.035 126.713 C 117.645 126.280, 105.919 138.309, 91.978 153.445 C 78.037 168.580, 66.511 180.844, 66.364 180.698 C 66.218 180.551, 68.983 171.467, 72.509 160.509 C 76.036 149.552, 78.744 140.410, 78.528 140.194 C 78.311 139.978, 68.542 145.191, 56.817 151.778 L 35.500 163.755 32.710 158.330 L 29.920 152.905 34.060 118.203 L 38.200 83.500 37.491 51.148 C 36.805 19.904, 36.845 18.814, 38.641 19.339 C 39.663 19.638, 48.375 21.314, 58 23.064 C 67.625 24.814, 75.848 26.561, 76.274 26.947 C 76.700 27.333, 70.738 28.480, 63.024 29.497 C 52.962 30.823, 49 31.720, 49 32.672 C 49 33.748, 54.936 33.997, 80.250 33.986 C 97.438 33.979, 112.513 33.701, 113.750 33.370 C 117.440 32.381, 116.313 31.130, 111.437 30.805 C 107.805 30.562, 112.740 29.173, 135.607 24 C 152.650 20.145, 164.508 16.991, 164.754 16.250 C 165.375 14.369, 162.018 14.719, 123.500 20.557 M 123.813 23.683 C 124.534 23.972, 125.397 23.936, 125.729 23.604 C 126.061 23.272, 125.471 23.036, 124.417 23.079 C 123.252 23.127, 123.015 23.364, 123.813 23.683 M 106.500 25.900 C 98.578 27.238, 97.187 27.702, 99.807 28.130 C 101.687 28.437, 107.082 27.704, 112.307 26.431 C 123.188 23.780, 120.499 23.534, 106.500 25.900 M 78.500 30 C 75.804 30.483, 78.250 30.724, 86 30.740 C 93.198 30.755, 96.378 30.478, 94.500 30 C 90.781 29.054, 83.785 29.054, 78.500 30 M 151.576 56.070 L 129.652 64.964 99.309 65.642 C 69.141 66.317, 68.971 66.333, 69.608 68.410 C 70.927 72.710, 72.677 74.993, 79.280 81.032 L 86.059 87.232 94.780 86.536 C 103.430 85.847, 103.640 85.765, 120.861 76.332 C 130.409 71.101, 138.552 67.199, 138.956 67.661 C 139.359 68.122, 140.742 71.388, 142.029 74.917 L 144.369 81.335 148.934 76.344 C 161.785 62.299, 175.053 47.010, 174.324 47.088 C 173.871 47.137, 163.634 51.179, 151.576 56.070 M 64 66.378 C 64 66.585, 64.685 67.324, 65.523 68.019 C 66.796 69.076, 66.943 69.014, 66.416 67.641 C 65.878 66.240, 64 65.257, 64 66.378 M 120 79.904 L 103.500 88.774 94.184 89.381 L 84.867 89.988 79.366 84.785 L 73.864 79.581 75.827 84.541 C 76.906 87.268, 79.479 93.775, 81.543 99 C 83.607 104.225, 85.567 108.777, 85.898 109.115 C 86.229 109.453, 91 109.177, 96.500 108.501 C 105.719 107.368, 106.702 107.414, 109.089 109.090 C 110.513 110.089, 112.255 111.603, 112.961 112.453 C 113.667 113.304, 114.584 114, 114.999 114 C 115.414 114, 121.697 107.253, 128.961 99.007 L 142.168 84.014 140.002 77.507 C 138.811 73.928, 137.536 71.008, 137.168 71.017 C 136.801 71.027, 129.075 75.026, 120 79.904 M 78 114 C 78 114.550, 79.602 115, 81.559 115 C 83.677 115, 84.868 114.595, 84.500 114 C 84.160 113.450, 82.559 113, 80.941 113 C 79.323 113, 78 113.450, 78 114" stroke="none" fill="black" fill-rule="evenodd"/>
</svg>