<svg xmlns="http://www.w3.org/2000/svg" width="200" height="200" viewBox="0 0 200 200" version="1.1">
	<path d="M 37.718 18.250 C 37.413 20.587, 35.928 35.325, 34.416 51 L 31.669 79.500 41.312 106.087 L 50.955 132.675 44.875 150.886 L 38.795 169.096 41.363 172.798 C 42.775 174.834, 45.184 177.977, 46.715 179.783 L 49.500 183.066 72 153.539 C 84.375 137.299, 94.744 124.009, 95.043 124.006 C 95.341 124.003, 97.591 137.782, 100.043 154.626 C 102.961 174.680, 104.932 185.418, 105.751 185.733 C 106.439 185.998, 123.314 183.674, 143.251 180.568 C 190.840 173.155, 192.307 172.894, 191.333 172.010 C 190.875 171.594, 183.770 168.226, 175.544 164.524 C 163.693 159.192, 152.703 153.122, 148.111 149.372 C 147.896 149.198, 148.858 147.564, 150.247 145.743 C 151.636 143.922, 154.580 137.723, 156.789 131.966 L 160.805 121.500 161.444 91.250 C 162.049 62.598, 161.988 61.001, 160.291 61.022 C 159.306 61.034, 150.625 61.924, 141 63 C 117.076 65.675, 118.277 65.763, 117.094 61.250 C 114.469 51.237, 114.316 52, 118.947 52 C 121.238 52, 134.343 48.850, 148.070 45 C 161.798 41.150, 173.248 38, 173.515 38 C 173.782 38, 174 37.294, 174 36.432 C 174 35.042, 171.872 34.934, 155.250 35.479 L 136.500 36.093 120.029 27.101 C 110.970 22.155, 103.412 18.255, 103.233 18.434 C 103.054 18.613, 104.737 25.629, 106.974 34.026 C 109.211 42.422, 110.920 49.392, 110.771 49.514 C 110.622 49.636, 105.056 50.044, 98.403 50.419 L 86.306 51.103 85.403 46.852 C 84.504 42.619, 84.407 42.543, 62 28.356 C 49.625 20.520, 39.224 14.085, 38.886 14.055 C 38.548 14.025, 38.023 15.912, 37.718 18.250 M 37.433 48.532 L 34.448 78.924 44.175 105.880 L 53.901 132.836 47.881 150.868 L 41.861 168.899 45.180 173.411 C 47.006 175.892, 48.810 177.940, 49.188 177.961 C 49.567 177.982, 60.367 164.268, 73.188 147.485 C 91.210 123.894, 96.661 117.371, 97.210 118.735 C 97.600 119.706, 99.950 134.400, 102.432 151.389 C 104.914 168.378, 107.164 182.497, 107.432 182.765 C 107.700 183.033, 124.805 180.623, 145.443 177.409 C 166.080 174.195, 182.636 171.255, 182.233 170.874 C 181.830 170.494, 176.371 167.880, 170.101 165.065 C 163.832 162.250, 155.785 157.907, 152.218 155.414 L 145.734 150.881 143.031 153.470 L 140.328 156.060 129.164 144.131 C 118.762 133.016, 115.928 128.991, 119.459 130.346 C 120.262 130.654, 126.424 134.594, 133.153 139.102 L 145.387 147.299 147.944 144.217 C 149.350 142.521, 152.172 136.717, 154.215 131.317 L 157.929 121.500 158.599 92.596 L 159.269 63.691 154.495 64.346 C 151.869 64.706, 148.241 65, 146.432 65 C 143.901 65, 140.763 66.761, 132.821 72.639 C 127.145 76.840, 122.406 80.346, 122.290 80.431 C 122.175 80.516, 124.528 89.763, 127.519 100.981 C 130.510 112.198, 132.792 121.541, 132.589 121.744 C 132.202 122.132, 62.813 102.097, 62.067 101.382 C 61.828 101.154, 62.053 100.554, 62.567 100.049 C 63.134 99.491, 67.918 100.088, 74.776 101.574 L 86.053 104.016 96.609 96.258 L 107.165 88.500 87.517 88 L 67.869 87.500 77.940 80.042 C 87.976 72.610, 88.010 72.570, 87.375 69.042 C 86.033 61.594, 87.700 62.343, 63.750 58.429 C 45.256 55.406, 42.351 53.728, 53.750 52.652 C 57.462 52.301, 63.200 52.007, 66.500 51.998 C 69.800 51.990, 74.862 51.699, 77.750 51.352 C 82.276 50.808, 83 50.422, 83 48.552 C 83 47.359, 82.437 45.653, 81.750 44.763 C 80.801 43.534, 59.489 29.788, 41.459 18.776 C 40.770 18.355, 39.408 28.419, 37.433 48.532 M 107.311 24.585 C 107.614 25.638, 109.043 31, 110.487 36.500 C 111.931 42, 113.324 47.231, 113.584 48.124 C 113.958 49.416, 115.021 49.655, 118.777 49.292 C 123.325 48.854, 159.978 39.313, 161 38.302 C 161.275 38.030, 156.018 38.132, 149.318 38.528 L 137.135 39.249 126.318 33.496 C 120.368 30.331, 113.534 26.601, 111.130 25.206 C 107.159 22.901, 106.811 22.844, 107.311 24.585 M 99.805 53.028 C 93.373 53.319, 87.874 53.793, 87.586 54.081 C 87.298 54.369, 87.325 56.230, 87.648 58.217 C 88.096 60.979, 89.207 62.520, 92.367 64.764 C 96.344 67.589, 96.764 67.669, 103.500 66.901 C 107.350 66.462, 111.513 66.080, 112.750 66.051 C 115.444 65.990, 115.494 65.151, 113.236 58 L 111.500 52.500 99.805 53.028 M 66.500 54.806 C 61.840 55.221, 62.276 55.380, 72.905 57.137 C 79.178 58.174, 84.507 58.827, 84.746 58.587 C 84.986 58.347, 84.886 57.217, 84.524 56.075 C 83.942 54.242, 83.145 54.021, 77.683 54.180 C 74.282 54.279, 69.250 54.561, 66.500 54.806 M 127.019 67.193 C 122.905 67.707, 119.386 68.281, 119.200 68.467 C 118.638 69.028, 121.263 77, 122.009 77 C 122.866 77, 136 67.111, 136 66.466 C 136 66.210, 135.662 66.058, 135.250 66.129 C 134.838 66.200, 131.134 66.679, 127.019 67.193 M 90.369 70.151 C 90.995 73.488, 90.812 73.724, 83.307 79.288 L 75.603 85 93.498 85 C 111.227 85, 111.428 84.975, 115.216 82.350 C 117.670 80.650, 118.875 79.127, 118.579 78.100 C 118.326 77.220, 117.655 74.700, 117.089 72.500 L 116.058 68.500 105.965 69.428 C 96.974 70.255, 95.538 70.158, 92.799 68.541 L 89.726 66.725 90.369 70.151 M 117.500 84 C 117.160 84.550, 117.584 85, 118.441 85 C 119.298 85, 120 84.550, 120 84 C 120 83.450, 119.577 83, 119.059 83 C 118.541 83, 117.840 83.450, 117.500 84 M 99.934 97.090 L 87.613 106.279 107.918 112.195 C 119.085 115.449, 128.406 117.927, 128.631 117.702 C 128.856 117.477, 127.305 110.814, 125.183 102.896 L 121.325 88.500 116.790 88.200 C 112.458 87.914, 111.700 88.314, 99.934 97.090 M 134.469 145.860 C 137.751 149.237, 140.509 152, 140.596 152 C 140.684 152, 141.287 151.360, 141.936 150.577 C 142.902 149.413, 142.060 148.443, 137.309 145.251 C 128.333 139.220, 128.069 139.277, 134.469 145.860" stroke="none" fill="black" fill-rule="evenodd"/>
</svg>