<svg xmlns="http://www.w3.org/2000/svg" width="200" height="200" viewBox="0 0 200 200" version="1.1">
	<path d="M 32 7.513 C 32 7.796, 34.159 12.858, 36.798 18.763 C 41.399 29.060, 41.532 29.613, 40.048 32.248 C 38.947 34.203, 37.706 34.997, 35.750 34.998 C 33.071 35, 33 35.148, 32.986 40.750 C 32.974 46.031, 32.024 48.459, 21.351 70.500 C 14.959 83.700, 9.761 95.175, 9.799 96 C 9.908 98.345, 29.127 168.411, 29.887 169.232 C 30.260 169.635, 41.059 161.619, 53.886 151.420 C 66.713 141.220, 77.368 133.035, 77.564 133.230 C 77.759 133.426, 76.369 146.167, 74.473 161.543 C 70.540 193.436, 70.571 193, 72.263 193 C 73.039 193, 79.108 176.208, 88.013 149.422 L 102.500 105.844 103.138 115.172 C 103.489 120.302, 103.888 132.825, 104.024 143 C 104.160 153.175, 104.548 166.689, 104.886 173.031 L 105.500 184.562 141 181.158 C 160.525 179.286, 176.682 177.590, 176.905 177.389 C 177.128 177.188, 177.528 143.718, 177.795 103.012 C 178.221 38.078, 178.099 29, 176.799 29 C 175.689 29, 171.477 43.112, 160.011 85.250 C 151.592 116.188, 144.545 141.689, 144.350 141.919 C 143.414 143.024, 145.515 128.004, 148.076 115.279 C 149.738 107.018, 152.005 98.950, 153.485 96.029 C 155.013 93.014, 155.569 91, 154.874 91 C 153.636 91, 110.690 99.773, 107.750 100.627 C 106.641 100.949, 106 100.591, 106 99.651 C 106 98.798, 116.397 91.655, 130.478 82.834 C 143.941 74.400, 154.797 67.050, 154.603 66.500 C 154.409 65.950, 153.648 65.645, 152.911 65.821 C 152.175 65.998, 140.698 72.513, 127.407 80.298 C 104.639 93.636, 103.191 94.658, 102.371 97.977 C 101.448 101.712, 99.654 102.531, 88.135 104.477 L 84 105.176 84 73.043 L 84 40.909 87.750 41.596 C 89.813 41.973, 99.133 43.713, 108.462 45.463 L 125.424 48.643 136.462 46.363 C 142.533 45.109, 149.412 44.065, 151.750 44.042 C 154.843 44.011, 156 43.592, 156 42.500 C 156 41.675, 155.213 40.964, 154.250 40.920 C 153.287 40.876, 137.200 40.089, 118.500 39.170 L 84.500 37.500 84.210 29.306 L 83.921 21.113 87.210 21.562 C 89.020 21.809, 107.375 23.359, 128 25.007 C 148.625 26.654, 167.412 28.254, 169.750 28.562 C 173.053 28.998, 174 28.800, 174 27.673 C 174 25.935, 173.904 25.916, 144.500 21.987 C 131.850 20.297, 101.796 16.233, 77.713 12.957 C 31.231 6.633, 32 6.725, 32 7.513 M 39.372 17.639 C 45.598 32.076, 44.157 30.637, 54.258 32.494 C 59.214 33.404, 64.333 33.882, 65.634 33.556 C 66.935 33.229, 68 33.390, 68 33.914 C 68 35.051, 69.901 35.660, 76.250 36.557 L 81 37.227 81 28.173 C 81 23.193, 81.338 18.933, 81.750 18.707 C 82.162 18.481, 86.775 18.693, 92 19.177 C 112.366 21.064, 104.034 19.304, 73 15.165 C 55.125 12.781, 39.483 10.593, 38.241 10.304 C 36.026 9.789, 36.048 9.935, 39.372 17.639 M 109.269 20.693 C 110.242 20.947, 111.592 20.930, 112.269 20.656 C 112.946 20.382, 112.150 20.175, 110.500 20.195 C 108.850 20.215, 108.296 20.439, 109.269 20.693 M 42 34 C 42 34.550, 42.477 35, 43.059 35 C 43.641 35, 43.840 34.550, 43.500 34 C 43.160 33.450, 42.684 33, 42.441 33 C 42.198 33, 42 33.450, 42 34 M 47 34.955 C 47 35.530, 48.875 36, 51.167 36 C 56.079 36, 55.939 35.526, 50.750 34.587 C 48.376 34.158, 47 34.293, 47 34.955 M 37.554 43.250 C 35.396 48.101, 35.094 51.038, 33.584 81.891 C 32.685 100.257, 32.108 115.442, 32.302 115.636 C 32.496 115.830, 37.458 115.026, 43.328 113.850 L 54 111.711 54 84.426 L 54 57.141 49.558 47.571 C 45.604 39.051, 44.829 38, 42.503 38 C 40.313 38, 39.510 38.852, 37.554 43.250 M 49 39.400 C 49 39.621, 50.847 43.783, 53.105 48.650 L 57.210 57.500 56.635 84.500 C 56.319 99.350, 56.251 111.050, 56.484 110.500 C 56.717 109.950, 58.504 95.100, 60.455 77.500 C 62.405 59.900, 64.246 44.038, 64.546 42.250 L 65.091 39 57.045 39 C 52.620 39, 49 39.180, 49 39.400 M 69.485 42.250 C 69.773 43.487, 71.817 57.100, 74.028 72.500 C 78.718 105.163, 78.869 106, 80.079 106 C 80.622 106, 81 92.434, 81 73 L 81 40 74.981 40 C 69.251 40, 68.987 40.108, 69.485 42.250 M 114 43.518 C 124.278 45.566, 126.137 45.677, 131.500 44.560 L 137.500 43.310 131 42.694 C 127.425 42.356, 119.550 41.887, 113.500 41.653 L 102.500 41.227 114 43.518 M 159.240 98.556 C 150.846 129.325, 143.513 156.188, 142.943 158.250 C 142.317 160.512, 141.295 162, 140.365 162 C 139.150 162, 138.945 161.208, 139.394 158.250 C 139.708 156.188, 140.675 147.750, 141.545 139.500 C 143.270 123.125, 148.047 98.854, 150.010 96.488 C 151.824 94.303, 150.268 94.497, 127 99.371 L 106.500 103.664 106.764 133.082 C 106.910 149.262, 107.289 166.662, 107.608 171.750 L 108.187 181 111.343 180.994 C 116.724 180.984, 173.143 175.190, 173.748 174.586 C 174.625 173.708, 175.563 92.457, 175 66.056 L 174.500 42.611 159.240 98.556 M 66.687 49 C 65.642 53.360, 59.731 109.064, 60.257 109.590 C 60.857 110.191, 73.432 107.969, 75.032 106.980 C 75.827 106.489, 74.875 97.701, 71.717 76.395 C 69.114 58.833, 67.038 47.531, 66.687 49 M 21.897 75.791 L 12.323 95.667 21.698 130.037 C 26.854 148.940, 31.271 164.604, 31.512 164.846 C 31.754 165.087, 32.525 164.839, 33.226 164.293 C 33.927 163.747, 44.431 155.376, 56.570 145.691 L 78.639 128.081 79.716 118.791 C 80.308 113.681, 80.625 109.323, 80.420 109.107 C 80.216 108.892, 79.434 109.225, 78.682 109.849 C 77.931 110.472, 77.059 110.726, 76.745 110.412 C 76.431 110.098, 72.359 110.634, 67.697 111.603 L 59.219 113.365 58.064 124.432 C 56.568 138.775, 56.062 141.191, 54.659 140.704 C 53.846 140.422, 53.568 136.523, 53.727 127.651 C 53.896 118.205, 53.643 114.998, 52.727 114.992 C 52.052 114.988, 46.675 115.976, 40.779 117.188 C 34.882 118.399, 29.811 119.144, 29.509 118.842 C 29.207 118.541, 29.673 104.702, 30.545 88.090 C 31.416 71.478, 31.981 57.443, 31.800 56.900 C 31.619 56.358, 27.163 64.858, 21.897 75.791 M 91 106.738 C 87.425 107.565, 84.291 108.434, 84.035 108.669 C 83.779 108.904, 83.035 113.912, 82.381 119.798 C 81.727 125.684, 79.995 140.089, 78.532 151.808 C 77.069 163.528, 76.016 173.547, 76.191 174.072 C 76.366 174.597, 81.756 159.271, 88.169 140.013 C 94.767 120.203, 99.324 105.051, 98.665 105.117 C 98.024 105.181, 94.575 105.911, 91 106.738" stroke="none" fill="black" fill-rule="evenodd"/>
</svg>