<svg xmlns="http://www.w3.org/2000/svg" width="200" height="200" viewBox="0 0 200 200" version="1.1">
	<path d="M 112.500 26.311 C 110.300 27.568, 103.081 31.427, 96.459 34.885 L 84.417 41.174 72.026 33.597 C 57.609 24.781, 60.515 24.113, 47.184 39.304 C 39.108 48.507, 38.370 49.090, 35.135 48.804 C 33.035 48.619, 31.522 48.988, 31.261 49.750 C 31.004 50.500, 31.710 51, 33.025 51 C 34.864 51, 35.116 51.403, 34.589 53.500 C 33.889 56.289, 35.099 56.791, 37 54.500 C 37.685 53.675, 38.752 52.992, 39.372 52.982 C 41.130 52.954, 84.008 63.325, 83.643 63.690 C 83.465 63.868, 71.528 66.206, 57.116 68.884 C 42.704 71.563, 30.624 74.042, 30.273 74.394 C 28.823 75.844, 32.693 77.057, 57.500 82.925 C 71.800 86.308, 84.343 89.416, 85.373 89.832 C 86.555 90.310, 76.780 92.347, 58.873 95.354 C 43.268 97.974, 29.712 100.347, 28.750 100.626 C 24.578 101.838, 27.893 103.847, 41.481 108.340 C 55.701 113.042, 55.937 113.168, 54.607 115.314 C 47.642 126.552, 18.936 181.391, 19.394 182.584 C 19.827 183.713, 24.740 180.246, 38.568 169.051 C 48.794 160.773, 57.687 153.990, 58.330 153.978 C 58.974 153.966, 68.950 152.656, 80.500 151.067 C 92.050 149.477, 101.575 148.250, 101.666 148.338 C 101.758 148.427, 90.636 156.600, 76.952 166.500 C 63.268 176.400, 52.056 184.868, 52.036 185.317 C 52.016 185.767, 52.788 185.912, 53.750 185.639 C 56.238 184.934, 123.045 182.905, 151 182.685 C 178.921 182.465, 180.548 181.683, 164.327 176.276 C 154.299 172.933, 153.957 172.713, 140.327 160.841 C 132.722 154.217, 125.693 148.024, 124.707 147.078 C 123.001 145.442, 124.173 144.757, 148.949 132.929 C 172.217 121.821, 178.470 118, 173.381 118 C 172.491 118, 157.303 120.504, 139.631 123.564 L 107.500 129.127 103 124.252 C 100.525 121.571, 96.155 116.664, 93.289 113.348 L 88.079 107.319 115.202 106.660 C 130.120 106.297, 148.777 106, 156.662 106 C 168.039 106, 171 105.721, 171 104.649 C 171 102.536, 155.926 96.673, 135.839 90.971 C 125.753 88.108, 117.074 85.512, 116.552 85.202 C 116.031 84.892, 129.694 82.044, 146.914 78.874 C 164.135 75.703, 178.481 72.852, 178.795 72.538 C 180.568 70.766, 174.849 70.043, 150.500 68.960 C 135.650 68.300, 121.974 67.467, 120.109 67.108 C 117.144 66.538, 119.563 65.539, 139.371 59.152 C 151.830 55.135, 161.771 51.438, 161.461 50.937 C 161.151 50.436, 158.783 48.608, 156.199 46.876 C 153.615 45.144, 148.575 40.925, 145 37.501 C 139.264 32.008, 137.315 30.849, 128.419 27.638 C 122.875 25.637, 117.925 24.005, 117.419 24.012 C 116.914 24.019, 114.700 25.053, 112.500 26.311 M 114.473 28.334 C 113.388 29.068, 106.154 32.972, 98.398 37.009 L 84.295 44.350 72.646 37.175 C 66.238 33.229, 60.581 30, 60.075 30 C 59.093 30, 42 48.789, 42 49.868 C 42 50.219, 53.266 53.181, 67.036 56.449 C 86.531 61.075, 92.008 62.717, 91.786 63.867 C 91.579 64.935, 87.347 66.114, 76.500 68.126 C 68.250 69.657, 56.140 71.906, 49.588 73.124 L 37.676 75.338 55.088 79.556 C 64.665 81.876, 77.787 85.013, 84.250 86.528 C 91.696 88.273, 96 89.750, 96 90.561 C 96 92.095, 97.274 91.826, 63 97.532 C 47.875 100.050, 35.050 102.236, 34.500 102.389 C 33.950 102.542, 39.237 104.579, 46.250 106.916 C 53.263 109.253, 59 111.592, 59 112.113 C 59 112.877, 46.832 135.555, 26.400 172.869 C 25.084 175.273, 24.568 176.798, 25.254 176.259 C 25.939 175.720, 32.989 170.030, 40.921 163.616 C 48.852 157.201, 56.277 151.749, 57.421 151.501 C 60.801 150.767, 103.956 145, 106.065 145 C 107.129 145, 107.991 145.563, 107.979 146.250 C 107.968 146.938, 97.416 155.136, 84.531 164.468 C 71.645 173.800, 61.226 181.559, 61.377 181.710 C 61.527 181.861, 84.916 181.447, 113.352 180.791 L 165.053 179.598 158.685 177.244 C 153.337 175.267, 149.560 172.478, 135.110 159.837 L 117.903 144.784 129.702 139.071 C 136.191 135.929, 146.566 130.956, 152.757 128.019 C 158.948 125.083, 163.898 122.581, 163.757 122.459 C 163.616 122.337, 150.900 124.419, 135.500 127.086 C 120.100 129.753, 107.170 131.950, 106.766 131.968 C 106.362 131.985, 100.632 125.812, 94.032 118.250 L 82.032 104.500 117.266 103.884 C 136.645 103.546, 154.750 103.176, 157.500 103.064 L 162.500 102.859 158.063 100.891 C 155.623 99.809, 144.148 96.218, 132.563 92.912 C 120.979 89.606, 110.713 86.667, 109.750 86.383 C 108.787 86.098, 108 85.268, 108 84.539 C 108 83.630, 111.863 82.507, 120.250 80.976 C 126.987 79.746, 139.925 77.274, 149 75.483 L 165.500 72.227 158 72.020 C 133.637 71.350, 106.630 69.408, 106.264 68.300 C 106.005 67.517, 114.646 64.250, 131.140 58.895 L 156.414 50.690 152.957 48.098 C 151.056 46.673, 146.785 42.940, 143.467 39.804 C 138.549 35.154, 135.716 33.444, 128.132 30.550 C 117.660 26.554, 117.212 26.481, 114.473 28.334" stroke="none" fill="black" fill-rule="evenodd"/>
</svg>