<svg xmlns="http://www.w3.org/2000/svg" width="200" height="200" viewBox="0 0 200 200" version="1.1">
	<path d="M 48.039 32.250 C 43.386 42.287, 35.209 59.725, 29.869 71 C 23.313 84.841, 20.539 91.702, 21.330 92.123 C 21.973 92.466, 27.900 93.981, 34.500 95.490 C 41.100 96.999, 46.604 98.323, 46.731 98.431 C 46.858 98.540, 42.914 108.231, 37.967 119.967 C 33.020 131.703, 29.091 141.371, 29.236 141.450 C 33.696 143.896, 35.868 143.896, 64.133 141.438 C 80.141 140.045, 93.351 139.040, 93.487 139.203 C 93.623 139.366, 95.108 147.977, 96.787 158.337 C 98.466 168.697, 100.086 177.419, 100.387 177.720 C 100.687 178.021, 107.125 176.969, 114.693 175.383 L 128.453 172.500 137.671 157.518 L 146.890 142.535 163.695 137.475 C 184.744 131.136, 184.594 131.194, 183.287 129.887 C 182.557 129.157, 176.268 129.773, 162.532 131.920 C 151.693 133.614, 142.439 135, 141.968 135 C 140.727 135, 124.902 103.677, 125.771 102.939 C 126.172 102.598, 136.284 99.435, 148.242 95.909 C 160.199 92.384, 169.987 89.256, 169.992 88.958 C 170.008 87.907, 148.350 76.094, 136.758 70.831 C 130.300 67.899, 125.012 65.261, 125.008 64.968 C 125.004 64.675, 133.678 61.138, 144.284 57.108 L 163.568 49.779 166.696 40.640 C 168.417 35.613, 169.672 31.345, 169.485 31.156 C 169.298 30.966, 158.520 34.079, 145.535 38.074 L 121.926 45.336 103.713 43.918 L 85.500 42.500 83.300 35.500 C 82.090 31.650, 80.371 25.913, 79.479 22.750 C 78.436 19.049, 77.327 17, 76.369 17 C 75.110 17, 74.973 18.512, 75.480 26.750 C 76.570 44.426, 76.711 45, 79.984 45 C 82.377 45, 83.037 45.583, 84.022 48.567 C 84.670 50.529, 85.037 52.297, 84.838 52.496 C 84.639 52.695, 82.418 51.364, 79.904 49.539 C 76.199 46.851, 73.786 43.490, 67.188 31.832 C 62.709 23.919, 58.472 16.669, 57.772 15.721 C 56.665 14.223, 55.401 16.370, 48.039 32.250 M 56.180 21.663 C 55.270 23.363, 35.751 64.823, 27.404 82.785 C 25.025 87.904, 24.387 90.189, 25.259 90.470 C 25.942 90.689, 31.787 92.087, 38.250 93.575 C 44.713 95.064, 50.001 96.780, 50.003 97.391 C 50.004 98.001, 46.136 107.660, 41.407 118.854 C 35.803 132.121, 33.150 139.550, 33.787 140.187 C 34.425 140.825, 45.304 140.259, 65.030 138.563 C 81.675 137.132, 95.432 136.098, 95.599 136.266 C 95.767 136.434, 97.328 145.105, 99.069 155.535 C 100.809 165.966, 102.364 174.646, 102.524 174.824 C 102.772 175.100, 117.661 172.097, 124.728 170.346 C 126.284 169.961, 129.682 165.334, 136.009 154.985 L 145.063 140.176 151.937 138.088 C 155.717 136.940, 159.378 136, 160.072 136 C 160.766 136, 161.101 135.767, 160.816 135.483 C 160.531 135.198, 155.702 135.693, 150.083 136.583 C 144.465 137.473, 139.747 138.044, 139.599 137.851 C 138.247 136.089, 120.983 101.684, 121.294 101.372 C 121.521 101.146, 131.255 98.116, 142.926 94.638 L 164.146 88.315 157.323 84.265 C 153.570 82.037, 143.525 76.986, 135 73.040 C 126.475 69.094, 119.147 65.520, 118.715 65.098 C 118.283 64.675, 127.675 60.543, 139.585 55.915 L 161.241 47.500 163.575 41.250 C 164.858 37.812, 165.683 35, 165.407 35 C 165.132 35, 155.270 37.973, 143.492 41.606 L 122.078 48.211 104.289 46.764 C 94.505 45.968, 86.389 45.394, 86.253 45.488 C 86.118 45.583, 86.694 47.974, 87.534 50.801 C 88.990 55.707, 89.542 56.275, 99.530 63.162 C 105.289 67.132, 110 70.666, 110 71.014 C 110 71.363, 106.625 72.706, 102.500 74 C 98.375 75.294, 95 76.545, 95 76.781 C 95 77.018, 96.151 80.984, 97.558 85.596 L 100.115 93.982 87.841 114.441 C 81.091 125.694, 75.433 134.766, 75.268 134.602 C 74.432 133.765, 70 97.728, 70 91.760 L 70 84.841 67.204 85.455 C 64.435 86.063, 64.363 85.950, 59.554 73.485 C 56.210 64.819, 55.020 60.580, 55.733 59.867 C 56.445 59.155, 58.217 62.562, 61.427 70.812 C 65.464 81.191, 66.348 82.722, 68.043 82.278 C 69.902 81.792, 70 80.780, 70 62.002 L 70 42.238 63.593 31.010 C 58.118 21.416, 57.040 20.056, 56.180 21.663 M 79.063 37.250 C 79.015 40.860, 79.365 42, 80.519 42 C 81.671 42, 81.877 41.336, 81.370 39.250 C 79.866 33.054, 79.128 32.414, 79.063 37.250 M 72.796 64.412 L 73.092 80.827 82.046 77.824 C 86.971 76.173, 90.997 74.299, 90.994 73.661 C 90.991 73.022, 89.966 69.147, 88.717 65.049 C 86.532 57.886, 86.194 57.414, 79.972 52.871 C 76.412 50.272, 73.275 48.112, 73 48.071 C 72.725 48.031, 72.633 55.384, 72.796 64.412 M 92.069 66.741 C 93.131 70.455, 94 73.566, 94 73.655 C 94 73.744, 96.250 73.097, 99 72.217 C 101.750 71.338, 103.998 70.367, 103.995 70.059 C 103.992 69.752, 100.873 67.360, 97.064 64.744 L 90.138 59.988 92.069 66.741 M 81.250 80.719 L 73 83.328 72.997 91.414 C 72.995 100.091, 75.796 123.985, 76.969 125.290 C 77.360 125.724, 82.019 118.838, 87.324 109.986 L 96.968 93.893 94.741 85.946 C 93.198 80.441, 92.051 78.017, 91.007 78.055 C 90.178 78.085, 85.787 79.284, 81.250 80.719" stroke="none" fill="black" fill-rule="evenodd"/>
</svg>