<svg xmlns="http://www.w3.org/2000/svg" width="200" height="200" viewBox="0 0 200 200" version="1.1">
	<path d="M 104.477 32.500 L 105.192 43 101.373 43 C 98.032 43, 96.773 42.226, 91.313 36.815 L 85.073 30.630 56.786 32.930 C 41.229 34.196, 28.314 35.403, 28.086 35.613 C 27.858 35.823, 28.379 51.859, 29.244 71.248 L 30.817 106.500 23.909 143.401 C 20.109 163.697, 17 180.943, 17 181.725 C 17 185.596, 21.304 180.606, 35.800 159.924 L 51.624 137.348 55.921 111.424 C 58.283 97.166, 60.666 82.915, 61.214 79.756 L 62.212 74.012 77.235 95.756 C 85.498 107.715, 92.401 117.664, 92.576 117.864 C 92.751 118.064, 96.766 116.826, 101.499 115.114 C 106.232 113.401, 110.254 112, 110.436 112 C 110.618 112, 110.982 113.125, 111.245 114.500 C 111.522 115.949, 111.255 117.008, 110.611 117.018 C 107.845 117.064, 70.725 122.941, 70.259 123.408 C 69.971 123.696, 75.267 129.863, 82.028 137.112 C 93.616 149.535, 94.212 150.373, 92.411 151.710 C 91.360 152.490, 79.475 160.045, 66 168.500 C 52.525 176.955, 40.600 184.544, 39.500 185.365 C 34.730 188.924, 42.084 187.788, 69.690 180.698 L 98.611 173.271 135.918 177.690 C 156.437 180.120, 173.440 181.894, 173.702 181.631 C 173.965 181.368, 169.975 176.056, 164.835 169.827 C 159.696 163.597, 154.937 157.786, 154.259 156.914 C 153.277 155.650, 153.432 151.518, 155.025 136.509 C 156.124 126.158, 156.905 117.608, 156.761 117.509 C 156.618 117.409, 151.393 114.232, 145.151 110.448 C 133.234 103.223, 133.415 103.550, 140 101.102 C 142.338 100.233, 182.182 67.612, 182.769 66.086 C 182.917 65.702, 174.148 62.550, 163.282 59.083 L 143.526 52.778 127.824 55.562 C 109.753 58.766, 109.379 58.675, 108.843 50.955 L 108.500 45.999 128.250 45.999 C 145.139 46, 148 45.783, 148 44.500 C 148 43.217, 145.127 43, 128.139 43 L 108.279 43 107.648 37.750 C 106.707 29.916, 106.867 26, 108.127 26 C 111.303 26, 161.327 40.644, 168.200 43.586 C 177.386 47.517, 177 47.429, 177 45.605 C 177 43.323, 161.085 37.608, 132.250 29.533 C 117.453 25.390, 104.990 22, 104.554 22 C 104.118 22, 104.083 26.725, 104.477 32.500 M 52.155 36.054 C 40.965 37.046, 31.555 38.112, 31.244 38.423 C 30.932 38.734, 31.326 54.179, 32.117 72.744 L 33.557 106.500 27.280 140.418 C 23.827 159.072, 21.175 174.508, 21.386 174.719 C 22.136 175.469, 48.312 137.448, 49.075 134.500 C 49.503 132.850, 52.208 117.213, 55.087 99.750 C 57.965 82.287, 60.586 68.010, 60.910 68.022 C 61.235 68.034, 68.475 78.190, 77 90.591 C 85.525 102.991, 92.950 113.491, 93.500 113.923 C 94.050 114.354, 98.194 113.368, 102.709 111.732 L 110.919 108.756 110.340 100.628 C 109.782 92.786, 108.958 90.879, 105.608 89.673 C 104.947 89.435, 105.407 88.286, 106.751 86.822 C 108.953 84.422, 108.978 84.130, 107.907 73.434 C 107.305 67.420, 106.622 62.305, 106.390 62.068 C 106.158 61.830, 97.870 61.112, 87.972 60.472 C 78.073 59.832, 69.692 59.025, 69.346 58.679 C 69 58.333, 69.118 54.776, 69.608 50.775 L 70.500 43.500 81.683 43 L 92.867 42.500 88.897 38.250 C 85.012 34.090, 84.796 34.003, 78.714 34.125 C 75.296 34.194, 63.345 35.062, 52.155 36.054 M 72.630 48.250 C 72.299 49.487, 72.021 51.888, 72.014 53.584 L 72 56.667 89.189 57.811 C 98.644 58.440, 106.571 58.763, 106.805 58.528 C 107.040 58.294, 104.817 55.389, 101.866 52.074 L 96.500 46.047 84.867 46.023 C 73.639 46.001, 73.212 46.078, 72.630 48.250 M 100 46.313 C 100 46.485, 101.350 47.919, 103 49.500 L 106 52.374 106 49.187 C 106 46.313, 105.706 46, 103 46 C 101.350 46, 100 46.141, 100 46.313 M 126.500 58.570 C 119.900 59.855, 114.289 60.928, 114.031 60.953 C 113.774 60.979, 116.136 63.601, 119.281 66.779 L 125 72.558 118.500 79 C 109.392 88.027, 109.553 88.976, 121.419 96.145 L 130.762 101.791 136.218 99.573 C 139.989 98.041, 147.131 92.778, 159.337 82.537 C 169.052 74.388, 177 67.435, 177 67.086 C 177 65.886, 145.427 56, 141.967 56.117 C 140.060 56.181, 133.100 57.285, 126.500 58.570 M 110.348 68.750 C 110.699 72.463, 110.989 77.058, 110.993 78.962 L 111 82.425 115.974 77.526 L 120.947 72.627 116.224 67.421 C 113.626 64.558, 111.097 62.167, 110.605 62.108 C 110.102 62.047, 109.989 64.951, 110.348 68.750 M 112.838 99.749 C 113.024 102.912, 113.546 105.887, 113.998 106.360 C 114.685 107.078, 123.538 104.855, 126.315 103.268 C 126.936 102.912, 113.894 94.005, 112.743 93.999 C 112.609 93.998, 112.652 96.585, 112.838 99.749 M 121.252 107.842 C 114.658 110.260, 114.004 110.748, 114.002 113.250 C 114.001 115.320, 114.487 116, 115.970 116 C 118.545 116, 139.076 113.048, 140.941 112.410 C 142.497 111.877, 131.824 104.929, 129.700 105.092 C 129.040 105.143, 125.238 106.380, 121.252 107.842 M 140 115.576 C 136.975 116.254, 130.059 117.590, 124.632 118.544 L 114.764 120.279 115.429 129.389 C 115.795 134.400, 116.348 140.750, 116.659 143.500 L 117.225 148.500 104.236 135.637 L 91.247 122.775 84.873 123.514 C 73.927 124.782, 73.852 124.138, 86.549 138.003 C 92.843 144.876, 97.995 150.773, 97.997 151.108 C 97.998 151.442, 86.980 158.609, 73.510 167.034 C 60.041 175.460, 49.159 182.493, 49.330 182.663 C 49.500 182.833, 60.176 180.279, 73.054 176.986 C 85.932 173.694, 98.276 171.020, 100.485 171.044 C 102.693 171.068, 118.675 172.787, 136 174.863 C 153.325 176.939, 167.649 178.533, 167.831 178.404 C 168.014 178.276, 164.096 173.260, 159.125 167.259 L 150.088 156.347 152.062 137.924 C 153.949 120.323, 153.958 119.441, 152.268 118.174 C 147.668 114.724, 145.678 114.302, 140 115.576 M 102.750 122.242 C 99.588 122.784, 97 123.523, 97 123.886 C 97 124.248, 100.853 128.359, 105.561 133.022 C 112.286 139.681, 114.013 140.964, 113.611 139 C 113.330 137.625, 112.814 133.012, 112.465 128.750 C 111.755 120.090, 112.478 120.575, 102.750 122.242" stroke="none" fill="black" fill-rule="evenodd"/>
</svg>