<svg xmlns="http://www.w3.org/2000/svg" width="200" height="200" viewBox="0 0 200 200" version="1.1">
	<path d="M 31.567 29.213 C 31.348 29.921, 30.899 34.100, 30.569 38.500 C 30.239 42.900, 27.726 73.037, 24.984 105.470 C 22.243 137.904, 20 166.022, 20 167.954 L 20 171.467 31.250 160.218 L 42.500 148.969 50.986 125.554 C 55.653 112.676, 59.593 102.260, 59.741 102.408 C 59.889 102.556, 57.754 113.586, 54.996 126.919 C 52.238 140.253, 50.298 151.688, 50.684 152.331 C 53.071 156.308, 65.399 172, 66.136 172 C 66.890 172, 92.912 159.303, 93.804 158.499 C 93.971 158.349, 95.656 147.752, 97.550 134.950 C 99.443 122.148, 101.138 111.529, 101.315 111.352 C 101.492 111.175, 104.014 121.485, 106.919 134.265 C 109.825 147.044, 113.106 161.401, 114.212 166.168 L 116.222 174.836 135.685 179.661 C 152.379 183.798, 155.270 184.273, 155.996 182.993 C 156.462 182.172, 162.011 173.502, 168.327 163.726 L 179.811 145.952 180.382 135.726 C 180.697 130.102, 181.077 112.024, 181.227 95.554 L 181.500 65.608 163.500 62.515 L 145.500 59.421 131.566 51.211 L 117.632 43 151.816 43 C 182.699 43, 188.431 42.599, 185.250 40.661 C 184.838 40.410, 173.025 38.150, 159 35.640 C 136.356 31.587, 109.050 28, 100.836 28 C 98.224 28, 98.040 28.206, 99.017 30.032 C 99.985 31.841, 99.852 32.010, 97.802 31.570 C 96.536 31.298, 83.350 30.599, 68.500 30.017 C 53.650 29.435, 39.355 28.727, 36.733 28.443 C 33.352 28.077, 31.850 28.301, 31.567 29.213 M 34 31.929 C 34 32.497, 32.880 45.683, 31.511 61.231 C 27.183 110.401, 22.929 163.263, 23.273 163.607 C 23.456 163.789, 27.290 160.235, 31.794 155.707 L 39.982 147.476 51.991 114.525 C 58.596 96.401, 64 81.444, 64 81.286 C 64 81.129, 64.675 81, 65.500 81 C 66.325 81, 67 81.193, 67 81.429 C 67 81.666, 63.830 97.450, 59.956 116.505 L 52.912 151.152 59.501 160.002 L 66.091 168.852 70.795 166.873 C 73.383 165.785, 79.100 163.006, 83.500 160.697 L 91.500 156.500 95.499 129.250 C 98.349 109.833, 99.867 102, 100.781 102 C 101.486 102, 102.352 102.754, 102.706 103.676 C 103.280 105.173, 105.259 99.258, 110.089 81.607 L 111.154 77.715 116.895 83.396 C 120.954 87.413, 123.129 88.888, 124.318 88.432 C 125.243 88.076, 126 87.150, 126 86.373 C 126 85.080, 117.331 67, 116.711 67 C 116.563 67, 113.305 68.338, 109.471 69.973 C 105.637 71.608, 101.903 72.958, 101.173 72.973 C 100.443 72.988, 94.368 69.781, 87.673 65.846 L 75.500 58.691 60.693 57.955 C 37.177 56.786, 38.285 56.016, 75 48.012 C 90.675 44.594, 103.654 41.653, 103.841 41.475 C 104.891 40.478, 102.570 37.230, 99.756 35.758 C 97.167 34.403, 91.787 33.847, 73.500 33.042 C 60.850 32.485, 46.788 31.774, 42.250 31.462 C 36.874 31.093, 34 31.256, 34 31.929 M 103 32 C 103 33.455, 106.429 36.654, 109.929 38.463 C 112.504 39.795, 116.957 39.993, 139.233 39.767 L 165.500 39.500 146.500 36.282 C 129.643 33.427, 110.555 31, 104.961 31 C 103.882 31, 103 31.450, 103 32 M 109 43.432 C 109 43.987, 117.851 62.184, 118.377 62.710 C 118.596 62.929, 121.638 61.905, 125.137 60.435 C 128.637 58.966, 132.826 57.830, 134.448 57.912 C 136.069 57.995, 137.194 57.868, 136.948 57.630 C 136.701 57.393, 131.022 54.004, 124.327 50.099 C 113.728 43.918, 109 41.861, 109 43.432 M 81 49.465 L 57.500 54.690 66.987 55.439 C 76.404 56.182, 76.563 56.239, 88.299 63.094 C 94.803 66.892, 100.541 70, 101.051 70 C 103.168 70, 115 64.706, 115 63.759 C 115 61.932, 106.154 43.996, 105.313 44.120 C 104.866 44.186, 93.925 46.591, 81 49.465 M 126.500 62.744 C 123.200 64.181, 120.301 65.514, 120.057 65.705 C 119.346 66.263, 128.345 84.052, 129.191 83.763 C 129.613 83.618, 134.500 79.476, 140.051 74.558 L 150.143 65.617 147.864 63.898 C 146.611 62.952, 143.133 61.872, 140.136 61.498 C 137.139 61.123, 134.195 60.662, 133.593 60.474 C 132.992 60.285, 129.800 61.306, 126.500 62.744 M 156.250 65.572 C 157.762 66.393, 159 67.281, 159 67.545 C 159 67.810, 155.818 74.379, 151.929 82.142 C 146.846 92.288, 144.553 95.953, 143.773 95.173 C 142.993 94.393, 144.560 90.450, 149.346 81.152 C 154.943 70.278, 155.745 68.116, 154.380 67.593 C 152.791 66.983, 146.736 71.760, 134.851 83 L 130.092 87.500 134.085 96 C 137.246 102.728, 139.717 106.168, 145.941 112.500 L 153.803 120.500 154.495 130.250 C 155.506 144.508, 153.934 143.423, 144.407 123.293 C 137.220 108.107, 135.923 106.036, 130.161 100.543 C 126.675 97.219, 123.399 94.500, 122.881 94.500 C 122.363 94.500, 117.954 98.017, 113.084 102.315 L 104.228 110.131 105.751 116.815 C 106.589 120.492, 109.801 134.525, 112.888 148 L 118.500 172.500 135.500 176.762 C 144.850 179.106, 153.071 180.681, 153.769 180.262 C 154.467 179.843, 160.134 171.542, 166.362 161.816 L 177.687 144.132 178.402 106.457 C 178.794 85.736, 178.925 68.591, 178.691 68.358 C 178.245 67.912, 156.231 63.989, 154.500 64.047 C 153.950 64.065, 154.738 64.751, 156.250 65.572 M 109.664 93.118 C 108.125 98.663, 107.009 103.335, 107.183 103.502 C 107.357 103.668, 110.560 101.036, 114.299 97.652 L 121.099 91.500 116.780 87.268 L 112.462 83.037 109.664 93.118 M 126.165 90.301 C 125.294 91.350, 125.845 92.415, 128.635 95.076 L 132.226 98.500 129.990 94 C 127.219 88.424, 127.499 88.694, 126.165 90.301 M 143 113.120 C 143 113.445, 145.012 117.938, 147.472 123.105 L 151.943 132.500 151.356 126.500 C 150.843 121.258, 150.277 119.996, 146.884 116.515 C 144.748 114.323, 143 112.795, 143 113.120" stroke="none" fill="black" fill-rule="evenodd"/>
</svg>