<svg xmlns="http://www.w3.org/2000/svg" width="200" height="200" viewBox="0 0 200 200" version="1.1">
	<path d="M 140.292 22.787 L 131.316 32.478 108.908 33.687 C 96.584 34.352, 76.825 35.162, 65 35.487 C 39.478 36.188, 31 36.834, 31 38.080 C 31 38.586, 34.712 38.993, 39.250 38.985 C 43.788 38.976, 55.712 39.520, 65.750 40.193 L 84 41.416 84.004 45.958 C 84.006 48.456, 84.295 56.134, 84.647 63.019 L 85.285 75.539 78.893 83.214 C 74.074 89, 71.885 90.893, 70 90.906 C 68.625 90.916, 60.525 90.064, 52 89.013 L 36.500 87.103 27.252 90.302 C 22.165 92.061, 18.003 94.063, 18.002 94.750 C 18 95.725, 25.266 96, 51 96 L 84 96 84 113.216 C 84 122.686, 83.498 136.604, 82.883 144.147 C 81.807 157.368, 81.866 158.394, 84.533 172.680 C 86.055 180.831, 87.639 187.884, 88.052 188.352 C 88.466 188.821, 94.971 185.446, 102.509 180.852 L 116.213 172.500 115.618 163.500 C 115.291 158.550, 114.734 143.475, 114.381 130 L 113.738 105.500 124.131 100.375 L 134.523 95.249 151.971 97.082 C 161.567 98.090, 169.466 98.821, 169.525 98.707 C 169.583 98.593, 172.005 95.188, 174.906 91.141 C 177.807 87.093, 179.803 83.447, 179.341 83.039 C 178.878 82.630, 172.584 81.334, 165.353 80.159 L 152.206 78.022 139.497 85.119 C 128.962 91.001, 126.576 91.983, 125.554 90.858 C 124.875 90.111, 121.740 85.349, 118.587 80.275 L 112.853 71.050 113.926 56.588 C 114.517 48.633, 115 41.647, 115 41.063 C 115 40.352, 120.974 40, 133.048 40 C 147.188 40, 177.552 37.758, 178.700 36.630 C 178.887 36.446, 171.513 30.513, 155.912 18.298 L 149.268 13.096 140.292 22.787 M 140.888 26.102 L 132.500 35.151 112.500 36.102 C 88.994 37.219, 83.118 37.837, 84.992 38.995 C 85.928 39.573, 86.553 43.916, 87.102 53.658 C 88.459 77.727, 88.881 75.432, 81.490 84.193 C 77.920 88.424, 75 92.136, 75 92.443 C 75 92.749, 77.700 93, 81 93 L 87 93 87.001 109.750 C 87.002 118.963, 86.478 133.525, 85.837 142.112 C 84.734 156.880, 84.794 158.392, 86.956 170.112 C 88.213 176.925, 89.530 183.040, 89.882 183.699 C 90.317 184.513, 94.055 182.721, 101.511 178.124 L 112.500 171.349 112.438 162.925 C 112.405 158.291, 112.024 143.025, 111.592 129 L 110.808 103.500 118.293 100.147 L 125.778 96.794 117.915 84.241 L 110.052 71.687 110.608 64.594 C 110.913 60.692, 111.464 53, 111.832 47.500 L 112.500 37.500 127 37.820 C 138.822 38.082, 170.535 35.798, 171.734 34.599 C 171.973 34.360, 152.525 18.972, 150.388 17.710 C 149.757 17.337, 145.649 20.966, 140.888 26.102 M 140.237 87.856 C 128.316 94.502, 122.613 98.218, 130.314 94.321 C 134.047 92.432, 134.481 92.428, 150.746 94.142 C 159.885 95.105, 167.690 95.692, 168.089 95.445 C 168.488 95.198, 170.426 92.754, 172.395 90.014 C 175.905 85.127, 175.931 85.022, 173.737 84.548 C 169.643 83.662, 154.358 81, 153.422 81.009 C 152.915 81.015, 146.982 84.096, 140.237 87.856 M 32.026 91.354 L 28.553 92.661 31.901 93.330 C 36.779 94.306, 59.212 94.151, 58.591 93.147 C 58.300 92.677, 55.011 92.009, 51.282 91.662 C 47.552 91.315, 42.475 90.810, 40 90.539 C 37.474 90.263, 33.976 90.621, 32.026 91.354" stroke="none" fill="black" fill-rule="evenodd"/>
</svg>