<svg xmlns="http://www.w3.org/2000/svg" width="200" height="200" viewBox="0 0 200 200" version="1.1">
	<path d="M 129.500 22.070 C 110.250 24.169, 94.388 25.911, 94.250 25.943 C 94.112 25.974, 94 26.592, 94 27.316 C 94 28.385, 97.138 28.298, 110.750 26.851 C 133.498 24.433, 134.069 24.636, 115.500 28.545 C 106.700 30.397, 98.487 32.166, 97.250 32.475 C 95.657 32.874, 95 32.594, 95 31.519 C 95 30.684, 94.325 30, 93.500 30 C 92.675 30, 92 30.828, 92 31.840 C 92 34.442, 78.259 37.067, 76.576 34.787 C 75.245 32.983, 38.855 20.732, 37.877 21.757 C 37.488 22.166, 31.317 32.625, 24.165 45 L 11.161 67.500 14.567 108 C 16.441 130.275, 18.232 150.412, 18.548 152.750 C 19.800 162.009, 21.552 157.296, 29.060 124.476 L 36.500 91.951 37.126 98.726 C 37.470 102.452, 37.807 118.592, 37.876 134.593 C 37.944 150.594, 38.293 169.132, 38.651 175.788 L 39.301 187.889 51.469 167.093 C 61.749 149.523, 65.551 144.063, 75.979 131.898 C 91.415 113.891, 91.266 114.053, 90.579 116 C 88.341 122.338, 74.110 174.444, 74.508 174.842 C 75.759 176.093, 137.762 169.715, 157 166.356 C 168.275 164.388, 177.597 162.693, 177.715 162.590 C 177.933 162.401, 171.394 122.298, 170.508 118.381 C 170.078 116.483, 168.517 116.021, 155.514 113.934 C 147.531 112.653, 141.002 111.356, 141.005 111.052 C 141.007 110.749, 146.857 106.911, 154.005 102.525 C 161.152 98.139, 167 94.296, 167 93.984 C 167 93.672, 160.919 91.428, 153.488 88.996 C 145.902 86.514, 140.171 84.120, 140.423 83.537 C 140.669 82.967, 141.421 80.813, 142.093 78.750 C 142.766 76.688, 143.583 74.998, 143.908 74.995 C 144.234 74.992, 145.785 73.962, 147.355 72.705 C 150.059 70.541, 150.152 70.211, 149.113 66.460 C 148.086 62.754, 148.481 61.199, 155.258 42.249 C 160.322 28.089, 163.026 21.827, 164.250 21.431 C 165.912 20.894, 166.830 17.859, 165.250 18.128 C 164.838 18.198, 148.750 19.972, 129.500 22.070 M 124.500 29.585 C 108 33.070, 94.446 35.940, 94.380 35.961 C 94.222 36.012, 91.500 74.996, 91.500 77.212 C 91.500 78.297, 98.464 83.857, 110.485 92.371 L 129.469 105.817 132.735 96.785 C 134.531 91.818, 136 87.394, 136 86.954 C 136 86.515, 134.313 85.616, 132.250 84.957 C 130.188 84.298, 128.171 83.461, 127.769 83.099 C 127.368 82.736, 130.173 80.472, 134.004 78.068 C 140.313 74.110, 141.165 73.175, 143.044 68.153 C 146.287 59.484, 145.664 58.575, 133.987 54.947 C 128.494 53.241, 124 51.687, 124 51.495 C 124 51.302, 131.537 45.200, 140.750 37.934 C 149.963 30.668, 157.928 24.335, 158.450 23.861 C 160.199 22.276, 154.758 23.193, 124.500 29.585 M 26.753 45.992 L 14.008 68.007 17.164 105.753 C 18.901 126.514, 20.598 143.827, 20.937 144.226 C 21.276 144.626, 24.657 131.351, 28.452 114.726 C 32.247 98.102, 35.545 83.938, 35.783 83.250 C 36.488 81.205, 38.722 81.829, 39.360 84.250 C 39.687 85.487, 40.263 107.104, 40.640 132.287 C 41.017 157.471, 41.663 177.721, 42.076 177.287 C 42.489 176.854, 46.916 169.484, 51.912 160.909 C 59.561 147.783, 63.545 142.351, 77.104 126.564 C 87.530 114.425, 93.554 108.154, 94.183 108.783 C 94.812 109.412, 92.098 120.583, 86.488 140.455 C 81.722 157.340, 78.068 171.401, 78.369 171.702 C 80.142 173.475, 164.720 163.571, 173.606 160.549 C 174.367 160.291, 173.650 153.839, 171.308 139.872 C 169.436 128.707, 167.708 119.374, 167.467 119.134 C 167.031 118.697, 140.524 114.033, 138.355 114.012 C 137.726 114.005, 132.617 122.213, 127.003 132.250 C 115.912 152.081, 115.631 152.508, 114.215 151.633 C 113.667 151.294, 116.459 142.119, 120.714 130.270 C 125.312 117.468, 127.852 109.024, 127.337 108.260 C 126.876 107.578, 118.625 101.442, 109 94.624 L 91.500 82.227 90.808 85.863 C 90.427 87.864, 90.089 91.826, 90.058 94.668 C 89.991 100.634, 89.286 103, 87.574 103 C 86.830 103, 85.728 99.419, 84.719 93.728 C 81.182 73.763, 81.851 75.163, 72.906 69 C 68.516 65.975, 63.981 62.843, 62.830 62.040 L 60.736 60.580 61.180 91.790 C 61.541 117.107, 61.377 123, 60.312 123 C 59.591 123, 58.994 122.888, 58.988 122.750 C 56.493 72.699, 55.149 41.518, 55.471 41.195 C 55.700 40.967, 58.950 40.156, 62.694 39.394 C 73.415 37.211, 74.115 36.995, 73.531 36.050 C 73.228 35.560, 65.897 32.807, 57.240 29.933 C 48.583 27.058, 41.049 24.542, 40.499 24.341 C 39.948 24.141, 33.762 33.884, 26.753 45.992 M 142.647 39.751 L 128.959 50.500 136.229 52.706 C 140.228 53.920, 144.298 55.392, 145.273 55.979 C 146.587 56.769, 147.164 56.716, 147.504 55.773 C 154.418 36.599, 156.855 29.522, 156.622 29.288 C 156.465 29.131, 150.176 33.839, 142.647 39.751 M 81.758 38.225 C 77.612 39.089, 77.081 39.483, 77.536 41.357 C 77.822 42.536, 79.337 50.215, 80.903 58.422 C 82.997 69.396, 84.230 73.695, 85.566 74.672 C 86.565 75.402, 87.672 76, 88.027 76 C 88.382 76, 89.309 67.225, 90.088 56.500 L 91.505 37 89.002 37.118 C 87.626 37.183, 84.366 37.681, 81.758 38.225 M 66.500 41.520 C 63.200 42.263, 59.916 42.900, 59.202 42.936 C 58.251 42.983, 57.984 44.663, 58.202 49.235 L 58.500 55.469 68.807 62.844 C 74.476 66.900, 79.329 70.004, 79.592 69.742 C 80.486 68.847, 74.613 40, 73.554 40.084 C 72.974 40.130, 69.800 40.776, 66.500 41.520 M 145.667 68.667 C 145.300 69.033, 145 69.798, 145 70.367 C 145 70.993, 145.466 70.934, 146.183 70.217 C 146.834 69.566, 147.134 68.801, 146.850 68.517 C 146.566 68.233, 146.033 68.300, 145.667 68.667 M 85.466 82.619 C 86.704 90.875, 87.866 92.163, 87.937 85.357 C 87.986 80.584, 87.640 79.076, 86.385 78.594 C 84.983 78.056, 84.861 78.591, 85.466 82.619 M 135.582 80.351 C 132.741 82.618, 132.722 82.694, 134.845 83.249 C 136.376 83.650, 137.340 83.234, 138.078 81.854 C 139.829 78.583, 138.672 77.885, 135.582 80.351 M 135.524 97.338 C 132.125 106.802, 132.004 107.530, 133.638 108.724 C 134.597 109.426, 135.754 110, 136.208 110 C 137.132 110, 157.798 97.326, 159.744 95.566 C 160.690 94.710, 158.375 93.577, 150.072 90.834 L 139.156 87.228 135.524 97.338 M 126.499 122.203 C 124.300 128.365, 122.355 133.877, 122.179 134.453 C 122.002 135.029, 124.590 130.700, 127.930 124.834 C 133.635 114.812, 134.658 111, 131.642 111 C 131.013 111, 128.698 116.041, 126.499 122.203" stroke="none" fill="black" fill-rule="evenodd"/>
</svg>