<svg xmlns="http://www.w3.org/2000/svg" width="200" height="200" viewBox="0 0 200 200" version="1.1">
	<path d="M 39 22.345 C 39 23.085, 38.077 30.623, 36.949 39.095 C 35.019 53.587, 34.397 55.864, 26.444 77.500 C 21.795 90.150, 17.993 100.789, 17.995 101.142 C 17.998 101.494, 23.062 100.462, 29.250 98.848 C 39.267 96.235, 44.793 95.615, 79.658 93.197 L 118.815 90.481 128.630 97.490 L 138.444 104.500 115.972 105.590 L 93.500 106.681 66 113.453 C 50.875 117.177, 38.156 120.541, 37.736 120.927 C 37.315 121.313, 42.224 134.579, 48.644 150.406 C 55.603 167.560, 60.603 178.642, 61.024 177.842 C 61.413 177.104, 64.301 167.950, 67.442 157.500 C 70.583 147.050, 74.545 134, 76.246 128.500 L 79.338 118.500 84.633 148.500 C 87.545 165, 90.678 182.694, 91.595 187.819 C 92.511 192.945, 93.594 196.770, 94.002 196.319 C 94.409 195.869, 100.088 181.243, 106.621 163.819 L 118.500 132.138 119.141 137.819 C 119.494 140.943, 119.832 146.243, 119.891 149.596 L 120 155.693 132.157 156.346 C 138.843 156.706, 146.844 157, 149.935 157 L 155.557 157 162.811 128.750 C 168.243 107.599, 170.791 95.348, 172.953 80 C 175.697 60.517, 175.768 59.128, 174.396 52.005 C 173.138 45.476, 171.955 42.996, 165.226 32.774 C 160.977 26.319, 157.007 21.030, 156.404 21.019 C 155.802 21.009, 149.277 22.121, 141.904 23.490 C 125.480 26.542, 107.359 26.834, 88.866 24.345 L 76.231 22.644 66.193 25.543 C 60.672 27.138, 56.327 28.720, 56.536 29.059 C 56.746 29.398, 67.269 33.681, 79.920 38.577 C 92.571 43.473, 102.602 47.745, 102.211 48.070 C 100.431 49.552, 70.613 61.066, 69.581 60.670 C 68.942 60.424, 62.002 51.398, 54.158 40.612 C 46.313 29.825, 39.694 21, 39.448 21 C 39.201 21, 39 21.605, 39 22.345 M 140.500 26.530 C 125.507 29.454, 106.932 29.686, 88.949 27.174 C 76.833 25.481, 76.179 25.485, 70.098 27.276 C 66.633 28.296, 63.956 29.263, 64.149 29.424 C 64.342 29.586, 74.752 33.681, 87.283 38.526 C 99.813 43.371, 109.713 47.649, 109.283 48.032 C 108.852 48.416, 100.400 52.015, 90.500 56.030 C 80.600 60.045, 72.291 63.502, 72.035 63.713 C 71.780 63.924, 72.030 64.824, 72.592 65.715 C 73.239 66.740, 79.639 68.901, 90.057 71.609 C 112.175 77.361, 114 77.927, 114 79.040 C 114 80.653, 111.433 80.186, 91.614 74.962 C 75.958 70.836, 72.127 69.474, 70.441 67.435 L 68.382 64.946 54.995 70.502 C 47.632 73.558, 41.455 76.211, 41.268 76.398 C 41.082 76.585, 45.557 77.468, 51.214 78.360 C 56.871 79.253, 71.080 81.520, 82.790 83.400 L 104.080 86.816 125.790 81.892 C 137.730 79.184, 148.320 76.629, 149.322 76.213 C 150.743 75.623, 147.016 72.907, 132.363 63.853 C 115.147 53.216, 110.879 50, 113.978 50 C 115.893 50, 157.996 76.408, 157.221 77.123 C 156.825 77.490, 146.600 80.052, 134.500 82.816 C 121.560 85.773, 114.066 87.875, 116.304 87.921 C 119.448 87.986, 122.334 89.604, 132.951 97.250 C 140.015 102.338, 145.671 106.633, 145.519 106.795 C 145.368 106.957, 134.052 107.554, 120.372 108.121 C 92.355 109.283, 81.354 111.121, 81.680 114.586 C 81.779 115.639, 84.688 132.633, 88.145 152.351 C 92.206 175.511, 94.709 187.547, 95.217 186.351 C 95.650 185.333, 101.134 170.775, 107.403 154 C 115.214 133.101, 119.306 123.398, 120.401 123.177 C 121.808 122.892, 122 124.599, 122 137.368 C 122 147.881, 122.345 152.105, 123.250 152.691 C 123.938 153.136, 131.025 153.648, 139 153.829 L 153.500 154.158 160.258 127.829 C 165.153 108.760, 167.843 95.734, 170.014 80.590 C 172.814 61.060, 172.923 59.208, 171.664 52.543 C 170.511 46.433, 169.283 43.864, 163.136 34.703 C 158.435 27.696, 155.359 24.033, 154.228 24.095 C 153.277 24.147, 147.100 25.243, 140.500 26.530 M 40.983 29.050 C 40.974 29.848, 40.123 36.350, 39.092 43.500 C 37.485 54.638, 36.132 59.430, 29.649 76.958 C 25.488 88.210, 22.191 97.525, 22.325 97.658 C 22.458 97.791, 26.827 96.800, 32.033 95.456 C 39.284 93.584, 47.905 92.555, 68.860 91.062 C 83.908 89.990, 96.370 88.964, 96.552 88.781 C 96.734 88.599, 83.072 86.285, 66.192 83.638 C 49.311 80.991, 34.437 78.510, 33.138 78.125 C 31.236 77.562, 34.294 75.992, 48.876 70.051 C 61.085 65.076, 66.696 62.321, 66.118 61.588 C 65.646 60.989, 60.199 53.525, 54.012 45 C 41.084 27.187, 41.006 27.091, 40.983 29.050 M 57.750 118.345 C 48.538 120.604, 41 122.830, 41 123.292 C 41 124.405, 59.071 169.294, 59.887 170.210 C 60.235 170.601, 64.391 158.113, 69.121 142.460 C 76.071 119.465, 77.413 114.023, 76.111 114.119 C 75.225 114.185, 66.963 116.086, 57.750 118.345" stroke="none" fill="black" fill-rule="evenodd"/>
</svg>