<svg xmlns="http://www.w3.org/2000/svg" width="200" height="200" viewBox="0 0 200 200" version="1.1">
	<path d="M 73.418 12.352 C 73.104 13.170, 77.965 23.733, 84.298 35.998 L 95.746 58.166 105.503 42.046 C 110.869 33.180, 115.458 26.125, 115.700 26.367 C 115.942 26.608, 115.597 32.222, 114.934 38.841 L 113.729 50.876 104.732 63.494 C 99.300 71.111, 95.229 75.918, 94.461 75.623 C 90.644 74.159, 61 51.534, 61 50.086 C 61 48.571, 63.221 29.969, 64.502 20.750 C 64.907 17.840, 64.685 17, 63.512 17 C 62.680 17, 61.999 17.337, 61.999 17.750 C 61.996 19.381, 58.009 48.625, 57.533 50.500 C 57.116 52.144, 59.763 54.458, 72.404 63.500 L 87.782 74.500 77.641 75.127 C 72.064 75.473, 61.118 75.810, 53.317 75.877 C 40.726 75.986, 39.080 76.196, 38.644 77.750 C 37.438 82.047, 31.736 126.070, 32.311 126.644 C 32.664 126.997, 41.385 126.343, 51.690 125.190 C 61.996 124.038, 70.558 123.225, 70.718 123.384 C 70.877 123.544, 60.044 134.511, 46.644 147.756 C 32.819 161.422, 22.571 172.306, 22.951 172.921 C 24.240 175.006, 51.364 165.509, 69.661 156.567 L 86.822 148.180 97.122 173.247 C 106.051 194.981, 107.513 197.928, 108.117 195.408 C 108.500 193.808, 110.499 178.550, 112.559 161.500 C 114.620 144.450, 116.580 130.180, 116.914 129.788 C 117.737 128.827, 144.106 122.773, 144.735 123.401 C 145.008 123.675, 139.870 131.459, 133.316 140.700 C 126.761 149.940, 121.108 157.981, 120.752 158.569 C 119.947 159.901, 164.793 166.640, 165.966 165.363 C 166.937 164.306, 182.292 105.959, 181.743 105.410 C 181.528 105.195, 170.360 106.139, 156.926 107.508 C 143.492 108.878, 131.787 109.999, 130.916 109.999 C 129.705 110, 128.943 107.836, 127.682 100.817 C 126.774 95.767, 126.230 91.436, 126.473 91.193 C 126.716 90.951, 137.599 89.892, 150.658 88.842 C 163.717 87.791, 174.573 86.761, 174.782 86.551 C 175.112 86.221, 158.389 39.991, 157.743 39.449 C 157.609 39.337, 150.750 40.314, 142.500 41.621 C 134.250 42.928, 126.976 43.886, 126.335 43.749 C 125.695 43.612, 129.443 36.584, 134.665 28.130 C 140.817 18.172, 143.818 12.418, 143.187 11.787 C 142.557 11.157, 137.906 16.848, 129.980 27.947 C 123.251 37.369, 117.589 44.923, 117.399 44.732 C 117.209 44.542, 117.697 38.576, 118.484 31.476 C 119.586 21.524, 119.641 18.396, 118.721 17.828 C 117.455 17.045, 116.444 18.527, 103.794 39.717 C 99.782 46.437, 96.266 51.949, 95.980 51.967 C 95.694 51.985, 90.969 42.962, 85.480 31.916 C 79.991 20.870, 75.159 11.617, 74.743 11.353 C 74.327 11.089, 73.731 11.539, 73.418 12.352 M 137.500 45.156 C 116.254 48.441, 116.566 48.234, 115.559 59.711 C 115.183 63.995, 114.653 68.273, 114.381 69.217 C 113.938 70.754, 115.044 70.963, 124.947 71.217 C 131.248 71.378, 136.114 71.930, 136.254 72.500 C 136.389 73.050, 126.871 76.064, 115.103 79.197 C 103.335 82.330, 93.374 85.255, 92.968 85.697 C 92.563 86.139, 86.722 94.071, 79.989 103.324 C 72.023 114.272, 67.407 119.807, 66.771 119.171 C 66.135 118.535, 70.478 111.612, 79.204 99.347 C 86.580 88.981, 92.998 79.863, 93.468 79.085 C 94.199 77.874, 90.546 77.765, 68 78.329 C 53.524 78.691, 41.529 79.138, 41.345 79.322 C 40.685 79.981, 34.923 123.257, 35.428 123.761 C 35.712 124.045, 45.406 123.186, 56.972 121.852 C 68.537 120.518, 78 119.733, 78 120.108 C 78 120.483, 66.968 131.480, 53.484 144.546 C 40.001 157.612, 29.153 168.487, 29.379 168.713 C 30.626 169.959, 52.990 161.548, 69.257 153.713 C 79.573 148.745, 88.189 144.865, 88.404 145.090 C 88.619 145.316, 92.267 154.050, 96.511 164.500 C 100.755 174.950, 104.749 184.509, 105.387 185.741 C 106.348 187.599, 107.188 182.818, 110.293 157.806 C 112.353 141.208, 114.215 127.451, 114.432 127.235 C 114.956 126.711, 152 118.240, 152 118.645 C 152 118.818, 145.904 127.574, 138.454 138.101 C 131.004 148.629, 125.042 157.356, 125.204 157.495 C 126.048 158.217, 163.308 163.026, 163.856 162.484 C 164.429 161.917, 178.846 108.788, 178.558 108.304 C 178.494 108.196, 167.057 109.249, 153.143 110.643 C 139.229 112.037, 127.644 112.978, 127.400 112.733 C 126.760 112.093, 122.672 88.991, 123.123 88.564 C 123.330 88.367, 133.850 87.420, 146.500 86.460 C 159.150 85.500, 169.861 84.395, 170.301 84.006 C 170.989 83.398, 158.317 46.967, 156.240 43.580 C 155.675 42.658, 151.246 43.031, 137.500 45.156 M 104.286 68.717 C 99.769 75.146, 96.255 80.588, 96.478 80.811 C 96.700 81.034, 102.627 79.705, 109.648 77.858 L 122.413 74.500 116.639 74.198 C 110.962 73.901, 110.873 73.850, 111.370 71.198 C 112.157 66.999, 113.181 56.998, 112.822 57.014 C 112.645 57.022, 108.804 62.288, 104.286 68.717" stroke="none" fill="black" fill-rule="evenodd"/>
</svg>