<svg xmlns="http://www.w3.org/2000/svg" width="200" height="200" viewBox="0 0 200 200" version="1.1">
	<path d="M 135.436 31.653 L 120.638 51.500 116.572 32.250 L 112.506 13 109.003 12.982 C 103.827 12.956, 47.682 16.094, 46.415 16.480 C 44.573 17.041, 15.672 71.072, 16.677 72.077 C 17.233 72.633, 28.205 65.440, 44.547 53.805 C 69.412 36.102, 72.042 33.942, 78.500 25.908 L 85.500 17.200 92.500 16.523 C 96.350 16.150, 101.943 15.992, 104.930 16.173 L 110.359 16.500 114.576 36.313 C 116.895 47.210, 119.014 56.348, 119.285 56.618 C 119.556 56.889, 126.465 48.102, 134.639 37.091 C 142.812 26.081, 149.873 17.180, 150.328 17.312 C 150.784 17.444, 155.792 25.190, 161.459 34.526 L 171.760 51.500 169.206 56 C 167.801 58.475, 165.481 62.292, 164.050 64.482 L 161.448 68.463 144.111 71.180 C 134.575 72.674, 126.106 74.033, 125.290 74.198 C 124.293 74.401, 128.346 80.431, 137.653 92.594 C 148.230 106.415, 152.622 111.364, 156.250 113.550 C 158.862 115.125, 161 116.754, 161 117.169 C 161 117.842, 153.951 131.177, 145.939 145.659 L 143.086 150.818 160.793 164.042 C 170.532 171.315, 178.831 177.559, 179.235 177.918 C 179.639 178.276, 166.222 177.109, 149.420 175.323 L 118.870 172.077 102.380 163.452 C 87.739 155.795, 85.678 154.978, 83.989 156.164 C 82.942 156.899, 79.366 159.667, 76.043 162.316 C 72.719 164.965, 70 166.715, 70 166.205 C 70 165.695, 73.375 149.373, 77.500 129.934 C 81.625 110.495, 85 94.156, 85 93.625 C 85 93.094, 89.291 98.699, 94.536 106.080 C 101.735 116.211, 105.719 120.782, 110.786 124.730 L 117.500 129.959 117.763 93.826 C 117.907 73.952, 117.827 57.494, 117.585 57.251 C 117.342 57.009, 108.246 61.578, 97.371 67.405 L 77.598 78 68.308 78 L 59.019 78 59.494 88.250 C 59.756 93.888, 60.208 107.950, 60.499 119.500 L 61.028 140.500 51.276 162.340 C 42.270 182.508, 41.472 183.925, 40.862 180.840 C 40.498 179.003, 39.168 164.725, 37.907 149.110 L 35.613 120.721 30.307 113.455 C 27.388 109.458, 25 105.747, 25 105.208 C 25 104.484, 52.022 56.229, 53.583 54.165 C 53.722 53.981, 62.685 53.007, 73.500 52 C 84.315 50.993, 93.397 49.936, 93.682 49.651 C 95.599 47.734, 90.962 47.604, 75.312 49.135 C 65.516 50.093, 56.322 50.904, 54.882 50.938 C 52.522 50.994, 50.777 53.605, 37.134 77.495 C 28.812 92.067, 21.890 104.373, 21.752 104.842 C 21.613 105.311, 24.044 109.251, 27.154 113.597 L 32.808 121.500 35.418 153 C 38.404 189.045, 38.655 191.002, 40.295 190.994 C 40.958 190.991, 46.557 179.629, 52.738 165.744 L 63.977 140.500 63.509 133.500 C 63.252 129.650, 62.829 116.263, 62.571 103.750 L 62.100 81 69.986 81 L 77.872 81 96.186 71.141 L 114.500 61.283 114.775 76.578 C 114.926 84.991, 114.926 99.121, 114.775 107.977 L 114.500 124.081 110.423 121.081 C 107.995 119.294, 101.928 111.833, 95.423 102.631 C 89.415 94.133, 84.278 87.400, 84.006 87.668 C 83.356 88.308, 65.245 174, 65.760 174 C 65.978 174, 70.565 170.395, 75.953 165.989 L 85.750 157.979 102.125 166.407 L 118.500 174.835 152 178.426 C 170.425 180.402, 186.360 182.014, 187.410 182.009 C 188.490 182.004, 180.228 175.196, 168.410 166.352 C 156.910 157.745, 147.336 150.568, 147.136 150.404 C 146.801 150.129, 151.093 141.859, 161.226 123.260 L 165.170 116.020 159.292 112.357 C 154.522 109.386, 151.253 105.876, 141.957 93.746 C 135.656 85.524, 130.178 78.235, 129.785 77.549 C 129.250 76.616, 132.651 75.749, 143.285 74.105 C 151.103 72.896, 158.891 71.666, 160.591 71.372 C 163.243 70.913, 164.437 69.542, 169.008 61.706 C 171.937 56.684, 174.323 52.108, 174.311 51.538 C 174.285 50.358, 153.381 15.217, 151.477 13.153 C 150.461 12.052, 147.527 15.437, 135.436 31.653 M 65 18.045 C 59.225 18.436, 52.863 18.810, 50.863 18.877 L 47.226 19 35.987 39.750 C 29.805 51.163, 23.805 62.064, 22.653 63.975 L 20.558 67.451 23.529 65.352 C 58.822 40.415, 69.758 32.496, 71 30.975 C 71.825 29.966, 74.667 26.408, 77.316 23.070 L 82.133 17 78.816 17.168 C 76.992 17.260, 70.775 17.655, 65 18.045" stroke="none" fill="black" fill-rule="evenodd"/>
</svg>