<svg xmlns="http://www.w3.org/2000/svg" width="200" height="200" viewBox="0 0 200 200" version="1.1">
	<path d="M 34.065 35.054 C 22.502 53.008, 15.074 65.474, 15.615 66.015 C 16.156 66.556, 24.720 62.099, 36.885 54.945 C 53.241 45.327, 56.899 43.514, 55.466 45.735 C 54.485 47.256, 47.904 57.314, 40.841 68.086 L 28 87.673 28 102.401 L 28 117.130 37 154.220 C 41.950 174.620, 46 191.466, 46 191.656 C 46 191.845, 46.638 192, 47.417 192 C 48.297 192, 49.222 190.201, 49.858 187.250 C 64.899 117.440, 63.810 123.875, 65.941 92.162 L 67.913 62.824 64.044 53.162 C 61.916 47.848, 60.473 43.217, 60.837 42.870 C 62.132 41.640, 79.558 44.558, 83.033 46.587 C 87.409 49.143, 89.576 54.684, 90.527 65.750 C 91.243 74.073, 91.645 74.955, 93.763 72.837 C 94.647 71.953, 95.183 72.352, 96 74.500 C 96.591 76.054, 96.720 77.640, 96.287 78.025 C 95.854 78.409, 91.112 81.991, 85.750 85.984 C 80.388 89.977, 75.989 93.751, 75.975 94.372 C 75.961 94.992, 76.956 104.178, 78.186 114.784 C 80.232 132.418, 80.598 134.109, 82.462 134.542 C 83.583 134.803, 88.850 136.026, 94.166 137.258 L 103.831 139.500 85.467 161 C 75.366 172.825, 67.079 182.762, 67.051 183.082 C 67.023 183.402, 79.262 181.022, 94.250 177.793 L 121.500 171.921 152.200 171.177 C 169.086 170.767, 183.197 170.137, 183.558 169.775 C 183.919 169.414, 178.620 160.879, 171.780 150.809 C 159.359 132.519, 159.330 132.487, 144.604 120.078 L 129.861 107.656 136.745 100.772 C 143.572 93.945, 143.763 93.839, 159.565 88.031 C 170.233 84.110, 175.408 81.733, 175.221 80.837 C 174.874 79.179, 154.959 35.773, 154.088 34.778 C 153.740 34.381, 149.866 33.567, 145.478 32.969 C 131.421 31.055, 132.150 31.710, 137.327 25.650 L 141.828 20.382 98.664 12.660 C 74.924 8.412, 55.032 4.951, 54.460 4.968 C 53.888 4.986, 44.710 18.525, 34.065 35.054 M 40 30.722 C 22.712 57.739, 20.429 61.466, 21.605 60.759 C 22.097 60.462, 29.925 55.858, 39 50.528 C 48.075 45.197, 55.650 40.422, 55.833 39.918 C 56.017 39.413, 57.019 39, 58.060 39 C 59.102 39, 60.691 37.875, 61.592 36.500 C 62.493 35.125, 64.191 33.984, 65.365 33.965 C 66.539 33.945, 70.413 32.156, 73.973 29.988 C 77.534 27.820, 80.753 26.374, 81.127 26.773 C 81.502 27.173, 83.035 30.987, 84.534 35.250 C 86.033 39.513, 87.493 43, 87.779 43 C 88.065 43, 88.011 38.935, 87.658 33.967 L 87.017 24.933 92.259 25.624 C 95.141 26.005, 104.475 27.310, 113 28.526 L 128.500 30.736 132.451 26.902 C 134.624 24.794, 136.175 22.842, 135.898 22.564 C 135.314 21.981, 58.445 7.985, 56.078 8.031 C 55.129 8.049, 48.720 17.095, 40 30.722 M 90.627 35.203 C 90.985 39.216, 91.402 42.649, 91.554 42.832 C 91.706 43.014, 96.931 43.813, 103.165 44.606 L 114.500 46.048 120.264 39.872 C 123.435 36.475, 125.871 33.537, 125.677 33.344 C 125.484 33.151, 118.840 32.107, 110.913 31.024 C 102.986 29.941, 95.032 28.797, 93.239 28.480 L 89.977 27.905 90.627 35.203 M 73.617 33.236 L 68.735 36.332 74.117 39.119 C 80.506 42.427, 84.588 42.919, 83.501 40.250 C 83.109 39.288, 82.119 36.587, 81.300 34.250 C 80.482 31.913, 79.517 30.031, 79.156 30.070 C 78.795 30.108, 76.303 31.533, 73.617 33.236 M 124.155 39.712 C 121.399 42.854, 119.339 45.739, 119.576 46.123 C 119.813 46.507, 123.770 47.134, 128.368 47.517 C 132.966 47.901, 137.269 48.548, 137.930 48.957 C 138.705 49.435, 135.889 52.115, 130.022 56.483 L 120.912 63.267 133.706 69.670 C 147.625 76.635, 151.914 79.420, 150.658 80.675 C 150.211 81.122, 142.778 77.799, 134.139 73.290 L 118.432 65.092 109.716 71.537 C 104.922 75.081, 101 78.406, 101 78.926 C 101 79.876, 120.901 134.344, 122.950 139 C 123.766 140.855, 123.922 133.050, 123.554 108.750 C 123.124 80.369, 123.255 76, 124.529 76 C 125.760 76, 126 78.525, 126 91.500 C 126 100.025, 126.260 107, 126.578 107 C 126.896 107, 130.445 103.512, 134.465 99.250 L 141.774 91.500 156.887 86.109 C 165.199 83.144, 172.008 80.444, 172.017 80.109 C 172.033 79.548, 153.018 38.018, 152.319 37.088 C 151.910 36.544, 135.246 34.049, 131.833 34.022 C 129.826 34.005, 127.926 35.414, 124.155 39.712 M 64 39 C 62.825 39.759, 63.078 39.973, 65.168 39.985 C 66.636 39.993, 68.661 40.256, 69.668 40.569 C 70.676 40.882, 70.375 40.448, 69 39.605 C 66.017 37.775, 65.915 37.762, 64 39 M 92.210 47.231 C 92.425 47.929, 95.650 50.075, 99.377 52 L 106.154 55.500 109.113 52 L 112.072 48.500 107.786 47.893 C 95.159 46.104, 91.821 45.963, 92.210 47.231 M 44.478 67.551 L 31 88.102 31 102.960 L 31 117.819 39.064 151.140 C 43.499 169.466, 47.224 184.558, 47.343 184.676 C 47.461 184.794, 50.651 170.403, 54.432 152.695 C 61.240 120.812, 61.325 120.224, 63.199 92 L 65.091 63.500 61.903 55.250 C 60.149 50.712, 58.544 47, 58.335 47 C 58.127 47, 51.892 56.248, 44.478 67.551 M 112.250 52.228 C 110.463 54.080, 109 55.873, 109 56.212 C 109 56.551, 111.044 57.972, 113.543 59.368 L 118.085 61.907 125.110 56.781 C 129.890 53.294, 131.714 51.426, 130.818 50.938 C 130.093 50.544, 126.350 49.915, 122.500 49.541 C 115.508 48.862, 115.496 48.865, 112.250 52.228 M 92 53.385 C 92 55.523, 95.222 65, 95.949 65 C 96.304 65, 98.260 63.294, 100.297 61.208 L 103.999 57.416 98.478 54.708 C 92.080 51.571, 92 51.554, 92 53.385 M 101.695 63.802 C 97.150 68.417, 97.010 68.730, 98.102 71.863 C 98.828 73.946, 99.729 74.934, 100.598 74.601 C 102.455 73.888, 114.908 64.639, 114.959 63.934 C 114.997 63.410, 107.728 59, 106.826 59 C 106.605 59, 104.297 61.161, 101.695 63.802 M 87.750 87.642 C 80.563 92.999, 79 94.640, 79.002 96.832 C 79.004 99.973, 82.967 131.301, 83.420 131.753 C 83.590 131.923, 89.189 133.286, 95.862 134.781 C 102.534 136.277, 107.995 137.795, 107.997 138.155 C 107.999 138.515, 100.386 147.740, 91.080 158.655 C 81.773 169.570, 74.489 178.622, 74.893 178.771 C 75.297 178.920, 85.949 176.821, 98.564 174.106 L 121.500 169.169 150.700 168.445 L 179.901 167.722 168.325 150.611 C 156.805 133.581, 156.681 133.443, 142.275 121.500 C 134.313 114.900, 127.507 109.387, 127.150 109.249 C 126.792 109.112, 126.500 118.337, 126.500 129.749 C 126.500 142.583, 126.118 150.691, 125.500 151 C 124.945 151.277, 118.715 135.811, 111.503 116.250 C 104.355 96.862, 98.055 81.027, 97.503 81.061 C 96.951 81.094, 92.563 84.056, 87.750 87.642" stroke="none" fill="black" fill-rule="evenodd"/>
</svg>