<svg xmlns="http://www.w3.org/2000/svg" width="200" height="200" viewBox="0 0 200 200" version="1.1">
	<path d="M 54.201 14.250 C 38.296 44.055, 18.083 84.934, 18.978 85.486 C 20.263 86.281, 19.673 86.658, 37.266 73.796 C 45.387 67.858, 52.181 63, 52.364 63 C 52.547 63, 51.716 67.388, 50.517 72.750 C 48.657 81.070, 47.432 83.939, 42.169 92.310 C 38.776 97.706, 36 102.361, 36 102.655 C 36 102.949, 38.025 102.003, 40.500 100.553 C 43.803 98.617, 45 98.292, 45 99.330 C 45 100.108, 40.950 120.635, 36 144.945 C 31.050 169.255, 27 189.562, 27 190.072 C 27 190.583, 27.575 191, 28.278 191 C 29.083 191, 33.246 179.128, 39.500 159 L 49.443 127 52.566 127 C 54.284 127, 62.734 126.512, 71.344 125.916 C 79.954 125.320, 87.473 124.991, 88.052 125.184 C 88.631 125.377, 85.033 127.259, 80.055 129.367 C 75.078 131.475, 71.263 133.617, 71.578 134.127 C 71.893 134.636, 75.764 136.870, 80.179 139.090 C 84.594 141.310, 88.048 143.285, 87.853 143.479 C 87.540 143.792, 61.730 149, 60.493 149 C 59.409 149, 60.197 152.254, 65.639 170.230 C 70.849 187.442, 71.479 188.923, 73.405 188.497 C 74.557 188.242, 92.600 185.299, 113.500 181.957 C 134.400 178.616, 152.345 175.635, 153.379 175.333 C 154.686 174.950, 149.067 171.592, 134.879 164.276 C 123.670 158.497, 110.675 151.703, 106 149.178 L 97.500 144.588 119 140.415 C 134.457 137.415, 140.714 136.559, 141.262 137.371 C 141.682 137.992, 146.810 146.271, 152.659 155.770 C 158.508 165.268, 163.399 172.918, 163.528 172.770 C 164.172 172.027, 178.185 126.852, 177.868 126.537 C 177.666 126.335, 171.200 127.427, 163.500 128.964 C 140.011 133.651, 142.491 133.616, 139.559 129.302 C 138.152 127.231, 137 125.006, 137 124.359 C 137 123.712, 146.902 110.887, 159.005 95.858 C 171.108 80.828, 180.896 68.212, 180.755 67.821 C 180.615 67.430, 173.539 60.065, 165.031 51.455 L 149.562 35.800 115.781 38.044 L 82 40.287 72.111 29.894 L 62.222 19.500 61.038 12.250 C 60.387 8.262, 59.693 5, 59.496 5 C 59.298 5, 56.915 9.162, 54.201 14.250 M 40.577 46.602 C 31.389 64.534, 24.013 79.346, 24.186 79.519 C 24.501 79.834, 49.075 62.118, 52.121 59.380 C 54.730 57.035, 60.422 26.535, 59.551 19.565 C 59.169 16.504, 58.502 14, 58.070 14 C 57.637 14, 49.766 28.671, 40.577 46.602 M 65.204 36.012 C 66.317 42.331, 67.391 47.677, 67.590 47.893 C 67.789 48.108, 68.632 47.720, 69.464 47.030 C 71.834 45.063, 72.519 48.279, 70.414 51.491 C 68.847 53.883, 68.798 54.947, 69.915 62.322 C 71.682 73.981, 73.048 80, 73.929 80 C 74.349 80, 83.199 74.649, 93.596 68.109 C 105.284 60.757, 112.870 56.566, 113.470 57.129 C 114.077 57.699, 107.226 65.262, 95.160 77.340 L 75.879 96.640 77.031 103.254 C 78.066 109.202, 78.472 109.969, 81.062 110.872 C 83.836 111.839, 84.985 110.991, 112.221 87.864 L 140.500 63.852 145.155 51.676 L 149.809 39.500 146.690 39.171 C 144.974 38.989, 129.546 39.809, 112.405 40.991 L 81.239 43.140 72.210 33.832 L 63.181 24.524 65.204 36.012 M 59.628 42.273 C 58.665 47.348, 57.602 52.625, 57.267 53.999 L 56.658 56.498 60.579 53.577 C 62.736 51.971, 64.606 50.591, 64.735 50.510 C 65.049 50.314, 62.134 33.801, 61.711 33.377 C 61.528 33.195, 60.591 37.198, 59.628 42.273 M 151.098 44.021 C 150.510 45.384, 145.973 57.462, 141.015 70.860 L 132 95.221 132 106.988 C 132 116.148, 132.327 119.027, 133.477 119.981 C 135.214 121.423, 132.790 124.114, 158.709 91.977 L 177.681 68.453 164.924 54.997 C 152.499 41.892, 152.138 41.606, 151.098 44.021 M 60.254 57.045 C 56.618 59.719, 55.975 60.827, 54.624 66.748 C 53.785 70.425, 53.197 73.530, 53.315 73.649 C 53.434 73.768, 56.152 69.585, 59.355 64.355 C 62.558 59.124, 64.994 54.660, 64.769 54.435 C 64.543 54.210, 62.512 55.384, 60.254 57.045 M 65.354 60.124 C 64.749 60.881, 61.306 66.294, 57.703 72.154 C 53.282 79.343, 50.927 84.303, 50.462 87.404 C 50.083 89.932, 50.043 92, 50.373 92 C 50.703 92, 55.255 89.873, 60.487 87.274 C 71.413 81.847, 70.922 83.069, 68.177 68.124 C 66.860 60.956, 66.195 59.072, 65.354 60.124 M 95.500 70.100 C 92.200 72.268, 86.013 76.122, 81.750 78.664 C 73.591 83.529, 73.048 84.483, 74.850 90.768 C 75.437 92.818, 76.800 91.733, 88.986 79.518 C 96.403 72.083, 102.253 66.035, 101.986 66.079 C 101.719 66.122, 98.800 67.931, 95.500 70.100 M 112.839 90.750 C 98.743 102.713, 87.500 112.798, 87.855 113.161 C 88.210 113.525, 92.719 115.442, 97.876 117.421 C 107.180 120.992, 107.337 121.015, 118.126 120.360 L 129 119.699 129 107.469 C 129 96.854, 129.330 94.363, 131.500 88.619 C 132.875 84.979, 135.105 79.075, 136.455 75.500 C 137.806 71.925, 138.811 69, 138.689 69 C 138.568 69, 126.935 78.787, 112.839 90.750 M 59.546 90.835 L 48.591 96.500 42.310 127.431 C 38.855 144.443, 36.163 158.496, 36.327 158.660 C 36.491 158.824, 39.027 151.339, 41.963 142.026 C 46.897 126.372, 47.496 125.055, 49.900 124.594 C 51.330 124.320, 62.943 123.550, 75.707 122.882 C 88.470 122.215, 98.731 121.373, 98.508 121.012 C 98.284 120.651, 94.817 119.064, 90.801 117.486 L 83.500 114.616 66.500 118.977 C 57.150 121.376, 48.600 123.543, 47.500 123.793 C 46.393 124.044, 51.661 118.025, 59.293 110.317 L 73.086 96.388 72.409 91.944 C 72.037 89.500, 71.455 86.976, 71.116 86.335 C 70.701 85.550, 66.929 87.017, 59.546 90.835 M 44.814 93.001 C 43.545 95.212, 43.483 95.752, 44.545 95.344 C 45.303 95.053, 46.207 93.923, 46.553 92.832 C 47.533 89.745, 46.633 89.833, 44.814 93.001 M 63 109.500 C 57.797 114.725, 53.899 119, 54.339 119 C 55.216 119, 74.699 114.205, 76.824 113.466 C 77.898 113.093, 77.877 112.734, 76.712 111.569 C 75.922 110.779, 74.973 107.853, 74.603 105.066 C 74.234 102.280, 73.600 100, 73.196 100 C 72.791 100, 68.203 104.275, 63 109.500 M 120.528 122.927 C 114.010 123.463, 113.734 123.580, 116.278 124.729 C 121.848 127.242, 119.171 128, 104.750 127.992 C 91.483 127.985, 90.034 128.175, 83.753 130.742 C 80.043 132.259, 77.005 133.737, 77.003 134.027 C 77.001 134.317, 80.713 136.379, 85.250 138.610 L 93.500 142.666 115.298 138.400 C 127.287 136.054, 137.521 133.992, 138.041 133.817 C 138.560 133.643, 138.060 131.980, 136.930 130.123 L 134.875 126.746 131.937 129.560 L 129 132.374 129 127.187 C 129 124.334, 128.662 122.079, 128.250 122.177 C 127.838 122.274, 124.363 122.611, 120.528 122.927 M 95.083 124.362 C 95.313 124.561, 98.874 124.994, 102.999 125.324 C 107.882 125.716, 109.975 125.595, 108.999 124.978 C 107.636 124.117, 94.111 123.518, 95.083 124.362 M 157.211 132.789 C 146.986 134.763, 144.044 135.673, 144.453 136.738 C 145.154 138.566, 162.135 166, 162.565 166 C 162.913 166, 174 131.691, 174 130.615 C 174 129.692, 171.739 129.985, 157.211 132.789 M 76.002 148.697 C 69.129 150.053, 63.368 151.299, 63.200 151.467 C 62.911 151.755, 72.762 185.134, 73.263 185.562 C 73.393 185.673, 90.050 183.055, 110.277 179.743 C 130.505 176.431, 146.930 173.621, 146.777 173.498 C 146.625 173.375, 134.658 167.138, 120.184 159.637 C 103.913 151.206, 92.843 146.044, 91.184 146.116 C 89.708 146.179, 82.876 147.341, 76.002 148.697" stroke="none" fill="black" fill-rule="evenodd"/>
</svg>