<svg xmlns="http://www.w3.org/2000/svg" width="200" height="200" viewBox="0 0 200 200" version="1.1">
	<path d="M 93.668 8.126 C 92.661 8.711, 90.973 8.965, 89.917 8.689 C 88.861 8.412, 88.234 8.570, 88.524 9.039 C 88.814 9.508, 87.577 10.337, 85.776 10.880 C 79.974 12.630, 23.791 32.875, 23.259 33.407 C 22.677 33.990, 29.921 64.105, 30.914 65.229 C 31.268 65.630, 42.566 54.942, 56.021 41.479 C 69.476 28.015, 80.759 17, 81.094 17 C 81.430 17, 82.022 26.337, 82.411 37.750 C 83.135 59.038, 83.559 63, 85.108 63 C 86.182 63, 86.174 59.307, 85.042 34 C 84.562 23.275, 84.245 14.424, 84.337 14.331 C 84.429 14.238, 85.665 13.871, 87.083 13.515 C 89.585 12.887, 89.711 13.088, 91.264 20.184 C 92.145 24.208, 96.778 47.975, 101.559 73 L 110.252 118.500 107.987 132.812 L 105.722 147.123 95.611 156.861 C 79.724 172.162, 72 179.356, 72 178.852 C 72 178.596, 74.250 167.188, 77 153.500 C 79.750 139.812, 82 127.992, 82 127.233 C 82 124.134, 78.684 127.138, 68.625 139.351 C 60.274 149.490, 55.826 153.870, 47.549 160.101 C 41.779 164.446, 36.891 168, 36.687 168 C 36.483 168, 35.763 156.412, 35.088 142.250 C 34.356 126.893, 33.030 111.455, 31.805 104 C 30.674 97.125, 29.693 91.017, 29.625 90.426 C 29.469 89.084, 64.880 58.547, 65.673 59.340 C 65.991 59.658, 64.156 73.272, 61.594 89.594 C 59.033 105.916, 57.116 119.449, 57.334 119.667 C 57.553 119.886, 64.927 115.753, 73.721 110.483 L 89.710 100.901 87.984 91.413 C 87.035 86.195, 85.975 81.642, 85.629 81.296 C 84.023 79.690, 83.706 82.660, 84.802 89.050 C 86.695 100.092, 87.324 99.071, 73.500 107.402 C 63.923 113.174, 60.998 114.534, 60.991 113.218 C 60.986 112.273, 63.047 98.298, 65.570 82.162 C 68.094 66.027, 69.928 52.595, 69.647 52.314 C 69.261 51.928, 34.250 80.974, 27.337 87.416 C 26.456 88.237, 26.647 90.804, 28.126 98 C 29.399 104.197, 30.752 118.763, 32.016 139.894 C 33.082 157.710, 34.160 172.493, 34.411 172.744 C 34.663 172.996, 40.400 168.994, 47.162 163.851 C 56.423 156.807, 61.673 151.860, 68.444 143.799 C 73.387 137.914, 77.593 133.260, 77.790 133.457 C 77.987 133.654, 75.832 145.373, 73 159.500 C 70.168 173.627, 68.086 185.419, 68.372 185.706 C 68.659 185.992, 77.658 177.839, 88.370 167.587 C 109.707 147.165, 108.641 148.771, 110.579 134.132 C 110.998 130.962, 111.587 129.325, 112.017 130.132 C 112.418 130.885, 115.562 146.575, 119.003 165 C 122.444 183.425, 125.644 198.920, 126.113 199.433 C 126.583 199.947, 127.259 200.074, 127.617 199.716 C 127.975 199.358, 124.865 180.938, 120.706 158.783 L 113.145 118.500 115.083 108 C 116.797 98.712, 116.991 93.583, 116.761 63.552 L 116.500 29.603 104.850 20.552 C 88.954 8.201, 89.469 8.052, 124.188 14.945 L 151.147 20.298 161.243 32.289 L 171.339 44.279 166.419 48.902 C 163.714 51.445, 158.859 55.813, 155.631 58.609 L 149.761 63.693 162.381 73.942 C 169.321 79.580, 175 84.531, 175 84.946 C 175 85.360, 168.690 92.259, 160.978 100.277 C 153.266 108.295, 147.303 115.062, 147.728 115.316 C 148.153 115.569, 154.800 117.464, 162.500 119.527 C 170.200 121.590, 177.042 123.559, 177.704 123.903 C 178.451 124.291, 171.979 131.756, 160.656 143.569 L 142.404 162.609 136.202 180.652 C 132.791 190.576, 130 198.988, 130 199.347 C 130 199.706, 130.563 199.998, 131.250 199.996 C 131.976 199.993, 135.014 192.557, 138.500 182.246 L 144.500 164.500 164.381 143.714 C 175.315 132.282, 184.090 122.785, 183.881 122.609 C 183.671 122.434, 177.202 120.595, 169.504 118.522 C 161.807 116.450, 154.759 114.472, 153.842 114.127 C 152.543 113.638, 155.224 110.293, 166 98.953 L 179.825 84.406 166.827 74.053 L 153.830 63.701 157.924 60.101 C 160.176 58.120, 164.911 54.025, 168.447 51 C 171.983 47.975, 174.792 45.175, 174.688 44.777 C 174.084 42.458, 152.499 17.917, 150.683 17.485 C 144.095 15.919, 98.372 7.005, 97.057 7.030 C 96.200 7.047, 94.676 7.540, 93.668 8.126 M 93.589 17.499 C 93.982 19.066, 98.215 40.857, 102.995 65.924 L 111.685 111.500 112.843 104.918 C 113.566 100.807, 114 85.727, 114 64.745 L 114 31.154 104.750 23.923 C 99.662 19.946, 94.909 16.233, 94.187 15.672 C 93.142 14.859, 93.020 15.232, 93.589 17.499 M 50.294 26.350 C 37.531 30.876, 26.870 34.796, 26.604 35.062 C 26.338 35.328, 27.556 41.265, 29.310 48.256 L 32.500 60.966 54.047 39.483 C 65.898 27.667, 75.123 18.027, 74.547 18.060 C 73.971 18.094, 63.057 21.824, 50.294 26.350" stroke="none" fill="black" fill-rule="evenodd"/>
</svg>