<svg xmlns="http://www.w3.org/2000/svg" width="200" height="200" viewBox="0 0 200 200" version="1.1">
	<path d="M 49.067 8.152 C 47.978 9.993, 39.891 23.637, 31.097 38.471 C 22.303 53.305, 15.243 65.576, 15.408 65.741 C 15.573 65.906, 23.004 61.937, 31.922 56.922 C 40.839 51.906, 48.273 47.959, 48.440 48.151 C 48.608 48.343, 49.489 49.962, 50.399 51.750 L 52.051 55 47.648 55 C 45.226 55, 42.806 55.563, 42.270 56.250 C 40.979 57.905, 18.878 114.069, 18.758 116 C 18.707 116.825, 22.597 126.108, 27.403 136.629 L 36.142 155.758 48.599 160.518 C 55.450 163.136, 61.221 165.103, 61.423 164.889 C 61.624 164.675, 62.700 144.955, 63.812 121.066 L 65.835 77.632 61.418 68.836 C 58.988 63.998, 57 59.581, 57 59.020 C 57 58.379, 61.830 58, 70 58 L 83 58 83 70.875 C 83 77.956, 83.281 85.156, 83.625 86.875 L 84.250 90 98.125 90 C 112.091 90, 113.389 90.357, 111.235 93.609 C 110.831 94.218, 104.969 95.530, 98.208 96.523 C 88.353 97.971, 85.975 98.630, 86.210 99.850 C 86.409 100.885, 89.214 101.950, 95.001 103.186 C 99.676 104.185, 104.465 105.223, 105.645 105.494 C 107.621 105.947, 107.710 106.303, 106.775 109.987 C 105.901 113.431, 105.255 114.121, 102.130 114.945 C 100.133 115.472, 91.862 117.555, 83.750 119.575 C 75.638 121.595, 69 123.653, 69 124.149 C 69 125.565, 72.545 126.568, 86.355 129.061 C 93.425 130.338, 99.411 131.907, 99.657 132.548 C 99.903 133.189, 97.381 143.470, 94.052 155.395 C 90.723 167.320, 88 177.285, 88 177.538 C 88 177.792, 88.613 178, 89.361 178 C 90.194 178, 94.160 169.612, 99.582 156.384 C 104.455 144.495, 109.031 134.542, 109.751 134.265 C 110.470 133.989, 115.096 134.547, 120.030 135.506 C 126.955 136.851, 128.995 137.619, 128.977 138.874 C 128.964 139.768, 127.888 152.425, 126.586 167 C 125.283 181.575, 124.345 193.639, 124.501 193.809 C 125.077 194.436, 174.496 132.827, 174.391 131.614 C 174.331 130.922, 171.968 127.176, 169.141 123.289 C 166.313 119.401, 163.992 115.383, 163.982 114.360 C 163.972 113.337, 165.644 103.803, 167.696 93.174 L 171.428 73.849 164.081 44.174 C 160.040 27.853, 156.434 14.163, 156.068 13.751 C 155.701 13.339, 154.832 14.576, 154.136 16.501 L 152.871 20 126.626 20 L 100.381 20 77.236 12.986 C 64.506 9.128, 53.406 5.709, 52.569 5.388 C 51.558 5, 50.384 5.926, 49.067 8.152 M 37.248 33.353 C 29.041 47.184, 22.407 58.616, 22.504 58.757 C 22.601 58.898, 33.303 52.983, 46.285 45.611 C 67.204 33.734, 70.588 32.128, 76.021 31.498 L 82.153 30.786 81.827 25.203 C 81.523 20.018, 81.670 19.579, 83.898 19.039 C 85.723 18.597, 84.052 17.805, 76.898 15.721 C 71.729 14.215, 64.050 11.909, 59.834 10.595 L 52.168 8.207 37.248 33.353 M 84 26.116 L 84 30.233 90.250 29.527 C 93.688 29.138, 99.875 28.283, 104 27.626 L 111.500 26.431 104.345 24.215 C 100.017 22.876, 94.583 22, 90.595 22 L 84 22 84 26.116 M 114 24.173 C 116.855 25.367, 122.258 25.340, 129.500 24.095 C 133.734 23.367, 132.738 23.227, 123 23.181 C 114.107 23.139, 112.067 23.364, 114 24.173 M 152.087 28.725 C 150.246 33.534, 150.118 34.615, 151.286 35.475 C 153.182 36.873, 152.329 38.899, 150.091 38.313 C 148.321 37.851, 147.812 38.793, 142.281 52.750 C 141.971 53.533, 142.667 54.010, 144.143 54.027 C 146.343 54.052, 146.241 54.295, 142.611 57.668 C 139.588 60.477, 137.538 64.144, 133.405 74.141 L 128.087 87 144.127 87 C 165.495 87, 165.136 88.544, 142.917 92.206 C 133.888 93.694, 126.147 94.932, 125.714 94.956 C 124.942 94.999, 121 103.384, 121 104.983 C 121 105.433, 123.250 106.340, 126 107 C 133.010 108.682, 132.356 110.452, 123.965 112.509 C 116.259 114.397, 117.028 113.523, 111.983 126.119 L 110.133 130.738 120.724 132.860 C 126.550 134.028, 131.491 135.157, 131.704 135.371 C 131.917 135.584, 131.133 146.650, 129.962 159.962 C 128.791 173.274, 128.025 184.359, 128.260 184.594 C 128.496 184.829, 138.429 173.049, 150.335 158.416 L 171.981 131.810 167.448 125.655 C 160.033 115.587, 160.207 117.283, 164.382 95.727 C 166.431 85.152, 168.171 75.588, 168.249 74.473 C 168.441 71.753, 155.873 23, 154.980 23 C 154.594 23, 153.292 25.576, 152.087 28.725 M 139 25.509 C 134.325 26.200, 129.375 26.946, 128 27.166 C 126.225 27.449, 128.512 28.519, 135.880 30.852 C 141.590 32.660, 146.584 33.770, 146.980 33.320 C 147.376 32.869, 148.438 30.587, 149.342 28.250 C 151.255 23.298, 152.223 23.555, 139 25.509 M 102.500 30.556 C 97.550 31.306, 91.588 32.190, 89.250 32.521 L 85 33.123 85 37.561 C 85 40.003, 85.338 41.983, 85.750 41.962 C 86.162 41.941, 97.075 40.864, 110 39.569 C 122.925 38.273, 133.654 37.357, 133.842 37.532 C 134.031 37.708, 133.865 41.260, 133.475 45.426 C 132.945 51.081, 132.395 53, 131.303 53 C 130.098 53, 129.964 51.850, 130.542 46.450 C 131.240 39.936, 131.231 39.903, 128.872 40.411 C 127.567 40.692, 118.175 41.638, 108 42.514 C 83.035 44.663, 85 44.008, 85 50.175 L 85 55.311 99.250 54.659 C 107.088 54.301, 119.187 54.006, 126.138 54.004 L 138.775 54 141.893 46.250 C 143.608 41.987, 145.008 38.033, 145.005 37.461 C 144.998 35.961, 120.240 28.918, 115.500 29.068 C 113.300 29.137, 107.450 29.807, 102.500 30.556 M 72.409 34.943 C 69.490 35.641, 53.741 44.074, 54.305 44.638 C 54.616 44.950, 74.054 43.199, 78.750 42.437 C 81.780 41.945, 82 41.641, 82 37.955 C 82 34.139, 81.886 34.004, 78.750 34.102 C 76.963 34.159, 74.109 34.537, 72.409 34.943 M 65.187 46.517 C 58.416 47.218, 52.645 48.022, 52.364 48.303 C 52.083 48.584, 52.572 50.206, 53.452 51.907 L 55.051 55 68.526 55 L 82 55 82 50 C 82 44.207, 83.831 44.586, 65.187 46.517 M 87.640 57.727 C 85.043 58.115, 84.837 58.434, 85.390 61.202 C 85.726 62.878, 86 69.381, 86 75.653 L 86 87.056 99.652 86.778 L 113.304 86.500 115.745 77.500 C 117.087 72.550, 118.377 68.305, 118.610 68.067 C 118.843 67.828, 119.566 68.166, 120.217 68.817 C 120.868 69.467, 121.959 70, 122.643 70 C 124.181 70, 137 59.229, 137 57.937 C 137 57.020, 93.611 56.835, 87.640 57.727 M 32.683 87.054 L 21.194 116.108 29.738 134.953 L 38.282 153.798 48.222 157.484 C 53.689 159.512, 58.388 160.946, 58.664 160.670 C 58.939 160.394, 60.042 141.700, 61.114 119.129 L 63.063 78.090 58.023 68.045 L 52.982 58 48.577 58 L 44.172 58 32.683 87.054 M 128.254 69.729 C 123.989 73.407, 122.738 74.028, 121.563 73.052 C 120.357 72.051, 119.933 72.570, 119.010 76.176 C 118.401 78.554, 117.474 81.805, 116.951 83.399 C 116.428 84.994, 116 86.481, 116 86.704 C 116 86.927, 118.098 86.972, 120.661 86.805 L 125.322 86.500 129.627 76.049 C 131.994 70.301, 133.834 65.509, 133.715 65.402 C 133.597 65.294, 131.139 67.242, 128.254 69.729 M 114.583 91.643 C 113.728 93.872, 113.928 93.953, 118.710 93.312 C 124.646 92.516, 125.304 90, 119.576 90 C 116.452 90, 115.035 90.466, 114.583 91.643 M 126.507 90.988 C 126.118 91.618, 127.637 91.748, 130.698 91.347 C 137.024 90.519, 137.419 90, 131.726 90 C 129.191 90, 126.843 90.445, 126.507 90.988 M 114.904 96.660 C 114.027 96.895, 112.843 98.604, 112.274 100.458 C 111.342 103.496, 111.450 103.886, 113.370 104.401 C 117.146 105.414, 117.756 105.068, 119.391 100.980 C 120.276 98.769, 121 96.744, 121 96.480 C 121 95.924, 117.236 96.035, 114.904 96.660 M 99.739 98.959 C 94.073 100.058, 94.386 100.541, 101.625 101.875 C 105.263 102.545, 108.355 102.960, 108.496 102.797 C 108.636 102.634, 109.063 101.487, 109.443 100.250 C 110.068 98.217, 109.815 98.011, 106.817 98.115 C 104.993 98.178, 101.808 98.558, 99.739 98.959 M 109.560 109.618 C 108.745 112.864, 109.247 113.406, 112.343 112.629 C 116.753 111.522, 116.919 107, 112.549 107 C 110.867 107, 110.034 107.730, 109.560 109.618 M 118.500 110 C 117.762 111.194, 119.722 111.194, 122.500 110 C 124.286 109.233, 124.212 109.133, 121.809 109.070 C 120.329 109.032, 118.840 109.450, 118.500 110 M 110.096 115.935 C 108.143 116.431, 107.353 117.759, 105.881 123.022 C 104.885 126.585, 104.054 129.613, 104.035 129.750 C 104.016 129.887, 104.787 129.999, 105.750 129.997 C 106.976 129.994, 108.363 127.889, 110.383 122.963 C 111.969 119.097, 113.094 115.796, 112.883 115.629 C 112.672 115.462, 111.418 115.600, 110.096 115.935 M 88.500 121.291 L 76.500 124.392 88 126.633 C 102.553 129.468, 101.650 129.501, 102.327 126.117 C 102.644 124.531, 103.199 122.056, 103.560 120.617 C 104.397 117.281, 103.940 117.301, 88.500 121.291 M 101.119 140.232 C 99.932 144.666, 99.116 148.450, 99.306 148.640 C 99.583 148.916, 102.344 142.727, 105.669 134.379 C 105.914 133.763, 105.476 133.013, 104.696 132.714 C 103.636 132.307, 102.731 134.209, 101.119 140.232" stroke="none" fill="black" fill-rule="evenodd"/>
</svg>