<svg xmlns="http://www.w3.org/2000/svg" width="200" height="200" viewBox="0 0 200 200" version="1.1">
	<path d="M 93.028 21.671 C 85.128 28.891, 82.347 30.905, 81.707 29.871 C 81.241 29.117, 79.387 26.101, 77.587 23.168 L 74.315 17.836 66.581 34.949 C 59.711 50.152, 58.270 52.589, 53.674 56.781 C 50.828 59.376, 47.068 62.962, 45.317 64.750 C 43.567 66.537, 41.425 68, 40.559 68 C 39.249 68, 39.188 68.328, 40.195 69.941 C 41.224 71.588, 40.502 74.134, 35.454 86.685 C 32.179 94.826, 25.361 109.915, 20.301 120.216 C 14.850 131.316, 11.516 139.201, 12.118 139.573 C 12.676 139.918, 13.278 140.043, 13.454 139.850 C 15.002 138.162, 31.922 102.425, 36.547 91.075 L 42.426 76.651 44.024 82.075 C 44.902 85.059, 47.134 93.454, 48.982 100.730 L 52.342 113.961 41.696 129.937 C 35.272 139.579, 31.472 146.174, 32.113 146.570 C 32.696 146.930, 33.528 146.837, 33.960 146.363 C 36.391 143.692, 54.996 114.840, 54.974 113.774 C 54.960 113.073, 52.563 103.400, 49.648 92.277 C 46.734 81.154, 44.608 71.643, 44.924 71.140 C 45.241 70.637, 55.114 70.054, 66.865 69.845 L 88.230 69.463 87.615 77.482 C 87.277 81.892, 86.712 95.088, 86.359 106.806 L 85.717 128.111 72.858 142.002 C 59.157 156.803, 57.849 159.363, 61.750 163.743 C 62.713 164.823, 69.876 169.620, 77.669 174.403 L 91.839 183.098 114.865 182.397 L 137.891 181.695 146.451 168.846 L 155.011 155.997 151.381 141.498 C 149.385 133.524, 147.465 127, 147.113 127 C 146.762 127, 139.736 133.750, 131.500 142 C 123.264 150.250, 115.954 157, 115.257 157 C 114.559 157, 108.377 153.288, 101.519 148.750 L 89.050 140.500 89.025 134.493 L 89 128.486 109.131 106.493 C 120.204 94.397, 131.858 81.720, 135.030 78.322 L 140.798 72.143 144.066 78.275 C 146.791 83.388, 148.026 88.154, 151.493 106.954 L 155.652 129.500 171.256 129.487 C 179.838 129.480, 187.123 129.210, 187.445 128.889 C 187.766 128.567, 185.659 118.496, 182.762 106.509 L 177.494 84.714 159.997 76.442 C 150.374 71.892, 141.956 67.682, 141.292 67.085 C 140.522 66.393, 133.464 65.982, 121.792 65.951 L 103.500 65.902 118 60.020 C 125.975 56.785, 132.408 53.720, 132.296 53.208 C 131.797 50.930, 105.625 12.005, 104.622 12.050 C 104.005 12.077, 98.787 16.406, 93.028 21.671 M 94.500 24.118 C 89 29.026, 84.645 33.594, 84.821 34.271 C 85.215 35.777, 102.045 63, 102.583 63 C 103.017 63, 128.393 52.925, 128.695 52.632 C 128.802 52.529, 123.402 44.063, 116.695 33.819 L 104.500 15.195 94.500 24.118 M 69.297 35.502 C 63.563 48.408, 63.542 48.399, 74.910 38.115 L 80.319 33.221 77.618 28.610 C 76.132 26.075, 74.801 24, 74.661 24 C 74.521 24, 72.107 29.176, 69.297 35.502 M 70.774 45.250 L 60.588 54.500 76.044 56 L 91.500 57.500 91.808 62.335 C 92.054 66.183, 92.427 67.050, 93.640 66.585 C 94.478 66.263, 96.444 66, 98.008 66 C 100.852 66, 100.851 65.997, 91.676 51.037 C 86.629 42.807, 82.153 36.057, 81.730 36.037 C 81.306 36.017, 76.376 40.163, 70.774 45.250 M 52 62 L 46.500 66.936 67.750 66.968 L 89 67 89 63.500 C 89 61.575, 88.662 59.991, 88.250 59.979 C 87.838 59.968, 81.200 59.306, 73.500 58.509 C 65.800 57.712, 59.050 57.060, 58.500 57.061 C 57.950 57.063, 55.025 59.285, 52 62 M 111.381 68.748 L 91.262 69.041 90.058 84.770 C 89.395 93.422, 88.999 105.767, 89.177 112.205 L 89.500 123.909 114.300 96.940 C 127.940 82.107, 138.826 69.527, 138.491 68.985 C 138.156 68.443, 136.446 68.103, 134.691 68.228 C 132.936 68.354, 122.446 68.588, 111.381 68.748 M 146.864 77.608 C 149.293 82.174, 150.672 87.214, 152.993 100 C 154.640 109.075, 156.473 118.862, 157.065 121.750 L 158.142 127 171.638 127 C 184.026 127, 185.091 126.856, 184.607 125.250 C 184.317 124.287, 182.002 115.147, 179.463 104.939 L 174.846 86.378 160.173 79.507 C 152.103 75.728, 145.102 72.429, 144.616 72.176 C 144.129 71.923, 145.141 74.367, 146.864 77.608 M 74.500 144.217 C 59.469 160.660, 59.367 159.750, 77.500 171.098 L 91.500 179.859 99.091 179.929 C 103.266 179.968, 113.410 179.709, 121.634 179.353 L 136.586 178.706 144.260 167.103 L 151.933 155.500 149.908 147.500 C 148.795 143.100, 147.424 137.744, 146.862 135.598 L 145.841 131.696 136.171 141.107 C 130.852 146.283, 123.955 152.931, 120.845 155.881 L 115.190 161.244 100.651 151.372 L 86.112 141.500 85.806 136.842 L 85.500 132.185 74.500 144.217" stroke="none" fill="black" fill-rule="evenodd"/>
</svg>