<svg xmlns="http://www.w3.org/2000/svg" width="200" height="200" viewBox="0 0 200 200" version="1.1">
	<path d="M 34.446 31.109 C 26.437 47.119, 20.034 60.368, 20.218 60.551 C 20.401 60.735, 28.586 57.536, 38.405 53.442 C 48.225 49.349, 56.432 46, 56.643 46 C 58.120 46, 51.834 56.025, 36.137 78.698 C 26.162 93.107, 18 105.439, 18 106.102 C 18 109.629, 30.600 142.595, 40.193 164.166 C 48.278 182.348, 51.551 188.726, 52.589 188.327 C 53.365 188.030, 54 186.677, 54 185.320 C 54 183.964, 55.146 166.350, 56.547 146.177 C 59.089 109.586, 59.104 109.467, 63.170 95.500 C 65.411 87.800, 67.473 81.275, 67.752 81 C 68.031 80.725, 68.088 97.979, 67.880 119.342 L 67.500 158.184 80.500 163.116 L 93.500 168.048 125.499 170.100 L 157.498 172.153 169.126 159.826 L 180.755 147.500 181.490 110.789 L 182.225 74.078 177.393 48.039 C 174.735 33.718, 172.097 22.021, 171.530 22.048 C 170.964 22.074, 154.750 24.490, 135.500 27.416 C 105.165 32.028, 100.384 32.539, 99.633 31.249 C 98.958 30.089, 98.594 30.039, 97.987 31.022 C 97.387 31.991, 91.341 30.770, 71.854 25.746 C 57.909 22.150, 46.345 19.355, 46.155 19.533 C 45.965 19.711, 56.315 31.417, 69.155 45.545 C 84.250 62.156, 92.616 72.124, 92.830 73.753 C 93.011 75.139, 92.681 79.826, 92.097 84.168 C 91.155 91.169, 91.486 96.100, 95.023 127.704 C 97.217 147.306, 99.125 163.459, 99.264 163.598 C 99.604 163.938, 162.186 155.147, 162.637 154.696 C 162.832 154.501, 160.520 135.702, 157.499 112.921 C 154.478 90.139, 152.004 70.938, 152.003 70.250 C 151.998 67.956, 149.002 68.930, 148.927 71.250 C 148.888 72.487, 148.080 84.525, 147.132 98 L 145.410 122.500 132.629 97.106 C 122.709 77.395, 120.145 71.511, 121.174 70.812 C 121.903 70.317, 126.888 67.678, 132.250 64.947 C 137.613 62.216, 141.985 59.423, 141.968 58.741 C 141.950 58.058, 140.675 53, 139.134 47.500 L 136.332 37.500 119.166 37.226 C 108.852 37.062, 102 36.563, 102 35.976 C 102 35.439, 102.563 34.987, 103.250 34.972 C 103.938 34.956, 119.125 32.735, 137 30.037 C 154.875 27.338, 169.763 25.438, 170.084 25.815 C 170.405 26.192, 172.589 36.933, 174.937 49.685 L 179.206 72.870 178.853 109.300 L 178.500 145.729 167.524 157.498 L 156.547 169.267 147.524 168.669 C 142.561 168.340, 128.750 167.530, 116.834 166.870 L 95.167 165.668 82.834 161.049 L 70.500 156.430 70.835 112.715 C 71.130 74.152, 70.991 69, 69.652 69 C 68.818 69, 67.904 69.787, 67.621 70.750 C 67.339 71.713, 64.655 80.825, 61.656 91 L 56.205 109.500 54.005 144 C 52.795 162.975, 51.596 179.171, 51.341 179.992 C 50.299 183.343, 21 112.372, 21 106.497 C 21 105.880, 29.288 93.378, 39.417 78.714 C 52.089 60.369, 58.294 50.485, 59.307 47.027 C 60.120 44.254, 60.358 42, 59.838 42 C 59.320 42, 51.692 44.973, 42.888 48.607 C 34.085 52.242, 26.657 54.990, 26.383 54.716 C 26.108 54.442, 31.535 42.922, 38.442 29.116 C 45.349 15.311, 51 3.562, 51 3.008 C 51 -0.846, 47.222 5.567, 34.446 31.109 M 54.999 25.563 C 58.509 30.100, 93.300 68.033, 93.640 67.693 C 94.047 67.287, 96.979 44.592, 96.992 41.750 C 96.999 40.249, 96.003 40, 90 40 C 84.444 40, 83 39.690, 83 38.500 C 83 37.300, 84.500 37, 90.500 37 C 94.625 37, 98 36.622, 98 36.159 C 98 35.696, 88.662 32.922, 77.250 29.994 C 65.838 27.066, 55.825 24.436, 55 24.148 C 53.667 23.684, 53.667 23.841, 54.999 25.563 M 99.943 41.250 C 99.911 41.938, 99.092 49.131, 98.122 57.235 L 96.358 71.969 99.183 74.676 L 102.008 77.382 109.004 73.998 C 112.852 72.137, 116 70.470, 116 70.294 C 116 69.454, 100.924 40, 100.494 40 C 100.222 40, 99.974 40.563, 99.943 41.250 M 111.182 54.387 L 118.382 68.827 128.441 63.799 C 133.973 61.033, 138.639 58.645, 138.809 58.493 C 138.979 58.340, 138.035 54.229, 136.711 49.357 L 134.304 40.500 119.143 40.224 L 103.983 39.948 111.182 54.387 M 110.500 76.168 C 107.200 77.857, 104.347 79.376, 104.159 79.543 C 103.809 79.856, 140.010 120, 140.643 120 C 140.836 120, 135.713 109.425, 129.257 96.500 C 122.802 83.575, 117.290 73.022, 117.010 73.048 C 116.729 73.075, 113.800 74.478, 110.500 76.168 M 95.692 78.223 C 93.768 86.366, 94.211 96.997, 97.770 128 C 100.848 154.816, 101.762 160.474, 103 160.353 C 103.825 160.272, 117.023 158.482, 132.329 156.374 L 160.158 152.542 159.679 150.021 C 159.416 148.635, 157.492 134.338, 155.405 118.250 C 153.318 102.162, 151.332 89, 150.991 89 C 150.650 89, 149.804 98.098, 149.110 109.218 C 148.416 120.338, 147.637 129.778, 147.378 130.197 C 147.119 130.616, 146.141 130.495, 145.204 129.928 C 143.855 129.112, 140.097 130.696, 127.169 137.534 C 118.187 142.284, 110.589 145.923, 110.286 145.620 C 109.983 145.316, 106.813 130.795, 103.242 113.349 C 98.282 89.118, 97.005 81.222, 97.830 79.901 C 98.636 78.610, 98.570 77.888, 97.570 77.058 C 96.528 76.194, 96.111 76.453, 95.692 78.223 M 100 81.708 C 100 83.508, 111.745 141.078, 112.206 141.540 C 112.609 141.942, 140.574 127.760, 141.805 126.528 C 142.269 126.064, 102.221 81.675, 100.880 81.167 C 100.396 80.983, 100 81.227, 100 81.708" stroke="none" fill="black" fill-rule="evenodd"/>
</svg>