<svg xmlns="http://www.w3.org/2000/svg" width="200" height="200" viewBox="0 0 200 200" version="1.1">
	<path d="M 54 27.409 C 33.925 35.286, 17.627 42.129, 17.783 42.616 C 17.939 43.102, 16.448 43.725, 14.470 44 L 10.874 44.500 21.055 59.250 C 26.655 67.362, 31.521 73.998, 31.868 73.997 C 32.216 73.995, 35.875 70.915, 40 67.153 C 44.125 63.391, 51.052 58.366, 55.393 55.987 L 63.287 51.662 67.393 56.083 C 69.652 58.515, 74.425 63.780, 78 67.783 L 84.500 75.062 90.309 65.568 C 98.505 52.176, 98.405 52.262, 105.144 52.758 L 110.789 53.173 112.925 58.756 C 114.100 61.826, 114.710 64.665, 114.281 65.065 C 113.658 65.644, 86.574 75.287, 56.250 85.725 C 53.913 86.530, 52 87.821, 52 88.594 C 52 89.367, 52.250 90, 52.555 90 C 54.826 90, 102.929 98.284, 104.500 98.946 C 109.698 101.135, 100.590 101.116, 66.432 98.867 C 34.260 96.747, 30 96.644, 29.999 97.983 C 29.999 98.818, 31.184 105.442, 32.633 112.705 L 35.267 125.911 32.556 141.205 C 31.066 149.617, 29.654 157.198, 29.419 158.050 C 29.108 159.179, 34.218 162.576, 48.226 170.550 C 58.805 176.573, 67.839 181.500, 68.303 181.500 C 68.766 181.500, 73.595 170.981, 79.033 158.123 C 84.471 145.266, 89.050 134.639, 89.210 134.508 C 89.369 134.377, 91.354 133.115, 93.619 131.705 C 97.463 129.311, 98.040 128.316, 102.251 116.820 L 106.764 104.500 113.132 104.775 C 116.634 104.926, 122.033 105.302, 125.129 105.609 L 130.758 106.168 136.315 120.677 L 141.871 135.186 118.423 163.304 C 97.329 188.598, 93.436 193.990, 96.779 193.282 C 97.344 193.162, 116.552 180.674, 139.462 165.531 C 168.562 146.296, 180.885 137.622, 180.349 136.749 C 179.926 136.062, 174.239 128.750, 167.710 120.500 C 154.727 104.094, 155.149 104.381, 143.500 104.019 C 135.716 103.776, 130.528 102.638, 133 101.715 C 133.825 101.407, 139 100.864, 144.500 100.509 C 150 100.153, 154.826 99.544, 155.224 99.156 C 156.801 97.621, 175.925 55.688, 175.421 54.872 C 175.124 54.392, 171.534 54, 167.441 54 C 163.348 54, 160 53.745, 160 53.434 C 160 53.123, 160.489 51.956, 161.086 50.840 C 162.065 49.010, 161.943 48.881, 159.836 49.525 C 158.551 49.918, 156.037 50.838, 154.250 51.569 C 152.462 52.300, 151 52.710, 151 52.481 C 151 52.252, 159.882 46.102, 170.737 38.816 C 189.653 26.118, 190.349 25.535, 187.487 24.800 C 183.909 23.882, 96.135 12.981, 92.816 13.043 C 91.542 13.067, 74.075 19.532, 54 27.409 M 56 29.583 C 26.439 41.181, 17.554 45, 20.130 45 C 20.421 45, 39.951 42.764, 63.528 40.032 C 87.106 37.299, 106.473 35.161, 106.566 35.282 C 106.660 35.402, 107.359 36.715, 108.120 38.200 L 109.504 40.900 128.450 31.918 C 138.871 26.978, 147.517 22.816, 147.664 22.669 C 148.078 22.255, 96.882 15.954, 93.500 16.004 C 91.850 16.028, 74.975 22.138, 56 29.583 M 141.441 36.641 C 137.073 44.143, 133.364 50.627, 133.197 51.049 C 133.031 51.472, 135.731 51.982, 139.197 52.184 L 145.500 52.551 164.326 39.835 C 182.559 27.520, 183.048 27.102, 179.826 26.575 C 173.030 25.462, 153.509 23, 151.481 23 C 149.840 23, 147.651 25.974, 141.441 36.641 M 127 35.541 C 118.475 39.607, 111.141 43.068, 110.703 43.233 C 110.265 43.397, 110.608 45.212, 111.467 47.266 L 113.027 51 120.513 51 C 124.631 51, 128.327 51.112, 128.726 51.250 C 129.440 51.496, 133.572 45.053, 139.948 33.750 C 141.731 30.587, 143.035 28.033, 142.845 28.074 C 142.655 28.115, 135.525 31.475, 127 35.541 M 70.793 41.816 C 53.904 43.798, 40.184 45.518, 40.304 45.637 C 40.424 45.757, 53.236 46.653, 68.776 47.628 L 97.031 49.400 98.476 47.338 C 99.270 46.204, 101.311 44.700, 103.011 43.995 C 105.287 43.053, 106.022 42.160, 105.801 40.608 C 105.619 39.331, 104.712 38.443, 103.500 38.356 C 102.400 38.277, 87.682 39.834, 70.793 41.816 M 103 47.254 L 99.500 49.500 103.854 49.813 C 108.912 50.176, 109.415 49.881, 108.524 47.075 C 107.700 44.478, 107.305 44.491, 103 47.254 M 23.619 58.328 C 27.953 64.703, 31.829 69.936, 32.230 69.959 C 32.632 69.982, 35.967 67.275, 39.642 63.944 C 43.318 60.614, 49.450 56.163, 53.271 54.053 L 60.217 50.217 55.358 49.648 C 52.686 49.335, 45.550 48.822, 39.500 48.509 C 33.450 48.195, 25.628 47.669, 22.119 47.339 L 15.737 46.739 23.619 58.328 M 71.104 56.050 C 74.072 59.436, 78.142 64.073, 80.149 66.353 C 82.156 68.634, 84.009 70.275, 84.267 70 C 84.952 69.269, 95 52.900, 95 52.514 C 95 52.334, 90.612 51.910, 85.250 51.572 C 79.888 51.233, 73.297 50.717, 70.604 50.425 L 65.709 49.893 71.104 56.050 M 114.506 55.104 C 115.725 59.086, 117.867 64, 118.384 64 C 120.777 64, 123.898 61.530, 125.814 58.119 L 128.128 54 123.314 53.986 C 120.666 53.979, 117.436 53.688, 116.136 53.340 C 114.013 52.772, 113.847 52.951, 114.506 55.104 M 129.396 57.200 C 128.628 58.686, 128 60.091, 128 60.324 C 128 60.860, 139.674 56.659, 140.511 55.822 C 140.852 55.481, 138.805 55.044, 135.962 54.851 C 131.196 54.527, 130.684 54.711, 129.396 57.200 M 144.500 57.710 C 141.562 58.889, 127.219 67.985, 121.293 72.425 C 120.767 72.820, 128.409 92, 129.093 92 C 129.703 92, 150.179 62.707, 153.384 57.250 C 154.436 55.459, 149.462 55.717, 144.500 57.710 M 144 75.894 C 136.575 86.824, 130.500 96.382, 130.500 97.134 C 130.500 98.191, 132.193 98.439, 138 98.229 C 142.125 98.080, 147.354 97.723, 149.619 97.437 L 153.738 96.917 162.869 77.292 C 167.892 66.498, 171.888 57.576, 171.750 57.464 C 171.613 57.352, 168.350 56.981, 164.500 56.640 L 157.500 56.020 144 75.894 M 126.835 63.673 C 125.919 63.915, 124.917 64.774, 124.608 65.580 C 124.169 66.723, 124.426 66.828, 125.773 66.057 C 130.655 63.260, 130.957 62.581, 126.835 63.673 M 86.500 78.008 C 71.100 83.448, 58.725 87.970, 59 88.058 C 59.275 88.146, 70.525 90.104, 84 92.409 L 108.500 96.601 108.236 99.149 C 107.972 101.693, 107.991 101.699, 118.138 102.364 C 123.729 102.730, 128.535 102.798, 128.818 102.515 C 129.102 102.232, 127.878 102, 126.099 102 L 122.864 102 124.952 99.067 L 127.041 96.134 121.770 82.075 C 118.872 74.343, 116.050 68.039, 115.500 68.067 C 114.950 68.095, 101.900 72.569, 86.500 78.008 M 33 99.935 C 33 100.345, 34.139 106.304, 35.531 113.177 L 38.063 125.673 35.187 141.586 C 33.606 150.339, 32.456 157.777, 32.632 158.116 C 33.138 159.089, 67.088 178.246, 67.527 177.806 C 67.745 177.589, 72.169 167.356, 77.360 155.067 C 86.588 133.222, 86.898 132.662, 91.235 129.962 C 95.444 127.342, 95.879 126.619, 99.721 115.850 C 101.948 109.608, 103.697 104.412, 103.608 104.306 C 103.518 104.199, 89.282 103.188, 71.972 102.059 C 54.662 100.931, 38.813 99.824, 36.750 99.599 C 34.688 99.374, 33 99.526, 33 99.935 M 134 106.220 C 134 106.490, 136.433 113.189, 139.407 121.106 C 143.682 132.485, 144.572 135.813, 143.657 136.993 C 143.021 137.814, 133.555 149.231, 122.622 162.364 C 111.689 175.497, 103.432 185.851, 104.273 185.371 C 111.515 181.244, 176.927 137.318, 176.731 136.714 C 176.591 136.282, 171.307 129.422, 164.988 121.470 L 153.500 107.012 148.390 107.006 C 145.579 107.003, 141.191 106.714, 138.640 106.364 C 136.088 106.014, 134 105.949, 134 106.220" stroke="none" fill="black" fill-rule="evenodd"/>
</svg>