<svg xmlns="http://www.w3.org/2000/svg" width="200" height="200" viewBox="0 0 200 200" version="1.1">
	<path d="M 37.180 27.465 C 31.581 37.621, 27 46.171, 27 46.465 C 27 46.759, 27.578 47, 28.285 47 C 28.991 47, 33.761 39.350, 38.883 30 C 44.006 20.650, 48.456 13, 48.773 13 C 49.474 13, 67.908 27.043, 68.532 28.052 C 68.776 28.447, 55.594 38.787, 39.238 51.030 C 22.882 63.273, 9.305 73.458, 9.067 73.662 C 8.828 73.866, 9.083 74.483, 9.633 75.033 C 10.299 75.699, 20.852 68.364, 41.265 53.047 L 71.898 30.061 76.922 34.033 L 81.947 38.005 78.381 45.752 C 76.419 50.014, 74.619 53.950, 74.380 54.500 C 74.141 55.050, 62.708 62.614, 48.973 71.309 C 26.179 85.738, 24 87.359, 24 89.881 C 24 91.401, 24.711 99.790, 25.581 108.523 C 27.005 122.824, 28.052 127.637, 36.124 156.951 C 41.054 174.853, 45.323 190.287, 45.611 191.250 C 45.899 192.213, 46.692 193, 47.374 193 C 48.214 193, 50.782 181.181, 55.357 156.250 C 60.701 127.129, 62.501 114.725, 64.027 96.500 C 65.086 83.850, 65.964 72.157, 65.976 70.515 C 65.999 67.698, 66.706 68.231, 78.570 80.015 C 85.483 86.882, 92.498 94.190, 94.158 96.256 L 97.177 100.011 84.047 127.131 C 76.825 142.046, 71.048 154.360, 71.208 154.495 C 71.369 154.629, 79.938 153.761, 90.250 152.565 C 100.563 151.370, 109 150.521, 109 150.679 C 109 150.837, 99.662 158.448, 88.250 167.592 C 76.838 176.736, 67.500 184.731, 67.500 185.359 C 67.500 186.925, 68.128 186.829, 106 179.518 C 124.425 175.961, 148.275 171.912, 159 170.520 C 169.725 169.129, 179.527 167.755, 180.782 167.468 C 182.912 166.981, 182.243 165.730, 170.686 148.598 L 158.308 130.250 168.560 101.375 C 174.199 85.494, 178.517 72.200, 178.156 71.832 C 177.795 71.465, 167.488 66.785, 155.250 61.433 C 143.012 56.080, 133 51.331, 133 50.879 C 133 50.157, 162.649 35.258, 167.250 33.668 C 168.212 33.335, 169 32.445, 169 31.691 C 169 30.570, 163.018 30.192, 136.366 29.627 C 118.417 29.246, 103.519 29.148, 103.258 29.409 C 102.997 29.670, 103.921 35.196, 105.310 41.690 C 106.700 48.183, 107.736 53.598, 107.612 53.722 C 107.183 54.150, 86.526 38.079, 86.183 37.049 C 85.994 36.481, 88.420 30.368, 91.575 23.464 C 94.993 15.987, 96.946 10.549, 96.406 10.015 C 95.869 9.482, 90.699 12.718, 83.699 17.969 L 71.898 26.821 60.199 17.922 C 53.764 13.027, 48.243 9.017, 47.930 9.011 C 47.616 9.005, 42.779 17.309, 37.180 27.465 M 83.032 21.677 C 78.375 25.211, 74.438 28.228, 74.284 28.383 C 74.130 28.537, 76.055 30.137, 78.563 31.938 C 81.070 33.738, 83.233 35.052, 83.369 34.856 C 84.227 33.623, 92.024 15.698, 91.789 15.498 C 91.630 15.362, 87.689 18.142, 83.032 21.677 M 106.244 33.250 C 106.496 33.938, 107.740 39.556, 109.010 45.735 L 111.317 56.970 123.241 66.102 C 131.074 72.102, 134.827 75.573, 134.179 76.221 C 133.532 76.868, 131.359 75.862, 127.847 73.288 C 119.740 67.348, 119.770 67.348, 122.095 73.184 C 130.598 94.532, 130.713 94.968, 130.892 106.500 C 131.181 125.221, 129.954 143, 128.372 143 C 127.617 143, 126.998 142.662, 126.996 142.250 C 126.982 139.963, 108.838 58.458, 108.229 57.951 C 103.606 54.101, 85.861 40.979, 84.997 40.772 C 84.371 40.623, 82.137 44.275, 80.031 48.888 C 76.745 56.089, 75.552 57.681, 71.601 60.140 C 69.071 61.715, 67 63.267, 67 63.589 C 67 63.911, 74.425 71.881, 83.500 81.300 C 92.575 90.719, 100 98.897, 100 99.474 C 100 100.052, 94.580 111.711, 87.956 125.384 C 81.331 139.058, 76.152 150.485, 76.445 150.778 C 76.739 151.072, 85.421 150.337, 95.739 149.145 C 106.058 147.953, 115.347 146.983, 116.383 146.989 C 117.473 146.995, 108.955 154.440, 96.144 164.678 C 83.977 174.400, 74.154 182.487, 74.315 182.649 C 74.477 182.810, 88.309 180.237, 105.054 176.932 C 121.799 173.626, 144.869 169.632, 156.320 168.057 C 167.771 166.482, 177.319 165.014, 177.538 164.795 C 177.758 164.576, 172.842 156.762, 166.616 147.432 L 155.294 130.467 165.182 102.589 C 170.621 87.256, 174.930 74.291, 174.760 73.779 C 174.514 73.043, 140.551 57.521, 129.012 52.871 L 126.523 51.868 129.012 49.938 C 130.380 48.877, 138.127 44.700, 146.228 40.657 L 160.955 33.305 148.821 32.652 C 127.650 31.514, 105.721 31.822, 106.244 33.250 M 113 62.814 C 113 64.591, 127.093 129.415, 127.588 129.917 C 127.815 130.146, 128 122.593, 128 113.132 L 128 95.931 121.937 80.216 C 116.459 66.015, 113 59.281, 113 62.814 M 45.500 76.644 C 24.501 89.943, 26.144 86.832, 28.374 109.087 C 29.635 121.673, 30.977 127.815, 38.154 153.837 C 42.729 170.427, 46.721 184, 47.026 184 C 47.330 184, 50.215 169.488, 53.438 151.750 C 58.171 125.692, 59.729 114.316, 61.550 92.500 C 62.790 77.650, 63.736 65.442, 63.652 65.372 C 63.569 65.302, 55.400 70.374, 45.500 76.644" stroke="none" fill="black" fill-rule="evenodd"/>
</svg>