<svg xmlns="http://www.w3.org/2000/svg" width="200" height="200" viewBox="0 0 200 200" version="1.1">
	<path d="M 41.529 35.932 L 31.714 58.916 37.607 87.542 C 40.848 103.287, 43.789 116.641, 44.142 117.219 C 44.577 117.930, 47.094 117.702, 51.939 116.515 C 55.875 115.550, 59.302 114.969, 59.555 115.222 C 59.809 115.476, 47.409 126.176, 32 139 C 16.591 151.824, 4.100 162.401, 4.242 162.504 C 4.384 162.607, 14.671 161.733, 27.102 160.562 L 49.703 158.433 77.102 175.691 C 92.171 185.182, 104.848 192.960, 105.273 192.974 C 105.699 192.988, 117.300 184.675, 131.053 174.500 C 144.807 164.325, 156.231 156, 156.441 156 C 156.650 156, 158.765 159.150, 161.141 163 C 163.516 166.850, 165.694 170, 165.980 170 C 166.484 169.999, 180.058 131.169, 180.019 129.838 C 180.009 129.474, 172.012 127.297, 162.250 124.999 C 152.487 122.702, 142.816 120.396, 140.757 119.875 C 137.755 119.114, 136.324 117.847, 133.520 113.463 C 131.452 110.232, 129.305 108.001, 128.262 108.001 C 127.293 108.002, 122.675 108.677, 118 109.500 C 105.065 111.778, 102.346 111.569, 100.582 108.158 L 99.112 105.316 106.268 103.780 C 113.204 102.291, 114.223 102.347, 139.462 105.619 C 153.783 107.476, 166.063 108.996, 166.750 108.997 C 167.725 108.999, 167.970 102.557, 167.864 79.750 C 167.790 63.663, 167.452 45.152, 167.114 38.616 L 166.500 26.732 138.154 50.366 L 109.808 74 103.782 74 C 98.188 74, 97.853 73.874, 99.122 72.250 C 112.208 55.499, 113.315 54.526, 128.987 45.974 C 137.258 41.461, 144.252 37.402, 144.529 36.953 C 144.806 36.505, 144.573 35.854, 144.012 35.507 C 143.253 35.038, 95.197 47.230, 72.500 53.650 C 71.400 53.961, 75 50.847, 80.500 46.731 L 90.500 39.246 115.781 34.413 C 129.685 31.755, 141.556 29.275, 142.159 28.902 C 145.461 26.861, 139.539 26.608, 113.346 27.670 C 97.481 28.313, 81.688 28.876, 78.250 28.920 C 73.253 28.984, 72 29.317, 72 30.580 C 72 31.974, 73.631 32.090, 85.750 31.563 C 93.313 31.233, 104.450 30.777, 110.500 30.547 L 121.500 30.131 105.301 33.420 L 89.102 36.709 76.107 46.420 C 67.911 52.545, 63.302 56.624, 63.625 57.466 C 64.025 58.508, 64.946 58.577, 67.819 57.782 C 87.595 52.306, 130.505 41.172, 130.779 41.445 C 130.971 41.637, 126.856 44.104, 121.634 46.927 C 112.781 51.714, 111.511 52.817, 102.795 63.280 L 93.450 74.500 73.975 75.341 C 56.325 76.103, 51.514 76.848, 53.219 78.552 C 53.541 78.874, 61.386 80.651, 70.652 82.500 L 87.500 85.862 91.500 81.363 C 95.364 77.018, 95.672 76.875, 100.556 77.182 L 105.612 77.500 89.556 90.843 C 80.725 98.182, 71.925 105.556, 70 107.230 C 67.347 109.538, 64.104 110.850, 56.599 112.653 C 51.154 113.961, 46.549 114.883, 46.367 114.701 C 45.890 114.223, 35 61.550, 35 59.718 C 35 58.873, 39.014 48.804, 43.920 37.341 C 53.859 14.120, 53.933 13.911, 52.422 13.349 C 51.823 13.126, 46.986 23.153, 41.529 35.932 M 141.500 51.046 C 128.850 61.563, 117.825 70.859, 117 71.704 C 115.652 73.083, 117.201 73.171, 132.250 72.573 C 146.158 72.020, 149 72.142, 149 73.289 C 149 74.093, 142.194 77.899, 132.750 82.378 C 109.004 93.640, 91.232 104.732, 100.750 102.350 C 102.263 101.971, 105.512 101.149, 107.971 100.523 C 111.745 99.562, 116.481 99.903, 138.364 102.716 C 152.621 104.549, 164.452 105.882, 164.655 105.678 C 164.859 105.475, 164.907 88.797, 164.762 68.616 L 164.500 31.923 141.500 51.046 M 121.822 75.948 L 111.143 76.500 94.495 90.393 C 82.579 100.337, 78.223 104.526, 79.173 105.128 C 81.002 106.288, 83.962 106.204, 89.936 104.825 C 93.848 103.922, 94.907 103.284, 94.520 102.062 C 93.867 100.007, 109.368 90.521, 128 81.573 C 143.222 74.262, 143.823 74.810, 121.822 75.948 M 78 77.949 L 66.500 78.500 72.500 79.783 C 75.800 80.489, 80.282 81.478, 82.461 81.980 C 85.167 82.605, 86.848 82.541, 87.766 81.779 C 89.444 80.387, 91.345 76.930, 90.285 77.199 C 89.853 77.309, 84.325 77.647, 78 77.949 M 92.500 106.905 L 89.500 107.574 93.750 108.681 C 96.088 109.289, 98 109.647, 98 109.475 C 98 108.408, 96.679 106.020, 96.143 106.118 C 95.789 106.183, 94.150 106.537, 92.500 106.905 M 82 109.473 C 82 109.862, 83.013 111.024, 84.250 112.056 C 86.538 113.965, 90.508 114.355, 94.978 113.110 C 97.092 112.522, 96.651 112.239, 91.978 111.188 C 88.965 110.511, 85.487 109.688, 84.250 109.361 C 83.013 109.034, 82 109.085, 82 109.473 M 70.500 112.056 C 68.850 112.537, 65.945 114.231, 64.045 115.819 L 60.589 118.706 71.545 116.900 C 77.570 115.907, 82.682 115.073, 82.905 115.047 C 83.128 115.021, 82.495 114.100, 81.500 113 C 79.570 110.868, 75.708 110.536, 70.500 112.056 M 122.500 111.497 C 121.950 111.684, 119.700 112.169, 117.500 112.575 C 113.563 113.302, 113.648 113.350, 122.946 115.628 C 128.141 116.901, 132.503 117.831, 132.639 117.695 C 132.775 117.559, 131.967 115.997, 130.845 114.224 C 128.915 111.176, 126.130 110.266, 122.500 111.497 M 104 114.743 C 104 115.173, 107.112 121.898, 110.917 129.687 C 115.506 139.085, 117.428 144.005, 116.629 144.312 C 115.967 144.566, 108.929 138.750, 100.989 131.387 C 88.922 120.196, 86.057 118.009, 83.527 118.053 C 80.140 118.111, 66.166 120.488, 65.586 121.104 C 65.226 121.486, 89.744 149.134, 96.293 155.731 L 99.500 158.962 125.500 155.460 C 139.800 153.534, 152.077 151.855, 152.782 151.729 C 153.559 151.590, 150.370 145.590, 144.690 136.501 L 135.316 121.501 121.908 118.296 C 114.534 116.533, 107.487 114.837, 106.250 114.526 C 105.013 114.216, 104 114.314, 104 114.743 M 94.739 115.959 C 92.670 116.361, 90.774 116.893, 90.524 117.142 C 90.275 117.392, 94.780 121.993, 100.535 127.368 C 106.291 132.743, 111 136.889, 111 136.582 C 111 134.884, 100.378 115.019, 99.522 115.115 C 98.960 115.178, 96.808 115.558, 94.739 115.959 M 36.519 138.588 C 24.429 148.749, 14.079 157.531, 13.519 158.104 C 12.438 159.211, 17.745 158.876, 38.500 156.530 L 49.500 155.286 77.334 172.646 C 94.597 183.413, 105.644 189.720, 106.422 189.253 C 111.847 185.996, 151.872 155.457, 151.067 155.189 C 150.125 154.875, 107.009 160.369, 100.864 161.587 C 98.483 162.058, 96.423 160.104, 79.499 141.304 C 69.198 129.862, 60.259 120.413, 59.635 120.307 C 59.011 120.201, 48.609 128.427, 36.519 138.588 M 140 123.491 C 140 124.824, 156.514 150.260, 157.667 150.703 C 158.400 150.984, 159.009 151.953, 159.019 152.857 C 159.041 154.741, 164.894 164.439, 165.590 163.743 C 166.449 162.884, 176.859 131, 176.280 131 C 175.964 131, 168.133 129.200, 158.879 127 C 141.849 122.952, 140 122.608, 140 123.491" stroke="none" fill="black" fill-rule="evenodd"/>
</svg>