<svg xmlns="http://www.w3.org/2000/svg" width="200" height="200" viewBox="0 0 200 200" version="1.1">
	<path d="M 59.070 10.452 C 61.781 16.201, 64 21.097, 64 21.332 C 64 21.566, 57.475 23.030, 49.500 24.585 L 35 27.412 35 33.706 C 35 37.168, 34.698 40, 34.329 40 C 33.960 40, 32.844 39.264, 31.850 38.364 C 30.369 37.024, 29.956 36.979, 29.570 38.114 C 29.207 39.184, 22.587 61.823, 16.373 83.250 C 16.058 84.334, 16.406 85, 17.286 85 C 18.203 85, 20.927 79.152, 24.970 68.500 C 34.802 42.599, 35.980 45.040, 36.022 91.401 C 36.034 104.655, 36.699 130.575, 37.500 149 C 38.301 167.425, 38.966 183.963, 38.978 185.750 C 39.010 190.456, 41.503 189.880, 43.304 184.750 C 44.125 182.412, 49.161 168.125, 54.497 153 L 64.197 125.500 63.752 96.286 C 63.431 75.253, 63.613 67.252, 64.403 67.716 C 65.414 68.310, 79.225 79.216, 81.492 81.211 C 82.129 81.772, 81.951 82.420, 80.992 83.026 C 79.813 83.772, 80 83.973, 81.882 83.985 C 84.806 84.003, 91.225 87.826, 90.447 89.085 C 90.136 89.588, 88.352 90, 86.482 90 L 83.081 90 83.654 122.250 C 83.969 139.988, 84.513 159.419, 84.863 165.431 L 85.500 176.361 95 168.486 C 100.225 164.154, 108.191 157.544, 112.702 153.795 L 120.905 146.980 126.702 156.590 C 136.021 172.037, 132.513 171.425, 154.591 161.457 L 173.683 152.838 174.341 125.756 C 174.704 110.862, 175 94.511, 175 89.421 L 175 80.167 166.619 77.333 L 158.239 74.500 162.102 65.614 L 165.965 56.728 159.869 49.853 C 154.486 43.780, 153.930 42.774, 155.113 41.239 C 155.849 40.282, 158.665 36.888, 161.372 33.696 C 164.126 30.447, 165.897 27.537, 165.396 27.086 C 164.903 26.643, 153.025 23.070, 139 19.147 L 113.500 12.013 90.558 16.507 C 77.939 18.978, 67.487 21, 67.330 21 C 67.173 21, 64.816 16.275, 62.092 10.500 C 59.042 4.035, 56.563 -0, 55.639 -0 C 54.525 -0, 55.406 2.686, 59.070 10.452 M 89.752 19.367 C 78.341 21.640, 69.004 23.813, 69.002 24.195 C 69.001 24.577, 70.549 28.289, 72.443 32.445 C 75.302 38.718, 76.278 39.993, 78.193 39.957 C 79.462 39.933, 86.665 38.650, 94.200 37.105 C 105.047 34.882, 108.004 34.569, 108.402 35.605 C 108.721 36.436, 106.185 38.414, 101.452 41.027 C 97.353 43.289, 94 45.475, 94 45.885 C 94 46.295, 96.836 51.101, 100.303 56.565 C 103.769 62.029, 106.922 67.024, 107.309 67.664 C 107.752 68.399, 105.443 70.431, 101.059 73.164 C 95.401 76.692, 94.210 77.873, 94.665 79.500 C 94.973 80.600, 95.512 81.791, 95.862 82.147 C 96.213 82.503, 107.525 83.747, 121 84.911 C 154.143 87.775, 156 88.017, 156 89.474 C 156 90.417, 149.415 90.894, 128.750 91.448 C 103.755 92.119, 99.876 92.382, 101.083 93.326 C 101.313 93.505, 106.993 97.993, 113.707 103.300 C 120.421 108.607, 126.117 112.619, 126.366 112.217 C 126.615 111.814, 127.134 109.801, 127.521 107.742 C 127.931 105.553, 128.799 104, 129.611 104 C 130.375 104, 131.001 104.112, 131.001 104.250 C 131.002 104.388, 131.670 108.294, 132.487 112.931 C 133.303 117.569, 133.750 121.583, 133.481 121.852 C 133.212 122.121, 131.914 121.328, 130.596 120.090 L 128.200 117.839 127.170 122.670 C 126.604 125.326, 125.350 131.350, 124.385 136.056 L 122.629 144.611 129.390 155.673 L 136.150 166.735 153.325 158.971 L 170.500 151.208 171.118 139.854 C 171.459 133.609, 171.796 118.065, 171.868 105.312 L 172 82.124 163.500 79.356 C 158.825 77.833, 155 76.253, 155 75.844 C 155 75.435, 156.735 71.099, 158.857 66.208 L 162.713 57.316 156.417 50.058 L 150.121 42.800 155.560 36.205 C 158.552 32.578, 161 29.306, 161 28.933 C 161 28.068, 114.860 14.961, 112.365 15.117 C 111.339 15.181, 101.164 17.094, 89.752 19.367 M 51.500 26.888 L 38.500 29.565 38.253 36.532 C 38.026 42.944, 38.204 43.642, 40.487 45.285 C 42.890 47.013, 43.436 46.979, 57.734 44.187 C 65.856 42.601, 72.500 40.898, 72.500 40.402 C 72.500 38.929, 65.689 23.991, 65.069 24.105 C 64.756 24.163, 58.650 25.415, 51.500 26.888 M 87.586 41.097 C 82.684 42.140, 78.485 43.181, 78.256 43.410 C 77.874 43.793, 91.503 73.836, 92.521 74.855 C 92.768 75.101, 95.461 73.649, 98.507 71.627 C 104.885 67.392, 105.117 68.934, 95.972 54.793 C 92.688 49.714, 90 45.283, 90 44.947 C 90 44.611, 92.138 43.147, 94.750 41.692 C 100.289 38.609, 99.560 38.549, 87.586 41.097 M 30.200 45.699 C 29.576 47.734, 29.163 49.494, 29.282 49.611 C 29.402 49.728, 30.738 49.586, 32.250 49.295 C 35.232 48.722, 36.062 45.462, 33.800 43.200 C 31.947 41.347, 31.424 41.710, 30.200 45.699 M 59.665 46.530 C 53.156 47.828, 47.375 49.042, 46.818 49.227 C 46.261 49.413, 48.887 51.934, 52.653 54.830 L 59.500 60.094 59.802 55.047 C 59.978 52.118, 60.582 50, 61.243 50 C 64.276 50, 79 55.561, 79 56.706 C 79 58.308, 79.877 58.424, 70.750 55.608 L 63 53.217 63 58.110 L 63 63.003 73.705 71.501 C 79.592 76.176, 84.717 80, 85.094 80 C 85.470 80, 86.757 79.208, 87.953 78.240 L 90.127 76.479 82.582 60.490 C 77.261 49.212, 74.516 44.451, 73.269 44.335 C 72.296 44.244, 66.174 45.231, 59.665 46.530 M 39.090 50.923 C 37.903 51.675, 37.783 56.695, 38.331 82.658 C 39.295 128.382, 41.284 180.129, 42.043 179.261 C 42.409 178.842, 46.882 166.575, 51.983 152 L 61.257 125.500 61.068 96.174 C 60.964 80.044, 60.634 66.209, 60.334 65.428 C 59.719 63.825, 42.690 49.992, 41.361 50.015 C 40.887 50.024, 39.865 50.432, 39.090 50.923 M 89 81 C 87.787 81.784, 87.931 81.972, 89.750 81.985 C 90.987 81.993, 92 81.550, 92 81 C 92 79.747, 90.939 79.747, 89 81 M 91.083 85.261 C 91.313 85.404, 92.578 86.417, 93.896 87.511 L 96.291 89.500 95.110 87.250 C 94.461 86.013, 93.195 85, 92.298 85 C 91.401 85, 90.854 85.117, 91.083 85.261 M 98.206 87.122 C 98.565 88.203, 101.884 88.529, 113.582 88.633 C 129.280 88.773, 126.917 87.979, 107.124 86.462 C 99.376 85.868, 97.827 85.983, 98.206 87.122 M 86.605 131.250 C 86.973 152.838, 87.358 170.608, 87.460 170.739 C 87.756 171.122, 120.470 144, 120.781 143.114 C 121.184 141.967, 99.350 96.045, 97.353 93.838 C 96.172 92.533, 94.277 92, 90.812 92 L 85.935 92 86.605 131.250 M 104.257 100.146 C 105.730 103.771, 120.390 134.596, 120.950 135.246 C 121.303 135.656, 122.515 131.535, 123.644 126.087 L 125.696 116.182 114.701 107.487 C 108.654 102.705, 103.954 99.402, 104.257 100.146 M 129.158 114 C 129.158 115.375, 129.385 115.938, 129.662 115.250 C 129.940 114.563, 129.940 113.438, 129.662 112.750 C 129.385 112.063, 129.158 112.625, 129.158 114" stroke="none" fill="black" fill-rule="evenodd"/>
</svg>