<svg xmlns="http://www.w3.org/2000/svg" width="200" height="200" viewBox="0 0 200 200" version="1.1">
	<path d="M 54.590 16 L 44.679 16.500 35.395 38.500 C 30.045 51.177, 25.557 60.501, 24.805 60.501 C 23.995 60.502, 23.471 61.830, 23.423 64.001 C 23.381 65.926, 21.694 71.311, 19.673 75.970 C 15.856 84.770, 15.227 87.424, 17.106 86.798 C 18.068 86.477, 19.345 83.805, 24.176 72 C 25.061 69.838, 26.336 73.278, 33.600 97.421 C 38.220 112.778, 42 126.005, 42 126.816 C 42 127.626, 37.050 137.854, 31 149.544 C 24.950 161.235, 20 171.295, 20 171.900 C 20 174.999, 23.654 171.435, 35.347 156.933 C 42.412 148.170, 48.521 141, 48.922 141 C 49.323 141, 57.673 153.185, 67.477 168.077 C 81.311 189.091, 85.692 195.052, 87.043 194.699 C 91.876 193.435, 159.967 162.344, 159.982 161.395 C 160.009 159.709, 149.068 159.015, 122.359 159.007 L 98.218 159 85.609 142.583 C 78.674 133.554, 73 125.904, 73 125.583 C 73 123.877, 78.041 125.985, 97.299 135.744 C 108.960 141.653, 118.950 146.491, 119.500 146.494 C 121.835 146.508, 120.072 143.527, 113.442 136.248 C 109.559 131.987, 106.045 127.938, 105.633 127.250 C 105.043 126.268, 108.922 126, 123.750 126 L 142.618 126 163.456 154.500 C 174.917 170.175, 184.652 183, 185.088 183 C 185.525 183, 186.070 182.662, 186.299 182.250 C 186.528 181.838, 178.760 168.450, 169.036 152.500 L 151.356 123.500 147.428 123.195 C 143.844 122.916, 143.084 122.304, 138.746 116.196 C 136.131 112.515, 134.331 109.400, 134.746 109.275 C 135.161 109.149, 146.075 110.785, 159 112.910 C 171.925 115.034, 182.696 116.590, 182.936 116.367 C 183.176 116.144, 177.551 98.185, 170.436 76.458 L 157.500 36.955 140.299 27.539 L 123.099 18.123 100.799 17.466 C 88.535 17.104, 75.350 16.514, 71.500 16.154 C 67.650 15.794, 60.040 15.725, 54.590 16 M 45.640 21.281 C 44.892 23.052, 40.370 33.778, 35.593 45.117 L 26.906 65.734 35.453 93.960 C 40.154 109.485, 44 122.369, 44 122.593 C 44 122.817, 44.596 123, 45.323 123 C 46.242 123, 48.687 113.903, 53.319 93.250 C 59.089 67.520, 60.264 60.541, 62.015 41.603 C 63.128 29.559, 63.918 19.610, 63.770 19.492 C 63.621 19.375, 59.788 19.005, 55.250 18.671 L 47.001 18.063 45.640 21.281 M 68.633 20.215 C 73.915 28.761, 89.838 48.837, 92.390 50.168 C 95.471 51.775, 96.175 51.709, 111.447 48.371 C 120.169 46.465, 127.660 45.264, 128.094 45.702 C 128.528 46.141, 129.442 48.596, 130.124 51.158 C 131.524 56.412, 131.840 55.693, 123.521 66.207 C 118.601 72.425, 118.586 72.467, 122.210 69.746 C 128.672 64.893, 127.697 68.747, 120.664 75.852 L 114.085 82.500 122.511 94.042 L 130.938 105.584 154.520 109.408 C 167.490 111.511, 178.337 112.997, 178.624 112.709 C 178.911 112.422, 173.938 96.376, 167.573 77.050 C 161.208 57.725, 156 41.296, 156 40.542 C 156 39.788, 148.490 35.078, 139.311 30.075 L 122.621 20.979 97.561 20.006 C 65.754 18.771, 67.731 18.756, 68.633 20.215 M 64.569 43.250 C 63.056 60.488, 61.842 67.739, 56.405 92 C 52.891 107.675, 50.013 121.063, 50.009 121.750 C 50.002 122.653, 52.367 123, 58.523 123 L 67.046 123 65.388 120.469 C 63.217 117.155, 64.042 116.524, 68.458 118.121 L 72.066 119.426 86.283 105.071 C 101.535 89.671, 101.106 89.586, 82.500 104.322 C 72.744 112.049, 70.376 113.516, 69.836 112.163 C 69.099 110.317, 66.748 39.918, 67.402 39.265 C 67.628 39.038, 71.294 40.461, 75.548 42.427 C 79.801 44.392, 83.443 46, 83.640 46 C 84.235 46, 67.544 23.069, 66.923 23.033 C 66.605 23.015, 65.546 32.112, 64.569 43.250 M 70.348 58.750 C 70.693 67.412, 71.268 82.251, 71.625 91.725 L 72.275 108.950 76.388 105.745 C 78.649 103.982, 86.907 97.471, 94.738 91.276 L 108.976 80.011 98.530 65.749 L 88.083 51.487 79.527 47.244 C 74.821 44.910, 70.690 43, 70.346 43 C 70.003 43, 70.004 50.087, 70.348 58.750 M 109.744 51.432 C 101.628 53.204, 94.766 54.432, 94.494 54.161 C 94.222 53.889, 94 53.990, 94 54.385 C 94 55.443, 110.050 77.001, 110.833 76.994 C 111.200 76.991, 115.281 72.223, 119.903 66.399 C 128.045 56.139, 128.278 55.698, 127.403 52.231 C 126.906 50.262, 126.050 48.552, 125.500 48.431 C 124.950 48.309, 117.860 49.659, 109.744 51.432 M 105.825 89.750 C 103.027 92.362, 98.033 97.804, 94.729 101.842 L 88.722 109.183 91.744 112.205 L 94.765 115.227 110.633 111.449 C 119.360 109.371, 126.872 107.351, 127.326 106.959 C 128.210 106.198, 113.184 85, 111.761 85 C 111.295 85, 108.624 87.138, 105.825 89.750 M 80.530 114.970 L 75.635 119.940 79.067 119.034 C 80.955 118.536, 84.429 117.628, 86.786 117.016 L 91.072 115.903 88.786 113.007 C 87.529 111.414, 86.258 110.086, 85.962 110.055 C 85.667 110.025, 83.222 112.236, 80.530 114.970 M 112 113.738 C 104.025 115.672, 97.299 117.435, 97.053 117.657 C 96.807 117.879, 97.727 119.182, 99.098 120.553 L 101.590 123.045 120.842 122.772 L 140.095 122.500 135.449 116.250 C 132.124 111.777, 130.192 110.031, 128.652 110.111 C 127.468 110.172, 119.975 111.804, 112 113.738 M 85 120.403 L 76.500 122.500 86.379 122.788 C 91.812 122.946, 96.512 122.821, 96.823 122.510 C 97.134 122.199, 96.514 121.126, 95.444 120.125 C 93.563 118.365, 93.224 118.374, 85 120.403 M 48.621 126.750 C 48.338 127.713, 47.807 130.192, 47.440 132.261 C 46.569 137.174, 45.409 137.771, 44.579 133.734 C 43.947 130.660, 43.548 131.213, 36.483 144.942 C 32.395 152.885, 29.152 159.470, 29.275 159.575 C 29.399 159.680, 33.775 154.446, 39 147.943 C 44.225 141.441, 48.725 136.105, 49 136.085 C 49.363 136.059, 79.969 181.520, 86.127 191.231 C 86.490 191.804, 100.721 185.961, 119.911 177.360 L 153.067 162.500 125.084 162.235 L 97.100 161.969 82.908 143.485 L 68.715 125 58.925 125 C 50.463 125, 49.065 125.238, 48.621 126.750 M 85.083 126.387 C 85.313 126.600, 91.975 130.009, 99.889 133.963 L 114.278 141.153 107.470 133.576 L 100.663 126 92.665 126 C 88.266 126, 84.854 126.174, 85.083 126.387 M 154.112 137.250 C 165.569 153.074, 166.358 153.431, 157.437 138.750 C 151.973 129.759, 149.140 126, 147.828 126 C 146.385 126, 147.799 128.531, 154.112 137.250" stroke="none" fill="black" fill-rule="evenodd"/>
</svg>