<svg xmlns="http://www.w3.org/2000/svg" width="200" height="200" viewBox="0 0 200 200" version="1.1">
	<path d="M 149.450 20.524 C 145.804 25.455, 143.475 27.781, 142.693 27.274 C 142.037 26.848, 127.550 26.275, 110.500 26 C 81.798 25.537, 79.403 25.630, 78.193 27.250 C 77.380 28.340, 75.554 29, 73.355 29 C 70.596 29, 68.693 29.988, 64.665 33.512 C 61.827 35.994, 58.942 37.808, 58.253 37.544 C 57.553 37.275, 56.990 37.820, 56.977 38.781 C 56.964 39.727, 54.229 42.925, 50.899 45.890 L 44.845 51.280 25.439 49.456 C 7.743 47.793, 3.498 47.831, 5.302 49.635 C 5.652 49.985, 13.714 51.085, 23.219 52.079 C 32.723 53.074, 40.707 53.913, 40.961 53.944 C 41.214 53.975, 38.246 56.898, 34.366 60.439 C 28.618 65.686, 25.971 69.229, 20.081 79.565 C 15.395 87.787, 13.193 92.593, 13.824 93.224 C 14.768 94.168, 17.534 89.945, 26.134 74.428 C 28.379 70.378, 32.145 66.004, 37.445 61.291 L 45.390 54.225 51.445 54.748 C 54.775 55.035, 57.635 55.383, 57.801 55.520 C 57.966 55.656, 58.795 67.858, 59.643 82.634 C 61.074 107.567, 60.974 131.915, 59.404 141.094 C 58.969 143.635, 53.134 152.428, 39.494 171.094 C 28.882 185.617, 20.330 197.638, 20.490 197.808 C 20.847 198.184, 57.245 183.038, 58.138 182.141 C 58.489 181.788, 59.498 173.254, 60.379 163.175 L 61.983 144.849 72.180 130.947 C 77.789 123.301, 82.497 117.164, 82.643 117.310 C 82.789 117.455, 79.554 131.230, 75.454 147.921 C 71.354 164.611, 68 178.847, 68 179.557 C 68 180.423, 76.275 178.085, 93.136 172.455 L 118.271 164.062 146.669 171.164 C 162.288 175.070, 175.292 178.041, 175.567 177.767 C 175.841 177.492, 171.780 168.375, 166.541 157.506 L 157.015 137.745 165.972 128.030 L 174.930 118.315 173.919 85.408 L 172.908 52.500 165.204 32.757 C 160.952 21.862, 156.943 13.011, 156.257 13.007 C 155.574 13.003, 152.510 16.386, 149.450 20.524 M 149.087 25.618 C 144.280 32.210, 143.109 34.449, 144.137 35.085 C 145.738 36.074, 144.443 37.634, 141.591 38.153 C 140.511 38.349, 135.565 44.128, 130.201 51.460 L 120.721 64.419 122.206 81.805 C 123.093 92.186, 124.150 99.475, 124.830 99.895 C 125.457 100.282, 133.514 101.404, 142.735 102.388 C 151.956 103.372, 159.612 104.287, 159.750 104.421 C 159.887 104.556, 152.317 108.393, 142.928 112.948 L 125.856 121.229 126.566 131.244 C 127.030 137.794, 126.930 141.127, 126.277 140.879 C 124.415 140.173, 107.031 128.504, 107.016 127.950 C 107.007 127.648, 110.584 125.653, 114.965 123.517 L 122.931 119.633 122.401 113.567 C 121.604 104.438, 121.195 103.193, 118.748 102.463 C 117.511 102.095, 113.448 98.802, 109.717 95.147 C 105.367 90.883, 102.678 88.910, 102.217 89.644 C 101.823 90.274, 98.382 95.070, 94.571 100.303 L 87.641 109.818 82.762 129.659 C 80.078 140.572, 76.407 155.623, 74.603 163.106 L 71.324 176.712 81.912 173.381 C 87.735 171.549, 98.335 168.091, 105.468 165.698 L 118.435 161.345 145.071 168.018 L 171.707 174.690 162.816 156.228 L 153.925 137.765 156.213 134.941 C 157.471 133.389, 161.578 128.733, 165.341 124.595 L 172.181 117.071 171.026 84.378 L 169.871 51.684 163.289 35.092 C 159.668 25.966, 156.409 18.159, 156.045 17.742 C 155.681 17.325, 152.550 20.869, 149.087 25.618 M 81 28.700 C 81 29.292, 90.527 30.422, 104.250 31.456 L 127.500 33.210 132 31.127 L 136.500 29.044 119.406 29.022 C 110.004 29.010, 97.516 28.707, 91.656 28.348 C 84.761 27.926, 81 28.050, 81 28.700 M 136.500 32.055 L 132.500 33.948 136.215 33.974 C 138.923 33.993, 140.220 33.458, 141 32 C 142.290 29.590, 141.694 29.597, 136.500 32.055 M 65.681 36.271 L 60.862 40.500 64.356 43.874 L 67.850 47.247 71.425 40.149 C 73.391 36.244, 75 32.814, 75 32.525 C 75 32.236, 73.987 32.009, 72.750 32.021 C 71.513 32.032, 68.332 33.944, 65.681 36.271 M 74.150 40.622 L 69.800 49.432 72.772 52.088 C 75.403 54.439, 76.876 54.824, 85.622 55.450 C 91.055 55.839, 96.459 56.383, 97.631 56.657 C 98.834 56.939, 102.250 60.632, 105.470 65.129 L 111.178 73.102 114.589 68.304 C 116.465 65.665, 118 62.942, 118 62.253 C 118 61.564, 118.419 61, 118.931 61 C 120.274 61, 135.027 40.563, 133.961 40.178 C 133.470 40.001, 126.495 41.244, 118.460 42.941 C 104.909 45.803, 102 46.021, 102 44.174 C 102 43.784, 105.825 41.932, 110.500 40.058 C 115.175 38.184, 119 36.362, 119 36.009 C 119 35.656, 111.688 34.804, 102.750 34.117 C 93.813 33.429, 84.700 32.630, 82.500 32.340 L 78.500 31.812 74.150 40.622 M 122.500 38.093 C 119.968 39.323, 119.418 39.847, 121 39.518 C 122.375 39.233, 125.188 38.717, 127.250 38.372 C 129.313 38.027, 131 37.352, 131 36.872 C 131 35.420, 126.741 36.031, 122.500 38.093 M 52.500 48 L 48.594 52 51.715 52 C 53.432 52, 55.548 52.273, 56.418 52.607 C 57.720 53.106, 58 52.397, 58 48.607 C 58 46.073, 57.641 44, 57.203 44 C 56.765 44, 54.648 45.800, 52.500 48 M 60.378 46.875 C 60.720 48.731, 61 50.869, 61 51.625 C 61 53.589, 64.660 53.330, 65.434 51.311 C 65.870 50.175, 65.046 48.619, 62.920 46.561 L 59.757 43.500 60.378 46.875 M 68 53 C 68 53.550, 68.477 54, 69.059 54 C 69.641 54, 69.840 53.550, 69.500 53 C 69.160 52.450, 68.684 52, 68.441 52 C 68.198 52, 68 52.450, 68 53 M 61.332 64.750 C 63.241 91.723, 64.125 120.357, 63.320 129.174 C 62.835 134.495, 62.722 138.672, 63.069 138.457 C 63.417 138.242, 68.332 131.698, 73.992 123.914 L 84.282 109.762 73.544 82.881 C 67.639 68.096, 62.335 56, 61.760 56 C 61.063 56, 60.920 58.929, 61.332 64.750 M 66 56.445 C 66 56.740, 70.099 67.223, 75.108 79.741 C 80.117 92.258, 84.633 103.582, 85.142 104.905 C 86.012 107.165, 86.522 106.692, 93.590 97.074 C 97.728 91.444, 100.975 86.477, 100.806 86.036 C 100.638 85.596, 94.406 78.950, 86.959 71.268 C 75.702 59.657, 72.792 57.184, 69.709 56.605 C 67.669 56.222, 66 56.151, 66 56.445 M 78.245 58.166 C 78.385 58.548, 84.009 64.473, 90.743 71.333 L 102.986 83.805 105.993 80.009 C 107.647 77.921, 109 75.895, 109 75.508 C 109 75.121, 106.540 71.314, 103.534 67.048 L 98.068 59.292 88.029 58.382 C 82.508 57.881, 78.105 57.784, 78.245 58.166 M 115.169 71.968 L 112.837 75.139 115.169 78.560 L 117.500 81.982 117.812 78.468 C 117.983 76.536, 117.983 73.570, 117.812 71.877 L 117.500 68.798 115.169 71.968 M 107.662 82.174 L 104.825 86.273 111.635 93.137 C 120.048 101.614, 121.510 101.899, 120.578 94.880 C 120.089 91.187, 118.743 88.120, 115.753 83.880 C 113.472 80.646, 111.357 78.017, 111.053 78.038 C 110.749 78.059, 109.223 79.920, 107.662 82.174 M 124.632 110.250 C 124.987 114.237, 125.398 117.645, 125.544 117.822 C 125.691 117.999, 131.258 115.567, 137.917 112.417 C 144.575 109.267, 149.865 106.531, 149.672 106.338 C 149.370 106.037, 126.866 103.030, 124.743 103.008 C 124.327 103.004, 124.277 106.263, 124.632 110.250 M 116.618 125.633 L 111.736 128.172 117.618 132.079 C 120.853 134.228, 123.660 135.508, 123.857 134.924 C 124.403 133.295, 122.947 122.994, 122.178 123.047 C 121.805 123.072, 119.303 124.236, 116.618 125.633 M 43.167 170.667 C 34.852 182.061, 28.179 191.512, 28.337 191.670 C 28.566 191.899, 54.684 181.218, 55.804 180.437 C 56.162 180.188, 58.787 150.630, 58.487 150.225 C 58.375 150.074, 51.481 159.273, 43.167 170.667" stroke="none" fill="black" fill-rule="evenodd"/>
</svg>