<svg xmlns="http://www.w3.org/2000/svg" width="200" height="200" viewBox="0 0 200 200" version="1.1">
	<path d="M 114.641 18.909 C 109.001 24.459, 104.111 29, 103.776 29 C 103.440 29, 102.392 26.975, 101.447 24.500 C 100.502 22.025, 99.655 20, 99.566 20 C 99.476 20, 92.675 22.875, 84.452 26.388 L 69.500 32.776 64 27.612 C 54.920 19.086, 53.197 17.760, 52.087 18.446 C 51.440 18.846, 53.213 22.223, 56.631 27.100 C 59.713 31.499, 62.070 35.244, 61.868 35.422 C 57.086 39.633, 39.480 41.772, 29.639 39.338 C 26.416 38.540, 23.518 38.149, 23.198 38.468 C 22.879 38.788, 21.457 49.388, 20.039 62.024 C 18.088 79.410, 17.759 85, 18.685 85 C 20.176 85, 20.536 83.017, 22.905 61.697 C 23.932 52.456, 24.957 44.710, 25.183 44.484 C 25.408 44.258, 26.884 57.332, 28.461 73.537 C 30.649 96.009, 31.647 103, 32.665 103 C 34.362 103, 34.429 104.353, 31.124 72 C 29.123 52.404, 28.629 44.278, 29.408 43.729 C 30.679 42.831, 37.084 43.753, 38.395 45.022 C 38.909 45.521, 38.123 46.182, 36.544 46.578 L 33.798 47.267 34.453 81.384 C 34.924 105.922, 35.939 125.186, 38.068 150 C 41.447 189.374, 41.654 191, 43.296 191 C 43.970 191, 49.029 178.332, 54.777 162.250 C 66.690 128.920, 65.925 135.526, 63.028 91.028 C 61.973 74.819, 61.270 61.396, 61.466 61.200 C 61.662 61.005, 65.912 62.745, 70.911 65.067 C 78.353 68.525, 80 69.691, 80 71.503 C 80 72.720, 80.907 86.654, 82.015 102.466 C 83.511 123.807, 85.193 138.598, 88.545 159.858 C 91.028 175.611, 93.295 189.572, 93.582 190.881 C 94.001 192.791, 97.582 187.280, 111.657 163.070 C 121.311 146.464, 129.425 133.091, 129.687 133.353 C 129.949 133.615, 129.384 140.033, 128.431 147.615 C 127.453 155.401, 127.091 161.535, 127.600 161.711 C 128.095 161.882, 137.950 166.476, 149.500 171.921 C 161.050 177.365, 170.592 181.731, 170.704 181.623 C 170.816 181.514, 172.292 165.917, 173.984 146.963 C 175.676 128.008, 178.862 97.253, 181.065 78.619 C 183.268 59.984, 184.942 44.632, 184.785 44.504 C 184.371 44.166, 158.640 41, 156.304 41 C 155.040 41, 152.973 42.974, 150.544 46.500 C 148.461 49.525, 146.474 51.996, 146.128 51.991 C 145.783 51.986, 141.225 42.502, 136 30.916 C 130.775 19.329, 126.139 9.618, 125.698 9.334 C 125.257 9.050, 120.281 13.359, 114.641 18.909 M 114.681 22.642 C 105.612 31.375, 104.912 32.322, 105.511 35.048 C 106.094 37.705, 106.551 38, 110.079 38 C 112.236 38, 114.008 38.337, 114.018 38.750 C 114.103 42.220, 117.172 60.553, 117.754 61.068 C 118.164 61.431, 127.162 63.868, 137.750 66.483 C 148.338 69.098, 157 71.453, 157 71.716 C 157 71.980, 153.924 76.094, 150.164 80.861 L 143.328 89.527 142.005 116.014 C 141.277 130.581, 140.404 143.547, 140.065 144.826 C 139.488 147.004, 139.227 146.844, 135.974 142.326 L 132.500 137.500 131.325 146 C 129.271 160.863, 127.479 158.514, 148.381 168.350 C 158.490 173.108, 167.165 177, 167.657 177 C 168.149 177, 170.020 160.688, 171.815 140.750 C 173.609 120.813, 176.630 91.699, 178.528 76.052 C 180.920 56.330, 181.649 47.401, 180.906 46.942 C 179.698 46.195, 156.048 43.573, 155.612 44.137 C 155.459 44.337, 153.178 47.558, 150.546 51.296 C 147.913 55.034, 145.614 57.947, 145.437 57.770 C 145.259 57.593, 140.855 48.156, 135.649 36.800 C 130.443 25.443, 125.805 15.485, 125.342 14.670 C 124.684 13.512, 122.354 15.254, 114.681 22.642 M 84.500 29.218 C 77.900 32.020, 72.315 34.464, 72.089 34.650 C 71.864 34.836, 72.496 35.890, 73.494 36.994 C 75.060 38.723, 76.571 39, 84.452 39 L 93.594 39 97.274 35.231 C 100.817 31.603, 100.912 31.323, 99.810 27.731 C 99.180 25.679, 98.177 24.028, 97.582 24.062 C 96.987 24.097, 91.100 26.417, 84.500 29.218 M 63.232 32 C 63.919 33.100, 64.893 34, 65.396 34 C 65.898 34, 65.495 33.100, 64.500 32 C 63.505 30.900, 62.531 30, 62.337 30 C 62.142 30, 62.545 30.900, 63.232 32 M 99.500 37 C 97.733 38.952, 97.753 39, 100.345 39 C 102.333 39, 103 38.498, 103 37 C 103 35.900, 102.620 35, 102.155 35 C 101.690 35, 100.495 35.900, 99.500 37 M 67 36.878 C 67 38.156, 69.940 40.393, 70.667 39.667 C 71.393 38.940, 69.156 36, 67.878 36 C 67.395 36, 67 36.395, 67 36.878 M 61.500 39 C 59.741 39.756, 59.838 39.868, 62.309 39.930 C 63.941 39.971, 64.859 39.581, 64.500 39 C 64.160 38.450, 63.796 38.032, 63.691 38.070 C 63.586 38.109, 62.600 38.527, 61.500 39 M 96.500 41.729 C 95.400 42.002, 92.350 44.230, 89.721 46.680 L 84.943 51.134 79.863 46.567 C 77.069 44.055, 73.932 42, 72.892 42 C 70.452 42, 70.493 42.276, 73.631 47.018 C 75.490 49.827, 77.323 51.272, 79.881 51.943 C 81.871 52.466, 89.125 54.288, 96 55.992 C 102.875 57.696, 109.287 59.326, 110.250 59.613 C 111.939 60.117, 110.791 56.055, 105.484 42.750 C 104.789 41.008, 101.094 40.588, 96.500 41.729 M 108.578 43.246 C 108.970 44.481, 110.134 47.294, 111.165 49.496 L 113.040 53.500 112.531 49.500 C 112.251 47.300, 112.017 44.487, 112.011 43.250 C 112.003 41.646, 111.407 41, 109.933 41 C 108.245 41, 107.996 41.412, 108.578 43.246 M 58.500 42.715 C 48.581 43.271, 48.966 44.120, 60.476 47.069 C 66.513 48.616, 71.563 49.770, 71.699 49.634 C 72.358 48.975, 66.770 42.025, 65.714 42.189 C 65.046 42.293, 61.800 42.530, 58.500 42.715 M 81.306 44.532 C 84.782 47.589, 85.099 47.588, 88 44.500 L 90.349 42 84.424 42.032 L 78.500 42.063 81.306 44.532 M 40.608 47.715 L 36.716 49.327 37.445 84.914 C 37.975 110.764, 38.938 128.925, 40.964 151.293 C 42.497 168.229, 43.923 182.256, 44.131 182.464 C 44.339 182.672, 48.628 171.290, 53.662 157.171 L 62.816 131.500 60.451 94.040 C 59.150 73.437, 58.179 56.509, 58.293 56.422 C 58.620 56.172, 80.992 66.658, 81.751 67.418 C 82.126 67.793, 83.425 82.365, 84.637 99.800 C 86.300 123.717, 87.856 137.884, 90.975 157.500 C 93.248 171.800, 95.218 183.900, 95.351 184.389 C 95.632 185.424, 127 131.733, 127 130.216 C 127 129.512, 81.065 61.803, 75.400 54.155 C 75.216 53.908, 44.500 45.876, 44.500 46.076 C 44.500 46.091, 42.749 46.829, 40.608 47.715 M 80 55.525 C 80 56.016, 126.689 124.502, 128.686 126.940 C 128.884 127.181, 129.741 126.386, 130.591 125.173 C 132.896 121.883, 134.333 123.553, 133.628 128.699 C 133.129 132.337, 133.442 133.756, 135.365 136.586 L 137.710 140.038 138.335 131.269 C 138.679 126.446, 139.264 115.975, 139.636 108 L 140.311 93.500 137.567 96.750 C 136.057 98.537, 134.363 100, 133.803 100 C 132.364 100, 133.378 96.629, 137.495 87.718 C 140.953 80.232, 144 77.594, 144 82.085 C 144 83.705, 144.980 82.981, 148.397 78.835 C 152.107 74.335, 152.537 73.386, 151.147 72.771 C 150.241 72.370, 142.975 70.437, 135 68.476 C 127.025 66.516, 119.760 64.691, 118.855 64.422 C 117.759 64.095, 117.259 64.491, 117.355 65.608 C 117.587 68.299, 115.447 68.277, 114.217 65.576 C 112.997 62.899, 112.534 62.734, 94.500 58.520 C 88.450 57.106, 82.713 55.705, 81.750 55.407 C 80.787 55.109, 80 55.162, 80 55.525" stroke="none" fill="black" fill-rule="evenodd"/>
</svg>