<svg xmlns="http://www.w3.org/2000/svg" width="200" height="200" viewBox="0 0 200 200" version="1.1">
	<path d="M 130.578 31.578 C 121.272 39.510, 113.369 46, 113.017 46 C 112.665 46, 109.324 40.608, 105.593 34.019 L 98.809 22.037 91.655 26.024 C 87.720 28.217, 79.459 32.798, 73.297 36.205 C 64.501 41.068, 62.138 42.821, 62.297 44.366 C 62.452 45.871, 59.675 48.150, 50.500 54.051 L 38.500 61.767 38 50.634 C 37.712 44.211, 37.077 39.500, 36.500 39.500 C 35.950 39.500, 34.701 43.775, 33.725 49 C 32.748 54.225, 31.740 59.460, 31.485 60.632 C 31.126 62.283, 16.943 74.873, 10.560 79.208 C 9.837 79.699, 9.841 80.241, 10.572 80.972 C 11.313 81.713, 15.067 79.829, 23.157 74.656 L 34.686 67.285 35.393 126.190 C 35.781 158.588, 36.446 186.031, 36.869 187.176 C 37.498 188.876, 40.103 184.913, 51.071 165.574 L 64.504 141.891 62.753 105.195 C 61.790 85.013, 61.114 67.256, 61.251 65.735 C 61.492 63.060, 61.669 63.166, 66.682 68.992 C 70.834 73.816, 72.858 77.563, 76.863 87.841 L 81.862 100.669 81.061 135.085 C 80.620 154.013, 80.611 169.727, 81.040 170.004 C 81.470 170.281, 93.674 171.998, 108.161 173.819 L 134.500 177.131 159.871 173.065 C 173.825 170.829, 185.664 169, 186.180 169 C 188.240 169, 185.182 166.498, 168.936 154.896 C 159.616 148.240, 151.796 142.480, 151.558 142.095 C 151.320 141.709, 154.697 136.991, 159.063 131.609 C 167.665 121.003, 167.548 121.379, 165.988 109.322 C 164.131 94.977, 164.138 94.996, 158.505 89.090 L 153.157 83.484 166.551 66.992 C 173.918 57.921, 179.958 50.209, 179.973 49.852 C 179.988 49.496, 173.813 48.908, 166.250 48.546 C 158.688 48.184, 151.226 47.644, 149.668 47.346 L 146.836 46.805 147.479 34.653 C 147.833 27.969, 148.356 21.262, 148.641 19.750 C 148.926 18.238, 148.786 17.035, 148.329 17.078 C 147.873 17.121, 139.885 23.646, 130.578 31.578 M 129.109 36.500 C 120.311 43.925, 112.749 49.996, 112.306 49.991 C 111.863 49.987, 108.419 44.564, 104.653 37.941 C 100.887 31.317, 97.503 26.034, 97.133 26.199 C 96.763 26.365, 93.247 28.261, 89.319 30.413 L 82.177 34.326 86.838 40.948 C 89.402 44.591, 96.447 54.608, 102.493 63.209 C 108.540 71.810, 113.599 78.734, 113.737 78.597 C 113.874 78.459, 112.640 74.656, 110.993 70.144 C 107.637 60.947, 107.474 59.999, 109.250 60.003 C 110.736 60.007, 120.798 88.535, 119.700 89.633 C 118.580 90.754, 117.614 89.512, 98.991 63 C 89.526 49.525, 81.619 38.326, 81.421 38.113 C 81.222 37.900, 78.009 39.677, 74.280 42.062 C 70.551 44.446, 67.361 46.484, 67.192 46.590 C 67.022 46.696, 76.360 66.230, 87.942 89.999 C 99.524 113.767, 109.050 134.403, 109.111 135.857 C 109.194 137.848, 114.829 117.754, 114.972 114.955 C 114.987 114.656, 112.750 112.695, 110 110.598 C 105.197 106.935, 103.829 105, 106.043 105 C 107.143 105, 118 112.906, 118 113.708 C 118 113.965, 115.975 122.945, 113.500 133.663 C 111.025 144.382, 109 153.342, 109 153.576 C 109 153.809, 108.325 154, 107.500 154 C 106.263 154, 106 152.181, 106 143.625 L 106 133.250 85.540 91.375 C 73.128 65.970, 64.553 49.542, 63.740 49.606 C 63.002 49.664, 56.909 53.196, 50.199 57.455 L 38 65.199 38.122 105.350 C 38.189 127.432, 38.526 153.375, 38.872 163 L 39.500 180.500 50.633 160.826 L 61.766 141.153 59.924 103.326 C 58.911 82.522, 58.064 63.108, 58.041 60.185 L 58 54.869 66.153 64.318 C 73.784 73.161, 74.635 74.623, 79.433 87.133 L 84.559 100.500 83.838 133.975 C 83.441 152.386, 83.217 167.550, 83.340 167.673 C 83.462 167.796, 94.917 169.352, 108.794 171.132 L 134.025 174.368 155.263 171.031 C 166.943 169.196, 177.359 167.389, 178.409 167.016 C 179.934 166.475, 177.113 164.056, 164.409 155.014 C 155.659 148.786, 148.139 143.377, 147.699 142.994 C 147.258 142.611, 150.746 137.557, 155.449 131.763 C 165.084 119.893, 164.882 120.654, 162.624 104.721 L 161.379 95.941 155.551 90.052 C 152.064 86.528, 149.965 83.628, 150.324 82.831 C 150.653 82.099, 156.303 74.975, 162.878 67 C 176.755 50.169, 177.245 51.677, 157.557 50.634 C 150.439 50.256, 144.449 49.782, 144.247 49.581 C 144.045 49.379, 144.249 43.315, 144.700 36.107 C 145.151 28.898, 145.427 23, 145.314 23 C 145.200 23, 137.908 29.075, 129.109 36.500 M 33.825 62.326 C 33.452 64.151, 33.592 64.808, 34.218 64.182 C 34.751 63.649, 35.011 62.377, 34.794 61.356 C 34.503 59.981, 34.251 60.233, 33.825 62.326" stroke="none" fill="black" fill-rule="evenodd"/>
</svg>