<svg xmlns="http://www.w3.org/2000/svg" width="200" height="200" viewBox="0 0 200 200" version="1.1">
	<path d="M 96.616 18.107 C 60.380 19.112, 30.569 20.098, 30.370 20.297 C 29.677 20.990, 23.007 61.521, 23.013 65 C 23.016 66.925, 24.119 74.420, 25.463 81.655 C 27.242 91.225, 28.770 107.441, 31.073 141.155 C 32.814 166.645, 34.627 187.920, 35.103 188.433 C 35.578 188.947, 36.251 189.082, 36.599 188.734 C 36.947 188.387, 41.450 171.814, 46.606 151.907 C 54.318 122.133, 56.888 110.192, 61.089 84.606 C 63.898 67.497, 66.311 53.379, 66.450 53.232 C 66.589 53.085, 69.037 59.098, 71.891 66.595 L 77.079 80.225 69.362 105.363 L 61.646 130.500 60.797 155.390 C 60.329 169.080, 60.150 180.483, 60.398 180.732 C 60.646 180.980, 73.798 174.504, 89.625 166.341 C 105.452 158.179, 118.986 151.355, 119.700 151.177 C 120.415 150.999, 131.820 156.132, 145.043 162.583 C 158.706 169.249, 169.428 173.922, 169.878 173.407 C 172.322 170.604, 174.984 112.712, 173.376 97.328 L 172.753 91.362 147.126 97.642 C 133.032 101.096, 120.581 103.939, 119.457 103.961 C 118.113 103.987, 114.789 101.005, 109.746 95.250 C 103.403 88.011, 102.374 86.380, 103.789 85.807 C 105.293 85.197, 142.496 80.570, 165.813 78.091 C 170.385 77.606, 174.369 76.964, 174.666 76.667 C 174.964 76.369, 174.435 71.710, 173.490 66.313 L 171.772 56.500 162.857 47.452 L 153.941 38.404 158.971 27.661 C 164.288 16.302, 164.430 15.920, 163.250 16.139 C 162.838 16.216, 132.852 17.101, 96.616 18.107 M 112 20.554 C 89.175 21.238, 64.875 21.856, 58 21.927 L 45.500 22.058 61.500 30.489 L 77.500 38.919 77.833 36.210 C 78.016 34.719, 79.946 31.186, 82.121 28.359 L 86.076 23.217 106.288 22.562 C 117.405 22.202, 133.804 21.815, 142.731 21.703 C 154.634 21.554, 159.093 21.167, 159.450 20.250 C 159.785 19.391, 158.930 19.048, 156.719 19.155 C 154.948 19.240, 134.825 19.870, 112 20.554 M 35.403 22.712 L 32.305 23.104 28.781 44.302 L 25.257 65.500 27.982 80.089 C 30.069 91.264, 31.374 104.532, 33.558 136.801 C 35.126 159.969, 36.504 178.829, 36.621 178.712 C 36.738 178.595, 40.669 163.650, 45.356 145.500 C 52.378 118.311, 54.796 106.813, 59.086 80.207 L 64.292 47.915 61.844 45.207 C 47.591 29.449, 43 24.067, 43 23.119 C 43 22.017, 41.520 21.938, 35.403 22.712 M 141 24.784 C 141 25.215, 143.437 27.975, 146.416 30.917 L 151.832 36.266 154.416 31.166 C 155.837 28.361, 157 25.602, 157 25.033 C 157 24.408, 153.838 24, 149 24 C 144.600 24, 141 24.353, 141 24.784 M 92.215 25.913 C 87.502 26.437, 86.574 26.952, 83.629 30.684 C 81.077 33.918, 80.429 35.565, 80.778 37.939 C 81.174 40.639, 82.259 41.544, 89.777 45.447 L 98.325 49.884 112.912 38.802 C 120.936 32.706, 128.159 27.107, 128.964 26.359 C 130.203 25.210, 127.888 25.025, 113.964 25.163 C 104.909 25.253, 95.122 25.590, 92.215 25.913 M 117.639 38.524 C 107.816 45.946, 99.399 52.253, 98.936 52.540 C 98.472 52.826, 94.216 50.964, 89.477 48.402 L 80.861 43.744 81.385 47.122 C 81.672 48.980, 82.189 53.848, 82.533 57.941 L 83.159 65.382 90.802 73.941 C 95.006 78.648, 98.570 82.687, 98.722 82.915 C 98.873 83.144, 110.361 81.919, 124.249 80.193 C 138.137 78.467, 154.450 76.531, 160.500 75.890 C 166.550 75.249, 171.632 74.618, 171.792 74.487 C 171.953 74.356, 171.343 70.198, 170.438 65.247 L 168.791 56.245 160.986 48.486 L 153.180 40.726 150.967 45.113 C 148.273 50.454, 148.367 50.345, 147.124 49.576 C 146.498 49.190, 147.034 46.967, 148.534 43.728 L 150.955 38.504 144.254 31.752 C 140.569 28.039, 137.092 25.007, 136.527 25.015 C 135.962 25.023, 127.463 31.103, 117.639 38.524 M 51.500 29.047 C 53.459 32.324, 64.311 43.926, 65.012 43.493 C 65.428 43.236, 66.297 44.257, 66.943 45.763 C 67.589 47.268, 70.806 51.425, 74.092 55 L 80.067 61.500 79.486 55 C 78.304 41.778, 78.969 42.860, 68.737 37.517 C 63.656 34.864, 57.504 31.546, 55.065 30.143 C 52.412 28.618, 50.980 28.177, 51.500 29.047 M 71.449 57.500 C 71.842 58.600, 73.923 64.162, 76.072 69.861 L 79.981 80.221 72.077 106.361 L 64.173 132.500 63.507 154.840 L 62.841 177.181 80.671 167.958 C 90.477 162.885, 103.067 156.320, 108.649 153.368 C 114.230 150.415, 119.470 148, 120.293 148 C 121.116 148, 131.975 153.012, 144.423 159.138 C 156.872 165.264, 167.256 170.078, 167.497 169.836 C 168.880 168.453, 171.201 133.109, 171.063 115.536 C 170.977 104.556, 170.757 95.424, 170.576 95.242 C 170.084 94.751, 122.633 106.165, 121.690 107.002 C 121.244 107.397, 127.384 115.070, 135.334 124.053 C 143.285 133.036, 149.573 140.948, 149.309 141.636 C 148.792 142.984, 150.075 143.412, 113.371 129.656 C 94.686 122.653, 92.983 122.192, 89.622 123.224 C 87.631 123.835, 85.833 124.147, 85.627 123.918 C 85.421 123.688, 84.289 111.800, 83.113 97.500 C 81.936 83.200, 80.734 70.150, 80.442 68.500 C 80.149 66.850, 77.846 63.250, 75.322 60.500 C 72.799 57.750, 71.056 56.400, 71.449 57.500 M 84.243 77.212 C 84.434 80.903, 84.872 84.205, 85.217 84.550 C 85.562 84.895, 88.093 84.800, 90.841 84.339 L 95.838 83.500 89.867 77 L 83.897 70.500 84.243 77.212 M 93.579 86.868 C 90.743 87.481, 90.992 87.758, 102.005 96.240 C 108.247 101.047, 113.560 104.773, 113.813 104.520 C 114.370 103.963, 98.051 85.951, 97.142 86.118 C 96.789 86.183, 95.185 86.521, 93.579 86.868 M 85.013 88.191 C 85.022 89.156, 87.789 119.538, 87.971 120.680 C 87.987 120.779, 89.237 120.510, 90.750 120.083 C 92.940 119.463, 98.584 121.199, 118.465 128.605 C 132.195 133.719, 143.504 137.813, 143.595 137.702 C 143.686 137.591, 137.946 130.975, 130.840 123 C 121.277 112.268, 117.230 108.413, 115.264 108.165 C 113.796 107.979, 106.995 103.489, 100.054 98.123 C 85.134 86.588, 84.996 86.497, 85.013 88.191" stroke="none" fill="black" fill-rule="evenodd"/>
</svg>