<svg xmlns="http://www.w3.org/2000/svg" width="200" height="200" viewBox="0 0 200 200" version="1.1">
	<path d="M 101.500 21.527 C 97.650 22.247, 80.325 25.370, 63 28.467 C 45.675 31.564, 30.929 34.290, 30.231 34.525 C 29.358 34.818, 31.017 39.054, 35.539 48.077 L 42.115 61.202 34.016 68.726 C 29.562 72.864, 26.059 76.393, 26.234 76.567 C 26.408 76.741, 34.864 75.777, 45.025 74.424 C 55.186 73.071, 64.322 72.085, 65.327 72.232 C 66.547 72.411, 61.011 77.323, 48.683 87 C 38.524 94.975, 30.502 101.753, 30.856 102.062 C 31.210 102.371, 38.813 105.485, 47.750 108.981 C 56.687 112.477, 64 115.750, 64 116.255 C 64 116.760, 53.985 127.596, 41.745 140.336 C 14.497 168.696, 15.839 167.065, 20.707 165.907 C 32.836 163.020, 83.388 152.055, 83.599 152.265 C 83.737 152.403, 68.546 160.328, 49.842 169.875 C 25.773 182.161, 16.146 187.546, 16.900 188.300 C 17.654 189.054, 28.711 187.159, 54.733 181.816 L 91.500 174.266 132.500 178.540 C 155.050 180.891, 173.668 182.650, 173.874 182.449 C 174.080 182.249, 168.127 175.428, 160.645 167.292 C 150.716 156.497, 144.131 148.121, 136.270 136.293 C 128.746 124.971, 124.520 119.552, 122.250 118.315 C 120.463 117.342, 118.990 116.310, 118.978 116.023 C 118.926 114.816, 133.550 78, 134.081 78 C 134.401 78, 135.264 79.125, 136 80.500 C 136.736 81.875, 137.937 83, 138.669 83 C 140.493 83, 140.376 82.525, 137.473 78.138 L 134.946 74.320 137.112 68.660 C 138.510 65.005, 139.848 63.003, 140.889 63.010 C 142.452 63.019, 178.005 72.672, 178.575 73.242 C 178.732 73.398, 169.666 83.124, 158.430 94.854 C 147.193 106.585, 138 116.592, 138 117.091 C 138 117.591, 138.403 118, 138.896 118 C 139.738 118, 183.213 73.561, 183.748 72.153 C 183.885 71.794, 174.740 69.025, 163.426 66 C 152.112 62.975, 142.377 60.211, 141.792 59.857 C 141.109 59.444, 142.725 54.089, 146.322 44.857 C 149.397 36.961, 152.207 29.713, 152.564 28.750 C 152.993 27.596, 152.727 27, 151.784 27 C 150.033 27, 134.783 60.231, 136.143 61.082 C 136.670 61.411, 136.167 63.778, 134.984 66.537 L 132.895 71.412 129.259 66.196 C 125.964 61.468, 125.338 61.027, 122.562 61.487 C 120.878 61.766, 114.199 62.697, 107.721 63.557 L 95.941 65.120 86.471 57.502 C 81.262 53.313, 77 49.660, 77 49.385 C 77 49.109, 79.813 50.488, 83.250 52.447 L 89.500 56.010 97.500 47.431 L 105.500 38.852 114.178 44.926 C 122.712 50.899, 125 51.974, 125 50.009 C 125 48.006, 110.499 20.004, 109.516 20.108 C 108.957 20.168, 105.350 20.806, 101.500 21.527 M 70.764 29.837 C 50.559 33.501, 33.980 36.950, 33.921 37.500 C 33.862 38.050, 36.426 43.783, 39.618 50.239 L 45.423 61.979 39.666 67.110 C 36.499 69.933, 34.089 72.422, 34.310 72.643 C 34.614 72.947, 83.215 67.001, 90.851 65.726 C 91.888 65.553, 74.080 50.550, 63.166 42.402 C 62.356 41.798, 62.016 40.783, 62.409 40.147 C 62.900 39.353, 67.236 41.081, 76.240 45.660 L 89.356 52.329 96.928 44.138 C 101.093 39.632, 104.893 35.958, 105.373 35.973 C 105.853 35.988, 109.084 38.025, 112.552 40.500 C 116.021 42.975, 119.119 45, 119.438 45 C 119.756 45, 117.534 40.050, 114.500 34 C 111.466 27.950, 108.650 23.039, 108.242 23.087 C 107.834 23.134, 90.969 26.172, 70.764 29.837 M 110.589 65.791 L 98.678 67.320 102.553 70.410 C 104.684 72.110, 107.560 74.466, 108.944 75.646 L 111.460 77.792 109.427 86.146 L 107.395 94.500 109.848 103.730 C 111.689 110.659, 112.781 113.113, 114.226 113.572 C 115.285 113.908, 116.302 114.029, 116.487 113.841 C 116.672 113.654, 120.202 104.776, 124.331 94.113 L 131.838 74.726 128.278 69.363 C 126.319 66.413, 124.218 64.059, 123.608 64.131 C 122.999 64.203, 117.140 64.950, 110.589 65.791 M 82.791 69.418 C 78.001 70.059, 73.819 70.847, 73.498 71.169 C 73.176 71.491, 73.651 79.956, 74.553 89.980 L 76.193 108.206 73.018 111.481 L 69.844 114.756 79.172 118.464 L 88.500 122.171 96.352 133.651 C 100.670 139.964, 104.338 144.988, 104.502 144.815 C 104.666 144.642, 107.136 138.448, 109.989 131.052 C 114.911 118.294, 115.083 117.538, 113.339 116.336 C 112.327 115.639, 111.030 114.671, 110.455 114.186 C 109.880 113.700, 108.340 109.047, 107.034 103.845 C 104.711 94.590, 104.696 94.243, 106.330 87.738 C 107.248 84.081, 108 80.433, 108 79.631 C 108 77.649, 95.680 67.969, 93.358 68.126 C 92.336 68.195, 87.581 68.776, 82.791 69.418 M 52.970 87.075 C 43.912 94.245, 36.394 100.423, 36.264 100.805 C 36.034 101.484, 64.733 113, 66.655 113 C 67.189 113, 68.886 111.684, 70.427 110.076 L 73.228 107.152 71.970 91.326 C 71.277 82.622, 70.425 75.172, 70.076 74.770 C 69.726 74.369, 62.029 79.906, 52.970 87.075 M 46.346 139.268 C 34.711 151.496, 25.314 161.628, 25.464 161.784 C 25.613 161.940, 40.964 158.678, 59.578 154.534 C 78.192 150.390, 94.002 147, 94.711 147 C 99.440 147, 91.968 151.531, 62.560 166.497 C 44.191 175.846, 29.307 183.640, 29.486 183.819 C 29.664 183.998, 39.866 182.062, 52.155 179.518 C 95.399 170.565, 85.876 171.076, 128.645 175.415 C 149.254 177.506, 166.333 179, 166.599 178.735 C 166.864 178.469, 161.775 172.448, 155.290 165.354 C 147.457 156.784, 140.144 147.369, 133.500 137.302 C 127.768 128.616, 122.297 121.436, 120.681 120.477 C 119.130 119.558, 117.738 118.961, 117.586 119.153 C 117.435 119.344, 114.719 126.250, 111.551 134.500 C 108.383 142.750, 105.567 149.869, 105.294 150.319 C 105.020 150.769, 100.716 145.062, 95.728 137.636 L 86.659 124.134 77.340 120.567 C 72.215 118.605, 67.904 117.008, 67.761 117.018 C 67.617 117.029, 57.981 127.041, 46.346 139.268" stroke="none" fill="black" fill-rule="evenodd"/>
</svg>