<svg xmlns="http://www.w3.org/2000/svg" width="200" height="200" viewBox="0 0 200 200" version="1.1">
	<path d="M 121.175 24.612 L 81.849 33.025 73.675 39.137 C 69.179 42.499, 64.600 46.282, 63.500 47.545 C 62.300 48.922, 54.604 52.589, 44.252 56.714 C 28.422 63.024, 26.429 64.104, 20.002 69.858 C 16.151 73.306, 13 76.773, 13 77.563 C 13 78.354, 13.188 79, 13.417 79 C 13.646 79, 23.556 75.400, 35.438 71 C 47.321 66.600, 57.258 63, 57.521 63 C 57.785 63, 58 76.964, 58 94.031 L 58 125.062 47.869 161.281 C 42.298 181.201, 37.509 198.102, 37.229 198.838 C 36.876 199.762, 37.419 200.072, 38.985 199.838 C 40.970 199.542, 42.988 195.077, 55.184 164 C 62.847 144.475, 69.437 128.175, 69.829 127.779 C 70.221 127.382, 76.080 136.289, 82.849 147.571 L 95.155 168.084 93.143 174.042 L 91.131 180 95.842 180 C 98.433 180, 119.204 178.650, 142 177 C 164.796 175.350, 184.284 174, 185.307 174 C 186.330 174, 187.017 173.586, 186.833 173.079 C 186.650 172.573, 179.412 165.568, 170.750 157.512 C 162.088 149.456, 155.013 142.333, 155.029 141.683 C 155.045 141.032, 163.091 127, 172.909 110.500 C 182.727 94, 190.476 80.230, 190.130 79.900 C 189.783 79.570, 174.200 78.475, 155.500 77.468 C 135.248 76.377, 122.713 75.341, 124.500 74.906 C 126.150 74.504, 131.782 73.427, 137.015 72.512 L 146.529 70.849 153.921 45.174 C 163.016 13.585, 162.402 15.981, 161.367 16.099 C 160.890 16.154, 142.804 19.985, 121.175 24.612 M 138.515 23.725 C 129.723 25.669, 122.073 27.790, 121.515 28.437 C 118.865 31.511, 111.892 35.011, 109.575 34.430 C 107.037 33.792, 104.967 35.957, 103.539 40.744 C 103.010 42.514, 103.199 42.861, 104.435 42.387 C 107.031 41.390, 106.252 44.564, 103.604 45.770 C 101.691 46.642, 99.679 50.737, 93.614 66.104 L 86.019 85.345 94.697 101.673 L 103.374 118 112.937 117.993 L 122.500 117.986 138.500 104.411 C 147.300 96.945, 155.130 90.226, 155.901 89.481 C 156.671 88.736, 151.561 89.898, 144.544 92.063 C 134.729 95.092, 130.138 95.999, 124.643 95.996 C 113.286 95.989, 91.996 94.749, 92.038 94.096 C 92.059 93.768, 98.588 85.876, 106.546 76.558 C 114.505 67.241, 120.676 59.319, 120.258 58.956 C 119.841 58.592, 117.362 57.720, 114.750 57.017 C 112.016 56.282, 110 55.159, 110 54.370 C 110 53.617, 110.306 53, 110.679 53 C 111.395 53, 125.238 57.245, 125.864 57.656 C 126.065 57.788, 123.224 61.341, 119.552 65.552 C 115.879 69.763, 113.046 73.379, 113.256 73.589 C 113.465 73.799, 120.539 72.722, 128.976 71.196 L 144.314 68.422 151.138 44.961 C 154.891 32.057, 157.970 21.163, 157.981 20.750 C 158.011 19.577, 155.610 19.944, 138.515 23.725 M 92.807 33.353 C 83.981 35.308, 82.416 36.026, 75.307 41.383 C 71.013 44.618, 68.175 47.032, 69 46.746 C 77.847 43.680, 104 32.585, 104 31.897 C 104 30.812, 104.675 30.724, 92.807 33.353 M 83.894 43.799 C 67.911 50.248, 67.325 50.584, 68.296 52.750 C 68.852 53.987, 69.799 54.975, 70.403 54.945 C 71.006 54.914, 77.768 52.512, 85.430 49.607 C 98.944 44.482, 99.397 44.215, 100.627 40.662 C 101.325 38.648, 101.581 37.022, 101.198 37.049 C 100.814 37.076, 93.027 40.113, 83.894 43.799 M 84.183 52.777 C 74.080 56.555, 71.949 57.697, 72.325 59.133 C 73.261 62.715, 84.366 82.402, 84.768 81.195 C 84.998 80.505, 88.019 72.754, 91.482 63.970 C 94.944 55.187, 97.489 48.039, 97.138 48.086 C 96.787 48.133, 90.958 50.244, 84.183 52.777 M 45.500 59.096 C 32.812 64.259, 27.359 67.028, 24 70.011 L 19.500 74.008 24.500 72.136 C 27.250 71.106, 35.912 67.881, 43.750 64.969 C 56.509 60.229, 58 59.430, 58 57.337 C 58 55.926, 58.595 55, 59.500 55 C 60.325 55, 61 55.724, 61 56.608 C 61 57.863, 61.604 58.065, 63.748 57.527 C 65.259 57.148, 66.646 56.688, 66.829 56.504 C 67.538 55.795, 64.865 52.005, 63.715 52.089 C 63.047 52.138, 54.850 55.292, 45.500 59.096 M 64.692 60.250 C 63.147 61.393, 63.607 62.959, 70.051 78.500 C 73.928 87.850, 77.457 95.857, 77.893 96.293 C 78.329 96.729, 79.639 94.497, 80.805 91.334 L 82.923 85.582 75.815 72.291 C 71.906 64.981, 68.184 59, 67.545 59 C 66.905 59, 65.622 59.563, 64.692 60.250 M 60.998 94.583 L 60.997 124.500 53.468 151.387 C 49.328 166.174, 46.066 178.393, 46.220 178.539 C 46.608 178.906, 76.341 102.766, 76.300 101.513 C 76.265 100.466, 62.089 65.824, 61.392 65.083 C 61.176 64.854, 60.999 78.129, 60.998 94.583 M 103.103 84.884 L 97.001 91.767 103.250 92.375 C 106.688 92.709, 114.450 93.057, 120.500 93.147 C 130.983 93.304, 132.213 93.093, 146.653 88.656 C 154.987 86.095, 162.300 84, 162.903 84 C 166.017 84, 162.347 87.834, 146.150 101.500 L 128.373 116.500 142.186 116.777 C 152.592 116.986, 156 117.370, 156 118.334 C 156 119.265, 151.293 120.019, 138.657 121.110 L 121.315 122.608 116.643 126.436 C 114.074 128.541, 111.704 131.330, 111.378 132.632 C 111.051 133.934, 110.494 134.998, 110.142 134.997 C 109.789 134.995, 108.171 132.529, 106.546 129.517 C 103.696 124.234, 103.468 124.058, 100.046 124.514 C 98.096 124.774, 91.588 125.440, 85.584 125.993 C 79.580 126.546, 74.536 127.131, 74.374 127.292 C 74.212 127.454, 79.510 136.662, 86.148 147.754 L 98.215 167.920 96.610 172.630 C 95.728 175.220, 95.117 177.404, 95.253 177.482 C 95.675 177.727, 180.478 171.685, 180.868 171.383 C 181.070 171.226, 177.245 167.367, 172.368 162.807 C 167.491 158.247, 160.647 151.793, 157.161 148.466 L 150.822 142.417 168.488 112.619 C 178.205 96.230, 185.979 82.646, 185.765 82.432 C 185.358 82.024, 119.210 78.006, 112.853 78.002 C 109.600 78, 108.546 78.744, 103.103 84.884 M 82.245 94.789 C 81.010 97.974, 79.996 101.011, 79.992 101.539 C 79.987 102.068, 81.419 105.987, 83.174 110.250 L 86.364 118 93.266 118 C 97.061 118, 100.017 117.657, 99.833 117.238 C 99.069 115.492, 84.852 89, 84.679 89 C 84.575 89, 83.480 91.605, 82.245 94.789 M 77.212 108 C 76.671 109.375, 75.054 113.388, 73.616 116.918 C 72.179 120.448, 71.215 123.549, 71.475 123.808 C 71.734 124.067, 78.821 123.606, 87.223 122.783 C 102.492 121.289, 102.495 121.288, 93.500 121.133 L 84.500 120.978 81.347 113.239 C 78.415 106.044, 78.124 105.676, 77.212 108 M 109.750 123.716 C 106.701 124.178, 106.474 124.724, 108.318 127.149 C 109.457 128.646, 109.891 128.533, 113.036 125.926 C 116.680 122.905, 116.390 122.710, 109.750 123.716" stroke="none" fill="black" fill-rule="evenodd"/>
</svg>