<svg xmlns="http://www.w3.org/2000/svg" width="200" height="200" viewBox="0 0 200 200" version="1.1">
	<path d="M 122.327 21.567 L 100.154 31.930 79.843 32.629 L 59.531 33.327 51.016 39.489 L 42.500 45.652 42.468 86.576 L 42.435 127.500 35.542 148.689 L 28.648 169.879 31.463 176.501 C 33.011 180.143, 34.623 182.758, 35.045 182.311 C 35.467 181.865, 41.870 174.218, 49.272 165.317 L 62.732 149.135 68.958 133.605 L 75.184 118.076 96.342 117.788 L 117.500 117.500 131.838 122.933 L 146.176 128.366 160.099 127.339 C 167.756 126.774, 174.269 126.065, 174.571 125.762 C 174.874 125.459, 175.601 114.821, 176.187 102.121 L 177.252 79.031 170.876 68.421 C 167.369 62.586, 163.908 57.570, 163.185 57.274 C 162.462 56.978, 153.462 59.009, 143.185 61.787 C 126.139 66.394, 123.294 66.881, 110.750 67.335 C 103.188 67.608, 97 67.692, 97 67.521 C 97 67.349, 105.174 62.119, 115.164 55.898 L 133.328 44.587 144.414 43.863 C 150.511 43.465, 156.023 43.108, 156.661 43.070 C 157.663 43.010, 165.472 22, 164.492 22 C 164.293 22, 157.013 26.466, 148.315 31.925 L 132.500 41.850 120 42.554 L 107.500 43.259 122 32.072 C 153.106 8.075, 153.134 7.169, 122.327 21.567 M 116 27.543 L 100.500 34.938 89.500 35.069 C 83.450 35.141, 74.225 35.496, 69 35.857 C 59.503 36.513, 59.497 36.515, 52.394 41.733 L 45.287 46.952 45.264 87.726 L 45.241 128.500 38.621 147.971 C 34.979 158.680, 32 168.188, 32 169.099 C 32 170.010, 32.691 172.409, 33.535 174.430 L 35.071 178.105 47.533 163.157 L 59.996 148.208 66.759 131.854 L 73.522 115.500 96.451 115.231 L 119.380 114.961 133.440 120.398 L 147.500 125.835 160 124.668 L 172.500 123.500 173.365 101.370 L 174.230 79.240 168.365 69.629 C 165.139 64.343, 162.050 60.016, 161.500 60.013 C 160.950 60.010, 153.075 62.059, 144 64.566 C 128.407 68.874, 126.491 69.172, 109.143 70.003 C 99.046 70.486, 90.519 71.147, 90.194 71.473 C 89.606 72.061, 113.356 71.422, 128.370 70.445 C 137.368 69.860, 137.250 69.578, 131.651 78.331 C 128.459 83.322, 126.967 84.395, 108.583 94.927 C 96.242 101.997, 88.332 105.958, 87.325 105.571 C 86.444 105.233, 82.220 102.680, 77.939 99.899 L 70.156 94.842 69.555 87.171 C 69.224 82.952, 68.727 77.386, 68.449 74.802 C 67.954 70.189, 68.025 70.046, 72.434 66.802 C 74.902 64.986, 76.940 63.153, 76.961 62.728 C 76.982 62.303, 75.172 58.319, 72.937 53.874 C 70.702 49.430, 69.072 45.594, 69.315 45.352 C 69.558 45.109, 76.899 44.653, 85.628 44.338 C 96.648 43.941, 102.186 43.338, 103.742 42.365 C 107.700 39.892, 133.234 19.997, 132.351 20.074 C 131.883 20.115, 124.525 23.476, 116 27.543 M 149.603 34.285 L 139.705 40.500 146.503 40.799 C 150.242 40.964, 153.856 40.886, 154.533 40.626 C 155.472 40.265, 160.543 27.870, 159.684 28.035 C 159.583 28.055, 155.046 30.867, 149.603 34.285 M 111.593 45.746 L 103.686 46.090 93.093 54.191 C 87.267 58.646, 82.121 62.628, 81.657 63.039 C 81.194 63.449, 81.322 64.734, 81.943 65.893 C 82.782 67.460, 84.030 68, 86.819 68 C 89.865 68, 94.024 65.844, 109 56.500 C 126.019 45.881, 127.128 45.015, 123.466 45.201 C 121.285 45.312, 115.942 45.557, 111.593 45.746 M 86.500 46.727 C 80.450 46.893, 74.926 47.237, 74.225 47.493 C 73.298 47.830, 73.808 49.670, 76.093 54.228 C 77.822 57.678, 79.363 60.642, 79.518 60.816 C 79.871 61.214, 96.742 48.226, 97.533 46.947 C 97.855 46.426, 97.979 46.096, 97.809 46.212 C 97.639 46.329, 92.550 46.561, 86.500 46.727 M 74.243 68.777 L 70.987 71.500 71.836 82.260 C 72.304 88.178, 72.869 93.171, 73.093 93.355 C 74.761 94.730, 86.247 102.157, 87.374 102.590 C 88.151 102.888, 97.209 98.281, 107.504 92.351 C 121.432 84.328, 126.832 80.670, 128.610 78.053 C 129.925 76.118, 131 74.163, 131 73.708 C 131 73.252, 126.838 73.124, 121.750 73.424 C 116.662 73.723, 105.075 74.221, 96 74.530 L 79.500 75.091 82.500 73.052 C 85.119 71.272, 85.234 71.012, 83.411 71.007 C 82.156 71.003, 80.866 70.001, 80.182 68.500 C 78.762 65.383, 78.275 65.406, 74.243 68.777" stroke="none" fill="black" fill-rule="evenodd"/>
</svg>