<svg xmlns="http://www.w3.org/2000/svg" width="200" height="200" viewBox="0 0 200 200" version="1.1">
	<path d="M 104.949 11.380 C 104.702 11.625, 92.575 12.123, 78 12.485 C 63.425 12.848, 48.595 13.449, 45.043 13.822 L 38.587 14.500 34.412 35.399 L 30.236 56.298 33.118 63.286 C 34.703 67.130, 36 71.045, 36 71.987 C 36 72.929, 32.175 82.834, 27.500 94 C 22.825 105.166, 19 114.804, 19 115.418 C 19 117.460, 39.705 137.300, 41 136.500 C 41.814 135.997, 38.830 132.353, 31.946 125.446 L 21.677 115.142 30.351 94.321 C 35.122 82.869, 39.020 72.774, 39.013 71.888 C 39.006 71.001, 37.670 67.049, 36.044 63.106 L 33.088 55.938 36.928 36.850 C 39.217 25.473, 41.320 17.412, 42.134 16.896 C 42.885 16.420, 46.217 16.024, 49.537 16.015 L 55.575 16 58.824 25.912 L 62.073 35.825 72.061 45.411 L 82.048 54.998 73.154 70.069 L 64.260 85.140 65.645 89.865 C 66.886 94.096, 66.719 97.968, 64.053 126.924 C 62.416 144.707, 60.946 159.351, 60.788 159.465 C 56.505 162.553, 31.771 178.099, 31.535 177.851 C 31.352 177.658, 32.504 170.750, 34.096 162.500 C 35.687 154.250, 36.992 147.387, 36.995 147.250 C 36.998 147.113, 36.381 147, 35.624 147 C 34.634 147, 33.261 152.126, 30.735 165.250 C 28.804 175.287, 27.345 183.635, 27.494 183.799 C 27.643 183.964, 35.914 178.789, 45.874 172.299 C 61.269 162.268, 63.988 160.125, 64.024 158 C 64.048 156.625, 65.350 141.847, 66.919 125.160 C 69.356 99.234, 69.591 94.136, 68.531 90.119 L 67.291 85.418 76.108 70.459 C 80.957 62.232, 84.893 55.050, 84.855 54.500 C 84.817 53.950, 80.390 49.450, 75.017 44.500 C 65.934 36.133, 65.057 34.983, 62.555 28.151 C 61.075 24.109, 60.007 20.683, 60.182 20.538 C 60.357 20.392, 73.236 31.546, 88.802 45.323 L 117.103 70.373 101.877 85.623 C 84.663 102.864, 84.851 100.956, 100.145 103.220 L 108.790 104.500 98.601 131.899 L 88.412 159.298 77.692 172.835 C 71.012 181.270, 67.325 186.725, 67.910 187.310 C 68.495 187.895, 79.010 181.039, 95.807 169.119 C 110.634 158.597, 123.220 149.429, 123.777 148.744 C 124.334 148.060, 127.156 141.741, 130.048 134.703 C 132.940 127.664, 135.616 122.264, 135.996 122.703 C 136.375 123.141, 141.367 137.113, 147.090 153.750 C 152.812 170.387, 157.776 184, 158.121 184 C 159.032 184, 186 157.945, 186 157.066 C 186 156.658, 174.975 147.674, 161.500 137.101 C 146.214 125.108, 137 117.222, 137 116.134 C 137 114.779, 142.235 112.398, 160.500 105.447 C 173.425 100.528, 184 96.009, 184 95.405 C 184 94.276, 168.355 93.013, 154.250 93.005 L 147 93 147.006 85.250 C 147.009 80.987, 147.300 73.900, 147.652 69.500 L 148.292 61.500 162.641 54.579 C 170.533 50.772, 176.732 47.397, 176.415 47.079 C 176.099 46.760, 167.224 44.916, 156.694 42.979 L 137.547 39.458 131.405 25.479 L 125.263 11.500 115.331 11.217 C 109.868 11.062, 105.197 11.135, 104.949 11.380 M 79.635 15.101 C 69.260 15.538, 60.628 16.039, 60.454 16.212 C 60.280 16.386, 73.867 28.632, 90.646 43.424 L 121.154 70.320 106.903 84.597 C 90.922 100.607, 91.169 99.014, 104.369 100.915 C 108.147 101.459, 111.484 102.151, 111.785 102.452 C 112.086 102.753, 107.468 116.022, 101.523 131.938 C 90.811 160.618, 90.652 160.954, 83.764 169.513 C 79.942 174.262, 76.969 178.297, 77.157 178.479 C 77.346 178.660, 87.458 171.765, 99.628 163.155 L 121.757 147.500 127.387 134 C 130.484 126.575, 133.014 120.079, 133.009 119.564 C 133.004 119.050, 132.125 117.697, 131.055 116.559 L 129.111 114.489 152.774 105.494 L 176.437 96.500 160.066 96.224 L 143.695 95.949 144.348 83.817 C 144.706 77.145, 145 69.073, 145 65.880 L 145 60.074 157.081 54.339 C 165.958 50.125, 168.676 48.427, 167.331 47.937 C 166.324 47.571, 158.750 46.044, 150.500 44.545 C 142.250 43.045, 135.462 41.747, 135.416 41.659 C 135.370 41.572, 132.670 35.321, 129.416 27.768 L 123.500 14.037 111 14.171 C 104.125 14.245, 90.011 14.663, 79.635 15.101 M 140 124.271 C 140 125.184, 157.939 177.069, 158.765 178.545 C 159.363 179.613, 162.427 177.098, 170.998 168.502 C 177.906 161.574, 182.051 156.696, 181.467 156.182 C 180.743 155.544, 152.607 133.536, 141.250 124.725 C 140.563 124.192, 140 123.987, 140 124.271" stroke="none" fill="black" fill-rule="evenodd"/>
</svg>