<svg xmlns="http://www.w3.org/2000/svg" width="200" height="200" viewBox="0 0 200 200" version="1.1">
	<path d="M 164.652 24.121 C 160.563 25.738, 155.477 26.193, 132.152 27.028 C 116.943 27.573, 91.225 28.688, 75 29.506 C 58.775 30.324, 44.487 30.994, 43.250 30.996 C 41.993 30.998, 41 31.616, 41 32.396 C 41 34.114, 53.798 34.722, 105.204 35.444 L 140.908 35.945 147.581 33.433 C 151.252 32.052, 154.381 31.052, 154.536 31.211 C 154.691 31.370, 150.478 33.968, 145.174 36.985 L 135.531 42.471 110.750 45.708 L 85.969 48.946 60.234 47.095 C 46.081 46.078, 34.405 45.322, 34.290 45.416 C 34.174 45.510, 34.707 61.686, 35.474 81.362 L 36.868 117.138 26.958 151.293 C 20.240 174.449, 17.376 185.776, 18.066 186.466 C 18.756 187.156, 19.311 187.140, 19.792 186.417 C 20.842 184.836, 57.252 133.580, 57.720 133.023 C 58.155 132.505, 85.302 130.085, 85.808 130.518 C 85.977 130.663, 75.758 144.439, 63.098 161.131 C 49.207 179.446, 40.442 191.842, 40.993 192.393 C 41.545 192.945, 53.127 186.062, 70.203 175.035 C 97.620 157.331, 99.075 156.537, 117 149.493 C 127.175 145.495, 135.648 142.359, 135.830 142.525 C 136.011 142.690, 131.790 154.357, 126.451 168.451 C 121.111 182.544, 116.913 194.211, 117.121 194.376 C 117.519 194.691, 177.162 153.288, 178.991 151.427 C 179.738 150.667, 172.759 146.286, 155.100 136.427 C 141.379 128.767, 130.456 122.229, 130.827 121.898 C 131.197 121.566, 136.225 119.605, 142 117.539 C 151.194 114.250, 153.215 113.086, 158.250 108.173 C 161.412 105.087, 164 102.280, 164 101.935 C 164 101.590, 153.537 100.528, 140.750 99.576 C 119.705 98.009, 115.224 97.977, 93.500 99.243 C 80.300 100.013, 69.380 100.565, 69.234 100.471 C 69.087 100.377, 79.055 96.584, 91.385 92.043 L 113.802 83.785 142.589 86.871 C 158.422 88.569, 171.609 89.725, 171.893 89.440 C 172.320 89.013, 169.087 48.394, 167.322 32 C 166.868 27.780, 167.033 27.392, 169.984 25.759 C 171.714 24.802, 172.849 23.564, 172.506 23.009 C 171.676 21.666, 170.407 21.846, 164.652 24.121 M 125.500 30.048 C 117.250 30.430, 106 30.866, 100.500 31.018 C 90.844 31.285, 90.707 31.320, 96.500 32.038 C 99.800 32.448, 111.275 32.807, 122 32.836 C 138.937 32.881, 142.092 32.640, 146 31 L 150.500 29.112 145.500 29.233 C 142.750 29.300, 133.750 29.667, 125.500 30.048 M 153 35.634 L 143.500 41.197 150 40.558 C 153.575 40.207, 157.963 39.663, 159.750 39.349 C 162.201 38.918, 163 39.139, 163 40.247 C 163 41.363, 159.579 42.266, 148.750 44.006 C 136.196 46.023, 133.697 46.759, 127.750 50.192 C 124.037 52.335, 121 54.518, 121 55.044 C 121 55.570, 120.213 56.014, 119.250 56.030 C 118.287 56.047, 113.225 58.538, 108 61.568 C 102.775 64.597, 99.681 66.799, 101.124 66.461 C 102.567 66.123, 115.841 61.873, 130.622 57.015 C 149.657 50.760, 157.711 48.522, 158.234 49.342 C 158.844 50.298, 123.874 62.479, 86.141 74.455 C 84.612 74.940, 84 74.712, 84 73.657 C 84 72.810, 89.809 68.836, 97.621 64.340 L 111.241 56.500 81.621 56.235 C 57.337 56.018, 52 55.723, 52 54.600 C 52 53.675, 53.867 53.018, 57.750 52.575 C 70.275 51.147, 69.490 50.568, 53.500 49.437 C 44.700 48.814, 37.386 48.388, 37.246 48.489 C 37.107 48.591, 37.609 63.935, 38.363 82.587 L 39.733 116.500 31.311 145.861 C 26.678 162.009, 23.083 175.417, 23.321 175.655 C 23.635 175.968, 49.986 139.893, 56.050 130.850 C 56.562 130.085, 90.959 126.625, 91.607 127.273 C 91.769 127.436, 82.883 139.479, 71.860 154.035 C 47.692 185.947, 47.218 186.601, 49.053 185.469 C 49.849 184.979, 60.850 177.843, 73.500 169.611 C 96.040 154.943, 96.940 154.471, 118.500 145.960 C 130.600 141.184, 140.621 137.373, 140.769 137.490 C 140.917 137.608, 137.381 147.334, 132.912 159.102 C 128.443 170.871, 124.173 182.205, 123.423 184.289 L 122.061 188.079 131.825 181.289 C 137.195 177.555, 149.089 169.325, 158.257 163 C 167.425 156.675, 174.934 151.275, 174.944 151 C 174.953 150.725, 163.714 144.261, 149.969 136.636 C 136.224 129.011, 124.754 122.412, 124.482 121.971 C 124.210 121.531, 125.903 120.457, 128.244 119.586 C 130.585 118.715, 136.732 116.447, 141.905 114.547 C 152.187 110.769, 159.750 105.177, 156.274 103.921 C 155.298 103.569, 146.625 102.703, 137 101.996 C 120.278 100.770, 93.555 101.385, 66.397 103.622 C 60.727 104.089, 59.181 103.915, 58.738 102.758 C 58.310 101.644, 64.576 98.956, 85.841 91.129 L 113.500 80.950 141 83.881 C 156.125 85.493, 168.693 86.624, 168.929 86.394 C 169.385 85.949, 165.248 36.063, 164.439 32.250 C 164.177 31.012, 163.633 30.016, 163.231 30.036 C 162.829 30.055, 158.225 32.575, 153 35.634 M 113.500 49.677 C 109.100 50.486, 99.650 51.492, 92.500 51.911 L 79.500 52.674 98.500 52.832 C 117.077 52.986, 117.589 52.935, 121.500 50.526 C 126.189 47.638, 125.171 47.530, 113.500 49.677" stroke="none" fill="black" fill-rule="evenodd"/>
</svg>