<svg xmlns="http://www.w3.org/2000/svg" width="200" height="200" viewBox="0 0 200 200" version="1.1">
	<path d="M 98 24.057 C 52.933 31.454, 56 30.835, 56 32.545 C 56 33.789, 60.853 34, 89.500 34 C 118.429 34, 123 33.798, 123 32.518 C 123 31.258, 119.448 30.996, 99.280 30.768 L 75.560 30.500 105.530 25.736 C 122.013 23.115, 135.816 20.978, 136.201 20.986 C 136.587 20.994, 136.676 24.938, 136.399 29.750 C 135.489 45.551, 136.351 44.064, 123.712 51.627 C 117.546 55.318, 111.699 58.876, 110.719 59.534 C 109.139 60.597, 109.984 61.477, 118.219 67.353 C 125.202 72.336, 128.331 73.979, 130.857 73.988 C 133.505 73.997, 134.086 74.334, 133.607 75.582 C 133.273 76.452, 132.985 79.264, 132.967 81.832 C 132.934 86.499, 132.932 86.501, 124.967 92.344 C 120.585 95.559, 117 98.575, 117 99.046 C 117 99.518, 119.025 101.297, 121.500 103 C 123.975 104.703, 126 106.713, 126 107.468 C 126 108.222, 123.525 114.107, 120.500 120.545 C 114.870 132.526, 114.025 135.391, 116.289 134.823 C 117.835 134.435, 141.882 115.762, 141.952 114.895 C 141.978 114.562, 139.333 112.419, 136.074 110.133 L 130.149 105.977 137.416 90.238 L 144.683 74.500 154.091 73.741 C 159.266 73.323, 166.595 73.098, 170.377 73.241 L 177.254 73.500 159.174 87 C 149.230 94.425, 141.073 100.743, 141.047 101.040 C 141.021 101.337, 150.441 112.334, 161.980 125.477 C 173.519 138.620, 182.856 149.455, 182.730 149.555 C 182.603 149.654, 175.300 149.421, 166.500 149.036 C 156.559 148.601, 143.598 148.805, 132.276 149.574 L 114.052 150.811 95.790 167.336 C 85.746 176.425, 77.417 183.750, 77.281 183.614 C 77.145 183.478, 77.939 175.747, 79.045 166.434 L 81.055 149.500 73.528 142.127 C 69.387 138.071, 66 134.674, 66 134.577 C 66 134.480, 70.500 130.643, 76 126.050 C 81.500 121.457, 85.982 117.429, 85.961 117.099 C 85.940 116.770, 84.427 107.950, 82.599 97.500 L 79.276 78.500 76.267 85 C 74.612 88.575, 68.904 100.950, 63.582 112.500 L 53.907 133.500 38.703 148.815 C 30.342 157.238, 22.733 164.555, 21.796 165.075 C 20.786 165.636, 25.163 155.583, 32.546 140.386 C 39.396 126.286, 45 114.201, 45 113.531 C 45 112.860, 41.442 104.112, 37.093 94.089 C 32.135 82.665, 29.617 75.733, 30.343 75.510 C 30.979 75.314, 38.054 73.589, 46.065 71.676 L 60.630 68.198 74.033 71.268 L 87.436 74.338 102.766 58.419 C 119.820 40.710, 123.610 36.276, 122.577 35.243 C 121.907 34.574, 117.358 39.062, 96.077 61.384 L 86.654 71.268 73.658 68.331 L 60.661 65.394 44.081 69.325 C 34.961 71.487, 27.108 73.613, 26.628 74.050 C 26.148 74.487, 29.411 83.278, 33.878 93.586 C 38.345 103.894, 42.011 112.816, 42.024 113.414 C 42.036 114.011, 35.654 127.670, 27.841 143.767 C 18.885 162.218, 13.985 173.385, 14.583 173.983 C 15.181 174.581, 22.939 167.775, 35.573 155.568 L 55.614 136.205 66.492 112.587 C 72.474 99.597, 77.663 89.313, 78.024 89.734 C 78.384 90.155, 79.470 95.225, 80.437 101 C 81.404 106.775, 82.412 112.636, 82.678 114.025 C 83.098 116.224, 81.797 117.691, 72.580 125.409 C 66.761 130.282, 62 134.375, 62 134.504 C 62 134.634, 65.630 138.297, 70.067 142.646 L 78.134 150.552 75.997 168.793 C 74.822 178.826, 74.004 187.760, 74.180 188.645 C 74.400 189.750, 80.892 184.468, 94.910 171.781 L 115.319 153.307 134.910 152.185 C 147.533 151.462, 160.545 151.364, 171.500 151.910 C 180.850 152.376, 188.635 152.639, 188.801 152.495 C 188.966 152.350, 179.122 140.890, 166.925 127.027 C 148.333 105.897, 144.971 101.611, 146.124 100.512 C 146.881 99.792, 156.275 92.577, 167 84.478 L 186.500 69.755 166.304 70.478 L 146.107 71.202 156.100 49.481 C 161.596 37.534, 165.876 27.543, 165.611 27.277 C 165.216 26.883, 149.606 35.819, 140.231 41.806 L 137.962 43.255 138.511 35.877 C 138.812 31.820, 139.275 26.138, 139.538 23.250 L 140.017 18 136.759 18.115 C 134.966 18.179, 117.525 20.852, 98 24.057 M 149 39.658 L 138.500 45.974 137.849 51.237 C 137.491 54.132, 137.153 59.791, 137.099 63.813 L 137 71.127 140.208 70.813 C 143.328 70.509, 143.646 70.004, 151.722 52.542 C 156.290 42.664, 159.909 34.304, 159.764 33.963 C 159.619 33.621, 154.775 36.184, 149 39.658 M 124.193 54.528 L 113.886 60.757 120.928 65.878 C 125.538 69.231, 128.966 71, 130.856 71 L 133.743 71 134.461 59.923 C 134.856 53.830, 135.026 48.722, 134.839 48.572 C 134.653 48.422, 129.862 51.102, 124.193 54.528 M 136.079 80.250 C 136.122 83.688, 136.410 85.825, 136.719 85 C 137.028 84.175, 138.350 81.362, 139.657 78.750 L 142.034 74 139.017 74 L 136 74 136.079 80.250 M 128.016 93.188 C 124.449 95.909, 121.332 98.335, 121.089 98.578 C 120.625 99.041, 123.238 101.301, 126.283 103.070 C 127.841 103.975, 128.506 103.139, 131.568 96.421 C 133.494 92.194, 134.941 88.625, 134.785 88.489 C 134.628 88.352, 131.582 90.467, 128.016 93.188 M 124.412 118.636 C 121.952 123.936, 120.065 128.395, 120.220 128.544 C 120.374 128.693, 124.442 125.661, 129.259 121.806 L 138.019 114.796 134.018 111.898 C 131.818 110.304, 129.762 109, 129.451 109 C 129.139 109, 126.871 113.336, 124.412 118.636" stroke="none" fill="black" fill-rule="evenodd"/>
</svg>