<svg xmlns="http://www.w3.org/2000/svg" width="200" height="200" viewBox="0 0 200 200" version="1.1">
	<path d="M 91.560 27.583 C 83.342 39.977, 76.336 50.293, 75.989 50.507 C 75.642 50.721, 65.140 48.508, 52.651 45.589 C 40.162 42.671, 29.811 40.556, 29.649 40.891 C 29.487 41.226, 29.763 54.775, 30.261 71 L 31.166 100.500 26.550 131 L 21.934 161.500 27.175 166.125 L 32.417 170.751 48.950 159.699 C 63.408 150.035, 67.739 147.724, 83.439 141.293 C 93.315 137.248, 101.577 133.757, 101.799 133.534 C 102.436 132.897, 99.796 78.585, 99.089 77.778 C 98.741 77.381, 95.204 76.754, 91.228 76.385 C 87.253 76.015, 84 75.542, 84 75.333 C 84 75.124, 87.123 70.131, 90.940 64.239 C 95.380 57.385, 98.073 54.061, 98.415 55.013 C 100.521 60.868, 114.161 108.906, 114.171 110.500 C 114.177 111.600, 111.293 123.152, 107.761 136.170 L 101.339 159.840 94.110 168.150 C 90.135 172.721, 87.251 176.584, 87.703 176.734 C 88.154 176.885, 99.308 173.406, 112.488 169.004 C 125.669 164.602, 136.993 161, 137.652 161 C 138.312 161, 149.122 165.682, 161.676 171.403 C 174.229 177.125, 184.618 181.695, 184.762 181.558 C 185.492 180.865, 182.483 123, 181.717 123 C 181.224 123, 174.979 124.350, 167.839 126 C 160.698 127.650, 154.707 129, 154.525 129 C 154.343 129, 160.013 115.438, 167.125 98.861 C 174.237 82.285, 179.900 68.566, 179.708 68.375 C 179.517 68.184, 169.492 74.096, 157.430 81.513 L 135.500 94.999 133.835 82.749 C 132.919 76.012, 131.880 68.182, 131.525 65.348 L 130.881 60.196 134.690 59.635 C 136.786 59.327, 148.850 58.347, 161.500 57.458 C 174.150 56.568, 185.620 55.503, 186.989 55.091 C 189.333 54.384, 188.231 53.046, 167.989 32.008 L 146.500 9.675 145.270 15.588 C 144.593 18.839, 142.792 28.198, 141.267 36.384 L 138.495 51.268 132.105 30.384 C 128.590 18.898, 125.402 8.898, 125.019 8.162 C 124.572 7.304, 119.395 14.545, 110.579 28.358 C 97.427 48.965, 94.558 52.891, 93.455 51.789 C 93.182 51.516, 95.944 43.689, 99.592 34.396 C 103.241 25.103, 106.635 16.432, 107.135 15.128 C 107.928 13.057, 107.791 12.821, 106.055 13.275 C 104.206 13.759, 104.239 13.542, 106.534 10.165 C 109.306 6.086, 109.565 4.989, 107.750 5.024 C 107.063 5.037, 99.777 15.189, 91.560 27.583 M 111.688 31.689 L 99.903 50.237 108.452 79.478 C 113.153 95.560, 117 109.480, 117 110.411 C 117 111.341, 114.027 123.217, 110.394 136.801 C 103.884 161.141, 103.725 161.568, 99.394 166.207 C 96.977 168.796, 95 171.125, 95 171.383 C 95 171.640, 104.325 168.734, 115.723 164.925 C 127.121 161.116, 137.012 158, 137.703 158 C 138.394 158, 148.436 162.332, 160.020 167.627 C 171.603 172.921, 181.315 177.018, 181.602 176.731 C 182.062 176.272, 180.102 126.830, 179.603 126.287 C 179.495 126.170, 172.903 127.592, 164.954 129.446 C 157.004 131.301, 150.363 132.684, 150.195 132.521 C 150.027 132.357, 155.500 119.096, 162.358 103.053 C 172.083 80.303, 174.351 74.187, 172.664 75.265 C 160.531 83.012, 133.787 99.121, 133.513 98.847 C 133.112 98.445, 128 61.187, 128 58.661 C 128 57.359, 128.973 57, 132.500 57 C 134.975 57, 136.992 56.663, 136.982 56.250 C 136.960 55.281, 124.175 13.842, 123.776 13.442 C 123.610 13.276, 118.170 21.487, 111.688 31.689 M 91.156 33.242 L 78.994 51.500 83.233 52.755 C 85.564 53.445, 87.866 53.878, 88.348 53.717 C 89.272 53.409, 104.222 15.889, 103.650 15.316 C 103.467 15.134, 97.845 23.200, 91.156 33.242 M 147.666 17.374 C 145.649 26.141, 140.827 55.160, 141.306 55.640 C 141.828 56.161, 183.013 53.326, 183.602 52.728 C 183.726 52.603, 175.800 44.118, 165.991 33.874 C 151.014 18.233, 148.076 15.588, 147.666 17.374 M 32.403 52.750 C 32.708 57.563, 33.221 69.825, 33.543 80 C 34.122 98.272, 34.073 98.881, 29.544 129.373 C 24.599 162.666, 24.571 161.135, 30.198 165.141 L 33.074 167.189 48.287 156.869 C 61.362 147.999, 65.959 145.534, 81 139.325 L 98.500 132.102 98.393 119.801 C 98.334 113.035, 97.950 101.309, 97.540 93.743 C 96.700 78.247, 97.678 79.706, 87.349 78.539 L 82.197 77.957 75.599 88.308 C 71.969 94.002, 69.003 99.074, 69.006 99.580 C 69.009 100.086, 71.490 103.606, 74.520 107.402 C 77.551 111.198, 79.807 114.526, 79.536 114.798 C 78.420 115.914, 44.475 133.809, 44.130 133.463 C 43.924 133.257, 48.547 125.596, 54.405 116.439 L 65.055 99.790 59.528 92.948 C 56.487 89.185, 54 85.623, 54 85.032 C 54 84.441, 55.191 82.158, 56.646 79.958 C 58.102 77.759, 59.114 75.808, 58.896 75.623 C 58.678 75.438, 55.575 74.885, 52 74.393 L 45.500 73.500 56.500 68.715 C 66.712 64.274, 67.738 63.568, 70.821 58.870 C 72.648 56.086, 73.998 53.690, 73.821 53.546 C 73.333 53.145, 34.148 44, 32.922 44 C 32.199 44, 32.030 46.849, 32.403 52.750 M 75.152 57.229 C 74.031 58.999, 73.244 60.577, 73.402 60.736 C 73.561 60.894, 76.085 59.966, 79.013 58.674 C 84.434 56.282, 84.541 55.764, 79.845 54.643 C 77.615 54.111, 76.864 54.525, 75.152 57.229 M 80.500 60.968 C 72.132 64.708, 68.963 66.667, 67.256 69.155 C 64.469 73.217, 65.178 73.723, 74.292 74.169 L 81.050 74.500 87.027 65.250 C 90.314 60.163, 92.665 56.012, 92.251 56.026 C 91.838 56.040, 86.550 58.264, 80.500 60.968 M 59.219 70.337 C 57.964 71.034, 57.251 71.918, 57.635 72.302 C 58.970 73.636, 61.526 72.988, 62.768 71 C 64.269 68.596, 62.837 68.328, 59.219 70.337 M 59.630 80.476 L 56.761 85.088 61.187 90.697 C 63.621 93.782, 66.037 96.209, 66.556 96.092 C 67.075 95.974, 70.072 91.880, 73.215 86.995 C 79.661 76.978, 79.889 77.547, 69 76.493 L 62.500 75.864 59.630 80.476 M 61.917 109.750 C 59.572 113.463, 56.100 118.930, 54.200 121.901 L 50.745 127.302 62.623 121.026 C 69.155 117.574, 74.816 114.467, 75.203 114.122 C 75.967 113.440, 68.224 103, 66.954 103 C 66.528 103, 64.261 106.037, 61.917 109.750" stroke="none" fill="black" fill-rule="evenodd"/>
</svg>