<svg xmlns="http://www.w3.org/2000/svg" width="200" height="200" viewBox="0 0 200 200" version="1.1">
	<path d="M 111.500 22.035 L 73.500 30.830 55.500 38.985 C 45.600 43.469, 37.145 47.485, 36.711 47.908 C 36.277 48.331, 35.466 66.413, 34.909 88.089 L 33.895 127.500 28.399 154.368 C 25.376 169.146, 23.062 181.396, 23.257 181.590 C 23.563 181.896, 50.656 151.424, 55.116 145.757 C 56.677 143.773, 56.928 144.074, 62.506 154.602 C 65.681 160.596, 70.570 169.775, 73.370 175 L 78.462 184.500 79.981 171 C 81.349 158.843, 81.700 157.471, 83.508 157.212 C 84.613 157.054, 96.226 158.516, 109.316 160.462 C 122.405 162.408, 134.104 164, 135.313 164 C 137.420 164, 137.657 162.987, 141.078 139.433 L 144.645 114.865 142.600 113.433 C 140.738 112.128, 141.158 112, 147.277 112 C 150.975 112, 153.999 112.338, 153.998 112.750 C 153.997 113.162, 152.191 129.882, 149.985 149.903 C 147.779 169.925, 146.135 186.468, 146.333 186.666 C 146.530 186.863, 154.653 178.023, 164.383 167.020 L 182.074 147.016 174.897 120.094 L 167.719 93.173 172.772 70.836 C 175.551 58.551, 177.649 48.322, 177.434 48.105 C 177.220 47.888, 172.078 48.115, 166.009 48.610 C 156.352 49.397, 155.049 49.321, 155.573 48.005 C 158.744 40.039, 160.100 35.767, 159.612 35.278 C 159.291 34.957, 146.803 35.445, 131.862 36.362 C 116.921 37.279, 104.533 37.867, 104.334 37.668 C 104.135 37.469, 114.666 32.544, 127.736 26.724 C 142.493 20.153, 151.623 15.547, 151.823 14.571 C 152.001 13.707, 151.551 13.054, 150.823 13.120 C 150.095 13.186, 132.400 17.197, 111.500 22.035 M 102.912 26.867 C 75.317 33.270, 73.714 33.775, 56.719 41.435 C 39.170 49.344, 39.112 49.381, 38.598 52.935 C 38.314 54.896, 37.796 72.475, 37.447 92 L 36.813 127.500 32.387 148.941 C 29.953 160.734, 28.094 170.783, 28.258 171.273 C 28.421 171.763, 35.043 164.710, 42.973 155.601 L 57.391 139.037 60.742 145.269 C 62.586 148.696, 66.866 156.845, 70.255 163.377 C 73.643 169.909, 76.534 174.859, 76.678 174.377 C 76.822 173.895, 78.737 157.731, 80.932 138.459 L 84.925 103.417 83.112 91.691 C 82.115 85.242, 81.119 79.821, 80.900 79.644 C 80.680 79.467, 75.325 76.255, 69 72.505 C 55.059 64.240, 54.658 63.942, 55.841 62.759 C 56.409 62.191, 63.485 64.230, 74.133 68.028 C 97.249 76.273, 98.561 76.839, 97.356 78.044 C 96.691 78.709, 92.215 77.547, 83.966 74.568 C 77.150 72.106, 71.460 70.207, 71.320 70.347 C 71.180 70.487, 74.988 72.878, 79.783 75.661 L 88.500 80.721 113.308 83.969 C 126.952 85.756, 138.233 87.056, 138.377 86.859 C 139.015 85.982, 150.710 53.468, 150.484 53.199 C 150.345 53.034, 140.617 53.709, 128.866 54.699 C 117.115 55.690, 109.300 56.635, 111.500 56.799 C 117.202 57.226, 134.419 63.981, 133.119 65.281 C 132.424 65.976, 129.308 65.249, 123.372 63.009 L 114.645 59.715 82.661 60.108 C 60.201 60.383, 50.568 60.176, 50.310 59.413 C 50.108 58.815, 56.368 55.495, 64.221 52.035 C 72.074 48.574, 78.725 45.536, 79 45.282 C 79.275 45.028, 78.226 43.802, 76.668 42.558 L 73.836 40.294 78.558 39.647 C 81.154 39.291, 85.617 39, 88.474 39 C 93.440 39, 101.632 35.741, 133 21.287 C 137.884 19.037, 131.788 20.168, 102.912 26.867 M 141.917 38.375 C 141.688 38.581, 131.150 39.295, 118.500 39.961 C 97.791 41.052, 94.961 41.415, 90.092 43.604 L 84.684 46.034 87.092 48.615 C 93.405 55.380, 91.529 55.178, 122.585 52.445 C 137.938 51.094, 150.977 49.813, 151.561 49.598 C 152.144 49.384, 153.188 47.315, 153.882 45 C 154.575 42.686, 155.384 40.164, 155.678 39.396 C 156.105 38.284, 154.802 38, 149.274 38 C 145.456 38, 142.146 38.169, 141.917 38.375 M 81.442 42.906 C 81.750 43.404, 82.902 43.577, 84.001 43.289 C 86.753 42.570, 86.505 42, 83.441 42 C 82.034 42, 81.134 42.408, 81.442 42.906 M 70.129 52.416 L 58.757 57.500 71.671 57.778 C 78.773 57.930, 86.281 57.703, 88.354 57.272 L 92.124 56.489 86.812 51.910 L 81.500 47.332 70.129 52.416 M 160.335 51.738 L 154.170 52.091 148.172 68.296 C 144.873 77.208, 141.889 85.218, 141.540 86.095 C 141 87.451, 142.664 87.924, 152.703 89.268 C 159.191 90.136, 164.788 90.544, 165.140 90.173 C 165.762 89.519, 174 54.039, 174 52.014 C 174 51.456, 172.313 51.087, 170.250 51.193 C 168.188 51.299, 163.726 51.544, 160.335 51.738 M 85.004 84.750 C 85.010 87.344, 88.003 105.337, 88.514 105.847 C 88.930 106.263, 111.876 102.390, 114.948 101.385 C 116.225 100.967, 87.715 83.020, 85.750 83.006 C 85.338 83.003, 85.002 83.787, 85.004 84.750 M 106.956 92.084 C 121.371 100.741, 121.492 100.771, 131.858 98.293 C 134.049 97.769, 137.821 91.488, 136.649 90.315 C 136.285 89.952, 96.153 84.013, 94 84.005 C 93.725 84.003, 99.555 87.639, 106.956 92.084 M 138.913 93.209 C 138.263 94.779, 137.963 96.297, 138.248 96.581 C 138.532 96.865, 143.205 96.233, 148.632 95.177 C 159.270 93.107, 159.098 92.733, 146.798 91.193 L 140.096 90.355 138.913 93.209 M 149.399 97.755 C 136.432 100.259, 136.287 100.317, 135.149 103.463 C 133.145 109.006, 133.134 109, 144.941 109 C 150.959 109, 156.147 109.428, 156.470 109.952 C 156.794 110.475, 155.470 125.354, 153.529 143.016 C 151.588 160.677, 150 176.031, 150 177.135 C 150 178.487, 154.736 173.810, 164.496 162.821 C 172.468 153.845, 178.881 146.015, 178.746 145.422 C 178.611 144.829, 175.575 133.243, 172 119.673 C 167.073 100.973, 165.137 95.029, 164 95.113 C 163.175 95.174, 156.605 96.363, 149.399 97.755 M 127.547 101.870 L 124.593 102.503 127.463 104.384 C 130.237 106.201, 130.378 106.203, 131.667 104.441 C 134.180 101.004, 133.516 100.590, 127.547 101.870 M 111 104.973 L 102.500 106.701 109 107.424 C 112.575 107.822, 118.200 108.001, 121.500 107.823 L 127.500 107.500 123.693 105.250 C 121.599 104.013, 119.799 103.055, 119.693 103.123 C 119.587 103.190, 115.675 104.023, 111 104.973 M 87 109.468 C 87 109.775, 85.862 119.757, 84.471 131.651 C 83.080 143.544, 82.100 153.433, 82.292 153.626 C 82.485 153.819, 90.486 144.800, 100.072 133.584 L 117.500 113.191 117.784 124.829 C 117.940 131.230, 118.402 136.802, 118.811 137.211 C 119.220 137.620, 121.713 132.073, 124.352 124.885 C 126.991 117.698, 128.998 111.664, 128.812 111.478 C 128.626 111.292, 120.604 110.862, 110.987 110.522 C 101.369 110.182, 92.037 109.680, 90.250 109.406 C 88.463 109.133, 87 109.161, 87 109.468 M 125.540 129.500 C 121.262 141.113, 118.218 148, 117.362 148 C 116.304 148, 115.974 145.599, 115.882 137.250 C 115.674 118.412, 116.604 118.425, 100.647 137.036 C 93.028 145.923, 87.178 153.550, 87.647 153.985 C 88.721 154.982, 133.910 161.424, 134.648 160.685 C 134.948 160.386, 136.656 150.212, 138.445 138.077 L 141.697 116.012 137.420 113.506 C 135.068 112.128, 132.966 111, 132.750 111 C 132.533 111, 129.289 119.325, 125.540 129.500" stroke="none" fill="black" fill-rule="evenodd"/>
</svg>