<svg xmlns="http://www.w3.org/2000/svg" width="200" height="200" viewBox="0 0 200 200" version="1.1">
	<path d="M 112 25.967 C 52.150 32.516, 41 34.040, 41 35.671 C 41 36.402, 41.563 36.996, 42.250 36.991 C 42.938 36.987, 67.118 34.512, 95.985 31.491 C 124.852 28.471, 149.240 26, 150.182 26 C 151.508 26, 150.308 28.760, 144.859 38.250 C 140.990 44.987, 137.752 50.572, 137.663 50.659 C 137.573 50.747, 115.225 47.987, 88 44.527 C 60.775 41.066, 38.409 38.310, 38.298 38.403 C 38.187 38.495, 37.455 55.655, 36.672 76.535 L 35.248 114.500 28.083 153.409 C 23.679 177.330, 21.276 192.676, 21.846 193.246 C 23.019 194.419, 20.737 198.174, 46.609 152.516 C 66.867 116.768, 68.919 113.529, 71.109 113.848 C 72.424 114.039, 73.587 114.276, 73.692 114.373 C 73.798 114.471, 75.500 120.690, 77.473 128.193 L 81.062 141.836 77.971 148.168 L 74.880 154.500 80.690 167.859 C 83.885 175.206, 86.950 181.169, 87.500 181.111 C 88.050 181.052, 99.218 174.921, 112.317 167.485 C 125.417 160.049, 136.506 154.195, 136.960 154.475 C 137.414 154.756, 138.590 159.256, 139.573 164.475 C 140.556 169.694, 141.672 174.470, 142.053 175.087 C 143.119 176.810, 182.182 147.172, 181.562 145.110 C 181.296 144.224, 177.843 130.450, 173.888 114.500 C 169.933 98.550, 166.557 85.329, 166.385 85.119 C 166.212 84.909, 161.359 85.472, 155.599 86.369 C 142.512 88.407, 143.113 88.435, 142.109 85.750 C 139.520 78.831, 138.087 79.639, 158.553 76.478 C 176.108 73.768, 177.102 73.497, 176.598 71.571 C 174.924 65.170, 157.346 21.017, 156.506 21.104 C 155.953 21.161, 135.925 23.349, 112 25.967 M 140.497 51.217 C 132.249 65.548, 125.340 77.691, 125.145 78.202 C 124.939 78.741, 126.404 78.857, 128.645 78.478 C 135.753 77.275, 135.997 77.124, 135.012 74.532 C 134.358 72.811, 134.485 72.028, 135.480 71.646 C 136.345 71.314, 137.233 72.229, 137.898 74.136 C 138.666 76.339, 139.427 77.013, 140.724 76.637 C 141.701 76.355, 148.575 75.190, 156 74.048 C 163.425 72.907, 170.458 71.759, 171.630 71.497 C 173.664 71.043, 173.374 70.020, 165.119 48.583 C 160.366 36.242, 156.257 25.923, 155.986 25.653 C 155.716 25.382, 148.746 36.886, 140.497 51.217 M 40.932 42.250 C 40.894 42.388, 40.250 58.475, 39.501 78 L 38.138 113.500 32.064 147 C 28.724 165.425, 25.810 181.287, 25.589 182.250 C 25.368 183.213, 25.312 184, 25.465 184 C 25.617 184, 36.253 165.362, 49.098 142.581 C 61.944 119.801, 72.879 101.425, 73.397 101.746 C 73.917 102.067, 74.067 101.616, 73.730 100.740 C 73.254 99.499, 76.737 97.291, 89.682 90.629 C 103.161 83.692, 107.617 81.885, 113.625 80.915 L 121.008 79.724 128.004 67.493 C 131.852 60.766, 135 54.978, 135 54.631 C 135 53.829, 115.476 54.027, 111.566 54.868 C 109.044 55.411, 108.226 56.504, 105.743 62.644 L 102.853 69.787 80.177 63.867 C 67.704 60.611, 56.263 57.677, 54.750 57.348 C 53.237 57.019, 52 56.131, 52 55.375 C 52 54.619, 52.293 54, 52.650 54 C 53.008 54, 63.588 56.700, 76.163 60 C 88.738 63.300, 99.583 65.999, 100.263 65.998 C 100.943 65.997, 102.499 63.451, 103.720 60.340 L 105.941 54.684 84.970 55.337 C 67.793 55.872, 64 55.748, 64 54.651 C 64 53.209, 81.764 52.079, 106.909 51.921 C 113.834 51.878, 119.050 51.668, 118.500 51.455 C 115.338 50.230, 41.157 41.427, 40.932 42.250 M 129.650 81.049 C 126.982 81.497, 124.229 82.082, 123.531 82.350 C 121.878 82.984, 116.835 92, 118.134 92 C 118.680 92, 123.835 91.267, 129.590 90.370 C 141.050 88.585, 140.473 89.151, 137.891 82.250 C 136.987 79.832, 136.941 79.826, 129.650 81.049 M 111.500 83.946 C 107.242 84.687, 82.464 96.853, 85 96.958 C 85.825 96.992, 92.599 96.071, 100.053 94.911 L 113.605 92.802 116.360 87.901 C 119.420 82.458, 119.532 82.549, 111.500 83.946 M 152.639 89.549 C 148.315 90.286, 144.647 91.026, 144.488 91.194 C 144.328 91.363, 147.710 101.175, 152.002 113 C 156.294 124.825, 159.408 134.647, 158.920 134.828 C 158.175 135.103, 119.096 126.923, 113.750 125.373 C 112.787 125.094, 112 124.267, 112 123.536 C 112 122.623, 114.743 121.828, 120.750 121 C 137.770 118.652, 137.129 118.445, 107.172 116.615 C 91.041 115.630, 77.668 114.999, 77.454 115.213 C 77.240 115.427, 78.614 121.578, 80.506 128.881 L 83.948 142.161 80.899 148.201 L 77.850 154.241 82.591 165.370 C 85.199 171.492, 87.599 176.818, 87.924 177.208 C 88.249 177.597, 99.868 171.450, 113.743 163.548 L 138.972 149.181 139.921 152.840 C 140.443 154.853, 141.410 159.425, 142.070 163 C 142.730 166.575, 143.610 169.878, 144.024 170.339 C 144.439 170.801, 152.409 165.457, 161.736 158.464 L 178.694 145.750 171.539 117.125 C 163.410 84.603, 165.318 87.388, 152.639 89.549 M 127.837 93.372 L 115.173 95.347 113.154 98.923 C 111.196 102.393, 110.667 102.632, 95.538 106.887 C 86.959 109.299, 80.140 111.473, 80.385 111.718 C 81.034 112.368, 149.999 116.623, 150.008 116.014 C 150.024 115, 141.695 92.488, 141.104 91.948 C 140.772 91.645, 134.801 92.286, 127.837 93.372 M 91.508 98.889 C 73.375 101.742, 72.901 101.978, 74.880 107.185 L 75.841 109.713 92.616 104.849 C 107.820 100.440, 110.937 99.066, 110.985 96.750 C 111.004 95.795, 111.560 95.734, 91.508 98.889 M 70.636 109.506 C 70.288 110.413, 70.639 111, 71.531 111 C 73.149 111, 73.517 109.437, 72.105 108.565 C 71.612 108.260, 70.952 108.684, 70.636 109.506 M 137.500 121.203 C 130.350 122.230, 123.825 123.341, 123 123.673 C 122.151 124.015, 124.102 124.837, 127.500 125.570 C 130.800 126.281, 138.515 127.951, 144.644 129.281 L 155.789 131.699 153.872 126.127 C 152.817 123.062, 151.627 120.280, 151.227 119.946 C 150.827 119.611, 144.650 120.177, 137.500 121.203" stroke="none" fill="black" fill-rule="evenodd"/>
</svg>