<svg xmlns="http://www.w3.org/2000/svg" width="200" height="200" viewBox="0 0 200 200" version="1.1">
	<path d="M 54.306 12.808 C 53.426 13.354, 53.370 14.700, 54.092 17.915 C 54.632 20.316, 54.944 22.623, 54.787 23.041 C 54.629 23.459, 49.775 21.654, 44 19.031 C 38.225 16.407, 33.343 14.396, 33.152 14.561 C 32.735 14.922, 27.977 48.751, 24.468 76.299 L 21.947 96.097 27.123 115.299 L 32.300 134.500 28.552 161.852 C 26.035 180.225, 25.135 189.535, 25.812 190.212 C 26.489 190.889, 32.647 183.454, 44.569 167.563 L 62.318 143.906 61.633 110.078 L 60.948 76.251 65.417 75.125 C 67.875 74.506, 70.548 74, 71.357 74 C 72.284 74, 74.144 77.373, 76.388 83.124 L 79.947 92.247 81.684 126.174 L 83.421 160.100 97.792 168.026 C 112.153 175.947, 112.167 175.952, 117.987 175.344 L 123.811 174.735 125.533 178.117 C 127.683 182.341, 127.666 182.324, 128.829 181.605 C 129.400 181.253, 129.470 179.582, 129.001 177.505 C 128.566 175.577, 128.561 174, 128.989 174 C 130.496 174, 181.542 168.021, 184.750 167.469 C 186.537 167.161, 188 166.367, 187.999 165.705 C 187.998 165.042, 179.225 161.159, 168.503 157.075 C 151.229 150.496, 149.158 149.470, 150.328 148.075 C 151.054 147.209, 156.115 141.325, 161.576 135 C 167.037 128.675, 172.141 122.689, 172.919 121.697 C 174.209 120.052, 173.441 119.059, 164.166 110.365 C 158.575 105.124, 154 100.190, 154 99.400 C 154 96.744, 160.979 76.602, 165.918 65 C 169.290 57.081, 170.455 53.303, 169.658 52.867 C 169.021 52.518, 164.072 51.445, 158.661 50.483 L 148.822 48.732 149.161 33.865 C 149.347 25.688, 149.151 18.999, 148.724 18.999 C 148.297 19, 140.930 25.111, 132.354 32.580 C 123.777 40.049, 116.423 45.786, 116.011 45.330 C 115.600 44.873, 112.618 37.637, 109.385 29.250 C 106.152 20.863, 103.233 14, 102.898 14 C 102.563 14, 98.344 19.175, 93.521 25.500 C 88.699 31.825, 84.401 37, 83.971 37 C 83.540 37, 78.569 34.871, 72.922 32.269 L 62.657 27.539 59.078 19.803 C 56.668 14.591, 55.110 12.308, 54.306 12.808 M 35 18.848 C 35 19.380, 33.913 27.394, 32.585 36.657 C 31.257 45.921, 28.949 63.041, 27.456 74.702 L 24.742 95.904 29.951 115.222 L 35.159 134.541 32.086 157.021 C 30.396 169.384, 28.781 180.815, 28.497 182.423 C 28.134 184.479, 32.618 179.169, 43.615 164.522 L 59.250 143.698 58.821 108.835 L 58.393 73.971 61.946 73.093 C 75.023 69.861, 74.037 69.843, 75.486 73.334 C 82.944 91.305, 82.709 89.947, 84.509 125.500 C 85.428 143.650, 86.252 158.543, 86.340 158.596 C 86.428 158.648, 92.488 161.970, 99.806 165.977 C 112.880 173.136, 113.195 173.247, 117.891 172.381 L 122.670 171.500 97.909 115.157 C 84.290 84.169, 72.937 58.604, 72.680 58.346 C 72.422 58.089, 70.738 59.931, 68.936 62.439 C 67.135 64.948, 65.366 67, 65.006 67 C 64.645 67, 62.667 58.788, 60.609 48.750 C 58.551 38.712, 56.669 29.825, 56.427 29 C 56.184 28.175, 51.601 25.505, 46.243 23.068 C 40.884 20.630, 36.163 18.466, 35.750 18.259 C 35.337 18.052, 35 18.317, 35 18.848 M 97.692 24.549 C 95.151 27.822, 91.709 32.356, 90.042 34.625 L 87.010 38.751 111.550 50.043 C 125.047 56.254, 136.275 61.636, 136.502 62.003 C 136.728 62.369, 131.283 66.830, 124.401 71.915 L 111.889 81.161 120.195 88.972 C 124.763 93.268, 128.192 97.102, 127.815 97.493 C 127.438 97.884, 126.273 97.596, 125.226 96.852 C 121.823 94.435, 107.635 81.031, 108.073 80.648 C 108.308 80.443, 113.816 76.342, 120.312 71.533 C 126.809 66.725, 131.972 62.638, 131.785 62.451 C 131.461 62.127, 95.034 45.337, 88.283 42.400 L 85.066 41.001 79.975 47.726 C 76.692 52.063, 75.058 55.113, 75.372 56.316 C 75.982 58.647, 123.420 166.862, 123.716 166.596 C 123.893 166.436, 112.247 109.789, 110.487 102.250 C 109.639 98.616, 112.694 99.520, 113.866 103.250 C 120.203 123.411, 121.165 127.280, 120.022 127.987 C 119.111 128.549, 119.862 133.756, 123.066 149.117 C 125.405 160.327, 127.668 169.898, 128.095 170.385 C 128.904 171.308, 177.898 166.172, 179.260 165.022 C 179.678 164.669, 172.478 161.523, 163.260 158.031 C 154.042 154.539, 146.106 151.337, 145.624 150.915 C 145.142 150.493, 150.317 143.781, 157.124 136.001 C 163.931 128.220, 169.632 121.279, 169.794 120.578 C 169.956 119.876, 165.618 115.180, 160.154 110.142 L 150.219 100.982 153.935 89.241 C 155.980 82.783, 159.747 72.571, 162.307 66.547 C 165.498 59.038, 166.606 55.375, 165.832 54.896 C 165.211 54.512, 161.237 53.659, 157 53 C 152.763 52.341, 148.794 51.491, 148.179 51.111 C 147.470 50.672, 146.958 45.563, 146.780 37.145 L 146.500 23.870 131.124 37.185 C 122.668 44.508, 115.468 50.351, 115.124 50.169 C 114.781 49.988, 111.757 42.809, 108.405 34.218 L 102.311 18.597 97.692 24.549 M 62.471 44.438 C 64.285 53.053, 65.965 60.298, 66.205 60.538 C 66.445 60.779, 67.678 59.574, 68.944 57.862 L 71.246 54.748 66.028 42.624 C 63.158 35.956, 60.442 30.112, 59.992 29.637 C 59.543 29.163, 60.658 35.823, 62.471 44.438 M 64.988 33.360 C 68.576 42.345, 72.871 51.085, 73.610 50.906 C 74.579 50.672, 82 41.034, 82 40.010 C 82 39.664, 77.980 37.544, 73.067 35.300 C 64.973 31.603, 64.213 31.421, 64.988 33.360" stroke="none" fill="black" fill-rule="evenodd"/>
</svg>