<svg xmlns="http://www.w3.org/2000/svg" width="200" height="200" viewBox="0 0 200 200" version="1.1">
	<path d="M 25.667 10.667 C 24.269 12.065, 25.133 12.960, 29 14.118 C 31.200 14.777, 32.995 15.808, 32.988 16.408 C 32.982 17.009, 31.623 25.375, 29.969 35 C 26.137 57.293, 24.025 90.116, 24.011 127.584 L 24 155.668 35.224 171.414 C 44.096 183.861, 46.598 186.777, 47.160 185.331 C 47.551 184.324, 50.845 165.950, 54.479 144.500 C 60.823 107.058, 66.827 76.998, 67.962 77.001 C 68.258 77.002, 68.616 78.690, 68.758 80.751 C 69.317 88.878, 76.747 150.081, 77.234 150.567 C 77.519 150.852, 83.452 150.350, 90.419 149.452 C 97.385 148.554, 103.669 148.043, 104.383 148.317 C 105.097 148.591, 107.575 152.456, 109.891 156.907 C 112.207 161.358, 114.434 165, 114.842 165 C 115.249 165, 120.465 161.381, 126.432 156.958 L 137.283 148.917 139.486 150.987 L 141.690 153.057 156.595 147.884 C 164.793 145.040, 171.902 142.352, 172.394 141.912 C 172.886 141.472, 174.280 130.624, 175.491 117.806 L 177.694 94.500 172.357 60.093 C 169.421 41.169, 166.796 25.463, 166.523 25.190 C 166.250 24.917, 163.096 30.837, 159.513 38.347 C 155.931 45.856, 150.086 58.107, 146.525 65.572 L 140.051 79.143 135.775 76.545 C 133.424 75.116, 128.274 72.090, 124.331 69.821 C 117.541 65.912, 117.004 65.335, 114.147 58.866 C 112.488 55.110, 111.439 51.865, 111.815 51.653 C 112.192 51.442, 119.652 48.900, 128.393 46.004 C 138.367 42.700, 143.767 40.457, 142.893 39.980 C 142.127 39.563, 132.725 36.859, 122 33.971 C 111.275 31.084, 101.925 28.421, 101.222 28.055 C 100.519 27.689, 114.694 25.678, 132.722 23.587 C 163.081 20.066, 168.427 19.093, 166.730 17.397 C 166.381 17.047, 134.911 15.253, 96.797 13.410 C 58.684 11.567, 27.238 10.046, 26.917 10.030 C 26.596 10.013, 26.033 10.300, 25.667 10.667 M 36.056 13.384 C 36.363 13.693, 40.863 15.493, 46.056 17.384 C 61.318 22.939, 61.416 22.984, 60.323 24.077 C 59.652 24.748, 56.067 23.902, 49.506 21.527 C 44.108 19.573, 39.490 18.176, 39.244 18.423 C 38.998 18.669, 45.002 29.748, 52.586 43.043 C 63.626 62.393, 66.526 66.812, 67.124 65.195 C 67.673 63.711, 66.259 60.218, 61.795 52.028 C 57.702 44.519, 56.049 40.551, 56.729 39.871 C 57.410 39.190, 59.877 42.769, 64.288 50.835 C 70.642 62.455, 70.804 62.933, 69.785 66.950 C 68.901 70.433, 69.033 71.646, 70.617 74.589 C 71.653 76.513, 73.400 78.272, 74.500 78.499 C 79.389 79.506, 136.379 84.884, 137.145 84.410 C 139.508 82.950, 137.007 80.571, 126.575 74.351 C 114.532 67.170, 114.906 67.585, 109.408 55.319 L 107.086 50.137 121.043 45.486 C 128.719 42.927, 135 40.723, 135 40.587 C 135 40.450, 125.091 37.675, 112.979 34.419 C 96.168 29.900, 91.024 28.152, 91.237 27.028 C 91.457 25.871, 97.126 24.904, 117.685 22.518 C 132.077 20.848, 144.095 19.238, 144.392 18.941 C 144.689 18.645, 121.885 17.395, 93.716 16.164 C 65.547 14.933, 40.925 13.677, 39 13.374 C 37.075 13.070, 35.750 13.075, 36.056 13.384 M 32.235 39.261 C 28.363 63.846, 26.992 86.508, 26.997 125.869 L 27 155.238 35.750 167.600 C 40.563 174.399, 44.732 179.971, 45.016 179.981 C 45.300 179.991, 48.387 163.237, 51.876 142.750 C 55.365 122.262, 59.937 97.897, 62.037 88.605 L 65.853 71.711 51.274 46.105 C 43.256 32.022, 36.409 20.167, 36.059 19.761 C 35.709 19.355, 33.988 28.130, 32.235 39.261 M 153.396 57.294 L 142.292 80.500 147.146 83.491 C 154.182 87.826, 153.658 89.446, 145.492 88.609 C 139.210 87.966, 138.943 88.031, 137.829 90.476 C 136.876 92.568, 137.121 94.447, 139.233 101.255 C 140.640 105.790, 141.726 109.560, 141.646 109.634 C 141.566 109.707, 132.275 110.279, 121 110.904 C 109.725 111.529, 97.979 112.292, 94.899 112.601 L 89.298 113.162 81.023 98.540 C 76.472 90.498, 72.546 84.121, 72.299 84.368 C 71.863 84.804, 78.945 147.194, 79.499 147.805 C 79.652 147.972, 84.792 147.410, 90.922 146.555 C 107.381 144.259, 105.979 143.806, 110.877 153 C 113.222 157.400, 115.401 161, 115.720 161 C 116.039 161, 121.142 157.440, 127.060 153.089 L 137.820 145.179 140.028 147.530 L 142.236 149.880 156.239 144.986 C 163.941 142.293, 170.343 139.958, 170.466 139.795 C 170.589 139.633, 171.635 129.375, 172.790 117 L 174.890 94.500 170.236 64.250 C 167.677 47.612, 165.340 34.020, 165.042 34.044 C 164.744 34.068, 159.503 44.531, 153.396 57.294 M 75 81.931 C 75 82.304, 89.688 108.663, 90.518 109.779 C 90.844 110.218, 137.076 107.258, 137.567 106.767 C 137.808 106.525, 137.096 103.686, 135.985 100.457 C 134.874 97.228, 134.085 93.003, 134.233 91.070 L 134.500 87.554 104.750 84.506 C 88.387 82.829, 75 81.670, 75 81.931 M 140.532 83.948 C 140.223 84.448, 140.911 85.154, 142.061 85.519 C 144.856 86.406, 145.365 85.709, 143.001 84.233 C 141.916 83.555, 140.851 83.432, 140.532 83.948" stroke="none" fill="black" fill-rule="evenodd"/>
</svg>