<svg xmlns="http://www.w3.org/2000/svg" width="200" height="200" viewBox="0 0 200 200" version="1.1">
	<path d="M 32.537 14.242 C 30.060 28.740, 29.011 43.799, 29.559 57 L 30.160 71.500 24.572 95.489 L 18.985 119.477 26.906 132.460 C 34.280 144.545, 37 147.914, 37 144.962 C 37 144.299, 33.610 138.231, 29.466 131.476 L 21.931 119.195 27.480 94.907 L 33.029 70.619 32.421 56.060 C 31.979 45.481, 32.249 38.091, 33.407 29.030 C 34.283 22.171, 35 15.984, 35 15.280 C 35 14.341, 37.244 14, 43.412 14 L 51.824 14 52.408 17.750 C 52.730 19.813, 53.940 29.150, 55.099 38.500 C 56.257 47.850, 57.317 55.621, 57.454 55.768 C 57.591 55.916, 60.896 54.679, 64.797 53.018 C 68.698 51.358, 72.309 50, 72.820 50 C 73.641 50, 84 66.366, 84 67.665 C 84 67.947, 81.005 65.433, 77.344 62.078 C 73.683 58.724, 70.598 56.096, 70.488 56.239 C 70.378 56.383, 68.198 62.492, 65.643 69.816 C 61.127 82.762, 60.930 83.830, 58.536 108.316 L 56.074 133.500 48.749 158.205 C 44.720 171.792, 41.169 183.165, 40.857 183.477 C 40.545 183.788, 33.405 176.369, 24.991 166.990 C 11.484 151.934, 7.301 148.110, 8.070 151.525 C 8.356 152.798, 40.987 189.001, 41.844 188.997 C 42.205 188.995, 46.248 176.263, 50.828 160.704 L 59.157 132.413 61.515 107.457 C 63.699 84.351, 64.143 81.758, 67.503 72.500 C 69.499 67, 71.442 62.182, 71.822 61.794 C 72.811 60.782, 92 78.846, 92 80.789 C 92 81.680, 90.626 87.261, 88.946 93.192 C 86.356 102.335, 84.388 106.516, 76.003 120.694 L 66.115 137.414 74.500 143.457 C 79.111 146.781, 82.910 150.018, 82.942 150.651 C 82.974 151.284, 79.151 159.563, 74.447 169.048 C 69.487 179.051, 66.266 186.666, 66.779 187.179 C 67.293 187.693, 78.003 178.362, 92.281 164.963 C 119.413 139.501, 117.590 142.061, 118.255 128.500 L 118.500 123.500 133.907 148.760 C 142.380 162.653, 149.423 173.903, 149.557 173.760 C 150.556 172.692, 179 124.697, 179 124.078 C 179 123.642, 174.397 122.969, 168.772 122.581 C 163.146 122.194, 158.369 121.703, 158.156 121.489 C 157.943 121.276, 161.923 113.406, 167 104 C 172.077 94.594, 176.067 86.734, 175.866 86.533 C 175.665 86.333, 171 84.496, 165.500 82.451 C 160 80.407, 155.337 78.593, 155.137 78.421 C 154.938 78.249, 160.670 71.478, 167.875 63.375 L 180.975 48.642 177.238 46.477 C 175.182 45.287, 169.590 42.209, 164.811 39.637 L 156.123 34.962 149.666 23.231 L 143.210 11.500 88.152 11.242 L 33.094 10.983 32.537 14.242 M 57.193 17.764 C 58.462 19.834, 62.801 27.002, 66.836 33.692 L 74.171 45.856 78.336 44.048 C 80.626 43.054, 85.097 41.082, 88.271 39.666 C 91.742 38.118, 98.830 33.034, 106.055 26.913 C 112.662 21.314, 118.390 17.058, 118.784 17.454 C 119.178 17.850, 119.500 41.060, 119.500 69.032 L 119.500 119.890 134.429 144.400 L 149.359 168.909 162.096 147.705 L 174.832 126.500 172.166 125.868 C 170.700 125.521, 166.575 125.152, 163 125.048 C 151.997 124.729, 152.011 125.686, 162.717 106.162 C 167.946 96.626, 171.836 88.472, 171.362 88.041 C 170.888 87.610, 166.113 85.579, 160.750 83.526 C 155.387 81.473, 151 79.475, 151 79.087 C 151 78.698, 156.792 71.882, 163.872 63.940 L 176.743 49.500 174.122 47.892 C 172.680 47.007, 167.582 44.181, 162.792 41.612 L 154.085 36.941 147.812 25.471 L 141.539 14 98.213 14 L 54.887 14 57.193 17.764 M 55.986 22.583 C 55.960 24.239, 59.309 51.492, 59.582 51.840 C 59.728 52.028, 62.532 50.976, 65.813 49.504 L 71.778 46.827 64.298 34.663 C 56.209 21.510, 56.007 21.216, 55.986 22.583 M 105.631 30.799 C 97.434 37.623, 92.641 40.772, 86.131 43.611 C 81.384 45.681, 77.166 47.647, 76.758 47.980 C 75.904 48.675, 92.221 75.934, 94.494 77.610 C 95.322 78.221, 96 79.291, 96 79.987 C 96 80.684, 100.388 88.505, 105.750 97.368 L 115.500 113.481 116.262 105.079 C 116.681 100.457, 116.906 79.818, 116.762 59.213 L 116.500 21.750 105.631 30.799 M 91.507 94.265 C 89.152 102.794, 87.124 107.135, 79.341 120.304 C 74.203 128.996, 70 136.254, 70 136.433 C 70 136.611, 73.487 139.351, 77.750 142.520 C 82.013 145.689, 85.869 148.610, 86.321 149.012 C 86.772 149.413, 83.682 156.650, 79.453 165.094 L 71.764 180.446 84.041 168.973 C 90.793 162.663, 100.511 153.450, 105.638 148.500 L 114.959 139.500 115.200 128.971 L 115.441 118.442 106.040 102.971 C 100.869 94.462, 96.120 86.719, 95.486 85.765 C 94.523 84.317, 93.867 85.718, 91.507 94.265" stroke="none" fill="black" fill-rule="evenodd"/>
</svg>