<svg xmlns="http://www.w3.org/2000/svg" width="200" height="200" viewBox="0 0 200 200" version="1.1">
	<path d="M 93.500 11.760 C 62.700 12.560, 37.176 13.513, 36.780 13.877 C 36.384 14.241, 34.968 21.731, 33.634 30.520 C 31.565 44.144, 31.273 49.006, 31.658 63.500 L 32.110 80.500 25.603 100.965 L 19.095 121.429 29.685 137.715 C 35.509 146.672, 40.587 154, 40.970 154 C 43.188 154, 41.852 151.318, 32.499 136.999 L 22.160 121.169 28.667 100.334 L 35.174 79.500 34.502 64 C 33.934 50.884, 34.169 46.116, 36.031 33 C 37.241 24.475, 38.517 17.193, 38.865 16.817 C 39.584 16.043, 159.005 12.672, 159.738 13.405 C 159.999 13.666, 156.825 24.031, 152.684 36.439 C 148.544 48.848, 145.458 58.990, 145.828 58.977 C 146.198 58.964, 152.463 57.439, 159.750 55.588 C 168.354 53.402, 172.999 52.621, 172.996 53.361 C 172.991 54.865, 164.052 104.296, 163.741 104.541 C 163.608 104.646, 161.475 105.977, 159 107.500 C 156.525 109.023, 154.339 110.407, 154.142 110.576 C 153.678 110.973, 150.190 147.340, 150.552 148 C 150.702 148.275, 158.934 152.325, 168.844 157 C 178.753 161.675, 186.555 165.784, 186.181 166.131 C 185.220 167.021, 132.239 177.586, 131.723 176.990 C 130.753 175.867, 129.246 90.296, 129.730 63.819 L 130.255 35.138 126.741 34.479 C 123.260 33.826, 123.223 33.766, 122.801 27.931 C 122.567 24.692, 122.103 21.769, 121.769 21.436 C 121.436 21.102, 117.735 23.142, 113.547 25.969 L 105.931 31.108 78.715 26.660 C 63.747 24.214, 51.401 22.301, 51.281 22.409 C 51.091 22.578, 76.454 57.771, 77.601 58.930 C 77.835 59.166, 82.858 54.634, 88.763 48.859 C 94.668 43.084, 101.100 37.396, 103.056 36.218 C 106.321 34.252, 107.149 34.166, 113.195 35.168 L 119.778 36.259 120.472 64.379 L 121.166 92.500 113.226 125.274 C 108.859 143.299, 105.109 158.209, 104.893 158.406 C 104.596 158.677, 71.727 178.732, 66.595 181.773 C 65.235 182.579, 65.724 181.838, 87.768 149.687 C 99.010 133.291, 107.967 119.633, 107.672 119.338 C 107.376 119.043, 99.874 120.016, 91 121.500 C 82.126 122.984, 74.685 124.019, 74.465 123.799 C 74.245 123.579, 80.290 113.296, 87.897 100.949 C 96.557 86.894, 101.313 78.264, 100.615 77.870 C 99.249 77.098, 59.799 67.831, 59.539 68.221 C 59.436 68.374, 60.025 76.188, 60.846 85.585 C 62.339 102.661, 62.338 102.689, 59.080 138.585 C 57.287 158.338, 55.696 174.626, 55.545 174.781 C 55.395 174.935, 46.323 171.498, 35.386 167.143 C 23.819 162.537, 15.110 159.589, 14.567 160.096 C 14.053 160.575, 13.828 161.156, 14.067 161.388 C 14.971 162.266, 57.386 178.947, 57.762 178.572 C 57.978 178.355, 59.724 161.600, 61.640 141.339 C 64.998 105.830, 65.081 103.930, 63.927 88.718 C 63.269 80.038, 63.001 72.666, 63.331 72.336 C 64.023 71.644, 95.089 78.831, 96.309 79.966 C 96.754 80.379, 90.622 91.244, 82.682 104.109 C 74.742 116.974, 68.324 127.596, 68.419 127.713 C 68.591 127.924, 97.887 123.347, 101.251 122.584 C 103.457 122.083, 104.805 119.916, 84.510 149.500 C 57.779 188.465, 58.735 186.961, 60.304 187.563 C 61.402 187.985, 104.443 162.808, 107.167 160.151 C 107.534 159.793, 111.461 144.404, 115.893 125.954 L 123.953 92.408 123.316 64.704 L 122.679 37 124.840 37 L 127 37 127.049 82.250 C 127.094 123.639, 128.290 179.638, 129.147 180.470 C 129.750 181.055, 195 167.746, 195 167.037 C 195 166.669, 185.545 161.898, 173.989 156.434 C 154.059 147.011, 153.003 146.371, 153.444 144 C 153.699 142.625, 154.445 134.931, 155.101 126.903 L 156.293 112.306 161.396 109.235 L 166.500 106.165 171.587 77.832 C 174.385 62.250, 176.350 49.368, 175.954 49.206 C 175.558 49.044, 169.727 50.302, 162.996 52.001 C 156.265 53.700, 150.559 54.892, 150.316 54.650 C 149.983 54.317, 160.941 18.930, 163.756 11.250 C 164.286 9.803, 170.569 9.757, 93.500 11.760 M 114.635 28.547 L 109.770 31.843 114.431 32.542 C 116.995 32.926, 119.326 33.007, 119.613 32.721 C 119.899 32.435, 119.990 30.637, 119.816 28.726 L 119.500 25.252 114.635 28.547 M 57.609 27.081 C 58.219 27.862, 61.175 31.875, 64.178 36 C 67.181 40.125, 71.564 46.128, 73.918 49.341 L 78.197 55.181 87.848 45.802 C 93.157 40.644, 98.587 35.736, 99.916 34.896 C 102.200 33.451, 101.248 33.189, 82.416 30.085 C 71.462 28.280, 61.150 26.546, 59.500 26.233 C 57.012 25.760, 56.689 25.905, 57.609 27.081" stroke="none" fill="black" fill-rule="evenodd"/>
</svg>