<svg xmlns="http://www.w3.org/2000/svg" width="200" height="200" viewBox="0 0 200 200" version="1.1">
	<path d="M 70.750 14.387 C 42.181 16.124, 36 16.263, 36 15.167 C 36 14.433, 35.465 14.012, 34.811 14.230 C 33.028 14.824, 31.448 22.857, 27.528 51.256 L 23.973 77.013 27.390 97.341 L 30.807 117.670 26.380 149.085 C 23.945 166.363, 22.076 181.314, 22.226 182.309 C 22.417 183.570, 27.741 178.344, 39.820 165.040 L 57.140 145.962 59.232 109.784 L 61.325 73.607 67.662 64.619 C 71.148 59.675, 74 55.223, 74 54.724 C 74 54.226, 66.604 46.104, 57.565 36.677 C 48.526 27.250, 41.237 19.430, 41.367 19.299 C 41.871 18.795, 95.101 15.891, 98.407 16.187 L 101.901 16.500 92.602 30.545 C 83.548 44.221, 83.126 45.122, 76.583 64.750 L 69.864 84.909 70.965 109.204 C 72.612 145.553, 69.991 139.414, 91.819 158.044 L 110.500 173.988 139.099 173.994 C 154.829 173.997, 171.188 174.295, 175.452 174.655 C 182.671 175.266, 183.182 175.182, 182.847 173.442 C 182.591 172.114, 177.573 169.306, 165.551 163.761 C 156.236 159.464, 148.423 155.757, 148.188 155.521 C 147.953 155.286, 150.669 151.360, 154.223 146.797 L 160.686 138.500 170.343 105.166 L 180 71.832 169.528 58.666 C 161.725 48.857, 158.659 44.162, 157.500 40.250 C 156.644 37.362, 155.844 34.999, 155.722 34.998 C 155.600 34.996, 146.294 32.540, 135.043 29.538 C 123.791 26.537, 114.402 24.265, 114.176 24.490 C 113.951 24.715, 115.189 32.628, 116.927 42.073 C 118.665 51.519, 119.834 59.499, 119.525 59.808 C 119.216 60.117, 117.180 58.629, 115 56.500 C 112.820 54.371, 110.755 52.912, 110.410 53.256 C 110.066 53.601, 107.807 60.242, 105.392 68.015 C 101.253 81.334, 101 82.824, 101 93.908 L 101 105.668 114.500 103.518 L 128 101.367 128 103.577 C 128 105.428, 125.365 107.122, 111.750 114.018 C 102.813 118.546, 95.112 122.605, 94.637 123.038 C 93.919 123.694, 103.288 126.914, 132.817 136.161 C 134.641 136.732, 136.330 137.004, 136.569 136.764 C 136.808 136.525, 135.882 130.293, 134.511 122.915 C 133.141 115.537, 132.015 108.813, 132.010 107.973 C 132.004 107.050, 135.361 104.779, 140.500 102.230 C 145.783 99.610, 149 97.419, 149 96.440 C 149 95.419, 148.385 95.039, 147.250 95.358 C 143.713 96.355, 130.856 98.189, 130.425 97.758 C 129.929 97.262, 125.014 72.253, 125.005 70.180 C 125.002 69.454, 129.162 72.505, 134.250 76.960 C 139.393 81.464, 143.619 84.492, 143.768 83.780 C 144.112 82.138, 135.478 39.145, 134.635 38.301 C 134.286 37.952, 133.680 37.986, 133.289 38.377 C 132.690 38.977, 133.814 45.429, 139.750 75.467 L 140.337 78.435 136.418 75.237 C 134.263 73.478, 130.546 70.327, 128.158 68.235 L 123.816 64.432 120.520 46.466 C 118.708 36.585, 117.360 28.351, 117.526 28.169 C 117.692 27.987, 125.930 29.978, 135.833 32.593 L 153.837 37.348 155.083 41.797 C 155.907 44.741, 159.540 50.352, 165.814 58.374 C 171.030 65.043, 175.657 70.967, 176.095 71.538 C 177.004 72.721, 158.939 136.027, 156.860 138.945 C 156.112 139.995, 152.870 144.236, 149.655 148.370 C 146.441 152.503, 144.037 156.251, 144.314 156.699 C 144.590 157.146, 151.807 160.648, 160.350 164.481 C 168.894 168.314, 175.776 171.557, 175.645 171.688 C 175.514 171.819, 160.859 171.645, 143.078 171.301 L 110.749 170.675 93.125 155.586 L 75.500 140.496 74.112 112.902 L 72.724 85.308 79.311 65.575 C 85.754 46.275, 86.121 45.501, 96.015 30.331 C 106.431 14.362, 107.829 11.902, 106.357 12.137 C 105.886 12.212, 89.862 13.224, 70.750 14.387 M 34.231 24.750 C 33.588 27.913, 31.662 41.075, 29.950 54 L 26.838 77.500 30.250 97.690 L 33.663 117.879 29.505 146.965 C 27.218 162.962, 25.623 175.927, 25.961 175.775 C 26.544 175.514, 43.476 157.088, 51.071 148.451 L 54.631 144.403 56.512 108.951 L 58.394 73.500 64.793 64.118 L 71.191 54.737 63.349 46.618 C 43.326 25.891, 36.495 19, 35.969 19 C 35.656 19, 34.874 21.587, 34.231 24.750 M 107.686 69.929 C 104.472 80.331, 104 83.147, 104 91.929 C 104 98.377, 104.383 102, 105.063 102 C 109.622 102, 126.999 98.533, 126.995 97.625 C 126.993 97.006, 125.679 89.525, 124.076 81 L 121.161 65.500 116.830 61.753 C 114.449 59.692, 112.246 58.004, 111.936 58.003 C 111.625 58.001, 109.713 63.368, 107.686 69.929 M 132.128 100.900 C 131.374 101.378, 130.924 102.233, 131.128 102.800 C 131.353 103.422, 132.888 103.088, 135 101.958 C 138.250 100.218, 138.322 100.082, 136 100.057 C 134.625 100.043, 132.883 100.422, 132.128 100.900 M 114.086 115.892 C 106.708 119.625, 101.083 122.917, 101.586 123.209 C 103.870 124.531, 132.270 133.064, 132.759 132.574 C 133.275 132.059, 130.280 112.983, 129.255 110.250 C 128.997 109.563, 128.497 109.024, 128.143 109.052 C 127.789 109.081, 121.464 112.159, 114.086 115.892" stroke="none" fill="black" fill-rule="evenodd"/>
</svg>