<svg xmlns="http://www.w3.org/2000/svg" width="200" height="200" viewBox="0 0 200 200" version="1.1">
	<path d="M 81 14.064 C 38.375 17.819, 2.712 20.915, 1.750 20.945 C 0.788 20.975, 0 21.690, 0 22.534 C 0 23.778, 0.900 23.961, 4.750 23.500 C 7.363 23.187, 41.450 20.251, 80.500 16.975 C 119.550 13.699, 153.547 10.760, 156.049 10.443 L 160.598 9.868 162.398 25.184 C 164.182 40.362, 164.269 40.674, 172.099 59.793 C 176.445 70.404, 180 79.516, 180 80.043 C 180 80.627, 170.083 81, 154.526 81 L 129.052 81 121.356 77.943 C 117.123 76.261, 112.668 74.349, 111.457 73.693 L 109.255 72.500 115.461 56.056 C 118.874 47.011, 122.103 39.466, 122.636 39.288 C 123.169 39.110, 125.129 41.673, 126.990 44.982 C 128.852 48.292, 130.966 51, 131.687 51 C 133.442 51, 133.403 50.715, 130.382 41.647 L 127.765 33.787 134.632 26.777 L 141.500 19.767 136.500 20.345 C 133.750 20.663, 128.575 21.192, 125 21.520 C 113.079 22.614, 113.559 22.167, 117.423 28.583 C 119.267 31.643, 120.566 34.943, 120.311 35.917 C 120.057 36.892, 115.451 42.070, 110.076 47.424 L 100.304 57.160 76.266 45.133 C 54.328 34.157, 51 32.831, 51 35.067 C 51 35.471, 58.428 42.029, 67.506 49.641 L 84.013 63.481 69.506 70.747 C 57.009 77.007, 55 78.338, 55 80.363 C 55 81.655, 56.385 95.715, 58.077 111.606 L 61.154 140.500 44.327 156.983 L 27.500 173.466 27.176 150.483 C 26.707 117.209, 28.507 81.905, 32.162 52.716 C 33.869 39.084, 34.973 27.639, 34.616 27.282 C 33.010 25.676, 32.073 29.891, 29.566 50 C 26.010 78.525, 23.894 119.240, 24.228 152.734 L 24.500 179.968 44.308 160.734 L 64.115 141.500 61.058 113.117 C 59.376 97.507, 58 83.517, 58 82.028 C 58 79.529, 59.083 78.811, 72.201 72.616 L 86.401 65.909 88.951 67.811 C 90.533 68.991, 92.592 72.611, 94.380 77.356 L 97.261 85 103.380 85.033 L 109.500 85.066 124.831 98.027 C 139.018 110.022, 139.988 111.055, 137.831 111.881 C 136.549 112.372, 131.475 114.399, 126.556 116.387 C 121.636 118.374, 117.104 120, 116.484 120 C 115.856 120, 113.881 113.687, 112.026 105.750 C 110.194 97.912, 108.426 90.974, 108.098 90.330 C 107.765 89.679, 100.350 98.550, 91.380 110.330 L 75.260 131.500 87.801 144.186 L 100.343 156.871 96.198 162.186 C 93.918 165.109, 89.926 170.154, 87.327 173.399 L 82.602 179.297 86.051 178.708 C 87.948 178.385, 111.438 175.964, 138.250 173.329 C 165.063 170.695, 187 168.229, 187 167.850 C 187 167.471, 178.563 162.788, 168.250 157.444 C 157.938 152.099, 149.353 147.603, 149.172 147.452 C 148.992 147.302, 151.580 145.250, 154.922 142.892 C 158.998 140.018, 160.999 137.930, 160.998 136.553 C 160.995 133.856, 156.986 92.625, 156.711 92.470 C 156.595 92.405, 152.026 90.516, 146.558 88.273 L 136.615 84.195 159.725 83.848 C 172.436 83.656, 183.142 83.193, 183.517 82.818 C 183.892 82.442, 180.351 72.737, 175.649 61.250 C 167.143 40.469, 167.090 40.285, 165.052 24.432 C 163.926 15.669, 163.003 8.162, 163.002 7.750 C 162.999 6.770, 169.413 6.276, 81 14.064 M 129.157 23.737 C 125.003 24.107, 124.844 24.241, 125.488 26.810 C 125.859 28.287, 126.366 29.699, 126.615 29.948 C 126.863 30.197, 128.732 28.735, 130.767 26.700 C 132.802 24.665, 134.249 23.079, 133.983 23.175 C 133.718 23.271, 131.546 23.524, 129.157 23.737 M 121.250 24.706 C 120.013 24.944, 119.014 25.445, 119.032 25.820 C 119.083 26.920, 121.940 30.394, 122.408 29.925 C 122.971 29.363, 124.324 23.959, 123.858 24.136 C 123.661 24.211, 122.487 24.467, 121.250 24.706 M 63 42.234 C 64.707 43.839, 82.579 58.825, 85.273 60.911 C 86.793 62.087, 87.614 62.027, 91.023 60.490 C 93.210 59.503, 95 58.421, 95 58.084 C 95 57.747, 87.463 53.726, 78.250 49.148 C 69.037 44.570, 62.175 41.458, 63 42.234 M 104.483 57.017 C 97.740 63.781, 93.936 68.307, 94.534 68.857 C 95.065 69.347, 98.763 72.525, 102.751 75.921 L 110.002 82.095 116.251 81.798 L 122.500 81.500 114.250 78.068 C 109.713 76.180, 106 74.316, 106 73.926 C 106 73.536, 108.257 67.250, 111.016 59.958 C 113.775 52.665, 115.890 46.557, 115.716 46.383 C 115.542 46.209, 110.487 50.994, 104.483 57.017 M 92.104 62.893 C 89.768 64.137, 89.099 64.943, 89.958 65.474 C 90.725 65.948, 92.221 65.234, 93.831 63.623 C 96.901 60.553, 96.675 60.458, 92.104 62.893 M 97.177 77.216 C 98.660 81.661, 99.300 82.210, 102.550 81.828 L 105.344 81.500 100.712 77.716 L 96.080 73.932 97.177 77.216 M 114.017 84.750 C 114.026 85.162, 120.989 91.340, 129.490 98.477 C 137.991 105.614, 144.621 111.744, 144.223 112.098 C 143.123 113.078, 113.941 124.281, 113.574 123.864 C 113.398 123.664, 111.734 117.089, 109.877 109.254 L 106.500 95.008 92.713 113.203 L 78.926 131.398 91.587 144.087 L 104.247 156.775 97.103 165.638 C 91.183 172.982, 90.285 174.552, 91.862 174.804 C 93.268 175.029, 161.060 168.623, 177.500 166.712 C 178.684 166.574, 172.249 162.678, 161.736 157.167 C 151.966 152.045, 144.170 147.535, 144.411 147.144 C 144.653 146.753, 147.809 144.427, 151.425 141.974 C 157.472 137.874, 157.995 137.234, 157.938 134.008 C 157.842 128.514, 154.465 95.129, 153.956 94.640 C 153.705 94.399, 147.995 91.906, 141.266 89.101 C 130.241 84.504, 128.290 84, 121.516 84 C 117.382 84, 114.007 84.338, 114.017 84.750" stroke="none" fill="black" fill-rule="evenodd"/>
</svg>