<svg xmlns="http://www.w3.org/2000/svg" width="200" height="200" viewBox="0 0 200 200" version="1.1">
	<path d="M 51.404 11.750 C 51.714 13.262, 53.573 24.160, 55.534 35.967 C 57.496 47.774, 59.263 57.596, 59.460 57.794 C 59.658 57.991, 65.490 54.257, 72.421 49.495 L 85.022 40.838 102.083 55.514 C 111.467 63.585, 119.388 69.945, 119.686 69.647 C 120.402 68.932, 130.873 40.578, 130.549 40.233 C 130.411 40.086, 126.406 40.265, 121.649 40.630 C 115.054 41.137, 113 41.640, 113 42.749 C 113 43.950, 114.222 44.080, 120.013 43.499 L 127.025 42.794 123.910 51.147 C 122.196 55.741, 120.274 60.955, 119.638 62.734 L 118.483 65.967 105.492 54.895 C 98.346 48.805, 91.443 42.796, 90.152 41.541 L 87.804 39.259 98.813 31.629 C 104.868 27.433, 110.580 24, 111.506 24 C 112.433 24, 119.681 25.565, 127.614 27.477 L 142.037 30.954 154.769 41.046 C 161.771 46.596, 167.616 51.455, 167.758 51.844 C 167.900 52.232, 154.288 62.170, 137.508 73.929 C 111 92.505, 104.230 98, 107.849 98 C 108.316 98, 121.240 96.196, 136.569 93.990 C 151.898 91.785, 164.789 90.097, 165.216 90.240 C 165.642 90.383, 160.581 96.912, 153.968 104.750 C 147.355 112.587, 142.520 119.060, 143.222 119.132 C 143.925 119.205, 151.314 119.543, 159.641 119.882 L 174.783 120.500 151.804 139.363 C 135.871 152.443, 129.145 158.545, 129.868 159.268 C 130.590 159.990, 137.573 157.356, 152.644 150.677 C 164.597 145.379, 174.580 141.247, 174.828 141.495 C 175.076 141.743, 171.729 149.761, 167.389 159.314 L 159.500 176.681 137.088 177.341 C 124.762 177.703, 107.786 178, 99.363 178 L 84.050 178 84.698 174.750 C 85.054 172.963, 86.958 164.212, 88.929 155.304 L 92.514 139.109 105.339 147.054 C 112.393 151.424, 118.551 155, 119.023 155 C 122.200 155, 118.572 151.670, 100.988 138.450 C 90.052 130.227, 81.081 123.254, 81.053 122.953 C 81.009 122.501, 93.966 118.517, 110.870 113.783 C 112.723 113.264, 113.848 112.497, 113.370 112.077 C 112.891 111.657, 103.838 109.116, 93.250 106.429 C 82.662 103.741, 74 101.180, 74 100.737 C 74 100.293, 78.744 92.691, 84.543 83.841 C 90.341 74.992, 94.954 67.622, 94.793 67.462 C 94.359 67.034, 57.760 68.907, 57.284 69.382 C 57.061 69.606, 57.393 83.673, 58.022 100.644 L 59.166 131.500 46.240 157.850 L 33.315 184.200 32.663 174.350 C 32.304 168.932, 32.008 158.110, 32.005 150.299 C 32.001 138.535, 31.319 131.913, 28.034 111.710 L 24.068 87.322 28.463 66.911 C 32.330 48.949, 32.942 44.370, 33.562 28.750 C 34.169 13.453, 34.063 11, 32.791 11 C 31.570 11, 31.199 14.139, 30.634 29.250 C 30.023 45.591, 29.496 49.585, 25.602 67.430 L 21.252 87.360 25.085 110.930 C 28.593 132.503, 28.985 136.907, 29.709 162.919 C 30.219 181.244, 30.874 191.461, 31.553 191.686 C 32.132 191.878, 39.231 178.415, 47.330 161.768 L 62.054 131.500 61.040 106.500 C 60.482 92.750, 60.020 79.194, 60.013 76.376 L 60 71.252 74.750 70.775 C 82.862 70.513, 89.595 70.363, 89.710 70.443 C 89.826 70.522, 85.241 77.765, 79.522 86.538 C 72.620 97.126, 69.523 102.708, 70.312 103.138 C 70.965 103.495, 79.121 105.721, 88.435 108.086 L 105.370 112.386 97.685 114.693 C 93.458 115.962, 86.548 118.036, 82.328 119.303 L 74.656 121.606 82.767 127.881 C 87.228 131.332, 90.707 134.683, 90.498 135.328 C 89.091 139.668, 80.802 180.135, 81.231 180.565 C 81.525 180.859, 99.639 180.739, 121.484 180.300 L 161.203 179.500 171.132 157.614 C 176.593 145.576, 180.934 135.626, 180.780 135.502 C 180.626 135.378, 171.527 139.254, 160.560 144.115 C 149.593 148.976, 140.508 152.842, 140.372 152.705 C 140.236 152.569, 149.321 144.908, 160.562 135.680 C 171.803 126.452, 181 118.474, 181 117.951 C 181 117.388, 174.263 117, 164.500 117 C 155.425 117, 148 116.772, 148 116.492 C 148 116.213, 153.600 109.363, 160.443 101.269 C 167.287 93.176, 172.762 86.428, 172.608 86.275 C 172.455 86.122, 159.768 87.806, 144.415 90.018 C 129.062 92.230, 115.992 93.918, 115.371 93.770 C 114.750 93.621, 127.437 84.275, 143.563 73 C 171.120 53.733, 172.781 52.398, 171.191 50.803 C 170.261 49.870, 163.511 44.425, 156.192 38.704 L 142.883 28.301 127.692 24.639 C 119.336 22.624, 111.845 20.982, 111.045 20.988 C 110.244 20.995, 104.271 24.634, 97.770 29.075 C 91.269 33.516, 85.530 37.004, 85.017 36.825 C 84.503 36.646, 76.875 30.313, 68.065 22.750 C 59.255 15.188, 51.776 9, 51.444 9 C 51.112 9, 51.095 10.238, 51.404 11.750 M 55.309 18.250 C 55.598 19.488, 57.062 28.014, 58.563 37.199 L 61.292 53.898 71.646 46.759 C 77.341 42.832, 82 39.321, 82 38.955 C 82 38.157, 56.352 16, 55.428 16 C 55.073 16, 55.020 17.012, 55.309 18.250" stroke="none" fill="black" fill-rule="evenodd"/>
</svg>