<svg xmlns="http://www.w3.org/2000/svg" width="200" height="200" viewBox="0 0 200 200" version="1.1">
	<path d="M 145.129 31.546 L 118.938 53.152 113.719 52.040 C 101.565 49.450, 101.280 49.299, 99.440 44.482 C 98.499 42.017, 97.548 40, 97.329 40 C 97.109 40, 94.692 41.278, 91.958 42.839 L 86.986 45.679 67.743 41.014 C 52.906 37.417, 48.426 35.966, 48.177 34.674 C 47.878 33.128, 51.409 33, 94.427 33 C 135.159 33, 141 32.812, 141 31.500 C 141 30.191, 135.417 29.984, 97.250 29.875 L 53.500 29.750 71.750 26.163 C 84.115 23.733, 90 22.161, 90 21.288 C 90 20.580, 89.613 20, 89.139 20 C 88.666 20, 76.628 22.268, 62.389 25.039 C 48.150 27.811, 33.800 30.569, 30.500 31.169 C 27.200 31.769, 24.001 32.764, 23.391 33.380 C 22.416 34.365, 14.467 112.800, 15.262 113.595 C 15.427 113.761, 28.520 110.723, 44.357 106.845 L 73.151 99.794 75.589 102.084 C 76.930 103.343, 77.683 104.703, 77.263 105.106 C 76.843 105.509, 69.525 107.726, 61 110.033 C 52.475 112.339, 45.361 114.352, 45.190 114.506 C 45.020 114.660, 50.533 117.784, 57.440 121.449 C 64.348 125.113, 70 128.334, 70 128.605 C 70 128.877, 69.346 130.363, 68.548 131.908 C 67.341 134.242, 64.300 135.861, 50.527 141.504 C 41.414 145.237, 34.197 148.530, 34.488 148.821 C 34.779 149.112, 42.547 151.200, 51.751 153.460 L 68.484 157.570 76.159 168.535 C 80.380 174.566, 84.234 179.500, 84.724 179.500 C 86.251 179.500, 182 143.591, 182 143.018 C 182 142.720, 172.515 139.106, 160.922 134.988 C 149.330 130.870, 139.396 127.228, 138.848 126.895 C 138.234 126.522, 139.123 122.117, 141.170 115.395 L 144.488 104.500 161.837 85 C 171.379 74.275, 179.409 64.959, 179.681 64.298 C 180.102 63.278, 165.254 43.654, 162.737 41.904 C 162.266 41.576, 164.364 35.051, 167.399 27.404 C 173.709 11.508, 173.889 10.895, 172.410 10.345 C 171.810 10.122, 159.533 19.663, 145.129 31.546 M 147.227 33.250 C 135.683 42.737, 126.335 50.612, 126.452 50.749 C 126.569 50.886, 133.712 49.311, 142.325 47.249 L 157.985 43.500 161.598 34.500 C 168.170 18.126, 168.974 16, 168.593 16 C 168.385 16, 158.770 23.762, 147.227 33.250 M 35.123 33.044 C 29.966 34.076, 25.616 35.051, 25.456 35.211 C 24.958 35.708, 18.051 109.384, 18.463 109.797 C 18.678 110.011, 30.596 107.348, 44.948 103.879 L 71.043 97.571 58.286 84.785 L 45.529 72 54.929 72 L 64.328 72 59.664 68.366 C 57.099 66.368, 55.008 64.455, 55.018 64.116 C 55.028 63.777, 61.441 59.924, 69.268 55.553 L 83.500 47.605 64 42.850 C 53.275 40.235, 44.435 38.074, 44.355 38.048 C 44.276 38.021, 44.566 36.425, 45 34.500 C 45.434 32.575, 45.499 31.038, 45.145 31.084 C 44.790 31.131, 40.280 32.013, 35.123 33.044 M 93.128 45.401 L 90.756 46.701 94.038 47.358 C 97.949 48.140, 98.380 47.880, 96.740 45.727 C 95.682 44.339, 95.152 44.291, 93.128 45.401 M 160.279 46.250 C 159.420 47.362, 154 60.442, 154 61.403 C 154 61.613, 157.262 62.566, 161.250 63.520 C 173.601 66.477, 173.135 68.262, 159.819 69 L 150.795 69.500 141.571 92.547 C 136.497 105.224, 129.940 122.549, 127 131.047 C 124.061 139.546, 121.491 146.704, 121.291 146.954 C 121.090 147.203, 111.947 138.437, 100.972 127.472 L 81.019 107.537 71.759 109.949 C 66.667 111.276, 60.133 113.068, 57.240 113.931 L 51.980 115.500 63.009 121.333 L 74.038 127.165 71.269 132.208 C 68.522 137.209, 68.397 137.291, 55.750 142.362 C 48.737 145.174, 43 147.713, 43 148.004 C 43 148.295, 49.184 150.101, 56.742 152.017 L 70.484 155.500 77.741 166 C 81.732 171.775, 85.560 176.357, 86.248 176.181 C 90.168 175.184, 174 143.547, 174 143.065 C 174 142.746, 165.187 139.357, 154.417 135.534 L 134.833 128.584 135.399 125.755 C 135.710 124.199, 137.358 118.442, 139.060 112.962 L 142.156 102.999 159.592 83.439 C 174.985 66.172, 176.880 63.672, 175.764 62.116 C 172.008 56.876, 162.412 45.086, 161.872 45.046 C 161.527 45.021, 160.810 45.563, 160.279 46.250 M 140 50.607 C 132.575 52.475, 126.050 54.157, 125.500 54.344 C 124.950 54.531, 130.350 56.074, 137.500 57.771 C 144.650 59.468, 150.798 60.552, 151.162 60.179 C 151.527 59.805, 152.958 56.688, 154.342 53.250 C 157.360 45.759, 158.458 45.962, 140 50.607 M 74 56.060 C 67.125 59.973, 60.939 63.490, 60.252 63.876 C 59.420 64.343, 60.586 65.756, 63.752 68.118 L 68.500 71.658 88.500 70.409 C 99.500 69.723, 108.697 69.124, 108.937 69.080 C 109.177 69.036, 108.230 67.763, 106.831 66.250 C 105.432 64.737, 103.219 60.862, 101.913 57.638 C 99.377 51.377, 98.298 50.584, 90.909 49.558 C 86.794 48.986, 85.667 49.419, 74 56.060 M 103.563 54.256 C 104.909 58.612, 107.851 63.532, 110.758 66.293 L 113.699 69.086 131.070 67.996 C 147.315 66.976, 151.554 66.012, 149.208 63.870 C 148.819 63.514, 138.825 60.908, 127 58.079 C 115.175 55.249, 104.908 52.726, 104.185 52.473 C 103.232 52.140, 103.061 52.631, 103.563 54.256 M 152.376 65.201 C 151.386 66.802, 152.761 67.246, 155.688 66.270 L 158.500 65.331 155.726 64.800 C 154.201 64.507, 152.693 64.688, 152.376 65.201 M 126.740 70.939 C 121.921 71.248, 117.871 71.808, 117.740 72.185 C 117.608 72.562, 121.918 77.016, 127.318 82.084 C 133.228 87.631, 136.694 91.571, 136.026 91.984 C 135.415 92.361, 123.461 95.779, 109.462 99.579 L 84.008 106.488 101.724 124.224 C 111.467 133.979, 119.751 141.632, 120.131 141.230 C 120.511 140.829, 122.934 134.425, 125.515 127 C 128.097 119.575, 133.987 104.060, 138.604 92.523 C 143.222 80.986, 147 71.198, 147 70.773 C 147 69.960, 141.292 70.007, 126.740 70.939 M 89 73.116 C 82.125 73.571, 75.445 74.069, 74.156 74.222 C 72.221 74.451, 73.915 76.149, 83.850 83.936 C 90.470 89.127, 95.698 93.680, 95.466 94.054 C 95.235 94.429, 91.191 95.544, 86.480 96.533 C 81.768 97.522, 77.722 98.641, 77.488 99.020 C 77.253 99.399, 78.147 100.729, 79.474 101.976 L 81.887 104.243 107.099 97.394 L 132.311 90.545 122.497 81.272 L 112.682 72 107.091 72.144 C 104.016 72.223, 95.875 72.660, 89 73.116 M 63.371 85.871 L 74.209 96.742 81.854 94.785 C 86.059 93.709, 89.638 92.691, 89.807 92.524 C 89.976 92.356, 85.176 88.345, 79.140 83.610 L 68.166 75 60.350 75 L 52.534 75 63.371 85.871" stroke="none" fill="black" fill-rule="evenodd"/>
</svg>