<svg xmlns="http://www.w3.org/2000/svg" width="200" height="200" viewBox="0 0 200 200" version="1.1">
	<path d="M 137.903 24.174 C 109.711 37.992, 109.276 38.252, 107.209 42.508 C 105.459 46.108, 103.567 47.752, 95.806 52.413 C 84.600 59.143, 84.651 59.215, 88.833 42.664 L 91.769 31.049 74.991 22.024 C 65.764 17.061, 57.941 13, 57.607 13 C 57.273 13, 57.005 13.563, 57.012 14.250 C 57.019 14.938, 63.994 19.240, 72.512 23.811 C 81.972 28.887, 88 32.709, 88 33.630 C 88 34.459, 86.842 39.707, 85.426 45.292 C 84.010 50.877, 83.033 56.391, 83.254 57.546 C 83.597 59.343, 80.598 61.469, 62.481 72.269 L 41.306 84.891 32.903 85.806 C 28.281 86.309, 24.366 86.612, 24.202 86.478 C 23.896 86.231, 58.277 71.521, 63.250 69.772 C 64.763 69.240, 66 68.461, 66 68.041 C 66 67.620, 61.504 63.128, 56.009 58.058 L 46.019 48.839 38.509 53.398 C 34.379 55.905, 31 57.737, 31 57.467 C 31 57.198, 34.825 49.338, 39.500 40 C 48.075 22.873, 48.814 21, 47.005 21 C 45.864 21, 24.623 62.957, 25.381 63.714 C 25.654 63.988, 30.322 61.527, 35.753 58.246 L 45.629 52.281 53.564 59.542 C 57.929 63.535, 61.275 67.023, 61 67.292 C 60.725 67.561, 50.150 72.146, 37.500 77.481 C 24.850 82.816, 14.080 87.583, 13.567 88.074 C 11.529 90.023, 14.516 90.253, 27.014 89.112 C 39.188 88, 40.740 88.064, 50.279 90.083 C 55.901 91.272, 61.035 92.530, 61.690 92.878 C 62.349 93.230, 55.371 97.877, 46.036 103.303 C 33.898 110.359, 29.046 113.710, 28.667 115.297 C 28.378 116.509, 26.304 127.175, 24.059 139 C 21.813 150.825, 19.805 161.264, 19.595 162.198 C 19.301 163.512, 23.013 165.830, 36.016 172.450 L 52.817 181.004 56.757 173.752 C 58.923 169.763, 63.709 160.858, 67.391 153.962 L 74.085 141.424 82.249 138.384 L 90.413 135.345 93.680 122.423 C 95.477 115.315, 96.959 108.794, 96.973 107.931 C 96.991 106.885, 92.493 104.250, 83.500 100.037 C 76.075 96.558, 70 93.421, 70 93.065 C 70 92.710, 73.573 90.331, 77.940 87.779 C 83.113 84.756, 86.048 83.550, 86.364 84.319 C 86.735 85.225, 87.045 85.223, 87.694 84.312 C 88.473 83.220, 104.958 80.809, 105.924 81.647 C 106.157 81.849, 104.608 97.831, 102.482 117.162 C 98.640 152.096, 98.627 152.351, 100.343 158.905 C 103.381 170.504, 106.128 179.205, 106.603 178.730 C 106.857 178.476, 113.987 159.195, 122.446 135.884 C 130.906 112.573, 138.053 94.175, 138.330 95 C 138.606 95.825, 139.090 104.976, 139.405 115.336 L 139.977 134.173 150.239 162.101 C 157.879 182.898, 160.882 189.959, 161.996 189.752 C 163.195 189.529, 164.539 180.969, 168.787 146.487 L 174.082 103.500 169.981 86 C 167.725 76.375, 165.245 68.010, 164.469 67.411 C 163.693 66.812, 157.208 63.662, 150.058 60.411 C 142.908 57.160, 137.045 54.256, 137.029 53.959 C 137.013 53.661, 142.738 50.076, 149.750 45.992 C 181.161 27.699, 184.187 25.787, 183.236 24.836 C 182.615 24.215, 172.602 29.005, 155.166 38.266 C 138.836 46.939, 128.420 53.027, 128.962 53.581 C 129.763 54.398, 94.081 76.161, 93.156 75.421 C 92.511 74.904, 105.967 50.340, 107.737 48.803 C 108.707 47.961, 122.901 39.316, 139.281 29.591 C 155.660 19.865, 168.796 11.479, 168.472 10.954 C 168.147 10.429, 167.571 10.035, 167.191 10.078 C 166.811 10.122, 153.631 16.464, 137.903 24.174 M 120.500 35.676 C 112.129 39.932, 110.054 41.421, 110.015 43.202 C 110.003 43.777, 129.539 32.753, 130.917 31.407 C 132.284 30.072, 128.368 31.676, 120.500 35.676 M 95.143 55.942 C 91.647 58.071, 88.329 60.271, 87.769 60.831 C 87.126 61.474, 87.015 64.673, 87.469 69.513 C 88.082 76.054, 88.369 76.908, 89.425 75.339 C 91.115 72.828, 102.184 51.991, 101.804 52.035 C 101.637 52.055, 98.640 53.813, 95.143 55.942 M 112.315 67.745 C 101.214 74.190, 92.239 79.573, 92.372 79.705 C 92.504 79.838, 96.187 79.545, 100.556 79.056 C 104.924 78.566, 108.709 78.376, 108.968 78.634 C 109.226 78.893, 107.613 95.618, 105.383 115.802 L 101.330 152.500 103.982 161.896 L 106.634 171.293 122.487 127.646 C 131.206 103.641, 138.727 84, 139.201 84 C 140.691 84, 140.885 85.924, 141.852 110.263 L 142.797 134.027 151.550 157.763 C 156.365 170.819, 160.574 181.816, 160.905 182.203 C 161.236 182.590, 163.702 165.004, 166.385 143.124 L 171.264 103.342 168.098 89.921 C 166.357 82.539, 164.498 74.876, 163.966 72.892 C 163.041 69.439, 162.382 68.997, 148.695 62.642 C 140.828 58.989, 133.966 56.006, 133.446 56.013 C 132.925 56.019, 123.417 61.299, 112.315 67.745 M 65.717 73.333 C 56.181 79.110, 49.705 83.603, 50.717 83.739 C 51.698 83.871, 59.925 83.193, 69 82.233 L 85.500 80.488 85.330 76.994 C 85.011 70.453, 83.858 63, 83.178 63.083 C 82.805 63.129, 74.948 67.742, 65.717 73.333 M 63 85.521 C 56.675 86.213, 51.275 86.862, 51 86.963 C 50.426 87.175, 64.987 90.906, 66.500 90.935 C 67.050 90.946, 69.975 89.400, 73 87.500 C 79.126 83.652, 79.465 83.719, 63 85.521 M 48.468 104.969 L 31.436 114.914 27.193 137.207 C 24.859 149.468, 22.961 160.209, 22.975 161.075 C 23.006 162.997, 50.787 177.647, 51.967 176.364 C 52.404 175.889, 57.114 167.382, 62.434 157.461 L 72.107 139.421 79.598 136.561 C 83.719 134.988, 87.460 132.981, 87.913 132.100 C 88.828 130.324, 94 110.942, 94 109.293 C 94 108.375, 67.896 94.980, 66.170 95.013 C 65.801 95.019, 57.836 99.500, 48.468 104.969" stroke="none" fill="black" fill-rule="evenodd"/>
</svg>