<svg xmlns="http://www.w3.org/2000/svg" width="200" height="200" viewBox="0 0 200 200" version="1.1">
	<path d="M 103.550 21.242 C 84.336 22.838, 79.209 22.987, 77.623 21.997 C 76.005 20.986, 75.446 21.037, 74.541 22.275 C 73.697 23.430, 69.420 24.074, 56.467 24.998 C 32.652 26.697, 34.560 25.857, 30.055 36.619 L 26.251 45.703 28.565 66.957 C 29.837 78.647, 31.101 88.434, 31.373 88.706 C 33.345 90.679, 33.335 85.500, 31.330 67.307 L 29.036 46.500 32.589 37.909 L 36.141 29.318 55.601 27.904 L 75.061 26.491 76.978 32.995 C 80.500 44.946, 83 54.446, 83 55.875 C 83 57.061, 80.683 57.177, 68.642 56.591 C 52.797 55.821, 44 56.520, 44 58.549 C 44 59.947, 46.627 60.291, 70.989 62.080 C 78.958 62.666, 85.521 63.224, 85.574 63.322 C 85.626 63.420, 86.661 67.325, 87.872 72 C 90.172 80.872, 92.181 97.050, 91.116 98.119 C 90.777 98.459, 81.275 101.241, 70 104.300 L 49.500 109.863 36 107.569 C 13.841 103.805, 14 103.821, 14 105.332 C 14 106.311, 19.003 107.517, 32.052 109.683 L 50.104 112.680 71.302 106.868 C 82.961 103.671, 93.199 100.645, 94.052 100.143 C 95.361 99.373, 96.116 101.116, 98.857 111.227 C 100.645 117.826, 101.972 123.339, 101.804 123.478 C 101.637 123.617, 85.779 123.109, 66.565 122.350 C 42.031 121.381, 31.315 121.285, 30.573 122.027 C 29.831 122.769, 29.961 123.358, 31.008 124.007 C 31.829 124.515, 45.210 132.483, 60.745 141.715 L 88.990 158.500 77.245 159.114 C 70.785 159.452, 62.778 159.790, 59.451 159.864 L 53.402 160 42.098 173.063 C 35.880 180.248, 30.966 186.300, 31.179 186.512 C 32.055 187.388, 149.535 183.684, 150.125 182.762 C 150.469 182.225, 151.332 180.025, 152.042 177.874 L 153.333 173.962 146.416 163.807 C 139.859 154.178, 139.065 153.405, 131.130 148.911 L 122.759 144.172 130.630 140.516 C 134.958 138.506, 144.912 133.902, 152.750 130.285 C 160.588 126.669, 167 123.348, 167 122.906 C 167 122.465, 162.500 118.637, 157 114.402 C 151.500 110.166, 147 106.526, 147 106.313 C 147 106.100, 154.988 102.076, 164.750 97.371 C 174.512 92.666, 182.639 88.681, 182.809 88.516 C 183.374 87.967, 163.959 39.529, 162.720 38.397 C 159.787 35.719, 130.720 19.012, 129.192 19.126 C 128.261 19.196, 116.722 20.148, 103.550 21.242 M 104.202 24.013 C 92.487 24.976, 82.614 26.053, 82.260 26.407 C 81.907 26.760, 83.953 29.415, 86.809 32.306 L 92 37.563 92 47.281 L 92 57 100.561 57 L 109.123 57 108.595 52.750 C 108.306 50.413, 107.786 45.404, 107.441 41.620 L 106.813 34.740 120.156 41.757 C 127.495 45.617, 137.199 50.624, 141.720 52.884 C 147.750 55.897, 149.786 57.393, 149.363 58.496 C 148.878 59.760, 145.830 60, 130.292 60 L 111.797 60 112.440 67.250 C 113.755 82.085, 112.617 80.306, 128.581 92.497 C 136.501 98.545, 143.394 103.631, 143.897 103.799 C 144.401 103.967, 152.548 100.232, 162.002 95.499 C 177.575 87.702, 179.136 86.687, 178.609 84.697 C 178.289 83.489, 174.276 73.054, 169.690 61.510 L 161.353 40.519 145.926 31.261 C 136.425 25.560, 129.540 22.053, 128 22.133 C 126.625 22.204, 115.916 23.050, 104.202 24.013 M 79 28.884 C 79 31.003, 86.186 55.463, 87.094 56.433 C 88.467 57.902, 88.695 57.047, 89.342 48 L 89.951 39.500 84.475 33.588 C 81.464 30.337, 79 28.220, 79 28.884 M 110.579 46.250 C 111.625 58.153, 109.783 57.003, 127.769 56.981 L 143.500 56.962 127.152 48.481 C 118.161 43.817, 110.630 40, 110.417 40 C 110.205 40, 110.278 42.813, 110.579 46.250 M 79.250 59.689 C 80.213 59.941, 81.787 59.941, 82.750 59.689 C 83.713 59.438, 82.925 59.232, 81 59.232 C 79.075 59.232, 78.287 59.438, 79.250 59.689 M 92 61.492 C 92 63.432, 93.908 65.484, 100.600 70.742 C 105.329 74.459, 109.565 77.637, 110.012 77.804 C 110.459 77.971, 110.650 76.396, 110.436 74.304 C 110.223 72.212, 109.780 67.912, 109.452 64.750 L 108.856 59 100.428 59 C 92.112 59, 92 59.033, 92 61.492 M 92.308 73.669 C 92.652 76.960, 95.862 90.167, 99.441 103.018 C 103.021 115.869, 105.848 126.446, 105.725 126.522 C 105.601 126.598, 91.775 126.091, 75 125.396 C 58.225 124.701, 42.700 124.110, 40.500 124.083 C 36.840 124.038, 39.116 125.592, 67.288 142.376 L 98.076 160.718 93.399 161.359 C 90.826 161.711, 82.596 162.026, 75.110 162.058 C 54.626 162.144, 55.414 161.844, 45.436 173.363 C 40.737 178.788, 37.063 183.397, 37.272 183.606 C 37.991 184.324, 147.434 180.966, 148.198 180.202 C 148.618 179.782, 149.195 178.102, 149.479 176.469 C 149.906 174.016, 148.910 171.952, 143.748 164.590 C 137.849 156.178, 136.955 155.369, 127.750 150.125 C 122.388 147.071, 118 144.295, 118 143.958 C 118 143.620, 128.012 138.697, 140.250 133.017 C 152.488 127.338, 162.603 122.620, 162.729 122.533 C 162.854 122.447, 158.654 119.090, 153.394 115.074 L 143.830 107.773 140.090 109.460 L 136.349 111.146 124.425 105.323 C 112.767 99.631, 112.494 99.422, 112.251 96 C 111.253 81.999, 111.630 82.795, 102.691 75.807 C 90.838 66.541, 91.579 66.694, 92.308 73.669 M 114.326 87.875 C 114.697 89.731, 115 92.777, 115 94.644 C 115 97.981, 115.183 98.125, 125.744 103.069 C 134.949 107.378, 136.834 107.941, 138.896 107.001 C 140.242 106.388, 140.906 105.548, 140.402 105.096 C 139.261 104.073, 122.790 91.327, 117.576 87.432 L 113.652 84.500 114.326 87.875" stroke="none" fill="black" fill-rule="evenodd"/>
</svg>