<svg xmlns="http://www.w3.org/2000/svg" width="200" height="200" viewBox="0 0 200 200" version="1.1">
	<path d="M 88.580 29.526 L 68.792 51.019 54.646 50.480 C 46.866 50.183, 38.138 49.725, 35.250 49.462 C 31.164 49.089, 30 49.296, 30 50.398 C 30 51.859, 33.101 52.184, 59.144 53.450 L 69.789 53.968 88.101 34.053 C 98.173 23.099, 106.706 14.318, 107.063 14.539 C 107.421 14.760, 108.523 19.665, 109.513 25.439 L 111.312 35.937 121.406 45.143 C 126.958 50.207, 131.638 54.684, 131.806 55.092 C 131.974 55.501, 124.099 55.760, 114.306 55.667 L 96.500 55.500 96.226 72.908 C 96.020 85.934, 95.616 90.590, 94.618 91.408 C 93.884 92.008, 90.633 100.370, 87.392 109.988 C 81.548 127.335, 81.415 127.598, 71 142.453 L 60.500 157.429 45 168.638 C 36.475 174.803, 29.188 179.881, 28.806 179.923 C 26.715 180.154, 33.741 168.500, 44.434 154 L 56.601 137.500 61.321 119.829 C 64.192 109.078, 67.330 93.730, 69.332 80.635 L 72.624 59.112 69.062 58.562 C 67.103 58.259, 59.425 57.323, 52 56.482 C 44.575 55.641, 33.162 53.799, 26.639 52.388 C 18.312 50.587, 14.463 50.137, 13.722 50.878 C 12.401 52.199, 12.507 52.235, 27 55.347 C 33.325 56.705, 45.362 58.595, 53.750 59.546 C 66.783 61.024, 69 61.523, 69 62.981 C 69 69.401, 62.370 105.417, 58.629 119.320 L 54.104 136.140 41.878 152.820 C 32.793 165.215, 28.785 171.649, 26.274 177.865 C 24.416 182.465, 23.072 186.405, 23.288 186.621 C 23.503 186.836, 32.479 180.725, 43.233 173.039 L 62.788 159.066 73.129 144.283 C 83.182 129.912, 83.641 129.013, 89.622 112 L 95.773 94.500 101.637 94.169 C 104.861 93.987, 112.623 94.148, 118.885 94.526 L 130.270 95.214 129.613 109.357 C 128.448 134.457, 129.235 132.085, 117.583 145.626 L 107.366 157.500 95.611 158.500 L 83.856 159.500 100.590 173.500 C 109.794 181.200, 118.050 188.017, 118.937 188.648 C 120.282 189.607, 122.853 187.825, 134.524 177.842 C 142.211 171.267, 148.822 165.568, 149.216 165.178 C 149.610 164.787, 151.737 154.125, 153.943 141.484 C 156.149 128.843, 159.303 111.550, 160.951 103.057 C 162.598 94.563, 163.846 87.537, 163.723 87.443 C 163.600 87.350, 157.795 85.385, 150.822 83.078 L 138.143 78.882 119.316 83.941 C 108.961 86.723, 100.154 89, 99.744 89 C 99.335 89, 99 81.955, 99 73.345 L 99 57.690 140.096 58.405 C 162.699 58.798, 180.982 58.755, 180.726 58.310 C 180.470 57.864, 177.200 52.100, 173.460 45.500 C 169.721 38.900, 166.568 33.368, 166.455 33.208 C 166.341 33.047, 158.925 37.406, 149.974 42.894 L 133.699 52.873 123.865 43.776 C 115.914 36.422, 113.907 33.992, 113.384 31.090 C 111.248 19.221, 109.125 8.792, 108.774 8.441 C 108.550 8.217, 99.463 17.706, 88.580 29.526 M 149.516 46.322 L 134.532 55.500 144.711 55.784 C 150.310 55.941, 159.627 55.941, 165.415 55.784 L 175.939 55.500 170.720 46.253 C 167.849 41.167, 165.275 37.037, 165 37.075 C 164.725 37.113, 157.757 41.275, 149.516 46.322 M 121 86.308 C 106.441 90.200, 105.743 90.495, 109.500 91.168 C 111.700 91.562, 117.888 91.911, 123.250 91.942 L 133 92 133 96.723 C 133 99.321, 132.496 108.884, 131.879 117.973 L 130.759 134.500 119.372 147.711 L 107.985 160.922 99.281 161.211 L 90.578 161.500 105.245 173.824 C 115.539 182.474, 120.323 185.903, 121.290 185.324 C 124.808 183.221, 147.031 163.467, 147.449 162.073 C 147.708 161.208, 148.854 154.875, 149.996 148 C 152.352 133.816, 159.843 93.291, 160.538 90.967 C 160.891 89.787, 158.394 88.577, 149.703 85.717 C 143.492 83.673, 137.980 82.037, 137.455 82.082 C 136.930 82.127, 129.525 84.029, 121 86.308" stroke="none" fill="black" fill-rule="evenodd"/>
</svg>