<svg xmlns="http://www.w3.org/2000/svg" width="200" height="200" viewBox="0 0 200 200" version="1.1">
	<path d="M 72.500 21.743 C 62.050 23.131, 53.390 24.353, 53.256 24.460 C 53.123 24.567, 54.102 27.432, 55.432 30.827 C 58.322 38.201, 59.339 37.917, 42 34.583 C 35.125 33.261, 29.354 32.323, 29.175 32.498 C 28.755 32.910, 24.060 64.857, 24.026 67.536 C 24.005 69.141, 26.332 70.723, 35 75 C 41.050 77.985, 46 80.614, 46 80.842 C 46 81.071, 37.411 90.026, 26.914 100.743 C 14.392 113.528, 8.167 120.567, 8.813 121.213 C 9.459 121.859, 17.483 118.862, 32.149 112.498 C 44.442 107.163, 55.065 102.570, 55.754 102.290 C 56.444 102.011, 50.694 107.998, 42.976 115.595 C 33.712 124.712, 29.134 129.908, 29.507 130.880 C 29.818 131.690, 32.599 136.339, 35.688 141.210 L 41.303 150.068 43.401 169.735 L 45.500 189.403 69.855 162.951 C 83.250 148.403, 94.429 135.955, 94.697 135.288 C 94.966 134.621, 91.993 129.952, 88.092 124.911 C 84.192 119.871, 81 115.425, 81 115.032 C 81 114.222, 113.019 89.630, 113.388 90.158 C 113.769 90.703, 120.023 137.287, 120.011 139.491 C 120.004 140.736, 112.614 148.875, 100.280 161.221 C 87.236 174.277, 80.895 181.295, 81.552 181.952 C 82.208 182.608, 93.201 179.012, 114.022 171.331 L 145.500 159.718 151.500 161.354 C 154.800 162.254, 162.338 164.526, 168.250 166.404 C 174.162 168.282, 179 169.537, 179 169.193 C 179 168.849, 175.813 154.065, 171.919 136.339 L 164.838 104.110 170.846 75.305 C 174.150 59.462, 176.543 46.179, 176.164 45.787 C 175.784 45.395, 168.043 41.938, 158.960 38.105 L 142.446 31.136 128.973 34.037 L 115.500 36.938 110 42.863 C 105.436 47.779, 103.692 48.955, 99.750 49.772 L 95 50.758 95 34.879 C 95 20.381, 94.848 19.010, 93.250 19.110 C 92.287 19.171, 82.950 20.356, 72.500 21.743 M 74 24.374 C 64.925 25.544, 57.517 26.951, 57.539 27.501 C 57.647 30.319, 60.551 37.221, 61.926 37.927 C 62.792 38.373, 65.300 39.036, 67.500 39.403 C 75.792 40.783, 77 41.195, 77 42.647 C 77 43.593, 76.363 43.948, 75.250 43.621 C 74.287 43.338, 71.700 42.818, 69.500 42.466 C 67.300 42.114, 64.722 41.612, 63.772 41.352 C 62.250 40.935, 62.347 41.684, 64.592 47.648 C 65.993 51.371, 67.316 54.702, 67.531 55.050 C 67.906 55.658, 90.670 51.693, 91.415 50.890 C 91.614 50.676, 92.103 44.088, 92.501 36.250 C 93.097 24.508, 92.985 22.022, 91.862 22.124 C 91.113 22.192, 83.075 23.205, 74 24.374 M 128.777 36.848 C 118.061 39.272, 116.711 39.838, 113.046 43.435 C 110.841 45.599, 109.177 47.510, 109.348 47.681 C 109.519 47.853, 113.358 47.251, 117.878 46.344 C 122.725 45.372, 126.437 45.066, 126.928 45.598 C 127.939 46.694, 145 95.136, 145 96.910 C 145 100.117, 141.829 96.264, 133.901 83.425 C 129.172 75.766, 124.672 69.500, 123.901 69.500 C 123.131 69.500, 116.615 70.571, 109.422 71.880 L 96.343 74.260 88.922 86.114 C 84.840 92.634, 81.223 97.975, 80.884 97.984 C 80.545 97.993, 77.245 89.753, 73.550 79.674 C 69.856 69.595, 66.485 60.784, 66.059 60.095 C 65.445 59.102, 63.497 59.196, 56.693 60.547 C 51.968 61.486, 47.340 61.961, 46.408 61.603 C 43.907 60.643, 44.841 60.212, 53.056 58.530 C 57.150 57.692, 61.468 56.782, 62.652 56.509 L 64.804 56.011 61.850 48.238 L 58.897 40.464 45.199 37.890 C 37.664 36.475, 31.428 35.358, 31.341 35.408 C 31.044 35.579, 27 64.146, 27 66.072 C 27 67.516, 29.977 69.477, 39.155 74.077 L 51.309 80.170 33.405 98.184 C 23.092 108.559, 16.468 115.910, 17.783 115.521 C 19.038 115.149, 29.726 110.648, 41.534 105.519 C 54.396 99.933, 63.253 96.601, 63.629 97.208 C 63.973 97.766, 57.007 105.485, 48.149 114.361 L 32.042 130.500 38.002 139.767 L 43.962 149.034 45.666 165.517 C 46.603 174.583, 47.661 182, 48.017 182 C 48.372 182, 58.436 171.385, 70.381 158.412 C 84.869 142.675, 91.810 134.437, 91.233 133.662 C 90.757 133.023, 87.360 128.594, 83.684 123.820 C 80.008 119.045, 77 114.903, 77 114.614 C 77 113.901, 115.064 84.714, 115.423 85.152 C 115.580 85.344, 117.440 98.230, 119.556 113.788 L 123.403 142.076 105.452 160.088 L 87.500 178.100 97 174.645 C 102.225 172.745, 115.356 167.934, 126.179 163.954 L 145.859 156.718 160.429 161.226 C 170.695 164.403, 175 165.352, 175 164.441 C 175 163.729, 172.079 149.839, 168.508 133.575 L 162.016 104.003 167.489 77.751 C 170.498 63.313, 173.182 50.573, 173.452 49.440 C 173.887 47.614, 172.137 46.618, 158.084 40.690 C 149.361 37.010, 141.837 34.044, 141.362 34.098 C 140.888 34.152, 135.225 35.389, 128.777 36.848 M 113.768 49.841 C 106.310 51.441, 105.788 51.747, 99.018 58.473 L 92 65.446 92 59.615 C 92 54.074, 91.888 53.810, 89.750 54.321 C 88.513 54.617, 83.338 55.613, 78.250 56.534 C 73.162 57.454, 69 58.526, 69 58.915 C 69 59.960, 80.585 90.918, 81.210 91.543 C 81.504 91.837, 84.573 87.673, 88.031 82.289 C 91.489 76.905, 94.389 72.395, 94.476 72.267 C 94.760 71.846, 126.200 65.864, 126.435 66.186 C 126.561 66.359, 128.822 70.005, 131.460 74.289 C 134.097 78.573, 136.431 81.902, 136.646 81.687 C 136.861 81.472, 134.441 73.917, 131.268 64.898 C 126.511 51.376, 125.149 48.472, 123.500 48.341 C 122.400 48.254, 118.021 48.929, 113.768 49.841 M 97.750 52.716 C 95.556 53.049, 95 53.662, 95 55.754 L 95 58.374 98 55.500 C 100.502 53.103, 101.802 51.519, 100.750 52.150 C 100.612 52.232, 99.263 52.487, 97.750 52.716" stroke="none" fill="black" fill-rule="evenodd"/>
</svg>