<svg xmlns="http://www.w3.org/2000/svg" width="200" height="200" viewBox="0 0 200 200" version="1.1">
	<path d="M 101.424 22.750 C 92.248 34.202, 87.398 39.381, 83.652 41.727 C 80.818 43.502, 78.236 44.965, 77.913 44.977 C 77.591 44.990, 71.966 37.593, 65.413 28.539 C 58.861 19.486, 53.275 12.080, 53 12.082 C 52.725 12.085, 45.634 21.291, 37.243 32.541 L 21.987 52.996 28.100 81.248 L 34.212 109.500 23.144 145.954 C 17.056 166.004, 12.171 182.491, 12.288 182.591 C 12.404 182.691, 22.779 182.244, 35.342 181.598 C 53.420 180.669, 58.361 180.119, 59.035 178.962 C 59.503 178.158, 67.712 164.901, 77.277 149.502 L 94.668 121.504 90.334 111.159 C 87.950 105.469, 86 100.442, 86 99.988 C 86 99.533, 91.850 96.023, 99 92.187 L 112 85.213 112 89.433 C 112 93.091, 111.091 94.867, 105.183 102.756 L 98.365 111.859 88.118 147.032 C 82.483 166.377, 78.077 182.410, 78.328 182.662 C 78.579 182.913, 87.022 178.995, 97.089 173.955 L 115.394 164.792 132.947 169.916 C 142.601 172.735, 158.732 177.463, 168.794 180.425 C 182.339 184.412, 186.751 185.380, 185.794 184.155 C 184.554 182.569, 155.149 149.228, 150.337 143.952 L 148.013 141.404 162.484 125.569 C 170.442 116.861, 176.780 109.453, 176.567 109.108 C 176.354 108.763, 169.164 105.365, 160.590 101.556 C 152.015 97.747, 145 94.360, 145 94.029 C 145 93.698, 153.550 90.772, 164 87.526 C 182.400 81.811, 186.205 79.767, 180.750 78.526 C 179.512 78.245, 168.600 76.184, 156.500 73.946 C 144.400 71.708, 133.940 69.694, 133.255 69.472 C 132.438 69.206, 133.642 66.526, 136.755 61.677 L 141.500 54.288 159.500 49.500 C 177.839 44.623, 180.527 43.562, 178.194 42.120 C 176.523 41.087, 123.850 29.817, 123.293 30.373 C 122.945 30.721, 120.095 70.623, 120.022 76.164 C 120.005 77.468, 115.520 75.776, 99.250 68.325 C 87.838 63.099, 78.170 58.510, 77.767 58.129 C 77.365 57.747, 80.113 53.625, 83.875 48.967 C 90.131 41.223, 91.752 39.902, 102.845 33.500 C 109.516 29.650, 114.980 25.938, 114.987 25.250 C 115.007 23.301, 114.070 23.661, 105.123 29.042 C 100.516 31.813, 96.620 33.949, 96.465 33.790 C 96.309 33.630, 100.641 27.933, 106.091 21.128 C 111.541 14.323, 116 8.361, 116 7.878 C 116 5.275, 112.853 8.486, 101.424 22.750 M 38.715 35.375 L 24.971 53.750 31.007 81.531 L 37.043 109.313 26.473 144.275 C 20.660 163.504, 16.038 179.364, 16.202 179.518 C 16.366 179.672, 23.025 179.419, 31 178.954 C 38.975 178.489, 47.975 178.079, 51 178.042 L 56.500 177.975 73.932 149.839 L 91.364 121.704 89.698 117.012 C 88.781 114.431, 86.893 109.745, 85.502 106.599 L 82.972 100.879 72.991 106.190 C 61.470 112.320, 62.233 110.223, 64.634 129.170 C 65.533 136.262, 66.024 142.310, 65.725 142.609 C 65.149 143.184, 39.714 123.443, 39.198 122.019 C 39.031 121.561, 43.419 118.820, 48.948 115.929 C 60.478 109.899, 59.774 111.621, 57.500 95 C 56.710 89.225, 56.049 83.318, 56.032 81.873 C 56.009 79.972, 59.592 74.800, 69 63.152 C 76.150 54.299, 82 46.803, 82 46.493 C 82 46.183, 81.130 46.395, 80.066 46.965 C 79.002 47.534, 77.689 48, 77.148 48 C 76.607 48, 71.083 41.025, 64.872 32.500 C 58.661 23.975, 53.328 17, 53.019 17 C 52.711 17, 46.274 25.269, 38.715 35.375 M 124.043 55.513 C 123.133 71.695, 123.081 78.393, 123.860 79.331 C 124.647 80.280, 124.578 81.164, 123.605 82.568 C 122.694 83.884, 121.896 91.357, 121.103 106 C 119.665 132.525, 119.158 137, 117.590 137 C 116.738 137, 115.996 132.535, 115.139 122.250 C 114.463 114.138, 113.643 105.138, 113.317 102.251 L 112.725 97.003 106.829 104.907 L 100.933 112.810 91.512 145.117 C 86.330 162.886, 82.247 177.581, 82.438 177.772 C 82.629 177.963, 90.089 174.462, 99.015 169.992 L 115.245 161.866 146.246 170.976 C 163.296 175.987, 177.446 179.888, 177.689 179.644 C 177.933 179.401, 170.645 170.816, 161.494 160.568 C 152.343 150.319, 145 141.523, 145.178 141.021 C 145.355 140.519, 151.692 133.357, 159.260 125.105 L 173.021 110.103 168.760 108.183 C 166.417 107.128, 158.650 103.677, 151.500 100.516 C 144.350 97.354, 138.112 94.410, 137.638 93.972 C 137.164 93.534, 143.464 91.085, 151.638 88.529 C 173.928 81.559, 176.157 80.821, 175.815 80.519 C 175.642 80.366, 165.150 78.318, 152.500 75.968 C 139.850 73.618, 129.112 71.353, 128.638 70.935 C 128.163 70.517, 130.638 65.999, 134.138 60.894 L 140.500 51.612 155.714 47.603 C 164.081 45.398, 170.754 43.421, 170.542 43.209 C 170.274 42.940, 126.467 33.035, 125.405 33.003 C 125.352 33.001, 124.740 43.131, 124.043 55.513 M 74.181 64.790 C 73.075 69.365, 73.205 69.894, 78.700 83.232 L 84.357 96.964 94.928 91.335 C 100.743 88.239, 107.381 84.622, 109.680 83.298 L 113.861 80.892 114.708 85.174 L 115.555 89.457 117.904 85.655 C 119.241 83.492, 119.876 81.484, 119.377 80.995 C 118.895 80.523, 109.061 75.795, 97.524 70.488 C 85.988 65.181, 76.272 60.668, 75.934 60.459 C 75.596 60.250, 74.807 62.199, 74.181 64.790 M 64.436 73.165 L 58.647 80.331 59.908 91.915 C 60.602 98.287, 61.407 104.712, 61.698 106.194 L 62.227 108.887 70.864 104.292 C 75.614 101.765, 80.010 99.203, 80.632 98.599 C 81.471 97.785, 80.258 93.943, 75.962 83.802 C 72.447 75.503, 70.371 69.296, 70.697 68.052 C 70.992 66.924, 71.006 66, 70.729 66 C 70.452 66, 67.620 69.224, 64.436 73.165 M 116.929 91.348 C 115.558 93.227, 115.499 94.960, 116.465 105 L 117.572 116.500 118.380 103.178 C 118.825 95.851, 119.034 89.707, 118.845 89.526 C 118.655 89.344, 117.793 90.164, 116.929 91.348 M 51.236 117.740 L 42.972 122.169 52.736 129.939 C 58.106 134.212, 62.610 137.626, 62.745 137.526 C 63.007 137.331, 59.994 113.611, 59.684 113.423 C 59.583 113.362, 55.781 115.305, 51.236 117.740" stroke="none" fill="black" fill-rule="evenodd"/>
</svg>