<svg xmlns="http://www.w3.org/2000/svg" width="200" height="200" viewBox="0 0 200 200" version="1.1">
	<path d="M 42.500 27.522 C 26.896 36.544, 24.531 38.234, 24.731 40.215 C 24.858 41.472, 26.317 51.725, 27.975 63 C 29.632 74.275, 30.991 85.139, 30.994 87.143 C 30.997 89.147, 28.300 107.196, 25 127.253 C 21.700 147.310, 19.023 164.346, 19.051 165.110 C 19.097 166.340, 38.423 182.974, 40.680 183.727 C 41.295 183.932, 85.886 148.363, 89.712 144.617 C 89.828 144.503, 88.218 134.225, 86.133 121.777 C 81.768 95.714, 81.093 98.039, 93.038 98.014 C 99.524 98, 99.612 98.037, 104.225 102.750 L 108.875 107.500 109.943 121 C 110.530 128.425, 111.899 141.925, 112.986 151 C 114.072 160.075, 114.969 168.480, 114.980 169.678 C 114.994 171.206, 112.861 173.518, 107.829 177.428 L 100.658 183 104.579 182.974 C 106.735 182.959, 124.025 182.296, 143 181.500 C 161.975 180.704, 180.425 180.026, 184 179.994 C 192.179 179.921, 192.671 180.316, 166.899 166.293 C 155.989 160.357, 147.048 155.210, 147.031 154.856 C 147.007 154.355, 166.135 130.687, 173.651 121.918 C 174.979 120.367, 171.652 117.188, 154.845 103.949 C 152.950 102.456, 153.257 102.023, 162.944 92.505 C 168.482 87.064, 172.671 82.271, 172.254 81.854 C 171.836 81.436, 161.146 76.983, 148.497 71.958 C 135.849 66.934, 125.369 62.694, 125.209 62.537 C 125.050 62.380, 125.826 60.714, 126.935 58.835 L 128.951 55.418 156.726 52.098 C 172.002 50.272, 185.738 48.547, 187.250 48.264 C 189.953 47.759, 191.196 45.028, 188.750 44.971 C 188.063 44.954, 173.100 43.427, 155.500 41.577 L 123.500 38.213 116.500 42.251 C 112.650 44.472, 109.203 46.451, 108.840 46.648 C 108.477 46.845, 104.736 42.280, 100.526 36.503 C 93.332 26.632, 90.946 24.305, 91.040 27.250 C 91.061 27.938, 94.414 32.985, 98.489 38.467 C 102.565 43.949, 105.809 48.507, 105.700 48.595 C 105.497 48.760, 79.039 64.932, 77.852 65.618 C 77.495 65.824, 75.761 63.744, 73.998 60.996 C 72.234 58.248, 70.415 56, 69.955 56 C 68.021 56, 68.155 58.102, 70.414 63.209 L 72.813 68.633 64.913 73.368 C 59.813 76.424, 56.826 78.882, 56.487 80.301 C 55.177 85.787, 40 162.571, 40 163.715 C 40 164.422, 40.563 164.995, 41.250 164.989 C 42.018 164.982, 46.317 152.487, 52.395 132.596 L 62.291 100.214 65.895 99.618 C 67.878 99.290, 71.767 99.017, 74.537 99.011 L 79.574 99 82.976 119.750 C 84.848 131.162, 86.406 141.213, 86.439 142.084 C 86.473 142.976, 76.553 151.827, 63.722 162.352 L 40.944 181.036 31.537 173.268 C 26.308 168.950, 22.101 164.706, 22.065 163.712 C 22.029 162.729, 24.776 145.404, 28.168 125.212 L 34.336 88.500 31.096 65.500 C 29.314 52.850, 27.671 41.825, 27.443 41 C 27.152 39.942, 31.834 36.771, 43.313 30.250 C 52.269 25.163, 59.897 21, 60.264 21 C 60.631 21, 65.253 27.300, 70.535 35 C 79.255 47.712, 82 50.828, 82 48.016 C 82 46.825, 62.190 17.580, 61.199 17.308 C 60.815 17.202, 52.400 21.798, 42.500 27.522 M 116.744 45.111 L 109.989 49.243 114.530 55.372 C 121.831 65.224, 122.091 66.189, 121.777 82.283 L 121.500 96.500 112.162 96.789 L 102.823 97.077 107.259 102.289 C 111.658 107.457, 111.700 107.578, 112.359 117 C 112.725 122.225, 114.200 136.822, 115.637 149.439 L 118.249 172.377 113.874 176.259 L 109.500 180.140 120.500 179.587 C 126.550 179.283, 140.950 178.751, 152.500 178.404 C 183.933 177.461, 183.253 178.311, 161.947 166.604 C 152.042 161.161, 143.698 156.320, 143.405 155.846 C 143.112 155.373, 149.261 147.273, 157.069 137.847 C 170.932 121.111, 171.217 120.671, 169.225 119.104 C 168.104 118.222, 163.077 114.150, 158.056 110.055 L 148.926 102.610 158.662 92.837 C 164.017 87.462, 168.196 82.897, 167.949 82.693 C 167.702 82.488, 157.025 78.147, 144.223 73.045 L 120.946 63.768 123.606 59.134 C 125.069 56.585, 126.576 54.153, 126.955 53.728 C 127.334 53.303, 138.394 51.596, 151.533 49.933 C 164.672 48.271, 175.536 46.797, 175.675 46.659 C 175.813 46.520, 165.481 45.364, 152.713 44.089 C 139.946 42.815, 128.150 41.594, 126.500 41.376 C 124.290 41.084, 121.721 42.068, 116.744 45.111 M 93.647 59.250 C 86.165 63.788, 79.921 67.766, 79.772 68.091 C 79.283 69.156, 91.859 86.445, 96.273 90.777 L 100.584 95.008 109.792 94.354 L 119 93.701 119 80.068 L 119 66.436 113.434 58.718 C 110.373 54.473, 107.729 51, 107.560 51 C 107.390 51, 101.130 54.712, 93.647 59.250 M 77.433 73.250 C 78.166 75.037, 79.336 80.409, 80.034 85.186 C 80.732 89.964, 81.625 94.393, 82.019 95.030 C 82.520 95.841, 84.746 95.972, 89.448 95.469 L 96.161 94.750 92.739 91.125 C 90.856 89.131, 86.514 83.563, 83.090 78.750 C 79.665 73.938, 76.692 70, 76.483 70 C 76.273 70, 76.701 71.463, 77.433 73.250 M 66.402 75.618 L 59.303 79.962 54.162 105.658 C 51.334 119.791, 49.165 131.498, 49.342 131.675 C 49.519 131.852, 52.047 124.183, 54.960 114.632 L 60.256 97.268 69.347 96.581 C 74.347 96.204, 78.545 95.789, 78.675 95.659 C 79.218 95.115, 75.808 76.534, 74.703 74.015 L 73.500 71.273 66.402 75.618" stroke="none" fill="black" fill-rule="evenodd"/>
</svg>