<svg xmlns="http://www.w3.org/2000/svg" width="200" height="200" viewBox="0 0 200 200" version="1.1">
	<path d="M 117 20.124 L 84.500 27.010 65.076 23.512 C 54.393 21.588, 45.475 20.192, 45.258 20.409 C 45.040 20.627, 42.648 28.161, 39.942 37.152 L 35.022 53.500 35.011 81.583 C 35.005 97.029, 35.236 109.902, 35.524 110.190 C 35.811 110.478, 43.574 109.194, 52.774 107.337 C 61.973 105.480, 70.081 104.082, 70.791 104.230 C 71.903 104.462, 79.696 120.316, 81.513 126.042 C 82.121 127.958, 81.452 128, 50.484 128 C 25.776 128, 18.924 128.271, 19.246 129.238 C 19.513 130.039, 25.021 131.097, 34.858 132.239 L 50.057 134.002 66.706 142.844 L 83.355 151.687 92.927 172.823 C 98.192 184.447, 102.731 193.968, 103.013 193.979 C 103.295 193.991, 105.862 181.571, 108.717 166.380 C 111.572 151.188, 114.043 138.624, 114.209 138.458 C 114.374 138.292, 124.814 137.487, 137.408 136.669 L 160.305 135.181 169.374 126.112 C 175.179 120.307, 178.094 116.702, 177.472 116.094 C 176.855 115.492, 169 117.266, 156 120.943 C 144.725 124.132, 132.304 127.646, 128.398 128.751 L 121.296 130.762 119.011 117.351 C 117.754 109.975, 116.900 103.799, 117.113 103.626 C 117.326 103.452, 127.111 105.068, 138.857 107.215 C 150.604 109.362, 160.471 110.862, 160.784 110.549 C 161.098 110.235, 161.996 97.192, 162.781 81.564 L 164.207 53.149 160.484 36.824 C 158.436 27.846, 156.441 19.905, 156.050 19.179 C 155.565 18.275, 150.812 22.704, 141.022 33.179 C 133.146 41.605, 125.253 50.009, 123.481 51.854 L 120.258 55.208 111.629 52.398 C 106.883 50.852, 103 49.328, 103 49.010 C 103 48.693, 109.638 45.690, 117.750 42.337 C 136.765 34.477, 137.469 33, 122.198 33 C 101.657 33, 102.231 32.026, 125.419 27.535 C 138.036 25.092, 146.503 22.991, 146.753 22.242 C 147.371 20.388, 145.575 20.611, 121.052 25.447 C 104.453 28.719, 97.576 29.687, 95 29.113 L 91.500 28.332 97 27.153 C 100.025 26.504, 114.173 23.587, 128.439 20.669 C 143.165 17.658, 154.549 14.853, 154.773 14.182 C 155.427 12.219, 151.079 12.903, 117 20.124 M 44.477 31.785 C 43.035 36.578, 40.987 43.360, 39.927 46.855 C 38.230 52.454, 38 56.414, 38 80.105 C 38 94.897, 38.370 107, 38.822 107 C 39.274 107, 47.160 105.485, 56.346 103.634 C 65.532 101.782, 73.218 100.545, 73.427 100.884 C 74.725 102.987, 86 129.268, 86 130.188 C 86 131.004, 80.569 131.154, 66.250 130.733 C 53.309 130.353, 47.534 130.477, 49.500 131.093 C 51.150 131.610, 59.920 136.023, 68.989 140.901 L 85.479 149.770 93.486 167.338 C 97.890 177.001, 101.773 184.590, 102.115 184.203 C 102.456 183.816, 104.618 173.375, 106.917 161 C 109.217 148.625, 111.312 137.776, 111.572 136.892 C 111.974 135.524, 115.535 135.090, 135.461 133.981 L 158.877 132.678 165.188 126.217 C 172.633 118.596, 175.119 118.442, 142.617 127.612 C 130.032 131.163, 119.563 133.896, 119.352 133.685 C 118.859 133.193, 113.129 100.591, 113.470 100.220 C 113.612 100.066, 123.784 101.733, 136.075 103.925 C 148.367 106.116, 158.505 107.818, 158.604 107.705 C 158.704 107.592, 159.327 94.900, 159.989 79.500 L 161.192 51.500 157.774 37.120 L 154.356 22.740 139.178 39.006 C 130.830 47.953, 124 55.590, 124 55.978 C 124 56.366, 126.721 57.507, 130.048 58.514 C 133.374 59.522, 136.311 60.694, 136.574 61.120 C 137.164 62.074, 133.862 94.605, 133.040 95.935 C 132.688 96.505, 120.321 96.961, 102.474 97.060 C 78.993 97.190, 72.500 96.954, 72.500 95.970 C 72.500 95.279, 76.652 92.928, 81.728 90.746 C 90.888 86.808, 91.054 86.673, 104.503 72.187 L 118.051 57.594 108.776 54.332 C 103.674 52.537, 98.909 51.053, 98.187 51.034 C 97.464 51.015, 92.328 52.864, 86.773 55.142 C 80.225 57.827, 76.230 58.970, 75.415 58.392 C 74.723 57.901, 70.056 52.663, 65.044 46.750 C 60.032 40.837, 55.272 36, 54.466 36 C 53.659 36, 53 35.383, 53 34.630 C 53 33.680, 56.604 32.543, 64.750 30.924 L 76.500 28.588 64.500 26.335 C 57.900 25.096, 51.285 23.855, 49.800 23.576 C 47.179 23.085, 47.022 23.327, 44.477 31.785 M 76.500 31.562 L 71.500 32.933 76.390 32.466 C 79.079 32.210, 84.029 31.948, 87.390 31.885 C 93.282 31.774, 93.357 31.741, 89.500 30.943 C 84.214 29.849, 82.442 29.934, 76.500 31.562 M 68.500 35.769 C 64.827 36.166, 65.851 36.668, 81 41.892 L 97.500 47.583 111.198 42.041 L 124.896 36.500 120.198 35.838 C 115.097 35.118, 75.006 35.065, 68.500 35.769 M 63 39.532 C 63 40.139, 69.661 48.259, 75.579 54.865 C 76.601 56.006, 78.130 55.686, 84.903 52.917 C 89.359 51.095, 92.666 49.300, 92.252 48.927 C 91.839 48.554, 85.650 46.327, 78.500 43.978 C 71.350 41.628, 64.938 39.499, 64.250 39.246 C 63.563 38.993, 63 39.122, 63 39.532 M 106.064 74.500 C 98.179 83.025, 91.397 90, 90.992 90 C 90.588 90, 87.836 91.124, 84.878 92.498 L 79.500 94.997 105 94.376 C 119.025 94.034, 130.585 93.687, 130.689 93.605 C 131.433 93.016, 133.961 63.579, 133.317 63 C 132.344 62.126, 123.127 59, 121.522 59 C 120.905 59, 113.949 65.975, 106.064 74.500" stroke="none" fill="black" fill-rule="evenodd"/>
</svg>