<svg xmlns="http://www.w3.org/2000/svg" width="200" height="200" viewBox="0 0 200 200" version="1.1">
	<path d="M 147.344 18.771 L 128.188 29.473 112.344 54.871 L 96.500 80.268 95.500 60.566 L 94.500 40.864 85 36.880 C 65.865 28.857, 46.072 21.837, 44.789 22.620 C 44.080 23.053, 37.087 29.228, 29.250 36.343 L 15 49.278 15 55.412 C 15 58.786, 14.309 82.815, 13.464 108.810 C 12.619 134.806, 12.139 156.416, 12.397 156.833 C 12.655 157.250, 19.216 160.455, 26.979 163.955 C 37.313 168.615, 40.945 170.702, 40.543 171.750 C 39.636 174.112, 40.845 174.884, 43.754 173.800 C 46.126 172.916, 47.978 173.470, 57.364 177.877 C 63.340 180.682, 68.740 182.670, 69.364 182.296 C 69.989 181.922, 82.650 172.565, 97.500 161.503 L 124.500 141.390 131.705 128.445 C 135.668 121.325, 139.518 114.670, 140.261 113.655 C 141.440 112.045, 142.340 115.809, 147.316 143.155 C 150.453 160.395, 153.748 178.438, 154.639 183.250 C 156.486 193.230, 158.212 194.543, 159.899 187.250 C 162.203 177.294, 182 81.833, 182 80.683 C 182 79.920, 174.363 77.852, 161.250 75.064 C 149.838 72.638, 139.720 70.386, 138.766 70.060 C 137.360 69.580, 138.590 67.745, 145.266 60.360 C 149.795 55.350, 158.854 45.321, 165.397 38.073 C 184.585 16.819, 178.288 20.399, 151.237 46.124 C 137.907 58.801, 127 69.584, 127 70.086 C 127 70.589, 127.900 71, 129 71 C 130.100 71, 131 71.259, 131 71.577 C 131 72.286, 100.351 106.148, 98.575 107.401 C 97.721 108.003, 95.825 107.287, 92.843 105.236 C 88.449 102.213, 88.370 102.058, 87.051 93.835 C 85.006 81.084, 85.423 81.443, 78.576 86.567 C 75.317 89.005, 72.255 91, 71.770 91 C 71.286 91, 67.202 88.638, 62.696 85.750 L 54.503 80.500 62.761 80.209 C 70.705 79.930, 70.998 79.835, 70.501 77.709 C 70.216 76.494, 69.079 71.021, 67.973 65.547 C 66.867 60.073, 65.493 55.304, 64.919 54.950 C 64.345 54.595, 59.523 53.770, 54.202 53.116 C 48.881 52.463, 44.237 51.606, 43.882 51.214 C 43.527 50.821, 42.217 47.013, 40.972 42.750 C 39.483 37.652, 38.209 35, 37.247 35 C 36.444 35, 35.986 35.562, 36.230 36.250 C 36.474 36.938, 37.735 41.226, 39.032 45.780 C 41.686 55.099, 40.441 54.274, 54.589 56.080 L 63.678 57.240 65.455 66.671 C 66.432 71.858, 67.058 76.275, 66.847 76.487 C 66.635 76.698, 61.975 77.237, 56.490 77.685 L 46.517 78.500 57.874 85.834 C 64.120 89.868, 68.842 93.510, 68.366 93.926 C 67.889 94.343, 63.563 97.507, 58.750 100.959 C 50.580 106.817, 48.494 109, 51.066 109 C 51.652 109, 53.036 108.516, 54.141 107.924 C 55.980 106.940, 56.054 107.031, 55.004 108.993 C 54.372 110.173, 50.513 116.286, 46.428 122.578 C 42.343 128.871, 39 134.293, 39 134.628 C 39 134.964, 43.295 134.916, 48.545 134.522 C 56.027 133.961, 59.590 134.174, 65.027 135.507 L 71.963 137.206 58.356 152.122 C 50.871 160.326, 44.317 167.304, 43.790 167.630 C 43.263 167.955, 36.570 165.373, 28.916 161.891 L 15 155.560 15.026 149.030 C 15.040 145.438, 15.703 123.375, 16.500 100 C 17.297 76.625, 17.960 55.868, 17.974 53.874 C 17.998 50.494, 18.952 49.383, 32.009 37.527 L 46.019 24.806 58.259 29.327 C 64.992 31.814, 75.225 35.827, 81 38.244 L 91.500 42.639 92.262 54.570 C 92.681 61.131, 93.356 71.450, 93.762 77.500 L 94.500 88.500 112.260 60.056 L 130.021 31.612 147.760 21.697 C 166.999 10.945, 167.399 10.682, 166.863 9.122 C 166.663 8.542, 157.880 12.885, 147.344 18.771 M 138.975 61.616 C 134.864 65.805, 132.140 69.042, 132.922 68.809 C 134.220 68.422, 147.788 54, 146.854 54 C 146.632 54, 143.086 57.427, 138.975 61.616 M 118.223 90.001 C 109.271 99.888, 101.727 108.548, 101.460 109.244 C 101.186 109.957, 102.729 111.597, 104.987 112.992 C 111.588 117.072, 110.056 118.608, 101.591 116.398 L 95.832 114.894 90.098 121.197 C 86.945 124.664, 82.746 129.312, 80.767 131.527 L 77.170 135.554 88.335 138.414 C 94.476 139.987, 100.028 141.550, 100.674 141.887 C 101.320 142.224, 90.183 148.742, 75.924 156.370 C 61.666 163.999, 50 170.551, 50 170.930 C 50 171.309, 54.126 173.504, 59.168 175.807 L 68.337 179.995 95.418 159.656 L 122.500 139.317 132.425 121.667 C 137.884 111.960, 142.507 104.174, 142.698 104.365 C 142.889 104.556, 146.373 122.665, 150.439 144.606 C 154.505 166.548, 157.869 184.197, 157.916 183.828 C 157.962 183.458, 162.731 160.536, 168.513 132.891 C 174.295 105.245, 178.683 82.314, 178.263 81.933 C 177.843 81.552, 168.725 79.364, 158 77.072 C 147.275 74.779, 137.600 72.705, 136.500 72.463 C 134.941 72.121, 130.910 75.989, 118.223 90.001 M 78.730 89.665 C 76.679 91.125, 75 92.659, 75 93.074 C 75 93.489, 77.306 95.247, 80.124 96.981 L 85.247 100.134 84.542 95.435 C 83.255 86.848, 83.019 86.614, 78.730 89.665 M 66.431 98.756 C 63.719 100.821, 61.390 103.062, 61.257 103.736 C 61.123 104.410, 57.668 110.114, 53.579 116.412 C 42.225 133.899, 42.211 132.076, 53.698 131.988 C 59.411 131.945, 65.681 132.518, 68.729 133.361 L 73.957 134.808 83.058 124.937 C 91.493 115.789, 93 113, 89.508 113 C 88.155 113, 87.794 112.229, 86.564 106.711 C 86.107 104.661, 84.116 102.741, 79.046 99.461 C 75.253 97.008, 71.972 95, 71.756 95 C 71.539 95, 69.142 96.690, 66.431 98.756 M 90 108.858 C 90 110.105, 90.875 110.934, 92.524 111.249 C 96.228 111.957, 96.532 110.326, 93.033 108.517 C 90.167 107.035, 90 107.054, 90 108.858 M 65 148.699 C 59.775 154.528, 53.700 161.349, 51.500 163.856 L 47.500 168.415 58.500 162.610 C 84.264 149.011, 93.929 143.535, 93.237 142.925 C 92.618 142.381, 75.653 137.898, 74.786 138.050 C 74.629 138.078, 70.225 142.870, 65 148.699" stroke="none" fill="black" fill-rule="evenodd"/>
</svg>