<svg xmlns="http://www.w3.org/2000/svg" width="200" height="200" viewBox="0 0 200 200" version="1.1">
	<path d="M 58 13.280 C 58 13.985, 63.175 17.597, 69.500 21.307 C 87.211 31.697, 83.469 31.808, 63.001 21.500 L 56 17.975 55.858 23.737 C 55.780 26.907, 55.443 48.518, 55.108 71.763 L 54.500 114.026 49.956 102.831 C 47.456 96.675, 44.869 91.456, 44.206 91.235 C 42.174 90.558, 42.868 92.973, 48.879 107.500 C 58.097 129.777, 57.841 130.720, 58.197 73.146 C 58.364 46.206, 58.770 23.896, 59.099 23.567 C 59.429 23.238, 64.379 25.211, 70.099 27.952 L 80.500 32.936 80.274 70.218 C 80.149 90.723, 80.387 115.825, 80.803 126 L 81.558 144.500 71.538 162.175 C 66.026 171.897, 61.322 179.656, 61.084 179.418 C 60.846 179.180, 59.194 168.827, 57.412 156.412 C 55.630 143.997, 53.970 133.637, 53.724 133.390 C 53.477 133.144, 47.359 133.926, 40.129 135.129 C 32.899 136.332, 26.765 137.098, 26.498 136.831 C 26.231 136.564, 25.488 124.006, 24.848 108.923 L 23.683 81.500 29.033 57.275 C 31.976 43.951, 34.475 33.151, 34.587 33.275 C 34.699 33.399, 37.819 42.050, 41.520 52.500 C 50.603 78.144, 49.908 76.492, 51.115 75.285 C 51.835 74.565, 49.472 66.673, 43.432 49.623 C 38.635 36.080, 34.424 25, 34.076 25 C 33.727 25, 30.598 37.719, 27.122 53.265 L 20.803 81.531 21.978 110.015 C 22.624 125.682, 23.305 139, 23.491 139.610 C 23.728 140.385, 27.996 140.017, 37.614 138.392 C 45.195 137.112, 51.473 136.162, 51.564 136.282 C 51.656 136.402, 53.409 147.975, 55.461 162 C 57.512 176.025, 59.332 187.647, 59.506 187.827 C 59.832 188.165, 61.930 184.633, 75.996 160.064 L 84.260 145.628 83.542 122.974 L 82.824 100.320 97.821 95.160 C 106.069 92.322, 113.084 90, 113.409 90 C 113.734 90, 114 103.270, 114 119.489 L 114 148.978 99 165.434 C 84.709 181.112, 82.553 184, 85.135 184 C 85.759 184, 96.104 178.600, 108.123 172 C 120.142 165.400, 130.390 160, 130.897 160 C 131.403 160, 142.673 165.236, 155.940 171.636 C 169.207 178.035, 180.256 183.077, 180.493 182.840 C 180.731 182.603, 175.120 173.654, 168.024 162.954 L 155.124 143.500 158.461 121 L 161.798 98.500 172.910 70.094 C 179.022 54.471, 183.905 41.600, 183.761 41.490 C 183.618 41.381, 173.155 44.601, 160.511 48.646 C 147.867 52.691, 137.005 56, 136.374 56 C 134.998 56, 134.451 52.269, 132.889 32.206 C 131.317 12.029, 130.230 12.066, 124.223 32.501 C 121.798 40.750, 119.616 47.702, 119.375 47.949 C 118.562 48.780, 106 42.032, 105.992 40.759 C 105.988 40.067, 101.067 36.663, 95.057 33.195 C 89.047 29.728, 83.988 26.532, 83.815 26.093 C 83.493 25.277, 59.764 12, 58.628 12 C 58.282 12, 58 12.576, 58 13.280 M 126.113 36 C 124.251 42.325, 122.552 47.967, 122.338 48.538 C 121.964 49.534, 130.845 54.489, 131.618 53.716 C 131.825 53.509, 131.433 46.851, 130.747 38.920 L 129.500 24.500 126.113 36 M 84 30.750 C 84 31.208, 86.588 32.842, 89.750 34.380 C 96.319 37.574, 95.781 36.629, 88.750 32.622 C 86.138 31.134, 84 30.291, 84 30.750 M 82.724 63.211 C 82.402 78.728, 82.458 91.995, 82.849 92.695 C 83.257 93.424, 87.344 83.619, 92.420 69.734 C 97.292 56.405, 101.449 45.042, 101.657 44.482 C 101.997 43.569, 86.167 35, 84.141 35 C 83.685 35, 83.047 47.695, 82.724 63.211 M 95.187 70.139 C 90.103 83.965, 86.109 95.442, 86.310 95.643 C 86.511 95.845, 92.836 93.911, 100.364 91.347 L 114.052 86.685 111.896 84.389 C 109.432 81.767, 109.401 81.963, 115.346 62.395 L 118.719 51.291 112.341 48.145 C 108.832 46.415, 105.617 45, 105.196 45 C 104.774 45, 100.270 56.312, 95.187 70.139 M 159.146 51.983 C 149.052 55.223, 140.647 58.020, 140.470 58.197 C 140.079 58.588, 138 98.356, 138 105.436 L 138 110.464 127.500 100 L 117 89.536 117 119.540 L 117 149.544 105 162.794 C 98.400 170.081, 93 176.274, 93 176.557 C 93 177.177, 93.351 176.995, 113.605 165.857 C 122.462 160.985, 130.221 157, 130.846 157 C 131.471 157, 139.974 160.871, 149.741 165.602 C 159.509 170.333, 168.977 174.846, 170.783 175.629 C 173.864 176.967, 173.397 176.054, 163.172 160.757 L 152.278 144.460 155.581 121.480 L 158.885 98.500 168.942 72.692 C 174.474 58.497, 179 46.685, 179 46.442 C 179 45.661, 177.802 45.995, 159.146 51.983 M 118.515 61.675 C 117.057 66.529, 115.132 72.880, 114.237 75.788 L 112.611 81.077 123.555 92.059 L 134.500 103.042 135.126 99.271 C 135.470 97.197, 136.065 87.513, 136.448 77.750 L 137.145 60 134.572 60 C 133.042 60, 132 59.437, 132 58.609 C 132 57.419, 130.330 56.504, 122.333 53.315 C 121.599 53.023, 120.183 56.123, 118.515 61.675" stroke="none" fill="black" fill-rule="evenodd"/>
</svg>