<svg xmlns="http://www.w3.org/2000/svg" width="200" height="200" viewBox="0 0 200 200" version="1.1">
	<path d="M 151.742 24.668 C 150.232 34.386, 148.885 42.442, 148.749 42.572 C 148.612 42.701, 145.409 42.484, 141.631 42.089 L 134.762 41.372 130.631 45.894 C 128.359 48.382, 124.630 52.447, 122.346 54.928 L 118.191 59.440 108.732 57.159 L 99.272 54.879 98.636 48.793 C 98.286 45.445, 98 40.348, 98 37.464 L 98 32.222 107.274 26.611 C 112.375 23.525, 116.941 21, 117.421 21 C 117.901 21, 120.140 22.494, 122.397 24.321 C 127.800 28.694, 128.803 29.240, 130.033 28.479 C 130.602 28.128, 128.033 25.423, 124.324 22.468 L 117.582 17.095 114.041 19.233 C 112.094 20.409, 107.801 23.064, 104.503 25.134 C 98.877 28.663, 98.461 28.775, 97.785 26.948 C 96.694 24, 95.165 24.613, 94.813 28.140 C 94.531 30.968, 93.318 32.015, 82.601 38.674 C 76.057 42.740, 70.359 45.940, 69.938 45.784 C 69.517 45.628, 63.907 38.975, 57.470 31 C 51.034 23.025, 45.482 16.387, 45.133 16.250 C 44.785 16.112, 38.965 27.380, 32.200 41.290 L 19.900 66.580 21.470 94.040 C 22.883 118.746, 29.607 192.940, 30.516 193.850 C 30.718 194.051, 31.526 192.705, 32.312 190.858 C 33.098 189.011, 40.525 172.551, 48.817 154.279 L 63.894 121.058 63.075 92.279 C 62.624 76.451, 62.335 63.401, 62.431 63.280 C 62.528 63.158, 68.342 75.287, 75.352 90.232 L 88.096 117.405 79.131 154.452 C 74.200 174.828, 70.285 191.618, 70.429 191.763 C 70.574 191.907, 83.249 184.767, 98.596 175.896 C 113.943 167.025, 126.950 159.765, 127.500 159.763 C 128.050 159.761, 139.683 165.018, 153.352 171.445 C 167.020 177.872, 178.306 182.988, 178.432 182.815 C 178.557 182.642, 177.867 173.725, 176.899 163 C 175.930 152.275, 175.107 141.881, 175.069 139.903 C 175.011 136.874, 172.548 133.004, 159.475 115.403 L 143.951 94.500 144.531 89.500 C 144.851 86.750, 145.338 83.579, 145.614 82.452 C 145.981 80.952, 151.715 77.615, 167.058 69.971 C 178.576 64.233, 188 58.967, 188 58.269 C 188 56.594, 188.224 56.579, 167.723 59.632 C 157.945 61.088, 149.694 62.027, 149.387 61.720 C 149.080 61.413, 149.379 57.750, 150.051 53.581 C 150.987 47.781, 151.653 45.999, 152.887 45.997 C 153.774 45.996, 159.356 46.502, 165.292 47.122 C 171.228 47.742, 176.342 47.992, 176.657 47.677 C 177.240 47.093, 155.916 7.082, 154.993 7.029 C 154.714 7.013, 153.251 14.951, 151.742 24.668 M 155.159 21.103 C 152.874 34.430, 151.838 42.171, 152.280 42.614 C 152.878 43.211, 170.868 45.220, 171.968 44.812 C 172.653 44.558, 168.014 35.623, 157.323 16.603 C 156.433 15.021, 156.075 15.767, 155.159 21.103 M 34.019 43.750 L 22.791 66.500 24.401 95.500 C 25.749 119.770, 31.347 182.702, 32.234 183.558 C 32.380 183.699, 38.934 169.592, 46.797 152.209 L 61.094 120.603 60.209 88.551 C 59.722 70.923, 59.457 56.332, 59.619 56.126 C 60.943 54.449, 64.439 60.716, 76.810 86.948 L 91.040 117.120 82.613 151.810 C 77.978 170.890, 74.256 186.556, 74.343 186.626 C 74.429 186.695, 86.386 179.881, 100.913 171.484 L 127.326 156.217 136.413 160.461 C 141.411 162.796, 151.952 167.733, 159.838 171.432 C 167.724 175.131, 174.439 177.895, 174.760 177.574 C 175.081 177.252, 174.562 167.902, 173.606 156.795 L 171.868 136.601 160.761 121.550 C 154.652 113.273, 148.203 104.584, 146.431 102.242 L 143.208 97.985 142.158 104.242 C 141.581 107.684, 139.894 118.272, 138.409 127.772 C 136.925 137.271, 135.438 144.774, 135.105 144.444 C 134.772 144.115, 132.181 137.917, 129.346 130.673 L 124.191 117.500 128.618 112.943 L 133.044 108.386 111.272 87.789 C 99.297 76.461, 88.413 66.028, 87.085 64.606 L 84.671 62.020 100.585 62.638 C 117.990 63.314, 119.754 62.460, 107 59.536 C 102.875 58.590, 98.780 57.624, 97.900 57.388 C 96.610 57.043, 96.182 54.899, 95.699 46.363 C 95.369 40.534, 94.875 35.541, 94.601 35.267 C 94.327 34.993, 88.792 38.027, 82.301 42.009 C 75.811 45.991, 70.209 49.416, 69.852 49.620 C 69.496 49.824, 63.974 43.468, 57.582 35.496 C 51.189 27.523, 45.798 21, 45.603 21 C 45.407 21, 40.195 31.237, 34.019 43.750 M 129.116 51.520 C 125.631 55.529, 122.828 59.189, 122.887 59.654 C 123.089 61.246, 137.304 64.181, 141.653 63.529 L 145.807 62.906 147.065 54.448 C 147.757 49.796, 148.138 45.828, 147.912 45.630 C 147.685 45.433, 144.789 45.037, 141.477 44.751 L 135.453 44.231 129.116 51.520 M 164 62.914 C 153.589 64.583, 153.541 64.603, 158.390 65.299 C 166.184 66.417, 169.203 66.069, 174 63.500 C 179.294 60.665, 178.363 60.611, 164 62.914 M 119.750 63.662 C 120.438 63.940, 121.563 63.940, 122.250 63.662 C 122.938 63.385, 122.375 63.158, 121 63.158 C 119.625 63.158, 119.063 63.385, 119.750 63.662 M 93.455 66.906 C 94.530 68.119, 104.543 77.730, 115.705 88.266 C 126.867 98.802, 136 107.714, 136 108.070 C 136 108.427, 134.126 110.848, 131.835 113.450 L 127.670 118.182 129.508 123.341 C 132.564 131.916, 134.343 135.595, 134.663 134 C 134.829 133.175, 136.297 123.986, 137.924 113.579 L 140.884 94.658 138.192 90.850 C 135.107 86.487, 135.140 86.497, 130.346 88.500 C 125.937 90.342, 126 90.343, 126 88.472 C 126 87.540, 129.311 85.364, 134.492 82.890 C 139.162 80.661, 143.165 78.536, 143.387 78.168 C 143.610 77.801, 143.951 75.507, 144.146 73.071 C 144.489 68.780, 144.395 68.615, 141.132 67.762 C 138.791 67.150, 133.691 67.510, 124.416 68.941 C 107.729 71.515, 108.418 71.537, 110.408 68.500 L 112.046 66 108.170 66 C 106.038 66, 101.415 65.708, 97.897 65.351 L 91.500 64.703 93.455 66.906 M 116.750 66.662 C 117.438 66.940, 118.563 66.940, 119.250 66.662 C 119.938 66.385, 119.375 66.158, 118 66.158 C 116.625 66.158, 116.063 66.385, 116.750 66.662 M 147.550 70.250 C 146.708 72.964, 146.310 76.997, 146.889 76.951 C 147.225 76.923, 150.875 75.146, 155 73 L 162.500 69.099 155.219 69.049 C 150.231 69.016, 147.815 69.394, 147.550 70.250 M 139.734 83.628 C 137.015 85.056, 136.998 85.123, 138.734 87.509 C 139.705 88.844, 140.788 89.951, 141.141 89.969 C 141.653 89.994, 143.010 82.940, 142.608 82.338 C 142.549 82.249, 141.255 82.830, 139.734 83.628" stroke="none" fill="black" fill-rule="evenodd"/>
</svg>