<svg xmlns="http://www.w3.org/2000/svg" width="200" height="200" viewBox="0 0 200 200" version="1.1">
	<path d="M 112.500 23.548 C 94.350 27.606, 78.240 30.942, 76.700 30.963 C 75.161 30.983, 65.559 28.489, 55.364 25.419 C 45.169 22.350, 36.529 20.137, 36.164 20.503 C 35.258 21.408, 34.618 167.251, 35.475 177.537 L 36.160 185.761 51.439 176.363 L 66.719 166.966 86.692 164.787 L 106.666 162.609 119.952 172.240 L 133.238 181.872 145.369 173.529 L 157.500 165.185 158.132 111.843 C 158.479 82.504, 159.238 52.884, 159.819 46.020 C 160.399 39.157, 160.779 33.446, 160.663 33.330 C 160.547 33.214, 153.730 36.692, 145.514 41.059 C 137.297 45.427, 130.446 49, 130.288 49 C 130.129 49, 130 46.135, 130 42.633 L 130 36.266 111.584 35.543 C 101.455 35.146, 88.068 35.066, 81.834 35.365 C 75.028 35.692, 71.699 35.575, 73.500 35.073 C 75.150 34.613, 84.600 34.157, 94.500 34.059 C 104.400 33.961, 114.557 33.541, 117.070 33.126 C 120.034 32.637, 125.129 30.189, 131.570 26.158 C 137.032 22.741, 143.188 19.675, 145.250 19.345 C 148.991 18.746, 150.727 15.916, 147.250 16.085 C 146.287 16.132, 130.650 19.490, 112.500 23.548 M 112 26.526 L 93.500 30.827 105.940 30.914 L 118.380 31 125.190 26.885 C 131.545 23.046, 133.077 21.839, 131.250 22.112 C 130.838 22.174, 122.175 24.160, 112 26.526 M 38.604 33.750 C 37.835 45.214, 37.429 179.762, 38.161 180.494 C 38.435 180.769, 44.705 177.244, 52.093 172.662 L 65.526 164.332 85.013 162.161 C 95.731 160.967, 105.231 159.992, 106.124 159.995 C 107.017 159.998, 113.311 164.050, 120.110 169 C 126.910 173.950, 132.929 177.976, 133.486 177.946 C 134.044 177.916, 139.208 174.592, 144.962 170.560 L 155.423 163.228 155.193 120.364 C 155.039 91.603, 155.419 71.084, 156.350 58 C 157.112 47.275, 157.625 38.367, 157.488 38.204 C 157.352 38.041, 151.112 41.169, 143.620 45.155 L 130 52.402 130 67.845 L 130 83.287 120.780 82.591 L 111.560 81.895 105.367 75.947 C 101.960 72.676, 98.627 70, 97.961 70 C 97.294 70, 93.193 71.912, 88.848 74.250 L 80.947 78.500 78.032 88 C 76.429 93.225, 74.832 98.675, 74.485 100.111 L 73.853 102.722 97.157 97.925 C 109.975 95.287, 120.565 93.232, 120.692 93.358 C 120.818 93.485, 119.027 98.682, 116.711 104.907 L 112.500 116.225 95.791 131.945 L 79.083 147.666 67.791 150.665 C 61.581 152.314, 56.356 153.558, 56.180 153.428 C 56.004 153.299, 58.874 142.975, 62.559 130.485 C 67.593 113.423, 68.952 107.588, 68.024 107.015 C 67.152 106.476, 66.240 96.761, 64.920 73.934 C 63.891 56.160, 63.176 41.490, 63.331 41.336 C 63.485 41.181, 66.679 42.052, 70.428 43.271 C 76.544 45.259, 78.346 46.536, 87.991 55.713 L 98.738 65.939 112.619 58.566 L 126.500 51.193 126.799 44.433 L 127.099 37.674 89.970 38.326 C 60.956 38.836, 52.929 38.712, 53.247 37.759 C 53.471 37.088, 56.897 35.802, 60.860 34.903 C 64.824 34.003, 68.270 33.063, 68.519 32.814 C 68.955 32.378, 42 24, 40.162 24 C 39.664 24, 38.963 28.387, 38.604 33.750 M 66.016 45.750 C 66.024 46.163, 66.695 57.300, 67.505 70.500 C 68.316 83.700, 68.984 96.412, 68.989 98.750 C 68.995 101.088, 69.378 103, 69.840 103 C 70.302 103, 72.406 97.126, 74.516 89.946 L 78.352 76.892 87.137 72.138 L 95.922 67.385 86.211 57.727 C 79.245 50.799, 75.263 47.635, 72.124 46.534 C 67.222 44.815, 65.993 44.658, 66.016 45.750 M 114.679 60.431 C 108.178 63.902, 102.428 67.172, 101.902 67.698 C 101.295 68.305, 103.207 70.620, 107.156 74.054 C 113.173 79.288, 113.577 79.467, 120.183 79.840 L 127 80.226 127 67.113 C 127 59.901, 126.888 54.027, 126.750 54.061 C 126.612 54.094, 121.181 56.961, 114.679 60.431 M 93.786 101.369 C 82.943 103.656, 73.649 105.972, 73.131 106.514 C 72.385 107.295, 60 147.789, 60 149.445 C 60 149.803, 69.413 147.448, 76.419 145.336 C 77.474 145.018, 85.574 137.877, 94.419 129.467 L 110.500 114.175 113.625 105.588 C 116.266 98.331, 116.498 97.016, 115.125 97.105 C 114.231 97.163, 104.629 99.081, 93.786 101.369" stroke="none" fill="black" fill-rule="evenodd"/>
</svg>