<svg xmlns="http://www.w3.org/2000/svg" width="200" height="200" viewBox="0 0 200 200" version="1.1">
	<path d="M 52.449 11.083 C 50.505 14.228, 37.364 57.107, 38.188 57.616 C 38.708 57.937, 39.269 58.043, 39.435 57.850 C 39.601 57.658, 43.059 47.436, 47.119 35.135 L 54.500 12.770 60.928 13.364 C 64.463 13.691, 67.633 14.407, 67.972 14.955 C 68.311 15.504, 70.129 22.295, 72.011 30.047 L 75.434 44.141 78.967 43.487 C 80.910 43.127, 83.676 42.602, 85.112 42.319 C 87.185 41.911, 88.166 42.424, 89.856 44.798 L 91.988 47.792 79.066 58.646 C 71.959 64.616, 66.111 69.996, 66.072 70.603 C 66.032 71.210, 68.416 76.835, 71.368 83.103 C 74.321 89.371, 77.688 96.595, 78.850 99.154 C 80.012 101.714, 83.675 109.548, 86.991 116.562 C 90.306 123.576, 92.851 129.483, 92.646 129.687 C 92.441 129.892, 88.500 127.829, 83.887 125.103 L 75.500 120.147 74.830 122.824 C 74.461 124.296, 72.707 134.500, 70.932 145.500 C 69.157 156.500, 67.434 165.810, 67.102 166.189 C 66.553 166.817, 37.979 163.312, 37.186 162.519 C 36.899 162.232, 40.985 140.472, 42.669 133.317 C 43.083 131.560, 42.423 130.746, 39.286 129.146 L 35.389 127.158 31.174 108.329 C 28.856 97.973, 26.968 88.935, 26.979 88.245 C 26.991 87.554, 32.178 84.412, 38.506 81.262 C 44.834 78.112, 49.891 75.174, 49.744 74.733 C 49.597 74.292, 42.079 68.322, 33.037 61.467 C 22.282 53.313, 16.257 49.343, 15.615 49.985 C 15.075 50.525, 14.828 51.123, 15.067 51.314 C 15.305 51.505, 21.906 56.494, 29.735 62.402 C 37.564 68.309, 44.213 73.536, 44.511 74.017 C 44.808 74.498, 40.151 77.398, 34.161 80.462 L 23.271 86.032 27.627 105.266 C 30.022 115.845, 32.223 125.525, 32.517 126.779 C 32.830 128.110, 34.520 129.757, 36.582 130.740 C 39.292 132.033, 40.001 132.896, 39.637 134.462 C 36.970 145.928, 33.692 164.025, 34.191 164.524 C 34.880 165.213, 69.020 170.333, 69.484 169.817 C 69.640 169.643, 71.416 159.617, 73.430 147.537 C 75.444 135.458, 77.276 125.391, 77.501 125.166 C 77.725 124.941, 82.542 127.471, 88.205 130.788 C 93.867 134.105, 98.637 136.685, 98.804 136.522 C 98.971 136.359, 95.259 127.916, 90.554 117.760 C 85.849 107.605, 82 98.866, 82 98.340 C 82 97.485, 111.095 83.976, 111.783 84.512 C 112.128 84.781, 126 133.226, 126 134.161 C 126 134.526, 116.087 146.189, 103.972 160.078 C 84.340 182.583, 80.308 188.009, 83.750 187.292 C 84.300 187.177, 97.027 180.272, 112.031 171.946 L 139.312 156.809 160.664 166.563 C 172.407 171.928, 182.161 176.134, 182.339 175.909 C 182.517 175.684, 176.438 164.049, 168.831 150.054 C 161.224 136.059, 154.999 124.134, 154.998 123.554 C 154.997 122.974, 161.784 107.725, 170.081 89.666 C 178.377 71.607, 184.895 56.562, 184.565 56.232 C 184.235 55.902, 175.623 55.276, 165.427 54.840 C 155.231 54.405, 146.539 53.833, 146.111 53.569 C 145.684 53.304, 144.747 44.518, 144.029 34.044 C 143.075 20.123, 142.387 15, 141.469 15 C 138.550 15, 66.881 11.030, 60.330 10.505 C 55.436 10.113, 52.935 10.297, 52.449 11.083 M 72 14.529 C 72 14.820, 75.648 20.220, 80.106 26.529 C 85.399 34.020, 88.846 38, 90.041 38 C 91.046 38, 95.140 37.312, 99.138 36.471 C 110.151 34.154, 110.682 35.070, 102.571 42.394 L 95.643 48.650 97.571 51.294 C 98.632 52.748, 99.725 53.939, 100 53.942 C 100.275 53.944, 104.100 47.898, 108.500 40.507 C 112.900 33.115, 116.725 27.061, 117 27.053 C 117.275 27.045, 122.733 35.242, 129.130 45.269 L 140.760 63.500 141.416 90.250 C 141.777 104.963, 141.849 117, 141.577 117 C 141.305 117, 131.983 104.198, 120.862 88.552 C 109.741 72.905, 100.329 60.297, 99.946 60.533 C 97.260 62.193, 81.291 94.998, 83.808 93.686 C 89.386 90.776, 113.123 80.790, 113.519 81.186 C 114.569 82.235, 129.093 134.315, 128.637 135.397 C 128.382 136.004, 119.585 146.328, 109.087 158.341 C 98.589 170.353, 90 180.408, 90 180.686 C 90 180.963, 91.912 180.083, 94.250 178.729 C 96.588 177.376, 107.648 171.216, 118.830 165.040 L 139.160 153.812 152.830 160.057 C 177.789 171.457, 177.188 171.220, 176.135 169.254 C 175.619 168.289, 169.977 157.905, 163.598 146.179 C 157.219 134.452, 152 124.288, 152 123.591 C 152 122.895, 158.293 108.677, 165.985 91.996 C 173.677 75.316, 180.216 60.895, 180.516 59.951 C 181.012 58.386, 179.374 58.169, 162.030 57.501 C 151.564 57.098, 143 56.473, 143 56.112 C 143 52.339, 139.884 18.550, 139.500 18.167 C 139.220 17.886, 124.930 16.859, 107.745 15.883 C 71.331 13.817, 72 13.842, 72 14.529 M 73.476 24 C 76.791 37.429, 77.786 40.487, 78.814 40.400 C 79.466 40.345, 81.125 40.232, 82.500 40.150 C 83.875 40.068, 85 39.543, 85 38.985 C 85 38.101, 76.241 25.256, 73.759 22.500 C 73.213 21.894, 73.102 22.485, 73.476 24 M 109.156 44.492 L 101.811 56.941 110.110 68.720 C 114.674 75.199, 123.090 87.025, 128.812 95 L 139.214 109.500 138.490 86.576 L 137.766 63.652 127.633 47.845 C 122.060 39.152, 117.275 32.040, 117 32.041 C 116.725 32.042, 113.195 37.645, 109.156 44.492 M 95.199 39.986 C 90.729 41.045, 90.275 41.727, 92.556 43.954 C 94.469 45.821, 94.563 45.797, 98.417 42.426 C 102.572 38.791, 102.019 38.371, 95.199 39.986 M 84.452 57.760 C 79.476 62.017, 73.935 66.732, 72.140 68.238 L 68.875 70.976 74.103 82.445 C 76.979 88.752, 79.636 93.725, 80.008 93.495 C 80.380 93.265, 82.191 89.178, 84.034 84.413 C 85.876 79.647, 89.782 71.690, 92.713 66.729 C 98.141 57.544, 98.358 56.297, 95.233 52.260 L 93.500 50.021 84.452 57.760" stroke="none" fill="black" fill-rule="evenodd"/>
</svg>