<svg xmlns="http://www.w3.org/2000/svg" width="200" height="200" viewBox="0 0 200 200" version="1.1">
	<path d="M 123.740 20.215 L 105.981 27.220 75.240 22.716 C 58.333 20.240, 44.353 18.350, 44.174 18.516 C 43.995 18.683, 42.543 27.297, 40.947 37.659 C 39.352 48.022, 37.822 57.737, 37.548 59.250 C 37.203 61.156, 37.471 62, 38.422 62 C 39.879 62, 40.207 60.449, 44.077 35.225 C 45.926 23.171, 46.519 21.019, 47.884 21.395 C 48.773 21.639, 58.162 23.084, 68.750 24.605 C 79.338 26.126, 88 27.670, 88 28.035 C 88 28.401, 86.728 30.455, 85.173 32.600 C 82.620 36.122, 80.775 37.113, 66.118 42.833 C 56.201 46.703, 50.048 49.621, 50.298 50.333 C 50.523 50.975, 51.336 51.415, 52.104 51.312 C 52.872 51.208, 58.169 50.402, 63.876 49.521 C 69.583 48.640, 74.363 48.049, 74.499 48.209 C 74.634 48.369, 70.971 54.270, 66.359 61.323 C 61.746 68.375, 58.230 74.563, 58.545 75.073 C 58.860 75.583, 61.411 76, 64.214 76 L 69.310 76 67.407 78.102 C 64.342 81.489, 61.311 82.547, 46.250 85.486 C 36.227 87.443, 32 88.673, 32 89.634 C 32 91.318, 30.533 91.446, 45 88.500 C 51.751 87.125, 57.481 86, 57.733 86 C 57.985 86, 48.287 94.438, 36.181 104.750 C 24.076 115.063, 14.306 123.636, 14.471 123.802 C 14.636 123.969, 21.201 122.959, 29.059 121.559 C 36.917 120.159, 43.497 119.164, 43.682 119.349 C 43.867 119.534, 38.090 122.509, 30.844 125.961 C 21.882 130.230, 18.123 132.487, 19.085 133.021 C 19.863 133.453, 28.600 136.158, 38.500 139.034 C 48.400 141.909, 56.828 144.449, 57.229 144.677 C 57.629 144.905, 49.636 155.066, 39.465 167.256 C 22.901 187.111, 19.527 191.956, 22.725 191.300 C 23.262 191.190, 35.806 183.825, 50.600 174.935 C 73.357 161.259, 110.707 141.155, 111.431 142.191 C 111.550 142.361, 114.921 153.525, 118.921 167 C 122.922 180.475, 126.515 191.841, 126.905 192.257 C 127.295 192.674, 133.796 180.074, 141.351 164.257 L 155.087 135.500 164.544 130.065 C 169.745 127.075, 173.980 124.375, 173.955 124.065 C 173.930 123.754, 166.744 119.160, 157.987 113.855 C 142.876 104.702, 141.471 104.073, 130.403 101.499 L 118.741 98.787 105.340 112.143 L 91.939 125.500 97.076 110.500 L 102.214 95.500 99.023 89.669 L 95.832 83.838 113.762 84.113 L 131.692 84.387 148.304 73.944 C 157.441 68.200, 164.936 63.047, 164.958 62.493 C 165.030 60.757, 143.383 13.622, 142.417 13.411 C 141.913 13.300, 133.508 16.362, 123.740 20.215 M 131.263 26.982 C 122.642 34.470, 121.340 35.973, 123.013 36.504 C 126.866 37.727, 125.217 39.902, 119.904 40.607 C 115.301 41.218, 113.659 42.249, 102.904 51.285 C 96.357 56.786, 91 61.616, 91 62.019 C 91 62.423, 100.467 66.020, 112.038 70.013 C 139.970 79.653, 139.748 80.209, 108.624 78.578 C 95.323 77.881, 92.822 77.969, 93.203 79.123 C 93.552 80.180, 97.868 80.705, 111.780 81.381 L 129.903 82.261 144.701 72.984 C 152.841 67.882, 160.059 63.198, 160.741 62.577 C 161.713 61.692, 159.868 56.736, 152.241 39.752 C 146.884 27.820, 142.275 18.065, 142 18.074 C 141.725 18.082, 136.893 22.091, 131.263 26.982 M 123.632 25.620 C 113.988 30.515, 112.313 31.060, 108.756 30.459 C 103.368 29.548, 104.609 31.412, 110.354 32.859 C 112.768 33.467, 115.417 34.223, 116.241 34.539 C 117.456 35.005, 125.176 29.150, 134.917 20.375 C 135.921 19.471, 133.848 20.434, 123.632 25.620 M 89 32 C 87.748 34.340, 87.736 34.337, 91.947 32.869 C 94.317 32.042, 94.829 31.507, 93.846 30.884 C 91.677 29.509, 90.144 29.862, 89 32 M 91.733 35.675 C 87.231 37.381, 84.279 39.204, 82.915 41.120 C 81.787 42.704, 81.157 44, 81.515 44 C 84.309 44, 113.690 38.610, 114.371 37.972 C 115.213 37.185, 102.721 32.943, 99.892 33.055 C 99.126 33.086, 95.455 34.265, 91.733 35.675 M 72.503 43.135 C 65.782 45.860, 65.559 46.392, 71.500 45.535 C 76.449 44.820, 79 43.576, 79 41.878 C 79 40.664, 78.229 40.814, 72.503 43.135 M 95.500 44.478 C 91.650 45.172, 86.348 46.054, 83.717 46.436 L 78.935 47.132 70.455 59.816 L 61.975 72.500 67.238 73 C 72.195 73.471, 72.773 73.275, 77.208 69.629 L 81.917 65.757 79.971 61.944 L 78.026 58.130 82.562 59.676 C 86.477 61.010, 87.331 61.028, 88.799 59.810 C 91.648 57.446, 105.403 45.710, 106.964 44.312 C 108.209 43.197, 107.984 43.016, 105.464 43.108 C 103.834 43.168, 99.350 43.784, 95.500 44.478 M 86 66.052 C 86 66.630, 86.992 68.827, 88.205 70.934 L 90.409 74.765 104.274 75.479 C 111.900 75.872, 118.344 75.989, 118.593 75.740 C 119.188 75.145, 90.025 64.984, 87.750 64.993 C 86.787 64.997, 86 65.473, 86 66.052 M 79.937 70.980 L 76.500 73.919 81.773 73.959 L 87.046 74 85.326 71.250 C 84.379 69.737, 83.553 68.397, 83.490 68.271 C 83.427 68.145, 81.828 69.364, 79.937 70.980 M 71.375 78.409 L 68.500 80.937 79.758 80.968 C 90.770 80.999, 90.990 80.956, 89.768 79 C 88.757 77.381, 87.436 77, 82.841 77 C 79.719 77, 76.508 76.748, 75.706 76.441 C 74.905 76.133, 72.956 77.019, 71.375 78.409 M 62.371 86.250 C 58.271 89.307, 23.029 119.372, 23.291 119.589 C 23.406 119.684, 30.671 118.491, 39.436 116.937 C 54.509 114.264, 57 114.110, 57 115.852 C 57 116.256, 50.025 119.894, 41.500 123.936 C 32.975 127.978, 26 131.574, 26 131.927 C 26 132.281, 33.685 134.804, 43.079 137.535 C 52.472 140.266, 60.666 142.810, 61.289 143.189 C 62.091 143.678, 61.970 144.404, 60.871 145.689 C 52.149 155.883, 29 184.037, 29 184.450 C 29 184.744, 39.688 178.532, 52.750 170.646 C 78.090 155.348, 111.904 137.439, 113.024 138.723 C 113.396 139.150, 116.781 149.964, 120.546 162.754 C 124.311 175.544, 127.699 185.669, 128.075 185.254 C 128.451 184.839, 134.188 173.064, 140.825 159.087 L 152.892 133.673 161.081 128.954 L 169.270 124.234 163.885 120.819 C 143.821 108.094, 141.385 106.897, 130.423 104.368 L 119.642 101.882 104.364 117.135 C 92.415 129.066, 88.946 132.022, 88.439 130.701 C 88.069 129.738, 90.271 121.819, 93.568 112.257 L 99.344 95.500 96.077 89.750 L 92.809 84 79.099 84 C 66.442 84, 65.157 84.173, 62.371 86.250" stroke="none" fill="black" fill-rule="evenodd"/>
</svg>