<svg xmlns="http://www.w3.org/2000/svg" width="200" height="200" viewBox="0 0 200 200" version="1.1">
	<path d="M 107.303 18.872 C 97.297 23.099, 88.867 26.799, 88.570 27.096 C 88.274 27.393, 91.736 28.683, 96.265 29.964 C 100.794 31.244, 104.870 32.618, 105.321 33.017 C 105.773 33.416, 101.814 38.751, 96.522 44.871 L 86.902 56 80.470 56 C 72.961 56, 73.962 57.959, 71.098 37.656 C 70.024 30.042, 69 23.676, 68.822 23.510 C 68.645 23.344, 56.229 34.285, 41.230 47.822 L 13.960 72.436 28.392 86.968 L 42.823 101.500 43.995 137 C 44.640 156.525, 45.252 172.585, 45.356 172.689 C 45.521 172.854, 80.835 175.785, 137.500 180.338 C 146.850 181.090, 154.731 181.585, 155.014 181.439 C 155.296 181.293, 154.763 169.772, 153.828 155.837 C 151.111 115.319, 150.043 121.696, 163.871 95.867 L 175.742 73.695 167.744 49.597 C 163.346 36.344, 159.433 25.152, 159.049 24.726 C 158.666 24.300, 153.223 31.163, 146.955 39.976 L 135.558 56 113.222 56 C 91.893 56, 90.945 55.919, 92.193 54.199 C 92.912 53.209, 97.067 48.270, 101.428 43.225 C 107.830 35.816, 109.764 34.154, 111.478 34.584 C 112.646 34.877, 117.629 36.388, 122.551 37.943 C 127.691 39.566, 131.897 40.399, 132.433 39.901 C 133.843 38.590, 133.132 38.242, 122.571 35.071 C 117.201 33.459, 112.581 31.914, 112.306 31.639 C 112.031 31.364, 115.224 27.228, 119.403 22.449 C 131.001 9.182, 130.555 9.050, 107.303 18.872 M 108.099 21.422 L 95.698 26.714 102.087 28.872 L 108.476 31.029 111.746 27.265 C 116.595 21.684, 121.214 15.991, 120.834 16.065 C 120.650 16.100, 114.920 18.511, 108.099 21.422 M 42.145 50.638 L 17.959 72.434 31.854 86.467 L 45.749 100.500 46.747 134.862 C 47.436 158.551, 48.100 169.444, 48.887 169.930 C 49.515 170.318, 57.110 171.197, 65.764 171.882 C 74.419 172.568, 97.250 174.383, 116.500 175.916 C 135.750 177.448, 151.735 178.581, 152.022 178.433 C 152.308 178.285, 151.694 164.704, 150.656 148.251 L 148.769 118.338 160.841 95.797 L 172.913 73.255 165.719 51.623 C 161.763 39.726, 158.184 30.106, 157.766 30.246 C 157.348 30.386, 152.983 36.125, 148.066 43 C 141.734 51.855, 139.562 55.597, 140.619 55.834 C 142.883 56.341, 141.671 58.460, 138.923 58.798 C 137.160 59.015, 134.771 61.543, 130.154 68.076 C 126.663 73.015, 124.030 77.636, 124.302 78.345 C 124.574 79.055, 127.562 84.292, 130.942 89.983 C 137.125 100.396, 138.353 105.413, 133.724 101.346 C 116.790 86.469, 116.973 86.597, 115.528 88.601 C 114.774 89.646, 111.842 93.762, 109.011 97.750 L 103.864 105 114.373 105 C 120.153 105, 125.100 105.352, 125.366 105.783 C 125.632 106.213, 120.028 109.864, 112.913 113.896 C 105.799 117.928, 99.724 121.637, 99.415 122.138 C 99.105 122.639, 99.160 124.452, 99.537 126.168 L 100.222 129.286 111.611 128.725 C 120.622 128.282, 123 128.438, 123 129.475 C 123 131.083, 122.628 131.218, 111.750 133.564 C 106.938 134.602, 103 135.940, 103 136.538 C 103 137.445, 111.056 165.565, 112.538 169.833 C 112.802 170.593, 110.924 169.950, 108.163 168.333 C 72.168 147.254, 64.221 142.415, 64.809 141.934 C 65.189 141.623, 72.917 139.681, 81.983 137.618 C 106.042 132.144, 105.633 131.802, 77 133.454 C 65.175 134.137, 55.332 134.558, 55.126 134.391 C 53.295 132.898, 58.645 130.707, 75.400 126.089 L 95.030 120.678 94.413 117.387 C 93.956 114.951, 94.332 113.343, 95.861 111.195 L 97.927 108.294 88.810 107.647 C 83.795 107.291, 72.749 107, 64.263 107 C 55.281 107, 48.973 106.615, 49.167 106.079 C 49.350 105.572, 55.086 99.160, 61.913 91.829 C 73.725 79.145, 74.853 78.222, 85.236 72.750 C 91.237 69.588, 96.589 67, 97.129 67 C 97.669 67, 102.018 70.375, 106.794 74.500 C 111.570 78.625, 115.810 82, 116.216 82 C 116.622 82, 117.661 80.922, 118.524 79.603 C 119.872 77.547, 119.929 76.254, 118.926 70.495 L 117.757 63.783 101.628 64.463 C 92.758 64.837, 84.751 65.354, 83.835 65.612 C 82.500 65.988, 60.103 90.586, 55.317 96.932 C 54.507 98.007, 53.807 98.177, 53.092 97.475 C 52.373 96.768, 56.995 90.711, 67.974 77.975 L 83.899 59.500 77.582 59.207 L 71.265 58.915 69.507 45.207 C 68.540 37.668, 67.430 30.902, 67.040 30.170 C 66.546 29.242, 59.030 35.421, 42.145 50.638 M 86.199 61.053 C 84.987 62.994, 85.097 63.078, 88.208 62.599 C 90.019 62.320, 97.914 61.815, 105.754 61.476 C 117.106 60.985, 120.091 61.128, 120.413 62.179 C 120.636 62.906, 121.197 65.937, 121.659 68.915 L 122.500 74.330 127 67.981 C 129.475 64.489, 131.860 61.040, 132.300 60.316 C 132.952 59.243, 128.888 59, 110.290 59 C 88.367 59, 87.431 59.080, 86.199 61.053 M 85.755 75.419 C 77 80.044, 74.924 81.733, 65.331 92.034 L 54.652 103.500 66.076 104.118 C 72.359 104.459, 82.675 104.784, 89 104.842 L 100.500 104.948 107.250 95.453 C 110.963 90.231, 114 85.577, 114 85.111 C 114 83.914, 97.714 69.982, 96.500 70.140 C 95.950 70.212, 91.115 72.587, 85.755 75.419 M 120.164 82.109 C 118.988 83.993, 119.154 84.554, 121.671 87.204 C 123.227 88.842, 125.810 91.124, 127.410 92.273 L 130.320 94.364 127.410 89.181 C 125.810 86.330, 123.822 83.096, 122.993 81.995 C 121.490 79.998, 121.482 79.999, 120.164 82.109 M 99.250 111.319 C 97.161 114.387, 96.187 119, 97.627 119 C 98.353 119, 112.548 111.311, 115.473 109.334 C 117.195 108.169, 116.436 108.001, 109.473 108.007 C 101.574 108.014, 101.479 108.044, 99.250 111.319 M 82.500 127.153 L 69.500 131.024 78 130.518 C 82.675 130.240, 88.862 130.009, 91.750 130.006 C 96.531 130.001, 96.999 129.799, 96.985 127.750 C 96.953 123.164, 96.025 123.126, 82.500 127.153 M 85.654 139.608 C 78.039 141.396, 71.665 143.003, 71.491 143.179 C 71.121 143.553, 107.375 164.940, 107.755 164.571 C 107.990 164.343, 100.001 136.589, 99.654 136.429 C 99.569 136.389, 93.269 137.820, 85.654 139.608" stroke="none" fill="black" fill-rule="evenodd"/>
</svg>