<svg xmlns="http://www.w3.org/2000/svg" width="200" height="200" viewBox="0 0 200 200" version="1.1">
	<path d="M 85.347 24.582 L 85.988 32.165 81.971 27.082 C 79.761 24.287, 77.627 22, 77.227 22 C 74.829 22, 24.977 39.358, 25.662 39.954 C 26.123 40.355, 34.825 43.751, 45 47.500 C 55.175 51.249, 63.881 54.649, 64.347 55.056 C 64.814 55.462, 61.889 57.743, 57.847 60.124 C 50.209 64.625, 28.302 84.797, 29.729 86.017 C 30.153 86.379, 35.225 88.594, 41 90.938 C 46.775 93.283, 51.821 95.500, 52.214 95.865 C 52.607 96.230, 44.126 107.466, 33.367 120.834 C 22.608 134.202, 14.044 145.378, 14.336 145.669 C 14.628 145.961, 23.154 146.445, 33.283 146.744 L 51.699 147.289 60.935 164.644 L 70.171 182 77.335 182.009 C 81.276 182.013, 86.838 182.298, 89.695 182.641 L 94.890 183.266 96.589 191.133 C 97.768 196.586, 98.737 199, 99.749 199 C 100.968 199, 101.089 197.656, 100.486 190.842 L 99.764 182.683 115.673 183.363 L 131.582 184.043 140.041 163.375 L 148.500 142.706 165 131.726 C 174.075 125.688, 181.839 120.443, 182.253 120.070 C 182.667 119.698, 174.706 113.343, 164.560 105.947 C 154.415 98.551, 146.088 92.243, 146.057 91.928 C 146.026 91.614, 153.443 88.968, 162.540 86.047 C 172.422 82.875, 178.930 80.288, 178.709 79.619 C 178.232 78.179, 171.745 77.502, 143.265 75.924 C 130.486 75.215, 120.264 74.403, 120.549 74.117 C 120.835 73.832, 132.383 70.185, 146.213 66.014 C 160.837 61.602, 171.546 57.862, 171.809 57.074 C 172.184 55.948, 168.320 55.834, 148.880 56.399 C 136.021 56.773, 123.532 57.345, 121.126 57.671 C 115.874 58.383, 116.042 57.831, 123.500 49.872 L 128.500 44.537 153.271 39.914 C 166.895 37.372, 178.303 35.031, 178.621 34.712 C 180.917 32.417, 173.152 32.377, 125.975 34.443 L 111.450 35.079 98.666 26.040 C 91.634 21.068, 85.617 17, 85.294 17 C 84.971 17, 84.995 20.412, 85.347 24.582 M 88.425 28.931 L 89.157 36.363 102.151 52.931 C 109.298 62.044, 115.469 70.064, 115.865 70.754 C 116.408 71.701, 121.708 70.479, 137.542 65.754 C 150.462 61.899, 157.478 59.382, 155.836 59.192 C 154.371 59.022, 143.796 59.317, 132.336 59.847 C 120.876 60.377, 111.323 60.638, 111.106 60.428 C 110.890 60.218, 114.246 56.098, 118.564 51.273 C 122.882 46.448, 126.481 42.378, 126.561 42.230 C 126.641 42.081, 133.296 40.766, 141.349 39.308 C 149.401 37.850, 155.833 36.500, 155.642 36.309 C 155.451 36.117, 145.243 36.379, 132.957 36.891 L 110.620 37.821 100.560 30.753 C 95.027 26.865, 89.868 23.193, 89.096 22.592 C 87.906 21.666, 87.804 22.629, 88.425 28.931 M 54 32.464 C 35.292 38.814, 32.825 39.889, 35 40.739 C 36.375 41.277, 45.037 44.539, 54.250 47.988 C 63.463 51.437, 70.992 54.538, 70.983 54.880 C 70.974 55.221, 66.812 57.958, 61.733 60.963 C 52.933 66.170, 33.466 83.326, 34.485 84.976 C 34.715 85.348, 39.874 87.600, 45.951 89.981 C 52.028 92.362, 57 94.657, 57 95.080 C 57 95.504, 48.450 106.446, 38 119.396 C 27.550 132.346, 19 143.169, 19 143.447 C 19 143.725, 26.700 144.076, 36.111 144.226 L 53.222 144.500 62.102 161 C 66.986 170.075, 71.099 177.809, 71.241 178.187 C 71.383 178.565, 76.633 179.196, 82.906 179.589 C 93.802 180.272, 94.291 180.219, 93.830 178.402 C 93.564 177.356, 90.456 163.028, 86.923 146.562 L 80.500 116.625 72.750 113.094 C 61.475 107.957, 62.323 107, 78.149 107 L 91.297 107 90.680 98.261 C 90.341 93.454, 89.599 89.366, 89.032 89.177 C 87.740 88.747, 87.675 86.282, 88.943 85.833 C 89.517 85.630, 89.156 75.988, 88.017 61.149 L 86.148 36.797 81.733 31.202 C 79.305 28.124, 76.909 25.507, 76.409 25.386 C 75.909 25.265, 65.825 28.450, 54 32.464 M 89.349 43.500 C 89.656 45.150, 90.447 54.713, 91.105 64.750 C 91.764 74.788, 92.525 83, 92.796 83 C 94.057 83, 101.995 77.386, 101.987 76.500 C 101.982 75.950, 101.342 73.404, 100.564 70.841 C 99.239 66.475, 99.359 65, 101.037 65 C 101.424 65, 102.320 67.138, 103.029 69.750 C 103.738 72.362, 104.448 74.664, 104.607 74.864 C 104.944 75.291, 112 71.040, 112 70.410 C 112 69.986, 91.532 43.415, 89.730 41.500 C 89.136 40.868, 88.995 41.605, 89.349 43.500 M 107.041 77.451 C 105.984 78.724, 106.476 81.555, 109.881 93.809 C 112.147 101.960, 114 109.228, 114 109.961 C 114 111.018, 112.031 111.176, 104.500 110.727 L 95 110.160 95 114.849 L 95 119.538 101 122.837 C 104.300 124.651, 107 126.780, 107 127.568 C 107 129.461, 106.757 129.417, 100.967 126.483 L 96 123.966 96.061 129.233 C 96.153 137.072, 99.453 178.786, 100.027 179.360 C 100.300 179.633, 107.079 180.175, 115.091 180.565 L 129.659 181.273 138.012 161.030 L 146.366 140.787 161.433 130.766 C 169.720 125.255, 176.870 120.411, 177.321 120.001 C 177.773 119.592, 169.786 113.084, 159.571 105.539 C 149.357 97.994, 141 91.512, 141 91.135 C 141 90.757, 147.637 88.234, 155.750 85.528 C 163.863 82.822, 169.825 80.494, 169 80.355 C 168.175 80.216, 155.350 79.387, 140.500 78.514 C 125.650 77.640, 112.334 76.697, 110.909 76.418 C 109.281 76.099, 107.844 76.483, 107.041 77.451 M 97.683 83.362 L 92.867 86.500 93.530 96.500 C 93.895 102, 94.402 106.838, 94.656 107.250 C 94.910 107.662, 98.740 108, 103.166 108 C 109.716 108, 111.112 107.735, 110.668 106.577 C 110.367 105.794, 108.680 99.831, 106.917 93.327 C 105.155 86.822, 103.440 81.213, 103.107 80.862 C 102.773 80.510, 100.333 81.635, 97.683 83.362 M 75.993 111.451 C 77.493 112.281, 78.722 112.450, 79.077 111.876 C 79.404 111.346, 82.416 112.474, 85.834 114.406 L 92 117.891 92 113.946 L 92 110 82.750 110.035 C 74.338 110.068, 73.726 110.196, 75.993 111.451 M 84.224 121.250 C 89.477 147.072, 95.550 172.777, 95.743 170 C 95.876 168.075, 95.201 156.603, 94.243 144.506 L 92.500 122.512 89 120.804 C 84.340 118.530, 83.684 118.591, 84.224 121.250" stroke="none" fill="black" fill-rule="evenodd"/>
</svg>