<svg xmlns="http://www.w3.org/2000/svg" width="200" height="200" viewBox="0 0 200 200" version="1.1">
	<path d="M 128.500 23.505 C 115.850 27.580, 103.786 30.934, 101.692 30.957 C 98.328 30.995, 90.489 30.069, 80.172 28.414 C 76.928 27.894, 76.861 27.784, 77.493 24.043 C 78.415 18.583, 76.408 18.032, 74.814 23.307 L 73.500 27.653 55.656 25.254 C 45.842 23.934, 37.660 23.006, 37.474 23.193 C 37.288 23.379, 38.716 38.824, 40.648 57.515 L 44.160 91.500 34.226 119.500 C 28.763 134.900, 24.427 147.662, 24.590 147.860 C 24.754 148.058, 33.751 143.659, 44.583 138.083 C 55.416 132.508, 64.473 128.139, 64.709 128.376 C 64.946 128.612, 65.688 132.821, 66.359 137.728 C 67.229 144.086, 68.215 147.457, 69.789 149.459 C 71.970 152.232, 71.975 152.306, 70.141 155.384 C 69.120 157.098, 66.349 162.100, 63.984 166.500 C 61.618 170.900, 59.539 174.677, 59.364 174.894 C 59.189 175.111, 52.204 176.478, 43.843 177.932 C 35.482 179.386, 28.484 181.048, 28.291 181.626 C 27.812 183.065, 87.147 183.896, 134.433 183.112 L 171.366 182.500 161.933 176.381 C 154.616 171.634, 148.852 168.964, 136.237 164.477 C 127.292 161.296, 120.150 158.517, 120.364 158.303 C 120.679 157.988, 161.846 148.330, 174.750 145.543 C 176.537 145.157, 178 144.254, 178 143.537 C 178 142.002, 174.885 141.650, 142 139.461 C 129.075 138.600, 118.144 137.801, 117.710 137.685 C 117.275 137.568, 128.168 133.207, 141.915 127.992 C 155.663 122.778, 166.594 118.235, 166.206 117.899 C 165.817 117.562, 158.763 115.414, 150.530 113.127 L 135.559 108.968 100.773 107.291 C 81.640 106.368, 66.327 105.292, 66.743 104.899 C 67.159 104.506, 74.474 100.533, 82.998 96.071 C 97.345 88.562, 98.593 88.090, 99.788 89.725 C 101.060 91.465, 101.811 91.069, 103.234 87.909 C 103.380 87.583, 113.400 88.310, 125.500 89.524 C 137.600 90.738, 150.762 92.044, 154.750 92.426 L 162 93.121 161.997 71.811 C 161.995 60.090, 161.701 43.455, 161.344 34.844 L 160.695 19.188 132.378 45.710 C 116.803 60.298, 103.849 72.968, 103.590 73.866 C 103.331 74.765, 102.625 77.412, 102.021 79.750 C 101.417 82.088, 100.502 84, 99.988 84 C 98.628 84, 77.706 55.965, 78.473 55.170 C 78.829 54.802, 91.554 50.867, 106.751 46.426 C 122.847 41.723, 134.568 37.795, 134.827 37.018 C 135.195 35.916, 130.012 35.785, 105.136 36.267 L 75 36.851 75 34.485 C 75 33.183, 75.449 31.840, 75.999 31.501 C 76.548 31.161, 82.961 31.653, 90.249 32.594 L 103.500 34.304 128.250 26.469 C 144.090 21.455, 153 18.160, 153 17.317 C 153 16.593, 152.662 16.021, 152.250 16.048 C 151.838 16.074, 141.150 19.430, 128.500 23.505 M 40.428 29.126 C 40.739 30.982, 42.373 45.600, 44.058 61.610 L 47.123 90.721 38.620 115.125 C 33.944 128.548, 29.791 140.382, 29.391 141.424 C 28.863 142.800, 33.737 140.677, 47.221 133.659 C 57.427 128.346, 66.186 124, 66.686 124 C 67.186 124, 68.125 128.740, 68.772 134.533 C 69.748 143.270, 70.395 145.651, 72.561 148.491 L 75.172 151.915 68.072 164.869 L 60.971 177.824 53.735 179.162 C 46.761 180.452, 47.457 180.511, 73 180.817 C 87.575 180.992, 113.559 180.827, 130.741 180.452 L 161.983 179.770 157.887 176.803 C 155.576 175.129, 144.812 170.574, 133.184 166.349 C 121.850 162.231, 111.999 158.539, 111.292 158.144 C 110.586 157.748, 122.801 154.524, 138.437 150.979 C 154.074 147.434, 166.767 144.433, 166.644 144.311 C 166.476 144.143, 112.429 140, 110.402 140 C 110.181 140, 110 139.357, 110 138.572 C 110 137.766, 112.289 136.283, 115.250 135.170 C 136.013 127.366, 155.408 119.871, 156.672 119.164 C 157.713 118.581, 154.847 117.337, 147.337 115.111 C 136.688 111.954, 135.816 111.864, 97 109.930 C 75.275 108.847, 57.072 107.827, 56.548 107.663 C 56.025 107.499, 64.858 102.492, 76.178 96.536 L 96.760 85.706 85.793 70.853 C 79.761 62.684, 74.525 56, 74.156 56 C 73.788 56, 72.027 56.419, 70.243 56.930 C 66.588 57.978, 66.240 57.138, 67.912 51.306 C 68.726 48.467, 68.398 47.555, 64.854 42.813 L 60.884 37.500 66.326 37.204 C 71.531 36.920, 71.796 36.771, 72.391 33.794 C 72.734 32.082, 72.898 30.575, 72.757 30.446 C 72.616 30.317, 66.650 29.475, 59.500 28.575 C 52.350 27.675, 45.007 26.672, 43.181 26.345 C 39.884 25.755, 39.866 25.773, 40.428 29.126 M 131.855 49.977 C 107.128 73.096, 106.167 74.137, 104.992 79.031 C 104.323 81.824, 103.938 84.246, 104.137 84.415 C 104.337 84.583, 114.850 85.707, 127.500 86.911 C 140.150 88.115, 152.412 89.354, 154.750 89.664 L 159 90.227 159 58.114 C 159 40.451, 158.662 26, 158.250 26 C 157.838 26, 145.960 36.790, 131.855 49.977 M 77.533 39.892 C 73.920 40.446, 73.485 40.844, 72.660 44.349 C 71.884 47.649, 72.055 48.500, 73.861 50.306 L 75.968 52.413 96.234 46.569 C 107.380 43.354, 117.400 40.365, 118.500 39.926 C 120.801 39.006, 83.511 38.976, 77.533 39.892 M 67 40.878 C 67 41.360, 67.620 42.270, 68.378 42.899 C 69.460 43.797, 69.869 43.609, 70.284 42.021 C 70.678 40.515, 70.327 40, 68.906 40 C 67.858 40, 67 40.395, 67 40.878 M 70.500 53 C 70.160 53.550, 70.359 54, 70.941 54 C 71.523 54, 72 53.550, 72 53 C 72 52.450, 71.802 52, 71.559 52 C 71.316 52, 70.840 52.450, 70.500 53" stroke="none" fill="black" fill-rule="evenodd"/>
</svg>