<svg xmlns="http://www.w3.org/2000/svg" width="200" height="200" viewBox="0 0 200 200" version="1.1">
	<path d="M 51.351 13.750 C 51.681 15.262, 52.240 17.512, 52.593 18.750 C 53.408 21.613, 53.803 21.630, 35.064 18.016 C 26.574 16.379, 19.503 15.164, 19.351 15.315 C 19.199 15.467, 17.620 32.414, 15.841 52.976 L 12.607 90.360 15.393 125.930 C 18.682 167.918, 18.940 170.184, 20.392 169.796 C 21.001 169.633, 31.512 164.354, 43.750 158.065 L 66 146.630 66 129.350 C 66 113.131, 66.122 112.005, 67.987 111.007 C 69.950 109.956, 69.978 110.368, 70.237 145.078 L 70.500 180.212 93.500 163.467 C 106.150 154.257, 116.639 146.607, 116.810 146.468 C 116.980 146.328, 113.694 139.375, 109.508 131.016 C 105.322 122.657, 102.482 116.160, 103.198 116.578 C 104.483 117.329, 129.301 133.096, 129.712 133.423 C 129.829 133.515, 126.576 144.146, 122.483 157.046 C 118.391 169.946, 115.033 181.199, 115.021 182.054 C 115.003 183.384, 119.532 182.879, 146.425 178.554 C 163.709 175.774, 178.105 173.241, 178.417 172.925 C 178.729 172.609, 177.865 158.434, 176.497 141.425 C 175.129 124.416, 174.008 109.797, 174.005 108.937 C 174.001 107.810, 171.497 106.730, 165 105.055 C 160.050 103.779, 156 102.292, 156 101.752 C 156 101.212, 161.658 85.859, 168.574 67.635 C 175.489 49.411, 181.227 34.106, 181.324 33.625 C 181.421 33.144, 180.983 32.559, 180.351 32.325 C 179.693 32.082, 172.847 43.367, 164.351 58.700 L 149.500 85.500 149.234 57.672 C 149.076 41.117, 148.592 29.977, 148.040 30.172 C 147.530 30.352, 139.249 38.972, 129.638 49.326 C 120.027 59.680, 111.870 68.145, 111.512 68.138 C 111.153 68.130, 103.878 60.221, 95.344 50.562 C 86.810 40.903, 79.339 33, 78.742 33 C 78.146 33, 76.835 33.745, 75.829 34.655 C 74.089 36.230, 74 36.133, 74 32.655 C 74 30.393, 74.476 29.003, 75.250 29.009 C 75.938 29.013, 84.544 30.588, 94.376 32.509 C 114.854 36.508, 114 36.413, 114 34.699 C 114 33.801, 107.805 32.221, 94 29.599 L 74 25.800 74 21.400 C 74 18.980, 74.385 17, 74.856 17 C 75.924 17, 154.297 27.777, 158.750 28.537 C 161.171 28.949, 162 28.723, 162 27.648 C 162 25.989, 164.475 26.460, 111.120 17.969 C 88.309 14.339, 72.373 12.227, 71.837 12.763 C 71.301 13.299, 67.398 13.133, 62.217 12.354 C 50.310 10.563, 50.645 10.520, 51.351 13.750 M 55.219 17.965 C 55.943 20.817, 56.882 22.167, 58.375 22.505 C 65.909 24.207, 70.301 25.030, 70.534 24.784 C 70.681 24.628, 70.959 22.717, 71.151 20.539 C 71.539 16.133, 72.331 16.517, 58.844 14.576 L 54.189 13.906 55.219 17.965 M 21.898 18.428 C 21.841 18.468, 20.350 34.694, 18.584 54.486 L 15.372 90.472 18.326 127.986 C 19.951 148.619, 21.418 165.664, 21.587 165.864 C 21.756 166.064, 31.030 161.509, 42.197 155.742 L 62.500 145.257 62.775 129.628 C 62.927 121.033, 62.810 114, 62.515 114 C 62.220 114, 53.835 118.077, 43.882 123.059 C 33.929 128.042, 25.596 131.930, 25.366 131.699 C 25.135 131.469, 29.682 121.028, 35.469 108.497 C 44.231 89.524, 45.754 85.529, 44.573 84.607 C 38.468 79.840, 27.195 69.494, 27.525 68.960 C 27.749 68.597, 35.146 63.240, 43.962 57.057 C 59.061 46.468, 59.954 45.661, 59.345 43.158 C 58.127 38.153, 54.192 24.859, 53.846 24.578 C 53.523 24.316, 22.121 18.272, 21.898 18.428 M 59.205 32.203 C 60.347 36.216, 61.562 40.526, 61.904 41.779 L 62.526 44.059 66.763 40.943 C 70.734 38.022, 71 37.523, 71 32.981 C 71 27.779, 71.027 27.804, 64 26.500 C 62.075 26.143, 59.741 25.638, 58.814 25.378 C 57.282 24.949, 57.317 25.573, 59.205 32.203 M 76.079 37.750 C 73.993 39.454, 73.920 40.366, 73.307 72.250 C 72.961 90.263, 72.980 105, 73.350 105 C 74.095 105, 108.204 88.060, 109 87.294 C 109.275 87.030, 107.812 85.393, 105.750 83.657 C 103.687 81.921, 102 80.026, 102 79.446 C 102 78.867, 103.575 76.866, 105.500 75 C 107.425 73.134, 109 71.260, 109 70.835 C 109 70.083, 79.208 36, 78.551 36 C 78.370 36, 77.257 36.788, 76.079 37.750 M 125.303 57.857 L 105.105 79.500 108.743 82.500 C 110.744 84.150, 112.633 85.403, 112.941 85.284 C 113.248 85.165, 115.525 87.039, 118 89.448 C 122.247 93.582, 123.345 94.054, 137.500 97.829 C 145.750 100.029, 152.567 101.755, 152.649 101.665 C 153.074 101.193, 170.901 53.570, 170.717 53.396 C 170.598 53.284, 165.339 62.576, 159.032 74.045 C 152.725 85.514, 147.414 94.747, 147.231 94.564 C 147.048 94.381, 146.583 81.177, 146.199 65.223 L 145.500 36.214 125.303 57.857 M 66.307 44.631 C 63.388 46.950, 63.214 47.398, 64.285 49.834 C 65.045 51.562, 65.641 62.460, 65.979 80.795 C 66.460 106.946, 66.626 108.992, 68.157 107.795 C 69.610 106.659, 69.899 102.548, 70.518 74.250 C 70.909 56.330, 70.840 42.021, 70.361 42.047 C 69.888 42.073, 68.063 43.236, 66.307 44.631 M 45.966 58.832 C 38.522 64.150, 32.380 68.950, 32.318 69.500 C 32.256 70.050, 34.522 72.471, 37.353 74.880 C 40.184 77.289, 44.012 80.581, 45.860 82.196 L 49.221 85.133 40.046 105.169 C 35 116.189, 31.074 125.408, 31.322 125.655 C 31.570 125.903, 38.759 122.620, 47.299 118.361 C 61.238 111.409, 62.887 110.316, 63.413 107.683 C 63.736 106.070, 64 94.538, 64 82.057 C 64 64.542, 63.649 58.180, 62.461 54.182 C 61.615 51.332, 60.602 49.037, 60.211 49.082 C 59.820 49.128, 53.410 53.515, 45.966 58.832 M 92.250 98.852 L 73 108.476 73 141.755 L 73 175.034 84.250 166.838 C 110.159 147.964, 113 145.797, 113 144.909 C 113 144.397, 109.148 136.284, 104.441 126.882 C 99.733 117.479, 96.058 109.609, 96.273 109.394 C 96.489 109.178, 104.837 114.224, 114.825 120.607 C 130.646 130.717, 132.915 132.488, 132.442 134.356 C 132.143 135.535, 128.850 146.175, 125.124 158 C 121.399 169.825, 118.651 179.627, 119.019 179.781 C 119.892 180.149, 174.994 171.340, 175.597 170.736 C 176.038 170.295, 172.540 121.857, 171.461 113.464 L 170.942 109.428 163.721 107.577 C 159.749 106.559, 156.019 105.546, 155.432 105.326 C 154.845 105.106, 152.647 109.460, 150.549 115.002 C 148.450 120.543, 146.379 124.948, 145.947 124.789 C 145.515 124.630, 141.030 119.775, 135.980 114 C 125.164 101.631, 115.106 91.137, 113 90.022 C 111.995 89.490, 105.147 92.404, 92.250 98.852 M 127.160 99.750 C 132.839 106.509, 144.481 119.552, 145.048 119.790 C 145.685 120.057, 151 106.914, 151 105.071 C 151 104.378, 128.922 98, 126.522 98 C 126.064 98, 126.352 98.787, 127.160 99.750" stroke="none" fill="black" fill-rule="evenodd"/>
</svg>