<svg xmlns="http://www.w3.org/2000/svg" width="200" height="200" viewBox="0 0 200 200" version="1.1">
	<path d="M 107.275 21.924 C 95.052 23.955, 84.750 25.917, 84.382 26.284 C 84.015 26.652, 84.391 30.352, 85.217 34.507 L 86.721 42.061 75.110 41.781 L 63.500 41.500 60.895 33.500 C 59.400 28.908, 57.788 25.611, 57.111 25.761 C 53.742 26.508, 28 41.357, 28 42.553 C 28 43.684, 31.185 44.004, 44.658 44.226 L 61.317 44.500 63.593 51.250 C 64.844 54.962, 65.561 57.999, 65.184 57.998 C 63.515 57.995, 34.472 61.244, 34.231 61.461 C 34.083 61.595, 38.921 72.293, 44.981 85.236 C 51.042 98.179, 56 109.178, 56 109.679 C 56 110.180, 52.079 111.404, 47.287 112.400 C 33.396 115.288, 34.740 113.737, 31.330 130.809 L 28.338 145.790 36.919 155.178 C 41.638 160.341, 48.214 167.546, 51.532 171.189 L 57.563 177.813 88.100 179.406 C 104.895 180.283, 119.980 181, 121.623 181 C 123.668 181, 131.838 176.710, 147.554 167.382 C 160.174 159.891, 171.059 153.241, 171.742 152.604 C 172.715 151.695, 170.820 148.325, 162.992 137.039 C 157.496 129.115, 153 122.494, 153 122.324 C 153 122.153, 158.850 119.083, 166 115.500 C 183.583 106.689, 183.551 105.518, 165.750 106.347 C 158.463 106.687, 143.950 107.184, 133.500 107.452 C 115.441 107.916, 114.748 107.865, 119.500 106.435 C 122.250 105.608, 125.076 104.609, 125.779 104.215 C 128.146 102.891, 176.913 28.902, 175.690 28.491 C 166.389 25.359, 136.619 18.029, 133.558 18.116 C 131.326 18.180, 119.499 19.894, 107.275 21.924 M 111.057 24.156 C 98.164 26.299, 87.431 28.236, 87.206 28.460 C 86.982 28.685, 87.410 31.711, 88.158 35.184 L 89.518 41.500 100.393 41.785 L 111.268 42.070 110.745 48.591 C 110.457 52.178, 110.047 55.287, 109.833 55.500 C 109.619 55.714, 105.934 56.325, 101.643 56.857 C 97.352 57.390, 93.648 58.018, 93.413 58.253 C 93.178 58.488, 93.250 59.998, 93.572 61.608 C 94.041 63.954, 97.729 67.313, 112.141 78.518 C 123.917 87.673, 129.538 92.621, 128.424 92.850 C 127.488 93.042, 120.882 92.684, 113.743 92.052 C 106.603 91.421, 100.576 91.091, 100.348 91.319 C 100.120 91.547, 100.230 93.583, 100.591 95.844 C 101.156 99.378, 101.879 100.325, 105.739 102.587 C 110.429 105.336, 112.615 105.394, 121.130 102.995 C 124.493 102.047, 126.502 99.362, 148.486 66.426 C 161.536 46.875, 172.052 30.727, 171.856 30.540 C 171.540 30.239, 139.795 21.430, 136 20.591 C 135.175 20.408, 123.951 22.013, 111.057 24.156 M 45.230 34.856 L 34.960 40.500 47.230 41.149 C 53.979 41.506, 59.685 41.622, 59.910 41.406 C 60.493 40.848, 56.807 28.978, 56.092 29.106 C 55.766 29.165, 50.879 31.752, 45.230 34.856 M 65 45.204 C 65 45.820, 65.774 48.781, 66.721 51.783 L 68.441 57.242 77.971 56.552 C 83.212 56.172, 87.884 55.486, 88.354 55.027 C 89.512 53.894, 88.089 45.948, 86.650 45.514 C 86.018 45.323, 80.888 44.923, 75.250 44.625 C 68.027 44.244, 65 44.415, 65 45.204 M 91.279 50.014 L 92.271 55.028 98.885 54.432 C 107.999 53.611, 108 53.610, 108 49.031 L 108 45 99.144 45 L 90.288 45 91.279 50.014 M 78.250 59.239 C 73.713 59.768, 70 60.493, 70 60.850 C 70 61.208, 71.109 65.094, 72.464 69.486 C 73.820 73.880, 74.545 77.855, 74.077 78.323 C 72.972 79.428, 72.769 79.019, 69.552 69.250 L 66.836 61 63.168 61.094 C 54.623 61.313, 38.512 63.602, 38.685 64.573 C 38.786 65.143, 43.624 75.773, 49.435 88.197 C 55.246 100.620, 60 111.190, 60 111.686 C 60 112.181, 54.809 113.676, 48.465 115.007 C 38.757 117.045, 36.855 117.750, 36.453 119.464 C 36.191 120.584, 34.923 126.757, 33.635 133.183 L 31.295 144.865 44.707 159.683 C 57.105 173.379, 58.437 174.546, 62.310 175.114 C 64.615 175.452, 79.337 176.306, 95.027 177.013 L 123.553 178.297 146.256 164.899 C 159.684 156.973, 168.782 151.008, 168.528 150.294 C 168.291 149.631, 164.101 143.331, 159.217 136.294 C 154.332 129.257, 150.017 122.950, 149.627 122.279 C 149.145 121.449, 152.696 119.143, 160.709 115.084 L 172.500 109.110 152 109.672 C 140.725 109.982, 129.042 110.519, 126.037 110.867 L 120.575 111.500 130.537 117.400 C 141.850 124.099, 141.483 123.850, 140.890 124.443 C 140.646 124.687, 133.102 125.913, 124.124 127.167 L 107.802 129.449 108.465 134.449 C 108.830 137.200, 109.546 139.953, 110.056 140.567 C 110.565 141.181, 110.764 141.902, 110.497 142.169 C 110.230 142.436, 110.886 146.656, 111.955 151.545 C 113.023 156.435, 113.697 160.637, 113.451 160.882 C 113.206 161.127, 104.428 160.740, 93.944 160.022 C 83.461 159.304, 75.247 158.364, 75.692 157.933 C 76.136 157.502, 82.706 153.807, 90.291 149.722 L 104.082 142.296 86.791 139.600 C 62.402 135.797, 63 135.928, 63 134.389 C 63 133.625, 63.175 133, 63.388 133 C 64.461 133, 99.826 127.881, 101.847 127.433 C 103.667 127.030, 104.079 126.417, 103.681 124.706 C 103.398 123.493, 102.646 119.906, 102.010 116.737 C 101.373 113.567, 100.467 111.211, 99.995 111.503 C 98.548 112.398, 97.755 110, 99.002 108.497 C 99.675 107.687, 99.909 105.888, 99.551 104.291 C 99.048 102.052, 96.952 100.342, 88.955 95.643 C 74.764 87.306, 74.518 85.852, 87.500 87.029 C 91.900 87.428, 95.624 87.648, 95.776 87.518 C 95.999 87.326, 92.703 70.425, 90.458 60.250 C 90.159 58.892, 89.276 58.055, 88.231 58.139 C 87.279 58.216, 82.787 58.711, 78.250 59.239 M 96.594 76.634 C 97.363 80.410, 98.217 84.470, 98.491 85.656 C 99.022 87.947, 99.716 88.106, 115.500 89.560 L 122.500 90.205 114.756 84.017 C 110.496 80.614, 106.446 78.039, 105.756 78.296 C 105.065 78.553, 102.406 76.739, 99.848 74.265 L 95.196 69.768 96.594 76.634 M 86 90.383 C 86 90.594, 88.736 92.396, 92.081 94.388 L 98.161 98.011 97.455 94.755 C 97.067 92.965, 96.243 91.169, 95.624 90.765 C 94.482 90.019, 86 89.682, 86 90.383 M 102.638 105.500 C 102.955 106.325, 104.152 107, 105.298 107 C 107.345 107, 107.348 106.974, 105.441 105.532 C 102.930 103.632, 101.917 103.621, 102.638 105.500 M 104.035 112.250 C 104.086 114.056, 106.707 126.047, 107.137 126.439 C 107.337 126.621, 113.125 125.933, 120 124.911 C 126.875 123.888, 132.950 123.036, 133.500 123.017 C 134.050 122.999, 130 120.291, 124.500 117 C 115.687 111.727, 113.877 111.016, 109.250 111.008 C 105.694 111.003, 104.011 111.403, 104.035 112.250 M 89.500 132.002 C 82.900 132.967, 76.600 133.945, 75.500 134.176 C 74.400 134.407, 80.025 135.619, 88 136.869 C 95.975 138.120, 103.455 139.370, 104.621 139.648 C 106.665 140.134, 106.706 139.968, 105.739 135.076 C 105.008 131.383, 104.294 130.034, 103.117 130.124 C 102.228 130.192, 96.100 131.037, 89.500 132.002 M 95 150.288 L 83.500 156.500 96.290 157.377 C 103.325 157.859, 109.308 158.025, 109.587 157.746 C 110.240 157.093, 107.841 143.988, 107.077 144.038 C 106.760 144.060, 101.325 146.872, 95 150.288" stroke="none" fill="black" fill-rule="evenodd"/>
</svg>