<svg xmlns="http://www.w3.org/2000/svg" width="200" height="200" viewBox="0 0 200 200" version="1.1">
	<path d="M 122.320 21.099 L 105.141 27.998 73.820 24.118 C 56.594 21.984, 42.402 20.320, 42.281 20.421 C 41.816 20.810, 43.935 93.268, 44.426 93.759 C 44.712 94.046, 56.658 91.431, 70.973 87.949 C 88.534 83.678, 97 81.193, 97 80.309 C 97 79.589, 96.818 79, 96.595 79 C 96.373 79, 85.235 81.667, 71.845 84.927 C 58.455 88.187, 47.220 90.550, 46.878 90.177 C 46.536 89.805, 45.976 74.621, 45.635 56.435 L 45.014 23.369 75.122 27.146 L 105.231 30.922 111.284 28.463 C 114.613 27.110, 117.506 26.172, 117.712 26.379 C 117.918 26.585, 109.100 31.774, 98.116 37.911 C 87.132 44.047, 77.999 49.410, 77.822 49.830 C 77.645 50.249, 72.775 52.529, 67 54.897 C 61.225 57.264, 56.159 59.519, 55.743 59.907 C 55.327 60.296, 69.277 64.819, 86.743 69.958 C 104.209 75.098, 119.175 79.671, 120 80.121 C 120.955 80.642, 119.743 80.950, 116.667 80.970 C 113.416 80.990, 111.962 81.385, 112.226 82.177 C 112.503 83.010, 116.069 83.279, 124.446 83.099 C 134.436 82.885, 136.187 83.070, 135.717 84.295 C 135.411 85.092, 134.205 88.952, 133.038 92.872 L 130.915 100 124.955 100 C 121.676 100, 106.508 99.290, 91.247 98.422 C 65.778 96.973, 37.976 97.095, 31.250 98.685 C 26.040 99.917, 29.467 101.754, 42.936 104.949 L 56.872 108.256 50.991 119.378 C 27.307 164.166, 19.186 180.497, 20.266 181.164 C 20.908 181.561, 21.898 181.520, 22.466 181.073 C 25.085 179.015, 50.631 160.300, 51.658 159.687 C 52.295 159.307, 63.095 163.878, 75.658 169.845 L 98.500 180.694 135 182.885 C 155.075 184.090, 173.300 185.325, 175.500 185.629 L 179.500 186.181 165.500 172.060 C 157.800 164.294, 145.561 153.354, 138.303 147.750 C 131.044 142.147, 125.218 137.449, 125.356 137.311 C 125.494 137.172, 135.826 134.641, 148.315 131.685 C 160.805 128.729, 171.326 126.008, 171.695 125.638 C 173.324 124.010, 168.871 122.889, 142.778 118.358 C 127.530 115.711, 115.380 113.248, 115.778 112.886 C 116.175 112.524, 127.525 110.340, 141 108.034 C 154.475 105.728, 167.300 103.527, 169.500 103.143 C 171.700 102.759, 173.500 102.007, 173.500 101.472 C 173.500 100.938, 171.772 95.464, 169.660 89.310 C 166.187 79.187, 165.556 78.061, 163.055 77.512 C 160.377 76.924, 160.269 76.643, 159.651 68.702 C 159.299 64.191, 159.009 54.830, 159.006 47.901 C 158.998 31.432, 158.010 20, 156.595 20 C 155.984 20, 151.990 31.335, 147.719 45.190 C 143.448 59.044, 139.735 70.599, 139.467 70.867 C 139.199 71.135, 125.914 68.054, 109.946 64.021 C 88.431 58.587, 80.621 56.979, 79.787 57.813 C 78.953 58.647, 82.332 60.672, 92.835 65.632 C 100.630 69.314, 106.864 72.469, 106.688 72.645 C 106.438 72.895, 70.527 62.577, 64.020 60.385 C 62.236 59.784, 61.633 60.054, 101.750 43.474 C 120.888 35.565, 133 30.037, 133 29.212 C 133 27.526, 132.196 27.768, 115.070 34.609 C 107.683 37.559, 101.502 39.835, 101.334 39.668 C 101.166 39.500, 110.246 34.218, 121.510 27.931 C 132.775 21.644, 141.993 15.938, 141.996 15.250 C 142.002 13.328, 140.730 13.707, 122.320 21.099 M 149.250 49.677 C 145.813 60.774, 143 70.476, 143 71.235 C 143 72.114, 145.452 73.203, 149.745 74.230 C 153.454 75.118, 156.627 75.706, 156.797 75.537 C 156.966 75.368, 156.743 64.940, 156.302 52.365 L 155.500 29.500 149.250 49.677 M 112.902 72.060 C 131.712 81.166, 136.089 82.052, 137.814 77.102 L 138.825 74.205 118.429 69.102 C 107.212 66.296, 97.689 64.027, 97.267 64.060 C 96.845 64.093, 103.881 67.693, 112.902 72.060 M 141 75.918 C 141 76.423, 140.727 77.548, 140.393 78.418 C 139.868 79.787, 140.973 80, 148.593 80 C 158.579 80, 158.636 79.042, 148.794 76.638 C 140.952 74.722, 141 74.727, 141 75.918 M 159.657 81.451 C 159.175 82.707, 157.170 83, 149.068 83 L 139.072 83 135.902 93 L 132.732 103 127.116 102.973 C 124.027 102.958, 109.800 102.293, 95.500 101.495 C 68.392 99.982, 47.184 99.727, 43.126 100.865 C 41.294 101.379, 42.736 102.014, 49.452 103.649 C 56.662 105.405, 58.243 105.531, 58.683 104.384 C 59.435 102.424, 60.680 102.669, 61.262 104.892 C 61.666 106.438, 64.986 107.557, 79.378 110.999 C 89.070 113.317, 97 115.672, 97 116.231 C 97 117.085, 77.994 147.883, 75.985 150.286 C 75.623 150.719, 71.809 141.542, 67.508 129.894 L 59.689 108.716 57.927 112.108 C 56.958 113.974, 49.197 128.775, 40.681 145 C 32.166 161.225, 25.348 174.657, 25.531 174.849 C 25.714 175.040, 31.692 170.878, 38.816 165.599 C 45.940 160.319, 52.011 156, 52.308 156 C 52.606 156, 63.120 160.885, 75.674 166.855 L 98.500 177.710 135.250 180.122 C 155.463 181.448, 171.996 182.301, 171.990 182.017 C 171.961 180.501, 145.777 156.999, 133.349 147.332 C 125.436 141.177, 119.308 135.943, 119.731 135.701 C 120.154 135.458, 129.832 133.095, 141.237 130.450 C 152.643 127.805, 161.726 125.385, 161.421 125.071 C 161.117 124.757, 148.185 122.248, 132.684 119.495 C 111.108 115.664, 104.500 114.152, 104.500 113.047 C 104.500 111.936, 111.902 110.318, 136.715 106.004 C 154.434 102.923, 169.240 100.093, 169.619 99.715 C 170.794 98.540, 163.642 80.555, 161.863 80.212 C 160.977 80.041, 159.984 80.599, 159.657 81.451 M 66.025 118 C 67.661 122.400, 70.377 129.713, 72.061 134.250 C 73.744 138.787, 75.482 142.865, 75.922 143.311 C 76.599 143.997, 91.103 122.501, 92.606 118.584 C 92.971 117.633, 89.132 116.280, 78.577 113.638 C 70.585 111.637, 63.822 110, 63.548 110 C 63.274 110, 64.389 113.600, 66.025 118" stroke="none" fill="black" fill-rule="evenodd"/>
</svg>