<svg xmlns="http://www.w3.org/2000/svg" width="200" height="200" viewBox="0 0 200 200" version="1.1">
	<path d="M 118.317 19.265 L 81.135 28.359 66.032 21.515 C 57.154 17.491, 50.584 15.047, 50.091 15.585 C 49.630 16.088, 43.894 35.175, 37.346 58 L 25.439 99.500 25.969 137.799 L 26.500 176.099 51 152.881 C 64.475 140.111, 75.618 129.176, 75.761 128.582 C 75.905 127.987, 74.920 119.634, 73.574 110.021 C 72.227 100.407, 71.267 92.399, 71.441 92.225 C 72.043 91.624, 92.984 105.503, 92.980 106.500 C 92.978 107.050, 83.566 124.375, 72.065 145 C 59.632 167.296, 51.516 182.873, 52.047 183.420 C 52.970 184.371, 54.322 183.514, 88.809 160.106 C 99.429 152.898, 107.782 147.562, 107.372 148.250 C 106.961 148.937, 100.148 157.301, 92.231 166.835 C 84.315 176.370, 77.986 184.314, 78.169 184.490 C 78.698 184.999, 164.999 179.334, 165.581 178.752 C 165.988 178.345, 170.897 140.157, 170.981 136.745 C 170.992 136.329, 165.853 133.427, 159.563 130.296 L 148.125 124.603 148.690 116.051 C 149.001 111.348, 149.535 107.190, 149.877 106.810 C 150.220 106.431, 156.574 105.055, 163.997 103.752 C 180.988 100.771, 182.113 99.254, 169.283 96.623 C 164.452 95.633, 158.363 94.375, 155.750 93.828 L 151 92.834 151.015 87.167 C 151.024 84.050, 151.452 80.833, 151.968 80.017 C 152.484 79.202, 155.660 77.615, 159.027 76.491 C 162.394 75.367, 165.221 74.234, 165.308 73.973 C 165.395 73.713, 163.242 63.713, 160.522 51.750 C 157.334 37.728, 155.136 30, 154.334 30 C 152.725 30, 152.366 32.534, 150.602 56.350 C 149.794 67.268, 148.938 76.395, 148.700 76.634 C 148.461 76.872, 141.569 79.331, 133.383 82.098 C 125.197 84.865, 118.146 87.477, 117.713 87.901 C 117.281 88.326, 120.881 89.446, 125.713 90.391 C 130.546 91.335, 137.491 92.784, 141.147 93.611 L 147.794 95.114 147.260 99.307 C 146.965 101.613, 146.619 103.631, 146.489 103.790 C 146.359 103.950, 138.889 105.445, 129.888 107.112 C 120.888 108.779, 113.415 110.251, 113.283 110.383 C 113.151 110.516, 120.233 114.159, 129.021 118.479 L 145 126.335 145 131.203 C 145 135.544, 144.811 135.965, 143.250 135.092 C 142.287 134.554, 130.973 127.226, 118.107 118.807 L 94.713 103.500 90.357 93.620 C 87.960 88.185, 86.020 83.235, 86.046 82.620 C 86.071 82.004, 92.629 77.081, 100.621 71.681 L 115.150 61.861 120.598 63.575 C 123.594 64.517, 126.305 65.028, 126.623 64.711 C 127.685 63.648, 126.006 62.160, 123 61.500 C 121.363 61.140, 119.812 60.504, 119.553 60.086 C 119.096 59.347, 127.339 53.008, 128.779 52.992 C 129.176 52.987, 133.226 54.639, 137.779 56.663 C 143.354 59.140, 146.388 60.012, 147.068 59.332 C 147.748 58.652, 145.370 57.094, 139.789 54.562 L 131.500 50.802 133.946 49.151 C 135.291 48.243, 137.276 46.785, 138.356 45.911 C 140.450 44.218, 140.567 44.268, 110.308 33.708 C 106.839 32.497, 104 31.274, 104 30.990 C 104 30.705, 116.185 26.420, 131.077 21.467 C 155.198 13.445, 161.121 10.882, 156.803 10.335 C 156.086 10.244, 138.768 14.263, 118.317 19.265 M 51.464 19.291 C 49.962 23.406, 39.982 58.315, 40.235 58.569 C 40.406 58.739, 42.273 53.956, 44.386 47.939 C 46.499 41.923, 48.556 37, 48.957 37 C 49.359 37, 52.266 37.887, 55.418 38.972 L 61.148 40.943 60.825 37.222 L 60.502 33.500 68.501 31.366 L 76.500 29.232 70.988 26.733 C 67.956 25.359, 62.422 22.851, 58.690 21.159 C 53.947 19.008, 51.773 18.446, 51.464 19.291 M 100.211 26.481 C 92.902 28.276, 86.730 29.936, 86.496 30.171 C 86.261 30.406, 95.552 34.826, 107.144 39.993 C 127.076 48.879, 128.356 49.310, 130.759 47.944 C 132.157 47.150, 133.261 46.083, 133.213 45.572 C 133.165 45.062, 125.164 41.825, 115.433 38.380 C 105.702 34.934, 97.011 31.811, 96.120 31.441 C 95.063 31.002, 98.321 29.446, 105.500 26.963 C 118.909 22.324, 117.617 22.206, 100.211 26.481 M 72 33.342 C 67.325 34.529, 63.612 35.837, 63.750 36.250 C 63.888 36.663, 64 38.088, 64 39.417 C 64 41.636, 65.148 42.217, 77.988 46.496 C 91.825 51.107, 92.051 51.146, 98.929 50.079 C 107.808 48.701, 108 48.710, 108 50.500 C 108 51.325, 107.411 52, 106.691 52 C 105.971 52, 104.596 52.575, 103.635 53.278 C 102.095 54.403, 102.660 54.807, 108.375 56.665 L 114.862 58.774 120.035 55.291 C 122.880 53.375, 124.823 51.444, 124.354 51.001 C 123.610 50.298, 84.156 32.346, 81.500 31.502 C 80.950 31.327, 76.675 32.155, 72 33.342 M 47.064 48.636 C 45.345 53.386, 44.138 57.471, 44.381 57.714 C 44.624 57.957, 48.800 57.550, 53.661 56.809 L 62.500 55.463 62.199 50.014 C 62.033 47.017, 61.753 44.420, 61.576 44.242 C 61.297 43.963, 50.817 40, 50.359 40 C 50.265 40, 48.783 43.886, 47.064 48.636 M 154.693 43 C 154.401 43.825, 153.889 48.775, 153.555 54 C 153.221 59.225, 152.674 66.290, 152.341 69.701 L 151.734 75.901 156.867 74.260 C 160.185 73.199, 161.988 72.067, 161.967 71.059 C 161.893 67.511, 155.181 41.620, 154.693 43 M 65.375 49.716 C 65.723 52.260, 66.146 54.479, 66.313 54.646 C 66.641 54.974, 77.892 53.359, 82 52.395 C 84.147 51.891, 83.581 51.469, 78 49.410 C 74.425 48.091, 69.979 46.579, 68.120 46.051 L 64.740 45.090 65.375 49.716 M 79.500 55.599 C 65.720 57.700, 66.334 57.418, 66.801 61.420 L 67.207 64.901 71.354 63.270 C 84.951 57.921, 93.188 54.102, 91 54.160 C 89.625 54.197, 84.450 54.845, 79.500 55.599 M 82.500 61.541 C 75.350 64.489, 69.125 67.049, 68.666 67.229 C 68.207 67.409, 68.377 72.051, 69.042 77.545 L 70.253 87.534 79.724 93.837 C 84.933 97.303, 89.380 99.954, 89.606 99.727 C 89.832 99.501, 88.618 96.229, 86.907 92.456 C 85.197 88.683, 83.420 84.605, 82.960 83.394 C 82.201 81.400, 83.478 80.269, 96.558 71.346 C 104.498 65.931, 110.995 61.274, 110.997 60.997 C 111.001 60.315, 98.460 55.977, 96.813 56.090 C 96.091 56.140, 89.650 58.593, 82.500 61.541 M 50.764 59.897 C 44.547 60.872, 39.898 61.193, 39.719 60.658 C 39.550 60.150, 36.844 68.527, 33.706 79.273 L 28 98.811 28 114.745 C 28 123.508, 28.296 139.511, 28.657 150.305 L 29.315 169.933 47.118 152.887 C 56.910 143.512, 66.801 134.173, 69.099 132.134 L 73.277 128.426 70.626 108.963 C 68.275 91.694, 67.724 89.305, 65.738 87.772 C 64.507 86.822, 63.050 86.046, 62.500 86.048 C 61.950 86.050, 55.918 94.156, 49.097 104.062 C 42.275 113.967, 36.282 122.326, 35.780 122.636 C 32.841 124.452, 33.721 120.965, 45.695 83.311 L 49.254 72.123 57.182 68.927 C 62.959 66.598, 64.960 65.338, 64.555 64.284 C 64.250 63.488, 64 61.748, 64 60.418 C 64 59.088, 63.438 58.048, 62.750 58.106 C 62.063 58.165, 56.669 58.970, 50.764 59.897 M 57.370 71.635 C 51.295 74.062, 51.226 74.134, 49.611 79.792 C 48.716 82.931, 45.984 91.755, 43.542 99.400 C 41.099 107.044, 39.472 112.894, 39.926 112.400 C 40.380 111.905, 45.355 104.842, 50.981 96.704 C 61.147 82, 61.225 81.917, 63.570 83.454 C 64.868 84.304, 66.222 85, 66.580 85 C 67.220 85, 66.361 75.646, 65.317 71.250 C 64.683 68.580, 65.068 68.561, 57.370 71.635 M 136.553 83.895 L 125.607 87.632 136.476 89.810 C 142.454 91.008, 147.436 91.879, 147.547 91.744 C 148.264 90.879, 148.986 80.015, 148.322 80.079 C 147.870 80.122, 142.574 81.839, 136.553 83.895 M 150 99.500 C 150 102.167, 150.416 103, 151.750 102.999 C 154.149 102.997, 168.015 100.319, 168.587 99.746 C 169.036 99.298, 153.766 95.998, 151.250 95.999 C 150.488 96, 150 97.367, 150 99.500 M 132.500 109.422 L 121.500 111.621 133.208 117.519 C 139.647 120.763, 145.103 123.211, 145.332 122.959 C 145.561 122.706, 145.962 119.013, 146.224 114.750 C 146.778 105.726, 148.208 106.281, 132.500 109.422 M 94.658 110.218 C 93.313 112.365, 60.756 170.759, 58.054 175.871 C 56.477 178.853, 53.747 180.541, 87.241 157.819 C 102.498 147.469, 115.469 139, 116.064 139 C 118.412 139, 115.885 142.582, 100.181 161.519 C 91.206 172.341, 84.006 181.311, 84.181 181.452 C 84.839 181.982, 162.527 176.757, 163.138 176.142 C 163.801 175.475, 168.325 137.967, 167.799 137.497 C 167.222 136.983, 149.035 128, 148.570 128 C 148.311 128, 147.791 130.725, 147.414 134.055 C 146.978 137.910, 146.320 139.953, 145.603 139.678 C 144.984 139.440, 134.132 132.518, 121.489 124.296 C 108.845 116.074, 97.957 109.029, 97.294 108.641 C 96.587 108.228, 95.497 108.880, 94.658 110.218" stroke="none" fill="black" fill-rule="evenodd"/>
</svg>