<svg xmlns="http://www.w3.org/2000/svg" width="200" height="200" viewBox="0 0 200 200" version="1.1">
	<path d="M 31.750 41.481 L 13 60.871 13.030 69.685 C 13.053 76.205, 15.704 155.003, 15.960 156.776 C 15.982 156.927, 24.887 152.560, 35.750 147.071 C 56.010 136.832, 67.873 130.353, 88 118.534 C 94.325 114.820, 98.704 112.662, 97.731 113.740 C 96.759 114.817, 86.764 124.200, 75.521 134.590 L 55.080 153.481 74.290 166.111 L 93.500 178.741 132.801 178.225 C 160.878 177.857, 171.984 177.394, 171.688 176.605 C 170.178 172.583, 152.930 112.737, 153.202 112.465 C 153.388 112.278, 155.599 111.243, 158.114 110.165 L 162.688 108.205 163.897 98.852 C 164.562 93.709, 168.105 77.238, 171.769 62.250 C 177.391 39.258, 178.711 35, 180.216 35 C 182.518 35, 182.464 34.464, 179.900 31.900 C 178.373 30.373, 177.500 30.100, 176.700 30.900 C 175.424 32.176, 155.966 32.350, 130.410 31.315 L 113.500 30.630 119 29.019 C 122.407 28.022, 124.500 26.855, 124.500 25.954 C 124.500 24.748, 120.914 24.391, 103.500 23.862 C 91.950 23.512, 75.300 22.970, 66.500 22.658 L 50.500 22.092 31.750 41.481 M 33.500 43.680 L 15.500 62.500 16.884 107 C 17.645 131.475, 18.475 151.725, 18.729 152 C 19.550 152.890, 62.486 130.225, 86.215 116.374 C 100.144 108.245, 109.907 103.134, 110.833 103.489 C 112.675 104.196, 115.597 101.254, 84.500 129.998 C 71.300 142.199, 60.500 152.556, 60.500 153.014 C 60.500 153.472, 68.150 158.871, 77.500 165.012 L 94.500 176.178 131 175.480 C 151.075 175.096, 167.630 174.664, 167.788 174.520 C 167.947 174.375, 164.009 160.475, 159.038 143.629 C 154.067 126.784, 150 112.546, 150 111.988 C 150 111.237, 156.266 107.676, 159.726 106.460 C 159.851 106.417, 160.673 101.458, 161.554 95.440 C 162.435 89.423, 165.140 76.625, 167.565 67 C 169.991 57.375, 172.209 48.375, 172.495 47 C 172.781 45.625, 167.905 54.850, 161.659 67.500 C 150.767 89.562, 150.399 90.513, 152.652 90.816 C 153.943 90.990, 155 91.318, 155 91.543 C 155 91.769, 148.962 104.067, 141.582 118.873 C 131.940 138.215, 125.667 149.391, 119.294 158.575 C 111.047 170.462, 108 173.823, 108 171.033 C 108 170.409, 116.515 152.597, 126.922 131.450 C 143.849 97.053, 145.615 92.998, 143.672 92.979 C 142.477 92.967, 131.402 92.303, 119.059 91.503 C 106.717 90.702, 96.525 90.149, 96.409 90.274 C 96.294 90.398, 93.810 95.872, 90.890 102.439 L 85.580 114.378 82.489 101.939 L 79.398 89.500 73.449 88.859 C 70.177 88.506, 64.495 88.168, 60.822 88.109 L 54.144 88 48.845 104 C 45.881 112.953, 43.013 120, 42.335 120 C 41.661 120, 40.881 118.114, 40.579 115.750 C 39.947 110.808, 38 87.948, 38 85.475 C 38 84.023, 38.979 83.842, 45.158 84.147 L 52.317 84.500 57.144 70.069 C 59.799 62.132, 61.775 55.442, 61.536 55.202 C 61.296 54.963, 54.851 58.194, 47.213 62.383 C 39.575 66.572, 33.054 70, 32.722 70 C 32.390 70, 37.645 61.113, 44.400 50.250 L 56.680 30.500 81.090 30.401 C 99.793 30.325, 106.552 29.954, 110 28.815 L 114.500 27.328 100.500 26.673 C 92.800 26.313, 78.625 25.758, 69 25.439 L 51.500 24.860 33.500 43.680 M 58.047 33.500 C 57.354 34.390, 42.559 58.340, 40.492 61.921 C 40.040 62.702, 43.683 61.164, 48.586 58.503 C 64.385 49.928, 64.409 49.907, 66.469 43.102 C 67.487 39.739, 68.586 37.246, 68.910 37.563 C 69.235 37.880, 69.961 39.978, 70.525 42.226 C 71.089 44.474, 72.214 46.680, 73.025 47.128 C 73.836 47.575, 91.600 52.486, 112.500 58.040 C 133.400 63.594, 150.877 68.506, 151.337 68.956 C 153.560 71.129, 148.518 70.686, 129.399 67.028 C 117.968 64.841, 108.524 63.153, 108.412 63.276 C 107.040 64.794, 98.190 86.567, 98.745 87.059 C 99.564 87.786, 146.839 90.543, 147.363 89.895 C 148.222 88.829, 173.986 35.653, 173.755 35.422 C 173.608 35.275, 158.909 34.826, 141.091 34.425 C 105.926 33.632, 108.109 33.287, 112.071 39.024 L 113.814 41.548 130.411 40.111 C 145.670 38.791, 149.426 38.908, 147.685 40.648 C 146.935 41.399, 123.780 43.868, 116.758 43.947 C 112.145 43.999, 111.926 43.863, 108.758 38.986 C 106.966 36.228, 104.600 33.760, 103.500 33.502 C 99.285 32.514, 58.818 32.511, 58.047 33.500 M 67.694 51.250 C 66.766 51.938, 63.578 59.766, 60.610 68.648 L 55.213 84.795 66.160 85.510 C 72.181 85.904, 77.362 85.972, 77.672 85.661 C 78.164 85.169, 70.216 50, 69.612 50 C 69.486 50, 68.623 50.563, 67.694 51.250 M 73.027 51.330 C 73.043 51.973, 74.982 60.150, 77.337 69.500 L 81.618 86.500 88.162 86.792 L 94.705 87.085 99.466 76.292 C 102.084 70.357, 105.017 64.111, 105.983 62.412 L 107.741 59.325 101.121 57.693 C 97.479 56.796, 89.662 54.734, 83.750 53.111 C 76.586 51.144, 73.009 50.550, 73.027 51.330 M 41.437 95.250 C 41.792 99.787, 42.354 105.300, 42.686 107.500 C 43.276 111.410, 43.377 111.242, 47.145 100.033 C 49.265 93.726, 51 88.214, 51 87.783 C 51 87.352, 48.703 87, 45.896 87 L 40.792 87 41.437 95.250 M 84.007 96.532 C 84.975 100.694, 85.979 104.313, 86.239 104.573 C 86.499 104.833, 88.149 101.832, 89.905 97.905 C 91.661 93.977, 92.963 90.653, 92.799 90.518 C 92.634 90.382, 90.193 89.977, 87.374 89.617 L 82.248 88.964 84.007 96.532 M 139.372 112.250 C 126.378 138.201, 119.562 153.030, 122.019 150 C 123.842 147.753, 151 94.843, 151 93.539 C 151 93.243, 150.552 93, 150.005 93 C 149.458 93, 144.673 101.662, 139.372 112.250" stroke="none" fill="black" fill-rule="evenodd"/>
</svg>