<svg xmlns="http://www.w3.org/2000/svg" width="200" height="200" viewBox="0 0 200 200" version="1.1">
	<path d="M 68.187 34.146 C 70.857 46.326, 72.891 56.442, 72.708 56.625 C 72.525 56.809, 67.619 55.064, 61.806 52.749 L 51.238 48.540 50.630 40.520 C 50.296 36.109, 49.727 28.322, 49.365 23.215 C 49.004 18.109, 48.392 14.059, 48.006 14.215 C 47.620 14.372, 39.532 23.050, 30.034 33.500 L 12.764 52.500 13.335 91.500 L 13.906 130.500 24.126 149.250 C 29.746 159.563, 34.719 168, 35.176 168 C 35.632 168, 45.005 161.846, 56.003 154.325 L 76 140.649 76 131.464 C 76 126.412, 76.286 120.191, 76.636 117.640 L 77.272 113 88.577 113 C 94.795 113, 100.082 113.338, 100.326 113.750 C 100.571 114.162, 99.716 122.150, 98.428 131.500 C 95.626 151.823, 95.673 151, 97.318 151 C 98.211 151, 100.181 144.323, 103.437 130.250 C 106.078 118.838, 108.523 109.188, 108.869 108.807 C 109.216 108.426, 114.072 108.821, 119.661 109.685 L 129.821 111.255 126.505 120.378 C 124.682 125.395, 120.183 137.764, 116.509 147.864 C 112.834 157.964, 110.204 166.573, 110.664 166.995 C 112.426 168.611, 147.332 181.061, 147.970 180.301 C 148.339 179.860, 152.534 163.525, 157.292 144 C 165.219 111.471, 168 97.470, 168 90.092 L 168 87.328 152.510 84.454 C 143.991 82.873, 137.353 81.291, 137.760 80.939 C 138.167 80.588, 146.600 79.541, 156.500 78.614 C 181.754 76.248, 184 75.914, 184 74.520 C 184 73.796, 174.807 70.479, 161.500 66.400 C 149.125 62.607, 139 59.227, 139 58.889 C 139 58.550, 145.863 54.091, 154.250 48.980 C 162.637 43.870, 170.289 39.152, 171.253 38.498 C 172.743 37.486, 169.703 35.935, 150.948 28.136 C 138.817 23.091, 128.408 18.859, 127.817 18.732 C 127.188 18.596, 124.090 29.865, 120.333 45.956 C 116.807 61.056, 113.798 73.536, 113.646 73.688 C 113.054 74.279, 97.502 67.238, 97.537 66.395 C 97.724 61.801, 99.316 49, 99.700 49 C 99.970 49, 101.524 49.949, 103.153 51.109 C 107.570 54.254, 107.890 52.496, 103.685 48.189 C 101.658 46.114, 100 43.599, 100 42.601 C 100 41.390, 99.496 40.980, 98.483 41.368 C 97.474 41.755, 91.468 36.938, 80.538 26.975 C 71.502 18.739, 63.935 12, 63.721 12 C 63.508 12, 65.517 21.966, 68.187 34.146 M 68.302 22 C 68.659 23.375, 70.606 32.219, 72.628 41.653 L 76.305 58.806 84.402 62.003 C 88.856 63.762, 92.972 65.394, 93.549 65.630 C 94.196 65.895, 95.085 62.154, 95.869 55.877 C 97.054 46.380, 97.017 45.581, 95.320 43.995 C 90.564 39.551, 71.279 22.323, 69.577 20.997 C 67.773 19.593, 67.694 19.656, 68.302 22 M 30.427 37.250 L 15.670 53.500 15.861 86 C 15.965 103.875, 16.319 121.200, 16.648 124.500 C 17.150 129.551, 18.667 133.158, 26.236 147.301 C 31.380 156.912, 35.755 163.974, 36.460 163.801 C 37.137 163.636, 45.576 158.142, 55.212 151.593 L 72.733 139.686 73.367 132.192 C 73.715 128.070, 74 122.036, 74 118.782 C 74 113.615, 73.778 112.931, 72.250 113.386 C 71.287 113.673, 64.274 115.099, 56.665 116.555 L 42.830 119.203 41.165 116.916 C 40.249 115.658, 38.660 113.349, 37.632 111.784 L 35.765 108.939 54.742 109.620 L 73.719 110.302 74.449 87.253 C 74.946 71.584, 74.840 63.570, 74.120 62.224 C 73.169 60.446, 52.403 51.121, 51.629 52.124 C 51.469 52.331, 51.696 57.443, 52.134 63.485 C 52.621 70.207, 52.561 74.839, 51.981 75.419 C 51.460 75.940, 50.840 76.172, 50.604 75.933 C 49.281 74.598, 29.874 40.793, 30.227 40.439 C 30.461 40.206, 34.442 41.546, 39.076 43.418 C 43.709 45.289, 47.637 46.686, 47.805 46.522 C 48.469 45.872, 46.658 21, 45.946 21 C 45.526 21, 38.543 28.313, 30.427 37.250 M 128.497 23.227 C 128.051 24.469, 117.545 69.679, 116.850 73.349 C 116.585 74.752, 117.641 75.651, 121.229 77.074 C 125.903 78.928, 126.238 78.921, 150.134 76.486 C 163.431 75.131, 174.449 73.884, 174.618 73.715 C 174.788 73.546, 165.605 70.558, 154.213 67.076 C 142.821 63.593, 133.142 60.421, 132.705 60.026 C 132.267 59.632, 139.580 54.669, 148.955 48.998 C 158.330 43.327, 166 38.404, 166 38.057 C 166 37.533, 155.333 32.871, 132.727 23.516 C 129.757 22.286, 128.857 22.225, 128.497 23.227 M 36 45.618 C 36 46.056, 48.769 67.975, 49.511 68.810 C 49.662 68.980, 49.557 65.155, 49.277 60.310 C 48.997 55.464, 48.257 51.011, 47.634 50.413 C 46.291 49.125, 36 44.883, 36 45.618 M 77.142 86.263 C 76.845 106.202, 77.016 110.209, 78.142 109.780 C 78.889 109.496, 82.835 108.669, 86.910 107.943 C 94.869 106.525, 94.578 105.661, 85.750 104.501 C 82.573 104.084, 81 103.401, 81 102.439 C 81 101.371, 82.352 100.998, 86.250 100.994 C 89.138 100.991, 95.172 100.702, 99.659 100.353 L 107.819 99.718 109.999 90.282 C 111.198 85.092, 112.027 80.699, 111.840 80.518 C 111.653 80.338, 107.450 79.135, 102.500 77.845 L 93.500 75.500 93.827 72.231 C 94.182 68.687, 94.551 68.945, 82.200 64.080 L 77.500 62.229 77.142 86.263 M 96.581 71.650 C 96.253 72.505, 96.920 73.399, 98.269 73.911 C 101.269 75.049, 112.071 77.263, 112.505 76.828 C 112.696 76.638, 109.313 75.077, 104.987 73.359 C 98.642 70.840, 97.018 70.510, 96.581 71.650 M 114.605 82.777 C 113.678 85.895, 111 98.101, 111 99.207 C 111 99.950, 114.148 100.117, 120.999 99.740 C 127.022 99.408, 131.238 99.575, 131.599 100.161 C 132.521 101.652, 131.971 101.873, 122.414 103.855 C 112.640 105.882, 112.338 105.570, 126.413 107.980 C 129.665 108.537, 132.530 109.197, 132.780 109.446 C 133.029 109.696, 128.934 121.735, 123.678 136.200 C 118.423 150.665, 113.983 163.130, 113.811 163.899 C 113.594 164.874, 118.424 167.180, 129.749 171.509 L 145.998 177.720 146.974 174.096 C 147.511 172.103, 151.367 156.529, 155.543 139.486 C 163.149 108.452, 166.163 91.678, 164.415 90.109 C 163.479 89.268, 128.283 82.542, 119.809 81.585 C 115.948 81.148, 115.027 81.359, 114.605 82.777 M 100.264 103.718 C 101.784 103.947, 104.034 103.941, 105.264 103.704 C 106.494 103.467, 105.250 103.279, 102.500 103.286 C 99.750 103.294, 98.744 103.488, 100.264 103.718 M 98.319 108.362 C 90.884 109.995, 90.716 111, 97.879 111 L 104.091 111 103.587 114.750 C 103.205 117.592, 103.399 117.289, 104.389 113.500 C 105.659 108.634, 105.605 106.883, 104.191 107.112 C 103.811 107.174, 101.169 107.736, 98.319 108.362 M 42.546 113.991 C 44.380 115.825, 45.048 115.894, 51.019 114.867 C 61.563 113.053, 61.392 112.064, 50.528 112.030 C 40.571 112, 40.559 112.003, 42.546 113.991" stroke="none" fill="black" fill-rule="evenodd"/>
</svg>