<svg xmlns="http://www.w3.org/2000/svg" width="200" height="200" viewBox="0 0 200 200" version="1.1">
	<path d="M 112.500 21 C 79.500 23.056, 52.500 24.868, 52.500 25.026 C 52.500 25.184, 44.454 25.806, 34.619 26.407 L 16.738 27.500 16.998 83 C 17.142 113.525, 17.538 144.840, 17.879 152.589 L 18.500 166.678 41 161.895 C 53.375 159.264, 64.086 156.748, 64.802 156.305 C 65.518 155.862, 70.517 145.298, 75.910 132.829 C 82.096 118.524, 87.336 107.941, 90.108 104.152 C 94.997 97.467, 93.943 97.858, 115.155 94.853 C 124.355 93.550, 132 94.672, 132 97.326 C 132 98.011, 130.121 100.016, 127.824 101.782 L 123.648 104.991 109.074 104.412 C 101.058 104.093, 93.968 103.671, 93.317 103.473 C 92.666 103.276, 91.900 104.326, 91.613 105.807 C 90.285 112.674, 83.765 166.098, 84.201 166.535 C 84.472 166.806, 93.876 168.817, 105.097 171.004 C 125.261 174.935, 125.771 174.981, 148.645 174.991 L 171.789 175 172.460 159.750 C 172.829 151.363, 172.989 135.297, 172.815 124.048 L 172.500 103.597 158.751 100.048 C 151.190 98.097, 145.115 96.197, 145.251 95.826 C 145.388 95.455, 154.500 87.404, 165.500 77.936 C 176.500 68.467, 185.636 60.374, 185.803 59.952 C 187.092 56.681, 181.282 60.472, 161.129 76.049 C 148.357 85.922, 137.504 94, 137.010 94 C 136.517 94, 139.462 84.054, 143.556 71.899 C 147.650 59.743, 151 49.618, 151 49.399 C 151 48.813, 143.643 48.923, 134.331 49.648 L 126.161 50.284 109.654 72.907 L 93.148 95.530 74.033 98.391 C 63.520 99.964, 54.665 100.998, 54.355 100.688 C 53.635 99.969, 46.968 67.699, 47.441 67.226 C 47.635 67.031, 48.785 69.849, 49.996 73.487 C 53.760 84.800, 54.472 81.933, 54.767 54.279 C 55.074 25.498, 54.011 28.039, 65.750 28.014 C 69.241 28.006, 72 27.559, 72 27 C 72 26.450, 73.366 26, 75.037 26 L 78.073 26 77.378 60.500 C 76.783 90.022, 76.888 95, 78.108 95 C 78.972 95, 84.161 85.646, 91.283 71.250 C 102.533 48.509, 103.076 47.119, 104.072 38.528 C 104.644 33.593, 105.320 29.347, 105.575 29.092 C 105.917 28.749, 171.729 20.321, 176.219 20.044 C 176.614 20.020, 176.678 19.325, 176.362 18.500 C 176.045 17.675, 175.047 17.059, 174.143 17.131 C 173.239 17.203, 145.500 18.944, 112.500 21 M 119.762 23.707 C 121.006 23.946, 122.806 23.937, 123.762 23.687 C 124.718 23.437, 123.700 23.241, 121.500 23.252 C 119.300 23.263, 118.518 23.468, 119.762 23.707 M 91.329 24.925 C 86.284 25.241, 81.846 25.813, 81.465 26.197 C 81.085 26.580, 80.585 40.530, 80.355 57.197 L 79.937 87.500 89.963 67.771 C 99.975 48.069, 99.991 48.027, 101.245 37.271 L 102.500 26.500 110 25.367 L 117.500 24.233 109 24.292 C 104.325 24.324, 96.373 24.609, 91.329 24.925 M 23.234 29.733 L 18.968 30.117 19.526 91.308 C 20.090 153.209, 20.432 163, 22.026 163 C 22.756 163, 54.479 156.212, 61.613 154.529 C 63.279 154.136, 65.714 149.426, 73.113 132.285 C 78.276 120.325, 84.185 108.056, 86.245 105.020 C 88.305 101.984, 89.603 99.370, 89.131 99.212 C 88.048 98.849, 55.802 103.864, 55.173 104.494 C 54.917 104.750, 55.930 111.087, 57.424 118.576 C 58.919 126.065, 59.923 132.410, 59.657 132.677 C 59.390 132.943, 51.684 127.169, 42.531 119.845 C 29.262 109.226, 26.256 106.384, 27.695 105.815 C 28.688 105.423, 34.198 104.393, 39.940 103.527 C 45.683 102.661, 50.529 101.805, 50.709 101.624 C 50.890 101.443, 48.386 88.171, 45.145 72.129 C 39.903 46.189, 39.181 39.848, 41.763 42.429 C 42.109 42.775, 44.525 49.233, 47.132 56.779 L 51.871 70.500 51.936 49.750 L 52 29 39.750 29.175 C 33.013 29.271, 25.580 29.522, 23.234 29.733 M 130.345 52.882 C 127.630 53.414, 125.103 56.355, 112.195 74 C 103.947 85.275, 97.266 94.554, 97.349 94.620 C 97.432 94.686, 103.125 93.865, 110 92.796 C 120.434 91.174, 123.380 91.045, 127.828 92.016 C 130.758 92.655, 133.269 93.026, 133.407 92.839 C 133.827 92.274, 147 53.308, 147 52.630 C 147 51.851, 134.650 52.038, 130.345 52.882 M 137 102.500 L 133.608 106 144.054 106.070 C 149.799 106.109, 155.236 106.446, 156.135 106.820 C 157.542 107.405, 156.151 111.926, 146.154 139.250 C 139.765 156.713, 134.304 170.992, 134.019 170.983 C 133.396 170.963, 110 117.712, 110 116.315 C 110 115.778, 112.061 113.859, 114.580 112.050 C 117.099 110.241, 118.787 108.407, 118.330 107.974 C 117.874 107.542, 112.278 107.032, 105.895 106.841 L 94.290 106.495 90.514 135.284 C 88.438 151.117, 86.910 164.224, 87.119 164.410 C 87.329 164.596, 95.825 166.357, 106 168.325 C 123.425 171.694, 125.807 171.915, 147 172.128 L 169.500 172.354 169.500 139.030 L 169.500 105.705 157 102.386 C 150.125 100.560, 143.576 99.051, 142.446 99.033 C 141.317 99.015, 138.866 100.575, 137 102.500 M 39.720 106.312 C 35.992 106.868, 33.072 107.715, 33.231 108.194 C 33.606 109.318, 55.374 126.960, 55.827 126.507 C 56.015 126.318, 55.231 121.564, 54.085 115.943 C 52.938 110.321, 52 105.559, 52 105.361 C 52 104.818, 47.295 105.183, 39.720 106.312 M 118.840 112.159 C 115.903 114.447, 113.346 116.438, 113.158 116.584 C 112.970 116.731, 117.470 127.437, 123.157 140.376 C 128.845 153.315, 133.783 163.586, 134.131 163.201 C 134.655 162.620, 154 110.406, 154 109.572 C 154 109.425, 148.765 109.006, 142.367 108.640 C 134.262 108.178, 130.319 108.320, 129.367 109.110 C 128.363 109.943, 128 109.947, 128 109.122 C 128 106.811, 124.006 108.135, 118.840 112.159" stroke="none" fill="black" fill-rule="evenodd"/>
</svg>