<svg xmlns="http://www.w3.org/2000/svg" width="200" height="200" viewBox="0 0 200 200" version="1.1">
	<path d="M 42.426 12.332 C 42.145 13.064, 39.549 22.909, 36.658 34.208 L 31.400 54.752 33.595 64.598 L 35.790 74.445 25.246 104.740 C 19.447 121.402, 14.924 135.257, 15.196 135.529 C 15.467 135.801, 20.269 133.993, 25.865 131.512 C 31.462 129.030, 36.396 127, 36.830 127 C 37.264 127, 38.885 140.612, 40.431 157.250 C 41.978 173.887, 43.531 189.260, 43.884 191.410 C 44.503 195.189, 44.943 194.404, 56.920 168.174 L 69.316 141.028 68.636 119.049 L 67.956 97.070 78.113 103.067 C 83.699 106.365, 88.475 108.858, 88.726 108.607 C 88.977 108.356, 84.415 97.429, 78.587 84.325 C 69.204 63.225, 66.164 55.554, 68.888 59.853 C 69.589 60.959, 70.176 60.976, 72.103 59.945 C 74.339 58.748, 74.962 59.217, 84.203 69.065 L 93.946 79.447 91.473 82.028 C 90.113 83.448, 89 84.935, 89 85.332 C 89 85.730, 94.875 94.599, 102.055 105.042 L 115.110 124.029 101.072 148.977 C 92.652 163.941, 87.270 174.541, 87.624 175.463 C 87.982 176.395, 89.452 177, 91.357 176.999 C 101.031 176.997, 183.327 167.007, 184.661 165.672 C 184.950 165.384, 179.052 157.629, 171.554 148.439 C 164.057 139.249, 158.053 131.419, 158.212 131.039 C 170.195 102.308, 178.103 81.725, 177.400 81.099 C 176.905 80.658, 168.260 77.022, 158.188 73.018 L 139.877 65.738 162.938 55.120 C 175.622 49.281, 186 44.276, 186 44 C 186 43.723, 176.437 41.346, 164.750 38.717 C 134.266 31.860, 134.866 31.816, 107.044 42.982 C 92.891 48.662, 84.265 51.632, 83.581 51.059 C 82.987 50.560, 78.911 42.918, 74.525 34.076 C 67.006 18.919, 64 14.988, 64 20.314 C 64 21.586, 64.674 27.737, 65.498 33.983 C 66.321 40.228, 66.836 45.497, 66.642 45.691 C 66.448 45.885, 61.022 40.430, 54.585 33.569 L 42.880 21.094 43.934 17.297 C 44.514 15.209, 44.991 12.938, 44.994 12.250 C 45.002 10.585, 43.073 10.647, 42.426 12.332 M 41.626 26 C 41.320 26.825, 39.526 33.699, 37.640 41.275 L 34.211 55.050 36.430 64.898 L 38.649 74.746 28.892 102.607 C 23.525 117.930, 19.322 130.655, 19.551 130.885 C 19.781 131.114, 24.363 129.256, 29.734 126.756 C 35.105 124.256, 39.584 122.285, 39.688 122.377 C 39.791 122.468, 41.042 135.133, 42.468 150.521 C 43.894 165.909, 45.392 179.816, 45.796 181.423 C 46.455 184.045, 47.551 182.114, 56.413 162.716 L 66.295 141.085 65.767 117.043 C 65.476 103.819, 65.522 93.001, 65.869 93.003 C 66.216 93.004, 69.111 94.580, 72.303 96.504 C 75.494 98.429, 79.405 100.675, 80.995 101.497 L 83.884 102.991 79.777 93.746 C 77.518 88.661, 72.868 78.200, 69.444 70.500 C 63.267 56.612, 63.237 56.497, 65.609 56.184 C 70.469 55.540, 68.391 51.956, 55.070 38 C 46.028 28.527, 42.017 24.947, 41.626 26 M 68.642 36.750 C 69.349 42.112, 69.944 47.253, 69.964 48.173 C 69.984 49.094, 71.148 51.211, 72.551 52.878 C 74.865 55.628, 75.354 55.803, 77.801 54.753 C 79.286 54.116, 80.640 53.509, 80.810 53.404 C 81.171 53.182, 68.142 27, 67.671 27 C 67.498 27, 67.935 31.387, 68.642 36.750 M 107.250 45.781 C 95.563 50.506, 86 54.805, 86 55.334 C 86 55.934, 93.139 56.093, 105 55.757 C 115.450 55.461, 124 55.536, 124 55.924 C 124 56.312, 118.207 61.775, 111.127 68.064 L 98.253 79.500 101.224 83.267 C 102.858 85.339, 104.939 87.412, 105.847 87.874 C 106.756 88.336, 116.612 91.113, 127.750 94.045 C 138.887 96.977, 148 99.644, 148 99.972 C 148 100.299, 141.137 104.277, 132.750 108.810 C 124.362 113.344, 116.890 117.434, 116.145 117.901 C 115.028 118.599, 115.091 119.209, 116.502 121.363 C 118.212 123.973, 118.193 124.015, 104.109 149.157 C 96.352 163.006, 90.116 174.413, 90.252 174.505 C 91.505 175.350, 178.635 164.698, 179.773 163.560 C 179.999 163.334, 176.183 158.278, 171.294 152.325 C 166.405 146.371, 160.711 139.395, 158.641 136.822 L 154.877 132.144 164.824 107.822 C 170.294 94.445, 174.626 83.252, 174.450 82.950 C 174.273 82.647, 165.103 78.822, 154.072 74.450 C 143.040 70.077, 134.011 66.246, 134.007 65.935 C 134.003 65.625, 139.287 62.962, 145.750 60.017 C 152.213 57.073, 162.225 52.436, 168 49.714 L 178.500 44.764 162 40.902 C 149.301 37.930, 143.542 37.057, 137 37.114 C 128.713 37.187, 127.967 37.404, 107.250 45.781 M 92.750 58.735 C 90.138 58.941, 88 59.320, 88 59.577 C 88 60.085, 96.018 76.264, 96.570 76.870 C 96.840 77.167, 104.049 70.948, 117.450 58.857 C 118.366 58.031, 102.666 57.953, 92.750 58.735 M 84.613 65.500 C 87.771 69.075, 90.496 72, 90.668 72 C 90.840 72, 89.539 69.075, 87.776 65.500 C 84.951 59.770, 84.233 59, 81.721 59 C 78.884 59, 78.898 59.030, 84.613 65.500 M 93.691 83.789 C 92.118 85.527, 92.545 86.381, 101.554 99.553 C 106.794 107.213, 111.579 113.935, 112.189 114.490 C 113.351 115.549, 97.412 84.071, 96.105 82.726 C 95.691 82.301, 94.605 82.779, 93.691 83.789 M 109.606 102.250 C 112.698 108.438, 115.436 113.721, 115.690 113.992 C 116.228 114.567, 140.973 101.781, 140.989 100.920 C 140.999 100.398, 106.566 90.965, 104.742 90.990 C 104.325 90.995, 106.514 96.063, 109.606 102.250" stroke="none" fill="black" fill-rule="evenodd"/>
</svg>