<svg xmlns="http://www.w3.org/2000/svg" width="200" height="200" viewBox="0 0 200 200" version="1.1">
	<path d="M 110.559 17.113 C 108.991 18.976, 102.235 26.210, 95.545 33.189 L 83.381 45.878 57.543 47.920 C 43.332 49.043, 31.502 50.165, 31.253 50.414 C 29.797 51.870, 33.523 52.992, 46.454 54.993 C 54.424 56.226, 61.745 56.912, 62.722 56.517 C 64.351 55.860, 64.325 55.732, 62.412 54.992 C 61.264 54.548, 57.664 53.862, 54.412 53.467 C 51.160 53.073, 48.050 52.471, 47.500 52.130 C 46.950 51.788, 53.250 50.994, 61.500 50.364 C 69.750 49.734, 76.653 49.360, 76.841 49.533 C 77.309 49.966, 85.985 82.238, 85.993 83.577 C 85.998 84.280, 78.100 85.071, 63.250 85.855 C 40.691 87.046, 27.100 89.200, 26.261 91.718 C 25.786 93.142, 31.701 93.769, 53.250 94.582 C 62.463 94.929, 70 95.432, 70 95.700 C 70 95.969, 65.866 104.133, 60.812 113.844 L 51.625 131.500 33.332 150.436 C 23.271 160.852, 15.219 169.552, 15.438 169.772 C 15.657 169.991, 22.347 168.273, 30.304 165.955 L 44.770 161.740 62.129 146.414 C 71.677 137.985, 79.773 131.406, 80.121 131.794 C 80.470 132.182, 81.443 138.084, 82.284 144.910 L 83.814 157.319 94.619 173.268 C 103.277 186.046, 105.575 188.847, 106.181 187.358 C 106.597 186.336, 108.783 176.500, 111.038 165.500 L 115.139 145.500 114.451 125.500 C 114.072 114.500, 114.007 105.729, 114.306 106.008 C 114.605 106.288, 116.686 111.238, 118.931 117.008 C 122.530 126.262, 124.771 129.897, 137.922 147.811 C 146.123 158.983, 153.137 168.156, 153.510 168.197 C 154.750 168.331, 188.043 144.879, 187.609 144.176 C 187.374 143.796, 178.143 139.214, 167.096 133.993 L 147.010 124.500 132.268 109.750 L 117.525 95 137.513 94.900 C 148.506 94.845, 158.421 94.508, 159.548 94.150 C 160.674 93.793, 165.596 89.058, 170.485 83.629 C 181.021 71.932, 182.162 72.085, 154.169 81.443 L 135.434 87.707 121.675 77.696 C 114.108 72.189, 108.272 67.375, 108.708 66.997 C 109.144 66.620, 117.825 63.692, 128 60.490 L 146.500 54.670 155.253 47.138 C 161.095 42.112, 163.673 39.273, 163.005 38.605 C 162.337 37.937, 155.307 39.688, 141.868 43.868 C 130.793 47.313, 121.409 49.764, 121.016 49.316 C 120.622 48.867, 119.072 41.750, 117.572 33.500 C 116.072 25.250, 114.521 17.426, 114.126 16.113 L 113.409 13.726 110.559 17.113 M 98 34.569 C 88.660 44.463, 83.807 48.890, 82.250 48.935 C 81.013 48.971, 80 49.112, 80.001 49.250 C 80.001 49.388, 82.223 57.815, 84.939 67.978 C 87.655 78.141, 89.717 86.616, 89.521 86.813 C 89.324 87.009, 77.989 87.796, 64.332 88.562 C 50.674 89.328, 39.050 90.033, 38.500 90.130 C 36.032 90.562, 51.509 91.779, 61 91.898 C 66.775 91.971, 72.122 92.425, 72.883 92.906 C 73.977 93.599, 72.130 97.920, 64.018 113.641 L 53.771 133.500 38.135 149.349 C 29.536 158.066, 23.400 164.962, 24.500 164.673 C 25.600 164.385, 30.421 162.981, 35.213 161.554 L 43.925 158.959 62.508 142.479 C 72.729 133.416, 81.450 126, 81.888 126 C 82.326 126, 83.466 132.637, 84.421 140.750 L 86.158 155.500 95.315 169.292 L 104.472 183.084 107.793 167.792 C 111.810 149.299, 112.500 138.336, 111.171 114.107 C 110.417 100.364, 110.455 95.244, 111.321 93.857 C 112.397 92.134, 114.183 91.998, 135.991 91.977 L 159.500 91.953 164.750 86.055 C 167.637 82.811, 170 79.929, 170 79.651 C 170 79.374, 162.158 81.769, 152.574 84.975 L 135.149 90.804 118.583 78.792 C 109.472 72.186, 102.234 66.430, 102.499 66.001 C 102.764 65.572, 104.223 64.918, 105.741 64.546 C 107.258 64.174, 116.827 61.208, 127.005 57.955 C 143.828 52.577, 145.964 51.633, 150.505 47.565 C 153.252 45.103, 155.050 43.075, 154.500 43.058 C 153.950 43.040, 145.850 45.458, 136.500 48.431 C 127.150 51.403, 119.220 53.535, 118.877 53.168 C 118.535 52.801, 117.016 45.750, 115.503 37.500 C 113.990 29.250, 112.471 21.998, 112.126 21.384 C 111.766 20.741, 105.770 26.337, 98 34.569 M 119.353 110.571 C 125.394 125.879, 126.139 127.183, 138.450 144 C 145.496 153.625, 151.930 162.268, 152.747 163.208 C 154.123 164.788, 155.109 164.314, 166.024 156.819 C 172.509 152.366, 178.979 147.772, 180.400 146.611 L 182.986 144.500 164.743 136 L 146.500 127.500 129.783 111.071 L 113.066 94.643 119.353 110.571" stroke="none" fill="black" fill-rule="evenodd"/>
</svg>