<svg xmlns="http://www.w3.org/2000/svg" width="200" height="200" viewBox="0 0 200 200" version="1.1">
	<path d="M 124.062 17.314 L 122.968 20.627 100.383 24.978 L 77.798 29.330 71.380 26.165 C 67.850 24.424, 64.521 23, 63.981 23 C 61.655 23, 63.345 25.118, 67.713 27.678 L 72.426 30.440 48.728 35.038 C 35.695 37.567, 24.841 39.831, 24.608 40.068 C 24.376 40.306, 24.044 47.857, 23.871 56.849 L 23.555 73.198 53.846 89.231 C 72.519 99.115, 84.493 104.907, 85.066 104.334 C 85.640 103.760, 80.087 96.327, 70.589 84.952 C 58.093 69.985, 55.496 66.360, 56.841 65.757 C 57.754 65.348, 68.690 60.586, 81.143 55.173 C 102.993 45.677, 103.887 45.384, 106.643 46.798 C 108.215 47.604, 109.612 48.354, 109.748 48.464 C 109.885 48.574, 107.523 54.176, 104.498 60.914 C 101.474 67.651, 99.009 73.914, 99.020 74.832 C 99.031 75.749, 100.952 82.514, 103.289 89.865 L 107.538 103.229 123.902 89.581 C 132.903 82.075, 140.539 76.206, 140.873 76.539 C 141.289 76.956, 144.777 116.728, 144.516 118.084 C 144.507 118.130, 128.300 118.533, 108.500 118.979 C 75.027 119.734, 46.910 121.979, 47.043 123.886 C 47.067 124.224, 53.132 129.422, 60.522 135.438 C 67.911 141.454, 73.706 146.627, 73.400 146.933 C 73.093 147.240, 70.965 148.393, 68.671 149.495 C 65.573 150.984, 64.448 152.143, 64.298 154 C 64.187 155.375, 63.813 160.809, 63.468 166.076 L 62.839 175.653 49.420 177.456 C 40.572 178.645, 36 179.672, 36 180.470 C 36 183.035, 108.451 183.752, 155.693 181.654 C 170.650 180.990, 183.212 180.121, 183.610 179.723 C 184.008 179.325, 184.006 178.673, 183.607 178.273 C 182.961 177.628, 135.182 172.174, 129.084 172.049 C 126.636 171.999, 128.459 170.086, 146.457 153.811 L 150.413 150.233 143.184 146.593 C 136.366 143.159, 136.022 142.826, 137.129 140.726 C 141.012 133.367, 147.459 125.832, 160.190 113.776 L 174.578 100.152 176.892 66.826 C 178.166 48.497, 179.273 31.966, 179.354 30.090 C 179.499 26.709, 179.403 26.631, 168 20.905 C 161.675 17.729, 155.150 15.119, 153.500 15.105 C 151.850 15.090, 146.450 15.926, 141.500 16.962 L 132.500 18.846 129.317 16.423 C 127.566 15.090, 125.913 14, 125.644 14 C 125.375 14, 124.663 15.491, 124.062 17.314 M 145.221 18.964 C 140.667 19.933, 136.713 20.954, 136.433 21.234 C 136.153 21.514, 141.566 25.949, 148.462 31.091 C 155.358 36.232, 161 40.764, 161 41.160 C 161 43.517, 157.983 41.785, 145.662 32.354 C 132.501 22.280, 131.763 21.864, 128.131 22.478 C 124.382 23.111, 124.281 23.252, 119.040 35.096 C 116.125 41.683, 113.911 47.231, 114.120 47.424 C 114.329 47.617, 122.247 51.645, 131.715 56.376 L 148.931 64.976 141.965 53.651 C 135.201 42.652, 134.024 40, 135.906 40 C 136.958 40, 155.418 69.916, 154.767 70.566 C 154.528 70.805, 145.004 66.229, 133.603 60.397 C 122.202 54.565, 112.697 49.969, 112.482 50.185 C 111.478 51.189, 102 73.401, 102 74.750 C 102 76.751, 107.983 96.279, 108.893 97.247 C 109.279 97.658, 117.223 91.635, 126.547 83.863 L 143.500 69.731 143.800 73.115 C 144.850 84.939, 147.638 120.538, 147.529 120.718 C 147.456 120.838, 129.420 121.389, 107.448 121.943 C 84.517 122.520, 64.362 123.492, 60.133 124.224 L 52.767 125.500 65.967 136.366 C 73.227 142.343, 78.792 147.599, 78.334 148.046 C 77.875 148.494, 75.250 149.736, 72.500 150.807 L 67.500 152.755 66.867 159.127 C 66.519 162.632, 66.181 168.285, 66.117 171.689 L 66 177.877 61.250 178.689 C 53.161 180.070, 110.105 180.605, 137.500 179.405 C 151.250 178.802, 161.980 178.240, 161.344 178.155 C 160.708 178.070, 151.491 177.070, 140.861 175.934 C 130.231 174.797, 121.428 173.762, 121.299 173.632 C 121.170 173.503, 126.450 168.499, 133.032 162.512 C 139.614 156.526, 145 151.312, 145 150.926 C 145 150.541, 142.056 148.974, 138.458 147.444 C 134.599 145.805, 132.101 144.178, 132.370 143.479 C 132.620 142.828, 134.923 138.966, 137.488 134.897 C 140.689 129.821, 146.834 122.950, 157.071 113 L 171.991 98.500 174.459 63.547 C 175.816 44.322, 176.831 28.511, 176.713 28.411 C 176.152 27.931, 153.999 17.013, 153.767 17.102 C 153.620 17.158, 149.774 17.996, 145.221 18.964 M 103.500 27.076 C 95.800 28.632, 87.782 30.263, 85.683 30.702 L 81.867 31.500 96.481 38.770 L 111.096 46.039 114.638 38.270 C 121.081 24.136, 121.130 23.983, 119.199 24.124 C 118.265 24.192, 111.200 25.521, 103.500 27.076 M 49.601 37.598 C 37.556 40, 27.600 42.085, 27.477 42.232 C 27.353 42.380, 26.952 49.025, 26.587 57 L 25.923 71.500 51.712 85.115 C 65.895 92.603, 77.652 98.600, 77.838 98.443 C 78.024 98.286, 72.067 90.841, 64.600 81.900 C 57.133 72.959, 51.170 65.497, 51.348 65.319 C 51.527 65.140, 61.929 60.543, 74.465 55.102 L 97.258 45.210 86.933 39.105 C 80.907 35.542, 75.544 33.048, 74.054 33.115 C 72.649 33.178, 61.645 35.196, 49.601 37.598" stroke="none" fill="black" fill-rule="evenodd"/>
</svg>