<svg xmlns="http://www.w3.org/2000/svg" width="200" height="200" viewBox="0 0 200 200" version="1.1">
	<path d="M 124 20.701 L 95.500 26.200 84.500 23.499 C 78.450 22.014, 72.996 20.601, 72.381 20.360 C 71.765 20.118, 68.436 24.694, 64.983 30.529 L 58.704 41.138 58.525 81.819 L 58.347 122.500 50.276 142.500 C 45.838 153.500, 40.125 167.193, 37.581 172.928 C 34.731 179.356, 33.313 183.713, 33.886 184.286 C 34.459 184.859, 41.672 179.657, 52.688 170.725 C 62.518 162.756, 71.070 155.619, 71.692 154.867 C 72.315 154.115, 75.624 146.075, 79.046 137 C 82.468 127.925, 85.567 120.163, 85.932 119.751 C 86.593 119.007, 123.970 114.571, 124.442 115.181 C 126.138 117.367, 140.148 143.185, 139.818 143.515 C 139.571 143.762, 132.423 146.060, 123.934 148.620 C 115.445 151.181, 108.336 153.416, 108.135 153.586 C 107.312 154.286, 129.382 179, 130.830 179 C 131.694 179, 139.676 177.563, 148.568 175.807 L 164.735 172.614 165.483 164.057 C 165.895 159.351, 166.374 134.125, 166.548 108 C 166.721 81.875, 167.160 57.941, 167.522 54.813 C 168.106 49.779, 167.637 47.404, 163.433 34.102 C 160.822 25.838, 158.340 19.290, 157.919 19.550 C 157.497 19.811, 150.953 28.794, 143.377 39.512 C 135.801 50.230, 129.196 59, 128.701 59 C 128.205 59, 119.407 53.763, 109.150 47.362 C 98.892 40.961, 89.938 35.711, 89.250 35.695 C 88.563 35.680, 88 34.606, 88 33.309 C 88 31.659, 88.826 30.633, 90.750 29.894 C 92.965 29.042, 95.698 29.420, 104.788 31.834 L 116.075 34.831 132.521 28.166 C 141.618 24.478, 148.974 20.930, 148.983 20.225 C 148.992 19.524, 150.350 18.680, 152 18.350 C 154.842 17.782, 156.401 14.886, 153.750 15.101 C 153.063 15.157, 139.675 17.677, 124 20.701 M 121.750 23.837 C 111.438 25.810, 103 27.692, 103 28.020 C 103 28.348, 106.006 29.336, 109.680 30.215 L 116.361 31.813 126.930 27.474 C 143.022 20.867, 144.724 20.069, 142.500 20.165 C 141.400 20.212, 132.063 21.865, 121.750 23.837 M 66.531 33.319 L 60.838 42.859 61.479 65.679 C 61.831 78.231, 61.698 96.825, 61.183 107 L 60.247 125.500 50.763 148.500 C 45.547 161.150, 40.512 173.243, 39.575 175.373 L 37.870 179.247 40.839 176.873 C 42.472 175.568, 49.664 169.775, 56.821 164 L 69.833 153.500 76.537 135.864 C 80.225 126.164, 83.525 117.796, 83.871 117.268 C 84.217 116.740, 90.575 115.607, 98 114.749 L 111.500 113.191 101.041 113.345 L 90.583 113.500 87.306 99 C 84.054 84.608, 84.038 84.408, 85.151 72.144 C 86.031 62.457, 86.008 59.623, 85.044 59.027 C 83.759 58.233, 84.364 40.306, 85.980 31.261 C 86.736 27.033, 86.728 27.019, 83.119 26.002 C 81.128 25.441, 77.863 24.712, 75.862 24.381 L 72.223 23.780 66.531 33.319 M 140.041 49.010 C 130.492 62.480, 120.051 77.170, 116.839 81.656 C 113.628 86.141, 111 90.075, 111 90.396 C 111 90.718, 117.987 95.645, 126.526 101.345 L 142.053 111.708 134.835 112.379 C 130.865 112.748, 127.428 113.239, 127.196 113.470 C 126.965 113.702, 130.651 120.653, 135.388 128.919 C 140.124 137.184, 144 144.314, 144 144.765 C 144 145.215, 137.363 147.528, 129.250 149.904 C 121.138 152.280, 114.138 154.558, 113.695 154.967 C 112.600 155.978, 129.852 176, 131.818 176 C 132.680 176, 139.650 174.769, 147.307 173.264 C 160.090 170.751, 161.308 170.322, 162.198 168.014 C 162.749 166.585, 163.515 140.023, 163.973 106.500 L 164.778 47.500 161.090 36.010 L 157.402 24.520 140.041 49.010 M 90.537 45.693 C 90.195 48.887, 89.688 52.971, 89.409 54.768 L 88.903 58.036 102.635 64.546 L 116.368 71.056 120.684 66.820 C 123.058 64.490, 125 62.100, 125 61.508 C 125 60.657, 95.177 41.414, 91.965 40.193 C 91.521 40.024, 90.879 42.499, 90.537 45.693 M 88.613 65.784 C 86.723 81.548, 86.782 83.469, 89.556 96.550 C 91.066 103.673, 92.602 109.845, 92.968 110.266 C 93.334 110.688, 102.719 110.729, 113.824 110.358 L 134.014 109.684 121.257 101.217 C 114.241 96.561, 108.102 92.387, 107.616 91.942 C 107.123 91.490, 108.256 89.006, 110.183 86.316 C 119.665 73.079, 121.256 70.628, 119.215 72.393 C 117.057 74.259, 116.941 74.247, 110.764 71.501 C 107.319 69.969, 101.053 66.995, 96.839 64.892 L 89.178 61.067 88.613 65.784" stroke="none" fill="black" fill-rule="evenodd"/>
</svg>