<svg xmlns="http://www.w3.org/2000/svg" width="200" height="200" viewBox="0 0 200 200" version="1.1">
	<path d="M 115 27.045 L 104.500 29.949 60.897 29.975 L 17.295 30 23.238 49.750 C 26.506 60.612, 29.194 70.400, 29.210 71.500 C 29.236 73.241, 17.657 130.842, 16.428 135.087 C 16.162 136.006, 19.741 141.918, 24.943 149.150 L 33.918 161.626 44.709 160.361 C 50.644 159.665, 56.063 159.074, 56.750 159.048 C 57.720 159.011, 58.020 152.107, 58.091 128.250 L 58.182 97.500 62.020 118.732 C 64.132 130.409, 66.143 140.422, 66.489 140.982 C 66.867 141.594, 72.676 142, 81.059 142 C 88.727 142, 95 142.236, 95 142.525 C 95 142.813, 90.913 152.992, 85.919 165.143 C 80.073 179.365, 77.182 187.582, 77.804 188.204 C 78.726 189.126, 83.682 183.328, 114.807 144.923 L 125 132.346 125.100 120.923 C 125.206 108.760, 126.704 99.727, 126.912 110 C 126.973 113.025, 128.366 132.150, 130.007 152.500 C 131.648 172.850, 132.993 189.702, 132.995 189.950 C 133.013 191.681, 143.083 174.952, 167.274 133 L 180.248 110.500 181.795 71.754 C 182.646 50.444, 183.079 32.746, 182.759 32.426 C 182.106 31.772, 130.628 24.006, 127.500 24.088 C 126.400 24.117, 120.775 25.448, 115 27.045 M 121 28.500 L 116.500 29.804 122.691 29.902 C 128.802 29.999, 131.234 31.103, 128.766 32.661 C 123.532 35.965, 98.917 46.674, 98.416 45.865 C 97.570 44.495, 97.259 44.690, 110.066 38.573 L 121.500 33.112 112.130 33.056 C 104.397 33.010, 100.377 33.636, 89.130 36.640 L 75.500 40.281 66.699 38.525 C 61.858 37.559, 57.712 36.955, 57.485 37.182 C 57.258 37.409, 58.037 42.861, 59.216 49.297 C 61.296 60.646, 61.438 61, 63.930 60.992 C 66.948 60.984, 121.168 54.190, 121.500 53.779 C 121.625 53.626, 122.806 50.222, 124.125 46.215 L 126.523 38.930 135.512 45.066 C 143.898 50.790, 144.784 51.162, 148.750 50.620 L 153 50.038 153 53.510 C 153 56.377, 153.608 57.375, 156.488 59.241 C 158.710 60.680, 159.980 62.295, 159.988 63.691 C 159.994 64.896, 157.975 80.584, 155.500 98.555 C 153.025 116.526, 151 131.627, 151 132.114 C 151 132.601, 150.265 133, 149.366 133 C 147.898 133, 147.795 131.449, 148.353 117.750 C 148.695 109.362, 149.265 92.561, 149.619 80.412 L 150.262 58.325 146.881 56.248 C 143.734 54.315, 142.896 54.245, 134.790 55.236 L 126.080 56.301 126.545 60.401 C 126.801 62.655, 127.708 76.650, 128.561 91.500 C 129.414 106.350, 131.212 132.225, 132.555 149 C 133.899 165.775, 135.005 180.175, 135.015 181 C 135.033 182.630, 145.049 166.042, 164.968 131.393 L 177.677 109.287 178.995 72.649 C 179.719 52.498, 180.354 35.671, 180.406 35.256 C 180.514 34.388, 134.286 27.109, 129 27.162 C 127.075 27.181, 123.475 27.783, 121 28.500 M 21.489 34.250 C 24.295 42.479, 32 69.817, 32 71.544 C 32 72.792, 29.099 87.869, 25.553 105.049 L 19.107 136.284 27.237 147.651 C 32.886 155.550, 35.844 158.879, 36.933 158.562 C 37.795 158.311, 42.212 157.799, 46.750 157.424 L 55 156.742 55 118.930 C 55 92.266, 55.328 80.915, 56.112 80.431 C 56.723 80.053, 57.511 80.213, 57.862 80.787 C 58.213 81.361, 60.747 94.694, 63.494 110.415 L 68.488 139 83.744 139 C 92.135 139, 99 139.385, 99 139.856 C 99 140.646, 84.498 176.241, 83.256 178.500 C 81.916 180.938, 85.983 176.123, 103.932 154.022 L 123 130.545 122.932 95.022 L 122.863 59.500 115.876 81 C 101.224 126.081, 100.360 128.500, 98.917 128.500 C 97.763 128.500, 97.143 122.504, 95.580 96.253 C 94.525 78.517, 93.962 63.704, 94.330 63.336 C 95.988 61.679, 96.532 65.761, 98.019 91.019 C 98.891 105.824, 99.835 118.168, 100.117 118.451 C 100.399 118.733, 105.058 105.241, 110.469 88.469 C 115.881 71.697, 120.126 57.799, 119.904 57.583 C 119.459 57.152, 62.711 63.967, 62.152 64.519 C 61.961 64.708, 62.311 67.221, 62.929 70.104 C 63.686 73.634, 63.723 75.677, 63.043 76.357 C 62.488 76.912, 61.877 77.172, 61.686 76.933 C 60.899 75.951, 54 63.134, 54 62.654 C 54 62.367, 55.031 61.990, 56.290 61.816 L 58.581 61.500 56.069 47.250 L 53.558 33 37.310 33 C 24.752 33, 21.160 33.284, 21.489 34.250 M 64 35.063 C 73.400 37.388, 74.890 37.388, 83.500 35.067 L 90.500 33.181 73.500 33.194 L 56.500 33.208 64 35.063 M 126.975 46.565 C 125.121 51.442, 125.679 53.006, 129.250 52.942 C 131.037 52.911, 134.259 52.572, 136.410 52.190 L 140.320 51.495 134.675 47.748 C 131.571 45.686, 128.788 44, 128.491 44 C 128.194 44, 127.512 45.154, 126.975 46.565 M 152.654 71.624 C 152.294 77.502, 152.053 86.404, 152.118 91.406 L 152.236 100.500 154.768 82.600 C 157.244 65.102, 157.185 62.228, 154.332 61.277 C 153.701 61.067, 153.057 65.041, 152.654 71.624" stroke="none" fill="black" fill-rule="evenodd"/>
</svg>