<svg xmlns="http://www.w3.org/2000/svg" width="200" height="200" viewBox="0 0 200 200" version="1.1">
	<path d="M 66.247 32.299 C 51.808 37.852, 40.333 42.701, 40.747 43.077 C 41.161 43.452, 43.300 44.324, 45.500 45.015 C 47.700 45.707, 54.555 48.055, 60.733 50.234 C 70.518 53.685, 71.846 54.419, 71.041 55.924 C 70.532 56.875, 61.315 61.616, 50.558 66.461 C 39.801 71.306, 31.002 75.772, 31.005 76.385 C 31.008 76.998, 35.761 88.750, 41.568 102.500 C 50.751 124.244, 55 136.966, 55 142.712 C 55 143.582, 46.151 153.213, 35.336 164.115 C 20.305 179.266, 16.060 184.086, 17.319 184.569 C 18.402 184.984, 29.281 179.144, 49.094 167.511 C 65.664 157.782, 79.548 150.199, 79.948 150.661 C 80.348 151.122, 84.677 160.387, 89.569 171.250 C 94.462 182.113, 98.727 191, 99.048 191 C 99.369 191, 103.152 177.938, 107.456 161.973 C 111.759 146.009, 115.555 133.208, 115.890 133.526 C 116.226 133.845, 121.020 140.494, 126.544 148.303 L 136.587 162.500 162.294 162.767 C 183.185 162.984, 188 162.784, 188 161.700 C 188 160.967, 175.364 153.358, 159.920 144.792 C 144.477 136.225, 132.214 129.007, 132.670 128.751 C 133.127 128.494, 136.452 127.502, 140.060 126.545 L 146.619 124.806 159.407 95.653 C 166.441 79.619, 172.264 66.070, 172.348 65.546 C 172.432 65.021, 160.708 62.338, 146.295 59.584 C 131.882 56.830, 120.286 54.381, 120.525 54.142 C 120.764 53.903, 127.917 52.033, 136.421 49.988 L 151.881 46.269 160.028 38.914 C 164.508 34.868, 167.797 31.443, 167.337 31.302 C 165.356 30.696, 106.614 26.053, 106.197 26.469 C 105.944 26.723, 107.849 37.100, 110.430 49.531 C 113.011 61.962, 114.982 72.511, 114.811 72.972 C 114.464 73.908, 73 60.961, 73 59.916 C 73 59.553, 75.138 58.321, 77.750 57.180 L 82.500 55.105 79.330 53.983 L 76.160 52.860 85.580 37.873 C 90.761 29.630, 95 22.686, 95 22.443 C 95 21.404, 91.145 22.726, 66.247 32.299 M 68.028 34.620 C 57.319 38.740, 48.416 42.250, 48.246 42.421 C 48.075 42.592, 53.673 44.794, 60.686 47.314 C 67.699 49.835, 73.513 51.807, 73.607 51.698 C 73.787 51.488, 87.075 30.369, 88.360 28.250 C 88.777 27.563, 88.754 27.029, 88.309 27.065 C 87.864 27.100, 78.738 30.500, 68.028 34.620 M 109.328 31.094 C 109.681 32.417, 110.715 37.325, 111.625 42 C 112.535 46.675, 113.654 50.914, 114.111 51.421 C 114.608 51.972, 122.108 50.608, 132.789 48.024 C 150.334 43.778, 150.727 43.625, 156.068 38.938 C 159.055 36.317, 161.275 33.966, 161 33.715 C 160.725 33.464, 151.275 32.503, 140 31.580 C 128.725 30.656, 117.067 29.628, 114.093 29.294 C 108.757 28.696, 108.694 28.720, 109.328 31.094 M 115.024 57.426 C 115.046 58.375, 115.918 62.666, 117.531 69.764 C 118.027 71.950, 118.150 71.974, 121.090 70.453 C 122.765 69.587, 124.504 69.018, 124.953 69.189 C 126.170 69.652, 138.199 83.134, 137.774 83.559 C 137.573 83.760, 133.270 82.638, 128.211 81.066 L 119.014 78.206 119.607 80.853 C 119.934 82.309, 120.560 85.075, 121 87 C 121.440 88.925, 122.063 91.679, 122.386 93.119 C 122.916 95.486, 123.553 95.804, 128.986 96.419 C 133.261 96.903, 135 97.519, 135 98.550 C 135 99.677, 133.460 100, 128.083 100 C 124.279 100, 121.017 99.587, 120.833 99.083 C 120.650 98.579, 112.400 97.184, 102.500 95.983 L 84.500 93.799 74.516 99.366 C 68.654 102.634, 64.164 104.564, 63.639 104.039 C 63.114 103.514, 65.172 100.401, 68.623 96.498 L 74.500 89.850 79.402 90.396 C 83.952 90.903, 85.031 90.538, 94.402 85.335 C 99.956 82.251, 106.027 78.812, 107.893 77.693 L 111.287 75.660 94.893 70.375 C 85.877 67.469, 77.487 64.837, 76.250 64.527 C 74.029 63.969, 74 64.090, 74 73.981 C 74 82.220, 73.734 84, 72.500 84 C 71.257 84, 70.996 82.073, 70.977 72.750 L 70.954 61.500 65.341 70.314 C 61.613 76.167, 59.393 78.793, 58.731 78.131 C 58.070 77.470, 59.063 75.013, 61.689 70.818 C 63.864 67.343, 65.963 63.957, 66.354 63.293 C 66.996 62.203, 61.622 64.422, 40.645 73.910 C 36.353 75.851, 33.977 77.476, 34.291 78.255 C 34.567 78.940, 39.322 90.220, 44.859 103.321 C 51.757 119.644, 55.457 129.817, 56.613 135.638 L 58.300 144.133 52.910 149.817 C 49.945 152.942, 42.565 160.595, 36.510 166.822 L 25.500 178.145 37.500 171.166 C 44.100 167.328, 56.455 160.097, 64.955 155.099 C 73.455 150.100, 80.725 146.345, 81.109 146.755 C 81.493 147.165, 85.520 155.718, 90.058 165.763 C 94.595 175.807, 98.415 183.907, 98.547 183.763 C 98.678 183.618, 101.990 171.575, 105.907 157 C 109.823 142.425, 113.386 129.641, 113.824 128.592 C 114.479 127.021, 116.696 129.626, 126.374 143.342 L 138.127 160 159.814 159.982 L 181.500 159.964 173 155.196 C 168.325 152.574, 155.635 145.509, 144.801 139.497 C 133.966 133.485, 125.338 128.326, 125.626 128.033 C 125.915 127.740, 130.280 126.367, 135.326 124.983 L 144.500 122.466 156.683 95 C 163.384 79.893, 168.635 67.301, 168.352 67.017 C 167.136 65.796, 115.002 56.420, 115.024 57.426 M 121 73.465 C 118.278 74.979, 118.007 74.756, 125.879 77.485 L 130.258 79.002 127.793 75.806 C 124.790 71.911, 124.175 71.700, 121 73.465 M 103.149 83.446 C 96.906 86.942, 91.371 90.229, 90.849 90.751 C 90.251 91.349, 95.309 92.335, 104.546 93.421 C 112.601 94.367, 119.355 94.978, 119.555 94.778 C 119.867 94.467, 119.137 90.784, 116.480 79.250 C 116.195 78.013, 115.633 77.020, 115.231 77.044 C 114.829 77.069, 109.392 79.949, 103.149 83.446 M 72.924 95.623 L 70.500 98.246 75 96 C 80.710 93.150, 80.852 93, 77.841 93 C 76.434 93, 74.293 94.142, 72.924 95.623" stroke="none" fill="black" fill-rule="evenodd"/>
</svg>