<svg xmlns="http://www.w3.org/2000/svg" width="200" height="200" viewBox="0 0 200 200" version="1.1">
	<path d="M 71.063 24.250 C 66.449 34.288, 62.410 42.812, 62.087 43.194 C 61.764 43.575, 53.400 44.587, 43.500 45.443 C 19.470 47.520, 17 47.889, 17 49.397 C 17 50.347, 22.289 51.006, 37.750 51.984 C 49.163 52.705, 60.677 53.567, 63.339 53.898 L 68.177 54.500 49.618 78.474 C 31.848 101.428, 30.991 102.742, 29.489 109.350 C 28.625 113.146, 28.123 116.456, 28.373 116.706 C 28.623 116.956, 34.516 116.674, 41.468 116.080 C 48.421 115.486, 54.664 115, 55.343 115 C 56.288 115, 55.896 122.527, 53.673 147.051 C 52.075 164.678, 50.954 179.288, 51.182 179.516 C 51.410 179.744, 57.650 177.954, 65.048 175.539 L 78.500 171.148 81.594 165.824 C 83.296 162.896, 87.708 154.762, 91.400 147.750 C 96.048 138.920, 98.633 135.016, 99.806 135.053 C 100.738 135.082, 108.392 138.587, 116.816 142.842 L 132.132 150.579 122.103 162.825 C 116.587 169.560, 111.806 175.505, 111.478 176.035 C 111.101 176.645, 119.868 177, 135.293 177 L 159.704 177 160.457 143.250 C 160.872 124.688, 161.528 100.950, 161.915 90.500 C 162.302 80.050, 162.478 71.311, 162.305 71.079 C 162.014 70.688, 137.674 73.576, 131.916 74.686 C 129.593 75.133, 128.611 74.160, 122.166 65.029 C 118.225 59.444, 115 54.524, 115 54.097 C 115 53.670, 116.728 52.750, 118.840 52.053 C 121.959 51.023, 127.818 51.053, 150.090 52.210 C 165.165 52.994, 177.644 53.536, 177.819 53.415 C 178.466 52.969, 163.465 31.048, 162.500 31.030 C 161.950 31.019, 150.289 35.304, 136.587 40.551 C 120.659 46.651, 111.438 49.709, 111.018 49.030 C 110.658 48.446, 109.087 40.775, 107.528 31.984 C 104.029 12.248, 102.496 11.272, 99.389 26.804 C 99.038 28.562, 98.455 30, 98.094 30 C 97.733 30, 93.659 24.600, 89.041 18 C 84.424 11.400, 80.377 6, 80.049 6 C 79.720 6, 75.677 14.212, 71.063 24.250 M 78.175 15.250 C 69.398 34.695, 64.635 44.682, 63.656 45.696 C 63.009 46.365, 57.984 47.199, 52.250 47.589 C 46.612 47.972, 42 48.621, 42 49.030 C 42 49.439, 48.755 50.101, 57.011 50.501 C 65.268 50.900, 72.238 51.576, 72.501 52.001 C 72.764 52.427, 64.147 64.166, 53.352 78.089 C 36.297 100.086, 33.562 104.108, 32.473 108.792 L 31.221 114.181 37.860 113.607 C 41.512 113.291, 47.967 112.749, 52.206 112.403 L 59.911 111.773 59.444 115.137 C 58.477 122.096, 53.910 175.243, 54.250 175.583 C 54.445 175.778, 59.684 174.264, 65.893 172.219 L 77.181 168.500 85.716 152.500 C 90.411 143.700, 94.449 135.989, 94.689 135.363 C 94.990 134.582, 91.673 134.001, 84.072 133.505 C 73.455 132.811, 73.036 132.698, 73.496 130.641 C 73.760 129.464, 76.906 116.700, 80.488 102.279 C 84.070 87.857, 87 75.396, 87 74.589 C 87 73.504, 85.171 72.941, 79.978 72.429 C 76.116 72.049, 72.752 71.407, 72.502 71.004 C 72.253 70.600, 76.230 68.381, 81.340 66.072 L 90.631 61.875 93.969 48.126 L 97.308 34.378 89.048 22.689 C 84.505 16.260, 80.632 11, 80.441 11 C 80.250 11, 79.230 12.912, 78.175 15.250 M 101.312 29.479 C 100.389 33.514, 100.529 34.315, 102.732 37.557 C 104.077 39.536, 105.399 40.935, 105.669 40.665 C 106.344 39.989, 103.765 25, 102.973 25 C 102.623 25, 101.876 27.016, 101.312 29.479 M 143.317 40.837 C 133.866 44.484, 126.289 47.622, 126.477 47.811 C 126.796 48.130, 172.232 50.787, 172.720 50.516 C 173.243 50.225, 161.894 34.010, 161.233 34.103 C 160.830 34.160, 152.768 37.190, 143.317 40.837 M 96.787 48.741 C 95.336 54.648, 94.269 59.603, 94.418 59.751 C 94.566 59.899, 97.832 58.553, 101.675 56.760 C 108.187 53.722, 108.616 53.326, 107.970 50.945 C 107.417 48.905, 100.382 38, 99.619 38 C 99.513 38, 98.238 42.833, 96.787 48.741 M 102.300 59.486 C 94.109 63.356, 93.002 64.198, 92.201 67.166 C 91.706 69, 91.421 70.650, 91.568 70.834 C 91.892 71.240, 126 75.747, 126 75.384 C 126 75.033, 111.835 54.982, 111.648 55.069 C 111.567 55.107, 107.360 57.095, 102.300 59.486 M 84 68 L 80.500 69.916 83.750 69.958 C 85.537 69.981, 87.338 70.018, 87.750 70.040 C 88.162 70.061, 88.644 69.161, 88.820 68.040 C 89.210 65.547, 88.491 65.542, 84 68 M 83.707 101.250 C 79.990 116.238, 76.961 128.805, 76.975 129.178 C 77.003 129.926, 83.514 130.750, 95 131.458 C 99.125 131.713, 107.643 132.398, 113.930 132.981 C 120.216 133.564, 125.661 133.694, 126.030 133.270 C 126.399 132.847, 127.248 125.525, 127.915 117 C 128.583 108.475, 129.345 99.700, 129.607 97.500 C 130.073 93.597, 129.998 93.665, 126.476 100.354 L 122.868 107.207 118.684 106.627 C 116.383 106.307, 109.550 105.574, 103.500 104.996 C 88.339 103.550, 86 103.101, 86 101.639 C 86 100.914, 95.674 96.509, 108.493 91.396 C 130.917 82.452, 130.981 82.418, 129.436 80.212 C 128.377 78.700, 126.857 78, 124.632 78 C 122.843 78, 114.908 77.100, 107 76 C 99.092 74.900, 92.136 74, 91.542 74 C 90.949 74, 87.423 86.262, 83.707 101.250 M 146.500 75.376 L 138.500 76.500 135.943 81.500 C 133.658 85.966, 133.147 89.164, 131.149 111.460 C 129.919 125.189, 128.762 136.572, 128.577 136.756 C 128.393 136.940, 123.913 136.716, 118.621 136.257 C 113.330 135.799, 109 135.546, 109 135.694 C 109 135.843, 115.075 138.865, 122.500 142.410 C 129.925 145.955, 136 149.143, 136 149.495 C 136 149.846, 131.725 155.377, 126.500 161.785 C 121.275 168.193, 117 173.788, 117 174.218 C 117 174.648, 126 175, 137 175 L 157 175 157.002 168.750 C 157.005 157.075, 158.940 89.539, 159.495 81.750 L 160.047 74 157.273 74.126 C 155.748 74.195, 150.900 74.758, 146.500 75.376 M 132 78.500 C 132 79.325, 132.402 80, 132.893 80 C 133.384 80, 134.045 79.325, 134.362 78.500 C 134.712 77.586, 134.363 77, 133.469 77 C 132.661 77, 132 77.675, 132 78.500 M 110.797 93.319 C 101.061 97.229, 93.239 100.573, 93.416 100.749 C 93.869 101.202, 121.170 104.170, 121.498 103.802 C 122.050 103.183, 130 87.024, 130 86.522 C 130 85.650, 129.115 85.963, 110.797 93.319" stroke="none" fill="black" fill-rule="evenodd"/>
</svg>