<svg xmlns="http://www.w3.org/2000/svg" width="200" height="200" viewBox="0 0 200 200" version="1.1">
	<path d="M 17 16.945 C 17 17.464, 19.754 29.918, 23.121 44.620 L 29.241 71.351 24.613 100.426 C 22.067 116.416, 19.987 130.086, 19.992 130.802 C 19.998 131.848, 23.466 131.964, 37.666 131.395 C 55.138 130.695, 55.317 130.709, 53.916 132.663 C 53.137 133.751, 43.950 145.100, 33.500 157.883 C 15.488 179.918, 12.568 184, 14.818 184 C 15.349 184, 26.520 174.039, 39.642 161.865 L 63.500 139.730 63.441 135.432 C 63.396 132.097, 63.788 131.027, 65.190 130.661 C 67.339 130.099, 67.186 129.888, 81.551 153.267 C 88.837 165.126, 92.915 170.863, 93.813 170.518 C 94.899 170.101, 95.023 171.273, 94.453 176.591 C 93.410 186.337, 93.408 186.252, 94.642 186.690 C 95.271 186.913, 106.714 171.104, 120.071 151.560 C 133.429 132.015, 144.488 116.155, 144.648 116.315 C 144.807 116.474, 143.890 127.606, 142.609 141.052 C 141.327 154.499, 140.329 165.575, 140.390 165.667 C 140.451 165.759, 148.996 166.209, 159.378 166.667 C 171.817 167.216, 178.368 167.159, 178.584 166.500 C 178.765 165.950, 179.726 145.510, 180.720 121.079 L 182.527 76.658 175.382 46.781 C 171.453 30.349, 167.988 16.655, 167.682 16.348 C 167.376 16.042, 157.985 18.842, 146.813 22.571 L 126.500 29.349 108.644 27.168 C 94.145 25.397, 90.037 24.539, 86.800 22.609 C 83.058 20.378, 82.509 20.311, 77.902 21.526 C 73.514 22.683, 70.102 22.460, 45.746 19.421 C 14.379 15.507, 17 15.733, 17 16.945 M 20.341 20.602 C 20.654 21.646, 23.424 33.456, 26.496 46.847 L 32.082 71.193 28.021 96.847 C 25.787 110.956, 23.683 124.023, 23.344 125.884 L 22.727 129.267 40.114 128.533 C 49.676 128.130, 57.995 127.395, 58.601 126.901 C 59.340 126.298, 59.437 124.328, 58.897 120.914 C 58.003 115.256, 60.567 98.355, 63.317 91.780 C 64.830 88.162, 64.763 87.732, 60.866 76.082 L 56.859 64.104 52.258 63.802 C 46.379 63.416, 45.814 61.692, 50.899 59.657 L 54.882 58.064 50.441 44.823 C 47.998 37.541, 46 31.084, 46 30.474 C 46 29.865, 49.487 28.554, 53.750 27.563 C 58.013 26.571, 62.066 25.457, 62.757 25.086 C 63.449 24.715, 55.349 23.373, 44.757 22.103 C 34.166 20.832, 24.211 19.548, 22.636 19.249 C 20.176 18.781, 19.852 18.972, 20.341 20.602 M 150 24.512 C 141.475 27.393, 134.600 30.218, 134.721 30.789 C 134.843 31.360, 138.244 36.928, 142.280 43.163 C 146.315 49.399, 149.925 55.015, 150.302 55.644 C 150.754 56.399, 147.395 58.067, 140.398 60.560 C 134.575 62.635, 129.615 64.839, 129.378 65.458 C 129.140 66.078, 130.420 70.834, 132.223 76.027 L 135.500 85.471 149.750 88.826 C 160.134 91.271, 164 92.583, 164 93.658 C 164 94.592, 163.356 94.948, 162.250 94.626 C 155.467 92.652, 137.772 88.895, 137.332 89.334 C 136.871 89.796, 142.426 108.019, 143.723 110.299 C 143.973 110.738, 144.824 110.561, 145.613 109.906 C 146.403 109.251, 147.337 109.004, 147.690 109.357 C 148.043 109.710, 147.207 121.811, 145.831 136.249 C 144.456 150.687, 143.440 162.646, 143.573 162.824 C 143.852 163.198, 175.361 164.846, 175.775 164.508 C 175.926 164.385, 176.899 144.758, 177.938 120.892 L 179.827 77.500 172.966 48.636 C 169.193 32.761, 165.969 19.660, 165.803 19.523 C 165.636 19.386, 158.525 21.631, 150 24.512 M 60.801 28.464 C 56.016 29.720, 51.429 31.005, 50.607 31.321 C 49.357 31.800, 49.773 33.870, 53.144 43.947 C 55.362 50.576, 57.534 56, 57.972 56 C 58.410 56, 67.349 51.950, 77.836 47 C 88.323 42.050, 97.270 38, 97.718 38 C 98.165 38, 98.361 42.996, 98.152 49.102 L 97.772 60.204 111.927 59.859 C 123.099 59.587, 126.260 59.803, 126.926 60.881 C 127.613 61.992, 129.469 61.640, 136.885 58.987 C 141.898 57.193, 146 55.298, 146 54.773 C 146 54.249, 142.977 49.173, 139.283 43.492 C 131.135 30.965, 130.808 30.850, 116.734 35.590 L 106.911 38.898 98.316 33.353 C 86.045 25.437, 76.885 24.243, 60.801 28.464 M 98.527 30.321 C 99.612 31.047, 102.144 32.632, 104.154 33.843 L 107.808 36.045 114.032 33.717 L 120.255 31.390 109.878 30.189 C 96.612 28.655, 96.049 28.661, 98.527 30.321 M 76.293 50.712 C 66.267 55.457, 58.359 59.771, 58.694 60.313 C 59.196 61.126, 93.947 60.546, 94.564 59.714 C 95.151 58.923, 95.761 42.010, 95.201 42.048 C 94.816 42.074, 86.307 45.973, 76.293 50.712 M 105.759 62.743 C 97.004 63.128, 96.573 63.594, 97.184 72.014 C 97.518 76.611, 97.211 76.366, 105.063 78.310 C 107.407 78.890, 107.776 78.525, 109.393 74.028 C 111.492 68.189, 111.957 67.768, 118.738 65.556 C 121.619 64.616, 124.233 63.431, 124.547 62.924 C 125.103 62.024, 122.644 62, 105.759 62.743 M 66.162 63.743 C 61.769 63.990, 59.960 64.468, 60.266 65.300 C 60.508 65.960, 61.976 70.325, 63.527 75 L 66.347 83.500 68.612 78.500 C 69.858 75.750, 70.905 72.938, 70.939 72.250 C 71.025 70.498, 73.126 70.671, 84.146 73.338 L 93.792 75.672 94.385 72.086 C 94.711 70.114, 94.983 67.263, 94.989 65.750 L 95 63 83.750 63.193 C 77.563 63.299, 69.648 63.546, 66.162 63.743 M 119.160 68.343 C 114.967 70.037, 113.518 71.223, 112.410 73.865 C 111.635 75.715, 111 77.757, 111 78.402 C 111 79.061, 115.628 80.711, 121.562 82.169 C 128.130 83.783, 131.966 84.336, 131.708 83.632 C 131.480 83.009, 130.065 78.787, 128.565 74.250 C 127.064 69.713, 125.535 66.042, 125.168 66.093 C 124.801 66.145, 122.097 67.157, 119.160 68.343 M 70.572 80.993 L 67.829 87.986 74.246 107.243 L 80.663 126.500 92.404 126.782 L 104.145 127.065 103.597 129.782 C 102.617 134.648, 96.883 179.216, 97.197 179.530 C 97.365 179.698, 102.305 172.785, 108.175 164.168 C 114.044 155.550, 124.101 140.797, 130.522 131.381 L 142.197 114.263 137.944 101.881 C 135.604 95.072, 133.197 88.990, 132.595 88.367 C 131.672 87.412, 109.887 81.801, 109.304 82.369 C 109.195 82.474, 106.032 90.388, 102.273 99.957 C 98.514 109.525, 94.823 117.559, 94.070 117.810 C 92.926 118.191, 92.818 114.991, 93.414 98.349 L 94.127 78.431 84.303 76.215 C 78.900 74.997, 74.218 74, 73.898 74 C 73.578 74, 72.081 77.147, 70.572 80.993 M 96.493 90.377 C 95.355 108.784, 95.810 109.183, 101.391 94.669 C 104.082 87.673, 106.094 81.761, 105.863 81.530 C 105.632 81.299, 103.584 80.692, 101.312 80.181 L 97.181 79.253 96.493 90.377 M 64.098 98.250 C 60.571 115.992, 60.370 122.563, 63.391 121.404 C 64.218 121.086, 65.633 122.288, 66.962 124.439 C 69.263 128.161, 69.843 128.381, 74.755 127.399 L 77.760 126.798 72.148 109.899 C 69.061 100.605, 66.222 93, 65.839 93 C 65.456 93, 64.672 95.362, 64.098 98.250 M 63 126.441 C 63 127.298, 63.450 128, 64 128 C 64.550 128, 65 127.577, 65 127.059 C 65 126.541, 64.550 125.840, 64 125.500 C 63.450 125.160, 63 125.584, 63 126.441 M 90.658 129.790 C 84.251 130.001, 81.942 130.414, 82.273 131.290 C 82.523 131.956, 85.343 140.713, 88.538 150.750 C 91.734 160.787, 94.658 169, 95.036 169 C 95.414 169, 96.025 166.188, 96.394 162.750 C 96.762 159.313, 97.876 150.519, 98.869 143.209 C 99.862 135.898, 100.411 129.823, 100.087 129.709 C 99.764 129.594, 95.521 129.631, 90.658 129.790 M 71.167 130.871 C 71.836 132.620, 87.454 157.879, 87.709 157.624 C 87.853 157.480, 85.913 151.205, 83.398 143.681 L 78.825 130 74.829 130 C 72.631 130, 70.983 130.392, 71.167 130.871 M 46 146.611 C 28.305 168.515, 28.185 168.790, 41.898 156 C 48.679 149.675, 55.775 143.210, 57.667 141.633 C 60.580 139.205, 61.060 138.222, 60.803 135.210 C 60.637 133.255, 60.050 131.538, 59.500 131.396 C 58.950 131.254, 52.875 138.101, 46 146.611" stroke="none" fill="black" fill-rule="evenodd"/>
</svg>