<svg xmlns="http://www.w3.org/2000/svg" width="200" height="200" viewBox="0 0 200 200" version="1.1">
	<path d="M 69.894 36.632 C 54.278 49.104, 41.373 59.404, 41.218 59.520 C 41.063 59.636, 39.153 66.254, 36.974 74.227 L 33.012 88.724 39.518 119.612 C 43.096 136.600, 46.356 151.281, 46.762 152.236 C 47.168 153.191, 54.700 160.334, 63.500 168.108 L 79.500 182.244 91.500 181.629 C 108.905 180.737, 150.342 178.001, 150.546 177.731 C 150.641 177.604, 148.860 164, 146.588 147.500 L 142.455 117.500 135.978 117.710 C 132.415 117.826, 125.225 118.124, 120 118.373 L 110.500 118.826 117.500 117.836 C 124.224 116.886, 125.388 116.265, 147 102.114 L 169.500 87.381 169.118 71.160 C 168.533 46.359, 172.578 50.670, 136.985 36.913 L 106.513 25.135 102.724 19.868 C 100.641 16.972, 98.790 14.457, 98.612 14.279 C 98.434 14.101, 85.511 24.160, 69.894 36.632 M 96.111 19.366 C 95.157 20.516, 95.506 20.981, 97.968 21.839 C 101.401 23.036, 101.891 22.116, 99.143 19.630 C 97.554 18.191, 97.118 18.153, 96.111 19.366 M 67.364 42.306 L 43.354 61.500 39.608 75.128 L 35.861 88.756 42.491 120.128 C 47.899 145.718, 49.525 151.894, 51.311 153.637 C 52.515 154.812, 59.588 161.125, 67.030 167.664 L 80.559 179.555 113.198 177.527 C 131.149 176.412, 146.185 175.151, 146.611 174.724 C 147.322 174.012, 140.675 121.342, 139.760 120.426 C 139.304 119.971, 109.946 121.721, 109.433 122.234 C 109.250 122.417, 109.365 125.139, 109.690 128.283 C 110.192 133.152, 110.579 134, 112.295 134 C 114.179 134, 114.203 134.118, 112.665 135.818 C 111.137 137.506, 111.154 138.593, 112.908 151.068 C 113.947 158.456, 114.643 164.662, 114.454 164.861 C 114.097 165.237, 78.963 157.247, 75.553 156.014 C 73.545 155.288, 76.806 153.129, 98.229 141.001 C 102.481 138.595, 105.854 136.521, 105.726 136.393 C 105.598 136.265, 97.199 135.216, 87.061 134.061 C 76.924 132.907, 68.478 131.811, 68.294 131.627 C 68.109 131.442, 72.027 129.585, 77 127.500 C 81.973 125.415, 85.904 123.571, 85.737 123.403 C 85.569 123.235, 79.147 123.494, 71.466 123.978 C 58.986 124.763, 54.339 124.328, 56.126 122.540 C 56.397 122.269, 66.492 120.912, 78.560 119.525 C 90.627 118.137, 101.513 116.768, 102.750 116.482 C 105.323 115.887, 105.371 115.458, 103.963 105.692 C 102.072 92.569, 104.202 94, 86.561 94 L 71.160 94 66.387 100.500 C 63.762 104.075, 61.278 107, 60.866 107 C 58.851 107, 59.530 104.859, 63.568 98.473 C 65.993 94.638, 67.983 91.067, 67.989 90.538 C 67.995 90.009, 66.088 87.597, 63.750 85.178 C 60.727 82.050, 60.078 80.932, 61.500 81.306 C 62.600 81.595, 65.628 82.121, 68.229 82.474 C 72.783 83.092, 73.034 82.993, 74.978 79.808 L 76.998 76.500 71.827 76 C 64.636 75.305, 64.132 73.004, 71.167 72.989 C 82.789 72.965, 83.615 72.546, 90.476 63.189 C 96.409 55.099, 96.694 54.451, 96.226 50.089 C 95.955 47.565, 95.621 45.365, 95.483 45.199 C 95.344 45.033, 84.733 51.665, 71.902 59.935 C 56.838 69.645, 48.229 74.629, 47.603 74.003 C 47.070 73.470, 46.828 72.881, 47.067 72.694 C 47.305 72.507, 58.229 65.451, 71.342 57.014 C 93.710 42.623, 95.153 41.514, 94.669 39.087 C 94.385 37.664, 93.834 33.677, 93.445 30.228 C 93.055 26.778, 92.430 23.766, 92.055 23.534 C 91.680 23.302, 80.569 31.750, 67.364 42.306 M 96.370 31.750 C 96.889 36.013, 97.437 39.656, 97.587 39.846 C 97.798 40.114, 105.711 35.128, 107.918 33.336 C 109.029 32.434, 105.221 27.702, 102.454 26.545 C 94.961 23.415, 95.316 23.111, 96.370 31.750 M 122.819 47.750 C 129.873 57.513, 137.342 67.862, 139.416 70.750 L 143.188 76 123.344 76.090 L 103.500 76.181 112 78.108 C 116.675 79.168, 123.763 80.747, 127.750 81.618 C 132.192 82.588, 135 83.701, 135 84.493 C 135 85.266, 132.101 86.495, 127.779 87.554 C 118.803 89.754, 119.669 90.179, 138.754 92.945 L 153.008 95.011 160.076 90.310 L 167.145 85.610 166.445 68.555 C 166.060 59.175, 165.600 51.334, 165.421 51.132 C 164.960 50.609, 111.658 30.013, 110.747 30.006 C 110.333 30.003, 115.765 37.987, 122.819 47.750 M 106.553 53.226 C 104.439 62.727, 102.502 71.063, 102.248 71.750 C 101.889 72.720, 105.728 73, 119.393 73 C 129.077 73, 137 72.770, 137 72.490 C 137 71.817, 114.171 40.015, 112.045 37.726 C 110.501 36.065, 110.153 37.046, 106.553 53.226 M 102.203 40.429 C 97.659 43.642, 97.794 43.387, 98.539 47.359 L 99.208 50.922 102.540 47.388 C 105.671 44.069, 108.157 37.941, 106.329 38.049 C 105.873 38.076, 104.016 39.147, 102.203 40.429 M 100.232 57 C 100.232 58.925, 100.438 59.712, 100.689 58.750 C 100.941 57.788, 100.941 56.212, 100.689 55.250 C 100.438 54.288, 100.232 55.075, 100.232 57 M 91.546 66.250 L 86.895 72.500 92.561 72.803 C 95.677 72.970, 98.428 72.905, 98.675 72.658 C 99.412 71.921, 97.806 60, 96.969 60 C 96.544 60, 94.104 62.813, 91.546 66.250 M 81.689 79.696 C 80.243 81.729, 79.185 83.519, 79.339 83.673 C 79.986 84.319, 100.178 87.155, 100.665 86.668 C 100.959 86.375, 100.904 84.389, 100.543 82.256 C 99.902 78.462, 99.762 78.351, 94.134 77.188 C 85.553 75.416, 84.598 75.609, 81.689 79.696 M 103.364 82.072 C 103.714 83.820, 104 85.809, 104 86.493 C 104 88.855, 111.984 88.964, 120.381 86.717 L 128.388 84.574 118.356 82.436 C 112.838 81.260, 107.064 79.982, 105.526 79.596 C 102.821 78.917, 102.750 78.998, 103.364 82.072 M 67.991 86.489 C 68.671 87.308, 69.633 87.727, 70.130 87.420 C 71.406 86.631, 70.185 85, 68.319 85 C 67.047 85, 66.986 85.278, 67.991 86.489 M 75.250 88.114 C 74.563 88.821, 74 89.760, 74 90.200 C 74 90.640, 80.412 90.946, 88.250 90.881 L 102.500 90.762 96 89.446 C 84.884 87.196, 76.655 86.668, 75.250 88.114 M 107.250 92.706 C 106.013 92.944, 105.010 93.670, 105.022 94.320 C 105.069 96.888, 107.705 113.039, 108.150 113.483 C 108.411 113.744, 117.237 110.270, 127.764 105.764 C 138.290 101.257, 146.708 97.374, 146.469 97.136 C 145.778 96.445, 115.818 92.072, 112.500 92.177 C 110.850 92.230, 108.487 92.467, 107.250 92.706 M 124.500 110.152 C 113.545 115.100, 113.521 115.118, 118.703 114.613 C 122.718 114.221, 125.454 113.067, 130.692 109.553 C 134.425 107.049, 137.033 105.041, 136.489 105.092 C 135.945 105.142, 130.550 107.420, 124.500 110.152 M 95 122.975 C 88.491 125.065, 78.643 129.904, 80 130.344 C 81.885 130.955, 101.087 133, 104.942 133 C 107.143 133, 107.731 132.592, 107.462 131.250 C 107.268 130.287, 106.840 127.813, 106.510 125.750 C 105.924 122.088, 105.810 122.002, 101.705 122.086 C 99.392 122.133, 96.375 122.533, 95 122.975 M 98.500 143.896 C 94.100 146.510, 88.250 149.946, 85.500 151.532 L 80.500 154.416 95.500 158.033 C 103.750 160.022, 110.673 161.518, 110.885 161.356 C 111.788 160.668, 108.569 139.005, 107.574 139.072 C 106.983 139.111, 102.900 141.282, 98.500 143.896" stroke="none" fill="black" fill-rule="evenodd"/>
</svg>