<svg xmlns="http://www.w3.org/2000/svg" width="200" height="200" viewBox="0 0 200 200" version="1.1">
	<path d="M 74.729 8.677 C 74.465 9.130, 73.950 11.975, 73.583 15 L 72.917 20.500 50.208 26.916 C 37.719 30.445, 25.297 33.969, 22.604 34.748 L 17.709 36.164 27.596 42.057 C 33.034 45.298, 37.604 48.313, 37.752 48.756 C 37.900 49.199, 35.873 54.888, 33.248 61.397 C 28.653 72.790, 28.326 73.290, 24.487 74.778 C 19.605 76.670, 19.654 76.632, 20.435 77.895 C 20.863 78.587, 21.924 78.599, 23.674 77.934 C 25.106 77.389, 26.405 77.072, 26.561 77.227 C 26.717 77.383, 24.905 82.233, 22.536 88.005 C 18.405 98.066, 18.290 98.624, 19.755 101.500 C 20.595 103.150, 25.485 112.228, 30.622 121.673 L 39.962 138.845 39.004 151.173 C 38.477 157.953, 38.035 164.440, 38.023 165.590 C 38.001 167.633, 38.415 167.586, 56.750 163.477 C 67.063 161.166, 75.809 159.447, 76.186 159.657 C 76.563 159.867, 79.185 164.080, 82.011 169.019 C 84.838 173.959, 87.528 178, 87.991 178 C 88.453 178, 97.081 169.507, 107.165 159.126 L 125.500 140.252 136.500 136.543 C 142.550 134.503, 148.131 132.586, 148.901 132.283 C 150.094 131.814, 150.195 136.149, 149.579 161.366 C 148.970 186.274, 149.075 191, 150.238 191 C 151.045 191, 157.945 178.570, 166.810 161.145 L 182 131.290 182 90.272 L 182 49.254 161.384 31.139 L 140.769 13.024 139.073 15.262 C 138.140 16.493, 134.561 21.438, 131.120 26.250 C 127.679 31.063, 124.705 35, 124.511 35 C 124.317 35, 120.493 29.833, 116.013 23.518 C 111.533 17.203, 107.468 11.789, 106.979 11.487 C 106.491 11.185, 100.573 12.527, 93.827 14.469 C 87.082 16.411, 81.191 18, 80.736 18 C 80.280 18, 78.850 15.717, 77.558 12.927 C 76.265 10.138, 74.992 8.225, 74.729 8.677 M 93.196 17.456 C 86.979 19.281, 81.735 20.938, 81.543 21.137 C 81.223 21.470, 89.441 40.506, 92.168 45.750 C 92.811 46.987, 93.824 48.008, 94.419 48.018 C 95.014 48.027, 101.684 45.703, 109.243 42.853 L 122.985 37.670 120.688 34.585 C 119.424 32.888, 115.572 27.563, 112.127 22.750 C 108.682 17.938, 105.557 14.031, 105.182 14.068 C 104.807 14.106, 99.413 15.630, 93.196 17.456 M 135.283 25.202 C 127.176 36.638, 127.368 36.162, 131.571 34.406 C 133.576 33.568, 135.314 33.022, 135.433 33.191 C 135.877 33.823, 148 67.755, 148 68.365 C 148 68.714, 147.408 69, 146.685 69 C 145.962 69, 140.899 62.718, 135.435 55.040 C 129.971 47.362, 125.183 41.062, 124.795 41.040 C 124.407 41.018, 120.824 45.606, 116.833 51.236 L 109.575 61.472 109.538 71.921 L 109.500 82.371 118.500 85.170 C 125.735 87.420, 129.412 87.972, 137.250 87.985 C 148.533 88.002, 150.262 89.575, 141.929 92.240 C 137.462 93.668, 136.380 93.693, 132.845 92.445 C 129.856 91.391, 126.208 91.190, 118.548 91.659 L 108.264 92.288 107.661 99.894 C 107.330 104.077, 106.756 114.329, 106.385 122.675 C 106.014 131.022, 105.385 138.378, 104.986 139.022 C 104.485 139.833, 100.384 138.141, 91.640 133.515 C 84.697 129.842, 78.827 126.528, 78.593 126.151 C 78.360 125.774, 80.590 118.498, 83.548 109.983 C 86.506 101.467, 88.942 94.162, 88.963 93.750 C 89.007 92.852, 74.045 92.767, 68.793 93.635 C 65.269 94.217, 65.052 94.477, 64.415 98.874 C 64.047 101.418, 63.570 103.806, 63.357 104.180 C 62.783 105.184, 41.065 94.691, 41.030 93.392 C 40.999 92.236, 49.779 91, 58.025 91 L 62.757 91 63.878 83.459 C 65.704 71.186, 65.899 71.700, 58.500 69.294 C 54.925 68.132, 52 67.615, 52 68.145 C 52 68.676, 53.837 71.815, 56.082 75.120 C 58.640 78.888, 59.929 81.743, 59.534 82.771 C 59.070 83.981, 57.571 82.391, 53.816 76.705 C 51.017 72.467, 48.426 69, 48.057 69 C 47.688 69, 43.608 70.473, 38.989 72.273 L 30.591 75.546 25.856 87.023 L 21.121 98.500 24.422 104.500 C 26.238 107.800, 31.106 116.800, 35.240 124.500 L 42.757 138.500 41.800 150.839 C 41.274 157.625, 41.052 163.386, 41.307 163.641 C 41.562 163.895, 49.780 162.275, 59.569 160.040 C 73.453 156.870, 77.549 156.254, 78.195 157.238 C 78.650 157.932, 81.089 162.048, 83.616 166.385 L 88.210 174.271 106.855 155.749 L 125.500 137.227 139.380 132.645 L 153.260 128.063 152.587 155.781 L 151.914 183.500 157.048 174 C 159.872 168.775, 165.966 156.967, 170.591 147.761 L 179 131.022 179 90.662 L 179 50.301 167.250 39.940 C 160.787 34.241, 152.275 26.727, 148.333 23.241 L 141.166 16.904 135.283 25.202 M 75.499 23.250 C 74.411 26.353, 70.385 57, 71.066 57 C 71.826 57, 90.217 50.116, 90.672 49.661 C 90.804 49.530, 89.435 46.290, 87.631 42.461 C 85.826 38.632, 83.046 32.462, 81.452 28.750 C 78.736 22.422, 76.510 20.365, 75.499 23.250 M 53 28.927 C 43.925 31.558, 33.848 34.482, 30.608 35.425 L 24.716 37.139 33.108 42.171 C 37.723 44.939, 41.567 47.270, 41.649 47.352 C 41.731 47.433, 40.448 50.875, 38.798 55 C 37.149 59.125, 34.954 64.630, 33.921 67.233 L 32.042 71.967 38.770 69.435 C 46.116 66.669, 47.749 65.581, 46.087 64.554 C 43.693 63.074, 45.217 62.335, 48.750 63.262 C 51.946 64.101, 53.606 63.819, 59.984 61.354 L 67.467 58.461 69.660 43.481 C 72.280 25.576, 72.370 23.979, 70.750 24.072 C 70.063 24.111, 62.075 26.296, 53 28.927 M 129.750 37.689 C 128.787 37.941, 128 38.606, 128 39.168 C 128 40.040, 138.610 55.566, 141.209 58.496 C 141.920 59.298, 137.601 46.624, 134.480 38.750 C 133.786 37, 133.033 36.831, 129.750 37.689 M 107.146 46.501 C 100.901 48.907, 95.652 51.016, 95.482 51.188 C 95.312 51.359, 96.762 54.198, 98.704 57.495 L 102.236 63.490 100.118 70.066 C 97.512 78.158, 97.505 78.725, 100 79.433 C 106.257 81.208, 105.694 81.980, 106.474 70.543 C 106.985 63.049, 107.681 59.377, 108.898 57.764 C 114.283 50.622, 119.990 42.009, 119.301 42.064 C 118.860 42.099, 113.391 44.096, 107.146 46.501 M 81 56.237 C 75.225 58.460, 70.335 60.419, 70.133 60.590 C 69.931 60.761, 69.545 62.859, 69.275 65.251 L 68.785 69.602 81.642 73.629 L 94.500 77.656 96.929 71.149 L 99.359 64.643 95.981 58.322 C 94.124 54.845, 92.355 52.044, 92.052 52.097 C 91.748 52.151, 86.775 54.014, 81 56.237 M 61.080 63.904 L 56.661 65.696 61.330 67.288 C 64.717 68.442, 66.004 68.552, 66.014 67.689 C 66.021 67.035, 66.299 65.487, 66.630 64.250 C 67.345 61.584, 66.873 61.555, 61.080 63.904 M 67.099 79.692 C 65.246 92.154, 64.792 91.396, 73.651 90.647 C 77.859 90.291, 83.398 90, 85.960 90 L 90.618 90 92.173 85.138 L 93.728 80.275 80.963 76.288 L 68.198 72.301 67.099 79.692 M 95.158 84.866 C 93.591 90.098, 93.547 90, 97.435 90 C 106.667 90, 109.154 85.263, 101.322 82.594 C 98.749 81.717, 96.570 81, 96.480 81 C 96.390 81, 95.795 82.740, 95.158 84.866 M 108 87 C 108 88.795, 108.641 88.992, 114.250 88.922 L 120.500 88.845 115.500 87 C 108.987 84.597, 108 84.597, 108 87 M 94.312 92.698 C 92.569 93.036, 91.573 94.790, 89.420 101.311 C 87.933 105.815, 85.450 112.965, 83.902 117.200 L 81.087 124.901 91.711 130.449 C 97.555 133.501, 102.438 135.886, 102.563 135.749 C 102.850 135.435, 105.006 99.634, 105.003 95.250 C 105 92.072, 104.906 92.003, 100.750 92.136 C 98.412 92.211, 95.515 92.464, 94.312 92.698 M 54 97.446 C 57.575 99.288, 60.837 100.589, 61.250 100.338 C 61.663 100.087, 62 98.559, 62 96.941 L 62 94 54.750 94.049 L 47.500 94.097 54 97.446" stroke="none" fill="black" fill-rule="evenodd"/>
</svg>