<svg xmlns="http://www.w3.org/2000/svg" width="200" height="200" viewBox="0 0 200 200" version="1.1">
	<path d="M 107.005 15.250 C 107.008 16.488, 108.115 26.705, 109.465 37.956 C 110.816 49.207, 111.823 58.511, 111.703 58.630 C 111.583 58.750, 106.671 54.601, 100.787 49.409 L 90.089 39.970 61.044 40.235 C 42.591 40.403, 31.970 40.865, 31.919 41.500 C 31.876 42.050, 36.264 43.678, 41.670 45.118 C 47.077 46.558, 51.437 48.133, 51.360 48.618 C 51.283 49.103, 49.780 55.645, 48.020 63.156 L 44.820 76.812 35.817 87.443 C 29.929 94.397, 27.020 98.609, 27.407 99.619 C 27.926 100.970, 28.406 100.920, 31.250 99.217 C 36.801 95.891, 81.629 72, 82.317 72 C 82.675 72, 88.874 75.660, 96.093 80.133 C 110.597 89.120, 110.037 89.107, 112.143 80.509 L 113.369 75.500 114.131 79 C 114.551 80.925, 115.198 86.127, 115.569 90.560 L 116.244 98.620 85.872 99.824 C 69.167 100.487, 53.813 101.022, 51.750 101.014 C 49.097 101.004, 48 101.434, 48 102.482 C 48 103.744, 51.606 104.004, 72.208 104.232 L 96.416 104.500 100.673 110.500 C 103.015 113.800, 104.947 116.958, 104.966 117.518 C 104.985 118.079, 92.738 121.543, 77.750 125.218 C 57.055 130.291, 46.924 132.259, 35.634 133.399 C 27.457 134.224, 20.512 135.154, 20.200 135.466 C 18.441 137.225, 24.570 137.868, 53.499 138.958 C 71.098 139.622, 85.644 140.310, 85.822 140.488 C 86 140.667, 80.909 147.876, 74.509 156.509 C 68.109 165.142, 63.057 172.390, 63.283 172.616 C 63.654 172.987, 84.496 174.412, 100.978 175.193 L 107.456 175.500 119.978 157 L 132.500 138.500 160.167 136.500 C 175.384 135.400, 188.172 134.162, 188.584 133.750 C 188.996 133.338, 189.003 132.670, 188.599 132.266 C 187.953 131.620, 160.387 130.334, 141.904 130.088 L 135.308 130 133.655 122.473 L 132.001 114.947 139.790 104.223 C 144.074 98.326, 147.892 92.991, 148.274 92.370 C 148.695 91.686, 142.653 85.780, 132.981 77.421 C 119.687 65.932, 117.097 63.257, 117.620 61.551 C 117.966 60.423, 118.402 59.328, 118.590 59.118 C 118.778 58.907, 124.192 63.407, 130.623 69.118 C 137.053 74.828, 147.981 84.535, 154.907 90.689 L 167.500 101.877 167.838 97.689 C 168.025 95.385, 167.869 87.585, 167.492 80.355 L 166.806 67.209 148.420 58.421 C 138.307 53.588, 130.138 49.538, 130.267 49.421 C 130.395 49.304, 140.625 48.479, 153 47.587 C 193.053 44.701, 193.427 44.381, 164.750 37.545 C 140.979 31.878, 142.860 32.203, 142.320 33.666 C 142.037 34.432, 147.358 36.140, 157.872 38.655 C 166.662 40.758, 173.691 42.643, 173.491 42.843 C 172.998 43.335, 139.762 45.932, 133.473 45.970 L 128.445 46 118.973 29.533 C 109.922 13.798, 106.994 10.304, 107.005 15.250 M 110.401 23 C 110.699 24.375, 111.652 32.025, 112.518 40 C 113.384 47.975, 114.337 55.625, 114.636 57 L 115.179 59.500 116.361 56.629 L 117.542 53.759 137.521 71.518 C 148.510 81.285, 159.188 90.881, 161.250 92.841 L 165 96.406 165 82.930 L 165 69.454 142.264 58.477 C 123.148 49.248, 120.032 47.451, 122.694 47.192 L 125.860 46.884 118.795 34.692 C 110.943 21.140, 109.588 19.252, 110.401 23 M 50.500 44.236 C 52.700 44.802, 54.649 45.392, 54.832 45.548 C 55.474 46.095, 47.764 76.526, 46.453 78.619 C 45.723 79.785, 42.520 83.810, 39.335 87.564 C 36.151 91.317, 34.254 94.117, 35.120 93.784 C 35.986 93.452, 46.732 87.739, 58.999 81.090 C 71.266 74.440, 81.797 69.012, 82.402 69.028 C 83.006 69.043, 88.882 72.386, 95.459 76.457 C 102.037 80.528, 107.706 83.682, 108.058 83.464 C 109.546 82.545, 113.269 65.921, 112.396 64.092 C 111.903 63.059, 106.493 57.891, 100.372 52.607 L 89.245 43 67.872 43.103 C 51.142 43.184, 47.369 43.430, 50.500 44.236 M 116.057 69.250 C 116.089 70.487, 116.903 78.082, 117.866 86.128 L 119.617 100.755 113.662 101.378 C 110.386 101.720, 105.511 102, 102.828 102 L 97.948 102 103.974 110.961 L 110 119.923 106.250 120.899 C 69.333 130.503, 57.179 133.476, 50.500 134.534 L 42.500 135.802 50 135.994 C 70.051 136.505, 89.902 137.568, 90.495 138.161 C 90.859 138.525, 85.946 145.764, 79.578 154.248 C 73.210 162.731, 68 169.911, 68 170.202 C 68 170.493, 74.638 171.033, 82.750 171.402 C 90.862 171.771, 99.370 172.327, 101.655 172.636 L 105.810 173.199 118.155 154.849 L 130.500 136.500 136 135.785 C 139.025 135.391, 145.550 134.670, 150.500 134.181 L 159.500 133.292 146.380 133.146 L 133.260 133 131.137 123.898 C 129.970 118.892, 129.349 114.256, 129.757 113.596 C 130.166 112.935, 133.829 107.772, 137.898 102.123 C 145.109 92.109, 145.247 91.806, 143.398 90.074 C 138.594 85.576, 116.935 67, 116.495 67 C 116.223 67, 116.026 68.013, 116.057 69.250" stroke="none" fill="black" fill-rule="evenodd"/>
</svg>