<svg xmlns="http://www.w3.org/2000/svg" width="200" height="200" viewBox="0 0 200 200" version="1.1">
	<path d="M 49.943 22.676 C 35.231 39.456, 15.492 65.892, 16.741 67.141 C 17.337 67.737, 21.949 62.421, 29.188 52.794 C 40.871 37.256, 58.986 15.653, 59.718 16.385 C 59.939 16.606, 61.402 25.194, 62.969 35.469 C 64.536 45.745, 65.972 54.295, 66.159 54.470 C 66.347 54.646, 74.686 54.954, 84.692 55.156 L 102.884 55.522 111.571 40.235 C 118.086 28.769, 120.663 25.061, 121.879 25.402 C 122.771 25.652, 127.791 27.048, 133.036 28.504 C 140.771 30.652, 145.116 32.716, 156.036 39.431 L 169.500 47.711 169.225 57.606 C 169.074 63.048, 168.718 68.956, 168.433 70.735 L 167.915 73.971 153.957 66.979 C 146.281 63.133, 140 60.359, 140 60.814 C 140 61.269, 141.800 70.578, 144 81.500 L 148 101.359 148 129.179 C 148 144.481, 148.362 157, 148.804 157 C 149.246 157, 156.376 154.128, 164.649 150.617 C 172.921 147.106, 180.614 143.940, 181.745 143.581 C 183.501 143.024, 182.589 145.820, 175.506 162.714 C 170.943 173.596, 166.825 182.423, 166.355 182.330 C 165.885 182.236, 156.500 176.625, 145.500 169.861 L 125.500 157.562 116.500 156.953 L 107.500 156.345 94.500 164.990 C 77.433 176.340, 78.144 175.937, 80 173.217 C 80.825 172.008, 87.264 162.485, 94.309 152.054 L 107.118 133.090 112.554 105.295 C 115.544 90.008, 117.992 76.978, 117.995 76.340 C 117.998 75.676, 114.901 74.670, 110.750 73.985 C 106.763 73.327, 94.725 70.187, 84 67.007 C 73.275 63.827, 64.334 61.378, 64.131 61.565 C 63.927 61.752, 67.892 69.646, 72.941 79.106 C 79.814 91.985, 81.797 96.508, 80.830 97.105 C 80.120 97.544, 76.710 98.669, 73.250 99.605 C 68.411 100.915, 66.861 101.791, 66.525 103.404 C 64.980 110.841, 63.654 123.228, 61.493 150.398 C 60.142 167.392, 58.883 181.450, 58.695 181.638 C 58.507 181.827, 54.301 175.572, 49.348 167.740 C 39.387 151.987, 30.151 131.264, 27.912 119.643 L 26.590 112.785 33.426 85.324 C 38.235 66.008, 39.948 57.548, 39.204 56.804 C 37.994 55.594, 38.605 53.538, 29.937 88 L 23.776 112.500 25.450 120.753 C 28.229 134.454, 36.768 153.121, 49.206 172.691 C 55.284 182.253, 60.473 189.860, 60.738 189.595 C 61.003 189.330, 62.486 173.226, 64.034 153.807 C 66.576 121.910, 68.339 105.878, 69.514 103.978 C 69.745 103.603, 73.549 102.267, 77.967 101.009 C 82.385 99.751, 85.993 98.447, 85.985 98.111 C 85.977 97.775, 82.191 90.525, 77.572 82 C 72.953 73.475, 69.499 66.378, 69.898 66.230 C 70.297 66.081, 78.114 68.184, 87.271 70.902 C 96.427 73.621, 106.412 76.157, 109.459 76.538 C 112.507 76.919, 114.997 77.516, 114.994 77.865 C 114.991 78.214, 112.606 90.650, 109.694 105.500 L 104.399 132.500 88.142 156.392 C 77.997 171.301, 72.237 180.637, 72.824 181.224 C 73.410 181.810, 80.378 177.756, 91.355 170.441 L 108.946 158.719 116.516 159.405 C 124.066 160.089, 124.144 160.127, 146.172 173.583 C 158.320 181.003, 168.346 186.945, 168.452 186.787 C 169.371 185.425, 188.655 138.412, 188.411 138.129 C 188.235 137.925, 180.533 140.934, 171.296 144.816 C 162.058 148.698, 153.785 152.148, 152.912 152.482 C 151.494 153.025, 151.253 150.103, 150.664 125.211 C 150.060 99.697, 149.749 96.075, 147.002 82.510 C 145.351 74.358, 144 67.080, 144 66.337 C 144 65.467, 148.623 67.302, 156.986 71.493 C 164.128 75.072, 170.149 78, 170.366 78 C 170.583 78, 171.056 73.162, 171.417 67.250 C 171.778 61.337, 172.311 54.250, 172.602 51.500 L 173.131 46.500 157.815 37.314 C 144.373 29.252, 141.106 27.749, 131.097 25.017 C 123.953 23.068, 119.342 22.258, 118.751 22.849 C 118.232 23.368, 114.116 30.252, 109.605 38.146 L 101.402 52.500 84.959 52.175 C 75.916 51.996, 68.445 51.771, 68.359 51.675 C 68.272 51.579, 66.806 42.313, 65.102 31.085 C 63.398 19.857, 61.820 10.487, 61.595 10.262 C 61.370 10.037, 56.127 15.623, 49.943 22.676" stroke="none" fill="black" fill-rule="evenodd"/>
</svg>