<svg xmlns="http://www.w3.org/2000/svg" width="200" height="200" viewBox="0 0 200 200" version="1.1">
	<path d="M 101.500 33.954 L 77.500 43.821 74.500 41.570 C 64.579 34.125, 60.797 31.803, 59.958 32.642 C 59.399 33.201, 67.427 42.963, 80.424 57.531 C 92.186 70.714, 101.675 81.640, 101.510 81.811 C 101.346 81.982, 95.877 79.445, 89.356 76.173 C 78.231 70.591, 76.174 69.046, 56 51.121 L 34.500 32.018 33.978 50.759 L 33.456 69.500 26.149 100.294 L 18.842 131.088 21.669 133.294 C 33.978 142.900, 33.786 142.646, 47.379 167.232 C 54.596 180.284, 60.780 190.972, 61.123 190.982 C 61.466 190.992, 62.080 178.063, 62.488 162.250 C 62.896 146.438, 63.516 126.566, 63.865 118.092 L 64.500 102.684 70.081 111.092 L 75.661 119.500 82.945 156.750 C 87.867 181.924, 90.632 194, 91.474 194 C 92.633 194, 95.511 184.156, 105.361 146.500 L 108.500 134.500 108.800 140.250 C 108.965 143.412, 109.500 146, 109.990 146 C 110.479 146, 119.344 143.075, 129.690 139.500 C 140.035 135.925, 148.771 133, 149.103 133 C 149.434 133, 147.971 140.717, 145.853 150.149 C 143.734 159.581, 142 168.051, 142 168.970 C 142 170.391, 144.060 170.827, 155.750 171.878 C 163.313 172.558, 171.804 173.368, 174.621 173.679 L 179.742 174.245 180.398 138.873 C 180.779 118.359, 182.145 87.804, 183.650 66.135 C 185.558 38.655, 185.945 28.584, 185.114 28.070 C 184.492 27.686, 172.174 26.809, 157.741 26.123 C 143.309 25.436, 130.150 24.697, 128.500 24.481 C 126.368 24.201, 118.556 26.942, 101.500 33.954 M 101.264 36.944 L 77.029 46.810 74.514 44.833 C 73.131 43.745, 72 43.136, 72 43.479 C 72 44.362, 101.307 77.026, 101.725 76.609 C 101.914 76.420, 101.326 70.107, 100.419 62.581 C 99.512 55.054, 98.999 48.668, 99.278 48.389 C 100.021 47.646, 153.188 33.050, 155.250 33.023 C 159.209 32.971, 156.186 35.587, 140.319 45.941 L 123.639 56.826 139.815 62.002 C 154.814 66.801, 158.056 68.277, 156.662 69.671 C 156.366 69.967, 146.812 71.469, 135.430 73.009 C 121.766 74.858, 114.446 76.267, 113.883 77.155 C 113.414 77.895, 113.024 80.569, 113.015 83.098 L 113 87.695 127 94.325 C 134.700 97.971, 141 101.123, 141 101.329 C 141 101.536, 138.230 103.881, 134.844 106.541 L 128.688 111.378 121.008 103.009 L 113.328 94.640 112.664 111.480 C 111.767 134.232, 111.828 142, 112.906 142 C 114.347 142, 146.419 130.894, 147.252 130.106 C 147.666 129.715, 150.317 121.470, 153.142 111.783 C 157.022 98.482, 158.620 94.301, 159.670 94.703 C 160.434 94.997, 160.837 95.971, 160.566 96.868 C 159.076 101.789, 144.905 167.239, 145.254 167.587 C 145.879 168.212, 176.091 171.243, 176.602 170.732 C 176.845 170.488, 177.278 156.386, 177.563 139.394 C 177.848 122.402, 179.263 91.063, 180.708 69.751 C 182.153 48.438, 183.147 30.823, 182.917 30.604 C 182.688 30.386, 172.825 29.704, 161 29.089 C 149.175 28.474, 136.350 27.770, 132.500 27.524 C 125.542 27.081, 125.356 27.137, 101.264 36.944 M 37 51.406 C 37 65.052, 36.917 65.563, 29.443 97.712 C 25.287 115.591, 22.024 130.301, 22.193 130.400 C 22.362 130.499, 25.650 133.099, 29.500 136.178 C 36.215 141.548, 36.948 142.585, 47.500 161.638 L 58.500 181.500 59.123 173.114 C 59.465 168.502, 60.041 151.852, 60.402 136.114 C 60.764 120.376, 61.323 104.691, 61.645 101.257 L 62.231 95.015 70.210 106.621 L 78.188 118.227 84.907 152.364 C 88.935 172.825, 91.890 185.699, 92.284 184.500 C 92.646 183.400, 96.295 169.900, 100.393 154.500 L 107.843 126.500 105.494 106.772 C 104.202 95.921, 102.927 86.696, 102.661 86.272 C 102.395 85.847, 96.261 82.576, 89.030 79.002 L 75.884 72.504 71.610 77.429 C 66.369 83.471, 64.635 82.075, 69.488 75.720 L 72.943 71.195 65.302 67.566 C 60.250 65.167, 57.998 63.602, 58.654 62.946 C 59.310 62.290, 60.976 62.499, 63.573 63.562 C 67.473 65.158, 67.486 65.156, 65.500 63.217 C 64.400 62.143, 59 57.299, 53.500 52.453 C 48 47.606, 42.038 42.283, 40.250 40.624 L 37 37.608 37 51.406 M 123.626 44.075 C 112.145 47.287, 102.558 50.109, 102.322 50.344 C 102.086 50.580, 102.651 57.687, 103.576 66.137 C 104.954 78.709, 105.631 81.909, 107.304 83.750 C 108.429 84.988, 109.720 86, 110.174 86 C 110.628 86, 111 83.169, 111 79.709 L 111 73.418 129.500 71.027 C 139.675 69.712, 148 68.380, 148 68.068 C 148 67.755, 141.188 65.334, 132.863 62.687 C 124.462 60.016, 118.120 57.499, 118.613 57.030 C 119.101 56.565, 125.800 52.098, 133.500 47.101 C 141.200 42.105, 146.825 38.066, 146 38.126 C 145.175 38.186, 135.107 40.863, 123.626 44.075 M 106.570 92.068 C 106.917 95.055, 107.772 102, 108.470 107.500 L 109.739 117.500 109.870 103.905 C 109.989 91.421, 109.834 90.160, 107.970 88.473 C 105.948 86.643, 105.942 86.657, 106.570 92.068 M 121.095 99.107 C 124.561 103.017, 127.976 106.437, 128.683 106.709 C 129.391 106.980, 131.346 106.045, 133.027 104.631 L 136.083 102.060 126.059 97.030 C 120.547 94.263, 115.757 92, 115.415 92 C 115.074 92, 117.630 95.198, 121.095 99.107" stroke="none" fill="black" fill-rule="evenodd"/>
</svg>