<svg xmlns="http://www.w3.org/2000/svg" width="200" height="200" viewBox="0 0 200 200" version="1.1">
	<path d="M 58.012 10.167 C 58.029 13.650, 63.849 57.182, 64.366 57.700 C 64.612 57.945, 74.192 55.076, 85.656 51.323 L 106.500 44.500 107 38.500 L 107.500 32.500 134 25.775 C 148.575 22.076, 160.824 19.151, 161.220 19.275 C 161.616 19.399, 146.047 29.088, 126.623 40.806 L 91.305 62.112 87.753 60.017 L 84.202 57.922 83.408 69.711 C 82.306 86.067, 82.332 92.443, 83.500 92.838 C 84.050 93.024, 86.110 87.624, 88.078 80.838 C 90.046 74.052, 91.846 67.961, 92.078 67.303 C 92.337 66.568, 100.763 71.112, 113.868 79.053 C 125.620 86.174, 135.340 92, 135.467 92 C 135.595 92, 134.879 87.188, 133.877 81.306 C 132.875 75.424, 132.214 70.453, 132.408 70.259 C 132.602 70.064, 136.345 74.784, 140.724 80.746 L 148.687 91.586 146.688 97.186 L 144.689 102.786 129.094 103.427 L 113.500 104.068 87 96.138 C 72.425 91.777, 60.372 88.545, 60.216 88.956 C 60.060 89.367, 60.585 102.478, 61.382 118.091 C 62.179 133.704, 62.532 146.983, 62.166 147.599 C 61.800 148.216, 56.676 153.805, 50.780 160.020 C 43.920 167.250, 39.896 170.811, 39.604 169.909 C 37.747 164.158, 31.048 122.353, 30.566 113.500 C 30.236 107.450, 29.009 93.500, 27.839 82.500 L 25.712 62.500 33.856 40.441 C 38.335 28.308, 42 17.808, 42 17.108 C 42 16.407, 41.483 16.006, 40.852 16.216 C 40.221 16.426, 35.913 26.895, 31.280 39.479 L 22.856 62.359 24.944 81.429 C 26.092 91.918, 27.446 106.800, 27.953 114.500 C 28.722 126.181, 36.869 175.203, 38.276 176.609 C 38.463 176.796, 44.665 170.452, 52.058 162.511 L 65.500 148.072 65.252 142.286 C 65.116 139.104, 64.511 126.680, 63.907 114.679 C 63.303 102.677, 63.013 92.654, 63.262 92.405 C 63.511 92.156, 74.998 95.329, 88.789 99.457 L 113.863 106.961 124.932 106.328 C 131.019 105.979, 136 105.936, 136 106.232 C 136 106.528, 129.882 110.248, 122.405 114.499 C 114.928 118.750, 102.799 125.706, 95.452 129.956 L 82.094 137.683 94.900 160.592 L 107.705 183.500 134.931 183.500 L 162.157 183.500 172.517 158.150 L 182.876 132.800 172.938 119.563 C 167.472 112.283, 163 106.028, 163 105.663 C 163 105.299, 167.950 105, 174 105 C 180.050 105, 185 104.611, 185 104.136 C 185 103.661, 181.466 95.899, 177.147 86.886 C 169.774 71.504, 169.043 70.378, 165.208 68.500 L 161.123 66.500 169.069 45.522 C 173.439 33.985, 176.899 24.245, 176.757 23.879 C 176.463 23.118, 124.028 50.181, 124.011 51.103 C 124.005 51.434, 131.425 55.233, 140.500 59.545 C 149.575 63.857, 157 67.935, 157 68.607 C 157 70.069, 151.013 86.182, 150.077 87.239 C 149.717 87.645, 145.232 82.358, 140.111 75.489 C 127.899 59.110, 127.459 59.078, 130.144 74.764 C 131.154 80.669, 131.873 85.762, 131.741 86.082 C 131.608 86.403, 123.042 81.511, 112.705 75.212 L 93.909 63.760 108.947 54.630 C 117.217 49.609, 135.051 38.810, 148.576 30.634 C 164.890 20.772, 172.833 15.433, 172.173 14.773 C 171.513 14.113, 160.188 16.471, 138.531 21.780 C 120.576 26.181, 105.687 29.980, 105.445 30.222 C 105.203 30.464, 104.724 33.351, 104.380 36.638 L 103.755 42.615 85.188 48.784 C 74.976 52.177, 66.532 54.851, 66.423 54.727 C 66.315 54.602, 64.928 44.184, 63.341 31.576 C 61.452 16.569, 60.031 8.510, 59.228 8.243 C 58.489 7.996, 58.005 8.764, 58.012 10.167 M 150.725 39.781 C 139.326 45.645, 130 50.704, 130 51.021 C 130 51.802, 158.223 65.110, 158.754 64.579 C 159.482 63.852, 172.103 29.770, 171.769 29.436 C 171.594 29.261, 162.124 33.916, 150.725 39.781 M 86.583 64.645 C 86.262 65.480, 86.032 68.714, 86.071 71.832 L 86.142 77.500 88.036 71 C 89.078 67.425, 89.946 64.436, 89.965 64.357 C 89.984 64.278, 89.362 63.969, 88.583 63.670 C 87.803 63.371, 86.903 63.810, 86.583 64.645 M 156.041 80.125 L 151.835 91.100 155.950 96.550 L 160.065 102 170.532 102 C 176.290 102, 181 101.843, 181 101.651 C 181 101.459, 177.904 94.819, 174.121 86.894 C 168.066 74.212, 166.823 72.286, 163.745 70.818 L 160.248 69.151 156.041 80.125 M 149.098 98.149 C 147.471 102.815, 147.603 103, 152.565 103 L 157.130 103 154.315 99.021 C 152.767 96.833, 151.207 95.033, 150.848 95.021 C 150.489 95.010, 149.702 96.417, 149.098 98.149 M 150.344 105.728 C 146.222 106.103, 146.168 106.160, 143.751 112.700 L 141.313 119.294 146.041 134.129 L 150.769 148.963 135.665 158.928 C 127.357 164.409, 120.418 168.752, 120.245 168.578 C 120.072 168.405, 124.073 157.174, 129.137 143.620 L 138.344 118.977 136.922 114.513 L 135.500 110.049 111 124.146 C 97.525 131.899, 86.348 138.377, 86.162 138.542 C 85.976 138.707, 91.133 148.328, 97.621 159.921 L 109.419 181 134.760 181 L 160.102 181 161.687 177.250 C 162.559 175.188, 166.972 164.447, 171.494 153.383 L 179.716 133.265 169.285 119.133 C 161.046 107.970, 158.396 105.037, 156.677 105.175 C 155.480 105.271, 152.630 105.520, 150.344 105.728 M 138.054 108.750 C 138.607 110.263, 139.322 112.175, 139.643 113 C 140.043 114.029, 140.639 113.400, 141.537 111 C 143.374 106.094, 143.346 106, 140.025 106 C 137.202 106, 137.101 106.141, 138.054 108.750 M 132.375 142.753 C 128.456 153.064, 125.364 161.633, 125.504 161.796 C 126.119 162.511, 146.985 148.369, 146.992 147.232 C 147 145.992, 140.095 123.997, 139.700 124.003 C 139.590 124.005, 136.294 132.442, 132.375 142.753" stroke="none" fill="black" fill-rule="evenodd"/>
</svg>