<svg xmlns="http://www.w3.org/2000/svg" width="200" height="200" viewBox="0 0 200 200" version="1.1">
	<path d="M 91 11.759 C 61.025 12.559, 36.180 13.508, 35.789 13.867 C 34.801 14.777, 29.451 85.785, 30.306 86.640 C 30.688 87.021, 31.317 87.017, 31.704 86.630 C 32.091 86.243, 33.581 70.428, 35.015 51.485 C 36.450 32.542, 37.821 16.849, 38.062 16.612 C 38.692 15.992, 121.034 13.701, 121.621 14.287 C 122.183 14.850, 106.390 33.321, 104.895 33.849 C 104.351 34.041, 92.647 30.284, 78.886 25.500 C 65.124 20.716, 53.730 16.959, 53.566 17.151 C 53.401 17.343, 57.653 26.950, 63.014 38.500 C 69.533 52.542, 73.216 59.393, 74.131 59.177 C 78.262 58.203, 98.941 45.267, 102.085 41.690 L 105.670 37.612 113.226 40.368 L 120.783 43.124 121.528 64.812 L 122.273 86.500 116.063 121 C 112.645 139.986, 109.324 155.813, 108.676 156.197 C 108.029 156.581, 101.224 161.405, 93.554 166.918 C 85.884 172.431, 79.480 176.813, 79.323 176.656 C 79.166 176.499, 84.825 162.900, 91.899 146.435 C 98.974 129.971, 104.673 116.395, 104.564 116.267 C 104.456 116.139, 99.559 116.613, 93.683 117.321 C 84.134 118.472, 83.002 118.443, 83.022 117.054 C 83.034 116.199, 83.696 105.600, 84.494 93.500 C 86.307 66.006, 86.325 63.996, 84.750 64.016 C 84.063 64.025, 81.338 69.145, 78.695 75.394 L 73.890 86.756 67.856 84.878 C 64.537 83.845, 61.266 83, 60.588 83 C 59.624 83, 59.453 90.616, 59.807 117.780 L 60.260 152.561 50.880 159.588 C 45.721 163.453, 40.983 166.925, 40.352 167.303 C 39.172 168.011, 29.437 130.344, 26.899 115.250 C 26.094 110.464, 25.224 108, 24.340 108 C 23.603 108, 23 108.400, 23 108.890 C 23 115.873, 37.055 172.193, 38.645 171.583 C 39.275 171.341, 45.081 167.228, 51.548 162.443 L 63.305 153.744 62.599 119.872 C 62.211 101.242, 62.086 86, 62.321 86 C 62.556 86, 64.493 86.606, 66.624 87.348 C 75.886 90.568, 75.294 90.827, 78.962 81.943 C 80.780 77.539, 82.412 74.079, 82.589 74.255 C 82.765 74.431, 82.239 85.081, 81.420 97.920 C 80.601 110.759, 80.059 121.371, 80.216 121.502 C 80.372 121.633, 84.888 121.217, 90.250 120.577 C 95.612 119.938, 100 119.675, 100 119.993 C 100 120.311, 93.922 134.721, 86.493 152.015 C 79.065 169.310, 73.102 183.757, 73.243 184.120 C 73.385 184.483, 81.600 178.956, 91.500 171.836 C 101.400 164.717, 110.136 158.520, 110.914 158.065 C 111.869 157.505, 114.381 145.937, 118.662 122.369 L 124.997 87.500 124.341 65.747 L 123.685 43.994 126.739 45.059 C 129.513 46.026, 129.759 46.462, 129.420 49.812 C 129.215 51.840, 128.568 67.225, 127.982 84 L 126.917 114.500 130.440 148.898 C 132.377 167.817, 134.083 183.410, 134.231 183.551 C 134.650 183.948, 193.399 161.981, 194.300 161.091 C 194.740 160.656, 185.965 157.010, 174.800 152.990 C 163.635 148.969, 154.125 145.354, 153.667 144.957 C 153.209 144.560, 154.250 137.201, 155.979 128.604 C 158.485 116.149, 159.839 111.708, 162.644 106.745 C 165.487 101.715, 167.316 95.631, 172.141 75.149 C 175.427 61.197, 177.975 49.642, 177.804 49.470 C 177.632 49.299, 171.531 48.834, 164.246 48.438 C 156.961 48.042, 151 47.509, 151 47.254 C 151 46.998, 153.475 38.868, 156.500 29.187 C 159.525 19.506, 162 11.228, 162 10.792 C 162 9.865, 161.871 9.867, 91 11.759 M 129.750 13.742 L 123 14.091 123.099 22.296 C 123.153 26.808, 123.491 32.937, 123.849 35.915 C 124.445 40.876, 124.767 41.421, 127.678 42.415 C 129.426 43.012, 131.186 43.834, 131.588 44.243 C 131.990 44.652, 131.743 60.402, 131.039 79.243 L 129.760 113.500 133.068 146.785 C 135.235 168.591, 136.742 179.935, 137.438 179.681 C 175.408 165.770, 186.963 161.387, 186.979 160.890 C 186.991 160.555, 179.213 157.486, 169.695 154.070 C 160.177 150.654, 151.763 147.472, 150.998 146.998 C 149.834 146.280, 150.158 143.371, 152.965 129.319 C 155.709 115.587, 157.018 111.215, 160.098 105.500 C 163.132 99.868, 164.924 93.976, 169.262 75.353 L 174.655 52.206 171.077 51.614 C 169.110 51.288, 164.575 50.991, 161 50.953 C 157.425 50.916, 152.852 50.573, 150.837 50.192 L 147.174 49.500 152.968 31.250 L 158.762 13 147.631 13.196 C 141.509 13.304, 133.463 13.549, 129.750 13.742 M 59 22.584 C 59 23.430, 73.214 54.341, 74.060 55.335 C 75.039 56.486, 97.500 43.451, 99.987 40.289 C 101.094 38.882, 101.998 37.453, 101.997 37.115 C 101.994 36.562, 61.188 22, 59.642 22 C 59.289 22, 59 22.263, 59 22.584 M 113.685 28.418 C 110.558 31.958, 108 35.076, 108 35.347 C 108 35.618, 110.362 36.616, 113.250 37.565 C 116.138 38.515, 119.063 39.499, 119.750 39.753 C 120.684 40.097, 120.996 38.227, 120.985 32.357 C 120.976 28.036, 120.610 23.933, 120.170 23.241 C 119.610 22.358, 117.673 23.904, 113.685 28.418" stroke="none" fill="black" fill-rule="evenodd"/>
</svg>