<svg xmlns="http://www.w3.org/2000/svg" width="200" height="200" viewBox="0 0 200 200" version="1.1">
	<path d="M 77.067 19.667 C 54.830 24.268, 36.497 28.170, 36.328 28.338 C 36.160 28.507, 35.545 37.837, 34.963 49.072 L 33.903 69.500 25.775 102 L 17.647 134.500 27.433 150.500 C 32.815 159.300, 37.599 166.907, 38.064 167.405 C 38.750 168.139, 61.790 148.929, 64.109 145.689 C 64.444 145.221, 65.258 142.287, 65.919 139.169 C 66.580 136.051, 70.315 120.618, 74.220 104.873 L 81.320 76.245 74.173 58.443 C 70.243 48.651, 67.198 40.469, 67.407 40.260 C 67.616 40.051, 78.785 53.956, 92.227 71.160 C 110.225 94.193, 116.382 102.746, 115.584 103.602 C 114.774 104.470, 113.299 103.759, 109.753 100.792 C 105.511 97.241, 104.933 97.015, 104.316 98.660 C 103.936 99.672, 101.009 106.798, 97.813 114.495 L 92 128.491 92 151.178 C 92 171.935, 92.149 173.906, 93.750 174.347 C 94.713 174.612, 101.248 175.819, 108.274 177.029 L 121.048 179.228 155.774 175.053 C 174.873 172.757, 191.292 170.568, 192.259 170.189 C 193.608 169.661, 189.798 166.473, 175.932 156.529 C 165.984 149.395, 157.633 143.216, 157.375 142.797 C 157.116 142.378, 162.346 135.271, 168.997 127.004 C 176.552 117.612, 180.604 111.809, 179.795 111.538 C 179.083 111.299, 170.625 110.166, 161 109.019 C 136.226 106.068, 138.798 107.365, 139.596 98.221 C 139.966 93.975, 140.324 90.422, 140.391 90.327 C 140.458 90.232, 151.085 89.421, 164.006 88.525 C 176.928 87.629, 187.848 86.804, 188.274 86.690 C 188.699 86.577, 183.638 80.413, 177.026 72.992 C 170.414 65.571, 165.004 58.945, 165.002 58.266 C 165.001 57.588, 167.250 51.393, 170 44.500 C 172.750 37.607, 175 31.806, 175 31.608 C 175 31.411, 169.037 30.686, 161.750 29.998 C 154.463 29.310, 148.105 28.517, 147.622 28.236 C 147.139 27.954, 149.164 25.583, 152.122 22.966 L 157.500 18.208 141 21.122 C 131.925 22.725, 121.800 24.451, 118.500 24.959 C 110.441 26.199, 89.569 30.113, 89.224 30.450 C 88.891 30.774, 105.035 77.874, 107.375 83.404 C 108.283 85.550, 108.908 87.402, 108.763 87.517 C 108.618 87.632, 97.987 74.249, 85.137 57.777 C 69.271 37.437, 61.447 28.153, 60.755 28.845 C 60.063 29.537, 62.667 37.186, 68.870 52.682 C 73.894 65.232, 77.998 76.400, 77.989 77.500 C 77.981 78.600, 76.398 85.350, 74.472 92.500 C 72.546 99.650, 68.940 114.250, 66.458 124.944 C 63.976 135.638, 61.845 144.471, 61.723 144.572 C 61.600 144.673, 56.591 149.068, 50.592 154.339 C 44.592 159.610, 39.387 163.739, 39.024 163.515 C 38.662 163.291, 34.391 156.547, 29.535 148.529 L 20.704 133.950 28.466 103.225 L 36.227 72.500 37.410 51.787 C 38.061 40.394, 38.797 30.888, 39.047 30.663 C 39.296 30.437, 56.963 26.645, 78.307 22.236 C 99.650 17.827, 117.359 13.974, 117.661 13.673 C 120.109 11.225, 112.312 12.376, 77.067 19.667 M 135.500 24.830 L 127.500 26.409 134.981 27.200 C 142.135 27.957, 142.572 27.882, 144.959 25.496 C 147.975 22.479, 147.557 22.450, 135.500 24.830 M 104.500 30.204 C 98.450 31.309, 93.341 32.362, 93.146 32.544 C 92.660 32.998, 103.321 65.055, 108.376 78.338 L 112.500 89.177 124.500 88.488 C 131.100 88.109, 136.803 87.507, 137.173 87.150 C 137.701 86.640, 139.500 44.780, 139.500 33 C 139.500 30.577, 139.192 30.464, 129.500 29.345 C 116.706 27.867, 117.430 27.842, 104.500 30.204 M 142.826 31.250 C 142.561 31.633, 140.466 86.448, 140.701 86.870 C 140.956 87.329, 177.638 85.089, 180.806 84.420 C 183.405 83.872, 184.141 84.879, 168.361 67.392 L 161.222 59.481 166.153 47.116 C 168.866 40.316, 170.819 34.486, 170.494 34.161 C 169.574 33.240, 143.359 30.482, 142.826 31.250 M 132 90.652 C 130.075 90.835, 124.789 91.253, 120.254 91.582 L 112.008 92.179 116.541 97.949 L 121.075 103.720 128.184 104.380 C 132.093 104.744, 135.551 104.783, 135.866 104.467 C 136.822 103.512, 137.291 89.988, 136.363 90.160 C 135.888 90.248, 133.925 90.470, 132 90.652 M 104.355 105.750 C 103.507 107.813, 101.055 113.733, 98.907 118.908 L 95 128.315 95 150.055 L 95 171.795 101.250 172.870 C 123.201 176.648, 119.252 176.674, 153.133 172.534 C 170.385 170.426, 184.874 168.372, 185.331 167.970 C 185.787 167.568, 178.706 161.898, 169.594 155.369 C 160.482 148.841, 153.021 143.268, 153.013 142.985 C 153.006 142.701, 158.189 136.076, 164.532 128.262 C 175.091 115.251, 175.871 114.011, 173.782 113.548 C 170.719 112.868, 124.588 107.079, 124.325 107.341 C 124.212 107.455, 127.250 111.557, 131.077 116.456 C 141.482 129.777, 138.648 129.467, 122.548 115.523 C 115.083 109.058, 108.729 103.370, 108.428 102.884 C 107.313 101.079, 105.855 102.105, 104.355 105.750 M 116.550 106.753 C 117.073 107.167, 119.244 109.079, 121.375 111.003 C 123.815 113.205, 124.864 113.759, 124.207 112.500 C 122.506 109.241, 119.043 106, 117.261 106 C 116.343 106, 116.025 106.337, 116.550 106.753" stroke="none" fill="black" fill-rule="evenodd"/>
</svg>