<svg xmlns="http://www.w3.org/2000/svg" width="200" height="200" viewBox="0 0 200 200" version="1.1">
	<path d="M 79 18.473 C 59.475 22.975, 42.263 26.968, 40.750 27.348 C 38.010 28.036, 38 28.071, 38 36.854 C 38 46.816, 36.133 53.558, 24.533 85.477 C 20.940 95.365, 18 103.734, 18 104.076 C 18 104.417, 27.443 105.497, 38.984 106.475 L 59.968 108.254 70.234 98.861 C 75.880 93.696, 84.274 86.347, 88.887 82.532 C 95.621 76.961, 97.788 74.470, 99.887 69.889 L 102.500 64.184 123 74.092 C 134.275 79.541, 143.886 84.128, 144.357 84.285 C 145.714 84.738, 141.178 100.499, 136.353 112.094 L 131.944 122.688 86.222 123.356 C 32.058 124.148, 18 124.792, 18 126.484 C 18 127.639, 21.150 128.572, 50.157 136.007 L 62.814 139.251 38.878 160.796 C 23.266 174.848, 15.282 182.682, 15.920 183.320 C 16.558 183.958, 28.121 179.757, 49.167 171.241 L 81.435 158.184 95.327 167.724 C 106.132 175.145, 109.412 176.957, 110.089 175.882 C 110.567 175.122, 113.556 169.443, 116.729 163.262 C 119.903 157.081, 122.894 152.019, 123.375 152.012 C 123.857 152.005, 137.969 157.175, 154.736 163.500 C 171.503 169.825, 185.622 175, 186.111 175 C 189.515 175, 183.916 170.409, 162.489 155.630 C 149.036 146.352, 138.224 138.447, 138.461 138.063 C 138.699 137.679, 144.136 136.513, 150.544 135.471 C 156.952 134.430, 162.768 133.111, 163.469 132.539 C 164.169 131.968, 166.810 122.410, 169.337 111.300 C 173.262 94.043, 174.459 85.978, 177.546 55.963 C 179.534 36.638, 181.012 20.716, 180.830 20.581 C 180.649 20.446, 166.100 18.200, 148.500 15.591 C 130.900 12.981, 116.050 10.721, 115.500 10.567 C 114.950 10.414, 98.525 13.972, 79 18.473 M 84 20.067 C 67.775 23.844, 51.237 27.669, 47.250 28.567 L 40 30.201 40 39.400 C 40 49.768, 38.819 54.164, 28.063 83.808 C 24.609 93.328, 22.053 101.386, 22.382 101.715 C 23.043 102.376, 49.161 104.925, 55.500 104.947 C 59.214 104.960, 60.474 104.085, 73.112 92.730 C 80.599 86.004, 88.570 79.150, 90.824 77.500 C 93.934 75.224, 95.597 72.871, 97.712 67.753 C 99.245 64.043, 100.807 61.005, 101.183 61.003 C 101.559 61.001, 108.534 64.201, 116.683 68.113 C 124.832 72.025, 134.749 76.732, 138.719 78.573 L 145.939 81.922 148.030 74.898 C 149.181 71.034, 149.982 67.292, 149.811 66.581 C 149.578 65.612, 122.018 42.233, 112.275 34.739 C 111.421 34.082, 107.198 36.597, 98.336 43.041 C 85.851 52.118, 82.175 54.004, 82.824 51 C 83.405 48.305, 98.476 21.032, 99.392 21.016 C 99.883 21.007, 102.712 23.074, 105.679 25.609 L 111.073 30.217 115.015 27.609 C 117.183 26.174, 119.244 25, 119.594 25 C 120.081 25, 140.776 39.767, 142.933 41.654 C 143.172 41.863, 142.947 42.444, 142.433 42.946 C 141.865 43.502, 137.784 41.124, 132 36.867 C 119.215 27.459, 119.460 27.572, 116.523 29.710 C 115.170 30.695, 114.049 31.747, 114.031 32.048 C 114.014 32.350, 122.923 39.915, 133.828 48.859 L 153.656 65.121 147.892 85.546 C 144.722 96.779, 140.250 110.252, 137.955 115.485 L 133.782 125 112.141 125.104 C 100.239 125.161, 76.550 125.724, 59.500 126.354 L 28.500 127.500 47.500 132.368 C 57.950 135.045, 66.805 137.520, 67.179 137.868 C 67.726 138.377, 45.871 158.597, 26.228 175.756 C 22.855 178.703, 24.878 178.052, 47.500 168.911 C 61.250 163.354, 74.589 157.977, 77.142 156.961 L 81.784 155.114 94.958 164.158 C 102.203 169.133, 108.288 173.044, 108.479 172.851 C 108.671 172.658, 111.640 167.100, 115.078 160.500 C 118.515 153.900, 121.392 148.399, 121.471 148.276 C 121.550 148.153, 133.482 152.535, 147.986 158.014 C 162.491 163.493, 174.464 167.868, 174.593 167.738 C 174.722 167.607, 164.762 160.541, 152.461 152.036 C 140.159 143.531, 130.185 136.498, 130.297 136.406 C 130.409 136.314, 137.475 134.996, 146 133.478 C 154.525 131.960, 161.607 130.637, 161.737 130.539 C 161.868 130.440, 164.021 121.616, 166.523 110.929 C 170.408 94.334, 171.587 86.562, 174.603 57.650 C 176.545 39.033, 177.881 23.548, 177.572 23.239 C 177.089 22.755, 115.362 12.939, 114 13.130 C 113.725 13.168, 100.225 16.290, 84 20.067 M 94 35.241 C 90.975 40.867, 88.325 45.890, 88.111 46.402 C 87.692 47.406, 90.400 45.588, 101.797 37.213 L 109.094 31.852 104.797 28.436 C 102.434 26.557, 100.275 25.017, 100 25.015 C 99.725 25.013, 97.025 29.614, 94 35.241" stroke="none" fill="black" fill-rule="evenodd"/>
</svg>