<svg xmlns="http://www.w3.org/2000/svg" width="200" height="200" viewBox="0 0 200 200" version="1.1">
	<path d="M 99.699 29.250 C 97.068 33.539, 94.689 36.364, 93.876 36.168 C 93.119 35.985, 86.668 33.346, 79.540 30.303 L 66.581 24.770 49.773 31.533 L 32.964 38.296 34.467 40.591 C 35.294 41.852, 38.393 46.639, 41.353 51.228 L 46.736 59.572 33.962 75.007 L 21.188 90.443 31.344 101.341 C 36.930 107.336, 42.668 113.624, 44.096 115.317 L 46.691 118.393 41.910 126.346 L 37.129 134.300 41.063 140.093 L 44.997 145.885 37.339 161.950 C 33.128 170.786, 29.963 178.296, 30.306 178.639 C 30.649 178.983, 45.908 176.681, 64.215 173.525 L 97.500 167.786 104.584 163.393 C 108.480 160.977, 112.530 159.004, 113.584 159.008 C 114.638 159.012, 130.575 161.937, 149 165.507 C 167.425 169.078, 183.063 171.999, 183.750 171.999 C 188.442 172.002, 181.418 167.802, 157.030 156.021 C 141.683 148.607, 129.228 142.439, 129.352 142.314 C 129.477 142.190, 140.586 140.721, 154.039 139.051 C 185.049 135.201, 185 135.210, 185 133.455 C 185 132.311, 183.345 131.991, 177.250 131.956 C 163.374 131.877, 101.917 129.250, 101.380 128.713 C 101.093 128.426, 102.176 126.715, 103.788 124.912 L 106.718 121.632 123.954 122.967 L 141.191 124.303 160.046 105.401 L 178.902 86.500 171.004 70.013 C 166.316 60.227, 162.374 53.244, 161.304 52.830 C 160.312 52.447, 151.850 51.667, 142.500 51.098 C 127.245 50.170, 124.794 49.764, 118.619 47.141 C 111.822 44.254, 111.767 44.200, 114.119 42.732 C 115.624 41.792, 125.144 40.263, 140 38.574 C 179.167 34.120, 181 33.847, 181 32.457 C 181 31.748, 179.324 30.911, 177.250 30.584 C 173.831 30.044, 105.784 22, 104.639 22 C 104.368 22, 102.145 25.262, 99.699 29.250 M 101.587 31.545 C 99.481 35.146, 97.925 38.215, 98.129 38.367 C 98.333 38.518, 100.700 39.569, 103.388 40.701 L 108.277 42.761 112.888 40.487 C 116.624 38.645, 122.293 37.682, 142.727 35.417 C 156.602 33.879, 167.844 32.511, 167.710 32.377 C 167.488 32.154, 107.754 25, 106.120 25 C 105.733 25, 103.693 27.945, 101.587 31.545 M 51.295 33.825 L 37.090 39.552 42.843 48.526 C 46.007 53.462, 48.917 58.029, 49.310 58.675 C 49.739 59.379, 44.996 65.933, 37.483 75.021 L 24.941 90.192 28.663 94.346 C 39.335 106.255, 47.571 114.985, 48.142 114.992 C 49.229 115.005, 70.118 79, 69.553 78.086 C 69.261 77.613, 67.413 76.925, 65.447 76.556 C 60.234 75.578, 61.679 73.713, 68.856 72.158 L 75.049 70.816 83.647 56.337 C 88.377 48.374, 92.303 41.191, 92.373 40.376 C 92.457 39.389, 88.315 37.081, 80 33.481 C 73.125 30.505, 67.050 28.077, 66.500 28.084 C 65.950 28.092, 59.108 30.675, 51.295 33.825 M 94.615 43.250 C 91.351 48.384, 79.120 69.453, 79.302 69.629 C 79.764 70.073, 134.572 58.758, 135.294 58.069 C 137.252 56.202, 124.572 52.992, 111.236 51.980 C 103.743 51.411, 97.466 50.799, 97.286 50.619 C 97.106 50.440, 98.849 49.042, 101.158 47.514 L 105.356 44.736 101.928 42.910 C 97.419 40.508, 96.326 40.559, 94.615 43.250 M 106.448 47.464 C 104.656 48.818, 104.941 48.937, 110 48.938 C 113.524 48.939, 114.961 48.634, 114 48.091 C 110.733 46.242, 108.326 46.043, 106.448 47.464 M 140.500 56.439 C 143.893 58.011, 145.018 58.953, 144 59.370 C 143.175 59.708, 127.896 62.934, 110.047 66.538 C 81.659 72.271, 73.951 74.284, 75.285 75.619 C 75.469 75.802, 80.767 77.051, 87.059 78.393 L 98.500 80.835 123.500 75.581 C 138.191 72.494, 148.909 70.690, 149.492 71.206 C 150.140 71.779, 150.084 72.330, 149.329 72.797 C 148.694 73.189, 131.049 78.434, 110.118 84.453 C 89.187 90.471, 72.186 95.520, 72.338 95.671 C 72.490 95.823, 84.513 96.464, 99.057 97.097 C 113.601 97.729, 125.662 98.390, 125.860 98.566 C 126.058 98.742, 122.384 103.300, 117.695 108.693 C 111.477 115.846, 109.621 118.576, 110.835 118.780 C 111.751 118.933, 118.673 119.628, 126.217 120.322 L 139.935 121.586 157.467 104.033 C 167.110 94.379, 175 86.089, 175 85.612 C 175 85.134, 171.809 78.116, 167.909 70.015 L 160.817 55.286 151.755 54.643 C 146.771 54.289, 141.074 54.028, 139.096 54.061 L 135.500 54.123 140.500 56.439 M 68.969 86.250 C 66.627 90.237, 64.527 93.832, 64.303 94.239 C 64.079 94.645, 64.482 94.779, 65.198 94.537 C 65.914 94.295, 74.600 91.773, 84.500 88.933 C 94.400 86.093, 102.660 83.624, 102.855 83.446 C 103.051 83.268, 101.476 83.135, 99.355 83.151 C 97.235 83.166, 91.246 82.239, 86.047 81.089 C 80.848 79.940, 75.836 79, 74.911 79 C 73.880 79, 71.578 81.809, 68.969 86.250 M 104.813 82.683 C 105.534 82.972, 106.397 82.936, 106.729 82.604 C 107.061 82.272, 106.471 82.036, 105.417 82.079 C 104.252 82.127, 104.015 82.364, 104.813 82.683 M 60.676 100.230 C 59.908 101.478, 57.255 105.899, 54.780 110.054 L 50.281 117.608 54.288 122.356 C 56.866 125.410, 57.951 127.449, 57.330 128.070 C 56.708 128.692, 55.212 127.603, 53.135 125.018 C 51.359 122.808, 49.530 121, 49.070 121 C 48.145 121, 41 132.587, 41 134.087 C 41 134.606, 42.600 137.441, 44.556 140.387 L 48.113 145.743 41.051 160.533 C 37.168 168.668, 34.105 175.435, 34.245 175.571 C 34.385 175.707, 48.613 173.374, 65.863 170.385 L 97.226 164.950 104.144 160.475 C 107.949 158.014, 111.900 156, 112.924 156 C 113.948 156, 118.097 156.660, 122.143 157.468 C 142.170 161.463, 171.191 166.992, 171.806 166.930 C 172.188 166.891, 160.575 160.974, 146 153.781 L 119.500 140.702 140.500 137.989 C 165.174 134.802, 167.717 134.270, 159 134.119 C 146.136 133.896, 95.492 131.763, 95.127 131.429 C 94.922 131.241, 96.653 128.930, 98.975 126.293 L 103.197 121.500 98.848 120.874 C 96.457 120.530, 87.412 119.679, 78.750 118.983 C 66.761 118.021, 63 117.394, 63 116.359 C 63 114.680, 62.955 114.679, 82.500 116.492 C 107.566 118.817, 105.257 119.356, 113.812 109.189 L 121.124 100.500 99.312 99.845 C 87.315 99.484, 74.029 98.913, 69.786 98.574 C 62.515 97.995, 61.993 98.089, 60.676 100.230" stroke="none" fill="black" fill-rule="evenodd"/>
</svg>