<svg xmlns="http://www.w3.org/2000/svg" width="200" height="200" viewBox="0 0 200 200" version="1.1">
	<path d="M 88.933 17.933 C 87.839 23.495, 87.491 24.089, 85.606 23.618 C 74.859 20.932, 38.766 12.917, 38.567 13.172 C 38.425 13.352, 36.459 20.303, 34.197 28.619 C 30.678 41.553, 29.632 47.911, 26.955 72.619 C 24.014 99.769, 23.893 102.339, 24.944 115.500 L 26.063 129.500 37.687 160.750 C 45.027 180.481, 49.808 192, 50.656 192 C 51.395 192, 52 191.766, 52 191.479 C 52 189.744, 61.183 110.483, 61.411 110.256 C 61.564 110.103, 62.453 114.576, 63.387 120.197 C 64.321 125.819, 65.196 130.530, 65.333 130.666 C 65.470 130.803, 69.764 129.772, 74.875 128.375 C 79.986 126.978, 84.281 125.985, 84.418 126.168 C 84.555 126.350, 83.524 139.209, 82.126 154.742 C 80.412 173.785, 79.913 183.313, 80.595 183.995 C 81.277 184.677, 87.089 176.863, 98.438 160.003 C 107.695 146.252, 115.408 135, 115.578 135 C 116.027 135, 127 154.672, 127 155.476 C 127 155.849, 125.354 159.986, 123.341 164.670 C 120.735 170.736, 120.019 173.394, 120.851 173.908 C 122.163 174.719, 178.907 177.426, 179.621 176.712 C 179.873 176.461, 177.091 161.777, 173.440 144.082 L 166.801 111.909 175.383 71.271 C 180.104 48.920, 183.747 30.413, 183.479 30.146 C 183.211 29.878, 171.572 30.699, 157.613 31.970 L 132.234 34.282 120.367 31.584 C 107.528 28.665, 108.928 29.502, 95.328 16.621 L 90.155 11.722 88.933 17.933 M 36.653 30.265 C 33.504 41.915, 32.258 49.494, 29.792 72 C 27.051 97.020, 26.863 100.815, 27.709 114.085 L 28.640 128.669 39.033 156.444 C 44.750 171.720, 49.620 183.639, 49.856 182.931 C 50.093 182.222, 52.370 163.161, 54.917 140.571 C 58.689 107.116, 59.821 99.500, 61.024 99.500 C 62.136 99.500, 63.099 102.891, 64.931 113.250 C 66.282 120.896, 67.839 127, 68.438 127 C 69.030 127, 73.541 125.892, 78.462 124.538 C 83.383 123.184, 87.509 122.176, 87.631 122.298 C 87.753 122.420, 86.767 134.215, 85.439 148.510 C 84.111 162.804, 83.019 175.398, 83.012 176.497 C 83.006 177.595, 90 168, 98.555 155.174 L 114.109 131.855 110.958 126.271 C 109.224 123.199, 101.774 112.669, 94.403 102.871 C 87.031 93.073, 81 84.818, 81 84.528 C 81 84.238, 82.376 84, 84.059 84 L 87.117 84 83.910 77.982 C 82.146 74.672, 80.504 72.163, 80.260 72.406 C 80.017 72.649, 79.286 75.245, 78.636 78.174 C 76.608 87.305, 75.151 85.243, 70.030 66 C 66.028 50.963, 64.296 46.366, 57.724 33.338 C 50.573 19.162, 49.861 18.132, 46.788 17.513 C 44.979 17.149, 42.825 16.666, 42 16.440 C 40.836 16.121, 39.638 19.218, 36.653 30.265 M 91.592 19.160 C 89.932 24.529, 90.029 24.688, 95.705 25.959 C 98.703 26.629, 101.363 26.970, 101.618 26.716 C 101.872 26.461, 99.814 24.356, 97.043 22.036 C 93.618 19.168, 91.874 18.248, 91.592 19.160 M 57.456 25.119 C 59.426 28.628, 64.967 38.572, 69.769 47.215 C 76.295 58.962, 78.689 62.497, 79.247 61.215 C 80.729 57.815, 86.860 27.485, 86.188 26.880 C 85.810 26.540, 78.975 24.792, 71 22.998 C 63.025 21.203, 55.909 19.510, 55.187 19.236 C 54.465 18.962, 55.485 21.609, 57.456 25.119 M 85.282 47.640 L 81.063 67.273 85.650 75.511 L 90.238 83.750 95.369 84.366 C 98.191 84.705, 103.508 84.987, 107.185 84.991 C 118.978 85.007, 117.662 82.600, 124.500 116.636 C 127.835 133.236, 130.656 145.168, 130.851 143.500 C 131.360 139.145, 127.024 44.057, 126.153 40.500 C 125.573 38.130, 124.522 41.907, 121.144 58.500 C 116.105 83.258, 116.267 82.667, 114.871 81.271 C 114.119 80.519, 114.567 74.676, 116.399 61.353 L 118.991 42.500 112.824 36.867 C 107.315 31.834, 105.872 31.061, 99.300 29.617 C 95.254 28.727, 91.393 28.002, 90.722 28.004 C 89.945 28.006, 87.964 35.157, 85.282 47.640 M 117 36.783 L 121.500 40.787 122.220 38.184 C 122.966 35.485, 121.866 34.057, 119 34.002 C 118.175 33.986, 116.375 33.704, 115 33.376 C 112.897 32.875, 113.215 33.416, 117 36.783 M 159.304 34.538 C 152.046 35.258, 145.071 36.004, 143.804 36.195 C 142.535 36.387, 145.432 37.391, 150.250 38.428 C 155.063 39.465, 159 40.525, 159 40.786 C 159 41.237, 148.154 96.786, 145.925 107.750 C 145.248 111.084, 144.346 113, 143.454 113 C 142.459 113, 142.206 112.199, 142.587 110.250 C 142.882 108.737, 145.978 93.100, 149.467 75.500 C 152.956 57.900, 155.516 43.216, 155.155 42.869 C 154.173 41.924, 130.934 36.733, 130.341 37.326 C 130.059 37.608, 132.316 46.959, 135.358 58.106 C 138.399 69.253, 140.661 78.739, 140.385 79.187 C 139.064 81.324, 138.032 78.924, 134.409 65.292 C 132.259 57.203, 130.361 51.542, 130.191 52.713 C 130.021 53.884, 131.061 79.240, 132.503 109.059 C 134.243 145.043, 134.789 163.611, 134.129 164.271 C 133.468 164.932, 132.450 164.144, 131.102 161.928 L 129.072 158.589 126.536 164.323 C 125.141 167.477, 124 170.427, 124 170.879 C 124 171.650, 129.001 172.003, 163.172 173.641 L 176.843 174.296 172.426 152.898 C 169.996 141.129, 167.083 127, 165.952 121.500 L 163.896 111.500 172.272 72.250 L 180.648 33 176.574 33.115 C 174.333 33.178, 166.562 33.819, 159.304 34.538 M 70.029 54.500 C 70.086 57.125, 75.735 76.233, 76.216 75.424 C 78.079 72.289, 78.001 67.921, 76.012 64.024 C 72.969 58.059, 70.004 53.339, 70.029 54.500 M 89.069 91.446 C 94.051 98.384, 95.832 99.251, 92.258 93 C 90.529 89.975, 88.354 87.343, 87.424 87.151 C 86.171 86.892, 86.597 88.004, 89.069 91.446 M 101.200 103.211 C 106.226 112.170, 112.061 121.791, 114.169 124.591 C 116.276 127.391, 118 130.465, 118 131.423 C 118 132.885, 128.138 152.275, 128.599 151.694 C 128.802 151.438, 116.037 88.688, 115.734 88.453 C 115.605 88.353, 110.227 87.968, 103.781 87.597 L 92.063 86.922 101.200 103.211 M 131.079 148.583 C 131.127 149.748, 131.364 149.985, 131.683 149.188 C 131.972 148.466, 131.936 147.603, 131.604 147.271 C 131.272 146.939, 131.036 147.529, 131.079 148.583 M 131.158 155 C 131.158 156.375, 131.385 156.938, 131.662 156.250 C 131.940 155.563, 131.940 154.438, 131.662 153.750 C 131.385 153.063, 131.158 153.625, 131.158 155" stroke="none" fill="black" fill-rule="evenodd"/>
</svg>