<svg xmlns="http://www.w3.org/2000/svg" width="200" height="200" viewBox="0 0 200 200" version="1.1">
	<path d="M 102.526 36.467 C 89.340 48.775, 78.437 59.218, 78.298 59.673 C 78.158 60.128, 89.088 65.634, 102.586 71.909 C 126.810 83.170, 127.204 83.402, 133.031 89.858 C 136.278 93.456, 138.836 96.496, 138.717 96.615 C 138.598 96.733, 122.975 94.631, 104 91.943 C 85.025 89.256, 69.162 87.044, 68.750 87.028 C 68.338 87.013, 68 87.608, 68 88.351 C 68 89.367, 77.101 90.977, 104.750 94.854 C 124.963 97.688, 141.838 100.005, 142.250 100.004 C 142.662 100.002, 143 100.400, 143 100.889 C 143 101.377, 141.313 102.088, 139.250 102.467 C 128.910 104.368, 126 105.255, 126 106.505 C 126 107.557, 128.492 107.808, 137.622 107.672 C 147.272 107.529, 149.417 107.769, 150.265 109.088 C 151.007 110.243, 149.581 118.965, 145.031 141.088 C 141.591 157.815, 138.437 171.867, 138.023 172.315 C 137.404 172.985, 123.833 176.925, 121.943 176.983 C 121.636 176.992, 119.208 174.034, 116.546 170.409 L 111.707 163.818 115.380 152.159 C 117.400 145.746, 119.041 140.181, 119.026 139.791 C 119.012 139.401, 112.869 141.989, 105.375 145.541 C 97.881 149.094, 91.427 152, 91.031 152 C 90.636 152, 89.519 148.216, 88.548 143.592 C 86.829 135.398, 86.837 134.792, 88.884 119.896 C 90.293 109.645, 90.646 104.399, 89.954 103.972 C 88.996 103.379, 63.797 100.838, 63.399 101.294 C 63.300 101.407, 62.427 119.275, 61.460 141 C 60.493 162.725, 59.395 180.851, 59.020 181.281 C 58.645 181.710, 53.707 172.035, 48.046 159.781 C 42.385 147.526, 37.157 136.815, 36.428 135.978 C 35.699 135.140, 32.384 132.890, 29.062 130.978 C 25.740 129.065, 23.005 126.825, 22.985 126 C 22.965 125.175, 25.073 111.147, 27.670 94.827 L 32.391 65.153 44.202 51.132 L 56.013 37.110 64.512 40.894 C 69.187 42.976, 73.218 44.884, 73.469 45.136 C 73.720 45.387, 72.410 52.097, 70.558 60.046 C 68.164 70.318, 67.515 74.701, 68.316 75.195 C 68.935 75.578, 69.530 75.803, 69.637 75.696 C 70.171 75.159, 77.128 43.794, 76.788 43.455 C 75.594 42.261, 55.743 34.041, 55.064 34.460 C 54.620 34.735, 48.758 41.501, 42.038 49.496 L 29.818 64.033 24.925 94.266 C 22.233 110.895, 20.024 125.461, 20.016 126.636 C 20.004 128.226, 21.798 129.840, 27.031 132.949 C 30.898 135.246, 34.522 137.885, 35.086 138.813 C 35.649 139.741, 41.209 151.525, 47.442 165 C 58.530 188.973, 61.987 194.270, 62.009 187.323 C 62.030 180.768, 65.985 104.681, 66.322 104.344 C 66.664 104.003, 87.238 105.982, 87.712 106.403 C 87.829 106.506, 87.014 112.870, 85.903 120.545 L 83.881 134.500 86.156 145.250 C 87.408 151.162, 88.736 156, 89.109 156 C 89.481 156, 95.507 153.300, 102.500 150 C 109.493 146.700, 115 144.562, 114.739 145.250 C 114.478 145.937, 113.053 150.478, 111.573 155.340 L 108.881 164.180 112.443 169.340 C 114.403 172.178, 117.041 175.793, 118.307 177.372 L 120.607 180.245 150.840 172.409 C 167.468 168.099, 181.604 164.245, 182.253 163.843 C 183.113 163.312, 181.378 155.019, 175.867 133.307 L 168.300 103.500 162.150 103.510 C 156.188 103.519, 154.171 102.659, 157.750 101.633 C 158.713 101.357, 163.325 100.394, 168 99.492 C 172.675 98.591, 178.107 97.441, 180.071 96.936 L 183.641 96.020 177.848 60.760 C 174.662 41.367, 172.043 25.163, 172.028 24.750 C 172.012 24.337, 171.325 24, 170.500 24 C 169.675 24, 169 24.337, 169.001 24.750 C 169.003 26.868, 153.738 98.595, 153.168 99.145 C 152.801 99.499, 151.137 100.076, 149.470 100.426 C 146.576 101.034, 146.159 100.662, 140.138 92.118 C 136.306 86.680, 132.745 82.723, 131.052 82.022 C 127.602 80.593, 118.321 70.047, 119.722 69.149 C 120.279 68.792, 126.402 64.736, 133.327 60.136 C 151.189 48.273, 151.030 49.327, 137.960 29.488 C 132.348 20.969, 127.474 14.020, 127.128 14.044 C 126.783 14.068, 115.712 24.158, 102.526 36.467 M 105.017 37.953 C 93.202 48.922, 83.399 58.302, 83.234 58.797 C 82.998 59.505, 113.445 74.377, 120 76.756 C 120.825 77.056, 119.987 75.697, 118.138 73.737 C 116.288 71.777, 115.028 69.763, 115.338 69.262 C 115.648 68.761, 122.184 64.184, 129.863 59.091 C 139.579 52.647, 144.005 49.115, 144.416 47.479 C 144.872 45.663, 143.013 42.050, 136.253 31.611 C 131.439 24.177, 127.275 18.075, 127 18.052 C 126.725 18.028, 116.833 26.984, 105.017 37.953 M 170.120 33.349 C 170.054 33.816, 167.075 48.267, 163.500 65.462 C 159.925 82.657, 157 97.177, 157 97.727 C 157 98.723, 178.470 94.863, 179.684 93.650 C 180.017 93.316, 178.029 79.421, 175.265 62.772 C 172.502 46.122, 170.186 32.882, 170.120 33.349 M 149.750 103.662 C 150.438 103.940, 151.563 103.940, 152.250 103.662 C 152.938 103.385, 152.375 103.158, 151 103.158 C 149.625 103.158, 149.063 103.385, 149.750 103.662 M 155 108.195 C 155 109.403, 156.175 111.616, 157.610 113.115 L 160.220 115.839 151.110 143.170 C 146.100 158.202, 142 170.803, 142 171.173 C 142 171.836, 178.741 162.592, 179.626 161.707 C 180.050 161.283, 170.725 122.890, 167.371 111.250 L 165.858 106 160.429 106 C 155.506 106, 155 106.204, 155 108.195 M 150.642 127.250 C 149.188 134.537, 148.033 140.950, 148.076 141.500 C 148.118 142.050, 150.136 136.687, 152.559 129.581 C 155.874 119.861, 156.692 116.333, 155.860 115.331 C 155.252 114.599, 154.424 114, 154.020 114 C 153.615 114, 152.095 119.963, 150.642 127.250" stroke="none" fill="black" fill-rule="evenodd"/>
</svg>