<svg xmlns="http://www.w3.org/2000/svg" width="200" height="200" viewBox="0 0 200 200" version="1.1">
	<path d="M 45.461 8.266 C 36.092 28.586, 24.272 57.670, 25.062 58.461 C 26.020 59.420, 28.141 57.546, 48.750 37.525 C 58.779 27.782, 58.793 27.784, 56.910 38.593 C 55.835 44.768, 55.529 45.208, 33.315 72.496 C 20.937 87.701, 10.964 100.273, 11.154 100.432 C 11.344 100.591, 22.750 101.726, 36.500 102.954 C 50.250 104.182, 62.774 105.491, 64.331 105.863 C 67.106 106.526, 66.981 106.687, 57.988 114.020 C 52.942 118.134, 47.843 122.265, 46.657 123.199 L 44.500 124.898 48.885 129.375 C 51.297 131.837, 53.040 134.448, 52.759 135.176 C 52.477 135.904, 46.344 145.500, 39.130 156.500 C 31.915 167.500, 26.420 176.637, 26.918 176.804 C 27.844 177.115, 90.078 171.393, 95.500 170.498 C 98.026 170.081, 99.516 168.404, 104.909 159.909 C 108.433 154.358, 111.820 149.623, 112.434 149.387 C 113.048 149.151, 128.352 153.932, 146.443 160.011 C 167.179 166.979, 179.686 170.714, 180.284 170.116 C 181.184 169.216, 175.684 164.920, 143.750 141.582 C 137.838 137.261, 133 133.429, 133 133.066 C 133 132.704, 141.213 131.146, 151.250 129.604 C 178.639 125.398, 181 124.916, 181 123.532 C 181 122.017, 181.189 122.040, 135.250 117.892 C 115.313 116.092, 99 114.327, 99 113.971 C 99 113.466, 113.292 104.250, 119.642 100.661 C 120.271 100.306, 133.967 100.903, 150.078 101.988 C 166.190 103.074, 179.513 103.820, 179.686 103.647 C 179.860 103.474, 178.852 97.111, 177.448 89.508 C 175.501 78.968, 175.181 75.506, 176.101 74.938 C 176.764 74.528, 179.713 73.891, 182.654 73.524 C 186.423 73.053, 188 72.417, 188 71.367 C 188 69.918, 184.034 69.979, 176.357 71.547 C 174.386 71.949, 174.087 71.286, 172.620 63.242 C 170.766 53.086, 160.063 20.994, 158.536 21.013 C 157.966 21.021, 146.535 23.881, 133.134 27.370 L 108.768 33.713 80.134 20.269 C 43.411 3.027, 47.262 4.360, 45.461 8.266 M 47.080 11.250 C 46.601 12.488, 42.965 20.925, 39 30 C 30.551 49.339, 29.883 51, 30.559 51 C 30.839 51, 37.841 44.438, 46.119 36.418 C 54.396 28.398, 61.396 22.063, 61.674 22.340 C 61.951 22.618, 61.688 26.003, 61.089 29.864 C 59.397 40.770, 59.319 40.733, 66.033 32.224 L 67.829 29.947 84.665 34.110 C 99.953 37.890, 102.680 38.913, 114.339 45.248 L 127.178 52.223 135.762 63.861 C 140.484 70.263, 144.386 75.579, 144.433 75.676 C 144.649 76.121, 170.037 72.297, 170.599 71.734 C 171.883 70.451, 167.917 53.540, 162.982 39.254 C 160.194 31.183, 157.769 24.436, 157.593 24.260 C 157.417 24.084, 146.750 26.690, 133.887 30.051 C 121.025 33.412, 109.826 36.191, 109.001 36.227 C 108.175 36.263, 94.476 30.151, 78.558 22.646 C 62.641 15.141, 49.242 9, 48.784 9 C 48.325 9, 47.559 10.012, 47.080 11.250 M 63.830 39.337 L 58.559 45.777 55.351 66.626 C 53.586 78.094, 52.261 87.595, 52.407 87.740 C 52.886 88.219, 64.789 86.748, 65.878 86.076 C 67.028 85.365, 70.428 57.559, 69.622 55.458 C 69.354 54.760, 67.755 53.885, 66.068 53.515 C 64.380 53.144, 63 52.202, 63 51.421 C 63 50.639, 63.337 50.006, 63.750 50.013 C 64.162 50.020, 81.356 55.420, 101.959 62.013 C 122.561 68.606, 139.543 74, 139.697 74 C 139.850 74, 136.761 69.612, 132.831 64.250 C 125.690 54.506, 125.678 54.496, 113.412 47.780 C 102.813 41.977, 99.185 40.573, 86.819 37.486 C 78.944 35.520, 71.735 33.683, 70.801 33.404 C 69.608 33.049, 67.528 34.819, 63.830 39.337 M 35.174 74.468 C 18.218 95.315, 16.306 98.027, 18.277 98.433 C 19.500 98.685, 31.525 99.840, 45 101 C 58.475 102.160, 70.546 103.327, 71.825 103.592 C 73.868 104.017, 72.957 105.059, 64.325 112.178 C 58.921 116.634, 53.228 121.342, 51.673 122.640 L 48.845 125.001 52.827 129.659 L 56.808 134.316 51.569 142.408 C 48.688 146.859, 42.916 155.672, 38.742 161.993 C 34.567 168.314, 31.271 173.605, 31.417 173.750 C 31.563 173.896, 46.313 172.589, 64.196 170.847 L 96.710 167.678 103.894 156.464 L 111.078 145.249 140.117 155.125 C 156.089 160.556, 169.630 165, 170.208 165 C 170.787 165, 160.867 157.395, 148.165 148.100 C 129.396 134.365, 125.485 131.105, 127.285 130.697 C 128.503 130.421, 137.713 128.940, 147.750 127.404 C 157.787 125.869, 166 124.349, 166 124.028 C 166 123.479, 97.139 116.883, 92.250 116.963 C 91.013 116.983, 90.017 116.662, 90.038 116.250 C 90.058 115.838, 96.751 111.376, 104.910 106.336 L 119.745 97.173 147.122 99.066 C 162.180 100.107, 175.001 100.968, 175.614 100.979 C 176.667 100.999, 174.049 82.906, 172.203 77.406 C 171.504 75.325, 171.281 75.348, 134.500 81.240 C 109.250 85.286, 97.012 86.864, 95.965 86.210 C 93.936 84.943, 69.761 88.218, 69.223 89.832 C 69.008 90.475, 68.169 91, 67.358 91 C 66.496 91, 66.179 90.519, 66.596 89.844 C 67.102 89.027, 66.459 88.858, 64.405 89.267 C 57.920 90.561, 49.001 91.205, 49.015 90.379 C 49.023 89.896, 50.356 80.971, 51.977 70.546 C 53.599 60.121, 54.783 51.449, 54.609 51.276 C 54.436 51.102, 45.690 61.539, 35.174 74.468 M 82.964 68.414 L 95.429 82.228 100.464 81.643 C 103.234 81.321, 112.925 80.055, 122 78.830 L 138.500 76.602 128 73.216 C 122.225 71.354, 107.673 66.689, 95.663 62.850 C 83.652 59.011, 73.077 55.585, 72.163 55.235 C 71.248 54.886, 76.109 60.817, 82.964 68.414 M 71.181 71.568 C 69.580 86.349, 69.563 86.129, 72.250 85.568 C 73.487 85.309, 78.440 84.578, 83.256 83.944 L 92.012 82.792 88.043 78.146 C 85.861 75.591, 81.440 70.605, 78.220 67.068 L 72.366 60.635 71.181 71.568" stroke="none" fill="black" fill-rule="evenodd"/>
</svg>