<svg xmlns="http://www.w3.org/2000/svg" width="200" height="200" viewBox="0 0 200 200" version="1.1">
	<path d="M 117.626 25.452 C 106.146 32.215, 96.021 37.594, 95.126 37.405 C 90.203 36.368, 24.831 29.835, 24.335 30.331 C 23.547 31.119, 27.393 87.726, 28.296 88.629 C 30.165 90.499, 30.204 86.004, 28.534 60.966 C 27.543 46.099, 26.993 33.674, 27.311 33.355 C 27.630 33.037, 32.528 33.298, 38.195 33.935 C 45.727 34.782, 48.904 35.565, 50 36.843 C 67.436 57.171, 72.889 63.652, 73.165 64.378 C 73.349 64.860, 70.013 66.617, 65.750 68.282 C 61.421 69.972, 58 71.902, 58 72.654 C 58 74.420, 58.254 74.396, 68.849 71.644 L 77.919 69.289 99.462 94.393 C 111.311 108.201, 120.638 119.621, 120.190 119.770 C 119.741 119.920, 105.058 113.265, 87.560 104.981 C 70.062 96.698, 55.513 90.153, 55.230 90.437 C 54.946 90.721, 55.173 106.376, 55.736 125.227 C 56.298 144.077, 56.608 159.667, 56.424 159.872 C 56.114 160.216, 46.512 157.827, 34.400 154.392 L 29.300 152.945 26.542 136.223 C 21.873 107.903, 21.894 108, 20.348 108 C 19.270 108, 19.058 108.815, 19.501 111.250 C 19.827 113.037, 21.580 123.410, 23.397 134.300 C 25.214 145.191, 27.106 154.464, 27.600 154.907 C 28.550 155.758, 59.115 164.264, 59.487 163.781 C 59.606 163.627, 59.307 151.350, 58.823 136.500 C 58.338 121.650, 58.067 106.087, 58.221 101.916 L 58.500 94.333 88.936 108.728 C 110.989 119.159, 120.009 122.964, 121.686 122.543 C 122.959 122.223, 124.002 122.308, 124.005 122.731 C 124.007 123.154, 126.924 126.650, 130.488 130.500 C 134.051 134.350, 136.974 137.806, 136.983 138.179 C 137.002 138.926, 134.938 138.359, 101.727 128.483 C 89.202 124.759, 78.727 121.940, 78.449 122.218 C 78.171 122.496, 83.131 131.066, 89.471 141.262 C 95.812 151.457, 101 160.190, 101 160.667 C 101 161.145, 95.344 166.252, 88.430 172.018 L 75.861 182.500 109.180 182.809 C 127.506 182.979, 147.450 182.826, 153.500 182.469 L 164.500 181.819 171.863 157.856 C 175.913 144.676, 179.046 133.712, 178.825 133.492 C 178.605 133.272, 167.976 131.342, 155.204 129.204 C 142.432 127.066, 131.730 125.064, 131.422 124.755 C 131.113 124.446, 132.800 121.687, 135.171 118.622 C 139.122 113.516, 141.133 112.165, 159.241 102.445 L 179 91.839 179 78.076 C 179 70.507, 179.288 58.956, 179.639 52.407 L 180.278 40.500 159.643 26.750 C 148.294 19.188, 138.894 13.035, 138.754 13.078 C 138.614 13.121, 129.107 18.689, 117.626 25.452 M 120.962 26.790 L 102.608 37.500 108.552 38.144 C 111.821 38.498, 122.957 39.114, 133.298 39.511 C 159.493 40.520, 158.931 41.215, 124 51.019 C 98.767 58.101, 82.293 63.627, 83.328 64.662 C 83.556 64.889, 90.431 63.402, 98.605 61.355 L 113.467 57.635 125.928 59.423 C 132.781 60.407, 138.977 61.438, 139.696 61.714 C 140.415 61.990, 134.815 66.043, 127.252 70.722 C 119.688 75.401, 113.275 79.453, 113 79.727 C 112.725 80, 115.650 79.956, 119.500 79.628 C 143.116 77.618, 142.220 77.625, 141.848 79.460 C 141.615 80.608, 136.579 83.245, 126.583 87.452 L 111.666 93.731 118.083 94.341 C 121.612 94.677, 129.675 95.211, 136 95.528 C 142.325 95.845, 148.538 96.321, 149.808 96.586 L 152.115 97.067 149.225 100.783 C 144.201 107.245, 144.539 107.334, 154.123 102.060 C 159.280 99.222, 166.255 95.504, 169.623 93.798 L 175.746 90.696 176.476 66.284 C 176.878 52.858, 177.047 41.736, 176.853 41.570 C 176.659 41.403, 168.134 35.600, 157.908 28.674 L 139.317 16.081 120.962 26.790 M 72 40.545 C 84.223 44.520, 85.519 44.633, 89.410 42.069 L 92.319 40.151 88.910 39.585 C 83.779 38.735, 66.399 36.991, 63.789 37.065 C 62.530 37.101, 66.225 38.667, 72 40.545 M 56.263 39.860 C 57.019 40.762, 61.855 46.450, 67.011 52.500 C 72.166 58.550, 76.434 63.598, 76.494 63.719 C 76.555 63.839, 82.206 61.757, 89.052 59.092 C 95.898 56.427, 110.374 51.833, 121.221 48.884 C 133.026 45.675, 140.251 43.267, 139.221 42.886 C 138.274 42.536, 128.446 41.919, 117.380 41.514 L 97.260 40.777 91.229 44.118 L 85.198 47.459 70.043 42.839 C 58.985 39.468, 55.260 38.663, 56.263 39.860 M 97.163 64.370 L 80.826 68.533 102.062 93.266 C 113.742 106.870, 123.666 118, 124.115 118 C 124.564 118, 127.812 116.417, 131.333 114.481 C 135.785 112.034, 139.135 109.179, 142.334 105.107 L 146.934 99.253 139.217 98.642 C 134.973 98.307, 127 97.779, 121.500 97.469 C 108.350 96.728, 105 96.163, 105 94.684 C 105 94.010, 111.314 90.819, 119.031 87.593 C 126.748 84.368, 132.935 81.642, 132.781 81.536 C 132.626 81.430, 126.922 81.740, 120.104 82.225 C 112.066 82.797, 107.360 82.760, 106.719 82.119 C 105.779 81.179, 114.473 75.022, 127.250 67.578 C 129.862 66.056, 132.219 64.454, 132.488 64.019 C 132.758 63.583, 129.270 62.702, 124.739 62.060 C 120.208 61.419, 115.825 60.740, 115 60.551 C 114.175 60.363, 106.148 62.081, 97.163 64.370 M 128.752 118.841 C 127.241 119.754, 126.144 120.922, 126.314 121.438 C 126.945 123.340, 128.561 122.804, 130.826 119.940 C 133.415 116.668, 132.849 116.369, 128.752 118.841 M 84.304 127.351 C 84.579 128.066, 89.348 135.960, 94.902 144.891 C 100.456 153.823, 105 161.262, 105 161.423 C 105 161.584, 100.178 165.717, 94.284 170.608 L 83.567 179.500 103.284 179.771 C 114.128 179.920, 131.827 179.920, 142.615 179.771 L 162.231 179.500 169.013 157.679 C 173.521 143.176, 175.410 135.723, 174.647 135.455 C 174.016 135.233, 165.175 133.686, 155 132.018 C 144.825 130.350, 135.438 128.743, 134.140 128.446 C 132.238 128.011, 133.073 129.388, 138.453 135.557 C 142.123 139.765, 144.950 143.383, 144.736 143.598 C 144.521 143.812, 133.131 140.657, 119.423 136.587 C 105.715 132.516, 92.094 128.481, 89.153 127.618 C 84.977 126.393, 83.915 126.335, 84.304 127.351" stroke="none" fill="black" fill-rule="evenodd"/>
</svg>