<svg xmlns="http://www.w3.org/2000/svg" width="200" height="200" viewBox="0 0 200 200" version="1.1">
	<path d="M 106.491 17.250 C 108.319 22.590, 118.894 57.423, 118.720 57.535 C 118.599 57.613, 115.350 58.820, 111.500 60.218 C 101.347 63.903, 101.716 65.563, 112.882 66.437 L 121.859 67.139 123.430 71.748 C 124.293 74.282, 125 76.726, 125 77.178 C 125 77.630, 121.400 78, 117 78 C 110.738 78, 109 78.310, 109 79.427 C 109 80.211, 109.787 81.059, 110.750 81.311 C 112.208 81.692, 112.162 81.787, 110.476 81.884 C 108.171 82.016, 81.041 77.374, 80.405 76.739 C 80.176 76.510, 83.141 63.426, 86.994 47.664 C 90.847 31.902, 94 18.780, 94 18.503 C 94 18.226, 93.422 18, 92.715 18 C 92.008 18, 87.621 23.124, 82.965 29.387 L 74.500 40.774 73.456 34.137 L 72.413 27.500 57.456 50.185 C 44.009 70.582, 42.101 73.029, 38.549 74.434 C 33.400 76.471, 34.699 77.760, 43.345 79.193 C 47.005 79.799, 50 80.761, 50 81.331 C 50 81.900, 46.902 88.021, 43.114 94.933 C 28.554 121.509, 19.766 139.166, 20.656 140.056 C 21.197 140.597, 33.976 132.684, 52.405 120.394 L 83.248 99.825 69.874 90.914 C 60.236 84.492, 57.198 82.020, 59 82.064 C 60.375 82.097, 68.613 83.334, 77.307 84.812 L 93.115 87.500 77.920 107.779 C 69.562 118.932, 62.928 128.261, 63.177 128.510 C 63.425 128.759, 73.219 130.978, 84.941 133.441 C 96.663 135.904, 106.480 138.147, 106.757 138.424 C 107.034 138.701, 104.985 141.555, 102.203 144.766 C 97.322 150.400, 96.146 151.090, 68.565 164.495 C 52.846 172.134, 40.326 178.682, 40.743 179.045 C 41.159 179.408, 45.112 180.462, 49.526 181.388 L 57.551 183.071 86.526 172.945 C 102.462 167.375, 115.920 162.417, 116.433 161.926 C 119.404 159.085, 113.091 160.793, 86.900 169.915 C 61.172 178.876, 57.199 180.002, 53.346 179.425 C 50.942 179.064, 48.777 178.449, 48.535 178.057 C 48.293 177.665, 59.369 171.979, 73.149 165.422 L 98.203 153.500 117.671 130.278 L 137.138 107.055 134.505 98.425 C 133.057 93.678, 132.101 89.566, 132.379 89.288 C 132.657 89.010, 137.462 89.618, 143.056 90.641 L 153.226 92.500 159.037 103 L 164.848 113.500 161.155 117 C 159.125 118.925, 148.584 128.737, 137.732 138.803 C 119.588 155.634, 116.445 159, 118.874 159 C 119.547 159, 155.938 126.058, 166.375 116.001 C 168.203 114.240, 168.093 113.906, 162.032 102.847 C 158.612 96.606, 155.432 91.098, 154.965 90.608 C 154.497 90.117, 149.027 88.853, 142.808 87.799 C 136.588 86.745, 131.213 85.571, 130.862 85.191 C 130.512 84.811, 129.921 83.495, 129.550 82.266 L 128.876 80.033 155.688 79.766 C 188.088 79.444, 189.102 78.897, 169.500 72.304 C 158.874 68.731, 153.943 67.668, 142.500 66.486 C 134.800 65.690, 127.532 65.031, 126.348 65.020 C 124.882 65.006, 123.874 64.077, 123.186 62.103 L 122.176 59.206 142.825 51.848 C 156.436 46.998, 163.575 43.967, 163.770 42.956 C 164.012 41.700, 161.483 41.095, 149.842 39.621 L 135.618 37.820 121.383 26.910 C 113.553 20.909, 106.903 16, 106.605 16 C 106.307 16, 106.255 16.563, 106.491 17.250 M 112.937 28.750 C 119.800 51.255, 121.433 56, 122.312 56 C 123.429 56, 153.740 45.191, 155.865 44.034 C 157.088 43.369, 142.595 41, 137.305 41 C 136.172 41, 130.009 36.950, 123.609 32 C 117.209 27.050, 111.795 23, 111.578 23 C 111.361 23, 111.972 25.587, 112.937 28.750 M 81.643 35.671 L 74.785 45.137 76.047 58.614 C 76.741 66.026, 77.627 71.733, 78.016 71.296 C 78.859 70.347, 89.346 27.004, 88.846 26.532 C 88.656 26.353, 85.414 30.465, 81.643 35.671 M 57.500 54.699 C 50.350 65.443, 44.355 74.857, 44.177 75.617 C 43.985 76.436, 44.658 77, 45.826 77 C 47.218 77, 51.371 72.158, 59.931 60.552 L 72.064 44.105 71.282 39.634 L 70.500 35.163 57.500 54.699 M 61.193 63.261 C 55.524 70.938, 51.199 77.508, 51.580 77.860 C 51.962 78.212, 52.453 78.001, 52.673 77.392 C 52.893 76.782, 53.635 75.514, 54.322 74.574 C 55.494 72.971, 56.155 72.965, 64.902 74.483 C 70.033 75.373, 74.419 75.914, 74.649 75.685 C 75.219 75.114, 72.879 51.772, 72.114 50.401 C 71.776 49.797, 66.862 55.584, 61.193 63.261 M 116.322 61.395 C 111.290 63.144, 111.294 64, 116.333 64 C 120.956 64, 121.656 63.533, 120.235 61.395 C 119.699 60.589, 118.641 60.589, 116.322 61.395 M 126.480 72.598 C 127.241 75.128, 128.007 77.283, 128.182 77.388 C 128.357 77.494, 138.625 77.400, 151 77.180 L 173.500 76.781 165.500 73.869 C 158.113 71.180, 138.412 68.083, 128.298 68.020 L 125.096 68 126.480 72.598 M 56 77.310 C 56 78.194, 59.173 79.129, 65.750 80.184 C 71.112 81.044, 75.695 81.572, 75.933 81.357 C 77.171 80.242, 73.488 78.816, 65.936 77.487 C 55.708 75.687, 56 75.693, 56 77.310 M 79.249 81.250 C 79.487 81.965, 83.372 83.091, 88.332 83.881 C 93.319 84.675, 96.977 85.737, 96.947 86.381 C 96.918 86.996, 90.204 96.275, 82.029 107 C 70.107 122.638, 67.494 126.624, 68.832 127.124 C 71.547 128.139, 107.074 135.262, 107.443 134.864 C 107.629 134.664, 108.511 125.500, 109.404 114.500 C 110.296 103.500, 111.276 92.449, 111.580 89.943 L 112.135 85.385 96.317 82.670 C 78.169 79.555, 78.700 79.600, 79.249 81.250 M 116.029 80.961 C 115.220 81.473, 114.804 82.138, 115.105 82.439 C 115.868 83.201, 126.227 85.106, 126.753 84.580 C 126.989 84.344, 126.886 83.217, 126.524 82.075 C 125.994 80.407, 125.045 80.003, 121.683 80.015 C 119.382 80.024, 116.838 80.449, 116.029 80.961 M 44.362 98.274 C 26.834 131.068, 24.691 135.310, 26.071 134.484 C 26.857 134.013, 38.899 126.033, 52.831 116.750 L 78.162 99.873 65.848 91.436 C 59.076 86.796, 53.302 83.011, 53.017 83.024 C 52.733 83.037, 48.838 89.900, 44.362 98.274 M 114.559 87.250 C 114.134 88.653, 110.963 128.206, 110.986 131.825 C 110.997 133.616, 113.352 131.321, 121.250 121.822 C 126.888 115.042, 132.081 108.753, 132.791 107.846 C 133.867 106.471, 133.625 104.693, 131.333 97.164 L 128.583 88.133 122.460 87.066 C 114.856 85.742, 115.016 85.738, 114.559 87.250" stroke="none" fill="black" fill-rule="evenodd"/>
</svg>