<svg xmlns="http://www.w3.org/2000/svg" width="200" height="200" viewBox="0 0 200 200" version="1.1">
	<path d="M 97.771 19.297 L 61.043 25.415 58.217 22.708 C 55.665 20.262, 53 19.153, 53 20.535 C 53 20.830, 53.691 22.125, 54.536 23.414 C 55.744 25.258, 55.797 25.859, 54.786 26.230 C 54.079 26.489, 43.939 28.231, 32.253 30.101 C 20.538 31.975, 11.005 33.963, 11.003 34.531 C 10.991 38.455, 32.250 123.228, 34.071 126.519 L 36.295 130.538 23.772 150.519 C 16.884 161.509, 11.370 170.639, 11.518 170.810 C 11.769 171.100, 85.310 161.042, 85.647 160.671 C 85.733 160.577, 81.803 151.531, 76.915 140.569 C 72.027 129.607, 68.208 120.459, 68.428 120.239 C 68.648 120.019, 73.929 123.652, 80.164 128.311 L 91.500 136.783 102.153 137.481 L 112.806 138.179 119.505 158.090 C 123.190 169.040, 126.320 178, 126.461 178 C 126.602 178, 135.871 174.262, 147.059 169.694 L 167.401 161.389 179.201 123.445 C 185.690 102.576, 191 85.370, 191 85.209 C 191 85.049, 173.019 84.975, 151.042 85.045 C 119.141 85.147, 110.707 84.903, 109.216 83.836 C 107.119 82.337, 72.716 40.940, 73.194 40.492 C 73.829 39.897, 120.239 27.906, 120.581 28.248 C 120.778 28.445, 118.478 29.443, 115.470 30.466 C 112.461 31.488, 110 32.385, 110 32.459 C 110 32.533, 110.922 36.820, 112.050 41.986 C 113.628 49.216, 115.346 53.579, 119.514 60.939 C 126.960 74.088, 128.352 76.018, 129.763 75.146 C 130.634 74.608, 130.325 73.465, 128.629 70.953 C 121.409 60.262, 116.581 50.147, 114.981 42.360 L 113.308 34.221 131.342 27.482 L 149.376 20.743 163.188 27.593 C 170.785 31.361, 177 34.721, 177 35.060 C 177 35.399, 172.950 44.998, 168 56.390 C 163.050 67.782, 159 77.305, 159 77.551 C 159 77.798, 159.591 78, 160.314 78 C 161.071 78, 165.708 68.575, 171.260 55.750 L 180.891 33.500 166.696 26.302 C 158.888 22.344, 153.048 19.081, 153.719 19.052 C 154.389 19.024, 154.686 18.344, 154.378 17.543 C 153.996 16.548, 152.944 16.261, 151.057 16.639 C 149.297 16.991, 146.805 16.431, 144.187 15.096 C 141.928 13.943, 138.824 13.040, 137.290 13.089 C 135.755 13.138, 117.972 15.932, 97.771 19.297 M 98.231 21.970 C 79.383 25.124, 63.731 27.936, 63.448 28.219 C 63.057 28.609, 67.200 34.238, 70.526 37.834 C 70.695 38.017, 87.083 33.855, 106.943 28.584 C 126.803 23.313, 143.378 18.986, 143.776 18.968 C 144.174 18.951, 143.626 18.276, 142.559 17.468 C 139.683 15.293, 135.738 15.694, 98.231 21.970 M 34.239 32.464 C 23.646 34.238, 14.781 35.886, 14.540 36.127 C 14.298 36.368, 18.596 55.451, 24.090 78.533 C 30.812 106.779, 34.948 122.181, 36.740 125.642 L 39.401 130.785 28.692 147.833 C 22.802 157.209, 17.745 165.502, 17.453 166.261 C 17.038 167.344, 23.466 166.728, 47.212 163.414 C 63.870 161.088, 78.496 159.031, 79.713 158.843 C 81.812 158.518, 81.387 157.291, 71.477 135.070 C 65.730 122.183, 61.134 111.533, 61.264 111.404 C 61.394 111.274, 68.313 116.248, 76.639 122.456 L 91.778 133.744 99.639 134.404 C 103.963 134.768, 109.143 135.307, 111.151 135.603 L 114.802 136.142 121.054 154.321 C 124.492 164.320, 127.645 172.886, 128.060 173.357 C 128.631 174.006, 163.005 160.985, 164.860 159.418 C 165.282 159.061, 186.941 89.855, 186.976 88.750 C 186.989 88.338, 170.098 88, 149.440 88 L 111.881 88 119.078 96.750 L 126.276 105.500 134.862 107.693 C 139.584 108.899, 143.536 109.797, 143.643 109.690 C 143.750 109.583, 142.992 105.446, 141.958 100.498 C 139.680 89.591, 139.648 89, 141.329 89 C 143.105 89, 154.674 138.726, 153.233 140.167 C 152.580 140.820, 147.616 135.554, 138.639 124.687 L 125.035 108.217 100.268 102.140 C 86.645 98.798, 68.525 94.896, 60 93.470 C 51.475 92.044, 43.754 90.568, 42.843 90.189 C 41.443 89.607, 42.421 87.357, 49.134 75.721 C 53.505 68.142, 56.835 61.541, 56.532 61.052 C 56.229 60.562, 51.269 57.538, 45.508 54.331 C 39.747 51.124, 35.027 48.275, 35.018 48 C 35.010 47.725, 41.754 45.757, 50.006 43.626 L 65.010 39.751 62.813 36.126 C 61.605 34.132, 60.144 31.712, 59.567 30.750 C 58.234 28.525, 57.458 28.578, 34.239 32.464 M 53.534 45.440 C 39.902 49.120, 39.871 47.947, 53.807 55.956 C 57.827 58.266, 60.977 60.472, 60.807 60.860 C 60.638 61.247, 57.183 67.323, 53.130 74.362 C 49.076 81.400, 46.151 87.508, 46.630 87.935 C 47.108 88.362, 53.800 89.723, 61.500 90.959 C 69.200 92.196, 85.554 95.669, 97.843 98.677 C 110.131 101.686, 120.389 103.944, 120.638 103.696 C 121.891 102.443, 103.472 82.754, 92.705 73.837 C 81.792 64.799, 79.993 62.821, 73.688 52.927 C 69.858 46.917, 66.449 42.047, 66.112 42.105 C 65.776 42.163, 60.115 43.664, 53.534 45.440 M 71.175 44 C 81.785 61.198, 82.549 62.148, 91.500 69.295 L 95.500 72.488 91.423 67.494 C 71.211 42.733, 68.335 39.395, 71.175 44 M 130 109.639 C 130 109.881, 134.500 115.510, 140 122.147 C 145.500 128.785, 150 133.976, 150 133.683 C 150 131.877, 145.637 114.353, 145.021 113.685 C 144.178 112.771, 130 108.952, 130 109.639" stroke="none" fill="black" fill-rule="evenodd"/>
</svg>