<svg xmlns="http://www.w3.org/2000/svg" width="200" height="200" viewBox="0 0 200 200" version="1.1">
	<path d="M 52 13.883 C 52 17.477, 50.545 17.931, 38.500 18.095 C 33.550 18.162, 26.910 18.506, 23.743 18.859 L 17.987 19.500 33.506 36 C 42.042 45.075, 49.920 52.644, 51.013 52.820 C 52.448 53.050, 53 53.919, 53 55.948 C 53 58.569, 52.568 58.865, 46.544 60.378 C 42.994 61.270, 39.430 62, 38.625 62 C 37.819 62, 34.783 58.737, 31.877 54.750 L 26.593 47.500 20.845 91.500 L 15.096 135.500 22.391 147.500 C 39.274 175.274, 40.441 176.982, 42.533 176.991 C 43.651 176.996, 57.811 178.125, 74 179.500 C 90.189 180.875, 105.091 182, 107.116 182 L 110.798 182 127.316 140.750 C 136.402 118.063, 144.087 100.175, 144.396 101 C 144.704 101.825, 148.609 120.275, 153.074 142 C 157.539 163.725, 161.381 181.695, 161.612 181.933 C 163.746 184.130, 163.642 175.039, 160.934 122.555 L 157.945 64.631 161.967 60.534 L 165.988 56.436 149.861 35.218 L 133.733 14 129.117 13.982 C 126.577 13.973, 112.350 14.491, 97.500 15.135 L 70.500 16.304 62.198 13.652 C 57.632 12.193, 53.470 11, 52.948 11 C 52.427 11, 52 12.298, 52 13.883 M 55 15.552 C 55 16.553, 56.133 17, 58.667 17 C 62.855 17, 62.794 16.733, 58.250 15.200 C 55.575 14.298, 55 14.360, 55 15.552 M 105.260 17.468 C 92.478 18.116, 81.813 18.854, 81.560 19.107 C 81.306 19.360, 87.313 21.454, 94.907 23.760 C 102.501 26.066, 109.447 28.234, 110.343 28.578 C 111.488 29.017, 112.266 28.430, 112.961 26.602 C 113.505 25.171, 114.605 24, 115.404 24 C 117.009 24, 117.039 19.333, 114.889 105 C 114.275 129.475, 113.652 149.634, 113.504 149.799 C 112.985 150.377, 82.870 155.203, 82.443 154.776 C 82.205 154.538, 83.388 148.079, 85.073 140.422 C 87.712 128.429, 92.027 104.722, 91.632 104.389 C 91.559 104.328, 85.565 103.990, 78.311 103.638 L 65.121 102.998 61.029 110.749 L 56.937 118.500 57.218 138.276 C 57.459 155.140, 57.286 158.011, 56.046 157.772 C 55.050 157.579, 53.590 153.083, 51.410 143.495 L 48.227 129.500 51.230 123.549 C 54.174 117.713, 54.222 117.372, 53.713 106.049 C 53.428 99.697, 52.588 92.352, 51.847 89.727 C 50.363 84.469, 28.687 53.512, 28.269 56.053 C 28.138 56.849, 25.769 74.985, 23.005 96.356 L 17.980 135.212 29.595 154.112 C 35.983 164.507, 41.579 173.240, 42.030 173.519 C 42.481 173.797, 56.272 175.135, 72.675 176.490 C 89.079 177.846, 103.893 179.150, 105.597 179.390 L 108.693 179.824 126.597 134.998 C 136.443 110.344, 144.691 90.363, 144.926 90.595 C 145.160 90.828, 148.609 106.651, 152.591 125.759 C 156.574 144.866, 159.861 159.600, 159.897 158.500 C 159.932 157.400, 158.869 135.575, 157.534 110 L 155.107 63.500 158.713 59.795 C 161.345 57.090, 162.047 55.740, 161.312 54.795 C 160.759 54.083, 153.890 45.063, 146.047 34.750 C 137.007 22.863, 131.186 16.053, 130.144 16.145 C 129.240 16.225, 118.042 16.820, 105.260 17.468 M 60.250 19.737 L 55 20.105 55 34.052 C 55 44.413, 55.316 48, 56.228 48 C 58.152 48, 107 31.600, 107 30.954 C 107 29.988, 70.438 18.987, 67.885 19.185 C 66.573 19.287, 63.138 19.535, 60.250 19.737 M 34.179 20.747 C 28.502 20.925, 24.002 21.440, 24.179 21.890 C 24.355 22.340, 30.450 28.951, 37.723 36.581 C 45.953 45.215, 51.284 50.085, 51.841 49.477 C 52.333 48.940, 52.512 42.088, 52.240 34.250 L 51.744 20 48.122 20.211 C 46.130 20.327, 39.855 20.568, 34.179 20.747 M 83 42.434 L 55.500 51.710 55.826 54.598 C 56.005 56.186, 56.245 57.578, 56.358 57.691 C 56.472 57.805, 58.497 57.407, 60.858 56.808 L 65.152 55.718 70.332 60.835 L 75.513 65.951 84.257 66.623 C 91.011 67.142, 93 67.632, 93 68.777 C 93 70.011, 91.789 70.147, 85.750 69.590 L 78.500 68.922 85.793 76.118 C 89.952 80.222, 93.443 82.924, 93.916 82.407 C 94.610 81.649, 111.189 32.841, 110.672 33.079 C 110.577 33.122, 98.125 37.332, 83 42.434 M 105.089 58.833 C 100.463 72.400, 96.281 84.593, 95.796 85.930 C 94.933 88.303, 94.748 88.197, 87.899 81.430 C 79.650 73.280, 80.909 72.647, 72.443 89.198 L 66.967 99.903 70.234 100.402 C 72.030 100.677, 78.147 101.108, 83.826 101.361 C 89.506 101.613, 94.340 102.006, 94.568 102.235 C 95.117 102.783, 90.585 128.502, 87.613 141.703 L 85.261 152.151 87.381 151.657 C 88.546 151.385, 94.282 150.394, 100.128 149.455 L 110.755 147.747 111.427 131.124 C 112.165 112.839, 113.993 34.660, 113.689 34.356 C 113.585 34.251, 109.714 45.266, 105.089 58.833 M 59.250 60.119 C 57.462 60.635, 56 61.711, 56 62.510 C 56 64.168, 58.293 64.806, 65.705 65.214 L 70.911 65.500 67.759 62.250 C 64.370 58.755, 64.157 58.702, 59.250 60.119 M 47.500 63 C 45.896 63.689, 46.242 63.873, 49.250 63.930 C 51.313 63.968, 53 63.550, 53 63 C 53 61.806, 50.279 61.806, 47.500 63 M 46.165 74.418 L 52.500 83.138 52.794 75.447 C 52.956 71.216, 52.920 67.586, 52.713 67.380 C 52.507 67.174, 49.523 66.710, 46.084 66.351 L 39.829 65.697 46.165 74.418 M 56.225 83.306 L 56.500 99.500 60.040 99.798 L 63.581 100.096 70.864 86.298 C 76.032 76.507, 77.884 72.077, 77.241 71.042 C 76.111 69.223, 72.530 68.359, 63.225 67.659 L 55.951 67.112 56.225 83.306 M 56.733 107.250 C 57.031 109.588, 57.353 111.603, 57.449 111.728 C 57.545 111.853, 58.602 109.941, 59.798 107.478 L 61.974 103 59.082 103 C 56.262 103, 56.204 103.105, 56.733 107.250 M 52.240 127.373 C 51.443 129.122, 51.503 131.159, 52.469 135.123 L 53.779 140.500 53.889 132.750 C 53.950 128.488, 53.847 125, 53.661 125 C 53.474 125, 52.834 126.068, 52.240 127.373" stroke="none" fill="black" fill-rule="evenodd"/>
</svg>