<svg xmlns="http://www.w3.org/2000/svg" width="200" height="200" viewBox="0 0 200 200" version="1.1">
	<path d="M 133 26.613 L 112.500 40.994 100 64.974 C 93.125 78.163, 87.195 88.964, 86.822 88.977 C 85.550 89.020, 56.514 75.042, 56.273 74.270 C 55.734 72.544, 58.712 70.521, 86.991 53.408 L 116.482 35.562 111.991 34.350 C 109.521 33.683, 103.900 32.359, 99.500 31.408 C 95.100 30.456, 92.063 29.488, 92.750 29.255 C 93.956 28.848, 94.569 26, 93.450 26 C 93.148 26, 91.686 26.625, 90.200 27.390 C 87.741 28.656, 84.625 28.133, 55.250 21.531 C 37.512 17.544, 22.973 14.331, 22.941 14.391 C 22.908 14.451, 22.465 35.650, 21.955 61.500 C 21.061 106.859, 20.896 109.591, 17.217 139.750 C 15.120 156.938, 13.790 171, 14.262 171 C 14.733 171, 21.690 167.848, 29.721 163.995 C 37.752 160.142, 44.411 157.104, 44.519 157.245 C 44.627 157.385, 45.575 161.043, 46.626 165.373 L 48.537 173.247 56.370 164.088 C 61.813 157.724, 64.706 155.080, 65.851 155.421 C 69.037 156.372, 102.616 165, 103.128 165 C 103.413 165, 106.502 158.709, 109.991 151.019 L 116.336 137.038 119.668 142.569 C 121.501 145.611, 123 148.692, 123 149.416 C 123 150.139, 120.544 156.736, 117.543 164.076 C 114.542 171.415, 112.264 177.597, 112.481 177.814 C 112.864 178.197, 183.224 170.191, 183.522 169.730 C 183.783 169.327, 172.124 108.790, 171.704 108.370 C 171.482 108.149, 163.246 105.643, 153.401 102.801 C 143.555 99.959, 135.319 97.497, 135.097 97.330 C 134.736 97.058, 137.430 90.882, 148.761 66.002 L 152.176 58.503 154.719 61.502 C 162.454 70.620, 176.350 84.050, 177.185 83.215 C 177.766 82.634, 175.216 72.641, 170.470 56.890 C 166.263 42.925, 162.641 31.318, 162.423 31.096 C 162.204 30.874, 159.696 35.711, 156.850 41.846 C 154.003 47.981, 151.334 53, 150.918 53 C 150.503 53, 146.112 48.656, 141.161 43.346 L 132.160 33.692 131.133 37.596 C 126.619 54.746, 117.927 93.367, 118.339 94.441 C 118.621 95.176, 121.187 96.376, 124.041 97.107 C 126.895 97.839, 129.463 99.044, 129.748 99.786 C 130.867 102.701, 128.396 103.160, 118.052 101.958 C 108.125 100.803, 107.808 100.829, 106.368 102.886 C 104.025 106.230, 101.308 105.523, 98.982 100.965 C 96.628 96.351, 95.507 96.485, 94.568 101.489 L 93.909 105 80.933 105 C 68.651 105, 67.602 105.161, 61.340 108 C 57.701 109.650, 54.397 111, 53.998 111 C 53.599 111, 52.068 109.263, 50.596 107.139 L 47.921 103.278 50.543 77.889 C 51.984 63.925, 53.538 51.553, 53.995 50.395 C 54.547 48.994, 60.318 45.499, 71.235 39.954 L 87.645 31.618 98.439 33.987 C 108.138 36.115, 109.044 36.497, 107.367 37.748 C 106.340 38.513, 93.947 46.088, 79.827 54.580 C 56.849 68.400, 54.084 70.341, 53.482 73.081 C 53.112 74.765, 52.965 76.272, 53.155 76.430 C 53.345 76.588, 61.246 80.335, 70.713 84.756 C 82.977 90.485, 88.178 92.465, 88.805 91.648 C 89.290 91.016, 95.367 79.700, 102.310 66.500 L 114.935 42.500 134.967 28.515 C 145.985 20.824, 155 14.213, 155 13.824 C 155 11.592, 151.564 13.589, 133 26.613 M 24.696 61.250 C 24.101 102.486, 23.906 105.894, 20.500 134.443 C 18.535 150.912, 17.056 164.919, 17.214 165.570 C 17.392 166.307, 22.486 164.381, 30.706 160.468 L 43.913 154.182 42.973 150.907 C 42.457 149.106, 42.217 147.450, 42.440 147.227 C 42.662 147.004, 45.242 147.350, 48.172 147.995 C 53.487 149.165, 53.525 149.156, 64.099 144.120 C 74.082 139.367, 75.128 138.573, 82.099 130.462 C 87.108 124.634, 89.849 120.501, 90.581 117.675 C 91.175 115.379, 91.955 112.329, 92.313 110.898 L 92.964 108.295 81.369 107.724 L 69.774 107.153 62.262 110.577 C 58.131 112.460, 54.174 114, 53.469 114 C 52.764 114, 50.579 111.762, 48.614 109.026 L 45.040 104.052 48.020 76.478 C 49.659 61.313, 51 48.504, 51 48.014 C 51 47.524, 58.313 43.424, 67.250 38.903 L 83.500 30.684 55.500 24.363 C 40.100 20.887, 27.010 18.033, 26.410 18.021 C 25.650 18.006, 25.132 31.070, 24.696 61.250 M 157.600 46.599 C 154.722 52.856, 153.946 55.545, 154.607 56.976 C 155.351 58.584, 172.726 77, 173.500 77 C 173.828 77, 162.323 38.989, 161.852 38.518 C 161.651 38.318, 159.738 41.954, 157.600 46.599 M 133 40.662 C 133 41.027, 130.280 52.737, 126.956 66.686 C 123.631 80.635, 121.145 92.425, 121.430 92.887 C 122.299 94.293, 131.032 96.370, 131.981 95.395 C 132.461 94.903, 136.702 86.018, 141.405 75.652 L 149.958 56.804 142.229 48.410 C 135.115 40.684, 133 38.908, 133 40.662 M 132.638 101.501 C 132.287 102.416, 132 103.294, 132 103.453 C 132 103.612, 135.713 104.049, 140.250 104.424 C 149.611 105.198, 152 105.735, 152 107.067 C 152 107.588, 147.036 108.003, 140.750 108.008 L 129.500 108.015 123.632 121.001 L 117.765 133.988 121.882 140.919 C 124.147 144.731, 126 148.499, 126 149.292 C 126 150.085, 123.797 156.082, 121.105 162.617 C 118.413 169.153, 116.319 174.619, 116.452 174.764 C 116.761 175.100, 179.367 167.809, 179.891 167.375 C 180.106 167.198, 177.888 154.284, 174.964 138.679 L 169.646 110.307 153.073 105.503 C 143.958 102.861, 135.775 100.505, 134.888 100.269 C 134.001 100.032, 132.989 100.587, 132.638 101.501 M 109.750 104.706 C 110.987 104.944, 113.013 104.944, 114.250 104.706 C 115.487 104.467, 114.475 104.272, 112 104.272 C 109.525 104.272, 108.513 104.467, 109.750 104.706 M 95.647 109.750 C 95.378 110.713, 94.845 112.625, 94.461 114 L 93.762 116.500 96.881 113.563 C 98.597 111.948, 100 110.035, 100 109.313 C 100 107.348, 96.210 107.729, 95.647 109.750 M 104.564 108.897 C 104.001 109.808, 115.014 129.971, 116.085 129.990 C 116.650 130, 126 109.837, 126 108.608 C 126 107.629, 105.174 107.910, 104.564 108.897 M 97 117.509 C 93.840 121.210, 92.036 124.525, 90.942 128.640 C 89.407 134.412, 89.282 134.554, 82.642 138.074 C 76.433 141.365, 65.941 151.274, 67.263 152.597 C 68.305 153.639, 101.527 161.820, 102.097 161.175 C 102.426 160.804, 105.407 154.575, 108.721 147.333 L 114.747 134.165 109.012 124.021 C 105.858 118.442, 102.877 113.508, 102.389 113.057 C 101.900 112.607, 99.475 114.610, 97 117.509 M 84.652 131.572 C 81.832 134.965, 82.138 136.163, 85.208 133.750 C 86.551 132.694, 88.776 127.854, 87.817 128.072 C 87.643 128.112, 86.218 129.687, 84.652 131.572 M 63 147.621 C 58.281 149.853, 57.784 150.338, 59.500 151.041 C 62.867 152.419, 63.666 152.126, 66.432 148.500 C 67.900 146.575, 68.966 145.004, 68.801 145.010 C 68.635 145.015, 66.025 146.190, 63 147.621 M 46 151.969 C 46 152.501, 46.675 152.678, 47.500 152.362 C 48.325 152.045, 49 151.609, 49 151.393 C 49 151.177, 48.325 151, 47.500 151 C 46.675 151, 46 151.436, 46 151.969 M 50.399 153.776 C 48.804 154.594, 47.413 155.329, 47.306 155.409 C 47.071 155.586, 48.859 163.955, 49.542 165.873 C 49.869 166.790, 51.437 165.656, 54.266 162.458 C 61.528 154.247, 61.491 154.368, 57.125 153.260 C 54.193 152.516, 52.619 152.636, 50.399 153.776" stroke="none" fill="black" fill-rule="evenodd"/>
</svg>