<svg xmlns="http://www.w3.org/2000/svg" width="200" height="200" viewBox="0 0 200 200" version="1.1">
	<path d="M 126.690 11.256 L 116.916 16.381 89.208 14.878 C 70.238 13.850, 61.281 13.701, 60.804 14.409 C 60.422 14.977, 60.237 15.571, 60.394 15.728 C 60.552 15.885, 71.835 16.668, 85.468 17.468 C 99.102 18.268, 110.396 19.063, 110.567 19.233 C 110.738 19.404, 102.085 24.150, 91.340 29.779 L 71.802 40.014 60.964 36.620 C 47.648 32.450, 45.567 33.722, 56.057 39.622 C 59.850 41.755, 62.957 43.725, 62.961 44 C 62.966 44.275, 59.939 46.101, 56.235 48.057 L 49.500 51.615 48.457 57.557 C 47.884 60.826, 47.598 70.196, 47.822 78.380 L 48.229 93.260 56.365 84.639 L 64.500 76.018 73.380 77.759 L 82.259 79.500 64.757 96 C 55.131 105.075, 47.450 112.837, 47.687 113.250 C 47.924 113.662, 57.316 114, 68.559 114 C 79.802 114, 89 114.281, 89 114.625 C 89 115.342, 68.924 178.375, 68.580 178.740 C 68.455 178.872, 67.089 168.972, 65.544 156.740 C 63.999 144.508, 62.457 133.974, 62.118 133.332 C 61.732 132.603, 58.114 135.174, 52.500 140.165 C 47.550 144.565, 41.602 149.746, 39.282 151.677 L 35.064 155.188 28.914 152.844 L 22.764 150.500 23.487 105.610 L 24.210 60.721 36.374 44.110 C 53.612 20.572, 53.358 20.958, 52.330 19.930 C 51.775 19.375, 45.529 26.995, 36.490 39.257 L 21.567 59.500 20.768 100 C 20.328 122.275, 20.088 143.125, 20.234 146.333 L 20.500 152.165 27.349 155.083 C 31.116 156.687, 34.716 157.993, 35.349 157.985 C 35.982 157.977, 41.743 153.269, 48.151 147.523 C 58.615 138.139, 59.856 137.300, 60.327 139.287 C 60.616 140.504, 62.115 151.525, 63.658 163.779 C 65.958 182.040, 66.733 186.005, 67.959 185.769 C 68.981 185.573, 73.149 173.922, 81.117 148.991 L 92.780 112.500 85.640 111.881 C 81.713 111.540, 72.791 111.203, 65.813 111.131 L 53.125 111 63.313 101.200 C 85.913 79.459, 85.559 79.744, 88.986 80.497 C 91.471 81.043, 91.868 81.454, 90.962 82.546 C 88.840 85.103, 91.053 86.299, 93.555 83.948 L 95.900 81.746 105.700 83.425 C 111.090 84.349, 116.432 85.485, 117.571 85.950 C 119.031 86.545, 120.908 90.082, 123.927 97.926 L 128.211 109.057 121.769 119.279 C 113.044 133.121, 83.699 184.032, 84.171 184.505 C 84.380 184.713, 100.695 182.303, 120.427 179.150 L 156.303 173.416 159.959 164.958 C 162.660 158.710, 165.407 148.332, 170.469 125.245 C 174.238 108.054, 177.137 93.806, 176.911 93.583 C 176.685 93.359, 171.100 92.221, 164.500 91.055 C 145.818 87.752, 147 88.133, 147 85.421 C 147 82.463, 145.601 82.304, 143.682 85.043 C 142.270 87.060, 142.127 87.065, 132.376 85.433 C 126.944 84.524, 122.105 83.412, 121.622 82.962 C 120.004 81.454, 113.076 62.686, 113.731 61.586 C 114.983 59.485, 123.508 50.025, 124.161 50.013 C 124.525 50.006, 130.096 57.226, 136.542 66.057 C 144.187 76.532, 148.735 81.932, 149.624 81.591 C 150.780 81.147, 179.838 64.236, 180.848 63.419 C 181.040 63.264, 174.814 53.022, 167.012 40.659 L 152.829 18.182 142.995 17.841 C 137.587 17.653, 132.846 17.183, 132.460 16.795 C 132.073 16.408, 132.976 14.010, 134.467 11.467 C 135.957 8.924, 137.016 6.683, 136.820 6.487 C 136.625 6.291, 132.066 8.437, 126.690 11.256 M 125.500 15.068 L 122.500 16.989 125.050 16.995 C 127.535 17, 130 15.409, 130 13.800 C 130 12.605, 128.831 12.934, 125.500 15.068 M 98 29.264 C 87.275 34.914, 77.878 39.929, 77.117 40.409 C 76.176 41.003, 80.648 42.833, 91.117 46.137 C 99.578 48.808, 107.026 50.994, 107.669 50.996 C 108.806 51, 126.498 21.165, 125.783 20.450 C 125.586 20.253, 123.642 19.844, 121.462 19.542 C 117.884 19.047, 115.608 19.990, 98 29.264 M 119.679 37.404 C 111.213 52.458, 110.012 55.155, 110.975 56.952 C 112.023 58.911, 112.463 58.609, 118.216 51.990 C 121.586 48.114, 124.640 45.293, 125.004 45.721 C 125.369 46.150, 131.002 53.808, 137.523 62.741 C 148.645 77.975, 149.507 78.902, 151.440 77.696 C 152.573 76.989, 158.795 73.287, 165.267 69.470 C 172.049 65.470, 176.840 62.027, 176.578 61.343 C 176.240 60.461, 152.277 22.093, 151.616 21.374 C 151.552 21.305, 146.550 20.954, 140.500 20.595 L 129.500 19.941 119.679 37.404 M 70.616 43.812 C 70.206 44.475, 100.212 62.500, 101.726 62.500 C 101.978 62.500, 103.297 60.614, 104.659 58.308 L 107.134 54.116 89.726 48.558 C 70.735 42.495, 71.338 42.644, 70.616 43.812 M 58.820 49.702 C 55.007 51.790, 51.857 54.248, 51.481 55.430 C 50.520 58.455, 49.618 86, 50.480 86 C 50.882 86, 53.977 83.099, 57.356 79.553 L 63.500 73.107 73.874 75.039 L 84.248 76.971 87.874 74.074 C 92.399 70.458, 98.508 64.146, 97.932 63.683 C 96.429 62.475, 66.907 46.004, 66.277 46.022 C 65.850 46.034, 62.494 47.690, 58.820 49.702 M 106.335 61.090 C 105.221 62.965, 103.254 66.267, 101.964 68.427 C 99.025 73.346, 100.619 72.435, 105.773 66.247 C 108.622 62.828, 109.537 60.966, 109.045 59.590 C 108.443 57.907, 108.120 58.086, 106.335 61.090 M 104.694 71.577 C 101.562 75.201, 99 78.486, 99 78.878 C 99 79.521, 117.157 83.084, 117.749 82.557 C 118.077 82.265, 111.869 66.723, 111.034 65.744 C 110.679 65.329, 107.826 67.954, 104.694 71.577 M 93 73 L 87.500 77.936 90.591 77.968 C 93.283 77.996, 94.033 77.355, 96.403 73 C 97.900 70.250, 98.984 68.014, 98.812 68.032 C 98.641 68.049, 96.025 70.285, 93 73 M 123 87.381 C 123 87.717, 125.651 94.859, 128.948 103.405 L 130.068 106.310 135.034 98.446 C 137.765 94.121, 140 90.292, 140 89.937 C 140 89.583, 136.876 88.777, 133.057 88.147 C 125.819 86.951, 123 86.737, 123 87.381 M 141.084 108.750 C 138.687 118.513, 136.490 126.911, 136.203 127.412 C 135.916 127.914, 134.422 125.045, 132.883 121.037 C 131.343 117.029, 129.867 113.534, 129.603 113.270 C 128.861 112.527, 121.117 125.026, 104.368 154 C 95.943 168.575, 89.444 180.635, 89.926 180.800 C 90.736 181.078, 154.325 171.133, 154.537 170.696 C 158.894 161.708, 161.951 151.143, 167.568 125.656 C 171.185 109.241, 174 95.708, 173.822 95.582 C 173.220 95.154, 149.183 91, 147.308 91 C 145.721 91, 144.791 93.650, 141.084 108.750 M 136.398 101.223 L 131.296 109.270 132.935 113.589 C 133.837 115.964, 134.836 118.169, 135.155 118.488 C 135.474 118.807, 137.162 113.371, 138.906 106.406 C 140.650 99.442, 141.947 93.616, 141.789 93.460 C 141.630 93.304, 139.204 96.798, 136.398 101.223" stroke="none" fill="black" fill-rule="evenodd"/>
</svg>