<svg xmlns="http://www.w3.org/2000/svg" width="200" height="200" viewBox="0 0 200 200" version="1.1">
	<path d="M 120.267 10.588 C 119.704 14.390, 117.963 26.643, 116.399 37.817 L 113.554 58.135 105.439 63.037 C 100.976 65.733, 96.643 68.200, 95.809 68.520 C 94.527 69.012, 94.094 66.697, 92.998 53.480 L 91.703 37.859 83.231 25.849 C 72.504 10.642, 70.986 11.079, 76.748 27.717 C 84.101 48.946, 95.647 82.095, 103.395 104.216 C 107.578 116.161, 110.993 126.286, 110.984 126.716 C 110.970 127.366, 98.530 136.800, 94.517 139.204 C 93.658 139.719, 92.880 135.145, 91.624 122.204 C 88.899 94.126, 88.880 94, 87.268 94 C 86.114 94, 85.936 94.985, 86.410 98.750 C 86.738 101.362, 87.927 112.709, 89.052 123.965 C 90.177 135.221, 91.217 144.550, 91.364 144.697 C 91.892 145.225, 113.506 128.761, 113.779 127.623 C 113.933 126.982, 110.849 117.242, 106.926 105.979 C 103.004 94.716, 98.769 82.540, 97.515 78.921 L 95.236 72.343 105.618 66.117 C 111.328 62.694, 116 59.690, 116 59.443 C 116 58.782, 121.873 19.085, 122.561 15.095 C 123.126 11.823, 123.493 12.316, 131.959 27.704 C 140.183 42.653, 140.811 44.208, 141.413 51.109 C 141.768 55.174, 142.322 61.155, 142.645 64.401 L 143.231 70.302 161.366 69.712 C 171.340 69.388, 178.825 69.486, 178 69.931 C 177.175 70.375, 169.050 73.963, 159.944 77.903 L 143.388 85.068 140.111 108.284 C 138.309 121.053, 136.648 132.189, 136.419 133.030 C 136.107 134.182, 140.024 136.224, 152.252 141.286 C 167.173 147.462, 169.087 148.010, 175.691 148.005 C 179.646 148.002, 183.082 148.338, 183.328 148.750 C 183.573 149.162, 178.377 156.475, 171.781 165 C 165.186 173.525, 159.226 181.296, 158.538 182.268 C 157.391 183.888, 155.412 182.922, 134.893 170.720 C 122.577 163.396, 109.033 155.063, 104.795 152.202 C 100.557 149.341, 96.507 147.014, 95.795 147.030 C 95.083 147.047, 83.262 153.996, 69.526 162.473 C 55.790 170.949, 44.488 177.798, 44.411 177.692 C 44.334 177.587, 41.060 173.014, 37.135 167.532 L 30 157.564 30 107.154 L 30 56.744 33.750 57.312 C 35.813 57.625, 41.252 58.415, 45.837 59.068 L 54.175 60.256 53.637 63.378 C 53.341 65.095, 52.108 77.975, 50.895 92 L 48.691 117.500 55.095 132.742 C 58.618 141.126, 62.004 147.988, 62.621 147.992 C 64.665 148.006, 65.235 132.348, 65.170 78 L 65.106 24.500 68.345 32.500 C 70.126 36.900, 76.740 53.886, 83.042 70.247 C 89.590 87.248, 95.036 99.996, 95.750 99.997 C 96.438 99.999, 96.996 99.662, 96.992 99.250 C 96.987 98.838, 89.823 80.050, 81.070 57.500 C 71.197 32.061, 64.653 16.500, 63.828 16.500 C 62.738 16.500, 62.500 27.473, 62.500 77.667 C 62.500 111.308, 62.218 139.115, 61.873 139.460 C 61.529 139.805, 59.041 134.839, 56.344 128.425 L 51.442 116.763 54.102 87.631 C 55.565 71.609, 56.590 58.312, 56.380 58.082 C 55.929 57.589, 32.466 54.064, 29.386 54.026 L 27.272 54 27.271 106.250 L 27.270 158.500 35.367 169.750 C 39.820 175.938, 43.755 181, 44.110 181 C 44.466 181, 56.134 174.005, 70.041 165.455 C 83.947 156.906, 95.925 150.141, 96.659 150.423 C 97.393 150.704, 101.258 153.127, 105.247 155.807 C 114.234 161.843, 156.593 187.011, 157.695 186.969 C 158.426 186.941, 188.112 148.808, 188.789 147.025 C 188.949 146.606, 184.449 145.961, 178.789 145.592 C 169.219 144.969, 167.482 144.501, 153.931 138.903 L 139.363 132.884 142.601 110.322 C 144.382 97.913, 146.213 87.414, 146.670 86.991 C 147.126 86.567, 156.613 82.285, 167.750 77.474 C 179.663 72.328, 188 68.175, 188 67.386 C 188 66.293, 184.445 66.145, 168.750 66.584 C 158.162 66.880, 148.728 67.274, 147.785 67.458 C 145.585 67.889, 145.288 66.691, 144.446 54 L 143.750 43.500 133.919 25.500 C 120.662 1.229, 121.514 2.160, 120.267 10.588 M 79.199 26 C 80.945 31.669, 90.315 58.009, 90.505 57.782 C 90.634 57.627, 90.227 53, 89.600 47.500 C 88.495 37.807, 88.311 37.301, 83.599 31 C 80.925 27.425, 78.945 25.175, 79.199 26" stroke="none" fill="black" fill-rule="evenodd"/>
</svg>