<svg xmlns="http://www.w3.org/2000/svg" width="200" height="200" viewBox="0 0 200 200" version="1.1">
	<path d="M 97.515 28.199 C 97.738 30.014, 98.163 35.050, 98.459 39.390 L 98.998 47.280 93.367 54.162 C 90.270 57.948, 87.373 61.270, 86.928 61.544 C 86.114 62.048, 63.182 45.053, 63.063 43.859 C 63.029 43.507, 67.275 39.780, 72.500 35.577 C 77.725 31.375, 82 27.838, 82.001 27.718 C 82.002 27.598, 72.976 27.647, 61.945 27.826 C 47.500 28.060, 41.487 27.819, 40.456 26.963 C 39.322 26.023, 38.895 26.111, 38.405 27.387 C 37.870 28.781, 35.523 29.002, 21.143 29.014 C 4.080 29.028, 0 29.462, 0 31.265 C 0 31.958, 6.883 32.120, 20.980 31.757 L 41.960 31.217 50.114 37.589 C 60.603 45.786, 58.781 47.223, 46.432 40.492 C 41.690 37.906, 37.467 36.176, 37.050 36.646 C 36.489 37.276, 21.481 73.476, 16.276 86.750 C 15.895 87.721, 19.703 88, 33.346 88 L 50.906 88 51.926 91.694 C 52.487 93.725, 52.845 95.457, 52.723 95.541 C 52.600 95.626, 47.879 96.945, 42.231 98.474 C 28.203 102.270, 27.352 103.707, 38.608 104.588 C 42.398 104.885, 46.574 105.348, 47.886 105.617 L 50.272 106.106 47.766 108.803 C 46.387 110.286, 38.407 120.500, 30.033 131.500 L 14.807 151.500 30.654 152.115 C 39.369 152.453, 51.112 152.790, 56.750 152.865 L 67 153 67 161 C 67 167.944, 67.231 169.003, 68.750 169.022 C 69.713 169.035, 77.122 167.827, 85.216 166.338 L 99.933 163.631 100.450 159.566 C 100.735 157.330, 101.895 142.174, 103.029 125.887 C 104.990 97.724, 105.015 95.231, 103.546 74.985 C 102.696 63.277, 102 52.467, 102 50.963 C 102 49.189, 103.623 46.259, 106.622 42.615 C 109.165 39.527, 111.567 37, 111.961 37 C 112.354 37, 114.266 44.166, 116.209 52.925 L 119.741 68.851 117.221 105.175 C 114.711 141.372, 114.708 141.554, 116.493 156.796 C 117.965 169.363, 118.557 172.039, 119.810 171.796 C 120.872 171.590, 124.750 160.717, 132.578 136 C 140.719 110.296, 143.984 101.190, 144.412 103 C 144.736 104.375, 147.481 122.118, 150.512 142.428 C 153.543 162.738, 156.161 179.494, 156.330 179.663 C 156.499 179.833, 159.861 171.540, 163.801 161.236 L 170.965 142.500 158 104.565 C 150.870 83.701, 145.252 66.414, 145.517 66.150 C 145.782 65.885, 153.979 67.738, 163.733 70.267 C 173.488 72.796, 181.605 74.728, 181.773 74.560 C 181.941 74.392, 175.566 66.653, 167.606 57.361 L 153.134 40.467 133.444 37.219 C 114.734 34.132, 113.340 33.745, 105.432 29.434 L 97.109 24.898 97.515 28.199 M 58.575 30.951 L 46.649 31.500 53.416 36.719 L 60.183 41.938 67.092 36.356 C 70.891 33.286, 74 30.600, 74 30.387 C 74 30.174, 73.213 30.091, 72.250 30.201 C 71.287 30.312, 65.134 30.649, 58.575 30.951 M 100.850 37.248 L 101.200 44.500 105.100 40.121 C 107.245 37.713, 108.997 35.463, 108.992 35.121 C 108.986 34.589, 101.656 30.004, 100.802 29.998 C 100.636 29.997, 100.657 33.259, 100.850 37.248 M 115.996 38.231 C 115.993 38.929, 117.431 45.972, 119.192 53.882 L 122.392 68.263 120.015 104.969 C 117.883 137.915, 117.773 142.874, 118.944 153.380 C 119.661 159.818, 120.351 164.953, 120.475 164.792 C 120.600 164.632, 125.792 148.412, 132.013 128.750 C 139.466 105.193, 143.780 93, 144.662 93 C 145.398 93, 146 93.239, 146 93.531 C 146 94.601, 157.033 167.531, 157.338 168.481 C 157.512 169.020, 160 163.426, 162.868 156.050 L 168.082 142.638 154.468 102.725 C 146.981 80.773, 141.102 62.565, 141.405 62.262 C 141.708 61.959, 149.030 63.562, 157.675 65.825 C 166.320 68.088, 173.573 69.761, 173.791 69.542 C 174.216 69.117, 152.027 43, 151.241 43 C 150.415 43, 120.587 38.002, 118.250 37.472 C 116.832 37.150, 115.998 37.431, 115.996 38.231 M 29.135 62.492 C 24.111 74.862, 20 85.212, 20 85.492 C 20 85.771, 26.750 86, 35 86 C 43.250 86, 50 85.620, 50 85.156 C 50 84.692, 48.654 77.666, 47.009 69.543 L 44.017 54.774 46.259 53.006 C 47.491 52.033, 49.578 50.361, 50.896 49.291 L 53.293 47.344 46.612 43.672 C 42.938 41.653, 39.557 40, 39.101 40 C 38.644 40, 34.159 50.121, 29.135 62.492 M 59.014 46.750 C 59.022 47.163, 61.385 48.753, 64.264 50.285 L 69.500 53.069 65.500 49.549 C 61.741 46.242, 58.982 45.051, 59.014 46.750 M 51.266 52.753 L 47.031 56.500 50.167 71.250 L 53.303 86 60.086 86 L 66.869 86 75.185 75.965 C 79.758 70.445, 83.633 65.546, 83.796 65.077 C 84.029 64.407, 57.223 48.992, 55.845 49.003 C 55.655 49.004, 53.594 50.692, 51.266 52.753 M 84.627 68.820 L 70.754 85.500 80.448 85.787 C 87.497 85.996, 90.033 86.405, 89.743 87.287 C 89.524 87.954, 83.360 90.142, 76.046 92.149 C 66.346 94.811, 62.067 96.479, 60.233 98.312 C 56.656 101.889, 57.801 104, 63.319 104 L 67.701 104 68.350 113.154 C 68.708 118.188, 69.003 126.401, 69.008 131.404 C 69.013 137.419, 69.650 142.588, 70.890 146.664 C 72.699 152.613, 72.701 152.845, 70.943 153.305 C 69.356 153.720, 69.196 154.533, 69.699 159.640 C 70.016 162.863, 70.384 165.633, 70.516 165.795 C 70.866 166.224, 95.790 161.754, 96.832 161.074 C 97.317 160.758, 98.727 146.205, 99.965 128.733 C 102.016 99.808, 102.108 95.246, 100.998 77.733 C 99.128 48.236, 100.931 49.217, 84.627 68.820 M 54 88.935 C 54 89.449, 54.436 91.016, 54.968 92.416 C 56.059 95.285, 57.973 95.077, 61.750 91.677 C 65.068 88.690, 64.552 88, 59 88 C 56.250 88, 54 88.421, 54 88.935 M 66.983 90.032 C 65.981 91.904, 66.116 92.010, 68.698 91.377 C 70.239 90.999, 73.075 90.116, 75 89.415 L 78.500 88.141 73.285 88.070 C 69.024 88.013, 67.872 88.372, 66.983 90.032 M 47.500 99.872 C 42.345 101.162, 41.852 101.474, 44 102.087 C 48.439 103.354, 53.028 103.090, 53.626 101.533 C 54.706 98.718, 53.459 98.380, 47.500 99.872 M 48.368 112.216 C 37.091 126.283, 20.812 148.145, 21.270 148.604 C 21.540 148.873, 31.869 149.367, 44.225 149.700 L 66.690 150.307 66.224 144.689 C 65.570 136.799, 56.613 106.575, 54.823 106.216 C 54.043 106.059, 51.138 108.759, 48.368 112.216 M 59.266 107.254 C 59.528 107.939, 61.038 113, 62.621 118.500 L 65.500 128.500 65.786 118.120 C 65.944 112.411, 65.944 107.638, 65.786 107.513 C 65.629 107.389, 63.990 106.999, 62.145 106.648 C 59.682 106.178, 58.916 106.339, 59.266 107.254" stroke="none" fill="black" fill-rule="evenodd"/>
</svg>