<svg xmlns="http://www.w3.org/2000/svg" width="200" height="200" viewBox="0 0 200 200" version="1.1">
	<path d="M 118.879 21.511 L 85.258 28.706 64.122 25.194 C 52.496 23.262, 42.778 21.889, 42.525 22.142 C 42.272 22.395, 40.459 36.529, 38.496 53.551 C 36.533 70.573, 34.067 89.225, 33.014 95 C 31.187 105.031, 25.361 167.695, 26.180 168.514 C 26.396 168.730, 38.707 164.382, 53.537 158.851 L 80.500 148.796 95 151.533 C 102.975 153.038, 110 154.546, 110.611 154.885 C 111.302 155.267, 108.373 160.616, 102.883 169 C 98.021 176.425, 94.033 182.775, 94.021 183.111 C 93.995 183.873, 151.214 168.218, 152.093 167.223 C 155.073 163.851, 174.093 135.818, 173.834 135.179 C 173.650 134.725, 168.887 130.123, 163.250 124.951 C 157.613 119.780, 153.018 115.313, 153.040 115.024 C 153.061 114.736, 159.779 107.116, 167.967 98.091 L 182.854 81.682 171.677 73.728 C 165.530 69.354, 160.195 65.488, 159.823 65.137 C 158.691 64.072, 152.799 20.753, 153.387 17.817 C 153.688 16.310, 153.612 14.906, 153.217 14.697 C 152.823 14.487, 137.371 17.554, 118.879 21.511 M 124.037 25.653 C 110.032 29.745, 98.453 33.214, 98.306 33.360 C 98.160 33.507, 103.206 33.429, 109.520 33.188 C 119.633 32.801, 121 32.942, 121 34.374 C 121 35.821, 118.774 36.002, 100.750 36.015 C 89.612 36.024, 79.963 36.372, 79.307 36.789 C 78.541 37.276, 85.105 43.212, 97.651 53.380 C 110.732 63.982, 116.855 69.545, 116.183 70.217 C 115.510 70.890, 107.813 67.728, 92.886 60.647 C 80.626 54.831, 70.453 50.213, 70.281 50.386 C 70.109 50.558, 72.563 58.416, 75.734 67.848 L 81.500 84.997 103.128 84.998 L 124.756 85 126.890 79.250 C 128.453 75.040, 129.423 68.550, 130.512 55.023 C 131.331 44.860, 132 35.973, 132 35.273 C 132 34.573, 132.726 34, 133.614 34 C 134.934 34, 135.124 34.771, 134.658 38.250 C 133.754 45.010, 132.712 62.550, 133.248 62 C 134.014 61.214, 150.154 18.818, 149.809 18.498 C 149.639 18.341, 138.041 21.561, 124.037 25.653 M 41.119 54.750 C 39.286 71.113, 36.935 88.993, 35.896 94.484 C 34.508 101.813, 29 157.506, 29 164.207 C 29 164.998, 33.775 163.349, 63.758 152.199 L 82.015 145.410 64.258 139.109 C 54.491 135.644, 46.194 132.514, 45.819 132.154 C 45.445 131.794, 48.595 127.614, 52.819 122.864 C 57.044 118.115, 65.116 109.049, 70.759 102.719 C 77.828 94.788, 80.826 90.711, 80.402 89.605 C 79.897 88.289, 78.092 88, 70.393 88 C 61.603 88, 61 87.869, 61 85.959 C 61 84.836, 62.164 76.217, 63.587 66.805 C 65.010 57.392, 65.975 48.652, 65.732 47.381 C 65.489 46.110, 65.638 44.942, 66.062 44.785 C 66.486 44.628, 67.140 42.842, 67.515 40.816 C 68.197 37.139, 68.192 37.132, 64.426 36.816 C 59.002 36.361, 59.140 34.473, 64.710 32.934 C 70.652 31.293, 70.845 31.257, 74.417 31.115 C 76.021 31.052, 77.134 30.801, 76.891 30.557 C 76.476 30.143, 47.277 25, 45.340 25 C 44.851 25, 42.952 38.387, 41.119 54.750 M 141.159 49.747 C 133.785 68.990, 131.768 75.377, 131.299 80.969 C 130.768 87.302, 130.498 88, 128.571 88 C 126.958 88, 126.032 89.077, 124.809 92.378 L 123.186 96.756 130.843 97.983 C 135.054 98.659, 138.828 99.409, 139.229 99.652 C 139.630 99.894, 132.343 111.501, 123.037 125.445 C 107.478 148.756, 106.293 150.844, 108.308 151.385 C 109.514 151.708, 111.486 151.979, 112.691 151.986 C 113.896 151.994, 115.138 152.414, 115.451 152.921 C 115.764 153.427, 112.416 159.390, 108.010 166.171 C 103.604 172.952, 100.337 178.594, 100.750 178.710 C 101.162 178.825, 112.424 175.888, 125.775 172.182 L 150.050 165.444 160.546 150.647 L 171.043 135.851 163.771 129.114 C 159.772 125.409, 154.747 120.795, 152.603 118.861 L 148.707 115.343 163.825 98.757 L 178.943 82.172 167.688 74.218 L 156.432 66.264 154.049 48.936 C 152.739 39.405, 151.389 30.245, 151.048 28.581 C 150.521 26.002, 149.059 29.131, 141.159 49.747 M 99.500 28.366 C 96.750 29.011, 94.981 29.844, 95.570 30.217 C 96.158 30.590, 99.308 30.043, 102.570 29.001 C 109.125 26.908, 107.310 26.532, 99.500 28.366 M 78.500 33 C 76.524 33.503, 78.913 33.770, 85.500 33.782 C 91.897 33.794, 94.599 33.512, 93 33 C 89.864 31.996, 82.447 31.996, 78.500 33 M 70.607 38.582 C 70.273 39.452, 70 41.632, 70 43.426 C 70 46.657, 70.157 46.764, 86.250 54.454 C 95.188 58.724, 103.175 62.473, 104 62.783 C 104.825 63.093, 98.216 57.419, 89.312 50.173 C 80.409 42.928, 72.695 37, 72.169 37 C 71.644 37, 70.941 37.712, 70.607 38.582 M 68.066 55.500 C 68.018 56.050, 67.084 62.300, 65.989 69.389 C 64.895 76.478, 64 82.891, 64 83.639 C 64 84.657, 65.763 85, 71 85 C 74.850 85, 78 84.651, 78 84.224 C 78 82.897, 68.159 54.441, 68.066 55.500 M 85.613 89.013 C 86.535 89.935, 120.040 96.452, 120.429 95.786 C 121.231 94.409, 123 89.708, 123 88.953 C 123 88.382, 115.301 88, 103.800 88 C 90.831 88, 84.929 88.329, 85.613 89.013 M 66.480 111.597 C 57.326 121.849, 50.211 130.578, 50.668 130.995 C 51.350 131.616, 102.391 150, 103.434 150 C 104.024 150, 135.261 101.927, 134.878 101.608 C 134.670 101.434, 131.709 100.857, 128.297 100.325 L 122.094 99.359 114.347 119.679 C 110.086 130.856, 106.338 140, 106.019 140 C 105.700 140, 100.747 129.619, 95.012 116.931 C 89.277 104.243, 84.256 93.658, 83.854 93.410 C 83.452 93.161, 75.633 101.346, 66.480 111.597 M 93.458 106.907 C 97.001 114.673, 101.118 123.741, 102.606 127.057 C 104.095 130.374, 105.665 132.730, 106.095 132.294 C 107.681 130.686, 119.043 99.647, 118.285 98.995 C 117.853 98.624, 111.650 97.307, 104.500 96.069 C 97.350 94.830, 90.491 93.585, 89.258 93.302 C 87.207 92.831, 87.565 93.993, 93.458 106.907" stroke="none" fill="black" fill-rule="evenodd"/>
</svg>