<svg xmlns="http://www.w3.org/2000/svg" width="200" height="200" viewBox="0 0 200 200" version="1.1">
	<path d="M 99.500 23.510 C 94 26.508, 89.132 29.092, 88.681 29.253 C 88.231 29.414, 88.551 39.394, 89.393 51.431 C 90.234 63.467, 90.707 73.665, 90.444 74.091 C 90.180 74.517, 89.980 90.759, 89.998 110.183 C 90.016 129.607, 89.491 152.588, 88.832 161.250 L 87.633 177 81.441 177 L 75.248 177 72.124 164.526 C 69.176 152.757, 69.001 150.992, 69.010 133.276 C 69.015 122.949, 69.474 105.819, 70.031 95.208 L 71.043 75.917 63.771 66.500 C 59.772 61.321, 56.275 57.074, 56 57.063 C 55.725 57.051, 52.350 61.388, 48.500 66.700 C 44.650 72.011, 40.477 77.766, 39.226 79.488 L 36.951 82.620 38.917 120.560 L 40.883 158.500 29.306 169.500 L 17.729 180.500 90.114 180.383 L 162.500 180.267 173 175.507 C 178.775 172.889, 183.881 170.400, 184.346 169.977 C 185.261 169.145, 182.026 168.366, 163.397 164.934 L 151.295 162.704 137.023 167.852 C 129.174 170.683, 122.470 173, 122.126 173.001 C 121.782 173.001, 121.500 162.989, 121.500 150.751 C 121.500 138.513, 121.139 121.943, 120.699 113.930 L 119.897 99.359 135.807 98.258 L 151.718 97.156 162.824 90.328 C 168.932 86.573, 173.945 83.220, 173.965 82.878 C 174.049 81.395, 140.649 80.433, 127.399 81.537 C 120.624 82.101, 118.995 81.972, 118.975 80.868 C 118.961 80.116, 119.931 70.471, 121.129 59.435 L 123.308 39.370 117.484 28.685 C 114.280 22.808, 111.173 18.013, 110.580 18.029 C 109.986 18.045, 105 20.512, 99.500 23.510 M 100.118 26.262 L 90.737 31.317 91.489 38.409 C 92.724 50.050, 93.104 142.205, 91.979 157.500 C 91.413 165.200, 90.748 172.737, 90.500 174.250 L 90.050 177 104.525 177 L 119 177 119 155.111 C 119 143.072, 118.525 125.247, 117.944 115.500 C 117.364 105.753, 117.099 97.568, 117.356 97.311 C 117.613 97.054, 125.251 96.277, 134.330 95.586 L 150.837 94.328 158 90 C 162.932 87.020, 164.743 85.436, 163.813 84.915 C 161.766 83.770, 138.930 83.434, 126.458 84.366 L 115.416 85.191 117.928 62.667 L 120.440 40.144 116.470 32.591 C 109.813 19.927, 111.013 20.391, 100.118 26.262 M 47.610 72.637 L 39.828 83.275 41.413 116.887 C 42.285 135.374, 43.207 152.358, 43.463 154.630 C 43.924 158.716, 43.826 158.862, 34.214 168.393 L 24.500 178.027 48 177.376 C 60.925 177.018, 71.621 176.628, 71.770 176.509 C 71.918 176.391, 70.681 170.574, 69.020 163.583 C 66.331 152.264, 66 149.160, 66 135.233 C 66 126.631, 66.487 109.976, 67.083 98.223 L 68.165 76.854 62.477 69.427 C 59.348 65.342, 56.474 62, 56.090 62 C 55.706 62, 51.890 66.787, 47.610 72.637 M 135.115 171.418 L 120.730 176.706 130.115 177.347 C 135.277 177.700, 144.118 178.047, 149.763 178.118 C 159.647 178.242, 160.347 178.104, 168.719 174.373 L 177.412 170.500 166.456 168.336 C 160.430 167.146, 154.150 166.163, 152.500 166.152 C 150.850 166.140, 143.027 168.510, 135.115 171.418" stroke="none" fill="black" fill-rule="evenodd"/>
</svg>