<svg xmlns="http://www.w3.org/2000/svg" width="200" height="200" viewBox="0 0 200 200" version="1.1">
	<path d="M 92.558 11.031 C 82.140 15.957, 72.800 20.246, 71.801 20.563 C 70.526 20.968, 67.957 19.336, 63.157 15.070 C 59.401 11.731, 56.052 9, 55.716 9 C 55.379 9, 50.883 14.962, 45.725 22.250 C 16.830 63.073, 12.757 69.157, 13.700 70.100 C 14.345 70.745, 21.713 61.080, 35.091 42.042 C 46.315 26.069, 55.805 13, 56.179 13 C 56.554 13, 59.254 15.213, 62.180 17.919 C 66.639 22.041, 67.215 22.949, 65.739 23.530 C 64.590 23.982, 62.342 23.158, 59.272 21.161 C 56.684 19.478, 54.393 18.274, 54.181 18.485 C 53.970 18.697, 54.545 21.126, 55.461 23.883 L 57.126 28.895 42.563 48.053 C 34.553 58.590, 28 67.588, 28 68.047 C 28 71.048, 31.068 67.732, 43.397 51.404 C 51.040 41.282, 57.601 33, 57.978 33 C 58.672 33, 67.059 58.663, 66.965 60.500 C 66.936 61.050, 57.463 67.800, 45.912 75.500 L 24.910 89.500 25.552 109.500 L 26.193 129.500 33.719 153 C 37.858 165.925, 41.540 176.828, 41.901 177.229 C 42.590 177.993, 92.050 165.404, 93.110 164.196 C 93.445 163.813, 94.481 151.575, 95.412 137 L 97.105 110.500 107.803 90.840 C 113.686 80.028, 118.605 71.283, 118.734 71.408 C 118.863 71.533, 117.869 85.334, 116.526 102.076 L 114.083 132.516 100.512 160.346 C 93.048 175.652, 86.842 188.699, 86.721 189.338 C 85.961 193.336, 91.950 187.088, 115.280 159.541 C 129.701 142.514, 141.902 128.650, 142.393 128.732 C 142.884 128.814, 148.921 142.521, 155.810 159.191 C 162.698 175.861, 168.491 189.695, 168.684 189.933 C 173.181 195.507, 164.172 137.601, 153.874 94.752 C 149.936 78.363, 146.925 64.742, 147.184 64.483 C 147.443 64.224, 153.539 67.160, 160.732 71.006 C 179.841 81.226, 180.126 80.812, 165.750 63.696 C 159.367 56.097, 151.762 45.364, 145.591 35.246 C 140.141 26.311, 135.416 19.005, 135.091 19.011 C 134.766 19.018, 117.625 48.794, 97 85.181 L 59.500 151.340 58.738 132.920 C 58.236 120.795, 57.267 111.140, 55.902 104.669 C 54.762 99.262, 53.980 94.723, 54.164 94.583 C 54.349 94.442, 61.025 96.433, 69 99.007 C 76.975 101.580, 83.616 103.408, 83.758 103.068 C 83.900 102.728, 81.113 93.474, 77.564 82.503 C 74.014 71.532, 71.246 62.420, 71.412 62.254 C 71.578 62.088, 80.180 61.511, 90.528 60.972 C 100.875 60.433, 109.472 59.861, 109.632 59.702 C 109.792 59.542, 110.388 49.081, 110.957 36.456 C 111.526 23.830, 112.175 10.912, 112.401 7.750 C 112.626 4.588, 112.516 2.017, 112.155 2.038 C 111.795 2.059, 102.976 6.106, 92.558 11.031 M 91.549 14.574 C 81.701 19.222, 73.476 23.191, 73.273 23.394 C 72.999 23.668, 99.362 47.995, 104.208 51.940 C 104.598 52.257, 104.583 53.057, 104.174 53.718 C 103.666 54.541, 97.203 50.643, 83.648 41.337 C 58.223 23.883, 58.348 23.866, 64.887 44 L 69.597 58.500 88.048 58.131 C 98.197 57.929, 106.710 57.569, 106.966 57.332 C 107.370 56.959, 109.950 6.814, 109.591 6.312 C 109.517 6.208, 101.398 9.926, 91.549 14.574 M 133.693 26.163 C 132.887 27.448, 115.921 57.300, 95.992 92.500 C 76.062 127.700, 59.024 157.625, 58.128 159 C 56.593 161.357, 56.468 160.101, 55.931 137 C 55.407 114.391, 55.146 111.668, 52.549 101.715 C 51.002 95.784, 49.940 90.727, 50.190 90.477 C 50.439 90.227, 57.249 92.236, 65.322 94.940 C 73.395 97.645, 80 99.566, 80 99.209 C 80 97.756, 68.503 64.003, 68.021 64.041 C 67.735 64.063, 58.725 70.063, 48 77.374 L 28.500 90.667 28.654 110.084 L 28.808 129.500 36.232 152 C 40.316 164.375, 44.071 174.440, 44.578 174.367 C 45.405 174.248, 90.269 162.772, 90.662 162.580 C 90.752 162.536, 91.571 151.025, 92.483 137 C 93.396 122.975, 94.590 110.375, 95.138 109 C 97.754 102.431, 119.607 64, 120.726 64 C 122.375 64, 122.438 62.261, 119.406 100.480 L 116.789 133.460 112.251 142.480 C 103.364 160.145, 93.929 180.476, 95.302 179 C 96.070 178.175, 106.425 165.967, 118.314 151.870 C 137.821 128.742, 141.387 125, 143.922 125 C 144.339 125, 149.331 136.246, 155.016 149.991 C 160.701 163.735, 165.511 174.822, 165.706 174.627 C 165.900 174.433, 164.473 163.975, 162.534 151.387 C 160.281 136.760, 156.062 116.136, 150.844 94.243 C 146.354 75.402, 142.925 59.742, 143.224 59.443 C 143.523 59.143, 149.558 61.921, 156.634 65.616 C 166.273 70.649, 168.982 71.728, 167.436 69.917 C 166.301 68.588, 162.869 64.575, 159.809 61 C 156.749 57.425, 150.087 47.750, 145.004 39.500 C 139.922 31.250, 135.627 24.348, 135.461 24.163 C 135.296 23.978, 134.500 24.878, 133.693 26.163 M 67.607 25.827 C 67.326 26.281, 71.237 29.460, 76.298 32.890 L 85.500 39.127 78 32.107 C 70.753 25.323, 68.689 24.076, 67.607 25.827" stroke="none" fill="black" fill-rule="evenodd"/>
</svg>