<svg xmlns="http://www.w3.org/2000/svg" width="200" height="200" viewBox="0 0 200 200" version="1.1">
	<path d="M 58.530 9.750 C 58.939 10.713, 59.494 27.164, 59.764 46.308 C 60.119 71.477, 60.566 80.991, 61.377 80.664 C 61.995 80.415, 64.885 79.261, 67.801 78.100 L 73.101 75.989 67.801 86.119 C 64.885 91.690, 61.038 97.752, 59.250 99.591 C 57.444 101.449, 56 103.983, 56 105.296 C 56 108.716, 34.081 148.968, 32.540 148.377 C 31.539 147.993, 24.729 155.779, 14.682 168.792 C 14.045 169.618, 14.032 170.432, 14.644 171.044 C 15.257 171.657, 18.473 168.392, 23.541 162.011 C 29.116 154.992, 31.957 152.169, 33.086 152.527 C 34.323 152.920, 37.196 148.332, 45.596 132.545 C 51.593 121.274, 56.742 112.040, 57.037 112.026 C 57.333 112.012, 59.319 119.669, 61.451 129.042 C 63.583 138.415, 65.591 146.228, 65.914 146.405 C 66.236 146.581, 72.800 145.879, 80.500 144.846 C 88.200 143.812, 95.165 143.091, 95.979 143.243 C 98.390 143.693, 62.965 163.098, 43.250 172.127 C 33.212 176.724, 25 181.051, 25 181.742 C 25 182.434, 25.294 183, 25.653 183 C 26.012 183, 35.040 178.951, 45.715 174.001 C 61.022 166.904, 80.751 156.389, 103.093 143.420 C 103.419 143.231, 105.166 146.997, 106.976 151.788 C 108.786 156.580, 112.040 165.112, 114.207 170.750 L 118.148 181 137.324 180.993 C 147.871 180.989, 159.455 180.707, 163.066 180.365 L 169.632 179.745 174.478 166.623 C 177.143 159.405, 180.136 151.384, 181.129 148.797 L 182.934 144.094 176.217 141.958 L 169.500 139.822 151.750 145.860 C 141.987 149.181, 133.991 151.584, 133.979 151.199 C 133.967 150.815, 133.299 141.050, 132.494 129.500 C 131.689 117.950, 131.024 107.122, 131.015 105.437 C 131.001 102.597, 132.153 101.591, 146.849 91.602 L 162.699 80.830 171.875 67.415 C 176.922 60.037, 180.889 54, 180.690 54 C 180.491 54, 171.258 57.771, 160.170 62.380 L 140.012 70.761 137.099 61.130 C 135.498 55.834, 133.011 44.525, 131.573 36 C 130.136 27.475, 128.735 19.488, 128.461 18.250 C 127.980 16.080, 127.564 16, 116.718 16 L 105.473 16 100.790 24.750 C 92.994 39.314, 95.783 39.549, 76.247 22.684 C 66.892 14.608, 58.911 8, 58.512 8 C 58.113 8, 58.121 8.787, 58.530 9.750 M 62.788 45.341 C 63.037 62.479, 63.336 76.612, 63.452 76.748 C 63.568 76.884, 66.326 75.840, 69.581 74.427 L 75.500 71.857 83.500 56.851 C 87.900 48.597, 91.593 41.317, 91.707 40.672 C 91.821 40.027, 85.259 33.804, 77.124 26.841 L 62.334 14.183 62.788 45.341 M 103.410 25.750 C 101.382 29.462, 98.842 34.061, 97.766 35.970 L 95.808 39.439 98.671 41.970 C 100.245 43.361, 103.600 46.300, 106.126 48.500 L 110.719 52.500 108.883 70 C 107.873 79.625, 106.791 99.650, 106.479 114.500 L 105.912 141.500 112.822 159.500 L 119.732 177.500 143.576 177.500 L 167.420 177.500 173.203 162.142 C 176.383 153.696, 178.786 146.463, 178.543 146.069 C 178.299 145.675, 176.220 144.733, 173.922 143.974 C 169.829 142.624, 169.362 142.727, 150.951 149.043 C 140.615 152.589, 131.955 155.268, 131.708 154.995 C 131.460 154.723, 130.734 145.950, 130.094 135.500 C 129.454 125.050, 128.662 113.078, 128.334 108.897 L 127.737 101.293 144.183 90.125 C 160.083 79.328, 160.834 78.662, 166.814 70.031 C 170.216 65.122, 173 60.886, 173 60.618 C 173 60.350, 165.912 63.075, 157.250 66.674 C 148.588 70.273, 140.760 73.433, 139.855 73.698 C 137.495 74.387, 132.634 58.109, 128.934 37.128 C 127.321 27.983, 126.001 20.163, 126.001 19.750 C 126 19.337, 121.747 19, 116.549 19 L 107.098 19 103.410 25.750 M 87.155 55.687 C 83.122 63.094, 80.015 69.348, 80.252 69.586 C 80.490 69.823, 83.976 68.659, 88 67 C 92.024 65.341, 95.465 64.131, 95.646 64.312 C 95.827 64.493, 94.402 69.338, 92.480 75.079 L 88.985 85.515 75.750 93.591 C 57.653 104.633, 58.238 103.199, 63.147 124.500 C 65.302 133.850, 67.235 141.994, 67.442 142.597 C 67.707 143.366, 72.962 143.021, 84.978 141.446 C 94.415 140.210, 102.301 139.032, 102.504 138.829 C 102.707 138.627, 103.176 127.670, 103.548 114.480 C 103.920 101.291, 105.039 82.175, 106.036 72 L 107.847 53.500 104.674 50.728 C 102.928 49.203, 99.923 46.665, 97.995 45.088 L 94.490 42.220 87.155 55.687 M 83.205 71.832 L 76.909 74.500 70.894 85.779 L 64.878 97.058 75.798 90.355 L 86.718 83.652 88.859 77.005 C 90.037 73.349, 91 70.053, 91 69.679 C 91 68.664, 90.085 68.916, 83.205 71.832" stroke="none" fill="black" fill-rule="evenodd"/>
</svg>