<svg xmlns="http://www.w3.org/2000/svg" width="200" height="200" viewBox="0 0 200 200" version="1.1">
	<path d="M 80.527 25.458 C 76.801 43.353, 75.644 45.149, 64.719 50.014 L 56.092 53.855 36.125 54.570 C 17.579 55.233, 12.577 55.911, 14.203 57.537 C 14.559 57.892, 21.296 58.442, 29.175 58.760 L 43.500 59.337 36 62.816 L 28.500 66.295 39.909 68.640 C 46.185 69.930, 51.457 71.124, 51.625 71.292 C 51.794 71.461, 53.772 80.577, 56.020 91.549 C 60.905 115.388, 60.799 115, 62.425 115 C 63.300 115, 65.435 107.090, 69.044 90.486 C 71.974 77.003, 74.676 66.315, 75.048 66.736 C 76.767 68.679, 89.126 103.271, 88.362 104.004 C 87.888 104.460, 76.475 110.550, 63 117.538 C 49.525 124.525, 38.166 130.544, 37.758 130.913 C 36.881 131.706, 29.814 166.147, 30.406 166.740 C 30.629 166.963, 41.767 159.069, 55.156 149.199 C 68.545 139.329, 79.633 131.366, 79.795 131.505 C 79.957 131.643, 78 136.424, 75.446 142.128 L 70.803 152.500 72.557 166.787 C 73.522 174.645, 74.661 181.290, 75.088 181.554 C 75.515 181.818, 85.344 176.583, 96.932 169.922 C 116.404 158.727, 118 157.599, 118 155.028 C 118 153.498, 116.855 141.775, 115.455 128.977 C 114.055 116.179, 113.042 105.036, 113.205 104.216 C 113.367 103.395, 115.463 108.173, 117.862 114.832 L 122.223 126.941 142.311 149.937 C 153.360 162.585, 162.494 172.836, 162.610 172.717 C 162.923 172.393, 167 138.410, 167 136.121 C 167 134.974, 161.132 127.769, 152.998 118.928 C 140.995 105.881, 139.176 103.481, 140.248 102.112 C 140.937 101.234, 147.462 93.676, 154.750 85.316 C 166.104 72.293, 169.781 67, 167.476 67 C 167.187 67, 157.644 73.528, 146.269 81.506 C 130.840 92.327, 125.393 95.666, 124.824 94.649 C 123.905 93.008, 113 62.792, 113 61.888 C 113 61.539, 126.612 60.950, 143.250 60.579 C 175.157 59.868, 179.341 59.524, 178.721 57.663 C 178.509 57.028, 173.198 54.735, 166.918 52.568 C 160.638 50.400, 155.154 48.061, 154.731 47.368 C 153.788 45.824, 123.338 25, 122.024 25 C 121.505 25, 117.575 26.552, 113.291 28.448 L 105.500 31.896 100.275 26.757 C 97.401 23.930, 95.196 21.471, 95.375 21.291 C 95.555 21.112, 106.906 21.870, 120.601 22.975 C 150.189 25.364, 149 25.334, 149 23.702 C 149 22.719, 141.897 21.855, 119.750 20.142 L 90.500 17.880 87.452 14.940 C 85.776 13.323, 84.163 12, 83.867 12 C 83.571 12, 82.068 18.056, 80.527 25.458 M 84.068 22.118 C 83.437 25.059, 82.672 28.598, 82.367 29.983 C 82.033 31.503, 83.262 30.160, 85.471 26.592 C 89.103 20.728, 89.115 20.671, 87.172 18.728 C 85.229 16.785, 85.207 16.809, 84.068 22.118 M 87.704 28.250 C 82.063 37.070, 79.505 41.839, 80.098 42.431 C 80.561 42.894, 100.471 34.602, 101.940 33.334 C 102.495 32.854, 92.843 23, 91.818 23 C 91.402 23, 89.551 25.362, 87.704 28.250 M 114 31.116 L 107.500 34.140 110.235 36.346 C 112.160 37.898, 118.038 39.675, 130.084 42.344 C 139.496 44.430, 147.373 45.960, 147.589 45.744 C 148.129 45.204, 122.743 27.978, 121.500 28.041 C 120.950 28.069, 117.575 29.453, 114 31.116 M 91.500 41.018 L 78.500 46.882 77.188 53.691 L 75.876 60.500 84.346 82.748 L 92.816 104.995 84.658 109.369 C 80.171 111.774, 68.165 118.047, 57.978 123.310 L 39.456 132.879 36.747 146.625 C 35.257 154.186, 34.187 160.521, 34.369 160.702 C 34.551 160.884, 45.444 153.095, 58.575 143.392 C 71.707 133.689, 83.469 125.084, 84.713 124.269 C 86.613 123.024, 85.911 125.210, 80.319 137.965 L 73.664 153.144 74.962 164.322 C 75.677 170.470, 76.549 176.047, 76.901 176.717 C 77.339 177.548, 83.541 174.482, 96.501 167.026 L 115.460 156.118 115.133 152.309 C 114.953 150.214, 113.336 135.225, 111.541 119 C 108.660 92.966, 108.438 86.104, 110.543 88.210 C 110.860 88.527, 114.230 97.149, 118.031 107.371 L 124.943 125.957 142.722 146.363 L 160.500 166.770 161.137 163.135 C 161.487 161.136, 162.353 154.038, 163.061 147.362 L 164.348 135.224 150.066 119.711 C 142.212 111.179, 135.792 103.893, 135.801 103.519 C 135.809 103.146, 139.795 98.272, 144.658 92.688 C 149.521 87.104, 154.850 80.973, 156.500 79.064 C 159.013 76.156, 157.957 76.673, 150 82.246 C 132.314 94.634, 123.914 100.248, 123.624 99.873 C 122.827 98.844, 109.077 59.589, 109.400 59.267 C 109.740 58.927, 151.526 57.206, 165 56.976 L 170.500 56.882 161 53.479 C 155.775 51.608, 142.531 48.009, 131.570 45.483 C 114.456 41.539, 111.165 40.474, 108.285 37.945 C 106.440 36.325, 104.834 35.035, 104.715 35.077 C 104.597 35.120, 98.650 37.793, 91.500 41.018 M 72.409 52.885 C 70.859 55.509, 69.955 55.956, 65.561 56.269 C 60.953 56.598, 61.093 56.647, 67.125 56.815 L 73.750 57 74.382 53.840 C 75.235 49.574, 74.558 49.246, 72.409 52.885 M 67 52 C 65.707 52.835, 65.734 52.971, 67.191 52.985 C 68.121 52.993, 69.160 52.550, 69.500 52 C 70.282 50.734, 68.958 50.734, 67 52 M 44 62.155 L 37.500 65.298 45.322 66.899 C 49.865 67.829, 53.491 69.129, 53.971 70 C 54.426 70.825, 56.235 78.659, 57.990 87.409 C 59.746 96.159, 61.496 104.168, 61.881 105.206 C 62.323 106.403, 64.461 98.573, 67.720 83.811 C 70.548 71.006, 72.774 60.441, 72.666 60.333 C 72.559 60.225, 67.527 59.884, 61.485 59.574 C 50.686 59.020, 50.390 59.064, 44 62.155" stroke="none" fill="black" fill-rule="evenodd"/>
</svg>