<svg xmlns="http://www.w3.org/2000/svg" width="200" height="200" viewBox="0 0 200 200" version="1.1">
	<path d="M 8.667 12.667 C 7.132 14.201, 8.615 15.026, 21.022 19.546 C 28.184 22.155, 33.903 24.431, 33.730 24.603 C 33.558 24.775, 30.848 24.319, 27.708 23.590 C 24.569 22.860, 22.013 22.541, 22.028 22.881 C 22.043 23.222, 27.893 30.689, 35.028 39.476 C 42.163 48.263, 48 55.688, 48.001 55.976 C 48.002 56.264, 40.352 56.350, 31.001 56.166 C 16.928 55.889, 14 56.073, 14 57.233 C 14 58.156, 16.618 59.252, 21.668 60.442 L 29.336 62.250 21.150 70.273 C 16.647 74.686, 13.084 78.405, 13.232 78.538 C 13.379 78.671, 22.275 77.071, 33 74.983 C 43.725 72.895, 52.639 71.321, 52.808 71.485 C 52.977 71.649, 47.015 83.978, 39.558 98.884 L 26 125.986 26 151.886 C 26 174.002, 26.219 177.870, 27.502 178.362 C 28.644 178.801, 31.275 174.248, 38.472 159.376 L 47.939 139.814 54.969 106.657 C 58.835 88.421, 62.218 72.545, 62.487 71.377 C 62.923 69.479, 64.942 68.868, 81.464 65.627 C 91.633 63.632, 100.526 62.002, 101.226 62.004 C 101.927 62.007, 93.275 67.254, 82 73.664 C 70.725 80.075, 61.305 85.480, 61.067 85.677 C 60.828 85.873, 61.089 86.489, 61.647 87.047 C 62.331 87.731, 69.126 84.351, 82.580 76.633 L 102.500 65.207 103.131 68.138 C 103.478 69.751, 104.084 77.514, 104.478 85.390 C 105.668 109.207, 104.860 108.751, 116.389 92.109 C 121.803 84.294, 126.445 78.112, 126.704 78.370 C 127.530 79.196, 130.865 115.477, 130.169 116.060 C 129.801 116.368, 121.941 120.169, 112.701 124.505 L 95.902 132.390 88.701 128.747 C 84.741 126.742, 78.250 123.302, 74.279 121.101 C 70.307 118.900, 66.793 117.526, 66.470 118.049 C 66.146 118.572, 66.103 119.338, 66.374 119.750 C 66.644 120.162, 73.348 123.859, 81.272 127.965 L 95.678 135.431 114.773 126.553 L 133.867 117.676 133.352 113.088 C 133.069 110.565, 132.075 100.555, 131.143 90.845 L 129.448 73.189 133.284 67.845 C 135.394 64.905, 137.455 62.379, 137.865 62.232 C 138.275 62.084, 140.316 71.084, 142.399 82.232 L 146.188 102.500 135.939 130.500 C 130.302 145.900, 125.687 158.950, 125.683 159.500 C 125.678 160.236, 140.012 185.838, 141.521 187.789 C 141.644 187.948, 148.607 175.148, 156.995 159.346 L 172.245 130.614 171.705 92.057 C 171.208 56.561, 170.960 52.312, 168.583 38.534 C 167.162 30.302, 166 22.753, 166 21.758 C 166 20.629, 168.348 18.460, 172.250 15.984 L 178.500 12.019 93.917 12.010 C 47.396 12.004, 9.033 12.300, 8.667 12.667 M 88.147 14.990 L 17.795 15.500 39.882 23.500 C 52.534 28.083, 61.976 32.034, 61.984 32.750 C 62.006 34.499, 61.473 34.428, 44.736 30.437 C 36.517 28.477, 29.602 27.065, 29.368 27.298 C 29.135 27.532, 34.255 34.198, 40.747 42.111 L 52.550 56.500 72.525 56.729 C 90.322 56.933, 94.353 56.654, 109.500 54.170 C 128.645 51.030, 127.719 50.789, 128.029 59 C 128.123 61.475, 128.518 64.625, 128.907 66 C 129.580 68.380, 129.801 68.220, 133.492 62.685 L 137.369 56.870 135.717 48.301 C 134.809 43.588, 133.908 39.574, 133.715 39.382 C 133.522 39.189, 118.545 39.444, 100.432 39.949 C 70.603 40.781, 64.151 40.515, 66.131 38.535 C 66.405 38.262, 82.946 36.930, 102.888 35.576 L 139.147 33.115 154.074 23.922 C 162.283 18.866, 169 14.565, 169 14.364 C 169 14.164, 166.637 14.108, 163.750 14.240 C 160.863 14.372, 126.841 14.709, 88.147 14.990 M 150.275 29.528 C 144.651 33.088, 139.090 36, 137.918 36 C 136.626 36, 135.973 36.492, 136.261 37.250 C 136.523 37.938, 137.318 41.763, 138.029 45.750 C 138.739 49.737, 139.586 52.992, 139.910 52.982 C 140.235 52.972, 141.913 50.835, 143.640 48.232 C 145.368 45.629, 149.995 38.888, 153.923 33.250 C 157.851 27.612, 160.937 23.013, 160.782 23.028 C 160.627 23.043, 155.899 25.968, 150.275 29.528 M 153.355 39 C 147.802 46.975, 142.652 54.497, 141.910 55.716 C 140.735 57.647, 141.119 60.799, 144.898 80.216 L 149.235 102.500 138.772 130.920 L 128.309 159.340 134.310 169.920 C 137.610 175.739, 140.633 180.869, 141.026 181.321 C 141.420 181.772, 148.033 170.297, 155.723 155.821 L 169.704 129.500 168.904 90.500 C 168.209 56.590, 167.801 49.738, 165.777 38 L 163.450 24.500 153.355 39 M 112 56.465 L 105.500 57.685 110 58.093 L 114.500 58.500 110.119 60.837 L 105.739 63.174 106.393 72.837 C 106.753 78.152, 107.322 86.196, 107.658 90.714 L 108.269 98.928 117.424 85.844 L 126.579 72.761 125.841 66.131 C 125.435 62.484, 125.080 58.487, 125.051 57.250 C 124.991 54.613, 122.622 54.470, 112 56.465 M 31.750 59.706 C 32.987 59.944, 34 60.486, 34 60.911 C 34 61.336, 31.114 64.454, 27.587 67.841 C 24.059 71.229, 21.697 73.998, 22.337 73.996 C 24.484 73.990, 54.004 68.115, 55.008 67.495 C 56.547 66.544, 56.212 65.405, 53.411 62.077 L 50.822 59 40.161 59.136 C 34.297 59.211, 30.512 59.467, 31.750 59.706 M 56.076 61.148 C 56.791 62.479, 57.686 62.637, 60.731 61.969 C 62.804 61.515, 65.850 60.973, 67.500 60.765 C 69.150 60.558, 67.055 60.188, 62.845 59.944 C 55.969 59.545, 55.281 59.667, 56.076 61.148 M 74.262 62.443 C 66.981 63.653, 60.763 64.903, 60.445 65.221 C 58.839 66.827, 62.904 66.409, 77.500 63.466 C 95.800 59.775, 93.908 59.178, 74.262 62.443 M 43.003 97.993 L 29 125.986 29.053 148.743 L 29.106 171.500 37.084 155.701 L 45.062 139.902 52.017 107.201 C 55.843 89.215, 59.213 73.487, 59.505 72.250 C 59.879 70.672, 59.585 70, 58.523 70 C 57.538 70, 52.100 79.809, 43.003 97.993" stroke="none" fill="black" fill-rule="evenodd"/>
</svg>