<svg xmlns="http://www.w3.org/2000/svg" width="200" height="200" viewBox="0 0 200 200" version="1.1">
	<path d="M 25.548 13.922 C 25.235 14.428, 22.059 15.156, 18.489 15.538 C 8.421 16.616, 10.762 18.553, 22.970 19.246 L 27.440 19.500 35.178 32.500 C 39.433 39.650, 42.934 45.985, 42.957 46.578 C 42.981 47.172, 38.388 48.937, 32.750 50.502 C 27.112 52.067, 21.978 53.607, 21.341 53.924 C 20.625 54.280, 24.532 60.394, 31.567 69.926 C 37.828 78.410, 43.368 85.768, 43.876 86.276 C 44.442 86.842, 46.602 86.146, 49.446 84.479 C 52 82.982, 54.230 81.924, 54.401 82.129 C 54.571 82.333, 48.536 92.035, 40.989 103.690 L 27.266 124.879 27.749 143.690 C 28.014 154.035, 28.517 162.780, 28.866 163.122 C 29.794 164.033, 60.294 174.040, 60.750 173.583 C 60.963 173.371, 59.262 160.215, 56.970 144.348 L 52.803 115.500 60.766 94.661 L 68.730 73.822 82.788 65.911 C 90.520 61.560, 97.284 58, 97.820 58 C 98.355 58, 100.865 61.324, 103.396 65.386 L 108 72.772 107.916 101.136 L 107.833 129.500 99.666 149.500 L 91.500 169.500 86.583 169.500 C 83.879 169.500, 81.503 169.992, 81.302 170.594 C 80.833 172.002, 99.855 173.005, 126 172.953 L 145.500 172.913 165.423 168.187 C 176.524 165.554, 185.528 162.917, 185.756 162.231 C 186.296 160.613, 183.275 160.650, 160.927 162.533 C 150.920 163.377, 142.610 163.939, 142.460 163.783 C 142.309 163.627, 140.815 154.500, 139.139 143.500 C 136.493 126.126, 136.014 119.757, 135.492 95 L 134.891 66.500 148 52.500 L 161.109 38.500 160.388 29.500 C 159.991 24.550, 159.629 19.262, 159.583 17.750 L 159.500 15 94.309 15 C 51.927 15, 28.902 14.650, 28.500 14 C 27.726 12.748, 26.297 12.710, 25.548 13.922 M 54.168 18.907 L 58.837 19.500 56.359 25.357 C 54.996 28.579, 54.089 31.422, 54.342 31.675 C 54.595 31.929, 57.568 34.083, 60.947 36.463 L 67.091 40.789 73.296 38.902 C 82.278 36.171, 82.600 36.300, 79.595 41.428 C 78.168 43.864, 77 46.246, 77 46.723 C 77 47.200, 80.269 49.863, 84.264 52.640 C 90.409 56.913, 91.872 57.536, 93.764 56.692 C 94.994 56.143, 96 55.312, 96 54.845 C 96 54.378, 93.320 49.834, 90.045 44.748 L 84.089 35.500 94.795 34.881 C 100.683 34.540, 114.461 32.852, 125.414 31.130 C 141.475 28.604, 146.216 27.486, 149.914 25.352 C 152.436 23.898, 154.557 22.661, 154.626 22.604 C 154.695 22.547, 155.063 21.488, 155.443 20.250 L 156.135 18 102.817 18.157 C 73.493 18.244, 51.601 18.581, 54.168 18.907 M 32.705 23.069 C 33.855 24.956, 37.141 30.490, 40.006 35.367 L 45.216 44.234 46.995 40.259 C 50.626 32.149, 50.838 32.709, 41.788 26.469 C 31.096 19.096, 30.043 18.702, 32.705 23.069 M 38.412 20.746 C 38.580 20.913, 41.569 23.035, 45.055 25.461 L 51.392 29.872 53.042 26.186 C 54.189 23.625, 54.358 22.305, 53.596 21.861 C 52.517 21.232, 37.819 20.152, 38.412 20.746 M 156.199 27.609 C 155.695 28.510, 153.071 29.624, 150.243 30.138 C 146.759 30.771, 138.395 34.835, 123.344 43.208 C 111.330 49.891, 101.337 55.478, 101.139 55.624 C 100.940 55.770, 103.077 59.640, 105.889 64.224 L 111 72.559 111 100.572 L 111 128.585 103 148.500 C 98.600 159.453, 95 168.772, 95 169.208 C 95 169.643, 106.362 169.990, 120.250 169.978 C 143.617 169.958, 146.246 169.774, 155.500 167.506 L 165.500 165.056 158.500 165.565 C 154.650 165.845, 148.971 166.320, 145.879 166.620 C 139.179 167.271, 140.259 169.947, 136.146 142.500 C 133.564 125.269, 133.069 118.577, 132.571 94.168 L 131.992 65.835 144.996 51.739 L 158 37.643 158 31.821 C 158 25.710, 157.680 24.962, 156.199 27.609 M 120 34.604 C 112.025 35.904, 101.843 37.313, 97.373 37.734 L 89.246 38.500 93.873 45.747 C 96.418 49.733, 98.916 52.996, 99.425 52.997 C 100.231 53, 126.189 38.799, 134.500 33.809 C 138.107 31.643, 138.198 31.638, 120 34.604 M 50.181 39.704 C 48.936 42.754, 48.078 45.411, 48.274 45.607 C 48.669 46.002, 62.010 42.324, 62.705 41.628 C 63.067 41.266, 57.207 36.899, 53.473 34.749 C 52.905 34.422, 51.431 36.640, 50.181 39.704 M 72.750 41.689 C 70.537 42.268, 70.498 43.593, 72.670 44.427 C 74.196 45.012, 75.947 43.598, 75.985 41.750 C 76.001 40.959, 75.576 40.951, 72.750 41.689 M 45 49.902 C 32.933 53.480, 25.598 56.132, 25.756 56.861 C 25.897 57.508, 30.348 63.822, 35.646 70.891 L 45.280 83.743 51.724 80.087 C 58.169 76.430, 58.169 76.430, 65.571 62.465 L 72.972 48.500 70.236 46.255 C 68.731 45.020, 66.825 44.035, 66 44.066 C 65.175 44.097, 55.725 46.723, 45 49.902 M 69.087 61.577 C 65.739 67.951, 63 73.357, 63 73.591 C 63 73.825, 63.854 73.483, 64.898 72.831 C 65.942 72.179, 67.365 69.926, 68.058 67.823 C 69.486 63.496, 72.640 62.315, 71.589 66.500 C 71.244 67.875, 71.123 69, 71.321 69 C 71.518 69, 75.577 66.815, 80.340 64.145 L 89.001 59.290 83.250 55.310 C 80.088 53.120, 76.976 51.027, 76.337 50.659 C 75.588 50.228, 73.004 54.119, 69.087 61.577 M 62.500 77.153 C 61.400 77.712, 53.638 88.867, 45.250 101.940 L 30 125.710 30.112 134.105 C 30.173 138.722, 30.511 146.724, 30.862 151.887 L 31.500 161.274 44.380 165.674 C 51.463 168.094, 57.372 169.945, 57.510 169.787 C 57.648 169.629, 55.999 157.270, 53.847 142.322 L 49.934 115.144 56.577 97.822 C 60.231 88.295, 63.610 79.487, 64.086 78.250 C 64.561 77.013, 64.849 76.030, 64.725 76.068 C 64.601 76.105, 63.600 76.593, 62.500 77.153" stroke="none" fill="black" fill-rule="evenodd"/>
</svg>