<svg xmlns="http://www.w3.org/2000/svg" width="200" height="200" viewBox="0 0 200 200" version="1.1">
	<path d="M 75.906 23.684 L 58.311 34.357 46.156 53.657 C 39.470 64.272, 34 73.352, 34 73.834 C 34 74.317, 39.175 78.637, 45.500 83.436 C 51.825 88.234, 57 92.525, 57 92.972 C 57 93.418, 52.275 99.668, 46.500 106.860 C 40.725 114.052, 36 120.373, 36 120.907 C 36 121.441, 38.031 122.182, 40.512 122.554 C 42.994 122.926, 45.267 123.623, 45.563 124.102 C 45.859 124.581, 39.582 137.008, 31.615 151.717 C 23.647 166.426, 17.240 178.574, 17.377 178.711 C 17.821 179.155, 60.164 156.266, 61.500 154.860 C 62.211 154.112, 64.921 144.275, 67.521 133 C 70.121 121.725, 72.543 112.173, 72.902 111.772 C 73.261 111.372, 76.860 116.281, 80.900 122.681 L 88.244 134.318 78.081 159.784 C 72.491 173.791, 68.131 185.464, 68.392 185.725 C 68.653 185.986, 79.049 181.542, 91.494 175.850 L 114.121 165.500 113.422 138.250 C 113.038 123.262, 113.020 111, 113.381 111 C 113.743 111, 116.227 115.612, 118.902 121.250 C 121.577 126.888, 128.074 140.376, 133.339 151.225 L 142.913 170.950 163.707 163.885 C 175.143 160, 184.703 156.620, 184.952 156.375 C 185.200 156.130, 179.249 149.758, 171.727 142.215 L 158.050 128.500 162.987 119.500 C 165.702 114.550, 167.940 110.162, 167.962 109.750 C 167.983 109.338, 158.887 108.948, 147.750 108.884 C 136.613 108.820, 128.400 108.529, 129.500 108.238 C 130.600 107.946, 135.729 106.985, 140.898 106.104 L 150.297 104.500 159.480 73 C 164.530 55.675, 168.401 41.399, 168.081 41.276 C 167.483 41.046, 120.599 37, 118.526 37 C 117.663 37, 117.708 34.539, 118.701 27.297 C 119.433 21.961, 119.887 17.162, 119.711 16.633 C 119.535 16.104, 117.211 18.446, 114.548 21.836 C 111.884 25.226, 109.362 28, 108.942 28 C 108.523 28, 105.159 24.625, 101.467 20.500 C 97.775 16.375, 94.473 13.002, 94.127 13.005 C 93.782 13.008, 85.583 17.813, 75.906 23.684 M 76.831 26.261 L 60.162 36.458 49.223 53.979 C 43.207 63.616, 38.011 71.994, 37.677 72.598 C 37.150 73.552, 57.563 90, 59.274 90 C 59.760 90, 72.301 74.860, 77.164 68.404 C 77.743 67.635, 76.150 67.336, 71.845 67.404 C 68.174 67.461, 65.545 67.055, 65.315 66.395 C 65.096 65.766, 69.422 63.689, 75.342 61.580 L 85.754 57.870 96.479 44.412 L 107.203 30.953 100.512 23.477 C 96.831 19.365, 93.748 16.014, 93.660 16.032 C 93.572 16.050, 85.999 20.653, 76.831 26.261 M 112.977 28.032 L 110.736 31.180 112.740 33.185 L 114.745 35.189 115.447 30.503 C 115.834 27.925, 115.940 25.607, 115.684 25.351 C 115.428 25.095, 114.210 26.301, 112.977 28.032 M 100.043 44.220 C 95.106 50.369, 91.204 55.538, 91.373 55.706 C 91.786 56.119, 118.275 46.870, 119.350 45.938 C 119.817 45.532, 117.685 42.464, 114.610 39.120 L 109.020 33.039 100.043 44.220 M 129.998 52.250 L 141.095 64.500 132.548 65.402 C 125.226 66.174, 124 66.569, 124 68.152 C 124 70.392, 125.890 70.491, 130.654 68.500 C 135.026 66.673, 136 66.628, 136 68.253 C 136 68.942, 133.378 71.145, 130.174 73.148 L 124.347 76.790 124.807 85.550 L 125.267 94.311 111.508 93.734 L 97.749 93.157 86.375 100.162 C 80.119 104.015, 75 107.417, 75 107.721 C 75 108.026, 78.662 114.073, 83.139 121.160 L 91.278 134.045 82.109 157.159 C 77.066 169.872, 73.101 180.434, 73.298 180.631 C 73.495 180.828, 82.124 177.061, 92.474 172.259 L 111.292 163.530 110.464 137.515 C 109.549 108.762, 109.626 102.974, 110.941 101.659 C 111.459 101.141, 112.501 102.068, 113.441 103.885 C 114.327 105.598, 115.708 107, 116.511 107 C 119.305 107, 144.513 102.912, 146.397 102.153 C 147.880 101.556, 150.109 95.176, 156.602 72.949 C 161.171 57.308, 164.592 44.241, 164.205 43.914 C 163.616 43.416, 124.238 39.890, 120.200 39.973 C 119.485 39.988, 123.894 45.513, 129.998 52.250 M 103 54.699 C 87.724 60.117, 85 61.392, 85 63.122 C 85 64.145, 101.809 64.275, 113.750 63.346 L 122 62.704 122 55.852 C 122 49.954, 121.756 49.014, 120.250 49.101 C 119.287 49.156, 111.525 51.676, 103 54.699 M 124.002 56.250 L 124 63 129.500 63 C 132.525 63, 134.979 62.663, 134.954 62.250 C 134.929 61.837, 132.455 58.800, 129.456 55.500 L 124.004 49.500 124.002 56.250 M 78.500 63.464 C 75.970 64.622, 75.833 64.850, 77.628 64.919 C 78.798 64.963, 80.315 64.325, 81 63.500 C 82.491 61.703, 82.350 61.701, 78.500 63.464 M 93 66.791 L 81.500 67.152 73.161 77.654 C 68.574 83.430, 65.108 88.441, 65.458 88.791 C 65.807 89.141, 73.160 89.603, 81.797 89.817 L 97.500 90.207 109.261 82.948 C 115.729 78.955, 120.894 75.561, 120.738 75.405 C 120.582 75.249, 112.240 78.082, 102.200 81.700 C 85.318 87.784, 81.887 88.610, 83.354 86.237 C 83.658 85.744, 92.478 82.270, 102.954 78.517 C 121.622 71.828, 122 71.636, 122 68.846 L 122 66 113.250 66.215 C 108.438 66.333, 99.325 66.593, 93 66.791 M 111.500 84.643 C 106.550 87.728, 102.313 90.420, 102.083 90.626 C 101.854 90.832, 106.242 91, 111.833 91 L 122 91 122 85 C 122 81.700, 121.662 79.008, 121.250 79.017 C 120.838 79.026, 116.450 81.558, 111.500 84.643 M 65.584 95.750 C 67.738 97.813, 70.400 100.736, 71.500 102.246 L 73.500 104.993 82.815 99.246 L 92.129 93.500 83.315 92.856 C 78.467 92.502, 71.613 92.164, 68.084 92.106 L 61.667 92 65.584 95.750 M 49.603 107.230 L 39.856 119.460 44.512 120.648 C 47.074 121.301, 49.408 122.074, 49.699 122.366 C 49.990 122.657, 44.354 133.820, 37.173 147.173 C 29.993 160.526, 24.261 171.595, 24.436 171.770 C 24.945 172.278, 58.928 153.925, 59.655 152.749 C 60.016 152.164, 62.693 141.566, 65.604 129.197 L 70.895 106.708 67.930 102.399 C 65.233 98.478, 61.482 95, 59.952 95 C 59.621 95, 54.963 100.504, 49.603 107.230 M 122.426 122.250 C 136.032 150.856, 144.091 167, 144.764 167 C 145.732 167, 179.367 155.844, 179.951 155.329 C 180.199 155.110, 174.626 149.142, 167.566 142.066 L 154.729 129.201 159.224 120.753 L 163.718 112.304 146.609 111.655 C 137.199 111.298, 126.704 111.005, 123.288 111.003 L 117.075 111 122.426 122.250" stroke="none" fill="black" fill-rule="evenodd"/>
</svg>