<svg xmlns="http://www.w3.org/2000/svg" width="200" height="200" viewBox="0 0 200 200" version="1.1">
	<path d="M 97.534 15.194 C 90.402 15.692, 84.394 16.273, 84.182 16.485 C 83.820 16.847, 86.540 53.720, 87.443 60.697 L 87.857 63.894 76.066 63.301 C 66.350 62.813, 60.469 63.215, 42.638 65.586 C 27.338 67.620, 21 68.835, 21 69.731 C 21 70.429, 20.325 71, 19.500 71 C 17.687 71, 17.496 72.897, 19.250 73.473 C 19.938 73.699, 28.041 74.288, 37.258 74.783 C 46.474 75.277, 54.321 75.987, 54.694 76.361 C 55.068 76.735, 53.233 85.919, 50.616 96.770 L 45.858 116.500 33.929 136.788 C 27.368 147.947, 22 157.509, 22 158.038 C 22 158.567, 24.862 159, 28.359 159 L 34.719 159 51.148 141.750 L 67.578 124.500 74.929 105.500 C 78.972 95.050, 82.386 86.369, 82.515 86.209 C 82.644 86.049, 83.546 90.324, 84.520 95.709 C 86.030 104.057, 86.198 108.948, 85.660 128.902 C 85.313 141.774, 84.832 152.501, 84.593 152.741 C 84.353 152.980, 77.974 154.034, 70.417 155.083 C 62.861 156.131, 56.512 157.154, 56.310 157.357 C 56.108 157.559, 64.105 165.258, 74.082 174.466 C 89.016 188.249, 92.442 190.968, 93.470 189.854 C 94.157 189.109, 99.688 180.802, 105.761 171.394 L 116.803 154.288 115.949 134.394 C 114.818 108.071, 114.903 76.890, 116.090 82.941 C 116.569 85.383, 119.952 96.356, 123.608 107.325 L 130.256 127.269 142.117 145.135 C 148.640 154.961, 154.381 163, 154.873 163 C 156.002 163, 185.033 146.217, 186.823 144.530 C 187.897 143.517, 184.586 140.961, 169.172 130.903 L 150.199 118.522 143.249 103.904 L 136.299 89.285 161.707 77.986 C 181.932 68.991, 186.848 66.441, 185.808 65.480 C 182.317 62.261, 155.958 42.002, 155.278 42.016 C 154.850 42.025, 149.588 51.272, 143.584 62.565 C 134.949 78.806, 132.420 82.825, 131.482 81.798 C 130.830 81.084, 127.020 75.676, 123.015 69.780 L 115.734 59.059 116.466 36.530 L 117.198 14 113.849 14.144 C 112.007 14.223, 104.665 14.696, 97.534 15.194 M 97.323 17.922 C 92.275 18.252, 87.840 18.827, 87.466 19.200 C 87.093 19.574, 87.517 28.794, 88.408 39.690 C 89.300 50.585, 90.133 61.064, 90.259 62.975 L 90.489 66.450 74.494 66.222 C 61.942 66.043, 55.056 66.503, 42.500 68.359 C 24.543 71.013, 24.880 71.577, 44.965 72.487 C 52.370 72.822, 58.563 73.229, 58.726 73.392 C 58.888 73.555, 56.614 83.615, 53.672 95.747 L 48.323 117.806 37.193 136.653 L 26.063 155.500 29.680 155.819 C 33.840 156.186, 36.160 154.174, 54.848 134 L 65.500 122.500 74.461 99.205 C 80.387 83.799, 83.637 76.518, 84.056 77.705 C 84.404 78.692, 85.696 85.800, 86.925 93.500 C 89.007 106.533, 89.104 109.158, 88.330 131.500 L 87.500 155.500 75.850 157.133 C 69.442 158.032, 63.665 158.945, 63.011 159.163 C 62.031 159.490, 89.772 186.005, 91.849 186.726 C 92.207 186.851, 97.324 179.453, 103.221 170.286 L 113.942 153.620 113.221 134.560 C 112.234 108.470, 112.322 63.863, 113.412 38.250 L 114.316 17 110.408 17.162 C 108.259 17.251, 102.370 17.593, 97.323 17.922 M 144.760 66.183 C 138.853 77.277, 134.177 86.510, 134.368 86.701 C 134.559 86.892, 143.892 82.931, 155.108 77.898 C 166.323 72.865, 176.987 68.113, 178.805 67.337 L 182.109 65.928 169.404 55.964 C 162.417 50.484, 156.430 46.002, 156.100 46.006 C 155.770 46.009, 150.667 55.088, 144.760 66.183 M 116 65.607 C 116 70.840, 121.129 91.136, 126.453 106.971 C 132.986 126.401, 133.023 126.477, 144.151 143.228 L 155.302 160.013 159.901 157.355 C 183.569 143.675, 183.419 143.780, 181.405 142.304 C 180.357 141.536, 172.451 136.316, 163.836 130.704 L 148.171 120.500 141.340 106 C 134.363 91.191, 116 61.920, 116 65.607" stroke="none" fill="black" fill-rule="evenodd"/>
</svg>