<svg xmlns="http://www.w3.org/2000/svg" width="200" height="200" viewBox="0 0 200 200" version="1.1">
	<path d="M 31.853 50.762 C 19.947 70.418, 10.295 86.598, 10.403 86.717 C 10.512 86.836, 14.559 85.467, 19.398 83.675 C 27.082 80.829, 28.911 80.506, 33.848 81.124 C 36.957 81.513, 42.366 81.869, 45.869 81.916 L 52.239 82 51.516 92.750 C 51.119 98.663, 50.471 104.087, 50.077 104.804 C 49.593 105.685, 46.001 102.197, 38.988 94.034 C 29.706 83.230, 26.586 80.501, 26.976 83.525 C 27.045 84.061, 32.527 90.711, 39.158 98.302 C 50.053 110.774, 51.075 112.269, 49.764 113.802 C 48.966 114.736, 45.935 119.703, 43.030 124.839 C 38.893 132.153, 36.474 138.425, 31.874 153.754 C 28.643 164.520, 26 173.649, 26 174.039 C 26 174.429, 36.688 174.948, 49.750 175.193 L 73.500 175.638 87 166.806 C 98.095 159.547, 101.920 156.368, 108.470 148.964 C 112.853 144.009, 116.942 140.147, 117.556 140.383 C 118.170 140.619, 132.133 150.428, 148.586 162.182 C 165.039 173.935, 179.970 184.589, 181.767 185.856 L 185.034 188.160 183.117 183.330 C 182.063 180.674, 177.980 170.659, 174.045 161.076 L 166.889 143.652 163.562 112.277 C 161.732 95.020, 160.069 80.774, 159.867 80.618 C 159.665 80.462, 153.313 77.710, 145.750 74.503 C 138.188 71.295, 132 68.343, 132 67.943 C 132 66.376, 135.922 65.557, 145.905 65.040 L 156.310 64.500 166.497 48 C 172.099 38.925, 176.417 31.390, 176.092 31.256 C 175.766 31.122, 160.482 32.527, 142.126 34.378 L 108.752 37.743 100.216 35.394 C 95.320 34.047, 83.809 29.198, 73.220 24.023 C 63.068 19.060, 54.477 15.005, 54.130 15.012 C 53.784 15.018, 43.759 31.106, 31.853 50.762 M 53.599 20.264 C 43.797 35.607, 17.245 80.568, 17.862 80.779 C 18.779 81.094, 52.125 69.173, 53.175 68.155 C 53.547 67.795, 54.766 57.881, 55.884 46.125 C 57.002 34.369, 58.103 24.564, 58.331 24.336 C 58.558 24.108, 62.033 24.834, 66.053 25.947 C 70.072 27.061, 73.487 27.846, 73.641 27.692 C 73.795 27.538, 69.670 25.301, 64.475 22.720 L 55.028 18.027 53.599 20.264 M 58.597 46.691 C 57.639 57.415, 57.042 66.375, 57.270 66.603 C 57.497 66.830, 61.748 65.506, 66.715 63.659 L 75.747 60.301 91.124 60.702 C 102.914 61.009, 106.075 60.836, 104.678 59.961 C 103.675 59.333, 101.741 59.099, 100.379 59.441 C 98.496 59.914, 94.504 58.263, 83.701 52.544 C 66.574 43.476, 66.584 43.482, 67.375 42.202 C 67.760 41.580, 74.292 43.884, 84.068 48.090 C 92.902 51.891, 100.532 55, 101.024 55 C 101.517 55, 104.706 53.238, 108.112 51.085 L 114.304 47.169 103.253 41.627 C 95.590 37.784, 87.648 34.828, 77.351 31.987 C 69.183 29.733, 62.014 27.733, 61.419 27.541 C 60.708 27.312, 59.742 33.864, 58.597 46.691 M 143 37.046 C 128.425 38.603, 114.250 39.932, 111.500 39.999 L 106.500 40.120 112.750 43.274 C 116.187 45.008, 118.996 46.669, 118.991 46.964 C 118.987 47.259, 115.837 49.441, 111.991 51.813 C 108.146 54.185, 105 56.339, 105 56.599 C 105 56.859, 107.138 58.044, 109.750 59.233 C 113.996 61.166, 116.626 61.436, 134.549 61.784 L 154.598 62.172 162.431 49.336 C 166.738 42.276, 170.965 35.938, 171.822 35.250 C 173.797 33.668, 175.786 33.544, 143 37.046 M 65.750 66.780 C 56.135 70.378, 56 70.474, 56 73.714 C 56 76.183, 56.435 76.996, 57.750 76.983 C 58.712 76.974, 72.036 76.313, 87.357 75.515 C 114.630 74.095, 115.312 74.007, 119.853 71.346 L 124.491 68.628 119.495 66.424 C 115.089 64.480, 112.201 64.156, 95 63.676 L 75.500 63.131 65.750 66.780 M 124.950 65.427 C 126.297 66.174, 128.064 66.529, 128.877 66.217 C 130.056 65.765, 129.965 65.498, 128.427 64.895 C 127.367 64.480, 125.600 64.125, 124.500 64.106 C 122.732 64.075, 122.784 64.228, 124.950 65.427 M 121.500 73.482 L 115.500 76.894 88.500 78.246 L 61.500 79.599 77.500 80.390 C 86.300 80.825, 98.109 81.478, 103.743 81.841 L 113.985 82.500 106.993 90.665 C 103.147 95.156, 100.022 99.206, 100.049 99.665 C 100.076 100.124, 105.460 104.325, 112.015 109 C 118.569 113.675, 123.947 117.811, 123.966 118.191 C 124.077 120.453, 120.689 119.129, 107.664 111.821 C 94.587 104.483, 93.217 103.463, 94.138 101.743 C 94.701 100.690, 95.013 99.720, 94.831 99.586 C 94.649 99.453, 92.876 98.136, 90.892 96.661 L 87.284 93.979 70.686 103.831 C 61.557 109.249, 53.429 114.229, 52.625 114.896 C 51.821 115.564, 48.797 120.247, 45.905 125.305 C 41.854 132.388, 39.349 138.771, 34.995 153.100 L 29.343 171.699 45.831 172.350 C 74.623 173.485, 71.014 174.189, 85.532 164.614 C 95.653 157.939, 99.958 154.328, 106.624 146.920 C 111.231 141.802, 115 137.202, 115 136.700 C 115 135.034, 117.444 136.649, 147.868 158.406 C 164.476 170.283, 178.240 180, 178.455 180 C 178.670 180, 175.550 171.955, 171.523 162.121 L 164.200 144.242 160.986 113.871 C 159.218 97.167, 157.486 83.190, 157.136 82.810 C 156.545 82.169, 128.521 69.958, 127.818 70.035 C 127.643 70.054, 124.800 71.605, 121.500 73.482 M 43 75.061 C 36.349 77.556, 35.896 77.881, 39 77.929 C 40.925 77.958, 44.862 77.699, 47.750 77.352 C 52.423 76.791, 53 76.462, 53 74.361 C 53 71.481, 52.435 71.521, 43 75.061 M 54.150 94.678 C 52.511 112.730, 52.341 111.557, 56.250 109.222 C 80.706 94.612, 87.240 91.023, 88.282 91.629 C 88.952 92.017, 91.217 93.671, 93.315 95.303 C 95.413 96.935, 97.470 97.872, 97.886 97.385 C 98.301 96.898, 100.766 93.955, 103.361 90.845 L 108.081 85.189 104.291 84.639 C 102.206 84.336, 92.400 83.830, 82.500 83.514 C 72.600 83.198, 62.433 82.696, 59.907 82.398 L 55.314 81.855 54.150 94.678 M 97 102.465 C 97 102.720, 98.013 103.469, 99.250 104.129 C 101.290 105.216, 101.372 105.172, 100.128 103.664 C 98.850 102.115, 97 101.406, 97 102.465" stroke="none" fill="black" fill-rule="evenodd"/>
</svg>