<svg xmlns="http://www.w3.org/2000/svg" width="200" height="200" viewBox="0 0 200 200" version="1.1">
	<path d="M 21 12.348 C 21 13.090, 22.822 14.518, 25.048 15.522 C 27.275 16.526, 29.349 17.756, 29.658 18.256 C 29.967 18.756, 28.821 18.441, 27.110 17.557 C 25.400 16.672, 24 16.229, 24 16.572 C 24 16.915, 29.400 24.326, 36 33.041 C 42.600 41.756, 48 49.128, 48 49.423 C 48 49.719, 38.536 50.082, 26.970 50.230 L 5.940 50.500 18.220 67 C 29.449 82.087, 30.524 83.243, 30.781 80.500 C 30.935 78.850, 31.385 72.550, 31.781 66.500 L 32.500 55.500 42.591 55.217 L 52.682 54.934 55.341 58.771 C 56.803 60.881, 58 63.033, 58.001 63.554 C 58.001 64.074, 52.745 76.771, 46.320 91.770 C 38.203 110.721, 34.958 119.358, 35.684 120.084 C 36.410 120.810, 40.333 112.714, 48.544 93.544 C 55.187 78.037, 60.739 66.339, 61.225 66.825 C 61.711 67.311, 59.264 83.716, 55.638 104.295 L 49.186 140.901 41.870 157.894 C 37.847 167.241, 34.383 174.716, 34.172 174.506 C 33.962 174.295, 31.364 161.383, 28.400 145.812 C 22.459 114.607, 22.367 114.233, 20.976 115.624 C 20.086 116.514, 30.942 177.747, 32.800 182.316 C 33.337 183.638, 36.034 178.327, 42.712 162.795 L 51.885 141.459 58.471 104.090 C 64.642 69.074, 64.952 66.604, 63.394 64.883 C 61.841 63.167, 61.860 62.732, 63.690 58.273 L 65.649 53.500 70.574 53.500 L 75.500 53.500 76.028 106.728 C 76.350 139.128, 76.937 160.326, 77.528 160.900 C 79.727 163.036, 138.124 188.042, 139.273 187.340 C 139.948 186.928, 152.286 177.877, 166.692 167.226 C 182.172 155.781, 192.690 147.355, 192.409 146.624 C 192.047 145.680, 187.148 146.158, 171.717 148.644 C 160.598 150.435, 150.229 151.923, 148.675 151.950 C 145.439 152.007, 131.466 144.120, 132.696 142.930 C 133.138 142.503, 138.450 140.286, 144.500 138.005 C 150.550 135.724, 156.032 133.327, 156.682 132.679 C 157.976 131.389, 186 71.786, 186 70.325 C 186 69.829, 179.993 66.598, 172.651 63.145 C 160.282 57.327, 159.337 56.688, 159.768 54.433 C 160.220 52.069, 160.060 52, 154.071 52 C 146.098 52, 145.509 51.389, 135.510 32.750 C 131.158 24.637, 127.013 18, 126.299 18 C 124.517 18, 124.446 17.621, 129.548 35.394 C 132.049 44.108, 133.913 51.420, 133.691 51.643 C 133.468 51.866, 128.417 51.700, 122.467 51.274 L 111.650 50.500 118.380 45.309 L 125.111 40.118 118.306 38.106 C 98.474 32.245, 23.095 11, 22.128 11 C 21.507 11, 21 11.607, 21 12.348 M 44.500 23.060 C 64.174 34.115, 64.241 34.159, 63.247 35.153 C 62.645 35.755, 56.850 33.704, 47.465 29.568 C 39.308 25.974, 32.515 23.152, 32.369 23.298 C 32.223 23.444, 36.597 29.464, 42.090 36.675 L 52.076 49.786 63.157 50.510 C 71.902 51.082, 74.410 50.954, 75.059 49.905 C 75.731 48.818, 76.952 48.796, 81.750 49.788 C 84.979 50.454, 91.887 51, 97.103 51 L 106.585 51 112.807 46.250 C 117.922 42.345, 118.714 41.369, 117.264 40.762 C 115.921 40.200, 46.249 20.307, 35.500 17.416 C 34.400 17.120, 38.450 19.660, 44.500 23.060 M 132.011 33.583 C 132.017 34.087, 132.704 36.750, 133.539 39.500 C 134.373 42.250, 135.511 46.188, 136.067 48.250 C 136.887 51.294, 137.540 52, 139.539 52 C 140.892 52, 142 51.605, 142 51.122 C 142 50.341, 133.361 34.128, 132.388 33.083 C 132.175 32.854, 132.005 33.079, 132.011 33.583 M 11 52.655 C 11 53.410, 27.120 74.499, 27.917 74.785 C 28.543 75.010, 30.266 53.839, 29.659 53.380 C 29.187 53.022, 11 52.316, 11 52.655 M 78.809 106.149 C 79.024 134.942, 79.493 158.782, 79.850 159.126 C 80.208 159.470, 93.427 165.481, 109.228 172.484 L 137.955 185.217 161.961 167.425 C 175.164 157.640, 185.862 149.539, 185.733 149.425 C 185.605 149.310, 176.664 150.596, 165.864 152.282 L 146.229 155.349 137.601 150.175 C 132.855 147.329, 128.127 145, 127.093 145 C 126.060 145, 124.970 144.363, 124.671 143.585 C 124.373 142.807, 117.549 138.248, 109.508 133.454 C 99.066 127.228, 95.046 124.322, 95.444 123.284 C 98.908 114.258, 112.382 84.049, 112.771 84.437 C 113.052 84.719, 116.306 97.347, 120 112.500 C 123.694 127.653, 126.994 140.327, 127.333 140.666 C 128.072 141.405, 153.008 132.246, 154.652 130.631 C 155.793 129.511, 181.602 74.729, 182.193 72.174 C 182.488 70.901, 160.098 59.568, 159.154 60.512 C 158.924 60.743, 157.091 70.281, 155.081 81.709 C 152.374 97.102, 151.047 102.555, 149.963 102.752 C 148.620 102.995, 145.313 92.395, 135.922 57.750 L 134.906 54 120.782 54 C 108.902 54, 106.360 54.270, 104.783 55.697 C 103.102 57.217, 102.316 57.257, 97.204 56.079 C 94.067 55.356, 88.556 54.547, 84.959 54.281 L 78.417 53.798 78.809 106.149 M 138.020 54.797 C 138.060 56.178, 149.845 96.480, 149.922 95.500 C 149.966 94.950, 151.351 86.850, 153 77.500 C 154.649 68.150, 155.999 60.006, 155.999 59.402 C 156 58.798, 154.313 57.594, 152.250 56.726 C 148.214 55.027, 137.987 53.641, 138.020 54.797 M 57.703 57.397 C 59.707 60.071, 60.509 59.985, 61.286 57.016 C 61.726 55.331, 61.328 55, 58.860 55 C 55.911 55, 55.909 55.003, 57.703 57.397 M 108.221 100.250 C 106.540 104.237, 103.597 111.149, 101.681 115.608 L 98.197 123.716 110.309 130.815 C 116.970 134.719, 122.601 137.732, 122.822 137.511 C 123.403 136.930, 112.618 93.036, 111.889 93.016 C 111.552 93.007, 109.902 96.263, 108.221 100.250" stroke="none" fill="black" fill-rule="evenodd"/>
</svg>