<svg xmlns="http://www.w3.org/2000/svg" width="200" height="200" viewBox="0 0 200 200" version="1.1">
	<path d="M 29 15.308 C 29 16.153, 33.251 17.638, 41 19.500 C 47.600 21.086, 53 22.711, 53 23.111 C 53 23.511, 49.400 27.088, 45 31.061 C 38.135 37.261, 35.349 41, 37.598 41 C 37.926 41, 44.299 39.198, 51.760 36.995 C 59.220 34.793, 65.484 33.150, 65.679 33.345 C 66.064 33.731, 20.571 53, 19.276 53 C 18.842 53, 14.474 51.425, 9.571 49.500 C 4.668 47.575, 0.508 46, 0.328 46 C 0.148 46, -0 46.770, -0 47.712 C -0 48.654, 1.871 51.331, 4.158 53.661 L 8.317 57.899 5.658 59.110 C 4.196 59.776, 3 60.924, 3 61.661 C 3 63.371, 3.433 63.345, 7.188 61.403 L 10.277 59.805 23.031 72.531 C 33.323 82.800, 35.884 84.893, 36.303 83.378 C 36.588 82.345, 37.367 77.787, 38.033 73.250 C 38.699 68.713, 39.642 65, 40.129 65 C 41.373 65, 59.333 72.081, 60.277 72.943 C 61.658 74.206, 56.445 82.048, 38.706 105.392 L 21.310 128.284 26.132 143.392 C 28.783 151.701, 32.840 164.463, 35.145 171.750 C 37.451 179.037, 39.599 184.999, 39.919 184.998 C 40.239 184.997, 43.592 176.110, 47.371 165.248 C 52.032 151.852, 56.882 134.645, 62.449 111.756 C 66.962 93.196, 70.873 77.794, 71.139 77.527 C 71.405 77.261, 79.821 80.296, 89.840 84.272 L 108.057 91.500 107.779 94.906 C 107.503 98.278, 107.334 98.389, 91 105.973 L 74.500 113.634 74.238 120.067 C 73.906 128.208, 76.372 182.706, 77.106 183.439 C 77.407 183.740, 80.318 183.120, 83.576 182.062 C 86.834 181.004, 99.086 177.166, 110.801 173.534 L 132.103 166.930 152.801 168.816 C 164.186 169.854, 173.790 170.432, 174.144 170.101 C 174.922 169.376, 178.420 103.764, 177.784 101.847 C 177.482 100.939, 170.602 99.357, 156.675 96.992 L 136.014 93.484 152.938 75.507 C 162.247 65.619, 169.746 57.412, 169.603 57.269 C 169.460 57.126, 166.453 56.430, 162.921 55.722 L 156.500 54.436 145.500 35.233 C 139.450 24.671, 134.242 16.023, 133.926 16.015 C 133.610 16.007, 132.538 32.538, 131.544 52.750 C 130.550 72.963, 129.458 91.144, 129.118 93.153 L 128.500 96.806 119.726 93.289 C 110.995 89.789, 110.955 89.756, 111.479 86.636 C 112.075 83.094, 117 37.450, 117 35.475 C 117 34.661, 112.726 33.218, 105.250 31.508 C 98.787 30.030, 92.491 28.589, 91.258 28.304 C 89.452 27.888, 89.135 27.312, 89.628 25.344 C 90.197 23.077, 90.035 22.951, 87.371 23.597 C 85.792 23.980, 83.581 24.630, 82.457 25.043 C 81.155 25.521, 71.402 23.654, 55.568 19.897 C 41.903 16.653, 30.335 14, 29.861 14 C 29.388 14, 29 14.589, 29 15.308 M 50.500 29.689 C 46.454 33.488, 44.344 36.059, 45.500 35.782 C 52.025 34.219, 73.908 27.574, 73.587 27.254 C 73.376 27.043, 70.345 26.211, 66.852 25.405 C 63.358 24.600, 59.825 23.755, 59 23.528 C 58.150 23.295, 54.465 25.966, 50.500 29.689 M 135.962 25 C 135.667 26.816, 132.222 92.548, 132.412 92.741 C 133.014 93.353, 164.023 59.846, 163.555 59.090 C 163.263 58.617, 161.107 57.938, 158.762 57.580 C 154.677 56.956, 154.322 56.609, 150.209 49.215 C 143.220 36.651, 136.049 24.463, 135.962 25 M 54.062 41.661 C 37.871 48.471, 24.420 54.247, 24.170 54.496 C 23.723 54.944, 30.362 58.034, 34.761 59.426 C 36.711 60.043, 37.107 59.715, 37.644 57.032 C 38.481 52.844, 40.581 53.779, 40.192 58.166 L 39.884 61.644 50.974 65.990 C 57.604 68.588, 62.413 69.967, 62.931 69.418 C 64.302 67.965, 84.296 29.956, 83.877 29.599 C 83.670 29.423, 70.253 34.851, 54.062 41.661 M 80.214 50.700 C 76.319 62.140, 72.989 72.130, 72.816 72.900 C 72.596 73.873, 77.995 76.515, 90.500 81.555 L 108.500 88.809 111.193 64.654 C 112.675 51.369, 113.912 39.563, 113.943 38.418 C 113.994 36.565, 112.650 36.026, 101.750 33.532 C 95.013 31.990, 89.004 30.543, 88.399 30.315 C 87.742 30.067, 84.439 38.294, 80.214 50.700 M 71.293 60.042 C 65.472 71.155, 65.212 71.932, 67.118 72.537 C 68.236 72.892, 69.350 72.983, 69.594 72.740 C 70.195 72.138, 78.044 48.708, 77.741 48.420 C 77.608 48.294, 74.707 53.524, 71.293 60.042 M 8.396 53.875 C 10.774 56.371, 11.639 56.729, 13.232 55.876 C 15.534 54.644, 15.665 54.777, 10 52.580 L 5.500 50.835 8.396 53.875 M 16.733 57.256 C 15.230 57.757, 14 58.475, 14 58.852 C 14 59.229, 18.472 63.993, 23.938 69.439 C 33.139 78.605, 33.917 79.160, 34.415 76.920 C 35.238 73.217, 36.844 63.519, 36.662 63.348 C 36.573 63.265, 32.667 61.655, 27.983 59.770 C 21.192 57.039, 18.912 56.529, 16.733 57.256 M 61.371 78.853 C 59.887 81.409, 51.096 93.493, 41.836 105.706 C 32.576 117.919, 24.988 128.494, 24.973 129.206 C 24.929 131.357, 39.306 176, 40.043 176 C 41.873 176, 52.749 140.243, 59.977 110.459 C 64.376 92.332, 67.981 76.990, 67.988 76.367 C 67.995 75.743, 67.116 75.002, 66.035 74.719 C 64.510 74.321, 63.465 75.247, 61.371 78.853 M 110.426 96.704 C 109.521 100.325, 109.127 100.583, 93 108.105 L 76.500 115.801 76.739 121.151 C 76.871 124.093, 77.481 138.425, 78.096 153 C 78.710 167.575, 79.380 179.678, 79.584 179.895 C 79.789 180.112, 87.692 177.862, 97.147 174.895 L 114.338 169.500 121.055 147.272 C 127.578 125.688, 127.782 124.677, 128.136 112.326 L 128.500 99.607 120.057 96.304 C 115.413 94.487, 111.555 93, 111.483 93 C 111.411 93, 110.936 94.667, 110.426 96.704 M 132.244 97.233 C 132.471 97.912, 135.623 99.599, 139.251 100.983 C 142.878 102.368, 146.138 103.795, 146.494 104.155 C 146.851 104.515, 148.415 108.902, 149.970 113.903 L 152.796 122.996 136.012 145.248 C 126.780 157.487, 119.308 167.594, 119.406 167.710 C 119.505 167.825, 122.336 167.063, 125.698 166.017 C 131.670 164.158, 132.263 164.156, 151.655 165.918 C 162.570 166.910, 171.623 167.624, 171.773 167.504 C 172.413 166.995, 175.301 103.968, 174.712 103.378 C 174.055 102.721, 137.053 96.102, 133.667 96.036 C 132.647 96.016, 132.016 96.548, 132.244 97.233 M 131.925 101.265 C 131.883 101.394, 131.495 107.125, 131.062 114 C 130.376 124.891, 129.613 128.677, 125.131 143.410 C 122.301 152.710, 120.151 160.484, 120.351 160.685 C 120.552 160.885, 127.278 152.305, 135.299 141.616 L 149.881 122.183 147.238 114.121 C 145.784 109.687, 144.123 105.868, 143.547 105.635 C 135.918 102.550, 131.986 101.072, 131.925 101.265" stroke="none" fill="black" fill-rule="evenodd"/>
</svg>