<svg xmlns="http://www.w3.org/2000/svg" width="200" height="200" viewBox="0 0 200 200" version="1.1">
	<path d="M 76.390 6.456 L 70.500 13.031 44.500 15.181 C 30.200 16.364, 18.178 17.602, 17.783 17.932 C 17.149 18.464, 45.052 43.223, 46.803 43.683 C 47.187 43.783, 52.900 37.609, 59.500 29.963 C 68.099 20.001, 72.300 15.883, 74.322 15.435 C 75.873 15.091, 77.378 15.045, 77.665 15.332 C 78.083 15.750, 74.382 33.818, 72.373 41.168 C 71.998 42.542, 71.351 42.674, 68.715 41.918 C 63.827 40.516, 63.333 40.716, 61.692 44.750 C 58.817 51.818, 57.888 52.116, 40.713 51.475 C 32.346 51.162, 21.546 50.193, 16.714 49.322 C 11.882 48.451, 7.747 47.919, 7.526 48.141 C 7.304 48.363, 11.435 55.872, 16.705 64.829 C 23.142 75.769, 26.617 80.783, 27.294 80.106 C 27.972 79.428, 26.499 75.062, 22.806 66.799 L 17.309 54.500 21.405 54.237 C 26.514 53.909, 54.563 59.305, 54.327 60.571 C 54.232 61.082, 48.563 73.650, 41.730 88.500 L 29.306 115.500 26.629 145.500 C 25.156 162, 23.962 175.838, 23.976 176.250 C 23.989 176.662, 24.608 177, 25.351 177 C 26.094 177, 31.863 167.874, 38.171 156.720 L 49.640 136.440 54.070 99.629 C 56.506 79.383, 58.782 62.360, 59.126 61.800 C 59.501 61.191, 61.373 61.056, 63.786 61.464 C 67.764 62.136, 67.806 62.188, 66.909 65.316 C 65.490 70.264, 65.730 70.382, 70.124 66.902 L 74.248 63.635 80.874 64.773 C 84.518 65.399, 89.883 66.423, 92.795 67.048 L 98.089 68.185 94.726 72.342 C 92.877 74.629, 83.578 86.315, 74.062 98.311 L 56.760 120.122 60.036 127.311 C 61.838 131.265, 65.669 139.235, 68.550 145.022 L 73.788 155.544 92.305 168.272 C 102.489 175.272, 111.199 181.009, 111.661 181.021 C 112.122 181.032, 124.008 178.053, 138.073 174.401 L 163.646 167.761 172.869 134.275 C 180.752 105.654, 181.882 100.622, 180.643 99.644 C 179.847 99.015, 175.103 94.927, 170.102 90.560 L 161.009 82.620 163.048 80.449 L 165.088 78.278 159.294 77.124 C 154.128 76.095, 152.464 75.061, 143.942 67.581 C 134.453 59.253, 134.310 59.173, 123.942 56.413 C 118.199 54.884, 113.169 53.153, 112.765 52.566 C 112.361 51.980, 112.024 48.035, 112.015 43.800 C 112.003 37.691, 112.339 35.910, 113.640 35.181 C 114.543 34.676, 114.962 33.747, 114.571 33.115 C 114.181 32.484, 113.443 32.226, 112.931 32.543 C 112.419 32.859, 112 32.060, 112 30.767 C 112 28.910, 113.160 27.848, 117.522 25.708 C 120.559 24.219, 123.523 23, 124.108 23 C 124.693 23, 136.876 30.922, 151.182 40.604 C 166.220 50.782, 177.564 57.836, 178.075 57.325 C 178.585 56.815, 168.726 46.217, 154.704 32.204 L 130.450 7.965 106.627 10.052 C 93.525 11.199, 82.604 11.937, 82.357 11.691 C 82.111 11.445, 82.441 9.134, 83.090 6.557 C 84.999 -1.025, 83.118 -1.053, 76.390 6.456 M 77.100 9.600 C 75.930 11.088, 75.139 12.472, 75.343 12.676 C 76.202 13.535, 78.972 11.664, 79.553 9.832 C 80.536 6.737, 79.434 6.632, 77.100 9.600 M 117.250 11.737 L 112 12.105 112 18.552 C 112 22.099, 112.240 25, 112.533 25 C 112.827 25, 115.287 23.875, 118 22.500 C 120.713 21.125, 123.545 20, 124.293 20 C 125.041 20, 133.494 25.318, 143.077 31.819 C 152.659 38.319, 161.850 44.469, 163.500 45.486 C 165.150 46.502, 158.405 39.159, 148.510 29.167 C 128.402 8.861, 131.743 10.723, 117.250 11.737 M 90.141 14.079 C 85.543 14.523, 81.619 15.048, 81.421 15.246 C 80.972 15.694, 75.010 41.350, 75.294 41.610 C 75.407 41.714, 83.037 38.390, 92.250 34.223 L 109 26.647 109 19.823 L 109 13 103.750 13.136 C 100.862 13.211, 94.738 13.635, 90.141 14.079 M 44 18.038 C 33.275 19.029, 24.132 19.876, 23.683 19.920 C 22.936 19.993, 45.666 40, 46.495 40 C 46.693 40, 51.646 34.600, 57.500 28 C 66.305 18.073, 67.743 16.020, 65.822 16.118 C 64.545 16.182, 54.725 17.046, 44 18.038 M 92.656 36.949 C 84.492 40.698, 78.192 44, 78.656 44.287 C 79.120 44.573, 82.200 45.515, 85.500 46.379 C 91.480 47.945, 91.512 47.942, 95 45.413 C 96.925 44.018, 100.857 41.217, 103.738 39.188 C 107.880 36.272, 108.979 34.925, 108.988 32.750 C 108.995 31.238, 108.662 30.030, 108.250 30.066 C 107.838 30.102, 100.820 33.199, 92.656 36.949 M 101.766 43.872 L 95.033 48.787 101.531 50.546 C 105.105 51.513, 108.270 52.063, 108.565 51.768 C 108.860 51.473, 108.966 48.470, 108.801 45.095 L 108.500 38.958 101.766 43.872 M 64.459 45.067 C 63.370 46.829, 64.518 47.076, 66.573 45.521 C 68.265 44.241, 68.294 44.060, 66.809 44.032 C 65.879 44.014, 64.821 44.480, 64.459 45.067 M 73.596 48.381 C 73.283 49.546, 73.021 50.857, 73.014 51.294 C 73.006 51.730, 76.263 51.955, 80.250 51.794 C 84.315 51.629, 87.416 51.067, 87.309 50.516 C 87.204 49.974, 84.204 48.796, 80.642 47.897 C 74.225 46.277, 74.159 46.282, 73.596 48.381 M 66.226 49.010 C 63.902 50.051, 62 51.149, 62 51.451 C 62 51.753, 63.748 52, 65.883 52 C 69.047 52, 69.874 51.591, 70.344 49.794 C 70.661 48.580, 70.815 47.482, 70.686 47.353 C 70.557 47.224, 68.550 47.970, 66.226 49.010 M 91.813 51.683 C 92.534 51.972, 93.397 51.936, 93.729 51.604 C 94.061 51.272, 93.471 51.036, 92.417 51.079 C 91.252 51.127, 91.015 51.364, 91.813 51.683 M 48.500 55.561 C 54.692 56.960, 57 56.817, 57 55.031 C 57 54.408, 54.130 54.041, 49.750 54.102 L 42.500 54.205 48.500 55.561 M 59.799 55.742 C 58.282 57.570, 59.119 58.068, 64.095 58.299 C 67.410 58.453, 68.506 58.115, 68.765 56.860 C 69.208 54.720, 61.450 53.752, 59.799 55.742 M 71.460 57.125 C 71.044 58.436, 71.285 59.558, 72.089 60.055 C 73.481 60.915, 75.015 60.249, 79 57.051 L 81.500 55.044 76.817 55.022 C 72.911 55.004, 72.023 55.352, 71.460 57.125 M 82.738 57.660 C 80.682 59.123, 79 60.606, 79 60.956 C 79 61.305, 83.743 62.513, 89.539 63.640 L 100.079 65.689 103.225 61.594 C 104.955 59.342, 106.792 56.938, 107.308 56.250 C 108.043 55.269, 105.901 55, 97.361 55 C 87.180 55, 86.235 55.172, 82.738 57.660 M 112 61.933 C 112 68.184, 113.122 69.583, 115.513 66.313 C 116.642 64.769, 116.805 64.812, 117.440 66.811 C 117.821 68.012, 119.116 69.235, 120.317 69.527 C 123.969 70.417, 147.489 74.831, 147.664 74.660 C 147.755 74.572, 144.466 71.575, 140.357 68 C 133.603 62.125, 132.098 61.299, 124.693 59.412 C 120.187 58.263, 115.487 56.996, 114.250 56.595 C 112.084 55.892, 112 56.091, 112 61.933 M 106.250 61.963 C 103.340 65.653, 103.407 67, 106.500 67 C 108.750 67, 109 66.600, 109 63 C 109 60.800, 108.888 59.025, 108.750 59.055 C 108.612 59.086, 107.487 60.394, 106.250 61.963 M 43.298 91.483 L 32.096 115.863 29.623 142.673 C 28.263 157.418, 27.260 169.594, 27.396 169.729 C 27.531 169.864, 29.210 167.168, 31.127 163.738 C 33.044 160.307, 37.390 152.550, 40.785 146.500 L 46.958 135.500 51.019 102.122 C 53.253 83.764, 54.950 68.375, 54.791 67.924 C 54.631 67.473, 49.459 78.075, 43.298 91.483 M 81.500 93.093 C 71.050 106.285, 61.918 117.907, 61.206 118.921 C 60.081 120.524, 60.937 122.899, 67.798 137.202 L 75.683 153.640 93.591 165.942 L 111.500 178.244 120.500 176.078 C 125.450 174.887, 136.687 171.997, 145.472 169.657 L 161.444 165.403 170.200 133.679 L 178.956 101.955 175.228 98.627 C 160.633 85.599, 158.647 84.042, 157.614 84.816 C 140.404 97.706, 130.946 105.437, 131.265 106.351 C 131.487 106.983, 134.330 115.258, 137.584 124.740 L 143.500 141.979 126.750 158.736 L 110 175.493 109.882 161.996 C 109.817 154.573, 109.479 142.554, 109.132 135.287 L 108.500 122.074 103.250 126.083 C 100.362 128.287, 98.001 129.958, 98.002 129.796 C 98.002 129.633, 100.477 120.515, 103.502 109.533 C 108.410 91.710, 109 88.530, 109 79.900 C 109 70.721, 108.887 70.203, 106.750 69.630 C 101.376 68.190, 100.809 68.718, 81.500 93.093 M 112 74.167 C 112 77.808, 112.437 77.676, 113.378 73.750 C 113.770 72.117, 113.624 71, 113.019 71 C 112.459 71, 112 72.425, 112 74.167 M 124.219 86.696 C 127.042 94.838, 129.482 101.672, 129.642 101.883 C 130.077 102.456, 156 82.909, 156 82.008 C 156 80.014, 150.341 78.106, 137 75.601 C 129.025 74.104, 121.732 72.657, 120.793 72.386 C 119.406 71.985, 120.046 74.658, 124.219 86.696 M 114.141 81.238 C 112.436 87.737, 111.976 92.332, 111.986 102.774 L 112 116.048 119.500 110.403 C 123.625 107.298, 127 104.280, 127 103.695 C 127 102.714, 117.088 73.828, 116.549 73.238 C 116.417 73.094, 115.334 76.694, 114.141 81.238 M 105.701 111.868 C 104.161 117.570, 103.036 122.369, 103.201 122.532 C 103.365 122.696, 104.756 121.749, 106.291 120.428 C 108.981 118.113, 109.071 117.728, 108.791 109.763 L 108.500 101.500 105.701 111.868 M 120.204 113.148 L 112 119.393 112 144.433 L 112 169.473 126.034 155.487 C 137.379 144.181, 139.967 141.087, 139.539 139.345 C 139.248 138.161, 136.625 130.376, 133.709 122.047 L 128.409 106.903 120.204 113.148" stroke="none" fill="black" fill-rule="evenodd"/>
</svg>