<svg xmlns="http://www.w3.org/2000/svg" width="200" height="200" viewBox="0 0 200 200" version="1.1">
	<path d="M 15.548 10.922 C 15.235 11.429, 17.571 13.039, 20.739 14.500 C 23.908 15.960, 29.996 18.762, 34.269 20.726 C 38.542 22.689, 41.869 24.464, 41.663 24.670 C 41.457 24.877, 36.854 24.379, 31.435 23.565 C 26.016 22.751, 21.385 22.281, 21.145 22.521 C 20.780 22.886, 24.271 35.900, 31.546 61.297 L 32.920 66.093 23.374 60.932 C 17.633 57.828, 13.466 56.134, 12.918 56.682 C 12.121 57.479, 24.195 69.512, 37.227 80.908 L 40.955 84.167 39.488 79.334 C 38.682 76.675, 38.017 73.960, 38.011 73.301 C 38.003 72.379, 50.677 78.622, 52.944 80.656 C 53.188 80.875, 50.706 83.855, 47.429 87.277 C 34.035 101.264, 35.921 96.989, 27.544 132.348 C 23.395 149.861, 20 164.440, 20 164.744 C 20 165.539, 48.376 164.030, 49.123 163.196 C 49.676 162.579, 57.757 92.025, 58.320 82.907 C 58.507 79.872, 60.050 77.705, 68.271 68.935 L 78 58.555 77.981 80.027 C 77.963 99.852, 77.013 123.959, 75.415 145.100 L 74.766 153.700 81.499 154.390 L 88.232 155.080 108.685 171.638 C 119.934 180.745, 129.262 188.039, 129.414 187.848 C 129.565 187.657, 130.256 172.875, 130.948 155 C 131.641 137.125, 132.336 122.362, 132.493 122.194 C 132.651 122.025, 141.073 133.802, 151.210 148.364 C 174.701 182.113, 176.632 182.455, 160.484 150.010 C 154.101 137.186, 149.283 126.425, 149.777 126.097 C 150.272 125.768, 156.870 120.550, 164.440 114.500 L 178.203 103.500 163.852 102.876 C 155.958 102.532, 146.575 102.181, 143 102.095 L 136.500 101.938 119.500 87.965 C 110.150 80.279, 102.373 73.612, 102.218 73.149 C 102.062 72.685, 106.181 68.409, 111.370 63.646 L 120.804 54.986 147.290 69.993 C 161.857 78.247, 174.276 85, 174.888 85 C 177.401 85, 175.319 81.746, 163.053 66.500 C 154.961 56.443, 150.611 50.262, 151.340 49.858 C 151.978 49.505, 155.200 48.669, 158.500 48 C 161.800 47.331, 165.047 46.485, 165.715 46.121 C 166.561 45.661, 165.077 42.276, 160.830 34.980 C 157.476 29.216, 154.592 24.338, 154.421 24.139 C 154.251 23.941, 139.349 24.505, 121.306 25.392 C 103.263 26.280, 85.912 27.004, 82.750 27.003 L 77 27 77 23.059 C 77 19.418, 75.634 17.033, 74.307 18.359 C 74 18.667, 74.747 26.817, 75.968 36.470 L 78.188 54.022 74.963 57.761 C 68.987 64.691, 55.769 78, 54.863 78 C 54.369 78, 49.984 75.756, 45.118 73.013 L 36.271 68.025 30.505 47.476 C 27.334 36.174, 25.009 26.658, 25.337 26.329 C 25.666 26.001, 31.842 26.514, 39.063 27.471 C 56.206 29.741, 57.753 28.640, 45.418 22.949 C 13.835 8.377, 16.466 9.436, 15.548 10.922 M 112.500 28.531 C 99.850 29.228, 87.588 29.844, 85.250 29.899 L 81 30 81.023 43.250 L 81.045 56.500 90.071 63.829 L 99.097 71.158 107.638 63.329 C 122.043 50.126, 117.260 49.895, 144.183 65.094 C 157.007 72.333, 167.926 78.505, 168.447 78.809 C 169.754 79.572, 166.726 75.497, 155.583 61.500 C 150.329 54.900, 146.023 49.216, 146.015 48.869 C 146.007 48.522, 148.137 47.710, 150.750 47.066 C 153.363 46.421, 157.160 45.458, 159.188 44.925 L 162.877 43.956 158.138 35.728 L 153.399 27.500 144.450 27.382 C 139.527 27.316, 125.150 27.834, 112.500 28.531 M 81 66.916 C 81 70.812, 81.301 74, 81.668 74 C 82.036 74, 85.282 73.487, 88.882 72.860 L 95.427 71.720 91.964 68.787 C 90.059 67.173, 86.813 64.498, 84.750 62.842 L 81 59.832 81 66.916 M 28.500 69.217 C 34.211 74.554, 36.307 75.311, 34.135 71.253 C 33.588 70.231, 30.747 68.093, 27.820 66.503 L 22.500 63.611 28.500 69.217 M 87.891 75.705 L 80.282 77.159 79.656 107.329 C 79.311 123.923, 78.737 140.762, 78.380 144.750 L 77.731 152 83.264 152 L 88.796 152 107.648 167.344 C 118.017 175.783, 126.603 182.421, 126.730 182.094 C 126.856 181.767, 127.625 166.481, 128.438 148.125 C 129.252 129.768, 130.083 114.584, 130.286 114.381 C 130.489 114.178, 137.257 123.528, 145.327 135.158 C 153.397 146.788, 160 156.015, 160 155.661 C 160 155.307, 156.755 148.509, 152.788 140.554 C 148.822 132.599, 145.785 125.917, 146.038 125.707 C 146.292 125.496, 152.094 120.863, 158.930 115.412 L 171.360 105.500 153.637 105.227 L 135.914 104.953 117.207 89.499 C 106.918 80.999, 97.825 74.091, 97 74.147 C 96.175 74.204, 92.076 74.905, 87.891 75.705 M 46.292 92.356 C 39.699 99.252, 37.145 102.660, 36.719 105.131 C 36.399 106.984, 33.236 120.584, 29.691 135.354 L 23.244 162.208 34.544 161.849 C 40.758 161.652, 46.132 161.201, 46.487 160.847 C 47.095 160.239, 55.974 83.810, 55.504 83.225 C 55.383 83.074, 51.238 87.183, 46.292 92.356" stroke="none" fill="black" fill-rule="evenodd"/>
</svg>