<svg xmlns="http://www.w3.org/2000/svg" width="200" height="200" viewBox="0 0 200 200" version="1.1">
	<path d="M 66.801 20.070 L 44.102 30.815 38.301 26.434 C 32.725 22.223, 30 21.046, 30 22.849 C 30 23.316, 33.158 30.281, 37.017 38.326 L 44.035 52.954 36.012 68.977 C 31.599 77.790, 27.816 85, 27.605 85 C 27.393 85, 22.844 77.087, 17.495 67.415 C 11.043 55.748, 7.435 50.165, 6.775 50.825 C 6.114 51.486, 9.070 57.824, 15.558 69.660 C 20.937 79.472, 25.906 88.344, 26.600 89.375 C 27.725 91.045, 28.738 89.518, 35.886 75.375 C 45.866 55.629, 45.496 56.190, 46.854 58.727 C 48.795 62.353, 41.118 90.390, 27.612 129 C 20.782 148.525, 15.283 164.596, 15.393 164.713 C 15.733 165.076, 46.017 162.322, 46.332 161.899 C 46.495 161.680, 49.216 142.083, 52.378 118.351 L 58.127 75.202 54.444 67.889 L 50.762 60.577 53.516 48.539 C 55.031 41.917, 56.483 35.938, 56.742 35.250 C 57.002 34.563, 56.496 34, 55.618 34 C 54.624 34, 52.493 37.041, 49.968 42.064 L 45.914 50.127 40.584 39.314 C 37.653 33.366, 35.393 28.342, 35.561 28.150 C 35.730 27.957, 37.610 29.200, 39.741 30.912 L 43.614 34.025 63.924 24.462 C 75.094 19.203, 84.443 15.109, 84.699 15.365 C 84.955 15.621, 79.922 30.381, 73.514 48.165 L 61.865 80.500 63.398 96.500 C 64.242 105.300, 65.458 124.425, 66.101 139 C 66.745 153.575, 67.381 165.633, 67.515 165.796 C 67.649 165.959, 80.301 162.504, 95.630 158.117 C 110.958 153.731, 124.672 149.853, 126.105 149.499 L 128.710 148.856 129.440 167.678 C 129.841 178.030, 130.313 186.645, 130.489 186.821 C 130.864 187.197, 181.616 144.431, 182.507 142.988 C 182.839 142.452, 179.975 134.829, 176.143 126.048 L 169.176 110.084 172.719 90.006 C 174.668 78.964, 175.954 69.620, 175.576 69.243 C 175.198 68.865, 161.375 67.356, 144.856 65.890 C 119.260 63.617, 110.792 62.248, 113.067 60.747 C 113.305 60.590, 121.825 57.740, 132 54.413 C 149.127 48.814, 150.522 48.178, 150.801 45.847 C 150.966 44.462, 150.516 42.869, 149.801 42.308 C 148.253 41.093, 97.086 24.566, 96.583 25.118 C 96.392 25.328, 99.135 32.875, 102.679 41.889 C 106.222 50.903, 108.757 58.611, 108.311 59.018 C 107.865 59.425, 105.813 60.298, 103.750 60.957 C 98.659 62.584, 98.769 65, 103.935 65 C 111.071 65, 112.277 66.034, 115.748 75.126 C 117.499 79.714, 118.610 83.768, 118.216 84.134 C 116.709 85.535, 103.029 90.855, 102.631 90.195 C 102.401 89.813, 101.885 84.205, 101.485 77.734 C 100.830 67.125, 99.951 63.716, 98.299 65.368 C 97.786 65.880, 99.822 94.156, 100.415 94.748 C 100.551 94.885, 104.811 93.197, 109.882 90.998 C 114.952 88.799, 119.437 87, 119.849 87 C 120.261 87, 121.166 88.569, 121.859 90.487 L 123.120 93.974 113.511 106.038 L 103.901 118.102 100.201 115.862 C 98.165 114.630, 95.397 112.920, 94.048 112.063 C 91.822 110.649, 91.652 110.651, 92.201 112.082 C 92.534 112.949, 93.617 117.560, 94.608 122.329 C 95.599 127.098, 96.768 131, 97.205 131 C 97.642 131, 98.017 130.662, 98.038 130.250 C 98.058 129.838, 99.550 127.778, 101.352 125.673 L 104.630 121.845 125.544 134.860 C 137.047 142.019, 146.570 147.764, 146.706 147.627 C 146.843 147.490, 142.296 135.481, 136.603 120.939 C 124.779 90.742, 124.872 94.613, 135.704 83.765 C 144.338 75.118, 143.449 73.661, 132.443 78.418 C 128.074 80.306, 123.872 81.997, 123.104 82.175 C 122.181 82.390, 120.603 79.789, 118.448 74.500 C 116.656 70.100, 115.297 66.387, 115.428 66.250 C 115.764 65.898, 172.412 71.079, 172.833 71.499 C 173.022 71.689, 171.644 80.541, 169.771 91.172 L 166.366 110.500 173.113 125.959 C 176.824 134.461, 179.638 141.776, 179.368 142.214 C 178.400 143.780, 133.833 181, 132.926 181 C 132.392 181, 132 173.331, 132 162.883 C 132 146.112, 131.870 144.803, 130.250 145.249 C 129.287 145.515, 115.560 149.464, 99.744 154.026 C 83.928 158.588, 70.760 162.094, 70.483 161.816 C 70.205 161.538, 69.314 148.304, 68.503 132.406 C 67.692 116.508, 66.516 98.325, 65.890 92 L 64.751 80.500 77.483 45.191 C 84.486 25.771, 90.055 9.757, 89.858 9.603 C 89.661 9.450, 79.285 14.160, 66.801 20.070 M 101 29.381 C 101 30.399, 111.211 56.457, 111.918 57.243 C 112.808 58.233, 147.272 46.685, 147.755 45.234 C 147.987 44.540, 139.488 41.315, 125.816 36.909 C 113.542 32.954, 102.938 29.508, 102.250 29.252 C 101.563 28.996, 101 29.054, 101 29.381 M 48.778 50.340 C 47.873 52.236, 47.530 54.239, 47.983 54.972 C 48.819 56.325, 49.094 55.736, 50.426 49.750 C 51.240 46.092, 50.713 46.281, 48.778 50.340 M 108.813 62.683 C 109.534 62.972, 110.397 62.936, 110.729 62.604 C 111.061 62.272, 110.471 62.036, 109.417 62.079 C 108.252 62.127, 108.015 62.364, 108.813 62.683 M 46.613 78.250 C 45.054 84.987, 38.238 106.473, 31.467 125.995 C 24.696 145.517, 19.236 161.570, 19.335 161.668 C 19.591 161.925, 43.442 159.819, 43.792 159.508 C 43.952 159.366, 46.593 140.468, 49.660 117.512 L 55.236 75.773 52.947 70.887 C 51.688 68.199, 50.386 66, 50.054 66 C 49.721 66, 48.173 71.513, 46.613 78.250 M 127.742 83.288 C 123.766 85.033, 123.087 85.715, 123.605 87.438 C 124.699 91.078, 125.419 90.901, 129.832 85.905 C 134.648 80.452, 134.533 80.307, 127.742 83.288 M 114.761 108.840 L 106.214 119.679 123.338 130.275 C 132.756 136.103, 140.626 140.707, 140.827 140.506 C 141.386 139.947, 124.770 98, 123.990 98 C 123.614 98, 119.461 102.878, 114.761 108.840 M 96.448 118.250 C 96.660 118.938, 97.134 120.850, 97.501 122.500 L 98.169 125.500 100.152 123.055 L 102.136 120.611 99.818 118.828 C 97.080 116.721, 95.915 116.522, 96.448 118.250" stroke="none" fill="black" fill-rule="evenodd"/>
</svg>