<svg xmlns="http://www.w3.org/2000/svg" width="200" height="200" viewBox="0 0 200 200" version="1.1">
	<path d="M 128.555 11.779 C 128.250 12.084, 127.997 16.421, 127.993 21.417 C 127.989 26.413, 127.699 33.538, 127.348 37.250 L 126.711 44 108.376 44 L 90.041 44 88.092 40.180 C 86.599 37.253, 85.215 36.081, 82.175 35.171 C 79.992 34.517, 77.911 33.211, 77.550 32.269 C 77.131 31.179, 76.639 30.948, 76.196 31.635 C 75.738 32.344, 68.994 30.205, 56.500 25.388 C 46.050 21.359, 37.050 18.053, 36.500 18.041 C 35.536 18.019, 28 30.393, 28 31.997 C 28 32.921, 27.109 32.696, 52 38.056 C 62.725 40.366, 71.654 42.390, 71.843 42.554 C 72.031 42.718, 70.507 47.610, 68.456 53.426 C 65.142 62.824, 64.464 64, 62.364 64 C 61.064 64, 60 63.765, 60 63.478 C 60 63.191, 61.359 59.960, 63.019 56.297 C 64.802 52.365, 65.671 49.271, 65.141 48.741 C 64.611 48.211, 61.097 50.587, 56.559 54.545 L 48.875 61.247 26.690 56.704 C 14.488 54.206, 4.407 52.259, 4.288 52.379 C 4.169 52.498, 10.054 58.865, 17.367 66.528 L 30.662 80.461 39.896 72.480 C 44.974 68.091, 49.550 64.545, 50.065 64.600 C 50.579 64.655, 51.900 64.767, 53 64.850 C 54.100 64.933, 55 65.413, 55 65.918 C 55 66.423, 49.300 78.910, 42.334 93.668 L 29.668 120.500 30.875 145 C 32.683 181.700, 33.078 186, 34.648 186 C 35.391 186, 36 185.881, 36 185.735 C 36 185.590, 39.136 169.514, 42.970 150.010 C 49.563 116.464, 50.380 113.294, 58.100 91.275 C 66.921 66.116, 66.310 67.034, 72.994 68.893 C 75.381 69.558, 75.315 69.657, 71.446 71.205 L 67.404 72.822 64.148 95.161 C 62.358 107.448, 60.837 118.400, 60.769 119.500 C 60.629 121.771, 83.642 188.998, 85.051 190.433 C 85.554 190.947, 86.267 191.067, 86.633 190.700 C 87 190.333, 89.445 168.538, 92.068 142.267 C 96.629 96.572, 98.811 76.855, 99.369 76.298 C 100.408 75.259, 109.118 93.818, 113.960 107.387 L 119.847 123.887 106.551 153.405 C 99.239 169.639, 93.404 183.071, 93.586 183.252 C 93.892 183.559, 171.277 176.999, 171.683 176.632 C 171.784 176.541, 170.547 167.816, 168.935 157.242 L 166.003 138.018 170.001 105.490 C 172.201 87.599, 173.996 72.183, 173.991 71.231 C 173.985 70.043, 167.828 65.894, 154.353 58 L 134.723 46.500 161.342 45.936 C 175.983 45.626, 188.171 45.162, 188.427 44.906 C 188.684 44.650, 175.442 36.966, 159.002 27.832 C 142.561 18.697, 128.860 11.473, 128.555 11.779 M 130.479 29.544 C 130.081 36.993, 129.922 43.180, 130.127 43.294 C 130.332 43.407, 141.525 43.275, 155 43 L 179.500 42.500 155.845 29.250 C 142.834 21.962, 131.968 16, 131.697 16 C 131.426 16, 130.878 22.095, 130.479 29.544 M 34.455 25.487 C 32.971 28.019, 31.940 30.273, 32.163 30.496 C 32.617 30.950, 68.406 38.995, 71.342 39.303 C 72.449 39.419, 73.550 38.632, 74.028 37.383 C 74.784 35.406, 73.643 34.811, 56.751 28.383 C 46.804 24.597, 38.325 21.361, 37.909 21.192 C 37.493 21.023, 35.938 22.955, 34.455 25.487 M 76.639 38.694 C 75.513 39.820, 75.954 41, 77.500 41 C 78.325 41, 79 40.577, 79 40.059 C 79 38.798, 77.438 37.895, 76.639 38.694 M 81.649 39.528 C 82.354 41.366, 86 43.527, 86 42.107 C 86 40.892, 83.155 38, 81.960 38 C 81.467 38, 81.327 38.688, 81.649 39.528 M 74.500 44.225 C 74.249 44.926, 72.536 49.871, 70.692 55.214 L 67.340 64.929 72.920 66.028 C 75.989 66.632, 78.947 67.247, 79.494 67.395 C 81.300 67.882, 91.506 63.136, 91.213 61.945 C 90.810 60.305, 81.977 45.094, 81.167 44.646 C 78.802 43.336, 74.906 43.090, 74.500 44.225 M 86.132 46.651 C 87.325 49.441, 94.583 61.985, 95 61.978 C 96.951 61.944, 98.077 59.554, 98.629 54.275 L 99.268 48.163 94.384 47.497 C 91.698 47.131, 88.659 46.597, 87.632 46.311 C 86.604 46.025, 85.929 46.178, 86.132 46.651 M 110.886 46.743 L 102.272 47.074 101.686 52.754 C 101.364 55.877, 101.246 58.579, 101.425 58.758 C 101.733 59.066, 118.335 52.651, 124.250 49.940 C 128.353 48.059, 127.790 45.957, 123.250 46.206 C 121.188 46.319, 115.624 46.560, 110.886 46.743 M 130.813 46.683 C 131.534 46.972, 132.397 46.936, 132.729 46.604 C 133.061 46.272, 132.471 46.036, 131.417 46.079 C 130.252 46.127, 130.015 46.364, 130.813 46.683 M 131.823 49.734 C 129.795 50.199, 128.695 58.616, 129.181 69.957 L 129.500 77.413 140.909 79.699 C 147.185 80.957, 152.544 82.211, 152.820 82.486 C 153.095 82.762, 148.914 85.046, 143.529 87.562 C 137.050 90.590, 133.402 91.802, 132.745 91.145 C 132.088 90.488, 134.040 88.999, 138.517 86.742 L 145.281 83.332 137.390 81.758 C 133.051 80.892, 129.275 80.404, 129 80.674 C 128.515 81.150, 127.136 112.186, 127.572 112.811 C 127.692 112.982, 128.847 110.395, 130.140 107.061 C 132.416 101.190, 133.317 100.085, 134.399 101.836 C 135.249 103.211, 127.230 122.500, 125.808 122.500 C 124.432 122.500, 124.361 111.391, 125.598 89.460 L 126.164 79.419 116.832 77.632 C 111.699 76.650, 106.264 75.599, 104.754 75.299 L 102.007 74.751 106.458 82.626 C 108.906 86.957, 113.588 98.041, 116.864 107.257 L 122.818 124.014 110.375 151.639 C 103.531 166.833, 98.171 179.505, 98.465 179.798 C 99.078 180.411, 162.189 175.139, 166.051 174.152 L 168.601 173.500 165.879 155.517 L 163.156 137.534 167.069 106.517 C 169.222 89.458, 170.987 74.503, 170.991 73.285 C 170.998 71.477, 167.920 69.251, 154.250 61.177 C 134.407 49.456, 133.981 49.239, 131.823 49.734 M 113 57.406 L 100.500 62.660 100.204 67.108 L 99.909 71.557 112.954 74.117 L 126 76.677 126 71.990 C 126 69.411, 126.291 63.859, 126.647 59.651 C 127.014 55.309, 126.906 52.033, 126.397 52.076 C 125.904 52.118, 119.875 54.516, 113 57.406 M 55.500 59 C 53.919 60.650, 53.160 62.068, 53.813 62.150 C 54.466 62.232, 55.488 62.345, 56.085 62.400 C 56.682 62.455, 57.785 61.038, 58.537 59.250 C 60.241 55.197, 59.224 55.113, 55.500 59 M 21 66.500 C 26.203 71.725, 30.719 76, 31.036 76 C 31.352 76, 34.881 73.192, 38.879 69.760 L 46.147 63.520 30.323 60.308 C 21.621 58.541, 13.834 57.074, 13.020 57.048 C 12.206 57.021, 15.797 61.275, 21 66.500 M 45.336 93.750 L 32.282 121.500 33.585 143.500 C 34.302 155.600, 34.958 167.300, 35.044 169.500 C 35.136 171.876, 37.729 161.116, 41.429 143 C 46.958 115.939, 48.544 109.982, 55.501 90.165 C 61.961 71.766, 63.092 67.671, 61.921 66.930 C 61.140 66.435, 60.025 66.024, 59.445 66.015 C 58.864 66.007, 52.515 78.487, 45.336 93.750 M 88.510 67.365 L 85.520 68.640 90.760 69.676 C 96.448 70.801, 96.490 70.784, 94.965 67.934 C 93.769 65.700, 92.647 65.601, 88.510 67.365 M 74.250 73.030 C 71.912 74.068, 69.988 75.049, 69.973 75.209 C 69.958 75.369, 68.411 85.400, 66.536 97.500 L 63.127 119.500 73.814 150.772 C 80.827 171.296, 84.734 181.435, 85.181 180.272 C 85.556 179.297, 87.504 161.400, 89.511 140.500 C 91.517 119.600, 93.795 97.325, 94.572 91 C 96.843 72.503, 97.118 73.552, 89.635 72.173 C 81.356 70.647, 79.362 70.758, 74.250 73.030" stroke="none" fill="black" fill-rule="evenodd"/>
</svg>