<svg xmlns="http://www.w3.org/2000/svg" width="200" height="200" viewBox="0 0 200 200" version="1.1">
	<path d="M 28 14.605 C 28 15.500, 40.681 39.222, 42.199 41.167 C 43.146 42.379, 46.342 43.132, 53.932 43.932 C 59.670 44.537, 64.553 45.220, 64.784 45.451 C 65.329 45.995, 60.979 66.302, 60.140 67.133 C 59.788 67.482, 51.850 64.720, 42.500 60.997 L 25.500 54.227 24.803 57.363 C 24.420 59.089, 23.815 63.600, 23.459 67.388 L 22.811 74.276 16.457 63.388 C 10.889 53.846, 8.640 51.159, 7.761 53 C 7.517 53.513, 23.944 82, 24.485 82 C 24.650 82, 25.352 76.585, 26.044 69.967 C 26.737 63.349, 27.608 58.062, 27.981 58.217 C 28.354 58.373, 35.485 61.162, 43.829 64.416 C 53.309 68.113, 59 70.856, 59 71.727 C 59 72.494, 49.538 87.024, 37.974 104.015 L 16.948 134.909 31.724 163.378 C 43.331 185.742, 46.641 191.381, 47.155 189.674 C 47.516 188.478, 48.787 171.525, 49.980 152 C 52.085 117.562, 52.282 115.902, 56.583 96.500 C 59.021 85.500, 61.676 75.045, 62.483 73.268 C 63.290 71.490, 63.754 69.465, 63.513 68.768 C 63.272 68.070, 64.347 62.100, 65.902 55.500 C 68.442 44.717, 68.565 43.430, 67.114 42.811 C 66.226 42.432, 60.839 41.672, 55.143 41.121 C 49.446 40.570, 44.658 39.980, 44.502 39.809 C 43.600 38.826, 32.184 17.483, 32.429 17.238 C 32.592 17.075, 48.468 18.530, 67.710 20.471 C 86.951 22.412, 103.309 24, 104.060 24 C 104.811 24, 98.018 28.337, 88.963 33.638 C 79.908 38.939, 72.332 43.419, 72.126 43.595 C 71.921 43.770, 75.189 52.760, 79.389 63.572 L 87.026 83.230 74.460 124.865 C 67.549 147.764, 61.664 167.282, 61.384 168.238 C 60.966 169.658, 63.922 168.927, 77.561 164.238 L 94.248 158.500 93.631 140 C 93.291 129.825, 92.920 114.987, 92.805 107.026 L 92.596 92.553 103.302 90.113 C 109.190 88.771, 114.180 87.860, 114.392 88.087 C 114.603 88.314, 120.075 110.100, 126.551 136.500 C 133.028 162.900, 138.456 184.665, 138.614 184.867 C 138.902 185.235, 186.834 159.365, 188.256 158.074 C 188.672 157.697, 184.314 153.588, 178.573 148.944 L 168.134 140.500 162.928 125 C 160.064 116.475, 155.951 104.476, 153.787 98.336 L 149.853 87.172 140.931 90.336 C 136.024 92.076, 132.007 94.063, 132.004 94.750 C 131.998 96.459, 132.471 96.384, 140.774 93.362 C 144.775 91.906, 148.189 90.891, 148.361 91.107 C 148.533 91.323, 152.460 102.736, 157.087 116.468 L 165.500 141.436 174.684 148.968 C 179.736 153.111, 183.892 156.725, 183.921 157 C 183.985 157.615, 140.917 181.277, 140.559 180.824 C 139.393 179.352, 132.329 147.415, 133.067 146.958 C 133.816 146.495, 128.205 102.226, 125.576 87.857 C 125.138 85.460, 125.484 85.114, 129.296 84.136 C 133.029 83.178, 173.492 64.841, 174.834 63.499 C 176.877 61.456, 171.161 61.257, 148.564 62.581 C 134.849 63.385, 123.277 63.921, 122.848 63.771 C 122.420 63.622, 126.372 59.675, 131.631 55 C 139.560 47.952, 143.612 45.280, 155.347 39.362 L 169.500 32.223 165.500 31.184 C 163.300 30.612, 150.746 27.830, 137.603 25.001 C 120.624 21.347, 113.504 20.185, 113.007 20.989 C 112.498 21.813, 101.167 21.018, 71.239 18.060 C 26.134 13.601, 28 13.750, 28 14.605 M 93.995 33.966 C 82.796 40.552, 75.619 45.367, 75.801 46.171 C 75.966 46.902, 79.214 55.482, 83.018 65.239 L 89.935 82.978 77.609 123.739 C 70.830 146.157, 65.425 164.668, 65.598 164.874 C 65.772 165.079, 71.592 163.313, 78.533 160.949 L 91.152 156.652 90.434 123.526 L 89.716 90.400 101.856 87.615 C 113.674 84.904, 113.979 84.766, 113.389 82.415 C 112.937 80.611, 113.190 80, 114.392 80 C 115.333 80, 116 80.829, 116 82 C 116 84.080, 118.402 84.666, 120.770 83.163 C 121.781 82.522, 121.807 80.786, 120.899 74.678 C 119.818 67.411, 119.620 67, 117.204 67 L 114.651 67 116.900 64.606 L 119.149 62.212 116.415 43.356 C 114.911 32.985, 113.412 24.183, 113.085 23.795 C 112.758 23.407, 104.167 27.985, 93.995 33.966 M 116.360 24.756 C 116.630 25.715, 117.855 33.925, 119.082 43 C 120.309 52.075, 121.454 59.674, 121.626 59.886 C 121.798 60.098, 125.890 56.669, 130.719 52.265 C 137.506 46.076, 141.990 43.009, 150.462 38.763 C 158.631 34.670, 160.925 33.123, 159.462 32.695 C 158.383 32.379, 148.725 30.271, 138 28.010 C 127.275 25.749, 117.908 23.700, 117.185 23.456 C 116.328 23.167, 116.041 23.621, 116.360 24.756 M 144 65.560 C 132.725 66.254, 123.329 66.862, 123.121 66.911 C 122.620 67.029, 123.953 78.713, 124.684 80.619 C 125.570 82.928, 129.723 81.612, 148 73.228 C 163.122 66.291, 168.011 63.748, 165.450 64.149 C 164.928 64.230, 155.275 64.865, 144 65.560 M 38.190 108.523 L 20.141 135.140 27.748 149.820 C 31.933 157.894, 37.486 168.501, 40.088 173.392 L 44.821 182.284 45.401 176.892 C 45.721 173.926, 46.889 158.225, 47.998 142 C 49.749 116.382, 50.469 110.531, 53.464 97.540 C 55.361 89.312, 56.761 82.428, 56.576 82.242 C 56.390 82.057, 48.117 93.883, 38.190 108.523 M 118.466 87.055 C 117.824 88.094, 125.989 119.344, 126.714 118.620 C 126.918 118.415, 126.072 110.992, 124.832 102.124 C 122.911 88.371, 122.325 86, 120.849 86 C 119.897 86, 118.825 86.475, 118.466 87.055 M 127.079 121.583 C 127.127 122.748, 127.364 122.985, 127.683 122.188 C 127.972 121.466, 127.936 120.603, 127.604 120.271 C 127.272 119.939, 127.036 120.529, 127.079 121.583" stroke="none" fill="black" fill-rule="evenodd"/>
</svg>