<svg xmlns="http://www.w3.org/2000/svg" width="200" height="200" viewBox="0 0 200 200" version="1.1">
	<path d="M 93.872 16.850 C 92.835 18.248, 87.127 19.819, 70.500 23.283 C 52.356 27.063, 35.016 30, 30.841 30 C 30.378 30, 30 30.703, 30 31.561 C 30 32.817, 30.831 33.015, 34.250 32.574 C 36.587 32.272, 48.175 31.336, 60 30.494 C 71.825 29.651, 82.988 28.720, 84.807 28.425 L 88.114 27.888 81.440 40.694 C 75.477 52.136, 69.700 60.033, 68.309 58.642 C 68.034 58.367, 70.552 52.098, 73.904 44.711 C 77.257 37.324, 80 30.992, 80 30.640 C 80 30.288, 79.426 30, 78.725 30 C 78.024 30, 75.454 34.537, 73.013 40.082 L 68.576 50.165 47.788 49.446 L 27 48.727 27 68.363 C 27 79.163, 27.212 88, 27.471 88 C 27.730 88, 33.907 84.202, 41.198 79.560 C 48.488 74.918, 54.607 71.274, 54.795 71.461 C 54.982 71.649, 49.531 82.309, 42.680 95.151 L 30.225 118.500 27.648 145.452 C 26.230 160.275, 25.172 172.506, 25.298 172.631 C 25.423 172.756, 31.145 169.303, 38.013 164.957 C 44.881 160.611, 50.882 156.916, 51.348 156.745 C 51.814 156.574, 53.540 139.124, 55.183 117.967 C 58.113 80.244, 58.230 79.365, 61.247 72.500 C 63.919 66.417, 68.651 60.318, 69.804 61.470 C 70.014 61.680, 68.069 65.735, 65.481 70.481 C 62.894 75.228, 61.035 79.368, 61.349 79.682 C 61.663 79.996, 71.312 77.721, 82.792 74.627 C 94.272 71.532, 104.007 69, 104.425 69 C 104.844 69, 98.732 74.217, 90.843 80.592 C 82.954 86.968, 76.163 92.502, 75.752 92.890 C 75.341 93.278, 77.028 99.631, 79.502 107.006 C 81.976 114.382, 84 121.038, 84 121.797 C 84 122.557, 77.865 137.876, 70.368 155.839 C 62.870 173.803, 56.505 189.333, 56.225 190.351 C 54.909 195.119, 60.510 189.601, 83.480 163.500 C 105.620 138.341, 108.637 134.485, 113.212 125.500 C 116.012 120, 118.435 115.950, 118.597 116.500 C 118.759 117.050, 122.341 134.150, 126.557 154.500 C 130.773 174.850, 134.335 191.625, 134.472 191.778 C 135.098 192.474, 199.536 151.816, 199.812 150.551 C 200.070 149.367, 198.609 149.209, 191.312 149.630 C 175.146 150.562, 149.504 151.620, 149.145 151.370 C 148.949 151.234, 151.311 138.990, 154.393 124.162 L 159.997 97.200 158.027 90.822 C 156.943 87.314, 154.020 79.282, 151.530 72.972 C 149.041 66.662, 147.008 61.050, 147.013 60.500 C 147.017 59.950, 150.406 57.571, 154.542 55.214 C 161.338 51.340, 161.939 50.752, 160.781 49.111 C 157.920 45.054, 133.886 18, 133.144 18 C 132.704 18, 127.088 21.375, 120.664 25.500 C 114.240 29.625, 108.818 33, 108.615 33 C 108.412 33, 108.478 30.939, 108.762 28.419 L 109.278 23.838 101.030 24.558 C 92.858 25.271, 92.792 25.258, 93.908 23.173 C 94.994 21.143, 98.314 19.873, 106.250 18.450 C 108.460 18.053, 110 17.207, 110 16.389 C 110 15.329, 108.251 15, 102.622 15 C 96.605 15, 94.991 15.341, 93.872 16.850 M 119.755 29.269 C 111.628 34.517, 107.008 38.119, 107.005 39.209 C 107.002 40.149, 106.495 44.312, 105.878 48.459 C 105.053 54.006, 104.359 56, 103.253 56 C 102.133 56, 101.896 55.272, 102.322 53.140 C 103.678 46.361, 104.192 40.005, 103.379 40.068 C 102.895 40.106, 96.425 44.071, 89 48.881 L 75.500 57.625 70.768 66.497 C 68.165 71.376, 66.201 75.534, 66.403 75.736 C 66.683 76.016, 99.488 67.517, 110.250 64.376 C 115.353 62.886, 110.309 68.290, 95.148 80.555 L 78.297 94.188 82.648 107.683 C 85.042 115.105, 87 121.623, 87 122.167 C 87 122.989, 63.869 179.368, 62.247 182.500 C 61.119 184.678, 67.660 177.526, 86.484 156 C 105.189 134.611, 106.480 132.865, 112.641 120.644 C 116.205 113.573, 119.271 107.948, 119.455 108.144 C 119.638 108.340, 123.480 126.275, 127.992 148 C 132.503 169.725, 136.264 187.574, 136.347 187.664 C 136.558 187.890, 188.058 155.932, 191.071 153.706 L 193.500 151.912 191 152.380 C 189.625 152.638, 178.782 153.165, 166.905 153.551 L 145.311 154.254 151.206 126.377 C 158.038 94.066, 158.145 97.127, 149.411 75 C 146.480 67.575, 143.951 60.883, 143.791 60.128 C 143.623 59.335, 146.426 57.012, 150.427 54.628 C 154.236 52.358, 157.386 50.214, 157.427 49.865 C 157.511 49.138, 133.761 21.154, 133 21.084 C 132.725 21.058, 126.765 24.741, 119.755 29.269 M 79.500 24.076 C 67.820 26.753, 67.653 26.907, 77 26.374 C 87.807 25.758, 89.647 25.363, 90.358 23.509 C 91.079 21.630, 89.896 21.692, 79.500 24.076 M 94.786 27.726 C 91.169 28.106, 90.912 28.417, 84.934 39.623 C 81.559 45.952, 78.959 51.293, 79.158 51.491 C 79.357 51.690, 85.140 48.266, 92.010 43.881 C 104.335 36.015, 105.663 34.617, 105.900 29.250 C 106.006 26.859, 104.720 26.683, 94.786 27.726 M 30 67.500 C 30 76.025, 30.207 83, 30.460 83 C 30.713 83, 37.126 79.019, 44.710 74.153 C 57.613 65.876, 58.705 64.927, 61.689 59.403 C 64.526 54.153, 64.692 53.425, 63.189 52.820 C 62.260 52.446, 54.413 52.109, 45.750 52.070 L 30 52 30 67.500 M 44.260 97.824 L 33.124 118.585 30.708 143.043 C 29.379 156.494, 28.358 167.594, 28.439 167.709 C 28.519 167.824, 33.403 164.804, 39.292 160.997 C 49.757 154.233, 50.001 153.990, 50.052 150.288 C 50.080 148.205, 51.361 130.975, 52.897 112 C 54.434 93.025, 55.625 77.402, 55.544 77.281 C 55.463 77.161, 50.385 86.405, 44.260 97.824" stroke="none" fill="black" fill-rule="evenodd"/>
</svg>