<svg xmlns="http://www.w3.org/2000/svg" width="200" height="200" viewBox="0 0 200 200" version="1.1">
	<path d="M 78 11.554 C 47.475 12.235, 21.500 12.839, 20.278 12.896 C 18.279 12.990, 18.972 14.436, 27.161 27.250 C 32.170 35.088, 36.855 42.132, 37.573 42.904 C 38.685 44.099, 40.777 43.596, 51.689 39.507 C 58.735 36.867, 65.021 34.516, 65.658 34.282 C 66.454 33.989, 66.249 36.398, 64.999 42.004 C 64 46.484, 63.030 50.268, 62.842 50.412 C 62.654 50.556, 55.261 53.263, 46.413 56.427 C 37.565 59.592, 29.886 62.478, 29.349 62.840 C 27.649 63.989, 12.889 84, 13.742 84 C 14.191 84, 23.185 81.116, 33.728 77.591 L 52.899 71.182 51.049 75.841 C 50.031 78.403, 44.878 91.029, 39.599 103.898 C 30.135 126.965, 29.124 130, 30.900 130 C 31.842 130, 33.065 127.186, 47.515 91.784 C 52.390 79.841, 57.019 69.823, 57.801 69.523 C 58.671 69.189, 59.037 69.467, 58.744 70.239 C 58.480 70.932, 56.419 79.825, 54.165 90 L 50.065 108.500 49.282 145 L 48.500 181.500 38.617 163 C 20.175 128.479, 19.788 127.812, 18.798 128.802 C 18.191 129.409, 23.747 140.923, 34.052 160.414 C 42.968 177.276, 50.480 190.853, 50.747 190.587 C 51.013 190.320, 51.632 171.517, 52.121 148.801 L 53.011 107.500 57.136 89 C 59.405 78.825, 61.612 69.842, 62.039 69.038 C 62.812 67.586, 78.946 61.613, 79.797 62.464 C 80.041 62.708, 78.243 65.741, 75.801 69.204 L 71.361 75.500 68.642 120.500 C 67.146 145.250, 65.780 166.499, 65.606 167.720 C 65.193 170.610, 65.444 170.442, 78.152 159.321 C 84.011 154.195, 89.073 150, 89.402 150 C 89.731 150, 90 155.400, 90 162 C 90 169.430, 90.385 174, 91.012 174 C 91.569 174, 98.768 169.977, 107.009 165.060 L 121.994 156.119 145.552 167.171 C 158.509 173.250, 169.316 178.017, 169.569 177.764 C 169.821 177.512, 167.097 170.398, 163.514 161.957 C 159.931 153.515, 157 146.252, 157 145.817 C 157 145.381, 161.950 137.874, 168 129.133 C 174.050 120.393, 179 112.949, 179 112.590 C 179 112.232, 171.912 112.239, 163.250 112.607 C 149.803 113.178, 145.156 112.944, 131.466 111.009 L 115.432 108.743 112.145 103.776 C 110.337 101.044, 109.002 98.695, 109.179 98.556 C 109.356 98.418, 113.100 97.597, 117.500 96.733 L 125.500 95.161 128.062 97.587 L 130.623 100.013 132.204 96.697 L 133.786 93.382 163.643 87.072 C 180.064 83.602, 193.618 80.661, 193.762 80.536 C 193.906 80.411, 183.443 75.452, 170.512 69.516 C 157.580 63.580, 147 58.653, 147 58.568 C 147 58.482, 149.685 51.479, 152.966 43.005 C 156.247 34.531, 158.745 27.411, 158.516 27.183 C 157.862 26.529, 125 42.233, 125 43.200 C 125 43.677, 126.147 46.330, 127.549 49.097 C 129.801 53.541, 130.851 54.466, 136.549 57.022 C 140.097 58.614, 143 60.179, 143 60.499 C 143 60.976, 132.004 90.113, 131.614 90.669 C 131.549 90.762, 130.336 91.129, 128.918 91.484 C 126.634 92.058, 124.356 90.290, 108.920 75.965 C 99.339 67.073, 90.699 59.030, 89.720 58.091 C 88.022 56.463, 88.322 55.839, 96.220 44.584 C 105.770 30.973, 100.861 33.714, 139.250 20.560 C 154.184 15.443, 162 12.289, 162 11.382 C 162 9.740, 159.007 9.746, 78 11.554 M 85 14.129 C 64.925 14.575, 42.768 15.066, 35.761 15.220 L 23.023 15.500 30.610 27.500 C 34.784 34.100, 38.549 39.873, 38.978 40.329 C 39.407 40.785, 46.376 38.611, 54.464 35.497 C 62.552 32.383, 69.427 30.094, 69.743 30.409 C 70.058 30.725, 68.665 38.299, 66.646 47.241 C 64.627 56.184, 62.981 63.828, 62.988 64.230 C 62.995 64.631, 67.700 63.281, 73.444 61.230 L 83.888 57.500 93.398 43.890 L 102.907 30.280 124.203 22.957 C 154.993 12.371, 154.128 13.057, 136.500 13.198 C 128.250 13.264, 105.075 13.683, 85 14.129 M 140.212 38.043 L 127.924 43.930 129.939 47.881 C 131.511 50.962, 133.199 52.402, 137.599 54.416 C 140.702 55.837, 143.569 57, 143.968 57 C 144.544 57, 148.537 47.304, 153.750 33.250 C 154.457 31.345, 153.448 31.702, 140.212 38.043 M 44 60.126 L 30.500 65.126 26 71.238 C 23.525 74.600, 21.361 77.690, 21.190 78.105 C 20.813 79.023, 21.786 78.738, 39.858 72.622 L 54.215 67.762 56.608 62.353 C 59.112 56.691, 59.502 54.958, 58.250 55.063 C 57.837 55.097, 51.425 57.376, 44 60.126 M 59.168 62.949 C 58.583 64.627, 58.478 66, 58.935 66 C 59.728 66, 61.147 60.829, 60.527 60.199 C 60.364 60.033, 59.753 61.271, 59.168 62.949 M 79.745 68.250 L 74.128 76.500 71.489 117.706 C 70.037 140.369, 68.996 159.900, 69.175 161.109 C 69.460 163.035, 70.874 162.115, 80.628 153.653 C 86.748 148.344, 92.022 144, 92.349 144 C 92.675 144, 93.068 149.834, 93.221 156.965 L 93.500 169.930 107.718 161.530 L 121.936 153.130 143.120 163.080 C 154.771 168.552, 164.453 172.880, 164.635 172.698 C 164.818 172.516, 162.499 166.579, 159.483 159.506 C 156.468 152.433, 154 146.230, 154 145.722 C 154 145.214, 158.196 138.656, 163.323 131.149 C 168.451 123.642, 173.004 116.895, 173.441 116.155 C 174.098 115.044, 172.145 114.935, 162.179 115.530 C 152.252 116.123, 146.993 115.835, 132.392 113.901 L 114.661 111.552 109.846 105.026 C 107.199 101.437, 105.174 98.050, 105.346 97.500 C 105.519 96.950, 108.999 95.788, 113.080 94.919 C 117.161 94.049, 121.018 93.149, 121.650 92.919 C 123.020 92.420, 88.574 60, 86.674 60 C 85.953 60, 82.835 63.712, 79.745 68.250 M 140.280 75.699 C 137.408 83.230, 135.235 89.568, 135.450 89.783 C 135.864 90.197, 184.228 80.072, 184.889 79.432 C 185.102 79.225, 184.202 78.631, 182.889 78.111 C 181.575 77.592, 173.119 73.754, 164.098 69.584 C 155.077 65.413, 147.202 62.001, 146.598 62.003 C 145.994 62.004, 143.151 68.167, 140.280 75.699" stroke="none" fill="black" fill-rule="evenodd"/>
</svg>