<svg xmlns="http://www.w3.org/2000/svg" width="200" height="200" viewBox="0 0 200 200" version="1.1">
	<path d="M 19 11.383 C 19 12.183, 20.688 13.886, 22.750 15.168 C 26.140 17.276, 26.284 17.531, 24.250 17.820 C 23.012 17.995, 22.011 18.670, 22.025 19.320 C 22.047 20.341, 49.213 33.076, 51.250 33.021 C 53.526 32.958, 51.321 30.121, 47.005 27.558 C 44.280 25.940, 42.233 24.434, 42.457 24.210 C 42.971 23.696, 80.839 29.839, 83.378 30.847 C 84.940 31.468, 83.758 32.715, 76.378 38.238 C 70.247 42.826, 67.400 44.436, 67.177 43.441 C 66.620 40.958, 65.233 41.849, 62.806 46.250 C 61.400 48.797, 59.132 51.127, 57.144 52.066 C 55.319 52.927, 53.764 54.053, 53.688 54.566 C 53.528 55.639, 32.444 72, 31.220 72 C 30.776 72, 27.533 68.063, 24.014 63.250 C 20.496 58.438, 17.471 54.305, 17.292 54.067 C 17.113 53.828, 16.490 54.110, 15.906 54.694 C 15.159 55.441, 15.683 59.944, 17.679 69.939 L 20.513 84.124 25.294 80.399 C 28.027 78.270, 30.417 77.065, 30.875 77.587 C 31.316 78.089, 33.721 81.209, 36.220 84.520 L 40.763 90.540 37.907 96.188 C 35.748 100.457, 33.072 111.155, 26.947 140.006 C 22.489 160.999, 19.130 178.463, 19.481 178.815 C 19.833 179.166, 39.781 180.316, 63.810 181.370 C 106.052 183.223, 108.908 183.229, 150 181.554 C 173.375 180.601, 192.621 179.703, 192.769 179.559 C 192.917 179.414, 186.016 165.648, 177.434 148.967 L 161.830 118.639 164.459 79.664 C 166.232 53.387, 166.759 40.359, 166.077 39.677 C 165.395 38.995, 164.848 39.234, 164.396 40.409 C 164.028 41.368, 158.846 64.731, 152.880 92.326 C 142.523 140.231, 142.059 142.014, 142.613 131.750 C 143.097 122.777, 142.954 121, 141.748 121 C 140.856 121, 136.325 129.223, 129.902 142.499 C 120.710 161.497, 119.346 163.794, 118.175 162.249 C 117.221 160.989, 99.583 126.977, 96.222 119.916 C 96.069 119.595, 103.179 116.253, 112.021 112.491 C 120.863 108.729, 128.280 105.357, 128.502 104.997 C 128.724 104.638, 125.439 102.386, 121.203 99.992 C 116.966 97.599, 102.588 87.585, 89.250 77.739 C 66.415 60.882, 65.001 59.652, 65.015 56.668 C 65.024 54.926, 65.405 52.910, 65.862 52.188 C 66.612 51.006, 88.060 40.674, 88.553 41.257 C 88.761 41.503, 93.532 49.039, 98.319 56.681 L 100.938 60.863 114.073 57.369 C 121.297 55.447, 127.326 54.015, 127.471 54.187 C 127.616 54.359, 123.506 62.129, 118.338 71.454 C 113.145 80.824, 109.194 89.062, 109.504 89.871 C 110.226 91.754, 108.723 93.559, 130.806 64.290 C 145.427 44.910, 149.442 38.972, 148.163 38.613 C 147.248 38.356, 139.075 36.965, 130 35.522 C 120.925 34.079, 112.635 32.554, 111.579 32.133 C 108.458 30.890, 126.421 23.725, 142.250 19.899 C 151.076 17.765, 156 16.114, 156 15.287 C 156 13.663, 157.566 13.436, 140.697 17.503 C 131.032 19.833, 122.413 22.699, 114.957 26.064 L 103.747 31.121 69.123 25.387 C 34.908 19.720, 34.435 19.609, 29 15.978 C 20.639 10.392, 19 9.639, 19 11.383 M 86.022 31.738 C 86.034 32.157, 86.890 33.601, 87.924 34.946 L 89.804 37.392 93.995 35.502 C 97.391 33.971, 97.836 33.488, 96.343 32.954 C 93.078 31.786, 85.999 30.952, 86.022 31.738 M 97.258 37.024 L 91.016 39.900 96.554 48.700 C 100.501 54.974, 102.580 57.403, 103.795 57.162 C 104.733 56.975, 111.188 55.288, 118.140 53.412 C 125.092 51.535, 131.316 50, 131.971 50 C 132.978 50, 127.420 61.320, 122.151 70 C 119.422 74.494, 122.524 70.739, 133.897 55.780 C 144.271 42.134, 144.920 41.022, 142.794 40.537 C 139.913 39.881, 104.317 33.974, 103.847 34.074 C 103.656 34.115, 100.691 35.442, 97.258 37.024 M 80 38.644 C 72.449 44.492, 72.070 45.338, 78.205 42.650 C 87.107 38.749, 87.217 38.664, 85.760 36.784 C 84.627 35.322, 84.047 35.509, 80 38.644 M 44.500 65.707 C 38.450 70.420, 33.547 74.797, 33.605 75.434 C 33.737 76.890, 40.952 87, 41.860 87 C 42.465 87, 57 58.670, 57 57.491 C 57 56.244, 54.746 57.726, 44.500 65.707 M 51.699 74.580 C 47.388 83.223, 44.270 90.642, 44.669 91.307 C 46.837 94.914, 54 104.264, 54 103.486 C 54 102.983, 55.648 93.201, 57.662 81.748 C 59.944 68.773, 60.970 60.570, 60.385 59.985 C 59.801 59.401, 56.526 64.902, 51.699 74.580 M 151.273 113.728 C 145.097 142.636, 139.802 166.531, 139.506 166.827 C 137.570 168.763, 137.309 163.644, 138.522 147.521 C 139.266 137.632, 139.755 129.422, 139.610 129.276 C 139.464 129.130, 134.901 138.271, 129.470 149.589 C 120.634 168.001, 119.454 169.974, 118.258 168.339 C 117.523 167.334, 112.157 157.154, 106.333 145.717 C 100.508 134.281, 95.593 125.073, 95.410 125.256 C 95.228 125.439, 96.193 135.446, 97.556 147.493 C 98.919 159.541, 99.907 169.779, 99.752 170.244 C 99.597 170.710, 92.989 162.183, 85.068 151.295 C 77.146 140.408, 70.530 131.327, 70.365 131.115 C 70.199 130.904, 68.779 131.263, 67.207 131.914 C 64.983 132.835, 62.275 136.739, 54.972 149.549 C 49.814 158.597, 45.262 166, 44.856 166 C 44.450 166, 43.894 165.637, 43.619 165.193 C 43.345 164.749, 45.372 151.652, 48.125 136.090 L 53.129 107.794 50.599 104.147 C 49.208 102.141, 46.776 98.952, 45.195 97.060 L 42.320 93.621 39.786 99.157 C 38.191 102.640, 34.434 117.983, 29.652 140.539 C 25.472 160.255, 22.153 176.479, 22.276 176.594 C 22.399 176.708, 42.525 177.646, 67 178.678 C 112.943 180.615, 116.986 180.561, 187.116 177.080 C 188.322 177.020, 184.962 169.655, 173.892 148.088 L 159.053 119.177 160.990 90.386 C 162.056 74.551, 162.832 61.499, 162.714 61.381 C 162.596 61.264, 157.448 84.820, 151.273 113.728 M 19.599 65.359 C 19.964 67.481, 20.768 71.492, 21.386 74.272 L 22.508 79.327 25.470 76.779 L 28.432 74.231 25.708 70.366 C 24.209 68.240, 22.072 65.375, 20.959 64 L 18.934 61.500 19.599 65.359 M 63.639 64.691 C 63.346 65.686, 61.506 75.626, 59.549 86.780 L 55.992 107.060 62.667 116.280 C 66.338 121.351, 69.686 125.899, 70.108 126.387 C 71.227 127.682, 91 119.010, 91 117.224 C 91 116.233, 91.676 115.944, 93.114 116.319 C 94.867 116.778, 114.962 108.919, 121.749 105.120 C 122.879 104.488, 121.813 103.472, 117.371 100.941 C 114.142 99.102, 101.948 90.505, 90.274 81.837 C 62.903 61.515, 64.308 62.420, 63.639 64.691 M 54.980 112.050 C 54.968 112.847, 53.221 123.175, 51.096 135 C 48.972 146.825, 47.321 156.603, 47.428 156.729 C 47.536 156.854, 50.971 151.059, 55.062 143.851 C 60.806 133.729, 63.126 130.523, 65.250 129.774 C 66.763 129.241, 68 128.619, 68 128.393 C 68 127.973, 57.401 113.278, 55.852 111.550 C 55.337 110.976, 54.992 111.174, 54.980 112.050 M 82.505 125.232 C 77.558 127.391, 73.342 129.325, 73.137 129.529 C 72.932 129.734, 77.874 136.916, 84.120 145.489 C 90.365 154.061, 95.619 160.642, 95.796 160.113 C 96.086 159.243, 92.081 121.653, 91.673 121.409 C 91.578 121.353, 87.452 123.073, 82.505 125.232" stroke="none" fill="black" fill-rule="evenodd"/>
</svg>