<svg xmlns="http://www.w3.org/2000/svg" width="200" height="200" viewBox="0 0 200 200" version="1.1">
	<path d="M 151.044 21.050 C 143.418 45.655, 144.086 44.056, 141.670 43.485 C 119.856 38.328, 107.485 34.954, 107.194 34.083 C 106.996 33.487, 105.061 33, 102.895 33 C 100.728 33, 83.604 29.157, 64.841 24.460 C 35.270 17.058, 30.249 15.526, 27.136 12.960 C 25.160 11.332, 23.197 10, 22.772 10 C 21.506 10, 21.897 12.786, 23.250 13.405 C 23.938 13.719, 22.996 13.712, 21.157 13.388 C 14.105 12.148, 18.793 16.252, 38.986 28.998 C 51.889 37.143, 59.822 41.578, 60.419 40.981 C 60.940 40.460, 61.172 39.880, 60.933 39.692 C 51.825 32.519, 39.157 22.379, 38.127 21.437 C 37.371 20.747, 49.424 23.351, 64.910 27.224 C 91.993 33.998, 101.069 36.981, 84 33.500 C 79.508 32.584, 75.706 31.984, 75.551 32.167 C 75.396 32.350, 74.531 34.761, 73.629 37.526 C 72.313 41.557, 70.122 44.410, 62.555 51.945 L 53.122 61.339 30.057 58.507 C 17.371 56.949, 6.683 55.983, 6.306 56.361 C 5.197 57.469, 7.641 59.290, 23.912 69.480 L 39.324 79.131 46.912 71.592 C 53.069 65.474, 54.924 64.163, 56.750 64.643 C 57.988 64.968, 59 65.363, 59 65.521 C 59 65.679, 52.617 77.664, 44.817 92.154 L 30.633 118.500 32.873 148.500 C 35.376 182.040, 35.740 185.001, 37.361 184.997 C 38.049 184.995, 41.427 171.227, 45.887 150.247 C 52.587 118.735, 56.019 105.427, 65.103 75.746 L 68.088 65.993 73.794 66.628 C 76.932 66.977, 81.224 67.541, 83.332 67.881 L 87.164 68.500 77.082 73.460 C 71.537 76.188, 67 78.931, 67 79.555 C 67 80.932, 87.299 81.991, 113.817 81.996 L 132.135 82 131.434 84.250 C 129.377 90.853, 129.785 90.593, 118.834 92.279 C 113.150 93.154, 101.300 94.866, 92.500 96.084 C 83.700 97.302, 76.196 98.569, 75.824 98.899 C 75.238 99.420, 80.495 187.172, 81.226 189.067 C 81.377 189.458, 91.833 178.301, 104.462 164.274 C 117.091 150.247, 127.532 139.159, 127.664 139.635 C 127.797 140.111, 130.177 152.613, 132.955 167.419 C 135.732 182.224, 138.116 194.440, 138.252 194.565 C 138.388 194.691, 146.674 178.712, 156.663 159.057 L 174.827 123.320 164.463 100.060 C 158.763 87.267, 153.407 75.744, 152.562 74.454 C 151.053 72.151, 151.236 71.919, 162.512 61.903 C 168.830 56.291, 174 51.562, 174 51.395 C 174 51.228, 170.340 42.634, 165.866 32.296 C 161.392 21.958, 157.165 12.172, 156.472 10.550 C 155.250 7.687, 155.088 7.999, 151.044 21.050 M 151.054 30.054 C 148.700 37.784, 146.941 44.274, 147.143 44.477 C 147.346 44.679, 152.754 46.170, 159.161 47.789 L 170.810 50.733 167.344 42.616 C 161.157 28.126, 155.787 16, 155.558 16 C 155.434 16, 153.408 22.324, 151.054 30.054 M 28.500 19.183 C 29.600 19.800, 31.850 21.179, 33.500 22.248 C 36.148 23.963, 36.090 23.831, 33 21.122 C 31.075 19.435, 28.825 18.055, 28 18.057 C 26.962 18.060, 27.116 18.406, 28.500 19.183 M 76.091 38.658 C 75.521 40.771, 73.708 46.983, 72.063 52.463 C 70.225 58.579, 69.451 62.661, 70.057 63.035 C 70.600 63.371, 75.800 64.198, 81.614 64.874 L 92.184 66.102 98.787 63.012 L 105.390 59.923 93.945 48.244 C 87.650 41.822, 82.499 36.476, 82.498 36.364 C 82.497 36.253, 81.288 35.859, 79.811 35.489 C 77.352 34.871, 77.040 35.137, 76.091 38.658 M 88 38.503 C 88 38.780, 92.982 43.820, 99.071 49.703 L 110.143 60.399 103.821 63.651 C 100.345 65.440, 97.950 66.930, 98.500 66.963 C 99.050 66.996, 106.673 67.918, 115.440 69.012 C 124.206 70.105, 132.334 71, 133.501 71 C 135.332 71, 136.078 69.494, 138.960 59.983 C 140.797 53.923, 142.021 48.687, 141.680 48.347 C 140.898 47.565, 93.401 38, 90.300 38 C 89.035 38, 88 38.227, 88 38.503 M 142.435 57.750 C 137.631 73.405, 137.655 71.690, 142.234 72.305 C 146.164 72.832, 146.521 72.612, 157.079 63.204 C 163.029 57.902, 167.777 53.444, 167.630 53.297 C 167.235 52.902, 148.003 49, 146.450 49 C 145.650 49, 144.052 52.485, 142.435 57.750 M 60.958 57.582 C 57.143 61.504, 56.829 62.117, 58.782 61.832 C 60.211 61.624, 62.006 59.913, 63.588 57.250 C 64.977 54.913, 65.957 53, 65.765 53 C 65.573 53, 63.410 55.062, 60.958 57.582 M 65.697 58.935 C 63.772 62.195, 63.614 63, 64.902 63 C 65.778 63, 68.318 56.985, 67.702 56.369 C 67.533 56.200, 66.631 57.355, 65.697 58.935 M 13 59.254 C 14.198 60.422, 38.062 75, 38.777 75 C 39.212 75, 41.986 72.551, 44.942 69.559 C 51.268 63.153, 52.435 63.880, 32 61.490 C 24.575 60.622, 17.150 59.654, 15.500 59.339 C 13.850 59.024, 12.725 58.986, 13 59.254 M 47.902 92.254 L 33.305 119.500 35.368 145.750 C 36.503 160.188, 37.672 171.999, 37.966 171.999 C 38.260 171.998, 41.175 159.285, 44.445 143.749 C 48.036 126.687, 53.269 105.835, 57.659 91.095 C 64.358 68.597, 65.123 64.992, 63.191 65.004 C 62.811 65.007, 55.931 77.269, 47.902 92.254 M 82.927 73.706 C 75.629 77.348, 74.065 78.469, 76 78.667 C 77.375 78.807, 90.740 79.062, 105.699 79.232 L 132.898 79.542 133.498 77.153 C 133.828 75.839, 133.947 74.614, 133.763 74.430 C 133.495 74.162, 94.591 69, 92.839 69 C 92.573 69, 88.113 71.117, 82.927 73.706 M 136.517 76.947 C 136.132 78.159, 136.029 79.363, 136.288 79.622 C 136.547 79.881, 139.929 79.959, 143.804 79.796 C 150.405 79.519, 150.765 79.386, 149.518 77.687 C 148.632 76.480, 146.358 75.686, 142.702 75.309 C 137.679 74.790, 137.157 74.928, 136.517 76.947 M 134.537 82.976 C 134.371 83.264, 133.918 84.980, 133.530 86.788 L 132.824 90.077 138.056 89.788 C 141.063 89.623, 143.445 89.946, 143.660 90.549 C 143.865 91.126, 140.862 93.132, 136.986 95.007 L 129.940 98.415 125.417 112.708 L 120.895 127 116.697 126.900 C 107.441 126.680, 107.530 126.985, 112.904 114 C 117.545 102.786, 117.792 102.427, 122.832 99.546 C 127.639 96.798, 129.642 93.973, 126.750 94.020 C 124.458 94.058, 78.747 100.919, 78.386 101.280 C 78.090 101.576, 82.463 173.231, 83.249 180.965 C 83.461 183.048, 86.956 179.606, 105.837 158.715 C 118.122 145.122, 128.472 134.001, 128.837 134.001 C 129.201 134.002, 131.715 145.925, 134.422 160.496 C 137.129 175.067, 139.423 186.879, 139.519 186.745 C 139.616 186.610, 146.905 172.250, 155.718 154.833 L 171.741 123.165 162.933 103.333 C 156.465 88.767, 153.644 83.445, 152.313 83.293 C 147.469 82.740, 134.803 82.515, 134.537 82.976 M 131 93.969 C 131 94.501, 131.675 94.678, 132.500 94.362 C 133.325 94.045, 134 93.609, 134 93.393 C 134 93.177, 133.325 93, 132.500 93 C 131.675 93, 131 93.436, 131 93.969 M 122.599 102.789 C 120.544 104.040, 118.739 107.020, 115.893 113.866 C 113.752 119.017, 112 123.405, 112 123.616 C 112 123.827, 113.559 124, 115.465 124 L 118.929 124 122.465 112.834 C 124.410 106.692, 125.868 101.535, 125.706 101.373 C 125.544 101.211, 124.146 101.848, 122.599 102.789" stroke="none" fill="black" fill-rule="evenodd"/>
</svg>