<svg xmlns="http://www.w3.org/2000/svg" width="200" height="200" viewBox="0 0 200 200" version="1.1">
	<path d="M 96.464 10.297 L 93.500 13.885 54.752 19.693 C 33.440 22.887, 16.003 25.868, 16.002 26.319 C 16.001 26.769, 21.421 33.700, 28.048 41.721 C 34.674 49.742, 39.736 56.616, 39.298 56.997 C 38.859 57.377, 35.877 58.725, 32.672 59.992 C 27.099 62.195, 26.692 62.223, 23.388 60.648 C 19.242 58.671, 19.011 58.650, 18.962 60.250 C 18.942 60.938, 24.310 66.675, 30.893 73 L 42.860 84.500 30.930 108.898 C 24.369 122.318, 19 133.892, 19 134.619 C 19 135.981, 39.521 188.855, 40.385 189.718 C 40.650 189.983, 41.300 189.933, 41.829 189.606 C 42.372 189.270, 38.484 178.096, 32.899 163.943 C 27.458 150.155, 22.725 137.752, 22.381 136.381 C 21.902 134.473, 24.426 128.372, 33.114 110.439 C 39.362 97.543, 44.930 87.143, 45.487 87.329 C 46.144 87.548, 46.592 102.643, 46.761 130.333 C 46.987 167.339, 47.219 173, 48.511 173 C 49.807 173, 50 167.435, 50 130.155 C 50 89.016, 49.923 87.240, 48.059 85.554 C 46.146 83.823, 46.163 83.707, 49.218 77.511 L 52.318 71.225 54.871 74.258 L 57.423 77.292 58.462 112.362 L 59.500 147.433 76 161.325 C 85.075 168.966, 92.840 176.116, 93.256 177.213 C 93.701 178.386, 94.598 178.985, 95.431 178.665 C 96.211 178.366, 106.092 175.546, 117.389 172.398 L 137.929 166.676 160.131 139.181 C 172.342 124.059, 182.330 111.194, 182.326 110.593 C 182.322 109.992, 176.152 99.882, 168.615 88.127 C 161.078 76.373, 155.044 66.633, 155.206 66.483 C 155.368 66.334, 162.025 70.916, 170 76.666 C 188.381 89.918, 188.281 89.862, 186.906 86.278 C 186.319 84.750, 181.195 70.900, 175.518 55.500 C 169.840 40.100, 164.255 25.010, 163.107 21.966 L 161.018 16.432 131.963 14.185 C 115.983 12.950, 102.496 12.194, 101.992 12.505 C 101.488 12.816, 100.705 11.640, 100.251 9.890 L 99.427 6.709 96.464 10.297 M 102 16.972 C 102 19.631, 105.154 34.319, 105.917 35.213 C 106.252 35.605, 112.572 36.632, 119.962 37.496 C 127.353 38.359, 133.629 39.295, 133.909 39.576 C 134.504 40.170, 113.829 82, 112.941 82 C 112.612 82, 110.331 72.213, 107.872 60.250 L 103.400 38.500 97.636 37.627 C 92.135 36.794, 91.673 36.896, 87.553 39.854 C 85.178 41.560, 80.047 44.137, 76.151 45.581 C 70.299 47.750, 68.277 49.131, 64.533 53.513 C 57.396 61.867, 57.379 61.830, 76.217 79.998 L 92.434 95.638 86.953 109.990 C 80.081 127.984, 78.492 129.085, 79.488 115.162 L 80.210 105.079 70.376 93.102 C 64.968 86.514, 60.456 81.210, 60.350 81.316 C 60.245 81.422, 60.555 92.757, 61.040 106.504 C 61.524 120.252, 61.970 134.875, 62.029 139 L 62.137 146.500 78.038 159.703 C 86.784 166.965, 94.120 172.590, 94.340 172.203 C 94.560 171.816, 99.582 155.758, 105.501 136.517 C 117.073 98.896, 116.769 99.572, 131.064 79.766 L 133.759 76.033 140.416 102.648 C 146.315 126.236, 146.905 129.447, 145.604 130.881 C 144.797 131.772, 134.238 141.719, 122.139 152.987 C 110.040 164.255, 100.307 173.640, 100.509 173.842 C 100.933 174.266, 133.838 165.159, 135.819 164.069 C 136.544 163.670, 146.729 151.463, 158.453 136.942 L 179.768 110.541 176.549 105.520 C 151.224 66.023, 147.959 60.641, 148.808 59.792 C 149.401 59.199, 155.749 63.148, 165.877 70.411 C 174.744 76.772, 182 81.739, 182 81.448 C 182 80.437, 159.759 20.495, 159.132 19.816 C 158.531 19.166, 111.852 15, 105.170 15 C 102.682 15, 102 15.424, 102 16.972 M 84.942 28.662 C 79.199 35.626, 74.136 41.932, 73.692 42.677 C 72.443 44.768, 80.581 41.336, 86.135 37.429 C 90.453 34.391, 91.182 34.206, 96.806 34.716 L 102.842 35.263 100.947 26.882 C 99.904 22.272, 99.040 17.938, 99.026 17.250 C 99.012 16.563, 98.186 16, 97.192 16 C 96.093 16, 91.289 20.965, 84.942 28.662 M 54.250 22.366 C 35.962 25.173, 21 27.813, 21 28.233 C 21 28.653, 25.995 35.048, 32.100 42.444 L 43.200 55.892 48.350 53.811 C 51.182 52.666, 56.471 50.553, 60.102 49.115 C 67.134 46.330, 66.240 47.209, 84.364 25.250 C 89.274 19.301, 90.660 17.037, 89.336 17.131 C 88.326 17.203, 72.537 19.559, 54.250 22.366 M 109.883 56.520 C 113.029 71.766, 113.671 73.810, 114.834 72.270 C 116.529 70.023, 130 43.309, 130 42.193 C 130 41.482, 112.683 38.977, 107.884 38.994 C 106.472 38.999, 106.723 41.208, 109.883 56.520 M 56 53.532 C 52.975 54.829, 49.231 56.352, 47.681 56.917 L 44.861 57.944 48.157 62.045 L 51.452 66.146 52.922 63.041 C 53.781 61.229, 54.936 60.145, 55.696 60.437 C 56.413 60.712, 57 60.379, 57 59.696 C 57 59.014, 58.383 56.778, 60.073 54.728 C 63.620 50.425, 63.399 50.360, 56 53.532 M 34.076 62.272 L 26.653 65.374 34.886 73.187 C 39.414 77.484, 43.483 81, 43.929 81 C 44.374 81, 45.932 78.249, 47.390 74.886 L 50.042 68.772 46.315 63.886 C 44.266 61.199, 42.344 59.038, 42.045 59.085 C 41.745 59.132, 38.159 60.566, 34.076 62.272 M 54.400 66.544 C 53.950 68.336, 54.258 69.687, 55.370 70.799 C 56.877 72.305, 57 72.152, 57 68.773 C 57 64.348, 55.314 62.902, 54.400 66.544 M 60.023 72.004 C 60.045 76.249, 60.670 77.251, 71.235 89.970 C 80.351 100.945, 82.527 104.187, 82.980 107.470 L 83.536 111.500 86.319 104.055 L 89.102 96.610 74.551 82.059 L 60 67.508 60.023 72.004 M 125.642 92.406 L 119.057 101.917 108.466 136.063 C 102.641 154.843, 98.093 170.427, 98.360 170.693 C 98.823 171.156, 144 129.254, 144 128.362 C 144 127.467, 132.851 83.518, 132.547 83.214 C 132.371 83.038, 129.264 87.174, 125.642 92.406" stroke="none" fill="black" fill-rule="evenodd"/>
</svg>