<svg xmlns="http://www.w3.org/2000/svg" width="200" height="200" viewBox="0 0 200 200" version="1.1">
	<path d="M 20.613 15.818 C 19.809 17.118, 64.053 52.347, 65.134 51.266 C 65.716 50.684, 60.290 45.673, 50.785 38.017 C 42.378 31.246, 34.825 25.075, 34 24.306 C 32.479 22.887, 52.856 32.370, 71.956 41.970 C 80.563 46.296, 82.140 47.426, 80.870 48.363 C 80.021 48.988, 78.787 50.513, 78.128 51.750 C 76.933 53.994, 76.857 54, 51.293 54 C 32.243 54, 23.507 53.597, 17.294 52.433 C 12.695 51.571, 8.269 51.009, 7.457 51.183 C 6.458 51.398, 9.391 55.849, 16.530 64.956 C 28.992 80.852, 27.623 79.351, 28.921 78.549 C 29.558 78.155, 27.198 73.756, 22.965 67.449 L 15.955 57 21.228 56.969 C 25.570 56.944, 69.690 63.733, 70.851 64.605 C 71.044 64.750, 70.179 66.689, 68.928 68.914 C 67.244 71.910, 63.978 74.718, 56.347 79.730 L 46.040 86.500 32.101 128.250 C 24.434 151.213, 18.399 170, 18.690 170 C 20.627 170, 49.720 160.565, 50.621 159.645 C 51.237 159.015, 55.725 142.437, 60.593 122.805 C 65.461 103.173, 69.557 87.224, 69.695 87.362 C 70.015 87.682, 80 170.155, 80 172.479 C 80 175.153, 81.718 174.069, 97.343 161.541 C 105.259 155.193, 111.972 150, 112.261 150 C 112.549 150, 117.129 155.411, 122.438 162.025 C 131.078 172.788, 132.278 173.916, 133.873 172.775 C 145.679 164.332, 165.915 147.458, 166.339 145.702 C 166.632 144.491, 169.208 130.900, 172.065 115.500 C 174.921 100.100, 177.762 87.169, 178.379 86.765 C 178.995 86.361, 181.525 86.017, 184 86 C 192.944 85.939, 193.305 82.557, 184.484 81.455 C 180.822 80.997, 179 80.312, 179 79.391 C 179 77.739, 157.771 35, 156.950 35 C 156.636 35, 153.716 43.775, 150.462 54.500 C 146.161 68.671, 144.128 74.003, 143.022 74.011 C 141.246 74.024, 76.657 62.860, 76.176 62.457 C 75.998 62.308, 76.572 60.794, 77.452 59.093 L 79.051 56 90.066 56 C 99.031 56, 101.794 56.365, 104.921 57.960 C 108.737 59.906, 108.775 59.906, 110.536 57.960 C 112.080 56.254, 113.651 56, 122.655 56 C 131.184 56, 133 55.737, 133 54.500 C 133 53.675, 132.213 52.993, 131.250 52.985 C 130.155 52.975, 128.361 50.848, 126.456 47.303 C 124.783 44.187, 122.983 41.527, 122.456 41.392 C 121.930 41.257, 119.250 43.796, 116.500 47.035 C 111.610 52.793, 111.387 52.923, 106.340 52.961 C 102.665 52.989, 99.419 52.167, 95.063 50.107 L 88.947 47.215 114.723 33.778 C 130.027 25.801, 140.500 19.764, 140.500 18.921 C 140.500 17.712, 132.014 17.466, 83.729 17.274 C 47.352 17.129, 26.270 16.680, 25.045 16.024 C 22.735 14.788, 21.291 14.721, 20.613 15.818 M 59.553 32.911 L 85.500 45.754 107 34.696 C 118.825 28.614, 129.850 22.817, 131.500 21.814 C 134.429 20.033, 133.299 19.991, 84.053 20.029 L 33.606 20.068 59.553 32.911 M 156.048 45.720 C 155.473 47.799, 153.220 55.106, 151.042 61.958 C 148.864 68.809, 147.226 74.560, 147.403 74.736 C 148.103 75.436, 175.378 79.955, 175.879 79.454 C 176.443 78.891, 159.011 43.155, 157.797 42.385 C 157.410 42.140, 156.623 43.641, 156.048 45.720 M 118 49.500 L 114.608 53 120.304 53 C 123.437 53, 126 52.732, 126 52.404 C 126 51.404, 122.608 46, 121.981 46 C 121.657 46, 119.866 47.575, 118 49.500 M 83.250 50.220 C 82.013 50.817, 81 51.912, 81 52.653 C 81 53.663, 82.815 53.989, 88.250 53.955 L 95.500 53.910 91 51.500 C 85.838 48.736, 86.203 48.796, 83.250 50.220 M 58.923 59.560 C 71.516 61.763, 72.427 61.803, 73.642 60.204 C 74.354 59.267, 74.951 58.163, 74.968 57.750 C 74.986 57.337, 68.362 57.048, 60.250 57.106 L 45.500 57.213 58.923 59.560 M 71.600 69.802 C 69.536 73.875, 67.527 75.705, 58.757 81.497 L 48.360 88.363 35.579 126.747 C 28.550 147.859, 22.971 165.305, 23.182 165.516 C 23.597 165.930, 47.945 158.388, 48.732 157.601 C 48.995 157.339, 53.615 139.518, 59 118 C 64.385 96.482, 69.070 78.596, 69.412 78.255 C 69.754 77.913, 70.435 78.053, 70.926 78.567 C 71.416 79.080, 74.221 99.637, 77.159 124.249 C 80.097 148.861, 82.751 168.998, 83.058 168.999 C 83.366 168.999, 89.666 164.211, 97.058 158.358 C 104.451 152.506, 111.029 147.303, 111.676 146.798 C 112.497 146.156, 115.776 149.521, 122.533 157.939 C 127.858 164.573, 132.423 170, 132.678 170 C 132.933 170, 139.972 164.663, 148.321 158.140 L 163.500 146.280 168.921 117.145 C 171.903 101.120, 174.116 87.782, 173.838 87.505 C 173.560 87.227, 166.344 87.739, 157.802 88.642 L 142.271 90.284 133.526 118.892 C 128.716 134.626, 124.451 147.857, 124.048 148.292 C 122.425 150.048, 121.164 145.649, 118.088 127.500 C 116.317 117.050, 114.643 107.713, 114.367 106.750 C 113.962 105.336, 112.725 105, 107.933 105 C 104.585 105, 102 104.558, 102 103.985 C 102 103.427, 102.740 100.309, 103.644 97.057 L 105.288 91.144 112.394 90.476 C 116.302 90.109, 124.212 89.289, 129.971 88.654 L 140.441 87.500 141.803 82.665 C 142.551 80.006, 142.976 77.642, 142.746 77.412 C 142.515 77.182, 127.966 74.515, 110.414 71.485 C 92.861 68.456, 77.498 65.751, 76.274 65.475 C 74.420 65.058, 73.637 65.783, 71.600 69.802 M 144.655 82.500 L 143.121 87 145.811 86.980 C 150.203 86.949, 174.224 84.109, 174.777 83.557 C 175.057 83.276, 174.659 82.848, 173.893 82.604 C 172.124 82.041, 148.779 78, 147.296 78 C 146.687 78, 145.498 80.025, 144.655 82.500 M 119.239 92.473 C 113.045 93.142, 107.804 93.872, 107.593 94.095 C 107.382 94.318, 106.748 96.188, 106.185 98.250 C 105.180 101.933, 105.211 102, 107.956 102 C 109.493 102, 112.090 102.268, 113.727 102.595 L 116.703 103.191 119.925 121.835 C 121.696 132.089, 123.338 140.671, 123.573 140.906 C 123.808 141.141, 124 141.072, 124 140.753 C 124 140.434, 127.375 129.295, 131.500 116 C 135.625 102.705, 139 91.641, 139 91.414 C 139 90.753, 131.389 91.162, 119.239 92.473" stroke="none" fill="black" fill-rule="evenodd"/>
</svg>