<svg xmlns="http://www.w3.org/2000/svg" width="200" height="200" viewBox="0 0 200 200" version="1.1">
	<path d="M 160.192 39.604 C 147.253 65.502, 146.061 68.324, 147.594 69.445 C 149.162 70.591, 149.074 71.204, 146.409 77.706 L 143.531 84.729 125.945 94.364 C 116.272 99.664, 107.940 103.989, 107.429 103.975 C 106.918 103.961, 103.990 99.799, 100.921 94.725 C 96.429 87.297, 94.802 85.403, 92.566 85 C 89.992 84.537, 90.569 83.957, 100.471 77.062 L 111.153 69.624 108.826 67.840 C 107.547 66.859, 101.907 62.781, 96.293 58.778 C 90.679 54.775, 86.067 51.275, 86.045 51 C 86.023 50.725, 87.692 48.544, 89.754 46.152 L 93.504 41.805 116.502 48.463 C 129.151 52.125, 140.287 55.350, 141.250 55.628 C 142.316 55.937, 143 55.595, 143 54.755 C 143 53.828, 133.544 50.320, 114.250 44.086 C 98.438 38.978, 85.170 34.491, 84.767 34.116 C 84.364 33.741, 92.014 31.468, 101.767 29.065 C 119.775 24.628, 134 18.951, 134 16.201 C 134 15.244, 133.185 15.012, 131.250 15.418 C 129.738 15.735, 114.550 18.838, 97.500 22.312 L 66.500 28.629 45.528 21.869 C 33.994 18.152, 24.434 15.233, 24.284 15.383 C 24.134 15.533, 27.419 20.458, 31.585 26.327 C 37.961 35.310, 39.503 36.918, 41.330 36.491 C 49.539 34.573, 63.688 32, 66.028 32 C 72.243 32, 72.684 33.354, 67.005 34.998 L 61.510 36.589 70.005 42.857 C 74.677 46.304, 79.145 49.498, 79.933 49.955 C 81.642 50.944, 80.530 52.389, 65 69.355 C 57.836 77.180, 53.785 80.853, 52.250 80.913 C 51.013 80.961, 50 80.826, 50 80.614 C 50 80.401, 53.853 71.804, 58.562 61.509 C 63.271 51.214, 66.984 42.659, 66.812 42.498 C 66.382 42.094, 12.082 79.357, 12.037 80.087 C 12.017 80.409, 19.211 81.257, 28.024 81.971 C 36.837 82.685, 44.246 83.589, 44.488 83.981 C 44.731 84.373, 42.970 89.150, 40.575 94.597 L 36.221 104.500 32.922 144.261 C 30.425 174.349, 29.903 184.303, 30.778 185.178 C 31.653 186.053, 32.058 185.990, 32.444 184.917 C 32.724 184.138, 38.127 168.282, 44.449 149.682 C 53.157 124.065, 55.558 115.941, 54.350 116.182 C 53.232 116.405, 49.899 124.911, 43.173 144.711 C 37.902 160.227, 33.515 172.827, 33.425 172.711 C 33.335 172.595, 34.575 157.200, 36.180 138.500 C 38.993 105.720, 39.211 104.239, 42.234 97.241 C 44.619 91.719, 45.757 90.106, 46.992 90.497 C 47.974 90.809, 49.776 89.787, 51.557 87.909 L 54.500 84.805 65.239 85.486 C 83.280 86.630, 83.141 86.175, 68.594 96.493 C 59.852 102.693, 56.144 105.896, 56.471 106.963 C 57.028 108.781, 74 185.919, 74 186.630 C 74 188.120, 77.452 183.950, 91.482 165.508 L 106.999 145.112 119.405 151.587 L 131.811 158.063 139.656 157.489 C 144.444 157.139, 154.219 157.631, 164.750 158.752 C 180.179 160.396, 181.999 160.427, 181.994 159.045 C 181.990 158.195, 179.290 138.150, 175.994 114.500 C 172.698 90.850, 170.001 71.428, 170.001 71.341 C 170 71.253, 166.882 70.624, 163.070 69.943 C 159.259 69.262, 155.614 68.380, 154.971 67.982 C 154.156 67.478, 157.310 58.942, 165.401 39.756 C 171.780 24.629, 177 11.970, 177 11.626 C 177 11.282, 176.434 11, 175.742 11 C 175.050 11, 168.053 23.872, 160.192 39.604 M 31 20.570 C 31 20.798, 33.099 23.903, 35.665 27.470 C 39.369 32.618, 40.760 33.856, 42.415 33.475 C 43.562 33.210, 47.850 32.308, 51.944 31.470 C 56.038 30.632, 59.515 29.818, 59.671 29.663 C 59.951 29.383, 52.377 26.820, 38.250 22.415 C 34.263 21.172, 31 20.342, 31 20.570 M 97.204 25.017 C 84.391 27.683, 73.366 30.062, 72.704 30.304 C 72.042 30.546, 73.083 31.057, 75.017 31.439 C 77.643 31.959, 83.710 30.837, 98.958 27.011 C 110.191 24.192, 120.083 21.475, 120.941 20.973 C 123.242 19.627, 122.543 19.746, 97.204 25.017 M 72.022 36.391 L 67.545 37.585 75.449 43.430 L 83.353 49.275 87.177 45.176 C 89.279 42.922, 91 40.699, 91 40.236 C 91 39.515, 78.142 34.821, 76.929 35.098 C 76.693 35.152, 74.485 35.734, 72.022 36.391 M 40 63.604 C 29.275 71.015, 20.371 77.448, 20.213 77.900 C 20.056 78.351, 24.331 79.033, 29.713 79.414 C 35.096 79.795, 41.093 80.351, 43.039 80.648 L 46.579 81.188 53.704 65.594 C 57.622 57.017, 60.530 50.029, 60.164 50.065 C 59.799 50.100, 50.725 56.193, 40 63.604 M 70.351 67.250 L 57.250 81.500 61.375 82.150 C 63.644 82.508, 70.060 83.129, 75.632 83.529 L 85.764 84.257 95.882 77.083 C 101.447 73.138, 106 69.742, 106 69.538 C 106 69.136, 84.317 53, 83.778 53 C 83.599 53, 77.556 59.412, 70.351 67.250 M 152.143 61.643 C 150.914 64.172, 150.116 66.450, 150.371 66.704 C 150.625 66.958, 151.776 65.034, 152.929 62.429 C 155.650 56.277, 155.044 55.672, 152.143 61.643 M 149.149 78.129 C 147.417 82.050, 146 86.246, 146 87.454 C 146 88.662, 147.133 92.981, 148.518 97.052 L 151.035 104.454 139.768 115.703 C 132.828 122.631, 128.053 126.672, 127.337 126.221 C 126.523 125.709, 128.398 120.243, 133.587 107.996 C 137.664 98.375, 141 90.212, 141 89.858 C 141 89.169, 109.843 105.933, 109 107.075 C 108.725 107.448, 101.901 111.202, 93.835 115.419 C 84.234 120.439, 78.934 122.703, 78.485 121.976 C 77.631 120.595, 76.302 121.489, 91.242 113.399 C 98.250 109.605, 103.988 106.106, 103.992 105.624 C 103.996 105.142, 101.689 100.979, 98.865 96.374 C 93.567 87.734, 93.407 87.622, 86.500 87.696 C 84.756 87.714, 59.495 106.192, 59.603 107.372 C 59.881 110.432, 75.342 179.592, 75.879 180.177 C 76.221 180.549, 81.996 173.574, 88.713 164.677 C 95.430 155.780, 102.191 146.988, 103.736 145.141 L 106.546 141.781 119.106 148.391 L 131.666 155 142.583 154.989 C 148.587 154.982, 159.013 155.506, 165.752 156.153 C 172.490 156.801, 178.235 157.098, 178.519 156.815 C 178.802 156.531, 176.439 137.688, 173.267 114.941 L 167.500 73.582 161.500 72.334 C 152.324 70.427, 152.610 70.292, 149.149 78.129 M 47.072 86.750 L 45.824 89.500 48.412 87.076 C 51.380 84.295, 51.500 84, 49.661 84 C 48.924 84, 47.759 85.237, 47.072 86.750 M 139.212 101.696 C 130.870 121.737, 130.782 120.555, 139.939 111.476 L 148.033 103.452 146.383 98.476 C 145.476 95.739, 144.410 93.138, 144.013 92.696 C 143.617 92.254, 141.456 96.304, 139.212 101.696" stroke="none" fill="black" fill-rule="evenodd"/>
</svg>