<svg xmlns="http://www.w3.org/2000/svg" width="200" height="200" viewBox="0 0 200 200" version="1.1">
	<path d="M 93 15.803 C 55.325 17.193, 24.324 18.470, 24.108 18.641 C 23.892 18.811, 26.091 22.569, 28.994 26.991 C 32.234 31.926, 35.088 35.198, 36.386 35.464 C 37.549 35.703, 49.525 36.864, 63 38.044 C 76.475 39.224, 87.644 40.328, 87.819 40.498 C 87.995 40.667, 87.586 41.690, 86.911 42.770 C 85.858 44.457, 84.112 44.830, 74.592 45.401 C 68.491 45.768, 60.688 46.339, 57.250 46.672 L 51 47.276 51 52.797 L 51 58.317 29.823 57.682 C 18.176 57.333, 9.064 57.417, 9.573 57.869 C 10.083 58.322, 14.876 61.902, 20.225 65.825 L 29.949 72.958 39.599 68.479 C 44.907 66.016, 49.644 64, 50.125 64 C 50.606 64, 51 64.859, 51 65.909 C 51 66.959, 43.743 88.128, 34.874 112.950 C 26.005 137.773, 18.950 158.284, 19.197 158.530 C 19.444 158.777, 26.851 159.276, 35.658 159.639 L 51.671 160.299 52.335 129.987 C 52.701 113.315, 53 93.078, 53 85.015 C 53 74.067, 53.414 69.141, 54.636 65.555 L 56.272 60.754 61.386 61.368 C 64.199 61.706, 68.443 61.987, 70.817 61.991 C 74.566 61.999, 75.057 62.244, 74.546 63.856 C 74.080 65.322, 76.156 67.370, 84.429 73.606 C 90.189 77.948, 94.887 81.725, 94.869 82 C 94.851 82.275, 92.286 84.708, 89.168 87.407 C 86.051 90.106, 81.394 94.258, 78.819 96.633 L 74.138 100.951 80.934 115.725 L 87.729 130.500 81.248 139.847 C 75.855 147.625, 74.996 149.405, 76.133 150.448 C 76.885 151.138, 87.781 158.099, 100.348 165.918 C 120.569 178.499, 123.385 179.972, 124.848 178.733 C 125.756 177.962, 135.725 169.537, 147 160.011 C 158.275 150.485, 167.657 142.288, 167.849 141.797 C 168.042 141.306, 165.987 138.563, 163.285 135.702 C 160.582 132.841, 156.649 127.419, 154.546 123.654 L 150.721 116.809 162.849 104.651 L 174.977 92.494 175.650 58.747 C 176.020 40.186, 176.092 25, 175.809 25 C 175.526 25, 169.941 33.090, 163.398 42.977 L 151.500 60.955 140 60.922 C 123.226 60.874, 82.029 59.363, 81.440 58.773 C 81.162 58.496, 82.391 55.812, 84.171 52.808 L 87.407 47.348 117.953 45.138 C 157.330 42.288, 160.158 41.982, 159.718 40.616 C 159.294 39.300, 127.107 30.811, 125.187 31.509 C 122.291 32.561, 125.584 33.963, 137.257 36.647 L 149.500 39.463 144.500 40.185 C 135.530 41.480, 120.742 41.272, 108.500 39.678 C 101.900 38.819, 95.686 38.090, 94.692 38.058 C 93.122 38.008, 93.346 37.181, 96.398 31.765 L 99.912 25.529 137.206 20.761 C 157.718 18.138, 175.063 15.783, 175.750 15.528 C 176.438 15.272, 177 14.599, 177 14.031 C 177 12.720, 175.938 12.742, 93 15.803 M 79.051 19.166 C 51.854 20.211, 29.433 21.233, 29.228 21.439 C 28.506 22.161, 36.298 33, 37.539 33 C 39.553 33, 83.187 36.902, 86.620 37.389 C 89.586 37.810, 89.947 37.469, 93.955 30.465 C 97.946 23.489, 98.392 23.065, 102.335 22.504 C 104.626 22.177, 114.375 20.853, 124 19.560 C 145.484 16.675, 144.218 16.663, 79.051 19.166 M 163.718 47.407 C 158.527 55.247, 155.169 61.278, 155.507 62.157 C 155.868 63.099, 155.188 64.049, 153.648 64.751 C 152.125 65.444, 143.830 76.894, 131.416 95.436 C 118.496 114.734, 111.274 124.674, 110.635 124.035 C 109.996 123.396, 113.853 116.749, 121.733 104.910 L 133.809 86.763 127.982 77.138 C 124.776 71.844, 122.290 67.376, 122.457 67.210 C 122.624 67.043, 126.076 66.327, 130.130 65.618 L 137.500 64.329 129 63.694 C 124.325 63.345, 111.239 62.795, 99.920 62.472 C 73.626 61.721, 73.483 61.825, 86.698 72.054 C 91.988 76.149, 96.981 79.988, 97.792 80.585 C 99.016 81.484, 98.349 82.510, 93.898 86.585 C 90.944 89.288, 86.067 93.816, 83.060 96.646 L 77.593 101.793 84.211 116.348 L 90.829 130.903 84.914 139.380 C 81.661 144.042, 79.016 148.226, 79.036 148.678 C 79.056 149.130, 88.973 155.654, 101.074 163.175 L 123.076 176.851 142.987 159.913 C 153.938 150.597, 163.197 142.490, 163.564 141.897 C 163.930 141.304, 162.637 139.173, 160.690 137.160 C 157.486 133.847, 148 118.953, 148 117.236 C 148 116.847, 153.512 111.004, 160.250 104.251 L 172.500 91.973 172.819 68.237 C 172.994 55.181, 172.994 42.170, 172.819 39.322 L 172.500 34.144 163.718 47.407 M 90.459 42.067 C 89.245 44.030, 90.831 44.228, 101.195 43.408 C 111.216 42.614, 111.348 42.572, 106 41.895 C 97.523 40.821, 91.186 40.891, 90.459 42.067 M 64.500 48.696 C 54.784 49.212, 54.261 49.467, 53.838 53.899 C 53.476 57.693, 53.573 57.832, 56.982 58.396 C 58.917 58.716, 64.325 58.974, 69 58.969 L 77.500 58.961 80.703 53.480 L 83.905 48 77.203 48.189 C 73.516 48.293, 67.800 48.521, 64.500 48.696 M 18.288 60.657 C 18.620 61.195, 21.504 63.448, 24.696 65.665 L 30.500 69.696 39.500 65.419 L 48.500 61.143 41.500 61.065 C 37.650 61.023, 30.716 60.694, 26.092 60.334 C 20.703 59.914, 17.901 60.030, 18.288 60.657 M 135.130 67.562 C 131.076 68.301, 127.548 69.118, 127.290 69.377 C 126.832 69.835, 134.871 84, 135.588 84 C 135.786 84, 138.672 79.950, 142 75 C 148.967 64.639, 149.281 64.979, 135.130 67.562 M 36.242 117.324 C 28.950 137.771, 22.987 155.063, 22.992 155.750 C 22.998 156.685, 26.249 157, 35.888 157 L 48.776 157 49.459 133.750 C 49.835 120.963, 49.998 103.671, 49.821 95.324 L 49.500 80.148 36.242 117.324" stroke="none" fill="black" fill-rule="evenodd"/>
</svg>