<svg xmlns="http://www.w3.org/2000/svg" width="200" height="200" viewBox="0 0 200 200" version="1.1">
	<path d="M 74.463 13.978 C 63.483 20.565, 53.826 25.965, 53.003 25.978 C 52.179 25.990, 45.507 23.710, 38.174 20.912 C 30.842 18.114, 24.664 16.002, 24.446 16.220 C 23.779 16.888, 41.845 44, 42.958 44 C 44.973 44, 43.936 41.838, 36.873 31.311 C 32.953 25.469, 30.366 20.917, 31.123 21.196 C 31.880 21.475, 36.458 23.187, 41.296 25.001 L 50.091 28.300 47.451 30.032 C 43.693 32.497, 46.282 33.702, 50.480 31.441 L 53.789 29.659 66.644 34.465 C 73.715 37.109, 79.616 39.364, 79.758 39.477 C 79.900 39.590, 71.879 45.874, 61.933 53.441 L 43.849 67.199 39.675 66.114 C 37.379 65.516, 30.437 63.490, 24.250 61.611 C 18.062 59.731, 13 58.537, 13 58.956 C 13 60.355, 26.125 83, 26.936 83 C 27.376 83, 31.230 80.300, 35.500 77 C 43.464 70.846, 45.247 70.293, 50.579 72.326 L 53.657 73.500 36.855 110.500 C 27.615 130.850, 20.154 147.811, 20.277 148.191 C 20.589 149.158, 50.223 179.116, 50.532 178.777 C 50.671 178.625, 53.321 157.800, 56.422 132.500 C 59.522 107.200, 62.347 85.150, 62.698 83.500 C 63.168 81.297, 65.036 88.732, 69.733 111.500 C 75.955 141.657, 76.126 142.891, 76.014 156.876 C 75.916 169.029, 76.122 171.167, 77.343 170.699 C 78.137 170.394, 88.986 163.763, 101.452 155.964 C 113.918 148.165, 124.317 141.984, 124.562 142.228 C 124.806 142.473, 124.725 144.659, 124.381 147.087 L 123.756 151.500 110.188 160.070 C 97.784 167.904, 94.025 171, 96.916 171 C 97.511 171, 103.725 167.424, 110.723 163.054 C 117.722 158.683, 123.688 155.495, 123.980 155.968 C 124.272 156.441, 126.534 155.051, 129.006 152.879 C 133.646 148.803, 143.493 142, 144.753 142 C 145.146 142, 153.416 150.213, 163.131 160.250 C 175.381 172.907, 181.122 178.188, 181.864 177.483 C 182.612 176.772, 179.473 170.317, 171.408 155.983 C 165.069 144.718, 158.108 132.293, 155.939 128.373 L 151.995 121.246 167.748 106.963 C 176.411 99.108, 184.537 91.706, 185.803 90.514 L 188.107 88.348 164.194 73.206 L 140.282 58.064 139.673 50.782 C 139.339 46.777, 138.763 38.651, 138.394 32.724 C 137.809 23.326, 136.904 19.763, 135.466 21.201 C 135.246 21.421, 134.601 26.979, 134.035 33.551 C 133.468 40.123, 132.751 47.818, 132.443 50.650 L 131.881 55.800 111.452 43.900 C 100.216 37.355, 90.716 32, 90.340 32 C 89.965 32, 88.775 32.788, 87.696 33.750 C 85.814 35.429, 85.758 35.419, 86.312 33.500 C 86.630 32.400, 88.501 25.425, 90.470 18 C 92.440 10.575, 94.251 3.938, 94.494 3.250 C 94.738 2.563, 94.822 2, 94.682 2 C 94.541 2, 85.443 7.390, 74.463 13.978 M 73.229 17.762 C 64.329 23.089, 57.374 27.731, 57.774 28.077 C 58.930 29.078, 81.984 37.356, 82.365 36.906 C 83.036 36.114, 90.154 8.820, 89.785 8.452 C 89.580 8.246, 82.129 12.436, 73.229 17.762 M 88.111 36.883 L 85.721 38.719 93.111 41.511 C 97.175 43.047, 103.845 45.578, 107.933 47.135 C 112.022 48.692, 115.478 49.855, 115.615 49.719 C 115.811 49.522, 93.038 36.145, 91.023 35.274 C 90.736 35.149, 89.425 35.873, 88.111 36.883 M 81.678 50.688 C 80.261 55.937, 78.933 60.400, 78.727 60.606 C 78.520 60.813, 73.917 62.915, 68.496 65.279 C 59.343 69.269, 55.655 72, 59.417 72 C 60.288 72, 61 71.550, 61 71 C 61 69.174, 63.855 69.966, 64.490 71.969 C 64.837 73.063, 66.534 74.335, 68.308 74.832 C 70.063 75.324, 80.071 78.304, 90.547 81.455 L 109.594 87.183 119.755 82.467 L 129.915 77.752 130.414 73.626 C 132.108 59.629, 132.105 59.255, 130.269 58.533 C 129.296 58.150, 119.725 54.531, 109 50.491 C 98.275 46.450, 88.319 42.695, 86.877 42.145 L 84.253 41.146 81.678 50.688 M 63.115 55.784 L 46.729 68.384 50.615 69.511 C 53.897 70.463, 54.624 70.394, 55.296 69.069 C 55.734 68.206, 60.753 65.543, 66.449 63.152 L 76.806 58.804 78.376 52.554 C 79.239 49.117, 80.231 45.561, 80.580 44.652 C 80.929 43.744, 80.828 43.041, 80.357 43.092 C 79.886 43.142, 72.127 48.854, 63.115 55.784 M 135.775 48 C 134.853 52.733, 132.942 75.276, 133.423 75.756 C 133.634 75.967, 135.632 75.208, 137.863 74.070 C 142.691 71.607, 143 71.570, 143 73.458 C 143 74.260, 140.965 76.108, 138.477 77.566 C 135.990 79.024, 133.566 80.956, 133.091 81.858 C 132.040 83.856, 130.517 106, 131.431 106 C 131.788 106, 133.915 105.064, 136.159 103.919 C 141.004 101.447, 140.909 101.377, 146.399 111.372 L 150.509 118.856 166.505 104.355 C 175.302 96.380, 182.500 89.432, 182.500 88.916 C 182.500 88.399, 172.375 81.564, 160 73.727 L 137.500 59.477 136.979 51.988 C 136.544 45.743, 136.344 45.081, 135.775 48 M 21.518 69.162 C 23.497 72.648, 25.595 76.477, 26.182 77.671 C 27.224 79.792, 27.408 79.723, 34.130 74.693 L 41.011 69.544 32.255 66.805 C 27.440 65.299, 22.245 63.787, 20.711 63.445 L 17.921 62.824 21.518 69.162 M 39.558 111.110 L 22.749 148.239 35.335 160.825 C 42.258 167.748, 48.110 173.207, 48.341 172.956 C 48.746 172.516, 60.973 75.629, 60.656 75.374 C 60.570 75.305, 59.570 74.963, 58.433 74.615 C 56.550 74.038, 54.869 77.289, 39.558 111.110 M 66 78.187 C 66 78.957, 68.940 94.193, 72.533 112.044 C 78.596 142.167, 79.046 145.302, 78.783 155.649 L 78.500 166.798 81 165.436 C 82.375 164.687, 92.700 158.294, 103.944 151.229 C 119.628 141.374, 124.544 137.796, 125.063 135.857 C 125.434 134.468, 126.068 128.500, 126.470 122.595 L 127.202 111.859 122.404 114.297 L 117.607 116.736 107.346 109.118 C 101.702 104.928, 97.066 101.235, 97.043 100.911 C 97.019 100.587, 101.529 97.504, 107.064 94.059 C 112.599 90.613, 116.916 87.583, 116.657 87.324 C 116.398 87.064, 114.769 87.585, 113.038 88.481 C 109.962 90.071, 109.416 89.967, 89.264 83.954 C 77.921 80.569, 68.045 77.571, 67.320 77.292 C 66.594 77.014, 66 77.416, 66 78.187 M 115.997 91.609 C 108.574 96.255, 102.372 100.427, 102.216 100.881 C 101.868 101.889, 116.459 113, 118.131 113 C 118.787 113, 121.211 111.894, 123.517 110.543 L 127.709 108.086 128.722 95.793 C 129.278 89.032, 129.680 83.424, 129.614 83.331 C 129.549 83.238, 123.421 86.963, 115.997 91.609 M 134.750 107.603 C 130.856 109.600, 129.995 110.530, 129.974 112.769 C 129.960 114.271, 129.514 119.967, 128.983 125.426 C 128.452 130.885, 128.133 135.466, 128.273 135.606 C 128.789 136.123, 138.759 129.367, 143.552 125.252 L 148.500 121.005 144.612 113.752 C 142.473 109.764, 140.448 106.200, 140.112 105.834 C 139.775 105.467, 137.363 106.264, 134.750 107.603 M 144.991 127.509 C 143.120 129.439, 138.554 132.853, 134.843 135.095 C 128.470 138.946, 128.060 139.417, 127.428 143.632 C 127.060 146.085, 126.927 148.260, 127.132 148.465 C 127.336 148.670, 131.254 146.624, 135.838 143.919 C 140.422 141.213, 144.466 139, 144.824 139 C 145.183 139, 152.175 145.637, 160.363 153.750 L 175.250 168.500 171.634 162 C 169.646 158.425, 164.077 148.417, 159.259 139.760 C 154.442 131.102, 150.026 124.015, 149.446 124.010 C 148.867 124.004, 146.862 125.579, 144.991 127.509" stroke="none" fill="black" fill-rule="evenodd"/>
</svg>