<svg xmlns="http://www.w3.org/2000/svg" width="200" height="200" viewBox="0 0 200 200" version="1.1">
	<path d="M 106 18.260 C 58.126 23.654, 59.784 23.607, 32.250 20.344 C 25.230 19.512, 25.230 21.490, 32.250 25.627 L 37.500 28.721 48 27.468 C 57.305 26.358, 60.663 26.447, 77.500 28.248 C 87.950 29.366, 96.672 30.427, 96.883 30.607 C 97.094 30.786, 95.294 33.873, 92.883 37.466 C 90.173 41.505, 87.545 44.274, 86 44.719 C 83.072 45.562, 75.187 45.693, 69.500 44.993 C 66.015 44.563, 65.371 44.803, 64.500 46.850 C 63.516 49.162, 63.337 49.189, 53.500 48.529 C 48 48.159, 42.547 47.630, 41.383 47.354 C 39.618 46.934, 36.992 49.725, 25.578 64.157 C 18.050 73.675, 12.323 81.608, 12.852 81.784 C 13.381 81.960, 22.714 79.390, 33.593 76.072 C 44.472 72.754, 53.459 70.143, 53.565 70.270 C 53.671 70.396, 47.222 85.058, 39.235 102.851 L 24.713 135.202 36.606 159.186 C 47.191 180.531, 48.578 182.858, 49.210 180.335 C 49.601 178.776, 51.527 154.810, 53.490 127.077 C 56.296 87.423, 56.794 76.491, 55.819 75.888 C 54.850 75.289, 54.912 74.419, 56.103 71.904 C 57.437 69.089, 58.610 68.394, 65.486 66.350 C 69.809 65.064, 73.446 64.122, 73.568 64.256 C 73.690 64.390, 70.699 68.775, 66.923 74 C 63.146 79.225, 60.049 83.725, 60.042 84 C 60.035 84.275, 62.385 85.788, 65.264 87.363 C 68.144 88.937, 81.211 96.288, 94.302 103.698 C 112.405 113.945, 117.855 117.469, 117.068 118.418 C 116.499 119.104, 112.313 120.488, 107.766 121.495 C 103.220 122.501, 99.106 123.668, 98.623 124.088 C 98.141 124.509, 95.666 133.549, 93.123 144.177 C 88.858 162.003, 88.546 164.179, 89.100 172.266 C 89.429 177.088, 89.932 181.265, 90.217 181.550 C 90.978 182.311, 181.689 175.645, 182.571 174.763 C 182.791 174.542, 178.978 165.393, 174.097 154.431 L 165.222 134.500 172.768 94.207 C 177.970 66.430, 179.992 53.592, 179.279 52.879 C 178.565 52.165, 169.120 65.349, 148.872 95.321 C 132.717 119.234, 119.218 138.282, 118.874 137.650 C 117.859 135.785, 116.004 123.802, 116.585 122.863 C 116.878 122.388, 117.654 121.997, 118.309 121.994 C 118.964 121.991, 121.274 121.496, 123.443 120.894 L 127.386 119.800 124.956 117.967 L 122.526 116.134 136.965 101.569 C 146.318 92.137, 151.063 86.663, 150.433 86.033 C 149.803 85.403, 143.344 87.357, 132.102 91.577 L 114.742 98.092 100.415 90.796 C 92.535 86.783, 86.406 83.415, 86.794 83.312 C 87.182 83.209, 103.700 81.914, 123.500 80.434 C 143.300 78.954, 159.920 77.359, 160.433 76.889 C 160.947 76.418, 161.055 75.721, 160.673 75.340 C 160.291 74.958, 142.439 71.430, 121 67.500 C 99.561 63.570, 81.755 60.088, 81.430 59.764 C 80.432 58.765, 84.129 53.997, 85.865 54.045 C 86.764 54.069, 101.900 55.357, 119.500 56.906 C 147.854 59.403, 154.852 59.518, 152.790 57.457 C 152.247 56.913, 93.157 48.010, 90.050 48.003 C 89.172 48.001, 88.974 47.662, 89.550 47.142 C 90.798 46.014, 129.843 37.228, 137.263 36.405 C 142.611 35.812, 144.989 34.656, 143.639 33.305 C 143.330 32.996, 134.299 31.765, 123.569 30.569 C 112.840 29.374, 103.843 28.176, 103.575 27.909 C 103.308 27.641, 104.081 26.252, 105.294 24.822 C 107.329 22.423, 108.778 22.053, 124 20.047 C 153.004 16.225, 155 15.860, 155 14.378 C 155 12.630, 158.262 12.372, 106 18.260 M 89 22.935 C 73.315 24.764, 73.417 25.038, 90.500 26.979 C 98.624 27.902, 99.629 27.831, 100.823 26.251 C 102.272 24.334, 104.240 20.927, 103.785 21.122 C 103.628 21.190, 96.975 22.006, 89 22.935 M 35.796 24.466 C 37.660 25.855, 38.787 25.992, 41.796 25.192 L 45.500 24.207 41.332 24.103 C 39.039 24.047, 36.339 23.720, 35.332 23.377 C 34.001 22.924, 34.128 23.222, 35.796 24.466 M 96.656 36.611 C 94.542 39.655, 92.979 42.312, 93.182 42.516 C 93.386 42.719, 100.966 41.116, 110.026 38.953 C 119.087 36.790, 127.362 35.015, 128.417 35.010 C 129.471 35.004, 130.123 34.790, 129.867 34.534 C 129.400 34.067, 104.828 30.993, 102 31.047 C 101.175 31.063, 98.770 33.567, 96.656 36.611 M 67 48 C 67 48.550, 67.702 49, 68.559 49 C 69.416 49, 69.840 48.550, 69.500 48 C 69.160 47.450, 68.459 47, 67.941 47 C 67.423 47, 67 47.450, 67 48 M 77 50 C 77 50.550, 78.602 51, 80.559 51 C 82.677 51, 83.868 50.595, 83.500 50 C 83.160 49.450, 81.559 49, 79.941 49 C 78.323 49, 77 49.450, 77 50 M 29.765 63.156 C 23.965 70.495, 19.388 76.679, 19.592 76.898 C 19.796 77.117, 27.884 74.892, 37.564 71.952 L 55.165 66.608 57.453 62.054 C 58.711 59.549, 60.030 56.565, 60.384 55.421 C 60.953 53.578, 60.684 53.393, 58.013 53.785 C 55.725 54.121, 55 53.839, 55 52.613 C 55 51.375, 53.984 51, 50.625 51 C 48.219 51, 44.913 50.733, 43.280 50.406 C 40.453 49.841, 39.802 50.455, 29.765 63.156 M 88.052 51.053 C 89.388 51.899, 96.855 52.453, 95.917 51.638 C 95.688 51.438, 93.498 51.019, 91.052 50.706 C 88.174 50.338, 87.115 50.461, 88.052 51.053 M 62.122 58.319 C 60.569 61.719, 59.420 64.651, 59.568 64.835 C 59.716 65.020, 63.673 64.001, 68.361 62.571 C 75.062 60.527, 77.334 59.339, 78.989 57.016 L 81.093 54.061 78.796 53.593 C 77.533 53.336, 73.900 52.903, 70.722 52.632 L 64.944 52.139 62.122 58.319 M 146.451 103.764 L 117.540 146.500 115.368 135.182 C 114.174 128.956, 113.040 123.735, 112.848 123.579 C 112.657 123.423, 109.744 123.922, 106.375 124.689 L 100.250 126.083 95.919 143.791 C 92.256 158.765, 91.628 162.809, 91.849 169.973 C 91.994 174.632, 92.279 178.613, 92.484 178.817 C 92.851 179.185, 178.254 172.962, 178.763 172.531 C 178.907 172.408, 175.338 164.026, 170.830 153.904 C 166.323 143.782, 162.705 134.600, 162.790 133.500 C 162.875 132.400, 165.899 115.804, 169.509 96.620 C 173.119 77.436, 175.913 61.580, 175.718 61.384 C 175.522 61.189, 162.352 80.260, 146.451 103.764 M 70.950 73.071 C 67.022 78.610, 63.964 83.276, 64.154 83.440 C 64.840 84.031, 119.839 115, 120.203 115 C 120.408 115, 125.889 109.365, 132.383 102.477 L 144.189 89.955 139.345 91.844 C 136.680 92.882, 129.930 95.402, 124.344 97.443 L 114.187 101.153 97.344 92.633 C 88.080 87.947, 79.600 83.427, 78.500 82.589 C 76.541 81.095, 76.551 81.063, 79 81.031 C 80.375 81.013, 95.450 79.876, 112.500 78.504 C 129.550 77.132, 144.587 76.008, 145.917 76.005 C 147.246 76.002, 148.146 75.820, 147.917 75.600 C 147.403 75.107, 81.799 63, 79.643 63 C 78.789 63, 74.877 67.532, 70.950 73.071 M 40.601 106.488 L 27.873 134.979 37.176 154.147 C 45.566 171.434, 46.548 173.029, 47.185 170.407 C 48.037 166.901, 54.288 78.955, 53.725 78.392 C 53.508 78.174, 47.602 90.818, 40.601 106.488" stroke="none" fill="black" fill-rule="evenodd"/>
</svg>