<svg xmlns="http://www.w3.org/2000/svg" width="200" height="200" viewBox="0 0 200 200" version="1.1">
	<path d="M 46.250 23.490 C 39.513 30.881, 34 37.345, 34 37.855 C 34 38.365, 38.725 41.795, 44.500 45.477 C 50.275 49.158, 55 52.341, 55 52.549 C 55 52.758, 45.325 52.648, 33.500 52.306 C 18.968 51.885, 12 52.018, 12 52.717 C 12 53.285, 14.873 59.811, 18.385 67.220 L 24.770 80.690 33.512 79.305 C 38.320 78.543, 42.441 78.108, 42.670 78.337 C 42.899 78.566, 37.698 97.589, 31.111 120.611 C 24.525 143.633, 19.305 162.638, 19.511 162.845 C 20.061 163.394, 43.798 160.743, 45.004 159.998 C 45.566 159.650, 49.429 140.500, 53.588 117.441 C 57.747 94.383, 61.242 75.425, 61.353 75.313 C 61.465 75.201, 65.523 74.481, 70.371 73.714 C 76.613 72.725, 79.279 72.636, 79.507 73.409 C 79.684 74.009, 80.572 82.294, 81.480 91.820 C 82.607 103.649, 83.744 110.570, 85.065 113.652 C 86.129 116.135, 87 119.075, 87 120.185 C 87 124.231, 80.944 139.940, 72.071 158.913 C 67.078 169.590, 63.186 178.519, 63.423 178.756 C 63.660 178.993, 75.114 175.745, 88.875 171.538 L 113.897 163.889 144.198 167.962 C 160.864 170.202, 175.323 172.219, 176.329 172.444 C 178.872 173.014, 178.543 172.356, 166.876 153.493 L 156.727 137.085 151.113 135.979 C 148.026 135.371, 145.096 134.767, 144.602 134.637 C 144.109 134.508, 151.871 127.539, 161.852 119.151 C 171.834 110.764, 180 103.501, 180 103.013 C 180 102.524, 175.884 92.637, 170.854 81.042 C 165.823 69.447, 161.934 59.733, 162.211 59.455 C 162.489 59.178, 165.704 58.672, 169.358 58.331 C 173.975 57.900, 176 57.298, 176 56.355 C 176 55.326, 174.014 54.994, 167.750 54.976 L 159.500 54.953 157.320 49.990 L 155.140 45.027 169.820 40.411 C 177.894 37.872, 184.835 35.483, 185.245 35.103 C 185.654 34.722, 171.971 29.139, 154.838 22.695 C 137.705 16.252, 123.570 11.097, 123.428 11.240 C 123.285 11.383, 123.754 18.475, 124.469 27 C 125.184 35.525, 125.484 42.795, 125.135 43.157 C 124.786 43.518, 120.272 44.925, 115.105 46.284 L 105.710 48.756 91.105 44.896 C 82.838 42.711, 76.005 40.358, 75.358 39.475 C 74.730 38.616, 70.905 31.642, 66.858 23.977 C 62.811 16.312, 59.275 10.043, 59 10.047 C 58.725 10.050, 52.987 16.100, 46.250 23.490 M 55.445 17.460 C 54.375 18.812, 49.824 23.894, 45.330 28.753 L 37.161 37.587 49.393 45.293 L 61.625 53 75.563 52.981 C 88.308 52.963, 100.955 51.233, 98.467 49.848 C 97.935 49.552, 92.380 48.019, 86.123 46.441 C 73.073 43.151, 74.486 44.507, 64.573 25.750 C 61.448 19.837, 58.553 15, 58.141 15 C 57.728 15, 56.515 16.107, 55.445 17.460 M 126.319 17.250 C 126.613 18.488, 127.170 24.563, 127.556 30.750 C 128.127 39.903, 128.544 42, 129.795 42 C 130.641 42, 135.842 40.788, 141.353 39.308 C 147.716 37.598, 151.500 36.999, 151.722 37.666 C 151.915 38.244, 152.649 39.506, 153.355 40.470 C 154.560 42.119, 155.348 42.002, 166.419 38.546 C 172.900 36.523, 178.044 34.719, 177.851 34.536 C 177.426 34.134, 126.870 15, 126.233 15 C 125.985 15, 126.024 16.012, 126.319 17.250 M 138.750 42.716 C 129.684 45.053, 129 45.405, 129 47.731 C 129 49.635, 129.419 50.116, 130.750 49.742 C 145.221 45.678, 151.044 43.470, 150.787 42.144 C 150.358 39.933, 149.360 39.981, 138.750 42.716 M 124.500 46.506 C 123.950 46.698, 120.800 47.627, 117.500 48.570 L 111.500 50.286 116.171 51.519 C 122.951 53.309, 126 52.491, 126 48.883 C 126 47.298, 125.888 46.036, 125.750 46.079 C 125.612 46.122, 125.050 46.315, 124.500 46.506 M 139.500 49.936 L 128.500 53.649 141.979 54.262 C 149.393 54.599, 155.651 54.683, 155.886 54.448 C 156.664 53.670, 152.718 45.998, 151.598 46.111 C 150.994 46.172, 145.550 47.894, 139.500 49.936 M 100.500 53 C 99.155 53.578, 100.955 53.850, 106 53.830 C 111.204 53.810, 112.735 53.556, 111 53 C 107.682 51.937, 102.973 51.937, 100.500 53 M 16 55.233 C 16 55.493, 18.260 60.496, 21.022 66.353 L 26.045 77 29.772 76.904 C 31.823 76.851, 35.942 76.288, 38.926 75.654 L 44.352 74.500 45.782 69.332 L 47.211 64.164 54.011 62.497 C 59.337 61.192, 60.931 60.371, 61.366 58.709 C 61.671 57.542, 61.691 56.357, 61.410 56.076 C 60.762 55.428, 16 54.597, 16 55.233 M 64.667 56.667 C 64.300 57.033, 64 57.891, 64 58.572 C 64 59.526, 65.318 59.467, 69.750 58.313 C 72.912 57.490, 75.688 56.633, 75.917 56.408 C 76.146 56.184, 73.858 56, 70.833 56 C 67.808 56, 65.033 56.300, 64.667 56.667 M 75.725 59.389 C 69.249 61.219, 63.788 62.893, 63.589 63.108 C 63.391 63.324, 62.902 65.472, 62.504 67.882 L 61.780 72.264 65.140 71.667 C 66.988 71.338, 70.862 70.771, 73.750 70.406 C 78.892 69.756, 79 69.674, 79 66.432 C 79 62.516, 77.327 62.872, 106.962 60.481 C 125.152 59.013, 127.976 58.606, 126.917 57.607 C 126.688 57.391, 117.725 56.954, 107 56.637 L 87.500 56.061 75.725 59.389 M 130 57.885 C 130 58.695, 142.958 58.214, 143.917 57.368 C 144.146 57.165, 141.108 57, 137.167 57 C 133.225 57, 130 57.398, 130 57.885 M 142.750 60.282 L 130 61.248 130 64.574 C 130 66.489, 130.636 68.256, 131.498 68.739 C 132.497 69.298, 133.821 74.201, 135.478 83.475 C 136.843 91.119, 137.800 97.534, 137.604 97.729 C 137.408 97.925, 135.617 98.350, 133.624 98.674 C 130.316 99.210, 129.997 99.054, 129.961 96.881 C 129.871 91.335, 127.174 62.841, 126.694 62.360 C 126.405 62.072, 116.231 62.622, 104.085 63.583 C 83.685 65.197, 82 65.475, 82 67.227 C 82 68.904, 82.513 69.046, 86.458 68.454 C 90.069 67.912, 91.590 68.201, 94.458 69.974 C 98.042 72.189, 99.061 74, 96.723 74 C 96.020 74, 94.404 73.271, 93.133 72.380 C 91.528 71.256, 89.599 70.925, 86.828 71.296 C 84.632 71.591, 82.712 71.982, 82.561 72.166 C 82.410 72.350, 83.080 80.600, 84.049 90.500 C 85.324 103.529, 86.389 109.835, 87.905 113.333 C 89.057 115.991, 90 118.867, 90 119.725 C 90 123.819, 84.983 137.265, 76.877 154.897 C 71.973 165.565, 68.089 174.422, 68.246 174.580 C 68.404 174.737, 78.650 171.762, 91.016 167.968 L 113.500 161.069 142.908 165.043 C 159.082 167.229, 172.445 168.888, 172.604 168.730 C 172.762 168.572, 168.867 161.930, 163.949 153.971 L 155.008 139.500 146.975 137.887 C 142.556 137.001, 138.759 136.093, 138.537 135.870 C 138.314 135.648, 146.903 128.125, 157.623 119.153 C 168.342 110.180, 176.975 102.441, 176.807 101.954 C 176.638 101.466, 172.450 91.612, 167.500 80.056 C 161.251 65.468, 158.041 59.086, 157 59.180 C 156.175 59.254, 149.762 59.750, 142.750 60.282 M 53.599 65.331 C 50.380 66.303, 49.465 67.183, 48.362 70.368 L 47.026 74.227 52.763 73.517 C 55.918 73.127, 58.592 72.721, 58.704 72.616 C 58.817 72.511, 59.212 70.529, 59.582 68.212 C 60.337 63.488, 60.094 63.371, 53.599 65.331 M 49.442 76.709 L 46.385 77.098 34.655 118.178 C 28.204 140.773, 23.109 159.442, 23.332 159.666 C 23.936 160.269, 42.394 157.938, 43.141 157.164 C 43.662 156.624, 58 78.962, 58 76.678 C 58 75.991, 55.001 76.002, 49.442 76.709 M 131.158 79 C 131.158 80.375, 131.385 80.938, 131.662 80.250 C 131.940 79.563, 131.940 78.438, 131.662 77.750 C 131.385 77.063, 131.158 77.625, 131.158 79 M 132.135 88 C 132.077 91.025, 132.449 94.162, 132.961 94.971 C 134.644 97.633, 134.838 95.598, 133.528 89 L 132.238 82.500 132.135 88" stroke="none" fill="black" fill-rule="evenodd"/>
</svg>