<svg xmlns="http://www.w3.org/2000/svg" width="200" height="200" viewBox="0 0 200 200" version="1.1">
	<path d="M 32.677 12.398 C 32.338 13.282, 36.502 15.164, 46.093 18.461 C 53.742 21.091, 60 23.491, 60 23.796 C 60 24.100, 56.850 28.467, 53 33.500 C 49.150 38.533, 46 42.955, 46 43.326 C 46 43.697, 48.813 44.007, 52.250 44.015 C 55.688 44.024, 59.101 44.412, 59.836 44.877 C 60.989 45.608, 50.376 50.343, 30.111 58.137 C 28.798 58.643, 27.927 59.260, 28.177 59.510 C 28.426 59.760, 37.376 62.003, 48.065 64.494 C 58.754 66.986, 68.236 69.356, 69.137 69.762 C 70.474 70.365, 66.475 76.779, 47.270 104.833 C 32.853 125.893, 24.125 139.525, 24.693 140.093 C 25.261 140.661, 28.882 139.259, 34.059 136.467 C 41.722 132.334, 47 130.171, 47 131.162 C 47 131.371, 42.950 143.673, 38 158.500 C 33.050 173.327, 29 185.580, 29 185.729 C 29 185.878, 29.673 186, 30.496 186 C 31.449 186, 36.361 177.268, 44.028 161.944 L 56.064 137.889 72.282 160.055 L 88.500 182.222 89.227 171.861 C 89.627 166.162, 90.226 158.261, 90.558 154.302 L 91.161 147.105 99.830 153.371 C 104.599 156.818, 109.748 160.453, 111.273 161.449 L 114.045 163.260 110.938 154.880 C 103.738 135.461, 102 130.570, 102 129.726 C 102 129.235, 112.176 134.075, 124.612 140.481 C 137.049 146.887, 147.849 151.888, 148.612 151.595 C 149.376 151.302, 150 151.174, 150 151.310 C 150 151.446, 147.110 160.202, 143.578 170.768 C 139.696 182.379, 137.549 190.222, 138.152 190.594 C 139.431 191.384, 140.069 190.774, 166.208 163.764 L 188.210 141.029 175.368 120.764 C 163.108 101.418, 162.248 99.708, 156.381 83.026 C 153.001 73.415, 149.620 65.191, 148.868 64.750 C 148.116 64.310, 139.625 61.085, 130 57.584 L 112.500 51.218 106.024 33.609 C 102.462 23.924, 99.014 16, 98.363 16 C 97.601 16, 96.930 18.999, 96.477 24.428 L 95.775 32.856 81.638 27.905 C 73.862 25.182, 66.887 22.735, 66.137 22.465 C 65.092 22.090, 65.043 21.653, 65.929 20.585 C 66.811 19.523, 66.779 19.092, 65.792 18.759 C 65.081 18.520, 64.022 18.973, 63.438 19.765 C 62.539 20.985, 60.137 20.433, 47.773 16.161 C 36.964 12.428, 33.041 11.450, 32.677 12.398 M 99.039 26.230 C 99.018 27.731, 98.513 35.640, 97.917 43.805 C 97.321 51.970, 96.983 59.966, 97.167 61.575 L 97.500 64.500 99.791 60.624 C 101.050 58.492, 102.184 56.917, 102.310 57.124 C 102.436 57.331, 102.305 64.025, 102.019 72 L 101.500 86.500 99.063 82.244 C 96.134 77.131, 95.037 78.117, 95.015 85.886 L 95 91.272 106.750 90.623 C 113.213 90.267, 122.888 89.697, 128.250 89.359 C 136.492 88.838, 138 88.973, 138 90.231 C 138 91.252, 132.568 93.669, 120.695 97.930 C 111.177 101.346, 102.826 104.490, 102.136 104.916 C 101.259 105.458, 102.545 107.211, 106.412 110.746 C 111.831 115.698, 112.026 115.782, 116.070 114.873 C 119.979 113.995, 120.417 114.141, 124.349 117.625 C 133.770 125.975, 154 146.273, 154 147.375 C 154 148.028, 151.323 156.648, 148.050 166.531 L 142.100 184.500 163.437 162.631 L 184.773 140.763 172.415 121.131 C 160.925 102.879, 159.633 100.309, 154.013 84.550 C 150.689 75.227, 147.430 67.265, 146.769 66.857 C 146.109 66.449, 137.904 63.347, 128.535 59.963 C 119.166 56.578, 110.994 53.168, 110.375 52.384 C 109.756 51.601, 107.539 46.131, 105.449 40.230 C 103.358 34.328, 101.070 28.150, 100.363 26.500 L 99.078 23.500 99.039 26.230 M 56.833 32.778 C 52.981 38.015, 51.539 40.722, 52.333 41.227 C 52.975 41.635, 57.201 41.976, 61.724 41.985 C 68.609 41.998, 71.214 41.495, 77.724 38.896 C 82.001 37.188, 86.625 35.342, 88 34.793 C 90.238 33.900, 89.189 33.339, 78 29.442 C 71.125 27.048, 64.825 25.085, 64 25.080 C 63.175 25.075, 59.950 28.539, 56.833 32.778 M 87 38.126 C 78.653 41.489, 76.419 43, 79.792 43 C 81.578 43, 83.040 45.078, 87.702 54.250 L 93.420 65.500 94.111 57 C 95.551 39.277, 95.751 35.002, 95.135 35.052 C 94.786 35.080, 91.125 36.464, 87 38.126 M 53.263 51.717 C 44.332 55.370, 37.267 58.601, 37.563 58.896 C 37.859 59.192, 46.218 61.326, 56.140 63.640 C 66.062 65.953, 74.400 68.066, 74.669 68.336 C 74.939 68.605, 65.045 83.603, 52.684 101.663 C 40.323 119.723, 30.366 134.667, 30.559 134.871 C 30.751 135.075, 33.292 133.898, 36.204 132.255 C 39.117 130.612, 42.993 128.940, 44.818 128.539 C 46.642 128.139, 48.382 127.167, 48.684 126.380 C 49.104 125.288, 49.558 125.218, 50.606 126.088 C 52.465 127.631, 58.686 126.376, 59.917 124.210 C 60.695 122.842, 61.258 122.725, 62.734 123.627 C 64.156 124.496, 67.416 124.213, 76.942 122.392 C 83.741 121.093, 89.400 119.910, 89.516 119.765 C 89.930 119.250, 91.064 109, 90.707 109 C 90.508 109, 84.805 111.037, 78.034 113.528 C 71.262 116.018, 65.519 117.852, 65.271 117.604 C 65.022 117.356, 70.867 107.331, 78.258 95.326 C 85.650 83.322, 92.004 72.958, 92.379 72.296 C 92.754 71.634, 90.119 65.222, 86.523 58.046 L 79.986 45 74.743 45.037 C 70.629 45.067, 66.004 46.504, 53.263 51.717 M 97.667 68.667 C 96.642 69.692, 96.877 73.806, 98 74.500 C 98.595 74.868, 99 73.677, 99 71.559 C 99 67.904, 98.820 67.514, 97.667 68.667 M 88.091 84.591 C 85.795 88.253, 84.139 91.472, 84.411 91.745 C 84.684 92.017, 86.440 91.953, 88.313 91.601 C 91.656 90.974, 91.731 90.848, 92.361 84.816 C 92.715 81.436, 92.838 78.504, 92.635 78.301 C 92.432 78.098, 90.387 80.929, 88.091 84.591 M 109.684 93.067 C 102.635 93.490, 96.223 94.084, 95.434 94.387 C 93.356 95.184, 93.676 99.396, 95.972 101.475 C 97.877 103.199, 98.395 103.098, 111.222 98.516 C 118.525 95.907, 125.175 93.387, 126 92.917 C 127.709 91.942, 128.544 91.934, 109.684 93.067 M 79.780 98.144 C 74.640 106.197, 70.751 113, 71.286 113 C 71.757 113, 82.955 108.937, 88.250 106.844 C 92.384 105.210, 91.948 101.332, 87.099 96.596 L 83.198 92.787 79.780 98.144 M 89 94.378 C 89 94.585, 89.675 95.315, 90.500 96 C 91.729 97.020, 92 96.951, 92 95.622 C 92 94.730, 91.325 94, 90.500 94 C 89.675 94, 89 94.170, 89 94.378 M 94.200 108.200 C 93.540 108.860, 93 111.616, 93 114.325 L 93 119.250 96.250 118.586 C 98.037 118.220, 101.429 117.651, 103.786 117.320 C 106.144 116.989, 107.944 116.427, 107.786 116.071 C 107.049 114.405, 98.112 107, 96.838 107 C 96.047 107, 94.860 107.540, 94.200 108.200 M 116.228 117.838 C 115.344 118.399, 120.141 123.353, 131.936 134.059 C 141.275 142.536, 149.423 149.641, 150.042 149.847 C 150.682 150.061, 151.024 149.395, 150.834 148.307 C 150.436 146.026, 120.738 116.993, 118.825 117.015 C 118.096 117.024, 116.927 117.394, 116.228 117.838 M 105.500 119.667 C 104.400 119.907, 101.152 120.559, 98.283 121.115 C 92.367 122.264, 92.573 121.803, 91.573 136.167 L 91.040 143.834 99.520 149.900 C 104.184 153.236, 108 155.762, 108 155.514 C 108 155.265, 105.519 148.228, 102.488 139.877 C 99.456 131.525, 97.164 124.503, 97.395 124.272 C 97.626 124.041, 106.741 128.351, 117.650 133.850 C 128.559 139.349, 137.620 143.713, 137.784 143.549 C 137.949 143.384, 132.102 137.803, 124.792 131.146 C 111.857 119.368, 110.523 118.574, 105.500 119.667 M 77.751 124.945 C 72.939 125.891, 68.815 126.853, 68.587 127.082 C 68.359 127.312, 72.723 130.748, 78.286 134.717 C 83.848 138.687, 88.473 141.837, 88.562 141.717 C 88.652 141.598, 88.983 137.338, 89.298 132.250 C 89.958 121.574, 91.130 122.315, 77.751 124.945 M 59.526 130.950 C 58.687 132.573, 58 134.364, 58 134.930 C 58 136.531, 85.791 174.148, 86.329 173.275 C 86.592 172.849, 86.963 166.232, 87.153 158.571 L 87.500 144.642 76 136.349 C 69.675 131.788, 63.724 128.043, 62.776 128.028 C 61.827 128.013, 60.365 129.328, 59.526 130.950 M 54.543 129.931 C 53.860 131.036, 55.437 132.230, 56.361 131.306 C 57.311 130.355, 57.134 129, 56.059 129 C 55.541 129, 54.859 129.419, 54.543 129.931 M 44.636 147.581 C 41.553 156.812, 39.157 164.490, 39.311 164.644 C 39.465 164.798, 42.933 158.192, 47.018 149.963 L 54.446 135.002 52.344 132.899 L 50.241 130.797 44.636 147.581" stroke="none" fill="black" fill-rule="evenodd"/>
</svg>