<svg xmlns="http://www.w3.org/2000/svg" width="200" height="200" viewBox="0 0 200 200" version="1.1">
	<path d="M 44.068 22.250 C 43.583 23.488, 37.294 38.415, 30.093 55.422 C 22.892 72.428, 17 86.863, 17 87.498 C 17 88.133, 23.525 93.744, 31.500 99.966 C 39.475 106.188, 46 111.377, 46 111.497 C 46 111.616, 41.725 119.090, 36.500 128.105 C 31.275 137.120, 27 144.834, 27 145.248 C 27 147.582, 30.616 144.855, 40.234 135.267 C 46.575 128.945, 51 125.213, 51 126.185 C 51 127.093, 51.273 128.548, 51.607 129.418 C 52.025 130.508, 51.637 131.005, 50.357 131.015 C 48.996 131.026, 44.624 137.611, 34 155.649 C 26.025 169.189, 19.579 180.534, 19.675 180.859 C 20.295 182.955, 23.536 180.025, 39.374 163.051 L 57.100 144.053 56.187 139.026 L 55.273 134 63.137 134 C 67.461 134, 71 134.182, 71 134.404 C 71 134.626, 72.572 148.014, 74.492 164.154 C 76.413 180.294, 77.988 193.838, 77.992 194.250 C 77.997 194.662, 78.621 195, 79.379 195 C 80.886 195, 80.740 195.808, 86.097 157.740 C 87.936 144.672, 89.792 134.097, 90.223 134.241 C 90.653 134.384, 98.154 145.227, 106.891 158.336 C 116.047 172.073, 123.072 181.692, 123.475 181.040 C 123.865 180.410, 117.509 169.747, 109.101 156.924 L 94.028 133.939 106.080 134.219 L 118.132 134.500 124.644 150 C 128.226 158.525, 131.806 167.042, 132.601 168.927 C 133.610 171.321, 134.362 172.038, 135.096 171.304 C 135.830 170.570, 133.871 164.882, 128.598 152.435 C 124.447 142.635, 121.151 134.526, 121.275 134.414 C 121.399 134.303, 134.475 145.691, 150.334 159.722 C 167.850 175.219, 179.528 184.872, 180.086 184.314 C 180.644 183.756, 175.607 173.317, 167.252 157.720 L 153.500 132.044 138.385 132.022 C 124.644 132.002, 123.031 131.812, 120.645 129.935 C 118.003 127.857, 116 128.046, 116 130.373 C 116 131.333, 113.234 131.530, 104.250 131.207 C 97.787 130.976, 92.199 130.497, 91.832 130.143 C 91.142 129.480, 133.895 80.868, 135.696 80.268 C 136.251 80.083, 139.435 87.035, 142.771 95.716 C 146.107 104.397, 150.707 116.338, 152.993 122.250 C 155.278 128.162, 157.719 133, 158.417 133 C 159.368 133, 159.841 128.679, 160.311 115.700 L 160.936 98.400 168.486 79.968 C 172.638 69.830, 175.849 61.077, 175.621 60.518 C 175.294 59.714, 156.385 37.258, 152.995 33.647 C 152.554 33.178, 149.374 34.708, 145.928 37.049 L 139.663 41.303 128.037 39.587 L 116.410 37.871 108.014 40.936 C 103.396 42.621, 98.984 44, 98.211 44 C 97.437 44, 92.686 41.450, 87.652 38.334 C 82.618 35.218, 73.838 29.784, 68.139 26.259 L 57.779 19.850 58.490 28.175 C 58.937 33.406, 58.851 36.128, 58.257 35.500 C 57.738 34.950, 54.717 31.238, 51.544 27.250 C 48.371 23.262, 45.589 20, 45.363 20 C 45.136 20, 44.553 21.012, 44.068 22.250 M 44.597 28.073 C 25.001 74.425, 20.011 86.521, 20.233 87.135 C 20.551 88.013, 47.223 109.123, 47.549 108.755 C 47.673 108.615, 46.069 99.500, 43.984 88.500 C 41.899 77.500, 40.329 68.358, 40.494 68.186 C 40.660 68.013, 44.461 69.547, 48.942 71.595 L 57.088 75.319 60.004 71.909 C 63.442 67.888, 63.378 68.661, 61.512 53.695 L 60.039 41.891 53.850 34.195 C 50.447 29.963, 47.298 26.083, 46.854 25.573 C 46.400 25.052, 45.411 26.147, 44.597 28.073 M 61.401 29.665 C 61.760 32.324, 62.292 36.104, 62.583 38.065 C 62.937 40.446, 65.089 44.049, 69.057 48.905 C 72.326 52.905, 75 56.629, 75 57.180 C 75 57.730, 72.964 60.564, 70.475 63.477 L 65.951 68.773 67.483 81.637 C 68.326 88.712, 69.287 96.245, 69.617 98.377 L 70.219 102.255 84.066 88.434 C 93.320 79.198, 98.077 75.092, 98.405 76.056 C 99.339 78.801, 104 99.165, 104 100.499 C 104 101.235, 101.259 106.479, 97.910 112.153 C 90.621 124.498, 89.802 126, 90.353 126 C 90.586 126, 100.980 114.525, 113.451 100.500 C 125.922 86.475, 136.490 75, 136.934 75 C 137.378 75, 141.963 86.015, 147.121 99.478 C 155.914 122.426, 156.543 123.722, 157.192 120.228 C 157.573 118.177, 157.911 112.402, 157.942 107.392 C 157.999 98.404, 158.098 98.045, 165.500 80 C 169.625 69.943, 173 61.601, 173 61.462 C 173 60.850, 152.773 37.469, 152.003 37.191 C 151.532 37.021, 148.697 38.509, 145.702 40.497 L 140.258 44.112 128.310 42.422 L 116.362 40.731 106.977 44.244 L 97.592 47.758 89.546 42.712 C 85.121 39.936, 76.831 34.778, 71.124 31.248 L 60.748 24.831 61.401 29.665 M 64.541 55.500 C 64.904 59.900, 65.415 63.722, 65.677 63.994 C 66.142 64.475, 71.949 57.994, 71.943 57 C 71.942 56.725, 70.127 54.475, 67.911 52 L 63.882 47.500 64.541 55.500 M 44 72.843 C 44 73.499, 50.069 106.572, 52.286 118 C 52.479 118.993, 55.014 117.164, 59.789 112.586 C 65.086 107.507, 67.001 104.986, 67.005 103.086 C 67.008 101.664, 66.253 94.012, 65.327 86.082 L 63.645 71.663 60.999 74.832 C 59.545 76.574, 57.812 78, 57.149 78 C 56.486 78, 53.256 76.644, 49.971 74.986 C 46.687 73.328, 44 72.364, 44 72.843 M 83.440 93.234 L 70.380 106.500 71.819 118.750 L 73.258 131 78.542 131 L 83.825 131 88.304 123.250 C 90.768 118.987, 94.775 112.125, 97.210 108 L 101.636 100.500 99.068 90.234 L 96.500 79.968 83.440 93.234 M 60.218 115.281 C 52.999 122.548, 52.954 122.627, 53.766 126.550 L 54.584 130.500 62.601 130.787 L 70.617 131.075 69.322 120.329 C 68.610 114.418, 67.906 109.218, 67.757 108.772 C 67.609 108.327, 64.216 111.256, 60.218 115.281 M 43.085 122.174 C 40.106 127.303, 36.994 132.625, 36.169 134 C 35.343 135.375, 38.158 133.081, 42.423 128.903 L 50.178 121.306 49.339 117.076 L 48.500 112.847 43.085 122.174 M 39.876 151.250 C 34.279 160.738, 29.457 168.950, 29.160 169.500 C 28.680 170.390, 34.081 164.721, 49.252 148.412 C 53.854 143.464, 53.983 143.157, 53.366 138.652 C 52.968 135.753, 52.224 134, 51.391 134 C 50.655 134, 45.474 141.762, 39.876 151.250 M 74.017 135.750 C 74.027 136.713, 75.149 146.725, 76.512 158 C 77.875 169.275, 78.992 179.363, 78.995 180.417 C 79.008 185.331, 80.069 179.838, 82.914 160.116 C 84.611 148.355, 86 138.034, 86 137.179 C 86 136.055, 85.201 136.391, 83.110 138.395 C 79.745 141.619, 78.054 140.374, 80.573 136.528 L 82.230 134 78.115 134 C 74.856 134, 74.004 134.364, 74.017 135.750 M 126.792 135.122 C 129.422 137.928, 173.511 176.717, 173.800 176.479 C 173.966 176.343, 169.080 166.955, 162.942 155.616 L 151.784 135 145.642 134.993 C 142.264 134.989, 136.350 134.706, 132.500 134.364 C 126.577 133.839, 125.699 133.955, 126.792 135.122" stroke="none" fill="black" fill-rule="evenodd"/>
</svg>