<svg xmlns="http://www.w3.org/2000/svg" width="200" height="200" viewBox="0 0 200 200" version="1.1">
	<path d="M 56.384 24.559 C 56.782 25.597, 60.909 33.595, 65.554 42.332 C 70.199 51.070, 74 58.410, 74 58.645 C 74 59.541, 69.342 56.570, 65.840 53.439 C 63.136 51.022, 59.085 49.200, 50.340 46.466 C 30.513 40.267, 29.573 40.027, 28.684 40.916 C 27.490 42.110, 27.595 42.153, 45.544 47.845 C 56.978 51.471, 62.255 53.643, 63.910 55.405 C 65.188 56.764, 68.610 59.121, 71.516 60.643 C 76.462 63.233, 77.149 64.080, 82.306 73.954 L 87.814 84.500 66.910 100.500 C 55.413 109.300, 46.005 116.811, 46.003 117.191 C 45.995 119.117, 49.413 118.326, 70.322 111.568 C 82.795 107.537, 92.998 104.523, 92.996 104.869 C 92.994 105.216, 88.189 111.512, 82.319 118.859 L 71.645 132.218 66.072 131.634 C 63.008 131.313, 52.963 130.511, 43.750 129.853 C 33.196 129.099, 26.996 128.257, 26.989 127.578 C 26.984 126.985, 29.314 116.741, 32.169 104.813 L 37.359 83.127 30.587 75.561 C 26.863 71.400, 23.382 68.264, 22.852 68.591 C 21.896 69.182, 22.762 70.429, 30.399 79.459 L 34.297 84.069 28.745 107.284 C 25.692 120.053, 23.295 130.607, 23.419 130.738 C 23.542 130.870, 33.511 131.728, 45.572 132.646 C 57.632 133.565, 67.804 134.582, 68.175 134.908 C 68.547 135.234, 67.872 136.706, 66.675 138.180 C 64.750 140.552, 62.721 141.212, 49 143.931 C 40.475 145.620, 32.437 147.248, 31.137 147.549 L 28.775 148.095 29.512 165.297 C 29.918 174.759, 30.556 183.329, 30.931 184.341 C 31.471 185.803, 35.197 181.724, 48.973 164.591 C 58.521 152.716, 67.046 142.994, 67.917 142.986 C 68.788 142.979, 70.513 142.701, 71.750 142.370 L 74 141.767 74 157.883 C 74 166.748, 74.355 174, 74.790 174 C 75.224 174, 80.444 169.950, 86.390 165 C 92.336 160.050, 97.718 156.018, 98.350 156.040 C 98.983 156.062, 109.388 162.561, 121.474 170.483 C 133.560 178.404, 143.606 184.727, 143.799 184.535 C 143.991 184.342, 138.715 174.039, 132.074 161.639 C 125.433 149.239, 120 138.677, 120 138.169 C 120 137.661, 120.595 136.751, 121.323 136.147 C 122.350 135.294, 128.637 140.300, 149.471 158.558 C 173.607 179.710, 178.190 183.248, 178.133 180.680 C 178.123 180.257, 170.552 170.167, 161.308 158.259 C 152.064 146.351, 144.350 136.247, 144.167 135.804 C 143.983 135.362, 150.621 135, 158.917 135 C 167.213 135, 174 134.743, 174 134.429 C 174 134.114, 171.075 128.105, 167.500 121.074 C 163.925 114.044, 161 107.137, 161 105.726 C 161 97.617, 165.707 72.552, 170.126 57.135 C 172.863 47.584, 174.904 39.570, 174.660 39.327 C 174.416 39.083, 158.531 39.857, 139.359 41.047 L 104.500 43.210 81 33.494 C 68.075 28.150, 57.086 23.529, 56.580 23.225 C 56.056 22.910, 55.972 23.484, 56.384 24.559 M 67.075 39.311 C 70.390 45.465, 74.276 52.816, 75.710 55.648 C 78.196 60.558, 78.807 61.032, 88.922 65.917 L 99.528 71.039 104.514 69.358 C 107.495 68.353, 113.521 64.530, 119.500 59.851 C 125 55.547, 129.802 52.020, 130.171 52.013 C 130.539 52.006, 131.102 53.350, 131.421 55 C 133.289 64.673, 134.426 63.260, 121.791 66.966 C 111.469 69.994, 109.728 70.874, 101.500 77.221 C 96.550 81.040, 92.362 84.541, 92.194 85 C 92.026 85.460, 93.323 88.677, 95.076 92.150 L 98.264 98.465 101.928 94.211 L 105.591 89.957 121.841 102.591 C 136.773 114.200, 140.368 118.063, 135.396 117.153 C 134.353 116.962, 126.990 115.050, 119.034 112.903 C 111.077 110.756, 104.437 109, 104.279 109 C 103.972 109, 112.391 125.040, 114.565 128.598 L 115.847 130.696 126.130 128.737 L 136.412 126.778 139.192 129.889 L 141.972 133 155.986 133 C 163.694 133, 170 132.713, 170 132.361 C 170 132.010, 167.230 126.420, 163.844 119.938 L 157.689 108.154 159.877 91.827 C 161.347 80.853, 163.577 70.166, 166.678 59.229 C 169.215 50.280, 171.045 42.712, 170.745 42.412 C 170.445 42.112, 155.315 42.803, 137.123 43.947 L 104.046 46.029 85.773 38.414 C 75.723 34.226, 66.048 30.197, 64.274 29.461 L 61.047 28.122 67.075 39.311 M 123.293 60.323 C 120.429 62.576, 118.215 64.549, 118.373 64.706 C 118.632 64.965, 129.199 62.069, 129.717 61.597 C 129.836 61.488, 129.611 60.236, 129.217 58.813 L 128.500 56.227 123.293 60.323 M 81.183 65.741 C 84.564 72.955, 89.637 82, 90.301 82 C 90.775 82, 93.264 80.335, 95.832 78.300 C 102.133 73.305, 102.854 72.581, 100.813 73.297 C 99.843 73.637, 95.239 71.997, 89.977 69.436 C 84.945 66.986, 80.988 65.324, 81.183 65.741 M 72.219 99.683 C 63.264 106.606, 56.138 112.471, 56.383 112.717 C 56.721 113.054, 94.301 101.328, 95.799 100.417 C 96.274 100.129, 89.630 86.995, 89.035 87.048 C 88.741 87.074, 81.173 92.760, 72.219 99.683 M 102.748 97.449 C 100.422 100.364, 100.163 101.264, 101.074 103.263 C 101.989 105.271, 104.221 106.171, 115.826 109.215 C 123.347 111.188, 129.615 112.694, 129.755 112.563 C 130.055 112.281, 107.442 94.647, 106.287 94.263 C 105.854 94.118, 104.262 95.552, 102.748 97.449 M 85.488 119.117 C 77.943 128.516, 76.069 131.442, 77.131 132.159 C 78.803 133.287, 110.501 132.834, 111.667 131.665 C 112.499 130.831, 102.677 110.894, 100.179 108.347 C 97.346 105.459, 95.173 107.052, 85.488 119.117 M 128.199 130.986 C 122.501 132.336, 123.410 133, 130.956 133 C 137.322 133, 138.087 132.810, 137 131.500 C 135.660 129.885, 133.406 129.753, 128.199 130.986 M 70.703 137.531 C 69.134 139.688, 69.106 140, 70.485 140 C 71.353 140, 72.335 139.292, 72.667 138.426 C 73.092 137.318, 74.004 137.035, 75.741 137.471 C 77.099 137.812, 80.301 137.759, 82.855 137.354 L 87.500 136.616 83.500 135.866 C 75.907 134.441, 72.643 134.866, 70.703 137.531 M 93.506 137.889 L 80.512 140.569 85.006 143.636 C 87.478 145.324, 91.385 147.884, 93.689 149.327 L 97.879 151.949 106.943 144.385 C 111.929 140.226, 115.755 136.412, 115.445 135.911 C 114.513 134.403, 107.227 135.061, 93.506 137.889 M 128.071 135.750 C 128.135 136.422, 152.637 158.152, 163.294 166.987 L 167.500 170.474 163.940 165.987 C 161.982 163.519, 155.757 155.537, 150.107 148.250 L 139.834 135 133.917 135 C 130.663 135, 128.032 135.338, 128.071 135.750 M 108.319 146.723 L 100.155 153.447 114.828 163.002 C 122.897 168.257, 131.261 173.639, 133.413 174.961 L 137.325 177.364 130.208 163.932 C 118.058 141.002, 117.514 140.017, 116.992 140.008 C 116.712 140.004, 112.809 143.026, 108.319 146.723 M 76.599 155.250 C 76.970 162.537, 77.332 168.583, 77.404 168.684 C 77.643 169.020, 94.494 154.800, 94.794 154.009 C 95.076 153.268, 78.009 142, 76.605 142 C 76.232 142, 76.229 147.963, 76.599 155.250 M 51.500 146.160 C 46.550 147.170, 40.138 148.478, 37.250 149.069 L 32 150.142 32.006 156.821 C 32.009 160.494, 32.299 167.188, 32.650 171.697 L 33.288 179.893 47.271 162.407 C 54.962 152.790, 61.084 144.787, 60.877 144.623 C 60.670 144.459, 56.450 145.151, 51.500 146.160" stroke="none" fill="black" fill-rule="evenodd"/>
</svg>