<svg xmlns="http://www.w3.org/2000/svg" width="200" height="200" viewBox="0 0 200 200" version="1.1">
	<path d="M 38.378 17.404 C 41.470 20.926, 44 24.082, 44 24.417 C 44 24.752, 42.370 24.346, 40.378 23.513 C 38.386 22.681, 36.212 22, 35.547 22 C 34.813 22, 31.729 31.726, 27.698 46.750 L 21.059 71.500 24.862 98 C 28.585 123.949, 28.648 124.874, 27.872 142.500 C 27.436 152.400, 26.941 163.762, 26.771 167.750 C 26.600 171.738, 26.824 175, 27.267 175 C 27.710 175, 38.572 169.888, 51.404 163.641 L 74.735 152.282 69.351 124.891 C 66.390 109.826, 63.706 95.700, 63.388 93.500 C 63.009 90.883, 64.051 83.070, 66.404 70.896 C 68.382 60.664, 70 51.857, 70 51.325 C 70 50.793, 66.850 46.629, 63 42.070 C 59.150 37.512, 56 33.601, 56 33.378 C 56 33.155, 57.688 33.684, 59.750 34.553 C 61.813 35.422, 67.325 37.715, 72 39.647 C 76.675 41.580, 80.857 43.505, 81.294 43.924 C 81.730 44.344, 79.588 53.195, 76.533 63.594 L 70.979 82.500 79.101 111.500 C 83.568 127.450, 87.596 141.208, 88.052 142.074 C 88.508 142.939, 91.526 144.448, 94.758 145.427 L 100.634 147.206 110.524 144.144 C 115.964 142.459, 120.476 141.175, 120.552 141.291 C 121.283 142.408, 125.015 169.319, 124.508 169.825 C 124.137 170.196, 110.130 172.354, 93.380 174.620 C 76.630 176.887, 62.635 179.032, 62.280 179.387 C 61.924 179.743, 62.053 180.385, 62.567 180.815 C 63.080 181.245, 87.575 181.054, 117 180.391 C 146.425 179.728, 172.863 179.143, 175.750 179.092 C 179.374 179.029, 181 178.593, 181 177.686 C 181 176.811, 175.561 175.087, 164.750 172.533 C 155.813 170.422, 147.980 168.201, 147.346 167.597 C 145.726 166.058, 137.755 136.832, 138.714 135.948 C 139.146 135.550, 146.137 133.280, 154.250 130.904 C 162.363 128.528, 168.989 126.340, 168.975 126.042 C 168.962 125.744, 160.174 119.477, 149.448 112.116 C 138.721 104.754, 129.039 97.459, 127.931 95.904 C 126.058 93.273, 120 79.608, 120 78.013 C 120 77.621, 126.300 75.591, 134 73.500 C 141.700 71.409, 148 69.367, 148 68.962 C 148 68.557, 139.563 64.754, 129.250 60.512 C 118.938 56.269, 110.026 52.204, 109.447 51.478 C 108.868 50.751, 107.743 50.234, 106.947 50.328 C 104.879 50.574, 86 42.817, 86 41.721 C 86 40.337, 95.064 24, 95.831 24.002 C 99.956 24.012, 160.267 29.047, 160.893 29.434 C 161.357 29.721, 162.030 31.783, 162.387 34.017 C 162.744 36.251, 165.977 47.562, 169.571 59.153 C 173.165 70.744, 175.969 80.361, 175.803 80.524 C 175.636 80.686, 164.700 72.334, 151.500 61.962 C 129.234 44.468, 125 41.577, 125 43.871 C 125 44.891, 180.130 88.203, 180.701 87.632 C 180.913 87.420, 177.517 75.603, 173.154 61.373 C 168.791 47.143, 164.902 33.556, 164.511 31.180 C 164.120 28.805, 163.283 26.693, 162.650 26.487 C 160.542 25.802, 94.648 21.100, 93.872 21.579 C 93.453 21.838, 90.804 26.314, 87.986 31.525 C 85.169 36.736, 82.745 41, 82.599 41 C 82.454 41, 75.397 38.112, 66.918 34.582 C 51.902 28.332, 51.346 27.992, 45.591 21.574 C 42.341 17.950, 39.950 14.717, 40.276 14.390 C 40.819 13.848, 127.496 18.303, 139.750 19.503 C 143.865 19.906, 145 19.710, 145 18.594 C 145 17.549, 143.075 17.012, 137.750 16.574 C 127.937 15.767, 41.441 11, 36.608 11 L 32.756 11 38.378 17.404 M 30.145 48.213 L 23.922 71.500 27.579 96.500 L 31.236 121.500 30.325 146 C 29.825 159.475, 29.477 170.619, 29.554 170.763 C 29.631 170.908, 39.130 166.482, 50.664 160.927 L 71.634 150.827 65.754 121.163 L 59.874 91.500 63.589 71.392 L 67.305 51.283 58.402 40.741 C 51.033 32.015, 48.639 29.855, 44.500 28.197 C 41.750 27.096, 38.795 25.909, 37.934 25.561 C 36.631 25.034, 35.317 28.857, 30.145 48.213 M 84.685 45.801 C 84.481 46.185, 81.960 54.624, 79.082 64.554 L 73.851 82.607 81.978 111.485 C 86.448 127.367, 90.295 140.669, 90.527 141.044 C 90.759 141.419, 93.013 142.304, 95.536 143.010 C 99.747 144.189, 100.920 144.063, 109.812 141.480 C 115.140 139.931, 119.632 138.571, 119.793 138.456 C 120.047 138.275, 106.885 54.897, 106.503 54.264 C 105.974 53.386, 84.980 45.243, 84.685 45.801 M 112.876 60.660 C 113.932 63.322, 115.589 67.525, 116.560 70 C 117.531 72.475, 118.394 74.604, 118.478 74.732 C 118.599 74.916, 136.642 69.951, 140.396 68.701 C 140.889 68.537, 134.833 65.724, 126.939 62.451 C 119.045 59.178, 112.219 56.347, 111.772 56.160 C 111.324 55.972, 111.821 57.997, 112.876 60.660 M 111.498 68.500 C 112.571 74.843, 113.042 76, 114.553 76 C 115.694 76, 115.567 74.976, 113.902 70.750 C 111.266 64.064, 110.650 63.487, 111.498 68.500 M 115.521 78.966 C 115.069 79.698, 115.622 81.066, 116.879 82.323 C 119.263 84.707, 119.595 83.701, 117.607 80.115 C 116.669 78.423, 116.063 78.089, 115.521 78.966 M 114.360 85.500 C 114.609 86.600, 116.503 98.300, 118.571 111.500 C 120.638 124.700, 122.650 135.872, 123.042 136.327 C 123.758 137.158, 131.762 135.298, 133.350 133.931 C 133.818 133.529, 133.460 130.653, 132.554 127.539 C 130.924 121.930, 130.932 121.828, 133.469 116.286 C 136.381 109.926, 136.257 109.507, 129.371 102.403 C 127.290 100.256, 124.381 96.700, 122.907 94.500 C 118.726 88.262, 113.816 83.090, 114.360 85.500 M 137.878 108.309 C 139.070 109.783, 138.897 110.840, 136.597 116.144 C 133.983 122.172, 133.964 122.366, 135.513 127.691 C 136.753 131.957, 137.449 133.002, 138.794 132.613 C 154.340 128.108, 161.989 125.468, 161.732 124.695 C 161.557 124.172, 155.809 119.888, 148.957 115.175 C 142.106 110.462, 137.120 107.372, 137.878 108.309 M 127.773 138.753 C 123.824 140.076, 123.125 140.679, 123.525 142.418 C 124.346 145.985, 128 169.414, 128 171.112 C 128 172.439, 124.857 173.176, 110.250 175.272 L 92.500 177.821 130 177.279 C 150.625 176.981, 167.631 176.628, 167.790 176.495 C 167.950 176.362, 162.775 174.935, 156.290 173.324 L 144.500 170.395 139.902 153.947 C 136.880 143.137, 134.824 137.443, 133.902 137.334 C 133.131 137.243, 130.373 137.882, 127.773 138.753" stroke="none" fill="black" fill-rule="evenodd"/>
</svg>