<svg xmlns="http://www.w3.org/2000/svg" width="200" height="200" viewBox="0 0 200 200" version="1.1">
	<path d="M 42.644 16.807 C 41.824 20.488, 39.014 33.400, 36.399 45.500 L 31.646 67.500 25.461 74 L 19.276 80.500 24.587 113 C 30.153 147.069, 32.784 161.033, 34.011 163.017 C 34.562 163.909, 39.322 163.416, 53.122 161.039 C 63.230 159.299, 72.963 157.628, 74.750 157.326 C 76.537 157.024, 78 156.350, 78 155.829 C 78 155.307, 74.625 143.684, 70.500 130 C 66.375 116.316, 63 104.691, 63 104.165 C 63 103.572, 64.419 103.545, 66.750 104.093 C 68.813 104.579, 81.941 106.335, 95.924 107.995 C 118.481 110.673, 121.863 111.311, 125.924 113.653 C 128.441 115.105, 130.631 116.395, 130.791 116.521 C 131.319 116.934, 115.806 156.474, 114.640 157.685 C 114.013 158.337, 103.375 162.776, 91 167.551 C 78.625 172.325, 67.938 176.453, 67.250 176.723 C 66.563 176.993, 66 177.769, 66 178.446 C 66 179.666, 100.748 181, 132.534 181 L 144.743 181 155.621 175.847 C 161.605 173.012, 166.629 170.596, 166.786 170.477 C 166.944 170.358, 164.139 163.516, 160.554 155.273 L 154.035 140.285 156.128 134.087 C 157.279 130.677, 158.059 127.759, 157.861 127.601 C 157.662 127.444, 152.438 124.657, 146.251 121.407 C 134.754 115.370, 132.475 113, 138.166 113 C 140.496 113, 147.365 109.263, 164.166 98.854 C 176.725 91.073, 187 84.430, 187 84.092 C 187 83.753, 181.600 74.730, 175 64.042 C 168.318 53.220, 162.968 43.476, 162.928 42.054 C 162.881 40.414, 161.609 38.463, 159.374 36.604 C 154.798 32.799, 153.162 34.303, 156.513 39.234 C 157.881 41.247, 159 43.364, 159 43.938 C 159 44.949, 148.228 73.105, 147.602 73.732 C 146.815 74.519, 129.952 76.997, 125.376 76.999 C 121.085 77, 118.808 77.810, 111.376 81.982 C 106.494 84.722, 102.233 86.972, 101.906 86.982 C 101.024 87.009, 116.055 43.683, 117.372 42.404 C 117.992 41.801, 129.860 37.301, 143.744 32.404 C 158.489 27.203, 168.990 22.980, 168.994 22.250 C 168.997 21.563, 167.988 21.019, 166.750 21.043 C 162.301 21.128, 93.005 30.661, 92.394 31.273 C 92.050 31.616, 92.236 33.238, 92.807 34.876 C 93.930 38.098, 95.654 36.318, 63.745 64.881 L 59.968 68.261 60.465 59.881 C 60.739 55.271, 61.206 44.638, 61.504 36.250 C 61.957 23.514, 61.813 21, 60.632 21 C 59.484 21, 59.101 24.541, 58.604 39.750 C 58.267 50.063, 57.754 62.031, 57.464 66.347 L 56.937 74.195 59.267 72.347 C 62.690 69.634, 97 38.801, 97 38.439 C 97 38.269, 96.561 36.976, 96.025 35.565 C 95.488 34.154, 95.276 33, 95.552 33 C 95.829 33, 108.234 31.401, 123.120 29.448 C 138.007 27.494, 150.631 26.044, 151.175 26.225 C 151.718 26.406, 144.021 29.444, 134.070 32.975 C 124.120 36.506, 115.609 39.644, 115.158 39.948 C 114.176 40.609, 96.541 91.880, 97.107 92.429 C 97.323 92.638, 102.630 89.960, 108.901 86.476 C 119.264 80.719, 120.994 80.084, 127.901 79.500 C 132.080 79.146, 137.750 78.479, 140.500 78.017 C 143.250 77.555, 145.654 77.328, 145.841 77.513 C 147.541 79.187, 142.665 83.428, 127.884 93.134 C 116.617 100.533, 111.072 104.745, 111.417 105.644 C 111.703 106.390, 111.614 106.998, 111.219 106.995 C 107.809 106.974, 74.708 102.658, 68.201 101.387 C 63.636 100.495, 59.678 99.989, 59.404 100.262 C 59.131 100.536, 62.485 112.626, 66.857 127.130 C 71.229 141.633, 74.513 153.790, 74.153 154.144 C 72.802 155.478, 36.581 160.941, 35.943 159.908 C 35.146 158.618, 32.123 141.857, 26.580 108 L 22.242 81.500 28.084 75.500 L 33.927 69.500 39.399 44.500 C 42.409 30.750, 45.296 17.615, 45.816 15.311 C 46.542 12.091, 46.456 11.005, 45.447 10.618 C 44.522 10.263, 43.694 12.090, 42.644 16.807 M 158.191 54.661 C 156.528 58.973, 154.219 64.906, 153.060 67.847 L 150.953 73.194 156.070 72.490 C 163.188 71.511, 162.462 73.585, 153.538 79.717 L 146.576 84.500 142.284 95.500 C 136.358 110.684, 136.516 110, 138.939 110 C 141.200 110, 183 84.432, 183 83.049 C 183 82.583, 178.877 75.519, 173.837 67.351 C 168.797 59.183, 163.895 51.223, 162.944 49.661 L 161.214 46.822 158.191 54.661 M 149.459 77.067 C 148.370 78.829, 149.518 79.076, 151.573 77.521 C 153.265 76.241, 153.294 76.060, 151.809 76.032 C 150.879 76.014, 149.821 76.480, 149.459 77.067 M 129 95.628 C 122.125 100.237, 116.371 104.395, 116.212 104.867 C 115.763 106.209, 121.330 108.139, 127.879 108.911 L 133.841 109.614 138.079 98.799 C 140.410 92.851, 142.133 87.818, 141.908 87.616 C 141.684 87.414, 135.875 91.020, 129 95.628 M 129 112.393 C 129 113.342, 131.993 113.820, 132.527 112.956 C 132.852 112.430, 132.191 112, 131.059 112 C 129.927 112, 129 112.177, 129 112.393 M 132.060 121.750 C 131.322 123.813, 127.635 133.375, 123.867 143 L 117.015 160.500 96.087 168.500 L 75.158 176.500 82.829 177.145 C 87.048 177.500, 102.720 177.864, 117.655 177.953 L 144.811 178.115 153.905 173.548 C 158.907 171.035, 163 168.714, 163 168.388 C 163 168.063, 160.305 161.599, 157.010 154.024 L 151.021 140.252 152.939 134.676 L 154.858 129.101 144.464 123.550 C 138.747 120.498, 133.920 118, 133.736 118 C 133.552 118, 132.798 119.688, 132.060 121.750" stroke="none" fill="black" fill-rule="evenodd"/>
</svg>