<svg xmlns="http://www.w3.org/2000/svg" width="200" height="200" viewBox="0 0 200 200" version="1.1">
	<path d="M 76.012 21.645 C 65.844 25.182, 57.217 28.396, 56.843 28.788 C 56.468 29.180, 51.907 37.375, 46.708 47.001 C 39.668 60.035, 36.595 66.916, 34.670 73.960 C 33.248 79.162, 32.239 83.572, 32.427 83.760 C 32.680 84.013, 68.292 59.574, 70.933 57.334 C 71.172 57.132, 70.937 56.537, 70.413 56.013 C 69.808 55.408, 63.686 59.108, 53.668 66.134 C 44.983 72.226, 37.638 76.971, 37.346 76.679 C 35.997 75.331, 40.722 64.010, 49.290 48.060 L 58.659 30.620 77.911 23.980 L 97.162 17.340 105.831 18.777 C 110.599 19.567, 114.825 20.513, 115.222 20.879 C 116.157 21.740, 112.831 63.014, 111.875 62.422 C 111.476 62.176, 106.116 52.731, 99.963 41.432 C 93.810 30.134, 88.649 21.027, 88.493 21.195 C 88.338 21.363, 85.213 28.203, 81.551 36.396 C 77.070 46.417, 75.221 51.621, 75.900 52.300 C 76.852 53.252, 79.497 48.228, 86.192 32.750 C 87.322 30.137, 88.534 28, 88.885 28 C 89.236 28, 95.048 38.088, 101.801 50.419 L 114.078 72.837 106.690 94.055 L 99.302 115.272 87.507 100.136 C 77.120 86.806, 75.243 84.873, 71.782 83.941 C 69.620 83.359, 67.419 83.027, 66.890 83.203 C 66.361 83.380, 70.671 93.117, 76.469 104.842 C 82.920 117.890, 86.717 126.671, 86.255 127.477 C 85.840 128.201, 80.748 134.352, 74.941 141.147 L 64.382 153.500 43.191 164.916 C 31.536 171.195, 22 176.618, 22 176.968 C 22 177.776, 30.947 181.012, 33.162 181.005 C 36.732 180.994, 78.131 163.420, 92.358 155.875 L 107.385 147.907 123.453 163.953 C 132.291 172.779, 140.192 180.001, 141.011 180.003 C 142.507 180.006, 176.224 171.969, 176.816 171.468 C 176.990 171.321, 175.407 166.780, 173.299 161.376 L 169.466 151.552 146.983 144.615 C 134.617 140.800, 124.359 137.573, 124.187 137.443 C 124.015 137.313, 125.521 130.748, 127.535 122.854 C 130.768 110.180, 132.249 106.471, 140.187 91.173 C 145.133 81.643, 149.026 73.736, 148.839 73.602 C 148.653 73.468, 141.300 71.412, 132.500 69.032 C 123.700 66.653, 116.206 64.435, 115.846 64.103 C 115.082 63.398, 118.133 23.987, 118.949 24.026 C 119.252 24.040, 124.096 30.989, 129.714 39.467 C 139.892 54.829, 139.982 54.928, 155.591 67.981 C 164.205 75.185, 171.403 80.930, 171.585 80.748 C 171.768 80.565, 171.598 70.535, 171.209 58.458 L 170.500 36.500 150.322 28.354 C 139.223 23.873, 127.849 19.892, 125.046 19.506 C 122.242 19.121, 119.244 18.101, 118.383 17.240 C 117.359 16.217, 116.591 16.041, 116.159 16.731 C 115.703 17.462, 113.349 17.370, 108.500 16.430 C 104.650 15.684, 99.925 15.105, 98 15.144 C 96.075 15.182, 86.180 18.108, 76.012 21.645 M 122.122 22.744 C 122.330 23.302, 126.962 30.450, 132.415 38.629 C 141.903 52.860, 142.888 53.964, 155.299 64.282 C 162.433 70.212, 168.465 74.869, 168.703 74.630 C 168.941 74.392, 168.817 66.110, 168.427 56.227 L 167.718 38.257 148.609 30.679 C 129.794 23.218, 121.355 20.690, 122.122 22.744 M 115.467 69.935 C 116.930 72.765, 116.687 73.721, 108.748 96.435 C 104.219 109.396, 100.278 120, 99.991 120 C 99.704 120, 93.707 112.575, 86.666 103.500 C 68.098 79.572, 67.478 81.015, 83.006 112.012 C 86.923 119.830, 89.922 126.738, 89.671 127.363 C 89.420 127.989, 84.067 134.582, 77.776 142.016 L 66.336 155.531 46.971 165.963 C 28.046 176.158, 27.672 176.422, 30.474 177.568 C 33.083 178.634, 35.297 177.947, 54.997 169.957 C 66.907 165.126, 83.539 157.491, 91.956 152.991 L 107.260 144.808 114.880 152.151 C 119.071 156.189, 126.658 163.531, 131.740 168.466 L 140.979 177.440 156.740 173.582 C 165.408 171.460, 172.666 169.582, 172.869 169.410 C 173.072 169.237, 171.998 165.696, 170.482 161.540 L 167.727 153.985 153.613 149.562 C 145.851 147.129, 135.344 143.870, 130.265 142.319 C 125.186 140.769, 121.023 139.036, 121.015 138.468 C 121.007 137.900, 122.760 130.590, 124.910 122.223 C 128.343 108.868, 129.815 105.103, 136.962 91.390 C 141.440 82.799, 144.968 75.649, 144.802 75.500 C 144.382 75.124, 115.600 67, 114.689 67 C 114.282 67, 114.632 68.321, 115.467 69.935" stroke="none" fill="black" fill-rule="evenodd"/>
</svg>