<svg xmlns="http://www.w3.org/2000/svg" width="200" height="200" viewBox="0 0 200 200" version="1.1">
	<path d="M 128.502 16.748 C 111.711 21.790, 99.710 24.515, 68.185 30.440 C 46.539 34.509, 28.588 38.078, 28.294 38.372 C 27.366 39.301, 30.862 70.466, 35.102 99.053 L 39.189 126.607 32.613 151.489 C 28.997 165.174, 26.148 176.482, 26.284 176.617 C 26.419 176.753, 34.848 169.418, 45.015 160.318 C 55.182 151.218, 68.568 139.273, 74.761 133.774 L 86.023 123.776 90.497 124.447 L 94.972 125.118 92.216 130.570 C 89.778 135.391, 86.803 138.173, 66.480 154.637 C 45.861 171.339, 40.946 175.994, 44.690 175.270 C 45.344 175.144, 53.444 170.163, 62.690 164.203 C 71.935 158.243, 80.021 153.058, 80.657 152.682 C 81.430 152.224, 81.640 152.660, 81.290 153.999 C 80.346 157.610, 83.354 156.078, 87.250 150.962 C 91.021 146.011, 91.824 144, 90.031 144 C 89.499 144, 89.322 143.325, 89.638 142.500 C 89.955 141.675, 90.526 141, 90.908 141 C 91.290 141, 97.653 144.789, 105.050 149.420 L 118.498 157.841 123.499 152.271 C 130.810 144.130, 130.726 144.634, 125.919 137.675 C 123.574 134.279, 121.500 131.305, 121.311 131.067 C 121.121 130.828, 120.517 131.083, 119.968 131.632 C 119.303 132.297, 120.329 134.530, 123.040 138.316 L 127.110 144.001 122.805 149.007 C 120.200 152.036, 117.946 153.803, 117.098 153.480 C 114.846 152.622, 93.021 138.843, 92.449 137.917 C 92.043 137.260, 96.180 127.697, 97.529 126.175 C 97.960 125.688, 151.390 136.147, 152.186 136.874 C 152.563 137.218, 149.975 149.139, 146.436 163.365 C 142.896 177.591, 140 189.886, 140 190.688 C 140 191.490, 140.637 192.001, 141.416 191.823 C 143.565 191.333, 187.289 136.167, 186.658 134.742 C 186.356 134.059, 178.860 125.175, 170 115 C 159.856 103.351, 149.825 90.483, 142.909 80.250 C 133.668 66.577, 131.534 64, 129.449 64 L 126.971 64 129.978 58.044 L 132.984 52.088 140.242 56.395 C 144.234 58.764, 152.886 63.895, 159.469 67.798 C 166.052 71.702, 171.571 74.762, 171.734 74.599 C 171.897 74.436, 167.764 62.339, 162.549 47.716 C 157.334 33.093, 152.256 18.727, 151.265 15.791 L 149.463 10.452 128.502 16.748 M 135.496 27.165 C 128.898 34.406, 123.176 40.867, 122.780 41.522 C 122.318 42.288, 123.772 43.647, 126.841 45.317 L 131.623 47.920 134.456 42.210 C 138.939 33.174, 147.946 14, 147.708 14 C 147.589 14, 142.094 19.924, 135.496 27.165 M 125 20.663 C 114.960 23.769, 98.359 27.450, 71.027 32.631 C 49.316 36.747, 31.376 40.290, 31.160 40.506 C 30.374 41.293, 34.264 75.146, 38.090 100.799 L 42.011 127.099 36.484 147.694 C 33.444 159.022, 31.079 168.409, 31.228 168.555 C 31.378 168.701, 43.593 157.996, 58.374 144.766 L 85.248 120.710 90.723 121.703 L 96.199 122.695 99.455 115.598 C 101.246 111.694, 102.606 108.367, 102.477 108.204 C 102.348 108.042, 97.257 110.629, 91.165 113.954 C 85.072 117.279, 79.810 120, 79.472 120 C 78.893 120, 79.407 113.332, 80.655 104.653 L 81.209 100.805 69.933 101.139 C 62.143 101.370, 58.541 101.123, 58.279 100.338 C 58.021 99.562, 61.523 98.977, 69.364 98.487 C 82.058 97.694, 81.956 97.763, 81.986 90.038 L 82 86.575 77.023 91.477 C 72.062 96.364, 69.337 97.113, 72.278 92.781 C 75.654 87.810, 85.756 76.089, 86.243 76.577 C 86.528 76.862, 88.851 74.711, 91.405 71.798 L 96.047 66.500 93.274 65.868 C 91.748 65.521, 83.525 65.176, 75 65.103 C 60.185 64.975, 55.286 64.165, 57.508 62.211 C 58.054 61.731, 65.700 59.170, 74.500 56.519 C 90.078 51.826, 90.779 51.496, 101.073 43.984 L 111.645 36.269 115.573 38.587 L 119.500 40.904 130.807 28.452 C 137.027 21.603, 141.527 16.040, 140.807 16.088 C 140.088 16.137, 132.975 18.196, 125 20.663 M 141.308 34.250 C 137.353 42.610, 134.203 49.535, 134.308 49.639 C 135.168 50.487, 166.528 68.805, 166.746 68.587 C 167.176 68.157, 149.576 19.012, 149 19.032 C 148.725 19.042, 145.264 25.890, 141.308 34.250 M 101.500 46.985 C 93.234 53.282, 91.440 54.170, 79.500 57.872 C 67.818 61.494, 66.966 61.907, 71.093 61.951 C 73.619 61.978, 81.044 62.271, 87.593 62.603 L 99.500 63.206 108 53.587 C 112.675 48.297, 116.624 43.603, 116.776 43.157 C 117.042 42.374, 112.640 39.932, 111.203 40.065 C 110.816 40.101, 106.450 43.215, 101.500 46.985 M 111.110 54 L 102.856 63 106.678 63.007 C 108.780 63.011, 113.500 63.298, 117.167 63.644 L 123.833 64.274 126.917 58.165 C 128.612 54.806, 130 51.637, 130 51.124 C 130 50.149, 121.804 45, 120.253 45 C 119.764 45, 115.649 49.050, 111.110 54 M 92.574 74.513 C 86.026 81.873, 84.999 83.532, 84.989 86.763 C 84.983 88.818, 84.699 92.188, 84.358 94.250 L 83.738 98 91.730 98 C 96.125 98, 101.696 97.724, 104.110 97.386 L 108.500 96.773 115.250 82.618 C 118.963 74.833, 122 67.909, 122 67.232 C 122 66.331, 119.063 66, 111.074 66 L 100.148 66 92.574 74.513 M 118.743 81.298 C 115.027 89.109, 111.989 95.808, 111.993 96.184 C 111.997 96.560, 113.203 97.010, 114.673 97.184 C 119.032 97.700, 118.363 99.374, 112.539 102.524 C 107.411 105.298, 106.805 106.038, 103.133 113.995 C 100.975 118.673, 99.499 122.779, 99.854 123.120 C 100.209 123.462, 112.987 126.137, 128.250 129.065 C 143.512 131.994, 156 134.697, 156 135.072 C 156 135.447, 153.318 146.703, 150.041 160.084 C 146.763 173.466, 144.208 184.542, 144.364 184.697 C 144.636 184.970, 181.782 138.898, 183.197 136.532 C 183.612 135.839, 177.117 127.461, 167.197 115.891 C 157.998 105.162, 146.032 89.812, 140.551 81.708 C 127.359 62.205, 127.823 62.214, 118.743 81.298 M 89.757 100.739 C 83.387 101.139, 83.538 100.935, 82.675 110.313 C 82.150 116.010, 81.294 116.133, 95.642 108.443 C 101.219 105.453, 106.043 102.331, 106.360 101.504 C 106.964 99.930, 104.468 99.815, 89.757 100.739 M 77 149.594 C 63.727 160.193, 63.727 160.355, 77 151.728 C 81.125 149.047, 85.077 145.761, 85.782 144.427 C 86.487 143.092, 86.937 142.002, 86.782 142.004 C 86.627 142.006, 82.225 145.422, 77 149.594" stroke="none" fill="black" fill-rule="evenodd"/>
</svg>