<svg xmlns="http://www.w3.org/2000/svg" width="200" height="200" viewBox="0 0 200 200" version="1.1">
	<path d="M 91.753 33.609 C 82.476 46.668, 74.793 56.583, 74.527 55.841 C 74.264 55.103, 72.420 46.850, 70.429 37.500 C 68.439 28.150, 66.627 20.311, 66.402 20.079 C 66.176 19.848, 64.981 20.546, 63.746 21.631 C 56.967 27.583, 44.245 38.613, 42.613 39.952 C 40.582 41.619, 40.582 41.336, 42.615 27.750 C 43.044 24.882, 42.834 24, 41.725 24 C 40.630 24, 39.889 26.872, 38.700 35.729 C 37.834 42.180, 37.234 47.567, 37.367 47.700 C 37.500 47.833, 43.581 42.739, 50.880 36.380 C 58.179 30.021, 64.349 25.016, 64.591 25.258 C 64.833 25.500, 66.825 33.978, 69.019 44.099 C 71.212 54.220, 73.123 62.856, 73.267 63.292 C 73.410 63.727, 81.172 53.303, 90.514 40.126 C 99.856 26.949, 107.678 16.346, 107.896 16.563 C 108.113 16.780, 110.175 24.955, 112.478 34.729 C 115.574 47.869, 117.035 52.449, 118.083 52.303 C 118.862 52.194, 131.575 49.569, 146.333 46.469 C 161.091 43.369, 173.293 40.983, 173.447 41.166 C 173.602 41.350, 174.724 51.850, 175.940 64.500 L 178.151 87.500 175.659 121.334 C 174.288 139.942, 173.016 155.304, 172.833 155.472 C 171.375 156.805, 129.660 176.993, 129.237 176.570 C 128.936 176.269, 129.435 171.535, 130.346 166.050 C 131.819 157.178, 133.231 153.393, 143.121 131.788 C 149.236 118.430, 155.040 105.654, 156.020 103.399 L 157.801 99.298 150.941 97.825 L 144.080 96.352 122.101 126.426 C 110.013 142.967, 99.523 157.308, 98.792 158.295 C 97.556 159.961, 97.195 159.980, 93.771 158.549 L 90.080 157.007 108.247 126.754 L 126.413 96.502 128.678 81.001 C 129.924 72.475, 130.956 64.938, 130.972 64.250 C 131.070 59.900, 126.103 66.314, 109.483 92 C 99.162 107.950, 90.605 121, 90.465 121 C 90.326 121, 90.623 119.312, 91.124 117.250 C 94.438 103.621, 103.842 62.508, 103.682 62.349 C 103.441 62.108, 68.719 76.948, 68.120 77.547 C 67.882 77.785, 69.124 80.289, 70.879 83.112 L 74.070 88.245 71.581 106.390 C 70.212 116.370, 66.597 137.968, 63.546 154.386 C 60.496 170.803, 57.980 184.520, 57.955 184.868 C 57.930 185.216, 53.731 175.126, 48.625 162.446 C 43.240 149.074, 37.652 136.894, 35.322 133.446 C 33.112 130.176, 30.160 125.674, 28.761 123.443 L 26.218 119.386 36.457 93.443 C 42.088 79.174, 46.538 67.311, 46.345 67.080 C 46.151 66.849, 39.441 69.887, 31.432 73.830 C 23.423 77.774, 16.765 81, 16.635 81 C 16.506 81, 17.645 68.738, 19.167 53.750 C 22.392 21.987, 22.391 22, 20.721 22 C 19.775 22, 18.632 30.150, 16.340 53.250 C 14.634 70.438, 13.424 84.702, 13.651 84.949 C 13.878 85.196, 17.087 83.894, 20.782 82.056 C 24.477 80.218, 30.764 77.214, 34.754 75.381 L 42.007 72.047 40.669 75.274 C 36.006 86.511, 23.667 118.578, 23.667 119.455 C 23.667 120.038, 26.851 125.461, 30.743 131.507 C 36.617 140.631, 39.571 146.957, 48.118 168.709 C 53.781 183.124, 58.526 194.808, 58.660 194.673 C 59.412 193.921, 72.292 121.634, 74.451 106.054 L 77.007 87.609 74.503 83.826 C 73.127 81.745, 72 79.689, 72 79.257 C 72 78.505, 99.068 66.735, 99.593 67.260 C 99.733 67.400, 96.642 81.333, 92.724 98.224 C 88.806 115.114, 85.885 129.218, 86.233 129.567 C 86.582 129.915, 87.288 129.940, 87.803 129.622 C 88.318 129.304, 97.194 115.979, 107.527 100.012 C 117.860 84.045, 126.498 71.164, 126.722 71.389 C 126.946 71.613, 126.369 77.130, 125.439 83.648 L 123.747 95.500 105.374 126.158 C 95.268 143.019, 87 157.247, 87 157.774 C 87 158.645, 96.200 163, 98.038 163 C 98.462 163, 109.037 148.937, 121.538 131.750 C 134.039 114.563, 144.545 100.230, 144.884 99.899 C 145.223 99.569, 147.401 99.794, 149.724 100.399 L 153.949 101.500 141.573 128.573 C 129.439 155.118, 129.157 155.895, 127.115 168.506 C 125.970 175.579, 125.183 181.516, 125.366 181.700 C 125.982 182.315, 175.171 157.719, 175.559 156.602 C 175.769 155.996, 177.076 139.887, 178.463 120.804 L 180.985 86.107 178.523 62.417 C 177.168 49.388, 175.812 38.478, 175.508 38.174 C 175.204 37.870, 163.603 40.044, 149.728 43.004 C 135.852 45.963, 123.157 48.411, 121.515 48.443 L 118.530 48.500 114.030 29.250 C 111.555 18.662, 109.298 10.008, 109.015 10.018 C 108.732 10.028, 100.964 20.644, 91.753 33.609" stroke="none" fill="black" fill-rule="evenodd"/>
</svg>