<svg xmlns="http://www.w3.org/2000/svg" width="200" height="200" viewBox="0 0 200 200" version="1.1">
	<path d="M 145.509 24.981 C 143.927 28.291, 142.574 31, 142.503 31 C 142.432 31, 132.278 33.038, 119.937 35.529 L 97.500 40.059 72 39.952 C 57.975 39.894, 42.675 40.327, 38 40.916 C 33.325 41.504, 28.938 41.988, 28.250 41.992 C 27.563 41.997, 27 42.731, 27 43.625 C 27 44.927, 27.646 45.119, 30.250 44.590 C 32.038 44.227, 39.125 43.659, 46 43.327 L 58.500 42.723 72 53.974 C 79.425 60.162, 85.636 65.582, 85.802 66.019 C 86.039 66.641, 70.646 98.537, 69.496 99.808 C 69.342 99.978, 62.792 100.878, 54.941 101.808 C 40.866 103.476, 36.680 105.086, 43.086 106.367 C 44.826 106.715, 54.806 107, 65.263 107 L 84.276 107 83.609 125.250 C 83.242 135.287, 82.668 146.577, 82.333 150.338 L 81.724 157.175 69.101 165.584 L 56.477 173.993 37.032 175.997 C 26.337 177.099, 17.455 178, 17.293 178 C 17.132 178, 17 178.675, 17 179.500 C 17 181.145, 32.794 181.492, 90 181.105 C 105.125 181.003, 128.525 181.582, 142 182.392 C 155.475 183.202, 166.775 183.558, 167.111 183.183 C 167.731 182.490, 173 161.852, 173 160.116 C 173 159.596, 163.004 163.182, 150.788 168.085 C 138.571 172.988, 128.331 177, 128.032 177 C 127.733 177, 123.694 170.162, 119.057 161.804 L 110.626 146.609 112.395 136.054 C 113.367 130.250, 114.602 123.416, 115.139 120.868 C 116.110 116.259, 116.131 116.240, 119.440 116.986 C 121.268 117.399, 123.174 117.989, 123.674 118.299 C 124.175 118.608, 129.065 128.790, 134.542 140.925 C 140.019 153.060, 144.725 162.989, 145 162.989 C 145.764 162.989, 159.540 122.207, 158.969 121.636 C 158.694 121.360, 151.289 119.865, 142.513 118.312 L 126.557 115.489 124.295 111.494 C 123.051 109.297, 122.025 107.093, 122.016 106.595 C 122.007 106.064, 132.124 105.930, 146.500 106.269 C 179.270 107.043, 179.264 106.982, 145.227 94.522 C 138.052 91.895, 135.224 90.420, 135.849 89.630 C 160.938 57.965, 175.998 38.671, 175.779 38.476 C 175.626 38.340, 168.615 38.679, 160.199 39.230 C 151.784 39.781, 144.633 39.966, 144.307 39.641 C 143.982 39.315, 145.107 35.326, 146.806 30.775 C 150.589 20.648, 150.772 19.852, 149.443 19.356 C 148.862 19.139, 147.091 21.671, 145.509 24.981 M 121.500 38.181 C 104.613 41.715, 100.334 42.231, 83.027 42.828 L 63.554 43.500 76.702 54.410 L 89.850 65.319 80.453 84.094 C 71.346 102.288, 70.954 102.880, 67.778 103.224 C 65.975 103.419, 69.608 103.959, 75.852 104.425 L 87.204 105.271 86.478 122.885 C 86.079 132.573, 85.470 144.550, 85.126 149.500 L 84.500 158.500 71 167.698 C 60.757 174.676, 56.656 176.925, 54 177.018 C 52.075 177.085, 49.600 177.541, 48.500 178.031 C 47.298 178.566, 62.164 178.837, 85.747 178.711 C 107.333 178.595, 124.995 178.408, 124.997 178.296 C 124.999 178.184, 121.103 171.062, 116.340 162.469 L 107.680 146.846 110.041 133.673 C 111.339 126.428, 112.481 118.925, 112.579 117 C 112.775 113.128, 115.115 103.784, 116.085 103 C 116.425 102.725, 117.631 100.025, 118.765 97 C 119.900 93.975, 121.118 90.768, 121.474 89.873 C 121.989 88.576, 120.618 87.699, 114.709 85.544 L 107.299 82.841 112.351 62.536 L 117.404 42.231 122.452 41.624 C 125.228 41.290, 130.324 41.013, 133.775 41.009 C 139.587 41.001, 140.121 40.811, 141.025 38.435 C 142.193 35.363, 142.266 33.964, 141.250 34.102 C 140.838 34.159, 131.950 35.994, 121.500 38.181 M 155.534 42.194 C 148.402 42.692, 142.419 43.248, 142.238 43.429 C 142.056 43.611, 138.268 53.338, 133.819 65.045 C 126.171 85.171, 125.830 86.403, 127.557 87.665 C 128.561 88.399, 130.161 89, 131.112 89 C 132.176 89, 140.004 79.954, 151.421 65.533 C 161.640 52.626, 170 41.826, 170 41.533 C 170 41.240, 169.662 41.065, 169.250 41.144 C 168.838 41.223, 162.665 41.696, 155.534 42.194 M 128.266 43.744 L 120.033 44.080 118.552 49.290 C 114.332 64.142, 110.813 80.211, 111.611 80.989 C 112.100 81.467, 114.877 82.788, 117.782 83.927 C 121.754 85.483, 123.173 85.686, 123.504 84.748 C 123.746 84.062, 127.331 74.565, 131.472 63.644 C 135.612 52.723, 139 43.611, 139 43.394 C 139 43.177, 138.438 43.092, 137.750 43.204 C 137.063 43.315, 132.795 43.559, 128.266 43.744 M 122.050 96.083 C 118.757 105.115, 120.566 105.309, 126.825 96.595 C 129.928 92.273, 129.977 92.058, 128.092 91.049 C 124.864 89.322, 124.363 89.739, 122.050 96.083 M 129.546 97.509 C 127.473 100.039, 125.939 102.249, 126.138 102.418 C 126.741 102.933, 161.461 104.128, 160.950 103.617 C 160.689 103.355, 155.081 101.124, 148.488 98.659 C 141.894 96.193, 135.784 93.890, 134.908 93.541 C 133.805 93.102, 132.159 94.320, 129.546 97.509 M 117.657 107.452 C 116.227 111.177, 116.926 113.753, 119.500 114.245 C 122.460 114.811, 122.586 113.758, 120.115 109.120 C 118.648 106.366, 118.192 106.057, 117.657 107.452 M 128.272 120.250 C 132.281 130.570, 144.547 155.767, 145.083 154.783 C 146.132 152.859, 156.084 123.740, 155.771 123.511 C 155.338 123.196, 130.518 119, 129.084 119 C 128.370 119, 128.005 119.563, 128.272 120.250 M 149.511 171.486 L 131.522 178.790 138.011 179.380 C 141.580 179.705, 149.190 180.090, 154.923 180.235 L 165.345 180.500 167.150 173.500 C 169.151 165.738, 169.359 163.956, 168.250 164.091 C 167.838 164.141, 159.405 167.469, 149.511 171.486" stroke="none" fill="black" fill-rule="evenodd"/>
</svg>