<svg xmlns="http://www.w3.org/2000/svg" width="200" height="200" viewBox="0 0 200 200" version="1.1">
	<path d="M 53 8.521 C 53 10.435, 52.630 11.887, 52.178 11.750 C 51.012 11.395, 23 35.978, 22.998 37.359 C 22.997 37.986, 25.288 45.825, 28.089 54.779 L 33.182 71.058 28.638 97.185 L 24.095 123.312 31.687 131.674 L 39.278 140.036 38.889 165.268 C 38.575 185.614, 38.754 190.500, 39.811 190.500 C 40.581 190.500, 47.389 175.963, 56.290 155.312 C 64.633 135.959, 71.538 120.209, 71.635 120.312 C 71.733 120.416, 71.101 126.673, 70.232 134.219 L 68.651 147.938 71.544 150.219 C 101.472 173.819, 102.854 174.754, 108.782 175.418 C 121.923 176.890, 122.235 176.991, 121.735 179.604 C 121.161 182.609, 122.301 182.685, 124.235 179.772 L 125.715 177.544 151.607 180.610 C 165.848 182.296, 177.665 183.546, 177.866 183.389 C 178.067 183.231, 178.773 164.517, 179.436 141.801 L 180.640 100.500 168.820 78.719 C 162.319 66.739, 157 56.458, 157 55.872 C 157 55.287, 159.537 51.917, 162.638 48.385 C 169.140 40.980, 169.896 43.555, 157.001 29.173 L 149.502 20.809 148.706 25.155 C 145.944 40.238, 146.041 39.970, 143.689 39.018 C 142.485 38.531, 129.800 32.957, 115.500 26.632 C 96.211 18.100, 89.417 15.501, 89.177 16.565 C 88.999 17.354, 88.449 18, 87.955 18 C 87.143 18, 60.687 8.287, 55.250 5.992 C 53.166 5.113, 53 5.299, 53 8.521 M 56 9.977 C 56 14.600, 72.653 115.377, 72.901 112.254 C 72.956 111.568, 74.386 99.679, 76.079 85.833 C 78.556 65.585, 79.613 59.763, 81.479 56.080 C 83.038 53.003, 84.530 46.647, 86.027 36.711 C 87.253 28.577, 88.062 21.729, 87.826 21.493 C 86.760 20.426, 56 9.297, 56 9.977 M 40.038 24.922 C 32.634 31.440, 26.421 37.238, 26.231 37.807 C 26.041 38.376, 28.177 46.037, 30.977 54.832 L 36.068 70.822 31.556 96.563 L 27.044 122.304 34.609 130.783 L 42.174 139.263 41.535 161.381 L 40.896 183.500 55.523 150 L 70.149 116.500 62.605 70.500 C 58.456 45.200, 54.710 21.928, 54.281 18.785 L 53.500 13.071 40.038 24.922 M 90.554 25.250 C 90.287 26.488, 89.143 33.540, 88.010 40.923 C 86.664 49.692, 85.250 55.477, 83.932 57.610 C 82.281 60.281, 81.013 68.272, 76.957 101.552 C 74.231 123.924, 72.026 143.415, 72.058 144.864 C 72.106 147.063, 74.761 149.539, 88.070 159.799 L 104.023 172.098 113.061 173.167 C 118.031 173.755, 122.264 174.069, 122.468 173.865 C 122.671 173.662, 124.372 164.668, 126.247 153.878 L 129.656 134.261 113.252 127.411 C 104.229 123.644, 96.662 120.263, 96.436 119.897 C 96.210 119.531, 98.157 117.301, 100.763 114.941 C 103.368 112.581, 109.704 106.620, 114.842 101.693 L 124.184 92.735 122.440 88.867 C 121.481 86.740, 120.427 85.008, 120.098 85.018 C 119.769 85.028, 113.709 90.240, 106.632 96.600 C 98.246 104.137, 93.424 107.824, 92.786 107.186 C 92.149 106.549, 97.995 97.773, 109.571 81.987 C 123.250 63.336, 127.008 57.577, 125.917 56.941 C 125.138 56.487, 121.384 53.855, 117.576 51.093 C 112.494 47.406, 111.075 45.908, 112.242 45.461 C 113.256 45.072, 116.924 47.107, 122.382 51.087 L 130.934 57.323 127.238 62.411 C 125.206 65.210, 119.237 73.350, 113.973 80.500 C 108.709 87.650, 103.999 94.175, 103.506 95 C 102.571 96.563, 115.773 85.183, 117.983 82.521 C 120.056 80.022, 121.482 80.754, 123.788 85.500 C 124.990 87.975, 126.331 90, 126.768 90 C 127.205 90, 130.244 87.291, 133.521 83.979 L 139.478 77.958 142.584 59.979 C 144.832 46.961, 145.355 42, 144.479 42 C 143.814 42, 131.898 37.725, 118 32.500 C 104.102 27.275, 92.350 23, 91.884 23 C 91.419 23, 90.820 24.012, 90.554 25.250 M 151.005 27 C 150.999 27.275, 149.196 37.850, 147 50.500 C 144.804 63.150, 143.005 73.926, 143.003 74.446 C 143.001 74.967, 144.497 73.941, 146.326 72.168 L 149.653 68.944 156.683 100.556 L 163.714 132.168 158.886 137.946 C 156.230 141.124, 154.345 144.011, 154.695 144.362 C 155.046 144.713, 154.815 145, 154.182 145 C 152.843 145, 128.555 173.888, 129.283 174.616 C 130.463 175.796, 175.217 180.588, 175.512 179.567 C 175.681 178.980, 176.273 161.016, 176.827 139.646 L 177.834 100.793 166.933 80.877 C 160.937 69.924, 155.385 59.711, 154.594 58.183 C 153.198 55.482, 153.311 55.222, 158.579 48.998 C 161.560 45.475, 163.979 42.122, 163.954 41.546 C 163.908 40.509, 151.029 26.040, 151.005 27 M 144.718 77.403 C 142.155 79.451, 141.735 80.838, 139.371 95.063 L 136.806 110.500 144.644 125.250 C 148.954 133.363, 152.769 140, 153.120 140 C 153.472 140, 155.318 138.088, 157.224 135.750 L 160.689 131.500 154.594 103.827 C 151.243 88.607, 148.275 75.935, 148 75.667 C 147.725 75.399, 146.248 76.180, 144.718 77.403 M 132.676 88.821 L 127.973 93.596 131.094 99.357 C 132.810 102.526, 134.364 104.969, 134.547 104.786 C 135.142 104.191, 138.228 84.895, 137.798 84.464 C 137.568 84.234, 135.263 86.195, 132.676 88.821 M 113.096 107.028 C 102.067 117.465, 100.904 118.877, 102.596 119.777 C 107.721 122.502, 129.297 131.037, 129.797 130.537 C 130.111 130.223, 131.143 125.601, 132.091 120.266 L 133.814 110.566 131.379 105.762 C 130.040 103.119, 128.170 99.683, 127.222 98.125 L 125.499 95.291 113.096 107.028 M 135.612 117.083 C 134.716 119.880, 132.765 132.098, 133.152 132.485 C 133.827 133.161, 147.140 139, 148.004 139 C 148.781 139, 138.624 118.514, 136.889 116.583 C 136.407 116.046, 135.877 116.254, 135.612 117.083 M 132 136.591 C 132 136.916, 130.622 145.063, 128.938 154.696 C 127.254 164.328, 126.017 172.350, 126.190 172.523 C 126.362 172.696, 129.698 168.936, 133.601 164.168 C 137.505 159.401, 143.006 152.747, 145.825 149.382 L 150.952 143.265 142.188 139.632 C 133.241 135.924, 132 135.553, 132 136.591" stroke="none" fill="black" fill-rule="evenodd"/>
</svg>