<svg xmlns="http://www.w3.org/2000/svg" width="200" height="200" viewBox="0 0 200 200" version="1.1">
	<path d="M 110.595 21.957 C 103.630 34.462, 102.593 35.852, 100.906 34.950 C 99.867 34.394, 92.237 29.677, 83.951 24.469 C 75.665 19.261, 68.497 15, 68.023 15 C 66.788 15, 23.635 30.183, 22.828 30.902 C 22.459 31.231, 24.201 38.700, 26.700 47.500 C 30.644 61.389, 31.397 65.611, 32.409 79.500 L 33.576 95.500 24.845 122.973 C 20.042 138.084, 16.237 150.570, 16.388 150.721 C 16.539 150.873, 23.487 151.917, 31.827 153.042 L 46.991 155.087 67.007 138.293 C 78.015 129.057, 87.355 121.396, 87.761 121.270 C 88.167 121.143, 90.589 124.968, 93.141 129.770 C 97.089 137.195, 98.845 142.643, 104.891 166.206 C 108.801 181.444, 112 194.156, 112 194.456 C 112 194.755, 112.675 195, 113.500 195 C 114.325 195, 115 194.811, 115 194.581 C 115 193.691, 129.058 127.614, 129.273 127.495 C 129.398 127.426, 132.875 125.974, 137 124.267 C 142.714 121.904, 144.574 121.488, 144.812 122.522 C 144.983 123.269, 143.708 135.644, 141.978 150.023 C 140.248 164.402, 139.004 176.337, 139.213 176.546 C 139.422 176.755, 148.521 167.989, 159.433 157.067 L 179.274 137.208 173.064 111.365 C 169.649 97.151, 166.723 85.389, 166.561 85.227 C 166.399 85.065, 160.469 83.831, 153.383 82.485 C 134.300 78.859, 135.566 79.312, 137.268 76.709 C 138.062 75.494, 140.344 71.945, 142.340 68.823 L 145.968 63.145 136.560 57.355 C 131.385 54.170, 127.356 51.233, 127.606 50.828 C 127.856 50.424, 129.368 49.162, 130.966 48.024 L 133.872 45.955 153.114 68.227 C 163.697 80.477, 172.509 90.695, 172.695 90.933 C 172.881 91.172, 173.475 90.925, 174.016 90.384 C 174.659 89.741, 172.760 82.479, 168.515 69.348 L 162.031 49.295 145.766 33.960 C 136.819 25.526, 127.001 16.224, 123.947 13.289 L 118.395 7.953 110.595 21.957 M 112 24.778 C 108.425 31.225, 105.500 36.823, 105.500 37.218 C 105.500 37.614, 109.752 40.604, 114.948 43.863 L 124.397 49.788 128.842 46.394 C 131.287 44.527, 133.659 43, 134.114 43 C 134.568 43, 142.693 51.985, 152.170 62.967 C 161.647 73.948, 169.516 82.817, 169.658 82.675 C 169.801 82.533, 167.585 75.282, 164.736 66.562 L 159.555 50.708 139.690 31.854 C 128.764 21.484, 119.527 13.013, 119.163 13.028 C 118.798 13.043, 115.575 18.331, 112 24.778 M 44.250 25.779 C 32.773 29.878, 26 32.800, 26 33.652 C 26 34.397, 27.845 41.643, 30.101 49.753 C 33.572 62.235, 34.364 66.905, 35.255 80.156 L 36.308 95.812 28.063 121.982 C 23.528 136.375, 19.971 148.294, 20.159 148.470 C 20.347 148.645, 26.254 149.525, 33.286 150.425 C 43.742 151.764, 46.395 151.829, 47.844 150.781 C 54.114 146.245, 86 118.645, 86 117.754 C 86 117.153, 84.650 114.270, 83 111.346 C 81.350 108.422, 80 105.861, 80 105.655 C 80 105.449, 90.237 104.979, 102.750 104.611 C 115.263 104.243, 128.513 103.674, 132.195 103.347 L 138.890 102.752 129.924 92.126 C 121.326 81.936, 120.669 81.395, 113.911 78.946 C 106.112 76.120, 104.935 74.351, 111.138 74.778 L 115.180 75.057 111.442 70.494 C 109.386 67.985, 107.397 66.060, 107.023 66.216 C 106.648 66.372, 96.144 72.800, 83.679 80.500 L 61.016 94.500 60.997 107 C 60.977 120.369, 60.271 127, 58.869 127 C 57.906 127, 57.686 101.529, 58.602 96 C 59.153 92.671, 60.284 91.817, 81.772 78.500 C 94.197 70.800, 104.488 64.050, 104.641 63.500 C 104.793 62.950, 102.988 60.309, 100.628 57.630 L 96.339 52.760 94.332 56.162 C 92.598 59.100, 89.743 60.752, 73.412 68.270 C 61.078 73.947, 54.403 76.540, 54.222 75.724 C 54.070 75.036, 56.432 62.620, 59.472 48.132 C 62.513 33.644, 65 21.163, 65 20.395 C 65 18.416, 64.505 18.545, 44.250 25.779 M 66.987 25.643 C 66.327 28.864, 63.883 40.500, 61.555 51.500 C 59.227 62.500, 57.630 71.627, 58.006 71.782 C 58.382 71.937, 65.847 68.765, 74.595 64.733 C 88.580 58.287, 90.731 56.976, 92.417 53.870 L 94.334 50.338 82.036 35.919 C 75.272 27.989, 69.389 21.114, 68.962 20.643 C 68.535 20.172, 67.646 22.422, 66.987 25.643 M 74.583 23.089 C 75.729 24.415, 80.984 30.545, 86.261 36.712 L 95.855 47.924 98.528 43.362 C 99.998 40.854, 100.818 38.455, 100.350 38.033 C 99.581 37.337, 77.600 23.569, 74 21.528 C 73.162 21.053, 73.420 21.742, 74.583 23.089 M 100.693 45 C 97.559 50.579, 97.428 50.092, 104.177 57.923 L 107.855 62.190 114.933 56.910 L 122.012 51.630 112.959 45.815 C 107.980 42.617, 103.815 40, 103.703 40.001 C 103.591 40.002, 102.237 42.251, 100.693 45 M 117.189 58.627 C 109.120 64.733, 109.198 63.826, 116.054 71.779 C 119.539 75.822, 124.470 77.907, 130.713 77.976 C 132.677 77.997, 136.780 73.108, 141.371 65.272 C 141.843 64.467, 139.753 62.547, 135.295 59.690 C 123.875 52.372, 125.342 52.458, 117.189 58.627 M 132.643 83.489 C 132.191 84.665, 131.510 84.764, 129.397 83.961 C 127.926 83.402, 126.583 83.084, 126.413 83.254 C 126.242 83.425, 130.125 88.275, 135.042 94.032 C 139.960 99.789, 143.986 104.838, 143.991 105.250 C 143.996 105.662, 141.863 106.003, 139.250 106.007 C 130.598 106.019, 85.581 108.085, 85.178 108.489 C 84.960 108.707, 88.369 115.548, 92.753 123.693 C 100.642 138.346, 100.791 138.761, 107.092 163.500 C 110.594 177.250, 113.598 187.796, 113.767 186.936 C 113.937 186.076, 116.895 171.969, 120.341 155.587 L 126.606 125.803 136.965 121.372 C 142.663 118.935, 147.611 117.067, 147.962 117.221 C 148.312 117.374, 147.196 129.200, 145.480 143.500 C 143.765 157.800, 142.523 169.705, 142.721 169.956 C 142.918 170.208, 150.583 162.910, 159.753 153.739 L 176.427 137.066 170.456 112.283 L 164.485 87.500 150.992 84.802 C 135.153 81.635, 133.402 81.510, 132.643 83.489" stroke="none" fill="black" fill-rule="evenodd"/>
</svg>