<svg xmlns="http://www.w3.org/2000/svg" width="200" height="200" viewBox="0 0 200 200" version="1.1">
	<path d="M 57.519 5.970 C 57.189 6.503, 60.612 13.366, 65.126 21.220 C 69.640 29.073, 73.320 35.949, 73.305 36.500 C 73.289 37.050, 68.528 46.645, 62.726 57.823 C 56.923 69.001, 52.746 77.928, 53.442 77.661 C 55.148 77.006, 86.274 58.055, 87.358 57.010 C 87.831 56.555, 85.682 51.707, 82.585 46.236 C 79.085 40.055, 77.191 35.666, 77.583 34.644 C 77.930 33.740, 78.295 33, 78.395 33 C 78.494 33, 85.954 36.383, 94.971 40.517 C 104.821 45.033, 111.729 47.671, 112.276 47.124 C 112.823 46.577, 109.105 43.123, 102.964 38.473 L 92.742 30.731 114.996 23.824 C 127.235 20.025, 137.421 17.088, 137.631 17.298 C 137.841 17.507, 140.707 25.023, 144 34 C 147.293 42.977, 150.103 50.389, 150.244 50.471 C 150.385 50.553, 152.834 52.085, 155.687 53.874 L 160.874 57.128 151.618 71.814 C 146.527 79.891, 142.067 87.001, 141.706 87.614 C 141.248 88.392, 145.355 89.085, 155.275 89.905 C 163.099 90.552, 171.164 91.323, 173.198 91.620 L 176.896 92.158 164.948 102.709 C 158.377 108.513, 153 113.666, 153 114.162 C 153 114.658, 158.020 124.786, 164.156 136.669 C 170.292 148.552, 174.621 157.875, 173.777 157.387 C 170.568 155.532, 147.177 133.439, 147.090 132.180 C 146.942 130.015, 142.679 131.237, 142.485 133.500 C 142.288 135.802, 121.769 186.103, 121.243 185.576 C 121.051 185.384, 119.563 173.396, 117.936 158.936 C 116.310 144.476, 114.776 132.443, 114.530 132.196 C 114.163 131.830, 102.465 140.921, 68.539 167.939 C 66.638 169.453, 66.624 169.425, 68.104 167 C 68.943 165.625, 73.050 158.875, 77.230 152 L 84.831 139.500 85.930 122.500 C 87.637 96.088, 87.360 97.241, 92.308 95.964 C 94.614 95.369, 100.649 93.726, 105.721 92.313 L 114.941 89.744 104.817 74.877 C 96.674 62.920, 94.426 60.232, 93.327 61.144 C 92.576 61.767, 82.675 73.055, 71.325 86.227 L 50.689 110.177 53.333 112.338 C 64.286 121.292, 75.822 131.647, 75.642 132.362 C 75.395 133.347, 24.681 164.005, 24.157 163.487 C 23.969 163.300, 26.332 154.351, 29.408 143.600 L 35.002 124.053 31.095 103.988 L 27.188 83.923 30.501 62.212 C 32.324 50.270, 34.756 37.842, 35.907 34.593 C 38.394 27.576, 38.350 28, 36.582 28 C 34.125 28, 31.012 39.961, 27.654 62.300 L 24.437 83.702 28.289 103.857 L 32.140 124.013 25.638 146.741 C 22.062 159.242, 19.218 169.549, 19.318 169.647 C 19.545 169.868, 79.251 134.076, 80.174 133.165 C 80.544 132.799, 75.058 127.550, 67.983 121.500 C 60.907 115.450, 55.092 110.231, 55.059 109.902 C 54.961 108.908, 93.117 65, 94.080 65 C 95.438 65, 110.073 87.334, 109.233 88.125 C 108.830 88.504, 103.386 90.183, 97.136 91.855 C 90.885 93.527, 85.629 95.037, 85.455 95.211 C 85.281 95.386, 84.458 105.258, 83.627 117.151 L 82.115 138.775 71.051 156.916 C 62.841 170.378, 60.355 175.199, 61.414 175.605 C 62.282 175.939, 72.470 168.442, 87.455 156.445 C 100.993 145.605, 112.230 136.909, 112.426 137.118 C 112.621 137.328, 113.961 148.300, 115.403 161.500 C 118.692 191.604, 118.912 193, 120.376 193 C 121.036 193, 126.806 180.287, 133.197 164.750 C 139.589 149.213, 145.246 136.500, 145.770 136.500 C 146.293 136.500, 153.811 143.025, 162.477 151 C 177.727 165.034, 181 167.496, 181 164.931 C 181 164.262, 175.376 152.687, 168.502 139.208 C 159.522 121.600, 156.291 114.354, 157.024 113.471 C 157.585 112.796, 163.662 107.370, 170.529 101.415 C 178.588 94.426, 182.569 90.349, 181.757 89.914 C 181.066 89.543, 172.946 88.666, 163.713 87.964 C 154.479 87.262, 146.750 86.404, 146.535 86.057 C 146.321 85.710, 150.205 79.014, 155.166 71.178 C 161.629 60.967, 163.899 56.585, 163.174 55.714 C 162.617 55.046, 159.903 53.150, 157.142 51.500 L 152.122 48.500 145.920 31.250 C 142.510 21.762, 139.247 14, 138.671 14 C 138.094 14, 126.570 17.390, 113.061 21.533 C 99.553 25.676, 88.061 29.197, 87.525 29.358 C 86.989 29.518, 89.464 31.813, 93.025 34.456 C 100.352 39.895, 100.083 39.871, 87.131 33.914 C 78.360 29.881, 77.679 29.719, 76.467 31.376 C 75.305 32.965, 74.741 32.399, 70.939 25.823 C 62.471 11.175, 58.765 5, 58.445 5 C 58.265 5, 57.848 5.436, 57.519 5.970 M 70.207 49.250 C 62.719 63.197, 58.778 71.249, 59.686 70.745 C 60.134 70.496, 66.013 67.018, 72.751 63.017 L 85.003 55.741 83.133 52.620 C 82.105 50.904, 80.036 47.362, 78.537 44.750 C 77.037 42.138, 75.667 40, 75.491 40 C 75.316 40, 72.938 44.163, 70.207 49.250" stroke="none" fill="black" fill-rule="evenodd"/>
</svg>