<svg xmlns="http://www.w3.org/2000/svg" width="200" height="200" viewBox="0 0 200 200" version="1.1">
	<path d="M 150.475 28.082 C 136.636 32.669, 133.982 33.202, 115.500 35.106 C 101.916 36.506, 92.773 36.959, 87 36.519 C 71.867 35.364, 53.015 35.782, 38.874 37.587 C 24.624 39.405, 21.754 40.200, 23.508 41.848 C 24.907 43.161, 68 44.475, 68 43.205 C 68 41.453, 65.080 41.002, 53.168 40.914 C 45.211 40.855, 42.388 40.561, 44.293 39.989 C 49.167 38.525, 59.218 38.006, 68 38.765 L 76.500 39.500 80.416 54.500 L 84.333 69.500 82.693 85.890 C 81.791 94.905, 80.820 102.513, 80.536 102.797 C 80.252 103.081, 69.601 102.806, 56.867 102.186 C 44.133 101.566, 33.329 101.297, 32.857 101.588 C 30.716 102.911, 32.700 103.822, 42.250 105.897 C 47.887 107.123, 59.587 110.226, 68.250 112.793 L 84 117.460 84 140.016 L 84 162.572 73.684 170.245 L 63.369 177.918 40.684 178.615 C 22.703 179.167, 18 179.591, 18 180.656 C 18 181.728, 21.386 181.998, 34.750 181.988 C 43.963 181.981, 80.188 182.145, 115.250 182.351 C 150.313 182.557, 179 182.569, 179 182.376 C 179 181.837, 168.022 158.689, 167.535 158.202 C 167.299 157.966, 158.709 162.120, 148.447 167.434 C 138.185 172.748, 129.393 176.962, 128.911 176.798 C 128.428 176.634, 124.651 172.056, 120.517 166.625 L 113 156.749 113 134.875 C 113 114.216, 113.103 113, 114.860 113 C 115.883 113, 123.603 112.310, 132.015 111.466 L 147.310 109.932 154.905 103.068 C 163.790 95.037, 167.677 91, 166.523 91 C 166.069 91, 156.934 93.283, 146.222 96.073 C 135.509 98.862, 126.399 100.775, 125.975 100.323 C 125.552 99.870, 122.446 94.963, 119.073 89.418 L 112.941 79.337 114.149 60.668 L 115.357 42 118.511 42 C 120.245 42, 130.819 43.136, 142.007 44.525 C 153.195 45.914, 162.661 46.702, 163.042 46.275 C 163.817 45.407, 166.428 24.094, 165.832 23.498 C 165.622 23.289, 158.712 25.351, 150.475 28.082 M 148.344 31.535 C 139.671 34.393, 131.855 36.241, 125.402 36.960 C 120.019 37.561, 115.493 38.174, 115.344 38.323 C 115.195 38.472, 123.944 39.610, 134.787 40.853 C 145.629 42.096, 155.905 43.352, 157.623 43.644 C 160.699 44.167, 160.757 44.101, 161.400 39.338 C 161.759 36.677, 162.306 32.813, 162.615 30.750 C 162.923 28.688, 162.799 27.045, 162.338 27.101 C 161.877 27.156, 155.580 29.152, 148.344 31.535 M 103.500 39.040 C 100.200 39.450, 93.358 39.543, 88.296 39.248 L 79.091 38.711 83.101 53.606 L 87.111 68.500 85.342 87.374 L 83.574 106.248 68.037 105.622 L 52.500 104.997 64 108.462 C 70.325 110.368, 77.975 112.731, 81 113.714 L 86.500 115.500 86.764 139.500 L 87.027 163.500 76.546 171.449 C 70.781 175.821, 66.162 179.473, 66.282 179.564 C 66.402 179.656, 79.932 179.454, 96.348 179.115 L 126.196 178.500 118.942 169.130 C 113.910 162.631, 111.442 158.494, 110.887 155.630 C 110.447 153.358, 110.068 142.415, 110.044 131.311 L 110 111.123 114.250 110.526 C 116.588 110.198, 124.648 109.339, 132.163 108.617 C 146.868 107.206, 148.704 106.424, 156 98.475 C 158.231 96.045, 158.285 95.814, 156.500 96.331 C 155.400 96.650, 148.015 98.530, 140.089 100.509 C 128.300 103.452, 125.455 103.870, 124.449 102.803 C 123.773 102.087, 120.242 96.646, 116.603 90.713 L 109.987 79.926 110.973 65.713 C 111.515 57.896, 112.220 48.462, 112.540 44.750 C 113.196 37.130, 114.128 37.719, 103.500 39.040 M 148.549 170.431 L 132.599 178.817 137.049 179.411 C 145.195 180.497, 175.053 180.568, 174.614 179.500 C 171.177 171.136, 166.471 162.005, 165.607 162.022 C 164.998 162.034, 157.322 165.818, 148.549 170.431" stroke="none" fill="black" fill-rule="evenodd"/>
</svg>