<svg xmlns="http://www.w3.org/2000/svg" width="200" height="200" viewBox="0 0 200 200" version="1.1">
	<path d="M 131.337 27.250 C 126.219 37.500, 126.218 37.500, 120.642 39.645 L 115.065 41.791 111.928 33.645 C 110.203 29.165, 108.397 24.757, 107.914 23.850 C 107.147 22.407, 104.926 23.175, 90.268 29.955 L 73.500 37.712 73.191 42.457 C 72.922 46.592, 72.633 47.137, 70.942 46.695 C 68.049 45.939, 67.604 47.682, 69.935 50.645 C 72.172 53.489, 72.431 56.788, 71.330 68.450 L 70.673 75.400 64.835 49.532 C 61.624 35.304, 58.885 23.557, 58.748 23.428 C 58.612 23.299, 51.525 26.926, 43 31.488 L 27.500 39.782 26.885 55.641 C 26.547 64.363, 26.210 80.661, 26.135 91.858 L 26 112.216 32.125 137.358 C 35.493 151.186, 38.401 162.670, 38.585 162.877 C 38.770 163.084, 48.364 164.229, 59.906 165.421 L 80.891 167.588 88.695 165.496 C 97.874 163.035, 97.554 163.200, 114.156 152.398 C 126.451 144.400, 127.012 143.890, 125.870 141.749 C 125.210 140.512, 119.386 129.938, 112.926 118.250 L 101.181 97 106.840 97.021 C 112.070 97.040, 112.859 97.363, 117.229 101.271 L 121.957 105.500 135.709 148.250 C 143.273 171.762, 149.695 190.999, 149.981 190.997 C 150.483 190.995, 173.158 156.656, 173.835 154.872 C 174.019 154.387, 170.777 148.599, 166.629 142.011 L 159.088 130.032 160.510 121.941 C 161.293 117.491, 162.937 110.734, 164.163 106.925 L 166.394 100 173.697 100 C 182.877 100, 183.260 98.471, 174.997 94.819 L 168.994 92.166 174.028 77.806 L 179.062 63.446 177.281 49.018 L 175.500 34.591 157 25.837 C 146.825 21.023, 138.040 17.065, 137.478 17.042 C 136.916 17.019, 134.153 21.612, 131.337 27.250 M 133.498 29.004 C 131.024 33.930, 129 38.605, 129 39.393 C 129 40.182, 132.410 49.791, 136.577 60.748 L 144.154 80.670 154.827 85.510 C 160.697 88.172, 165.799 90.499, 166.165 90.681 C 166.531 90.864, 168.944 84.670, 171.527 76.918 L 176.225 62.823 175.083 53.162 C 172.875 34.482, 174.238 36.867, 162.681 31.470 C 157.081 28.855, 149.237 25.215, 145.248 23.382 L 137.996 20.049 133.498 29.004 M 90.333 32.796 L 76.166 39.395 75.833 44.121 C 75.503 48.802, 75.540 48.866, 79.777 50.923 C 82.129 52.066, 84.714 53, 85.522 53 C 87.195 53, 110.049 44.104, 111.359 42.943 C 112.304 42.106, 106.700 26.674, 105.344 26.379 C 104.880 26.279, 98.125 29.166, 90.333 32.796 M 43.500 34.252 C 36.350 38.082, 30.370 41.334, 30.211 41.480 C 30.052 41.625, 29.525 56.764, 29.039 75.122 L 28.155 108.500 34.226 134 C 37.565 148.025, 40.567 159.801, 40.898 160.169 C 41.229 160.537, 50.393 161.739, 61.261 162.841 L 81.022 164.844 88.829 162.672 C 94.870 160.991, 99.614 158.579, 109.814 152 C 117.063 147.325, 122.995 143.192, 122.997 142.815 C 123.002 141.560, 99.801 100, 99.095 100 C 98.713 100, 96.645 103.600, 94.500 108 C 92.355 112.400, 90.127 115.987, 89.550 115.971 C 88.972 115.955, 83.796 114.617, 78.046 112.997 L 67.591 110.051 58.827 101.328 C 54.007 96.530, 50.203 92.463, 50.375 92.291 C 50.547 92.119, 60.700 92.467, 72.936 93.064 C 85.173 93.661, 95.371 93.963, 95.599 93.734 C 95.827 93.506, 93.485 88.708, 90.394 83.072 C 82.152 68.041, 83.848 67.994, 100.175 82.804 L 102.850 85.230 105.511 79.978 C 108.689 73.706, 108.654 73.669, 97.842 71.913 C 92.657 71.071, 90 70.192, 90 69.320 C 90 67.631, 91.139 67.659, 100.450 69.585 C 107.861 71.118, 111 71.003, 111 69.199 C 111 68.723, 105.368 65.714, 98.484 62.512 C 86.248 56.821, 85.879 56.720, 82.016 57.995 C 78.953 59.006, 77.743 59.031, 76.632 58.109 C 74.996 56.751, 74.546 59.309, 73.446 76.250 C 72.984 83.368, 72.455 86, 71.486 86 C 70.756 86, 69.848 84.537, 69.467 82.750 C 66.749 69.974, 57.074 27.752, 56.818 27.545 C 56.643 27.404, 50.650 30.422, 43.500 34.252 M 119.693 42.731 C 116.834 43.879, 116.053 44.663, 116.556 45.880 C 116.925 46.771, 117.453 48.288, 117.730 49.250 C 118.007 50.212, 118.541 51, 118.917 51 C 119.651 51, 124.291 41.945, 123.796 41.480 C 123.633 41.327, 121.787 41.890, 119.693 42.731 M 120.765 55.132 L 115.092 67.159 124.355 71.458 C 129.450 73.823, 135.011 76.063, 136.714 76.437 L 139.810 77.117 133.609 60.596 C 130.199 51.510, 127.190 43.857, 126.923 43.590 C 126.656 43.323, 123.885 48.517, 120.765 55.132 M 101.500 50.126 C 96 52.340, 91.147 54.493, 90.716 54.910 C 90.285 55.326, 95.010 57.982, 101.216 60.812 L 112.500 65.957 115.105 60.523 L 117.709 55.088 115.605 50.545 C 114.447 48.046, 113.050 46.024, 112.500 46.051 C 111.950 46.078, 107 47.912, 101.500 50.126 M 76.500 54 C 78.328 56.020, 81 56.709, 81 55.161 C 81 54.386, 76.695 52, 75.298 52 C 74.964 52, 75.505 52.900, 76.500 54 M 113 70.883 C 113 71.807, 116.427 72.988, 119 72.951 C 119.885 72.938, 119.475 72.343, 118 71.500 C 115.134 69.861, 113 69.598, 113 70.883 M 108.048 80.904 L 105.068 86.808 109.365 90.768 L 113.661 94.729 130.081 95.382 C 139.111 95.741, 150.596 96.300, 155.602 96.625 C 163.675 97.149, 164.779 97.018, 165.375 95.465 C 165.745 94.502, 165.924 93.637, 165.774 93.544 C 165.623 93.451, 158.302 90.072, 149.505 86.035 C 137.364 80.464, 131.221 78.251, 124.005 76.851 C 118.777 75.837, 113.719 75.005, 112.764 75.003 C 111.648 75.001, 109.966 77.106, 108.048 80.904 M 95.031 85.907 C 98.527 92.465, 99.494 93.169, 100.530 89.906 C 101.217 87.740, 97.597 82.964, 93.642 80.821 C 92.160 80.018, 92.442 81.049, 95.031 85.907 M 102.583 91.643 C 101.815 93.645, 101.715 93.563, 105.936 94.369 L 109.371 95.024 107.011 92.512 C 104.246 89.569, 103.440 89.410, 102.583 91.643 M 62.500 101.377 C 68.792 107.143, 70.309 108.011, 77.500 109.955 C 81.900 111.144, 86.270 112.341, 87.211 112.614 C 88.530 112.996, 89.842 111.282, 92.929 105.142 L 96.935 97.174 88.717 96.621 C 84.198 96.316, 74.875 95.819, 68 95.515 L 55.500 94.963 62.500 101.377 M 168 96 C 168 96.550, 169.012 96.993, 170.250 96.985 C 172.069 96.972, 172.213 96.784, 171 96 C 169.061 94.747, 168 94.747, 168 96 M 120.810 100.800 C 123.877 103.345, 125.053 106.434, 136.882 143.023 C 143.901 164.735, 149.871 183.165, 150.148 183.977 C 150.607 185.323, 157.609 175.574, 167.831 159.355 L 171.074 154.210 163.691 142.505 L 156.309 130.800 157.676 122.150 C 158.428 117.393, 159.979 110.659, 161.124 107.186 C 162.269 103.713, 162.902 100.569, 162.532 100.199 C 161.841 99.507, 138.399 98.201, 125 98.107 L 117.500 98.054 120.810 100.800" stroke="none" fill="black" fill-rule="evenodd"/>
</svg>