<svg xmlns="http://www.w3.org/2000/svg" width="200" height="200" viewBox="0 0 200 200" version="1.1">
	<path d="M 32.839 38.303 L 24.204 55.606 27.969 74.343 L 31.733 93.081 24.517 126.290 C 17.495 158.608, 17.357 159.506, 19.400 159.726 C 22.940 160.107, 63.508 152.482, 63.382 151.459 C 60.590 128.689, 58.712 110.955, 59.056 110.611 C 59.300 110.366, 65.855 109.843, 73.622 109.449 L 87.742 108.732 98.633 122.312 C 109.481 135.839, 109.522 135.909, 109.144 140.658 C 108.778 145.262, 108.225 146.006, 92.948 162.459 C 83.156 173.005, 77.582 179.734, 78.315 180.124 C 78.967 180.471, 85.800 181.489, 93.500 182.387 C 106.930 183.953, 109.198 183.925, 149.223 181.703 C 172.171 180.429, 191.266 179.068, 191.656 178.677 C 193.232 177.101, 189.513 176.029, 167 171.565 C 154.075 169.003, 142.650 166.567, 141.612 166.152 C 140.065 165.534, 143.178 162.666, 158.880 150.251 L 178.036 135.104 174.768 134.210 C 172.970 133.718, 164.863 131.800, 156.750 129.947 C 148.637 128.093, 142.013 126.335, 142.028 126.039 C 142.044 125.742, 150.117 119.908, 159.968 113.073 L 177.879 100.646 178.433 94.573 C 179.065 87.657, 182 34.729, 182 30.253 L 182 27.309 166.961 27.792 C 153.348 28.228, 151.797 28.105, 150.616 26.489 C 149.380 24.799, 149.282 24.813, 148.776 26.749 C 148.279 28.648, 147.291 28.827, 134.871 29.271 C 127.517 29.533, 108.527 29.048, 92.671 28.193 C 69.847 26.962, 63.683 26.895, 63.078 27.873 C 62.507 28.798, 59.751 28.088, 52.137 25.055 C 46.540 22.825, 41.850 21, 41.717 21 C 41.583 21, 37.588 28.786, 32.839 38.303 M 34.761 40.457 L 27.051 55.914 30.526 73.126 C 32.436 82.593, 34 91.571, 34 93.077 C 34 94.583, 31.039 109.396, 27.419 125.994 C 23.800 142.591, 21.040 156.373, 21.286 156.620 C 21.651 156.985, 50.912 152.186, 58.579 150.504 L 60.657 150.048 57.951 129.274 C 56.462 117.848, 55.366 108.361, 55.514 108.192 C 55.890 107.761, 78.494 106.052, 84.197 106.024 L 88.893 106 100.447 120.235 L 112 134.469 112 140.271 L 112 146.072 97.359 161.667 C 86.770 172.946, 83.103 177.463, 84.109 177.988 C 84.874 178.386, 90.173 179.260, 95.884 179.930 C 104.422 180.931, 112.064 180.857, 138.884 179.516 C 156.823 178.619, 172.787 177.574, 174.361 177.193 C 176.522 176.669, 171.792 175.392, 155.018 171.969 L 132.816 167.437 152.366 151.969 L 171.916 136.500 156.208 132.769 C 147.569 130.717, 139.178 128.683, 137.561 128.249 C 134.742 127.492, 135.460 126.877, 155.114 113.196 L 175.606 98.931 177.417 64.913 C 178.413 46.203, 179.042 30.709, 178.815 30.482 C 178.589 30.255, 172.237 30.348, 164.702 30.689 L 151 31.308 151 48.654 C 151 62.680, 150.738 66, 149.629 66 C 148.146 66, 147.484 61.644, 146.436 45 C 146.106 39.775, 145.665 34.943, 145.454 34.262 C 145.185 33.389, 140.259 34.685, 128.786 38.648 C 119.829 41.742, 112.146 44.589, 111.713 44.974 C 111.280 45.359, 111.405 46.935, 111.991 48.476 C 112.577 50.017, 112.877 51.456, 112.658 51.675 C 112.439 51.894, 109.893 51.140, 107 50 C 104.107 48.860, 101.591 48.076, 101.409 48.258 C 101.095 48.572, 111.965 55.140, 150.449 77.891 C 159.944 83.504, 166.761 88.115, 165.949 88.376 C 165.152 88.632, 153.250 89.794, 139.500 90.958 C 125.750 92.123, 112.678 93.321, 110.450 93.621 L 106.400 94.167 104.023 84.096 L 101.645 74.024 96.573 74.561 C 93.783 74.856, 87.450 75.506, 82.500 76.006 L 73.500 76.914 59.676 70.788 C 51.269 67.062, 46.371 64.389, 47.176 63.964 C 47.904 63.580, 58.755 59.762, 71.289 55.481 L 94.079 47.697 86.789 43.364 C 80.304 39.509, 46.072 24.990, 43.485 24.997 C 42.927 24.999, 39.001 31.956, 34.761 40.457 M 71 30.427 C 71 31.443, 82.313 37.160, 91.728 40.902 C 100.052 44.210, 102.434 44.785, 104.519 43.993 C 106.669 43.175, 106.913 42.707, 106.040 41.075 C 104.662 38.500, 104.726 38, 106.433 38 C 107.221 38, 108.163 38.938, 108.527 40.085 C 109.326 42.603, 109.471 42.575, 126.186 36.572 L 138.500 32.150 122.500 32.123 C 113.700 32.108, 99.975 31.631, 92 31.063 C 76.116 29.931, 71 29.776, 71 30.427 M 89.700 52.015 C 87.061 53.018, 77.948 56.183, 69.450 59.049 C 60.953 61.914, 54.010 64.537, 54.023 64.879 C 54.035 65.220, 58.426 67.419, 63.781 69.764 L 73.516 74.028 84.008 73.030 C 89.779 72.481, 96.555 71.796, 99.067 71.506 L 103.635 70.980 106.022 81.092 L 108.409 91.203 112.954 90.649 C 115.454 90.344, 126.050 89.356, 136.500 88.452 C 146.950 87.548, 156.160 86.604, 156.967 86.353 C 158.770 85.792, 98.825 49.962, 96.305 50.095 C 95.312 50.148, 92.340 51.011, 89.700 52.015" stroke="none" fill="black" fill-rule="evenodd"/>
</svg>