<svg xmlns="http://www.w3.org/2000/svg" width="200" height="200" viewBox="0 0 200 200" version="1.1">
	<path d="M 129 28.596 L 103.500 34.010 77.758 32.899 C 54.973 31.916, 50.004 31.994, 34.486 33.572 C 24.844 34.553, 17.303 35.663, 17.728 36.040 C 18.152 36.417, 26.375 40.199, 36 44.446 C 45.625 48.692, 53.804 52.467, 54.176 52.833 C 54.884 53.532, 54.153 57.918, 43.064 119.500 C 35.910 159.228, 32.176 184.509, 33.295 185.629 C 33.658 185.992, 46.071 181.049, 60.879 174.644 C 75.687 168.240, 88.737 163, 89.879 163 C 91.022 163, 97.704 163.931, 104.728 165.069 L 117.500 167.138 138.124 178.027 C 149.467 184.016, 159.219 189.047, 159.795 189.208 C 160.753 189.475, 191.322 145.988, 190.649 145.316 C 190.488 145.155, 183.656 147.268, 175.466 150.012 C 167.276 152.755, 160.272 155, 159.902 155 C 159.531 155, 155.152 148.082, 150.171 139.628 L 141.113 124.255 145.692 97.520 C 150.753 67.969, 150.890 69.661, 143.335 68.527 C 140.951 68.170, 139 67.527, 139 67.099 C 139 66.670, 147.550 57.495, 158 46.708 C 174.087 30.104, 179.069 24, 176.534 24 C 176.277 24, 170.935 27.375, 164.662 31.500 C 152.953 39.200, 149.936 40.160, 143.163 38.347 C 140.975 37.761, 141.291 37.254, 148.138 30.361 C 152.160 26.312, 155.236 23.041, 154.975 23.091 C 154.714 23.141, 143.025 25.618, 129 28.596 M 128.500 31.465 C 112.117 35.036, 112.095 35.277, 128 36.895 L 137.500 37.862 142.488 32.931 C 148.479 27.008, 148.791 27.041, 128.500 31.465 M 159.500 38.074 L 153.500 42.040 145.417 41.416 L 137.334 40.791 133.250 45.569 C 130.536 48.744, 128.599 52.367, 127.476 56.371 C 126.546 59.684, 125.596 62.889, 125.364 63.494 C 125.120 64.131, 127.037 65.022, 129.924 65.614 L 134.906 66.634 143.206 58.067 C 162.080 38.587, 166.427 34.003, 165.975 34.054 C 165.714 34.084, 162.800 35.893, 159.500 38.074 M 35.500 36.065 C 31.650 36.593, 28.166 37.131, 27.759 37.262 C 27.351 37.393, 34.011 40.598, 42.559 44.384 C 57.558 51.028, 58.081 51.359, 57.561 53.884 C 57.265 55.323, 54.978 68.200, 52.478 82.500 C 49.979 96.800, 46.170 117.950, 44.014 129.500 C 39.800 152.083, 35.551 180.884, 36.320 181.653 C 36.580 181.913, 48.421 177.076, 62.633 170.903 L 88.474 159.681 102.987 161.947 L 117.500 164.212 138.399 175.172 C 155.487 184.133, 159.523 185.891, 160.538 184.816 C 162.113 183.146, 184 151.232, 184 150.606 C 184 150.350, 178.216 152.080, 171.147 154.451 L 158.294 158.762 148.313 141.844 L 138.332 124.927 142.650 99.213 C 145.025 85.071, 146.975 73.195, 146.984 72.822 C 146.993 72.449, 144.500 71.584, 141.445 70.900 L 135.889 69.657 128.021 77.479 C 123.693 81.781, 119.341 86.808, 118.349 88.651 C 117.357 90.493, 116.068 92, 115.485 92 C 114.902 92, 112.236 94.222, 109.560 96.939 L 104.696 101.877 109.947 107.939 C 112.835 111.272, 115.443 114, 115.742 114 C 116.042 114, 115.981 109.950, 115.608 105 C 115.025 97.278, 115.146 96, 116.464 96 C 117.519 96, 118.018 97.018, 118.056 99.250 C 118.087 101.037, 118.914 112.400, 119.894 124.500 C 120.874 136.600, 121.628 146.583, 121.570 146.684 C 121.512 146.786, 109.885 148.861, 95.732 151.297 L 70 155.725 70 133.019 C 70 112.771, 70.328 108.164, 73.031 90.458 C 74.699 79.538, 76.298 70.369, 76.586 70.081 C 76.873 69.793, 77.422 70.029, 77.804 70.604 C 79.516 73.179, 102.359 99, 102.925 99 C 103.273 99, 106.310 96.187, 109.674 92.750 C 115.308 86.993, 115.996 85.790, 118.395 77.500 C 119.828 72.550, 121 67.945, 121 67.267 C 121 66.330, 115.033 65.970, 96.146 65.767 L 71.292 65.500 83.686 51.590 C 90.503 43.940, 95.725 37.329, 95.290 36.900 C 94.069 35.693, 43.386 34.985, 35.500 36.065 M 88.890 49.750 L 77.589 62.500 83.044 62.737 C 86.045 62.867, 96.200 63.092, 105.611 63.237 L 122.722 63.500 124.611 56.500 C 126.011 51.311, 127.508 48.395, 130.396 45.230 C 132.539 42.881, 134.114 40.780, 133.896 40.562 C 133.447 40.114, 105.975 37, 102.466 37 C 100.808 37, 97.123 40.461, 88.890 49.750 M 122.511 73.246 C 121.562 76.628, 120.550 80.093, 120.261 80.947 C 119.972 81.801, 122.453 79.575, 125.775 76 C 129.096 72.425, 131.518 69.222, 131.157 68.882 C 130.795 68.542, 129.091 68.002, 127.368 67.681 C 124.266 67.103, 124.220 67.156, 122.511 73.246 M 77.530 79.250 C 73.425 103.038, 72 117.127, 72 133.937 C 72 150.183, 72.169 152, 73.679 152 C 76.877 152, 117.502 144.836, 118.083 144.169 C 118.404 143.801, 118.179 137.578, 117.583 130.339 L 116.500 117.178 97.500 123.027 C 86.480 126.420, 78.124 128.505, 77.605 127.993 C 77.083 127.478, 81.760 121.828, 88.836 114.426 L 100.961 101.742 98.730 99.094 C 91.782 90.843, 78.741 76, 78.441 76 C 78.248 76, 77.838 77.463, 77.530 79.250 M 93.306 113.607 C 88.276 119.045, 84.303 123.637, 84.478 123.811 C 84.998 124.332, 112 115.699, 112 115.012 C 112 114.665, 109.852 111.982, 107.226 109.051 L 102.452 103.720 93.306 113.607" stroke="none" fill="black" fill-rule="evenodd"/>
</svg>