<svg xmlns="http://www.w3.org/2000/svg" width="200" height="200" viewBox="0 0 200 200" version="1.1">
	<path d="M 35.310 38.653 L 19.120 62.261 28.060 80.120 L 37 97.979 37 134.358 L 37 170.736 59.750 171.429 L 82.500 172.122 118.792 179.186 C 138.752 183.071, 155.216 186.081, 155.378 185.875 C 156.652 184.255, 167.643 124.829, 170.059 106.500 C 172.663 86.739, 179.210 20.887, 178.628 20.297 C 178.373 20.039, 101.841 28.658, 100.500 29.096 C 98.335 29.803, 92.871 28.018, 93.598 26.842 C 94.100 26.029, 93.779 25.871, 92.567 26.336 C 91.533 26.733, 82.781 24.534, 71.356 21.006 C 60.658 17.703, 51.815 15.010, 51.703 15.023 C 51.591 15.035, 44.214 25.669, 35.310 38.653 M 50.611 21.372 C 43.746 30.690, 23.670 60.548, 23.288 62.006 C 23.043 62.942, 26.703 71.419, 31.421 80.843 L 40 97.978 40 132.838 L 40 167.698 49.750 168.344 C 55.112 168.699, 64.536 168.992, 70.691 168.995 C 80.493 168.999, 86.264 169.866, 117.165 175.976 C 136.570 179.813, 152.723 182.626, 153.060 182.226 C 154.508 180.509, 164.295 128.599, 167.055 108 C 169.511 89.666, 176.186 23.896, 175.646 23.353 C 175.396 23.102, 106.936 30.854, 105.683 31.276 C 105.033 31.495, 106.864 32.242, 109.753 32.937 C 112.642 33.632, 115.218 34.543, 115.476 34.961 C 115.734 35.379, 113.883 40.847, 111.361 47.111 L 106.775 58.500 107.465 67.976 C 107.844 73.188, 108.465 78.009, 108.846 78.689 C 109.312 79.523, 112.842 77.016, 119.664 71.007 C 134.231 58.175, 149.439 46.746, 149.795 48.365 C 150.176 50.098, 143.227 103.824, 142.461 105.062 C 142.143 105.578, 136.846 106.005, 130.691 106.011 C 124.536 106.017, 117.813 106.301, 115.750 106.642 C 112.523 107.175, 112.002 107.627, 112.015 109.881 C 112.024 111.321, 112.361 112.986, 112.765 113.581 C 113.169 114.176, 118.675 115.664, 125 116.889 C 139.464 119.690, 140 119.853, 140 121.454 C 140 122.266, 138.176 123.031, 135.250 123.446 C 130.952 124.055, 116.321 127.735, 114.931 128.557 C 114.414 128.864, 115.831 144.150, 116.434 144.763 C 116.576 144.908, 119.799 143.850, 123.596 142.412 C 142.218 135.359, 146.060 134.096, 145.367 135.254 C 141.367 141.935, 116.915 173.883, 116.590 172.852 C 116.357 172.109, 115.646 166.555, 115.011 160.512 C 114.377 154.469, 113.762 149.429, 113.646 149.313 C 113.530 149.196, 103.774 152.675, 91.967 157.043 C 80.160 161.412, 70.254 164.989, 69.953 164.993 C 69.170 165.003, 61.511 141.155, 62.107 140.560 C 62.379 140.288, 73.492 137.043, 86.801 133.349 L 111 126.634 110.930 123.567 C 110.780 117.023, 110.526 116.871, 93.920 113.364 C 85.439 111.573, 77.556 110.083, 76.403 110.054 C 74.630 110.008, 73.635 111.791, 69.983 121.546 C 65.835 132.627, 64.569 134.902, 63.273 133.607 C 62.947 133.280, 64.585 125.678, 66.915 116.712 L 71.150 100.412 68.916 89.765 L 66.682 79.118 73.681 71.309 C 79.314 65.024, 83 59.113, 83 56.365 C 83 56.180, 74.563 56.294, 64.250 56.618 L 45.500 57.207 66.309 43.463 C 77.755 35.904, 86.755 29.385, 86.309 28.978 C 85.864 28.570, 78.169 25.988, 69.208 23.240 L 52.916 18.244 50.611 21.372 M 89.643 41.250 C 88.181 46.888, 86.988 51.809, 86.992 52.187 C 86.997 52.564, 88.362 53.014, 90.026 53.187 L 93.053 53.500 88.325 58.891 C 83.762 64.095, 83.432 64.911, 78.830 82.340 C 76.118 92.610, 74.311 101.389, 74.639 102.698 C 75.492 106.097, 79.695 105.674, 84.204 101.735 C 87.331 99.004, 89.095 95.539, 95.526 79.500 C 99.716 69.050, 103.168 59.510, 103.197 58.299 C 103.226 57.089, 102.673 50.921, 101.968 44.592 C 100.692 33.151, 100.668 33.080, 97.693 32.043 C 96.048 31.469, 94.162 31, 93.502 31 C 92.819 31, 91.155 35.422, 89.643 41.250 M 72.166 42.815 L 55.867 53.500 64.684 53.813 C 69.533 53.985, 75.795 53.849, 78.600 53.510 L 83.701 52.893 86.399 42.829 C 87.884 37.294, 88.956 32.622, 88.781 32.448 C 88.607 32.274, 81.130 36.939, 72.166 42.815 M 104.496 42.098 C 104.898 46.719, 105.455 50.883, 105.735 51.351 C 106.263 52.236, 112 39.448, 112 37.387 C 112 36.744, 110.917 35.945, 109.593 35.613 C 108.269 35.280, 106.416 34.713, 105.475 34.352 C 103.911 33.752, 103.827 34.413, 104.496 42.098 M 139.409 58.186 C 135.609 61.047, 127.325 67.885, 121 73.381 C 114.675 78.877, 109.441 83.402, 109.368 83.437 C 109.296 83.472, 109.715 88.150, 110.301 93.834 L 111.365 104.167 125.433 103.462 C 133.170 103.074, 139.725 102.550, 140 102.298 C 140.547 101.797, 147.002 53.669, 146.579 53.246 C 146.436 53.102, 143.209 55.326, 139.409 58.186 M 98.137 80.131 C 95.272 87.353, 93.066 93.399, 93.234 93.567 C 93.402 93.735, 96.378 91.314, 99.847 88.186 L 106.155 82.500 105.440 74.750 C 105.046 70.487, 104.414 67, 104.035 67 C 103.655 67, 101.001 72.909, 98.137 80.131 M 74.058 75.047 L 69.793 80.104 71.024 86.625 C 71.700 90.212, 72.571 92.776, 72.959 92.323 C 73.880 91.249, 79.217 70.883, 78.710 70.377 C 78.497 70.164, 76.403 72.265, 74.058 75.047 M 95.834 95.309 C 89.968 100.364, 85.326 104.659, 85.520 104.853 C 85.714 105.047, 91.026 104.883, 97.326 104.490 L 108.779 103.774 108.285 99.637 C 108.013 97.362, 107.500 93.389, 107.145 90.809 L 106.500 86.118 95.834 95.309 M 87.500 107.791 C 84.081 108.180, 85.387 108.650, 96.500 111.031 C 103.650 112.562, 109.616 113.703, 109.757 113.567 C 109.898 113.431, 109.730 111.898, 109.382 110.160 L 108.750 107 100.125 107.168 C 95.381 107.261, 89.700 107.541, 87.500 107.791 M 113.100 119.380 C 113.155 120.546, 113.492 122.403, 113.850 123.507 C 114.499 125.511, 114.517 125.510, 122.500 123.376 C 131.180 121.056, 131.067 120.820, 120.250 118.689 C 113.073 117.275, 113.001 117.282, 113.100 119.380 M 86.504 136.177 C 74.956 139.467, 65.399 142.268, 65.265 142.401 C 64.615 143.052, 71.316 161, 72.208 161 C 73.800 161, 111.386 146.967, 112.375 146.003 C 112.856 145.534, 112.930 141.742, 112.539 137.575 C 111.890 130.649, 111.644 130.008, 109.665 130.098 C 108.474 130.152, 98.052 132.888, 86.504 136.177 M 128 143.682 C 122.775 145.575, 118.118 147.500, 117.652 147.960 C 116.678 148.920, 117.883 166, 118.924 166 C 119.719 166, 138.299 140.947, 137.819 140.522 C 137.644 140.367, 133.225 141.789, 128 143.682" stroke="none" fill="black" fill-rule="evenodd"/>
</svg>