<svg xmlns="http://www.w3.org/2000/svg" width="200" height="200" viewBox="0 0 200 200" version="1.1">
	<path d="M 138 20.633 L 119.500 29.237 98 26.019 C 47.983 18.533, 47.912 18.524, 47.184 19.702 C 46.797 20.328, 43.808 31.638, 40.541 44.836 L 34.600 68.833 43.550 78.430 C 66.304 102.831, 65.610 101.887, 66.385 109.451 C 66.768 113.192, 66.937 116.396, 66.760 116.573 C 66.583 116.750, 59.252 117.637, 50.469 118.544 C 41.686 119.451, 34.362 120.325, 34.192 120.487 C 34.023 120.649, 40.998 124.492, 49.692 129.026 C 58.387 133.560, 68.318 138.826, 71.761 140.728 L 78.023 144.185 49.761 163.732 C 34.218 174.483, 20.742 183.801, 19.816 184.438 C 18.866 185.091, 18.453 186.115, 18.868 186.787 C 19.400 187.647, 27.451 185.359, 47.831 178.556 L 76.058 169.134 99.668 146.067 C 112.654 133.380, 123.560 123, 123.905 123 C 124.250 123, 127.809 129.572, 131.813 137.603 C 138.986 151.989, 139.069 152.246, 137.399 154.795 C 136.466 156.218, 131.486 163.212, 126.331 170.337 C 121.176 177.462, 117.093 183.426, 117.257 183.590 C 117.548 183.881, 176.039 162.021, 176.967 161.274 C 177.386 160.938, 165.128 110, 164.424 109.150 C 164.264 108.958, 151.510 110.052, 136.081 111.581 C 120.651 113.110, 107.785 114.118, 107.489 113.822 C 107.193 113.526, 107.484 108.945, 108.136 103.642 C 108.957 96.958, 109.723 94, 110.632 94 C 111.353 94, 124.119 95.800, 139 98 C 153.881 100.200, 166.402 102, 166.824 102 C 167.674 102, 171.248 31.914, 170.439 31.105 C 170.159 30.826, 163.984 36.433, 156.715 43.566 C 149.447 50.699, 141.665 58.231, 139.421 60.303 L 135.342 64.072 115.947 65.478 C 105.280 66.252, 96.434 66.767, 96.290 66.624 C 96.147 66.480, 104.583 59.518, 115.037 51.153 L 134.045 35.944 128.539 46.923 C 125.106 53.768, 123.428 58.146, 124.083 58.551 C 124.660 58.908, 125.267 59.043, 125.430 58.850 C 128.095 55.704, 146 30.970, 146 30.435 C 146 30.028, 140.713 29.963, 134.250 30.290 C 124.828 30.767, 122.995 30.652, 125 29.709 C 126.375 29.062, 134.455 25.322, 142.956 21.397 C 156.873 14.973, 161.631 11.972, 157.833 12.015 C 157.100 12.023, 148.175 15.901, 138 20.633 M 43.640 44.250 C 40.516 56.488, 37.969 66.996, 37.980 67.602 C 37.991 68.208, 44.724 75.858, 52.941 84.602 C 67.640 100.242, 67.894 100.589, 68.606 106 C 69.003 109.025, 69.367 113.292, 69.414 115.482 L 69.500 119.464 57.057 120.713 C 50.214 121.400, 44.276 122.083, 43.862 122.231 C 43.449 122.379, 52.077 127.217, 63.037 132.983 C 78.526 141.131, 82.689 143.728, 81.732 144.644 C 81.054 145.292, 69.250 153.576, 55.500 163.052 C 41.750 172.529, 30.080 180.661, 29.567 181.124 C 29.054 181.587, 38.954 178.548, 51.567 174.370 L 74.500 166.773 88.500 153.134 C 96.200 145.633, 107.529 134.587, 113.675 128.589 L 124.850 117.684 133.598 135.214 L 142.346 152.745 133.210 165.372 C 128.185 172.318, 124.373 178, 124.738 178 C 125.454 178, 173.310 159.979, 173.786 159.530 C 174.250 159.093, 162.791 113.578, 161.991 112.680 C 161.589 112.229, 148.377 113.151, 132.630 114.729 L 104 117.598 104 115.473 C 104 112.297, 106.979 91.688, 107.516 91.151 C 107.771 90.895, 120.672 92.544, 136.185 94.815 C 151.697 97.086, 164.485 98.844, 164.603 98.722 C 164.918 98.395, 168.029 37.689, 167.743 37.444 C 167.609 37.329, 161.200 43.303, 153.500 50.719 L 139.500 64.204 144.338 63.527 C 148.596 62.932, 149.135 63.059, 148.838 64.591 C 148.384 66.927, 115.858 87.389, 114.946 85.912 C 114.558 85.284, 118.081 81.133, 123.145 76.251 C 128.029 71.543, 131.895 67.561, 131.736 67.403 C 131.577 67.244, 122.512 67.763, 111.592 68.556 L 91.736 69.997 79.618 79.655 C 72.953 84.967, 66.957 89.731, 66.294 90.243 C 65.630 90.754, 64.625 90.886, 64.060 90.537 C 63.436 90.151, 65.159 85.663, 68.452 79.096 L 73.871 68.290 82.344 67.761 L 90.817 67.233 111.793 50.366 C 123.330 41.090, 132.705 33.421, 132.626 33.324 C 132.547 33.228, 119.467 33.609, 103.559 34.170 L 74.637 35.192 72.568 37.827 C 64.744 47.792, 63.568 47.327, 66.088 35.270 C 67.096 30.446, 67.939 26.015, 67.961 25.423 C 67.995 24.492, 55.476 21.974, 50.910 21.993 C 49.676 21.999, 48.050 26.979, 43.640 44.250 M 70.678 26.636 C 70.387 27.661, 69.857 30.075, 69.500 32 C 69.143 33.925, 68.620 36.400, 68.337 37.500 C 68.034 38.678, 68.952 37.960, 70.571 35.750 L 73.319 32 85.910 31.912 C 92.834 31.864, 100.750 31.525, 103.500 31.158 C 108.146 30.538, 107.437 30.330, 93.500 28.226 C 85.250 26.981, 76.859 25.694, 74.854 25.367 C 71.853 24.877, 71.114 25.102, 70.678 26.636 M 137.771 35.250 C 135.690 38.457, 133.866 42, 134.295 42 C 134.496 42, 136.115 39.975, 137.893 37.500 C 139.670 35.025, 140.698 33, 140.177 33 C 139.656 33, 138.573 34.013, 137.771 35.250 M 138.908 66.701 C 137.482 66.922, 134.332 69.163, 131.908 71.681 L 127.500 76.260 133.500 72.529 C 138.594 69.361, 143.521 65.647, 141.964 66.150 C 141.709 66.232, 140.334 66.480, 138.908 66.701 M 79.941 70.727 C 75.422 71.091, 75.355 71.150, 72.153 77.643 C 70.377 81.245, 69.315 84.036, 69.794 83.846 C 71.493 83.170, 85.909 71.488, 85.954 70.750 C 85.979 70.338, 85.662 70.081, 85.250 70.180 C 84.838 70.279, 82.449 70.526, 79.941 70.727" stroke="none" fill="black" fill-rule="evenodd"/>
</svg>