<svg xmlns="http://www.w3.org/2000/svg" width="200" height="200" viewBox="0 0 200 200" version="1.1">
	<path d="M 92.696 27.721 C 84.989 41.222, 81.768 45.833, 76.210 51.323 L 69.303 58.146 68.659 51.323 C 68.304 47.570, 68.011 39.738, 68.007 33.917 C 68.003 28.096, 67.738 23.071, 67.417 22.751 C 66.587 21.920, 33.016 43.217, 33.619 44.192 C 33.893 44.636, 34.442 45, 34.838 45 C 35.234 45, 42.070 40.939, 50.029 35.976 L 64.500 26.952 65.138 36.226 C 65.489 41.327, 65.827 49.780, 65.888 55.012 L 66 64.523 50.250 80.230 C 35.304 95.134, 34.229 95.993, 29.181 97.066 C 26.256 97.687, 23.714 98.039, 23.533 97.848 C 23.353 97.656, 26.750 88.275, 31.084 77 C 35.417 65.725, 38.971 56.163, 38.981 55.750 C 38.991 55.337, 38.438 55.001, 37.750 55.001 C 36.648 55.002, 18.387 100.758, 19.192 101.502 C 19.361 101.659, 23.241 101.068, 27.813 100.190 L 36.126 98.594 54.163 80.197 C 64.083 70.079, 72.565 62.183, 73.010 62.650 C 74.783 64.509, 90.801 99.545, 90.172 100.189 C 89.803 100.568, 80.950 104.463, 70.500 108.845 C 58.455 113.896, 51.382 117.392, 51.179 118.395 C 50.925 119.644, 51.507 119.875, 53.929 119.489 C 63.317 117.994, 61.700 117.088, 74.068 130.772 C 80.356 137.728, 86.323 144.454, 87.328 145.717 C 89.145 148, 89.108 148.090, 81.138 160.757 C 76.728 167.766, 72.530 174.259, 71.810 175.186 C 70.582 176.766, 68.810 176.757, 43.500 175.039 C 19.438 173.406, 13.171 173.505, 15.154 175.487 C 15.440 175.773, 23.960 177.481, 34.087 179.282 C 52.319 182.526, 52.712 182.551, 74 181.896 C 85.825 181.531, 107.875 181.451, 123 181.717 L 150.500 182.200 166.869 177.100 C 175.871 174.295, 183.409 172, 183.619 172 C 183.828 172, 184 171.325, 184 170.500 C 184 168.718, 184.350 168.726, 162.599 170.043 L 145.697 171.067 129.626 167.478 C 120.787 165.503, 113.475 163.801, 113.378 163.694 C 112.915 163.184, 118.590 120.062, 119.200 119.458 C 119.586 119.078, 130.611 119.328, 143.700 120.015 C 156.790 120.702, 168.293 121.092, 169.261 120.882 C 170.405 120.634, 165.968 117.284, 156.591 111.318 L 142.160 102.135 127.830 100.915 C 119.948 100.244, 113.376 99.602, 113.224 99.488 C 113.072 99.374, 116.522 92.581, 120.889 84.391 L 128.830 69.500 152.834 68 C 185.276 65.973, 185.776 65.219, 158.376 59.654 C 141.463 56.218, 119.062 49.256, 116.387 46.604 C 115.774 45.997, 112.480 37.856, 109.067 28.514 C 105.653 19.171, 102.729 11.395, 102.568 11.234 C 102.407 11.073, 97.964 18.492, 92.696 27.721 M 93.948 31.250 C 88.863 40.367, 84.594 46.557, 80.264 51.095 L 73.971 57.690 81.601 73.595 C 85.797 82.343, 90.478 92.243, 92.004 95.596 L 94.778 101.691 79.394 108.096 C 70.932 111.618, 64.007 114.756, 64.005 115.069 C 64.002 115.381, 70.465 122.795, 78.367 131.542 L 92.733 147.447 87.847 155.245 C 85.159 159.533, 81.030 166.070, 78.670 169.771 C 76.311 173.472, 74.065 177.028, 73.679 177.673 C 73.065 178.699, 100.036 179.277, 148 179.266 C 150.311 179.265, 171.532 173.061, 170.818 172.595 C 170.643 172.481, 164.875 172.713, 158 173.111 C 145.809 173.816, 145.070 173.737, 128.073 169.907 C 118.488 167.747, 110.542 165.872, 110.414 165.740 C 110.287 165.608, 111.475 154.925, 113.054 142 C 114.634 129.075, 115.943 117.871, 115.963 117.103 C 115.994 115.951, 118.054 115.821, 127.750 116.362 C 134.213 116.723, 144.450 117.280, 150.500 117.600 L 161.500 118.181 154 113.038 C 142.494 105.149, 142.212 105.054, 125.286 103.432 C 116.656 102.606, 109.421 101.754, 109.207 101.541 C 108.994 101.327, 112.856 93.587, 117.790 84.340 C 128.249 64.741, 125.246 66.574, 148.709 65.474 C 157.202 65.076, 163.779 64.421, 163.325 64.017 C 162.871 63.614, 157.461 62.302, 151.302 61.101 C 142.527 59.390, 114.683 50.323, 113.551 48.807 C 113.425 48.638, 110.887 41.641, 107.911 33.259 C 104.935 24.876, 102.239 18.014, 101.919 18.009 C 101.600 18.004, 98.013 23.962, 93.948 31.250 M 47.500 179 C 49.150 179.420, 53.200 179.756, 56.500 179.748 L 62.500 179.733 57.500 178.954 C 54.750 178.526, 50.700 178.189, 48.500 178.206 C 44.688 178.235, 44.641 178.272, 47.500 179" stroke="none" fill="black" fill-rule="evenodd"/>
</svg>