<svg xmlns="http://www.w3.org/2000/svg" width="200" height="200" viewBox="0 0 200 200" version="1.1">
	<path d="M 101.048 24.805 L 98.851 33.696 86.592 31.149 L 74.333 28.602 59.916 34.454 C 36.971 43.768, 36.563 43.963, 37.703 45.103 C 38.413 45.813, 44.383 43.816, 56.815 38.711 L 74.896 31.288 86.198 33.779 C 92.414 35.149, 97.644 36.391, 97.820 36.538 C 98.284 36.928, 92.884 57.360, 92.083 58.246 C 91.712 58.656, 84.019 56.519, 74.988 53.496 C 65.957 50.473, 58.215 48, 57.784 48 C 57.353 48, 57 48.574, 57 49.275 C 57 49.976, 64.239 54.139, 73.086 58.525 C 81.933 62.911, 89.380 66.830, 89.634 67.233 C 90.387 68.426, 81.875 100.409, 80.514 101.500 C 78.661 102.985, 49.074 110.407, 48.258 109.591 C 47.615 108.949, 43.171 68.111, 43.052 61.750 C 43.017 59.906, 42.468 59, 41.385 59 C 40.026 59, 39.866 59.832, 40.379 64.250 C 40.714 67.138, 41.940 79.400, 43.102 91.500 C 44.265 103.600, 45.318 113.613, 45.442 113.751 C 45.566 113.889, 53.280 112.024, 62.584 109.607 C 72.876 106.933, 79.740 105.596, 80.112 106.192 C 80.476 106.774, 86.699 105.107, 95.447 102.086 C 103.544 99.289, 110.903 97, 111.800 97 C 112.697 97, 119.711 101.162, 127.387 106.250 L 141.343 115.500 128.422 116.210 C 121.315 116.601, 97.956 117.145, 76.513 117.420 C 54.909 117.697, 37.394 118.319, 37.228 118.816 C 37.063 119.310, 46.732 123.444, 58.715 128.004 C 70.697 132.564, 82.480 137.058, 84.899 137.990 L 89.298 139.686 62.399 143.991 C 34.376 148.476, 30.048 149.457, 31.587 150.975 C 32.089 151.470, 44.987 154.009, 60.250 156.617 C 75.513 159.225, 87.996 161.616, 87.991 161.929 C 87.986 162.243, 75.985 166.550, 61.323 171.500 C 46.660 176.450, 34.498 180.999, 34.295 181.609 C 34.079 182.262, 35.852 182.982, 38.603 183.359 C 44.741 184.200, 148.746 184.189, 166.342 183.345 C 185.852 182.409, 184.699 180.866, 162.286 177.915 L 144.571 175.583 135.698 168.042 C 120.966 155.520, 120.461 155.055, 121.582 155.027 C 122.177 155.012, 134.258 153.425, 148.429 151.500 C 162.600 149.575, 174.601 148, 175.097 148 C 175.594 148, 176 147.371, 176 146.601 C 176 144.971, 171.969 144.528, 143 142.973 C 110.575 141.232, 111.280 142.082, 134.808 133.098 C 145.925 128.852, 155.410 124.956, 155.886 124.439 C 156.361 123.923, 157.556 116.190, 158.540 107.255 C 160.152 92.621, 160.214 88.167, 159.167 62.341 C 158.527 46.572, 157.778 33.445, 157.502 33.169 C 157.226 32.893, 148.958 34.059, 139.128 35.760 C 120.482 38.986, 121.339 38.983, 108.694 35.839 L 104.887 34.893 105.194 25.798 C 105.606 13.565, 103.925 13.163, 101.048 24.805 M 141.782 38 C 129.197 40.347, 128.689 40.564, 133.750 41.440 C 136.088 41.845, 138 42.547, 138 43.002 C 138 43.456, 132.825 48.659, 126.500 54.564 C 120.175 60.470, 115 65.579, 115 65.919 C 115 66.259, 124.294 69.622, 135.652 73.393 C 150.095 78.188, 155.844 80.508, 154.773 81.107 C 153.930 81.579, 145.874 84.510, 136.870 87.620 C 127.867 90.730, 119.402 93.684, 118.059 94.185 C 115.815 95.022, 116.964 95.991, 132.318 106.206 C 141.502 112.316, 148.861 117.472, 148.671 117.663 C 147.803 118.531, 73.014 121.141, 60.750 120.732 C 53.188 120.479, 47 120.367, 47 120.482 C 47 120.596, 58.724 125.140, 73.053 130.578 C 93.045 138.165, 98.570 140.622, 96.803 141.142 C 95.536 141.515, 82.356 143.737, 67.514 146.081 C 52.671 148.425, 40.971 150.461, 41.514 150.605 C 42.056 150.749, 52.175 152.486, 64 154.465 C 93.866 159.462, 96 159.930, 96 161.488 C 96 162.359, 86.581 165.973, 69.250 171.750 L 42.500 180.667 81.500 181.201 C 102.950 181.494, 129.500 181.457, 140.500 181.117 L 160.500 180.500 151.611 179.193 L 142.723 177.886 128.861 165.844 C 121.238 159.221, 115 153.678, 115 153.525 C 115 153.373, 124.418 151.973, 135.930 150.415 C 147.441 148.857, 156.688 147.304, 156.478 146.965 C 156.268 146.625, 145.030 145.750, 131.505 145.021 C 110.385 143.881, 106.954 143.477, 107.208 142.158 C 107.399 141.166, 115.620 137.495, 130.448 131.782 C 143.067 126.920, 153.482 122.842, 153.593 122.721 C 153.703 122.599, 154.664 115.300, 155.729 106.500 C 157.523 91.659, 157.575 88.544, 156.440 63.500 C 155.767 48.650, 155.168 36.388, 155.108 36.250 C 154.893 35.753, 151.321 36.222, 141.782 38 M 100.754 38 C 99.199 41.434, 95.145 59.541, 95.794 60.151 C 96.183 60.515, 99.786 61.782, 103.803 62.965 L 111.106 65.116 118.803 58.148 C 123.036 54.315, 128.009 49.607, 129.854 47.685 L 133.208 44.190 127.513 42.915 C 122.094 41.703, 114.410 42.284, 104.312 44.669 C 102.353 45.132, 102.088 44.731, 101.779 40.843 C 101.575 38.281, 101.155 37.115, 100.754 38 M 105 39.692 C 105 41.282, 105.581 41.531, 108.500 41.190 C 112.150 40.764, 113.424 39, 110.082 39 C 109.027 39, 107.452 38.727, 106.582 38.393 C 105.480 37.970, 105 38.365, 105 39.692 M 81.430 59.563 C 83.041 60.492, 85.854 61.877, 87.680 62.640 C 90.516 63.825, 91 63.824, 91 62.632 C 91 61.820, 89.175 60.778, 86.629 60.137 C 84.225 59.531, 81.412 58.774, 80.379 58.454 C 79.345 58.134, 79.818 58.633, 81.430 59.563 M 94 64.292 C 94 65.002, 96.528 66.823, 99.619 68.339 C 105.014 70.985, 105.315 71.025, 107.189 69.329 C 109.087 67.611, 108.957 67.502, 102.375 65.282 C 94.509 62.629, 94 62.568, 94 64.292 M 92.125 71.250 C 90.650 75.274, 84.736 100.069, 85.152 100.486 C 85.968 101.301, 107.032 95.062, 126.930 88.111 C 138.166 84.186, 147.486 80.848, 147.640 80.693 C 147.795 80.538, 139.850 77.749, 129.985 74.495 L 112.049 68.579 109.220 71.289 C 105.749 74.614, 105.170 74.626, 99 71.500 C 93.008 68.464, 93.145 68.469, 92.125 71.250" stroke="none" fill="black" fill-rule="evenodd"/>
</svg>