<svg xmlns="http://www.w3.org/2000/svg" width="200" height="200" viewBox="0 0 200 200" version="1.1">
	<path d="M 73.006 31.414 C 66.169 39.679, 70.072 37.752, 35.500 49.941 C 25.663 53.410, 24.764 53.921, 27 54.780 C 28.375 55.307, 38.417 59.026, 49.315 63.044 L 69.130 70.348 65.834 72.924 C 59.074 78.208, 57.667 79.676, 58.737 80.337 C 59.726 80.949, 74.544 70.211, 73.774 69.441 C 73.582 69.249, 65.567 66.187, 55.963 62.636 C 46.358 59.086, 37.150 55.647, 35.500 54.995 C 32.618 53.856, 33.201 53.565, 50.357 47.588 L 68.215 41.366 74.187 34.183 C 77.472 30.232, 80.461 27.026, 80.830 27.058 C 81.198 27.090, 88.025 30.353, 96 34.308 L 110.500 41.500 111.581 46.500 C 114.021 57.787, 114.037 58, 112.411 58 C 111.565 58, 103.294 65.200, 94.031 74 C 84.633 82.927, 76.373 89.992, 75.344 89.982 C 74.330 89.972, 62.588 91.640, 49.250 93.688 C 31.999 96.338, 25 97.786, 25 98.706 C 25 99.723, 29.444 100, 45.750 100.001 L 66.500 100.003 42 114.655 C 28.525 122.714, 17.378 129.398, 17.229 129.509 C 17.079 129.619, 17.865 141.137, 18.974 155.105 C 20.083 169.072, 20.993 181.450, 20.995 182.612 L 21 184.724 71.750 185.265 L 122.500 185.807 152.250 176.218 C 168.613 170.944, 182 166.333, 182 165.973 C 182 165.612, 170.830 158.383, 157.178 149.908 L 132.355 134.500 130.207 123.607 C 129.025 117.617, 128.297 112.329, 128.588 111.857 C 129.600 110.220, 133.138 111.043, 159.316 119 C 173.791 123.400, 185.942 127, 186.317 127 C 186.693 127, 187 126.437, 187 125.749 C 187 125.061, 176.660 119.163, 164.022 112.641 C 142.466 101.518, 141.153 100.683, 142.802 99.142 C 143.768 98.239, 145.793 96.115, 147.301 94.423 L 150.043 91.346 147.553 85.716 L 145.063 80.086 164.550 58.895 C 175.268 47.240, 183.773 37.433, 183.450 37.102 C 182.876 36.514, 107.745 24.049, 107.250 24.459 C 107.113 24.573, 107.514 27.227, 108.143 30.357 C 108.771 33.487, 109.060 36.273, 108.784 36.549 C 108.508 36.825, 102.087 34.115, 94.516 30.526 C 86.945 26.937, 80.387 24, 79.944 24 C 79.501 24, 76.379 27.336, 73.006 31.414 M 111.467 32.628 C 111.849 35.173, 112.369 37.761, 112.623 38.378 C 112.878 38.995, 119.859 42.650, 128.137 46.500 C 136.415 50.350, 143.358 53.774, 143.566 54.110 C 143.775 54.445, 138.037 55.903, 130.816 57.349 C 123.596 58.795, 117.564 60.103, 117.412 60.254 C 117.261 60.406, 118.590 67.498, 120.366 76.015 L 123.596 91.500 128.548 94.227 C 135.609 98.115, 140.704 97.986, 144.117 93.834 L 146.735 90.649 144.335 85.223 L 141.935 79.796 147.392 73.648 C 150.393 70.267, 158.692 61.200, 165.834 53.500 C 172.975 45.800, 178.521 39.224, 178.159 38.886 C 177.527 38.297, 114.943 27.968, 112.136 27.990 C 111.082 27.998, 110.930 29.050, 111.467 32.628 M 114.402 46.250 C 114.760 48.038, 115.324 51.188, 115.654 53.250 C 116.353 57.610, 116.206 57.587, 128 55.157 L 136.500 53.405 125.621 48.203 C 119.638 45.341, 114.520 43, 114.246 43 C 113.973 43, 114.043 44.462, 114.402 46.250 M 95.408 76.517 L 79.500 92.033 88.500 86.849 C 93.450 83.998, 98.224 81.222, 99.108 80.681 C 100.320 79.939, 103.088 80.945, 110.358 84.773 C 115.661 87.564, 120 89.335, 120 88.708 C 120 88.081, 118.764 81.590, 117.254 74.284 C 115.115 63.933, 114.156 61, 112.912 61 C 112.034 61, 104.157 67.982, 95.408 76.517 M 88.544 89.836 L 77.587 96.500 99.440 96.770 C 111.460 96.918, 121.463 96.870, 121.670 96.663 C 122.946 95.388, 119.784 92.868, 111.112 88.250 C 105.690 85.362, 100.860 83.039, 100.377 83.086 C 99.895 83.133, 94.570 86.170, 88.544 89.836 M 58.500 95.024 L 48.500 96.790 59.595 96.895 C 69.497 96.989, 70.885 96.785, 72.500 95 C 74.272 93.043, 74.248 93.003, 71.405 93.129 C 69.807 93.199, 64 94.052, 58.500 95.024 M 55.980 114.651 C 47.724 122.709, 41.088 129.418, 41.234 129.561 C 41.380 129.703, 50.133 130.355, 60.684 131.010 L 79.869 132.199 101.459 121.858 C 113.334 116.170, 122.679 111.393, 122.226 111.242 C 121.773 111.091, 108.200 112.763, 92.063 114.957 C 75.927 117.152, 62.336 118.708, 61.862 118.415 C 59.942 117.228, 61.336 116.288, 68.250 114.108 C 72.237 112.851, 83.098 109.388, 92.384 106.413 L 109.269 101.003 115.740 103.001 C 119.299 104.101, 122.388 105, 122.605 105 C 122.822 105, 123 103.875, 123 102.500 L 123 100 96.996 100 L 70.993 100 55.980 114.651 M 125.912 103.250 C 126.483 106.069, 127.029 106.544, 130.027 106.831 C 131.927 107.014, 133.711 107.510, 133.991 107.933 C 134.497 108.700, 167.752 119.024, 169.555 118.974 C 170.075 118.959, 162.194 114.684, 152.042 109.474 C 137.439 101.978, 132.715 100, 129.419 100 L 125.253 100 125.912 103.250 M 93 109.095 C 85.025 111.787, 80.075 113.767, 82 113.496 C 83.925 113.224, 92.475 112.089, 101 110.973 C 122.624 108.143, 122.731 108.107, 116 105.914 C 112.975 104.928, 109.825 104.140, 109 104.161 C 108.175 104.183, 100.975 106.403, 93 109.095 M 38.250 120.098 C 26.007 127.493, 20.009 131.677, 20.027 132.811 C 20.097 137.118, 23.817 181.149, 24.137 181.464 C 24.337 181.660, 47.225 181.973, 75 182.160 L 125.500 182.500 150.750 174.048 C 164.637 169.400, 175.979 165.350, 175.954 165.048 C 175.911 164.537, 133.646 138.040, 133.378 138.356 C 133.310 138.435, 134.814 146.071, 136.720 155.324 C 138.626 164.577, 139.973 172.360, 139.714 172.619 C 139.455 172.878, 131.716 169.480, 122.517 165.067 L 105.791 157.044 93.646 156.481 C 71.490 155.454, 71.977 155.576, 65.105 149.357 C 61.747 146.318, 59 143.507, 59 143.109 C 59 142.712, 62.150 140.863, 66 139 C 69.850 137.137, 73 135.311, 73 134.941 C 73 134.572, 66.362 133.967, 58.250 133.598 C 50.138 133.229, 41.540 132.660, 39.145 132.334 L 34.790 131.741 46.129 120.371 C 52.365 114.117, 57.250 109.017, 56.984 109.037 C 56.718 109.057, 48.288 114.035, 38.250 120.098 M 104.500 123.379 L 85.500 132.637 98.500 133.332 C 105.650 133.714, 115.601 134.308, 120.613 134.651 L 129.727 135.276 127.659 124.638 C 126.522 118.787, 125.121 114.027, 124.546 114.061 C 123.971 114.094, 114.950 118.287, 104.500 123.379 M 71.146 139.364 L 62.791 143.627 67.842 148.168 L 72.892 152.709 89.620 153.431 L 106.348 154.153 114.424 158.214 C 118.866 160.448, 125.688 163.729, 129.583 165.505 L 136.667 168.734 133.743 154.117 C 132.136 146.078, 130.505 139.167, 130.121 138.761 C 129.552 138.159, 86.257 134.892, 81 135.054 C 80.175 135.080, 75.741 137.019, 71.146 139.364" stroke="none" fill="black" fill-rule="evenodd"/>
</svg>