<svg xmlns="http://www.w3.org/2000/svg" width="200" height="200" viewBox="0 0 200 200" version="1.1">
	<path d="M 147.531 17.139 C 126.919 25.452, 125.113 26, 118.311 26 L 111.060 26 108.883 29.782 C 106.903 33.223, 105.526 34.033, 93.586 38.782 C 86.370 41.652, 80 44, 79.430 44 C 78.861 44, 74.877 39.725, 70.578 34.500 C 63.808 26.272, 59.963 23.087, 60.014 25.750 C 60.022 26.163, 62.284 31.191, 65.041 36.923 C 67.798 42.656, 69.704 47.684, 69.277 48.096 C 68.849 48.508, 62.650 51.172, 55.500 54.017 L 42.500 59.188 37.015 57.662 C 33.998 56.823, 31.396 56.271, 31.232 56.434 C 31.069 56.598, 31.384 64.212, 31.932 73.355 L 32.930 89.978 25.466 114.239 C 21.361 127.583, 18.002 138.996, 18.001 139.603 C 18 140.295, 21.990 140.963, 28.712 141.398 C 34.603 141.779, 39.582 142.249, 39.775 142.442 C 39.968 142.635, 44.395 153.962, 49.613 167.613 C 54.832 181.265, 59.311 192.644, 59.567 192.900 C 61.168 194.501, 62.253 187.677, 65.516 155.500 C 69.161 119.549, 69.171 119.488, 72.982 110.500 C 75.498 104.564, 77.037 99.123, 77.503 94.517 C 78.179 87.836, 81.523 75, 82.589 75 C 82.868 75, 85.325 79.772, 88.048 85.604 L 93 96.208 93 141.104 C 93 165.797, 93.173 186, 93.385 186 C 93.597 186, 104.688 181.494, 118.032 175.987 C 140.486 166.720, 142.386 166.105, 143.531 167.737 C 144.212 168.707, 145.706 170.625, 146.851 172 L 148.933 174.500 148.967 171.809 C 148.985 170.329, 149.347 168.904, 149.771 168.642 C 150.195 168.380, 156.832 169.927, 164.521 172.080 C 172.209 174.233, 178.838 175.996, 179.250 175.997 C 179.662 175.999, 180 147.875, 180 113.500 C 180 61.894, 179.766 51, 178.659 51 C 177.551 51, 177.317 61.486, 177.317 111.008 C 177.317 144.013, 177.025 171.308, 176.668 171.666 C 175.976 172.357, 152.056 166.225, 150.692 165.007 C 150.248 164.610, 151.036 152.284, 152.442 137.616 C 155.688 103.775, 155.741 106.219, 151.750 105.723 C 149.556 105.451, 150.227 105.268, 153.817 105.160 C 158.369 105.023, 159.062 104.748, 158.628 103.250 C 158.349 102.287, 155.789 92.424, 152.940 81.331 L 147.760 61.163 158.911 43.331 L 170.063 25.500 153.336 25 L 136.609 24.500 152.434 18.213 C 161.137 14.754, 168.441 12.107, 168.664 12.331 C 168.887 12.554, 171.380 19.208, 174.203 27.118 C 177.027 35.028, 179.494 41.695, 179.686 41.933 C 179.877 42.172, 180.471 41.929, 181.006 41.394 C 181.916 40.484, 171.909 10.417, 170.188 8.889 C 169.810 8.553, 159.614 12.266, 147.531 17.139 M 112.025 29.953 C 111.010 31.849, 111.090 31.861, 114.740 30.348 C 119.727 28.281, 119.902 28, 116.202 28 C 114.119 28, 112.720 28.654, 112.025 29.953 M 118.036 31.927 L 108.572 35.753 101.729 47.626 L 94.887 59.500 95.482 77.860 C 96.029 94.733, 96.276 96.612, 98.537 101.073 C 101.991 107.888, 143.897 164, 145.533 164 C 146.357 164, 147.101 162.356, 147.455 159.750 C 148.326 153.340, 151.995 113.877, 151.998 110.891 L 152 108.282 138.750 107.602 C 121.080 106.695, 116 106.004, 116 104.511 C 116 103.597, 120.899 103.152, 135.025 102.782 C 145.489 102.507, 154.326 102.008, 154.662 101.672 C 155.227 101.106, 147.431 69.019, 146.062 66.278 C 145.707 65.567, 143.374 68.388, 140.483 73.028 C 135.946 80.307, 133.001 82.952, 132.999 79.750 C 132.999 79.063, 134.639 70.287, 136.644 60.250 C 138.956 48.676, 140.731 42, 141.496 42 C 142.160 42, 143.509 45.038, 144.494 48.750 C 145.479 52.462, 146.491 55.868, 146.743 56.318 C 147.138 57.022, 150.138 52.448, 162.859 31.750 L 165.163 28 146.332 28.051 L 127.500 28.101 118.036 31.927 M 68 36.498 C 68 36.811, 69.125 39.287, 70.501 42.002 C 72.282 45.516, 73.441 46.768, 74.526 46.352 C 75.773 45.873, 75.823 45.469, 74.800 44.133 C 71.916 40.367, 68 35.971, 68 36.498 M 95.151 41.080 C 91.108 42.717, 86.237 44.710, 84.325 45.509 L 80.848 46.961 84.874 51.735 L 88.899 56.509 86.367 63.612 L 83.835 70.715 88.460 79.608 L 93.084 88.500 92.564 74 C 91.985 57.817, 91.242 60.529, 100.853 43.750 C 102.665 40.587, 103.776 38.023, 103.323 38.052 C 102.871 38.080, 99.193 39.443, 95.151 41.080 M 75.734 48.839 C 74.139 49.470, 74.367 50.362, 78.087 58.019 L 82.206 66.500 83.984 62 C 85.344 58.555, 85.496 57.129, 84.631 55.916 C 82.771 53.311, 78.153 47.995, 77.815 48.070 C 77.642 48.109, 76.705 48.455, 75.734 48.839 M 139.628 59.273 C 138.665 64.348, 137.636 69.625, 137.342 71 C 137.023 72.492, 138.414 70.951, 140.794 67.177 L 144.780 60.853 143.453 55.823 C 142.724 53.057, 141.958 50.625, 141.753 50.419 C 141.547 50.214, 140.591 54.198, 139.628 59.273 M 56.191 56.613 C 43.728 61.700, 42.626 61.976, 38.840 60.957 C 36.617 60.358, 34.613 60.053, 34.387 60.279 C 34.161 60.505, 34.350 67.396, 34.807 75.593 L 35.638 90.495 28.383 113.978 C 24.393 126.894, 21.290 137.624, 21.488 137.821 C 21.685 138.019, 26.342 138.428, 31.835 138.731 L 41.823 139.281 50.006 160.891 C 58.928 184.450, 59.905 186.663, 59.997 183.500 C 60.029 182.400, 61.562 167.100, 63.404 149.500 C 66.661 118.375, 66.847 117.294, 70.217 109.976 C 72.699 104.584, 74.018 99.820, 74.871 93.166 C 75.526 88.059, 77.186 80.894, 78.560 77.244 L 81.058 70.607 76.356 60.803 C 73.770 55.412, 71.170 51.041, 70.577 51.090 C 69.985 51.140, 63.511 53.625, 56.191 56.613 M 96.079 142.263 L 96 182.027 99.250 180.683 C 101.037 179.944, 110.600 176.045, 120.500 172.017 C 130.400 167.990, 138.885 164.356, 139.355 163.942 C 139.826 163.528, 130.560 150.209, 118.765 134.345 C 106.971 118.480, 97.059 104.825, 96.739 104 C 96.419 103.175, 96.122 120.394, 96.079 142.263" stroke="none" fill="black" fill-rule="evenodd"/>
</svg>