<svg xmlns="http://www.w3.org/2000/svg" width="200" height="200" viewBox="0 0 200 200" version="1.1">
	<path d="M 67.948 32.138 C 61.223 42.237, 55.560 50.686, 55.363 50.914 C 55.167 51.141, 48.908 50.076, 41.455 48.545 C 34.001 47.015, 27.743 45.929, 27.548 46.132 C 27.352 46.334, 27.067 69.900, 26.914 98.500 C 26.627 152.061, 27.548 188, 29.209 188 C 29.727 188, 38.009 183.767, 47.613 178.593 L 65.074 169.186 89.024 168.458 L 112.974 167.730 125.737 175.241 C 132.757 179.373, 140.161 183.738, 142.191 184.941 L 145.882 187.128 156.091 171.863 L 166.300 156.599 165.332 132.549 C 164.516 112.301, 164.646 104.715, 166.153 84.555 C 167.137 71.385, 167.843 60.541, 167.721 60.458 C 167.600 60.374, 163.675 57.008, 159 52.978 C 154.325 48.948, 149.784 45.050, 148.909 44.315 C 147.560 43.181, 144.420 43.724, 128.242 47.886 C 109.352 52.747, 109.160 52.774, 108.670 50.647 C 108.397 49.466, 107.609 41.429, 106.919 32.786 C 105.658 17.010, 104.920 13.621, 103.158 15.508 C 101.957 16.795, 98.450 33.131, 97.042 44 C 96.437 48.675, 95.694 53.738, 95.391 55.250 L 94.841 58 77.112 58 C 63.071 58, 58.978 57.695, 57.441 56.532 C 55.526 55.083, 55.527 55.064, 57.500 55.056 C 58.600 55.051, 61.150 55.431, 63.167 55.900 L 66.834 56.752 74.451 36.210 C 79.240 23.296, 81.717 15.317, 81.122 14.722 C 80.528 14.128, 75.636 20.594, 67.948 32.138 M 102.777 27.500 C 101.697 30.942, 100.771 36.173, 99.532 45.830 L 98.336 55.160 101.918 54.491 C 103.888 54.123, 105.614 53.711, 105.753 53.575 C 105.892 53.439, 105.420 47.067, 104.705 39.414 C 103.990 31.761, 103.122 26.400, 102.777 27.500 M 66.283 39.490 C 58.212 51.762, 58.112 51.990, 60.532 52.597 C 64.256 53.532, 65.613 52.572, 67.273 47.828 C 68.105 45.447, 70.173 39.788, 71.868 35.250 C 73.563 30.712, 74.848 27, 74.723 27 C 74.599 27, 70.801 32.620, 66.283 39.490 M 127.576 50.847 C 117.717 53.431, 109.490 56.031, 109.292 56.623 C 108.875 57.874, 119.985 59, 132.734 59 C 139.038 59, 141.061 59.316, 140.746 60.250 C 140.427 61.199, 136.676 61.410, 125.163 61.125 L 110 60.749 110 66.375 C 110 69.620, 110.442 72, 111.045 72 C 111.620 72, 115.392 69.772, 119.427 67.049 C 126.020 62.601, 128 61.900, 128 64.017 C 128 64.392, 124.117 67.284, 119.372 70.442 L 110.743 76.184 111.363 81.342 C 111.704 84.179, 111.987 87.954, 111.991 89.730 C 111.999 92.741, 112.813 93.505, 123.983 100.989 C 136.641 109.469, 136.590 109.402, 137.324 118.500 C 137.655 122.607, 134.600 151.030, 132.466 163.707 L 131.926 166.914 124.947 167.207 L 117.969 167.500 130.235 174.689 C 136.981 178.642, 143.175 182.121, 144 182.419 C 145.069 182.804, 148.091 179.017, 154.524 169.230 L 163.548 155.500 162.613 130.713 C 161.839 110.200, 161.971 102.119, 163.378 83.836 C 164.313 71.686, 164.948 61.630, 164.789 61.490 C 157.739 55.278, 146.498 46.019, 146.074 46.074 C 145.758 46.115, 137.434 48.262, 127.576 50.847 M 29.542 106.251 C 29.578 155.003, 30.331 184, 31.563 184 C 31.730 184, 39.352 179.950, 48.500 175 L 65.132 166 77.816 165.796 C 87.636 165.639, 88.640 165.517, 82.264 165.256 C 72.903 164.874, 72.673 164.681, 71.609 156.321 L 70.950 151.142 91.484 138.961 C 102.778 132.262, 112.171 126.492, 112.358 126.140 C 112.546 125.788, 112.122 119.650, 111.416 112.500 C 110.711 105.350, 110.104 98.491, 110.067 97.258 C 110.018 95.628, 108.113 93.761, 103.089 90.420 L 96.178 85.825 90.839 89.211 C 86.661 91.862, 82.348 93.295, 71 95.803 C 63.025 97.566, 56.008 99.007, 55.406 99.004 C 54.717 99.002, 53.642 91.973, 52.500 80 C 51.503 69.550, 50.408 61, 50.067 61 C 49.726 61, 49.619 59.200, 49.829 57 C 50.038 54.800, 49.987 53, 49.715 53 C 49.443 53, 44.846 52.100, 39.500 51 C 34.154 49.900, 29.717 49, 29.640 49.001 C 29.563 49.001, 29.519 74.763, 29.542 106.251 M 102.750 57.662 C 103.438 57.940, 104.563 57.940, 105.250 57.662 C 105.938 57.385, 105.375 57.158, 104 57.158 C 102.625 57.158, 102.063 57.385, 102.750 57.662 M 55.122 78.089 C 56.070 87.489, 57.001 95.335, 57.192 95.525 C 57.382 95.715, 63.829 94.481, 71.519 92.782 C 80.750 90.742, 86.774 88.851, 89.250 87.214 C 91.313 85.850, 92.988 84.457, 92.974 84.117 C 92.959 83.778, 85.311 78.438, 75.978 72.250 C 64.474 64.623, 58.105 61, 56.204 61 L 53.398 61 55.122 78.089 M 65.550 61.872 C 67.125 63.317, 93.992 81.060, 95.456 81.621 C 96.203 81.908, 99.380 80.440, 102.514 78.359 L 108.214 74.575 107.607 70.148 C 107.273 67.713, 107 64.659, 107 63.360 L 107 61 85.800 61 C 73.687 61, 65.007 61.374, 65.550 61.872 M 103.176 81.206 L 98.852 84.212 103.676 87.478 L 108.500 90.743 108.802 85.876 C 109.265 78.414, 108.321 77.630, 103.176 81.206 M 113 98.304 C 113 100.055, 114.887 120.565, 115.422 124.626 C 115.831 127.730, 115.684 127.841, 94.905 140.126 L 73.975 152.500 74.616 157 C 74.968 159.475, 75.311 161.571, 75.378 161.658 C 75.445 161.744, 87.595 162.419, 102.377 163.158 C 120.147 164.045, 129.368 164.161, 129.589 163.500 C 129.774 162.950, 131.060 153.950, 132.449 143.500 C 134.227 130.115, 134.785 122.482, 134.335 117.670 L 133.696 110.841 123.348 103.898 C 117.431 99.928, 113 97.533, 113 98.304" stroke="none" fill="black" fill-rule="evenodd"/>
</svg>