<svg xmlns="http://www.w3.org/2000/svg" width="200" height="200" viewBox="0 0 200 200" version="1.1">
	<path d="M 69.500 22.715 C 53 24.633, 39.141 26.538, 38.703 26.948 C 38.265 27.358, 34.072 39.963, 29.386 54.958 L 20.865 82.221 29.628 120.215 L 38.391 158.209 35.715 171.790 C 34.243 179.260, 33.142 185.469, 33.269 185.588 C 33.396 185.707, 55.775 185.184, 83 184.427 C 124.885 183.261, 135.577 182.651, 152.500 180.462 C 163.500 179.039, 173.207 177.565, 174.071 177.187 C 175.438 176.589, 174.755 172.726, 168.822 147.500 C 165.071 131.550, 161.821 118.017, 161.600 117.427 C 161.323 116.687, 155.044 117.067, 141.403 118.648 C 130.516 119.909, 121.429 120.762, 121.209 120.543 C 120.990 120.324, 118.825 114.447, 116.398 107.483 L 111.985 94.822 115.742 95.370 C 117.809 95.671, 122.875 96.181, 127 96.503 C 131.125 96.826, 140.446 98.511, 147.713 100.248 C 154.980 101.986, 161.138 103.195, 161.397 102.936 C 161.770 102.564, 158.296 85.052, 155.549 73.456 L 155.065 71.412 132.783 73.222 C 120.527 74.218, 109.190 74.913, 107.589 74.766 C 105.034 74.533, 104.455 73.840, 102.851 69.106 C 101.846 66.139, 101.092 62.314, 101.175 60.606 C 101.257 58.898, 100.583 55.842, 99.677 53.815 L 98.028 50.131 102.264 51.514 C 104.594 52.274, 113.925 55.231, 123 58.083 C 132.075 60.936, 139.988 63.454, 140.585 63.678 C 141.181 63.903, 146.296 58.406, 151.952 51.462 L 162.235 38.837 158.867 35.330 C 152.912 29.127, 146.078 23.834, 144.936 24.539 C 144.263 24.956, 146.637 27.791, 150.969 31.745 C 155.069 35.487, 157.897 38.826, 157.607 39.582 C 157.329 40.307, 153.431 45.367, 148.946 50.826 L 140.790 60.753 130.145 57.377 C 124.290 55.521, 114.271 52.369, 107.880 50.374 L 96.260 46.746 93.037 38.940 C 90.861 33.670, 89.383 31.300, 88.487 31.643 C 87.424 32.051, 87.545 33.271, 89.096 37.779 C 90.161 40.873, 90.912 43.726, 90.766 44.118 C 90.620 44.511, 82.190 42.192, 72.033 38.966 C 61.876 35.740, 53.439 33.228, 53.282 33.384 C 53.126 33.540, 57.087 38.805, 62.084 45.084 C 67.080 51.363, 71.388 57.022, 71.657 57.659 C 71.925 58.297, 66.824 63.994, 60.322 70.321 C 53.820 76.647, 48.725 82.030, 49 82.282 C 49.275 82.534, 58.950 81.957, 70.500 81 C 82.050 80.043, 91.675 79.414, 91.888 79.601 C 92.755 80.364, 89.586 89.222, 88.264 89.729 C 87.481 90.029, 78.076 89.488, 67.365 88.526 C 56.654 87.564, 47.753 86.939, 47.585 87.138 C 47.416 87.337, 50.794 98.750, 55.090 112.500 C 59.387 126.250, 63.850 141.838, 65.008 147.140 L 67.114 156.780 81.262 160.322 C 89.043 162.271, 95.687 163.694, 96.025 163.484 C 96.364 163.275, 98.859 157.457, 101.571 150.555 C 104.282 143.653, 106.868 138.127, 107.318 138.276 C 108.250 138.583, 138.096 179.237, 137.689 179.644 C 137.543 179.790, 121.691 180.368, 102.462 180.928 C 83.233 181.489, 60.472 182.216, 51.883 182.545 L 36.266 183.143 38.753 170.688 L 41.239 158.232 32.482 120.261 L 23.724 82.289 31.977 55.895 C 36.517 41.378, 40.330 29.387, 40.451 29.248 C 40.703 28.959, 100.320 22, 102.540 22 C 103.343 22, 104 21.325, 104 20.500 C 104 18.622, 105.615 18.518, 69.500 22.715 M 63.194 42.265 C 65.069 44.594, 68.746 49.164, 71.365 52.419 L 76.127 58.339 65.831 68.669 L 55.536 79 59.518 78.946 C 65.819 78.861, 92.858 76.477, 93.350 75.964 C 93.595 75.709, 94.686 72.583, 95.775 69.017 L 97.754 62.534 95.257 55.449 L 92.759 48.364 80.629 44.549 C 73.958 42.451, 66.539 40.126, 64.142 39.383 L 59.784 38.031 63.194 42.265 M 98.755 68.624 C 98.469 69.106, 97.922 70.963, 97.538 72.750 C 96.893 75.757, 97.034 76, 99.421 76 C 100.839 76, 102 75.602, 102 75.115 C 102 73.280, 99.252 67.784, 98.755 68.624 M 131.500 76.049 C 120.500 77.028, 110.292 77.868, 108.816 77.915 L 106.131 78 108.187 84.250 C 109.318 87.688, 110.871 91.005, 111.638 91.622 C 112.406 92.240, 117.863 93.064, 123.767 93.454 C 129.670 93.844, 139.675 95.403, 146 96.918 C 152.325 98.433, 157.628 99.362, 157.785 98.981 C 157.942 98.601, 156.929 93.014, 155.535 86.565 C 154.141 80.116, 153 74.651, 153 74.420 C 153 74.189, 152.662 74.060, 152.250 74.134 C 151.838 74.208, 142.500 75.070, 131.500 76.049 M 98.400 78.721 C 95.573 79.071, 95.161 79.604, 93.718 84.787 C 92.848 87.913, 92.218 90.529, 92.318 90.600 C 92.418 90.672, 95.964 91.033, 100.197 91.402 L 107.893 92.074 105.624 85.346 C 103.206 78.179, 103.156 78.132, 98.400 78.721 M 51.264 91.250 C 54.238 99.026, 64.025 131.379, 66.449 141.446 L 69.567 154.391 80.533 157.170 C 86.565 158.698, 92.239 159.960, 93.142 159.974 C 94.324 159.993, 96.254 156.295, 100.042 146.750 C 102.934 139.463, 105.615 133.141, 105.999 132.702 C 106.383 132.263, 113.106 140.700, 120.939 151.452 C 128.773 162.203, 135.304 171, 135.454 171 C 135.893 171, 119.839 125.570, 119.123 124.785 C 118.764 124.392, 110.043 125.033, 99.744 126.211 C 89.445 127.389, 80.744 128.077, 80.407 127.741 C 79.086 126.419, 81.928 111.035, 85.027 102.733 C 86.827 97.912, 88.116 93.783, 87.892 93.558 C 87.547 93.214, 54.994 90, 51.845 90 C 51.262 90, 51.001 90.563, 51.264 91.250 M 88.040 102.428 C 84.817 111.529, 82.266 123.599, 83.339 124.672 C 84.018 125.351, 115.493 121.932, 116.970 121.018 C 117.601 120.628, 116.327 115.683, 113.606 107.962 C 108.679 93.982, 109.590 94.754, 96.876 93.785 L 91.252 93.356 88.040 102.428 M 140.500 121.507 C 126.054 123.189, 122.558 123.888, 122.793 125.051 C 123.146 126.794, 141.087 178.370, 141.491 178.804 C 141.879 179.220, 171.211 175.122, 171.759 174.575 C 172.298 174.035, 159.944 120.713, 159.104 119.956 C 158.772 119.657, 150.400 120.355, 140.500 121.507" stroke="none" fill="black" fill-rule="evenodd"/>
</svg>