<svg xmlns="http://www.w3.org/2000/svg" width="200" height="200" viewBox="0 0 200 200" version="1.1">
	<path d="M 102.422 4.795 C 101.728 5.262, 104.006 16.995, 109.161 39.500 C 113.444 58.200, 116.960 74.265, 116.974 75.201 C 116.997 76.718, 115.320 76.935, 101.487 77.201 C 88.026 77.460, 86.052 77.302, 86.561 76 C 91.197 64.132, 103 31.353, 103 30.343 C 103 28.260, 38.457 28.367, 37.657 30.451 C 36.926 32.356, 71.892 51.508, 73.382 50.018 C 74.634 48.766, 75.876 49.582, 58.751 40.404 L 44.003 32.500 58.001 32.223 C 65.701 32.070, 78.251 32.070, 85.892 32.223 L 99.783 32.500 91.062 56 L 82.340 79.500 93.456 80 L 104.572 80.500 77.286 85.875 C 58.372 89.600, 50 91.647, 50 92.545 C 50 94.242, 50.017 94.244, 89 99.056 C 107.425 101.330, 122.571 103.260, 122.657 103.345 C 122.935 103.620, 120.806 122.488, 120.455 122.859 C 120.268 123.057, 110.643 122.640, 99.067 121.933 C 79.653 120.748, 74.691 120.955, 77.716 122.825 C 78.353 123.218, 87.790 125.301, 98.687 127.454 L 118.500 131.368 113 133.011 C 106.145 135.059, 75.884 149.631, 67.530 154.907 L 61.315 158.832 47.658 129.899 C 40.146 113.986, 34 100.156, 34 99.165 C 34 98.174, 34.645 95.144, 35.433 92.432 C 36.969 87.143, 39.823 38.490, 38.665 37.332 C 37.024 35.691, 36.502 39.582, 35.325 62.258 C 34.565 76.897, 33.415 89.203, 32.411 93.464 L 30.752 100.500 44.908 130.482 C 52.693 146.971, 59.462 160.862, 59.949 161.349 C 60.463 161.863, 64.410 160.075, 69.358 157.086 C 83.074 148.801, 115.209 134, 119.480 134 C 119.812 134, 115.765 171.566, 115.393 171.939 C 114.990 172.344, 53.994 176.872, 47.750 176.961 C 43.244 177.025, 44.554 179.590, 50.250 181.856 C 55.138 183.800, 58.395 184.003, 97.500 184.803 L 139.500 185.663 155.379 177.761 C 166.459 172.247, 170.942 169.542, 170.210 168.810 C 169.478 168.078, 161.807 168.818, 144.830 171.258 C 131.449 173.182, 120.422 174.695, 120.327 174.622 C 120.232 174.548, 124.355 164.140, 129.491 151.494 L 138.827 128.500 151.090 124.899 L 163.353 121.298 169.667 99.899 C 173.139 88.130, 176.073 77.600, 176.185 76.500 C 176.374 74.639, 168.472 52.451, 167.003 50.721 C 166.639 50.292, 161.589 48.801, 155.780 47.407 L 145.219 44.872 138.860 31.436 C 135.362 24.046, 132.251 18, 131.946 18 C 131.642 18, 130.135 30.487, 128.599 45.750 C 127.063 61.013, 125.624 73.687, 125.403 73.917 C 125.181 74.146, 125 73.658, 125 72.833 C 125 71.265, 105.256 7.397, 104.121 5.295 C 103.764 4.633, 102.999 4.408, 102.422 4.795 M 133.074 28 C 133.058 28.825, 131.843 41.290, 130.372 55.701 L 127.699 81.901 130.478 91.701 C 132.007 97.090, 133.473 102.063, 133.736 102.750 C 134.064 103.607, 133.081 104, 130.607 104 C 128.623 104, 126.997 104.338, 126.993 104.750 C 126.989 105.162, 127.936 109.627, 129.098 114.671 L 131.210 123.841 135.855 124.449 C 141.216 125.150, 159.806 120.359, 161.187 117.920 C 161.630 117.139, 164.667 107.294, 167.936 96.043 L 173.881 75.586 169.350 63.930 L 164.820 52.275 154.301 49.887 L 143.782 47.500 138.443 37 C 135.506 31.225, 133.090 27.175, 133.074 28 M 114 47.445 C 114 49.736, 120.326 75.642, 121.078 76.433 C 123.431 78.905, 122.869 74.918, 119.018 61.807 C 115.161 48.676, 114 45.353, 114 47.445 M 122.341 85.250 L 123.394 90.500 124.299 86.738 C 125.322 82.487, 124.723 80, 122.675 80 C 121.534 80, 121.475 80.933, 122.341 85.250 M 88.500 86.538 C 74.200 89.474, 61.825 92.030, 61 92.217 C 60.175 92.404, 73.591 94.279, 90.813 96.383 C 108.035 98.486, 122.281 100.049, 122.472 99.854 C 122.662 99.659, 121.883 95.338, 120.741 90.250 C 118.918 82.134, 118.408 81.012, 116.582 81.100 C 115.437 81.154, 102.800 83.602, 88.500 86.538 M 126.676 93.076 C 125.362 97.988, 125.865 101, 128 101 C 130.352 101, 130.369 100.837, 128.647 95.076 C 127.460 91.106, 127.258 90.901, 126.676 93.076 M 124.692 113.016 C 124.326 114.382, 124.021 117.412, 124.014 119.750 C 124.002 123.338, 124.312 124, 126 124 C 128.314 124, 128.361 123.410, 126.636 116.016 C 125.548 111.353, 125.256 110.903, 124.692 113.016 M 109 126.503 C 112.575 127.313, 116.513 128.215, 117.750 128.507 C 119.329 128.880, 120 128.585, 120 127.519 C 120 126.474, 118.987 125.997, 116.750 125.991 C 114.963 125.987, 111.025 125.769, 108 125.507 L 102.500 125.031 109 126.503 M 123 128 C 123 129.717, 123.434 129.934, 125.750 129.378 C 127.263 129.016, 128.688 128.557, 128.917 128.359 C 129.568 127.797, 128.727 127.336, 125.750 126.622 C 123.434 126.066, 123 126.283, 123 128 M 133 132.009 C 133 133.847, 132.548 133.964, 127.690 133.393 L 122.380 132.769 121.116 146.635 C 120.422 154.261, 119.638 162.525, 119.376 165 C 119.004 168.500, 120.687 165.190, 126.949 150.105 C 131.377 139.437, 135 130.550, 135 130.355 C 135 130.160, 134.550 130, 134 130 C 133.450 130, 133 130.904, 133 132.009 M 137 175.066 C 115.122 178.458, 115.624 178.423, 116.362 176.500 C 116.678 175.675, 116.839 175.002, 116.719 175.005 C 116.598 175.008, 103.900 175.902, 88.500 176.991 C 73.100 178.081, 58.722 178.978, 56.550 178.986 C 53.872 178.996, 52.928 179.328, 53.617 180.017 C 54.243 180.643, 70.884 181.400, 96.897 181.986 L 139.160 182.937 149.830 177.520 C 156.669 174.048, 159.602 172.120, 158 172.151 C 156.625 172.177, 147.175 173.489, 137 175.066" stroke="none" fill="black" fill-rule="evenodd"/>
</svg>