<svg xmlns="http://www.w3.org/2000/svg" width="200" height="200" viewBox="0 0 200 200" version="1.1">
	<path d="M 144.918 22.597 L 134.335 29.911 122.918 31.080 C 115.260 31.865, 101.951 32.040, 82.500 31.611 C 54.823 31.002, 52.725 31.089, 36.500 33.505 C 27.150 34.897, 18.909 36.250, 18.187 36.511 C 13.873 38.071, 21.353 38.770, 49.193 39.409 C 66.389 39.803, 80.578 40.245, 80.724 40.390 C 80.869 40.536, 78.251 46.990, 74.906 54.733 L 68.823 68.812 55.662 72.056 C 48.423 73.840, 41.600 75.628, 40.500 76.029 C 38.567 76.734, 38.526 77.308, 39.271 93.129 C 39.695 102.133, 40.032 126.487, 40.021 147.250 C 40.010 168.012, 40.257 185, 40.571 185 C 40.884 185, 49.322 181.560, 59.321 177.356 L 77.500 169.711 102.863 169.945 L 128.225 170.178 143.081 174.589 C 151.252 177.015, 158.401 179, 158.969 179 C 159.651 179, 160.006 169.947, 160.017 152.250 C 160.027 137.537, 160.678 113.138, 161.463 98.029 C 162.248 82.920, 162.781 70.448, 162.646 70.313 C 162.512 70.179, 158.037 69.762, 152.701 69.387 C 147.365 69.012, 143 68.385, 143 67.995 C 143 67.604, 151.868 60.358, 162.706 51.892 L 182.412 36.500 177.956 35.824 C 175.505 35.452, 164.297 35.115, 153.050 35.074 C 131.040 34.994, 127.340 33.776, 143.904 32.062 C 149.037 31.531, 153.453 30.880, 153.718 30.615 C 155.189 29.144, 152.382 28.506, 146.577 28.994 C 142.960 29.297, 140 29.504, 140 29.454 C 140 29.404, 143.825 26.737, 148.500 23.529 C 153.175 20.321, 157 17.341, 157 16.907 C 157 14.764, 154.652 15.870, 144.918 22.597 M 44.065 35.141 C 41.076 35.634, 38.413 36.254, 38.148 36.518 C 37.883 36.783, 48.317 37, 61.333 37 C 74.350 37, 85 37.262, 85 37.581 C 85 38.509, 71.760 69.414, 70.975 70.317 C 70.585 70.767, 63.793 72.792, 55.883 74.817 L 41.500 78.500 41.705 81.500 C 41.817 83.150, 42.224 106.213, 42.608 132.750 C 42.992 159.288, 43.388 181, 43.487 181 C 43.586 181, 51.210 177.850, 60.429 174 L 77.191 167 102.346 167.020 L 127.500 167.039 142.250 171.421 L 157 175.804 157.012 152.652 C 157.018 139.918, 157.693 116.937, 158.511 101.582 C 159.329 86.228, 159.790 73.457, 159.537 73.203 C 159.052 72.719, 145.394 71.147, 140.867 71.054 C 138.971 71.015, 133.581 74.614, 121.628 83.901 L 105.022 96.802 118.011 106.508 C 125.155 111.847, 131 116.453, 131 116.744 C 131 117.034, 119.507 117.059, 105.460 116.797 C 91.412 116.536, 79.686 116.699, 79.401 117.161 C 79.115 117.622, 89.934 118, 103.441 118 C 117.010 118, 128 118.396, 128 118.885 C 128 119.371, 121.232 125.559, 112.960 132.635 C 98.181 145.276, 97.641 145.626, 81.881 152.750 C 73.059 156.737, 65.621 160, 65.353 160 C 65.084 160, 64.954 146.162, 65.063 129.250 L 65.263 98.500 61.707 89.743 L 58.151 80.986 61.326 78.635 C 63.072 77.342, 75.823 68.741, 89.663 59.523 C 103.502 50.304, 116.936 40.903, 119.515 38.631 L 124.205 34.500 86.852 34.373 C 66.309 34.303, 47.054 34.649, 44.065 35.141 M 121.932 41.437 C 118.394 43.835, 110.470 50.293, 104.323 55.790 L 93.145 65.783 99.323 66.364 C 102.720 66.683, 112.925 67.068, 122 67.219 L 138.500 67.492 156.794 53.124 C 166.856 45.221, 174.956 38.647, 174.794 38.516 C 174.632 38.384, 164.119 38.007, 151.432 37.677 L 128.364 37.077 121.932 41.437 M 79.741 69.407 C 70.523 75.610, 62.696 80.971, 62.346 81.320 C 61.997 81.670, 62.564 84.103, 63.606 86.728 L 65.500 91.500 66 86.898 L 66.500 82.296 81.683 86.532 C 90.033 88.862, 98.222 91.734, 99.880 92.915 L 102.895 95.061 118.666 82.781 L 134.438 70.500 119.469 69.879 C 111.236 69.538, 100.225 69.189, 95 69.105 L 85.500 68.951 91.500 63.515 C 94.800 60.525, 97.275 58.089, 97 58.103 C 96.725 58.117, 88.958 63.204, 79.741 69.407 M 68.645 88.193 C 67.362 92.982, 68.150 98.726, 71.010 105.430 C 73.875 112.148, 75.271 113.953, 77.629 113.985 C 78.461 113.996, 94.788 101.799, 99.985 97.285 C 101.415 96.042, 94.218 92.827, 83.562 89.948 C 76.928 88.156, 70.997 86.508, 70.381 86.288 C 69.766 86.067, 68.985 86.925, 68.645 88.193 M 93.044 106.232 L 83.698 113.500 93.902 113.786 C 99.514 113.943, 108.411 113.943, 113.673 113.786 L 123.240 113.500 113.615 106.500 C 108.322 102.650, 103.630 99.379, 103.190 99.232 C 102.750 99.084, 98.184 102.234, 93.044 106.232 M 68.100 131.199 L 68 155.898 71.250 154.523 C 91.556 145.935, 96.597 142.979, 109.160 132.287 L 121.837 121.500 96.260 121.233 L 70.684 120.966 73.016 118.483 C 74.727 116.661, 74.952 116, 73.859 116 C 73.040 116, 71.432 113.862, 70.285 111.250 L 68.199 106.500 68.100 131.199" stroke="none" fill="black" fill-rule="evenodd"/>
</svg>