<svg xmlns="http://www.w3.org/2000/svg" width="200" height="200" viewBox="0 0 200 200" version="1.1">
	<path d="M 93.533 9.299 C 92.690 11.334, 91.264 14.688, 90.364 16.750 L 88.728 20.500 87.980 17.199 C 87.569 15.384, 86.962 13.628, 86.631 13.298 C 85.765 12.432, 47.995 27.305, 48.026 28.500 C 48.041 29.050, 48.859 31.296, 49.845 33.491 L 51.637 37.482 42.876 50.967 C 36.985 60.034, 34.496 64.688, 35.278 65.172 C 36.029 65.636, 39.684 60.898, 45.602 51.790 L 54.763 37.689 52.941 33.619 C 51.938 31.380, 51.222 29.444, 51.350 29.317 C 51.477 29.190, 56.738 27.086, 63.041 24.642 C 69.343 22.198, 76.829 19.273, 79.676 18.142 L 84.853 16.087 85.909 21.013 C 86.946 25.845, 86.814 26.324, 78.975 46.189 L 70.983 66.438 78.429 77.617 L 85.874 88.797 68.437 103.482 C 58.847 111.559, 51 118.537, 51 118.989 C 51 119.440, 60.203 126.040, 71.452 133.655 C 82.701 141.270, 91.791 147.903, 91.654 148.395 C 91.418 149.238, 43.613 180, 42.539 180 C 42.263 180, 46.318 171.381, 51.551 160.846 C 56.783 150.312, 60.937 141.320, 60.782 140.865 C 60.627 140.410, 54.278 133.503, 46.673 125.516 L 32.845 110.993 45.847 96.254 C 52.998 88.148, 58.704 81.371, 58.527 81.194 C 58.350 81.017, 49.384 81.193, 38.603 81.585 C 22.471 82.171, 19 82.554, 19 83.747 C 19 84.987, 21.500 85.091, 36.180 84.463 L 53.359 83.729 41.132 97.555 L 28.906 111.381 43.543 126.043 L 58.180 140.704 46.670 164.344 C 39.975 178.096, 35.859 187.599, 36.830 187.064 C 44.211 182.995, 96.175 149.280, 96.268 148.500 C 96.334 147.950, 87.097 141.200, 75.742 133.500 C 64.387 125.800, 55.075 119.229, 55.048 118.897 C 55.022 118.565, 62.650 111.861, 72 104 C 81.350 96.139, 89 89.490, 89 89.225 C 89 88.960, 85.630 83.619, 81.511 77.356 L 74.023 65.968 80.856 48.859 C 84.615 39.449, 87.911 32.369, 88.182 33.125 C 88.452 33.881, 91.104 46.494, 94.075 61.154 L 99.477 87.807 96.274 92.268 L 93.071 96.728 97.096 98.543 C 99.310 99.542, 101.486 101.065, 101.932 101.929 C 102.378 102.793, 104.227 110.825, 106.041 119.778 L 109.338 136.056 106.302 139.278 C 103.101 142.676, 79.674 184.007, 80.488 184.821 C 81.162 185.496, 156.845 179.714, 158.186 178.885 C 160.043 177.737, 163.682 154.717, 165.551 132.300 L 167.318 111.099 163.105 100.900 L 158.892 90.701 170.921 72.626 C 177.537 62.684, 182.624 54.262, 182.225 53.909 C 181.826 53.556, 175.200 51.588, 167.500 49.535 C 159.800 47.483, 153.188 45.510, 152.806 45.152 C 152.424 44.793, 150.231 37.975, 147.932 30 C 145.633 22.025, 143.460 15.175, 143.104 14.778 C 142.747 14.381, 137.741 21.454, 131.978 30.497 C 126.215 39.540, 121.275 46.935, 121 46.930 C 120.725 46.925, 114.777 37.624, 107.783 26.260 L 95.066 5.598 93.533 9.299 M 92.538 19.080 L 89.736 26.221 95.618 55.109 C 98.853 70.998, 101.741 83.998, 102.037 83.999 C 102.332 83.999, 104.323 81.656, 106.463 78.790 C 109.746 74.392, 110.317 72.907, 110.128 69.253 C 109.941 65.634, 110.659 63.715, 114.519 57.522 C 118.631 50.924, 119 49.866, 117.906 47.809 C 116.231 44.659, 96.947 13.693, 96.055 12.720 C 95.662 12.291, 94.079 15.153, 92.538 19.080 M 132.753 34.250 C 128.095 41.538, 123.987 48.032, 123.625 48.681 C 123.263 49.331, 123.718 51.437, 124.636 53.362 L 126.304 56.861 119.814 65.681 L 113.324 74.500 114.075 87.500 C 114.488 94.650, 114.866 101.441, 114.913 102.592 C 114.981 104.236, 116.554 105.290, 122.250 107.513 C 126.237 109.069, 131.032 110.975, 132.904 111.749 L 136.309 113.156 126.143 123.356 L 115.978 133.557 116.455 138.028 C 116.718 140.488, 117.168 147.337, 117.457 153.250 C 117.890 162.126, 117.733 164, 116.558 164 C 114.903 164, 114.674 163.323, 112.500 152 C 110.038 139.175, 110.189 139.519, 107.913 141.578 C 105.630 143.644, 84.683 181.016, 85.404 181.737 C 85.818 182.151, 156.152 177.131, 156.660 176.651 C 157.717 175.651, 161.325 149.184, 162.665 132.592 L 164.383 111.322 160.064 100.771 L 155.745 90.220 167.402 72.973 C 173.814 63.488, 178.934 55.625, 178.780 55.502 C 178.626 55.378, 172.133 53.575, 164.351 51.495 L 150.203 47.712 146.351 34.362 C 144.233 27.019, 142.213 21.008, 141.862 21.005 C 141.511 21.002, 137.412 26.962, 132.753 34.250 M 116.747 58.995 C 114.686 62.292, 113.016 66.004, 113.036 67.245 C 113.070 69.392, 113.191 69.356, 115.549 66.500 C 120.819 60.118, 123.045 56.281, 122.421 54.655 C 121.429 52.068, 120.754 52.584, 116.747 58.995 M 106.592 83.137 C 102.969 87.989, 102.828 88.466, 103.473 93.627 C 104.104 98.684, 104.409 99.168, 108.166 101.085 L 112.183 103.134 111.468 90.817 C 111.075 84.043, 110.671 78.400, 110.570 78.277 C 110.469 78.154, 108.679 80.341, 106.592 83.137 M 98.097 94.383 C 97.208 95.454, 97.312 95.906, 98.556 96.383 C 100.879 97.275, 101 97.206, 101 95 C 101 92.675, 99.737 92.407, 98.097 94.383 M 106.295 106.750 C 106.596 108.263, 107.869 114.787, 109.126 121.250 C 110.383 127.713, 111.769 133, 112.206 133 C 113.146 133, 113.269 117.238, 112.378 110.745 C 111.899 107.245, 111.203 105.958, 109.331 105.105 C 105.906 103.544, 105.683 103.665, 106.295 106.750 M 115.348 114.750 C 115.699 118.463, 115.989 123.289, 115.993 125.475 L 116 129.450 123.487 122.012 C 127.606 117.922, 130.643 114.288, 130.237 113.936 C 129.404 113.215, 116.322 108, 115.345 108 C 114.996 108, 114.998 111.037, 115.348 114.750 M 112.737 136.750 C 112.528 137.162, 112.673 138.850, 113.060 140.500 C 113.752 143.450, 113.765 143.437, 113.882 139.750 C 113.994 136.189, 113.577 135.096, 112.737 136.750" stroke="none" fill="black" fill-rule="evenodd"/>
</svg>