<svg xmlns="http://www.w3.org/2000/svg" width="200" height="200" viewBox="0 0 200 200" version="1.1">
	<path d="M 93.538 18.843 L 77.585 32.686 65.247 26.722 C 58.461 23.441, 52.643 21.023, 52.318 21.348 C 51.834 21.833, 57.004 43.240, 58.627 47.471 C 58.883 48.137, 52.827 54.128, 45.169 60.782 C 37.096 67.798, 31.017 73.851, 30.701 75.191 C 28.932 82.678, 24.902 104.236, 25.214 104.547 C 25.417 104.751, 31.384 102.692, 38.472 99.972 C 45.561 97.253, 51.523 95.190, 51.721 95.388 C 51.920 95.587, 49.126 110.058, 45.514 127.547 C 41.901 145.036, 39.295 159.652, 39.723 160.027 C 40.150 160.403, 47.025 163.431, 55 166.757 L 69.500 172.804 98.500 175.408 C 114.450 176.841, 128.974 178.010, 130.776 178.006 C 133.454 178.001, 136.697 175.879, 148.526 166.394 C 156.487 160.011, 163.001 154.498, 163.002 154.144 C 163.002 153.790, 158.648 141.233, 153.324 126.239 C 145.635 104.582, 143.322 99.068, 142.073 99.415 C 141.208 99.656, 132.013 101.296, 121.641 103.060 L 102.782 106.268 93.782 97.268 C 85.267 88.754, 84.820 88.095, 85.489 85.052 C 86.045 82.517, 87.075 81.452, 90.348 80.029 L 94.500 78.223 91.750 77.136 C 90.237 76.539, 89 75.708, 89 75.291 C 89 74.192, 104.310 26.972, 104.573 27.259 C 104.694 27.392, 103.987 41.675, 103 59 C 102.013 76.325, 101.354 90.656, 101.534 90.848 C 102.236 91.591, 167.537 96.818, 168.141 96.179 C 169.289 94.962, 170.288 63, 169.177 63 C 167.562 63, 139.529 58.847, 139.238 58.564 C 139.094 58.424, 146.695 53.182, 156.130 46.914 L 173.283 35.518 169.391 34.874 C 167.251 34.520, 157.095 33.666, 146.822 32.975 L 128.143 31.720 119.014 18.360 C 113.993 11.012, 109.796 5, 109.688 5 C 109.579 5, 102.312 11.229, 93.538 18.843 M 95.020 21.009 C 87.606 27.538, 81.425 33.245, 81.284 33.690 C 81.144 34.136, 84.546 36.118, 88.844 38.096 L 96.660 41.691 100.945 28.596 C 105.458 14.805, 106.537 12.629, 107.549 15.268 C 107.887 16.149, 107.249 32.971, 106.131 52.650 C 105.012 72.329, 104.188 88.501, 104.299 88.588 C 104.648 88.861, 165.489 93.826, 165.724 93.601 C 165.847 93.483, 166.072 87.126, 166.224 79.475 L 166.500 65.564 149.250 63.064 C 139.762 61.689, 132.010 60.325, 132.022 60.032 C 132.034 59.740, 139.465 54.593, 148.534 48.596 C 157.604 42.599, 164.901 37.568, 164.750 37.416 C 164.598 37.265, 157.730 36.645, 149.487 36.038 C 124.022 34.164, 127.592 35.808, 117.909 21.496 C 113.284 14.660, 109.275 9.083, 109 9.102 C 108.725 9.121, 102.434 14.479, 95.020 21.009 M 56 26.667 C 56 27.034, 57.187 31.750, 58.637 37.148 L 61.275 46.962 68.235 40.792 L 75.196 34.621 66.848 30.361 C 58.741 26.223, 56 25.290, 56 26.667 M 73.996 39.277 C 72.069 41.050, 68.560 44.136, 66.198 46.137 C 62.554 49.224, 62.004 50.168, 62.561 52.387 C 62.922 53.824, 63.731 54.979, 64.358 54.954 C 64.986 54.928, 71.350 52.059, 78.500 48.577 L 91.500 42.247 84.772 39.124 C 81.072 37.406, 77.922 36.012, 77.772 36.027 C 77.622 36.042, 75.923 37.504, 73.996 39.277 M 79.324 51.170 C 70.755 55.152, 64.312 58.718, 64.525 59.361 C 64.732 59.987, 65.382 62.378, 65.969 64.674 C 67.025 68.806, 67.118 68.875, 75.268 71.571 C 79.796 73.068, 84.015 74.482, 84.645 74.713 C 85.581 75.057, 89.871 63.462, 95.548 45.250 C 95.762 44.563, 95.614 44.026, 95.219 44.058 C 94.823 44.091, 87.671 47.291, 79.324 51.170 M 46.430 63.312 L 33.500 74.598 30.926 87.724 L 28.352 100.850 34.426 98.547 C 65.646 86.710, 68 85.699, 67.993 84.131 C 67.987 82.544, 60.195 52.861, 59.639 52.306 C 59.486 52.152, 53.542 57.106, 46.430 63.312 M 68.385 73.802 C 68.653 74.736, 69.422 77.412, 70.095 79.750 C 70.767 82.088, 71.599 84, 71.945 84 C 73.893 84, 84.172 79.339, 84.074 78.500 C 84.011 77.950, 80.345 76.286, 75.928 74.802 C 68.933 72.451, 67.961 72.322, 68.385 73.802 M 77.180 85.148 C 74.191 86.296, 72.044 87.698, 72.279 88.346 C 72.510 88.981, 74.393 95.870, 76.464 103.655 C 79.992 116.916, 80.497 118.071, 84.458 121.959 L 88.687 126.109 99.093 117.445 C 104.817 112.679, 109.725 108.563, 110 108.297 C 110.275 108.031, 108.475 108.106, 106 108.463 L 101.500 109.113 91.643 99.182 C 82.383 89.851, 81.828 89.060, 82.473 86.125 C 82.850 84.406, 83.011 83.023, 82.829 83.052 C 82.648 83.081, 80.106 84.024, 77.180 85.148 M 60.750 91.337 C 56.487 92.984, 53.023 94.594, 53.051 94.916 C 53.079 95.237, 58.292 99.460, 64.634 104.299 C 71.418 109.475, 75.949 112.357, 75.639 111.299 C 75.349 110.310, 73.918 105, 72.458 99.500 C 70.997 94, 69.509 89.240, 69.151 88.922 C 68.793 88.603, 65.013 89.690, 60.750 91.337 M 53.522 102.209 C 51.784 109.633, 42.008 158.321, 42.231 158.446 C 42.379 158.529, 48.615 161.181, 56.089 164.339 L 69.679 170.081 101.089 172.890 L 132.500 175.698 146.277 164.640 C 153.854 158.559, 159.890 153.114, 159.690 152.541 C 159.490 151.969, 155.390 140.433, 150.579 126.906 L 141.832 102.313 126.666 104.975 C 116.235 106.806, 111.583 108.023, 111.767 108.871 C 111.914 109.549, 108.121 115.697, 103.338 122.534 L 94.642 134.964 91.462 132.539 C 88.594 130.351, 88.080 130.255, 86.214 131.563 C 84.154 133.005, 84.153 133.042, 85.992 139.471 C 87.008 143.024, 88.077 146.316, 88.368 146.787 C 88.659 147.258, 96.787 152.561, 106.430 158.571 C 121.468 167.945, 126.460 171.937, 123.250 172.019 C 121.369 172.068, 53.006 156.493, 53.053 156.026 C 53.082 155.737, 59.382 150.338, 67.053 144.029 C 74.724 137.720, 81 132.164, 81 131.683 C 81 131.201, 80.276 128.264, 79.391 125.154 C 77.524 118.590, 74.582 115.134, 64 107.075 C 53.986 99.449, 54.151 99.525, 53.522 102.209 M 97 122.628 C 93.975 125.149, 91.323 127.378, 91.107 127.582 C 90.368 128.279, 93.225 130.979, 94.118 130.427 C 95.014 129.873, 103.324 117.981, 102.787 118.022 C 102.629 118.033, 100.025 120.106, 97 122.628 M 82.578 126.500 C 83.476 130.329, 83.772 130.628, 85.228 129.172 C 86.154 128.246, 85.911 127.474, 84.148 125.739 L 81.874 123.500 82.578 126.500 M 69.716 145.262 C 62.631 151.253, 59.372 154.615, 60.216 155.060 C 62.014 156.009, 113.092 167.242, 113.546 166.788 C 113.750 166.584, 107.831 162.632, 100.393 158.007 C 92.955 153.382, 86.561 149.125, 86.185 148.549 C 85.808 147.972, 84.796 145.053, 83.936 142.062 C 83.076 139.071, 81.951 136.516, 81.436 136.383 C 80.921 136.250, 75.647 140.246, 69.716 145.262" stroke="none" fill="black" fill-rule="evenodd"/>
</svg>