<svg xmlns="http://www.w3.org/2000/svg" width="200" height="200" viewBox="0 0 200 200" version="1.1">
	<path d="M 30.012 32.183 L 11.746 52.500 12.376 76 C 12.723 88.925, 13.304 108.445, 13.666 119.378 L 14.324 139.256 25.412 148.081 C 35.851 156.389, 37.774 157.460, 58.256 166.375 L 80.012 175.845 108.256 170.389 L 136.500 164.933 161.786 164.313 C 175.693 163.972, 187.278 163.360, 187.529 162.953 C 187.882 162.382, 160.456 137.020, 153.411 131.402 C 152.286 130.505, 153.973 126.771, 162.606 111.042 C 168.421 100.447, 172.801 91.431, 172.339 91.007 C 171.878 90.582, 165.875 89.226, 159 87.992 C 152.125 86.759, 145.954 85.460, 145.286 85.106 C 144.505 84.691, 151.234 75.965, 164.150 60.645 C 176.174 46.382, 183.864 36.464, 183.321 35.921 C 182.777 35.377, 176.363 39.390, 167.331 45.923 L 152.248 56.834 147.473 39.667 C 144.846 30.225, 142.596 22.368, 142.472 22.207 C 142.348 22.046, 128.483 22.833, 111.660 23.957 C 94.837 25.081, 80.381 26, 79.536 26 C 78.412 26, 78 27.067, 78 29.980 C 78 33.575, 77.638 34.142, 74.250 35.851 C 66.031 39.998, 66.919 40.535, 57.143 25.499 L 48.278 11.866 30.012 32.183 M 30.654 35.521 L 14.056 54.043 14.546 63.271 C 15.060 72.952, 17 129.509, 17 134.813 C 17 137.339, 18.001 138.706, 22.592 142.445 C 25.667 144.950, 28.516 147, 28.922 147 C 29.512 147, 38.922 117.475, 43.184 102.250 C 43.685 100.463, 44.489 99, 44.972 99 C 45.454 99, 51.288 102.375, 57.935 106.500 C 64.582 110.625, 70.466 114, 71.010 114 C 71.873 114, 72.193 108.760, 72.450 90.437 C 72.489 87.657, 71.938 86.533, 69.945 85.324 C 67.515 83.850, 66.612 84.066, 51.445 89.763 C 42.675 93.057, 35.415 95.685, 35.311 95.603 C 35.056 95.403, 39.184 66.584, 39.524 66.187 C 39.671 66.015, 46.002 69.224, 53.592 73.317 C 72.686 83.614, 73.961 83.036, 73.989 64.070 C 73.999 57.044, 73.771 56.282, 69.802 50.070 C 67.492 46.456, 65.514 43.359, 65.405 43.186 C 65.296 43.014, 57.212 46.504, 47.442 50.942 C 37.672 55.380, 29.495 58.828, 29.270 58.604 C 28.609 57.942, 50.220 26, 51.329 26 C 51.886 26, 53.260 26.788, 54.382 27.750 L 56.422 29.500 54.540 26.500 C 49.767 18.890, 48.456 17.024, 47.876 17.012 C 47.533 17.006, 39.783 25.335, 30.654 35.521 M 113.711 26.504 C 103.928 27.186, 95.748 27.919, 95.534 28.133 C 95.320 28.347, 101.851 37.466, 110.048 48.397 C 122.875 65.504, 125.664 70, 123.450 70 C 123.213 70, 116.434 61.225, 108.386 50.500 C 100.338 39.775, 93.246 31.004, 92.627 31.010 C 92.007 31.015, 89.126 32.125, 86.224 33.476 L 80.948 35.932 81.554 44.216 L 82.160 52.500 90.830 60.720 C 95.599 65.241, 99.890 68.953, 100.368 68.970 C 100.845 68.986, 104.670 72.094, 108.868 75.875 L 116.500 82.749 133 70.793 C 142.075 64.218, 149.500 58.537, 149.500 58.169 C 149.500 57.801, 147.487 50.188, 145.028 41.250 L 140.556 25 136.028 25.132 C 133.537 25.205, 123.495 25.822, 113.711 26.504 M 82.750 28.689 C 81.787 28.941, 81 30.023, 81 31.094 C 81 33.011, 81.056 33.012, 84.750 31.159 C 86.813 30.124, 89.175 29.026, 90 28.718 C 91.781 28.053, 85.282 28.028, 82.750 28.689 M 45.466 38.253 C 34.904 54.213, 35.510 53.122, 37.647 52.328 C 43.215 50.258, 62.519 40.944, 62.764 40.208 C 62.922 39.733, 60.437 37.071, 57.242 34.292 L 51.432 29.238 45.466 38.253 M 73.266 39.363 L 69.032 41.524 74.016 45.818 L 79 50.111 78.985 44.805 C 78.963 37.361, 78.343 36.770, 73.266 39.363 M 146.026 64.588 C 131.465 75.180, 119.423 84.232, 119.265 84.704 C 119.108 85.177, 121.009 87.555, 123.490 89.990 C 127.638 94.061, 129.188 97, 127.187 97 C 126.740 97, 125.052 95.609, 123.437 93.909 C 121.822 92.208, 119.312 89.963, 117.861 88.919 L 115.221 87.021 107.530 92.638 L 99.838 98.255 116.169 107.111 C 125.151 111.982, 132.896 116.106, 133.380 116.277 C 134.179 116.558, 122.001 139.884, 118.697 144.400 C 117.377 146.205, 116.456 145.773, 100.404 135.836 C 91.107 130.081, 82.979 125.062, 82.342 124.684 C 81.574 124.227, 79.721 127.700, 76.842 134.991 C 74.454 141.038, 72.050 145.833, 71.500 145.647 C 70.876 145.435, 70.635 140.340, 70.860 132.106 L 71.220 118.904 50.960 133.653 L 30.700 148.401 34.328 151.538 C 36.476 153.395, 46.632 158.412, 59.228 163.840 L 80.500 173.006 106.500 167.901 C 130.929 163.105, 133.996 162.727, 157.259 161.648 L 182.017 160.500 165.581 146 C 156.542 138.025, 149.113 131.196, 149.073 130.824 C 149.033 130.452, 153.512 121.937, 159.027 111.901 C 164.542 101.865, 168.705 93.342, 168.277 92.961 C 167.850 92.580, 161.875 91.239, 155 89.982 C 148.125 88.724, 141.693 87.409, 140.706 87.059 C 139.230 86.536, 141.951 82.817, 156.026 66.115 C 165.439 54.945, 172.996 45.699, 172.820 45.568 C 172.644 45.437, 160.587 53.996, 146.026 64.588 M 73.924 51.382 L 77.278 56.264 76.607 66.632 C 76.082 74.748, 76.215 76.997, 77.218 76.985 C 80.724 76.943, 81.097 75.529, 80.410 64.894 L 79.735 54.459 75.153 50.480 L 70.570 46.500 73.924 51.382 M 83 62.782 C 83 65.514, 83.288 69.189, 83.640 70.948 C 84.343 74.466, 85.422 74.522, 92.841 71.422 C 96.268 69.990, 96.279 69.965, 94.396 67.879 C 93.353 66.723, 90.362 63.986, 87.750 61.796 L 83 57.814 83 62.782 M 41.512 71.316 C 40.583 74.257, 38.738 90.071, 39.262 90.596 C 39.893 91.227, 63.001 82.874, 62.999 82.016 C 62.998 81.732, 58.248 78.942, 52.442 75.816 C 45.794 72.236, 41.748 70.571, 41.512 71.316 M 91.500 74.717 C 87.650 76.150, 84.348 77.440, 84.162 77.583 C 83.976 77.726, 84.133 80.729, 84.511 84.256 L 85.198 90.670 91.314 93.683 L 97.430 96.696 104.965 91.185 C 109.109 88.154, 112.711 85.499, 112.969 85.285 C 113.453 84.883, 99.893 72.085, 99 72.102 C 98.725 72.107, 95.350 73.284, 91.500 74.717 M 77.750 79.689 C 74.905 80.433, 75.463 85.434, 78.547 86.839 C 81.990 88.408, 82 88.403, 82 85.082 C 82 81.799, 81.111 78.941, 80.143 79.116 C 79.789 79.180, 78.713 79.438, 77.750 79.689 M 71.500 83 C 71.840 83.550, 72.316 84, 72.559 84 C 72.802 84, 73 83.550, 73 83 C 73 82.450, 72.523 82, 71.941 82 C 71.359 82, 71.160 82.450, 71.500 83 M 74.792 100.750 C 74.559 107.213, 74.490 112.667, 74.638 112.871 C 74.786 113.074, 76.729 111.799, 78.954 110.037 C 82.833 106.964, 82.999 106.599, 82.986 101.166 C 82.979 98.050, 82.716 94.542, 82.402 93.372 C 81.892 91.472, 78.307 89, 76.061 89 C 75.596 89, 75.025 94.287, 74.792 100.750 M 85.601 99.250 C 85.969 102.138, 86.333 104.586, 86.409 104.690 C 86.485 104.795, 88.321 103.391, 90.489 101.570 L 94.431 98.261 90.256 96.130 C 87.959 94.959, 85.821 94, 85.505 94 C 85.190 94, 85.233 96.362, 85.601 99.250 M 91.669 104.137 C 88.551 106.348, 86 108.910, 85.999 109.829 C 85.999 110.748, 85.149 113.750, 84.111 116.500 L 82.223 121.500 99.515 132.122 L 116.806 142.744 123.403 130.731 C 127.031 124.124, 130 118.421, 130 118.058 C 130 117.695, 128.088 116.431, 125.750 115.250 C 123.412 114.068, 116.063 110.179, 109.419 106.608 L 97.338 100.115 91.669 104.137 M 45.475 104.250 C 43.976 108.301, 34.276 141.555, 34.516 141.820 C 34.880 142.221, 68.916 117.686, 68.965 116.988 C 69.005 116.409, 47.531 103, 46.563 103 C 46.219 103, 45.729 103.563, 45.475 104.250 M 78.522 113.679 L 74.658 116.305 77.075 118.262 L 79.492 120.219 81.323 116.020 C 82.330 113.710, 82.981 111.648, 82.770 111.437 C 82.559 111.226, 80.647 112.235, 78.522 113.679 M 73.991 122.771 C 73.987 124.272, 73.750 127.975, 73.466 131 C 72.914 136.871, 73.153 136.615, 76.830 127.380 L 78.868 122.261 76.434 121.152 C 74.180 120.125, 73.999 120.244, 73.991 122.771" stroke="none" fill="black" fill-rule="evenodd"/>
</svg>