<svg xmlns="http://www.w3.org/2000/svg" width="200" height="200" viewBox="0 0 200 200" version="1.1">
	<path d="M 63.612 11.046 C 62.810 12.946, 59.195 21.475, 55.578 30 C 51.961 38.525, 49.001 45.974, 49 46.553 C 49 47.252, 56.311 46.833, 70.750 45.308 C 82.713 44.045, 93.326 43.121, 94.336 43.255 C 95.968 43.473, 90.336 48.289, 68.759 65.127 C 66.711 66.726, 66.926 67.042, 81.006 83.127 C 88.889 92.132, 95.705 99.920, 96.153 100.433 C 96.600 100.947, 97.204 101.129, 97.494 100.839 C 97.784 100.549, 100.037 89.822, 102.500 77 C 104.963 64.178, 107.096 53.579, 107.239 53.445 C 107.383 53.311, 115.533 61.057, 125.352 70.658 L 143.203 88.115 145.623 118.307 C 148.411 153.094, 148.656 155, 150.340 155 C 151.260 155, 152.119 147.888, 153.590 128.122 L 155.590 101.243 153.356 71.372 C 152.127 54.942, 151.094 41.448, 151.060 41.384 C 150.951 41.173, 136.609 42.058, 131.250 42.607 C 128.363 42.902, 126 43.624, 126 44.211 C 126 44.936, 129.698 45.116, 137.500 44.771 L 149 44.264 149 46.959 C 149 48.442, 149.870 61.545, 150.932 76.077 C 152.637 99.395, 152.717 104.263, 151.606 117.500 C 150.913 125.750, 150.083 131.825, 149.761 131 C 149.439 130.175, 148.454 120.050, 147.572 108.500 L 145.968 87.500 127.372 68.878 C 117.144 58.636, 109.164 50.031, 109.638 49.756 C 110.112 49.481, 116.863 45.604, 124.640 41.141 L 138.779 33.027 159.419 37.376 C 170.770 39.768, 180.207 41.899, 180.389 42.112 C 180.572 42.326, 179.903 56, 178.903 72.500 C 177.903 89.002, 177.066 115.717, 177.043 131.876 L 177 161.252 162.250 160.790 L 147.500 160.328 127.682 167.763 C 116.782 171.852, 107.755 175.041, 107.622 174.849 C 107.489 174.657, 107.965 160.358, 108.680 143.074 C 109.395 125.789, 109.872 111.550, 109.740 111.431 C 108.753 110.540, 67.605 94.062, 67.252 94.415 C 66.887 94.780, 78.268 114.625, 96.998 146.283 L 99.236 150.065 85.658 141.545 L 72.081 133.025 62.714 142.763 C 57.562 148.118, 51.429 154.618, 49.086 157.206 C 46.471 160.095, 41.536 163.691, 36.308 166.518 C 31.623 169.051, 27.686 170.983, 27.558 170.812 C 27.430 170.640, 32.178 156.550, 38.110 139.500 C 44.042 122.450, 48.919 107.816, 48.948 106.980 C 48.978 106.092, 44.843 102.982, 39 99.500 C 33.500 96.222, 29 93.299, 29 93.006 C 29 92.712, 33.500 85.307, 39 76.550 C 44.500 67.793, 49 60.288, 49 59.873 C 49 57.783, 46.412 58.841, 34 66.003 C 26.575 70.288, 20.357 73.410, 20.182 72.942 C 20.007 72.474, 23.269 59.029, 27.432 43.066 C 31.594 27.102, 35 13.806, 35 13.520 C 35 13.234, 34.400 13, 33.667 13 C 32.238 13, 14.732 78.250, 16.019 78.784 C 16.395 78.940, 22.508 75.725, 29.602 71.639 C 36.696 67.553, 42.644 64.343, 42.819 64.507 C 42.995 64.671, 39.007 71.399, 33.958 79.458 C 28.909 87.518, 24.941 94.244, 25.139 94.406 C 25.338 94.568, 29.900 97.305, 35.277 100.489 C 40.655 103.674, 45.287 106.656, 45.572 107.117 C 45.857 107.578, 40.861 123.081, 34.469 141.568 C 28.078 160.055, 23.084 175.418, 23.373 175.707 C 23.662 175.995, 28.844 173.592, 34.889 170.366 C 45.260 164.831, 46.600 163.738, 58.613 151 C 65.616 143.575, 71.725 137.347, 72.190 137.161 C 72.654 136.974, 79.505 140.912, 87.413 145.911 C 101.637 154.903, 104 156.041, 104 153.900 C 104 153.296, 96.989 140.882, 88.419 126.315 C 79.849 111.747, 72.987 99.702, 73.169 99.547 C 73.526 99.243, 105.874 112.541, 106.639 113.306 C 106.893 113.559, 106.545 128.211, 105.866 145.866 C 105.187 163.520, 104.869 178.202, 105.159 178.493 C 105.450 178.783, 115.319 175.396, 127.091 170.966 L 148.495 162.911 164.248 163.603 L 180 164.295 180.010 131.898 C 180.015 114.079, 180.668 88.925, 181.460 76 C 182.252 63.075, 183.006 49.575, 183.136 46 L 183.373 39.500 160.937 34.803 L 138.500 30.106 122.660 39.190 L 106.821 48.275 104.221 45.676 C 101.635 43.090, 101.632 43.064, 103.561 40.897 L 105.500 38.717 101.587 39.435 L 97.674 40.152 81.371 23.872 L 65.069 7.591 63.612 11.046 M 65.532 13.948 C 63.803 16.746, 53.047 43.380, 53.474 43.807 C 54.074 44.407, 88.639 41.105, 91.594 40.166 C 93.419 39.586, 91.919 37.793, 79.924 26.217 C 72.353 18.911, 65.877 13.390, 65.532 13.948 M 84.806 55.767 C 77.274 61.670, 71.199 66.826, 71.306 67.225 C 71.759 68.919, 95.274 95.060, 95.837 94.496 C 96.178 94.156, 98.338 84.117, 100.637 72.188 L 104.817 50.500 102.222 47.750 C 100.794 46.237, 99.373 45.008, 99.063 45.017 C 98.753 45.026, 92.338 49.864, 84.806 55.767" stroke="none" fill="black" fill-rule="evenodd"/>
</svg>