<svg xmlns="http://www.w3.org/2000/svg" width="200" height="200" viewBox="0 0 200 200" version="1.1">
	<path d="M 113.250 30.430 C 106.513 40.291, 101 47.859, 101 47.247 C 101 46.635, 102.612 39.091, 104.583 30.483 C 106.553 21.875, 107.946 14.612, 107.677 14.344 C 107.409 14.076, 99.834 17.601, 90.845 22.178 L 74.500 30.500 74.232 54.265 L 73.964 78.029 71.732 77.465 C 70.504 77.155, 63.650 75.208, 56.500 73.137 L 43.500 69.373 43.768 61.936 C 44.124 52.063, 44.872 47.803, 46.114 48.571 C 46.775 48.979, 46.886 47.858, 46.432 45.348 C 45.530 40.355, 45.123 39.739, 43.207 40.474 C 42.092 40.902, 38.243 37.721, 30.342 29.842 C 24.141 23.659, 18.880 18.802, 18.650 19.050 C 18.421 19.297, 17.279 34.125, 16.112 52 C 13.579 90.813, 13.008 166.978, 15.250 167.028 C 15.938 167.044, 23.688 168.106, 32.472 169.390 L 48.445 171.724 72.171 155.886 L 95.897 140.048 109.576 164.024 C 117.099 177.211, 123.535 187.970, 123.877 187.933 C 124.220 187.897, 133.557 177.450, 144.627 164.717 L 164.755 141.568 160.836 136.921 L 156.918 132.274 160.084 119.635 L 163.249 106.995 157.988 98.982 C 154.818 94.154, 151.888 90.783, 150.614 90.500 C 143.929 89.014, 101.369 81, 100.163 81 C 99.370 81, 98.177 81.743, 97.512 82.652 C 96.391 84.185, 95.824 84.174, 89.652 82.504 C 85.993 81.513, 83 80.432, 83 80.102 C 82.999 79.312, 93.337 64.004, 93.656 64.322 C 93.791 64.457, 93.204 67.621, 92.353 71.353 C 91.502 75.085, 90.990 78.324, 91.217 78.550 C 91.760 79.093, 161.307 61.100, 162.154 60.197 C 163.162 59.123, 167.769 37.535, 167.053 37.237 C 166.571 37.036, 141.420 44.298, 127.773 48.579 C 126.186 49.076, 126.023 47.629, 125.773 30.810 L 125.500 12.500 113.250 30.430 M 89.750 25.560 L 77 32.015 77 55.401 C 77 73.358, 77.294 78.899, 78.267 79.272 C 79.035 79.567, 82.777 74.979, 87.764 67.629 L 95.993 55.500 99.997 38.224 C 104.269 19.787, 104.407 18.972, 103.250 19.052 C 102.838 19.081, 96.763 22.009, 89.750 25.560 M 110.576 39.048 C 99.172 55.739, 98.557 56.903, 96.468 65.750 C 95.267 70.838, 94.704 75, 95.217 75 C 96.361 75, 159.337 58.773, 159.909 58.331 C 160.552 57.835, 163.938 41.604, 163.492 41.158 C 163.273 40.939, 154.185 43.450, 143.297 46.738 L 123.500 52.715 123 37.156 L 122.500 21.596 110.576 39.048 M 20.893 25.006 C 20.834 25.278, 19.821 39.900, 18.643 57.500 C 16.841 84.413, 16.579 95.459, 17 126.982 L 17.500 164.463 32.500 166.642 L 47.500 168.820 72.160 152.468 L 96.820 136.116 110.160 159.550 C 117.497 172.440, 123.799 182.988, 124.165 182.993 C 124.711 182.999, 155.571 148.221, 159.736 142.906 C 160.767 141.591, 160.390 140.648, 157.475 137.242 L 153.977 133.155 157.178 120.199 L 160.378 107.242 155.636 100.302 L 150.894 93.362 125.918 88.544 C 112.181 85.894, 100.654 84.012, 100.304 84.363 C 99.357 85.309, 99.554 85.385, 112 88.887 C 133.394 94.906, 137 96.082, 137 97.042 C 137 98.617, 135.016 98.223, 116.481 92.967 C 106.720 90.198, 98.629 88.061, 98.502 88.217 C 97.993 88.841, 96 92.897, 96 93.309 C 96 93.552, 101.825 94.327, 108.946 95.033 C 121.552 96.281, 125.179 97.155, 123.738 98.596 C 123.112 99.221, 101.692 97.566, 96.457 96.487 C 94.756 96.136, 93.728 97.446, 90.333 104.292 L 86.254 112.518 100.687 123.452 C 115.887 134.967, 116.445 135.471, 115.565 136.895 C 115.129 137.601, 92.848 129.474, 80.227 124.007 L 77.955 123.022 80.421 118.155 L 82.888 113.288 78.444 109.958 L 74 106.628 74 100.100 C 74 94.528, 73.799 93.786, 72.631 95.036 C 71.878 95.841, 62.376 109.550, 51.515 125.500 C 40.654 141.450, 31.588 154.695, 31.367 154.933 C 31.147 155.172, 30.542 154.942, 30.023 154.423 C 29.431 153.831, 34.731 141.602, 44.235 121.632 L 59.392 89.786 65.273 90.451 C 72.387 91.256, 74 90.234, 74 84.920 L 74 81.085 67.250 79.117 C 63.538 78.034, 57.301 76.215, 53.392 75.074 C 49.483 73.934, 45.824 73, 45.261 73 C 44.699 73, 43.489 78.063, 42.574 84.250 C 40.225 100.128, 40.026 100.947, 38.648 100.418 C 37.707 100.057, 37.975 93.770, 39.823 72.839 L 42.216 45.727 31.608 35.119 C 25.774 29.285, 20.952 24.734, 20.893 25.006 M 78.744 85.857 C 76.483 89.683, 76.525 92, 78.853 92 C 79.873 92, 83.430 92.285, 86.759 92.633 C 92.751 93.259, 92.827 93.234, 94.396 90.201 L 95.981 87.136 90.740 85.632 C 80.353 82.649, 80.642 82.644, 78.744 85.857 M 53.341 108.750 C 44.321 127.591, 40.977 135, 41.493 135 C 42.565 135, 69.009 94.823, 68.490 93.983 C 68.155 93.443, 66.307 93, 64.381 93 L 60.881 93 53.341 108.750 M 77 99.991 C 77 105.073, 77.289 105.838, 79.960 107.812 C 81.587 109.015, 83.291 110, 83.745 110 C 84.682 110, 91.315 96.982, 90.694 96.361 C 90.472 96.139, 87.300 95.598, 83.645 95.158 L 77 94.358 77 99.991 M 83.458 118.081 C 82.575 119.789, 82.057 121.391, 82.308 121.641 C 82.999 122.332, 105 130.865, 105 130.442 C 105 130.239, 100.514 126.676, 95.032 122.524 L 85.064 114.975 83.458 118.081" stroke="none" fill="black" fill-rule="evenodd"/>
</svg>