<svg xmlns="http://www.w3.org/2000/svg" width="200" height="200" viewBox="0 0 200 200" version="1.1">
	<path d="M 27 9.559 C 27 9.867, 23.801 26.854, 19.891 47.309 L 12.781 84.500 13.948 128.974 C 14.590 153.435, 15.225 173.559, 15.360 173.693 C 15.592 173.926, 68.297 167.909, 68.686 167.606 C 68.789 167.526, 70.358 154.498, 72.174 138.655 C 73.989 122.812, 75.735 109.429, 76.052 108.915 C 76.377 108.391, 80.512 109.413, 85.484 111.248 L 94.338 114.515 96.227 120.181 L 98.116 125.848 84.545 146.174 C 72.326 164.475, 71.200 166.523, 73.237 166.726 C 75.438 166.946, 116.335 169.281, 140.500 170.568 L 152.500 171.206 160.443 155.167 C 168.227 139.449, 168.443 139.139, 171.193 139.689 C 174.352 140.320, 174.736 139.471, 172.440 136.933 C 171.009 135.353, 171.389 134.194, 177.001 122.999 C 180.367 116.283, 182.982 110.653, 182.811 110.487 C 182.640 110.322, 174.850 107.148, 165.500 103.434 C 156.150 99.720, 148.348 96.564, 148.162 96.420 C 147.976 96.276, 153.489 85.756, 160.412 73.043 C 167.336 60.330, 173 49.667, 173 49.347 C 173 49.027, 168.573 43.228, 163.163 36.459 L 153.326 24.153 147.817 29.661 L 142.309 35.170 103.569 22.503 C 82.263 15.537, 64.598 10.069, 64.314 10.352 C 64.031 10.636, 65.644 22.557, 67.899 36.843 C 70.155 51.129, 72 63.125, 72 63.500 C 72 63.875, 69.089 64.032, 65.532 63.850 L 59.064 63.517 44.963 76.508 C 37.207 83.654, 29.430 90.771, 27.681 92.325 L 24.500 95.150 31 94.555 C 34.575 94.228, 45.965 92.924, 56.311 91.658 L 75.121 89.355 74.449 95.928 C 74.079 99.542, 73.450 102.854, 73.051 103.287 C 72.652 103.720, 71.015 103.571, 69.413 102.956 C 67.811 102.341, 63.278 100.810, 59.340 99.554 L 52.180 97.270 41.979 122.051 C 36.272 135.916, 32.104 147.359, 32.517 148.028 C 33 148.809, 40.187 142.332, 53.226 129.362 C 64.210 118.438, 72.966 110.400, 72.685 111.500 C 72.405 112.600, 70.941 124.750, 69.433 138.500 C 67.925 152.250, 66.321 163.917, 65.868 164.427 C 65.031 165.371, 18.839 171.165, 18.090 170.421 C 17.864 170.197, 17.227 150.773, 16.673 127.257 L 15.667 84.500 21.923 51.500 C 25.364 33.350, 28.272 18.404, 28.386 18.287 C 28.500 18.170, 31.237 24.470, 34.470 32.287 C 44.002 55.340, 45.002 57.398, 46.122 56.278 C 46.810 55.590, 46.096 51.343, 43.908 43.115 C 41.185 32.873, 40.410 31.052, 38.970 31.509 C 37.586 31.949, 36.358 29.869, 32.489 20.526 C 28.211 10.195, 27 7.775, 27 9.559 M 67.415 16.750 C 67.731 18.262, 69.578 29.599, 71.520 41.943 C 73.463 54.286, 75.153 64.461, 75.276 64.553 C 75.399 64.645, 78.941 64.999, 83.148 65.339 L 90.795 65.957 93.648 62.229 C 96.478 58.529, 96.504 58.365, 97 41 L 97.500 23.500 83 18.768 C 75.025 16.165, 68.127 14.027, 67.671 14.018 C 67.214 14.008, 67.099 15.238, 67.415 16.750 M 99.842 42.990 L 100.183 57.981 97.104 61.868 L 94.026 65.755 97.138 66.378 C 98.850 66.720, 102.562 67, 105.388 67 L 110.525 67 125.274 52.227 L 140.022 37.454 120.761 32.704 C 110.167 30.091, 101.050 27.964, 100.500 27.976 C 99.863 27.990, 99.624 33.444, 99.842 42.990 M 133 48.500 C 119.383 62.130, 114.118 68.001, 115.510 68.003 C 117.547 68.007, 136.129 69.539, 146 70.518 L 151.500 71.063 141.534 61.047 C 134.592 54.070, 131.886 50.714, 132.616 49.984 C 133.345 49.255, 137.230 52.610, 145.421 61.046 C 151.888 67.705, 157.289 73.007, 157.424 72.827 C 159.972 69.425, 169.769 49.427, 169.284 48.618 C 167.697 45.973, 153.722 29, 153.131 29 C 152.773 29, 143.714 37.775, 133 48.500 M 46.629 78.544 C 39.101 85.546, 33.068 91.376, 33.221 91.500 C 33.374 91.623, 42.950 90.532, 54.500 89.076 C 71.292 86.958, 75.468 86.134, 75.338 84.964 C 75.249 84.159, 74.632 79.787, 73.966 75.250 L 72.756 67 69.503 67 C 67.714 67, 64.915 66.733, 63.283 66.407 C 60.567 65.863, 59.154 66.893, 46.629 78.544 M 76.324 71.750 C 76.643 73.813, 77.209 77.862, 77.581 80.750 C 78.220 85.707, 78.418 86, 81.129 86 C 84.263 86, 84.651 84.843, 82.987 80.465 C 82.122 78.190, 82.414 77.201, 84.987 73.703 C 86.644 71.450, 88 69.245, 88 68.803 C 88 68.361, 85.242 68, 81.872 68 L 75.744 68 76.324 71.750 M 88.186 73.581 C 85.117 77.753, 84.957 78.340, 86.014 81.542 C 87.859 87.134, 90.874 86.298, 99.693 77.750 L 107.173 70.500 103.337 69.808 C 101.227 69.427, 97.700 69.107, 95.500 69.097 C 91.907 69.080, 91.163 69.537, 88.186 73.581 M 105.137 76.362 C 99.789 81.757, 97.275 85.184, 99.816 83.614 C 101.793 82.392, 117.443 93.129, 141.846 112.450 C 162.272 128.622, 168.394 132.993, 169.093 131.904 C 172.711 126.268, 179.040 112.645, 178.349 111.980 C 177.882 111.530, 169.958 108.152, 160.740 104.474 L 143.980 97.786 150.092 86.328 C 153.453 80.026, 156.031 74.697, 155.819 74.486 C 155.608 74.275, 146.900 73.403, 136.467 72.548 C 126.035 71.694, 116.099 70.810, 114.387 70.583 C 111.666 70.222, 110.500 70.951, 105.137 76.362 M 96.374 86.689 C 95.205 86.919, 93.225 88.197, 91.973 89.529 L 89.697 91.951 93.089 101.971 L 96.481 111.990 130.942 123.483 C 149.896 129.803, 164.750 134.363, 163.952 133.614 C 163.153 132.866, 151.475 123.519, 138 112.844 C 116.353 95.695, 101.910 85.718, 99.338 86.136 C 98.877 86.211, 97.543 86.460, 96.374 86.689 M 80.364 88.691 C 78.129 89.129, 77 92.365, 77 98.333 L 77 101.416 81.500 97 C 84.240 94.311, 86 91.687, 86 90.292 C 86 87.971, 85.199 87.744, 80.364 88.691 M 81.647 100.250 L 77.115 105.500 84.807 108.114 C 89.038 109.552, 92.608 110.643, 92.741 110.540 C 93.314 110.092, 87.739 95, 87 95 C 86.549 95, 84.140 97.362, 81.647 100.250 M 51.813 105.250 C 50.923 107.588, 47.214 116.700, 43.570 125.500 L 36.944 141.500 53.972 124.511 C 63.337 115.167, 71 107.217, 71 106.843 C 71 106.161, 56.392 101, 54.462 101 C 53.895 101, 52.703 102.912, 51.813 105.250 M 98 116.322 C 98 116.499, 98.734 118.799, 99.632 121.432 L 101.263 126.221 88.687 144.833 C 81.771 155.069, 76.265 163.598, 76.452 163.785 C 76.824 164.158, 112.826 166.416, 136.185 167.533 L 150.870 168.235 158.404 153.191 L 165.939 138.146 132.719 127.073 C 101.063 116.521, 98 115.573, 98 116.322" stroke="none" fill="black" fill-rule="evenodd"/>
</svg>