<svg xmlns="http://www.w3.org/2000/svg" width="200" height="200" viewBox="0 0 200 200" version="1.1">
	<path d="M 31.508 4.250 C 31.272 4.938, 28.898 17.297, 26.234 31.715 L 21.389 57.929 30.180 66.679 C 36.044 72.516, 39.304 75.096, 39.971 74.429 C 40.639 73.761, 38.212 70.682, 32.681 65.180 L 24.390 56.932 29.049 31.945 C 31.612 18.202, 34.001 6.665, 34.359 6.307 C 35.065 5.602, 37.153 5.770, 112 12.562 C 139.775 15.082, 163.284 17.449, 164.243 17.822 C 165.311 18.238, 153.132 21.937, 132.743 27.390 C 114.459 32.279, 98.487 36.655, 97.250 37.115 C 92.561 38.856, 95.091 40.001, 103.750 40.056 L 112.500 40.112 102.465 44.136 L 92.430 48.160 67.215 36.677 C 53.347 30.361, 42 25.447, 42 25.758 C 42 26.068, 46.098 33.941, 51.107 43.254 C 57.310 54.784, 59.889 60.511, 59.193 61.207 C 58.497 61.903, 59.760 64.186, 63.155 68.365 C 69.579 76.273, 81.123 97.672, 78.090 96.048 C 76.275 95.077, 76 95.209, 76 97.051 C 76 99.141, 80.596 130.402, 81.538 134.717 C 82.007 136.867, 81.780 136.830, 73.922 133.467 C 69.467 131.560, 65.454 130, 65.004 130 C 64.554 130, 54.863 141.025, 43.470 154.500 C 32.076 167.975, 22.608 179, 22.431 179 C 22.253 179, 22.728 176.863, 23.486 174.250 C 24.244 171.638, 28.511 156.103, 32.970 139.729 L 41.076 109.958 37.371 97.979 C 34.883 89.935, 33.193 86, 32.226 86 C 31.434 86, 30.992 86.563, 31.245 87.250 C 31.497 87.938, 33.155 93.317, 34.930 99.203 L 38.156 109.907 28.078 146.861 C 22.535 167.185, 18 184.339, 18 184.981 C 18 188.072, 22.306 183.679, 41.012 161.500 C 52.146 148.300, 62.244 136.463, 63.454 135.196 L 65.653 132.893 74.995 136.945 C 80.133 139.173, 84.532 140.802, 84.770 140.563 C 85.008 140.325, 83.801 131.257, 82.087 120.413 C 80.373 109.569, 79.138 100.529, 79.342 100.324 C 80.634 99.032, 83.204 102.394, 88.278 112.017 C 91.807 118.708, 98.788 129.163, 106.211 138.872 L 118.366 154.769 120.292 152.635 L 122.217 150.500 120.773 153 C 108.757 173.790, 104.720 180.004, 103.212 180.032 C 101.698 180.060, 101.726 180.234, 103.448 181.536 C 104.519 182.347, 106.094 182.806, 106.948 182.556 C 107.801 182.307, 125.825 181.337, 147 180.401 C 181.856 178.859, 188.484 178.150, 186.507 176.174 C 186.296 175.963, 176.758 173.428, 165.312 170.541 C 153.865 167.653, 144.585 164.888, 144.690 164.396 C 144.794 163.903, 148.371 153.212, 152.639 140.637 L 160.399 117.774 157.047 115.038 C 154.740 113.156, 153.947 111.866, 154.502 110.901 C 154.946 110.131, 161.568 99.666, 169.218 87.647 C 176.868 75.628, 182.986 65.652, 182.812 65.479 C 182.638 65.305, 167.872 63.925, 149.998 62.411 L 117.500 59.659 107.103 54.810 C 101.385 52.142, 96.885 49.788, 97.103 49.577 C 97.322 49.366, 102.675 47.077, 109 44.489 C 119.783 40.078, 121.186 39.757, 131.500 39.336 L 142.500 38.887 164.744 28.270 C 176.978 22.431, 186.777 17.443, 186.519 17.186 C 186.013 16.680, 40.647 3.079, 35.219 3.030 C 33.414 3.013, 31.744 3.563, 31.508 4.250 M 170.495 19.361 C 169.948 20.110, 160.613 24.193, 149.750 28.434 C 138.887 32.676, 130 36.331, 130 36.558 C 130 36.784, 132.813 36.715, 136.250 36.403 C 141.321 35.944, 145.747 34.303, 159.715 27.706 C 170.331 22.691, 176.464 19.279, 175.715 18.803 C 173.846 17.615, 171.595 17.856, 170.495 19.361 M 124 32.546 C 108.663 36.806, 108.563 36.852, 114.500 36.920 C 119.243 36.975, 122.699 36.135, 131 32.911 C 147.558 26.480, 146.109 26.404, 124 32.546 M 48 31.460 C 48 31.657, 51.406 38.141, 55.569 45.868 L 63.137 59.917 67.819 58.059 C 84.515 51.433, 87.163 50.290, 87.322 49.645 C 87.420 49.249, 80.075 45.534, 71 41.390 C 51.627 32.543, 48 30.977, 48 31.460 M 79.314 56.387 C 72.076 59.199, 65.864 61.794, 65.508 62.153 C 64.208 63.465, 69.006 70.658, 75.333 76.882 L 81.819 83.263 98.752 82.540 L 115.684 81.816 122.592 85.317 C 127.451 87.780, 132.797 91.947, 140.614 99.366 L 151.728 109.912 164.910 89.302 C 172.160 77.966, 177.734 68.374, 177.296 67.986 C 176.858 67.598, 163 66.141, 146.500 64.749 L 116.500 62.218 108.500 58.493 C 104.100 56.444, 98.694 53.982, 96.487 53.021 L 92.473 51.274 79.314 56.387 M 78.853 89 L 83.905 98.500 111.479 110.135 C 137.350 121.052, 139.116 121.652, 140.077 119.857 C 141.329 117.517, 143.364 118.499, 142.681 121.113 C 141.800 124.482, 143.447 123.117, 146.737 117.750 L 149.956 112.500 139.179 101.864 C 130.971 93.763, 126.745 90.412, 121.451 87.806 L 114.500 84.385 97.666 85.308 L 80.833 86.230 77.317 82.865 L 73.801 79.500 78.853 89 M 87 103.403 C 87 103.742, 89.113 107.952, 91.696 112.760 C 96.546 121.788, 117.767 150.567, 118.807 149.527 C 121.521 146.812, 136.716 124.351, 136.185 123.837 C 135.678 123.346, 99.412 107.802, 88.250 103.291 C 87.563 103.013, 87 103.063, 87 103.403 M 148.167 120.470 C 144.628 126.114, 143.754 126.939, 142.194 126.104 C 140.580 125.240, 138.549 128.224, 124.724 151.770 C 116.120 166.424, 109.267 178.600, 109.495 178.828 C 110.140 179.473, 171.341 176.801, 172.755 176.067 C 173.445 175.708, 166.695 173.655, 157.755 171.504 C 148.815 169.353, 141.322 167.469, 141.105 167.318 C 140.887 167.167, 144.426 156.183, 148.969 142.909 L 157.229 118.774 154.771 116.316 L 152.312 113.858 148.167 120.470" stroke="none" fill="black" fill-rule="evenodd"/>
</svg>