<svg xmlns="http://www.w3.org/2000/svg" width="200" height="200" viewBox="0 0 200 200" version="1.1">
	<path d="M 88 27.615 C 88 27.954, 93.685 38.769, 100.633 51.649 C 107.581 64.529, 113.094 75.213, 112.883 75.391 C 112.672 75.570, 104.175 74.675, 94 73.403 C 83.825 72.132, 74.929 71.071, 74.231 71.046 C 72.947 70.999, 73.050 69.938, 75.108 62 C 75.845 59.158, 77.602 57.373, 84.462 52.500 C 92.491 46.796, 92.774 46.469, 90.204 45.868 C 88.717 45.521, 85.557 45.183, 83.183 45.118 C 79.563 45.019, 78.951 44.717, 79.395 43.250 C 80.236 40.476, 81.907 32.572, 81.694 32.381 C 81.587 32.286, 70.475 34.179, 57 36.588 C 43.525 38.996, 32.388 40.975, 32.250 40.984 C 32.112 40.993, 32 41.675, 32 42.500 C 32 43.385, 32.923 44.005, 34.250 44.013 C 35.487 44.020, 44.150 44.686, 53.500 45.493 C 62.850 46.299, 71.513 46.968, 72.750 46.979 C 75.290 47.003, 75.546 48.495, 73.976 54.148 C 73.087 57.348, 70.821 59.348, 55.481 70.471 C 45.867 77.443, 37.983 83.452, 37.962 83.824 C 37.941 84.196, 43.453 95.402, 50.212 108.728 L 62.500 132.955 66.713 132.978 C 77.393 133.034, 134.734 128.860, 136.625 127.888 C 139.033 126.650, 143.394 128.317, 142.756 130.231 C 142.555 130.834, 132.290 133.974, 119.945 137.209 L 97.500 143.091 60.250 142.436 C 15.459 141.648, 14.770 141.885, 38.250 149.990 C 46.638 152.885, 54.103 155.575, 54.839 155.966 C 56.115 156.646, 52.121 161.356, 35.101 179.244 C 32.059 182.441, 30.917 184.317, 31.599 184.999 C 32.280 185.680, 43.021 182.143, 64.555 174.145 L 96.500 162.279 102.940 154.140 L 109.381 146 118.120 146 L 126.858 146 131.679 150.917 C 134.331 153.621, 145.890 164.666, 157.366 175.461 C 175.563 192.578, 181.061 196.870, 180.313 193.375 C 180.210 192.894, 174.498 182.150, 167.620 169.500 L 155.115 146.500 174.226 146 C 187.229 145.660, 193.457 145.136, 193.714 144.361 C 194.091 143.226, 185.987 140.001, 168.675 134.396 C 160.109 131.623, 159.912 131.490, 161.925 129.859 C 163.960 128.211, 164.730 125.981, 163.250 126.019 C 162.838 126.030, 160.250 126.630, 157.500 127.354 C 151.214 129.007, 144.494 127.178, 142.744 123.338 C 141.747 121.150, 142.539 119.602, 150.917 107.354 C 157.009 98.448, 159.855 93.455, 159.208 92.808 C 158.561 92.161, 155.181 96.302, 149.361 104.873 C 144.488 112.052, 140.275 117.932, 140 117.941 C 139.725 117.950, 135.588 110.655, 130.807 101.729 L 122.114 85.500 126.057 83.553 C 128.226 82.482, 130 81.311, 130 80.951 C 130 80.591, 127.163 79.529, 123.696 78.590 L 117.391 76.884 104.811 53.692 C 97.891 40.936, 92.648 30.344, 93.158 30.152 C 93.668 29.961, 102.504 30.303, 112.793 30.912 C 126.246 31.708, 135.918 32.912, 147.229 35.197 C 155.880 36.945, 162.849 38.484, 162.715 38.618 C 162.431 38.903, 108.091 49, 106.843 49 C 106.380 49, 106 49.626, 106 50.392 C 106 52.013, 104.378 51.579, 132.500 57.483 C 144.600 60.024, 158.440 62.933, 163.255 63.948 C 168.664 65.089, 172.237 65.426, 172.605 64.831 C 172.932 64.301, 173.019 63.686, 172.798 63.465 C 172.577 63.244, 160.270 60.557, 145.448 57.493 C 130.627 54.430, 117.662 51.586, 116.638 51.172 C 115.447 50.691, 123.181 48.880, 138.138 46.136 C 169.360 40.408, 171 40.032, 171 38.590 C 171 37.774, 164.020 35.920, 150.750 33.211 C 134.453 29.883, 126.888 28.873, 112 28.035 C 90.535 26.827, 88 26.782, 88 27.615 M 59 39.017 C 51.025 40.540, 45.175 41.868, 46 41.968 C 53.913 42.921, 76.229 44.426, 76.451 44.021 C 76.609 43.734, 77.042 41.813, 77.414 39.750 C 78.241 35.166, 78.994 35.196, 59 39.017 M 77.560 50.618 C 77.198 52.058, 77.120 53.453, 77.386 53.719 C 77.848 54.182, 85 49.168, 85 48.381 C 85 48.172, 83.474 48, 81.608 48 C 78.784 48, 78.107 48.438, 77.560 50.618 M 56.471 73.055 C 48.237 79.075, 41.500 84.339, 41.500 84.751 C 41.500 85.614, 62.855 127.976, 64.075 129.533 C 64.870 130.548, 132.471 126.862, 133.590 125.743 C 133.860 125.474, 127.370 122.974, 119.168 120.188 L 104.256 115.122 94.980 118.613 C 89.878 120.533, 85.370 121.743, 84.961 121.302 C 83.019 119.207, 71.058 101.609, 71.366 101.301 C 71.559 101.108, 79.012 103.478, 87.929 106.567 L 104.141 112.184 114.069 108.424 C 119.530 106.356, 123.886 104.558, 123.749 104.427 C 123.612 104.297, 117.425 103.688, 110 103.074 C 102.575 102.460, 94.292 101.690, 91.593 101.363 L 86.687 100.769 101.916 92.979 C 110.292 88.694, 117.354 84.979, 117.610 84.723 C 118.631 83.703, 115.616 79.124, 113.625 78.669 C 112.456 78.403, 102.500 77.171, 91.500 75.933 C 80.500 74.694, 71.102 73.332, 70.615 72.905 C 70.106 72.459, 70.231 70.139, 70.910 67.443 C 71.559 64.866, 71.944 62.611, 71.766 62.432 C 71.587 62.254, 64.705 67.034, 56.471 73.055 M 119.638 81.500 C 120.282 83.178, 121.596 83.462, 122.435 82.105 C 122.740 81.612, 122.279 80.937, 121.412 80.605 C 119.160 79.741, 118.995 79.824, 119.638 81.500 M 107.500 93.106 C 101.450 96.304, 96.950 98.972, 97.500 99.035 C 104.929 99.882, 126.597 101.598, 126.892 101.362 C 127.494 100.881, 120.274 87.571, 119.330 87.423 C 118.874 87.351, 113.550 89.908, 107.500 93.106 M 119.531 109.227 C 114.048 111.359, 109.424 113.243, 109.255 113.412 C 109.086 113.581, 115.063 115.869, 122.538 118.495 C 131.722 121.722, 136.458 122.942, 137.143 122.257 C 138.124 121.276, 135.623 115.317, 131.222 108.154 L 129.500 105.350 119.531 109.227 M 78 106.564 C 78 106.953, 84.471 116.435, 85.971 118.244 C 86.311 118.654, 89.702 117.785, 93.507 116.315 C 97.311 114.845, 99.767 113.426, 98.962 113.162 C 98.158 112.899, 93.112 111.209, 87.750 109.408 C 82.388 107.606, 78 106.327, 78 106.564 M 148.500 133 C 147.718 134.266, 149.042 134.266, 151 133 C 152.293 132.165, 152.266 132.029, 150.809 132.015 C 149.879 132.007, 148.840 132.450, 148.500 133 M 153.500 134.672 C 151.850 135.548, 150.354 136.388, 150.176 136.539 C 149.998 136.690, 150.572 138.206, 151.452 139.907 L 153.051 143 168.776 142.949 L 184.500 142.898 170.500 137.950 C 162.800 135.228, 156.500 133.019, 156.500 133.041 C 156.500 133.062, 155.150 133.796, 153.500 134.672 M 125.500 138.507 L 109.500 142.848 121.404 142.924 C 133.241 143, 133.343 142.980, 139.654 139.451 C 143.144 137.499, 146 135.474, 146 134.951 C 146 133.331, 142.066 134.013, 125.500 138.507 M 143.456 140.508 L 139.500 142.938 144.785 142.969 C 149.950 142.999, 150.044 142.949, 148.900 140.750 C 148.256 139.512, 147.658 138.405, 147.570 138.289 C 147.483 138.173, 145.631 139.171, 143.456 140.508 M 101.500 144.573 C 97.517 145.684, 90.093 145.866, 65 145.465 L 33.500 144.962 39.500 147.315 C 42.800 148.609, 49.025 150.927, 53.333 152.465 L 61.166 155.263 56.807 159.882 C 54.410 162.422, 49.137 168.002, 45.090 172.282 C 41.042 176.562, 37.919 180.253, 38.149 180.483 C 38.501 180.835, 60.458 172.901, 88.289 162.365 C 95.203 159.748, 95.985 159.003, 107.287 144.250 C 108.438 142.748, 107.945 142.776, 101.500 144.573 M 132.588 146.858 C 132.128 147.601, 141.744 157.023, 167.934 181.489 L 174.368 187.500 171.838 183 C 170.447 180.525, 165.370 171.188, 160.557 162.250 L 151.805 146 142.461 146 C 137.323 146, 132.879 146.386, 132.588 146.858" stroke="none" fill="black" fill-rule="evenodd"/>
</svg>