<svg xmlns="http://www.w3.org/2000/svg" width="200" height="200" viewBox="0 0 200 200" version="1.1">
	<path d="M 148.500 13.021 C 146.850 13.471, 133.943 16.987, 119.817 20.835 C 97.810 26.830, 89.437 28.560, 61.317 32.926 C 43.268 35.727, 28.163 38.015, 27.750 38.010 C 27.337 38.004, 27 38.656, 27 39.457 C 27 40.453, 31.191 42.212, 40.250 45.018 C 47.537 47.275, 56.627 50.137, 60.449 51.378 L 67.399 53.633 58.599 57.316 C 53.760 59.342, 49.389 61, 48.888 61 C 47.989 61, 43.963 66.991, 38.687 76.178 L 36 80.856 45.750 83.069 C 51.113 84.286, 56.076 85.581, 56.781 85.948 C 57.668 86.409, 52.577 94.291, 40.241 111.557 C 30.440 125.276, 22.074 137.063, 21.651 137.750 C 19.352 141.487, 23.639 140.190, 38.979 132.510 L 55.863 124.057 56.414 129.279 C 56.717 132.150, 57.665 146.405, 58.522 160.956 C 59.378 175.507, 60.184 187.517, 60.312 187.646 C 60.441 187.774, 74.665 184.531, 91.921 180.439 L 123.297 173 143.149 173 C 158.359 173, 163.002 172.708, 163.008 171.750 C 163.013 171.063, 163.667 156.775, 164.462 140 C 165.257 123.225, 166.003 106.125, 166.118 102 L 166.329 94.500 157.089 94.865 L 147.850 95.230 150.379 90.238 L 152.909 85.246 167.454 84.519 C 186.157 83.584, 186.982 82.003, 169.931 79.774 C 163.293 78.906, 157.636 77.969, 157.359 77.692 C 157.082 77.415, 161.802 67.360, 167.848 55.348 C 173.895 43.337, 178.700 33.367, 178.526 33.193 C 178.353 33.019, 171.611 33.628, 163.545 34.545 C 155.480 35.463, 148.701 36.034, 148.481 35.814 C 148.261 35.594, 148.401 30.961, 148.791 25.518 L 149.500 15.622 152.750 14.782 C 154.537 14.321, 156 13.506, 156 12.971 C 156 11.839, 152.766 11.860, 148.500 13.021 M 120.500 23.590 C 101.353 28.925, 92.558 30.760, 68 34.545 C 51.775 37.046, 37.688 39.415, 36.696 39.810 C 35.471 40.297, 40.958 42.399, 53.785 46.355 C 64.176 49.560, 73.197 52.504, 73.832 52.896 C 74.478 53.296, 69.254 55.955, 61.956 58.942 L 48.927 64.274 44.830 71.170 C 42.576 74.963, 40.987 78.321, 41.299 78.632 C 41.610 78.943, 46.628 80.393, 52.451 81.854 L 63.037 84.509 45.087 109.490 C 35.215 123.230, 27.283 134.617, 27.462 134.795 C 27.640 134.974, 34.632 131.691, 43 127.500 C 51.368 123.309, 58.347 120.020, 58.509 120.190 C 58.672 120.361, 59.612 134.342, 60.599 151.259 C 61.586 168.177, 62.700 182.514, 63.074 183.119 C 63.544 183.879, 70.054 182.730, 84.127 179.402 L 104.500 174.584 111 161.220 C 114.575 153.869, 117.650 147.438, 117.833 146.928 C 118.026 146.390, 113.084 146, 106.083 146 C 96.964 146, 94 145.688, 94 144.726 C 94 144.026, 101.684 139.639, 111.076 134.976 C 127.698 126.725, 130.987 124.653, 129.625 123.291 C 129.262 122.928, 120.310 122.216, 109.732 121.708 C 92.494 120.881, 87.550 120.116, 89.143 118.524 C 89.423 118.243, 97.943 117.331, 108.076 116.497 C 137.686 114.059, 134.376 115.197, 139.083 105.836 L 143.123 97.800 127.311 98.486 L 111.500 99.172 104.178 91.740 L 96.856 84.308 105.178 83.660 C 109.755 83.303, 119.651 83.009, 127.168 83.006 C 141.628 83, 144 82.631, 144 80.393 C 144 79.275, 141.480 78.999, 131.250 78.997 C 104.182 78.991, 81 77.766, 81 76.342 C 81 75.604, 81.246 75, 81.546 75 C 82.161 75, 140.523 61.166, 143.250 60.374 C 146.132 59.536, 145.240 58.267, 141.250 57.528 C 137.036 56.747, 108.645 42.026, 109.563 41.097 C 109.888 40.769, 118.107 39.600, 127.827 38.500 L 145.500 36.500 145.786 26.750 C 146.005 19.286, 145.771 17.021, 144.786 17.091 C 144.079 17.141, 133.150 20.066, 120.500 23.590 M 165 37.068 C 161.425 37.516, 156.137 38.167, 153.250 38.513 L 148 39.144 148 47.072 L 148 55 153.375 55 C 156.331 55, 160.044 55.257, 161.625 55.571 C 164.405 56.122, 164.658 55.823, 169.250 46.557 C 171.863 41.286, 174 36.755, 174 36.487 C 174 35.941, 173.990 35.941, 165 37.068 M 130.500 40.888 L 116.500 42.513 128.174 48.756 C 134.594 52.190, 141.007 55, 142.424 55 C 144.977 55, 145 54.930, 145 47 C 145 42.600, 144.887 39.059, 144.750 39.132 C 144.613 39.204, 138.200 39.995, 130.500 40.888 M 147.750 58.662 C 148.438 58.940, 149.563 58.940, 150.250 58.662 C 150.938 58.385, 150.375 58.158, 149 58.158 C 147.625 58.158, 147.063 58.385, 147.750 58.662 M 153.250 60.786 L 147 62.348 147 69.560 L 147 76.773 150.019 77.216 C 153.630 77.746, 153.669 77.702, 158.896 67.250 C 163.554 57.936, 163.751 58.162, 153.250 60.786 M 119.290 68.849 C 106.524 71.946, 96.399 74.785, 96.790 75.157 C 97.180 75.530, 107.963 75.985, 120.750 76.168 L 144.001 76.500 144 69.750 C 144 66.037, 143.662 63.049, 143.250 63.109 C 142.838 63.170, 132.055 65.752, 119.290 68.849 M 147 81 C 147 81.550, 148.125 82, 149.500 82 C 150.875 82, 152 81.550, 152 81 C 152 80.450, 150.875 80, 149.500 80 C 148.125 80, 147 80.450, 147 81 M 156.250 81.689 C 157.213 81.941, 158.787 81.941, 159.750 81.689 C 160.713 81.438, 159.925 81.232, 158 81.232 C 156.075 81.232, 155.287 81.438, 156.250 81.689 M 118.708 85.961 L 102.917 86.500 107.900 91.405 L 112.884 96.310 127.548 95.716 C 135.613 95.389, 142.329 94.982, 142.473 94.811 C 142.616 94.640, 142.963 92.362, 143.244 89.750 L 143.754 85 139.127 85.211 C 136.582 85.328, 127.394 85.665, 118.708 85.961 M 146.035 88.250 L 146.071 91.500 147.500 89 C 149.341 85.779, 149.341 85, 147.500 85 C 146.467 85, 146.011 86.012, 146.035 88.250 M 151.352 97.734 L 146.205 98.097 145.504 106.950 L 144.803 115.802 140.490 116.449 C 134.694 117.318, 133.548 120, 138.972 120 C 141.123 120, 143.103 120.358, 143.374 120.796 C 143.644 121.233, 140.928 123.129, 137.338 125.009 C 131.328 128.155, 130.541 128.961, 127.405 135.188 C 125.532 138.907, 124 142.169, 124 142.436 C 124 142.703, 127.872 143.052, 132.603 143.211 L 141.207 143.500 125.583 157.896 C 116.990 165.814, 110.128 172.462, 110.335 172.668 C 110.542 172.875, 113.588 172.366, 117.105 171.537 C 121.558 170.487, 129.023 170.025, 141.689 170.015 L 159.877 170 160.401 165.750 C 160.688 163.412, 161.399 149.125, 161.981 134 C 162.562 118.875, 163.270 104.362, 163.553 101.750 L 164.069 97 160.284 97.185 C 158.203 97.287, 154.184 97.534, 151.352 97.734 M 140.263 109.365 C 138.054 113.942, 138.051 114, 140.044 114 C 142.467 114, 143.251 112.295, 142.820 107.960 L 142.500 104.729 140.263 109.365 M 122.500 117.946 L 115.500 118.539 122.106 119.371 C 125.739 119.828, 129.527 120.044, 130.523 119.851 C 132.960 119.379, 133.697 116.949, 131.333 117.177 C 130.325 117.274, 126.350 117.620, 122.500 117.946 M 114.795 136.405 C 108.907 139.250, 103.769 141.897, 103.378 142.289 C 102.987 142.680, 106.698 143, 111.625 143 L 120.583 143 123.339 137.381 C 124.855 134.290, 125.961 131.643, 125.798 131.497 C 125.634 131.352, 120.683 133.560, 114.795 136.405 M 118.706 152.250 C 116.800 155.688, 114.243 160.479, 113.024 162.898 L 110.808 167.296 113.249 165.376 C 114.591 164.321, 119.898 159.529, 125.043 154.728 L 134.397 146 128.285 146 L 122.172 146 118.706 152.250" stroke="none" fill="black" fill-rule="evenodd"/>
</svg>