<svg xmlns="http://www.w3.org/2000/svg" width="200" height="200" viewBox="0 0 200 200" version="1.1">
	<path d="M 132.728 18.500 L 123.155 26 95.578 26 C 71.731 26, 68 26.203, 68 27.500 C 68 28.794, 71.519 29, 93.675 29 L 119.350 29 113.554 33.500 C 110.367 35.975, 107.003 38, 106.079 38 C 105.155 38, 100.386 37.123, 95.481 36.051 C 90.577 34.980, 86.443 34.224, 86.295 34.372 C 86.146 34.520, 82.666 41.945, 78.560 50.870 C 72.958 63.047, 71.436 67.230, 72.463 67.624 C 73.240 67.922, 81.042 62.499, 90.519 55.075 C 99.697 47.884, 108.040 42, 109.059 42 C 110.679 42, 138.839 47.552, 141.500 48.396 C 142.050 48.570, 138.338 49.292, 133.250 49.999 C 128.162 50.706, 124 51.561, 124 51.899 C 124 52.237, 128.950 58.686, 135 66.230 C 141.050 73.774, 145.982 80.296, 145.959 80.723 C 145.902 81.828, 140.117 88.465, 139.671 87.937 C 139.468 87.697, 135.353 82.213, 130.528 75.750 C 124.140 67.194, 121.177 63.999, 119.628 63.995 C 116.177 63.988, 64.560 72.218, 63.859 72.887 C 63.507 73.224, 62.314 88.679, 61.207 107.232 L 59.196 140.964 43.360 157.411 C 34.650 166.456, 27.439 173.772, 27.336 173.669 C 27.232 173.566, 30.992 161.335, 35.691 146.491 L 44.234 119.500 42.751 87 L 41.269 54.500 48.600 33.183 C 54.229 16.812, 55.562 11.940, 54.342 12.183 C 53.251 12.401, 50.544 18.955, 45.694 33.128 L 38.634 53.756 40.075 86.128 L 41.516 118.500 32.263 148 C 27.174 164.225, 23.008 178.095, 23.005 178.823 C 23.002 179.551, 23.669 180.001, 24.487 179.823 C 26.694 179.344, 61.997 141.988, 62.018 140.110 C 62.029 139.225, 62.917 124.359, 63.993 107.075 C 66.021 74.486, 66.103 74.072, 70.500 73.996 C 71.600 73.978, 83.244 72.253, 96.376 70.163 L 120.252 66.364 126.991 75.432 C 130.697 80.419, 133.633 84.619, 133.516 84.765 C 133.399 84.911, 119.977 82.774, 103.689 80.015 C 87.402 77.257, 73.384 75, 72.538 75 C 71.187 75, 71.001 78.795, 71.006 106.250 L 71.011 137.500 76.535 160.446 C 79.574 173.067, 82.185 183.519, 82.339 183.672 C 82.493 183.826, 95.979 181.063, 112.308 177.533 L 141.998 171.115 156.452 163.508 L 170.907 155.901 170.353 123.701 L 169.800 91.500 172.906 71.089 C 174.614 59.864, 175.837 50.503, 175.622 50.289 C 175.408 50.074, 169.249 56.400, 161.936 64.346 L 148.640 78.792 138.820 66.679 C 133.419 60.017, 129 54.296, 129 53.967 C 129 53.637, 133.752 52.658, 139.561 51.790 C 156.552 49.250, 155.578 48.312, 130.740 43.295 C 120.433 41.213, 112 39.196, 112 38.813 C 112 38.430, 114.666 36.066, 117.924 33.558 C 123.755 29.072, 123.967 29, 131.405 29 C 139.941 29, 138.839 30.243, 141.382 17.750 C 142.138 14.037, 142.653 11, 142.528 11 C 142.403 11, 137.992 14.375, 132.728 18.500 M 132.703 21.897 C 128.202 25.278, 128.047 25.540, 130.203 26.150 C 134.639 27.406, 136.037 27.033, 137.070 24.316 C 137.631 22.839, 137.958 20.880, 137.795 19.963 C 137.554 18.600, 136.621 18.955, 132.703 21.897 M 85.016 43.371 C 83.481 46.742, 80.850 52.520, 79.171 56.212 L 76.118 62.924 89.559 52.363 C 96.952 46.554, 103 41.490, 103 41.109 C 103 40.729, 99.582 39.703, 95.404 38.830 L 87.808 37.243 85.016 43.371 M 162.443 67.777 C 149.905 81.409, 150.469 80.541, 152.316 83.359 C 153.849 85.700, 153.764 85.799, 145.194 91.614 L 136.521 97.500 130.343 120.834 C 126.946 133.667, 123.906 144.427, 123.589 144.744 C 123.272 145.061, 122.026 144.461, 120.820 143.411 C 119.615 142.360, 123.713 147.483, 129.926 154.796 C 136.140 162.109, 141.582 167.959, 142.019 167.796 C 142.456 167.633, 148.527 164.575, 155.511 161 L 168.208 154.500 167.558 123.500 C 166.929 93.499, 166.991 91.956, 169.484 75.614 C 170.901 66.326, 171.909 58.576, 171.724 58.390 C 171.538 58.205, 167.362 62.429, 162.443 67.777 M 73.743 108.250 L 74.215 138.500 79.203 159.500 C 81.946 171.050, 84.260 180.552, 84.345 180.616 C 84.593 180.802, 134.346 170.015, 135.991 169.419 C 136.924 169.080, 129.320 163.510, 115.663 154.528 C 103.663 146.635, 93.661 139.995, 93.438 139.771 C 93.214 139.547, 95.304 136.814, 98.083 133.696 C 103.668 127.430, 103.698 127.931, 97.274 120.338 C 91.170 113.122, 93.622 112.208, 100.599 119.098 L 106.003 124.435 112.074 118.467 C 120.152 110.528, 121.662 107.760, 115.666 111.886 C 111.020 115.082, 109 115.733, 109 114.032 C 109 113.500, 115.520 107.780, 123.489 101.321 C 131.458 94.862, 137.645 89.283, 137.239 88.924 C 136.595 88.354, 76.909 78, 74.269 78 C 73.616 78, 73.434 88.472, 73.743 108.250 M 144.908 86.684 L 141.500 90.291 144.827 88.395 C 148.829 86.115, 150.424 84.380, 149.207 83.628 C 148.717 83.325, 146.783 84.701, 144.908 86.684 M 120.328 113.361 L 108.156 126.500 115.041 133.454 C 118.827 137.279, 122.087 140.204, 122.284 139.954 C 122.771 139.337, 132.974 100.633, 132.710 100.404 C 132.594 100.304, 127.023 106.135, 120.328 113.361 M 101.094 134.404 L 96.780 138.800 105.640 144.745 C 122.629 156.144, 132.489 162.238, 130.932 160.376 C 128.073 156.957, 106.699 131.514, 106.048 130.754 C 105.696 130.344, 103.467 131.986, 101.094 134.404" stroke="none" fill="black" fill-rule="evenodd"/>
</svg>