<svg xmlns="http://www.w3.org/2000/svg" width="200" height="200" viewBox="0 0 200 200" version="1.1">
	<path d="M 17.386 55.750 L 12.284 98.500 13.836 117.385 L 15.387 136.270 12.893 138.385 C 11.521 139.548, 8.846 141.697, 6.949 143.160 C 2.150 146.861, 3.842 148.454, 10.457 146.463 C 13.829 145.448, 15.577 145.316, 16.026 146.042 C 16.386 146.624, 17.263 154.953, 17.975 164.550 C 18.688 174.148, 19.621 182, 20.048 182 C 20.476 182, 31.701 174.522, 44.992 165.382 C 63.848 152.415, 69.544 148.955, 70.919 149.632 C 71.888 150.110, 78.804 154.775, 86.290 160 L 99.899 169.500 99.397 173.500 C 99.121 175.700, 98.663 179.018, 98.379 180.874 L 97.863 184.248 105.181 183.641 C 109.207 183.307, 128.250 182.324, 147.500 181.457 C 166.750 180.589, 183.625 179.636, 185 179.340 C 187.009 178.906, 182.533 176.311, 162.186 166.114 L 136.873 153.429 156.936 142.110 C 167.971 135.885, 176.991 130.276, 176.979 129.646 C 176.968 129.016, 175.902 118.476, 174.611 106.224 C 173.022 91.152, 171.795 83.391, 170.815 82.224 C 170.018 81.276, 165.178 75.660, 160.059 69.745 C 151.956 60.382, 150.829 58.635, 151.351 56.245 C 151.681 54.735, 153.513 47.728, 155.421 40.673 L 158.892 27.845 155.696 30.225 C 153.938 31.534, 139.450 42.515, 123.500 54.627 L 94.500 76.648 86 78.325 C 81.325 79.247, 76.763 80.001, 75.863 80.001 C 74.760 80, 72.904 76.994, 70.164 70.767 C 66.353 62.106, 64 58.886, 64 62.332 C 64 63.157, 65.643 67.477, 67.651 71.932 C 69.658 76.387, 71.014 80.319, 70.664 80.670 C 70.036 81.297, 26.875 89.908, 24.050 89.969 C 21.021 90.034, 24.952 91.817, 40.500 97.429 C 49.300 100.605, 56.804 103.496, 57.177 103.852 C 57.549 104.208, 49.071 111.173, 38.338 119.328 C 27.605 127.484, 18.663 133.996, 18.467 133.800 C 18.270 133.604, 17.407 125.356, 16.548 115.472 L 14.987 97.500 19.471 60.500 C 21.938 40.150, 24.207 22.059, 24.514 20.298 L 25.073 17.095 41.786 27.160 C 50.979 32.696, 58.868 37.565, 59.317 37.980 C 59.767 38.395, 54.142 40.183, 46.817 41.954 C 39.493 43.726, 32.825 45.417, 32 45.712 C 31.081 46.041, 33.598 47.739, 38.500 50.095 C 47.520 54.430, 48 54.556, 48 52.583 C 48 51.803, 45.954 50.384, 43.454 49.429 C 40.953 48.474, 39.266 47.360, 39.704 46.953 C 40.142 46.545, 45.762 44.982, 52.194 43.479 L 63.888 40.745 70.456 44.587 C 74.068 46.700, 76.867 48.895, 76.675 49.465 C 76.152 51.022, 97.274 60.977, 98.500 59.750 C 99.167 59.083, 99.167 58.621, 98.500 58.363 C 97.950 58.150, 94.420 56.029, 90.656 53.649 L 83.812 49.321 116.656 34.717 C 138.491 25.008, 149.615 19.559, 149.842 18.460 C 150.091 17.257, 149.682 16.959, 148.342 17.367 C 143.699 18.778, 67.273 37.071, 65.500 37.195 C 64.400 37.272, 54.520 31.860, 43.544 25.168 C 32.569 18.475, 23.341 13, 23.038 13 C 22.736 13, 20.192 32.237, 17.386 55.750 M 100.250 31.787 C 83.063 35.969, 69 39.647, 69 39.961 C 69 40.816, 79.615 47, 81.082 47 C 82.185 47, 131.805 25.329, 132.917 24.363 C 133.695 23.686, 131.520 24.180, 100.250 31.787 M 127.736 54.736 C 113.572 65.506, 102.163 74.497, 102.383 74.716 C 102.602 74.935, 108.684 73.964, 115.897 72.557 C 123.111 71.151, 129.405 70, 129.885 70 C 131.088 70, 145 82.972, 145 84.094 C 145 84.607, 135.661 85, 123.437 85 C 102.200 85, 101.705 85.048, 90.687 88.189 C 80.998 90.950, 78.529 92.118, 72.250 96.907 C 68.263 99.949, 65 102.753, 65 103.139 C 65 103.525, 66.338 104.135, 67.972 104.494 C 70.029 104.946, 72.520 107.126, 76.058 111.573 L 81.171 117.999 91.336 117.413 C 99.504 116.943, 105.293 115.744, 120.813 111.310 C 131.435 108.275, 140.352 106.018, 140.628 106.295 C 141.312 106.979, 148.083 125.258, 147.758 125.544 C 147.616 125.669, 137.917 124.217, 126.205 122.317 L 104.909 118.862 62.705 131.103 C 39.492 137.835, 20.149 143.640, 19.720 144.002 C 19.024 144.589, 20.054 160.619, 21.594 173.179 L 22.168 177.857 32.834 170.486 C 38.700 166.432, 49.382 159.073, 56.571 154.133 L 69.641 145.150 86.011 156.599 C 95.014 162.895, 102.494 168.161, 102.634 168.301 C 102.774 168.440, 102.516 171.242, 102.061 174.527 C 101.605 177.812, 101.342 180.624, 101.476 180.776 C 101.766 181.106, 159.267 178.259, 170 177.384 L 177.500 176.772 154.293 165.136 L 131.086 153.500 152.533 141.500 C 165.551 134.216, 173.983 128.910, 173.988 128 C 173.992 127.175, 173.103 118.175, 172.013 108 C 170.924 97.825, 170.025 88.554, 170.016 87.398 C 170.007 86.175, 165.403 79.986, 159 72.590 C 152.950 65.601, 148.010 59.347, 148.023 58.692 C 148.035 58.036, 149.377 52.579, 151.004 46.564 C 152.631 40.550, 153.855 35.522, 153.725 35.392 C 153.595 35.262, 141.900 43.967, 127.736 54.736 M 111.005 76.198 C 95.512 79.220, 93.956 79.852, 86.632 86.096 C 86.155 86.503, 89.507 85.748, 94.081 84.418 C 101.547 82.247, 104.291 82, 120.907 82 L 139.416 82 135 77.500 C 132.454 74.906, 129.719 73.037, 128.542 73.088 C 127.419 73.136, 119.527 74.535, 111.005 76.198 M 80.559 82.124 C 75.648 83.276, 75.734 83.171, 76.973 86.429 L 78.002 89.135 80.751 87.096 C 87.986 81.728, 88.650 81.039, 86.500 81.123 C 85.400 81.166, 82.727 81.616, 80.559 82.124 M 51.679 87.525 C 42.427 89.371, 34.365 91.045, 33.764 91.245 C 33.163 91.446, 39.056 93.949, 46.861 96.809 L 61.052 102.008 68.490 96.410 L 75.929 90.811 74.648 87.656 C 73.744 85.431, 72.649 84.451, 70.933 84.334 C 69.595 84.243, 60.930 85.679, 51.679 87.525 M 40.500 120.979 C 26.506 131.609, 19.389 137.641, 19.168 139.059 C 18.906 140.738, 19.227 141.063, 20.691 140.598 C 21.711 140.274, 37.386 135.691, 55.523 130.414 C 73.660 125.136, 88.725 120.571, 89 120.268 C 89.275 119.966, 87.368 119.997, 84.763 120.338 L 80.025 120.958 74.872 114.528 C 72.038 110.991, 68.545 107.672, 67.110 107.151 C 65.674 106.631, 63.825 105.940, 63 105.616 C 62.043 105.241, 53.892 110.806, 40.500 120.979 M 125.235 112.801 C 118.490 114.764, 113.315 116.679, 113.735 117.056 C 114.406 117.657, 139.953 122, 142.817 122 C 144.078 122, 139.726 109.677, 138.370 109.406 C 137.891 109.311, 131.981 110.839, 125.235 112.801 M 13.557 141.582 C 12.491 142.362, 12.041 142.993, 12.559 142.985 C 13.941 142.962, 16.520 141.186, 15.969 140.636 C 15.710 140.376, 14.624 140.802, 13.557 141.582" stroke="none" fill="black" fill-rule="evenodd"/>
</svg>