<svg xmlns="http://www.w3.org/2000/svg" width="200" height="200" viewBox="0 0 200 200" version="1.1">
	<path d="M 144.508 24.992 C 138.520 31.027, 137.443 31.745, 136.638 30.242 C 136.125 29.284, 135.614 28.380, 135.502 28.233 C 135.151 27.770, 85.765 23, 81.320 23 C 77.402 23, 29.185 32.481, 28.226 33.440 C 27.993 33.674, 31.270 39.963, 35.507 47.417 L 43.212 60.969 37.939 69.235 C 35.038 73.781, 30.476 80.764, 27.800 84.753 C 22.073 93.291, 21.294 95.004, 23.143 94.989 C 24.350 94.979, 45.063 64.326, 45.792 61.472 C 45.952 60.844, 42.902 54.793, 39.015 48.025 C 35.127 41.258, 32.105 35.562, 32.298 35.368 C 32.492 35.175, 43.417 32.819, 56.575 30.133 L 80.500 25.250 106.988 27.875 C 138.117 30.960, 137.687 30.716, 128.452 40.049 L 122.710 45.851 123.424 58.984 L 124.138 72.116 120.632 71.459 L 117.125 70.801 113.550 77.900 C 111.584 81.805, 109.418 84.997, 108.737 84.994 C 108.057 84.991, 105.825 84.524, 103.778 83.955 C 100.325 82.996, 99.918 82.472, 98.153 76.711 C 97.106 73.295, 93.421 61.162, 89.964 49.750 C 86.369 37.883, 83.169 29, 82.487 29 C 81.204 29, 80.017 40.202, 80.006 52.414 C 80 58.947, 80.306 59.875, 85.556 69.275 C 88.612 74.745, 90.966 79.367, 90.789 79.545 C 89.015 81.318, 31.425 106.435, 28.080 106.894 C 25.649 107.227, 23.492 108.008, 23.287 108.630 C 23.075 109.272, 30.085 112.916, 39.512 117.065 C 48.642 121.084, 56.311 124.694, 56.555 125.089 C 56.799 125.483, 49.297 134.423, 39.884 144.955 C 30.472 155.487, 22.935 164.264, 23.135 164.459 C 23.336 164.653, 32.275 167.812, 43 171.478 L 62.500 178.143 91.500 177.921 C 116.390 177.730, 121.120 177.933, 124.876 179.349 C 130.949 181.641, 132.132 181.493, 131.788 178.484 C 131.515 176.101, 132.781 175.407, 155.790 165.324 C 169.149 159.469, 179.724 154.372, 179.290 153.996 C 178.855 153.620, 167.925 149.391, 155 144.599 C 142.075 139.806, 130.938 135.150, 130.250 134.251 C 129.508 133.282, 129 129.591, 129 125.173 L 129 117.728 140.250 118.357 C 154.048 119.128, 179.874 119.459, 180.461 118.872 C 180.697 118.636, 180.195 105.855, 179.344 90.471 L 177.798 62.500 165.305 40.250 C 158.435 28.012, 152.505 18, 152.130 18 C 151.754 18, 148.324 21.146, 144.508 24.992 M 144.426 28.844 L 137.352 35.500 139.102 45.740 C 140.567 54.311, 141.679 57.508, 145.926 65.363 C 148.717 70.525, 151 75.069, 151 75.462 C 151 75.854, 145.600 75.853, 139 75.459 L 127 74.743 127.014 80.622 C 127.037 90.596, 126.626 90.193, 140.585 93.944 C 147.437 95.785, 152.902 97.431, 152.730 97.603 C 152.558 97.775, 147.100 99.933, 140.601 102.399 C 134.102 104.865, 128.579 107.088, 128.328 107.339 C 128.076 107.590, 128.170 109.390, 128.536 111.338 C 129.177 114.757, 129.380 114.900, 134.350 115.408 C 142.288 116.221, 178 116.793, 177.999 116.108 C 177.998 115.774, 177.321 103.670, 176.494 89.211 L 174.991 62.923 163.880 43.211 C 157.769 32.370, 152.483 23.205, 152.134 22.844 C 151.786 22.484, 148.317 25.184, 144.426 28.844 M 83.037 48.583 L 83.074 59.500 88.994 69.993 C 92.251 75.763, 94.597 80.745, 94.207 81.063 C 93.818 81.381, 81.125 87.187, 66 93.966 C 50.875 100.744, 38.072 106.675, 37.550 107.145 C 37.012 107.629, 39.188 108, 42.564 108 C 45.844 108, 59.097 108.479, 72.014 109.065 L 95.500 110.130 97 107.892 C 97.825 106.662, 100.645 101.703, 103.267 96.873 L 108.033 88.090 103.767 86.882 C 101.420 86.217, 98.978 85.184, 98.341 84.586 C 97.703 83.989, 94.167 73.375, 90.483 61 C 86.799 48.625, 83.608 38.313, 83.392 38.083 C 83.177 37.854, 83.017 42.579, 83.037 48.583 M 130.048 42.452 L 125.720 46.861 126.218 58.955 C 126.492 65.607, 126.895 71.228, 127.113 71.446 C 127.331 71.665, 131.901 72.166, 137.268 72.560 L 147.027 73.276 142.579 64.888 C 139.240 58.591, 137.748 54.284, 136.591 47.609 C 135.744 42.719, 134.899 38.566, 134.713 38.380 C 134.527 38.194, 132.428 40.026, 130.048 42.452 M 118.243 75.250 C 116.846 76.994, 113 84.734, 113 85.801 C 113 86.739, 123.850 89.484, 124.598 88.735 C 124.842 88.492, 124.742 85.076, 124.377 81.146 C 123.770 74.615, 123.520 74, 121.479 74 C 120.250 74, 118.794 74.563, 118.243 75.250 M 105.148 99.070 C 102.204 104.602, 99.954 109.264, 100.148 109.429 C 100.342 109.594, 102.750 109.987, 105.500 110.302 C 109.494 110.759, 111.908 110.325, 117.500 108.145 L 124.500 105.415 124.790 98.939 L 125.081 92.464 118.290 90.723 C 114.556 89.766, 111.275 88.989, 111 88.997 C 110.725 89.004, 108.092 93.537, 105.148 99.070 M 128 99.107 C 128 102.777, 128.352 104.081, 129.250 103.743 C 129.938 103.484, 133.313 102.251, 136.750 101.002 C 140.188 99.754, 143 98.397, 143 97.988 C 143 97.303, 131.441 94, 129.044 94 C 128.455 94, 128 96.224, 128 99.107 M 118.536 110.588 C 113.970 112.435, 110.689 113.004, 104.536 113.015 C 98.978 113.026, 96.963 113.330, 98 114 C 98.825 114.533, 105.463 114.976, 112.750 114.985 L 126 115 126 111.500 C 126 109.575, 125.662 108.040, 125.250 108.088 C 124.838 108.137, 121.816 109.262, 118.536 110.588 M 32 110.402 C 32 110.613, 38.412 113.593, 46.250 117.026 C 54.088 120.458, 60.803 123.544, 61.174 123.883 C 61.545 124.222, 54.232 133.021, 44.924 143.435 C 35.616 153.849, 28 162.633, 28 162.954 C 28 163.276, 36.438 166.280, 46.750 169.630 L 65.500 175.720 88 175.110 L 110.500 174.500 93.500 168.604 C 84.150 165.361, 74.845 161.986, 72.823 161.104 L 69.146 159.500 81.635 136.646 C 88.504 124.076, 93.898 113.565, 93.622 113.289 C 93.345 113.012, 83.980 112.404, 72.810 111.937 C 61.639 111.471, 47.888 110.848, 42.250 110.554 C 36.612 110.260, 32 110.191, 32 110.402 M 84.729 136.735 C 78.285 148.621, 73.122 158.418, 73.256 158.508 C 73.390 158.597, 84.075 162.296, 97 166.727 C 115.642 173.118, 121.327 174.687, 124.500 174.312 L 128.500 173.841 127.854 160.670 C 127.499 153.427, 127.162 145.168, 127.104 142.317 C 127.018 138.049, 126.644 137.022, 124.982 136.494 C 123.324 135.968, 117.142 131.347, 97.473 115.930 C 96.830 115.427, 92.064 123.208, 84.729 136.735 M 105.114 117.715 C 105.935 119.911, 125.631 134.703, 126.532 133.801 C 126.791 133.542, 126.711 129.881, 126.354 125.665 L 125.707 118 116.935 118 C 112.111 118, 107.390 117.703, 106.445 117.341 C 105.439 116.955, 104.887 117.110, 105.114 117.715 M 130.123 145.265 C 130.190 149.244, 130.527 157.096, 130.873 162.713 L 131.500 172.925 151.907 163.972 C 163.131 159.048, 172.463 154.870, 172.645 154.688 C 172.827 154.506, 165.444 151.523, 156.238 148.058 C 147.032 144.594, 137.363 140.920, 134.750 139.894 L 130 138.029 130.123 145.265" stroke="none" fill="black" fill-rule="evenodd"/>
</svg>