<svg xmlns="http://www.w3.org/2000/svg" width="200" height="200" viewBox="0 0 200 200" version="1.1">
	<path d="M 137.961 51.500 L 126.540 90 122.829 90 C 120.788 90, 118.829 89.532, 118.475 88.959 C 118.121 88.387, 117.062 88.163, 116.121 88.462 C 115.179 88.760, 109.283 88.329, 103.018 87.502 C 96.753 86.676, 91.486 86, 91.314 86 C 91.141 86, 91 84.442, 91 82.539 C 91 78.610, 89.559 79.224, 110 74.441 C 116.325 72.961, 121.641 71.628, 121.812 71.479 C 121.984 71.330, 120.052 67.081, 117.518 62.035 C 113.518 54.071, 112.257 52.456, 107.955 49.781 C 105.230 48.087, 103.003 46.431, 103.008 46.101 C 103.012 45.770, 108.274 40.783, 114.702 35.019 L 126.389 24.537 107.445 21.841 C 97.025 20.357, 86.668 18.871, 84.430 18.538 C 80.437 17.943, 80.294 18.027, 76.930 22.964 C 75.043 25.732, 73.275 27.993, 73 27.990 C 72.725 27.986, 68.008 25.301, 62.519 22.023 C 56.199 18.249, 52.188 16.412, 51.586 17.014 C 50.430 18.170, 49.720 17.597, 60 23.812 C 64.675 26.639, 69.132 29.370, 69.904 29.880 C 71.014 30.614, 69.067 33.976, 60.587 45.971 C 51.635 58.630, 50.071 61.381, 51.111 62.633 C 51.795 63.458, 56.630 67.811, 61.855 72.305 L 71.354 80.477 67.512 81.555 C 65.244 82.191, 61.792 82.323, 59.085 81.876 C 51.033 80.547, 50 80.726, 50 83.455 C 50 85.478, 49.372 86.027, 46.423 86.580 C 43.412 87.145, 42.928 87.588, 43.361 89.376 C 43.644 90.544, 46.175 103.425, 48.985 118 C 54.925 148.811, 54.721 148, 56.520 148 C 57.576 148, 57.788 146.868, 57.413 143.250 C 56.301 132.539, 53.132 88.534, 53.450 88.216 C 53.639 88.028, 56.028 87.284, 58.760 86.563 C 64.745 84.984, 79.031 86.602, 81.576 89.147 C 82.976 90.547, 82.782 93.640, 79.574 121.098 C 74.733 162.531, 76.127 157.742, 68.719 158.402 C 65.299 158.706, 55.501 159.234, 46.948 159.574 L 31.395 160.192 24.548 145.846 C 20.782 137.956, 17.734 130.825, 17.774 130 C 17.813 129.175, 21.288 113.305, 25.495 94.734 L 33.143 60.969 31.613 43.359 C 30.772 33.674, 29.869 25.536, 29.608 25.275 C 27.827 23.494, 27.639 28.032, 28.847 43.664 L 30.224 61.500 22.612 95.052 C 18.425 113.505, 15 129.331, 15 130.220 C 15 131.420, 28.182 160.949, 29.543 162.798 C 29.758 163.089, 77.378 160.970, 77.625 160.658 C 78.218 159.910, 85.887 89.627, 85.453 88.924 C 85.139 88.416, 85.623 88, 86.529 88 C 87.998 88, 88.112 89.267, 87.584 99.750 C 87.259 106.213, 86.497 122.298, 85.891 135.495 C 85.285 148.692, 84.469 164.892, 84.079 171.495 C 83.688 178.098, 83.531 183.708, 83.730 183.962 C 83.928 184.216, 85.029 183.838, 86.176 183.122 C 87.361 182.382, 104.700 179.861, 126.380 177.276 C 147.346 174.776, 164.828 172.441, 165.230 172.086 C 165.631 171.731, 165.343 167.629, 164.591 162.970 L 163.223 154.500 169.094 125 C 172.323 108.775, 175.186 94.568, 175.457 93.428 C 175.853 91.760, 172.889 88.641, 160.248 77.428 L 144.548 63.500 162.332 62.622 C 176.494 61.923, 180.012 61.472, 179.604 60.409 C 179.023 58.896, 150.002 13, 149.626 13 C 149.492 13, 144.243 30.325, 137.961 51.500 M 144.289 39.817 C 140.925 51.193, 138.309 60.638, 138.475 60.806 C 138.935 61.270, 174.273 59.061, 174.798 58.535 C 175.154 58.179, 157.503 29.538, 151.553 20.817 C 150.613 19.438, 149.298 22.876, 144.289 39.817 M 78.750 24.931 C 77.237 27.070, 76.018 29.198, 76.041 29.660 C 76.063 30.122, 81.423 33.717, 87.952 37.649 L 99.823 44.798 110.025 35.687 C 115.635 30.675, 119.837 26.467, 119.363 26.334 C 118.261 26.027, 82.991 20.993, 82.138 21.021 C 81.787 21.033, 80.263 22.792, 78.750 24.931 M 64 45.823 C 58.775 53.291, 54.364 59.935, 54.199 60.586 C 54.033 61.237, 58.622 65.883, 64.396 70.909 L 74.894 80.049 81.341 78.429 C 88.853 76.543, 89 76.236, 89 62.459 L 89 54.168 93 51 C 95.200 49.258, 97 47.476, 97 47.041 C 97 46.445, 76.890 33.695, 74 32.458 C 73.725 32.340, 69.225 38.354, 64 45.823 M 96.242 51.828 L 92.148 55.500 91.484 65.890 C 90.860 75.659, 90.930 76.252, 92.660 75.800 C 93.672 75.535, 99.787 74.029, 106.250 72.453 C 112.713 70.877, 117.986 69.343, 117.968 69.044 C 117.951 68.745, 116.263 65.370, 114.218 61.545 C 111.271 56.032, 109.446 53.922, 105.418 51.373 L 100.336 48.156 96.242 51.828 M 137.386 63.437 C 136.512 65.714, 129.227 90.471, 129.375 90.662 C 129.444 90.751, 135.800 91.611, 143.500 92.573 C 151.200 93.535, 157.844 94.617, 158.265 94.976 C 158.685 95.335, 151.035 99.150, 141.265 103.453 C 131.494 107.755, 123.223 111.551, 122.884 111.888 C 122.545 112.225, 123.300 118.800, 124.562 126.500 C 125.823 134.200, 127.071 141.876, 127.334 143.557 C 127.784 146.440, 126.820 147.500, 110.511 162.057 C 99.373 171.999, 93.797 177.602, 94.855 177.786 C 96.525 178.076, 162.076 170.324, 162.464 169.790 C 162.580 169.631, 162.223 165.834, 161.670 161.354 C 160.700 153.489, 160.862 152.216, 166.390 124.354 C 169.539 108.484, 172.316 94.804, 172.561 93.953 C 172.855 92.931, 167.686 87.674, 157.321 78.453 C 138.040 61.301, 138.168 61.398, 137.386 63.437 M 81.169 81.140 C 78.530 81.900, 78.070 82.380, 78.957 83.448 C 79.573 84.190, 81.859 84.967, 84.038 85.175 C 87.793 85.533, 88 85.408, 88 82.776 C 88 79.723, 86.957 79.473, 81.169 81.140 M 46.755 89.695 C 46.518 90.138, 47.786 97.475, 49.573 106 C 53.021 122.451, 52.937 122.847, 51.157 98.511 C 50.628 91.268, 50.178 89.461, 48.843 89.206 C 47.932 89.032, 46.993 89.252, 46.755 89.695 M 90.626 93.250 C 90.353 95.588, 89.638 110.325, 89.037 126 C 88.436 141.675, 87.719 158.550, 87.444 163.500 L 86.943 172.500 100.605 132.717 C 108.120 110.837, 113.988 92.654, 113.645 92.312 C 113.057 91.724, 96.443 89.111, 92.811 89.035 C 91.561 89.009, 90.994 90.104, 90.626 93.250 M 119.600 95.921 C 119.944 97.890, 120.546 101.075, 120.938 103 L 121.650 106.500 123.325 100.846 C 125.522 93.430, 125.501 93.300, 121.987 92.785 C 119.025 92.350, 118.984 92.404, 119.600 95.921 M 126.183 100.612 C 125.038 104.364, 124.194 107.528, 124.309 107.642 C 124.423 107.756, 130.314 105.296, 137.399 102.175 C 151.933 95.773, 152.020 96.107, 135.383 94.484 L 128.266 93.790 126.183 100.612 M 112.349 107.213 C 110.080 113.971, 103.726 132.684, 98.229 148.799 C 90.217 172.285, 88.657 177.741, 90.362 176.299 C 92.725 174.300, 120.515 149.583, 123.208 147.085 C 124.815 145.594, 124.681 144.049, 120.941 121 C 118.755 107.525, 116.856 96.146, 116.721 95.713 C 116.586 95.280, 114.619 100.455, 112.349 107.213" stroke="none" fill="black" fill-rule="evenodd"/>
</svg>