<svg xmlns="http://www.w3.org/2000/svg" width="200" height="200" viewBox="0 0 200 200" version="1.1">
	<path d="M 53.570 22.554 C 40.959 28.823, 30.189 34.104, 29.638 34.287 C 29.005 34.498, 29.447 39.580, 30.836 48.061 C 33.657 65.286, 33.586 69.533, 30 98.500 C 26.488 126.870, 26.656 124, 28.500 124 C 29.325 124, 30.002 123.438, 30.004 122.750 C 30.006 122.063, 31.350 110.475, 32.990 97 C 36.554 67.714, 36.599 65.345, 33.895 49.338 C 32.737 42.485, 31.949 36.730, 32.145 36.550 C 32.340 36.371, 42.625 31.162, 55 24.975 L 77.500 13.726 109.386 16.050 L 141.271 18.374 140.657 30.437 C 138.559 71.598, 138.556 74.308, 140.606 73.211 C 141.653 72.650, 146.516 69.879, 151.411 67.051 C 156.306 64.224, 160.631 62.269, 161.021 62.706 C 161.412 63.143, 162.940 66.720, 164.417 70.656 L 167.103 77.813 161.052 100.228 C 157.723 112.556, 155 123.145, 155 123.759 C 155 124.372, 160.869 134.638, 168.043 146.572 L 181.086 168.269 176.293 167.672 C 173.657 167.343, 166.027 166.771, 159.338 166.401 C 152.649 166.030, 146.651 165.402, 146.009 165.005 C 145.223 164.519, 144.129 152.502, 142.663 128.217 C 141.465 108.381, 140.143 91.809, 139.725 91.392 C 138.213 89.880, 137.184 92.857, 132.057 113.588 L 126.841 134.676 105.843 155.588 C 89.950 171.416, 85.203 175.649, 86.316 173 C 87.126 171.075, 89.010 166.800, 90.504 163.500 C 91.998 160.200, 98.345 144.991, 104.610 129.703 L 116 101.905 116 72.523 L 116 43.141 101.312 32.027 L 86.624 20.912 73.812 40.443 C 66.765 51.184, 61 60.136, 61 60.334 C 61 60.533, 69.198 61.012, 79.218 61.399 C 89.238 61.786, 97.581 62.248, 97.759 62.425 C 98.192 62.858, 102.978 91.037, 102.990 93.225 C 102.997 94.440, 97.903 91.275, 85.750 82.515 C 76.263 75.675, 68.383 70.414, 68.239 70.822 C 68.096 71.231, 71.368 79.153, 75.512 88.427 C 79.655 97.701, 82.824 105.510, 82.553 105.780 C 82.096 106.237, 73.582 104.795, 68.127 103.337 L 65.755 102.703 66.127 124.193 L 66.500 145.684 55 163.009 L 43.500 180.334 43.197 173.917 C 43.031 170.388, 42.581 157.265, 42.197 144.757 L 41.500 122.013 26 134.094 C 17.475 140.739, 9.618 146.807, 8.541 147.579 C 7.209 148.532, 6.908 149.308, 7.602 150.002 C 8.295 150.695, 13.370 147.329, 23.453 139.486 C 31.610 133.142, 38.491 128.158, 38.745 128.412 C 38.998 128.665, 39.497 142.509, 39.853 159.177 L 40.500 189.481 54.750 168.306 L 69 147.131 69 127.065 C 69 110.581, 69.249 107, 70.393 107 C 71.159 107, 75.244 107.715, 79.471 108.589 C 83.697 109.463, 87.317 110.016, 87.515 109.818 C 87.713 109.620, 85.163 103.393, 81.848 95.979 C 73.516 77.345, 73.656 77.737, 75.764 78.912 C 76.719 79.444, 84.025 84.584, 92 90.333 C 99.975 96.082, 106.610 100.272, 106.744 99.643 C 106.879 99.014, 105.513 89.725, 103.710 79 L 100.431 59.500 84.466 58.773 C 75.685 58.374, 67.886 57.924, 67.136 57.773 C 66.256 57.597, 69.587 51.730, 76.525 41.237 L 87.277 24.974 90.388 27.313 C 92.100 28.600, 97.888 32.936, 103.250 36.948 L 113 44.244 113 73.118 L 113 101.991 101.864 129.243 C 95.739 144.231, 88.068 162.303, 84.816 169.401 C 81.565 176.500, 79.171 183.004, 79.498 183.855 C 79.927 184.974, 86.892 178.603, 104.622 160.873 L 129.153 136.342 133.442 119.421 C 136.446 107.570, 137.900 103.249, 138.297 105 C 138.608 106.375, 139.617 121, 140.538 137.500 C 141.459 154, 142.290 167.588, 142.385 167.695 C 142.545 167.877, 182.749 171, 184.926 171 C 185.467 171, 179.630 160.537, 171.956 147.750 C 164.281 134.963, 158.001 123.968, 158.001 123.318 C 158 122.668, 160.709 112.140, 164.021 99.922 L 170.042 77.708 166.364 68.104 C 164.340 62.822, 162.560 58.342, 162.408 58.149 C 162.256 57.956, 157.714 60.313, 152.316 63.386 C 144.283 67.959, 142.435 68.673, 142.144 67.317 C 141.948 66.405, 142.303 54.654, 142.933 41.203 C 143.564 27.751, 143.859 16.526, 143.590 16.256 C 143.127 15.794, 82.756 11.022, 78.500 11.112 C 77.400 11.135, 66.182 16.284, 53.570 22.554" stroke="none" fill="black" fill-rule="evenodd"/>
</svg>