<svg xmlns="http://www.w3.org/2000/svg" width="200" height="200" viewBox="0 0 200 200" version="1.1">
	<path d="M 68 20.642 L 44.500 30.093 36.538 38.016 L 28.576 45.940 31.606 58.915 L 34.637 71.890 32.205 74.998 C 28.770 79.386, 30.398 80.092, 34.400 75.950 L 37.733 72.500 34.682 59.692 L 31.632 46.884 39.066 39.527 L 46.500 32.170 70.400 22.756 L 94.299 13.342 102.650 15.376 C 107.242 16.494, 111 17.730, 111 18.123 C 111 18.516, 104.282 23.807, 96.072 29.881 L 81.144 40.926 78.522 49.713 C 77.080 54.546, 75.500 59.729, 75.009 61.231 C 74.164 63.817, 74.510 64.233, 81.559 69.106 L 89 74.250 89 86.698 L 89 99.147 83.793 108.073 L 78.587 117 74.448 117 L 70.309 117 69.658 129.750 C 69.301 136.762, 69.006 151.180, 69.004 161.788 L 69 181.077 57.521 171.368 C 47.057 162.517, 45.911 161.210, 44.556 156.580 C 43.739 153.786, 41.808 147.225, 40.267 142 L 37.464 132.500 31.732 132.842 C 28.579 133.031, 26.013 132.806, 26.029 132.342 C 26.045 131.879, 30.688 120.250, 36.346 106.500 C 42.919 90.526, 46.253 81.246, 45.581 80.795 C 45.002 80.408, 44.203 80.672, 43.805 81.384 C 42.403 83.888, 22 134.278, 22 135.235 C 22 135.800, 24.805 136.057, 28.719 135.852 L 35.439 135.500 39.524 149.321 L 43.609 163.142 57.054 174.479 C 64.449 180.715, 70.725 185.596, 71 185.327 C 71.275 185.057, 71.725 170.136, 72 152.168 L 72.500 119.500 76.587 119.200 C 80.626 118.904, 80.741 118.785, 86.337 109.111 L 92 99.321 92 86.217 L 92 73.113 85.032 68.307 C 81.199 65.663, 78.049 62.914, 78.032 62.197 C 78.014 61.480, 79.230 56.784, 80.734 51.761 L 83.468 42.628 98.812 31.253 C 107.251 24.996, 114.684 19.674, 115.328 19.426 C 116.214 19.085, 116.350 24.652, 115.886 42.238 C 115.333 63.166, 114.849 68.059, 111.057 91 C 108.226 108.129, 104.530 125.461, 99.800 143.795 C 95.926 158.808, 92.990 171.323, 93.275 171.608 C 93.559 171.893, 100.926 170.551, 109.646 168.626 L 125.500 165.127 143.249 167.547 L 160.997 169.967 176.492 168.156 C 185.015 167.160, 192.242 166.092, 192.552 165.781 C 193.010 165.323, 168.457 120.826, 160.769 108.180 L 158.751 104.861 153.326 114.405 C 149.604 120.954, 144.412 127.804, 136.785 136.225 C 130.671 142.976, 125.294 148.650, 124.835 148.833 C 124.376 149.017, 124.004 142.042, 124.008 133.333 L 124.016 117.500 135.033 89.530 C 145.898 61.945, 146.092 61.308, 149.127 43.216 C 150.820 33.126, 152.046 24.743, 151.852 24.585 C 151.659 24.428, 144.358 22.609, 135.629 20.544 C 122.948 17.543, 119.661 16.419, 119.277 14.950 C 118.884 13.448, 118.464 13.318, 116.987 14.240 C 115.591 15.112, 112.929 14.870, 105.339 13.179 C 99.927 11.975, 94.600 11.034, 93.500 11.090 C 92.400 11.146, 80.925 15.444, 68 20.642 M 118.622 43.270 C 118.003 64.211, 117.497 69.142, 113.576 92.520 C 110.877 108.615, 106.838 127.734, 102.961 142.768 C 99.519 156.115, 96.990 167.323, 97.340 167.674 C 97.691 168.024, 103.720 167.048, 110.739 165.505 C 125.473 162.264, 125.116 162.269, 145.367 165.045 C 160.192 167.077, 161.212 167.094, 174.559 165.547 C 182.166 164.665, 188.508 163.825, 188.653 163.680 C 189.046 163.288, 159.589 111.064, 158.955 111.030 C 158.656 111.013, 156.562 114.235, 154.303 118.188 C 151.867 122.449, 144.557 131.627, 136.347 140.729 L 122.500 156.083 121.667 137.051 L 120.834 118.019 132.008 89.760 C 142.827 62.398, 143.273 60.960, 146.064 44.523 C 147.649 35.185, 148.620 27.260, 148.223 26.912 C 147.393 26.184, 122.751 20, 120.682 20 C 119.580 20, 119.176 24.562, 118.622 43.270" stroke="none" fill="black" fill-rule="evenodd"/>
</svg>