<svg xmlns="http://www.w3.org/2000/svg" width="200" height="200" viewBox="0 0 200 200" version="1.1">
	<path d="M 115.044 24.416 L 106.833 40.067 95.934 45.533 C 86.094 50.468, 83.763 51.201, 71.937 53.085 C 64.732 54.232, 58.711 55.020, 58.557 54.835 C 58.402 54.651, 62.009 46.633, 66.572 37.017 C 71.135 27.402, 74.780 19.446, 74.672 19.338 C 74.564 19.230, 65.481 18.684, 54.488 18.123 C 36.593 17.211, 31.201 17.535, 33.075 19.408 C 33.318 19.651, 41.479 20.237, 51.210 20.710 C 60.941 21.183, 69.205 21.871, 69.574 22.240 C 69.942 22.609, 66.517 30.809, 61.962 40.462 C 57.406 50.115, 53.864 58.190, 54.090 58.407 C 54.315 58.625, 61.700 57.586, 70.500 56.098 C 85.560 53.553, 87.156 53.061, 97.666 47.731 L 108.831 42.068 115.989 28.520 C 119.926 21.069, 123.511 15.198, 123.957 15.473 C 124.402 15.748, 127.770 20.685, 131.441 26.444 L 138.115 36.914 135.583 50.149 C 134.191 57.428, 133.227 63.560, 133.442 63.775 C 133.657 63.990, 142.612 61.653, 153.343 58.583 C 164.073 55.512, 173.214 53, 173.655 53 C 174.096 53, 171.634 55.587, 168.183 58.750 L 161.910 64.500 159.201 84.500 C 156.610 103.635, 156.531 105.474, 157.370 127.018 L 158.246 149.535 150.476 167.736 L 142.705 185.936 128.602 176.338 C 108.185 162.441, 108.910 164.655, 121.948 156.034 L 133 148.727 132.875 123.113 C 132.807 109.026, 132.469 89.547, 132.125 79.827 L 131.500 62.154 114.500 75.180 L 97.500 88.205 97 81.359 L 96.500 74.513 87 69.270 C 81.775 66.386, 77.213 64.021, 76.863 64.013 C 75.278 63.980, 74.837 114.923, 76.249 135 L 77.690 155.500 68.180 170.752 C 62.950 179.140, 58.557 185.890, 58.418 185.751 C 58.279 185.612, 56.385 177.624, 54.210 167.999 L 50.255 150.500 51.160 115 C 51.658 95.475, 51.938 75.852, 51.783 71.394 L 51.500 63.289 36.042 82.103 C 27.540 92.451, 20.485 100.818, 20.363 100.697 C 19.928 100.261, 27.664 72.957, 39.615 32.750 C 39.938 31.661, 39.599 31, 38.715 31 C 37.733 31, 35.408 37.381, 31.155 51.750 C 23.406 77.933, 16 104.726, 16 106.579 C 16 110.717, 18.848 107.636, 47.304 72.714 C 49.047 70.575, 49.086 71.885, 48.457 111.500 L 47.805 152.500 51.939 171 C 54.213 181.175, 56.395 190.281, 56.787 191.235 C 57.323 192.541, 60.328 188.480, 68.929 174.829 L 80.358 156.687 79.168 137.593 C 77.934 117.782, 77.787 86.422, 78.874 74.819 L 79.500 68.138 86.903 72.319 L 94.306 76.500 94.089 85.364 L 93.871 94.228 96.685 92.213 C 98.233 91.104, 106.025 85.160, 114 79.005 L 128.500 67.813 129.126 74.656 C 129.470 78.420, 129.799 96.350, 129.857 114.500 L 129.962 147.500 117.944 155.413 C 110.698 160.183, 106.288 163.688, 106.838 164.238 C 109.669 167.069, 143.576 189.806, 144.081 189.212 C 144.414 188.820, 148.401 179.771, 152.942 169.102 L 161.197 149.704 160.178 127.102 C 159.185 105.066, 159.227 104.014, 161.881 85.103 L 164.603 65.705 172.829 58.103 C 179.898 51.569, 182.586 48, 180.440 48 C 180.131 48, 170.413 50.731, 158.842 54.069 C 147.271 57.407, 137.569 59.902, 137.280 59.613 C 136.992 59.325, 137.718 53.923, 138.895 47.609 L 141.034 36.129 132.145 22.447 L 123.255 8.764 115.044 24.416" stroke="none" fill="black" fill-rule="evenodd"/>
</svg>