<svg xmlns="http://www.w3.org/2000/svg" width="200" height="200" viewBox="0 0 200 200" version="1.1">
	<path d="M 80.008 31.612 L 67.671 46.280 58.085 45.645 C 52.813 45.296, 43.775 44.972, 38 44.926 L 27.500 44.842 49.750 37.338 C 65.731 31.948, 72 29.404, 72 28.310 C 72 27.269, 71.445 26.999, 70.250 27.458 C 69.287 27.827, 57.138 31.982, 43.250 36.691 C 26.894 42.237, 18 45.730, 18 46.607 C 18 47.697, 22.308 48.014, 40.075 48.231 L 62.151 48.500 46.575 65.885 C 38.009 75.447, 30.996 83.772, 30.991 84.385 C 30.987 84.998, 29.196 99.662, 27.012 116.971 C 24.829 134.280, 23.370 148.742, 23.771 149.108 C 24.172 149.475, 29.026 151.243, 34.559 153.037 C 43.442 155.919, 44.847 156.696, 46.581 159.685 C 48.069 162.251, 51.564 164.744, 61.022 169.985 L 73.500 176.899 78.830 171.700 C 81.761 168.840, 89.525 160.815, 96.084 153.866 L 108.009 141.232 102.505 111.749 C 99.477 95.533, 97 81.999, 97 81.673 C 97 81.347, 95.200 80.541, 93 79.882 C 90.800 79.223, 89.003 78.192, 89.006 77.592 C 89.009 76.991, 90.751 72, 92.877 66.500 L 96.743 56.500 104.121 52.316 C 108.180 50.015, 111.819 48.103, 112.209 48.066 C 112.599 48.030, 119.014 55.945, 126.466 65.657 L 140.014 83.313 137.257 85.051 C 135.741 86.007, 129.367 91.976, 123.094 98.317 L 111.687 109.845 123.012 122.673 C 129.240 129.728, 135.171 136.440, 136.190 137.588 C 138.015 139.644, 137.925 139.930, 130.401 155.884 C 126.198 164.798, 123.034 172.367, 123.370 172.703 C 123.981 173.314, 178.074 165.258, 181.092 164.107 C 182.303 163.645, 178.432 158.605, 164.912 143.042 C 155.137 131.790, 147.314 122.301, 147.528 121.955 C 147.741 121.609, 152.705 119.566, 158.558 117.413 C 166.029 114.666, 169.428 112.904, 169.965 111.500 C 171.031 108.713, 178.496 56.163, 177.910 55.576 C 177.647 55.313, 169.122 53.562, 158.966 51.684 C 146.665 49.410, 141.335 48.063, 143 47.650 C 144.375 47.309, 152.250 45.883, 160.500 44.481 C 181.027 40.994, 181 41.001, 181 39.597 C 181 38.126, 108.066 22.488, 106.957 23.722 C 106.573 24.150, 103.672 31.166, 100.511 39.313 L 94.764 54.126 78.382 62.299 C 69.372 66.794, 62.001 70.703, 62.003 70.986 C 62.004 71.269, 65.717 72.809, 70.253 74.409 C 74.789 76.009, 79.909 77.906, 81.631 78.623 L 84.763 79.928 76.631 100.881 C 70.915 115.609, 68.247 121.386, 67.650 120.327 C 67.182 119.498, 64.866 113.123, 62.503 106.160 C 60.140 99.197, 56.107 89.060, 53.541 83.633 C 50.975 78.207, 49.080 73.257, 49.329 72.633 C 49.578 72.010, 55.124 65.200, 61.652 57.500 C 92.393 21.239, 94.281 18.881, 93.321 17.921 C 92.686 17.286, 88.030 22.075, 80.008 31.612 M 104.264 37.267 C 101.934 43.445, 99.739 49.310, 99.387 50.301 C 98.882 51.722, 100.147 51.332, 105.390 48.450 C 109.043 46.442, 112.633 45.029, 113.368 45.311 C 114.600 45.784, 144 83.380, 144 84.483 C 144 84.753, 142.537 85.607, 140.750 86.382 C 138.963 87.157, 132.576 92.770, 126.558 98.855 C 116.430 109.094, 115.729 110.051, 117.136 111.709 C 117.972 112.694, 123.741 119.258, 129.956 126.295 L 141.255 139.090 137.952 146.295 C 136.135 150.258, 132.933 157.067, 130.834 161.427 C 128.736 165.786, 127.173 169.506, 127.360 169.693 C 127.840 170.173, 173.102 163.081, 175.358 162.173 C 176.941 161.535, 174.683 158.497, 160.108 141.654 C 150.699 130.780, 143 121.568, 143 121.183 C 143 120.797, 148.544 118.334, 155.321 115.708 L 167.641 110.935 171.331 85.717 C 173.360 71.848, 175.016 59.807, 175.010 58.959 C 175.002 57.741, 170.548 56.615, 153.750 53.586 C 133.553 49.945, 129.770 48.897, 131.301 47.365 C 131.877 46.789, 166.838 40.243, 171 39.932 C 173.647 39.734, 166.598 38.066, 137.343 31.967 C 121.599 28.685, 108.669 26.008, 108.609 26.017 C 108.549 26.026, 106.594 31.089, 104.264 37.267 M 80.125 64.424 L 67.750 70.641 75.625 73.481 C 79.956 75.042, 84.005 76.499, 84.622 76.718 C 85.598 77.064, 93.594 59.226, 92.796 58.483 C 92.633 58.332, 86.931 61.005, 80.125 64.424 M 52.924 62.750 L 50.500 65.500 53.250 63.076 C 55.820 60.810, 56.459 60, 55.674 60 C 55.495 60, 54.258 61.237, 52.924 62.750 M 42.069 74.924 L 33.922 83.849 29.982 115.145 C 27.815 132.358, 26.370 146.736, 26.771 147.096 C 27.172 147.457, 31.787 149.161, 37.027 150.884 C 45.520 153.676, 46.756 154.392, 48.418 157.477 C 49.858 160.152, 52.755 162.306, 61.184 166.969 C 67.181 170.286, 72.462 173, 72.920 173 C 73.378 173, 80.819 165.749, 89.456 156.887 C 101.912 144.105, 105.060 140.331, 104.678 138.637 C 104.413 137.461, 102.016 124.618, 99.350 110.095 L 94.503 83.690 91.284 82.345 C 89.513 81.605, 87.886 81, 87.668 81 C 87.450 81, 83.080 91.800, 77.959 105 C 72.837 118.200, 68.388 128.997, 68.073 128.994 C 67.758 128.991, 65.070 121.904, 62.101 113.244 C 59.131 104.585, 54.293 92.188, 51.351 85.696 C 48.408 79.203, 46 73.378, 46 72.750 C 46 72.123, 47.209 70.347, 48.687 68.805 C 50.165 67.262, 51.114 66, 50.795 66 C 50.477 66, 46.550 70.016, 42.069 74.924" stroke="none" fill="black" fill-rule="evenodd"/>
</svg>