<svg xmlns="http://www.w3.org/2000/svg" width="200" height="200" viewBox="0 0 200 200" version="1.1">
	<path d="M 85 25.500 C 85 31.275, 84.828 36, 84.619 36 C 84.409 36, 74.905 34.650, 63.500 33 C 52.095 31.350, 41.918 30, 40.885 30 C 39.430 30, 36.068 35.876, 25.933 56.134 C 18.742 70.508, 13.453 82.039, 14.179 81.759 C 14.906 81.479, 25.400 74.749, 37.500 66.802 C 49.600 58.856, 60.039 52.038, 60.699 51.650 C 61.358 51.262, 58.708 58.720, 54.811 68.223 C 40.667 102.703, 34.933 118.340, 36.155 119.096 C 37.144 119.707, 57.006 103.233, 85.906 77.830 C 89.320 74.829, 93.459 72.353, 97.142 71.109 L 102.973 69.140 110.695 79.820 C 114.941 85.694, 120.902 93.875, 123.940 98 C 127.860 103.323, 130.264 107.946, 132.220 113.928 C 133.737 118.564, 134.870 122.447, 134.739 122.558 C 134.607 122.669, 118.644 123.564, 99.264 124.548 C 66.262 126.222, 63.647 126.230, 58.029 124.668 C 50.825 122.665, 51 122.674, 51 124.308 C 51 125.028, 61.125 132.940, 73.500 141.890 C 85.875 150.840, 95.999 158.463, 95.997 158.831 C 95.996 159.199, 82.211 164.191, 65.365 169.924 L 34.735 180.349 39.118 181.659 C 47.492 184.164, 171 183.033, 171 180.452 C 171 178.284, 156.100 173.211, 133 167.513 C 120.625 164.461, 109.656 161.614, 108.624 161.186 C 107.049 160.533, 109.772 157.560, 125.624 142.623 L 144.500 124.839 158.750 125.423 C 166.588 125.744, 173 125.719, 173 125.368 C 173 125.016, 169.712 120.627, 165.693 115.614 C 161.675 110.601, 158.083 105.993, 157.711 105.374 C 157.296 104.682, 164.147 99.313, 175.496 91.436 C 185.649 84.388, 193.761 78.428, 193.524 78.190 C 193.087 77.753, 161.772 79.519, 150.250 80.630 C 145.865 81.053, 144 81.648, 144 82.625 C 144 83.704, 145.183 83.901, 149.250 83.500 C 158.906 82.549, 184.298 80.964, 184.626 81.293 C 185.007 81.674, 157.313 100.982, 155.639 101.502 C 155.013 101.696, 149.470 95.476, 143.322 87.678 L 132.143 73.500 136.482 69.103 L 140.820 64.706 162.059 59.871 C 173.741 57.211, 183.539 54.795, 183.832 54.501 C 185.213 53.120, 180.978 51.715, 161.982 47.253 L 141.500 42.441 122.640 29.586 C 110.462 21.286, 103.977 17.399, 104.337 18.616 C 104.643 19.652, 106.718 26.659, 108.947 34.186 C 111.176 41.713, 113 48.188, 113 48.575 C 113 48.962, 106.897 41.566, 99.437 32.139 C 91.977 22.713, 85.677 15, 85.437 15 C 85.197 15, 85 19.725, 85 25.500 M 88 30.928 L 88 39.256 84.250 38.681 C 69.344 36.398, 40.915 32.757, 40.604 33.091 C 39.984 33.759, 21.903 70.126, 20.965 72.593 C 20.141 74.760, 32.272 67.325, 59.750 48.821 C 63.737 46.136, 67 44.303, 67 44.749 C 67 45.194, 62.231 57.246, 56.401 71.529 C 44.519 100.645, 39.802 113, 40.568 113 C 40.853 113, 51.867 103.662, 65.043 92.250 C 86.062 74.044, 89.863 71.159, 96.049 68.722 C 99.927 67.194, 103.513 66.199, 104.018 66.511 C 104.524 66.824, 109.767 73.796, 115.669 82.006 C 121.572 90.215, 126.563 96.771, 126.760 96.574 C 126.957 96.377, 124.538 87.380, 121.384 76.582 L 115.651 56.948 102.761 40.724 C 95.672 31.801, 89.451 24.073, 88.936 23.550 C 88.354 22.959, 88 25.745, 88 30.928 M 109 24.257 C 109 25.626, 118.138 55.477, 118.833 56.378 C 119.309 56.995, 122.082 60.569, 124.995 64.319 L 130.291 71.138 134.896 66.635 C 139.494 62.138, 139.525 62.126, 157.427 58.056 C 167.287 55.814, 175.504 53.830, 175.687 53.646 C 175.870 53.463, 168.253 51.563, 158.760 49.423 L 141.500 45.533 126.500 35.442 C 110.077 24.394, 109 23.706, 109 24.257 M 120.432 64 C 120.735 64.825, 123.653 74.607, 126.917 85.738 C 130.965 99.539, 133.746 107.218, 135.662 109.884 L 138.472 113.793 145.684 108.808 L 152.896 103.822 145.249 94.161 C 120.670 63.107, 119.648 61.865, 120.432 64 M 146.533 111.534 C 142.150 114.566, 137.959 116.814, 137.217 116.530 C 136.307 116.181, 136.038 116.579, 136.387 117.756 C 138.485 124.821, 138.488 124.812, 133.840 125.394 C 126.054 126.368, 63.956 129.222, 61.951 128.698 C 60.878 128.417, 60 128.334, 60 128.513 C 60 128.693, 69.448 135.671, 80.996 144.021 C 92.545 152.371, 101.793 159.526, 101.549 159.921 C 101.304 160.317, 88.593 164.884, 73.302 170.070 L 45.500 179.500 92.500 179.807 C 118.350 179.976, 144.675 179.811, 151 179.441 L 162.500 178.768 158 177.031 C 155.525 176.075, 141.910 172.423, 127.744 168.915 C 113.578 165.407, 102.130 162.109, 102.304 161.587 C 102.479 161.064, 111.819 151.928, 123.060 141.283 L 143.500 121.929 155.883 122.549 L 168.265 123.169 163.651 117.334 C 161.113 114.125, 158.016 110.267, 156.768 108.760 L 154.500 106.021 146.533 111.534" stroke="none" fill="black" fill-rule="evenodd"/>
</svg>