<svg xmlns="http://www.w3.org/2000/svg" width="200" height="200" viewBox="0 0 200 200" version="1.1">
	<path d="M 34.507 24.250 C 33.359 27.586, 23.029 71.362, 23.321 71.654 C 23.505 71.838, 27.522 70.683, 32.248 69.085 L 40.839 66.181 43.655 74.341 C 45.733 80.363, 47.624 83.744, 50.872 87.250 C 54.856 91.550, 55.059 92, 53.014 92 C 50.630 92, 20.968 89.305, 15 88.546 L 11.500 88.100 14.500 90.627 L 17.500 93.154 14 92.433 C 8.861 91.375, 7.755 91.388, 7.354 92.511 C 7.065 93.318, 40.684 111, 42.507 111 C 42.778 111, 43 110.401, 43 109.670 C 43 108.938, 40.948 106.865, 38.439 105.064 C 35.931 103.262, 34.043 101.623, 34.245 101.422 C 34.574 101.092, 54.541 106.226, 57.807 107.479 C 58.600 107.784, 52.573 113.476, 42.817 121.635 C 33.843 129.141, 26.419 135.337, 26.319 135.405 C 26.220 135.472, 29.874 148.572, 34.439 164.514 L 42.740 193.500 44.740 187 C 45.840 183.425, 51.376 164.750, 57.043 145.500 C 62.710 126.250, 67.402 110.404, 67.470 110.287 C 67.683 109.917, 78.179 112.846, 78.774 113.441 C 79.086 113.753, 78.283 115.134, 76.990 116.511 C 74.186 119.496, 73.347 116.265, 87.369 156.500 L 96.779 183.500 113.139 184.112 C 122.138 184.448, 138.311 184.786, 149.080 184.862 L 168.659 185 173.951 147.750 C 176.861 127.262, 179.462 109.098, 179.730 107.385 L 180.218 104.269 158.304 92.998 L 136.391 81.727 128.793 68.614 C 124.614 61.401, 121.336 55.353, 121.507 55.174 C 121.678 54.995, 127.903 55.821, 135.340 57.011 C 142.777 58.200, 149.483 59.022, 150.243 58.837 C 151.003 58.652, 157.418 51.975, 164.499 44 L 177.372 29.500 174.170 29.185 C 172.408 29.012, 159.162 29.576, 144.734 30.437 C 130.305 31.299, 117.729 32.003, 116.788 32.002 C 115.321 32, 115.034 33.273, 114.788 40.857 L 114.500 49.714 100.864 37.561 L 87.229 25.408 64.364 24.187 C 36.319 22.690, 35.043 22.692, 34.507 24.250 M 31.961 46.350 C 29.159 57.818, 27.009 67.325, 27.184 67.477 C 27.358 67.630, 38.525 64.196, 52 59.848 C 78.423 51.321, 93.492 48.305, 104.250 49.389 C 107.412 49.708, 110 49.826, 110 49.652 C 110 49.477, 104.683 44.589, 98.185 38.789 L 86.370 28.243 61.712 26.872 L 37.055 25.500 31.961 46.350 M 137.734 33.486 C 126.863 34.153, 117.808 34.879, 117.612 35.099 C 117.417 35.320, 117.477 39.134, 117.747 43.576 L 118.237 51.652 133.461 53.962 C 141.834 55.232, 149.126 56.098, 149.665 55.886 C 150.204 55.674, 154.411 51.225, 159.014 46 C 163.618 40.775, 168.276 35.487, 169.366 34.250 L 171.349 32 164.424 32.136 C 160.616 32.211, 148.605 32.818, 137.734 33.486 M 87.500 53.170 C 79.513 54.340, 70.651 56.561, 61 59.810 L 46.500 64.692 61 65.331 C 68.975 65.683, 84.500 66.072, 95.500 66.196 L 115.500 66.420 115.171 60.465 C 114.990 57.189, 114.647 54.314, 114.409 54.076 C 114.171 53.837, 110.719 53.140, 106.738 52.527 C 100.761 51.606, 97.409 51.718, 87.500 53.170 M 118.032 61.200 C 118.009 64.528, 118.476 66.167, 119.628 66.812 C 120.742 67.435, 120.900 67.944, 120.128 68.421 C 118.737 69.280, 118.566 92.727, 119.924 96.301 C 120.790 98.578, 121.479 98.776, 130.846 99.440 C 138.835 100.007, 140.976 100.486, 141.506 101.825 C 144.484 109.352, 151.088 128.241, 150.827 128.485 C 150.647 128.654, 143.876 122.989, 135.781 115.896 C 127.686 108.803, 120.823 103, 120.531 103 C 119.668 103, 119.926 120.836, 120.797 121.374 C 121.235 121.645, 129.186 123.954, 138.466 126.506 C 152.418 130.341, 155.476 130.900, 156.130 129.732 C 158.089 126.232, 160.764 123.736, 161.842 124.402 C 162.658 124.907, 162.235 126.136, 160.436 128.496 L 157.863 131.868 161.682 132.929 C 163.782 133.512, 166.063 133.991, 166.750 133.994 C 167.438 133.997, 168 134.675, 168 135.500 C 168 137.355, 166.773 137.365, 160.822 135.559 L 156.144 134.139 138.672 157.820 L 121.199 181.500 143.247 181.770 C 155.373 181.918, 165.533 181.801, 165.824 181.510 C 166.275 181.058, 176.912 109.331, 176.948 106.500 C 176.954 105.950, 167.389 100.629, 155.691 94.676 L 134.421 83.852 127.622 71.996 C 118.172 55.518, 118.071 55.404, 118.032 61.200 M 45 68.892 C 45 69.460, 45.952 72.529, 47.115 75.712 C 48.586 79.737, 50.910 83.223, 54.742 87.157 L 60.254 92.814 68.108 93.510 L 75.962 94.205 85.588 85.925 C 92.445 80.025, 95.584 77.911, 96.503 78.572 C 97.213 79.083, 99.162 80.523, 100.835 81.774 L 103.875 84.047 109.574 76.994 C 112.709 73.114, 115.100 69.788, 114.887 69.601 C 114.674 69.415, 98.863 68.947, 79.750 68.560 C 56.048 68.081, 45 68.187, 45 68.892 M 110.570 80.117 L 105.702 86.130 110.601 90.520 C 113.296 92.935, 115.819 94.931, 116.208 94.955 C 116.763 94.990, 116.158 75.104, 115.580 74.302 C 115.501 74.193, 113.247 76.810, 110.570 80.117 M 87.559 87.860 L 79.617 94.500 86.559 95.291 L 93.500 96.083 97.671 91.318 C 99.965 88.697, 101.638 86.224, 101.390 85.823 C 101.142 85.421, 99.716 84.222, 98.220 83.157 L 95.500 81.220 87.559 87.860 M 100.513 92.168 C 97.231 96.067, 97.873 96.526, 107.715 97.306 L 114.929 97.878 109.931 93.439 C 107.182 90.997, 104.538 89, 104.056 89 C 103.573 89, 101.978 90.425, 100.513 92.168 M 22 92.363 C 22 93.997, 28.023 96.302, 43.103 100.442 C 52.234 102.949, 60.361 105, 61.162 105 C 61.962 105, 63.491 104.329, 64.559 103.509 C 66.440 102.064, 66.390 101.915, 62.966 98.694 C 59.467 95.402, 59.292 95.358, 44.966 94.155 C 37.010 93.487, 28.587 92.678, 26.250 92.357 C 23.913 92.036, 22 92.039, 22 92.363 M 66.471 97.968 C 67.898 99.545, 68.651 99.722, 70.261 98.860 C 71.879 97.995, 72 97.614, 70.885 96.908 C 70.123 96.425, 68.418 96.024, 67.095 96.015 C 64.766 96, 64.747 96.062, 66.471 97.968 M 72.684 100.395 C 67.391 105.243, 67.769 107.310, 74.250 108.953 C 77.138 109.686, 79.982 110.463, 80.572 110.681 C 81.582 111.054, 91.632 99.236, 90.860 98.583 C 90.662 98.415, 87.320 97.995, 83.434 97.649 C 76.443 97.027, 76.330 97.056, 72.684 100.395 M 23.083 98.365 C 23.313 98.565, 24.625 99.265, 26 99.920 C 28.357 101.042, 28.389 101.022, 26.559 99.555 C 24.966 98.279, 21.711 97.164, 23.083 98.365 M 89.657 105.076 C 86.993 108.415, 85.010 111.343, 85.250 111.583 C 85.705 112.038, 117.429 120.941, 117.594 120.660 C 117.645 120.572, 117.480 116.143, 117.227 110.818 L 116.767 101.137 113.134 100.601 C 111.135 100.306, 106.125 99.826, 102 99.535 L 94.500 99.006 89.657 105.076 M 134.193 110.928 C 139.849 115.838, 144.606 119.727, 144.764 119.570 C 144.921 119.412, 143.744 115.732, 142.149 111.392 C 138.941 102.664, 138.500 102.360, 128.704 102.118 L 123.908 102 134.193 110.928 M 48.803 120.161 C 41.486 126.299, 34.114 132.518, 32.420 133.981 L 29.339 136.641 36.061 160.070 C 39.758 172.957, 43.035 182.825, 43.342 182 C 43.650 181.175, 48.430 165.200, 53.966 146.500 C 59.501 127.800, 64.279 111.713, 64.582 110.750 C 65.791 106.922, 61.612 109.414, 48.803 120.161 M 80.069 116.903 C 78.931 118.501, 78 120.106, 78 120.470 C 78 121.657, 98.224 179.480, 98.902 180.231 C 99.264 180.632, 104.133 181.261, 109.721 181.627 L 119.881 182.293 119.330 167.396 C 119.027 159.203, 118.491 146.009, 118.140 138.076 L 117.500 123.652 102 119.387 C 93.475 117.041, 85.519 114.868, 84.319 114.559 C 82.690 114.139, 81.616 114.731, 80.069 116.903 M 121.118 136.750 C 121.183 143.213, 121.521 154.495, 121.868 161.822 L 122.500 175.144 137.813 154.468 C 146.234 143.096, 152.984 133.655, 152.813 133.488 C 152.424 133.110, 122.720 125, 121.724 125 C 121.326 125, 121.053 130.287, 121.118 136.750" stroke="none" fill="black" fill-rule="evenodd"/>
</svg>