<svg xmlns="http://www.w3.org/2000/svg" width="200" height="200" viewBox="0 0 200 200" version="1.1">
	<path d="M 32.700 38.238 C 25.243 55.419, 19.305 69.638, 19.504 69.837 C 19.703 70.036, 24.865 67.904, 30.976 65.099 C 37.087 62.295, 42.695 60, 43.439 60 C 44.184 60, 52.054 63.150, 60.930 67 C 69.805 70.850, 77.277 74, 77.533 74 C 77.790 74, 78 73.400, 78 72.667 C 78 71.438, 46.062 56.997, 43.350 56.999 C 42.717 57, 38.264 58.810, 33.454 61.021 C 28.644 63.233, 24.608 64.920, 24.485 64.771 C 24.125 64.335, 46.449 13.041, 47 13.039 C 47.275 13.038, 51.748 19.794, 56.941 28.052 C 62.133 36.311, 66.858 42.872, 67.441 42.634 C 68.023 42.396, 77.138 38.325, 87.695 33.587 L 106.889 24.974 120.195 28.395 C 128.213 30.457, 139.858 32.512, 149.500 33.567 C 158.300 34.530, 165.874 35.642, 166.331 36.039 C 166.787 36.436, 163.252 38.277, 158.474 40.131 C 153.697 41.984, 149.592 43.984, 149.353 44.577 C 149.114 45.169, 151.631 53.463, 154.945 63.008 C 158.260 72.552, 160.865 80.457, 160.736 80.572 C 160.606 80.688, 149.025 83.988, 135 87.905 C 120.975 91.822, 108.729 95.358, 107.786 95.764 C 104.953 96.981, 146.524 116.099, 153.766 116.909 C 158.211 117.407, 154.554 117.852, 137.500 118.889 C 125.400 119.626, 112.971 120.514, 109.879 120.864 L 104.258 121.500 130.307 138.098 L 156.357 154.696 161.669 167.024 C 164.591 173.804, 166.865 179.468, 166.723 179.611 C 166.581 179.753, 155.897 172.905, 142.982 164.393 C 121.798 150.432, 118.539 148.619, 109.682 145.860 C 104.282 144.178, 99.107 143.003, 98.182 143.249 C 97.257 143.494, 83.559 152.313, 67.742 162.847 C 51.926 173.381, 38.763 182, 38.492 182 C 38.222 182, 38 180.372, 38 178.381 C 38 174.967, 39.510 173.281, 64.703 148.569 L 91.406 122.376 68.953 120.556 C 37.625 118.015, 35.552 117.510, 53.356 116.753 C 61.526 116.406, 68.417 115.917, 68.668 115.666 C 68.919 115.415, 66.802 110.258, 63.964 104.207 C 58.809 93.218, 58.797 93.203, 54.206 91.918 C 51.677 91.210, 50.259 90.412, 51.054 90.145 C 51.849 89.877, 68.365 86.208, 87.757 81.989 C 107.148 77.771, 123.264 74.070, 123.570 73.764 C 124.477 72.857, 116.174 57.161, 114.259 56.162 C 113.292 55.657, 107.661 53.767, 101.747 51.962 C 91.239 48.756, 90.834 48.710, 84.068 49.987 C 76.630 51.391, 74.111 52.444, 75.314 53.647 C 75.729 54.063, 79.369 53.713, 83.403 52.870 L 90.737 51.338 102.118 54.938 L 113.500 58.539 116.844 64.843 C 118.683 68.310, 119.909 71.424, 119.569 71.764 C 118.994 72.340, 83.669 80.283, 53.250 86.677 C 45.962 88.209, 40.006 89.696, 40.013 89.981 C 40.020 90.266, 43.732 91.625, 48.263 93 L 56.500 95.500 60.740 104 C 63.072 108.675, 64.985 112.770, 64.990 113.100 C 64.996 113.430, 57.013 114.002, 47.250 114.371 C 21.575 115.342, 15 116.008, 15 117.638 C 15 118.387, 15.787 118.990, 16.750 118.978 C 20.067 118.937, 81.503 124.192, 82.948 124.640 C 83.882 124.930, 75.623 133.867, 59.698 149.802 L 35 174.515 35 181.265 L 35 188.016 66.488 167.008 C 83.807 155.454, 98.703 146, 99.592 146 C 100.480 146, 105.098 147.213, 109.854 148.694 C 117.447 151.061, 121.770 153.564, 145.355 169.256 C 160.125 179.083, 172.380 186.953, 172.588 186.746 C 172.796 186.538, 169.741 178.848, 165.800 169.658 L 158.634 152.949 135.676 138.271 C 123.049 130.199, 113.119 123.475, 113.609 123.331 C 114.420 123.091, 178.836 118.996, 181.750 118.999 C 182.438 118.999, 183 118.325, 183 117.500 C 183 116.675, 182.438 116.003, 181.750 116.007 C 181.063 116.011, 173.525 115.521, 165 114.919 L 149.500 113.824 132.250 105.754 C 122.763 101.316, 115 97.394, 115 97.037 C 115 96.681, 126.025 93.303, 139.500 89.530 C 152.975 85.758, 163.996 82.183, 163.991 81.586 C 163.986 80.989, 161.307 72.885, 158.038 63.579 C 154.769 54.272, 152.272 46.368, 152.490 46.015 C 152.709 45.662, 158.776 42.977, 165.973 40.049 C 173.170 37.121, 178.933 34.614, 178.779 34.478 C 178.626 34.342, 168.150 32.996, 155.500 31.488 C 140.455 29.694, 128.030 27.592, 119.577 25.412 L 106.654 22.079 87.651 30.579 C 77.199 35.254, 68.164 38.890, 67.574 38.659 C 66.983 38.428, 62.078 31.211, 56.673 22.620 C 51.268 14.029, 46.713 7, 46.551 7 C 46.389 7, 40.156 21.057, 32.700 38.238" stroke="none" fill="black" fill-rule="evenodd"/>
</svg>