<svg xmlns="http://www.w3.org/2000/svg" width="200" height="200" viewBox="0 0 200 200" version="1.1">
	<path d="M 60.386 13.804 C 59.668 14.277, 60.220 19.149, 62.107 29 C 63.635 36.975, 64.911 43.824, 64.943 44.220 C 64.974 44.616, 51.888 40.454, 35.863 34.970 C 6.828 25.035, 4 24.227, 4 25.862 C 4 26.660, 15.435 38.047, 29.304 51.060 L 35.108 56.505 27.145 100.003 L 19.183 143.500 30.636 160.500 C 36.935 169.850, 42.857 178.497, 43.795 179.717 C 45.466 181.888, 45.691 181.474, 54.965 159.217 C 67.536 129.044, 74.901 114.288, 85.611 97.813 L 94.510 84.126 99.352 93.133 C 102.015 98.087, 104.038 102.278, 103.847 102.446 C 103.656 102.615, 99.513 103.683, 94.640 104.820 C 89.767 105.957, 85.584 107.083, 85.345 107.321 C 85.107 107.560, 88.306 125.610, 92.456 147.432 C 96.605 169.254, 100 187.534, 100 188.054 C 100 190.472, 102.445 187.763, 115.474 170.911 C 127.833 154.925, 129.555 153.077, 130.377 154.918 C 131.307 157.002, 134 157.841, 134 156.047 C 134 155.523, 133.491 153.976, 132.868 152.610 C 131.870 150.420, 132.176 149.528, 135.454 145.063 C 137.498 142.278, 139.299 140, 139.457 140 C 139.614 140, 144.625 151.676, 150.592 165.946 C 156.560 180.216, 161.557 191.776, 161.698 191.636 C 162.110 191.224, 180 102.438, 180 100.805 C 180 99.989, 175.530 95.537, 170.066 90.911 L 160.133 82.500 173.270 82 L 186.407 81.500 171.359 71.176 L 156.311 60.852 157.373 56.211 C 157.958 53.658, 161.708 46.154, 165.708 39.535 C 172.041 29.055, 172.756 27.403, 171.240 26.750 C 170.283 26.337, 159.771 23.783, 147.880 21.074 L 126.259 16.148 101.423 29 L 76.586 41.852 69.199 27.676 C 65.137 19.879, 61.729 13.412, 61.627 13.304 C 61.525 13.197, 60.967 13.422, 60.386 13.804 M 102.500 31.461 C 89.300 38.307, 78.500 44.491, 78.500 45.204 C 78.500 46.633, 78.471 46.634, 88.658 44.999 L 95.815 43.850 108.576 51.370 C 121.087 58.743, 121.284 58.914, 118.668 60.105 C 117.201 60.774, 116 61.602, 116 61.945 C 116 62.287, 123.498 65.028, 132.662 68.034 C 143.137 71.470, 150.615 74.521, 152.800 76.250 C 156.094 78.857, 156.824 79, 166.838 79 C 172.818 79, 176.988 78.626, 176.450 78.138 C 175.928 77.664, 170.410 73.786, 164.188 69.520 C 156.092 63.969, 153.041 61.335, 153.456 60.253 C 153.775 59.422, 154.558 56.663, 155.195 54.121 C 155.832 51.580, 159.209 44.877, 162.698 39.227 C 166.910 32.406, 168.615 28.814, 167.771 28.537 C 167.072 28.309, 158.400 26.285, 148.500 24.041 C 138.600 21.797, 129.600 19.748, 128.500 19.488 C 127.231 19.188, 117.731 23.563, 102.500 31.461 M 64.465 27 C 64.767 28.375, 65.677 33.053, 66.487 37.397 C 67.297 41.740, 68.155 45.489, 68.394 45.728 C 68.749 46.082, 72.611 44.471, 73.815 43.466 C 74.202 43.143, 68.729 32.216, 65.945 27.753 C 64.158 24.889, 63.981 24.799, 64.465 27 M 23.491 41.676 L 35.481 53.263 36.285 49.381 C 37.891 41.622, 38.495 40.040, 39.572 40.772 C 40.305 41.269, 37.713 57.624, 31.391 92.394 L 22.138 143.287 33.274 159.638 C 39.399 168.631, 44.698 175.654, 45.050 175.245 C 45.401 174.835, 50.104 163.925, 55.501 151 C 67.575 122.085, 71.384 114.366, 79.906 101.551 C 93.119 81.678, 93.198 81.528, 91.870 78.615 C 91.215 77.177, 90.280 76, 89.792 76 C 89.305 76, 85.626 77.800, 81.618 80 C 77.609 82.200, 73.887 84, 73.346 84 C 72.804 84, 71.073 76.983, 69.499 68.406 C 66.911 54.310, 66.413 52.727, 64.318 51.931 C 61.789 50.969, 61.275 49.426, 63.250 48.720 C 63.938 48.475, 64.275 48.052, 64 47.782 C 63.392 47.183, 13.132 29.982, 12.176 30.045 C 11.804 30.069, 16.896 35.303, 23.491 41.676 M 73.507 46.989 C 73.157 47.555, 73.558 47.723, 74.448 47.382 C 76.180 46.717, 76.497 46, 75.059 46 C 74.541 46, 73.843 46.445, 73.507 46.989 M 85.143 48.212 C 82.197 48.748, 80.172 49.537, 80.643 49.966 C 81.114 50.394, 88.335 53.009, 96.690 55.777 C 109.223 59.929, 112.173 60.594, 113.560 59.580 C 115.021 58.512, 113.967 57.610, 105.495 52.676 C 95.340 46.762, 94.332 46.540, 85.143 48.212 M 69.290 53.002 C 69.578 54.104, 70.833 60.629, 72.079 67.502 C 73.325 74.376, 74.756 80, 75.260 80 C 75.763 80, 79.043 78.396, 82.549 76.435 L 88.924 72.871 83.766 62.501 C 78.463 51.838, 77.623 51.042, 71.633 51.014 C 69.255 51.002, 68.856 51.341, 69.290 53.002 M 83 54.522 C 83 55.777, 91.095 71, 91.763 71 C 92.170 71, 96.072 69.130, 100.434 66.844 L 108.366 62.688 95.933 58.388 C 81.667 53.455, 83 53.853, 83 54.522 M 103.121 68.459 C 92.885 73.833, 92.496 74.191, 93.943 76.893 C 95.049 78.959, 95.615 79, 123.249 79 C 147.055 79, 151.201 78.789, 149.964 77.640 C 148.691 76.459, 113.961 63.951, 112.169 64.029 C 111.801 64.045, 107.729 66.038, 103.121 68.459 M 97 82.356 C 97 82.552, 99.273 87.029, 102.050 92.306 C 104.992 97.893, 107.602 101.719, 108.300 101.468 C 109.826 100.921, 150.928 91, 151.670 91 C 151.974 91, 147.596 95.978, 141.941 102.063 L 131.660 113.126 142.438 123.937 C 149.703 131.225, 152.817 134.995, 151.993 135.504 C 151.204 135.992, 146.653 132.143, 139.149 124.638 L 127.527 113.017 135.992 104.508 C 140.647 99.829, 144.016 95.996, 143.478 95.991 C 142.940 95.986, 134.760 97.828, 125.300 100.086 L 108.101 104.190 118.790 125.595 C 124.668 137.368, 129.783 147, 130.155 147 C 130.527 147, 132.782 144.313, 135.166 141.029 C 137.549 137.745, 139.772 135.045, 140.105 135.029 C 140.438 135.013, 145.163 145.756, 150.605 158.902 C 156.047 172.048, 160.601 182.710, 160.724 182.595 C 161.345 182.014, 177.068 102.610, 176.806 101.375 C 176.638 100.583, 171.775 95.903, 166 90.976 L 155.500 82.017 126.250 82.009 C 110.162 82.004, 97 82.160, 97 82.356 M 96.010 107.164 C 91.891 108.254, 88.407 109.260, 88.268 109.399 C 87.926 109.740, 101.771 182.104, 102.274 182.607 C 102.589 182.922, 121.139 159.638, 126.772 151.856 C 127.868 150.342, 126.485 146.979, 116.782 127.550 C 110.588 115.147, 105.066 105.041, 104.510 105.091 C 103.955 105.141, 100.130 106.074, 96.010 107.164" stroke="none" fill="black" fill-rule="evenodd"/>
</svg>