<svg xmlns="http://www.w3.org/2000/svg" width="200" height="200" viewBox="0 0 200 200" version="1.1">
	<path d="M 139 11.721 C 139 12.118, 142.345 25.056, 146.432 40.471 C 150.520 55.887, 154.008 69.317, 154.182 70.315 C 154.434 71.753, 150.588 74.196, 135.621 82.102 C 125.237 87.587, 116.643 91.946, 116.522 91.788 C 116.400 91.629, 116.980 82.725, 117.809 72 L 119.316 52.500 113.554 43.245 C 110.385 38.154, 107.473 33.793, 107.085 33.552 C 106.696 33.312, 98.811 46.158, 89.563 62.099 C 80.315 78.039, 72.576 90.910, 72.366 90.700 C 71.698 90.031, 60.992 35.675, 61.440 35.227 C 61.676 34.990, 66.662 39.355, 72.520 44.926 L 83.170 55.054 84.898 52.777 C 92.296 43.030, 102 29.039, 102 28.120 C 102 25.346, 99.624 27.818, 91.531 39.014 L 82.847 51.027 73.173 41.926 C 64.380 33.651, 58.433 29.234, 57.434 30.232 C 57.133 30.534, 68.250 87.024, 70.557 96.913 C 71.054 99.045, 71.599 98.494, 75.241 92.177 C 77.507 88.245, 79.501 85.168, 79.672 85.339 C 79.972 85.638, 78.110 112.663, 77.678 114.300 C 77.562 114.740, 74.026 112.153, 69.820 108.550 C 65.615 104.948, 61.910 102, 61.587 102 C 61.264 102, 61 115.669, 61 132.375 C 61 149.081, 60.722 164.141, 60.382 165.841 L 59.764 168.932 48.132 161.081 C 36.881 153.486, 36.181 153.173, 26.750 151.497 C 21.387 150.544, 17 149.567, 17 149.326 C 17 149.085, 20.806 134.401, 25.459 116.694 C 30.111 98.987, 35.107 78.734, 36.561 71.687 L 39.205 58.874 34.962 41.687 C 32.629 32.234, 30.423 23.930, 30.060 23.232 C 29.698 22.535, 27.401 29.604, 24.957 38.940 C 22.406 48.683, 20.256 55.188, 19.910 54.208 C 19.578 53.269, 18.267 45.075, 16.997 36 C 14.816 20.405, 13.878 16.789, 12.398 18.268 C 11.795 18.872, 17.745 63.078, 18.536 63.870 C 20.153 65.487, 22.046 61.121, 25.432 47.964 C 29.922 30.516, 29.535 30.461, 34.032 49.175 L 36.357 58.849 33.524 72.675 C 31.966 80.279, 26.936 100.663, 22.345 117.974 C 14.080 149.146, 13.431 152, 14.605 152 C 14.938 152, 19.982 152.949, 25.814 154.109 C 36.315 156.197, 36.546 156.305, 49.459 165.169 L 62.500 174.121 63.112 157.811 C 63.448 148.840, 63.786 133.963, 63.862 124.750 C 63.938 115.537, 64.277 108, 64.616 108 C 64.955 108, 68.345 110.760, 72.150 114.133 C 75.955 117.506, 79.330 120.003, 79.650 119.683 C 79.971 119.362, 80.718 112.102, 81.311 103.550 C 81.904 94.997, 82.656 88, 82.984 88 C 83.311 88, 88.373 96.314, 94.232 106.476 L 104.885 124.952 90.052 157.419 C 81.894 175.276, 75.470 190.136, 75.776 190.443 C 76.083 190.749, 76.692 191, 77.131 191 C 79.155 191, 122.544 136.134, 132.883 120.500 C 139.067 111.150, 143.890 104.400, 143.602 105.500 C 143.313 106.600, 140.148 120.325, 136.568 136 L 130.058 164.500 139.991 174.455 C 145.453 179.931, 150.097 184.206, 150.311 183.955 C 150.524 183.705, 155.274 168.056, 160.866 149.180 C 169.291 120.744, 171.716 110.971, 175.015 92.180 C 177.204 79.706, 178.997 68.662, 178.998 67.638 C 179.001 65.157, 142.020 11, 140.324 11 C 139.596 11, 139 11.325, 139 11.721 M 144.314 21.500 C 147.898 34.252, 158.021 73.307, 157.796 73.514 C 156.706 74.518, 114.925 96, 114.062 96 C 113.354 96, 113.179 94.195, 113.554 90.750 C 113.868 87.862, 114.675 78.183, 115.347 69.241 L 116.568 52.982 111.690 45.412 L 106.813 37.843 94.496 59.008 L 82.179 80.172 95.078 102.522 L 107.978 124.871 95.502 152.115 C 88.640 167.100, 83.140 179.473, 83.279 179.613 C 83.419 179.752, 91.354 170.334, 100.913 158.683 C 112.402 144.679, 122.903 130.471, 131.896 116.760 C 144.243 97.936, 148 93.414, 148 97.376 C 148 98.133, 144.647 113.320, 140.549 131.126 L 133.098 163.500 140.762 171.237 C 144.978 175.492, 148.709 178.642, 149.053 178.237 C 149.398 177.832, 153.867 163.325, 158.984 146 C 166.651 120.046, 169.021 110.321, 172.446 90.764 L 176.603 67.027 160.763 43.809 C 152.051 31.038, 144.659 20.345, 144.337 20.045 C 144.015 19.745, 144.005 20.400, 144.314 21.500" stroke="none" fill="black" fill-rule="evenodd"/>
</svg>