<svg xmlns="http://www.w3.org/2000/svg" width="200" height="200" viewBox="0 0 200 200" version="1.1">
	<path d="M 36 9.438 C 36 9.700, 40.493 13.591, 45.985 18.086 L 55.970 26.258 53.292 31.023 L 50.613 35.788 31.057 41.524 C 20.300 44.679, 11.123 47.601, 10.663 48.017 C 7.920 50.498, 14.060 49.501, 29.131 45.019 C 38.556 42.216, 46.596 40.052, 46.998 40.211 C 47.400 40.370, 41.952 50.175, 34.891 62 C 27.829 73.825, 22.040 84.100, 22.026 84.833 C 21.958 88.323, 25.229 83.671, 38.098 61.978 L 52.017 38.515 56.759 36.916 C 59.366 36.037, 62.660 35.032, 64.078 34.683 L 66.655 34.048 65.179 40.925 L 63.702 47.802 55.875 49.019 C 51.570 49.689, 47.657 50.746, 47.180 51.369 C 46.702 51.991, 41.223 65.265, 35.004 80.868 C 24.186 108.010, 23.573 109.947, 20.818 125.702 L 17.938 142.168 27.419 153.480 L 36.900 164.792 50.113 160.665 L 63.325 156.538 71.788 147.033 L 80.251 137.527 79.642 129.014 C 79.307 124.331, 78.733 114.537, 78.367 107.248 C 77.982 99.595, 77.236 93.632, 76.600 93.134 C 75.995 92.660, 71.900 90.899, 67.500 89.221 C 63.100 87.544, 59.375 85.564, 59.222 84.822 C 58.966 83.579, 65.598 51.068, 66.239 50.428 C 66.690 49.977, 85.207 46.866, 85.457 47.199 C 85.581 47.365, 88.074 62.012, 90.997 79.750 C 98.112 122.922, 98.845 122.867, 101.061 79 C 101.659 67.175, 102.229 57.154, 102.330 56.732 C 102.430 56.310, 108.578 68.122, 115.991 82.982 C 123.405 97.842, 129.974 110, 130.591 110 C 131.963 110, 132.946 100.400, 133.099 85.500 C 133.161 79.450, 133.502 70.450, 133.856 65.500 L 134.500 56.500 143.306 81.361 C 148.149 95.034, 151.974 106.337, 151.806 106.479 C 151.638 106.620, 140.180 110.487, 126.344 115.072 L 101.188 123.407 94.436 149.712 C 90.722 164.180, 87.954 176.287, 88.284 176.617 C 88.614 176.947, 102.073 177.846, 118.192 178.615 C 145.912 179.936, 147.572 179.917, 148.830 178.256 C 152.226 173.771, 155.369 165.672, 162.034 144.237 L 169.233 121.080 165.653 95.790 C 163.475 80.405, 161.809 63.990, 161.399 53.879 L 160.724 37.257 172.612 36.583 C 188.484 35.682, 193.166 34.998, 192.715 33.646 C 192.457 32.872, 187.671 32.633, 177.042 32.865 C 167.141 33.080, 161.513 32.830, 161.096 32.155 C 160.679 31.480, 159.045 31.407, 156.475 31.946 C 154.289 32.405, 147.325 32.999, 141 33.266 L 129.500 33.752 137.418 32.626 C 145.299 31.505, 148.284 29.589, 143.821 28.515 C 142.544 28.208, 118.775 23.922, 91 18.990 C 63.225 14.058, 39.487 9.784, 38.250 9.492 C 37.013 9.201, 36 9.176, 36 9.438 M 49.941 17.688 C 52.384 19.785, 55.529 22.469, 56.930 23.653 L 59.477 25.807 57.174 29.903 C 55.908 32.157, 55.311 34, 55.847 34 C 56.383 34, 59.655 33.118, 63.118 32.040 C 66.581 30.963, 69.597 30.263, 69.820 30.486 C 70.042 30.709, 69.461 34.327, 68.526 38.526 C 67.592 42.725, 67.045 46.378, 67.310 46.643 C 67.575 46.909, 70.652 46.637, 74.146 46.040 C 85.070 44.173, 85.259 44.100, 84.698 41.955 C 84.417 40.880, 84.258 39.943, 84.344 39.874 C 84.430 39.804, 91.700 39.196, 100.500 38.523 C 115.514 37.373, 115.930 37.289, 107.250 37.149 C 101.659 37.059, 98 36.592, 98 35.969 C 98 34.429, 99.093 34.202, 116.882 32.051 C 125.892 30.961, 133.400 29.933, 133.567 29.767 C 133.811 29.522, 59.561 16.058, 48.500 14.341 C 45.522 13.879, 45.533 13.904, 49.941 17.688 M 138 38.694 C 133.577 38.954, 88.870 45.862, 88.362 46.363 C 88.286 46.439, 90.129 57.750, 92.458 71.500 C 97.314 100.170, 97.330 100.161, 99.039 68 C 99.667 56.175, 100.287 46.391, 100.416 46.258 C 100.545 46.125, 107.193 59.175, 115.189 75.258 L 129.727 104.500 130.408 78.500 C 131.140 50.554, 131.380 47.996, 133.269 48.008 C 134.364 48.016, 155.200 104.913, 155.055 107.500 C 155.025 108.050, 143.412 112.360, 129.250 117.077 L 103.500 125.655 97.287 149.577 C 93.870 162.735, 91.058 173.771, 91.037 174.103 C 91.017 174.435, 98.763 175.005, 108.250 175.369 C 117.737 175.734, 130.244 176.309, 136.042 176.646 L 146.584 177.258 149.633 171.379 C 151.310 168.146, 155.756 155.492, 159.513 143.261 L 166.344 121.022 162.671 95.261 C 159.994 76.483, 158.999 66.078, 158.999 56.875 C 159 49.931, 158.719 42.844, 158.375 41.125 L 157.750 38 150.625 38.185 C 146.706 38.287, 141.025 38.516, 138 38.694 M 88 42.827 C 88 43.282, 89.350 43.455, 91 43.213 C 92.650 42.971, 94 42.599, 94 42.387 C 94 42.174, 92.650 42, 91 42 C 89.350 42, 88 42.372, 88 42.827 M 57.500 51.497 C 56.950 51.684, 54.853 52.111, 52.840 52.446 L 49.181 53.057 37.717 81.778 C 26.935 108.792, 26.093 111.412, 23.572 125.832 C 21.344 138.576, 21.111 141.446, 22.191 142.832 C 29.776 152.563, 37.529 160.990, 38.858 160.948 C 39.761 160.919, 45.225 159.395, 51 157.561 L 61.500 154.227 69.403 145.605 L 77.307 136.983 76.088 116.241 C 75.418 104.834, 74.562 95.239, 74.185 94.920 C 73.808 94.602, 69.563 92.850, 64.750 91.027 C 58.164 88.533, 56 87.263, 56 85.892 C 56 84.418, 60.313 62.823, 62.520 53.250 C 62.943 51.411, 62.623 51.014, 60.769 51.079 C 59.521 51.122, 58.050 51.311, 57.500 51.497" stroke="none" fill="black" fill-rule="evenodd"/>
</svg>