<svg xmlns="http://www.w3.org/2000/svg" width="200" height="200" viewBox="0 0 200 200" version="1.1">
	<path d="M 30.351 33.013 C 23.119 48.406, 17.614 61, 18.118 61 C 18.621 61, 24.023 58.497, 30.122 55.439 C 36.221 52.380, 41.403 50.070, 41.638 50.304 C 42.185 50.852, 46.002 64.170, 45.992 65.497 C 45.988 66.049, 44.301 67.467, 42.242 68.648 L 38.500 70.796 33.573 90.148 C 30.863 100.792, 25.848 118.667, 22.428 129.872 L 16.210 150.243 20.605 149.622 C 23.022 149.280, 26.913 148.746, 29.250 148.435 L 33.500 147.871 47.420 165.432 C 55.076 175.090, 61.531 182.803, 61.763 182.570 C 62.061 182.272, 65.478 135.588, 65.977 125.008 C 65.990 124.738, 76.237 134.702, 88.750 147.151 L 111.500 169.787 129.500 170.441 L 147.500 171.095 161.500 152.399 C 169.200 142.117, 175.645 133.334, 175.823 132.883 C 176 132.432, 170.715 131.936, 164.078 131.781 L 152.011 131.500 170.508 104.553 C 180.681 89.731, 188.666 77.301, 188.253 76.928 C 187.839 76.556, 179.175 70.738, 169 64 C 158.825 57.262, 150.173 51.456, 149.773 51.098 C 149.374 50.740, 154.896 46.216, 162.044 41.044 C 169.193 35.873, 174.692 31.292, 174.263 30.863 C 173.835 30.435, 164.942 27.116, 154.502 23.488 L 135.521 16.891 91.848 10.946 C 67.828 7.675, 47.123 5.006, 45.837 5.013 C 43.759 5.024, 42.041 8.131, 30.351 33.013 M 43.620 11.250 C 42.847 13.038, 37.891 23.648, 32.607 34.828 C 27.323 46.008, 23 55.350, 23 55.587 C 23 55.824, 27.564 53.728, 33.141 50.929 C 40.121 47.426, 43.505 46.198, 43.994 46.990 C 44.385 47.623, 45.520 51.709, 46.516 56.070 C 47.512 60.432, 48.628 64, 48.996 64 C 49.511 64, 65.555 54.328, 77.757 46.663 C 81.612 44.241, 78.926 50.753, 69.110 67.632 C 63.062 78.032, 57.785 87.397, 57.383 88.444 C 56.276 91.329, 58.450 90.174, 73.546 79.859 L 86.918 70.722 101.128 52.611 C 108.944 42.650, 115.674 34.111, 116.083 33.636 C 116.771 32.838, 159 72.640, 159 74.086 C 159 74.441, 156.299 75.717, 152.998 76.921 L 146.995 79.109 147.506 84.305 C 148.615 95.582, 150.007 119.327, 149.583 119.750 C 149.183 120.150, 72.593 97.383, 70.750 96.316 C 68.104 94.785, 71.569 98.789, 82.683 110.109 C 92.574 120.183, 97.076 125.721, 103.130 135.263 C 112.419 149.907, 112.241 153.089, 102.713 142.695 C 99.296 138.968, 87.725 126.541, 77 115.080 L 57.500 94.243 54.268 96.192 C 49.799 98.887, 48.398 97.685, 50.956 93.351 C 52.341 91.003, 52.727 89.330, 52.146 88.189 C 51.674 87.260, 50.749 84.250, 50.091 81.500 C 46.793 67.726, 47.306 68.365, 42.268 71.764 C 41.590 72.222, 38.755 81.349, 35.967 92.048 C 33.178 102.747, 28.840 118.250, 26.325 126.500 C 23.810 134.750, 21.381 142.768, 20.927 144.318 C 20.145 146.986, 20.245 147.108, 22.800 146.606 C 24.285 146.315, 27.543 145.797, 30.041 145.456 L 34.581 144.836 46.909 160.466 C 53.690 169.063, 59.384 175.950, 59.563 175.771 C 59.742 175.592, 60.664 162.857, 61.612 147.473 C 62.561 132.088, 63.503 119.295, 63.706 119.045 C 63.909 118.795, 74.971 129.455, 88.288 142.732 L 112.500 166.873 129.500 167.538 L 146.500 168.202 158.679 151.851 L 170.858 135.500 158.929 135.219 C 152.368 135.065, 147 134.723, 147 134.459 C 147 134.195, 155.543 121.554, 165.984 106.367 C 176.424 91.181, 184.775 78.445, 184.540 78.064 C 184.305 77.684, 175.322 71.551, 164.579 64.436 C 153.836 57.321, 145.036 51.205, 145.023 50.844 C 145.010 50.483, 150.400 46.241, 157 41.418 C 163.600 36.594, 169 32.362, 169 32.012 C 169 31.663, 161.503 28.755, 152.341 25.549 L 135.681 19.721 93.091 13.885 C 69.666 10.675, 49.269 8.037, 47.763 8.024 C 45.620 8.005, 44.722 8.705, 43.620 11.250 M 105.758 51.210 C 99.517 59.069, 93.305 67.010, 91.955 68.855 C 90.605 70.700, 83.735 76.172, 76.689 81.015 C 69.643 85.859, 63.832 90.199, 63.776 90.661 C 63.694 91.338, 145.963 116.999, 146.718 116.533 C 146.837 116.459, 146.419 108.434, 145.789 98.699 C 145.033 87.037, 144.262 81, 143.527 81 C 142.914 81, 135.457 83.697, 126.956 86.993 C 111.089 93.145, 108.553 93.840, 109.215 91.854 C 109.426 91.223, 117.338 87.741, 126.799 84.116 L 144 77.525 144 71.821 C 144 65.906, 145.326 63.357, 146.373 67.261 C 146.703 68.493, 146.979 70.963, 146.986 72.750 C 146.994 74.537, 147.158 76, 147.351 76 C 148.708 76, 154 73.660, 154 73.060 C 154 72.650, 145.699 64.351, 135.553 54.618 L 117.105 36.920 105.758 51.210 M 61.969 59.617 C 55.111 63.806, 49.449 67.294, 49.387 67.367 C 49.325 67.440, 50.471 71.936, 51.933 77.357 L 54.592 87.214 63.478 71.857 C 68.366 63.411, 73.010 55.487, 73.797 54.250 C 74.585 53.013, 75.052 52, 74.834 52 C 74.616 52, 68.827 55.428, 61.969 59.617 M 60 92.580 C 60 93.245, 98.083 134, 98.704 134 C 100.458 134, 92.895 124.890, 78.630 109.821 C 63.558 93.899, 60 90.606, 60 92.580" stroke="none" fill="black" fill-rule="evenodd"/>
</svg>