<svg xmlns="http://www.w3.org/2000/svg" width="200" height="200" viewBox="0 0 200 200" version="1.1">
	<path d="M 48 23.075 C 18.026 51.134, 14.609 54.559, 15.369 55.788 C 15.749 56.404, 21.424 54.743, 29.927 51.528 L 43.861 46.258 47.954 48.091 L 52.046 49.923 39.486 75.028 L 26.926 100.133 25.153 113.317 C 23.635 124.609, 23.532 128.592, 24.440 141.084 L 25.500 155.668 37.694 168.557 C 44.401 175.645, 50.088 181.232, 50.333 180.972 C 51.680 179.539, 72.966 135.822, 73.944 132.479 C 75.087 128.574, 79.929 96.456, 79.976 92.469 C 79.994 90.953, 77.653 89.068, 70.750 85.038 C 65.662 82.068, 60.969 79.241, 60.320 78.755 C 59.468 78.117, 60.695 75.188, 64.748 68.186 C 67.832 62.859, 70.433 58.380, 70.528 58.233 C 70.917 57.631, 95 68.380, 95 69.156 C 95 69.620, 93.654 74.162, 92.009 79.250 L 89.019 88.500 95.163 94.041 L 101.307 99.582 95.114 135.324 C 91.709 154.981, 89.196 171.508, 89.530 172.049 C 89.865 172.590, 90.574 172.763, 91.106 172.434 C 91.639 172.105, 97.984 160.060, 105.207 145.668 L 118.339 119.500 121.045 133 C 122.534 140.425, 125.677 156.512, 128.029 168.750 C 130.947 183.933, 132.712 191, 133.585 191 C 135.215 191, 134.669 193.113, 143.002 154.500 C 146.919 136.350, 150.250 121.050, 150.405 120.500 C 150.560 119.950, 152.591 125.575, 154.920 133 C 157.248 140.425, 161.167 152.912, 163.629 160.750 C 166.678 170.458, 168.567 175, 169.553 175 C 170.457 175, 171.012 173.969, 171.031 172.250 C 171.048 170.738, 172.113 154.937, 173.398 137.137 L 175.733 104.774 173.263 100.354 C 170.892 96.113, 170.725 94.606, 169.146 63.217 C 168.241 45.223, 167.183 30.014, 166.797 29.421 C 166.410 28.827, 163.416 26.689, 160.144 24.670 C 154.843 21.398, 149.715 19.909, 113.045 10.999 C 90.413 5.500, 71.806 1.017, 71.698 1.038 C 71.589 1.059, 60.925 10.976, 48 23.075 M 47.724 27.145 C 34.098 39.870, 23.120 50.453, 23.330 50.663 C 23.540 50.873, 27.865 49.460, 32.941 47.522 C 43.083 43.652, 45.283 43.375, 49 45.500 C 50.375 46.286, 51.976 46.945, 52.557 46.965 C 53.138 46.984, 55.152 43.819, 57.033 39.931 C 60.315 33.148, 60.575 32.884, 63.476 33.387 C 65.139 33.676, 69.696 34.208, 73.601 34.571 L 80.703 35.229 83.797 29.870 L 86.891 24.511 99.945 21.902 C 107.125 20.467, 113 19.660, 113 20.108 C 113 20.557, 111.881 24.428, 110.513 28.712 C 109.145 32.995, 108.020 36.964, 108.013 37.531 C 108.005 38.138, 118.371 39.718, 133.250 41.378 C 160.908 44.463, 163 44.796, 163 46.108 C 163 47.486, 158.417 47.182, 132 44.051 C 118.525 42.455, 107.220 41.452, 106.878 41.824 C 105.473 43.352, 98.923 66.323, 99.680 67.070 C 100.131 67.516, 104.100 69.421, 108.500 71.305 L 116.500 74.729 130.457 69.824 C 138.134 67.126, 144.605 64.729, 144.837 64.497 C 145.069 64.265, 144.075 63.536, 142.629 62.877 C 141.183 62.218, 140 61.076, 140 60.339 C 140 58.613, 139.786 58.573, 146.523 61.553 C 149.698 62.957, 151.891 64.464, 151.397 64.902 C 150.312 65.865, 118.193 77.337, 116.614 77.325 C 116.001 77.321, 111.718 75.650, 107.096 73.612 C 102.474 71.575, 98.360 70.266, 97.955 70.704 C 97.549 71.142, 96.103 75.184, 94.742 79.686 L 92.269 87.871 98.284 93.202 L 104.300 98.532 99.075 129.016 C 96.201 145.782, 93.672 160.063, 93.456 160.750 C 92.021 165.311, 95.563 158.866, 106.645 136.750 C 113.604 122.862, 119.520 112.142, 119.791 112.926 C 120.062 113.710, 123.316 129.910, 127.021 148.926 C 131.385 171.318, 133.977 182.619, 134.380 181 C 134.722 179.625, 138.168 163.875, 142.038 146 C 145.907 128.125, 149.412 112.662, 149.826 111.638 C 150.352 110.338, 153.100 117.895, 158.918 136.638 C 168.053 166.069, 168.918 168.336, 168.979 163 C 169.001 161.075, 169.894 147.406, 170.963 132.625 L 172.907 105.750 170.489 100.978 C 168.224 96.508, 167.974 94.318, 166.535 66.377 C 165.691 49.971, 165 35.294, 165 33.762 C 165 31.467, 163.999 30.335, 159.323 27.344 C 154.236 24.090, 149.448 22.689, 113.210 13.856 C 90.970 8.435, 72.712 4.002, 72.637 4.004 C 72.562 4.007, 61.351 14.420, 47.724 27.145 M 103 24.005 C 101.075 24.448, 97.025 25.313, 94 25.928 C 89.083 26.928, 88.253 27.477, 86.170 31.110 C 84.889 33.345, 83.989 35.315, 84.170 35.488 C 84.506 35.809, 101.509 37.992, 103.708 37.997 C 104.670 37.999, 109 26.255, 109 23.642 C 109 22.863, 107.601 22.948, 103 24.005 M 58.941 42.117 C 57.251 45.464, 56.011 48.335, 56.185 48.496 C 57.358 49.589, 69.334 53.999, 69.817 53.516 C 70.148 53.186, 72.305 49.672, 74.611 45.708 C 79.428 37.427, 79.735 37.863, 68.256 36.677 L 62.013 36.032 58.941 42.117 M 77.473 46.217 C 74.865 50.772, 72.591 54.757, 72.418 55.070 C 72.160 55.540, 94.555 65.469, 95.927 65.493 C 96.162 65.497, 98.001 60.100, 100.014 53.500 C 104.231 39.671, 104.720 40.644, 93 39.554 C 88.875 39.170, 84.761 38.649, 83.857 38.395 C 82.651 38.056, 80.952 40.137, 77.473 46.217 M 42.075 75.750 L 29.668 100.500 27.890 113.500 C 26.378 124.552, 26.266 128.591, 27.143 140.453 L 28.174 154.406 38.790 165.788 L 49.406 177.170 60.131 155.738 C 68.269 139.476, 71.213 132.520, 72.338 126.903 C 74.459 116.313, 77.267 94.137, 76.680 92.608 C 76.407 91.896, 71.650 88.656, 66.110 85.407 C 60.569 82.158, 56.028 79.118, 56.018 78.651 C 56.008 78.184, 58.537 73.459, 61.638 68.151 C 64.739 62.843, 67.474 58.150, 67.715 57.722 C 68.046 57.133, 56.230 51, 54.762 51 C 54.608 51, 48.898 62.137, 42.075 75.750" stroke="none" fill="black" fill-rule="evenodd"/>
</svg>