<svg xmlns="http://www.w3.org/2000/svg" width="200" height="200" viewBox="0 0 200 200" version="1.1">
	<path d="M 60.027 28.494 L 50.554 43.814 48.177 39.657 C 46.870 37.371, 44.058 32.047, 41.927 27.826 C 39.797 23.605, 37.673 19.916, 37.209 19.629 C 36.744 19.342, 34.034 28.870, 31.188 40.803 C 26.759 59.369, 25.858 64.870, 24.948 78.919 L 23.885 95.337 30.943 102.442 C 34.824 106.350, 38 109.854, 38 110.229 C 38 110.604, 32.580 120.230, 25.955 131.619 C 17.526 146.109, 14.272 152.550, 15.117 153.072 C 16.178 153.728, 24.024 148.871, 35.644 140.362 L 38.789 138.059 39.382 141.280 C 39.708 143.051, 41.097 152.375, 42.467 162 C 45.838 185.673, 45.905 186, 47.410 186 C 48.240 186, 51.792 177, 56.981 161.750 C 61.519 148.412, 65.529 136.947, 65.893 136.272 C 66.346 135.431, 70.788 137.864, 79.980 143.986 C 87.363 148.905, 93.529 152.804, 93.681 152.652 C 93.834 152.499, 88.343 141.640, 81.479 128.520 C 74.616 115.401, 69.004 104.404, 69.008 104.083 C 69.013 103.762, 72.726 101.941, 77.258 100.036 C 83.801 97.286, 86.976 95.155, 92.662 89.702 L 99.825 82.832 103.978 91.666 C 106.262 96.525, 111.553 107.810, 115.736 116.745 C 119.920 125.681, 123.551 132.782, 123.806 132.527 C 124.946 131.388, 128.829 86.512, 127.841 85.902 C 127.270 85.549, 122.026 84.477, 116.186 83.518 C 99.463 80.774, 99.425 82.483, 116.600 65.010 L 131.628 49.722 143.388 76.611 L 155.148 103.500 141.575 131 L 128.001 158.500 126.925 170.341 C 126.334 176.854, 126.019 182.352, 126.225 182.559 C 126.432 182.766, 137.686 176.851, 151.233 169.415 C 172.676 157.646, 175.930 155.547, 176.372 153.198 C 176.652 151.714, 177.883 135.200, 179.108 116.500 L 181.336 82.500 174.034 64 C 170.018 53.825, 166.321 45.050, 165.818 44.500 C 165.289 43.922, 155.578 43.289, 142.793 43 L 120.684 42.500 113.457 29.665 C 109.482 22.606, 105.802 16.402, 105.279 15.879 C 104.677 15.277, 101.799 22.110, 97.449 34.464 C 93.666 45.209, 90.283 54, 89.932 54 C 89.580 54, 85.130 45.112, 80.042 34.250 C 74.954 23.387, 70.501 14.202, 70.146 13.837 C 69.791 13.472, 65.237 20.068, 60.027 28.494 M 60.608 32.826 C 52.592 45.729, 52.030 46.972, 53.131 49.388 C 53.786 50.825, 54.735 52, 55.240 52 C 56.589 52, 80 41.856, 80 41.272 C 80 40.529, 70.736 20.628, 69.952 19.688 C 69.580 19.241, 65.375 25.153, 60.608 32.826 M 102.255 29.142 C 100.598 33.739, 97.559 42.450, 95.500 48.500 L 91.758 59.500 95.954 68.308 C 98.262 73.153, 100.510 76.978, 100.950 76.808 C 101.390 76.639, 108.355 69.661, 116.429 61.302 L 131.109 46.103 125.310 45.802 L 119.511 45.500 115.406 38.500 C 113.148 34.650, 109.943 29.089, 108.284 26.142 L 105.267 20.784 102.255 29.142 M 33.134 44.288 C 29.603 59.095, 28.602 65.466, 27.782 78.364 L 26.773 94.227 34.363 101.864 L 41.954 109.500 30.977 128.405 C 24.940 138.803, 20 147.445, 20 147.611 C 20 147.776, 24.569 144.754, 30.153 140.894 C 35.737 137.035, 40.579 134.319, 40.913 134.859 C 41.246 135.399, 42.817 144.989, 44.403 156.170 C 45.988 167.352, 47.576 176.832, 47.931 177.239 C 48.287 177.645, 52.123 167.520, 56.456 154.739 C 60.789 141.957, 64.444 131.353, 64.578 131.173 C 64.711 130.993, 69.249 133.714, 74.660 137.220 C 88.280 146.043, 87.365 145.556, 86.216 143.371 C 85.675 142.342, 80.646 132.797, 75.041 122.159 C 69.435 111.521, 64.995 102.679, 65.174 102.510 C 65.353 102.341, 69.775 100.305, 75 97.986 C 81.877 94.935, 85.950 92.362, 89.750 88.669 C 92.637 85.864, 95 83.291, 95 82.951 C 95 82.612, 92.541 81.889, 89.536 81.344 C 84.090 80.357, 84.069 80.363, 83.088 83.177 C 81.671 87.243, 79 86.887, 79 82.631 C 79 79.514, 78.719 79.215, 75.250 78.642 C 69.894 77.757, 69.004 77.843, 68.972 79.250 C 68.946 80.379, 66.098 82.332, 54.838 88.944 C 52.515 90.307, 50.942 90.715, 50.536 90.059 C 50.181 89.485, 53.535 86.713, 58.068 83.836 C 65.494 79.121, 66.074 78.527, 64.428 77.324 C 63.433 76.596, 61.841 76, 60.891 76 C 58.358 76, 56 74.932, 56 73.784 C 56 73.232, 57.532 72.960, 59.405 73.179 L 62.809 73.576 58.947 66.038 C 53.251 54.919, 54.274 55.512, 46.670 58.924 C 43.001 60.570, 40.012 61.598, 40.026 61.208 C 40.040 60.819, 42.024 57.396, 44.434 53.603 L 48.816 46.706 43.753 37.103 C 40.968 31.821, 38.417 27.180, 38.083 26.788 C 37.750 26.397, 35.522 34.272, 33.134 44.288 M 67.769 49.854 C 61.867 52.409, 57.026 54.839, 57.011 55.254 C 56.996 55.669, 59.013 60.048, 61.493 64.985 C 64.775 71.520, 66.613 74.101, 68.251 74.473 C 76.085 76.252, 78.966 76.700, 79.451 76.216 C 80.297 75.370, 80.101 44.986, 79.250 45.104 C 78.838 45.161, 73.671 47.298, 67.769 49.854 M 136.418 53.750 C 138.256 58.013, 143.952 71.133, 149.076 82.908 L 158.393 104.315 144.755 130.908 L 131.116 157.500 130.101 167.459 C 129.542 172.937, 129.245 177.579, 129.441 177.774 C 129.636 177.969, 139.742 172.646, 151.898 165.944 L 174 153.758 174.065 149.629 C 174.101 147.358, 175.152 131.550, 176.401 114.500 L 178.672 83.500 171.233 64.750 L 163.795 46 148.435 46 L 133.076 46 136.418 53.750 M 83.077 57.110 C 83.034 62.396, 82.712 68.921, 82.359 71.610 C 82.007 74.300, 81.971 76.273, 82.280 75.996 C 82.589 75.719, 84.153 71.894, 85.756 67.496 L 88.671 59.500 85.912 53.500 L 83.153 47.500 83.077 57.110 M 48.066 52.908 C 45.625 56.335, 45.759 56.522, 49.453 54.839 C 52.222 53.578, 52.401 53.181, 51.119 51.158 C 50.472 50.137, 49.740 50.557, 48.066 52.908 M 87.777 70.149 L 85.211 77.781 91.203 78.960 C 94.498 79.608, 97.384 79.949, 97.616 79.718 C 97.847 79.486, 96.306 75.521, 94.190 70.906 L 90.344 62.516 87.777 70.149 M 104 84.552 C 104 85.637, 121.269 122.048, 121.997 122.498 C 122.357 122.720, 123.207 116.737, 123.886 109.201 C 124.566 101.666, 125.368 93.868, 125.669 91.874 L 126.216 88.247 116.858 86.568 C 111.711 85.645, 106.713 84.659, 105.750 84.377 C 104.787 84.096, 104 84.174, 104 84.552" stroke="none" fill="black" fill-rule="evenodd"/>
</svg>