<svg xmlns="http://www.w3.org/2000/svg" width="200" height="200" viewBox="0 0 200 200" version="1.1">
	<path d="M 33.226 25.500 L 25.996 43.097 27.491 62.208 C 28.313 72.719, 29.133 81.466, 29.314 81.647 C 29.495 81.828, 36.361 69.839, 44.571 55.004 L 59.500 28.032 73 28.143 C 80.425 28.204, 91.450 28.571, 97.500 28.957 L 108.500 29.659 98.917 29.830 C 93.646 29.923, 89.048 30.285, 88.699 30.634 C 88.025 31.308, 128.368 59, 130.025 59 C 133.065 59, 129.204 55.809, 113.495 45.341 C 103.867 38.926, 96.146 33.521, 96.336 33.331 C 96.654 33.012, 145.638 30.019, 150.750 30.006 C 151.991 30.003, 153 29.383, 153 28.623 C 153 27.501, 147.846 27.129, 125.250 26.616 C 109.987 26.270, 88.676 25.715, 77.892 25.382 L 58.284 24.778 44.924 48.838 C 37.576 62.071, 31.447 72.781, 31.305 72.638 C 31.162 72.495, 30.541 65.838, 29.925 57.843 L 28.806 43.309 35.577 27.036 L 42.349 10.764 53.924 11.385 C 60.291 11.727, 86.398 12.723, 111.939 13.599 L 158.379 15.192 164.166 20.226 C 167.740 23.334, 169.676 25.712, 169.227 26.442 C 168.827 27.092, 162.272 36.743, 154.660 47.889 C 147.048 59.035, 141.052 68.385, 141.335 68.668 C 141.618 68.951, 150.052 71.610, 160.077 74.577 C 170.102 77.544, 178.488 80.155, 178.713 80.379 C 178.937 80.604, 172.182 86.255, 163.701 92.937 L 148.281 105.088 147.648 111.794 C 147.299 115.482, 147.011 129.356, 147.007 142.625 C 147.003 155.894, 146.719 168.156, 146.375 169.875 L 145.750 173 124.375 173 C 112.619 173, 103.010 172.662, 103.023 172.250 C 103.036 171.838, 108.610 161.442, 115.409 149.150 L 127.772 126.800 116.358 107.650 C 110.079 97.117, 104.547 87.843, 104.064 87.040 C 103.169 85.553, 100.992 86.450, 70.681 100.799 L 62.862 104.500 74.231 121 C 80.484 130.075, 85.966 138.102, 86.414 138.838 C 87.119 139.999, 75.980 134.471, 69.163 130.278 C 67.878 129.487, 66.593 129.073, 66.308 129.358 C 66.023 129.643, 64.985 139.832, 64 152 C 63.015 164.168, 62.041 174.292, 61.835 174.499 C 61.628 174.705, 57.254 167.477, 52.115 158.437 C 46.976 149.397, 42.485 142.023, 42.135 142.050 C 41.786 142.078, 36.325 146.542, 30 151.970 C 23.675 157.398, 18.378 161.509, 18.229 161.107 C 18.080 160.704, 21.792 150.991, 26.479 139.522 C 31.166 128.054, 35 118.151, 35 117.516 C 35 116.881, 31.513 114.858, 27.250 113.021 C 22.987 111.184, 19.169 109.399, 18.764 109.055 C 18.360 108.710, 24.788 99.220, 33.048 87.964 L 48.068 67.500 62.784 58.654 C 70.878 53.789, 79.075 48.859, 81 47.698 C 83.074 46.447, 84.043 46.181, 83.378 47.044 C 57.468 80.675, 47.090 94.423, 47.386 94.719 C 47.589 94.922, 54.222 93.451, 62.127 91.450 C 73.239 88.639, 81.946 87.269, 100.500 85.417 C 113.700 84.098, 125.287 83.015, 126.250 83.010 C 127.213 83.004, 128 82.325, 128 81.500 C 128 80.675, 127.777 80, 127.505 80 C 127.233 80, 115.655 81.144, 101.776 82.542 C 84.436 84.289, 73.015 85.976, 65.270 87.933 C 59.072 89.499, 54.014 90.493, 54.032 90.140 C 54.049 89.788, 62.388 78.737, 72.564 65.582 C 84.827 49.728, 90.729 41.329, 90.070 40.670 C 89.411 40.011, 81.840 44.029, 67.614 52.588 L 46.152 65.500 30.100 87.385 C 21.272 99.422, 14.230 109.564, 14.452 109.922 C 14.674 110.281, 18.375 112.092, 22.678 113.947 C 26.980 115.802, 30.834 117.604, 31.242 117.951 C 31.649 118.299, 27.712 129.249, 22.492 142.286 C 17.271 155.323, 13 166.441, 13 166.994 C 13 169.317, 15.923 167.478, 26.901 158.249 C 33.280 152.886, 39.245 147.916, 40.155 147.205 C 41.629 146.054, 42.998 147.992, 52.644 164.885 C 58.602 175.319, 63.666 183.668, 63.897 183.436 C 64.341 182.992, 67.873 141.849, 67.953 136.183 L 68 132.866 79.587 139.046 C 86.309 142.632, 91.545 144.855, 92.058 144.342 C 92.572 143.828, 87.476 135.489, 79.920 124.478 L 66.896 105.500 73.198 102.559 C 76.664 100.942, 84.566 97.245, 90.759 94.343 L 102.017 89.067 104.347 92.784 C 112.332 105.526, 123.993 125.943, 123.952 127.114 C 123.926 127.876, 118.134 138.850, 111.082 151.500 L 98.260 174.500 123.380 175 C 137.196 175.275, 148.639 175.436, 148.808 175.359 C 148.977 175.281, 149.385 159.890, 149.715 141.157 L 150.315 107.095 167.598 93.322 C 177.104 85.746, 184.748 79.415, 184.584 79.251 C 184.421 79.088, 176.049 76.509, 165.979 73.521 C 155.909 70.532, 147.048 67.849, 146.287 67.557 C 145.309 67.181, 149.082 60.866, 159.166 46 L 173.428 24.973 166.964 19.008 C 163.409 15.727, 159.600 12.835, 158.500 12.582 C 157.400 12.328, 133.775 11.417, 106 10.558 C 78.225 9.699, 52.115 8.750, 47.978 8.449 L 40.455 7.902 33.226 25.500" stroke="none" fill="black" fill-rule="evenodd"/>
</svg>