<svg xmlns="http://www.w3.org/2000/svg" width="200" height="200" viewBox="0 0 200 200" version="1.1">
	<path d="M 49.612 9.270 C 47.776 12.146, 40.556 23.904, 33.567 35.397 L 20.861 56.294 31.180 55.747 L 41.500 55.199 61.731 43.510 C 72.858 37.081, 82.380 31.974, 82.890 32.160 C 83.400 32.347, 90.158 40.150, 97.909 49.500 C 107.178 60.682, 112.588 68.106, 113.715 71.194 C 114.968 74.625, 115.752 75.621, 116.626 74.896 C 117.284 74.350, 118.046 74.266, 118.321 74.710 C 118.595 75.154, 110.919 80.290, 101.263 86.123 L 83.706 96.728 71.603 90.968 C 64.946 87.800, 59.604 84.736, 59.732 84.159 C 59.859 83.582, 65.875 72.698, 73.101 59.974 C 81.062 45.954, 85.877 36.477, 85.322 35.922 C 84.404 35.004, 23 92.405, 23 94.180 C 23 94.668, 26.155 99.770, 30.012 105.518 L 37.024 115.969 25.454 139.093 C 19.090 151.811, 14.022 162.350, 14.192 162.514 C 14.361 162.677, 21.475 162.953, 30 163.126 L 45.500 163.440 55.856 157.184 L 66.212 150.928 79.106 152.794 C 86.198 153.820, 92 154.359, 92 153.990 C 92 153.622, 87.271 142.603, 81.491 129.503 C 75.711 116.403, 71.200 105.467, 71.467 105.200 C 72.147 104.520, 116.767 108.238, 118.146 109.090 C 118.893 109.552, 116.182 115.362, 110.138 126.252 C 105.112 135.306, 101 143.004, 101 143.357 C 101 143.711, 104.938 144.006, 109.750 144.013 L 118.500 144.026 132.423 166.561 C 140.081 178.956, 146.632 189.272, 146.980 189.488 C 147.329 189.703, 149.100 175.619, 150.916 158.190 C 152.733 140.760, 154.507 125.258, 154.860 123.741 C 155.468 121.130, 156.376 121.999, 171.835 139.991 C 180.818 150.446, 188.580 159, 189.084 159 C 191.374 159, 188.916 155.531, 173 136.297 C 161.021 121.821, 156 115.015, 156 113.255 C 156 111.452, 159.222 107.293, 167.588 98.300 C 173.961 91.448, 179.023 85.702, 178.838 85.530 C 178.652 85.359, 169.525 86.057, 158.555 87.081 C 147.586 88.106, 138.469 88.803, 138.297 88.630 C 138.124 88.457, 146.932 76.658, 157.870 62.408 L 177.756 36.500 173.128 35.838 C 170.583 35.473, 165.012 35.136, 160.750 35.088 C 152.700 34.997, 152.080 34.588, 154.143 30.732 C 155.001 29.129, 155.001 28.500, 154.143 28.214 C 152.370 27.623, 152.729 26.642, 156.554 21.633 C 158.989 18.444, 159.697 16.850, 158.804 16.570 C 158.087 16.345, 135.225 13.648, 108 10.577 C 80.775 7.506, 57.251 4.778, 55.725 4.516 C 53.273 4.095, 52.561 4.649, 49.612 9.270 M 50.984 12.165 C 49.173 15.099, 42.816 25.487, 36.857 35.250 L 26.022 53 32.866 53 L 39.710 53 61.593 40.435 C 82.386 28.496, 83.552 27.962, 84.988 29.715 C 102.069 50.555, 108.359 57.975, 108.677 57.657 C 108.890 57.444, 107.249 52.183, 105.032 45.967 C 102.814 39.750, 101 34.450, 101 34.188 C 101 33.926, 110.402 34.033, 121.894 34.426 L 142.788 35.141 148.900 27.320 L 155.012 19.500 152.256 18.756 C 150.740 18.346, 129.475 15.740, 105 12.965 C 80.525 10.189, 59.100 7.673, 57.388 7.374 C 54.502 6.869, 54.038 7.216, 50.984 12.165 M 149.962 30.287 C 146.967 34.786, 146.889 35, 148.231 35 C 148.963 35, 150.102 33.567, 150.763 31.816 C 152.228 27.936, 151.919 27.348, 149.962 30.287 M 105 37.324 C 105 38.998, 115.322 66.727, 116.321 67.736 C 117.289 68.715, 119.905 65.824, 128.848 53.895 C 135.064 45.602, 139.855 38.521, 139.494 38.159 C 138.736 37.398, 105 36.582, 105 37.324 M 132.402 53.645 C 118.219 72.288, 118.709 71.514, 120.275 72.813 C 121.183 73.567, 123.706 72.513, 129.512 68.955 C 133.905 66.263, 137.851 63.930, 138.280 63.770 C 139.011 63.498, 147.992 40.374, 147.998 38.750 C 147.999 38.337, 147.168 38, 146.152 38 C 144.939 38, 140.205 43.386, 132.402 53.645 M 146.443 51.507 L 141.609 65.013 132.804 70.226 C 127.962 73.092, 124 75.830, 124 76.309 C 124 77.489, 133.035 88, 134.049 88 C 134.492 88, 142.836 77.537, 152.590 64.750 C 162.345 51.962, 170.997 40.712, 171.818 39.750 C 173.226 38.099, 172.687 38, 162.293 38 L 151.276 38 146.443 51.507 M 52.500 68.987 C 38.200 82.677, 26.615 94.363, 26.756 94.956 C 26.896 95.548, 29.964 100.469, 33.573 105.890 L 40.136 115.746 29.139 137.723 L 18.142 159.699 31.301 160.365 L 44.460 161.031 55.170 154.485 L 65.881 147.940 75.969 149.543 C 81.518 150.426, 86.449 151.002, 86.927 150.824 C 87.406 150.646, 83.064 139.792, 77.278 126.704 C 71.493 113.616, 67.047 102.620, 67.397 102.269 C 67.963 101.703, 123.091 105.792, 123.774 106.451 C 123.925 106.596, 119.762 114.450, 114.524 123.905 C 109.286 133.359, 105 141.195, 105 141.317 C 105 141.439, 108.273 141.374, 112.274 141.172 L 119.548 140.804 132.516 161.623 C 139.648 173.073, 145.593 181.780, 145.725 180.971 C 146.539 176.020, 152 122.924, 152 119.969 C 152 117.280, 151.244 115.650, 149 113.500 C 147.350 111.919, 146 110.004, 146 109.244 C 146 107.864, 122.535 78.784, 120.936 78.182 C 120.471 78.007, 111.948 82.803, 101.995 88.840 L 83.898 99.816 69.949 93.231 C 62.277 89.609, 56 86.180, 56 85.611 C 56 84.743, 70.720 58.136, 77.222 47.250 C 78.290 45.462, 79.014 44.022, 78.832 44.048 C 78.649 44.074, 66.800 55.297, 52.500 68.987 M 150.187 90.517 C 143.416 91.218, 137.663 92.004, 137.403 92.263 C 137.144 92.523, 140.346 96.828, 144.519 101.829 L 152.107 110.924 158.384 104.212 C 161.836 100.520, 166.364 95.588, 168.446 93.250 L 172.233 89 167.366 89.121 C 164.690 89.187, 156.959 89.815, 150.187 90.517" stroke="none" fill="black" fill-rule="evenodd"/>
</svg>