<svg xmlns="http://www.w3.org/2000/svg" width="200" height="200" viewBox="0 0 200 200" version="1.1">
	<path d="M 32.794 29.211 C 27.456 43.077, 23.285 54.618, 23.525 54.858 C 23.764 55.098, 27.354 53.869, 31.502 52.128 L 39.043 48.963 44.271 51.157 C 47.147 52.364, 49.651 53.461, 49.835 53.594 C 50.019 53.728, 44.037 64.336, 36.541 77.168 L 22.913 100.500 23.510 114 C 23.838 121.425, 24.573 132.668, 25.143 138.984 L 26.179 150.468 33.839 158.916 C 38.053 163.563, 44.200 170.393, 47.500 174.093 C 50.800 177.792, 53.879 180.734, 54.342 180.629 C 54.805 180.524, 59.226 171.002, 64.167 159.469 L 73.149 138.500 73.565 112.963 L 73.980 87.426 67.009 80.509 L 60.039 73.592 63.130 68.046 C 64.829 64.996, 66.554 62.139, 66.963 61.697 C 67.371 61.256, 72.272 62.780, 77.853 65.085 L 88 69.277 88 93.029 L 88 116.781 101.117 154.640 C 108.331 175.463, 114.556 192.852, 114.950 193.283 C 115.343 193.713, 128.678 188.933, 144.583 182.660 C 160.487 176.387, 179.463 168.912, 186.750 166.049 C 198.286 161.516, 200 160.551, 200 158.590 L 200 156.338 162.750 154.029 C 142.262 152.759, 125.148 151.409, 124.718 151.028 C 124.288 150.648, 131.424 145.873, 140.576 140.418 L 157.215 130.500 167.219 103.500 L 177.222 76.500 176.103 44.054 C 175.463 25.496, 174.569 11.352, 174.015 11.009 C 173.205 10.509, 50.607 3.836, 44.500 3.960 C 42.818 3.994, 40.955 8.012, 32.794 29.211 M 36.154 28.149 C 31.650 39.782, 28.185 49.518, 28.452 49.786 C 28.720 50.053, 31.195 49.302, 33.952 48.116 L 38.964 45.960 44.952 48.480 C 48.245 49.866, 51.144 51, 51.395 51 C 51.645 51, 54.212 46.871, 57.100 41.825 L 62.351 32.650 67.517 38.473 L 72.684 44.296 75.709 38.898 C 77.372 35.929, 80.481 30.241, 82.617 26.257 C 84.753 22.273, 86.725 19.020, 87 19.029 C 87.275 19.037, 91.529 22.402, 96.452 26.506 L 105.405 33.969 107.952 31.754 C 109.354 30.536, 111.862 28.302, 113.528 26.789 L 116.555 24.039 130.993 26.568 C 138.933 27.959, 145.624 29.290, 145.860 29.527 C 146.097 29.763, 146.514 40.825, 146.788 54.109 C 147.137 71.045, 146.966 78.148, 146.215 77.881 C 145.626 77.671, 141.071 72.481, 136.093 66.347 C 130.112 58.977, 123.470 52.256, 116.512 46.533 L 105.983 37.873 98.509 44.687 L 91.036 51.500 91.018 57.547 C 90.990 67.067, 93.098 68.585, 124 81.292 C 138.025 87.058, 150.963 92.088, 152.750 92.468 C 154.567 92.854, 156 93.785, 156 94.579 C 156 95.361, 155.887 95.995, 155.750 95.988 C 153.149 95.865, 141.327 91.519, 124.657 84.557 C 113.193 79.770, 103.663 76.003, 103.480 76.187 C 103.297 76.370, 107.826 81.465, 113.544 87.510 L 123.942 98.500 122.054 92.834 C 120.283 87.521, 120.288 86, 122.077 86 C 122.487 86, 124.178 90.044, 125.836 94.987 C 130.721 109.555, 129.883 109.034, 103.900 81.369 C 99.183 76.347, 94.351 71.929, 93.162 71.551 L 91 70.865 90.977 93.683 L 90.954 116.500 103.612 153.250 C 110.574 173.463, 116.746 190, 117.328 190 C 117.909 190, 135.841 183.138, 157.175 174.750 C 194.119 160.226, 195.764 159.471, 191.732 158.889 C 189.405 158.553, 170.950 157.232, 150.722 155.953 C 122.776 154.186, 114.251 153.351, 115.222 152.476 C 115.925 151.843, 125.120 146.282, 135.655 140.118 L 154.811 128.910 158.572 118.705 C 160.641 113.092, 165.071 101.059, 168.417 91.964 L 174.500 75.428 173.432 44.729 C 172.845 27.845, 172.170 13.847, 171.932 13.621 C 171.464 13.178, 56.465 6.981, 48.921 6.993 L 44.342 7 36.154 28.149 M 81.194 34.537 L 74.939 46.073 81.135 52.994 C 84.542 56.800, 87.706 59.682, 88.165 59.398 C 88.624 59.114, 89 56.984, 89 54.664 C 89 50.770, 89.538 49.913, 96 43.500 C 99.850 39.680, 103 36.307, 103 36.005 C 103 35.471, 88.387 23, 87.762 23 C 87.590 23, 84.635 28.192, 81.194 34.537 M 112.492 31.257 L 107.644 35.646 118.572 44.695 C 124.984 50.005, 132.393 57.346, 136.500 62.458 L 143.500 71.171 143.772 51.908 C 143.922 41.313, 143.697 32.340, 143.272 31.969 C 142.847 31.598, 137.775 30.509, 132 29.550 C 126.225 28.591, 120.564 27.596, 119.419 27.338 C 117.965 27.009, 115.881 28.188, 112.492 31.257 M 58.713 44.456 C 56.671 48.006, 55 51.321, 55 51.822 C 55 53.097, 65.210 57.211, 66.037 56.270 C 66.409 55.846, 67.749 53.608, 69.015 51.296 L 71.316 47.092 67.591 42.546 C 65.542 40.046, 63.542 38, 63.146 38 C 62.750 38, 60.755 40.905, 58.713 44.456 M 71.007 53.487 C 69.676 55.925, 68.792 58.113, 69.043 58.349 C 70.179 59.417, 87.298 66.035, 87.752 65.582 C 88.273 65.061, 80.106 55.274, 75.815 51.277 L 73.429 49.054 71.007 53.487 M 39.070 78.197 L 25.639 101.348 26.874 122.924 C 27.553 134.791, 28.355 145.702, 28.656 147.171 C 29.311 150.371, 52.887 176.532, 54.030 175.328 C 54.462 174.873, 58.411 165.950, 62.804 155.500 L 70.793 136.500 70.891 112.078 L 70.990 87.656 63.829 81.041 L 56.668 74.425 60.472 67.185 C 62.565 63.202, 64.102 59.790, 63.889 59.602 C 63.222 59.014, 53.779 54.999, 53.123 55.023 C 52.780 55.036, 46.456 65.465, 39.070 78.197" stroke="none" fill="black" fill-rule="evenodd"/>
</svg>