<svg xmlns="http://www.w3.org/2000/svg" width="200" height="200" viewBox="0 0 200 200" version="1.1">
	<path d="M 97 24.340 C 97 24.882, 98.822 30.924, 101.048 37.768 C 103.275 44.612, 104.962 50.588, 104.798 51.049 C 104.634 51.510, 99.100 47.814, 92.500 42.836 C 85.900 37.858, 78.894 32.702, 76.930 31.379 L 73.360 28.973 58.430 34.523 C 36.188 42.792, 37.409 42.240, 39.614 43.039 C 40.651 43.415, 50.640 46.114, 61.810 49.038 C 72.981 51.961, 81.531 54.661, 80.810 55.038 C 80.090 55.415, 64.991 59.498, 47.258 64.112 C 24.519 70.028, 15.013 72.908, 15.008 73.885 C 15.001 75.028, 17.235 75.156, 27.750 74.616 C 34.762 74.256, 43.313 73.693, 46.750 73.364 C 54.037 72.668, 53.676 71.763, 51.590 85.500 C 50.838 90.450, 50.351 94.641, 50.507 94.812 C 50.664 94.984, 59.436 94.084, 70.002 92.812 L 89.212 90.500 96.814 76.332 L 104.415 62.163 107.112 63.558 C 109.351 64.716, 110.474 66.945, 113.743 76.726 L 117.677 88.500 114.801 98.879 C 113.219 104.587, 112.090 109.423, 112.292 109.626 C 112.494 109.828, 115.031 109.289, 117.929 108.429 C 120.826 107.568, 123.317 107.007, 123.462 107.182 C 123.849 107.646, 130 126.395, 130 127.111 C 130 127.444, 126.648 128.290, 122.552 128.991 C 115.835 130.140, 115.009 130.534, 114.149 133.003 L 113.194 135.741 95.847 131.904 C 86.306 129.793, 77.953 128.051, 77.285 128.033 C 76.616 128.015, 74.466 129.408, 72.506 131.129 C 69.180 134.049, 68.822 134.149, 67.142 132.629 C 66.152 131.733, 64.606 131, 63.706 131 C 62.807 131, 61.605 130.130, 61.036 129.068 C 60.107 127.331, 62.807 125.175, 87.674 107.799 C 123.028 83.094, 124.464 80.998, 97.549 93.388 C 88.722 97.452, 73.400 104.491, 63.500 109.031 C 53.600 113.571, 40.790 119.447, 35.032 122.090 C 29.275 124.733, 25.225 127.114, 26.032 127.382 C 26.840 127.649, 34.685 129.046, 43.467 130.485 C 52.249 131.924, 59.501 133.191, 59.582 133.301 C 60.371 134.369, 62 138.067, 62 138.789 C 62 139.296, 52.322 147.754, 40.494 157.586 C 20.838 173.924, 17.149 177.694, 21.108 177.395 C 23.522 177.213, 73.463 162.822, 74.267 162.077 C 74.689 161.686, 72.994 156.701, 70.500 151 C 67.699 144.595, 66.322 140.278, 66.898 139.702 C 67.943 138.657, 67.406 137.847, 84.969 167 C 91.762 178.275, 97.652 187.882, 98.058 188.349 C 98.465 188.815, 102.456 177.903, 106.929 164.099 C 111.401 150.294, 115.180 139, 115.327 139 C 116.980 139, 134.660 143.294, 135.125 143.809 C 135.469 144.189, 138.544 152.938, 141.958 163.250 C 145.373 173.563, 148.318 182, 148.503 182 C 148.991 182, 166 148.944, 166 147.996 C 166 147.559, 162.512 146.434, 158.250 145.496 C 153.988 144.559, 147.534 143.131, 143.910 142.324 L 137.320 140.855 135.581 135.340 C 134.625 132.306, 133.990 129.697, 134.171 129.542 C 134.352 129.387, 144.175 127.289, 156 124.880 C 171.663 121.689, 177.500 120.120, 177.500 119.102 C 177.500 118.132, 169.443 115.372, 151.230 110.102 L 124.960 102.500 122.781 95.744 C 120.611 89.015, 120.610 88.959, 122.453 81.558 C 123.470 77.471, 124.619 73.617, 125.005 72.992 C 125.483 72.219, 130.461 73.993, 140.603 78.550 C 148.797 82.232, 157.329 86.038, 159.565 87.007 L 163.629 88.770 169.773 71.135 C 176.896 50.689, 176.845 50.878, 175.393 50.339 C 174.735 50.095, 171.931 56.753, 168.495 66.714 C 165.311 75.946, 162.434 83.813, 162.103 84.194 C 161.210 85.223, 128.120 70.275, 125.096 67.477 C 123.668 66.155, 119.602 62.920, 116.059 60.287 L 109.618 55.500 105.100 41.793 C 102.615 34.253, 100.897 27.769, 101.283 27.383 C 101.907 26.760, 157.994 32.661, 158.765 33.431 C 158.936 33.602, 151.426 35.887, 142.077 38.508 C 126.758 42.802, 125.198 43.439, 126.289 44.951 C 130.338 50.561, 144.373 67, 145.113 67 C 147.125 67, 145.615 64.438, 138.369 55.562 C 134.172 50.420, 130.770 45.846, 130.808 45.397 C 130.847 44.947, 139.069 42.211, 149.080 39.316 C 159.091 36.420, 167.526 33.808, 167.824 33.509 C 168.123 33.211, 167.947 32.564, 167.433 32.071 C 166.046 30.740, 97 23.162, 97 24.340 M 60.250 36.705 C 53.513 39.230, 48 41.584, 48 41.937 C 48 42.289, 58.113 45.235, 70.474 48.482 C 82.834 51.729, 92.780 54.553, 92.577 54.757 C 92.373 54.961, 79.447 58.484, 63.853 62.587 C 48.259 66.689, 35.050 70.264, 34.500 70.530 C 33.950 70.796, 38.563 70.817, 44.750 70.576 C 57.815 70.069, 56.816 68.789, 54.641 83.250 C 53.917 88.063, 53.511 92, 53.737 92 C 55.010 92, 87.431 87.896, 87.580 87.716 C 87.679 87.597, 91.012 81.425, 94.987 74 C 98.962 66.575, 102.567 60.121, 102.999 59.657 C 103.432 59.194, 104.774 59.344, 105.982 59.990 C 107.896 61.015, 108.135 60.930, 107.839 59.333 C 107.557 57.810, 74.562 32.007, 73 32.088 C 72.725 32.103, 66.987 34.180, 60.250 36.705 M 112 61.816 C 112 62.291, 113.125 63.192, 114.500 63.818 C 115.875 64.445, 117 64.794, 117 64.594 C 117 64.394, 115.875 63.493, 114.500 62.592 C 113.125 61.691, 112 61.342, 112 61.816 M 114.019 67.750 C 114.084 70.318, 118.860 83.224, 119.293 82 C 122.853 71.937, 122.779 70.742, 118.466 68.685 C 114.491 66.790, 113.992 66.685, 114.019 67.750 M 117.528 99.324 C 116.586 102.527, 115.969 105.300, 116.157 105.486 C 116.955 106.272, 121.999 104.669, 121.985 103.633 C 121.976 103.010, 121.356 100.475, 120.605 98 L 119.240 93.500 117.528 99.324 M 66.817 110.344 C 48.841 118.662, 34.269 125.602, 34.434 125.767 C 34.661 125.994, 56.527 129.960, 57.738 129.993 C 57.869 129.997, 57.869 129.042, 57.738 127.871 C 57.544 126.137, 61.568 122.886, 79.396 110.371 C 91.439 101.917, 100.889 95.050, 100.396 95.110 C 99.903 95.171, 84.793 102.026, 66.817 110.344 M 129.647 116.458 C 131.813 122.925, 133.670 126.959, 134.360 126.698 C 134.987 126.460, 142.925 124.789, 152 122.984 C 161.075 121.180, 168.858 119.389, 169.297 119.005 C 169.904 118.473, 145.946 111.108, 127.787 106.245 C 126.331 105.855, 126.610 107.389, 129.647 116.458 M 123.630 131.493 C 118.097 132.697, 115.203 134.664, 116.792 136.142 C 117.736 137.021, 133.189 140.145, 133.761 139.573 C 134.466 138.867, 131.482 130.648, 130.438 130.420 C 129.922 130.308, 126.859 130.791, 123.630 131.493 M 73.196 133.909 L 69.891 136.737 83.581 159.433 C 91.110 171.917, 97.619 181.763, 98.047 181.315 C 99.044 180.268, 112.340 139.006, 111.840 138.507 C 111.346 138.013, 79.206 130.988, 77.679 131.041 C 77.031 131.063, 75.013 132.354, 73.196 133.909 M 63.606 135.416 C 63.941 136.287, 64.653 137, 65.190 137 C 66.505 137, 65.682 134.727, 64.187 134.229 C 63.456 133.985, 63.233 134.443, 63.606 135.416 M 45.229 157.153 C 35.180 165.479, 27.115 172.448, 27.306 172.640 C 27.647 172.981, 70.114 161.031, 70.896 160.374 C 71.212 160.109, 64.024 141.981, 63.613 142.007 C 63.551 142.011, 55.278 148.827, 45.229 157.153 M 139 144.724 C 139 145.456, 146.887 169.571, 148.575 174 C 148.928 174.927, 151.594 170.725, 155.554 163 C 159.078 156.125, 161.970 150.218, 161.981 149.873 C 161.991 149.529, 157.613 148.259, 152.250 147.051 C 146.887 145.844, 141.713 144.633, 140.750 144.360 C 139.787 144.088, 139 144.252, 139 144.724" stroke="none" fill="black" fill-rule="evenodd"/>
</svg>