<svg xmlns="http://www.w3.org/2000/svg" width="200" height="200" viewBox="0 0 200 200" version="1.1">
	<path d="M 83.765 25.288 C 43.211 35.267, 10.361 43.735, 10.765 44.108 C 11.169 44.480, 16.890 46.711, 23.477 49.067 C 33.351 52.597, 36.817 54.415, 43.222 59.419 L 50.990 65.489 34.150 82.494 L 17.309 99.500 18.514 119.076 C 19.718 138.650, 19.719 138.655, 24.984 154.576 C 27.880 163.334, 30.543 170.827, 30.901 171.226 C 31.259 171.625, 39.638 169.089, 49.521 165.589 L 67.490 159.226 70.206 144.633 L 72.922 130.039 82.646 119.038 C 87.994 112.987, 92.549 108.215, 92.767 108.434 C 93.083 108.750, 78.401 176.718, 76.336 184.500 C 76.044 185.600, 86.199 176.154, 98.902 163.508 C 111.606 150.863, 121.997 140.963, 121.993 141.508 C 121.989 142.054, 119.310 152.384, 116.040 164.464 C 112.770 176.544, 110.231 186.564, 110.398 186.731 C 110.972 187.306, 189.983 165.499, 189.992 164.764 C 189.996 164.358, 180.550 152.775, 169 139.024 C 157.450 125.272, 148 113.669, 148 113.239 C 148 112.810, 153.175 110.295, 159.500 107.650 C 165.825 105.006, 171 102.515, 171 102.115 C 171 101.714, 165.375 98.098, 158.500 94.079 C 151.625 90.060, 146.013 86.485, 146.030 86.136 C 146.046 85.786, 151.021 82.603, 157.086 79.063 C 163.151 75.523, 168.368 72.214, 168.679 71.711 C 169.243 70.797, 171.888 42.320, 171.961 36.361 C 171.996 33.570, 171.622 33.152, 168.585 32.582 C 164.874 31.886, 164.757 31.525, 162.230 13 C 161.619 8.522, 161.110 7.467, 159.490 7.323 C 158.395 7.225, 124.319 15.309, 83.765 25.288 M 88.500 27.050 C 51.100 36.308, 20.050 43.939, 19.500 44.007 C 18.950 44.076, 22.705 45.683, 27.844 47.579 C 35.004 50.220, 38.901 52.425, 44.516 57.013 C 48.546 60.306, 52.208 63, 52.655 63 C 53.102 63, 58.297 58.185, 64.200 52.300 C 70.104 46.415, 75.270 41.937, 75.681 42.348 C 76.092 42.759, 74.118 50.059, 71.294 58.569 L 66.160 74.043 73.116 79.663 L 80.072 85.284 86.594 84.203 C 90.181 83.609, 95.068 81.978, 97.454 80.580 L 101.792 78.038 100.040 70.269 C 99.076 65.996, 97.248 57.887, 95.978 52.249 C 94.708 46.611, 93.924 41.743, 94.235 41.431 C 94.547 41.120, 99.909 43.093, 106.151 45.817 C 123.126 53.225, 124.876 54.161, 124.344 55.545 C 124.004 56.431, 119.991 55.057, 110.770 50.896 C 103.569 47.647, 97.588 45.104, 97.478 45.245 C 97.162 45.649, 103.933 75.267, 104.463 75.796 C 104.725 76.058, 113.549 71.374, 124.073 65.386 C 134.597 59.399, 142.598 54.417, 141.853 54.317 C 134.819 53.363, 133 52.761, 133 51.387 C 133 50.412, 133.628 50.047, 134.750 50.371 C 135.713 50.650, 139.537 51.183, 143.250 51.555 C 146.963 51.928, 150 52.565, 150 52.971 C 150 53.376, 139.862 59.511, 127.470 66.604 C 106.258 78.746, 104.974 79.646, 105.503 82 C 105.813 83.375, 113.025 94.829, 121.530 107.453 C 130.951 121.437, 136.634 130.766, 136.073 131.327 C 135.512 131.888, 127.874 126.488, 116.526 117.507 C 106.282 109.400, 97.745 102.932, 97.557 103.134 C 97.203 103.512, 80.990 175.984, 80.996 177.157 C 80.998 177.519, 91.563 167.169, 104.474 154.157 L 127.947 130.500 124.890 142 C 123.209 148.325, 120.084 160, 117.946 167.946 C 115.807 175.891, 114.214 182.548, 114.406 182.739 C 114.598 182.931, 130.785 178.716, 150.377 173.373 C 182.234 164.685, 185.859 163.491, 184.665 162.079 C 167.978 142.343, 143 112.097, 143 111.625 C 143 111.281, 143.441 111, 143.980 111 C 144.519 111, 149.729 108.911, 155.558 106.359 L 166.156 101.717 152.951 93.971 L 139.746 86.225 153.123 78.264 L 166.500 70.303 167.882 53.117 C 168.641 43.664, 168.958 35.625, 168.586 35.253 C 168.214 34.880, 167.142 35.037, 166.205 35.600 C 165.069 36.283, 154.487 36.382, 134.500 35.896 C 118 35.495, 100.563 35.129, 95.750 35.083 C 88.676 35.016, 87 34.713, 87 33.500 C 87 32.193, 91.846 32, 124.614 32 L 162.227 32 161.557 27.250 C 159.795 14.761, 158.711 10.008, 157.647 10.108 C 157.016 10.168, 125.900 17.792, 88.500 27.050 M 66.428 53.275 C 63.703 56.149, 60.008 60.105, 58.218 62.067 L 54.962 65.634 59.487 68.883 C 62.744 71.222, 64.149 71.764, 64.502 70.816 C 66.727 64.845, 71.923 48.590, 71.684 48.351 C 71.518 48.185, 69.153 50.401, 66.428 53.275 M 36.313 84.250 L 20.148 100.500 21.090 118 C 22.016 135.184, 22.126 135.793, 27.232 151.750 C 30.092 160.688, 32.873 168, 33.412 168 C 33.951 168, 41.110 165.637, 49.321 162.750 C 60.270 158.900, 64.467 156.967, 65.068 155.500 C 65.519 154.400, 66.872 148.003, 68.076 141.284 L 70.265 129.069 82.632 115.087 C 89.435 107.397, 95 100.913, 95 100.678 C 95 100.442, 91.505 97.546, 87.232 94.241 L 79.465 88.232 68.982 90.013 C 63.217 90.993, 58.338 91.641, 58.140 91.454 C 57.943 91.267, 58.967 87.601, 60.418 83.307 L 63.054 75.500 58.777 71.780 C 56.425 69.734, 54.045 68.046, 53.489 68.030 C 52.932 68.013, 45.203 75.313, 36.313 84.250 M 63.606 81.644 C 62.723 84.236, 62 86.768, 62 87.272 C 62 88.200, 70.892 87.340, 74.302 86.082 C 76.079 85.427, 75.163 84.472, 66.356 77.798 C 65.572 77.204, 64.706 78.414, 63.606 81.644 M 98 83.545 C 95.525 84.844, 91.362 86.211, 88.750 86.582 C 86.138 86.954, 84.022 87.537, 84.050 87.879 C 84.077 88.220, 94.244 96.513, 106.643 106.306 C 119.042 116.099, 128.843 123.524, 128.423 122.806 C 128.003 122.088, 122.156 113.393, 115.430 103.484 C 108.704 93.576, 103.043 84.504, 102.850 83.325 L 102.500 81.182 98 83.545" stroke="none" fill="black" fill-rule="evenodd"/>
</svg>