<svg xmlns="http://www.w3.org/2000/svg" width="200" height="200" viewBox="0 0 200 200" version="1.1">
	<path d="M 31.845 26.853 C 26.705 35.951, 22.337 43.794, 22.138 44.283 C 21.939 44.772, 24.151 53.234, 27.053 63.086 C 30.755 75.654, 32.763 81, 33.782 81 C 34.684 81, 35.048 80.338, 34.743 79.250 C 34.473 78.287, 32.106 70.235, 29.484 61.357 L 24.717 45.213 33.458 29.604 C 38.265 21.019, 42.491 13.826, 42.849 13.620 C 43.207 13.413, 68.700 14.219, 99.500 15.411 C 130.300 16.602, 154.600 17.875, 153.500 18.239 C 149.543 19.549, 63.944 35.277, 63.452 34.785 C 63.175 34.508, 64.535 30.519, 66.474 25.921 C 70.170 17.158, 70.666 15, 68.984 15 C 67.187 15, 38.836 59.129, 39.508 60.881 C 39.936 61.996, 43.274 57.667, 50.467 46.670 C 56.156 37.972, 61.054 30.613, 61.352 30.315 C 61.976 29.691, 45.627 69.153, 44.428 71.165 C 43.990 71.899, 37.865 80.908, 30.816 91.185 C 23.767 101.461, 18 110.308, 18 110.845 C 18 111.381, 19.712 113.998, 21.804 116.660 C 23.897 119.322, 25.930 122.032, 26.322 122.683 C 26.714 123.333, 25.677 132.650, 24.018 143.387 C 22.358 154.123, 21 163.661, 21 164.583 C 21 166.092, 22.107 166.186, 32.250 165.535 C 42.690 164.864, 64.639 160.757, 66.170 159.187 C 66.539 158.809, 68.497 154.340, 70.522 149.257 C 72.573 144.109, 76.596 136.680, 79.602 132.490 L 85 124.968 85 114.380 L 85 103.792 78.207 94.146 C 74.471 88.841, 71.088 83.967, 70.688 83.315 C 70.289 82.663, 70.429 80.048, 70.999 77.503 C 71.929 73.353, 71.574 71.114, 67.547 55.742 C 65.078 46.319, 63.158 38.511, 63.279 38.393 C 63.727 37.957, 155.298 20.965, 155.596 21.263 C 155.766 21.433, 151.089 24.255, 145.202 27.536 L 134.500 33.500 114.894 34 L 95.289 34.500 106.219 60 L 117.149 85.500 116.074 114.618 C 115.484 130.633, 115 146.734, 115 150.398 L 115 157.059 96.750 169.133 L 78.500 181.206 117.990 180.472 L 157.481 179.738 164.490 174.269 C 168.346 171.262, 171.627 168.465, 171.782 168.055 C 171.937 167.644, 165.525 161.116, 157.532 153.547 L 143 139.786 143 104.814 L 143 69.842 156.813 51.671 C 164.410 41.677, 170.925 32.997, 171.290 32.382 C 171.656 31.767, 170.138 28.725, 167.917 25.624 C 164.721 21.161, 164.191 19.864, 165.376 19.409 C 167.687 18.522, 166.142 15.820, 163.757 16.577 C 162.653 16.927, 161.440 16.713, 161.062 16.100 C 160.595 15.345, 143.437 14.352, 107.936 13.024 C 79.096 11.945, 52.280 10.894, 48.345 10.688 L 41.191 10.313 31.845 26.853 M 147.116 29.520 L 133.732 37 116.866 37 C 107.590 37, 100 37.351, 100 37.781 C 100 38.210, 104.471 48.975, 109.936 61.702 L 119.872 84.844 118.888 117.672 C 118.346 135.727, 117.670 152.428, 117.385 154.784 C 116.871 159.041, 116.778 159.128, 102.689 168.534 L 88.511 178 101.594 178 C 108.790 178, 124.249 177.702, 135.946 177.338 L 157.215 176.675 162.796 172.129 L 168.377 167.583 154.689 154.520 L 141 141.458 141 104.719 L 141 67.980 154.897 49.706 L 168.794 31.431 165.301 26.715 C 163.380 24.122, 161.514 22.009, 161.154 22.020 C 160.794 22.031, 154.477 25.406, 147.116 29.520 M 54.037 55.823 C 48.354 69.651, 46.106 73.682, 34.974 90 C 28.033 100.175, 22.023 109.062, 21.618 109.750 C 21.174 110.505, 22.681 113.337, 25.426 116.904 L 29.969 122.808 26.993 142.154 C 25.356 152.794, 24.013 161.905, 24.009 162.400 C 23.994 163.937, 43.229 162.141, 53.974 159.601 C 59.561 158.281, 64.254 157.043, 64.401 156.850 C 64.548 156.658, 66.170 152.675, 68.005 148 C 69.840 143.325, 73.739 136.139, 76.670 132.032 L 82 124.564 82 114.438 L 82 104.311 74.436 93.507 L 66.872 82.703 68.018 77.924 C 69.070 73.541, 68.819 71.794, 64.990 56.823 C 62.694 47.845, 60.740 40.421, 60.648 40.323 C 60.556 40.226, 57.581 47.201, 54.037 55.823" stroke="none" fill="black" fill-rule="evenodd"/>
</svg>