<svg xmlns="http://www.w3.org/2000/svg" width="200" height="200" viewBox="0 0 200 200" version="1.1">
	<path d="M 69.130 15.600 C 48.576 16.319, 31.506 17.161, 31.196 17.470 C 29.235 19.432, 37.856 19.520, 83.500 18.004 L 134.500 16.311 146.744 21.288 L 158.989 26.266 166.494 49.515 C 173.583 71.473, 174.566 75, 173.595 75 C 173.372 75, 164.709 76.579, 154.345 78.508 C 142.166 80.775, 133.500 82.946, 129.846 84.646 L 124.192 87.276 119.141 82.926 C 116.364 80.533, 114.315 78.352, 114.588 78.079 C 114.861 77.805, 124.288 77.078, 135.537 76.463 C 146.786 75.847, 156.299 75.034, 156.678 74.655 C 158.426 72.908, 153.660 72.031, 128.173 69.414 C 113.143 67.870, 100.245 66.133, 99.511 65.554 C 98.450 64.716, 100.311 61.131, 108.588 48.065 C 114.315 39.025, 119 31.305, 119 30.908 C 119 30.512, 116.749 28.570, 113.998 26.594 C 108.053 22.323, 107.547 22.300, 88 25.440 L 73.500 27.770 70.225 25.788 C 66.243 23.378, 63.391 23.994, 64.959 26.924 C 65.912 28.705, 65.586 28.931, 61.252 29.487 C 50.272 30.897, 12.602 37.065, 12.138 37.529 C 10.101 39.566, 16.475 39.228, 35.814 36.274 L 58.128 32.866 63.314 37.368 C 66.166 39.845, 70.504 43.629, 72.952 45.777 L 77.404 49.684 66.736 56.842 C 60.868 60.779, 55.646 64, 55.131 64 C 54.617 64, 49.456 61.975, 43.662 59.500 C 32.622 54.784, 30.579 54.238, 31.225 56.175 C 31.615 57.344, 53.135 67, 55.351 67 C 55.990 67, 61.653 63.565, 67.935 59.368 C 76.396 53.714, 79.742 51.978, 80.843 52.673 C 81.661 53.189, 85.617 58.648, 89.634 64.805 C 96.185 74.846, 96.709 76, 94.719 76.005 C 93.499 76.007, 85.096 76.479, 76.047 77.053 L 59.595 78.097 43.102 87.505 C 34.031 92.679, 27.260 97.115, 28.055 97.361 C 28.850 97.608, 37.150 98.543, 46.500 99.440 C 60.845 100.815, 65.088 101.627, 73.668 104.638 L 83.836 108.206 96.314 102.603 C 103.178 99.521, 109.206 97, 109.709 97 C 110.213 97, 117.523 107.602, 125.954 120.559 C 137.436 138.206, 140.996 144.404, 140.141 145.259 C 138.813 146.587, 139.421 147.168, 130.385 135.957 C 126.598 131.259, 122.155 124.570, 120.512 121.094 L 117.524 114.773 102.012 115.237 L 86.500 115.702 56.614 133.117 C 40.177 142.695, 26.677 150.784, 26.614 151.092 C 26.551 151.400, 32.344 158.552, 39.486 166.984 L 52.472 182.314 68.486 165.754 L 84.500 149.193 98.616 157.467 L 112.731 165.741 125.116 157.878 C 131.927 153.553, 137.816 150.124, 138.202 150.257 C 138.589 150.391, 144.837 157.700, 152.088 166.500 C 159.339 175.300, 166.361 183.802, 167.692 185.394 C 169.264 187.273, 170.454 187.946, 171.087 187.313 C 171.720 186.680, 167.346 179.111, 158.613 165.728 L 145.164 145.119 156.582 137.948 C 162.862 134.005, 167.990 130.490, 167.977 130.139 C 167.936 129.025, 141.815 102.617, 134.019 95.809 L 126.538 89.276 130.643 87.182 C 133.041 85.959, 143.588 83.417, 156.018 81.067 C 167.717 78.855, 177.434 76.899, 177.612 76.721 C 178.212 76.121, 161.803 25.511, 160.646 24.392 C 160.016 23.783, 154.210 21.196, 147.745 18.642 L 135.990 14 121.245 14.147 C 113.135 14.227, 89.683 14.882, 69.130 15.600 M 93.317 27.380 C 86.066 28.546, 79.908 29.733, 79.632 30.018 C 79.357 30.302, 82.924 32.552, 87.560 35.018 C 92.195 37.483, 95.991 39.785, 95.994 40.133 C 95.997 40.480, 93.084 42.665, 89.521 44.987 C 84.037 48.559, 83.190 49.486, 84.009 51.016 C 85.015 52.897, 95.011 62, 96.070 62 C 96.402 62, 100.417 56.038, 104.992 48.750 C 109.567 41.463, 113.916 34.565, 114.658 33.421 C 115.899 31.507, 115.657 31.093, 111.589 28.171 C 109.160 26.427, 107.022 25.058, 106.837 25.130 C 106.651 25.201, 100.567 26.213, 93.317 27.380 M 64.661 31.926 L 61.822 32.500 68.338 38.250 C 71.922 41.413, 75.126 44, 75.458 44 C 76.046 44, 69.425 33.071, 68.143 31.926 C 67.789 31.610, 66.222 31.610, 64.661 31.926 M 72.556 33.750 C 81.697 47.821, 81.002 47.112, 83.945 45.374 C 85.423 44.500, 87.682 42.994, 88.965 42.027 L 91.298 40.267 82.797 35.633 C 78.122 33.085, 73.504 31, 72.534 31 C 70.854 31, 70.855 31.132, 72.556 33.750 M 92.100 63.705 C 92.829 64.917, 93.640 65.694, 93.903 65.431 C 94.166 65.168, 93.570 64.176, 92.579 63.226 C 90.857 61.577, 90.835 61.598, 92.100 63.705 M 96.892 70.750 C 99.427 75.362, 100.670 76.300, 103.355 75.626 L 106.020 74.957 102.628 71.978 C 98.782 68.601, 95.301 67.856, 96.892 70.750 M 107.391 72.498 L 110.281 75.146 123.891 74.446 C 131.376 74.062, 137.624 73.642, 137.777 73.514 C 138.077 73.260, 121.491 71.346, 111 70.422 L 104.500 69.850 107.391 72.498 M 102 78.512 C 102 78.794, 104.064 82.128, 106.586 85.921 L 111.172 92.818 116.253 90.706 L 121.334 88.594 115.417 83.299 C 110.502 78.900, 108.865 78.003, 105.750 78.002 C 103.688 78.001, 102 78.230, 102 78.512 M 71.500 79.998 L 60.500 80.690 48.278 87.595 C 41.556 91.393, 36.044 94.770, 36.028 95.100 C 36.013 95.430, 42.187 96.268, 49.750 96.963 C 60.065 97.910, 65.624 98.971, 72 101.209 C 76.675 102.851, 81.297 104.430, 82.271 104.719 C 84.069 105.252, 107.918 95.102, 107.971 93.781 C 107.987 93.386, 105.953 89.898, 103.452 86.031 L 98.903 79 90.702 79.154 C 86.191 79.238, 77.550 79.618, 71.500 79.998 M 117.500 93.056 C 115.300 94.098, 113.645 95.524, 113.822 96.225 C 113.999 96.926, 120.711 107.546, 128.737 119.824 C 139.281 135.955, 143.769 142.030, 144.915 141.724 C 145.787 141.491, 150.473 138.733, 155.328 135.594 L 164.156 129.888 156.734 121.694 C 147.199 111.168, 124.952 90.980, 123 91.083 C 122.175 91.126, 119.700 92.014, 117.500 93.056 M 58.804 134.943 L 30.109 151.704 41.304 164.980 L 52.500 178.255 68.141 162.055 L 83.783 145.854 96.811 153.428 C 103.977 157.593, 110.552 161.275, 111.424 161.609 C 112.407 161.987, 117.366 159.480, 124.504 154.998 C 130.827 151.027, 136 147.576, 136 147.329 C 136 147.083, 132.906 143.195, 129.125 138.690 C 125.343 134.186, 120.837 127.688, 119.110 124.250 L 115.971 118 101.736 118.091 L 87.500 118.181 58.804 134.943 M 141 147.873 C 141 148.716, 150.621 160.946, 153.688 164 C 154.516 164.825, 152.563 161.364, 149.347 156.309 C 144.244 148.288, 141 145.009, 141 147.873" stroke="none" fill="black" fill-rule="evenodd"/>
</svg>