<svg xmlns="http://www.w3.org/2000/svg" width="200" height="200" viewBox="0 0 200 200" version="1.1">
	<path d="M 31.739 27.700 C 22.521 42.887, 15.135 55.469, 15.327 55.660 C 15.518 55.852, 23.680 52.156, 33.463 47.448 L 51.251 38.887 53.473 40.975 C 54.696 42.123, 56.265 44.126, 56.961 45.427 C 58.151 47.651, 56.987 49.431, 37.192 75.645 L 16.158 103.500 17.011 125.927 L 17.865 148.353 28.274 158.762 L 38.682 169.171 53.446 158.335 L 68.209 147.500 67.635 140 C 67.320 135.875, 66.780 129.800, 66.436 126.500 L 65.811 120.500 82.656 108.625 C 91.920 102.094, 100.001 96.557, 100.614 96.321 C 101.820 95.855, 124.544 120.790, 123.691 121.643 C 123.406 121.927, 116.545 123.150, 108.443 124.361 L 93.713 126.562 89.401 139.031 C 87.029 145.889, 85.069 152.007, 85.044 152.627 C 85 153.749, 103.107 169, 104.483 169 C 104.880 169, 113.730 166.267, 124.150 162.926 C 142.356 157.089, 143.205 156.700, 145.927 152.942 L 148.759 149.032 162.479 164.566 C 175.240 179.015, 179.021 182.111, 178.149 177.396 C 177.956 176.353, 174.919 164.650, 171.399 151.388 C 167.880 138.126, 165 126.749, 165 126.106 C 165 125.462, 167.516 121.346, 170.590 116.958 L 176.180 108.981 170.980 100.873 L 165.779 92.766 172.292 69.633 C 179.258 44.891, 183.707 26.374, 182.884 25.551 C 181.728 24.395, 57.914 0.004, 53.411 0.044 L 48.500 0.089 31.739 27.700 M 36.572 25.153 C 28.557 38.288, 22 49.219, 22 49.445 C 22 49.671, 28.498 46.738, 36.440 42.928 C 44.383 39.117, 51.303 36, 51.820 36 C 52.336 36, 54.414 38.020, 56.437 40.489 L 60.115 44.977 62.308 42.571 C 64.408 40.266, 65.537 40.087, 89.250 38.298 C 108.412 36.852, 114 36.707, 114 37.654 C 114 39.149, 110.992 39.553, 85.594 41.470 C 70.046 42.643, 65.290 43.332, 63.870 44.618 C 62.114 46.207, 62.119 46.353, 64.007 48.882 C 65.082 50.322, 68.148 53.937, 70.819 56.916 L 75.676 62.331 80.960 55.737 C 83.867 52.110, 86.977 49.194, 87.872 49.256 C 89.782 49.388, 157.011 29.678, 156.476 29.142 C 156.276 28.943, 140.565 29.582, 121.562 30.562 C 102.558 31.542, 86.708 32.041, 86.338 31.672 C 85.969 31.302, 85.991 30.676, 86.387 30.280 C 86.783 29.884, 104.858 28.671, 126.554 27.585 C 148.249 26.499, 166 25.360, 165.999 25.055 C 165.999 24.750, 140.156 19.274, 108.571 12.886 L 51.143 1.273 36.572 25.153 M 171.417 27.246 C 170.822 27.935, 152.715 33.658, 131.179 39.962 C 109.643 46.266, 92.356 51.729, 92.762 52.102 C 93.168 52.475, 100.475 56.702, 109 61.496 L 124.500 70.211 135.186 66.507 C 141.063 64.470, 146.323 63.081, 146.874 63.422 C 147.424 63.762, 151.382 69.640, 155.668 76.484 C 160.274 83.838, 163.732 88.430, 164.122 87.713 C 166.138 84.012, 180.702 28.361, 179.869 27.542 C 178.673 26.364, 172.368 26.143, 171.417 27.246 M 39.606 76.787 L 18.790 104.500 19.395 114.906 C 19.728 120.629, 20 130.249, 20 136.284 L 20 147.258 28.681 156.129 C 33.455 161.008, 37.917 165, 38.596 165 C 39.275 165, 45.625 160.704, 52.707 155.452 L 65.584 145.904 64.350 134.202 C 63.672 127.766, 63.090 121.781, 63.058 120.902 C 63.023 119.937, 70.126 114.269, 81 106.583 C 90.900 99.585, 99 93.615, 99 93.315 C 99 92.256, 76.661 67.506, 76.085 67.928 C 75.763 68.163, 70.652 73.901, 64.727 80.678 C 54.819 92.011, 52 94.537, 52 92.080 C 52 91.574, 56.903 85.173, 62.896 77.855 C 75.288 62.723, 74.990 65.409, 65.461 54.724 L 60.422 49.074 39.606 76.787 M 84.887 57.426 C 77.599 65.645, 77.266 64.252, 89.909 78.398 C 96.104 85.329, 101.601 91, 102.126 91 C 102.651 91, 104.407 90.019, 106.028 88.821 C 107.649 87.623, 109.137 86.835, 109.335 87.071 C 109.532 87.307, 110.930 90.938, 112.440 95.139 L 115.187 102.779 125.844 105.003 C 131.705 106.227, 141.225 108.261, 147 109.524 C 152.775 110.786, 157.537 111.748, 157.582 111.660 C 157.628 111.572, 158.834 107.332, 160.264 102.237 L 162.862 92.974 154.328 79.487 C 149.635 72.069, 145.452 66, 145.033 66 C 144.615 66, 140.048 67.573, 134.886 69.495 C 129.724 71.417, 125.138 72.992, 124.695 72.995 C 124.252 72.998, 117.277 69.242, 109.195 64.649 C 86.801 51.924, 89.147 52.621, 84.887 57.426 M 105.647 92.503 C 103.888 93.802, 103.988 94.104, 107.588 98.411 C 109.675 100.908, 111.520 102.813, 111.688 102.645 C 112.080 102.254, 108.936 92.724, 108.117 91.817 C 107.778 91.442, 106.666 91.750, 105.647 92.503 M 162.082 105.750 C 160.774 110.563, 159.612 114.620, 159.502 114.766 C 159.348 114.970, 126.056 107.990, 115.738 105.591 C 113.885 105.160, 115.437 107.331, 123.840 116.931 L 127.719 121.361 143.109 119.124 C 151.574 117.893, 159.273 116.662, 160.217 116.386 C 161.433 116.032, 162.120 116.632, 162.575 118.443 C 162.928 119.849, 163.560 121, 163.979 121 C 164.398 121, 166.549 118.250, 168.758 114.888 L 172.774 108.776 169.137 102.899 C 167.137 99.667, 165.266 97.017, 164.981 97.011 C 164.695 97.005, 163.391 100.938, 162.082 105.750 M 145.500 121.491 C 135.325 123.036, 131.578 123.973, 131.787 124.919 C 132.118 126.423, 147.138 143.778, 148.224 143.911 C 148.792 143.981, 158.330 130.473, 161.224 125.500 C 161.545 124.950, 161.288 123.345, 160.653 121.933 L 159.500 119.365 145.500 121.491 M 111.608 126.599 C 103.417 127.856, 96.386 129.248, 95.982 129.692 C 95.192 130.561, 88 150.585, 88 151.914 C 88 152.650, 100.776 163.539, 103.823 165.400 C 104.621 165.888, 112.313 163.895, 123.237 160.368 C 140.491 154.799, 141.459 154.349, 144.139 150.649 L 146.949 146.770 138.342 137.135 C 133.608 131.836, 129.007 126.783, 128.118 125.907 C 126.637 124.448, 125.237 124.507, 111.608 126.599 M 156.303 137.799 L 150.233 146.558 161.809 159.753 C 168.176 167.010, 173.551 172.783, 173.753 172.580 C 174.077 172.256, 163.152 129.853, 162.593 129.270 C 162.472 129.143, 159.642 132.981, 156.303 137.799" stroke="none" fill="black" fill-rule="evenodd"/>
</svg>