<svg xmlns="http://www.w3.org/2000/svg" width="200" height="200" viewBox="0 0 200 200" version="1.1">
	<path d="M 99.500 24.126 L 69.500 24.930 44.065 36.270 C 21.886 46.158, 14.851 50, 18.923 50 C 19.522 50, 31.147 45.015, 44.756 38.922 L 69.500 27.844 80 27.434 C 96.622 26.786, 125.144 26.192, 124.807 26.500 C 124.638 26.655, 109.425 28.468, 91 30.529 C 72.575 32.590, 57.054 34.683, 56.508 35.180 C 55.035 36.523, 56.951 37.395, 69.008 40.869 L 79.776 43.972 101.305 41.623 L 122.835 39.275 136.668 41.724 C 144.275 43.071, 150.571 44.247, 150.659 44.337 C 150.746 44.427, 150.570 48.445, 150.267 53.266 L 149.716 62.031 145.108 61.514 C 142.574 61.229, 129.250 60.326, 115.500 59.508 C 101.750 58.689, 88.025 57.786, 85 57.500 L 79.500 56.981 71.250 67.393 C 66.713 73.120, 63 78.022, 63 78.286 C 63 78.551, 67.709 81.626, 73.464 85.120 C 79.219 88.614, 83.606 91.753, 83.214 92.095 C 82.821 92.438, 74.625 93.972, 65 95.504 C 55.375 97.036, 46.929 98.584, 46.232 98.945 C 45.425 99.362, 48.230 102.074, 53.946 106.404 C 58.886 110.146, 63.398 113.775, 63.974 114.468 C 64.781 115.440, 62.617 116.585, 54.510 119.473 C 47.491 121.974, 44 123.716, 44 124.719 C 44 125.987, 45.716 126.163, 55 125.845 C 61.050 125.638, 66 125.538, 66 125.624 C 66 125.710, 63.304 127.517, 60.009 129.640 C 56.714 131.763, 54.017 133.725, 54.017 134 C 54.017 134.275, 62.900 136.924, 73.758 139.887 C 84.616 142.849, 94.067 145.570, 94.760 145.932 C 95.514 146.326, 89.494 150.585, 79.760 156.545 C 70.817 162.020, 59.122 169.753, 53.772 173.729 L 44.044 180.958 42.558 175.729 C 36.127 153.101, 26 115.597, 26 114.410 C 26 113.162, 38.396 68.820, 39.742 65.250 C 40.002 64.563, 39.512 64, 38.654 64 C 37.747 64, 36.714 65.360, 36.186 67.250 C 35.687 69.037, 32.463 80.400, 29.021 92.500 L 22.765 114.500 32.458 149.492 C 37.789 168.738, 42.338 184.671, 42.566 184.899 C 42.794 185.128, 47.383 181.924, 52.764 177.780 C 58.144 173.637, 71.046 165.044, 81.434 158.686 L 100.322 147.125 104.911 150.267 C 107.435 151.995, 121.762 161.843, 136.750 172.152 C 151.738 182.460, 164 190.646, 164 190.344 C 164 190.042, 161.067 183.052, 157.483 174.811 L 150.966 159.828 160.044 148.336 C 165.037 142.015, 169.348 136.256, 169.624 135.537 C 169.965 134.648, 168.505 133.841, 165.063 133.015 C 162.278 132.347, 160 131.503, 160 131.139 C 160 130.775, 166.016 111.583, 173.369 88.489 C 180.722 65.395, 186.612 46.352, 186.457 46.171 C 186.303 45.991, 180.750 49.478, 174.117 53.921 C 163.395 61.105, 161.550 62, 157.463 62 L 152.867 62 153.184 52.027 L 153.500 42.054 149 41.109 C 146.525 40.590, 139.504 39.376, 133.398 38.412 C 122.525 36.696, 121.853 36.705, 100.898 38.873 L 79.500 41.086 72.615 39.075 C 68.829 37.969, 65.559 36.892, 65.349 36.683 C 64.928 36.261, 75.014 35.041, 125.750 29.376 C 150.853 26.573, 160 25.211, 160 24.276 C 160 22.820, 149.187 22.794, 99.500 24.126 M 166.750 62.139 L 152 72.033 152 78.017 C 152 81.307, 152.194 84, 152.432 84 C 152.669 84, 156.534 82.647, 161.021 80.992 L 169.178 77.985 167.339 80.429 C 155.149 96.630, 149.360 103.930, 148.681 103.962 C 148.231 103.983, 148.176 100.411, 148.558 96.023 L 149.254 88.047 140.877 91.137 C 136.270 92.837, 130.345 94.974, 127.712 95.887 L 122.924 97.547 140.117 112.785 C 149.574 121.166, 157.506 127.828, 157.744 127.589 C 158.274 127.059, 181.991 52.642, 181.704 52.409 C 181.592 52.318, 174.863 56.697, 166.750 62.139 M 73.763 68.578 C 70.058 73.339, 67.231 77.565, 67.481 77.969 C 67.731 78.373, 73.350 81.941, 79.967 85.899 C 86.585 89.856, 92 93.226, 92 93.387 C 92 93.549, 82.998 95.209, 71.995 97.076 C 60.992 98.942, 52.105 100.779, 52.245 101.156 C 52.605 102.127, 68.106 114, 69.012 114 C 69.423 114, 76.676 111.501, 85.130 108.447 C 95.187 104.813, 102.897 101.312, 107.433 98.317 L 114.367 93.740 109.913 89.620 C 107.463 87.354, 103.296 83.547, 100.653 81.159 C 98.010 78.772, 95.995 76.680, 96.174 76.511 C 96.353 76.341, 107.750 73.856, 121.500 70.988 C 135.250 68.121, 147.075 65.462, 147.778 65.081 C 148.481 64.700, 136.331 63.594, 120.778 62.622 C 105.225 61.650, 89.800 60.645, 86.500 60.388 L 80.500 59.922 73.763 68.578 M 125.276 72.895 C 113.053 75.490, 102.798 77.869, 102.486 78.181 C 102.174 78.493, 105.281 81.757, 109.390 85.435 L 116.862 92.122 133.431 81.046 C 148.553 70.938, 152.210 67.845, 148.750 68.088 C 148.063 68.136, 137.499 70.299, 125.276 72.895 M 133.531 84.072 C 122.894 91.052, 119.036 94.076, 120.198 94.522 C 121.741 95.115, 146.578 86.768, 148.307 85.075 C 148.751 84.641, 148.976 82.028, 148.807 79.268 L 148.500 74.250 133.531 84.072 M 155.868 85.611 C 152.755 86.904, 152.143 87.701, 151.585 91.193 C 151.227 93.434, 151.126 95.459, 151.361 95.695 C 151.597 95.930, 153.888 93.395, 156.453 90.061 C 161.457 83.557, 161.424 83.304, 155.868 85.611 M 114 97 C 113.175 97.533, 112.950 97.969, 113.500 97.969 C 114.050 97.969, 115.175 97.533, 116 97 C 116.825 96.467, 117.050 96.031, 116.500 96.031 C 115.950 96.031, 114.825 96.467, 114 97 M 110 102.208 C 102.459 104.983, 78 119.823, 78 121.625 C 78 121.946, 87.787 121.894, 99.750 121.508 L 121.500 120.807 137.878 125.442 C 146.886 127.991, 154.407 129.926, 154.591 129.742 C 155.137 129.197, 121.241 99.519, 119.811 99.291 C 119.090 99.176, 114.675 100.489, 110 102.208 M 85.500 111.047 C 84.400 111.548, 80.891 112.908, 77.702 114.069 C 72.930 115.806, 72.111 116.429, 73.075 117.590 C 73.718 118.365, 74.625 119, 75.089 119 C 75.837 119, 87.638 111.695, 88.855 110.479 C 89.611 109.722, 87.693 110.047, 85.500 111.047 M 59.500 120.556 L 53.500 122.881 61.500 122.925 C 70.560 122.975, 73.136 122.073, 71.063 119.576 C 69.351 117.513, 66.793 117.730, 59.500 120.556 M 88.191 124.913 L 82.881 125.500 94.544 134.438 C 104.439 142.021, 105.966 143.551, 104.619 144.537 C 103.287 145.510, 107.264 148.597, 129.266 163.670 C 161.419 185.699, 158.426 183.932, 156.664 179.841 C 155.872 178.003, 153.599 172.748, 151.612 168.161 C 149.626 163.575, 148 159.700, 148 159.549 C 148 159.399, 152.023 154.161, 156.940 147.911 C 161.856 141.660, 165.752 136.419, 165.598 136.264 C 165.443 136.109, 155.683 133.293, 143.908 130.006 L 122.500 124.028 108 124.177 C 100.025 124.259, 91.111 124.590, 88.191 124.913 M 66.500 128.566 C 63.750 130.467, 61.386 132.360, 61.246 132.773 C 60.909 133.769, 99.819 144.515, 100.672 143.661 C 101.036 143.298, 101.146 142.862, 100.917 142.693 C 100.687 142.524, 95.436 138.474, 89.247 133.693 C 76.088 123.528, 74.354 123.137, 66.500 128.566" stroke="none" fill="black" fill-rule="evenodd"/>
</svg>