<svg xmlns="http://www.w3.org/2000/svg" width="200" height="200" viewBox="0 0 200 200" version="1.1">
	<path d="M 159 10.577 C 157.828 10.862, 95.243 22.052, 80.347 24.639 C 77.450 25.142, 76.978 24.818, 74.534 20.649 C 71.175 14.917, 68.942 15.244, 70.068 21.302 C 70.498 23.611, 70.546 25.769, 70.175 26.098 C 69.804 26.427, 58.941 28.586, 46.035 30.896 C 33.129 33.206, 22.423 35.244, 22.243 35.424 C 21.841 35.825, 32.923 61.165, 34.021 62.355 C 34.455 62.826, 43.843 62.445, 54.927 61.506 C 65.992 60.569, 75.616 60.023, 76.316 60.291 C 77.093 60.589, 78.930 68.045, 81.043 79.480 C 82.945 89.766, 84.725 98.512, 85 98.916 C 85.275 99.319, 97.200 105.199, 111.500 111.981 C 137.230 124.185, 140.671 126, 138.082 126 C 136.289 126, 80.750 132.971, 79.521 133.351 C 78.982 133.517, 94.702 141.614, 114.453 151.344 C 134.204 161.075, 150.669 168.690, 151.042 168.268 C 151.416 167.846, 153.807 154.519, 156.356 138.654 L 160.992 109.808 157.746 106.050 C 155.961 103.984, 151.350 98.788, 147.501 94.505 L 140.502 86.718 148.821 78.991 L 157.140 71.264 150.596 61.149 L 144.053 51.033 146.080 36.404 C 147.196 28.358, 147.971 21.675, 147.804 21.553 C 147.389 21.250, 97.806 35.861, 97.203 36.463 C 96.838 36.828, 106.691 64.886, 111.489 77.144 C 111.980 78.398, 110.041 80.154, 103.316 84.545 C 98.467 87.711, 93.817 90.484, 92.983 90.707 C 91.814 91.019, 90.377 87.664, 86.733 76.112 C 84.130 67.862, 82 60.702, 82 60.200 C 82 59.698, 85.236 58.986, 89.191 58.619 C 93.147 58.251, 96.551 57.782, 96.757 57.576 C 96.963 57.370, 93.165 50.779, 88.316 42.930 C 83.467 35.080, 79.603 28.398, 79.728 28.079 C 79.954 27.507, 161.173 12.796, 161.546 13.260 C 161.652 13.392, 165.148 22.500, 169.314 33.500 L 176.889 53.500 177.943 95 C 178.522 117.825, 179.235 140.394, 179.527 145.153 L 180.057 153.805 150.175 170.403 C 133.740 179.531, 119.979 187, 119.596 187 C 119.212 187, 104.858 176.131, 87.699 162.847 C 70.540 149.563, 55.969 138.284, 55.320 137.782 C 54.491 137.142, 50.090 142.253, 40.549 154.935 C 33.074 164.871, 26.811 173, 26.631 173 C 26.452 173, 27.125 167.713, 28.129 161.250 C 29.132 154.787, 30.936 142.936, 32.136 134.914 L 34.320 120.329 52.660 110.454 C 62.747 105.024, 71 100, 71 99.290 C 71 97.657, 70.863 97.662, 56.585 99.889 L 44.670 101.747 32.755 92.649 C 23.022 85.217, 21.175 83.411, 22.670 82.788 C 23.676 82.368, 33.246 79.986, 43.935 77.494 C 54.624 75.003, 63.487 72.847, 63.630 72.703 C 63.774 72.560, 63.578 71.955, 63.196 71.359 C 62.439 70.182, 14.814 80.934, 15.258 82.182 C 15.391 82.557, 21.934 87.764, 29.798 93.753 L 44.096 104.642 52.298 103.329 C 56.809 102.607, 60.805 102.125, 61.178 102.258 C 61.551 102.391, 55.163 106.082, 46.984 110.459 C 36.627 116.002, 31.966 119.038, 31.632 120.459 C 31.369 121.582, 29.265 135.024, 26.958 150.332 C 24.169 168.837, 23.098 178.498, 23.761 179.161 C 24.424 179.824, 29.534 173.849, 39.012 161.329 C 46.851 150.973, 53.624 142.104, 54.062 141.620 C 54.501 141.136, 68.919 151.643, 86.103 164.968 C 103.287 178.293, 117.951 189.428, 118.690 189.711 C 119.429 189.995, 133.976 182.492, 151.017 173.039 L 182 155.851 182.017 147.675 C 182.027 143.179, 181.494 119.963, 180.834 96.084 L 179.633 52.668 171.552 31.595 C 163.600 10.858, 162.869 9.634, 159 10.577 M 122.186 31.520 C 110.463 34.971, 100.723 37.953, 100.540 38.147 C 100.358 38.341, 103.525 47.500, 107.579 58.500 C 111.633 69.500, 114.956 78.950, 114.965 79.500 C 114.973 80.050, 110.822 83.095, 105.740 86.266 C 100.658 89.438, 95.094 92.933, 93.376 94.035 L 90.253 96.036 86.919 85.391 C 85.085 79.535, 83.470 75.140, 83.330 75.622 C 83.190 76.105, 84.071 81.217, 85.287 86.982 L 87.500 97.463 117.732 111.950 C 134.359 119.917, 147.634 126.719, 147.232 127.064 C 146.829 127.409, 134.575 129.127, 120 130.881 C 105.425 132.635, 92.240 134.320, 90.701 134.625 C 88.335 135.095, 92.576 137.492, 118.095 150.113 C 134.701 158.325, 148.534 164.799, 148.835 164.499 C 149.274 164.059, 157.924 113.294, 157.984 110.808 C 157.993 110.427, 153.183 104.840, 147.295 98.392 L 136.591 86.669 144.811 79.085 C 149.332 74.913, 153.024 71.072, 153.015 70.550 C 153.007 70.027, 150.316 65.527, 147.035 60.550 L 141.070 51.500 142.522 41.500 C 143.321 36, 144.226 30.038, 144.533 28.250 C 144.840 26.462, 144.733 25.055, 144.295 25.123 C 143.858 25.191, 133.909 28.069, 122.186 31.520 M 74.812 28.521 C 74.130 29.203, 78.556 52.300, 79.823 54.673 C 80.639 56.200, 81.800 56.444, 86.903 56.161 C 91.202 55.922, 92.803 55.478, 92.315 54.661 C 88.195 47.760, 75.807 28, 75.601 28 C 75.454 28, 75.099 28.235, 74.812 28.521 M 48.037 33.146 C 36.232 35.317, 26.410 37.257, 26.210 37.457 C 26.010 37.657, 28.018 42.803, 30.673 48.892 C 35.099 59.043, 35.724 59.965, 38.200 59.982 C 41.233 60.002, 76.362 56.994, 76.600 56.693 C 77.238 55.886, 71.327 29.022, 70.528 29.099 C 69.962 29.153, 59.842 30.974, 48.037 33.146" stroke="none" fill="black" fill-rule="evenodd"/>
</svg>