<svg xmlns="http://www.w3.org/2000/svg" width="200" height="200" viewBox="0 0 200 200" version="1.1">
	<path d="M 90.500 13.053 C 89.400 13.497, 86.588 13.891, 84.250 13.930 C 80.898 13.985, 79.999 14.370, 79.994 15.750 C 79.989 17.065, 76.163 19.070, 64.585 23.822 C 50.307 29.683, 48.906 30.068, 45.386 29.096 C 41.267 27.959, 39.149 29.269, 41.169 31.704 C 42.229 32.981, 39.788 34.337, 28.500 38.740 C 26.300 39.599, 24.137 40.619, 23.693 41.007 C 23.250 41.396, 26.808 45.382, 31.600 49.866 C 36.393 54.350, 40.131 58.192, 39.907 58.402 C 39.683 58.613, 34.888 60.203, 29.250 61.936 C 23.612 63.668, 19 65.254, 19 65.460 C 19 65.665, 29.389 69.297, 42.088 73.529 C 57.165 78.555, 65.515 80.885, 66.155 80.245 C 66.795 79.605, 63.642 76.021, 57.068 69.914 C 51.530 64.772, 47 60.293, 47 59.962 C 47 59.630, 50.904 58.189, 55.676 56.758 L 64.353 54.156 72.176 61.221 C 76.479 65.106, 80 68.461, 80 68.676 C 80 68.892, 71.146 78.615, 60.325 90.284 C 49.504 101.953, 39.781 112.480, 38.718 113.679 C 37.375 115.193, 35.905 120.529, 33.898 131.179 C 32.309 139.605, 31.120 146.823, 31.255 147.218 C 31.390 147.613, 40.451 139.614, 51.392 129.443 C 62.333 119.272, 71.439 111.106, 71.629 111.296 C 71.819 111.485, 67.925 121.730, 62.975 134.061 C 58.026 146.392, 53.870 157.030, 53.739 157.700 C 53.407 159.395, 76.086 184.323, 77.044 183.317 C 77.472 182.868, 82.587 171.061, 88.411 157.080 L 99 131.660 99 97.517 L 99 63.375 96.005 54.516 C 94.358 49.643, 93.190 45.477, 93.409 45.258 C 93.736 44.930, 133.822 61.630, 134.802 62.502 C 134.968 62.649, 130.805 65.817, 125.552 69.541 C 120.298 73.265, 116 76.917, 116 77.656 C 116 78.395, 116.338 78.990, 116.750 78.979 C 117.162 78.967, 123.756 75.645, 131.403 71.596 C 144.377 64.726, 145.154 64.153, 143.031 63.017 L 140.757 61.799 143.608 59.929 C 145.176 58.901, 146.750 58.383, 147.105 58.779 C 147.735 59.482, 156 83.927, 156 85.087 C 156 85.408, 144.737 95.947, 130.971 108.507 C 115.447 122.670, 106.297 131.697, 106.877 132.277 C 107.457 132.857, 113.571 130.679, 122.978 126.542 L 138.145 119.873 141.322 122.329 C 143.070 123.680, 146.211 126.296, 148.303 128.142 L 152.106 131.500 141.062 155 C 134.988 167.925, 130.430 178.638, 130.932 178.808 C 131.724 179.074, 180.109 166.315, 180.557 165.722 C 180.649 165.600, 180.283 151.775, 179.743 135 C 179.046 113.352, 179.105 93.804, 179.944 67.646 C 180.594 47.377, 180.984 30.650, 180.810 30.476 C 180.636 30.303, 173.970 34.871, 165.997 40.629 C 158.024 46.387, 150.749 51.523, 149.830 52.041 C 148.389 52.855, 147.663 51.492, 144.530 42.089 L 140.899 31.193 133.949 30.495 C 130.127 30.111, 127.002 29.505, 127.004 29.149 C 127.007 28.792, 136.467 26.270, 148.026 23.545 C 159.586 20.820, 169.542 18.283, 170.150 17.907 C 173.530 15.818, 167.165 15.275, 132.427 14.690 C 111.717 14.341, 94.261 13.649, 93.636 13.152 C 93.011 12.654, 91.600 12.610, 90.500 13.053 M 85.677 17.703 C 84.674 17.963, 84.045 18.698, 84.280 19.337 C 84.514 19.977, 86.374 25.532, 88.413 31.683 C 91.247 40.230, 92.519 42.841, 93.810 42.758 C 94.740 42.699, 105.052 46.722, 116.726 51.698 L 137.953 60.745 142.034 57.744 C 144.279 56.093, 145.930 54.238, 145.704 53.621 C 145.478 53.005, 144.046 48.675, 142.522 44 C 140.999 39.325, 139.423 35.138, 139.022 34.696 C 138.460 34.077, 121.768 31.202, 117.750 31.032 C 117.338 31.014, 117 30.365, 117 29.588 C 117 28.578, 122.763 26.799, 137.250 23.338 L 157.500 18.500 143.500 17.872 C 127.075 17.135, 88.311 17.022, 85.677 17.703 M 64.267 26.788 C 55.339 30.480, 48.086 33.725, 48.148 34 C 48.211 34.275, 52.174 38.219, 56.954 42.765 L 65.646 51.030 76.943 47.561 C 83.157 45.653, 88.453 43.880, 88.713 43.621 C 89.289 43.044, 81.780 19.985, 81.033 20.038 C 80.740 20.059, 73.195 23.096, 64.267 26.788 M 37 38.126 C 32.875 39.788, 29.146 41.492, 28.713 41.911 C 27.746 42.848, 42.457 57, 44.398 57 C 45.555 57, 55.595 54.211, 60.938 52.405 C 61.915 52.074, 59.683 49.212, 53.960 43.459 C 49.331 38.807, 45.309 35.023, 45.022 35.052 C 44.735 35.080, 41.125 36.464, 37 38.126 M 162.781 46.112 L 149.062 56.072 154.031 70.286 C 156.764 78.104, 159 84.973, 159 85.550 C 159 86.394, 132.066 111.642, 117.674 124.289 L 114.500 127.079 118 125.662 C 119.925 124.882, 125.173 122.615, 129.662 120.622 C 134.151 118.630, 138.135 117, 138.515 117 C 139.579 117, 155 130.066, 155 130.967 C 155 131.404, 150.493 141.333, 144.985 153.032 C 139.476 164.731, 135.167 174.500, 135.408 174.741 C 135.780 175.114, 177.068 164.266, 177.706 163.627 C 177.830 163.503, 177.478 149.068, 176.923 131.549 C 176.234 109.778, 176.245 90.993, 176.958 72.201 C 178.200 39.425, 178.228 35.977, 177.250 36.076 C 176.838 36.118, 170.327 40.634, 162.781 46.112 M 78.159 49.988 C 73.021 51.562, 68.619 53.048, 68.376 53.290 C 68.134 53.533, 71.526 57.109, 75.915 61.238 L 83.894 68.744 61.791 92.499 L 39.689 116.253 37.962 124.877 C 34.248 143.416, 32.277 143.654, 54.537 122.869 C 73.208 105.435, 77 102.411, 77 104.956 C 77 105.563, 72.450 117.569, 66.888 131.636 C 58.172 153.683, 56.939 157.509, 57.955 159.357 C 59.547 162.249, 75.724 179.630, 76.238 179 C 76.463 178.725, 81.004 167.925, 86.330 155 L 96.012 131.500 96.006 97.560 L 96 63.619 93.294 55.310 C 91.420 49.555, 90.113 47.019, 89.044 47.063 C 88.195 47.098, 83.296 48.414, 78.159 49.988 M 33.697 63.362 L 26.894 65.517 41.697 70.399 C 49.839 73.084, 57.175 75.476, 58 75.715 C 58.825 75.954, 55.900 72.747, 51.500 68.588 C 47.100 64.430, 42.825 61.068, 42 61.117 C 41.175 61.167, 37.439 62.177, 33.697 63.362 M 136.507 64.989 C 136.157 65.555, 136.558 65.723, 137.448 65.382 C 139.180 64.717, 139.497 64, 138.059 64 C 137.541 64, 136.843 64.445, 136.507 64.989" stroke="none" fill="black" fill-rule="evenodd"/>
</svg>