<svg xmlns="http://www.w3.org/2000/svg" width="200" height="200" viewBox="0 0 200 200" version="1.1">
	<path d="M 74.547 1.924 C 74.188 2.505, 76.428 11.125, 79.525 21.079 C 82.621 31.034, 84.944 39.389, 84.686 39.647 C 84.428 39.905, 73.372 34.690, 60.116 28.058 C 46.861 21.426, 35.779 16, 35.490 16 C 35.201 16, 39.078 22.145, 44.104 29.656 L 53.244 43.312 52.580 49.796 C 52.060 54.873, 50.663 58.798, 46.142 67.890 L 40.369 79.500 40.935 92.297 L 41.500 105.095 57 95.245 C 65.525 89.827, 73.055 85.059, 73.733 84.649 C 74.411 84.239, 73.351 87.638, 71.378 92.202 C 69.404 96.766, 67.357 101.697, 66.828 103.161 C 65.975 105.521, 63.926 106.495, 48.683 111.784 C 39.232 115.064, 28.238 118.792, 24.250 120.070 C 16.996 122.395, 14.990 124.545, 19.250 125.429 C 20.488 125.686, 29.825 126.429, 40 127.082 C 50.175 127.734, 60.146 128.545, 62.159 128.884 L 65.817 129.500 42.864 146.372 C 30.240 155.652, 20.043 163.374, 20.205 163.534 C 20.367 163.693, 29.405 164.633, 40.290 165.623 L 60.079 167.423 77.540 163.104 L 95 158.785 94.960 155.642 C 94.937 153.914, 93.416 138.100, 91.578 120.500 C 89.740 102.900, 88.361 88.359, 88.514 88.188 C 88.666 88.016, 92.967 89.173, 98.070 90.760 C 107.133 93.577, 107.380 93.735, 108.686 97.572 C 109.422 99.732, 110.222 102.044, 110.465 102.710 C 110.776 103.562, 112.724 103.094, 117.064 101.124 L 123.222 98.329 131.611 100.844 C 136.225 102.228, 139.994 103.616, 139.987 103.930 C 139.980 104.243, 130.327 111.025, 118.537 119 C 106.746 126.975, 97.238 133.950, 97.409 134.500 C 97.931 136.187, 101.739 135.305, 122.922 128.593 L 143.344 122.122 132.672 132.827 L 122 143.533 122.058 148.516 C 122.185 159.535, 122.219 159.587, 138.319 173.442 C 146.470 180.456, 153.296 186.037, 153.490 185.844 C 154.045 185.288, 181 116.923, 181 116.070 C 181 115.649, 174.701 108.598, 167.003 100.402 C 159.304 92.206, 153.004 85.242, 153.003 84.927 C 153.001 84.612, 159.331 81.480, 167.070 77.968 C 174.808 74.456, 181.334 71.268, 181.572 70.884 C 181.809 70.500, 177.840 69.446, 172.752 68.543 C 138.995 62.551, 131.047 61.360, 130.750 62.250 C 130.571 62.787, 123.981 59.998, 116.106 56.053 C 108.230 52.108, 101.976 48.690, 102.208 48.458 C 102.765 47.902, 163.120 27, 164.170 27 C 164.617 27, 160.036 31.544, 153.991 37.097 C 147.946 42.651, 143 47.510, 143 47.894 C 143 48.279, 147.838 50.568, 153.750 52.981 C 159.662 55.393, 165.919 57.948, 167.653 58.657 C 170.256 59.721, 170.896 59.713, 171.319 58.611 C 171.677 57.677, 168.065 55.783, 159.292 52.305 L 146.753 47.335 159.817 35.475 C 171.844 24.557, 173.916 21.991, 170.691 22.005 C 170.036 22.008, 153.300 27.608, 133.500 34.448 C 97.760 46.795, 97.479 46.873, 94.592 45.190 C 92.063 43.716, 90.693 40.798, 84.092 22.828 C 79.916 11.461, 76.208 1.869, 75.850 1.514 C 75.493 1.158, 74.906 1.342, 74.547 1.924 M 49.584 32.906 L 56.179 42.811 55.458 49.656 C 54.876 55.180, 53.582 58.809, 48.750 68.471 L 42.763 80.442 43.631 90.206 L 44.500 99.969 60.629 89.751 L 76.758 79.533 82.810 65.308 C 91.377 45.171, 92.504 47.226, 65.516 33.750 C 53.676 27.837, 43.763 23, 43.488 23 C 43.214 23, 45.957 27.458, 49.584 32.906 M 95 51.284 C 95 53.031, 108.695 90.101, 109.699 91.074 C 110.140 91.500, 113.425 92.615, 117 93.552 L 123.500 95.256 135.250 89.697 C 141.713 86.640, 147 83.831, 147 83.454 C 147 83.078, 143.512 79.175, 139.250 74.781 C 131.992 67.299, 130.437 66.258, 114.761 58.396 C 97.961 49.969, 95 48.904, 95 51.284 M 85.362 66.025 C 83.085 71.511, 81.516 76, 81.875 76 C 82.372 76, 91.976 69.927, 93.827 68.442 C 94.370 68.006, 90.784 55.998, 90.118 56.025 C 89.778 56.038, 87.638 60.538, 85.362 66.025 M 142.070 73.897 L 150.276 82.795 161.763 77.397 C 168.081 74.429, 173.531 71.954, 173.875 71.898 C 174.812 71.746, 137.788 65.106, 135.682 65.049 C 134.430 65.015, 136.415 67.766, 142.070 73.897 M 96.872 68.288 C 96.667 69.271, 92.531 72.646, 87.679 75.788 L 78.858 81.500 73.179 94.883 L 67.500 108.267 46.706 115.345 C 33.247 119.927, 26.545 122.649, 27.706 123.062 C 28.693 123.413, 38.500 124.285, 49.500 125 C 60.500 125.715, 70.288 126.580, 71.251 126.923 C 72.555 127.386, 67.078 131.887, 49.835 144.523 C 29.140 159.688, 26.978 161.534, 29.583 161.818 C 31.188 161.992, 38.575 162.744, 46 163.487 L 59.500 164.839 75.750 160.746 C 91.486 156.782, 92 156.571, 92 154.076 C 92 152.659, 90.447 136.441, 88.549 118.035 C 86.651 99.629, 85.207 84.459, 85.342 84.325 C 85.476 84.191, 89.995 85.447, 95.385 87.115 C 100.774 88.784, 105.306 90.003, 105.456 89.825 C 105.606 89.646, 103.820 84.325, 101.486 78 C 99.153 71.675, 97.076 67.304, 96.872 68.288 M 138.154 91.286 L 126.807 96.500 136.404 99.413 C 141.682 101.015, 146 102.613, 146 102.965 C 146 103.317, 137.472 109.416, 127.049 116.519 C 116.627 123.621, 108.251 129.584, 108.436 129.770 C 108.622 129.955, 117.636 127.329, 128.468 123.934 C 140.691 120.103, 148.517 118.117, 149.097 118.697 C 149.678 119.278, 145.209 124.349, 137.317 132.066 L 124.602 144.500 124.876 150.973 C 125.026 154.532, 125.469 158.016, 125.860 158.714 C 126.683 160.185, 151.111 181, 152.014 181 C 152.347 181, 158.376 166.592, 165.413 148.983 C 177.554 118.603, 178.128 116.852, 176.638 114.733 C 175.774 113.505, 169.315 106.554, 162.284 99.286 L 149.500 86.072 138.154 91.286 M 111.557 97.250 C 112.510 100.350, 112.477 100.339, 115.662 98.658 L 118.500 97.160 115.685 96.080 C 111.556 94.496, 110.778 94.716, 111.557 97.250" stroke="none" fill="black" fill-rule="evenodd"/>
</svg>