<svg xmlns="http://www.w3.org/2000/svg" width="200" height="200" viewBox="0 0 200 200" version="1.1">
	<path d="M 133.598 21.750 C 133.289 23.262, 132.339 29.225, 131.485 35 C 129.349 49.463, 129.399 49.307, 126.237 51.084 C 123.540 52.599, 122.727 52.454, 107.459 47.742 C 98.682 45.034, 91.378 42.699, 91.229 42.554 C 91.080 42.410, 92.755 38.383, 94.951 33.606 L 98.944 24.922 63.222 25.586 C 43.575 25.952, 27.147 26.570, 26.715 26.961 C 26.283 27.351, 28.457 29.348, 31.545 31.398 C 36.990 35.014, 37.112 35.193, 35.566 37.313 C 32.275 41.828, 32.385 42.046, 42.901 51.905 L 53.135 61.500 46.368 67.250 C 41.105 71.721, 38.866 73, 36.300 73 C 34.485 73, 33 73.450, 33 74 C 33 74.550, 33.675 75, 34.500 75 C 36.782 75, 36.321 76.082, 32.750 79.109 L 29.500 81.863 42.375 107.030 L 55.251 132.197 48.782 138.848 C 43.106 144.684, 41.739 146.898, 37.641 156.901 C 35.071 163.172, 33.088 168.400, 33.234 168.519 C 33.381 168.639, 39.014 171.680, 45.753 175.277 L 58.005 181.818 88.020 168.909 C 104.807 161.689, 119.388 156, 121.104 156 C 123.535 156, 138.493 159.652, 139.806 160.566 C 139.974 160.683, 139.384 163.590, 138.493 167.026 C 136.003 176.638, 138.067 176.919, 142.680 167.597 C 145.635 161.624, 146.188 159.734, 145.168 159.104 C 143.632 158.154, 144.508 151.595, 146.355 150.216 C 146.985 149.745, 152.225 148.301, 158 147.006 C 163.775 145.711, 168.853 144.355, 169.285 143.991 C 169.717 143.627, 167.203 142.111, 163.699 140.622 L 157.327 137.914 158.759 129.207 C 159.622 123.962, 160.808 120.015, 161.744 119.281 C 162.924 118.355, 163.026 117.736, 162.166 116.700 C 161.311 115.669, 162.248 107.975, 166.018 85.092 C 171.200 53.632, 171.619 50, 170.067 50 C 168.870 50, 169.219 48.813, 160.063 84.011 C 155.758 100.558, 151.987 114.346, 151.683 114.651 C 151.378 114.955, 135.238 113.574, 115.815 111.581 C 78.314 107.734, 70.898 106.849, 72.500 106.408 C 76.008 105.443, 121.767 91.865, 122.917 91.448 C 123.930 91.081, 124.027 90.627, 123.257 89.857 C 122.487 89.087, 118.150 89.979, 108.057 92.983 L 93.935 97.187 84.468 88.496 C 79.260 83.716, 75 79.379, 75 78.857 C 75 78.336, 76.463 78.142, 78.250 78.426 C 83.601 79.278, 131.976 82.357, 132.456 81.877 C 132.701 81.633, 133.591 70.423, 134.435 56.966 C 135.279 43.510, 136.175 29.462, 136.426 25.750 C 136.782 20.496, 136.582 19, 135.521 19 C 134.772 19, 133.906 20.238, 133.598 21.750 M 54 28.787 L 46.500 29.177 55.500 31.939 C 60.450 33.458, 69.830 36.311, 76.345 38.279 L 88.190 41.857 91.095 35.451 C 92.693 31.927, 94 28.809, 94 28.522 C 94 27.961, 66.360 28.145, 54 28.787 M 34 29.385 C 34 29.597, 35.075 30.475, 36.390 31.336 C 38.602 32.785, 38.910 32.757, 40.545 30.951 C 42.268 29.046, 42.212 29, 38.155 29 C 35.870 29, 34 29.173, 34 29.385 M 42.388 32.740 C 41.414 34.281, 42.844 35.543, 53.888 42.889 C 60.824 47.502, 66.725 51.486, 67 51.741 C 67.275 51.997, 65.131 54.302, 62.235 56.865 L 56.970 61.524 63.901 68.401 C 67.833 72.304, 71.408 75.057, 72.166 74.766 C 73.311 74.325, 87.397 45.009, 86.738 44.436 C 86.607 44.322, 77.391 41.465, 66.259 38.086 C 55.126 34.708, 45.451 31.727, 44.759 31.462 C 44.066 31.196, 42.999 31.771, 42.388 32.740 M 37.639 39.428 C 36.067 41.828, 36.156 41.959, 45.153 50.428 C 50.161 55.143, 54.657 59, 55.144 59 C 55.631 59, 57.641 57.523, 59.611 55.718 L 63.192 52.436 51.603 44.718 C 45.229 40.473, 39.838 37, 39.622 37 C 39.407 37, 38.514 38.093, 37.639 39.428 M 83.044 59.750 C 79.605 67.313, 76.596 73.984, 76.356 74.576 C 76.062 75.302, 84.586 76.245, 102.558 77.476 C 132.709 79.540, 130.959 79.914, 130.985 71.401 C 130.993 68.596, 131.299 62.770, 131.663 58.453 L 132.327 50.604 128.018 53.149 L 123.709 55.693 108.104 50.862 C 99.522 48.204, 91.779 46.023, 90.898 46.015 C 89.804 46.005, 87.313 50.361, 83.044 59.750 M 49.048 68.457 L 44.029 72.915 47.265 73.406 C 49.044 73.677, 54.055 74.116, 58.401 74.383 L 66.302 74.869 60.935 69.434 C 57.983 66.445, 55.230 64, 54.818 64 C 54.405 64, 51.808 66.006, 49.048 68.457 M 36.717 79.265 L 32.935 82.500 45.717 107.661 L 58.500 132.823 51.463 140.161 C 45.368 146.518, 43.906 148.803, 40.535 157.239 C 38.395 162.595, 36.837 167.149, 37.072 167.360 C 37.307 167.570, 42.146 170.218, 47.824 173.243 L 58.149 178.744 84.824 167.274 C 99.496 160.965, 112.625 155.350, 114 154.796 C 116.163 153.924, 113.741 152.984, 96 147.809 C 84.725 144.520, 75.170 141.515, 74.766 141.131 C 74.363 140.747, 84.713 136.097, 97.766 130.797 C 120.552 121.547, 121.960 121.114, 133 119.960 C 139.325 119.299, 144.832 118.457, 145.238 118.090 C 145.645 117.723, 129.220 115.717, 108.738 113.632 C 63.999 109.076, 64 109.077, 64 107.470 C 64 106.753, 67.173 105.248, 71.250 104.031 C 75.237 102.841, 80.975 101.133, 84 100.235 C 87.025 99.338, 89.699 98.456, 89.943 98.276 C 90.529 97.841, 79.263 86.400, 75.731 83.842 L 72.962 81.837 70.494 87.418 C 69.136 90.488, 67.570 93, 67.013 93 C 65.420 93, 65.821 90.927, 68.542 85.082 C 69.929 82.102, 70.692 79.292, 70.238 78.838 C 69.503 78.103, 49.422 76.033, 43 76.031 C 41.625 76.030, 38.798 77.486, 36.717 79.265 M 162.079 87.583 C 162.127 88.748, 162.364 88.985, 162.683 88.188 C 162.972 87.466, 162.936 86.603, 162.604 86.271 C 162.272 85.939, 162.036 86.529, 162.079 87.583 M 158.132 102.439 C 156.410 109.319, 155 115.184, 155 115.474 C 155 116.849, 157.927 115.788, 158.375 114.250 C 159.377 110.806, 162.183 90.849, 161.728 90.395 C 161.473 90.140, 159.855 95.560, 158.132 102.439 M 153.670 120.750 C 153.100 121.702, 147 144.598, 147 145.783 C 147 146.268, 150.150 145.989, 154 145.163 C 161.295 143.596, 162.554 142.611, 158.750 141.445 C 154.425 140.119, 154.215 139.473, 155.597 131.752 C 157.314 122.158, 157.307 120, 155.559 120 C 154.766 120, 153.916 120.338, 153.670 120.750 M 132.500 122.657 C 122.637 123.913, 119.455 124.896, 101.722 132.167 C 90.844 136.627, 82.115 140.448, 82.324 140.658 C 83.251 141.584, 120.602 151.997, 122.919 151.975 C 124.338 151.962, 129.550 150.922, 134.500 149.664 L 143.500 147.378 146.702 135.439 C 148.463 128.873, 149.925 122.938, 149.952 122.250 C 150.011 120.726, 147.141 120.793, 132.500 122.657 M 135 152.195 C 128.647 153.581, 128.193 154.559, 133.306 155.847 C 135.746 156.461, 138.395 157.214, 139.192 157.520 C 140.194 157.905, 140.976 156.985, 141.727 154.538 C 142.961 150.517, 142.860 150.482, 135 152.195" stroke="none" fill="black" fill-rule="evenodd"/>
</svg>