<svg xmlns="http://www.w3.org/2000/svg" width="200" height="200" viewBox="0 0 200 200" version="1.1">
	<path d="M 132.495 16.388 C 129.241 25.401, 126.112 32.618, 125.540 32.425 C 124.968 32.233, 118.875 30.388, 112 28.325 L 99.500 24.576 58.500 24.300 C 25.673 24.079, 17.861 24.271, 19.313 25.262 C 29.615 32.294, 34.648 35.487, 41.230 39.165 L 48.960 43.484 52.974 53.415 C 55.182 58.877, 56.781 63.552, 56.529 63.804 C 56.276 64.057, 51.463 63.545, 45.833 62.667 C 40.203 61.788, 35.407 61.260, 35.175 61.492 C 33.918 62.748, 37.511 65.746, 55.219 78.213 C 65.928 85.753, 75.225 92.566, 75.878 93.353 C 77.201 94.948, 76.805 95.035, 49.750 99.133 C 32.305 101.776, 33.629 99.073, 38.306 122.500 L 41.500 138.500 52.745 141.500 C 58.930 143.150, 63.993 144.838, 63.995 145.250 C 63.998 145.662, 59.344 146, 53.654 146 C 37.597 146, 25 147.104, 25 148.511 C 25 149.177, 39.610 156.266, 57.466 164.264 L 89.933 178.806 114.716 168.311 C 135.117 159.672, 140.246 157.093, 143.717 153.732 C 147.578 149.993, 148.151 149.748, 150.514 150.824 C 151.933 151.471, 153.523 152, 154.047 152 C 155.613 152, 155.127 149.815, 153.250 148.416 C 151.659 147.230, 152.224 146.381, 159.477 139.055 L 167.454 130.999 159.468 122.749 C 155.075 118.212, 149.333 112.219, 146.707 109.431 L 141.932 104.362 160.965 82.618 C 178.833 62.206, 179.922 60.735, 178.749 58.590 C 174.970 51.679, 140.335 0.067, 139.455 0.036 C 138.881 0.016, 135.749 7.375, 132.495 16.388 M 134.369 19.234 L 129.246 33.469 146.044 38.357 C 158.071 41.857, 162.701 43.615, 162.344 44.546 C 161.940 45.599, 160.897 45.565, 156.848 44.362 C 153.697 43.426, 151.417 43.221, 150.676 43.807 C 150.029 44.318, 145.900 45.034, 141.500 45.399 C 123.533 46.891, 124.449 46.547, 122.211 52.625 L 120.224 58.018 122.612 58.617 C 123.925 58.947, 125 59.357, 125 59.528 C 125 59.700, 124.071 66.200, 122.934 73.973 C 121.798 81.747, 121.021 88.564, 121.208 89.124 C 121.394 89.683, 126.936 85.171, 133.523 79.097 C 144.397 69.069, 148 66.509, 148 68.810 C 148 69.921, 118.002 97.335, 117.422 96.755 C 116.995 96.328, 120.316 70.111, 121.603 63.750 C 122.004 61.764, 121.758 61, 120.717 61 C 119.739 61, 116.069 69.812, 109.306 88.398 L 99.338 115.795 123.549 130.398 C 136.865 138.429, 148.164 145, 148.657 145 C 149.150 145, 152.678 141.851, 156.498 138.002 L 163.442 131.005 157.476 124.752 C 154.194 121.314, 148.493 115.350, 144.807 111.500 L 138.103 104.500 157.469 82.500 L 176.835 60.500 175.167 57.908 C 164.034 40.604, 140.384 5.042, 139.996 5.024 C 139.719 5.011, 137.187 11.405, 134.369 19.234 M 28.011 27.500 C 31.121 31.189, 35.699 31.906, 79.224 35.520 C 103.272 37.517, 123.409 38.865, 123.974 38.516 C 125.601 37.511, 125.167 35.183, 123.250 34.633 C 122.287 34.357, 116.100 32.547, 109.500 30.612 L 97.500 27.092 62.334 26.796 C 38.964 26.599, 27.451 26.835, 28.011 27.500 M 41.550 35.833 C 42.072 36.292, 49.025 40.638, 57 45.493 C 64.975 50.347, 71.605 54.390, 71.733 54.476 C 71.861 54.562, 73.327 62.028, 74.991 71.066 C 76.654 80.105, 78.226 88.436, 78.484 89.580 C 78.742 90.723, 82.079 93.870, 85.900 96.571 C 93.003 101.594, 94 103.249, 94 110.018 C 94 113.590, 96.749 114.796, 97.905 111.731 C 102.964 98.312, 116 61.455, 116 60.572 C 116 59.940, 110.037 57.681, 102.750 55.553 C 87.334 51.050, 85.378 50.222, 86.797 48.803 C 87.354 48.246, 95.390 47.098, 104.655 46.252 C 120.062 44.844, 124.302 43.968, 122.830 42.497 C 122.445 42.112, 44.879 35, 41.065 35 C 40.809 35, 41.028 35.375, 41.550 35.833 M 127.595 37.613 C 127.242 38.533, 127.076 39.384, 127.226 39.504 C 127.377 39.623, 131.100 39.966, 135.500 40.265 L 143.500 40.808 137.500 38.880 C 134.200 37.820, 130.766 36.725, 129.868 36.446 C 128.918 36.152, 127.969 36.639, 127.595 37.613 M 126 43 C 126 43.550, 127.463 43.968, 129.250 43.930 C 131.974 43.871, 132.176 43.720, 130.500 43 C 127.737 41.813, 126 41.813, 126 43 M 54 47.753 C 54 48.257, 55.770 53.019, 57.933 58.335 C 60.096 63.651, 61.558 67.999, 61.183 67.997 C 60.807 67.995, 56.512 67.296, 51.637 66.443 C 46.762 65.591, 42.616 65.051, 42.423 65.243 C 42.231 65.436, 49.482 70.835, 58.536 77.241 C 67.591 83.647, 75.010 88.351, 75.022 87.694 C 75.035 87.037, 73.816 79.820, 72.314 71.655 L 69.584 56.810 65.542 54.087 C 58.135 49.096, 54 46.827, 54 47.753 M 108.757 48.521 C 102.298 49.144, 96.789 49.878, 96.515 50.151 C 96.098 50.568, 100.068 51.870, 116.144 56.585 C 117.375 56.946, 118.193 55.883, 119.392 52.364 C 120.273 49.777, 120.883 47.600, 120.747 47.525 C 120.611 47.450, 115.215 47.899, 108.757 48.521 M 78.907 97.079 C 78.133 97.569, 76.236 97.976, 74.691 97.985 C 73.146 97.993, 72.146 98.427, 72.469 98.950 C 73.098 99.968, 89.367 110, 90.389 110 C 90.725 110, 91 108.489, 91 106.642 C 91 103.692, 90.350 102.851, 85.657 99.736 C 81.969 97.287, 79.878 96.464, 78.907 97.079 M 52.008 101.405 C 42.125 102.982, 38.446 103.952, 38.254 105.029 C 37.982 106.560, 43.470 135.863, 44.126 136.381 C 44.332 136.543, 51.639 138.525, 60.365 140.786 C 69.090 143.047, 76.485 145.152, 76.798 145.465 C 78.575 147.242, 73.270 147.963, 53.736 148.598 C 41.766 148.988, 32.191 149.524, 32.457 149.790 C 32.723 150.056, 45.791 156.008, 61.496 163.016 L 90.051 175.757 113.832 165.628 C 128.084 159.558, 139.171 154.209, 141.501 152.278 C 143.639 150.505, 145.189 148.903, 144.944 148.717 C 144.700 148.531, 133.925 144.299, 121 139.313 C 97.703 130.325, 97.496 130.267, 97 132.602 C 96.570 134.628, 94.479 132.459, 82 117.038 C 74.025 107.183, 67.050 99.149, 66.500 99.186 C 65.950 99.223, 59.429 100.222, 52.008 101.405 M 76.590 106.058 C 77.189 106.851, 81.189 111.775, 85.479 117 L 93.279 126.500 92.543 120.500 C 92.138 117.200, 91.738 114.441, 91.653 114.368 C 91.469 114.210, 77.925 106.006, 76.500 105.189 C 75.949 104.873, 75.989 105.263, 76.590 106.058 M 97.001 122.498 C 96.341 124.498, 96.013 126.347, 96.273 126.607 C 97.118 127.451, 135.357 141.976, 135.737 141.597 C 136.100 141.233, 102.060 120.344, 99.512 119.366 C 98.682 119.048, 97.760 120.196, 97.001 122.498" stroke="none" fill="black" fill-rule="evenodd"/>
</svg>