<svg xmlns="http://www.w3.org/2000/svg" width="200" height="200" viewBox="0 0 200 200" version="1.1">
	<path d="M 49.735 14.978 C 36.664 15.923, 25.808 16.878, 25.610 17.099 C 25.412 17.319, 24.718 30.550, 24.069 46.500 C 23.420 62.450, 21.789 95.219, 20.444 119.320 C 19.100 143.420, 18 164.267, 18 165.646 C 18 167.840, 19.437 166.802, 29.524 157.326 C 42.392 145.237, 52.058 138.860, 53.081 141.783 C 53.411 142.727, 55.846 154.435, 58.491 167.799 C 61.137 181.164, 63.637 191.739, 64.048 191.299 C 64.679 190.624, 88.914 117.184, 89.351 114.625 C 89.433 114.144, 88.967 113.554, 88.316 113.314 C 87.540 113.028, 83.260 124.769, 75.882 147.421 C 69.694 166.420, 64.509 181.842, 64.360 181.694 C 64.212 181.545, 62.037 171.346, 59.528 159.028 C 57.019 146.710, 54.791 136.458, 54.578 136.245 C 54.365 136.032, 50.885 137.717, 46.845 139.991 C 42.081 142.672, 36.249 147.346, 30.250 153.292 C 23.454 160.029, 21 161.935, 21.001 160.480 C 21.002 159.391, 21.891 143.200, 22.977 124.500 C 24.063 105.800, 25.651 74.550, 26.504 55.055 C 27.358 35.560, 28.156 19.533, 28.278 19.439 C 28.400 19.345, 41.325 18.404, 57 17.348 L 85.500 15.428 97.981 18.037 L 110.463 20.646 92.981 23.937 C 68.729 28.502, 57.950 30.697, 57.652 31.130 C 56.297 33.100, 46.970 54.867, 46.983 56.030 C 46.992 56.872, 49.250 63.383, 52 70.500 C 54.750 77.617, 57 83.958, 57 84.591 C 57 85.283, 54.212 86.016, 50 86.431 C 45.126 86.912, 43 87.532, 43 88.473 C 43 90.010, 45.499 90.474, 62 92 C 82.329 93.880, 81 93.384, 81 99.088 C 81 102.788, 81.370 104, 82.500 104 C 83.638 104, 84 102.766, 84 98.892 C 84 94.098, 84.139 93.817, 86.250 94.333 C 87.487 94.636, 92.450 95.197, 97.277 95.581 C 106.317 96.300, 110.330 98, 102.987 98 L 98.856 98 99.449 103.250 C 99.937 107.570, 103.330 150.639, 104.250 164.191 C 104.480 167.586, 104.081 168.195, 99.266 171.794 L 94.033 175.706 102.266 176.347 C 112.453 177.140, 178 177.213, 178 176.432 C 178 176.119, 173.273 168.957, 167.495 160.516 L 156.990 145.169 163.353 118.334 C 166.852 103.575, 172.309 82.419, 175.478 71.320 L 181.240 51.141 172.939 40.320 C 168.373 34.369, 164.519 29.337, 164.374 29.138 C 164.229 28.940, 158.123 27.528, 150.805 26.001 C 143.487 24.475, 136.600 23.030, 135.500 22.791 C 133.921 22.447, 134.499 21.856, 138.250 19.979 C 142.950 17.627, 144.569 15, 141.319 15 C 140.395 15, 134.657 15.967, 128.569 17.149 L 117.500 19.299 102.691 16.149 C 85.758 12.548, 83.884 12.507, 49.735 14.978 M 126.750 20.662 C 127.438 20.940, 128.563 20.940, 129.250 20.662 C 129.938 20.385, 129.375 20.158, 128 20.158 C 126.625 20.158, 126.063 20.385, 126.750 20.662 M 93.500 26.581 C 80.850 29.010, 68.097 31.488, 65.160 32.088 L 59.819 33.179 54.910 43.693 C 52.209 49.476, 50 55.026, 50 56.027 C 50 57.028, 52.475 64.216, 55.500 72 C 58.525 79.784, 61 86.569, 61 87.077 C 61 87.584, 59.987 88.056, 58.750 88.125 C 56.072 88.273, 63.626 89.426, 73.750 90.414 L 81 91.121 81 61.561 C 81 28.474, 81.476 26.521, 86.500 39 C 89.306 45.971, 90.748 48.117, 89.628 43.656 C 89.082 41.480, 90.306 40.670, 106.595 32.409 C 120.985 25.112, 123.730 23.389, 121.825 22.853 C 118.245 21.846, 117.972 21.882, 93.500 26.581 M 110.753 33.624 L 92.266 42.877 95.040 54.497 C 97.775 65.951, 101.629 77.021, 102.866 76.978 C 103.215 76.966, 110.700 65.611, 119.500 51.744 C 133.168 30.206, 135.533 26.967, 135.729 29.516 C 136.201 35.670, 139.008 90.627, 139.004 93.636 C 139 96.572, 138.721 96.815, 134.630 97.428 L 130.261 98.083 128.041 114.792 C 124.610 140.613, 125.581 140.255, 116.754 118.951 L 109.109 100.500 105.857 100.781 C 104.069 100.935, 102.511 101.160, 102.395 101.281 C 102.278 101.401, 103.391 116.729, 104.867 135.342 L 107.550 169.184 104.525 171.342 L 101.500 173.500 137 174.043 C 156.525 174.342, 172.690 174.452, 172.922 174.288 C 173.154 174.124, 168.991 167.580, 163.671 159.745 L 153.999 145.500 160.425 118.481 C 163.959 103.620, 169.390 82.589, 172.493 71.744 C 175.630 60.781, 177.796 51.467, 177.372 50.764 C 176.952 50.069, 173.462 45.450, 169.616 40.500 C 165.770 35.550, 162.595 31.442, 162.561 31.372 C 162.528 31.302, 155.016 29.697, 145.870 27.807 L 129.239 24.370 110.753 33.624 M 118.265 58.702 L 104.030 81.034 106.655 87.425 C 109.247 93.737, 109.335 93.823, 113.889 94.511 C 119.035 95.287, 134.988 95.346, 135.743 94.591 C 136.390 93.944, 133.979 42.214, 133.149 38.935 C 132.578 36.677, 130.798 39.040, 118.265 58.702 M 84.268 66 L 84.500 91.500 95 92.583 C 100.775 93.179, 105.631 93.572, 105.792 93.458 C 105.952 93.343, 105.341 91.393, 104.433 89.125 C 102.845 85.155, 101.033 83.651, 100.970 86.250 C 100.902 89.026, 99.145 84.102, 97.133 75.500 C 95.975 70.550, 92.555 60.650, 89.532 53.500 L 84.036 40.500 84.268 66 M 119.234 99.049 C 115.788 99.406, 112.785 99.882, 112.561 100.105 C 112.146 100.521, 122.130 125.463, 123.100 126.433 C 123.393 126.726, 124.424 120.842, 125.391 113.358 C 126.358 105.873, 126.778 99.445, 126.324 99.074 C 125.871 98.703, 122.680 98.691, 119.234 99.049" stroke="none" fill="black" fill-rule="evenodd"/>
</svg>