<svg xmlns="http://www.w3.org/2000/svg" width="200" height="200" viewBox="0 0 200 200" version="1.1">
	<path d="M 70.114 31.750 C 68.299 41.513, 66.583 50.512, 66.299 51.750 C 65.946 53.288, 66.243 54, 67.237 54 C 68.618 54, 69.197 51.510, 74.738 21.750 C 75.020 20.238, 75.531 19, 75.875 19.001 C 76.219 19.001, 81 22.511, 86.500 26.800 L 96.500 34.599 96.772 53.799 C 97.001 70.008, 97.275 73, 98.531 73 C 99.777 73, 132.961 61.267, 133.766 60.541 C 133.912 60.409, 130.632 57.698, 126.478 54.516 C 122.323 51.333, 119.062 48.313, 119.232 47.804 C 119.402 47.294, 127.482 41.767, 137.187 35.520 L 154.834 24.163 160.917 34.104 C 164.263 39.572, 167 44.368, 167 44.763 C 167 45.158, 158.133 54.357, 147.296 65.204 C 136.459 76.051, 127.804 85.137, 128.062 85.395 C 128.320 85.653, 131.674 85.460, 135.515 84.965 C 139.357 84.470, 143.850 84.063, 145.500 84.061 C 148.014 84.057, 147.528 84.454, 142.500 86.510 C 124.242 93.977, 89.808 109.683, 89.857 110.523 C 89.889 111.060, 93.690 114.117, 98.305 117.316 L 106.695 123.132 130.010 117.062 C 142.833 113.723, 153.439 111.105, 153.579 111.245 C 153.719 111.385, 148.133 115.100, 141.167 119.499 C 133.081 124.605, 119.363 131.693, 103.237 139.095 C 89.342 145.474, 77.785 150.882, 77.553 151.114 C 77.322 151.345, 90.265 154.284, 106.316 157.643 L 135.500 163.752 153.389 155.376 C 163.227 150.769, 171.400 147, 171.551 147 C 171.701 147, 168.343 154.988, 164.087 164.750 L 156.351 182.500 128.318 183.367 L 100.286 184.234 80.393 169.786 C 69.452 161.839, 55.135 151.543, 48.579 146.905 C 42.022 142.267, 36.505 138.015, 36.319 137.456 C 36.132 136.897, 45.052 128.579, 56.140 118.970 C 67.227 109.362, 79.422 97.900, 83.240 93.500 L 90.180 85.500 68.840 85 C 57.103 84.725, 48.625 84.169, 50 83.764 C 51.375 83.359, 54.151 83.021, 56.168 83.014 C 63.174 82.988, 62.979 83.505, 62.318 66.660 C 61.991 58.322, 61.646 51.398, 61.552 51.274 C 61.252 50.878, 38.098 46, 36.517 46 C 35.683 46, 35 46.586, 35 47.303 C 35 48.172, 38.956 49.368, 46.877 50.894 L 58.753 53.182 59.471 66.163 C 59.866 73.303, 60.034 79.290, 59.845 79.469 C 59.523 79.772, 20.600 84, 18.130 84 C 17.509 84, 17 84.675, 17 85.500 C 17 86.790, 20.464 87.015, 41.750 87.106 C 55.363 87.164, 70.411 87.502, 75.190 87.856 L 83.880 88.500 79.746 93.500 C 77.471 96.250, 66.018 106.823, 54.293 116.995 C 41.078 128.460, 33.169 135.999, 33.487 136.827 C 33.769 137.562, 34 138.559, 34 139.042 C 34 139.524, 43.112 146.409, 54.250 154.340 C 65.388 162.271, 80.125 172.898, 87 177.957 L 99.500 187.154 106 186.584 C 109.575 186.271, 122.679 186.011, 135.120 186.007 L 157.741 186 166.813 165.250 C 171.802 153.838, 176.178 143.728, 176.536 142.785 C 176.984 141.606, 170.672 144.160, 156.304 150.973 L 135.421 160.875 114.960 156.565 C 103.707 154.194, 92.544 151.925, 90.154 151.523 C 87.764 151.121, 86.189 150.455, 86.654 150.044 C 87.468 149.325, 117.812 135.246, 125 132.253 C 130.814 129.833, 163.904 108.593, 163.954 107.250 C 163.979 106.563, 163.479 106, 162.841 106 C 162.204 106, 149.374 109.186, 134.330 113.080 L 106.978 120.160 100.366 115.441 L 93.753 110.723 96.627 109.483 C 98.207 108.801, 110.075 103.608, 123 97.944 L 146.500 87.645 167.424 83.549 C 179.827 81.122, 188.515 78.954, 188.758 78.227 C 189.321 76.537, 187.073 76.640, 161 79.500 C 148.625 80.858, 137.605 81.975, 136.510 81.984 C 135.126 81.995, 140.077 76.437, 152.762 63.738 L 171.004 45.476 164.057 34.093 C 160.236 27.832, 156.665 22.265, 156.121 21.721 C 155.469 21.069, 148.443 25.043, 135.502 33.385 L 115.872 46.038 111.998 43.269 C 108.596 40.838, 107.548 38.998, 103.419 28.214 C 100.757 21.260, 98.235 16.092, 97.608 16.306 C 96.936 16.536, 96.500 19.500, 96.500 23.843 C 96.500 27.780, 96.468 31.001, 96.430 31.001 C 96.391 31, 91.441 27.177, 85.430 22.505 C 79.418 17.833, 74.255 14.008, 73.956 14.005 C 73.657 14.002, 71.928 21.988, 70.114 31.750 M 99.082 29.095 C 99.025 31.575, 99.662 33.281, 101.133 34.595 C 103.256 36.492, 103.262 36.489, 102.509 34 C 102.093 32.625, 101.170 30.150, 100.458 28.500 L 99.163 25.500 99.082 29.095 M 99.340 39.137 C 99.688 40.436, 99.979 47.899, 99.986 55.720 L 100 69.940 110.750 66.082 C 116.662 63.961, 123.047 61.590, 124.937 60.815 L 128.374 59.405 122.031 54.524 C 115.740 49.683, 115.664 49.656, 112.839 51.278 L 109.990 52.913 108.495 49.334 C 107.673 47.366, 107 45.421, 107 45.013 C 107 43.705, 102.916 39.026, 100.776 37.880 C 98.904 36.878, 98.768 36.998, 99.340 39.137 M 110.015 45.628 C 110.046 47.348, 111.744 49.223, 112.364 48.220 C 112.702 47.674, 112.308 46.671, 111.489 45.991 C 110.670 45.311, 110.007 45.148, 110.015 45.628 M 150.813 83.683 C 151.534 83.972, 152.397 83.936, 152.729 83.604 C 153.061 83.272, 152.471 83.036, 151.417 83.079 C 150.252 83.127, 150.015 83.364, 150.813 83.683" stroke="none" fill="black" fill-rule="evenodd"/>
</svg>