<svg xmlns="http://www.w3.org/2000/svg" width="200" height="200" viewBox="0 0 200 200" version="1.1">
	<path d="M 85.500 16.563 C 72.850 18.910, 62.350 20.419, 62.167 19.915 C 61.662 18.529, 59 18.820, 59 20.261 C 59 21.094, 54.350 22.369, 45.329 24.011 L 31.659 26.500 23.821 50 C 19.511 62.925, 16.266 74.175, 16.612 75 C 17.489 77.096, 18.687 74.151, 26.577 50.500 C 30.247 39.500, 33.629 30.087, 34.092 29.583 C 34.556 29.078, 40.297 27.703, 46.851 26.527 L 58.767 24.388 59.375 29.444 C 59.709 32.225, 59.987 38.190, 59.991 42.700 C 59.998 48.714, 60.377 51.114, 61.413 51.700 C 63.128 52.671, 63.832 61.256, 62.353 63.162 C 61.503 64.256, 56 77.362, 56 78.290 C 56 78.439, 58.200 79.414, 60.890 80.457 C 65.568 82.273, 65.802 82.547, 66.280 86.793 C 66.685 90.383, 66.132 92.654, 63.390 98.671 C 61.526 102.763, 60 106.536, 60 107.055 C 60 109.305, 62.018 107.652, 64.645 103.250 L 67.481 98.500 68.872 111 C 69.638 117.875, 70.335 123.593, 70.422 123.707 C 70.509 123.821, 76.300 124.677, 83.290 125.609 C 95.775 127.274, 96 127.349, 96 129.834 C 96 132.125, 90.248 176.448, 89.714 178.265 C 89.530 178.895, 81.446 171.881, 60.328 152.764 L 58.155 150.797 54.408 156.441 C 52.032 160.019, 50.157 161.890, 49.282 161.555 C 48.524 161.264, 43.137 159.783, 37.311 158.263 L 26.717 155.500 27.427 117.250 C 28.064 82.879, 27.977 79, 26.568 79 C 25.206 79, 25 81.213, 25 95.838 C 25 105.100, 24.712 122.762, 24.361 135.088 L 23.721 157.500 36.611 160.921 C 43.700 162.802, 50.027 164.525, 50.672 164.748 C 51.316 164.971, 53.394 162.850, 55.290 160.035 L 58.738 154.916 74.932 169.561 C 83.839 177.616, 91.305 184.028, 91.523 183.810 C 91.741 183.592, 93.566 171.058, 95.579 155.957 C 97.592 140.856, 99.368 128.354, 99.527 128.175 C 99.687 127.996, 101.812 128.149, 104.251 128.515 L 108.684 129.180 123.495 160.090 C 131.641 177.090, 138.682 191, 139.143 191 C 139.754 191, 190.991 154.851, 193.917 152.355 C 194.950 151.474, 192.070 151.139, 169.500 149.515 C 156.300 148.565, 144.268 147.499, 142.762 147.144 C 140.183 146.537, 141.158 145.540, 159.531 130 L 179.039 113.500 157.269 112.977 L 135.500 112.455 119.500 106.306 C 105.146 100.789, 103.468 99.899, 103.191 97.653 C 102.920 95.464, 101.195 94.435, 89.441 89.457 C 82.048 86.326, 76 83.370, 76 82.890 C 76 82.409, 79.661 75.228, 84.135 66.932 L 92.270 51.848 98.645 48.705 C 105.591 45.279, 106.402 43.312, 100.656 43.828 C 98.645 44.009, 97 43.880, 97 43.543 C 97 43.206, 99.588 38.108, 102.750 32.215 L 108.500 21.500 109.235 58.902 C 109.640 79.473, 110.090 96.417, 110.235 96.555 C 110.626 96.927, 188.140 88.193, 188.608 87.725 C 188.828 87.505, 185.518 85.709, 181.254 83.733 C 157.411 72.685, 147.984 67.719, 148.802 66.637 C 150.413 64.506, 166.326 44.506, 167.716 42.865 C 168.962 41.395, 167.966 40.752, 157.801 36.465 C 151.585 33.844, 137.950 27.334, 127.500 21.998 L 108.500 12.296 85.500 16.563 M 85.330 19.491 C 73.137 21.696, 62.960 23.725, 62.714 24 C 62.113 24.674, 64.558 46.892, 65.318 47.651 C 65.648 47.981, 72.014 47.457, 79.466 46.486 L 93.014 44.722 100.517 30.641 C 104.644 22.897, 107.903 16.318, 107.760 16.021 C 107.617 15.724, 97.524 17.285, 85.330 19.491 M 112 54.869 C 112 75.776, 112.338 93.068, 112.750 93.295 C 113.863 93.907, 178 86.665, 178 85.926 C 178 85.579, 170.537 81.749, 161.415 77.415 C 152.294 73.081, 144.627 69.206, 144.379 68.805 C 144.131 68.403, 148.506 62.404, 154.100 55.473 C 159.694 48.542, 163.873 42.523, 163.386 42.096 C 162.899 41.670, 158.450 39.625, 153.500 37.553 C 148.550 35.480, 137.188 29.975, 128.250 25.320 L 112 16.855 112 54.869 M 75.522 49.688 C 70.034 50.477, 65.445 51.222, 65.324 51.343 C 65.202 51.464, 65.418 53.639, 65.802 56.176 L 66.500 60.789 78.750 54.966 C 85.487 51.763, 91 48.885, 91 48.571 C 91 47.755, 86.918 48.049, 75.522 49.688 M 76.669 58.845 L 66.838 63.500 67.520 72 C 67.896 76.675, 68.270 80.557, 68.351 80.626 C 68.433 80.695, 69.467 81.048, 70.650 81.411 C 72.539 81.991, 73.373 81.006, 77.529 73.286 C 80.131 68.453, 83.584 62.138, 85.203 59.250 C 86.822 56.362, 87.776 54.043, 87.323 54.095 C 86.871 54.147, 82.076 56.284, 76.669 58.845 M 61.643 71.137 C 59.857 76.170, 59.855 76.421, 61.584 77.685 C 62.573 78.408, 63.746 79, 64.191 79 C 65.131 79, 65.103 71.569, 64.150 68.202 C 63.591 66.225, 63.241 66.635, 61.643 71.137 M 69 85.500 C 69 86.325, 69.450 87, 70 87 C 70.550 87, 71 86.325, 71 85.500 C 71 84.675, 70.550 84, 70 84 C 69.450 84, 69 84.675, 69 85.500 M 73.453 87.075 C 72.559 88.523, 72.180 88.320, 84.500 93.017 C 90.550 95.324, 96.497 97.597, 97.715 98.067 C 98.933 98.538, 100.164 98.544, 100.451 98.080 C 100.737 97.616, 96.591 95.412, 91.236 93.184 C 85.881 90.955, 79.837 88.431, 77.803 87.574 C 75.300 86.520, 73.896 86.359, 73.453 87.075 M 70.501 91.999 C 69.742 93.226, 71.844 116.217, 73.015 119.500 C 73.621 121.197, 75.455 121.746, 85.114 123.122 C 91.376 124.014, 96.615 124.649, 96.755 124.533 C 97.474 123.940, 99.784 102.401, 99.192 101.816 C 98.812 101.440, 93.100 99.117, 86.500 96.654 C 79.900 94.191, 73.758 91.880, 72.851 91.519 C 71.944 91.159, 70.887 91.374, 70.501 91.999 M 102.565 104.146 C 101.733 106.644, 99.806 124.139, 100.308 124.641 C 100.581 124.914, 102.966 125.447, 105.609 125.825 L 110.413 126.512 124.909 156.756 C 132.882 173.390, 139.760 187, 140.194 187 C 141.280 187, 186 154.769, 186 153.986 C 186 153.641, 174.300 152.522, 160 151.500 C 145.700 150.478, 134 149.301, 134 148.884 C 134 148.466, 142.391 141.009, 152.647 132.312 L 171.294 116.500 153.397 115.954 L 135.500 115.408 121 109.785 C 113.025 106.692, 105.716 103.854, 104.758 103.477 C 103.682 103.054, 102.844 103.310, 102.565 104.146" stroke="none" fill="black" fill-rule="evenodd"/>
</svg>