<svg xmlns="http://www.w3.org/2000/svg" width="200" height="200" viewBox="0 0 200 200" version="1.1">
	<path d="M 125.247 28.571 C 120.709 29.342, 112.159 30.643, 106.247 31.462 C 100.336 32.280, 88.300 34.077, 79.500 35.454 C 70.700 36.831, 61.925 38.197, 60 38.491 C 57.650 38.849, 59.457 37.732, 65.500 35.092 C 74.548 31.138, 77.324 28.224, 71.500 28.793 C 68.244 29.111, 34.020 34.728, 30.095 35.589 L 27.690 36.116 28.268 74.148 C 28.586 95.065, 29.027 112.360, 29.248 112.581 C 29.928 113.261, 81.440 106.763, 82.433 105.871 C 82.947 105.410, 83.077 104.743, 82.722 104.389 C 82.189 103.856, 48.120 107.558, 34.750 109.602 L 31 110.176 31 74.088 C 31 54.240, 31.337 37.994, 31.750 37.987 C 32.163 37.981, 39.016 36.884, 46.980 35.551 C 54.944 34.217, 61.576 33.243, 61.719 33.385 C 61.861 33.528, 58.374 35.133, 53.968 36.952 C 46.115 40.194, 44.177 41.510, 45.422 42.755 C 45.764 43.097, 57.328 41.687, 71.121 39.621 C 84.913 37.555, 96.343 36.010, 96.521 36.187 C 96.987 36.654, 95.525 52.811, 94.968 53.352 C 94.711 53.601, 83.813 54.605, 70.750 55.583 C 57.688 56.561, 47 57.675, 47 58.060 C 47 59.051, 55.877 83.958, 56.849 85.695 C 57.443 86.757, 58.284 85.930, 60.076 82.523 C 61.780 79.285, 62.997 78.043, 64.174 78.344 C 65.095 78.580, 71.767 81.187, 79 84.137 L 92.153 89.500 91.540 98.500 C 91.204 103.450, 90.668 109.412, 90.351 111.750 C 89.893 115.114, 90.085 116, 91.269 116 C 92.413 116, 92.916 114.177, 93.408 108.250 C 93.761 103.987, 94.303 98.385, 94.612 95.799 L 95.174 91.098 100.337 93.096 C 103.177 94.194, 106.625 95.902, 108 96.890 C 109.375 97.878, 112.075 99, 114 99.384 C 115.925 99.768, 119.516 101.076, 121.979 102.291 L 126.458 104.500 128.179 114 C 129.125 119.225, 129.922 124.135, 129.950 124.911 C 129.993 126.115, 123.244 126.232, 84.032 125.705 C 41.220 125.131, 35.046 125.379, 37.254 127.587 C 37.504 127.837, 47.111 129.747, 58.604 131.832 C 78.608 135.460, 79.393 135.688, 77 137.183 C 75.625 138.042, 68.474 142.015, 61.108 146.013 L 47.716 153.281 59.608 164.537 C 70.618 174.959, 71.315 175.834, 69 176.343 C 66.719 176.845, 32.173 180.031, 29.250 180.009 C 28.563 180.004, 28 180.605, 28 181.345 C 28 183.889, 110.394 184.962, 157 183.025 C 169.925 182.488, 182.863 182.038, 185.750 182.025 C 189.583 182.007, 191 181.620, 191 180.594 C 191 178.887, 190.789 178.859, 149.500 174.973 C 131.900 173.317, 116.600 171.858, 115.500 171.731 C 114.400 171.604, 126.440 166.365, 142.254 160.088 C 158.069 153.811, 170.890 148.557, 170.745 148.411 C 170.599 148.266, 159.010 146.055, 144.990 143.498 C 130.971 140.940, 118.825 138.600, 118 138.296 C 117.175 137.993, 127.525 135.807, 141 133.440 C 182.302 126.185, 184.209 125.806, 183.341 125.029 C 182.879 124.615, 171.824 119.853, 158.775 114.447 C 145.726 109.040, 135.201 104.466, 135.385 104.282 C 135.569 104.098, 141.231 105.111, 147.967 106.533 C 154.703 107.956, 160.426 108.908, 160.684 108.649 C 160.942 108.391, 166.281 93.069, 172.547 74.601 C 183.644 41.893, 183.882 41.010, 181.720 40.520 C 179.072 39.919, 141.295 34, 140.111 34 C 139.659 34, 138.872 32.538, 138.361 30.750 C 137.246 26.843, 136.319 26.689, 125.247 28.571 M 129 30.914 L 125.500 31.564 130.413 32.285 C 135.599 33.047, 136.616 32.805, 135.541 31.067 C 134.835 29.924, 134.385 29.913, 129 30.914 M 106.433 34.190 L 100.365 35.126 102.026 43.813 L 103.688 52.500 110.013 52.248 C 113.492 52.109, 116.506 51.827, 116.711 51.622 C 117.310 51.024, 113.810 32.987, 113.123 33.127 C 112.780 33.198, 109.770 33.676, 106.433 34.190 M 117.452 37.642 C 117.843 40.314, 118.618 44.659, 119.175 47.297 L 120.186 52.095 124.365 51.468 L 128.545 50.841 137.863 61.997 C 142.988 68.132, 147.355 72.978, 147.568 72.766 C 147.933 72.401, 147.034 69.241, 139.910 45.838 L 136.968 36.175 129.734 35.033 C 125.755 34.405, 121.204 33.642, 119.620 33.337 L 116.741 32.784 117.452 37.642 M 141.012 39.750 C 142.868 45.377, 153 79.661, 153 80.318 C 153 83.029, 148.743 79.152, 138.926 67.500 C 128.587 55.228, 127.254 54, 124.276 54 C 121.671 54, 121 54.408, 121 55.992 C 121 59.285, 128.102 98.448, 128.828 99.156 C 129.197 99.516, 136.015 101.177, 143.978 102.845 C 154.824 105.118, 158.642 105.581, 159.196 104.690 C 160.484 102.619, 180.075 43.741, 179.625 43.292 C 179.198 42.865, 143.582 37.025, 141.302 37.009 C 140.441 37.002, 140.360 37.775, 141.012 39.750 M 98.632 48.090 C 97.742 52.541, 97.817 53, 99.437 53 C 100.534 53, 100.737 52.112, 100.296 49.250 C 99.548 44.405, 99.391 44.295, 98.632 48.090 M 106.451 55.850 C 104.420 56.494, 104.433 56.665, 107.951 75.207 C 109.903 85.496, 111.950 94.343, 112.500 94.867 C 113.744 96.051, 124.173 99.161, 124.799 98.534 C 125.051 98.282, 123.618 88.721, 121.614 77.288 C 119.609 65.855, 117.976 56.163, 117.985 55.750 C 118.003 54.853, 109.357 54.927, 106.451 55.850 M 97.959 56.750 C 97.936 57.163, 97.308 64.250, 96.563 72.500 C 95.819 80.750, 95.500 87.762, 95.855 88.082 C 97.048 89.158, 107.309 93.024, 107.764 92.569 C 108.012 92.321, 106.724 83.992, 104.901 74.059 C 102.062 58.592, 101.329 56, 99.793 56 C 98.807 56, 97.981 56.337, 97.959 56.750 M 67.170 58.545 C 58.738 59.250, 51.592 60.075, 51.289 60.378 C 50.611 61.055, 57.187 80, 58.100 80 C 58.462 80, 59.317 78.650, 60 77 C 60.683 75.350, 61.354 74, 61.490 74 C 61.626 74, 68.155 76.700, 76 80 C 83.845 83.300, 90.817 86, 91.494 86 C 92.339 86, 92.938 82.940, 93.402 76.250 C 93.774 70.888, 94.343 64.362, 94.668 61.750 L 95.258 57 88.879 57.131 C 85.370 57.203, 75.601 57.840, 67.170 58.545 M 130 107.750 C 130 108.713, 130.675 113.027, 131.500 117.338 C 134.075 130.794, 138.920 129.323, 94.250 128.652 C 72.712 128.329, 57.055 128.442, 59 128.908 C 60.925 129.369, 68.094 130.763, 74.930 132.005 C 84.710 133.782, 87.033 134.502, 85.826 135.385 C 84.982 136.002, 77.253 140.331, 68.650 145.004 C 60.048 149.677, 53.007 153.748, 53.005 154.050 C 53.002 154.353, 58.512 159.727, 65.250 165.992 C 71.987 172.257, 77.632 177.692, 77.793 178.069 C 77.953 178.447, 73.228 179.142, 67.293 179.614 C 56.987 180.434, 57.674 180.502, 82.500 181.134 C 103.079 181.658, 165.719 180.513, 166.720 179.595 C 166.841 179.484, 153.434 178.111, 136.926 176.543 C 112.607 174.233, 106.968 173.423, 107.206 172.276 C 107.378 171.449, 118.670 166.438, 134.371 160.221 C 149.150 154.369, 160.850 149.451, 160.371 149.293 C 159.892 149.135, 147.800 146.830, 133.500 144.170 C 114.522 140.640, 107.425 138.946, 107.221 137.899 C 107.001 136.765, 114.078 135.224, 141.008 130.543 C 159.745 127.286, 174.495 124.300, 173.787 123.907 C 171.822 122.817, 131.247 106, 130.582 106 C 130.262 106, 130 106.787, 130 107.750" stroke="none" fill="black" fill-rule="evenodd"/>
</svg>