<svg xmlns="http://www.w3.org/2000/svg" width="200" height="200" viewBox="0 0 200 200" version="1.1">
	<path d="M 125 20.534 C 105.475 24.006, 89.436 26.881, 89.359 26.923 C 89.281 26.965, 88.497 28.800, 87.617 31 L 86.016 35 76.136 35 L 66.256 35 50.131 27.500 C 41.263 23.375, 33.780 20, 33.503 20 C 33.226 20, 33 20.605, 33 21.345 C 33 22.094, 38.865 25.408, 46.250 28.832 L 59.500 34.974 53.809 34.987 C 48.344 34.999, 45.780 36.128, 48.042 37.526 C 48.633 37.891, 57.190 38.173, 67.058 38.154 C 76.926 38.134, 85 38.290, 85 38.501 C 85 38.713, 83.824 42.059, 82.386 45.938 C 79.794 52.930, 79.729 53.003, 74.741 54.484 C 71.974 55.306, 61.676 58.306, 51.855 61.152 C 40.194 64.530, 34 66.789, 34 67.663 C 34 69.374, 33.156 69.418, 55.934 66.513 C 66.622 65.149, 75.483 64.150, 75.625 64.292 C 76.399 65.066, 69.942 80.616, 65.988 87.499 C 62.175 94.139, 60.893 95.585, 58.447 96.004 C 55.682 96.479, 55.469 96.849, 55 102.005 C 54.631 106.059, 53.321 109.598, 50.006 115.500 C 47.534 119.900, 40.517 135.792, 34.413 150.816 L 23.316 178.132 22.657 160.316 C 22.294 150.517, 21.700 115.612, 21.337 82.750 C 20.974 49.888, 20.299 23, 19.838 23 C 18.900 23, 18.934 124.346, 19.886 161.500 C 20.395 181.409, 20.745 185.500, 21.936 185.500 C 22.852 185.500, 25.478 180.242, 29.178 171 C 43.044 136.369, 48.266 124.130, 51.579 118.500 L 55.109 112.500 54.685 137.750 C 54.303 160.533, 54.420 162.999, 55.881 162.989 C 56.771 162.982, 68.716 162.104, 82.425 161.037 C 96.133 159.971, 107.674 159.298, 108.070 159.544 C 108.467 159.789, 117.916 166.530, 129.067 174.524 C 140.218 182.517, 149.640 188.707, 150.004 188.279 C 150.368 187.850, 156.532 174.450, 163.702 158.500 L 176.738 129.500 174.930 88 C 173.935 65.175, 172.982 44.052, 172.811 41.060 L 172.500 35.621 150.606 64.846 L 128.713 94.072 124.866 88.786 C 122.750 85.879, 119.804 81.070, 118.319 78.100 L 115.618 72.699 117.705 69.100 C 119.702 65.657, 120.548 65.255, 137.146 59.871 C 149.563 55.843, 154.594 53.769, 154.831 52.581 C 155.084 51.311, 154.615 51.040, 152.831 51.428 C 151.549 51.706, 142.625 52.864, 133 54 C 123.375 55.136, 114.522 56.276, 113.327 56.532 C 111.554 56.913, 110.937 56.339, 109.969 53.408 C 109.315 51.426, 109.169 49.463, 109.642 49.028 C 110.114 48.595, 120.247 46.325, 132.160 43.985 C 144.073 41.644, 154.368 39.391, 155.038 38.977 C 155.708 38.562, 155.947 37.723, 155.569 37.112 C 155.094 36.344, 147.073 36, 129.609 36 L 104.336 36 103.200 32.301 C 102.576 30.266, 102.218 28.449, 102.405 28.262 C 102.591 28.075, 116.148 25.469, 132.531 22.469 C 148.913 19.470, 162.516 16.818, 162.759 16.575 C 163.348 15.985, 162.067 13.970, 161.191 14.111 C 160.811 14.172, 144.525 17.063, 125 20.534 M 93.327 28.696 C 91.581 29.036, 89 33.184, 89 35.649 C 89 35.842, 91.700 36, 95 36 C 101.453 36, 101.557 35.897, 99.902 31.149 C 98.815 28.029, 98.106 27.765, 93.327 28.696 M 85.734 44.709 C 84.347 48.444, 83.320 51.619, 83.454 51.764 C 83.587 51.910, 86.577 51.143, 90.098 50.059 C 93.619 48.976, 98.351 47.797, 100.613 47.439 L 104.726 46.788 103.506 42.644 L 102.286 38.500 95.272 38.209 L 88.258 37.918 85.734 44.709 M 106.261 42.500 C 106.852 44.425, 107.598 45.979, 107.918 45.952 C 108.238 45.926, 115.700 44.396, 124.500 42.553 L 140.500 39.201 122.844 39.100 L 105.187 39 106.261 42.500 M 149.894 70.417 L 130.288 96.599 141.599 113.049 C 147.821 122.097, 152.931 129.789, 152.955 130.143 C 153.001 130.800, 131.716 126.561, 130.169 125.605 C 129.700 125.315, 127.831 121.235, 126.015 116.539 C 124.199 111.842, 122.441 108.018, 122.107 108.040 C 121.773 108.062, 114.126 117.976, 105.114 130.070 C 96.101 142.165, 88.610 151.934, 88.467 151.780 C 88.323 151.626, 88.840 144.547, 89.614 136.049 L 91.022 120.598 86.975 116.475 L 82.929 112.352 90.426 101.970 C 94.549 96.261, 97.827 91.502, 97.711 91.395 C 97.503 91.204, 69.520 96.454, 65.348 97.466 C 64.165 97.754, 62.085 99.904, 60.726 102.244 C 58.326 106.379, 58.235 107.259, 57.536 133.250 L 56.817 160 59.158 159.973 C 60.446 159.958, 72.027 159.105, 84.893 158.078 L 108.286 156.211 128.343 170.648 C 148.010 184.805, 148.423 185.041, 149.585 182.793 C 150.237 181.532, 155.974 169.025, 162.333 155 L 173.895 129.500 172.106 87.242 C 171.123 64.001, 170.134 44.816, 169.909 44.610 C 169.684 44.403, 160.677 56.017, 149.894 70.417 M 101.500 50.174 C 99.300 50.612, 94.037 51.933, 89.805 53.109 C 83.249 54.930, 81.971 55.643, 81.176 57.926 L 80.241 60.606 93.684 58.906 C 101.078 57.971, 107.325 57.008, 107.567 56.766 C 107.810 56.524, 107.444 54.762, 106.754 52.851 C 105.527 49.453, 105.413 49.395, 101.500 50.174 M 66.265 59.751 C 59.535 61.738, 54.153 63.486, 54.304 63.637 C 54.721 64.054, 75.916 61.170, 76.899 60.563 C 77.574 60.145, 79.277 55.794, 78.656 56.069 C 78.570 56.108, 72.994 57.764, 66.265 59.751 M 124 57.774 C 117.675 58.614, 112.356 59.415, 112.181 59.553 C 112.005 59.692, 112.430 61.705, 113.126 64.026 L 114.391 68.248 116.521 65.577 C 118.073 63.630, 121.477 61.978, 129.075 59.486 C 140.665 55.685, 140.400 55.595, 124 57.774 M 92.290 61.878 C 85.575 62.770, 79.668 63.950, 79.164 64.500 C 78.660 65.050, 77.231 68.650, 75.987 72.500 C 74.744 76.350, 71.924 82.650, 69.720 86.500 C 67.516 90.350, 65.573 93.761, 65.403 94.080 C 65.232 94.399, 72.609 93.170, 81.796 91.349 C 90.983 89.528, 98.957 88.030, 99.515 88.019 C 100.073 88.009, 103.163 84.359, 106.381 79.909 C 112.569 71.354, 112.882 69.914, 110.113 62.750 C 108.883 59.569, 109.459 59.597, 92.290 61.878 M 109.192 80.591 C 106.924 83.787, 105.178 86.512, 105.312 86.645 C 105.445 86.778, 107.530 86.444, 109.945 85.901 C 112.359 85.359, 114.859 85.116, 115.498 85.361 C 116.138 85.607, 117.967 89.226, 119.562 93.404 C 121.157 97.582, 122.756 101, 123.116 101 C 123.476 101, 124.473 99.928, 125.331 98.617 C 126.829 96.332, 126.685 95.940, 121.818 89.032 C 119.027 85.070, 115.971 80.243, 115.029 78.304 L 113.314 74.780 109.192 80.591 M 106.758 89.346 C 102.323 90.425, 101.576 91.115, 95.208 100 C 91.464 105.225, 88.033 110.103, 87.585 110.840 C 87.041 111.736, 87.973 113.412, 90.397 115.895 L 94.024 119.609 93.029 129.055 C 92.482 134.250, 92.027 139.602, 92.017 140.948 C 92.005 142.752, 95.818 138.281, 106.504 123.960 C 114.481 113.270, 120.894 104.259, 120.754 103.934 C 120.614 103.610, 119.159 99.892, 117.519 95.672 C 114.295 87.375, 114.459 87.472, 106.758 89.346 M 126.258 101.865 L 124.129 104.744 127.987 114.095 L 131.845 123.447 139.422 125.105 C 143.590 126.017, 147 126.543, 147 126.275 C 147 125.794, 130.386 101.218, 129.065 99.743 C 128.692 99.327, 127.428 100.282, 126.258 101.865" stroke="none" fill="black" fill-rule="evenodd"/>
</svg>