<svg xmlns="http://www.w3.org/2000/svg" width="200" height="200" viewBox="0 0 200 200" version="1.1">
	<path d="M 104.500 13.962 C 98.846 18.511, 98.010 18.849, 90 19.837 C 73.216 21.907, 27.454 28.061, 25.250 28.545 L 23 29.038 22.998 53.769 C 22.997 67.371, 22.306 93.521, 21.462 111.881 C 20.619 130.240, 20.116 145.449, 20.345 145.679 C 20.575 145.908, 25.886 147.455, 32.148 149.117 L 43.533 152.139 58.017 170.991 C 65.983 181.360, 72.767 189.541, 73.094 189.172 C 73.627 188.568, 88.157 137.735, 88.400 135.625 C 88.455 135.144, 88.005 134.566, 87.400 134.342 C 86.726 134.091, 83.683 143.132, 79.534 157.717 C 75.812 170.798, 72.473 182.047, 72.113 182.715 C 71.718 183.450, 66.185 177.086, 58.121 166.620 L 44.782 149.309 34.919 146.981 C 29.494 145.700, 24.552 144.341, 23.936 143.960 C 23.113 143.452, 23.239 133.892, 24.414 107.884 C 25.293 88.423, 26.009 63.163, 26.006 51.750 C 26.003 40.337, 26.337 30.997, 26.750 30.993 C 27.163 30.990, 40.775 29.193, 57 27 C 73.225 24.807, 87.303 23.010, 88.285 23.007 C 91.548 22.995, 88.448 26.531, 78.245 34.460 L 68.500 42.033 62.823 35.766 C 59.125 31.685, 56.814 29.849, 56.196 30.500 C 53.959 32.857, 41.029 63.429, 41.901 64.301 C 42.471 64.871, 47.713 61.471, 55.500 55.480 L 68.172 45.732 73.982 51.482 L 79.792 57.232 77.896 63.863 C 76.853 67.510, 76 70.660, 76 70.864 C 76 71.068, 72.624 70.919, 68.497 70.532 L 60.994 69.829 54.300 74.664 C 50.619 77.324, 47.250 79.749, 46.813 80.053 C 46.377 80.357, 48.733 90.707, 52.049 103.053 C 55.365 115.399, 58.540 127.233, 59.105 129.351 C 59.669 131.469, 60.293 133.040, 60.491 132.843 C 60.688 132.645, 64.495 119.887, 68.950 104.492 C 73.405 89.096, 77.237 75.972, 77.464 75.328 C 77.692 74.683, 78.805 74.398, 79.939 74.694 C 81.949 75.220, 82 75.833, 82 99.617 C 82 119.164, 82.262 124, 83.322 124 C 84.394 124, 84.558 119.364, 84.189 99.448 L 83.735 74.896 89.118 75.598 C 93.898 76.222, 95.340 77.038, 102.012 82.900 C 106.143 86.530, 110.744 90.455, 112.234 91.622 L 114.945 93.744 113.289 111.097 L 111.633 128.451 97.233 157.787 C 89.083 174.392, 83.085 187.780, 83.414 188.637 C 83.825 189.708, 89.330 184.658, 102.283 171.325 C 133.859 138.825, 130.118 144.131, 135.295 124.500 C 137.761 115.150, 140.028 108.175, 140.333 109 C 140.638 109.825, 144.143 126.588, 148.122 146.250 C 152.101 165.912, 155.613 181.994, 155.928 181.987 C 156.555 181.972, 175.007 155.837, 176.301 153.131 C 176.856 151.972, 173.497 142.985, 165.408 123.978 C 158.976 108.865, 153.704 96.050, 153.691 95.500 C 153.679 94.950, 159.237 86.291, 166.043 76.258 C 174.366 63.989, 178.086 57.686, 177.408 57.008 C 176.729 56.329, 170.772 60.268, 159.213 69.040 L 142.027 82.082 142.558 77.791 C 143.932 66.671, 148.814 14.481, 148.508 14.175 C 148.318 13.985, 141.263 14.543, 132.831 15.416 C 112.625 17.509, 113 17.525, 113 14.582 C 113 11.755, 112.062 8.971, 111.143 9.067 C 110.789 9.105, 107.800 11.307, 104.500 13.962 M 106.500 16 C 104.726 17.960, 104.753 18, 107.845 18 C 111.249 18, 111.302 17.950, 110.393 15.582 C 109.590 13.490, 108.684 13.587, 106.500 16 M 127.035 18.679 C 120.180 19.459, 114.453 20.214, 114.309 20.357 C 114.166 20.501, 115.612 29.594, 117.522 40.565 L 120.996 60.511 117.625 95.020 L 114.255 129.528 108.989 140.014 C 106.093 145.781, 100.470 157.304, 96.494 165.619 L 89.264 180.738 106.626 163.012 C 116.175 153.262, 125.003 144.002, 126.244 142.433 C 127.741 140.541, 130.209 133.008, 133.581 120.041 C 137.175 106.220, 139.077 100.500, 140.081 100.500 C 141.144 100.500, 143.437 109.910, 149.218 138 C 153.463 158.625, 156.950 175.703, 156.968 175.951 C 157.008 176.516, 173.002 153.909, 173.644 152.381 C 173.902 151.765, 168.712 138.604, 162.109 123.133 L 150.105 95.003 160.610 79.502 C 166.387 70.976, 170.922 64, 170.688 64 C 170.454 64, 163.394 69.190, 154.998 75.534 C 146.603 81.877, 139.560 86.893, 139.347 86.681 C 138.979 86.313, 144.347 28.636, 145.483 20.750 C 146.016 17.053, 145.977 17.002, 142.762 17.131 C 140.968 17.203, 133.891 17.900, 127.035 18.679 M 104.820 21.087 C 100.592 21.559, 98.145 22.509, 95.248 24.804 C 91.542 27.739, 91.179 28.558, 87.678 41.858 C 85.655 49.543, 84 56.326, 84 56.931 C 84 58.978, 114.374 90.087, 115.073 88.756 C 115.436 88.065, 116.265 81.418, 116.917 73.984 C 118.080 60.722, 118.043 60.112, 114.937 41.484 C 113.196 31.043, 111.485 22.039, 111.136 21.476 C 110.745 20.847, 108.310 20.697, 104.820 21.087 M 79 37.212 C 74.875 40.482, 71.383 43.473, 71.241 43.857 C 71.098 44.242, 73.157 46.700, 75.817 49.320 L 80.653 54.083 83.920 42.968 C 85.717 36.855, 87.032 31.721, 86.843 31.560 C 86.655 31.398, 83.125 33.942, 79 37.212 M 54.206 40.725 C 47.571 55.164, 45.917 59.317, 47.184 58.361 C 47.908 57.815, 52.446 54.329, 57.269 50.615 L 66.038 43.862 64.117 41.181 C 63.060 39.706, 61.098 37.476, 59.757 36.225 L 57.319 33.951 54.206 40.725 M 80.158 65.866 C 78.637 70.942, 78.696 72, 80.500 72 C 81.633 72, 82 70.778, 82 67 C 82 64.250, 81.846 62, 81.658 62 C 81.470 62, 80.795 63.740, 80.158 65.866 M 84 67.269 C 84 71.377, 84.296 72.036, 86.379 72.559 C 87.688 72.887, 89.961 73.009, 91.431 72.828 C 94.079 72.503, 94.056 72.454, 89.052 67.538 L 84 62.575 84 67.269 M 56 76.565 C 53.525 78.552, 50.957 80.483, 50.293 80.855 C 49.404 81.353, 50.564 87.002, 54.693 102.282 C 57.777 113.695, 60.437 122.896, 60.605 122.729 C 61.152 122.181, 74.834 74.508, 74.531 74.202 C 74.369 74.038, 71.146 73.689, 67.368 73.427 C 60.674 72.963, 60.386 73.043, 56 76.565" stroke="none" fill="black" fill-rule="evenodd"/>
</svg>