<svg xmlns="http://www.w3.org/2000/svg" width="200" height="200" viewBox="0 0 200 200" version="1.1">
	<path d="M 136.037 19.191 C 136.058 19.911, 136.911 26.350, 137.934 33.500 C 138.957 40.650, 139.644 46.659, 139.461 46.852 C 139.278 47.046, 134.810 48.223, 129.532 49.468 C 124.254 50.712, 119.738 51.929, 119.495 52.172 C 119.252 52.415, 121.404 54.388, 124.277 56.557 L 129.500 60.500 114.077 60.777 C 105.594 60.929, 98.276 60.676, 97.814 60.214 C 97.352 59.752, 96.684 54.293, 96.329 48.083 L 95.682 36.791 88.154 30.855 C 82.772 26.611, 80.425 25.287, 79.924 26.209 C 79.539 26.919, 77.512 34.808, 75.420 43.740 L 71.617 59.979 49.058 59.351 C 36.651 59.005, 26.399 58.646, 26.276 58.554 C 26.153 58.461, 35.222 51.923, 46.430 44.025 C 58.488 35.528, 66.615 29.161, 66.335 28.432 C 65.787 27.001, 67.833 26.489, 37 35.779 L 14.500 42.559 14.241 93.597 L 13.982 144.635 29.826 156.958 L 45.670 169.281 79.032 178.643 C 97.382 183.792, 112.716 187.666, 113.107 187.252 C 113.499 186.839, 117.272 175.787, 121.491 162.694 C 126.185 148.127, 129.601 139.034, 130.292 139.264 C 131.204 139.568, 139.935 160.227, 154.481 196.500 C 155.697 199.534, 156.285 200.138, 156.913 199 C 157.804 197.387, 183 119.563, 183 118.424 C 183 118.048, 176.143 117.911, 167.763 118.120 L 152.526 118.500 151.338 110.500 C 150.685 106.100, 150.116 101.807, 150.075 100.960 C 150.017 99.762, 152.505 99.006, 161.250 97.566 C 167.438 96.546, 173.340 95.410, 174.366 95.041 C 175.866 94.502, 173.406 92.133, 161.866 83.002 C 153.965 76.750, 147.138 71.333, 146.696 70.963 C 146.085 70.453, 143.225 53.950, 143.032 49.822 C 143.014 49.449, 147.274 48.156, 152.498 46.949 L 161.996 44.754 149.859 31.850 C 136.768 17.931, 135.981 17.211, 136.037 19.191 M 140.049 26.887 C 140.022 27.649, 140.531 32.262, 141.180 37.137 C 142.017 43.426, 142.760 46, 143.737 46 C 145.828 46, 154.399 43.817, 155.244 43.070 C 155.653 42.708, 152.413 38.607, 148.043 33.956 C 143.673 29.305, 140.076 26.124, 140.049 26.887 M 77.898 45.013 L 74.297 60 84.148 60 L 94 60 94 56.651 C 94 54.809, 93.708 49.844, 93.350 45.617 L 92.701 37.932 87.720 33.966 C 84.980 31.785, 82.460 30.006, 82.119 30.013 C 81.779 30.020, 79.879 36.770, 77.898 45.013 M 36 38.869 L 17.500 44.545 17.241 94.043 L 16.982 143.540 24.190 149.102 L 31.399 154.664 48.950 136.736 L 66.500 118.808 74.067 133.154 L 81.635 147.500 86.067 147.161 C 90.447 146.826, 107.223 142.783, 120.173 138.941 C 126.542 137.051, 126.914 136.768, 128.335 132.731 L 129.824 128.500 131.131 131.750 C 132.662 135.556, 132.581 135.544, 141.203 133.153 C 147.839 131.313, 147.870 131.314, 150.006 133.403 L 152.149 135.500 151.491 130.500 C 150.266 121.204, 152.123 122, 131.654 122 L 113.442 122 107 115.500 C 103.457 111.925, 99.757 109, 98.779 109 C 97.800 109, 97 108.362, 97 107.583 C 97 106.498, 68.687 78.500, 67.589 78.500 C 67.458 78.500, 61.132 84.430, 53.533 91.679 L 39.717 104.858 42.858 117.403 C 46.169 130.622, 46.613 134, 45.039 134 C 43.978 134, 43.310 131.758, 39.483 115.358 L 36.883 104.216 51.539 89.858 C 59.600 81.961, 66.558 75.275, 67.001 75 C 67.445 74.725, 68.470 71.962, 69.280 68.861 L 70.752 63.221 67.126 62.622 C 65.132 62.292, 55.625 62.013, 46 62.002 C 36.375 61.991, 26.166 61.702, 23.312 61.359 L 18.125 60.736 35.312 48.581 C 44.766 41.896, 53.613 35.656, 54.973 34.713 C 58.713 32.121, 56.186 32.675, 36 38.869 M 131.126 51.866 L 124.752 53.539 129.540 57.270 C 132.174 59.321, 135.343 61, 136.582 61 C 137.822 61, 139.580 61.285, 140.489 61.634 C 141.909 62.179, 142.053 61.724, 141.513 58.384 C 139.954 48.744, 140.859 49.312, 131.126 51.866 M 72.221 68.681 C 71.566 71.806, 71.236 74.569, 71.488 74.822 C 71.741 75.074, 77.134 76.268, 83.474 77.474 L 95 79.668 95 74.459 C 95 71.594, 94.719 67.844, 94.375 66.125 L 93.750 63 83.581 63 L 73.413 63 72.221 68.681 M 97.099 66.102 C 97.153 67.971, 97.491 71.937, 97.849 74.915 L 98.500 80.329 118.427 84.114 C 129.387 86.196, 138.725 87.670, 139.177 87.390 C 139.630 87.111, 140 82.899, 140 78.030 C 140 69.373, 139.932 69.121, 136.923 66.589 C 134.056 64.176, 133.155 64, 123.673 63.994 C 118.078 63.991, 109.787 63.699, 105.250 63.346 L 97 62.704 97.099 66.102 M 142.562 81.750 C 142.029 88.115, 141.395 91, 140.527 91 C 139.403 91, 105.956 84.741, 100.217 83.456 L 97.933 82.945 98.615 93.723 C 98.990 99.650, 99.680 104.751, 100.148 105.058 C 101.038 105.643, 145.534 97.871, 146.286 97 C 146.523 96.725, 145.957 91.100, 145.027 84.500 L 143.337 72.500 142.562 81.750 M 146.999 76.628 C 146.996 80.098, 149.275 95.494, 149.890 96.162 C 150.414 96.731, 160.281 95.250, 167.843 93.467 C 170.162 92.921, 168.045 91.003, 148.250 75.720 C 147.351 75.026, 147 75.282, 146.999 76.628 M 83.500 89.364 L 95.500 100.881 95.827 96.691 C 96.007 94.386, 95.870 90.202, 95.523 87.393 L 94.892 82.287 84.696 80.505 C 79.088 79.525, 73.825 78.527, 73 78.286 C 72.175 78.045, 76.900 83.030, 83.500 89.364 M 125.212 103.975 C 114.053 106.047, 104.728 107.939, 104.488 108.179 C 104.248 108.418, 106.628 111.118, 109.776 114.179 L 115.500 119.743 132.777 119.243 C 148.080 118.800, 150.002 118.558, 149.608 117.121 C 149.364 116.230, 148.875 112.800, 148.523 109.500 C 147.778 102.531, 147.137 99.959, 146.183 100.104 C 145.807 100.161, 136.370 101.903, 125.212 103.975 M 153.338 124.250 C 153.647 126.037, 154.171 129.750, 154.504 132.500 C 154.837 135.250, 155.330 138.559, 155.600 139.854 C 156.053 142.029, 155.742 141.922, 151.508 138.453 L 146.926 134.698 141.713 135.874 C 138.846 136.520, 135.935 137.404, 135.245 137.837 C 134.309 138.424, 136.723 145.401, 144.745 165.293 C 150.660 179.961, 155.746 191.970, 156.047 191.981 C 156.541 191.998, 179 123.176, 179 121.645 C 179 121.290, 173.100 121, 165.889 121 L 152.777 121 153.338 124.250 M 49.250 139.946 C 40.862 148.567, 34 155.890, 34 156.219 C 34 156.548, 36.836 159.046, 40.302 161.770 C 46.553 166.682, 46.856 166.793, 77.995 175.467 C 95.261 180.276, 109.863 184.382, 110.444 184.590 C 111.413 184.938, 112.909 180.702, 122.544 150.325 C 124.370 144.569, 125.279 140.317, 124.636 140.534 C 112.892 144.495, 81.442 151.776, 80.433 150.766 C 80.148 150.482, 76.876 144.486, 73.160 137.442 C 69.445 130.398, 65.977 124.553, 65.453 124.454 C 64.929 124.354, 57.638 131.326, 49.250 139.946" stroke="none" fill="black" fill-rule="evenodd"/>
</svg>