<svg xmlns="http://www.w3.org/2000/svg" width="200" height="200" viewBox="0 0 200 200" version="1.1">
	<path d="M 108.500 20.080 C 88.700 25.016, 70.925 29.410, 69 29.844 C 66.286 30.456, 60.558 29.448, 43.500 25.356 C 31.400 22.453, 20.875 20.061, 20.112 20.039 C 18.980 20.007, 18.866 21.430, 19.492 27.750 C 19.914 32.013, 20.362 70.048, 20.487 112.274 C 20.612 154.500, 20.951 189.284, 21.240 189.573 C 21.529 189.862, 31.606 185.986, 43.633 180.959 L 65.500 171.820 94.500 172.446 C 120.111 172.999, 126.624 172.797, 150.238 170.715 C 164.944 169.418, 177.289 168.044, 177.671 167.662 C 178.054 167.280, 177.947 166.558, 177.433 166.059 C 176.468 165.119, 139.949 157.716, 118 154.010 C 111.125 152.849, 104.683 151.576, 103.685 151.181 C 102.181 150.586, 103.996 148.378, 114.258 138.317 L 126.646 126.171 141.169 121.555 L 155.692 116.939 156.398 88.854 C 156.786 73.408, 156.881 60.548, 156.609 60.276 C 156.337 60.004, 153.501 60.236, 150.307 60.791 C 147.113 61.346, 144.416 61.724, 144.314 61.631 C 144.212 61.538, 152.240 54.833, 162.156 46.731 L 180.183 32 175.342 32.049 C 165.090 32.153, 118.009 35.656, 117.274 36.370 C 116.848 36.783, 114.700 42.061, 112.500 48.098 C 110.300 54.135, 108.150 59.171, 107.722 59.287 C 106.629 59.586, 53.046 37.637, 53.021 36.880 C 52.978 35.609, 65.427 33.871, 70.036 34.505 C 74.149 35.071, 119.356 31.930, 128.768 30.425 C 131.393 30.005, 133.511 28.131, 139.518 20.913 C 143.633 15.969, 147 11.716, 147 11.462 C 147 10.556, 144.064 11.213, 108.500 20.080 M 106.500 23.613 L 73.500 31.915 84 31.355 C 89.775 31.047, 102.552 30.054, 112.393 29.148 L 130.287 27.500 135.305 21.745 C 138.065 18.579, 140.137 15.837, 139.911 15.650 C 139.685 15.464, 124.650 19.047, 106.500 23.613 M 22.519 34.642 C 22.944 41.164, 23.338 77.625, 23.395 115.667 C 23.453 153.708, 23.766 185.100, 24.091 185.425 C 24.417 185.750, 33.867 182.152, 45.091 177.429 L 65.500 168.842 91.592 169.671 C 113.678 170.373, 121.420 170.204, 142.020 168.569 C 156.743 167.401, 165.594 166.325, 164.428 165.846 C 162.112 164.894, 137.419 160.130, 116 156.503 C 107.475 155.059, 99.706 153.568, 98.735 153.189 C 97.307 152.632, 99.790 149.702, 111.735 137.849 L 126.500 123.198 139.592 119.118 L 152.684 115.039 153.339 97.769 C 153.699 88.271, 153.995 76.514, 153.997 71.642 C 154 62.962, 153.955 62.794, 151.750 63.320 C 150.512 63.615, 147.250 64.174, 144.500 64.562 C 140.649 65.106, 138.180 66.328, 133.754 69.884 C 127.133 75.203, 127.371 73.961, 129.037 94.484 C 129.608 101.510, 129.842 107.491, 129.558 107.775 C 128.228 109.105, 82.145 121.985, 79.530 121.758 C 76.630 121.506, 76.325 121.952, 66.530 140.770 C 59.095 155.054, 56.311 159.582, 55.770 158.270 C 52.893 151.296, 46.947 122.455, 45.535 108.626 C 44.644 99.895, 44.083 92.583, 44.289 92.377 C 44.496 92.171, 51.602 97.390, 60.082 103.976 C 68.562 110.561, 75.765 115.960, 76.089 115.974 C 76.414 115.988, 77.150 114.966, 77.726 113.702 C 78.302 112.438, 89.174 102.900, 101.887 92.506 C 116.725 80.374, 125 72.954, 125 71.780 C 125 68.875, 121.019 68.012, 113.068 69.193 C 109.137 69.776, 105.711 70.044, 105.456 69.789 C 105.200 69.533, 105.495 67.878, 106.111 66.111 C 106.727 64.344, 107.067 62.758, 106.866 62.587 C 105.983 61.836, 54.676 40.991, 54.397 41.269 C 54.227 41.440, 60.599 48.906, 68.559 57.861 C 80.765 71.592, 83.912 76, 81.508 76 C 81.302 76, 73.612 67.563, 64.418 57.250 C 47.238 37.978, 46.530 37.432, 41.329 39.427 C 40.431 39.772, 43.156 45.129, 50.066 56.610 C 56.487 67.278, 59.761 73.639, 59.147 74.253 C 58.027 75.373, 58.398 75.915, 45.599 54.529 C 38.994 43.494, 36.420 38.355, 37.270 37.904 C 37.946 37.545, 42.889 36.205, 48.253 34.928 C 53.616 33.650, 57.666 32.295, 57.253 31.915 C 56.839 31.536, 49.525 29.586, 41 27.582 C 32.475 25.579, 24.656 23.680, 23.623 23.362 C 21.832 22.811, 21.782 23.322, 22.519 34.642 M 144 36.591 C 133.275 37.319, 123.204 38.046, 121.620 38.207 C 118.921 38.482, 118.496 39.182, 114.868 49.343 C 112.739 55.307, 111.227 60.559, 111.509 61.014 C 111.790 61.470, 114.013 62.603, 116.448 63.533 C 120.358 65.026, 121.886 65.081, 129.510 63.999 L 138.145 62.773 155.175 48.886 L 172.204 35 167.852 35.134 C 165.459 35.207, 154.725 35.863, 144 36.591 M 109 65.500 C 109 66.325, 109.873 67, 110.941 67 C 113.456 67, 114.448 65.386, 112.412 64.605 C 109.916 63.647, 109 63.887, 109 65.500 M 128.858 66.706 C 126.814 67.020, 126.332 67.552, 126.725 69.056 C 127.374 71.537, 127.608 71.507, 131.182 68.500 C 132.816 67.125, 133.556 66.067, 132.827 66.150 C 132.097 66.232, 130.311 66.482, 128.858 66.706 M 102.280 95.569 C 81.436 112.711, 78.332 115.816, 79.360 118.497 C 79.867 119.816, 85.521 118.368, 118.851 108.377 L 127.202 105.874 126.567 96.687 C 125.680 83.843, 124.922 77.990, 124.156 78.059 C 123.795 78.091, 113.951 85.971, 102.280 95.569 M 47.504 100.750 C 47.753 102.263, 48.445 108.450, 49.041 114.500 C 50.036 124.597, 55.385 149.486, 56.938 151.249 C 57.301 151.661, 61.515 144.500, 66.302 135.336 C 71.089 126.171, 74.892 118.608, 74.753 118.528 C 74.614 118.448, 68.564 113.796, 61.308 108.191 C 54.052 102.586, 47.876 98, 47.583 98 C 47.290 98, 47.254 99.237, 47.504 100.750" stroke="none" fill="black" fill-rule="evenodd"/>
</svg>