<svg xmlns="http://www.w3.org/2000/svg" width="200" height="200" viewBox="0 0 200 200" version="1.1">
	<path d="M 144.110 18.804 C 141.145 26.337, 138.408 32.852, 138.027 33.283 C 137.645 33.714, 122.971 33.544, 105.417 32.906 L 73.500 31.746 48.274 42.123 C 34.399 47.830, 23.037 53.063, 23.024 53.750 C 23.011 54.438, 23.374 55, 23.832 55 C 24.289 55, 32.239 51.850, 41.499 48.001 C 50.758 44.151, 58.435 41.113, 58.557 41.251 C 58.753 41.470, 50.508 130.138, 49.782 135.628 C 49.521 137.594, 25.021 166.354, 24.257 165.590 C 24.069 165.403, 26.202 144.635, 28.996 119.440 C 31.790 94.244, 33.946 73.015, 33.788 72.262 C 32.545 66.355, 30.838 77.135, 25.873 122.224 C 22.768 150.426, 20.355 173.641, 20.511 173.814 C 20.667 173.986, 27.888 166.188, 36.557 156.484 L 52.320 138.840 54.410 116.996 C 55.559 104.981, 56.739 94.916, 57.030 94.629 C 57.322 94.341, 59.495 111.970, 61.860 133.803 C 64.225 155.636, 66.461 174.453, 66.830 175.619 C 67.475 177.659, 68.421 177.393, 92.500 168.405 C 106.250 163.272, 118.037 159.056, 118.693 159.036 C 119.350 159.016, 125.403 165.074, 132.145 172.498 C 138.887 179.922, 144.724 185.660, 145.116 185.248 C 145.508 184.837, 152.176 170.325, 159.934 153 L 174.041 121.500 175.613 91.500 L 177.185 61.500 163.996 34 C 156.742 18.875, 150.513 6.187, 150.153 5.804 C 149.794 5.421, 147.074 11.271, 144.110 18.804 M 148.446 15.537 C 147.549 17.716, 145.515 22.621, 143.927 26.436 C 142.338 30.250, 141.142 33.459, 141.269 33.566 C 141.821 34.032, 161 35.139, 161 34.705 C 161 34.440, 158.542 29.127, 155.538 22.898 L 150.076 11.573 148.446 15.537 M 66.500 37.576 C 63.200 39.026, 60.377 40.325, 60.226 40.463 C 60.076 40.601, 66.549 48.091, 74.611 57.107 C 82.673 66.123, 89.388 73.642, 89.533 73.815 C 89.678 73.988, 92.594 74.783, 96.013 75.580 L 102.229 77.030 113.865 67.707 C 120.264 62.579, 126.400 58.042, 127.500 57.624 C 130.356 56.541, 128.485 55.724, 116.750 52.929 C 111.388 51.651, 107 50.309, 107 49.946 C 107 48.938, 127.990 40.307, 132.250 39.564 C 134.313 39.204, 136 38.532, 136 38.070 C 136 36.710, 127.123 36.093, 99 35.499 L 72.500 34.940 66.500 37.576 M 139 37.799 C 139 38.239, 140.575 38.415, 142.500 38.190 C 144.425 37.965, 146 37.605, 146 37.391 C 146 37.176, 144.425 37, 142.500 37 C 140.575 37, 139 37.360, 139 37.799 M 150.139 39.548 L 137.778 41.596 135.390 47.466 C 134.076 50.694, 133.197 53.530, 133.435 53.768 C 133.673 54.007, 139.605 55.639, 146.616 57.396 C 164.117 61.782, 164.368 63.473, 147.373 62.498 C 140.293 62.091, 133.415 61.701, 132.090 61.629 C 129.952 61.515, 129.245 62.567, 125.836 70.938 C 123.107 77.639, 122.329 80.585, 123.154 81.095 C 123.793 81.490, 128.295 82.586, 133.158 83.531 C 139.044 84.674, 142 85.698, 142 86.592 C 142 87.626, 139.285 88.002, 130.262 88.218 C 119.702 88.472, 118.488 88.688, 118.165 90.376 C 117.820 92.173, 118.504 92.221, 134.523 91.514 C 148.422 90.901, 151.165 91.006, 150.790 92.138 C 150.541 92.887, 144.622 96.031, 137.636 99.124 C 128.157 103.321, 123.102 104.961, 117.717 105.585 C 110.896 106.376, 111.460 106.467, 128 107.231 C 165.808 108.980, 168 109.155, 168 110.435 C 168 111.219, 156.367 114.699, 136.250 119.932 C 118.787 124.475, 104.359 128.327, 104.187 128.492 C 104.015 128.657, 109.523 130.675, 116.427 132.976 C 123.331 135.277, 129.197 137.509, 129.461 137.938 C 129.726 138.366, 128.493 139.480, 126.721 140.414 C 124.025 141.836, 121.110 142.063, 108.840 141.806 L 94.180 141.500 96.542 135.700 L 98.903 129.900 96.701 129.050 C 94.477 128.191, 94.755 127.910, 98.972 126.755 C 101.071 126.180, 107.148 110.722, 105.650 109.765 C 105.018 109.361, 99.438 109.024, 93.250 109.015 C 84.334 109.003, 82 108.712, 82 107.614 C 82 106.080, 85.461 105.430, 99.150 104.395 C 103.908 104.035, 108.233 103.462, 108.761 103.121 C 109.289 102.779, 110.496 100.988, 111.444 99.139 L 113.166 95.778 95.333 96.438 L 77.500 97.098 80 94.931 C 81.375 93.739, 83.850 91.697, 85.500 90.393 L 88.500 88.022 74.250 88.011 C 61.030 88.001, 60 88.134, 60 89.857 C 60 92.441, 69.068 173.402, 69.394 173.728 C 69.540 173.873, 81.016 169.765, 94.896 164.598 L 120.132 155.203 131.816 168.100 C 138.242 175.193, 143.725 180.986, 144 180.972 C 144.275 180.959, 150.552 167.359, 157.949 150.750 L 171.399 120.553 172.812 91.026 L 174.225 61.500 168.362 49.500 L 162.500 37.500 150.139 39.548 M 129.500 42.982 C 127.850 43.409, 123.800 45.003, 120.500 46.524 L 114.500 49.289 121.500 51.122 C 125.350 52.130, 128.853 52.965, 129.286 52.977 C 130.076 53, 134 44.627, 134 42.917 C 134 41.886, 133.713 41.890, 129.500 42.982 M 60.933 48.231 C 60.896 49.479, 60.093 58.263, 59.148 67.750 L 57.429 85 74.965 84.973 L 92.500 84.946 95.991 82.053 L 99.481 79.159 96.491 78.476 C 94.846 78.100, 92.346 77.502, 90.935 77.146 C 89.330 76.742, 83.253 70.790, 74.685 61.231 C 64.046 49.360, 60.985 46.466, 60.933 48.231 M 131 58 C 131 58.550, 133.137 58.955, 135.750 58.900 C 139.621 58.819, 140.038 58.653, 138 58 C 134.386 56.843, 131 56.843, 131 58 M 116.207 69.276 L 105.914 77.500 111.456 78.857 C 114.504 79.604, 117.593 79.986, 118.322 79.707 C 119.050 79.427, 120.585 76.791, 121.731 73.849 C 122.878 70.907, 124.538 66.813, 125.421 64.750 C 126.304 62.688, 126.908 61.012, 126.763 61.026 C 126.619 61.040, 121.868 64.753, 116.207 69.276 M 99.500 82.531 L 96.500 84.990 106.691 84.995 C 112.296 84.998, 117.130 84.598, 117.434 84.107 C 117.875 83.394, 105.580 79.895, 103.127 80.036 C 102.782 80.056, 101.150 81.179, 99.500 82.531 M 120.750 84.662 C 121.438 84.940, 122.563 84.940, 123.250 84.662 C 123.938 84.385, 123.375 84.158, 122 84.158 C 120.625 84.158, 120.063 84.385, 120.750 84.662 M 89 91 L 85.500 93.946 91.500 93.874 C 94.800 93.834, 101.275 93.509, 105.890 93.151 C 113.380 92.570, 114.368 92.259, 115.108 90.250 L 115.936 88 104.218 88.027 C 92.722 88.053, 92.434 88.110, 89 91 M 123.746 94.743 L 115.992 95.084 114.483 98.696 C 113.653 100.682, 113.197 102.531, 113.471 102.804 C 114.673 104.006, 127.150 100.893, 134 97.681 L 141.500 94.164 136.500 94.283 C 133.750 94.349, 128.011 94.556, 123.746 94.743 M 109.077 112.250 C 108.597 113.487, 107.265 116.862, 106.117 119.750 C 104.968 122.638, 104.457 125, 104.980 125 C 106.064 125, 156.363 111.951, 156.759 111.566 C 157.081 111.254, 124.756 110.007, 116.225 110.003 C 110.642 110, 109.854 110.248, 109.077 112.250 M 99.739 134.983 L 98.161 139 111.330 138.924 L 124.500 138.848 114.549 135.428 C 109.076 133.547, 103.860 131.773, 102.958 131.487 C 101.761 131.107, 100.890 132.053, 99.739 134.983" stroke="none" fill="black" fill-rule="evenodd"/>
</svg>