<svg xmlns="http://www.w3.org/2000/svg" width="200" height="200" viewBox="0 0 200 200" version="1.1">
	<path d="M 94.744 12.683 C 94.493 13.133, 92.145 22.162, 89.525 32.750 L 84.762 52 74.631 51.985 C 69.059 51.976, 63.907 51.594, 63.183 51.134 C 62.220 50.523, 64.705 47.295, 72.433 39.118 C 87.688 22.975, 87.099 22.528, 65.821 34.097 C 51.237 42.027, 50.733 42.414, 41.432 52.809 C 32.724 62.541, 31.990 63.676, 32.605 66.462 C 32.975 68.133, 33.271 89.525, 33.263 114 L 33.250 158.500 40.875 172.734 C 45.069 180.563, 48.977 186.976, 49.561 186.984 C 50.144 186.993, 60.636 182.525, 72.875 177.056 L 95.128 167.112 114.720 175.608 L 134.311 184.104 147.258 175.479 L 160.205 166.855 159.415 162.177 C 158.980 159.605, 158.574 136.350, 158.513 110.500 C 158.408 66.045, 158.274 62.742, 156.045 49.500 C 154.749 41.800, 153.548 35.327, 153.376 35.115 C 153.204 34.903, 141.546 37.988, 127.470 41.970 C 113.393 45.951, 101.632 48.965, 101.334 48.667 C 101.036 48.369, 101.250 44.696, 101.810 40.505 C 102.791 33.166, 102.703 32.512, 99.429 22.791 C 95.856 12.178, 95.479 11.367, 94.744 12.683 M 91.703 35.750 C 89.626 43.862, 87.943 50.862, 87.963 51.305 C 87.983 51.747, 90.138 51.972, 92.750 51.805 L 97.500 51.500 98.714 42.500 C 99.833 34.210, 99.767 33.007, 97.883 27.250 C 96.758 23.813, 95.757 21, 95.659 21 C 95.561 21, 93.781 27.637, 91.703 35.750 M 62.500 39.124 C 52.566 44.612, 50.689 46.128, 43.133 54.753 L 34.766 64.305 35.484 73.403 C 35.879 78.406, 36.176 99.542, 36.145 120.372 L 36.087 158.244 42.660 170.372 C 46.275 177.042, 49.526 182.823, 49.884 183.218 C 50.243 183.613, 58.853 180.238, 69.018 175.718 L 87.500 167.500 71.750 167.225 C 60.133 167.021, 56.003 166.628, 56.011 165.725 C 56.017 165.051, 58.719 153.953, 62.015 141.062 L 68.008 117.623 61.254 111.490 C 57.539 108.117, 52.925 103.940, 51 102.208 C 46.785 98.416, 47.193 98.353, 61.057 100.655 C 66.538 101.566, 71.281 102.053, 71.595 101.738 C 72.233 101.101, 76.948 83.194, 76.980 81.292 C 76.993 80.527, 74.627 81.148, 70.526 82.988 C 66.965 84.586, 63.877 85.580, 63.664 85.197 C 63.450 84.813, 62.225 77.862, 60.940 69.750 C 58.933 57.069, 58.352 55, 56.802 55 C 54.361 55, 54.536 53.926, 57.457 50.979 C 61.585 46.814, 74.183 32.998, 73.831 33.023 C 73.649 33.036, 68.550 35.782, 62.500 39.124 M 128.064 44.653 C 115.725 48.165, 105.474 51.193, 105.285 51.382 C 105.096 51.570, 109.632 52.968, 115.364 54.487 C 126.774 57.512, 128.562 58.281, 127.643 59.768 C 127.265 60.380, 122.537 59.466, 115.301 57.380 C 106.218 54.763, 101.713 54, 95.333 54 L 87.094 54 86.053 57.750 C 84.590 63.015, 84.447 62.751, 90.308 65.625 L 95.616 68.228 100.775 65.614 C 106.801 62.560, 107 62.525, 107 64.508 C 107 65.338, 105.200 66.736, 103 67.617 C 100.800 68.497, 99.006 69.506, 99.013 69.859 C 99.020 70.211, 106.229 74.277, 115.035 78.893 L 131.044 87.286 130.772 105.393 L 130.500 123.500 126.750 123.810 C 124.688 123.981, 123 124.485, 123 124.931 C 123 125.377, 126.591 130.637, 130.981 136.621 C 135.370 142.604, 138.962 147.725, 138.961 148 C 138.960 148.968, 107.470 166.838, 105.185 167.167 C 103.610 167.393, 107.892 169.668, 118.579 174.281 L 134.288 181.062 145.746 173.281 L 157.203 165.500 156.423 157.500 C 155.993 153.100, 155.567 129.250, 155.475 104.500 C 155.323 63.681, 155.118 58.543, 153.270 49.200 C 152.150 43.535, 151.068 38.758, 150.867 38.584 C 150.665 38.411, 140.404 41.142, 128.064 44.653 M 76.137 54.913 L 70.775 55.500 76.507 58.298 C 79.659 59.836, 82.357 60.961, 82.502 60.798 C 82.648 60.634, 83.080 59.038, 83.463 57.250 C 83.981 54.833, 83.818 54.042, 82.829 54.163 C 82.098 54.253, 79.087 54.590, 76.137 54.913 M 63.502 68.010 C 64.704 75.166, 65.870 81.181, 66.094 81.377 C 66.317 81.573, 69.228 80.502, 72.562 78.997 C 78.614 76.265, 78.626 76.251, 79.924 70.449 C 81.125 65.082, 81.082 64.530, 79.362 63.237 C 76.453 61.049, 64.204 55, 62.683 55 C 61.569 55, 61.721 57.408, 63.502 68.010 M 83.074 69.694 C 82.513 71.725, 82.197 73.531, 82.373 73.706 C 82.548 73.881, 84.869 73.061, 87.530 71.883 L 92.370 69.743 88.935 67.913 C 84.309 65.450, 84.240 65.471, 83.074 69.694 M 87.313 74.956 C 81.601 77.600, 81.039 78.153, 79.993 82.160 C 79.371 84.547, 77.921 89.991, 76.772 94.258 C 75.622 98.524, 74.953 102.286, 75.284 102.618 C 75.776 103.110, 107.827 108.960, 110.199 108.991 C 110.584 108.996, 112.986 111.925, 115.537 115.500 C 120.106 121.903, 121.271 122.570, 125.774 121.363 C 128.035 120.758, 128.047 120.660, 127.774 104.677 L 127.500 88.601 112 80.317 C 103.475 75.761, 95.825 72.047, 95 72.063 C 94.175 72.079, 90.716 73.381, 87.313 74.956 M 62.145 108.633 C 68.673 114.634, 69.105 114.620, 70.440 108.362 L 71.110 105.224 64.723 104.112 C 61.210 103.500, 57.814 103, 57.177 103 C 56.539 103, 58.775 105.535, 62.145 108.633 M 73.523 107.250 C 73.295 107.938, 72.622 110.300, 72.028 112.500 L 70.946 116.500 77.081 122.076 L 83.215 127.652 99.858 125.192 C 109.011 123.839, 116.650 122.606, 116.832 122.451 C 117.674 121.737, 109.281 111.865, 107.505 111.479 C 103.992 110.715, 75.956 106, 74.926 106 C 74.382 106, 73.751 106.563, 73.523 107.250 M 65.010 140.782 C 62.103 152.177, 59.514 162.063, 59.256 162.750 C 58.888 163.728, 64.036 164, 82.955 164 L 107.124 164 120.812 155.877 C 128.340 151.410, 134.667 147.605, 134.871 147.423 C 135.274 147.063, 120.378 126.345, 119.211 125.642 C 118.820 125.406, 111.525 126.272, 103 127.566 C 83.568 130.515, 81.797 130.539, 79.405 127.890 C 78.357 126.729, 75.879 124.494, 73.897 122.922 L 70.294 120.065 65.010 140.782" stroke="none" fill="black" fill-rule="evenodd"/>
</svg>