<svg xmlns="http://www.w3.org/2000/svg" width="200" height="200" viewBox="0 0 200 200" version="1.1">
	<path d="M 136 18.594 C 124.725 20.971, 115.409 22.935, 115.298 22.958 C 115.187 22.981, 113.769 24.929, 112.147 27.286 C 108.120 33.140, 101.307 35.383, 90.523 34.406 L 83 33.724 83 29.907 C 83 25.213, 84.202 25.466, 55 24.015 C 43.175 23.428, 30.913 22.690, 27.750 22.375 L 22 21.804 22 86.745 C 22 157.883, 22.535 176.264, 24.593 175.793 C 25.298 175.632, 31.781 163.584, 39.001 149.020 C 46.221 134.455, 52.326 122.341, 52.568 122.099 C 52.810 121.856, 52.797 123.647, 52.538 126.079 C 52.279 128.511, 51.821 145.508, 51.520 163.850 L 50.974 197.200 53.756 194.850 C 55.286 193.558, 72.507 178.775, 92.025 162 C 129.670 129.644, 131.714 127.932, 130.804 129.500 C 108.372 168.167, 101.110 181.510, 102.009 182.409 C 102.721 183.121, 111.286 175.205, 129.521 156.979 C 144.085 142.423, 156 131.030, 156 131.661 C 156 132.292, 153.075 145.668, 149.500 161.386 C 145.925 177.104, 143 190.647, 143 191.482 C 143 192.317, 143.563 192.976, 144.250 192.946 C 145.364 192.897, 193.813 126.061, 194.732 123.305 C 195.153 122.040, 196.211 122.284, 156 114.388 C 139.775 111.203, 127.400 108.405, 128.500 108.173 C 129.600 107.940, 141.750 105.625, 155.500 103.029 C 177.871 98.806, 180.492 98.109, 180.426 96.405 C 180.385 95.357, 177.490 78.174, 173.991 58.220 C 169.115 30.408, 167.361 22.239, 166.477 23.220 C 165.842 23.924, 161.796 30.350, 157.486 37.500 C 146.175 56.264, 147.046 55.433, 147.696 46.841 L 148.256 39.431 129.527 37.781 C 119.226 36.874, 110.536 35.869, 110.216 35.549 C 109.010 34.343, 112.128 33.054, 135.750 24.997 C 151.510 19.622, 160 16.249, 160 15.363 C 160 13.557, 159.704 13.596, 136 18.594 M 124.500 23.685 C 118.086 25.039, 113.861 27.195, 115.132 28.465 C 115.413 28.747, 120.112 27.442, 125.572 25.565 C 136.176 21.919, 135.821 21.296, 124.500 23.685 M 24.138 72.750 C 24.213 99.013, 24.561 131.525, 24.911 145 L 25.546 169.500 39.023 142.263 C 47.079 125.982, 53.067 115.021, 53.908 115.013 C 55.108 115.002, 55.213 120.666, 54.616 153.108 L 53.914 191.216 64.207 182.233 L 74.500 173.250 94.301 140.509 C 105.192 122.502, 113.915 107.582, 113.686 107.353 C 112.819 106.485, 87.511 103.961, 87.213 104.712 C 79.122 125.144, 78 126.110, 78 112.645 L 78 103.123 73.750 102.530 C 67.667 101.682, 33.046 98, 31.157 98 C 29.769 98, 29.754 97.830, 31.036 96.638 C 34.143 93.749, 74.911 70, 76.765 70 C 78.378 70, 78.832 69.080, 79.352 64.750 C 80.258 57.203, 80.145 45, 79.168 45 C 78.710 45, 68.547 48.378, 56.583 52.506 C 44.618 56.634, 34.980 59.608, 35.165 59.116 C 35.349 58.623, 39.100 52.061, 43.500 44.534 L 51.500 30.849 57.500 31.413 C 60.800 31.723, 67.438 32.274, 72.250 32.636 L 81 33.295 81 30.648 C 81 28.258, 80.635 27.998, 77.250 27.984 C 75.188 27.976, 62.700 27.305, 49.500 26.495 C 36.300 25.684, 25.163 25.016, 24.750 25.011 C 24.337 25.005, 24.062 46.487, 24.138 72.750 M 156.148 44.919 C 151.117 53.146, 147 60.417, 147 61.078 C 147 61.739, 146.372 62.779, 145.604 63.390 C 144.836 64, 141.950 68.147, 139.189 72.604 L 134.170 80.707 150.160 81.262 C 173.848 82.084, 173.304 83.097, 146 89.011 L 126.500 93.234 122.319 100.117 C 120.020 103.903, 118.445 106.999, 118.819 106.997 C 120.166 106.992, 177.223 96.109, 177.482 95.808 C 177.900 95.322, 166.460 31.127, 165.846 30.513 C 165.544 30.210, 161.179 36.693, 156.148 44.919 M 47.144 43.923 C 43.765 49.517, 41 54.281, 41 54.511 C 41 54.740, 49.774 51.907, 60.498 48.214 C 79.160 41.788, 79.997 41.387, 79.998 38.879 C 80 36.354, 79.736 36.234, 72.750 35.588 C 68.763 35.219, 62.752 34.655, 59.394 34.335 L 53.287 33.753 47.144 43.923 M 83 38.500 C 83 40.373, 83.895 40.380, 88.135 38.539 L 91.500 37.078 87.250 37.039 C 84.121 37.010, 83 37.396, 83 38.500 M 90.368 40.623 L 83.235 43.088 82.513 55.606 C 82.116 62.492, 82.006 68.339, 82.268 68.601 C 82.705 69.038, 104 39.499, 104 38.456 C 104 37.260, 96.775 38.409, 90.368 40.623 M 97.191 53.250 C 91.702 61.088, 87.642 67.659, 88.168 67.854 C 89.448 68.328, 141.727 60.787, 143.116 59.928 C 144.102 59.319, 145.815 42.006, 144.891 41.996 C 144.676 41.994, 137.300 41.324, 128.500 40.508 C 119.700 39.692, 111.301 39.018, 109.835 39.012 C 107.536 39.002, 105.802 40.955, 97.191 53.250 M 108.677 68.015 C 94.475 70.103, 82.707 71.967, 82.526 72.156 C 82.345 72.345, 81.870 78.912, 81.470 86.750 L 80.744 101 83.288 101 C 84.688 101, 85.983 100.564, 86.167 100.031 C 86.350 99.498, 95.165 97.175, 105.755 94.869 C 124.245 90.842, 125.086 90.554, 126.949 87.612 C 128.383 85.346, 128.577 84.351, 127.694 83.790 C 127.037 83.372, 119.862 83.024, 111.750 83.015 C 98.705 83.002, 97 82.809, 97 81.347 C 97 79.848, 98.572 79.758, 113.876 80.379 L 130.753 81.064 135.227 73.782 C 137.688 69.777, 140.020 65.938, 140.410 65.250 C 141.452 63.411, 137.872 63.723, 108.677 68.015 M 76.069 73.098 C 73.401 74.164, 37.966 95.300, 38.296 95.628 C 38.834 96.164, 77.309 100.024, 77.747 99.586 C 78.341 98.992, 79.465 71.971, 78.892 72.063 C 78.676 72.098, 77.406 72.564, 76.069 73.098 M 130.557 86.889 L 129.063 89.779 140.282 87.370 C 146.452 86.046, 151.950 84.781, 152.500 84.560 C 153.050 84.339, 148.674 84.122, 142.776 84.079 L 132.051 84 130.557 86.889 M 113 96.062 C 108.325 97.104, 101.125 98.729, 97 99.673 L 89.500 101.389 99.500 102.600 C 116.735 104.686, 116.366 104.751, 119.905 99 C 121.597 96.250, 122.648 94.038, 122.241 94.084 C 121.833 94.131, 117.675 95.021, 113 96.062 M 81.082 107.250 L 81.163 111.500 82.607 108.195 C 84.030 104.937, 83.782 103, 81.941 103 C 81.423 103, 81.037 104.912, 81.082 107.250 M 99.701 137.204 C 89.927 153.187, 82.059 166.363, 82.215 166.484 C 82.372 166.604, 94.641 156.208, 109.479 143.381 C 126.050 129.057, 136.817 120.417, 137.386 120.986 C 138.126 121.726, 120.215 154.540, 110.085 171 C 109.239 172.375, 120.187 162.126, 134.414 148.224 C 148.641 134.322, 160.439 123.106, 160.631 123.298 C 160.823 123.490, 157.851 137.318, 154.027 154.027 C 150.202 170.735, 147.191 184.524, 147.336 184.669 C 147.480 184.814, 157.346 171.354, 169.260 154.760 C 181.173 138.165, 190.823 124.490, 190.704 124.370 C 190.584 124.251, 174.291 120.928, 154.496 116.985 C 134.701 113.043, 118.272 109.441, 117.988 108.981 C 117.704 108.521, 109.474 121.221, 99.701 137.204" stroke="none" fill="black" fill-rule="evenodd"/>
</svg>