<svg xmlns="http://www.w3.org/2000/svg" width="200" height="200" viewBox="0 0 200 200" version="1.1">
	<path d="M 38.639 13.774 C 38.290 14.341, 34.912 25.985, 31.134 39.652 L 24.265 64.500 23.546 106.788 L 22.827 149.076 28.152 158.072 C 32.246 164.987, 33.712 166.747, 34.489 165.683 C 35.045 164.921, 40.675 155.254, 47 144.200 C 60.760 120.153, 59.890 118.544, 57.161 163 C 56.131 179.775, 55.397 193.636, 55.529 193.802 C 55.662 193.968, 63.526 182.943, 73.005 169.302 C 82.484 155.661, 90.637 144.071, 91.123 143.547 C 91.609 143.023, 91.055 145.411, 89.892 148.853 C 88.730 152.295, 87.941 155.268, 88.139 155.458 C 88.338 155.649, 98.249 162.110, 110.165 169.816 L 131.830 183.828 153.914 172.664 L 175.998 161.500 176.016 157 C 176.025 154.525, 176.696 139.482, 177.505 123.572 C 178.315 107.662, 178.787 94.454, 178.555 94.222 C 178.323 93.989, 173.490 92.764, 167.816 91.498 C 162.142 90.232, 158.400 89.142, 159.500 89.076 C 165.335 88.724, 187.148 86.185, 187.519 85.815 C 187.756 85.577, 176.507 77.309, 162.521 67.441 L 137.090 49.500 151.295 35.151 C 159.108 27.259, 164.600 21.038, 163.500 21.328 C 162.400 21.618, 148.787 24.438, 133.250 27.595 C 113.252 31.658, 105 33.724, 105 34.667 C 105 35.400, 105.197 36, 105.438 36 C 105.679 36, 116.869 33.750, 130.304 31 C 143.739 28.250, 155.122 26, 155.600 26 C 156.078 26, 151.146 31.337, 144.640 37.860 L 132.811 49.720 156.883 66.753 C 184.485 86.284, 183.981 84.022, 161.199 86.108 L 147.898 87.327 124.365 82.440 C 107.399 78.917, 100.591 77.105, 99.971 75.946 C 99.498 75.062, 97.968 63.125, 96.572 49.419 C 95.176 35.714, 93.807 22.886, 93.531 20.913 L 93.029 17.326 108.514 17.797 C 121.796 18.201, 124 18.055, 124 16.774 C 124 15.494, 119.512 15.185, 92.750 14.619 C 75.563 14.256, 56.500 13.686, 50.388 13.352 C 43.197 12.959, 39.051 13.108, 38.639 13.774 M 33.739 40.699 L 26.979 65.500 26.341 107.125 L 25.703 148.750 29.478 154.963 C 32.560 160.037, 33.480 160.931, 34.492 159.838 C 35.175 159.102, 41.004 149.275, 47.447 138 C 53.889 126.725, 59.574 117.072, 60.080 116.550 C 62.491 114.060, 62.627 119.313, 60.865 147 C 59.833 163.225, 59.104 178.199, 59.244 180.275 C 59.494 183.968, 59.834 183.571, 74.757 162.107 L 90.013 140.162 85.382 108.831 C 82.689 90.609, 80.237 77.082, 79.522 76.500 C 77.964 75.232, 55.089 70.578, 54.298 71.368 C 53.975 71.692, 54.286 75.454, 54.991 79.728 C 55.695 84.003, 56.323 87.894, 56.386 88.375 C 56.449 88.856, 55.982 89.441, 55.349 89.675 C 54.652 89.933, 52.969 86.409, 51.080 80.739 L 47.961 71.377 51.952 58.939 L 55.944 46.500 73.892 32.004 C 83.764 24.030, 91.764 17.453, 91.670 17.386 C 91.577 17.320, 80.025 16.958, 66 16.581 L 40.500 15.897 33.739 40.699 M 74.518 34.982 L 58.536 47.927 55.322 57.515 C 53.050 64.291, 52.458 67.223, 53.304 67.510 C 55.736 68.336, 79.291 73.042, 79.574 72.759 C 79.736 72.597, 78.829 65.723, 77.558 57.483 C 74.270 36.150, 74.675 36.036, 86.638 54.937 C 91.489 62.603, 95.521 68.790, 95.597 68.687 C 95.787 68.429, 91.070 23.704, 90.754 22.781 C 90.614 22.372, 83.308 27.863, 74.518 34.982 M 79.018 49.050 C 79.096 50.963, 82.966 73.299, 83.274 73.607 C 84.083 74.416, 95.072 76.261, 95.649 75.685 C 95.979 75.354, 92.741 69.552, 88.453 62.792 C 80.931 50.935, 78.979 48.092, 79.018 49.050 M 85.629 92.155 C 86.909 100.595, 88.959 114.362, 90.186 122.750 C 91.412 131.137, 92.668 138, 92.976 138 C 93.284 138, 96.630 128.662, 100.411 117.250 C 104.192 105.838, 107.488 95.954, 107.736 95.286 C 108.068 94.390, 106.891 94.226, 103.233 94.659 L 98.280 95.245 97.581 87.241 L 96.883 79.237 93.192 78.645 C 91.161 78.320, 88.106 77.774, 86.402 77.432 L 83.303 76.811 85.629 92.155 M 104 81.626 C 104 81.991, 105.237 84.249, 106.750 86.643 C 109.891 91.616, 108.973 91.475, 126 89.607 C 138.721 88.211, 138.829 88.311, 120.500 84.489 C 113.900 83.113, 107.487 81.756, 106.250 81.475 C 105.013 81.193, 104 81.261, 104 81.626 M 100 83.875 C 100 84.906, 100.281 87.156, 100.625 88.875 C 101.114 91.322, 101.765 92, 103.625 92 C 106.591 92, 106.582 91.668, 103.458 86.338 C 100.650 81.547, 100 81.084, 100 83.875 M 130.324 91.885 C 121.977 92.773, 114.912 93.740, 114.624 94.033 C 114.336 94.327, 122.740 95.853, 133.300 97.425 C 143.860 98.997, 153.316 100.578, 154.314 100.938 C 155.855 101.493, 154.538 103.677, 145.564 115.439 C 139.754 123.056, 135.010 129.785, 135.022 130.394 C 135.034 131.002, 135.924 132.625, 137 134 C 138.076 135.375, 138.946 136.950, 138.933 137.500 C 138.907 138.676, 124.305 149.107, 121.750 149.775 C 118.983 150.499, 119.623 148.726, 125.519 139.335 C 128.555 134.500, 130.856 130.066, 130.631 129.482 C 130.407 128.898, 125.730 121.357, 120.238 112.725 L 110.252 97.031 100.557 125.613 C 95.225 141.334, 91.006 154.292, 91.181 154.410 C 101.245 161.179, 131.261 180, 131.992 180 C 134.208 180, 173 159.916, 173 158.769 C 173 158.097, 173.701 143.875, 174.558 127.164 C 175.414 110.454, 175.955 96.622, 175.760 96.427 C 175.290 95.956, 147.137 89.961, 146.215 90.135 C 145.822 90.209, 138.671 90.997, 130.324 91.885 M 114.152 97.821 C 114.885 99.732, 132.507 126.998, 132.990 126.969 C 133.886 126.914, 151.133 103.799, 150.643 103.310 C 150.385 103.051, 143.047 101.748, 134.337 100.414 C 125.626 99.080, 117.443 97.747, 116.152 97.451 C 114.861 97.155, 113.961 97.321, 114.152 97.821 M 131.211 135.258 C 130.604 136.491, 129.071 139.071, 127.804 140.991 L 125.500 144.482 130.250 141.072 C 135.188 137.526, 135.929 136.016, 133.657 134.130 C 132.621 133.270, 132.062 133.528, 131.211 135.258" stroke="none" fill="black" fill-rule="evenodd"/>
</svg>