<svg xmlns="http://www.w3.org/2000/svg" width="200" height="200" viewBox="0 0 200 200" version="1.1">
	<path d="M 106.633 21.500 L 101.885 27 78.875 27 L 55.865 27 42.182 31.103 C 34.657 33.360, 28.187 35.497, 27.804 35.853 C 26.862 36.729, 12.002 85.335, 12.518 85.852 C 12.925 86.259, 45.783 82.452, 51.500 81.336 C 54.498 80.750, 54.499 80.751, 52.595 82.875 C 51.547 84.044, 50.367 85, 49.973 85 C 49.579 85, 46.836 86.081, 43.878 87.402 L 38.500 89.804 41.382 90.928 C 43.980 91.940, 44.121 92.221, 42.811 93.775 C 42.011 94.724, 36.188 101.350, 29.870 108.500 C 23.552 115.650, 18.072 122.019, 17.692 122.653 C 17.312 123.288, 19.909 130.263, 23.464 138.153 L 29.926 152.500 41.271 162.139 L 52.617 171.778 74.805 157.639 C 87.008 149.862, 96.977 143.050, 96.957 142.500 C 96.937 141.950, 93.539 137, 89.405 131.500 L 81.889 121.500 82.239 112.284 L 82.589 103.068 71.045 98.879 C 46.158 89.851, 48.625 91.077, 50.683 88.766 C 52.670 86.536, 64.188 81, 66.842 81 C 67.753 81, 74.798 83.087, 82.499 85.637 C 95.946 90.091, 97.040 90.667, 110.144 100.181 L 123.789 110.087 111.811 135.793 C 92.724 176.759, 92.614 177.014, 93.612 178.012 C 94.183 178.583, 97.667 176.265, 102.666 171.987 L 110.792 165.033 140.646 172.883 C 157.066 177.200, 170.659 180.596, 170.854 180.429 C 171.049 180.262, 168.864 173.093, 165.999 164.497 L 160.790 148.868 163.396 118.666 C 165.661 92.422, 166.592 85.797, 170.501 68.104 C 172.976 56.905, 175 47.085, 175 46.282 C 175 45.035, 171.747 44.864, 152.850 45.119 L 130.701 45.416 128.325 41.958 C 127.018 40.056, 122.934 33.438, 119.249 27.250 C 115.564 21.063, 112.286 16, 111.965 16 C 111.644 16, 109.245 18.475, 106.633 21.500 M 110.433 21.313 C 110.009 22.420, 112.499 26.658, 118.024 34.230 C 126.234 45.483, 129.712 49.724, 126.855 45 C 126.024 43.625, 122.490 37.775, 119.003 32 C 111.401 19.411, 111.240 19.211, 110.433 21.313 M 108.476 28.997 C 107.939 30.067, 103.687 37.686, 99.026 45.927 L 90.552 60.912 85.026 61.564 C 74.041 62.859, 73.407 63.163, 67.482 70 L 61.849 76.500 64.690 76.796 C 66.595 76.994, 76.231 73.270, 93.918 65.498 C 108.431 59.122, 120.621 54.263, 121.008 54.702 C 121.394 55.141, 123.430 66.026, 125.531 78.892 C 127.708 92.227, 129.635 101.471, 130.012 100.392 C 130.375 99.351, 132.191 91.027, 134.045 81.893 L 137.417 65.287 124.056 46.893 C 116.707 36.777, 110.415 28.174, 110.073 27.776 C 109.731 27.378, 109.013 27.927, 108.476 28.997 M 44.077 33.383 L 29.654 37.626 22.778 59.930 C 18.996 72.198, 16.098 82.432, 16.339 82.673 C 16.580 82.914, 25.715 81.956, 36.639 80.543 L 56.500 77.976 62.671 71.242 C 66.065 67.538, 68.679 64.346, 68.481 64.148 C 68.283 63.950, 63.360 64.352, 57.542 65.042 C 51.723 65.731, 46.725 66.059, 46.436 65.769 C 46.147 65.480, 52.631 57.426, 60.846 47.872 C 69.061 38.317, 75.719 30.450, 75.641 30.389 C 75.564 30.328, 71.675 30.022, 67 29.709 C 59.071 29.178, 57.531 29.425, 44.077 33.383 M 65.758 46.205 C 58.200 55.084, 52.142 62.475, 52.295 62.628 C 52.449 62.782, 56.975 62.393, 62.354 61.763 L 72.134 60.619 82.317 49.064 C 87.918 42.709, 94.015 35.819, 95.866 33.754 L 99.233 30 89.366 30.030 L 79.500 30.061 65.758 46.205 M 91 43.118 C 75.030 61.235, 75.676 60.049, 82.152 59.358 C 85.473 59.004, 88.099 58.108, 89.080 56.993 C 90.766 55.078, 104 31.696, 104 30.632 C 104 28.808, 101.485 31.224, 91 43.118 M 129 48.594 C 129 48.921, 131.475 52.577, 134.500 56.719 C 137.525 60.862, 140.010 64.757, 140.023 65.375 C 140.036 65.994, 137.941 76.513, 135.368 88.750 C 132.175 103.938, 130.278 111, 129.390 111 C 127.923 111, 128.216 112.363, 123.110 81.741 C 121.023 69.224, 119.059 58.726, 118.746 58.413 C 118.315 57.981, 72.725 77.268, 71.191 78.531 C 71.021 78.671, 76.918 80.803, 84.295 83.269 C 97.207 87.585, 98.257 88.153, 112.354 98.445 C 120.409 104.325, 127 109.248, 127 109.384 C 127 109.521, 121.557 121.303, 114.903 135.567 C 108.250 149.830, 101.738 163.891, 100.431 166.812 L 98.055 172.124 102.085 168.812 C 111.297 161.242, 107.102 161.173, 138.500 169.412 C 153.900 173.453, 166.608 176.668, 166.740 176.557 C 166.871 176.445, 164.957 170.326, 162.486 162.959 L 157.993 149.563 160.521 119.532 C 162.910 91.158, 165.551 74.725, 171.656 50.250 L 172.217 48 150.608 48 C 138.724 48, 129 48.267, 129 48.594 M 33.550 108.462 L 19.988 123.824 26.155 137.441 L 32.322 151.059 42.399 159.545 C 47.941 164.213, 52.977 167.839, 53.590 167.604 C 56.675 166.420, 93 142.669, 93 141.836 C 93 141.303, 89.821 136.581, 85.935 131.343 L 78.869 121.818 79.185 113.273 L 79.500 104.728 74.500 102.967 C 71.750 101.998, 64.463 99.382, 58.306 97.153 L 47.111 93.099 33.550 108.462" stroke="none" fill="black" fill-rule="evenodd"/>
</svg>