<svg xmlns="http://www.w3.org/2000/svg" width="200" height="200" viewBox="0 0 200 200" version="1.1">
	<path d="M 72.516 12.974 C 72.185 13.509, 73.546 19.172, 75.539 25.558 C 77.533 31.944, 79.015 37.313, 78.832 37.488 C 78.649 37.663, 74.679 34.475, 70.010 30.403 C 65.340 26.331, 61.108 23, 60.605 23 C 58.635 23, 19.002 44.398, 19.728 45.070 C 21.231 46.460, 54.791 65, 55.804 65 C 56.370 65, 62.739 61.793, 69.957 57.873 C 77.174 53.953, 83.399 51.065, 83.790 51.455 C 84.180 51.844, 84.652 58.791, 84.838 66.891 L 85.176 81.619 56.838 84.368 C 18.752 88.063, 19 88.028, 19 89.605 C 19 90.716, 23.447 90.842, 44.362 90.320 L 69.724 89.687 70.864 97.593 C 71.490 101.942, 72.283 107.595, 72.624 110.154 L 73.246 114.809 55.042 126.972 C 44.860 133.775, 37.029 139.656, 37.272 140.318 C 37.510 140.968, 41.208 151.625, 45.490 164 C 49.771 176.375, 53.354 186.605, 53.453 186.733 C 53.551 186.860, 65.923 182.865, 80.945 177.854 L 108.259 168.743 113.746 170.059 C 116.763 170.783, 119.799 171.942, 120.492 172.635 C 121.185 173.328, 122.595 173.845, 123.626 173.785 C 124.657 173.725, 132.138 175.848, 140.251 178.503 C 148.364 181.159, 155.161 183.144, 155.356 182.916 C 155.901 182.274, 165.923 118.590, 165.539 118.205 C 165.353 118.019, 156.725 117.230, 146.367 116.451 C 128.832 115.132, 127.414 114.878, 125.784 112.767 C 122.059 107.944, 122.325 107.221, 131.029 98.471 L 139.269 90.187 160.885 86.059 C 185.773 81.305, 185.720 81.320, 184.277 79.877 C 183.535 79.135, 174.385 79.347, 153.509 80.592 L 123.797 82.364 114.739 72.432 C 109.757 66.969, 102.127 59.055, 97.782 54.845 C 93.264 50.466, 90.336 46.910, 90.942 46.536 C 92.214 45.750, 90.712 44.885, 111.214 58.210 L 127.928 69.072 149.714 56.377 C 161.696 49.395, 172.269 43.162, 173.209 42.526 C 174.675 41.534, 171.931 39.344, 153.931 27.143 C 141.105 18.447, 132.470 13.204, 131.723 13.657 C 131.050 14.065, 123.021 20.384, 113.881 27.699 C 104.741 35.015, 97.003 41, 96.687 41 C 96.371 41, 91.112 34.475, 85 26.500 C 78.888 18.525, 73.714 12, 73.503 12 C 73.291 12, 72.847 12.438, 72.516 12.974 M 115 30.141 C 105.375 37.875, 97.500 44.597, 97.500 45.078 C 97.500 45.559, 104.365 50.446, 112.756 55.937 L 128.012 65.923 147.256 54.641 C 157.840 48.436, 167.287 42.923, 168.250 42.390 C 169.700 41.587, 166.884 39.283, 151.833 28.960 C 141.841 22.107, 133.404 16.405, 133.083 16.290 C 132.762 16.174, 124.625 22.407, 115 30.141 M 77.318 22.240 C 77.654 23.198, 79.115 27.923, 80.563 32.740 C 82.012 37.558, 84 42.335, 84.983 43.357 C 86.569 45.005, 87.164 45.070, 90.294 43.938 L 93.819 42.664 86.261 32.582 C 77.723 21.192, 76.419 19.684, 77.318 22.240 M 42.245 35.132 C 32.755 40.106, 25.220 44.547, 25.501 45.002 C 26.394 46.447, 55.179 62.116, 56.364 61.801 C 59.386 61, 81.208 48.621, 81.656 47.455 C 81.937 46.722, 81.764 45.400, 81.271 44.519 C 80.240 42.678, 61.158 25.978, 60.161 26.044 C 59.797 26.068, 51.735 30.158, 42.245 35.132 M 86 50.018 C 86 50.985, 118.208 101.437, 120.119 103.464 C 120.686 104.065, 124.181 101.291, 129.410 96.090 L 137.792 87.751 148.646 85.399 L 159.500 83.047 152.500 83.498 C 148.650 83.745, 140.325 84.235, 134 84.586 L 122.500 85.223 109.707 71.169 C 98.212 58.540, 88.273 49, 86.611 49 C 86.275 49, 86 49.458, 86 50.018 M 90.273 64 C 100.260 97.454, 118.452 155.757, 119.126 156.471 C 119.708 157.088, 124.396 155.266, 131.990 151.471 L 143.939 145.500 135.091 131.898 C 125.467 117.105, 125.378 117.037, 115.750 117.014 C 112.588 117.006, 110 116.644, 110 116.208 C 110 115.773, 111.981 113.472, 114.402 111.097 L 118.803 106.777 111.944 96.138 C 99.480 76.805, 89.818 62.477, 90.273 64 M 87.541 75.750 C 87.129 80.287, 86.726 84.030, 86.646 84.066 C 86.566 84.102, 81.325 84.719, 75 85.437 C 68.675 86.155, 65.382 86.800, 67.683 86.871 C 72.632 87.024, 72.266 86.151, 74.593 103.339 C 75.774 112.066, 75.998 116.389, 75.292 116.839 C 74.721 117.202, 66.580 122.607, 57.201 128.848 L 40.147 140.196 47.229 160.848 C 51.124 172.207, 54.644 181.880, 55.050 182.345 C 55.804 183.206, 97 170.111, 97 169.010 C 97 168.678, 92.488 165.087, 86.973 161.030 C 80.410 156.202, 77.286 153.314, 77.929 152.671 C 78.571 152.029, 82.121 154.094, 88.205 158.652 C 93.317 162.481, 98.043 165.941, 98.707 166.340 C 99.983 167.106, 116 159.547, 116 158.179 C 116 157.488, 91.409 76.788, 89.130 70 C 88.478 68.057, 88.124 69.337, 87.541 75.750 M 118.118 111.374 L 115.881 113.755 119.543 114.442 C 121.557 114.820, 123.364 114.969, 123.560 114.774 C 123.755 114.579, 123.114 113.198, 122.135 111.706 L 120.355 108.993 118.118 111.374 M 130 118.380 C 130 118.741, 134.015 125.215, 138.922 132.768 L 147.844 146.500 134.172 153.338 C 119.352 160.749, 118.992 161.178, 122.185 167.603 C 123.311 169.866, 125.634 170.935, 138.318 175.028 C 148.192 178.213, 153.254 179.423, 153.489 178.654 C 153.683 178.019, 155.713 165.350, 158 150.500 C 160.286 135.650, 162.357 122.777, 162.600 121.894 C 162.981 120.515, 161.444 120.190, 151.772 119.598 C 145.572 119.220, 138.137 118.643, 135.250 118.317 C 132.363 117.991, 130 118.020, 130 118.380 M 112.210 163.838 L 108.920 165.593 114.061 167.237 L 119.202 168.881 118.615 166.690 C 118.292 165.486, 118.021 163.938, 118.014 163.250 C 117.995 161.554, 116.142 161.742, 112.210 163.838" stroke="none" fill="black" fill-rule="evenodd"/>
</svg>