<svg xmlns="http://www.w3.org/2000/svg" width="200" height="200" viewBox="0 0 200 200" version="1.1">
	<path d="M 52.178 25.886 C 33.733 45.384, 33.246 43.767, 60.156 52.385 C 79.711 58.647, 81.754 59.109, 87.156 58.482 C 95.234 57.544, 94.744 59.400, 86.250 61.910 C 70.012 66.708, 71.544 66.696, 61.205 62.117 C 51.387 57.768, 50 57.384, 50 59.014 C 50 59.571, 53.708 61.733, 58.241 63.819 L 66.482 67.611 58.491 69.926 L 50.500 72.241 34.308 99.845 C 25.402 115.027, 18.250 127.583, 18.414 127.747 C 18.578 127.912, 24.643 125.727, 31.892 122.892 C 39.140 120.057, 45.253 117.920, 45.475 118.142 C 45.698 118.364, 46.201 131.057, 46.595 146.349 C 47.305 173.919, 47.328 174.147, 49.405 173.593 C 50.557 173.286, 57.052 171.599, 63.839 169.845 L 76.178 166.656 75.608 159.078 C 75.295 154.910, 74.766 141.375, 74.433 129 L 73.827 106.500 78.910 90.500 C 81.706 81.700, 83.995 73.995, 83.997 73.377 C 83.999 72.760, 81.890 71.342, 79.312 70.226 L 74.624 68.197 81.635 66.109 C 95.026 62.121, 94.309 62.003, 97.175 68.659 L 99.691 74.500 98.485 103.500 L 97.279 132.500 103.684 155.500 C 107.207 168.150, 110.573 180.022, 111.166 181.883 L 112.243 185.267 118.872 184.647 C 122.517 184.306, 136.525 183.079, 150 181.919 C 163.475 180.760, 174.818 179.513, 175.207 179.149 C 175.992 178.413, 184.025 134.706, 183.477 134.149 C 183.287 133.957, 173.032 139.244, 160.687 145.899 C 148.341 152.555, 137.962 158, 137.620 158 C 136.815 158, 136.814 130.069, 137.620 122.362 L 138.240 116.430 160.029 103.642 C 172.013 96.608, 182.646 90.242, 183.659 89.494 C 187.702 86.509, 183.318 86.314, 161.500 88.508 C 139.600 90.710, 139.477 90.711, 134.502 88.777 C 131.754 87.708, 128.938 86.363, 128.245 85.788 C 126.765 84.560, 107.986 58.126, 107.272 56.267 C 107.005 55.570, 107.467 55, 108.299 55 C 110.481 55, 147.914 51.092, 151.609 50.478 C 154.500 49.998, 179 31.831, 179 30.168 C 179 29.791, 170.165 27.974, 159.366 26.130 L 139.732 22.777 126.466 24.559 C 114.160 26.213, 111.981 26.233, 96.350 24.840 C 87.083 24.014, 79.337 23.463, 79.137 23.615 C 78.938 23.767, 81.598 30.707, 85.048 39.037 C 91.959 55.721, 91.953 55.956, 84.567 55.985 C 80.735 56, 43.399 44.678, 41.594 42.953 C 41.066 42.449, 46.249 36.203, 54 28 C 62.674 18.821, 66.971 13.571, 66.334 12.934 C 65.697 12.297, 60.765 16.810, 52.178 25.886 M 127.481 27.315 C 116.891 28.979, 113.875 29.068, 101.500 28.085 C 93.800 27.474, 86.512 26.979, 85.305 26.987 C 83.204 26.999, 83.339 27.561, 88.452 40.064 C 91.390 47.249, 94.078 53.412, 94.426 53.759 C 94.773 54.107, 100.557 53.651, 107.279 52.747 C 114 51.843, 127.141 50.304, 136.479 49.328 L 153.458 47.553 163.479 39.552 C 169.309 34.897, 172.873 31.429, 172 31.260 C 171.175 31.100, 163.517 29.723, 154.981 28.200 L 139.462 25.432 127.481 27.315 M 98.750 56.716 C 97.237 56.945, 96 57.562, 96 58.085 C 96 59.026, 99.548 58.472, 103.500 56.915 L 105.500 56.127 103.500 56.213 C 102.400 56.261, 100.263 56.487, 98.750 56.716 M 101.750 60.203 C 97.389 61.361, 97.255 62.075, 100.174 68.623 C 102.333 73.467, 102.340 73.703, 101.257 103.245 L 100.167 132.989 107.002 157.080 C 110.762 170.331, 114.075 181.408, 114.364 181.697 C 115.143 182.476, 172.190 177.222, 173.033 176.294 C 173.888 175.352, 180.239 139.906, 179.658 139.324 C 179.437 139.104, 169.273 144.341, 157.070 150.962 C 144.867 157.583, 134.684 163, 134.442 163 C 133.847 163, 134.080 143.465, 134.864 127.718 L 135.500 114.936 156.500 102.485 C 168.050 95.637, 176.600 90.035, 175.500 90.037 C 174.400 90.038, 167.425 90.697, 160 91.500 C 141.938 93.454, 138.544 93.374, 132.023 90.846 C 126.658 88.765, 126.109 88.183, 115.991 73.846 C 110.230 65.681, 105.512 59.047, 105.508 59.103 C 105.503 59.160, 103.813 59.655, 101.750 60.203 M 61.779 71.940 C 56.982 73.348, 52.639 74.950, 52.128 75.500 C 51.616 76.050, 45.923 85.500, 39.477 96.500 C 33.031 107.500, 26.880 117.954, 25.808 119.732 L 23.860 122.963 30.180 120.575 C 33.656 119.261, 38.879 117.245, 41.787 116.093 C 44.695 114.942, 47.443 114, 47.893 114 C 48.344 114, 48.942 126.390, 49.224 141.534 C 49.505 156.678, 50.001 169.334, 50.326 169.659 C 50.651 169.984, 55.927 169.007, 62.051 167.487 L 73.186 164.725 72.609 152.613 C 72.292 145.951, 71.785 132.850, 71.482 123.500 L 70.930 106.500 75.959 90.544 C 78.725 81.768, 80.653 74.283, 80.244 73.911 C 79.835 73.539, 77.475 72.367, 75 71.307 L 70.500 69.379 61.779 71.940" stroke="none" fill="black" fill-rule="evenodd"/>
</svg>