<svg xmlns="http://www.w3.org/2000/svg" width="200" height="200" viewBox="0 0 200 200" version="1.1">
	<path d="M 50.500 34.186 C 41.041 56.076, 39.815 58.317, 27.824 75.628 L 15.148 93.928 18.324 95.836 C 20.071 96.885, 25.206 99.714, 29.736 102.122 C 39.436 107.278, 38.615 102.981, 36.495 137.500 C 35.684 150.700, 35.016 163.126, 35.011 165.113 L 35 168.727 58.750 178.370 L 82.500 188.013 110.684 188.007 L 138.868 188 162.088 180.012 C 174.860 175.619, 185.560 171.773, 185.868 171.465 C 186.176 171.157, 182.394 162.841, 177.464 152.985 L 168.500 135.063 150.173 146.383 L 131.845 157.702 102.824 158.419 C 86.862 158.813, 73.560 158.893, 73.264 158.597 C 72.705 158.038, 67.064 123.831, 67.023 120.750 C 67.002 119.140, 68.619 119.001, 87.250 119.009 C 98.388 119.013, 109.849 119.300, 112.719 119.644 C 117.840 120.260, 117.970 120.358, 119.634 124.886 C 120.567 127.424, 121.679 129.901, 122.105 130.390 C 122.531 130.880, 124.141 129.192, 125.683 126.640 C 127.224 124.088, 128.939 122.009, 129.493 122.020 C 130.047 122.030, 137.229 124.038, 145.454 126.482 C 153.679 128.925, 160.612 130.721, 160.860 130.473 C 161.109 130.225, 164.100 117.152, 167.508 101.423 C 171.615 82.467, 173.333 72.696, 172.602 72.444 C 165.892 70.135, 133.948 62.998, 130.290 62.991 C 127.656 62.987, 123.170 62.703, 120.321 62.360 L 115.143 61.738 125.148 46.779 C 130.651 38.551, 134.904 31.570, 134.600 31.266 C 134.295 30.962, 124.333 31.964, 112.460 33.494 C 95.803 35.639, 90.603 36.003, 89.687 35.087 C 89.034 34.435, 87.099 30.210, 85.387 25.700 C 83.674 21.190, 81.874 17.500, 81.387 17.500 C 80.899 17.500, 80.362 19.413, 80.193 21.750 C 80.023 24.087, 79.573 25.982, 79.193 25.961 C 78.812 25.939, 74.679 22.564, 70.010 18.461 C 65.340 14.357, 61.290 11.010, 61.010 11.022 C 60.729 11.034, 56 21.458, 50.500 34.186 M 60.545 18.195 C 46.419 51.577, 42.219 59.759, 30.766 76.209 L 19.132 92.919 22.316 94.817 C 24.067 95.861, 28.987 98.611, 33.250 100.928 C 37.862 103.434, 41 105.779, 41 106.718 C 41 107.585, 40.294 120.119, 39.431 134.569 C 38.568 149.020, 38.005 162.266, 38.181 164.005 C 38.496 167.132, 38.741 167.265, 60.408 176.083 L 82.317 185 110.813 185 L 139.309 185 159.904 177.870 C 171.232 173.948, 181.014 170.460, 181.642 170.120 C 182.397 169.711, 180.188 164.324, 175.142 154.267 L 167.500 139.035 149.764 149.893 L 132.028 160.751 101.764 161.226 C 85.119 161.487, 71.205 161.431, 70.844 161.101 C 70.169 160.483, 64 121.654, 64 118.024 C 64 116.911, 64.580 116, 65.289 116 C 65.998 116, 68.430 111.515, 70.694 106.032 L 74.811 96.065 71.236 84.535 C 69.270 78.194, 67.436 73.231, 67.160 73.506 C 66.885 73.782, 65.679 80.538, 64.481 88.519 C 62.348 102.723, 61.708 105.042, 60.309 103.642 C 59.458 102.792, 67.814 44.829, 68.955 43.663 C 70.500 42.084, 71.098 44.984, 71.701 56.983 C 72.033 63.592, 72.507 69, 72.754 69 C 74.021 69, 94 57.723, 94 57.008 C 94 56.547, 92.611 52.532, 90.912 48.085 L 87.825 40 83.412 40 L 79 40 78.955 34.750 L 78.909 29.500 70.426 22.195 L 61.944 14.891 60.545 18.195 M 82.015 27.191 C 82.007 28.121, 82.450 29.160, 83 29.500 C 84.266 30.282, 84.266 28.958, 83 27 C 82.165 25.707, 82.029 25.734, 82.015 27.191 M 82 34.965 C 82 36.482, 82.652 37, 84.559 37 C 87.340 37, 87.064 35.640, 83.944 33.970 C 82.315 33.098, 82 33.259, 82 34.965 M 110.500 36.523 C 101.700 37.756, 94.373 38.818, 94.218 38.883 C 94.063 38.947, 97.325 41.956, 101.468 45.569 C 105.611 49.182, 109 52.463, 109 52.861 C 109 53.258, 106.483 54.818, 103.406 56.327 C 98.995 58.490, 97.957 59.433, 98.496 60.785 C 98.871 61.728, 100.285 65.454, 101.636 69.064 L 104.094 75.628 128.132 79.232 C 141.353 81.215, 152.384 83.051, 152.646 83.313 C 152.908 83.575, 148.145 91.572, 142.061 101.084 C 135.977 110.597, 131.003 118.632, 131.006 118.940 C 131.009 119.248, 137.132 121.250, 144.611 123.389 C 154.653 126.261, 158.403 126.966, 158.947 126.086 C 159.927 124.501, 170.457 75.112, 169.919 74.626 C 169.688 74.418, 161.850 72.417, 152.500 70.179 C 139.974 67.180, 132.276 65.926, 123.250 65.413 C 116.513 65.030, 111 64.403, 111 64.020 C 111 63.637, 114.957 57.288, 119.794 49.912 C 124.631 42.535, 128.932 35.938, 129.353 35.250 C 130.290 33.719, 130.701 33.691, 110.500 36.523 M 93.617 47.750 C 95.008 51.462, 96.510 54.875, 96.956 55.334 C 97.402 55.792, 99.429 55.315, 101.460 54.273 L 105.153 52.378 98.673 46.689 C 95.109 43.560, 91.944 41, 91.641 41 C 91.338 41, 92.227 44.038, 93.617 47.750 M 68 63.752 C 68 65.448, 67.727 67.548, 67.393 68.418 C 67.004 69.431, 67.330 70, 68.298 70 C 69.495 70, 69.697 69.115, 69.267 65.750 C 68.603 60.549, 68 59.597, 68 63.752 M 84.770 65.818 C 79.968 68.393, 76.031 70.744, 76.020 71.042 C 75.998 71.626, 100.024 75.325, 100.501 74.810 C 101.212 74.043, 95.649 61.007, 94.636 61.068 C 94.011 61.105, 89.571 63.242, 84.770 65.818 M 71.006 74.250 C 71.009 74.388, 72.542 79.367, 74.413 85.315 L 77.814 96.129 73.833 105.657 C 71.643 110.898, 69.998 115.314, 70.176 115.472 C 70.354 115.629, 80.737 116.082, 93.250 116.478 C 109.387 116.989, 116 116.882, 116 116.112 C 116 114.727, 102.982 79.744, 102.106 78.775 C 101.157 77.726, 70.985 73.336, 71.006 74.250 M 105.985 79.750 C 105.974 80.283, 118.676 115.177, 119.420 116.659 C 119.464 116.746, 121.483 116.971, 123.906 117.159 L 128.311 117.500 138.544 101.500 C 144.171 92.700, 148.712 85.423, 148.634 85.330 C 148.436 85.091, 108.479 79, 107.114 79 C 106.501 79, 105.993 79.338, 105.985 79.750 M 121.557 122.250 C 122.543 125.459, 122.851 125.586, 124.422 123.438 C 126.103 121.139, 125.590 120, 122.874 120 C 121.253 120, 120.999 120.434, 121.557 122.250" stroke="none" fill="black" fill-rule="evenodd"/>
</svg>