<svg xmlns="http://www.w3.org/2000/svg" width="200" height="200" viewBox="0 0 200 200" version="1.1">
	<path d="M 45.374 29.436 C 32.654 37.721, 22.453 44.725, 22.704 45 C 22.956 45.275, 30.707 45.725, 39.931 46 L 56.701 46.500 42.788 70.985 L 28.875 95.470 29.961 103.985 C 30.559 108.668, 31.289 113.698, 31.584 115.162 C 31.879 116.625, 37.234 124.275, 43.484 132.162 L 54.849 146.500 51.612 150 C 29.637 173.763, 18.888 186.267, 19.366 187.510 C 19.779 188.587, 25.240 185.599, 40.710 175.833 C 52.145 168.614, 65.263 160.356, 69.863 157.480 L 78.225 152.252 89.602 126.876 C 95.860 112.919, 101.649 100.150, 102.467 98.500 C 103.806 95.799, 103.894 98.238, 103.346 123 L 102.737 150.500 124.442 169.765 C 145.994 188.893, 146.163 189.017, 148.371 187.265 C 160.903 177.318, 194.953 147.376, 194.662 146.559 C 194.141 145.096, 193.925 145.130, 162.759 151.596 C 147.502 154.762, 134.830 157.160, 134.601 156.926 C 134.153 156.469, 129 102.890, 129 98.693 L 129 96.178 135.389 98.713 C 143.250 101.832, 142.974 100.704, 142.989 129.750 C 142.995 141.438, 143.338 150.993, 143.750 150.984 C 144.756 150.963, 183.256 88.017, 183.393 86.171 C 183.465 85.193, 175.924 81.555, 160.199 74.982 L 136.898 65.242 116.304 71.766 L 95.709 78.290 80.355 75.978 C 71.910 74.707, 65 73.335, 65 72.931 C 65 72.526, 71.638 66.680, 79.750 59.940 C 87.862 53.199, 95.181 47.107, 96.014 46.401 C 97.281 45.327, 100.536 46.423, 115.922 53.101 C 126.038 57.493, 134.807 60.954, 135.408 60.793 C 137.183 60.317, 181.325 37.245, 183.413 35.702 C 185.127 34.436, 183.098 33.859, 163.913 30.161 C 146.993 26.899, 137.779 25.718, 120 24.534 C 107.625 23.710, 93.633 22.761, 88.907 22.424 L 80.315 21.813 71.974 43.890 C 67.387 56.032, 63.533 65.862, 63.412 65.733 C 63.290 65.605, 64.492 54.250, 66.084 40.500 C 67.676 26.750, 68.870 15.246, 68.739 14.936 C 68.608 14.626, 58.093 21.151, 45.374 29.436 M 47.122 31.549 L 29.743 43 45.372 43 C 53.967 43, 61 43.302, 61 43.671 C 61 44.039, 54.424 55.963, 46.387 70.166 L 31.774 95.991 33.060 106.084 L 34.346 116.176 46.173 131.178 C 52.678 139.429, 58 146.397, 58 146.662 C 58 146.927, 51.475 154.279, 43.500 163 C 35.525 171.721, 29 179.101, 29 179.399 C 29 179.799, 73.969 152.010, 75.812 150.470 C 76.143 150.194, 101.539 94.060, 103.048 90.269 C 103.536 89.042, 104.513 88.260, 105.218 88.530 C 106.233 88.919, 106.426 95.343, 106.145 119.324 L 105.790 149.626 125.445 167.063 C 136.255 176.653, 145.502 184.642, 145.994 184.815 C 146.487 184.988, 156.477 176.929, 168.195 166.907 C 180.702 156.208, 188.468 148.936, 187 149.295 C 185.625 149.631, 174.600 151.958, 162.500 154.467 C 150.400 156.975, 138.715 159.448, 136.532 159.963 C 134.350 160.477, 132.373 160.706, 132.138 160.472 C 131.661 159.995, 125.278 92, 125.711 92 C 127.290 92, 144.267 99.556, 144.560 100.389 C 144.775 101, 145.299 110.705, 145.725 121.955 L 146.500 142.410 163 115.497 C 172.075 100.695, 179.636 88.054, 179.801 87.407 C 179.967 86.759, 176.817 84.860, 172.801 83.186 C 168.786 81.511, 159.053 77.444, 151.174 74.146 L 136.847 68.151 116.308 74.693 L 95.768 81.236 79.671 78.630 C 70.819 77.197, 63.224 76.376, 62.794 76.806 C 62.364 77.236, 61.544 81.393, 60.972 86.044 C 59.376 99.007, 58.982 101, 58.012 101 C 57.519 101, 56.977 99.088, 56.807 96.750 L 56.500 92.500 54.166 98.833 C 52.882 102.316, 51.995 105.329, 52.195 105.528 C 52.394 105.727, 58.763 102.481, 66.347 98.314 C 75.708 93.171, 80.464 91.064, 81.156 91.756 C 81.716 92.316, 81.798 92.991, 81.337 93.257 C 76.542 96.019, 46.996 112, 46.684 112 C 46.457 112, 49.145 104.463, 52.658 95.250 C 56.170 86.037, 58.967 77.600, 58.873 76.500 C 58.779 75.400, 58.968 73.825, 59.293 73 C 60.191 70.720, 65.727 19.993, 65.072 20.049 C 64.757 20.077, 56.680 25.252, 47.122 31.549 M 81.487 26.250 C 81.239 26.938, 77.704 36.382, 73.632 47.239 C 69.560 58.095, 66.739 66.674, 67.364 66.302 C 67.989 65.931, 74.897 60.283, 82.716 53.752 L 96.932 41.876 115.886 50.055 L 134.841 58.234 154.671 47.978 C 165.577 42.337, 175.094 37.252, 175.821 36.679 C 176.785 35.919, 172.730 34.749, 160.821 32.351 C 148.036 29.777, 138.326 28.628, 116 27.049 C 82.169 24.655, 82.062 24.653, 81.487 26.250" stroke="none" fill="black" fill-rule="evenodd"/>
</svg>