<svg xmlns="http://www.w3.org/2000/svg" width="200" height="200" viewBox="0 0 200 200" version="1.1">
	<path d="M 87 14.191 C 87 14.439, 88.785 18.817, 90.967 23.922 L 94.933 33.202 87.217 32.592 C 71.164 31.322, 26.974 28.843, 26.124 29.165 C 25.635 29.349, 29.248 35.285, 34.151 42.355 L 43.067 55.210 34.380 80.652 C 29.313 95.493, 26.070 106.443, 26.597 106.933 C 27.094 107.395, 37.850 110.136, 50.500 113.023 C 63.150 115.910, 74.257 118.548, 75.182 118.886 C 76.430 119.341, 69.796 125.449, 49.534 142.500 C 34.502 155.150, 22.339 165.644, 22.505 165.820 C 22.670 165.995, 39.430 168.970, 59.749 172.431 L 96.692 178.722 123.596 175.903 C 138.393 174.352, 156.253 172.530, 163.285 171.854 C 173.400 170.882, 175.960 170.337, 175.541 169.246 C 174.457 166.422, 134.660 118.945, 134.016 119.707 C 133.647 120.143, 130.951 126.730, 128.026 134.345 L 122.708 148.191 123.344 158.595 C 123.694 164.318, 123.667 169, 123.283 169 C 122.387 169, 73.628 155.729, 73.111 155.344 C 72.378 154.799, 99.684 119.999, 100.842 120.002 C 103.647 120.009, 170.587 113.737, 170.889 113.439 C 171.103 113.228, 166.695 102.776, 161.094 90.211 L 150.911 67.368 141.861 62.934 C 136.884 60.495, 132.627 58.203, 132.402 57.840 C 131.974 57.148, 143.678 43.461, 157.851 28.078 C 163.162 22.315, 165.711 18.862, 164.851 18.595 C 164.108 18.364, 149.325 17.451, 132 16.566 C 114.675 15.682, 97.463 14.684, 93.750 14.350 C 90.037 14.015, 87 13.944, 87 14.191 M 92.545 20.656 C 93.453 22.770, 94.923 26.413, 95.813 28.750 C 97.113 32.164, 97.930 33.014, 99.966 33.070 C 101.360 33.109, 103.383 33.486, 104.463 33.908 C 106.305 34.628, 106.260 34.784, 103.713 36.453 C 102.221 37.430, 101 38.848, 101 39.604 C 101 42.707, 111.447 66.042, 112.633 65.587 C 113.307 65.329, 115.465 64.816, 117.429 64.447 C 122.280 63.537, 122.077 65.410, 117.048 67.976 L 113.096 69.992 119.649 85.746 C 123.253 94.411, 126.416 102.217, 126.677 103.093 C 127.092 104.486, 125.109 104.774, 110.936 105.380 C 95.489 106.040, 94.134 105.941, 82.360 103.291 C 75.562 101.760, 70 100.248, 70 99.931 C 70 99.614, 76.946 96.695, 85.434 93.445 C 93.923 90.195, 100.686 87.353, 100.462 87.129 C 100.239 86.905, 92.156 87.747, 82.500 89 C 57.741 92.212, 57.740 91.468, 82.482 80.465 C 92.120 76.179, 99.835 72.502, 99.626 72.293 C 99.417 72.084, 92.913 73.507, 85.174 75.456 C 69.013 79.526, 70 79.377, 70 77.749 C 70 76.963, 77.066 74.678, 89 71.605 C 99.450 68.914, 108 66.313, 108 65.825 C 108 64.946, 99.017 42.911, 98.310 42.054 C 98.107 41.809, 94.692 44.786, 90.721 48.670 C 79.989 59.165, 69.785 67.185, 68.631 66.031 C 67.999 65.399, 68.549 64.356, 70.196 63.060 C 83.011 52.980, 97.285 39.185, 96.640 37.504 C 96.327 36.688, 93.688 35.944, 89.815 35.580 C 77.614 34.434, 31.777 31.890, 31.334 32.333 C 31.087 32.580, 34.301 37.757, 38.477 43.837 L 46.069 54.892 37.916 78.696 C 33.433 91.788, 29.705 103.113, 29.632 103.863 C 29.501 105.214, 38.286 107.560, 69.750 114.575 C 76.487 116.077, 82 117.620, 82 118.003 C 82 118.386, 70.075 128.735, 55.500 141 C 40.925 153.265, 29 163.578, 29 163.918 C 29 164.257, 44.637 167.104, 63.750 170.244 L 98.500 175.952 111.422 174.470 C 118.530 173.655, 124.463 172.871, 124.607 172.727 C 124.751 172.583, 112.636 169.136, 97.684 165.067 C 82.733 160.999, 70.102 157.324, 69.615 156.901 C 68.545 155.969, 74.269 147.839, 88.193 130.515 L 98.630 117.530 132.309 114.437 C 150.833 112.736, 166.221 111.112, 166.505 110.828 C 166.789 110.544, 162.934 101.104, 157.938 89.849 L 148.855 69.387 138.016 63.944 L 127.176 58.500 137.175 47 C 142.674 40.675, 150.117 32.446, 153.716 28.713 C 157.315 24.980, 160.062 21.729, 159.821 21.488 C 159.580 21.247, 147.709 20.377, 133.442 19.554 C 119.174 18.732, 103.764 17.779, 99.197 17.435 L 90.894 16.812 92.545 20.656 M 92.748 78.761 C 83.534 82.923, 76.165 86.498, 76.372 86.705 C 76.743 87.076, 114.154 82.213, 114.556 81.742 C 114.979 81.246, 110.708 71.004, 110.116 71.096 C 109.777 71.150, 101.961 74.598, 92.748 78.761 M 96.099 92.245 L 77.698 99.415 85.599 101.247 C 91.943 102.717, 96.321 102.992, 107.815 102.641 C 115.688 102.400, 122.342 101.992, 122.600 101.733 C 123.371 100.962, 116.587 85.021, 115.500 85.049 C 114.950 85.063, 106.220 88.302, 96.099 92.245 M 130.526 135.700 L 125.808 147.490 126.154 159.662 C 126.344 166.357, 126.725 172.047, 127 172.307 C 127.604 172.878, 169.828 168.506, 170.534 167.799 C 170.881 167.452, 140.051 129.069, 135.519 124.205 C 135.367 124.043, 133.121 129.216, 130.526 135.700" stroke="none" fill="black" fill-rule="evenodd"/>
</svg>