<svg xmlns="http://www.w3.org/2000/svg" width="200" height="200" viewBox="0 0 200 200" version="1.1">
	<path d="M 67.500 23.654 C 58.361 25.650, 53.260 27.616, 37.346 35.278 C 26.812 40.350, 18.487 44.779, 18.846 45.120 C 19.206 45.461, 30.011 48.540, 42.858 51.962 C 59.303 56.343, 66.529 57.871, 67.275 57.125 C 68.607 55.793, 69.719 56.171, 46 49.906 C 35.275 47.074, 26.318 44.591, 26.095 44.389 C 25.872 44.188, 32.795 40.578, 41.479 36.368 C 55.075 29.777, 59.023 28.344, 69.885 26.058 L 82.500 23.403 98.614 26.638 L 114.728 29.874 127.508 27.999 L 140.288 26.124 154.894 29.610 C 162.927 31.528, 170.353 33.351, 171.396 33.662 C 172.691 34.048, 168.948 36.017, 159.607 39.864 L 145.922 45.500 124.571 64 C 112.828 74.175, 103.534 82.621, 103.919 82.770 C 104.304 82.918, 115.274 81.456, 128.297 79.520 C 141.319 77.584, 152.543 76.009, 153.237 76.020 C 153.932 76.031, 150 78.505, 144.500 81.517 C 135.890 86.232, 132.285 89.123, 118.566 102.315 L 102.632 117.637 130.066 114.903 C 145.155 113.399, 159.525 111.937, 162 111.653 C 165.423 111.262, 163.867 112.045, 155.500 114.925 C 149.450 117.007, 137.123 122.411, 128.107 126.933 C 115.783 133.114, 111.516 134.835, 110.918 133.867 C 110.006 132.391, 109.758 132.575, 97.775 143.654 C 91.010 149.909, 86.831 152.502, 64.519 164.287 C 50.483 171.700, 39 177.644, 39 177.495 C 39 177.347, 42.072 174.743, 45.826 171.710 C 50.715 167.760, 57.688 159.756, 70.399 143.503 C 80.159 131.023, 87.937 120.604, 87.684 120.351 C 87.430 120.097, 77.385 119.355, 65.362 118.702 C 43.566 117.517, 42.210 116.353, 62.330 116.099 L 70.160 116 69.548 105.750 C 69.212 100.112, 68.696 93.162, 68.403 90.304 L 67.870 85.108 60.702 84.402 L 53.534 83.696 75.017 77.566 L 96.500 71.436 103.767 55.068 C 107.763 46.066, 110.896 38.562, 110.727 38.394 C 110.500 38.167, 77.883 55.391, 66.295 61.857 C 65.633 62.226, 65.415 63.053, 65.811 63.694 C 66.303 64.490, 72.556 61.595, 85.516 54.571 C 95.957 48.913, 104.669 44.426, 104.875 44.600 C 105.081 44.774, 102.878 50.334, 99.979 56.955 L 94.708 68.993 88.604 70.819 C 85.247 71.824, 73.838 75.073, 63.250 78.039 C 51.965 81.202, 44 83.929, 44 84.631 C 44 85.728, 47.578 86.250, 62 87.256 L 65.500 87.500 66.307 99.860 C 66.751 106.658, 66.923 112.411, 66.689 112.644 C 66.455 112.878, 54.287 113.631, 39.648 114.319 C 22.354 115.130, 12.625 115.975, 11.871 116.729 C 10.107 118.493, 12.210 118.712, 49.272 120.624 C 67.847 121.582, 82.922 122.660, 82.772 123.019 C 82.623 123.378, 75.300 132.888, 66.500 144.153 C 51.167 163.781, 49.925 165.088, 36.719 175.487 C 28.421 182.022, 23.301 186.701, 23.850 187.250 C 24.927 188.327, 24.629 188.472, 62.500 168.420 C 89.358 154.200, 92.140 152.472, 100.162 145.033 C 104.926 140.615, 109.201 137.037, 109.662 137.083 C 110.123 137.129, 120.850 148.602, 133.500 162.579 L 156.500 187.991 162.642 181.498 C 166.020 177.927, 172.025 171.409, 175.987 167.014 C 182.965 159.274, 183.117 158.995, 180.846 158.141 C 179.555 157.656, 165.002 152.440, 148.505 146.551 C 132.007 140.661, 118.346 135.680, 118.148 135.481 C 117.949 135.282, 124.472 131.801, 132.643 127.745 C 142.379 122.913, 153.273 118.517, 164.250 114.992 C 175.544 111.366, 181 109.151, 181 108.192 C 181 107.062, 179.921 106.900, 175.750 107.406 C 160.993 109.195, 111.628 113.961, 111.296 113.629 C 111.085 113.419, 117.127 107.454, 124.723 100.373 C 137.420 88.536, 139.556 86.977, 151.248 81 C 162.591 75.202, 166.643 72, 162.637 72 C 161.888 72, 150.339 73.577, 136.974 75.504 C 123.609 77.431, 112.535 78.869, 112.366 78.699 C 112.196 78.530, 120.032 71.497, 129.779 63.071 L 147.500 47.750 163.718 41.074 C 172.637 37.402, 180.207 34.127, 180.538 33.795 C 180.869 33.464, 172.024 30.996, 160.881 28.312 L 140.620 23.431 127.611 25.238 L 114.602 27.044 99.627 24.022 C 91.391 22.360, 83.268 21.057, 81.576 21.126 C 79.884 21.195, 73.550 22.333, 67.500 23.654 M 117.080 140.690 C 120.123 143.929, 153.948 180.963, 155.993 183.295 C 156.377 183.733, 161.530 178.850, 167.444 172.444 C 173.359 166.039, 177.816 160.468, 177.349 160.065 C 176.882 159.661, 165.925 155.593, 153 151.024 C 140.075 146.455, 125.900 141.403, 121.500 139.798 L 113.500 136.879 117.080 140.690" stroke="none" fill="black" fill-rule="evenodd"/>
</svg>