<svg xmlns="http://www.w3.org/2000/svg" width="200" height="200" viewBox="0 0 200 200" version="1.1">
	<path d="M 142.729 35.755 L 137.048 61.500 138.460 82 L 139.871 102.500 134.733 112.214 C 131.907 117.557, 129.397 121.730, 129.155 121.488 C 128.912 121.246, 125.262 106.928, 121.042 89.671 L 113.369 58.293 116.865 51.224 L 120.361 44.154 111.544 32.327 C 106.695 25.822, 102.438 20.171, 102.083 19.769 C 101.728 19.367, 94.477 21.271, 85.969 23.999 C 77.461 26.728, 70.230 28.969, 69.901 28.980 C 69.571 28.991, 68.229 26.300, 66.918 23 C 65.607 19.700, 64.151 17, 63.681 17 C 63.212 17, 54.771 22.288, 44.924 28.750 L 27.020 40.500 27.010 82.121 L 27 123.743 39.022 130.931 C 45.634 134.885, 50.794 138.525, 50.488 139.020 C 50.181 139.515, 42.942 149.659, 34.399 161.561 C 25.857 173.463, 19.013 183.346, 19.191 183.524 C 19.535 183.868, 65.020 168.281, 71.099 165.735 L 74.698 164.228 75.382 153.864 C 75.758 148.164, 76.326 142.037, 76.644 140.250 C 77.218 137.026, 77.269 137, 82.986 137 C 91.826 137, 94.745 137.846, 95.438 140.609 C 95.781 141.974, 96.781 143.003, 97.769 143.007 C 101.116 143.021, 138.292 145.959, 138.525 146.228 C 138.655 146.377, 146.941 158.425, 156.938 173 C 172.501 195.688, 178 202.604, 178 199.490 C 178 197.975, 141.583 143, 140.580 143 C 139.975 143, 138.919 142.100, 138.232 141 C 137.019 139.057, 137.234 139, 145.742 138.996 C 152.983 138.993, 155.764 138.500, 161.797 136.149 C 165.810 134.586, 169.459 132.900, 169.905 132.403 C 170.351 131.906, 170.192 115.975, 169.552 97 L 168.388 62.500 159.099 37 C 153.991 22.975, 149.496 11.165, 149.110 10.755 C 148.725 10.345, 145.853 21.595, 142.729 35.755 M 148.692 21.203 C 148.390 22.467, 146.288 32.067, 144.021 42.538 L 139.900 61.575 141.272 82.447 L 142.644 103.320 136.322 115.106 C 132.845 121.589, 130 127.373, 130 127.960 C 130 128.548, 131.012 130.591, 132.250 132.502 L 134.500 135.975 144.739 135.988 C 153.503 135.998, 155.933 135.618, 161.601 133.349 L 168.223 130.698 167.628 118.599 C 167.301 111.945, 166.768 97.050, 166.445 85.500 L 165.858 64.500 157.814 42 C 153.389 29.625, 149.650 19.367, 149.505 19.203 C 149.359 19.040, 148.993 19.940, 148.692 21.203 M 45.156 31.754 L 28.811 42.500 29.406 69.412 C 29.733 84.214, 30.010 102.214, 30.021 109.412 L 30.043 122.500 42.514 129.858 C 50.406 134.514, 54.733 137.635, 54.298 138.358 C 53.919 138.986, 47.398 148.127, 39.805 158.672 C 32.212 169.216, 26 178.030, 26 178.257 C 26 178.484, 36.314 175.097, 48.919 170.729 L 71.838 162.787 72.522 154.144 C 72.899 149.390, 73.505 143.025, 73.870 140 L 74.533 134.500 84.419 134.868 C 92.775 135.180, 94.218 135.011, 93.744 133.776 C 93.436 132.973, 91.086 124.263, 88.521 114.421 C 85.957 104.578, 83.751 96.418, 83.619 96.286 C 83.488 96.154, 76.222 102.336, 67.473 110.023 C 58.725 117.711, 51.241 124, 50.842 124 C 50.444 124, 49.895 123.640, 49.623 123.200 C 48.976 122.152, 68.360 86.713, 69.853 86.216 C 71.993 85.502, 71.012 88.119, 65.128 98.820 C 61.898 104.694, 58.461 111.075, 57.491 113 C 55.389 117.169, 54.126 118.084, 71.265 103.016 C 79.302 95.950, 82.874 92.169, 82.535 91.086 C 82.263 90.214, 79.607 80.230, 76.633 68.900 C 72.885 54.619, 70.380 47.020, 68.467 44.129 C 66.949 41.836, 65.447 40.220, 65.129 40.537 C 64.811 40.855, 62.261 53.099, 59.462 67.746 C 56.495 83.272, 53.879 94.540, 53.187 94.771 C 51.387 95.371, 51.620 93.660, 57.436 63.504 C 61.531 42.271, 62.563 35.178, 61.706 34.145 C 60.841 33.103, 60.983 32.485, 62.314 31.513 C 64.905 29.618, 64.804 20.989, 62.191 21.004 C 61.811 21.006, 54.145 25.843, 45.156 31.754 M 85.754 26.851 C 77.644 29.408, 71.007 31.970, 71.004 32.543 C 71.002 33.117, 73.068 38.732, 75.596 45.020 C 79.680 55.181, 82.701 60.106, 102.735 89.254 C 115.134 107.295, 125.458 121.875, 125.677 121.656 C 125.897 121.437, 122.530 107.094, 118.196 89.785 L 110.316 58.312 113.692 51.616 C 115.562 47.907, 116.739 44.380, 116.331 43.710 C 115.753 42.760, 101.208 22.963, 100.639 22.351 C 100.562 22.269, 93.864 24.294, 85.754 26.851 M 66 34.250 C 66 35.002, 66.632 36.483, 67.405 37.540 C 68.719 39.336, 68.777 39.283, 68.286 36.716 C 67.729 33.805, 66 31.939, 66 34.250 M 80.531 72.788 C 82.989 82.207, 85 90.228, 85 90.612 C 85 90.996, 85.900 90.495, 87 89.500 C 88.100 88.505, 89 87.242, 89 86.695 C 89 85.345, 77.874 57.735, 76.865 56.581 C 76.423 56.075, 78.072 63.368, 80.531 72.788 M 87.988 75.970 C 89.654 80.010, 91.398 83.806, 91.863 84.407 C 92.740 85.538, 106 117.468, 106 118.448 C 106 118.751, 105.417 119, 104.704 119 C 103.985 119, 100.759 112.724, 97.462 104.909 C 94.191 97.159, 91.275 90.670, 90.980 90.488 C 90.685 90.305, 89.419 90.929, 88.167 91.874 L 85.890 93.592 91.291 114.046 L 96.692 134.500 113.557 135.206 C 122.832 135.595, 130.564 135.769, 130.739 135.594 C 131.008 135.325, 86.864 70.531, 85.445 69.112 C 85.178 68.845, 86.322 71.931, 87.988 75.970 M 98 138.872 C 98 139.443, 99.463 140.131, 101.250 140.402 C 105.691 141.076, 135.328 143.005, 135.689 142.644 C 135.849 142.485, 135.346 141.487, 134.572 140.427 C 133.292 138.675, 131.571 138.470, 115.582 138.167 C 103.892 137.946, 98 138.182, 98 138.872" stroke="none" fill="black" fill-rule="evenodd"/>
</svg>