<svg xmlns="http://www.w3.org/2000/svg" width="200" height="200" viewBox="0 0 200 200" version="1.1">
	<path d="M 43.500 28.088 C 32.500 35.797, 23.381 42.439, 23.235 42.848 C 22.993 43.526, 67.299 49.151, 84.832 50.668 C 92.673 51.347, 92.825 51.469, 94.600 58.544 L 95.217 61 75.858 61.138 C 65.211 61.214, 49.255 61.552, 40.401 61.888 L 24.302 62.500 29.255 78.500 L 34.209 94.500 31.523 107.500 C 30.045 114.650, 28.761 121.335, 28.668 122.356 C 28.524 123.946, 32.448 125.409, 56 132.545 C 71.125 137.127, 83.275 140.925, 83 140.985 C 82.725 141.044, 67.875 143.232, 50 145.846 C 24.922 149.513, 17.500 150.921, 17.500 152.011 C 17.500 153.088, 25.693 154.800, 52 159.220 L 86.500 165.018 104.500 164.004 C 121.688 163.036, 123.875 162.662, 153 155.714 C 175.858 150.261, 183.500 148.070, 183.500 146.969 C 183.500 145.775, 177.106 144.838, 149.292 141.959 C 130.477 140.011, 114.856 138.190, 114.578 137.911 C 114.300 137.633, 128.118 134.784, 145.286 131.580 C 162.454 128.376, 176.786 125.472, 177.135 125.127 C 177.484 124.782, 173.781 118.425, 168.906 111 L 160.042 97.500 160.070 88.500 C 160.095 80.127, 160.470 78.490, 165.449 65 C 168.392 57.025, 170.607 50.184, 170.371 49.798 C 170.135 49.412, 166.805 48.086, 162.971 46.851 C 159.137 45.617, 156 44.339, 156 44.012 C 156 43.685, 162.075 41.429, 169.500 39 C 176.925 36.571, 183 34.316, 183 33.991 C 183 33.665, 172.450 29.914, 159.557 25.656 L 136.113 17.913 112.649 20.070 L 89.185 22.227 76.841 18.114 C 70.052 15.851, 64.273 14.016, 63.999 14.036 C 63.724 14.056, 54.500 20.380, 43.500 28.088 M 60.500 19.407 C 58.850 20.679, 51.200 26.162, 43.500 31.590 L 29.500 41.460 51 44.146 C 62.825 45.624, 76.733 47.154, 81.907 47.547 C 90.859 48.227, 91.278 48.170, 90.564 46.381 C 90.152 45.346, 88.246 40, 86.329 34.500 C 84.412 29, 82.317 23.991, 81.672 23.369 C 80.657 22.390, 65.359 16.918, 63.997 17.047 C 63.723 17.073, 62.150 18.135, 60.500 19.407 M 127 21.552 C 126.175 21.728, 118.750 22.422, 110.500 23.094 L 95.500 24.316 123 33.515 L 150.500 42.714 161.500 38.832 C 167.550 36.697, 173.175 34.695, 174 34.383 C 174.825 34.070, 166.725 30.941, 156 27.428 C 138.180 21.591, 132.352 20.410, 127 21.552 M 86.466 26.750 C 86.840 27.712, 88.720 33.048, 90.644 38.606 L 94.143 48.712 110.322 49.892 L 126.500 51.073 136 47.622 C 141.579 45.595, 144.881 43.929, 144 43.584 C 138.405 41.392, 88.271 25, 87.164 25 C 86.259 25, 86.020 25.601, 86.466 26.750 M 137 50.099 L 125.500 54.046 114.500 53.026 C 100.553 51.734, 96 51.735, 96 53.032 C 96 53.600, 96.624 55.557, 97.386 57.383 L 98.773 60.701 126.136 54.795 C 157.605 48.003, 157.260 48.098, 154.500 46.963 C 151.173 45.595, 148.979 45.988, 137 50.099 M 139.706 56.469 C 128.269 59.926, 118.663 63.003, 118.361 63.306 C 117.496 64.170, 119.045 70, 120.139 70 C 120.678 70, 123.445 68.227, 126.287 66.059 C 129.710 63.449, 131.692 62.501, 132.156 63.252 C 132.577 63.934, 130.494 66.142, 126.928 68.791 C 123.668 71.214, 120.993 73.715, 120.984 74.348 C 120.975 74.982, 121.961 79.652, 123.175 84.726 C 124.389 89.800, 125.047 94.287, 124.637 94.697 C 123.483 95.851, 122.258 93.189, 120.419 85.527 C 117.969 75.320, 118.158 75.453, 112.237 79.746 C 109.389 81.811, 107.070 83.950, 107.085 84.500 C 107.099 85.050, 109.499 92.025, 112.419 100 C 115.530 108.498, 117.366 114.897, 116.854 115.459 C 116.321 116.046, 113.669 114.130, 110.035 110.534 L 104.088 104.649 84.294 110.440 C 61.330 117.158, 62.866 116.812, 62.338 115.388 C 62.111 114.776, 71.167 107.360, 82.463 98.907 C 93.758 90.454, 103 83.007, 103 82.358 C 103 81.372, 99.111 70.178, 98.424 69.187 C 98.260 68.950, 69.557 77.292, 55.750 81.590 C 54.609 81.945, 54 81.603, 54 80.606 C 54 79.690, 55.503 78.663, 57.750 78.043 C 75.820 73.058, 96.419 66.243, 96.791 65.127 C 97.169 63.993, 91.580 63.831, 63.188 64.151 C 44.457 64.363, 28.899 64.768, 28.615 65.051 C 28.332 65.335, 30.113 72.124, 32.573 80.138 L 37.046 94.708 34.123 108.424 C 32.053 118.137, 31.536 122.257, 32.350 122.540 C 32.983 122.761, 45.650 126.568, 60.500 131.001 C 75.350 135.434, 88.287 139.303, 89.250 139.598 C 90.934 140.115, 91.787 143.008, 90.250 142.992 C 87.851 142.967, 32.186 151.202, 30.691 151.804 C 29.604 152.241, 40.598 154.467, 58.223 157.378 L 87.565 162.225 105.032 161.219 C 121.172 160.290, 124.434 159.748, 147.939 154.085 C 161.930 150.714, 173.513 147.821, 173.677 147.656 C 173.952 147.381, 160.088 145.840, 117.250 141.382 C 105.721 140.183, 101 139.324, 101 138.429 C 101 136.967, 100.590 137.058, 141.747 129.351 C 158.933 126.133, 172.995 123.225, 172.997 122.889 C 172.999 122.552, 169.400 116.752, 165 110 L 157 97.723 156.984 89.111 C 156.968 81.214, 157.398 79.313, 162.171 66.175 C 166.507 54.239, 167.136 51.698, 165.938 50.940 C 163.581 49.449, 161.426 49.903, 139.706 56.469 M 117.813 59.683 C 118.534 59.972, 119.397 59.936, 119.729 59.604 C 120.061 59.272, 119.471 59.036, 118.417 59.079 C 117.252 59.127, 117.015 59.364, 117.813 59.683 M 107.079 61.605 C 100.465 63.051, 99.248 63.581, 100.246 64.579 C 100.564 64.898, 104.352 64.043, 108.662 62.681 C 117.410 59.916, 116.775 59.485, 107.079 61.605 M 107.310 66.112 L 101.120 68.036 103.013 73.537 C 104.054 76.562, 105.182 79.485, 105.520 80.032 C 106.101 80.972, 113.838 76.105, 116.104 73.374 C 117.194 72.061, 115.534 63.920, 114.211 64.094 C 113.820 64.145, 110.715 65.053, 107.310 66.112 M 87.057 98.593 C 78.014 105.446, 70.432 111.234, 70.210 111.457 C 69.988 111.679, 76.487 109.859, 84.653 107.412 C 106.144 100.973, 104.498 101.104, 108.964 105.465 L 112.795 109.206 108.655 97.603 C 106.378 91.221, 104.287 86.030, 104.008 86.067 C 103.728 86.104, 96.101 91.741, 87.057 98.593" stroke="none" fill="black" fill-rule="evenodd"/>
</svg>