<svg xmlns="http://www.w3.org/2000/svg" width="200" height="200" viewBox="0 0 200 200" version="1.1">
	<path d="M 79.637 17.782 C 79.395 18.177, 75.510 26.825, 71.004 37 C 66.498 47.175, 62.682 55.635, 62.524 55.799 C 62.365 55.964, 57.914 54.444, 52.633 52.423 L 43.032 48.748 45.939 45.124 C 47.537 43.131, 51.580 38.814, 54.923 35.531 C 60.427 30.125, 62.359 27, 60.196 27 C 59.513 27, 53.381 29.550, 25 41.637 L 21.500 43.128 28.851 45.998 C 32.894 47.576, 36.453 49.120, 36.761 49.428 C 37.069 49.736, 36.538 50.853, 35.582 51.910 C 33.909 53.758, 34.118 54.246, 41.067 64.666 C 45.040 70.625, 47.213 74.580, 45.896 73.455 C 44.578 72.330, 40.446 68.617, 36.713 65.205 C 32.981 61.792, 29.493 59, 28.963 59 C 26.508 59, 28.673 62.136, 36.684 70.185 C 45.120 78.660, 45.299 78.936, 42.934 79.838 C 33.956 83.261, 25 87.413, 25 88.152 C 25 90.334, 36.492 119.900, 37.084 119.241 C 37.450 118.834, 40.812 111.525, 44.554 103 C 48.295 94.475, 51.510 87.304, 51.697 87.065 C 52.282 86.316, 60 94.338, 60 95.695 C 60 96.404, 57.238 101.291, 53.862 106.555 C 49.682 113.073, 48.051 116.451, 48.747 117.147 C 49.443 117.843, 51.778 114.941, 56.069 108.047 C 62.278 98.071, 62.397 97.953, 64.286 99.842 C 66.175 101.731, 66.129 102.205, 61.049 132.629 C 58.214 149.608, 55.554 164.139, 55.138 164.920 C 54.462 166.191, 31.187 171.521, 30.279 170.612 C 30.094 170.428, 32.170 159.752, 34.891 146.888 C 37.851 132.895, 39.476 123.125, 38.936 122.567 C 38.440 122.053, 37.851 121.828, 37.628 122.067 C 36.672 123.089, 26.446 173.530, 27.137 173.817 C 28.214 174.263, 56.351 168.972, 57.191 168.164 C 57.571 167.799, 60.410 152.477, 63.500 134.116 L 69.118 100.732 66.564 98.067 L 64.010 95.401 72.927 81.280 C 77.831 73.514, 82.345 66.224, 82.957 65.081 L 84.069 63.002 79.285 64.908 C 76.653 65.957, 70.787 68.389, 66.250 70.315 C 61.712 72.240, 58 73.622, 58 73.385 C 58 73.149, 59.345 69.991, 60.988 66.366 C 63.444 60.949, 64.289 59.908, 65.738 60.517 C 69.997 62.306, 72.571 61.764, 91.007 55.189 C 101.728 51.365, 110.630 48.572, 110.788 48.982 C 111.428 50.639, 103.955 87.398, 102.675 88.891 C 84.839 109.696, 77.049 119.589, 77.456 120.920 C 77.722 121.789, 80.920 136.225, 84.562 153 C 88.204 169.775, 91.373 183.693, 91.604 183.929 C 92.115 184.450, 167.330 180.989, 167.910 180.418 C 168.401 179.934, 160.963 161.311, 159.514 159.399 C 158.956 158.662, 145.812 154.146, 130.305 149.364 C 102.660 140.837, 102.134 140.625, 103.305 138.498 C 103.962 137.305, 110.091 127.324, 116.925 116.317 L 129.349 96.305 149.425 95.136 C 181.294 93.280, 185 92.896, 185 91.446 C 185 90.733, 182.637 89.457, 179.750 88.608 C 176.863 87.760, 166.268 84.702, 156.206 81.811 L 137.912 76.557 138.599 67.197 C 139.824 50.514, 137.497 52.969, 161.844 42.669 C 174.686 37.237, 182.618 33.376, 181.821 32.945 C 181.095 32.553, 171.469 29.632, 160.431 26.455 L 140.361 20.678 126.661 24.878 L 112.960 29.079 106.230 26.619 C 102.529 25.266, 95.130 22.563, 89.789 20.612 C 84.448 18.661, 79.880 17.387, 79.637 17.782 M 78.992 25.750 C 77.857 28.363, 74.296 36.350, 71.079 43.500 C 65.877 55.060, 65.404 56.638, 66.806 57.750 C 67.673 58.438, 69.246 59, 70.302 59 C 71.358 59, 81.687 55.615, 93.256 51.479 C 104.825 47.342, 114.410 44.079, 114.556 44.229 C 114.703 44.378, 112.992 54.400, 110.755 66.500 L 106.688 88.500 93.413 104.097 L 80.139 119.694 86.826 150.508 L 93.512 181.322 101.506 181.099 C 118.824 180.615, 163.224 178.110, 163.747 177.586 C 164.052 177.281, 162.741 173.330, 160.833 168.807 L 157.364 160.582 127.932 151.436 C 111.034 146.185, 98.601 141.820, 98.736 141.186 C 98.928 140.291, 126.393 95.548, 127.656 94.072 C 127.858 93.836, 137.580 93.059, 149.262 92.344 C 160.943 91.630, 171.850 90.922, 173.500 90.772 C 175.461 90.594, 169.402 88.468, 156 84.632 C 144.725 81.404, 135.375 78.654, 135.222 78.520 C 135.069 78.386, 135.475 71.936, 136.124 64.187 L 137.305 50.096 151.402 44.131 C 159.156 40.851, 167.750 37.183, 170.500 35.981 L 175.500 33.797 159 28.917 C 149.925 26.233, 141.615 24.029, 140.534 24.019 C 139.453 24.008, 132.842 25.805, 125.844 28.012 L 113.120 32.023 98.032 26.512 C 89.733 23.480, 82.518 21, 81.999 21 C 81.480 21, 80.127 23.137, 78.992 25.750 M 41.750 37.321 C 35.287 40.138, 30 42.758, 30 43.141 C 30 43.525, 32.287 44.599, 35.083 45.527 L 40.165 47.216 43.176 44.358 C 46.112 41.571, 54.526 31.901, 53.843 32.099 C 53.654 32.154, 48.213 34.504, 41.750 37.321 M 39.200 52.200 C 38.540 52.860, 38 53.775, 38 54.233 C 38 55.561, 51.957 76, 52.864 76 C 53.738 76, 61.551 59.137, 60.891 58.674 C 60.214 58.200, 41.487 51, 40.931 51 C 40.639 51, 39.860 51.540, 39.200 52.200 M 66.500 73.014 C 56.228 77.344, 54.575 78.530, 55.573 80.853 C 55.963 81.759, 56.331 83.427, 56.391 84.559 C 56.493 86.489, 61.703 93.694, 62.404 92.876 C 63.032 92.141, 74.923 73.012, 75.987 71.024 C 77.362 68.456, 77.266 68.476, 66.500 73.014 M 37.500 84.956 C 32.550 86.977, 28.500 89.051, 28.500 89.565 C 28.500 91.390, 36.276 112, 36.965 112 C 37.350 112, 39.284 108.287, 41.262 103.750 C 43.241 99.213, 45.990 92.959, 47.372 89.853 C 49.718 84.579, 49.772 84.108, 48.192 82.743 C 46.687 81.443, 45.504 81.688, 37.500 84.956" stroke="none" fill="black" fill-rule="evenodd"/>
</svg>