<svg xmlns="http://www.w3.org/2000/svg" width="200" height="200" viewBox="0 0 200 200" version="1.1">
	<path d="M 98 22.560 C 84.525 24.409, 73.452 25.939, 73.392 25.961 C 73.333 25.982, 74.317 30.378, 75.579 35.730 C 76.841 41.081, 77.789 45.534, 77.687 45.624 C 77.584 45.715, 74.125 46.245, 70 46.802 L 62.500 47.815 48 39.238 C 40.025 34.521, 32.542 30.046, 31.371 29.295 C 29.605 28.162, 29.154 28.156, 28.730 29.261 C 28.390 30.148, 35.084 34.744, 48.744 43.002 L 69.270 55.410 61.885 57.836 C 53.539 60.577, 14 84.373, 14 86.654 C 14 87.394, 14.277 88, 14.617 88 C 14.956 88, 26.907 84.576, 41.175 80.392 C 55.443 76.207, 67.276 72.945, 67.471 73.142 C 67.666 73.339, 67.275 76.200, 66.601 79.500 L 65.375 85.500 59.438 85.305 C 56.172 85.197, 52.263 84.871, 50.750 84.580 C 49.238 84.288, 48 84.480, 48 85.007 C 48 87.155, 62.510 111.837, 63.109 110.709 C 63.463 110.044, 64.527 105.225, 65.472 100 C 66.418 94.775, 67.353 90.239, 67.550 89.919 C 67.930 89.303, 87.996 91.662, 88.744 92.411 C 88.986 92.653, 75.756 103.969, 59.342 117.558 C 42.929 131.146, 28.908 142.813, 28.185 143.483 C 27.121 144.469, 28.746 146.372, 36.685 153.436 C 46.051 161.770, 47.757 162.798, 74 175.923 L 101.500 189.676 130.915 173.471 L 160.331 157.265 166.144 139.383 C 169.342 129.547, 171.967 121.247, 171.979 120.938 C 171.990 120.629, 160.083 114.779, 145.519 107.938 C 130.954 101.097, 119.383 95.382, 119.805 95.238 C 120.227 95.094, 134.216 92.759, 150.890 90.051 C 167.565 87.342, 181.391 84.942, 181.615 84.718 C 181.948 84.386, 170.198 77.139, 156.112 68.988 C 154.676 68.157, 151.025 66.045, 148 64.294 C 142.884 61.334, 131.067 50.504, 132.059 49.684 C 132.301 49.483, 144.200 46.276, 158.500 42.557 C 196.597 32.650, 197.357 32.429, 197.779 31.162 C 197.992 30.523, 197.599 30, 196.905 30 C 195.275 30, 129.885 47.051, 128.300 47.889 C 126.697 48.737, 140.358 63.303, 145 65.696 C 148.453 67.476, 148.088 67.504, 117.598 67.765 C 100.602 67.910, 86.509 67.843, 86.281 67.614 C 85.882 67.215, 83.109 56.252, 83.036 54.784 C 83.016 54.390, 90.425 51.720, 99.500 48.850 C 109.833 45.583, 116 43.141, 116 42.316 C 116 40.669, 116.985 40.629, 99.359 42.993 C 91.186 44.089, 83.596 44.989, 82.491 44.993 C 80.793 44.999, 80.200 43.748, 78.664 36.911 C 77.664 32.461, 77.019 28.648, 77.230 28.436 C 77.442 28.225, 88.445 26.642, 101.682 24.918 L 125.749 21.784 144.125 24.817 C 155.171 26.640, 162.872 27.487, 163.433 26.941 C 163.947 26.442, 164.172 25.853, 163.933 25.633 C 163.306 25.054, 126.487 18.981, 124.321 19.100 C 123.320 19.154, 111.475 20.712, 98 22.560 M 88.523 47.114 C 80.946 48.218, 80.900 48.236, 81.898 49.843 C 82.578 50.936, 84.199 50.723, 90.616 48.695 C 98.915 46.073, 98.391 45.677, 88.523 47.114 M 68.126 49.722 C 65.816 50.160, 65.840 50.224, 69.035 52.167 C 73.199 54.700, 79 53.994, 79 50.955 C 79 49.300, 78.347 49.021, 74.750 49.136 C 72.412 49.211, 69.432 49.475, 68.126 49.722 M 77.323 55.759 C 74.276 56.264, 73.294 57.784, 72.480 63.250 L 71.773 68 77.503 68 C 82.962 68, 83.204 67.893, 82.616 65.750 C 82.277 64.513, 81.715 61.803, 81.368 59.728 C 80.662 55.504, 80.401 55.248, 77.323 55.759 M 62 60.742 C 55.425 63.007, 22.773 82.030, 25.539 81.984 C 26.068 81.975, 35.932 79.161, 47.460 75.730 L 68.420 69.492 69.571 63.746 C 70.204 60.586, 70.447 58.036, 70.111 58.079 C 69.775 58.122, 66.125 59.321, 62 60.742 M 73.252 70.706 C 71.948 70.957, 70.812 72.055, 70.548 73.319 C 68.870 81.350, 67.996 86.322, 68.229 86.510 C 68.816 86.982, 87.278 89.055, 87.644 88.689 C 87.859 88.475, 87.086 84.182, 85.927 79.150 L 83.821 70 79.660 70.136 C 77.372 70.211, 74.488 70.467, 73.252 70.706 M 87.081 72 C 87.332 76.535, 91.656 89.347, 93 89.536 C 93.825 89.653, 98.521 90.282, 103.436 90.936 C 108.351 91.589, 112.635 92.209, 112.956 92.312 C 113.277 92.415, 121.181 87.775, 130.520 82 L 147.500 71.500 141.500 71.263 C 138.200 71.133, 124.587 70.908, 111.249 70.763 C 90.212 70.535, 87.009 70.699, 87.081 72 M 136.486 81.593 C 121.849 90.729, 120.053 92.115, 123.500 91.613 C 141.666 88.969, 173.997 83.480, 173.986 83.043 C 173.974 82.584, 156.187 72.002, 154.155 71.245 C 153.779 71.105, 145.828 75.762, 136.486 81.593 M 53.030 88.750 C 53.046 89.162, 55.017 93.032, 57.409 97.348 L 61.758 105.196 63.138 97.348 L 64.517 89.500 62.009 88.868 C 58.359 87.949, 52.995 87.879, 53.030 88.750 M 96 93.429 C 96 93.753, 100.950 103.910, 107 116 C 113.050 128.090, 118 138.243, 118 138.560 C 118 138.878, 114.513 136.705, 110.250 133.731 C 105.987 130.758, 101.986 128.030, 101.358 127.670 C 100.042 126.916, 99.912 126.256, 106.450 153.355 C 108.953 163.726, 111 172.579, 111 173.029 C 111 173.777, 79.676 154.961, 77.603 152.968 C 76.772 152.170, 81.410 117.889, 82.908 113.755 C 83.460 112.232, 84.236 112.513, 89.020 115.973 C 92.034 118.152, 94.771 119.950, 95.102 119.968 C 95.671 119.998, 90.559 97.226, 89.834 96.501 C 89.647 96.314, 76.333 107.037, 60.248 120.330 L 31.003 144.500 38.752 151.756 C 45.888 158.440, 48.610 160.078, 73.211 172.506 C 87.901 179.928, 100.472 186, 101.146 186 C 101.820 186, 114.910 179.137, 130.235 170.750 L 158.099 155.500 163.177 139.500 C 165.969 130.700, 168.309 123.125, 168.377 122.667 C 168.445 122.208, 159.500 117.556, 148.500 112.327 C 114.034 95.946, 110.076 94.321, 102.750 93.551 C 99.037 93.160, 96 93.106, 96 93.429 M 92.318 94.750 C 92.557 95.162, 94.181 101.617, 95.926 109.093 L 99.098 122.686 105.049 126.792 C 108.322 129.051, 111 130.692, 111 130.439 C 111 129.427, 92.951 94, 92.436 94 C 92.131 94, 92.078 94.338, 92.318 94.750 M 84.674 119.250 C 83.525 124.010, 79.659 150.992, 80.069 151.390 C 81.153 152.443, 106.491 167.843, 106.736 167.597 C 106.888 167.445, 104.696 157.686, 101.865 145.910 L 96.718 124.500 91.419 120.750 C 88.504 118.688, 85.917 117, 85.668 117 C 85.420 117, 84.972 118.013, 84.674 119.250" stroke="none" fill="black" fill-rule="evenodd"/>
</svg>