<svg xmlns="http://www.w3.org/2000/svg" width="200" height="200" viewBox="0 0 200 200" version="1.1">
	<path d="M 92.579 34.183 C 98.300 47.484, 103.206 59.071, 103.481 59.933 C 103.908 61.272, 102.987 61.453, 97.152 61.174 L 90.323 60.849 87.412 53.752 L 84.500 46.655 54.082 38.285 C 26.847 30.791, 18.695 29.198, 21.583 31.935 C 22.087 32.413, 30.271 36.978, 39.769 42.081 C 49.965 47.559, 56.558 51.655, 55.865 52.084 C 55.219 52.483, 49.585 53.610, 43.345 54.589 C 35.770 55.777, 32 56.790, 32 57.639 C 32 58.338, 33.463 59.140, 35.250 59.422 C 38.324 59.906, 82.521 63.010, 86.250 63.003 C 88.638 62.999, 88.638 67.688, 86.250 68.351 C 85.287 68.618, 71.997 69.644, 56.715 70.631 C 41.434 71.618, 28.563 72.667, 28.115 72.962 C 27.666 73.258, 27.569 78, 27.900 83.500 L 28.500 93.500 57.156 93.106 L 85.813 92.713 87.887 96.779 L 89.962 100.845 83.731 101.411 C 80.304 101.722, 68.531 102.424, 57.570 102.971 C 44.731 103.611, 37.389 104.371, 36.935 105.105 C 36.531 105.759, 34.688 106.066, 32.615 105.824 C 30.627 105.592, 28.983 105.424, 28.963 105.451 C 28.716 105.781, 16.371 165.573, 16.510 165.767 C 16.615 165.915, 30.219 168.956, 46.741 172.526 L 76.780 179.017 130.640 178.759 C 165.866 178.590, 184.435 178.154, 184.312 177.500 C 184.209 176.950, 167.203 172.792, 146.520 168.259 C 113.748 161.077, 108.470 159.664, 105.447 157.259 L 101.978 154.500 105.239 153.802 C 107.033 153.418, 122.675 151.446, 140 149.420 C 157.325 147.394, 171.724 145.534, 171.998 145.287 C 172.272 145.040, 169.905 134.637, 166.739 122.169 C 163.138 107.989, 160.223 93.695, 158.955 84 C 157.840 75.475, 156.773 68.042, 156.584 67.481 C 156.395 66.921, 152.811 62.120, 148.620 56.814 C 144.429 51.507, 141.011 46.791, 141.025 46.333 C 141.038 45.875, 149.123 40.325, 158.990 34 C 168.858 27.675, 176.947 22.235, 176.966 21.911 C 176.995 21.416, 86.798 9.923, 83.338 9.981 C 82.699 9.991, 86.857 20.882, 92.579 34.183 M 87.371 14.637 C 87.741 15.662, 92.421 26.684, 97.771 39.132 L 107.500 61.763 115.500 62.366 C 119.900 62.697, 128.113 63.265, 133.750 63.627 C 140.902 64.087, 144 64.662, 144 65.529 C 144 67.046, 139.345 67.738, 123.250 68.616 C 116.513 68.983, 111.024 69.557, 111.054 69.892 C 111.084 70.226, 113.007 74.769, 115.327 79.987 C 119.314 88.952, 119.736 89.506, 123.023 90.061 C 124.935 90.383, 130.029 92.912, 134.342 95.680 L 142.184 100.713 138.967 101.357 C 137.198 101.710, 133.294 102, 130.292 102 C 127.290 102, 124.983 102.340, 125.167 102.755 C 125.350 103.170, 126.326 105.587, 127.337 108.126 C 129.125 112.621, 129.308 112.758, 134.337 113.362 C 137.176 113.703, 141.386 113.987, 143.691 113.991 C 145.996 113.996, 148.106 114.362, 148.379 114.804 C 148.797 115.480, 143.046 140.358, 141.399 145 C 141.101 145.839, 137.993 139.808, 134.343 131.310 C 126.886 113.946, 128.917 115.474, 112 114.500 C 106.225 114.168, 100.212 113.647, 98.638 113.344 L 95.776 112.792 96.487 119.872 C 97.063 125.602, 96.754 128.794, 94.871 136.605 L 92.545 146.256 95.776 148.954 C 98.003 150.813, 99.862 151.538, 101.754 151.285 C 103.264 151.083, 118.806 149.192, 136.292 147.084 C 153.777 144.975, 168.278 143.055, 168.516 142.817 C 168.754 142.580, 166.522 132.736, 163.557 120.943 C 160.413 108.440, 157.280 92.896, 156.040 83.661 L 153.914 67.823 145.468 57.161 C 140.823 51.298, 137.156 46.083, 137.320 45.574 C 137.483 45.065, 144.917 39.895, 153.840 34.085 C 162.762 28.274, 169.711 23.416, 169.281 23.287 C 168.852 23.158, 151.850 21.020, 131.500 18.534 C 111.150 16.048, 92.745 13.735, 90.600 13.394 C 87.096 12.837, 86.767 12.963, 87.371 14.637 M 50.498 44.718 L 66.496 53.410 58.498 54.752 C 54.099 55.490, 49.375 56.377, 48 56.724 C 45.745 57.292, 72.346 59.744, 82.735 59.926 L 86.971 60 84.902 54.750 C 83.764 51.862, 82.711 49.378, 82.562 49.230 C 82.241 48.908, 35.798 35.994, 35.030 36.013 C 34.738 36.020, 41.699 39.937, 50.498 44.718 M 90.998 65.750 C 91 67.696, 91.506 67.990, 94.750 67.926 C 96.813 67.885, 100.484 67.548, 102.908 67.176 C 109.304 66.195, 106.335 64.277, 97.748 63.842 C 91.311 63.516, 90.996 63.605, 90.998 65.750 M 109.649 66.049 C 110.354 66.754, 112.299 66.791, 115.599 66.160 L 120.500 65.224 114.550 65.112 C 110.400 65.034, 108.917 65.317, 109.649 66.049 M 94.193 70.706 C 90.283 71.213, 90.297 71.178, 89.675 81.750 L 89.189 90 102.595 90 C 109.968 90, 116 89.629, 116 89.176 C 116 88.724, 114.262 84.336, 112.138 79.426 L 108.276 70.500 102.888 70.389 C 99.925 70.328, 96.012 70.471, 94.193 70.706 M 57.500 73.220 C 42.650 74.306, 30.387 75.301, 30.249 75.432 C 30.111 75.562, 30.295 79.187, 30.658 83.486 L 31.319 91.303 58.410 90.600 C 73.309 90.214, 85.783 89.583, 86.129 89.199 C 86.475 88.814, 86.988 84.563, 87.268 79.750 C 87.716 72.068, 87.579 71.015, 86.139 71.123 C 85.238 71.190, 72.350 72.134, 57.500 73.220 M 102.744 92.778 L 88.988 93.057 91.085 97.167 L 93.182 101.278 100.742 100.639 C 104.900 100.288, 110.983 100, 114.259 100 L 120.217 100 119.543 97.250 C 119.172 95.737, 118.336 94.050, 117.684 93.500 C 116.983 92.908, 110.888 92.614, 102.744 92.778 M 121 92.351 C 121 92.544, 121.494 94.119, 122.098 95.851 C 123.153 98.878, 123.413 99, 128.801 99 L 134.407 99 128.954 95.526 C 124.190 92.491, 121 91.217, 121 92.351 M 107.805 102.943 C 101.373 103.281, 95.875 103.792, 95.588 104.079 C 95.301 104.366, 95.420 105.928, 95.853 107.550 L 96.639 110.500 111.069 111.605 C 119.006 112.212, 125.644 112.593, 125.820 112.452 C 126.592 111.829, 121.639 102.017, 120.627 102.165 C 120.007 102.255, 114.237 102.606, 107.805 102.943 M 69.500 105.043 C 63.450 105.429, 55.350 105.838, 51.500 105.952 C 47.650 106.065, 44.950 106.321, 45.500 106.520 C 47.379 107.200, 92.196 110.138, 92.719 109.615 C 93.005 109.328, 92.953 107.947, 92.601 106.547 C 91.879 103.670, 91.446 103.642, 69.500 105.043 M 30.131 112.968 C 21.438 154.809, 19.807 163.140, 20.226 163.559 C 20.498 163.831, 33.202 166.741, 48.458 170.027 L 76.196 176 121.848 175.917 C 161.691 175.844, 166.800 175.667, 162 174.526 C 158.975 173.807, 145.530 170.832, 132.123 167.915 C 108.468 162.767, 107.610 162.496, 103.123 158.727 C 98.673 154.989, 98.282 154.862, 92.677 155.333 C 88.077 155.721, 86.962 155.542, 87.368 154.483 C 87.651 153.745, 88.133 151.648, 88.438 149.821 C 88.985 146.553, 88.689 146.244, 69.984 130.539 C 53.079 116.346, 49.576 112.837, 52.334 112.855 C 52.765 112.858, 61.171 119.666, 71.014 127.984 C 80.856 136.302, 89.260 143.110, 89.689 143.113 C 91.237 143.124, 93.955 129.322, 93.977 121.340 L 94 113.180 85.750 112.506 C 81.213 112.135, 67.054 111.068, 54.286 110.134 L 31.072 108.437 30.131 112.968 M 131 116.189 C 131 117.080, 139.151 135.505, 139.876 136.253 C 140.277 136.666, 141.642 132.702, 142.910 127.444 C 144.178 122.185, 145.039 117.706, 144.824 117.491 C 144.233 116.900, 131 115.654, 131 116.189 M 91 151 C 91 151.550, 92.013 151.993, 93.250 151.985 C 95.069 151.972, 95.213 151.784, 94 151 C 92.061 149.747, 91 149.747, 91 151" stroke="none" fill="black" fill-rule="evenodd"/>
</svg>