<svg xmlns="http://www.w3.org/2000/svg" width="200" height="200" viewBox="0 0 200 200" version="1.1">
	<path d="M 54 23.771 C 42.175 29.035, 32.333 33.470, 32.129 33.626 C 31.651 33.990, 36.274 41.892, 38.668 44.804 C 40.193 46.660, 44.691 47.937, 65.500 52.426 C 80.283 55.614, 90.881 57.453, 91.433 56.926 C 91.947 56.435, 92.140 55.806, 91.862 55.529 C 91.585 55.251, 80.206 52.671, 66.577 49.794 L 41.796 44.564 38.788 40.192 C 37.134 37.787, 36.167 35.448, 36.640 34.993 C 37.113 34.539, 46.388 30.278, 57.252 25.526 L 77.003 16.885 93.170 25.942 C 102.062 30.924, 109.824 35.011, 110.419 35.023 C 111.013 35.036, 117.852 32.071, 125.616 28.434 L 139.732 21.820 156.830 27.151 C 172.024 31.888, 173.678 32.613, 171.687 33.656 C 170.454 34.302, 160.233 38.504, 148.973 42.994 C 137.713 47.484, 128.107 51.538, 127.627 52.002 C 127.136 52.477, 128.800 56.600, 131.429 61.423 L 136.105 70 147.802 70.105 L 159.500 70.210 133 78.939 C 115.427 84.728, 106.403 88.169, 106.212 89.153 C 105.982 90.335, 108.529 90.978, 118.764 92.318 C 125.826 93.243, 134.056 94.003, 137.052 94.007 C 140.048 94.011, 145.537 94.301, 149.250 94.652 L 156 95.289 155.989 107.895 C 155.983 114.828, 155.690 122.243, 155.338 124.373 L 154.699 128.245 148.599 127.637 C 129.310 125.712, 128 125.678, 128.010 127.106 C 128.015 127.873, 139.701 136.150, 153.978 145.500 C 168.255 154.850, 179.498 162.651, 178.962 162.835 C 178.426 163.020, 168.203 162.204, 156.244 161.022 L 134.500 158.874 124 147.807 L 113.500 136.740 103.502 159.370 C 98.002 171.816, 93.235 182, 92.907 182 C 92.579 182, 87.675 175.363, 82.008 167.250 C 76.342 159.138, 71.595 152.360, 71.459 152.189 C 71.323 152.018, 62.502 156.680, 51.856 162.549 C 41.210 168.418, 30.475 174.317, 28 175.657 C 24.580 177.510, 29.562 172.136, 48.750 153.273 C 62.638 139.620, 74 128.087, 74 127.644 C 74 127.201, 66.350 127.162, 57 127.558 C 47.212 127.972, 40.009 127.900, 40.021 127.389 C 40.092 124.273, 42.981 92.690, 43.213 92.476 C 43.371 92.331, 51.721 93.356, 61.769 94.754 C 71.816 96.152, 80.220 97.113, 80.444 96.889 C 80.668 96.665, 79.872 91.761, 78.676 85.991 L 76.500 75.500 66 74.709 C 45.116 73.135, 45.928 72.636, 71.225 71.497 C 84.823 70.885, 96.187 70.146, 96.478 69.855 C 97.016 69.317, 106.950 36.118, 106.982 34.750 C 106.992 34.337, 106.413 34, 105.695 34 C 104.865 34, 102.612 40.183, 99.500 51 L 94.610 68 88.555 68.027 C 85.225 68.041, 68.775 68.704, 52 69.500 C 35.225 70.296, 20.488 70.959, 19.250 70.973 C 17.928 70.989, 17 71.619, 17 72.500 C 17 73.384, 17.924 74.007, 19.250 74.016 C 24.474 74.054, 73.167 77.985, 73.881 78.427 C 74.832 79.014, 77.411 92.923, 76.701 93.632 C 76.424 93.909, 68.206 92.977, 58.439 91.561 C 48.672 90.145, 40.590 89.102, 40.478 89.243 C 39.996 89.857, 37.150 129.433, 37.542 130.069 C 37.782 130.456, 44.846 130.558, 53.239 130.295 L 68.500 129.817 40.692 157.050 C 22.981 174.395, 13.231 184.631, 13.841 185.241 C 14.450 185.850, 24.366 180.914, 41.149 171.647 C 55.642 163.644, 68.235 156.822, 69.134 156.486 C 70.382 156.019, 73.414 159.673, 81.956 171.937 C 88.110 180.772, 93.280 188, 93.446 188 C 93.611 188, 98.396 177.570, 104.080 164.822 L 114.412 141.643 123.733 151.509 L 133.053 161.375 154.777 163.605 C 166.725 164.831, 178.863 166.101, 181.750 166.426 C 186.026 166.908, 187 166.737, 187 165.508 C 187 164.638, 175.952 156.726, 160.968 146.864 C 146.650 137.441, 135.073 129.594, 135.240 129.426 C 135.408 129.259, 140.381 129.611, 146.292 130.208 C 152.202 130.806, 157.220 131.113, 157.442 130.891 C 157.664 130.669, 158.168 121.913, 158.562 111.433 L 159.277 92.379 139.389 91.180 C 108.463 89.316, 108.344 90.007, 141.465 79.047 C 157.338 73.794, 169.877 69.128, 169.683 68.547 C 169.466 67.892, 163.374 67.396, 153.418 67.222 L 137.500 66.945 134.024 60.421 C 131.335 55.372, 130.844 53.714, 131.854 53.090 C 132.572 52.646, 144.161 47.857, 157.607 42.447 C 171.333 36.924, 181.494 32.314, 180.777 31.934 C 180.075 31.562, 170.500 28.459, 159.500 25.038 L 139.500 18.817 125.625 25.409 C 117.994 29.034, 111.292 32, 110.732 32 C 110.172 32, 102.418 27.950, 93.500 23 C 84.582 18.050, 76.884 14.045, 76.393 14.099 C 75.902 14.154, 65.825 18.506, 54 23.771" stroke="none" fill="black" fill-rule="evenodd"/>
</svg>