<svg xmlns="http://www.w3.org/2000/svg" width="200" height="200" viewBox="0 0 200 200" version="1.1">
	<path d="M 38.448 35.544 C 32.920 43.220, 28.013 50.133, 27.543 50.906 C 26.660 52.360, 28.301 52.302, 42.250 50.382 L 47 49.728 47 55.257 C 47 61.441, 46.413 62, 39.918 62 C 37.763 62, 36 62.379, 36 62.843 C 36 63.307, 38.237 66.872, 40.972 70.766 L 45.944 77.846 38.222 80.779 C 23.252 86.464, 24.422 86.354, 14.523 83.008 C -1.896 77.458, -1.241 78.808, 22.028 98.500 C 32.426 107.300, 40.937 114.725, 40.941 115 C 40.945 115.275, 36.690 121.017, 31.485 127.759 L 22.023 140.018 32.163 165.716 C 39.548 184.434, 42.496 190.883, 43.014 189.457 C 43.405 188.381, 48.340 168.375, 53.981 145 C 59.622 121.625, 64.329 102.393, 64.440 102.263 C 64.551 102.132, 69.482 103.646, 75.398 105.627 L 86.155 109.229 83.787 111.865 C 82.484 113.314, 78.174 117.989, 74.209 122.253 C 70.244 126.517, 67 130.575, 67 131.270 C 67 131.966, 70.300 142.427, 74.334 154.517 L 81.668 176.500 113.040 180.726 C 137.283 183.992, 144.593 184.673, 145.208 183.726 C 145.646 183.052, 153.439 170.022, 162.527 154.772 L 179.050 127.044 168.165 108.272 C 158.137 90.977, 156.745 89.067, 150.474 84 C 144.667 79.307, 143.995 78.452, 145.892 78.173 C 149.608 77.626, 147.626 75.534, 142.864 74.976 C 139.636 74.597, 137.081 73.381, 133.705 70.614 L 129.022 66.777 130.982 64.139 C 132.059 62.687, 139.469 53.175, 147.447 43 L 161.954 24.500 152.227 23.807 C 140.526 22.973, 73.989 22.677, 73.211 23.456 C 72.909 23.757, 73.617 28.150, 74.783 33.217 C 75.949 38.285, 76.807 42.526, 76.690 42.643 C 76.307 43.026, 53.990 46, 51.496 46 C 49.065 46, 49.061 45.983, 48.781 33.794 L 48.500 21.587 38.448 35.544 M 87.250 25.723 C 81.063 25.911, 76 26.296, 76 26.577 C 76 28.253, 79.412 40.651, 80.076 41.388 C 80.538 41.901, 86.412 41.543, 94.004 40.537 C 101.224 39.581, 107.301 38.968, 107.508 39.175 C 107.715 39.382, 103.419 46.711, 97.962 55.462 C 92.504 64.212, 88.211 71.544, 88.421 71.755 C 88.897 72.230, 133.380 74.921, 133.819 74.501 C 133.994 74.333, 132.068 72.617, 129.540 70.686 L 124.942 67.175 132.777 57.338 C 153.156 31.749, 156.128 27.651, 154.812 26.954 C 153.265 26.135, 103.487 25.228, 87.250 25.723 M 38.681 39.724 C 32.137 48.806, 31.975 49.168, 34.681 48.659 C 36.231 48.367, 39.646 47.846, 42.268 47.500 L 47.036 46.872 46.381 38.686 C 46.020 34.184, 45.675 30.446, 45.613 30.380 C 45.551 30.313, 42.431 34.519, 38.681 39.724 M 91.007 43.692 C 85.785 44.496, 81.309 45.358, 81.058 45.608 C 80.808 45.859, 81.865 51.237, 83.408 57.560 L 86.212 69.058 93.898 56.779 C 98.125 50.025, 101.929 43.938, 102.351 43.250 C 103.252 41.782, 103.477 41.773, 91.007 43.692 M 60.500 47.854 L 49.500 49.500 49.500 56.500 L 49.500 63.500 46 63.821 C 44.075 63.998, 42.102 64.531, 41.616 65.005 C 41.110 65.499, 42.364 68.137, 44.554 71.184 C 46.656 74.108, 48.454 76.625, 48.549 76.778 C 48.645 76.931, 50.023 76.533, 51.611 75.894 C 53.200 75.255, 58.254 74.824, 62.843 74.937 C 69.615 75.104, 71.553 74.809, 73.140 73.373 C 74.535 72.111, 76.400 71.684, 79.641 71.883 C 83.640 72.129, 84.122 71.942, 83.651 70.331 C 83.357 69.324, 81.926 63.438, 80.471 57.250 L 77.826 46 74.663 46.104 C 72.923 46.162, 66.550 46.949, 60.500 47.854 M 52.823 78.138 L 50.145 79.118 54.132 84.809 C 56.324 87.939, 58.476 90.500, 58.913 90.500 C 59.736 90.500, 62.583 87.242, 67.435 80.750 L 70.237 77 62.869 77.079 C 58.816 77.122, 54.295 77.599, 52.823 78.138 M 71.863 79.718 C 70.448 81.248, 67.354 85.110, 64.987 88.300 L 60.684 94.100 62.610 96.679 C 64.068 98.632, 67.435 100.185, 76.479 103.076 C 92.319 108.139, 92.617 107.896, 89.024 92.854 C 87.450 86.264, 86.383 83.932, 83.774 81.385 C 79.029 76.751, 75.113 76.203, 71.863 79.718 M 88.744 80.443 C 89.001 81.787, 92.089 85.649, 95.606 89.026 C 99.123 92.403, 102 95.491, 102 95.887 C 102 96.283, 100.425 98.134, 98.500 100 C 95.108 103.288, 94.401 105.275, 95.553 108.278 C 95.869 109.101, 102.099 111.581, 110.053 114.052 C 122.307 117.858, 126.795 119.966, 122.750 120.015 C 119.582 120.054, 118.694 122.733, 114.447 145.056 C 112.001 157.910, 110 168.556, 110 168.714 C 110 168.871, 109.374 169, 108.608 169 C 107.843 169, 106.985 167.988, 106.702 166.750 C 98.268 129.861, 93.377 111.737, 91.597 110.784 C 89.873 109.862, 88.418 111.019, 79.858 120.116 C 74.484 125.827, 70.067 131.175, 70.043 131.999 C 70.007 133.242, 82.780 172.891, 83.503 173.783 C 83.629 173.938, 96.955 175.825, 113.116 177.976 C 135.799 180.994, 142.757 181.614, 143.629 180.693 C 144.249 180.037, 151.767 167.715, 160.334 153.311 L 175.912 127.122 165.615 109.311 C 155.727 92.207, 154.992 91.232, 147.093 84.750 L 138.867 78 113.572 78 L 88.277 78 88.744 80.443 M 38.810 83.340 C 34.030 85.104, 29.886 86.780, 29.601 87.066 C 29.316 87.351, 34.958 89.524, 42.139 91.894 C 51.227 94.893, 55.515 95.885, 56.243 95.157 C 56.971 94.429, 55.823 91.966, 52.468 87.056 C 49.816 83.175, 47.614 80.030, 47.573 80.067 C 47.533 80.103, 43.589 81.576, 38.810 83.340 M 12 86.215 C 17.787 91.861, 42.221 112.087, 42.938 111.825 C 43.959 111.451, 53 99.962, 53 99.038 C 53 98.701, 46.138 96.234, 37.750 93.556 C 29.363 90.877, 21.150 88.116, 19.500 87.420 C 17.850 86.724, 15.150 85.839, 13.500 85.453 C 10.855 84.835, 10.678 84.925, 12 86.215 M 91.321 90.566 C 91.636 91.630, 92.192 94.188, 92.558 96.250 C 93.336 100.641, 93.885 100.816, 96.880 97.627 L 99.109 95.255 94.929 91.944 C 91.601 89.308, 90.865 89.027, 91.321 90.566 M 41.417 119.250 C 33.328 129.838, 26.359 138.954, 25.932 139.509 C 25.504 140.065, 28.917 149.965, 33.516 161.509 C 38.114 173.054, 41.945 182.275, 42.029 182 C 42.112 181.725, 46.565 163.500, 51.925 141.500 C 58.570 114.223, 61.325 101.266, 60.585 100.765 C 57.642 98.772, 55.443 100.893, 41.417 119.250 M 97.299 115.250 C 102.670 138.675, 108.494 161.052, 108.817 159.500 C 109.045 158.400, 110.905 148.850, 112.949 138.277 L 116.666 119.053 107.580 116.027 C 102.583 114.362, 98.110 113, 97.639 113 C 97.168 113, 97.015 114.013, 97.299 115.250" stroke="none" fill="black" fill-rule="evenodd"/>
</svg>