<svg xmlns="http://www.w3.org/2000/svg" width="200" height="200" viewBox="0 0 200 200" version="1.1">
	<path d="M 99.653 20.455 C 89.287 22.238, 80.494 24.201, 80.113 24.818 C 79.615 25.622, 75.507 25.218, 65.560 23.385 L 51.700 20.832 40.348 32.152 C 31.114 41.359, 29.322 43.602, 30.748 44.166 C 31.711 44.547, 42.446 44.891, 54.603 44.930 C 66.760 44.968, 79.408 45.282, 82.709 45.627 L 88.711 46.255 90.769 51.127 L 92.828 56 88.164 55.979 C 85.599 55.968, 72.962 55.519, 60.081 54.982 C 47.201 54.444, 36.467 54.200, 36.227 54.439 C 35.988 54.678, 40.851 68.863, 47.034 85.961 C 57.527 114.977, 58.416 117.004, 60.388 116.396 C 61.549 116.037, 53.163 124.843, 41.750 135.964 C 30.337 147.086, 21 156.507, 21 156.901 C 21 157.579, 54.988 162.388, 55.510 161.785 C 55.646 161.628, 60.123 154.641, 65.460 146.258 C 70.797 137.875, 75.492 130.814, 75.894 130.566 C 76.295 130.318, 79.469 136.828, 82.948 145.033 L 89.273 159.951 96.386 159.398 C 104.910 158.735, 143.436 156.308, 143.650 156.421 C 143.733 156.464, 145.024 163.700, 146.520 172.500 C 148.016 181.300, 149.539 188.831, 149.906 189.236 C 150.272 189.640, 157.404 173.914, 165.755 154.288 C 174.106 134.662, 180.760 118.427, 180.543 118.210 C 180.326 117.993, 168.415 117.563, 154.074 117.256 C 136.159 116.871, 127.996 116.353, 127.986 115.598 C 127.979 114.994, 127.733 113.600, 127.441 112.500 C 127.031 110.958, 127.663 110.170, 130.204 109.059 C 143.995 103.026, 159.999 94.811, 159.996 93.766 C 159.993 93.070, 157.068 82.013, 153.496 69.196 C 149.923 56.379, 147 45.558, 147 45.149 C 147 44.740, 153.768 40.432, 162.040 35.576 C 170.312 30.720, 176.884 26.550, 176.644 26.311 C 175.858 25.525, 124.926 16.997, 121.674 17.107 C 119.928 17.166, 110.019 18.673, 99.653 20.455 M 101.142 23.047 C 92.145 24.607, 84.610 26.057, 84.397 26.270 C 84.184 26.482, 97.561 29.078, 114.122 32.038 C 141.462 36.925, 144.326 37.622, 145.233 39.612 C 146.211 41.759, 146.438 41.681, 156.366 35.757 C 161.940 32.431, 167.074 29.185, 167.775 28.544 C 168.759 27.645, 164.074 26.532, 147.275 23.675 C 135.299 21.637, 123.700 20.025, 121.500 20.091 C 119.300 20.157, 110.139 21.488, 101.142 23.047 M 43.682 32.789 L 34.864 41.676 60.618 42.319 C 74.782 42.673, 86.516 42.818, 86.692 42.642 C 86.868 42.465, 85.774 39.354, 84.260 35.729 L 81.507 29.136 70.004 27.029 C 63.677 25.871, 57.150 24.693, 55.500 24.412 C 52.796 23.951, 51.630 24.777, 43.682 32.789 M 85.305 31.250 C 85.590 31.938, 86.823 34.862, 88.045 37.750 L 90.267 43 106.883 43.005 C 116.022 43.008, 127.888 43.301, 133.250 43.656 C 142.653 44.279, 143 44.228, 143 42.230 C 143 40.772, 142.185 39.994, 140.250 39.601 C 133.448 38.222, 86.912 30, 85.908 30 C 85.291 30, 85.019 30.563, 85.305 31.250 M 92.245 47.233 C 92.505 47.930, 93.300 50.129, 94.012 52.120 C 95.285 55.677, 95.422 55.750, 101.904 56.363 C 105.532 56.705, 110.638 56.989, 113.250 56.993 C 116.622 56.998, 118 57.401, 118 58.382 C 118 59.341, 115.092 60.287, 108.500 61.474 C 103.275 62.415, 99.007 63.481, 99.015 63.842 C 99.084 66.799, 100.829 66.961, 111.502 65 C 117.488 63.900, 122.524 63, 122.693 63 C 122.862 63, 123 63.659, 123 64.463 C 123 65.268, 118.975 68.717, 114.055 72.126 L 105.109 78.325 106.586 81.861 C 107.399 83.806, 108.174 85.507, 108.308 85.642 C 108.443 85.776, 112.411 87.660, 117.127 89.828 L 125.701 93.771 126.263 99.965 C 126.572 103.371, 127.055 106.389, 127.337 106.671 C 128.119 107.452, 156.962 93.644, 156.937 92.500 C 156.925 91.950, 154.079 81.375, 150.612 69 L 144.310 46.500 118.041 46.233 C 97.172 46.021, 91.870 46.227, 92.245 47.233 M 39.998 57.750 C 39.994 58.937, 57.251 106.411, 58.006 107.293 C 58.656 108.051, 94.146 83.509, 94.830 81.829 C 95.012 81.383, 96.663 80.305, 98.498 79.434 L 101.835 77.850 100.313 74.175 C 99.475 72.154, 98.725 70.427, 98.645 70.337 C 98.565 70.247, 96.578 70.526, 94.229 70.956 C 90.003 71.731, 89.932 71.696, 87.499 67.620 L 85.039 63.500 87.270 62.837 C 88.496 62.473, 90.803 61.886, 92.395 61.532 C 99.189 60.023, 91.982 58.967, 68.463 58.026 C 38.249 56.816, 40.001 56.833, 39.998 57.750 M 98.250 59.689 C 99.213 59.941, 100.787 59.941, 101.750 59.689 C 102.713 59.438, 101.925 59.232, 100 59.232 C 98.075 59.232, 97.287 59.438, 98.250 59.689 M 90.783 64.665 C 89.423 65.037, 89.292 65.495, 90.155 66.876 C 91.596 69.183, 97.250 68.547, 96.790 66.129 C 96.473 64.465, 93.856 63.827, 90.783 64.665 M 107.685 68.317 C 102.107 69.301, 101.895 69.449, 102.505 71.922 C 102.855 73.340, 103.447 74.785, 103.821 75.133 C 104.194 75.481, 107.177 73.794, 110.448 71.383 C 113.720 68.972, 115.745 67.065, 114.948 67.145 C 114.152 67.225, 110.883 67.752, 107.685 68.317 M 101.510 80.983 C 101.075 81.687, 101.327 82.584, 102.093 83.057 C 103.914 84.183, 104.387 83.514, 103.230 81.447 C 102.517 80.172, 102.084 80.055, 101.510 80.983 M 79.037 96.947 C 68.949 104.090, 60.202 110.118, 59.598 110.342 C 58.806 110.636, 58.812 111.083, 59.618 111.943 C 60.482 112.865, 61.605 112.774, 64.545 111.545 C 66.825 110.593, 68.718 110.318, 69.261 110.861 C 69.804 111.404, 61.504 120.305, 48.584 133.032 C 36.713 144.727, 27 154.594, 27 154.958 C 27 155.747, 52.831 159.223, 53.879 158.575 C 54.278 158.328, 59.520 150.461, 65.530 141.091 C 71.539 131.721, 76.729 124.380, 77.064 124.778 C 77.399 125.175, 80.520 132.250, 84 140.500 C 87.480 148.750, 90.591 155.807, 90.913 156.183 C 91.236 156.558, 103.532 156.141, 118.238 155.255 C 132.945 154.369, 145.260 153.927, 145.606 154.273 C 145.952 154.619, 147.084 159.761, 148.123 165.701 C 149.161 171.640, 150.273 177.625, 150.595 179 C 151.052 180.957, 153.957 174.989, 163.978 151.500 C 171.018 135, 176.490 121.212, 176.139 120.860 C 175.787 120.507, 164.819 120.020, 151.765 119.777 L 128.030 119.335 128.597 123.418 C 128.909 125.663, 129.577 129.945, 130.082 132.934 C 132.293 146.019, 129.779 145.122, 123.933 130.737 L 119.365 119.500 114.183 119.198 C 107.932 118.833, 107.165 116.664, 112.500 114.436 C 114.425 113.631, 116 112.737, 116 112.448 C 116 112.160, 113.723 106.396, 110.940 99.641 C 106.181 88.088, 105.662 87.274, 102.190 85.934 C 100.161 85.151, 98.247 84.386, 97.939 84.235 C 97.630 84.083, 89.124 89.804, 79.037 96.947 M 112.105 95.131 C 113.298 98.084, 115.225 102.862, 116.387 105.748 C 118.612 111.274, 119.477 111.834, 122.443 109.665 C 124.027 108.507, 124.175 107.463, 123.566 101.770 L 122.863 95.210 117.682 93.017 C 114.832 91.810, 111.923 90.584, 111.218 90.292 C 110.361 89.938, 110.656 91.546, 112.105 95.131 M 121.729 113.092 C 119.600 114.332, 120.363 116, 123.059 116 C 124.333 116, 125 115.313, 125 114 C 125 111.767, 124.326 111.580, 121.729 113.092 M 123.484 122.616 C 125.693 127.902, 126.199 128.093, 125.825 123.500 C 125.590 120.617, 125.003 119.422, 123.702 119.176 C 122.005 118.854, 121.993 119.048, 123.484 122.616" stroke="none" fill="black" fill-rule="evenodd"/>
</svg>