<svg xmlns="http://www.w3.org/2000/svg" width="200" height="200" viewBox="0 0 200 200" version="1.1">
	<path d="M 97.636 21.594 C 86.710 23.410, 77.557 25.110, 77.294 25.372 C 77.032 25.634, 78.517 28.888, 80.595 32.603 C 82.966 36.843, 83.811 39.142, 82.866 38.779 C 75.899 36.105, 42.695 25.972, 42.276 26.391 C 41.980 26.686, 42.473 29.849, 43.369 33.419 C 44.266 36.990, 45 40.529, 45 41.285 C 45 42.040, 40.501 48.660, 35.003 55.996 L 25.006 69.334 27.365 73.417 C 28.662 75.663, 34.716 86.725, 40.818 98 L 51.912 118.500 62.706 124.500 L 73.500 130.500 52 131.657 C 40.175 132.293, 29.283 132.968, 27.795 133.157 C 25.113 133.497, 25.189 133.658, 36.441 151.500 L 47.792 169.500 71.146 173.669 C 83.991 175.961, 96.392 178.123, 98.705 178.473 L 102.910 179.109 110.205 166.582 C 114.217 159.693, 118.092 154.043, 118.815 154.028 C 119.538 154.013, 134.721 158.819, 152.555 164.709 C 175.775 172.378, 185.288 175.112, 186.061 174.339 C 186.835 173.565, 179.005 168.755, 158.485 157.396 L 129.829 141.533 156.661 137.467 C 179.136 134.060, 183.545 133.124, 183.819 131.700 C 184.109 130.193, 183.030 130, 174.323 129.997 C 168.920 129.996, 155.979 129.697, 145.565 129.333 L 126.629 128.671 138.065 124.287 C 144.354 121.876, 153.662 118.304, 158.750 116.349 C 173.333 110.744, 171.774 110.017, 146.653 110.713 L 125.306 111.304 115.610 107.466 C 109.953 105.227, 106.452 103.348, 107.207 102.956 C 107.918 102.587, 118.536 99.666, 130.802 96.465 C 143.067 93.264, 153.708 90.162, 154.448 89.573 C 155.188 88.983, 158.040 82.301, 160.786 74.724 L 165.779 60.947 155.901 51.810 L 146.023 42.673 160.554 33.212 C 168.546 28.009, 174.892 23.559, 174.657 23.324 C 174.421 23.088, 163.265 22.032, 149.864 20.978 C 136.464 19.923, 123.700 18.888, 121.500 18.677 C 119.300 18.466, 108.561 19.779, 97.636 21.594 M 99.076 24.109 C 89.493 25.707, 81.496 27.171, 81.304 27.363 C 81.112 27.555, 82.650 30.676, 84.722 34.298 C 88.103 40.212, 88.923 40.995, 92.744 41.957 C 95.361 42.616, 97 43.601, 97 44.514 C 97 46.271, 96.887 46.288, 93.565 45.025 C 92.154 44.488, 91 44.286, 91 44.574 C 91 45.797, 94.119 51, 94.851 51 C 95.291 51, 99.065 48.075, 103.238 44.500 C 107.412 40.925, 111.028 38, 111.274 38 C 111.520 38, 112.743 41.586, 113.991 45.969 C 116.173 53.633, 116.217 54.524, 115.123 69.219 C 114.498 77.624, 113.989 85.539, 113.993 86.809 C 113.997 88.079, 113.606 88.874, 113.124 88.577 C 112.642 88.279, 108.280 81.052, 103.430 72.518 C 98.580 63.983, 94.223 57, 93.747 57 C 93.271 57, 87.434 61.740, 80.774 67.534 C 72.569 74.673, 68.339 77.739, 67.650 77.050 C 67.091 76.491, 66.828 75.886, 67.067 75.706 C 70.110 73.405, 91.585 54.453, 91.825 53.856 C 92.004 53.412, 90.915 50.776, 89.404 48.001 L 86.657 42.953 66.625 36.477 C 55.607 32.915, 46.296 30, 45.933 30 C 45.570 30, 45.963 32.887, 46.808 36.415 L 48.342 42.829 38.564 55.914 C 31.596 65.239, 28.975 69.502, 29.444 70.750 C 29.806 71.712, 35.471 82.414, 42.032 94.532 L 53.963 116.564 66.315 123.300 C 84.382 133.153, 84.035 132.580, 72.401 133.338 C 66.955 133.693, 55.750 134.271, 47.500 134.623 C 39.250 134.975, 31.999 135.542, 31.386 135.882 C 30.689 136.269, 33.748 142.053, 39.563 151.344 C 44.673 159.507, 49.072 166.405, 49.339 166.672 C 49.723 167.056, 77.489 172.144, 98.005 175.589 L 101.510 176.177 108.880 163.570 C 112.933 156.637, 116.531 150.808, 116.875 150.617 C 117.219 150.427, 128.964 154.009, 142.975 158.577 C 156.987 163.145, 168.570 166.763, 168.716 166.617 C 168.862 166.472, 158.385 160.478, 145.433 153.299 C 126.866 143.007, 122.373 140.134, 124.192 139.715 C 125.462 139.424, 135.050 137.914, 145.499 136.359 C 167.701 133.057, 166.729 132.153, 140.875 132.058 C 124.174 131.996, 118.999 131.420, 119.002 129.625 C 119.004 129.006, 127.779 125.179, 138.502 121.120 C 149.226 117.061, 158 113.620, 158 113.473 C 158 113.326, 150.688 113.440, 141.750 113.727 L 125.500 114.248 113.718 109.624 C 107.238 107.081, 100.938 105.004, 99.718 105.008 C 96.414 105.021, 60.860 88.898, 61.340 87.604 C 61.886 86.135, 61.873 86.131, 82.069 94.083 C 91.731 97.887, 100.421 101, 101.378 101 C 103.806 101, 152.367 88.027, 153.087 87.185 C 153.889 86.250, 162 63.539, 162 62.230 C 162 61.654, 157.422 56.927, 151.828 51.726 L 141.655 42.269 154.479 33.935 C 161.532 29.351, 166.897 25.477, 166.401 25.326 C 165.356 25.008, 117.976 20.949, 117.091 21.102 C 116.766 21.159, 108.659 22.512, 99.076 24.109 M 102.562 48.632 C 96.408 53.886, 96.044 54.422, 97.298 56.388 C 98.038 57.550, 101.537 63.607, 105.072 69.848 L 111.500 81.196 112.373 67.935 C 113.226 54.962, 112.256 44.894, 110.019 43.511 C 109.554 43.224, 106.198 45.529, 102.562 48.632" stroke="none" fill="black" fill-rule="evenodd"/>
</svg>