<svg xmlns="http://www.w3.org/2000/svg" width="200" height="200" viewBox="0 0 200 200" version="1.1">
	<path d="M 105.500 21.049 C 89 23.717, 75.107 25.922, 74.628 25.950 C 74.148 25.977, 74.315 26.675, 75 27.500 C 76.828 29.702, 75.712 29.383, 68 25.500 C 64.177 23.575, 60.601 22, 60.053 22 C 59.504 22, 51.280 26.769, 41.778 32.597 L 24.500 43.195 55.150 42.525 L 85.800 41.856 91.998 49.997 C 95.406 54.475, 98.039 58.268, 97.848 58.427 C 97.656 58.585, 88.050 57.467, 76.500 55.942 C 64.026 54.295, 55.121 53.534, 54.567 54.068 C 54.053 54.562, 53.833 55.167, 54.078 55.411 C 54.322 55.655, 63.517 57.013, 74.511 58.427 C 85.505 59.841, 95.972 61.245, 97.770 61.548 C 100.598 62.024, 102.469 64.021, 111.590 76.299 L 122.140 90.500 121.449 80 C 121.069 74.225, 120.464 67.700, 120.104 65.500 L 119.449 61.500 110.975 60.325 C 106.314 59.679, 102.408 59.117, 102.295 59.075 C 101.786 58.888, 90 43.056, 90 42.559 C 90 42.252, 91.463 41.991, 93.250 41.980 C 95.210 41.968, 102.452 44.736, 111.500 48.956 C 126.261 55.841, 126.953 56.049, 154.976 62.035 C 170.638 65.381, 183.536 68.205, 183.638 68.309 C 183.741 68.414, 172.063 74.804, 157.687 82.509 L 131.550 96.518 129.898 101.009 C 128.584 104.581, 127.710 105.565, 125.623 105.816 C 124.180 105.990, 122.997 106.215, 122.993 106.316 C 122.989 106.417, 122.089 113.186, 120.993 121.359 C 118.651 138.819, 118.604 140.003, 120.250 139.992 C 121.003 139.987, 123.297 133.730, 126.023 124.242 L 130.546 108.500 149.357 108.228 L 168.169 107.955 167.625 110.728 C 167.326 112.252, 165.193 129.250, 162.887 148.500 C 160.580 167.750, 158.530 183.694, 158.331 183.931 C 157.663 184.731, 121.095 166.512, 121.047 165.356 C 121.021 164.727, 123.250 159.122, 126 152.901 C 128.750 146.680, 131 141.233, 131 140.795 C 131 138.228, 126.238 141.953, 107.778 158.960 L 87.198 177.919 76.349 157.010 L 65.500 136.101 64.839 140.800 C 64.476 143.385, 63.865 152.167, 63.482 160.316 C 62.917 172.344, 62.524 175.031, 61.398 174.599 C 60.635 174.307, 52.021 171.986, 42.256 169.443 C 32.490 166.900, 24.142 164.480, 23.704 164.064 C 23.266 163.648, 31.577 148.862, 42.172 131.205 C 52.767 113.549, 61.534 99.200, 61.653 99.320 C 61.773 99.439, 63.713 106.279, 65.966 114.519 C 68.218 122.758, 70.295 130.158, 70.581 130.962 C 70.898 131.856, 73.494 128.392, 77.258 122.054 L 83.415 111.684 76.958 106.101 C 73.406 103.030, 68.558 98.631, 66.184 96.325 C 63.811 94.019, 61.719 92.214, 61.537 92.316 C 61.032 92.597, 46.113 80.591, 46.053 79.854 C 46.005 79.273, 56.420 77.134, 67.750 75.396 C 70.088 75.038, 72 74.417, 72 74.017 C 72 73.617, 65.855 69.380, 58.344 64.601 C 49.432 58.930, 44.348 56.252, 43.709 56.891 C 42.824 57.776, 47.805 61.360, 62.814 70.636 L 66.128 72.683 54.664 74.842 C 48.360 76.029, 42.481 77, 41.601 77 C 38.522 77, 40.076 78.837, 50.063 87.002 C 55.597 91.528, 59.926 95.741, 59.681 96.365 C 59.437 96.989, 49.984 112.902, 38.675 131.727 L 18.112 165.953 21.806 166.908 C 23.838 167.433, 34.207 170.174, 44.849 172.999 C 55.490 175.825, 64.437 177.896, 64.731 177.603 C 65.024 177.309, 65.661 170.641, 66.147 162.785 C 66.632 154.928, 67.135 147.917, 67.265 147.205 C 67.394 146.492, 71.715 154.019, 76.866 163.932 L 86.231 181.955 89.497 179.227 C 91.294 177.727, 100.333 169.525, 109.586 161 C 118.838 152.475, 126.142 145.950, 125.817 146.500 C 124.499 148.730, 116.893 167.224, 117.185 167.486 C 118.459 168.627, 160.115 188.218, 160.484 187.849 C 160.743 187.590, 162.993 170.531, 165.483 149.939 C 167.974 129.348, 170.285 110.745, 170.619 108.601 L 171.226 104.702 151.613 105.234 C 130.575 105.805, 130.949 105.894, 132.899 100.767 C 133.572 98.995, 140.998 94.552, 162.567 83.017 C 185.249 70.885, 190.931 67.459, 189.418 66.825 C 188.363 66.383, 173.797 63.093, 157.048 59.515 C 129.114 53.546, 125.684 52.582, 115.548 47.850 C 109.472 45.013, 104.153 42.392, 103.730 42.026 C 103.306 41.659, 117.706 40.770, 135.730 40.049 C 153.753 39.328, 170.506 38.457, 172.957 38.113 L 177.414 37.488 158.577 26.744 C 148.218 20.835, 138.787 16.045, 137.621 16.099 C 136.454 16.154, 122 18.381, 105.500 21.049 M 107.500 23.541 C 92.650 25.925, 80.093 27.904, 79.595 27.938 C 77.259 28.098, 83.243 32.654, 89.798 35.706 L 97.097 39.105 131.798 37.506 C 150.884 36.627, 166.911 35.791, 167.413 35.649 C 169.141 35.161, 139.369 19, 136.932 19.102 C 135.594 19.159, 122.350 21.156, 107.500 23.541 M 48.500 31.614 C 42.450 35.249, 37.050 38.678, 36.500 39.235 C 35.826 39.917, 43.104 40.069, 58.838 39.702 C 71.673 39.403, 82.448 38.885, 82.782 38.551 C 83.999 37.334, 79.289 33.962, 70.182 29.532 C 65.057 27.040, 60.557 25.001, 60.182 25.003 C 59.807 25.005, 54.550 27.980, 48.500 31.614 M 86.733 38.124 C 87.412 38.808, 88.219 39.115, 88.526 38.807 C 88.834 38.499, 88.279 37.940, 87.293 37.564 C 85.868 37.022, 85.753 37.136, 86.733 38.124 M 111.692 71.964 C 115.384 76.894, 118.472 80.831, 118.552 80.714 C 118.633 80.596, 118.429 76.919, 118.100 72.541 C 117.433 63.700, 117.057 63.320, 108.739 63.100 L 104.977 63 111.692 71.964 M 65.357 101.600 C 65.680 102.645, 67.131 108, 68.581 113.500 C 70.031 119, 71.442 123.874, 71.718 124.331 C 71.993 124.788, 73.963 122.313, 76.097 118.831 L 79.975 112.500 75.238 108.179 C 72.632 105.803, 69.211 102.923, 67.635 101.780 C 64.927 99.814, 64.802 99.804, 65.357 101.600 M 125.759 109 C 125.433 109.825, 124.924 112.525, 124.628 115 L 124.089 119.500 125.580 115.500 C 126.989 111.721, 127.162 105.450, 125.759 109" stroke="none" fill="black" fill-rule="evenodd"/>
</svg>