<svg xmlns="http://www.w3.org/2000/svg" width="200" height="200" viewBox="0 0 200 200" version="1.1">
	<path d="M 99.990 12.750 C 99.985 13.162, 102.506 20.617, 105.592 29.315 C 108.678 38.013, 111.045 45.277, 110.852 45.457 C 110.658 45.637, 99.475 45.013, 86 44.070 L 61.500 42.355 48.144 35.617 C 40.798 31.911, 34.579 29.088, 34.324 29.343 C 34.069 29.598, 35.890 34.457, 38.370 40.141 L 42.880 50.476 38.440 53.240 C 35.998 54.760, 34 56.156, 34 56.342 C 34 56.528, 36.451 62.251, 39.447 69.060 C 42.442 75.869, 44.760 81.574, 44.597 81.736 C 44.434 81.899, 41.212 81.385, 37.436 80.593 L 30.570 79.154 23.035 86.274 C 18.891 90.190, 15.351 93.753, 15.168 94.193 C 14.986 94.632, 19.711 94.656, 25.668 94.245 C 31.626 93.835, 39.593 93.500, 43.373 93.500 L 50.245 93.500 55.035 104.487 C 57.669 110.531, 59.705 115.706, 59.559 115.987 C 59.414 116.269, 53.304 129.438, 45.983 145.252 C 38.661 161.066, 32.538 173.871, 32.375 173.709 C 32.213 173.546, 33.181 160.833, 34.526 145.457 C 37.406 112.555, 37.352 114, 35.695 114 C 34.704 114, 33.732 121.777, 31.665 146.250 C 28.588 182.693, 28.523 184.326, 30.185 183.772 C 30.836 183.555, 38.443 168.132, 47.088 149.499 C 59.079 123.656, 62.618 115.133, 62.009 113.561 C 61.570 112.427, 59.347 107.279, 57.068 102.121 C 54.790 96.962, 53.055 92.632, 53.213 92.498 C 53.371 92.364, 59.298 91.935, 66.384 91.543 L 79.267 90.831 77.268 94.166 C 67.758 110.028, 63.797 117.130, 64.222 117.555 C 64.498 117.831, 79.523 120.092, 97.611 122.580 C 115.700 125.069, 131.341 127.438, 132.368 127.845 C 133.519 128.301, 121.995 130.620, 102.368 133.883 C 84.841 136.796, 69.487 139.413, 68.250 139.698 C 62.834 140.946, 66.545 143.015, 84.750 148.893 C 98.614 153.371, 105.063 155.997, 109.500 158.971 L 115.500 162.994 131 162.888 C 139.525 162.830, 149.173 162.494, 152.439 162.141 L 158.378 161.500 162.712 147 L 167.046 132.500 163.157 106.077 L 159.268 79.653 163.072 73.767 L 166.877 67.881 159.422 57.763 L 151.967 47.644 154.733 44.572 C 156.255 42.882, 160.649 38.170, 164.498 34.100 C 170.820 27.417, 171.303 26.622, 169.498 25.887 C 167.699 25.155, 102.551 11.993, 100.750 11.998 C 100.338 11.999, 99.996 12.338, 99.990 12.750 M 104 16.250 C 104.001 16.756, 114.132 45.465, 114.407 45.741 C 114.564 45.898, 120.212 46.445, 126.957 46.957 C 133.702 47.469, 139.441 48.108, 139.711 48.377 C 140.970 49.637, 138.180 51.138, 128.976 54.155 C 123.489 55.954, 119 57.810, 119 58.280 C 119 58.981, 122.535 69.345, 129.223 88.250 C 129.873 90.087, 130.910 91.005, 132.348 91.015 C 136.250 91.043, 137.295 92.504, 134.488 94.007 C 132.938 94.836, 132.048 96.082, 132.219 97.183 C 132.443 98.625, 128.902 100.724, 114.815 107.497 C 105.089 112.174, 96.876 116, 96.565 116 C 96.254 116, 96 115.420, 96 114.712 C 96 114.004, 103.200 109.183, 112 104 C 120.800 98.817, 128 94.253, 128 93.859 C 128 93.170, 124.499 92.350, 111.500 89.993 C 107.615 89.288, 101.465 89.186, 94.054 89.702 L 82.609 90.500 75.281 102.894 C 71.251 109.710, 68.083 115.416, 68.241 115.574 C 68.398 115.732, 85.846 118.260, 107.014 121.191 C 138.044 125.489, 145.500 126.811, 145.500 128.011 C 145.500 129.190, 138.062 130.746, 109.750 135.490 C 90.088 138.784, 74 141.743, 74 142.065 C 74 142.387, 80.673 144.749, 88.829 147.315 C 98.980 150.508, 105.615 153.244, 109.863 155.990 L 116.067 160 135.973 160 L 155.879 160 158.508 151.250 C 159.953 146.438, 161.839 140.213, 162.698 137.418 C 164.199 132.532, 164.119 131.394, 160.626 107.918 C 158.628 94.488, 156.904 82.362, 156.797 80.971 C 156.682 79.493, 157.967 76.455, 159.886 73.666 C 161.693 71.039, 162.925 68.247, 162.623 67.461 C 162.322 66.675, 159.133 62.024, 155.537 57.125 C 151.942 52.226, 149 47.884, 149 47.475 C 149 47.066, 152.867 42.519, 157.593 37.370 C 163.118 31.352, 165.707 27.847, 164.843 27.554 C 162.386 26.723, 107.530 15.995, 105.750 15.997 C 104.787 15.999, 104 16.113, 104 16.250 M 39 34.398 C 39 34.627, 40.292 37.693, 41.871 41.212 C 46.660 51.886, 46.666 51.525, 41.648 54.466 L 37.206 57.070 42.785 69.874 L 48.364 82.678 57.682 84.510 C 64.327 85.816, 67 86.759, 67 87.796 C 67 88.891, 67.771 89.096, 70.125 88.625 C 71.844 88.281, 74.976 88, 77.086 88 C 80.905 88, 80.946 87.957, 86.711 77.785 C 94.105 64.738, 97.262 61.743, 107.058 58.481 L 114.784 55.908 113.736 52.492 C 112.484 48.411, 113.791 48.661, 82.859 46.581 L 61.218 45.126 50.109 39.555 C 43.999 36.490, 39 34.170, 39 34.398 M 116.434 51.591 C 116.834 53.189, 117.273 54.606, 117.408 54.741 C 117.542 54.876, 120.768 53.898, 124.576 52.567 C 128.980 51.029, 130.590 50.119, 129 50.066 C 127.625 50.020, 124.071 49.691, 121.102 49.335 L 115.704 48.686 116.434 51.591 M 107.682 61.069 C 99.086 63.864, 96.799 65.971, 90.613 76.803 C 87.526 82.207, 85 86.829, 85 87.074 C 85 87.318, 89.834 87.218, 95.742 86.852 C 104.263 86.324, 108.553 86.581, 116.490 88.093 C 121.993 89.142, 126.579 90, 126.681 90 C 126.782 90, 124.471 83.138, 121.544 74.750 C 118.387 65.703, 115.669 59.434, 114.861 59.339 C 114.113 59.250, 110.882 60.029, 107.682 61.069 M 26 87.092 L 20.500 92.077 26.500 91.559 C 29.800 91.274, 35.987 90.768, 40.250 90.435 C 47.805 89.845, 49.028 89.133, 47.235 86.367 C 46.831 85.743, 43.800 84.700, 40.500 84.048 C 37.200 83.396, 33.825 82.692, 33 82.485 C 32.175 82.277, 29.025 84.350, 26 87.092 M 50.738 88.107 C 51.210 89.913, 51.806 90.129, 54.895 89.618 C 56.878 89.290, 59.625 88.971, 61 88.909 C 62.375 88.846, 60.800 88.186, 57.500 87.441 C 49.760 85.695, 50.099 85.661, 50.738 88.107" stroke="none" fill="black" fill-rule="evenodd"/>
</svg>