<svg xmlns="http://www.w3.org/2000/svg" width="200" height="200" viewBox="0 0 200 200" version="1.1">
	<path d="M 109.558 21.460 L 108.889 25.920 104.657 23.864 L 100.425 21.808 74.962 33.952 C 60.958 40.631, 48.998 46.636, 48.384 47.298 C 47.771 47.959, 42.966 60.242, 37.708 74.593 L 28.147 100.687 23.582 139.093 C 21.072 160.217, 18.768 178.963, 18.463 180.750 C 18.037 183.254, 18.264 184, 19.455 184 C 20.305 184, 21 183.833, 21 183.629 C 21 183.424, 23.258 164.637, 26.017 141.879 L 31.035 100.500 40.474 75.093 C 45.666 61.120, 50.270 49.339, 50.707 48.913 C 51.143 48.488, 62.514 42.911, 75.975 36.520 L 100.450 24.899 104.242 26.609 C 106.844 27.783, 107.887 28.818, 107.568 29.909 C 107.312 30.784, 106.134 35.694, 104.951 40.820 C 103.604 46.658, 102.239 50.355, 101.296 50.717 C 100.468 51.034, 95.812 50.103, 90.949 48.647 C 86.085 47.191, 81.485 46, 80.727 46 C 79.873 46, 74.279 57.715, 66.043 76.750 C 55.221 101.763, 50.430 114.526, 40.369 145.154 C 33.566 165.864, 28 183.339, 28 183.988 C 28 189.031, 31.839 179.228, 42.884 145.984 C 50.974 121.632, 58.701 100.523, 63.923 88.500 C 68.463 78.050, 72.313 69.362, 72.479 69.193 C 72.645 69.024, 74.893 77.687, 77.474 88.443 L 82.167 108 85.692 108 C 88.998 108, 89.176 108.163, 88.557 110.627 C 88.195 112.073, 86.530 119.048, 84.857 126.130 C 83.184 133.211, 81.520 138.825, 81.158 138.606 C 80.796 138.387, 74.898 134.786, 68.051 130.603 C 60.590 126.046, 55.237 123.363, 54.693 123.907 C 54.149 124.451, 59.030 133.557, 66.872 146.629 C 75.824 161.550, 79.570 168.647, 78.729 169.086 C 78.053 169.440, 68.839 171.927, 58.253 174.614 C 47.245 177.409, 39.005 179.993, 39.003 180.651 C 38.999 182.120, 51.481 182.774, 94.697 183.572 L 127.893 184.185 151.697 178.463 C 164.788 175.316, 175.834 172.443, 176.242 172.078 C 176.650 171.714, 169.726 168.683, 160.855 165.343 L 144.726 159.270 155.941 147.694 L 167.155 136.117 145.331 121.559 L 123.507 107 147.647 107 C 167.976 107, 171.875 106.768, 172.351 105.528 C 172.977 103.896, 174.052 104.433, 146.293 92.516 L 128.206 84.751 132.046 76.399 L 135.887 68.047 132.193 67.062 C 130.162 66.521, 124.450 65.143, 119.500 64 C 103.258 60.249, 103.134 60.202, 103.727 57.937 C 104.390 55.400, 102.521 54.980, 137 65.403 C 152.125 69.975, 164.612 73.630, 164.748 73.526 C 164.885 73.422, 166.952 65.420, 169.343 55.743 L 173.690 38.150 142.595 27.558 C 125.493 21.733, 111.214 16.975, 110.864 16.984 C 110.513 16.993, 109.926 19.007, 109.558 21.460 M 112 22.418 C 112 23.198, 111.736 24.525, 111.412 25.368 C 110.965 26.533, 114.229 28.604, 125.071 34.036 C 133.890 38.454, 140.153 41.013, 141.509 40.753 C 144.485 40.185, 153.024 47.335, 151.372 49.012 C 150.526 49.870, 148.969 49.511, 145.155 47.578 C 142.356 46.160, 139.039 45.021, 137.783 45.046 C 136.527 45.071, 128.527 46.799, 120.004 48.887 C 105.077 52.543, 104.637 52.723, 108.004 53.792 C 133.170 61.776, 162.419 69.940, 162.925 69.122 C 164.410 66.719, 170.164 40.771, 169.372 40.050 C 168.246 39.025, 115.310 21, 113.427 21 C 112.642 21, 112 21.638, 112 22.418 M 108.182 39.143 C 106.955 44.171, 106.160 48.493, 106.415 48.748 C 106.669 49.003, 113.256 47.701, 121.053 45.855 L 135.228 42.500 123.253 36.250 C 116.666 32.813, 111.082 30, 110.844 30 C 110.606 30, 109.408 34.114, 108.182 39.143 M 78.548 54.675 C 77.119 57.797, 75.705 61.326, 75.406 62.518 C 74.651 65.527, 91.177 96.663, 92.223 94.202 C 92.620 93.266, 94.331 86.425, 96.023 79 C 97.716 71.575, 99.316 64.766, 99.580 63.869 C 99.968 62.549, 98.338 61.813, 91.030 60.007 C 85.520 58.646, 82 57.277, 82 56.496 C 82 55.770, 84.490 54.595, 87.750 53.782 L 93.500 52.349 87.846 50.674 C 84.736 49.753, 81.957 49, 81.669 49 C 81.382 49, 79.977 51.554, 78.548 54.675 M 93 55.418 L 88.500 56.676 94.329 57.925 C 100.767 59.305, 100.667 59.326, 101.155 56.500 C 101.586 53.999, 99.206 53.684, 93 55.418 M 98.125 81.819 C 94.336 98.111, 93.928 100.912, 95.076 102.751 C 96.397 104.866, 96.528 104.871, 130.451 104.300 C 149.178 103.985, 164.577 103.674, 164.672 103.608 C 164.767 103.543, 155.992 99.699, 145.172 95.068 C 134.352 90.436, 125.322 86.511, 125.105 86.345 C 124.888 86.179, 126.138 82.772, 127.881 78.772 C 129.625 74.772, 131.059 71.087, 131.067 70.582 C 131.080 69.820, 106.696 63.152, 103.500 63.044 C 102.950 63.025, 100.531 71.474, 98.125 81.819 M 77.267 76 C 77.509 76.825, 79.219 83.688, 81.066 91.250 C 84.339 104.646, 84.494 105, 87.096 105 C 92.098 105, 91.492 101.726, 83.867 87.570 C 79.995 80.382, 77.025 75.175, 77.267 76 M 98 107.379 C 98 107.588, 99.079 110.175, 100.398 113.129 C 102.130 117.009, 103.707 124.810, 106.079 141.235 C 107.885 153.740, 109.499 163.834, 109.665 163.668 C 109.965 163.369, 123 108.462, 123 107.500 C 123 107.225, 117.375 107, 110.500 107 C 103.625 107, 98 107.171, 98 107.379 M 91.623 109.750 C 91.342 110.713, 89.470 118.475, 87.463 127 C 85.456 135.525, 83.677 142.642, 83.508 142.816 C 83.340 142.989, 78.100 139.983, 71.865 136.135 C 65.629 132.287, 60.392 129.275, 60.225 129.441 C 60.059 129.608, 65.385 138.831, 72.062 149.938 C 78.738 161.046, 84.018 170.315, 83.796 170.538 C 83.573 170.760, 75.991 172.868, 66.946 175.221 L 50.500 179.500 71 180.112 C 82.275 180.449, 99.988 180.786, 110.362 180.862 L 129.224 181 148.618 176.307 C 159.286 173.725, 167.673 171.319, 167.257 170.959 C 166.840 170.599, 160.569 168.118, 153.319 165.447 L 140.138 160.589 151.445 148.537 L 162.752 136.485 144.278 124.174 C 134.117 117.403, 125.549 112.118, 125.237 112.429 C 124.926 112.740, 121.569 126.159, 117.777 142.248 C 113.985 158.336, 110.476 171.911, 109.978 172.413 C 108.427 173.979, 107.420 169.407, 103.503 143 C 100.613 123.510, 99.161 116.380, 97.344 112.750 C 94.909 107.885, 92.533 106.639, 91.623 109.750" stroke="none" fill="black" fill-rule="evenodd"/>
</svg>