<svg xmlns="http://www.w3.org/2000/svg" width="200" height="200" viewBox="0 0 200 200" version="1.1">
	<path d="M 123.033 17.730 C 118.992 26.403, 115.592 33.628, 115.476 33.784 C 115.281 34.047, 103.452 27.007, 93.712 20.829 C 91.395 19.359, 88.938 18.122, 88.250 18.079 C 85.923 17.932, 86.983 20.019, 90.241 22 L 93.482 23.971 89.491 25.554 C 87.296 26.424, 76.289 31.047, 65.031 35.827 L 44.562 44.519 35.975 73.070 L 27.389 101.621 23.624 142.061 C 21.554 164.302, 19.779 183.625, 19.680 185 C 19.177 191.996, 23.439 184.682, 38.621 152.500 L 55.132 117.500 60.645 86.500 C 63.677 69.450, 66.371 54.839, 66.632 54.031 C 67.026 52.808, 77.273 68.941, 82.492 79 C 83.707 81.343, 83.352 82.095, 76.811 91 C 72.973 96.225, 66.436 105.140, 62.284 110.811 L 54.736 121.122 59.481 139.811 L 64.226 158.500 60.165 167.802 C 57.434 174.058, 56.497 177.225, 57.302 177.475 C 57.961 177.680, 76.725 179.711, 99 181.990 C 121.275 184.268, 141.075 186.361, 143 186.639 C 146.376 187.128, 146.862 186.755, 156.750 176.059 C 162.387 169.961, 167 164.616, 167 164.182 C 167 163.748, 150.541 160.726, 130.424 157.467 L 93.848 151.542 94.538 136.021 C 94.917 127.485, 95.514 120.219, 95.864 119.876 C 96.214 119.533, 98.394 119.016, 100.709 118.727 L 104.918 118.201 108.290 126.851 C 112.176 136.820, 111.890 136.700, 123.723 133.266 L 130.947 131.169 152.723 144.494 C 164.700 151.823, 174.623 157.699, 174.773 157.553 C 174.923 157.407, 173.123 145.884, 170.773 131.947 L 166.500 106.606 155.182 94.853 L 143.863 83.100 145.187 72.300 L 146.510 61.500 166.674 61 L 186.838 60.500 159.478 31.519 C 144.429 15.580, 131.726 2.409, 131.248 2.249 C 130.770 2.090, 127.073 9.056, 123.033 17.730 M 124.640 20.603 C 120.898 28.651, 118.210 35.581, 118.668 36.002 C 119.126 36.424, 124.315 39.724, 130.200 43.337 L 140.899 49.905 144.693 44.737 C 149.116 38.711, 149.594 39.467, 148.113 50.154 C 147.558 54.159, 147.242 57.575, 147.410 57.744 C 147.579 57.913, 155.083 57.927, 164.085 57.775 L 180.452 57.500 160.105 36 C 148.914 24.175, 137.887 12.581, 135.600 10.235 L 131.443 5.970 124.640 20.603 M 71.034 36.147 C 58.127 41.621, 47.383 46.284, 47.157 46.509 C 46.932 46.735, 43.015 59.335, 38.452 74.510 L 30.158 102.101 26.554 139.692 C 24.572 160.368, 23.102 177.435, 23.286 177.619 C 23.470 177.804, 30.203 163.902, 38.247 146.727 L 52.873 115.500 58.979 81 C 62.338 62.025, 65.205 46.087, 65.349 45.582 C 65.494 45.077, 70.422 52.887, 76.300 62.938 C 82.178 72.989, 86.680 81.727, 86.304 82.356 C 85.928 82.985, 79.406 91.988, 71.810 102.363 C 64.215 112.738, 58 121.680, 58 122.236 C 58 122.791, 60.063 131.132, 62.585 140.772 L 67.171 158.300 63.650 166.617 L 60.129 174.934 63.315 175.455 C 65.067 175.743, 84.275 177.808, 106 180.045 L 145.500 184.112 153.720 175.306 C 158.241 170.463, 161.953 166.265, 161.970 165.979 C 161.986 165.692, 148.838 163.300, 132.750 160.664 C 116.662 158.027, 100.670 155.400, 97.211 154.826 L 90.923 153.781 91.507 139.641 C 91.828 131.863, 92.272 124.320, 92.495 122.878 L 92.899 120.257 83.949 120.767 C 79.027 121.048, 75 120.938, 75 120.524 C 75 120.110, 83.788 101.085, 94.529 78.248 C 105.270 55.410, 113.932 36.620, 113.779 36.493 C 111.394 34.512, 96.686 26.026, 95.761 26.097 C 95.067 26.151, 83.940 30.673, 71.034 36.147 M 97.718 77.811 L 79.047 117.500 83.707 117.812 C 91.694 118.347, 93 117.620, 93 112.635 C 93 101.845, 94.333 90, 95.548 90 C 96.234 90, 98.979 95.642, 101.648 102.539 L 106.500 115.077 111.500 114.442 C 114.250 114.093, 121.210 113.063, 126.967 112.153 L 137.435 110.500 138.668 101 C 139.347 95.775, 140.152 89.829, 140.457 87.786 C 141.010 84.089, 140.965 84.034, 130.624 75.715 L 120.236 67.359 124.368 62.687 L 128.500 58.015 136.500 57.757 L 144.500 57.500 144.824 53.528 C 145.144 49.597, 145.127 49.575, 143.120 51.391 C 141.134 53.189, 140.861 53.083, 129.297 45.988 C 122.809 42.008, 117.250 38.610, 116.945 38.437 C 116.639 38.264, 107.987 55.982, 97.718 77.811 M 126.603 63.892 L 123.832 66.785 132.016 73.392 C 136.517 77.027, 140.547 80, 140.971 80 C 141.395 80, 142.054 76.737, 142.436 72.750 C 142.818 68.763, 143.374 64.487, 143.673 63.250 C 144.200 61.070, 143.986 61, 136.795 61 C 129.916 61, 129.172 61.211, 126.603 63.892 M 141.618 99.638 C 140.681 106.668, 139.742 112.591, 139.532 112.801 C 139.322 113.011, 132.254 114.165, 123.825 115.366 C 115.396 116.567, 108.500 117.989, 108.500 118.525 C 108.500 120.224, 113.342 133, 113.986 133 C 114.325 133, 118.346 131.912, 122.921 130.582 L 131.239 128.163 150.744 140.124 C 161.471 146.703, 170.469 151.865, 170.738 151.595 C 171.008 151.326, 169.530 141.214, 167.454 129.125 L 163.679 107.145 153.501 97.001 L 143.323 86.857 141.618 99.638 M 96 107.276 L 96 116.553 99.919 116.179 L 103.837 115.805 101.505 109.653 C 97.339 98.662, 97.056 98, 96.525 98 C 96.236 98, 96 102.174, 96 107.276" stroke="none" fill="black" fill-rule="evenodd"/>
</svg>