<svg xmlns="http://www.w3.org/2000/svg" width="200" height="200" viewBox="0 0 200 200" version="1.1">
	<path d="M 41.044 19.098 C 30.343 23.488, 21.471 27.196, 21.328 27.339 C 21.186 27.481, 20.327 46.251, 19.420 69.049 L 17.771 110.500 21.298 132.829 C 23.238 145.110, 24.977 155.260, 25.162 155.385 C 27.290 156.814, 113.634 174, 118.685 174 C 119.733 174, 120.026 168.970, 120.130 149.250 C 120.202 135.637, 120.540 115.969, 120.880 105.543 L 121.500 86.586 128.842 102.043 L 136.185 117.500 129.237 151 C 125.415 169.425, 122.422 184.661, 122.585 184.857 C 122.911 185.251, 186.250 170.032, 186.913 169.400 C 187.698 168.653, 175.921 130.242, 169.051 111.141 L 162.161 91.986 167.476 82.317 L 172.790 72.648 168.486 60.574 C 166.119 53.933, 163.691 47.233, 163.091 45.685 C 162.491 44.137, 162 42.647, 162 42.375 C 162 41.917, 168.444 42.195, 189.750 43.571 C 196.588 44.013, 198 43.852, 198 42.632 C 198 41.109, 197.519 40.977, 172 35.465 C 163.900 33.715, 158.972 32.145, 158 31.004 C 157.029 29.865, 148.094 27.011, 132.684 22.920 C 108.236 16.428, 108.123 16.417, 106.751 20.296 C 106.596 20.735, 97.106 19.047, 85.662 16.547 C 74.219 14.047, 63.876 11.803, 62.678 11.559 C 61.404 11.301, 52.426 14.429, 41.044 19.098 M 42.807 21.347 C 33.076 25.310, 24.809 28.858, 24.436 29.230 C 24.064 29.603, 23.019 47.591, 22.114 69.204 L 20.470 108.500 23.813 130.495 C 25.652 142.592, 27.326 152.660, 27.534 152.868 C 28.975 154.308, 115.720 171.614, 116.681 170.653 C 116.886 170.448, 117.339 149.723, 117.689 124.598 C 118.213 87.046, 118.566 78.968, 119.674 79.208 C 120.415 79.369, 125.094 87.986, 130.071 98.357 L 139.120 117.214 132.561 148.774 C 128.953 166.133, 126.213 180.546, 126.471 180.805 C 126.865 181.198, 182.957 168.189, 183.771 167.516 C 184.397 166.998, 171.574 126.107, 165.593 109.546 L 159.109 91.592 164.451 82.094 L 169.793 72.596 164.989 59.048 C 162.347 51.597, 159.896 44.777, 159.541 43.894 C 158.907 42.314, 149.440 41.017, 138.500 41.009 L 134.500 41.007 131.456 48.753 L 128.413 56.500 110.099 56.115 C 95.272 55.803, 91.618 55.994, 90.908 57.115 C 90.425 57.877, 90.024 70.088, 90.015 84.250 C 90.003 104.288, 89.720 110, 88.740 110 C 87.940 110, 84.773 100.134, 80.074 83 L 72.668 56 66.441 56 C 61.684 56, 60.071 56.374, 59.607 57.582 C 59.273 58.453, 64.850 75.740, 72 95.999 L 85 132.834 85 144.858 C 85 156.444, 84.323 159.374, 82.254 156.739 C 81.718 156.058, 72.595 139.365, 61.980 119.644 L 42.678 83.788 40.388 87.644 C 39.129 89.765, 37.697 92.163, 37.207 92.973 C 36.334 94.417, 36.072 91.732, 34.362 63.750 L 33.705 53 45.294 53 C 52.065 53, 57.143 52.578, 57.510 51.984 C 57.856 51.425, 58.543 51.217, 59.037 51.523 C 59.531 51.828, 61.488 49.023, 63.386 45.289 C 69.433 33.392, 69.326 33.412, 72.111 43.607 L 74.540 52.500 82.164 52.790 L 89.787 53.080 97.316 38.790 C 101.457 30.931, 104.542 24.212, 104.172 23.861 C 103.631 23.347, 70.292 15.849, 62.500 14.490 C 61.400 14.298, 52.538 17.383, 42.807 21.347 M 110 20.775 C 110 21.895, 110.392 22.011, 124.342 25.024 C 129.755 26.193, 134.374 26.960, 134.605 26.729 C 134.836 26.497, 130.407 25.104, 124.763 23.632 C 119.118 22.160, 113.487 20.688, 112.250 20.361 C 111.011 20.034, 110 20.220, 110 20.775 M 100.615 38.300 C 94.194 50.484, 93.370 52.596, 94.816 53.180 C 95.742 53.554, 103.250 53.890, 111.500 53.926 L 126.500 53.993 129.554 46.247 L 132.609 38.500 145.236 38.847 C 157.582 39.187, 157.852 39.148, 157.324 37.130 C 156.679 34.666, 158.561 35.232, 132 29.522 C 120.175 26.980, 109.960 24.721, 109.300 24.501 C 108.597 24.267, 104.995 29.992, 100.615 38.300 M 136.813 27.683 C 137.534 27.972, 138.397 27.936, 138.729 27.604 C 139.061 27.272, 138.471 27.036, 137.417 27.079 C 136.252 27.127, 136.015 27.364, 136.813 27.683 M 140.813 28.683 C 141.534 28.972, 142.397 28.936, 142.729 28.604 C 143.061 28.272, 142.471 28.036, 141.417 28.079 C 140.252 28.127, 140.015 28.364, 140.813 28.683 M 160.241 37.222 C 160.826 38.978, 164.557 39.799, 172 39.810 L 178.500 39.819 170.500 37.940 C 160.974 35.704, 159.705 35.615, 160.241 37.222 M 65.614 46.849 C 64.102 49.792, 63.074 52.407, 63.329 52.662 C 63.583 52.917, 65.584 52.985, 67.774 52.813 L 71.757 52.500 70.060 47 L 68.363 41.500 65.614 46.849 M 37.106 61.750 C 37.164 64.912, 37.502 71.550, 37.856 76.500 L 38.500 85.500 44.402 75 C 47.648 69.225, 51.403 62.587, 52.747 60.250 L 55.190 56 46.095 56 L 37 56 37.106 61.750 M 76 56.922 C 76 58.452, 86.852 97.185, 87.447 97.781 C 87.751 98.085, 88 88.808, 88 77.167 L 88 56 82 56 C 78.700 56, 76 56.415, 76 56.922 M 58 85.996 L 58 106.325 69.750 128.181 L 81.500 150.037 81.790 141.460 L 82.080 132.882 70.415 99.691 C 63.999 81.436, 58.581 66.313, 58.375 66.083 C 58.169 65.854, 58 74.815, 58 85.996 M 50.095 75.421 L 45.689 83.727 50.437 92.438 C 53.049 97.228, 55.285 101.002, 55.407 100.824 C 55.528 100.646, 55.374 92.988, 55.064 83.807 L 54.500 67.114 50.095 75.421" stroke="none" fill="black" fill-rule="evenodd"/>
</svg>