<svg xmlns="http://www.w3.org/2000/svg" width="200" height="200" viewBox="0 0 200 200" version="1.1">
	<path d="M 133.683 10.750 C 132.395 12.813, 128.765 18.836, 125.615 24.136 C 119.426 34.552, 118.769 35, 109.663 35 C 106.511 35, 105.109 34.427, 103.538 32.497 C 101.681 30.216, 101.034 30.051, 96.250 30.636 C 92.617 31.081, 91 31.727, 91 32.733 C 91 33.901, 91.972 34.054, 95.922 33.511 C 100.510 32.880, 100.965 33.017, 102.610 35.528 C 104.332 38.155, 104.547 38.205, 111.361 37.533 L 118.347 36.845 116.837 39.172 C 115.270 41.586, 91.216 56.113, 89.563 55.642 C 89.048 55.496, 85.597 48.204, 81.893 39.438 L 75.160 23.500 79.080 21.791 C 81.236 20.851, 83 19.614, 83 19.041 C 83 17.631, 81.578 17.732, 77.513 19.430 C 74.316 20.766, 74.049 20.729, 73.460 18.875 C 72.617 16.217, 70.505 17.065, 70.481 20.072 C 70.463 22.210, 68.580 23.298, 52.981 30.177 C 20.972 44.294, 19.577 44.977, 20.608 46.008 C 21.253 46.653, 26.227 45.130, 35.046 41.587 C 42.446 38.615, 48.639 36.318, 48.808 36.483 C 48.978 36.648, 43.474 48.062, 36.577 61.846 L 24.037 86.910 29.221 106.377 L 34.404 125.844 59.679 135.172 C 73.580 140.302, 84.964 144.763, 84.977 145.085 C 84.997 145.593, 73.525 151.041, 34.522 169.049 C 26.223 172.880, 25.690 173.300, 27.463 174.597 C 29.035 175.746, 36.631 175.999, 69.441 175.992 C 104.451 175.985, 168.518 173.815, 169.738 172.595 C 169.975 172.358, 166.681 160.653, 162.418 146.584 L 154.668 121.003 162.899 95.945 L 171.130 70.887 161.677 53.194 L 152.224 35.500 155.862 34.808 C 157.863 34.427, 162.501 34.089, 166.168 34.058 C 179.267 33.944, 179.127 32.333, 165.459 25.935 C 154.102 20.618, 152.533 20.283, 149.559 22.532 C 148.491 23.339, 147.277 24, 146.861 24 C 146.445 24, 144.020 20.175, 141.471 15.500 C 138.923 10.825, 136.655 7, 136.432 7 C 136.208 7, 134.971 8.688, 133.683 10.750 M 129.675 22.688 L 123.140 33.500 126.010 33.809 C 127.921 34.015, 131.415 32.726, 136.467 29.954 L 144.054 25.789 140.380 19.145 C 138.359 15.490, 136.594 12.360, 136.458 12.188 C 136.321 12.017, 133.269 16.742, 129.675 22.688 M 150.250 25.220 C 147.696 26.452, 147.478 27.729, 149.392 30.250 C 150.832 32.147, 154.699 32.439, 163.846 31.341 L 169.193 30.699 161.962 27.349 C 154.096 23.706, 153.584 23.613, 150.250 25.220 M 62.287 29.070 L 54.073 32.868 40.508 59.983 L 26.943 87.099 31.617 104.799 C 34.188 114.535, 36.861 122.970, 37.557 123.545 C 38.253 124.120, 50.787 129.022, 65.411 134.439 C 80.035 139.856, 92 144.561, 92 144.895 C 92 145.229, 78.881 151.577, 62.847 159.001 L 33.695 172.500 67.597 172.839 C 96.547 173.128, 162.143 171.566, 165.622 170.504 C 166.341 170.284, 164.067 161.379, 159.285 145.682 L 151.826 121.203 159.964 96.050 L 168.102 70.897 158.481 52.964 L 148.860 35.032 139.680 35.655 C 131.413 36.217, 129.834 36.664, 123.804 40.152 C 117.311 43.908, 116.860 44.437, 108.953 57.578 C 104.468 65.032, 101.081 71.414, 101.426 71.760 C 101.772 72.105, 113.405 73.257, 127.277 74.318 C 150.695 76.109, 155.446 76.888, 153.687 78.646 C 153.314 79.020, 141.194 80.040, 126.754 80.913 C 112.314 81.786, 100.612 82.838, 100.750 83.250 C 100.888 83.662, 101 84.430, 101 84.955 C 101 85.546, 107.560 85.690, 118.250 85.333 C 133.446 84.825, 135.321 84.931, 134 86.228 C 133.175 87.038, 129.417 90.521, 125.649 93.968 L 118.797 100.235 112.863 99.564 L 106.928 98.893 108.561 102.696 C 109.460 104.788, 110.645 107.737, 111.195 109.250 C 112.367 112.471, 112.792 112.544, 117.454 110.321 C 119.390 109.397, 121.181 108.848, 121.433 109.100 C 122.275 109.942, 129.325 152.008, 128.725 152.609 C 127.403 153.930, 125.992 151.318, 118.958 134.536 C 114.916 124.891, 111.241 117, 110.791 117 C 110.341 117, 103.617 120.184, 95.848 124.076 C 84.289 129.867, 81.503 130.911, 80.512 129.826 C 72.951 121.547, 53.823 100.634, 51.059 97.623 L 47.500 93.747 63 94.389 C 71.525 94.743, 84.058 95.321, 90.851 95.674 L 103.202 96.316 101.038 92.075 C 99.645 89.344, 98.382 88.023, 97.491 88.365 C 96.729 88.657, 82.470 88.971, 65.803 89.062 C 40.899 89.198, 35.458 88.985, 35.262 87.864 C 35.115 87.022, 43.277 81.923, 56.580 74.545 C 68.435 67.970, 78.295 62.332, 78.490 62.016 C 78.922 61.318, 71.706 26.350, 71 25.719 C 70.725 25.473, 66.804 26.981, 62.287 29.070 M 140 31 L 136.500 32.916 141.083 32.958 C 146.120 33.004, 147.133 32.510, 146.324 30.402 C 145.615 28.554, 144.228 28.685, 140 31 M 76.318 35.500 C 76.629 36.600, 77.873 42.563, 79.082 48.750 C 80.291 54.938, 81.673 60, 82.154 60 C 82.634 60, 83.853 59.484, 84.862 58.854 C 86.590 57.775, 86.412 57.032, 81.809 46.148 C 77.163 35.161, 75.076 31.113, 76.318 35.500 M 120.507 37.989 C 120.157 38.555, 120.558 38.723, 121.448 38.382 C 123.180 37.717, 123.497 37, 122.059 37 C 121.541 37, 120.843 37.445, 120.507 37.989 M 100.790 53.044 L 90.080 59.052 92.708 65.276 C 94.154 68.699, 95.616 71.832, 95.957 72.238 C 96.297 72.644, 98.918 69.044, 101.780 64.238 C 104.642 59.432, 108.138 53.587, 109.548 51.250 C 110.959 48.913, 111.975 47.008, 111.807 47.018 C 111.638 47.028, 106.680 49.739, 100.790 53.044 M 84.187 62.253 C 82.428 63.096, 82.013 63.917, 82.455 65.677 C 82.952 67.656, 81.801 68.963, 74.532 74.677 C 69.854 78.353, 66.139 81.472, 66.276 81.609 C 66.565 81.899, 95.291 80.049, 95.598 79.721 C 96.102 79.184, 88.274 61.599, 87.435 61.383 C 86.921 61.251, 85.459 61.642, 84.187 62.253 M 60.488 75.593 C 50.045 81.419, 41.385 86.296, 41.245 86.431 C 40.810 86.850, 97.474 85.781, 97.933 85.362 C 98.172 85.144, 97.861 84.461, 97.244 83.844 C 96.413 83.013, 91.263 83.033, 77.456 83.923 C 67.191 84.584, 58.615 84.948, 58.398 84.731 C 58.181 84.514, 62.952 80.400, 69.002 75.589 C 78.103 68.349, 81.499 65, 79.738 65 C 79.594 65, 70.931 69.767, 60.488 75.593 M 97.918 77.250 C 98.873 79.768, 99.334 79.791, 120.500 78.359 L 131.500 77.615 118 76.389 C 110.575 75.715, 102.827 75.127, 100.782 75.082 C 97.329 75.006, 97.125 75.160, 97.918 77.250 M 103.004 89.250 C 103.006 89.938, 103.899 91.963, 104.989 93.750 C 106.849 96.801, 107.318 97, 112.632 97 C 117.962 97, 118.574 96.737, 123.103 92.500 L 127.914 88 115.457 88 C 106.156 88, 103.001 88.317, 103.004 89.250 M 67.454 111.635 C 75.039 119.811, 81.822 126.637, 82.527 126.805 C 83.725 127.090, 110 114.453, 110 113.592 C 110 113.375, 108.687 110.116, 107.082 106.349 L 104.164 99.500 96.616 98.873 C 92.465 98.528, 81.102 97.914, 71.365 97.508 L 53.662 96.771 67.454 111.635 M 115.649 114.268 C 114.040 115.444, 114.258 116.346, 118.655 126.736 C 121.263 132.897, 123.524 137.809, 123.681 137.653 C 123.837 137.496, 123.004 131.885, 121.830 125.184 C 119.673 112.882, 119.049 111.781, 115.649 114.268" stroke="none" fill="black" fill-rule="evenodd"/>
</svg>