<svg xmlns="http://www.w3.org/2000/svg" width="200" height="200" viewBox="0 0 200 200" version="1.1">
	<path d="M 161 13.064 C 159.075 13.556, 146.475 16.259, 133 19.071 C 108.989 24.082, 108.250 24.172, 95.964 23.599 L 83.428 23.014 58.464 31.351 L 33.500 39.689 33.567 44.094 C 33.603 46.518, 33.998 59.359, 34.445 72.631 C 35.208 95.352, 35.124 97.478, 33.001 108.994 C 31.481 117.239, 31.087 121.436, 31.792 121.871 C 32.367 122.227, 42.756 126.314, 54.879 130.954 C 69.724 136.635, 76.624 139.734, 76.010 140.445 C 75.509 141.025, 66.332 148.025, 55.616 156 C 44.899 163.975, 36.102 171.063, 36.066 171.750 C 36.030 172.438, 36.788 173.001, 37.750 173.002 C 38.712 173.003, 55.344 169.833, 74.708 165.956 L 109.917 158.908 135.965 173.847 C 150.292 182.064, 162.189 188.497, 162.402 188.143 C 163.047 187.076, 187 100.730, 187 99.474 C 187 98.833, 179.318 94.633, 169.930 90.140 L 152.859 81.971 169.312 68.736 C 178.361 61.456, 185.659 55.380, 185.531 55.233 C 185.403 55.086, 168.027 56.518, 146.917 58.417 C 125.807 60.315, 108.398 61.732, 108.232 61.565 C 108.065 61.398, 111.552 58.110, 115.980 54.259 C 123.730 47.518, 124.469 47.127, 135.695 43.839 C 150.302 39.561, 151.319 38, 139.502 38 C 131.068 38, 130.722 38.094, 126.537 41.523 C 122.375 44.934, 108.668 49.927, 103.328 49.979 C 98.964 50.021, 68.195 42.048, 64.650 39.956 C 62.642 38.771, 61 37.507, 61 37.145 C 61 36.784, 71.689 34.303, 84.753 31.633 L 108.507 26.779 136.253 27.520 C 154.578 28.010, 164 27.922, 164 27.262 C 164 25.652, 157.548 25.023, 140.917 25.011 C 132.346 25.005, 125.010 24.677, 124.616 24.282 C 124.221 23.888, 133.845 21.525, 146.002 19.032 C 158.160 16.540, 168.195 14.050, 168.303 13.500 C 168.566 12.163, 165.297 11.968, 161 13.064 M 72 29.500 C 66.775 31.339, 63.007 32.878, 63.626 32.921 C 65.196 33.031, 94.338 26.995, 94.887 26.447 C 95.132 26.201, 92.221 26.035, 88.417 26.079 C 83.283 26.137, 79.052 27.019, 72 29.500 M 43.638 38.829 L 35.776 41.479 36.373 50.990 C 36.700 56.220, 37.249 68.600, 37.591 78.500 C 38.143 94.458, 37.968 97.792, 36.043 107.886 C 34.849 114.149, 34.239 119.599, 34.686 119.999 C 35.134 120.398, 45.962 124.692, 58.750 129.541 C 71.537 134.390, 82 138.655, 82 139.019 C 82 139.383, 73.402 146.149, 62.892 154.055 C 52.383 161.960, 44.178 168.559, 44.659 168.720 C 45.139 168.880, 60.108 166.088, 77.921 162.516 L 110.310 156.021 131.905 168.387 C 143.782 175.189, 155.109 181.708, 157.076 182.873 L 160.652 184.992 171.856 144.746 C 178.018 122.611, 183.323 103.490, 183.645 102.255 C 184.176 100.219, 183.075 99.448, 171.865 94.009 C 165.064 90.709, 159.048 88.007, 158.496 88.005 C 157.944 88.002, 155.992 95.313, 154.157 104.250 C 152.323 113.188, 148.991 129.387, 146.752 140.250 C 144.514 151.113, 142.246 160, 141.713 160 C 140.504 160, 103.790 143.144, 102.715 142.095 C 102.283 141.674, 110.945 133.972, 121.965 124.979 C 132.984 115.986, 142 108.351, 142 108.011 C 142 107.672, 138.134 106.649, 133.409 105.738 L 124.818 104.082 103.826 114.587 L 82.835 125.092 76.167 119.628 C 72.500 116.622, 67.700 112.586, 65.500 110.659 L 61.500 107.154 74.500 100.895 C 81.650 97.452, 88.400 94.695, 89.500 94.766 C 90.600 94.838, 98.982 96.334, 108.127 98.091 L 124.754 101.285 132.052 95.393 L 139.350 89.500 116.425 88.881 C 103.816 88.541, 88.894 88.203, 83.265 88.131 L 73.029 88 76.765 84.527 L 80.500 81.054 75.250 81.027 C 71.654 81.009, 70 80.595, 70 79.715 C 70 79.008, 76.134 75.827, 83.630 72.646 C 95.815 67.475, 98.255 66.004, 106.641 58.775 C 111.801 54.327, 115.849 50.516, 115.638 50.305 C 115.427 50.094, 112.547 50.674, 109.238 51.594 L 103.221 53.266 85.360 49.018 C 69.838 45.326, 66.573 44.195, 60.416 40.385 C 56.520 37.973, 52.920 36.040, 52.416 36.090 C 51.912 36.139, 47.962 37.372, 43.638 38.829 M 130.558 41.907 C 130.249 42.405, 130.898 42.578, 131.999 42.290 C 134.334 41.679, 134.629 41, 132.559 41 C 131.766 41, 130.866 41.408, 130.558 41.907 M 137.500 61.985 C 105.139 65.047, 102.054 65.878, 93 73.972 L 88.500 77.995 116.429 77.997 C 135.051 77.999, 145.424 78.385, 147.556 79.156 C 150.699 80.293, 150.972 80.137, 163.377 70.060 C 170.320 64.421, 176 59.626, 176 59.404 C 176 58.615, 166.129 59.277, 137.500 61.985 M 83.500 75.522 C 78.995 77.644, 78.783 77.883, 81.356 77.939 C 83.014 77.974, 85.457 76.952, 87.182 75.500 C 90.807 72.450, 90.011 72.455, 83.500 75.522 M 82 83.500 L 79.651 86 111.603 86 C 139.503 86, 143.850 85.794, 145.879 84.372 C 147.701 83.096, 147.911 82.558, 146.852 81.887 C 146.108 81.416, 131.741 81.024, 114.924 81.015 L 84.349 81 82 83.500 M 149.500 85 C 149.143 85.577, 150.070 85.994, 151.691 85.985 C 153.872 85.973, 154.165 85.753, 153 85 C 151.079 83.758, 150.267 83.758, 149.500 85 M 136.540 95.161 C 131.183 99.437, 129.232 101.543, 130.161 102.045 C 130.898 102.443, 134.875 103.340, 139 104.039 C 143.125 104.737, 147.029 105.577, 147.675 105.904 C 148.341 106.242, 139.782 113.875, 127.947 123.500 C 116.450 132.850, 107.034 140.730, 107.022 141.010 C 107.010 141.291, 114.537 144.986, 123.750 149.222 C 137.873 155.716, 140.556 156.656, 140.855 155.212 C 150.593 108.219, 154 91.400, 154 90.326 C 154 89.406, 152.507 89, 149.129 89 C 144.663 89, 143.616 89.513, 136.540 95.161 M 77.750 102.192 C 71.838 104.998, 67 107.575, 67 107.919 C 67 109.276, 82.036 120.997, 83.713 120.947 C 84.696 120.918, 93.328 116.945, 102.896 112.118 L 120.292 103.343 106.396 100.599 C 98.753 99.089, 91.600 97.682, 90.500 97.472 C 89.400 97.262, 83.662 99.386, 77.750 102.192" stroke="none" fill="black" fill-rule="evenodd"/>
</svg>