<svg xmlns="http://www.w3.org/2000/svg" width="200" height="200" viewBox="0 0 200 200" version="1.1">
	<path d="M 87.564 23.072 L 69.895 34.021 51.197 36.008 C 40.914 37.101, 31.712 37.996, 30.750 37.998 C 29.788 37.999, 29 38.623, 29 39.384 C 29 41.064, 32.031 41.387, 68.783 43.613 C 83.789 44.523, 96.322 45.011, 96.634 44.700 C 98.457 42.877, 93.611 42.145, 72.018 40.980 C 58.798 40.267, 48.111 39.556, 48.268 39.399 C 48.425 39.242, 53.491 38.613, 59.527 38.001 L 70.500 36.888 87.363 26.444 C 96.638 20.700, 104.704 16, 105.288 16 C 105.873 16, 113.691 20.766, 122.663 26.591 L 138.975 37.182 147.738 36.576 L 156.500 35.970 129.750 44.180 C 101.407 52.879, 97.656 54.884, 109.250 55.135 C 112.688 55.210, 124.500 55.547, 135.500 55.885 L 155.500 56.500 143.500 60.896 C 136.900 63.314, 131.050 65.694, 130.500 66.185 C 129.950 66.676, 129.034 71.560, 128.463 77.039 L 127.427 87 134.963 87.106 C 139.109 87.164, 146.550 87.502, 151.500 87.856 L 160.500 88.500 141.500 90.898 C 131.050 92.216, 121.945 93.580, 121.267 93.928 C 120.404 94.371, 121.602 97.190, 125.267 103.342 L 130.500 112.124 137 111.588 C 140.575 111.293, 148.900 110.792, 155.500 110.473 L 167.500 109.894 154.105 122.969 C 146.738 130.160, 140.888 136.204, 141.105 136.399 C 141.322 136.595, 150.500 142.256, 161.500 148.981 C 172.500 155.705, 182.071 161.747, 182.769 162.407 C 183.762 163.349, 178.790 164.395, 159.791 167.244 C 146.456 169.243, 135.448 170.782, 135.329 170.663 C 135.210 170.544, 129.692 154.976, 123.067 136.067 C 116.442 117.159, 110.822 101.489, 110.579 101.245 C 110.250 100.917, 87.403 119.392, 78.620 127.089 C 78.136 127.513, 86.349 132.169, 96.870 137.435 C 107.392 142.701, 116 147.231, 116 147.501 C 116 147.772, 103.953 154.020, 89.228 161.386 L 62.456 174.779 52.667 165.640 L 42.878 156.500 44.125 144.739 L 45.371 132.978 42.241 129.739 L 39.111 126.500 45.988 109.016 C 49.771 99.400, 52.733 91.399, 52.571 91.237 C 52.409 91.075, 50.349 90.614, 47.993 90.212 C 44.166 89.558, 46.514 88.894, 69.976 83.990 C 93.590 79.055, 98.755 77.422, 96.833 75.500 C 96.605 75.272, 85.525 72.734, 72.209 69.860 C 58.894 66.986, 48 64.337, 48 63.975 C 48 63.612, 56.629 63.016, 67.176 62.649 C 77.722 62.282, 86.580 61.754, 86.859 61.474 C 87.138 61.195, 86.947 60.556, 86.433 60.055 C 85.098 58.750, 33.703 60.993, 32.791 62.396 C 31.812 63.901, 32.153 63.995, 62.238 70.540 C 76.945 73.739, 88.789 76.545, 88.559 76.775 C 88.329 77.005, 75.208 79.962, 59.402 83.346 C 43.596 86.731, 30.497 90.003, 30.293 90.617 C 29.811 92.068, 34.635 93, 42.625 93 C 46.131 93, 49 93.216, 49 93.480 C 49 93.744, 47.156 98.581, 44.903 104.230 C 42.649 109.878, 39.743 117.318, 38.443 120.761 L 36.081 127.023 39.175 130.547 C 42.223 134.018, 42.260 134.186, 41.614 141.785 C 41.254 146.028, 40.704 151.333, 40.392 153.573 L 39.826 157.645 50.910 167.828 L 61.993 178.010 91.996 163.002 C 108.498 154.747, 122 147.625, 122 147.175 C 122 146.725, 113.131 142.096, 102.291 136.889 L 82.581 127.421 95.365 116.711 C 102.397 110.820, 108.483 106, 108.890 106 C 109.298 106, 114.978 121.316, 121.513 140.036 C 133.258 173.683, 133.423 174.067, 135.947 173.578 C 137.351 173.306, 149.750 171.475, 163.500 169.509 C 177.250 167.543, 189.276 165.612, 190.224 165.217 C 191.506 164.684, 185.928 160.800, 168.462 150.064 L 144.975 135.629 160.237 120.907 L 175.500 106.185 171.500 106.578 C 157.864 107.918, 132.650 109.041, 131.994 108.337 C 130.813 107.069, 123.889 96, 124.277 96 C 124.464 96, 138.064 94.200, 154.500 92 C 170.936 89.800, 184.973 88, 185.692 88 C 186.411 88, 187 87.325, 187 86.500 C 187 85.202, 183.222 85, 159 85 L 131 85 131 81.140 C 131 79.016, 131.283 75.217, 131.628 72.697 L 132.256 68.116 147.628 62.437 C 164.065 56.364, 166.856 54.112, 158.250 53.862 C 155.637 53.786, 144.275 53.449, 133 53.112 L 112.500 52.500 140.422 43.984 C 157.189 38.870, 168.529 34.913, 168.807 34.079 C 169.195 32.915, 166.842 32.804, 154.255 33.390 L 139.240 34.089 126.370 25.709 C 119.292 21.100, 111.640 16.158, 109.367 14.726 L 105.234 12.122 87.564 23.072" stroke="none" fill="black" fill-rule="evenodd"/>
</svg>