<svg xmlns="http://www.w3.org/2000/svg" width="200" height="200" viewBox="0 0 200 200" version="1.1">
	<path d="M 43 15.268 C 43 15.965, 46.600 21.611, 51 27.815 C 55.400 34.018, 59 39.444, 59 39.872 C 59 41.576, 53.627 45.318, 33.671 57.514 C 19.919 65.918, 13.179 70.579, 13.833 71.233 C 14.487 71.887, 25.300 68.942, 45.662 62.566 L 76.500 52.910 81.500 58.205 L 86.500 63.500 82.309 63.805 C 78.304 64.096, 77.424 64.847, 62.402 80.805 L 46.685 97.500 50.592 98.218 C 52.742 98.613, 63.950 99.288, 75.500 99.718 L 96.500 100.500 96.155 104 C 95.965 105.925, 95.740 107.563, 95.655 107.640 C 95.570 107.717, 79.076 109.217, 59.002 110.972 C 38.928 112.727, 22.389 114.278, 22.248 114.418 C 22.108 114.558, 29.195 117.970, 37.997 121.999 C 46.799 126.027, 54 129.546, 54 129.817 C 54 130.088, 49.558 134.500, 44.128 139.622 L 34.256 148.935 38.002 162.509 C 40.063 169.974, 41.943 176.277, 42.181 176.514 C 42.419 176.752, 57.663 174.927, 76.057 172.460 L 109.500 167.973 143.863 169.541 C 162.762 170.403, 178.491 170.842, 178.816 170.518 C 179.140 170.193, 171.656 162.168, 162.183 152.684 L 144.961 135.440 165.561 124.601 C 176.892 118.639, 185.788 113.408, 185.331 112.976 C 184.874 112.543, 174.600 107.123, 162.500 100.931 C 150.400 94.739, 140.284 89.492, 140.019 89.272 C 139.754 89.052, 145.359 83.359, 152.473 76.621 C 161.354 68.210, 165.014 64.127, 164.151 63.593 C 163.315 63.077, 158.548 67.051, 149.967 75.418 L 137.042 88.020 120.045 79.260 C 103.359 70.661, 103.047 70.440, 103.024 67.250 C 103.006 64.816, 103.439 63.998, 104.750 63.991 C 105.713 63.986, 117.750 62.640, 131.500 61 C 145.250 59.360, 156.838 58.014, 157.250 58.009 C 157.662 58.004, 158 57.325, 158 56.500 C 158 55.675, 157.757 55, 157.460 55 C 155.986 55, 111.960 50.932, 108.476 50.474 L 104.452 49.945 105.353 40.223 C 105.848 34.875, 106.373 30.361, 106.519 30.191 C 107.335 29.242, 135.180 25.482, 135.658 26.256 C 135.969 26.758, 135.911 30.907, 135.531 35.476 C 135.096 40.687, 135.210 44.012, 135.836 44.399 C 136.385 44.738, 147.784 46.576, 161.167 48.484 C 174.550 50.392, 186.963 52.209, 188.750 52.522 C 191.212 52.953, 192 52.731, 192 51.607 C 192 50.627, 190.556 49.907, 187.750 49.489 C 185.412 49.141, 173.375 47.414, 161 45.652 L 138.500 42.448 138.214 32.117 C 137.949 22.569, 137.785 21.823, 136.048 22.277 C 135.014 22.548, 127.414 23.806, 119.160 25.074 L 104.151 27.380 103.622 30.440 C 103.331 32.123, 102.789 37.212, 102.418 41.750 C 102.046 46.288, 101.462 49.988, 101.121 49.973 C 100.779 49.958, 96.287 49.538, 91.138 49.040 C 85.936 48.537, 80.782 48.513, 79.538 48.985 C 77.611 49.718, 76.577 49.014, 72.074 43.898 C 69.199 40.632, 66.994 37.601, 67.173 37.162 C 67.353 36.722, 72.338 31.939, 78.250 26.532 C 84.162 21.125, 89 16.393, 89 16.017 C 89 13.630, 86.430 15.176, 75.627 24.066 L 63.500 34.044 54 24.013 C 44.589 14.076, 43 12.812, 43 15.268 M 58 33.378 C 58 33.585, 58.788 34.373, 59.750 35.128 C 61.336 36.371, 61.371 36.336, 60.128 34.750 C 58.821 33.084, 58 32.555, 58 33.378 M 60.453 43.049 C 58.846 44.726, 50.774 50.192, 42.516 55.196 C 25.049 65.779, 24.060 66.521, 30.039 64.557 C 32.492 63.752, 43.269 60.340, 53.987 56.976 C 64.705 53.611, 73.678 50.655, 73.927 50.406 C 74.423 49.910, 64.945 40, 63.975 40 C 63.644 40, 62.060 41.372, 60.453 43.049 M 80.712 51.675 C 80.437 52.129, 82.339 54.904, 84.937 57.843 L 89.662 63.186 95.331 62.478 L 101 61.770 101 57.404 C 101 52.389, 101.196 52.484, 88.856 51.475 C 84.651 51.131, 80.987 51.221, 80.712 51.675 M 103.764 56.637 C 103.500 58.762, 103.448 60.690, 103.648 60.923 C 104.016 61.350, 132.093 58.360, 139.500 57.105 C 142.559 56.587, 139.972 56.134, 128.500 55.179 C 120.250 54.493, 111.418 53.671, 108.873 53.353 L 104.245 52.775 103.764 56.637 M 93 65.553 C 93 66.819, 98.463 72.832, 99.199 72.377 C 99.640 72.105, 100 70.334, 100 68.441 C 100 65.175, 99.822 65, 96.500 65 C 94.575 65, 93 65.249, 93 65.553 M 81.624 66.868 C 79.638 67.305, 74.604 71.874, 65.351 81.639 L 51.955 95.778 72.727 96.463 C 84.152 96.840, 94.234 97.353, 95.131 97.604 C 96.456 97.974, 96.882 96.974, 97.403 92.280 C 97.756 89.101, 98.291 84.434, 98.594 81.909 C 99.124 77.483, 98.958 77.116, 93.972 71.659 C 88.707 65.899, 87.742 65.525, 81.624 66.868 M 102 74.646 C 102 75.735, 103.408 77.948, 105.128 79.563 L 108.257 82.500 105.494 78 C 101.978 72.273, 102 72.295, 102 74.646 M 108 76.396 C 108 76.645, 110.319 80.728, 113.153 85.470 C 120.349 97.510, 118.537 98.630, 108.984 88.050 C 104.973 83.608, 101.591 80.093, 101.466 80.237 C 101.342 80.382, 100.926 84.375, 100.542 89.112 L 99.843 97.724 112.672 98.262 L 125.500 98.800 129.952 94.435 C 132.400 92.034, 134.200 89.904, 133.952 89.701 C 132.687 88.666, 108 76.010, 108 76.396 M 131.964 96.537 C 128.977 99.561, 125.988 101.826, 125.322 101.570 C 124.655 101.314, 118.572 101.026, 111.805 100.929 L 99.500 100.753 99.187 103.877 C 98.906 106.671, 99.154 107, 101.538 107 C 104.588 107, 155.724 110.903, 158 111.310 C 158.825 111.457, 150.679 116.172, 139.898 121.788 L 120.295 131.998 105.898 147.416 C 91.897 162.408, 91.493 162.746, 91.233 159.667 C 91.086 157.925, 92.009 146.262, 93.284 133.750 L 95.603 111 92.552 111.012 C 88.225 111.028, 33.745 115.921, 33.336 116.330 C 33.150 116.516, 38.736 119.283, 45.749 122.479 C 52.762 125.674, 58.669 128.431, 58.876 128.604 C 59.084 128.778, 54.471 133.485, 48.626 139.065 C 42.782 144.646, 38.013 149.951, 38.029 150.856 C 38.060 152.601, 43.646 172.980, 44.263 173.596 C 44.463 173.796, 59.223 171.985, 77.063 169.572 L 109.500 165.184 138.500 166.549 C 154.450 167.300, 168.845 167.934, 170.489 167.957 C 173.246 167.997, 172.207 166.728, 157.036 151.536 C 147.993 142.481, 140.798 134.874, 141.047 134.631 C 141.296 134.389, 149.884 129.760, 160.132 124.345 C 170.380 118.930, 178.858 114.084, 178.972 113.576 C 179.087 113.068, 169.778 107.789, 158.287 101.845 L 137.394 91.038 131.964 96.537 M 98.536 111.250 C 97.989 112.956, 93.865 155.213, 94.218 155.496 C 94.373 155.620, 100.125 149.681, 107 142.297 L 119.500 128.872 134.774 121.186 C 143.174 116.959, 149.249 113.396, 148.274 113.269 C 143.595 112.660, 106.899 110, 103.174 110 C 100.665 110, 98.774 110.510, 98.536 111.250" stroke="none" fill="black" fill-rule="evenodd"/>
</svg>