<svg xmlns="http://www.w3.org/2000/svg" width="200" height="200" viewBox="0 0 200 200" version="1.1">
	<path d="M 29.563 30.510 C 25.231 40.690, 21.870 49.179, 22.093 49.373 C 22.317 49.568, 29.025 51.874, 37 54.498 C 44.975 57.122, 51.793 59.433, 52.152 59.633 C 52.510 59.833, 46.097 72.365, 37.902 87.483 C 29.706 102.601, 23 115.413, 23 115.954 C 23 116.495, 25.250 120.385, 28 124.597 L 33 132.257 33 155.982 C 33 181.249, 33.676 192, 35.266 192 C 35.894 192, 36.098 181.110, 35.832 161.669 L 35.418 131.338 30.709 123.783 C 28.119 119.628, 26 115.978, 26 115.672 C 26 115.137, 48.122 73.983, 54.130 63.341 L 57.043 58.181 41.149 52.841 L 25.256 47.500 32.242 31.250 L 39.229 15 72.964 15 C 91.518 15, 110.112 15.289, 114.285 15.641 L 121.872 16.283 130.142 28.414 L 138.411 40.546 151.748 48.971 C 159.083 53.605, 165.440 57.870, 165.874 58.448 C 167.468 60.569, 181.224 99.110, 180.607 99.726 C 180.257 100.076, 171.351 101.069, 160.817 101.931 C 149.629 102.848, 141.518 103.939, 141.313 104.557 C 141.120 105.138, 144.390 113.013, 148.580 122.057 C 152.770 131.101, 159.267 146.600, 163.018 156.500 C 166.770 166.400, 170.188 175.400, 170.614 176.500 C 171.041 177.600, 163.455 170.897, 153.756 161.604 L 136.123 144.708 132.579 130.205 C 130.630 122.228, 128.915 115.591, 128.767 115.455 C 128.620 115.319, 118.625 129.336, 106.556 146.604 C 94.487 163.872, 84.533 178, 84.436 178 C 84.339 178, 85.551 173.388, 87.129 167.750 C 89.090 160.745, 90.967 149.269, 93.056 131.500 C 95.777 108.361, 96.618 103.849, 100.690 90.500 L 105.267 75.500 104.150 64.567 C 103.535 58.554, 103.178 53.488, 103.357 53.310 C 103.535 53.132, 105.502 54.306, 107.728 55.918 C 110.453 57.892, 115.754 64.769, 123.940 76.952 C 130.977 87.423, 136.550 94.778, 137.162 94.400 C 138.180 93.771, 137.568 77.586, 136.326 72.301 C 135.978 70.824, 132.056 67.759, 124.370 62.962 C 113.444 56.141, 112.664 55.423, 106.962 46.943 C 100.453 37.263, 98.182 36.220, 98.849 43.217 L 99.247 47.392 96.874 45.871 C 81.634 36.108, 50.055 17, 49.159 17 C 48.522 17, 48 17.396, 48 17.881 C 48 18.365, 56.100 26.670, 66 36.335 C 75.900 46.001, 84 54.232, 84 54.626 C 84 55.020, 79.462 63.853, 73.916 74.254 C 68.370 84.656, 64.056 93.390, 64.330 93.663 C 64.603 93.937, 70.379 93.277, 77.164 92.197 C 83.949 91.117, 89.570 90.293, 89.655 90.366 C 89.741 90.440, 85.691 97.321, 80.655 105.658 L 71.500 120.816 64.750 123.496 L 58 126.177 58 159.088 C 58 180.363, 58.354 192, 59 192 C 59.550 192, 60.061 191.887, 60.136 191.750 C 60.210 191.613, 60.548 177.164, 60.886 159.643 L 61.500 127.786 67.500 125.342 L 73.500 122.897 84.151 105.199 C 90.210 95.130, 94.292 87.379, 93.619 87.219 C 92.968 87.064, 87.050 87.813, 80.468 88.882 C 73.886 89.952, 68.438 90.754, 68.362 90.664 C 68.286 90.574, 72.650 82.290, 78.060 72.255 L 87.896 54.010 73.698 39.983 L 59.500 25.957 77.629 37.228 C 87.600 43.428, 96.703 49.175, 97.858 50 C 99.615 51.255, 100.180 53.378, 101.321 63 L 102.685 74.500 97.938 90 C 93.633 104.056, 92.937 107.783, 90.473 130 C 88.309 149.511, 86.966 157.401, 83.878 168.747 C 79.646 184.294, 79.383 186.017, 81.250 185.967 C 81.938 185.948, 92.400 171.732, 104.500 154.376 C 116.600 137.019, 126.802 122.630, 127.171 122.399 C 127.540 122.168, 129.061 127.272, 130.552 133.740 L 133.261 145.500 149.880 161.578 C 170.842 181.856, 173.898 184.517, 174.940 183.399 C 176.062 182.194, 160.087 140.302, 151.284 121.365 L 144.249 106.230 149.874 105.641 C 152.969 105.316, 162.137 104.521, 170.250 103.873 C 178.363 103.224, 185 102.386, 185 102.008 C 185 101.631, 181.256 91.238, 176.681 78.911 L 168.362 56.500 154.348 47.519 L 140.335 38.537 131.721 25.931 L 123.106 13.325 92.303 12.664 C 75.361 12.301, 56.086 12.003, 49.470 12.002 L 37.439 12 29.563 30.510 M 102.154 46.885 C 102.344 48.197, 103.616 49.997, 104.979 50.885 L 107.459 52.500 105.053 49 C 101.748 44.191, 101.765 44.203, 102.154 46.885 M 125.753 74.876 C 130.564 81.957, 134.636 87.634, 134.802 87.490 C 134.968 87.347, 134.794 83.809, 134.415 79.628 L 133.727 72.027 125.830 67.013 C 121.487 64.256, 117.725 62, 117.470 62 C 117.215 62, 120.943 67.794, 125.753 74.876" stroke="none" fill="black" fill-rule="evenodd"/>
</svg>