<svg xmlns="http://www.w3.org/2000/svg" width="200" height="200" viewBox="0 0 200 200" version="1.1">
	<path d="M 71.254 37.750 L 65.342 55.500 47.671 56.375 L 30 57.251 30.013 61.875 C 30.021 64.419, 30.480 76.625, 31.034 89 C 31.910 108.551, 31.780 114.973, 30.039 138 C 28.938 152.575, 27.812 166.412, 27.538 168.749 L 27.039 172.997 34.769 176.829 L 42.500 180.660 71.969 180.080 C 88.177 179.761, 113.667 179.866, 128.614 180.314 L 155.789 181.127 167.645 174.430 C 174.165 170.746, 179.644 167.612, 179.819 167.464 C 179.995 167.316, 175.610 160.920, 170.076 153.251 L 160.013 139.307 162.466 109.221 L 164.918 79.136 157.427 63.511 C 151.422 50.986, 149.594 47.983, 148.217 48.377 C 147.273 48.648, 140.959 50.501, 134.188 52.497 C 127.416 54.492, 121.354 55.951, 120.718 55.739 C 120.081 55.527, 117.072 49.154, 114.030 41.576 C 110.989 33.999, 108.135 27.732, 107.689 27.649 C 107.244 27.567, 101.940 37.035, 95.904 48.690 L 84.929 69.879 91.711 67.940 C 95.442 66.873, 98.855 66, 99.297 66 C 99.738 66, 99.965 68.584, 99.800 71.742 L 99.500 77.485 94.250 79.368 L 89 81.251 89.072 111.375 L 89.144 141.500 94.322 152.889 C 97.170 159.153, 99.950 164.328, 100.500 164.389 C 101.146 164.461, 101.677 149.453, 102 122.024 L 102.500 79.548 112.500 75.886 C 118 73.872, 122.578 72.289, 122.672 72.368 C 122.767 72.447, 122.504 84.209, 122.087 98.506 L 121.328 124.500 125.799 150 C 130.060 174.304, 131.077 178.256, 132.664 176.670 C 133.544 175.790, 135.588 131.909, 136.545 93.368 L 137.276 63.920 132.101 65.960 C 129.255 67.082, 126.365 68, 125.679 68 C 124.993 68, 123.702 66.032, 122.811 63.627 L 121.190 59.255 134.798 55.163 C 142.282 52.913, 148.437 51.168, 148.477 51.286 C 148.516 51.404, 151.588 57.800, 155.303 65.500 L 162.058 79.500 159.589 109.762 L 157.120 140.024 166.579 153.161 L 176.038 166.299 173.269 167.962 C 171.746 168.876, 167.125 171.437, 163 173.652 L 155.500 177.680 98.460 177.463 L 41.420 177.246 35.960 174.503 C 32.957 172.994, 30.431 171.701, 30.347 171.630 C 30.263 171.558, 31.229 158.225, 32.494 142 C 34.589 115.129, 34.704 110.200, 33.779 86.701 C 33.221 72.512, 32.955 60.711, 33.189 60.477 C 33.718 59.949, 63.334 58.241, 63.936 58.704 C 64.176 58.888, 63.465 61.843, 62.355 65.270 L 60.338 71.500 59.590 65.693 C 58.446 56.813, 56.652 59.037, 56.916 69.008 C 57.038 73.632, 57.326 77.718, 57.556 78.090 C 57.785 78.461, 57.175 81.181, 56.200 84.133 C 54.613 88.937, 54.484 92.490, 54.964 118 L 55.500 146.500 59.980 153.750 C 64.576 161.187, 67 162.854, 67 158.576 C 67 157.243, 65.663 142.056, 64.030 124.826 C 60.032 82.670, 60.040 80.879, 64.260 68.500 L 67.669 58.500 72.335 58.195 C 76.648 57.913, 77.003 57.687, 77.038 55.195 C 77.060 53.713, 77.699 45.537, 78.459 37.026 C 79.219 28.515, 79.625 21.203, 79.362 20.776 C 78.030 18.622, 76.693 21.422, 71.254 37.750 M 99.083 48.583 C 94.607 57.215, 91.084 64.417, 91.255 64.588 C 91.425 64.758, 93.463 64.416, 95.782 63.827 C 99.514 62.880, 100 62.425, 100 59.878 C 100 57.986, 100.514 57, 101.500 57 C 102.414 57, 103 57.931, 103 59.383 L 103 61.766 109.750 59.739 C 113.463 58.624, 116.667 57.572, 116.872 57.401 C 117.204 57.123, 108.248 33.947, 107.518 33.194 C 107.355 33.026, 103.560 39.951, 99.083 48.583 M 72.213 43.801 C 70.446 49.192, 69 53.917, 69 54.301 C 69 54.686, 70.097 55, 71.439 55 C 73.560 55, 73.945 54.446, 74.397 50.750 C 75.398 42.575, 76.096 34, 75.762 34 C 75.577 34, 73.980 38.411, 72.213 43.801 M 110.500 62.260 C 106.650 63.430, 103.169 64.863, 102.765 65.444 C 101.684 66.998, 101.840 76, 102.948 76 C 103.770 76, 121.060 70.034, 121.760 69.508 C 122.213 69.169, 118.594 59.997, 118.034 60.066 C 117.740 60.102, 114.350 61.089, 110.500 62.260 M 130.046 69.618 C 128.146 70.420, 126.383 71.284, 126.128 71.538 C 125.874 71.793, 125.309 83.589, 124.873 97.751 L 124.081 123.500 127.262 141.936 C 129.744 156.317, 130.592 159.648, 131.117 157.080 C 131.983 152.848, 134.305 82.466, 133.847 74.331 L 133.500 68.162 130.046 69.618 M 93.747 82.300 L 90.994 83.388 91.663 112.444 L 92.331 141.500 95.915 149.322 L 99.500 157.144 99.500 119.072 C 99.500 77.447, 99.880 79.877, 93.747 82.300 M 57.819 117 C 58.264 145.152, 58.300 145.552, 60.756 149.795 C 62.124 152.158, 63.399 153.934, 63.591 153.743 C 63.983 153.351, 59.463 103.751, 58.192 94.500 C 57.698 90.902, 57.549 99.907, 57.819 117" stroke="none" fill="black" fill-rule="evenodd"/>
</svg>