<svg xmlns="http://www.w3.org/2000/svg" width="200" height="200" viewBox="0 0 200 200" version="1.1">
	<path d="M 98.500 11.981 C 88.600 12.934, 73.923 14.281, 65.884 14.974 L 51.268 16.235 37.884 38.807 C 30.523 51.222, 24.579 61.621, 24.675 61.915 C 25.450 64.286, 28.336 60.304, 39.445 41.534 C 46.455 29.690, 52.615 19.738, 53.134 19.417 C 53.653 19.096, 69.800 17.431, 89.017 15.716 L 123.956 12.597 136.022 14.922 C 142.657 16.200, 147.955 17.372, 147.793 17.525 C 147.425 17.874, 108.390 30, 107.635 30 C 107.330 30, 106.541 28.200, 105.882 26 C 105.223 23.800, 104.236 22, 103.688 22 C 102.903 22, 67.392 40.458, 61 44.188 C 60.175 44.670, 57.475 45.632, 55 46.326 C 52.488 47.030, 50.500 48.189, 50.500 48.949 C 50.500 49.698, 43.198 54.403, 34.273 59.405 C 25.348 64.407, 18.036 69.111, 18.023 69.857 C 17.991 71.727, 18.941 71.285, 37.096 60.976 C 51.050 53.053, 56 50.828, 56 52.480 C 56 55.342, 49.683 65.944, 34.305 88.891 C 24.209 103.956, 16.181 116.515, 16.465 116.798 C 16.748 117.081, 22.221 116.904, 28.627 116.405 L 40.275 115.496 39.782 146.248 C 39.454 166.665, 39.629 177, 40.301 177 C 42.139 177, 69.483 169.703, 70.299 168.995 C 70.739 168.613, 70.132 154.396, 68.950 137.401 L 66.801 106.500 74.493 89.500 C 78.724 80.150, 82.560 71.545, 83.019 70.378 C 83.761 68.491, 82.533 67.351, 71.926 60.073 C 61.240 52.740, 57.631 48.998, 61.250 49.001 C 63.793 49.004, 112.431 54.098, 112.726 54.393 C 113.617 55.283, 121.217 78.117, 120.771 78.563 C 120.481 78.852, 114.678 77.985, 107.875 76.635 C 99.074 74.889, 95.308 74.501, 94.819 75.292 C 93.962 76.680, 93.843 76.602, 115 88.472 C 124.625 93.872, 132.989 98.669, 133.586 99.132 C 134.503 99.842, 129.676 122.786, 122.514 151.767 C 122.091 153.478, 118.895 155.557, 109.477 160.248 C 102.615 163.666, 97 166.744, 97 167.088 C 97 167.940, 155.038 177.296, 155.772 176.562 C 156.093 176.240, 156.757 162.820, 157.248 146.739 L 158.140 117.500 164.675 96.663 C 168.269 85.203, 172.984 71.986, 175.152 67.293 C 177.320 62.600, 178.878 58.545, 178.614 58.281 C 178.351 58.017, 163.924 56.395, 146.555 54.676 L 114.975 51.550 112.988 46.238 C 111.894 43.316, 111 40.717, 111 40.462 C 111 40.208, 121.048 40, 133.328 40 L 155.656 40 167.078 31.445 C 173.360 26.740, 178.886 22.507, 179.358 22.037 C 179.832 21.566, 176.703 20.439, 172.358 19.516 C 161.079 17.121, 161.421 17.297, 163.519 14.979 C 165.643 12.632, 164.857 12.537, 158.688 14.393 C 154.402 15.683, 153.034 15.573, 140.279 12.906 C 124.645 9.637, 123.197 9.605, 98.500 11.981 M 130.255 25.864 C 117.485 29.853, 109.007 32.999, 109.005 33.750 C 109.002 34.438, 109.377 35, 109.837 35 C 113.802 35, 147.600 30.766, 148.035 30.215 C 148.346 29.822, 150.265 27.399, 152.300 24.832 C 154.335 22.264, 156 19.902, 156 19.582 C 156 18.214, 150.270 19.612, 130.255 25.864 M 154.190 26.750 L 148.881 33.500 135.191 35.134 L 121.500 36.767 138.265 36.884 L 155.030 37 164.015 30.270 C 168.957 26.569, 173 23.284, 173 22.970 C 173 22.449, 162.641 20, 160.439 20 C 159.922 20, 157.110 23.038, 154.190 26.750 M 89.763 31.890 C 76.294 39.028, 73.809 40.621, 78.574 39.061 C 80.183 38.534, 86.790 36.479, 93.255 34.495 C 103.422 31.373, 104.892 30.657, 104.140 29.193 C 103.662 28.262, 103.097 26.969, 102.885 26.320 C 102.644 25.581, 97.743 27.661, 89.763 31.890 M 101 35 C 98.613 35.765, 98.644 35.805, 101.691 35.900 C 103.446 35.955, 105.160 35.550, 105.500 35 C 106.211 33.850, 104.591 33.850, 101 35 M 78.171 41.967 C 71.390 44.089, 65.671 45.995, 65.463 46.204 C 65.255 46.412, 75.467 47.600, 88.157 48.843 C 100.847 50.086, 111.350 50.968, 111.496 50.802 C 111.643 50.636, 110.856 48.138, 109.747 45.250 L 107.732 40 100.925 40 C 97.181 40, 93.840 39.550, 93.500 39 C 92.605 37.551, 91.762 37.714, 78.171 41.967 M 56.747 58.544 C 55.861 60.936, 47.753 73.829, 38.730 87.196 C 29.707 100.563, 21.983 112.089, 21.566 112.810 C 20.950 113.874, 22.907 113.987, 31.993 113.412 L 43.179 112.704 42.447 143.352 C 42.044 160.208, 41.891 173.992, 42.107 173.983 C 43.435 173.927, 67.169 167.165, 67.619 166.715 C 67.922 166.411, 67.213 152.660, 66.044 136.155 L 63.918 106.148 72.052 88.128 C 76.525 78.218, 79.884 69.621, 79.516 69.025 C 79.147 68.429, 74.236 64.848, 68.602 61.069 L 58.359 54.196 56.747 58.544 M 116 54.537 C 116 54.620, 118.241 61.058, 120.980 68.844 C 123.719 76.630, 125.793 83, 125.590 83 C 125.387 83, 120.825 82.096, 115.453 80.990 C 110.081 79.885, 105.535 79.132, 105.350 79.317 C 105.165 79.502, 112.454 83.858, 121.548 88.997 C 130.642 94.137, 137.903 98.827, 137.682 99.421 C 137.462 100.014, 134.409 112.923, 130.897 128.108 L 124.513 155.715 114.621 160.804 C 106.375 165.046, 105.125 165.984, 107.114 166.438 C 111.413 167.418, 153.304 174.031, 153.513 173.762 C 153.625 173.618, 154.191 160.225, 154.769 144 L 155.822 114.500 162.320 94.500 C 165.894 83.500, 170.236 71.414, 171.968 67.642 C 173.700 63.870, 174.979 60.672, 174.809 60.534 C 174.468 60.258, 116 54.295, 116 54.537" stroke="none" fill="black" fill-rule="evenodd"/>
</svg>