<svg xmlns="http://www.w3.org/2000/svg" width="200" height="200" viewBox="0 0 200 200" version="1.1">
	<path d="M 85.524 29.743 L 61.547 53.243 51.524 52.638 C 19.316 50.694, 13 50.649, 13 52.360 C 13 53.705, 14.125 54.001, 19.250 54.004 C 22.688 54.006, 31.350 54.344, 38.500 54.754 L 51.500 55.500 34.582 56 C 21.273 56.393, 17.564 56.800, 17.197 57.904 C 16.801 59.098, 20.577 59.201, 42.365 58.591 C 56.464 58.197, 68 58.156, 68 58.500 C 68 58.845, 64.287 65.881, 59.750 74.135 L 51.500 89.143 33.500 104.736 C 23.600 113.312, 15.073 120.705, 14.550 121.164 C 13.953 121.689, 13.983 122.383, 14.631 123.031 C 15.338 123.738, 20.725 122.211, 31.810 118.161 L 47.958 112.260 48.456 115.380 C 48.731 117.096, 49.657 125.321, 50.515 133.658 L 52.076 148.815 42.541 164.408 C 37.296 172.983, 33.446 180, 33.984 180 C 36.021 180, 72.606 171.888, 74.865 170.935 C 76.614 170.198, 116.468 145.240, 118.874 143.376 C 119.079 143.217, 119.016 142.485, 118.735 141.751 C 118.310 140.645, 115.237 140.706, 100.861 142.107 C 91.312 143.037, 83.324 143.630, 83.109 143.424 C 82.894 143.219, 82.092 133.667, 81.328 122.197 L 79.938 101.344 91.164 81.700 C 97.339 70.897, 102.589 62.255, 102.831 62.498 C 103.073 62.740, 104.715 71.389, 106.479 81.719 C 108.851 95.610, 111.449 106.201, 116.454 122.394 L 123.222 144.288 139.257 162.195 C 149.541 173.680, 155.792 179.910, 156.686 179.567 C 157.452 179.273, 165.230 174.429, 173.969 168.803 L 189.858 158.574 180.679 153.708 C 175.631 151.032, 164.525 145.303, 156 140.976 C 147.475 136.650, 139.726 132.523, 138.779 131.805 C 137.155 130.573, 137.167 129.777, 139.006 117.500 C 140.078 110.350, 140.964 103.999, 140.977 103.386 C 140.990 102.773, 149.876 97.165, 160.724 90.922 C 183.759 77.666, 184.029 78.659, 157.079 77.503 L 140.304 76.784 128.037 81.944 C 121.290 84.782, 115.531 86.864, 115.239 86.572 C 114.947 86.280, 116.456 79.282, 118.594 71.020 C 121.982 57.926, 122.738 56.001, 124.490 56.005 C 125.596 56.007, 137.750 56.905, 151.500 58 C 187.633 60.878, 185.424 61.677, 171.540 50.750 C 165.076 45.662, 158.766 40.867, 157.517 40.093 C 155.448 38.811, 153.429 39.314, 134.782 45.758 L 114.318 52.830 112.563 32.165 C 111.598 20.799, 110.514 10.317, 110.154 8.871 C 109.535 6.383, 108.215 7.502, 85.524 29.743 M 85.499 33.535 L 63.500 54.906 68.333 54.953 C 70.992 54.979, 73.017 55.381, 72.833 55.847 C 72.650 56.312, 68.241 64.411, 63.035 73.844 L 53.569 90.994 37.785 104.655 C 29.103 112.169, 22 118.459, 22 118.633 C 22 118.807, 25.713 117.562, 30.250 115.866 C 42.930 111.126, 50.080 108.742, 50.427 109.139 C 50.600 109.338, 51.675 118.474, 52.816 129.441 L 54.891 149.382 46.911 162.441 C 41.948 170.562, 39.416 175.593, 40.215 175.746 C 40.922 175.881, 48.925 174.299, 58 172.229 L 74.500 168.467 93.222 156.483 C 103.519 149.893, 111.561 144.368, 111.093 144.207 C 110.624 144.046, 103.559 144.580, 95.391 145.394 C 87.224 146.209, 80.460 146.790, 80.361 146.687 C 80.261 146.584, 79.490 136.209, 78.647 123.631 L 77.114 100.763 89.704 78.631 C 96.629 66.459, 102.821 55.924, 103.464 55.219 C 104.369 54.228, 105.289 57.899, 107.535 71.451 C 109.130 81.083, 110.725 88.635, 111.079 88.232 C 111.814 87.394, 120.020 54.686, 119.600 54.267 C 119.448 54.115, 117.878 54.495, 116.111 55.111 C 114.344 55.727, 112.651 55.984, 112.349 55.683 C 112.047 55.381, 110.933 45.566, 109.872 33.872 C 108.812 22.179, 107.844 12.511, 107.721 12.388 C 107.599 12.265, 97.599 21.782, 85.499 33.535 M 138.262 47.280 C 130.432 50.073, 124.191 52.525, 124.395 52.728 C 124.941 53.275, 173.235 57.098, 173.702 56.632 C 174.498 55.835, 156.008 42.003, 154.279 42.101 C 153.300 42.156, 146.093 44.487, 138.262 47.280 M 126.285 85.661 L 111.500 91.834 111.799 95.464 C 111.964 97.461, 115.165 108.956, 118.914 121.010 L 125.730 142.925 135.765 154.213 C 141.284 160.421, 148.207 168.096, 151.150 171.270 L 156.500 177.039 170.416 167.937 L 184.332 158.834 175.960 154.361 C 171.355 151.900, 160.008 146.028, 150.743 141.311 C 134.657 133.121, 133.922 132.618, 134.413 130.118 C 134.696 128.678, 135.630 122.325, 136.490 116 C 137.350 109.675, 138.250 103.585, 138.491 102.467 C 138.791 101.078, 144.082 97.439, 155.215 90.967 L 171.500 81.500 164.500 80.834 C 143.159 78.805, 142.509 78.888, 126.285 85.661" stroke="none" fill="black" fill-rule="evenodd"/>
</svg>