<svg xmlns="http://www.w3.org/2000/svg" width="200" height="200" viewBox="0 0 200 200" version="1.1">
	<path d="M 92 23.763 C 92 23.948, 92.708 25.469, 93.574 27.143 C 94.439 28.816, 94.983 30.350, 94.783 30.551 C 94.520 30.814, 42.747 32.958, 35.750 32.996 C 35.337 32.998, 35 33.711, 35 34.580 C 35 35.910, 35.986 36.071, 41.250 35.603 C 54.280 34.443, 94 33.795, 94 34.741 C 94 36.062, 75.638 36.990, 49.401 36.995 C 24.747 37.001, 12 37.788, 12 39.305 C 12 39.981, 25.126 40.119, 51.500 39.719 C 73.225 39.390, 91 39.439, 91 39.828 C 91 40.217, 89.859 42.215, 88.464 44.268 L 85.928 48 56.881 48 C 38.910 48, 27.960 48.363, 28.167 48.953 C 28.350 49.477, 37.388 61.368, 48.250 75.379 C 59.113 89.389, 68.001 100.998, 68.002 101.176 C 68.003 101.354, 62.378 101.362, 55.502 101.193 C 45.716 100.952, 43.001 101.170, 43.006 102.193 C 43.010 102.976, 49.627 105.861, 59.529 109.394 C 68.613 112.636, 75.916 115.417, 75.758 115.575 C 75.600 115.733, 64.050 117.458, 50.091 119.409 C 36.132 121.359, 24.543 123.123, 24.338 123.329 C 24.132 123.535, 28.252 127.257, 33.493 131.601 C 39.480 136.564, 42.871 140.058, 42.615 141 C 42.391 141.825, 41.414 144.568, 40.445 147.095 L 38.683 151.691 48.954 166.835 C 55.336 176.246, 59.655 181.721, 60.362 181.298 C 60.988 180.923, 71.054 173.278, 82.731 164.308 C 94.408 155.339, 104.280 148, 104.669 148 C 105.058 148, 108.082 150.127, 111.391 152.726 L 117.406 157.452 148.903 164.726 C 169.816 169.555, 180.735 171.665, 181.397 171.003 C 182.058 170.342, 181.738 169.517, 180.446 168.548 C 179.376 167.746, 170.521 161.332, 160.768 154.295 C 151.015 147.258, 143.038 141.275, 143.040 141 C 143.043 140.725, 152.478 135.550, 164.007 129.500 C 184.687 118.648, 184.919 118.491, 181.235 117.808 C 179.181 117.427, 172.280 117.089, 165.901 117.058 C 159.521 117.026, 150.835 116.707, 146.598 116.349 C 139.424 115.742, 138.794 115.502, 137.418 112.841 C 135.661 109.444, 134.588 110.074, 153 103.690 C 164.962 99.543, 165.511 99.230, 165.762 96.428 C 165.906 94.818, 164.496 80.458, 162.630 64.518 L 159.236 35.537 154.989 31.768 C 152.069 29.177, 149.768 27.985, 147.621 27.950 C 145.905 27.923, 132.688 26.894, 118.250 25.664 C 103.813 24.434, 92 23.579, 92 23.763 M 97.495 28.750 C 97.885 29.712, 98.655 31.744, 99.205 33.265 C 99.961 35.354, 102.805 37.479, 110.853 41.967 C 127.217 51.093, 127.111 50.931, 116.750 50.968 C 111.938 50.986, 108 51.240, 108 51.533 C 108 51.827, 109.148 54.331, 110.550 57.099 L 113.101 62.132 123.800 61.816 C 130.196 61.627, 134.626 61.894, 134.813 62.480 C 134.986 63.019, 131.048 64.585, 126.063 65.961 C 121.079 67.337, 117.010 68.921, 117.022 69.481 C 117.034 70.042, 117.912 72.412, 118.973 74.750 C 120.774 78.717, 121.168 79, 124.890 79 L 128.879 79 127.317 83.582 C 125.760 88.153, 125.765 88.182, 129.405 96.332 C 131.411 100.824, 133.439 105.118, 133.911 105.873 C 134.607 106.986, 137.369 106.337, 148.482 102.452 C 156.024 99.815, 162.437 97.026, 162.733 96.254 C 163.029 95.482, 161.781 81.846, 159.960 65.951 L 156.649 37.052 153.574 34.108 L 150.500 31.164 126.444 29.082 C 96.533 26.493, 96.581 26.494, 97.495 28.750 M 92.513 42.980 C 91.131 45.169, 90 47.194, 90 47.480 C 90 47.766, 92.925 48, 96.500 48 C 100.075 48, 103 47.757, 103 47.460 C 103 47.163, 102.091 45.138, 100.980 42.960 C 98.328 37.763, 95.802 37.769, 92.513 42.980 M 104.690 44.477 C 106.251 47.749, 106.696 48, 110.935 47.996 L 115.500 47.993 112.371 46.084 C 110.650 45.035, 107.839 43.451, 106.126 42.565 L 103.010 40.954 104.690 44.477 M 34.193 52.817 C 34.912 53.816, 43.938 65.473, 54.250 78.721 C 64.563 91.969, 73 103.060, 73 103.368 C 73 103.676, 68.710 104.056, 63.467 104.214 L 53.934 104.500 68.217 109.596 C 77.063 112.752, 82.611 115.258, 82.791 116.179 C 83.029 117.391, 78.695 118.258, 59.291 120.877 C 46.206 122.644, 34.264 124.330, 32.753 124.623 C 30.101 125.139, 30.294 125.403, 38.345 132.273 L 46.683 139.388 44.187 145.174 L 41.690 150.959 50.595 164.459 C 55.493 171.884, 59.725 177.967, 60 177.977 C 60.371 177.991, 95.135 151.599, 103.591 144.885 C 104.278 144.340, 107.287 146.043, 111.718 149.486 L 118.753 154.952 146.377 161.302 C 161.569 164.795, 174 167.533, 174 167.388 C 174 167.242, 166.135 161.444, 156.522 154.502 C 146.909 147.560, 138.802 141.489, 138.507 141.011 C 138.212 140.533, 146.412 135.723, 156.730 130.321 L 175.490 120.500 164.995 119.873 C 159.223 119.527, 151.226 119.190, 147.224 119.123 L 139.949 119 141.474 121.950 C 143.352 125.581, 143.365 126, 141.599 126 C 140.828 126, 139.310 124.496, 138.225 122.657 C 136.328 119.441, 135.959 119.290, 128.476 118.657 C 124.198 118.296, 118.741 118, 116.349 118 C 110.799 118, 110.452 115.655, 115.750 113.943 C 117.813 113.277, 121.839 111.869, 124.697 110.814 L 129.894 108.896 125.433 101.549 C 121.594 95.225, 121.111 93.838, 121.965 91.591 C 122.718 89.612, 122.547 88.118, 121.262 85.423 L 119.566 81.866 101.033 82.683 C 76.208 83.777, 62.571 83.719, 62.183 82.516 C 62.008 81.974, 72.945 78.347, 86.487 74.454 C 100.029 70.562, 111.077 66.972, 111.039 66.477 C 110.962 65.474, 108.643 65.577, 88.500 67.473 C 80.800 68.197, 74.362 68.662, 74.193 68.505 C 74.025 68.348, 75.637 65.358, 77.777 61.860 C 79.916 58.362, 82.208 54.487, 82.869 53.250 L 84.070 51 58.478 51 C 33.935 51, 32.940 51.074, 34.193 52.817 M 83.279 58 L 79.067 65 82.126 65 C 85.723 65, 109.363 62.855, 109.798 62.489 C 109.961 62.351, 108.855 59.710, 107.339 56.619 L 104.583 51 96.036 51 L 87.490 51 83.279 58 M 115.813 65.683 C 116.534 65.972, 117.397 65.936, 117.729 65.604 C 118.061 65.272, 117.471 65.036, 116.417 65.079 C 115.252 65.127, 115.015 65.364, 115.813 65.683 M 94.500 74.897 C 85.700 77.502, 77.825 79.934, 77 80.303 C 75.552 80.951, 83.155 80.723, 106.655 79.415 L 117.810 78.794 115.961 74.647 C 114.865 72.188, 113.377 70.431, 112.306 70.331 C 111.313 70.238, 103.300 72.293, 94.500 74.897 M 123.583 81.866 C 123.152 82.563, 123.070 83.403, 123.400 83.733 C 124.295 84.628, 125.271 83.312, 124.787 81.862 C 124.449 80.846, 124.213 80.846, 123.583 81.866 M 124 93.941 C 124 94.459, 124.445 95.157, 124.989 95.493 C 125.555 95.843, 125.723 95.442, 125.382 94.552 C 124.717 92.820, 124 92.503, 124 93.941 M 124.500 113.945 L 120.500 115.838 127.285 115.919 C 133.771 115.996, 134.023 115.912, 133 114 C 131.675 111.524, 129.645 111.511, 124.500 113.945" stroke="none" fill="black" fill-rule="evenodd"/>
</svg>