<svg xmlns="http://www.w3.org/2000/svg" width="200" height="200" viewBox="0 0 200 200" version="1.1">
	<path d="M 113.113 33.826 C 113.272 38.834, 113.176 43.157, 112.901 43.432 C 112.626 43.707, 103.502 40.581, 92.625 36.485 L 72.849 29.037 44.425 54.119 C 28.791 67.914, 16 79.530, 16 79.934 C 16 82.350, 17.941 81.595, 67 60.076 C 75.450 56.369, 107.913 47, 112.305 47 C 113.616 47, 114 47.906, 114 51 C 114 53.200, 113.888 55.016, 113.750 55.035 C 106.014 56.117, 77.513 62.962, 77.232 63.805 C 77.013 64.462, 77.613 65, 78.565 65 C 80.251 65, 107.247 60.507, 111.750 59.477 C 113.916 58.981, 114 59.220, 114 65.887 L 114 72.812 109.250 73.411 C 106.638 73.741, 95.050 74.913, 83.500 76.016 C 55.426 78.697, 53.811 78.933, 54.263 80.288 C 54.539 81.118, 61.527 81.371, 79.573 81.202 C 99.202 81.019, 105.006 81.261, 106.883 82.341 C 109.197 83.673, 108.975 83.866, 99.133 89.078 C 93.560 92.029, 89 94.695, 89 95.002 C 89 95.309, 94.513 97.375, 101.250 99.593 L 113.500 103.627 113.797 107.604 L 114.095 111.581 91.297 109.364 L 68.500 107.146 45.250 111.735 C 32.462 114.258, 22.006 116.588, 22.012 116.912 C 22.019 117.235, 28.769 120.413, 37.012 123.973 C 45.256 127.532, 52 130.682, 51.999 130.973 C 51.998 131.263, 48.860 134.200, 45.025 137.500 C 41.190 140.800, 38.040 144.037, 38.026 144.694 C 37.987 146.498, 48.110 183.400, 48.854 184.164 C 49.390 184.715, 79.114 174.148, 107.250 163.403 L 114 160.825 105.709 150.663 C 92.983 135.064, 92.065 134.775, 120.416 155.291 C 126.419 159.635, 131.819 163.367, 132.416 163.583 C 133.939 164.137, 175.905 168.983, 179.250 168.992 C 180.806 168.997, 181.985 168.457, 181.965 167.750 C 181.946 167.063, 173.375 160.484, 162.918 153.130 C 152.461 145.777, 144.078 139.589, 144.287 139.379 C 144.497 139.169, 154.531 132.482, 166.585 124.518 L 188.500 110.039 165.001 110.020 L 141.503 110 129.251 105.917 L 117 101.834 117 94.875 L 117 87.916 121.250 90.366 C 136.833 99.350, 151 106.663, 151 105.724 C 151 105.115, 148.941 97.012, 146.424 87.718 C 143.907 78.424, 141.994 70.683, 142.174 70.516 C 142.353 70.349, 153.300 66.941, 166.500 62.944 C 179.700 58.946, 190.826 55.400, 191.225 55.063 C 191.865 54.522, 121.109 26.857, 115.162 25.324 L 112.825 24.721 113.113 33.826 M 116 35.500 C 116 42.916, 115.990 42.911, 124.750 40.579 C 129.184 39.398, 130 39.394, 130 40.552 C 130 41.327, 128.152 42.398, 125.750 43.015 C 115.928 45.540, 115.901 45.335, 126.581 49.152 C 137.403 53.020, 137.256 52.861, 139.973 63.635 L 141.015 67.770 162.258 61.289 C 173.941 57.724, 183.604 54.709, 183.731 54.589 C 184.037 54.300, 117.718 28.936, 116.750 28.972 C 116.338 28.987, 116 31.925, 116 35.500 M 49.166 53.599 C 35.823 65.369, 25.140 75, 25.427 75 C 25.713 75, 37.322 70.034, 51.224 63.965 C 71.017 55.323, 79.537 52.163, 90.500 49.398 C 98.200 47.456, 104.859 45.515, 105.297 45.086 C 105.735 44.657, 100.785 42.380, 94.297 40.025 C 87.809 37.671, 80.459 34.947, 77.963 33.971 L 73.427 32.197 49.166 53.599 M 116 51.500 C 116 53.585, 116.457 53.983, 118.750 53.900 C 120.263 53.845, 122.625 53.469, 124 53.064 C 126.437 52.346, 126.402 52.285, 122.628 50.664 C 117.315 48.381, 116 48.547, 116 51.500 M 123.500 57.359 L 117.500 58.500 117.207 65.734 L 116.913 72.967 119.707 72.531 C 121.243 72.291, 125.088 71.845, 128.250 71.539 C 136.665 70.725, 135.826 72.962, 125.750 78.206 C 121.213 80.568, 117.500 83.109, 117.500 83.854 C 117.500 85.119, 145.782 101.551, 146.582 100.751 C 147.114 100.219, 140.005 73.870, 138.690 71.500 C 138.080 70.400, 137.691 68.951, 137.827 68.281 C 137.963 67.610, 137.350 64.572, 136.466 61.531 C 134.645 55.267, 134.591 55.250, 123.500 57.359 M 117 77 C 117 79.440, 117.543 79.440, 122 77 L 125.500 75.084 121.250 75.042 C 117.653 75.006, 117 75.307, 117 77 M 102 77 C 97.373 77.567, 97.102 77.700, 100.290 77.837 C 102.374 77.927, 105.844 78.900, 108 80 C 113.225 82.666, 114 82.537, 114 79 C 114 75.656, 113.561 75.583, 102 77 M 102.691 90.253 C 98.396 92.567, 95.471 94.653, 96.191 94.888 C 96.911 95.122, 101.213 96.565, 105.750 98.094 L 114 100.873 114 93.437 C 114 84.375, 113.736 84.301, 102.691 90.253 M 117 108.371 C 117 112.211, 114.689 111.661, 141.250 114.140 C 150.523 115.005, 154 115.689, 154 116.646 C 154 118.236, 153.872 118.266, 132.250 121.837 L 115 124.686 114.985 120.593 C 114.976 118.342, 114.639 115.998, 114.235 115.384 C 113.800 114.724, 103.913 113.414, 90 112.175 L 66.500 110.081 48 113.900 C 32.326 117.136, 29.882 117.876, 32 118.749 C 39.843 121.978, 55.619 129.223, 56.310 129.913 C 56.756 130.357, 55.631 131.971, 53.810 133.499 C 51.990 135.028, 48.294 138.259, 45.597 140.679 L 40.695 145.080 45.511 163.040 C 48.160 172.918, 50.678 181, 51.106 181 C 52.129 181, 108.044 160.289, 108.646 159.688 C 108.900 159.434, 103.912 152.781, 97.562 144.905 C 90.401 136.022, 86.372 130.228, 86.951 129.649 C 87.531 129.069, 96.525 134.885, 110.635 144.965 L 133.384 161.216 153.942 163.585 C 165.249 164.888, 174.905 165.965, 175.400 165.977 C 175.895 165.990, 168.245 160.315, 158.400 153.366 C 148.555 146.417, 140.159 140.429, 139.743 140.059 C 139.327 139.689, 147.870 133.562, 158.729 126.443 L 178.472 113.500 158.986 112.931 C 139.927 112.375, 139.259 112.282, 128.500 108.698 C 122.450 106.682, 117.388 105.026, 117.250 105.017 C 117.112 105.007, 117 106.517, 117 108.371 M 117 117.882 C 117 121.616, 117.177 121.631, 131.500 119.129 C 142.754 117.163, 142.024 116.694, 125.750 115.439 L 117 114.763 117 117.882" stroke="none" fill="black" fill-rule="evenodd"/>
</svg>