<svg xmlns="http://www.w3.org/2000/svg" width="200" height="200" viewBox="0 0 200 200" version="1.1">
	<path d="M 148.707 22.559 L 137.914 32 76.457 32 C 24.463 32, 15 32.215, 15 33.399 C 15 34.244, 17.476 35.559, 21.250 36.718 C 57.129 47.735, 65.806 50.528, 65.404 50.929 C 65.147 51.187, 55.838 52.790, 44.718 54.493 L 24.500 57.589 23.879 80.045 C 22.968 113.007, 22.880 182.815, 23.750 183.302 C 24.163 183.533, 33.950 179.989, 45.500 175.426 L 66.500 167.130 99.500 167.061 L 132.500 166.991 153.333 174.579 C 164.791 178.753, 174.399 181.935, 174.683 181.650 C 175.262 181.072, 177.090 58.756, 176.528 58.195 C 176.332 57.998, 167.925 58.291, 157.846 58.846 C 147.768 59.401, 139.448 59.775, 139.358 59.677 C 139.268 59.580, 145.001 53.007, 152.097 45.070 C 163.528 32.286, 166.599 28, 164.329 28 C 163.459 28, 118.583 61.950, 118.239 62.869 C 118.095 63.253, 121.233 63.383, 125.212 63.158 L 132.447 62.749 128.723 67.293 C 126.675 69.792, 125 72.474, 125 73.253 C 125 74.293, 120.818 75.438, 109.278 77.557 C 99.257 79.397, 92.965 81.035, 91.924 82.076 C 90.674 83.326, 87.601 83.827, 78.793 84.216 L 67.294 84.723 68.897 77.170 L 70.500 69.618 83.945 64.559 L 97.389 59.500 100.907 48.762 C 103.465 40.953, 104.124 37.724, 103.324 36.924 C 102.524 36.124, 101.234 38.795, 98.594 46.718 L 94.964 57.611 81.521 62.511 L 68.078 67.410 67.054 72.182 C 66.492 74.806, 65.742 78.764, 65.388 80.977 C 64.850 84.337, 64.361 85, 62.418 85 C 59.659 85, 59.967 83.558, 56.512 112.669 C 53.647 136.815, 53.519 139.327, 55.188 138.771 C 55.864 138.545, 58.560 127.745, 61.438 113.731 C 64.222 100.177, 66.950 88.647, 67.500 88.109 C 68.346 87.280, 89.009 85.991, 89.002 86.767 C 89.001 86.914, 82.925 98.469, 75.500 112.445 C 68.075 126.422, 62 138.127, 62 138.456 C 62 138.786, 65.375 144.373, 69.500 150.871 C 73.625 157.369, 77 162.982, 77 163.343 C 77 163.704, 74.792 164, 72.093 164 C 67.535 164, 60.725 166.387, 27.112 179.767 C 25.935 180.236, 25.796 171.278, 26.195 120.661 C 26.453 87.848, 26.919 60.747, 27.230 60.436 C 27.681 59.986, 70.415 53.100, 73.250 53.021 C 73.662 53.009, 74 52.350, 74 51.556 C 74 50.585, 70.149 48.919, 62.250 46.475 C 55.787 44.475, 45.100 41.139, 38.500 39.062 L 26.500 35.286 43.283 34.520 C 52.514 34.099, 77.714 34.065, 99.283 34.445 L 138.500 35.136 150.250 24.996 C 156.713 19.420, 162 14.439, 162 13.928 C 162 11.658, 158.778 13.750, 148.707 22.559 M 140.851 48.629 C 125.226 60.507, 125.656 60.011, 131.036 59.947 C 135.412 59.894, 135.674 59.696, 144.306 49.947 C 149.150 44.476, 152.907 40, 152.657 40 C 152.406 40, 147.093 43.883, 140.851 48.629 M 149.159 61.942 L 136.819 62.550 132.409 67.217 C 127.502 72.410, 126.803 74.503, 130.250 73.679 C 135.595 72.400, 151.137 69.804, 151.460 70.136 C 151.945 70.634, 142.646 116.704, 141.915 117.425 C 141.593 117.743, 138.060 109.115, 134.064 98.252 C 130.068 87.388, 126.506 78.238, 126.149 77.918 C 125.792 77.598, 119.200 78.544, 111.500 80.020 C 103.800 81.496, 98.572 82.883, 99.883 83.102 C 101.799 83.422, 104.851 87.921, 115.445 106.041 C 125.435 123.129, 131.482 132.148, 140.444 143.325 C 146.946 151.433, 152.094 158.219, 151.883 158.405 C 151.672 158.590, 138.225 159.812, 122 161.121 L 92.500 163.500 112.439 163.772 L 132.378 164.044 152.205 171.173 C 163.110 175.094, 172.189 178.121, 172.380 177.901 C 172.572 177.680, 172.986 151.288, 173.301 119.250 L 173.874 61 167.687 61.167 C 164.284 61.259, 155.947 61.608, 149.159 61.942 M 138.208 74.891 C 133.647 75.796, 129.847 76.898, 129.764 77.339 C 129.547 78.486, 140.392 107.998, 141.031 107.999 C 141.540 108, 148 76.671, 148 74.201 C 148 73.540, 147.662 73.055, 147.250 73.123 C 146.838 73.190, 142.768 73.986, 138.208 74.891 M 80 109.662 C 73.125 122.664, 66.896 134.500, 66.157 135.964 C 64.882 138.492, 65.185 139.211, 72.098 150.064 C 76.105 156.354, 79.410 161.576, 79.444 161.669 C 79.552 161.971, 146.164 156.170, 146.494 155.830 C 146.670 155.648, 142.123 149.650, 136.389 142.500 C 128.989 133.272, 122.286 123.190, 113.283 107.750 L 100.601 86 96.551 86.012 L 92.500 86.023 80 109.662 M 62 91.167 C 62 94.808, 62.437 94.676, 63.378 90.750 C 63.770 89.117, 63.624 88, 63.019 88 C 62.459 88, 62 89.425, 62 91.167 M 61.158 97 C 61.158 98.375, 61.385 98.938, 61.662 98.250 C 61.940 97.563, 61.940 96.438, 61.662 95.750 C 61.385 95.063, 61.158 95.625, 61.158 97" stroke="none" fill="black" fill-rule="evenodd"/>
</svg>