<svg xmlns="http://www.w3.org/2000/svg" width="200" height="200" viewBox="0 0 200 200" version="1.1">
	<path d="M 97.440 20 C 97.776 24.125, 98.311 29.750, 98.628 32.500 L 99.206 37.500 79.668 47 C 68.922 52.225, 60.100 56.752, 60.065 57.061 C 60.029 57.369, 65.620 62.737, 72.488 68.989 C 79.357 75.241, 84.806 80.528, 84.597 80.736 C 84.388 80.945, 73.481 81.531, 60.359 82.038 C 47.236 82.545, 33.691 83.257, 30.258 83.618 L 24.017 84.276 38.623 54.388 C 46.657 37.950, 53.550 24.151, 53.941 23.724 C 54.331 23.298, 58.919 26.673, 64.134 31.224 C 69.350 35.776, 74.298 40.051, 75.130 40.724 C 76.403 41.754, 77.306 41.008, 80.821 36.023 C 83.120 32.764, 85 29.626, 85 29.049 C 85 26.779, 83.024 28.228, 79.577 33.025 L 75.967 38.051 65.419 28.775 C 59.618 23.674, 54.457 19.352, 53.950 19.172 C 53.167 18.892, 20 85.113, 20 86.957 C 20 87.313, 25.287 87.068, 31.750 86.412 C 38.212 85.756, 54.862 84.888, 68.750 84.483 L 94 83.746 94 88.025 L 94 92.303 67 91.592 C 49.748 91.137, 40 91.230, 40 91.849 C 40 92.382, 42.915 108.908, 46.478 128.573 L 52.957 164.327 47.228 170.753 C 44.078 174.287, 39.325 179.614, 36.667 182.589 C 33.137 186.541, 32.219 188.147, 33.260 188.546 C 34.044 188.847, 49.318 182.083, 67.201 173.514 L 99.715 157.934 128.826 171.967 C 144.836 179.685, 158.355 186, 158.867 186 C 159.380 186, 160.125 180.339, 160.524 173.421 L 161.250 160.841 154.260 143.931 L 147.270 127.020 164.119 102.560 L 180.969 78.100 165.852 48.506 L 150.735 18.912 143.626 26.706 C 139.716 30.993, 134.402 36.750, 131.818 39.500 L 127.119 44.500 116.781 33.500 C 111.095 27.450, 104.280 20.250, 101.636 17.500 L 96.829 12.500 97.440 20 M 100.424 23.500 C 100.719 25.700, 101.894 36.262, 103.036 46.972 C 104.177 57.682, 105.271 66.604, 105.465 66.799 C 105.660 66.994, 114.607 64.920, 125.346 62.190 C 140.609 58.310, 144.985 57.517, 145.385 58.560 C 145.932 59.985, 146.066 59.927, 120.720 69.132 C 106.744 74.208, 105.954 74.636, 106.220 77 L 106.500 79.500 125.239 79.500 C 138.726 79.500, 144.106 79.831, 144.431 80.681 C 144.696 81.370, 139.568 84.808, 132.124 88.931 C 120.694 95.263, 118.796 96, 113.916 96 L 108.468 96 109.484 106.018 C 110.422 115.271, 110.718 116.209, 113.357 118.308 L 116.213 120.582 113.542 121.799 C 111.721 122.628, 111.027 123.571, 111.363 124.758 C 111.635 125.716, 112.159 129.762, 112.530 133.750 C 113.033 139.165, 112.893 141, 111.980 141 C 111.308 141, 103.049 140.299, 93.629 139.442 C 78.347 138.051, 73.607 137.059, 75.103 135.564 C 75.361 135.305, 82.756 131.982, 91.536 128.177 C 110.200 120.091, 110.848 119.282, 102.773 114.146 C 96.114 109.910, 95.630 109.865, 95.010 113.423 C 94.511 116.283, 94.374 116.178, 88.651 108.572 C 82.064 99.820, 82.065 96.924, 88.652 101.422 L 92.500 104.050 93.396 100.005 C 93.889 97.780, 94.114 95.787, 93.896 95.576 C 93.678 95.365, 82.088 94.862, 68.140 94.458 L 42.780 93.723 43.405 96.612 C 43.749 98.200, 46.707 114.309, 49.978 132.410 L 55.925 165.320 47.854 174.160 C 43.415 179.022, 40.113 183, 40.517 183 C 40.920 183, 54.401 176.683, 70.475 168.962 L 99.699 154.924 127.938 168.541 C 143.469 176.030, 156.348 181.985, 156.559 181.774 C 156.769 181.564, 157.347 176.980, 157.843 171.589 L 158.744 161.787 151.450 144.212 L 144.156 126.637 150.444 117.568 C 153.903 112.581, 161.481 101.623, 167.284 93.219 L 177.835 77.937 166.288 55.219 C 159.936 42.723, 153.645 30.572, 152.308 28.215 L 149.875 23.931 142.688 31.708 C 138.734 35.986, 133.624 41.507, 131.332 43.978 L 127.163 48.469 117.277 37.985 C 111.839 32.218, 105.702 25.700, 103.639 23.500 L 99.888 19.500 100.424 23.500 M 80.246 49.794 C 71.856 54.018, 65.106 57.806, 65.246 58.211 C 65.386 58.617, 70.378 63.408, 76.340 68.858 L 87.180 78.768 91.090 77.232 C 93.241 76.388, 95 75.090, 95 74.348 C 95 73.607, 94.618 73, 94.151 73 C 93.443 73, 87.968 54.109, 87.992 51.750 C 87.997 51.337, 88.593 51, 89.317 51 C 90.138 51, 91.313 53.918, 92.437 58.750 C 94.882 69.259, 95.930 70.814, 95.976 64 C 95.996 60.975, 96.301 54.788, 96.654 50.250 C 97.020 45.552, 96.910 42.025, 96.398 42.057 C 95.904 42.089, 88.636 45.571, 80.246 49.794 M 98.779 58.673 C 98.522 64.078, 98.403 68.623, 98.513 68.774 C 98.623 68.924, 99.501 68.745, 100.463 68.376 C 102.019 67.779, 102.135 66.755, 101.516 59.102 C 101.133 54.371, 100.465 50.128, 100.032 49.673 C 99.599 49.218, 99.035 53.268, 98.779 58.673 M 109.250 69.119 C 107.463 69.635, 106 70.471, 106 70.978 C 106 71.484, 107.463 71.304, 109.250 70.579 C 111.037 69.853, 113.175 69.012, 114 68.709 C 116.651 67.735, 112.929 68.056, 109.250 69.119 M 99.029 71.961 C 98.220 72.473, 97.848 73.182, 98.204 73.537 C 99.078 74.411, 103 73.099, 103 71.933 C 103 70.743, 100.932 70.757, 99.029 71.961 M 99.750 76.696 C 98.787 76.944, 98 78.014, 98 79.073 C 98 80.557, 98.706 81, 101.070 81 C 103.651 81, 104.088 80.655, 103.820 78.828 C 103.476 76.492, 102.508 75.985, 99.750 76.696 M 91.500 80 C 89.728 80.762, 89.813 80.867, 92.250 80.930 C 93.763 80.968, 95 80.550, 95 80 C 95 78.826, 94.231 78.826, 91.500 80 M 119.750 82.747 C 110.546 82.973, 107.003 83.399, 107.011 84.280 C 107.017 84.951, 107.301 87.188, 107.642 89.250 L 108.262 93 113.785 93 C 119.251 93, 122.922 91.449, 135.500 83.826 L 138.500 82.007 135.500 82.221 C 133.850 82.339, 126.763 82.575, 119.750 82.747 M 98.750 83.689 C 97.416 84.038, 97 85.198, 97 88.573 L 97 93 101 93 C 104.700 93, 104.999 92.794, 104.986 90.250 C 104.954 83.695, 103.715 82.392, 98.750 83.689 M 96.667 95.667 C 96.300 96.033, 96.006 98.621, 96.012 101.417 C 96.024 106.047, 96.313 106.685, 99.262 108.579 C 101.043 109.723, 103.642 111.399, 105.037 112.305 L 107.574 113.951 106.650 105.225 C 106.142 100.426, 105.225 96.169, 104.613 95.765 C 103.217 94.844, 97.560 94.774, 96.667 95.667 M 91.500 108 C 91.840 108.550, 92.316 109, 92.559 109 C 92.802 109, 93 108.550, 93 108 C 93 107.450, 92.523 107, 91.941 107 C 91.359 107, 91.160 107.450, 91.500 108 M 94.500 129.813 L 81.500 135.496 95.363 136.802 C 102.987 137.520, 109.418 137.915, 109.653 137.680 C 110.296 137.037, 108.819 123.990, 108.112 124.065 C 107.775 124.101, 101.650 126.688, 94.500 129.813" stroke="none" fill="black" fill-rule="evenodd"/>
</svg>