<svg xmlns="http://www.w3.org/2000/svg" width="200" height="200" viewBox="0 0 200 200" version="1.1">
	<path d="M 78.217 25.377 L 47.934 27.500 34.447 48.964 L 20.960 70.428 32.230 81.727 L 43.500 93.026 47.065 121.589 L 50.630 150.153 39.315 165.247 C 33.092 173.548, 28 180.385, 28 180.440 C 28 180.495, 35.312 179.996, 44.250 179.331 C 53.188 178.667, 61.187 178.095, 62.027 178.061 C 62.867 178.028, 72.027 170.350, 82.383 161 C 92.739 151.650, 101.501 144.018, 101.856 144.041 C 102.210 144.063, 109.025 154.903, 117 168.130 C 124.975 181.357, 131.795 192.658, 132.155 193.245 C 132.557 193.900, 144.469 187.793, 163.028 177.418 C 189.658 162.531, 195.354 158.870, 193.874 157.591 C 193.668 157.414, 181.575 157.553, 167 157.901 C 152.425 158.249, 140.393 158.494, 140.261 158.445 C 140.130 158.396, 142.012 153.409, 144.442 147.362 C 148.708 136.748, 166 77.356, 166 73.316 C 166 70.937, 159.296 40.289, 158.197 37.643 C 157.438 35.816, 139.247 26.729, 137.951 27.530 C 137.589 27.754, 136.712 31.340, 136 35.500 C 135.288 39.660, 134.379 43.266, 133.978 43.514 C 133.578 43.761, 130.289 41.722, 126.669 38.982 C 123.050 36.242, 119.670 34, 119.160 34 C 118.649 34, 117.921 31.525, 117.543 28.500 L 116.856 23 112.678 23.127 C 110.380 23.196, 94.873 24.209, 78.217 25.377 M 79 28.060 C 65.525 29.047, 53.371 29.888, 51.992 29.927 C 49.842 29.990, 47.767 32.744, 37.492 49.165 C 30.896 59.705, 25.333 68.756, 25.129 69.277 C 24.925 69.798, 29.547 75.028, 35.399 80.899 L 46.039 91.572 49.512 119.036 C 51.422 134.141, 52.988 147.683, 52.992 149.129 C 52.999 151.336, 44.660 163.503, 34.669 175.863 C 33.744 177.008, 35.648 177.107, 46.534 176.485 C 53.665 176.078, 60.536 175.354, 61.802 174.877 C 63.068 174.400, 72.403 166.470, 82.548 157.255 C 92.692 148.040, 101.524 140.500, 102.173 140.500 C 102.823 140.500, 110.035 151.525, 118.200 165 C 126.365 178.475, 133.462 189.642, 133.971 189.816 C 134.648 190.047, 185.518 162.289, 187.847 160.418 C 188.038 160.264, 176.430 160.403, 162.050 160.726 L 135.906 161.313 137.841 156.407 C 138.906 153.708, 141.009 148.575, 142.515 145 C 144.020 141.425, 149.385 123.906, 154.436 106.069 L 163.619 73.637 159.842 56.569 C 157.765 47.181, 156.051 39.212, 156.033 38.861 C 155.974 37.716, 140.682 30.916, 139.972 31.719 C 139.295 32.485, 137 43.162, 137 45.545 C 137 46.211, 141.387 50.070, 146.750 54.120 L 156.500 61.484 148 62.667 C 143.325 63.317, 138.089 63.883, 136.364 63.925 C 133.408 63.996, 133.184 64.274, 132.482 68.750 C 131.309 76.223, 131.306 76.239, 126.464 100.982 C 123.937 113.897, 121.774 124.559, 121.658 124.675 C 121.022 125.311, 75.880 133.213, 75.434 132.767 C 75.140 132.473, 77.848 124.882, 81.450 115.897 C 85.053 106.912, 87.983 99.097, 87.962 98.530 C 87.941 97.964, 86.118 96.250, 83.911 94.723 L 79.897 91.946 73.091 93.973 C 69.347 95.088, 65.713 96, 65.015 96 C 64.317 96, 65.603 93.985, 67.873 91.522 C 70.143 89.060, 72 86.886, 72 86.692 C 72 86.498, 69.862 84.800, 67.250 82.920 L 62.500 79.500 70.936 78.874 L 79.373 78.247 83.852 73.506 C 87.361 69.793, 88.025 68.583, 86.916 67.925 C 86.137 67.462, 78.550 63.090, 70.056 58.209 C 55.694 49.956, 51.784 47, 55.230 47 C 55.998 47, 64.443 50.374, 73.995 54.498 C 83.547 58.622, 91.855 62.109, 92.455 62.247 C 93.056 62.385, 97.556 57.998, 102.456 52.499 C 107.355 46.999, 112.420 41.337, 113.710 39.916 C 115.804 37.610, 115.985 36.722, 115.391 31.666 L 114.725 26 109.112 26.133 C 106.026 26.206, 92.475 27.073, 79 28.060 M 116.590 42.585 C 115.147 45.632, 112.562 51.472, 110.845 55.563 C 109.128 59.653, 107.110 63, 106.361 63 C 104.622 63, 104.616 63.052, 107.096 57.333 C 110.113 50.377, 111.001 48, 110.581 48 C 110.378 48, 106.969 51.598, 103.005 55.995 C 96.262 63.475, 95.938 64.041, 97.972 64.794 C 99.789 65.466, 129.730 62.603, 130.665 61.668 C 130.822 61.511, 131.588 58.340, 132.368 54.622 L 133.785 47.861 128.143 43.376 C 119.169 36.245, 119.579 36.273, 116.590 42.585 M 135.083 55.049 C 134.487 57.826, 134 60.449, 134 60.878 C 134 61.524, 145.287 60.565, 148.424 59.653 C 149.266 59.408, 137.800 50, 136.659 50 C 136.388 50, 135.678 52.272, 135.083 55.049 M 80 60.450 C 80 61.074, 89.165 66, 90.326 66 C 92.248 66, 89.681 64.204, 84.750 62.099 C 82.138 60.984, 80 60.242, 80 60.450 M 107.623 67.376 L 90.746 69.500 87.140 73.875 L 83.534 78.250 89.517 77.637 C 92.808 77.299, 102.700 76.514, 111.500 75.892 C 120.300 75.269, 127.814 74.477, 128.199 74.130 C 128.583 73.784, 129.203 71.588, 129.577 69.250 C 130.392 64.149, 132.109 64.295, 107.623 67.376 M 97.508 79.620 C 81.898 80.879, 80.375 81.174, 78.780 83.245 C 76.569 86.117, 76.581 86.705, 78.871 87.931 C 80.280 88.685, 85 87.715, 98.004 83.999 C 112.675 79.806, 119.183 77.611, 115.417 78.125 C 114.912 78.194, 106.854 78.867, 97.508 79.620 M 106.302 84.426 C 94.643 87.802, 84.817 90.850, 84.466 91.201 C 83.660 92.006, 87.945 94.478, 90.169 94.491 C 92.290 94.503, 108 108.040, 108 109.856 C 108 111.771, 106.157 110.864, 98.009 104.937 C 94.099 102.094, 90.777 99.932, 90.626 100.133 C 89.967 101.017, 79.093 129.426, 79.325 129.659 C 79.467 129.801, 88.562 128.229, 99.536 126.167 L 119.488 122.416 123.674 100.471 C 125.976 88.402, 127.779 78.473, 127.680 78.408 C 127.581 78.342, 117.961 81.051, 106.302 84.426 M 72.166 81.876 C 71.113 82.544, 71.202 82.864, 72.594 83.398 C 73.638 83.798, 74.980 83.448, 75.892 82.537 C 77.274 81.154, 77.231 81.002, 75.464 81.015 C 74.384 81.024, 72.900 81.411, 72.166 81.876 M 72.991 89.511 C 71.986 90.722, 72.047 91, 73.319 91 C 75.185 91, 76.406 89.369, 75.130 88.580 C 74.633 88.273, 73.671 88.692, 72.991 89.511" stroke="none" fill="black" fill-rule="evenodd"/>
</svg>