<svg xmlns="http://www.w3.org/2000/svg" width="200" height="200" viewBox="0 0 200 200" version="1.1">
	<path d="M 117.532 19.414 L 86.563 26.583 69.048 22.792 C 59.415 20.706, 51.075 19, 50.516 19 C 49.956 19, 47.292 27.566, 44.596 38.035 L 39.693 57.070 40.263 84.011 L 40.833 110.951 52.565 124.031 L 64.298 137.110 60.791 140.805 C 44.715 157.740, 25 179.327, 25 179.995 C 25 180.829, 42.991 182.522, 44.842 181.862 C 45.401 181.663, 55.606 172.725, 67.520 162 C 86.426 144.981, 97.787 136.444, 99.386 138.056 C 99.628 138.300, 102.791 149.038, 106.415 161.919 C 110.039 174.799, 113.223 185.557, 113.491 185.824 C 114.012 186.345, 173.221 181.018, 173.910 180.389 C 174.442 179.902, 182.791 135.606, 182.434 135.165 C 182.285 134.980, 173.965 140.060, 163.946 146.453 C 153.926 152.846, 145.352 157.947, 144.892 157.788 C 144.031 157.491, 125.007 129.675, 125.394 129.278 C 125.513 129.156, 133.010 125.686, 142.055 121.566 L 158.500 114.076 158.765 83.971 L 159.030 53.866 153.438 34.789 C 149.016 19.701, 148.123 15.542, 149.165 14.898 C 150.026 14.366, 150.139 13.765, 149.492 13.164 C 148.880 12.597, 136.641 14.991, 117.532 19.414 M 130.500 23.043 C 115.840 29.350, 114.856 29.929, 118.750 29.963 C 121.479 29.987, 122.990 30.447, 122.972 31.250 C 122.957 31.938, 116.594 36.387, 108.833 41.138 L 94.722 49.776 82.111 46.401 C 75.175 44.545, 69.108 43.020, 68.629 43.013 C 67.747 43, 68.648 69.504, 69.853 78.995 L 70.500 84.095 79.381 70.905 L 88.262 57.715 100.381 58.399 C 107.046 58.776, 115.016 59.347, 118.091 59.668 C 123.609 60.244, 123.708 60.208, 125.717 56.876 C 128.376 52.466, 147.261 15.976, 146.831 16.079 C 146.649 16.123, 139.300 19.256, 130.500 23.043 M 112.750 23.298 C 102.987 25.567, 95 27.689, 95 28.014 C 95 28.339, 97.331 29.083, 100.180 29.666 C 105.233 30.701, 105.682 30.593, 118.430 25.258 C 125.619 22.250, 131.688 19.611, 131.917 19.394 C 132.624 18.725, 131.055 19.045, 112.750 23.298 M 47.068 39.188 L 42.636 56.500 42.866 80.500 C 42.992 93.700, 43.328 105.851, 43.612 107.502 C 43.958 109.510, 48.083 114.929, 56.074 123.875 L 68.019 137.248 61.260 144.421 C 57.542 148.366, 48.953 157.518, 42.173 164.759 C 28.583 179.270, 28.775 178.361, 39.111 179.303 L 43.722 179.723 66.168 159.611 C 82.901 144.619, 90.187 138.755, 94.795 136.572 C 98.195 134.961, 101.132 133.836, 101.323 134.072 C 101.513 134.307, 104.722 145.412, 108.453 158.750 C 115.117 182.568, 115.285 183, 117.869 182.987 C 121.860 182.969, 171.208 178.126, 171.621 177.713 C 171.819 177.514, 173.328 170.185, 174.974 161.426 C 176.621 152.667, 178.236 144.262, 178.563 142.749 C 179.116 140.198, 177.906 140.798, 161.911 150.999 C 152.425 157.050, 144.401 161.990, 144.081 161.978 C 143.358 161.951, 122.078 129.846, 121.941 128.574 C 121.886 128.065, 129.414 124.212, 138.670 120.011 L 155.500 112.374 156.033 84.437 L 156.566 56.500 152.236 41 C 149.855 32.475, 147.676 24.830, 147.393 24.012 C 147.099 23.158, 142.811 30.336, 137.332 40.854 C 130.344 54.268, 128.080 59.480, 128.892 60.292 C 130.588 61.988, 130.271 62.642, 126.748 64.721 C 124.092 66.288, 121.773 70.080, 114.106 85.395 L 104.718 104.149 81.609 103.446 C 68.899 103.059, 58.401 102.664, 58.279 102.567 C 58.158 102.471, 60.148 99.277, 62.701 95.471 L 67.344 88.550 66.082 65.534 C 65.388 52.875, 64.609 42.176, 64.351 41.759 C 64.093 41.342, 63.009 41, 61.941 41 C 60.820 41, 60 40.317, 60 39.383 C 60 38.259, 60.609 37.926, 62 38.290 C 63.515 38.686, 64 38.320, 64 36.781 C 64 35.058, 63.546 34.841, 61 35.350 C 58.803 35.789, 58 35.573, 58 34.542 C 58 33.575, 61.127 32.437, 68 30.902 C 73.500 29.674, 78 28.399, 78 28.068 C 78 27.571, 71.307 25.993, 53.500 22.291 C 51.686 21.914, 51.087 23.488, 47.068 39.188 M 77.500 31.608 L 72.500 32.978 78 32.498 C 81.025 32.234, 85.975 31.982, 89 31.938 C 93.002 31.881, 93.955 31.625, 92.500 31 C 89.628 29.766, 83.284 30.023, 77.500 31.608 M 90 34.544 C 80.925 35.236, 72.005 35.847, 70.177 35.901 C 67.587 35.978, 66.927 36.383, 67.188 37.737 C 67.439 39.043, 70.845 40.397, 80.943 43.203 L 94.363 46.933 104.932 40.334 C 110.744 36.704, 115.688 33.569, 115.917 33.367 C 116.575 32.787, 107.844 33.183, 90 34.544 M 81.561 72.481 C 77.022 79.091, 73.392 84.616, 73.495 84.758 C 73.598 84.899, 84.541 80.200, 97.814 74.314 C 111.087 68.429, 121.722 63.388, 121.446 63.113 C 121.171 62.838, 113.941 62.129, 105.380 61.538 L 89.814 60.462 81.561 72.481 M 94.232 78.839 L 69.964 89.579 66.482 94.750 C 64.567 97.594, 63 100.164, 63 100.461 C 63 100.757, 72.112 100.981, 83.250 100.958 L 103.500 100.915 111.617 84.458 C 116.082 75.406, 119.457 68.022, 119.117 68.049 C 118.778 68.076, 107.580 72.932, 94.232 78.839" stroke="none" fill="black" fill-rule="evenodd"/>
</svg>