<svg xmlns="http://www.w3.org/2000/svg" width="200" height="200" viewBox="0 0 200 200" version="1.1">
	<path d="M 43.790 22.425 C 32.949 26.305, 24.399 29.769, 24.790 30.122 C 25.180 30.476, 39.669 34, 56.986 37.952 C 74.304 41.905, 88.599 45.265, 88.752 45.419 C 89.532 46.198, 67.925 47, 46.132 47 C 25.568 47, 21.810 47.218, 23.036 48.337 C 23.841 49.072, 31.025 53.392, 39 57.937 C 46.975 62.482, 54.064 66.735, 54.754 67.390 C 55.737 68.322, 52.876 69.976, 41.524 75.040 C 33.558 78.593, 27.031 82.063, 27.020 82.750 C 27.009 83.438, 27.373 84, 27.829 84 C 28.285 84, 35.559 80.837, 43.992 76.971 C 52.426 73.105, 59.688 70.068, 60.130 70.221 C 60.571 70.374, 56.175 78.530, 50.360 88.343 C 43.776 99.454, 40.141 106.541, 40.725 107.125 C 41.309 107.709, 44.963 104.087, 50.409 97.525 L 59.155 86.987 63.327 90.028 C 65.622 91.701, 68.312 93.684, 69.304 94.435 C 70.946 95.677, 71.044 96.944, 70.400 108.545 L 69.692 121.291 57.596 135.115 C 47.751 146.366, 45.447 148.526, 45.215 146.719 C 45.058 145.499, 45.324 136.625, 45.805 127 C 46.601 111.057, 46.583 107.859, 45.699 109.083 C 45.534 109.312, 37.408 121.643, 27.641 136.484 C 12.353 159.717, 10.135 163.569, 11.692 164.191 C 13.151 164.774, 65.355 173, 67.593 173 C 67.939 173, 67.927 174.575, 67.566 176.500 C 67.205 178.425, 67.052 180, 67.227 180 C 67.401 180, 76.730 176.063, 87.958 171.250 L 108.371 162.500 119.343 141.740 C 125.377 130.322, 130.446 121.113, 130.608 121.274 C 130.769 121.436, 126.416 133.883, 120.933 148.933 C 115.451 163.984, 111.085 176.407, 111.233 176.541 C 111.380 176.674, 123.425 175.951, 138 174.933 C 152.575 173.916, 165.629 173.065, 167.008 173.042 C 169.328 173.003, 169.907 171.895, 174.734 158.250 L 179.953 143.500 179.008 122.500 C 178.488 110.950, 178.049 98.673, 178.031 95.219 C 178.011 91.093, 177.571 88.802, 176.750 88.545 C 176.063 88.329, 170.228 86.962, 163.785 85.508 L 152.070 82.863 167.121 60.318 C 175.400 47.918, 181.797 37.433, 181.337 37.017 C 180.876 36.601, 174.976 33.390, 168.225 29.881 L 155.951 23.500 152.225 27.501 C 150.176 29.702, 146.655 33.626, 144.399 36.222 L 140.299 40.942 101.899 28.157 L 63.500 15.372 43.790 22.425 M 48.030 23.845 C 39.559 26.887, 33.049 29.510, 33.564 29.674 C 34.079 29.838, 49.125 33.302, 67 37.373 L 99.500 44.775 115.916 43.388 C 124.945 42.625, 132.457 41.876, 132.610 41.723 C 132.763 41.570, 117.261 36.241, 98.161 29.880 L 63.433 18.314 48.030 23.845 M 145.613 38.920 C 139.773 45.475, 134.659 51.683, 134.248 52.714 C 133.836 53.746, 129.675 61.221, 125 69.326 C 116.991 83.213, 116.356 84.023, 114 83.374 C 108.319 81.807, 107.567 82.274, 97.699 93.500 C 92.381 99.550, 88.040 104.725, 88.053 105 C 88.087 105.701, 120.065 129.442, 121.404 129.760 C 122.007 129.904, 126.296 122.816, 130.935 114.010 C 135.575 105.205, 139.962 98, 140.685 98 C 141.408 98, 142 98.219, 142 98.488 C 142 98.756, 135.920 115.701, 128.488 136.143 C 121.057 156.585, 115.094 173.413, 115.238 173.540 C 115.641 173.894, 167.114 170.219, 167.526 169.807 C 167.725 169.608, 169.966 163.607, 172.505 156.472 L 177.122 143.500 176.065 117.587 C 175.483 103.335, 174.800 91.467, 174.546 91.213 C 174.292 90.959, 168.331 89.423, 161.300 87.800 C 154.269 86.177, 148.361 84.695, 148.173 84.506 C 147.984 84.318, 154.389 74.501, 162.404 62.692 C 170.420 50.882, 177.237 40.546, 177.553 39.722 C 177.975 38.623, 175.342 36.730, 167.665 32.612 C 161.911 29.525, 156.984 27, 156.717 27 C 156.449 27, 151.452 32.364, 145.613 38.920 M 117.750 45.742 C 114.037 45.934, 111 46.444, 111 46.874 C 111 47.783, 130.103 52.054, 131.183 51.387 C 131.581 51.141, 132.858 49.603, 134.022 47.970 L 136.136 45 130.318 45.196 C 127.118 45.304, 121.463 45.549, 117.750 45.742 M 85.699 48.635 C 85.350 48.984, 73.033 49.546, 58.329 49.885 L 31.593 50.500 45.367 58.482 C 54.890 64, 59.968 66.381, 61.821 66.195 C 63.294 66.047, 73.614 68.642, 84.753 71.963 C 95.892 75.283, 105.627 78, 106.385 78 C 107.742 78, 128.446 55.113, 127.734 54.401 C 127.533 54.199, 121.387 52.677, 114.077 51.017 C 101.675 48.202, 87.335 46.998, 85.699 48.635 M 117.706 70.750 C 110.858 78.666, 110.329 79.572, 112.160 80.252 C 114.934 81.282, 115.316 80.922, 119.585 73.241 C 121.645 69.533, 123.984 65.487, 124.781 64.250 C 127.585 59.896, 125.199 62.089, 117.706 70.750 M 65 69.315 C 65 69.605, 70.063 72.801, 76.250 76.417 C 82.438 80.032, 88.080 83.367, 88.790 83.828 C 89.827 84.503, 89.702 86.359, 88.148 93.334 C 87.086 98.100, 86.312 102, 86.428 102 C 86.544 102, 90.793 97.270, 95.870 91.488 C 101.671 84.881, 104.618 80.807, 103.800 80.520 C 103.085 80.270, 94.625 77.742, 85 74.903 C 75.375 72.064, 66.938 69.526, 66.250 69.264 C 65.563 69.001, 65 69.024, 65 69.315 M 58.048 80.732 C 53.725 87.986, 53.322 89.025, 55.716 86.750 C 57.307 85.237, 58.845 84, 59.133 84 C 59.421 84, 64.761 87.825, 71 92.500 C 77.239 97.175, 82.647 101, 83.018 101 C 83.847 101, 87.029 86.856, 86.421 85.872 C 86.181 85.484, 82.501 83.156, 78.242 80.699 C 73.984 78.242, 68.874 75.271, 66.887 74.097 L 63.273 71.964 58.048 80.732 M 73.626 101.268 C 73.297 102.496, 73.026 106.650, 73.025 110.500 L 73.022 117.500 77.968 112 C 80.688 108.975, 82.933 106.239, 82.957 105.920 C 82.981 105.600, 81.025 103.921, 78.612 102.188 C 74.240 99.048, 74.221 99.045, 73.626 101.268 M 84.673 110.190 C 82.080 120.622, 70.973 174.306, 71.333 174.667 C 71.586 174.920, 79.506 171.880, 88.932 167.912 L 106.071 160.698 109.397 154.599 C 111.226 151.245, 114.554 145.037, 116.791 140.804 L 120.859 133.107 104.212 120.939 C 95.056 114.246, 87.043 108.570, 86.406 108.325 C 85.768 108.081, 84.988 108.920, 84.673 110.190 M 76.272 117.792 L 72.222 122.595 71.009 142.361 C 70.341 153.233, 69.969 162.302, 70.182 162.515 C 70.395 162.728, 72.916 151.824, 75.783 138.283 C 78.651 124.743, 80.845 113.512, 80.660 113.326 C 80.474 113.141, 78.500 115.150, 76.272 117.792 M 28.312 140.446 C 14.242 161.689, 14.146 161.873, 16.812 162.411 C 22.716 163.603, 66.250 170.079, 66.477 169.799 C 66.946 169.221, 69.122 127.789, 68.705 127.372 C 68.473 127.140, 62.564 133.487, 55.573 141.475 C 48.582 149.464, 42.634 156, 42.355 156 C 42.077 156, 42.172 147.675, 42.567 137.500 C 42.961 127.325, 43.108 119.005, 42.892 119.011 C 42.676 119.018, 36.115 128.663, 28.312 140.446" stroke="none" fill="black" fill-rule="evenodd"/>
</svg>