<svg xmlns="http://www.w3.org/2000/svg" width="200" height="200" viewBox="0 0 200 200" version="1.1">
	<path d="M 53.500 25.188 C 48 26.835, 43.324 28.355, 43.109 28.566 C 42.894 28.776, 45.931 33.224, 49.859 38.449 C 53.787 43.675, 57 48.120, 57 48.327 C 57 48.535, 51.713 47.431, 45.250 45.875 C 31.507 42.566, 32 42.623, 32 44.329 C 32 45.114, 37.640 47.835, 45.750 50.965 C 53.313 53.883, 61.674 57.118, 64.330 58.153 L 69.160 60.034 67.012 57.017 C 64.386 53.329, 64.582 53.314, 77.247 56.245 L 86.993 58.500 86.997 62.179 C 87.001 66.408, 91.237 65.022, 55.500 72.477 C 41.215 75.457, 35.500 77.042, 35.500 78.025 C 35.500 78.968, 39.171 80.201, 47.190 81.950 C 53.619 83.353, 59.132 84.763, 59.441 85.084 C 59.750 85.406, 52.127 89.418, 42.501 93.999 C 26.042 101.834, 23.867 103.182, 25.774 104.360 C 26.200 104.624, 39.750 103.050, 55.884 100.863 C 72.019 98.676, 85.379 97.045, 85.571 97.238 C 85.764 97.431, 85.647 103.056, 85.311 109.738 L 84.700 121.888 78.856 129.692 C 75.642 133.984, 72.604 137.632, 72.105 137.798 C 71.606 137.965, 65.077 136.252, 57.596 133.993 C 50.115 131.734, 43.602 130.128, 43.122 130.425 C 42.642 130.722, 36.730 128.935, 29.985 126.454 C 23.241 123.974, 17.533 122.134, 17.301 122.365 C 16.772 122.894, 38.950 196.207, 39.974 197.313 C 40.388 197.761, 47.828 186.061, 56.508 171.313 C 65.188 156.566, 72.807 143.934, 73.438 143.242 C 74.358 142.235, 75.622 142.292, 79.793 143.531 L 85 145.077 85 164.039 L 85 183 87.250 183.014 C 89.696 183.028, 164.298 172.873, 164.817 172.455 C 164.991 172.314, 164.624 168.667, 164.001 164.350 C 162.414 153.361, 160.063 113.238, 160.029 96.569 C 160.001 83.209, 160.171 82.033, 164.167 67.873 L 168.335 53.107 162.095 43.643 L 155.854 34.180 148.177 32.136 C 134.371 28.461, 126.934 26.732, 126.599 27.119 C 126.418 27.329, 122.333 35.066, 117.520 44.313 C 111.799 55.306, 108.326 60.955, 107.488 60.634 C 106.783 60.363, 102.505 59.347, 97.981 58.374 L 89.756 56.607 90.356 50.865 L 90.956 45.123 78.728 33.564 C 72.003 27.206, 65.825 22.047, 65 22.099 C 64.175 22.151, 59 23.541, 53.500 25.188 M 55.687 27.464 C 51.390 28.745, 47.712 29.955, 47.515 30.152 C 47.317 30.349, 50.383 34.842, 54.328 40.135 L 61.500 49.760 74 52.701 C 87.800 55.948, 87.782 55.952, 87.930 49.359 C 87.991 46.631, 86.547 44.826, 76.928 35.609 C 70.839 29.774, 65.326 25.031, 64.678 25.068 C 64.030 25.105, 59.984 26.184, 55.687 27.464 M 119.965 45.566 C 115.474 54.128, 111.957 61.260, 112.149 61.417 C 112.342 61.573, 115.650 62.467, 119.500 63.402 C 132.699 66.609, 134 67.068, 134 68.514 C 134 69.527, 133.191 69.812, 131.250 69.482 C 125.919 68.576, 112.828 67, 110.627 67 C 108.996 67, 107.845 68.139, 106.334 71.250 L 104.269 75.501 107.158 83.090 L 110.047 90.679 119.263 89.412 C 124.331 88.715, 128.692 88.358, 128.952 88.619 C 129.212 88.879, 127.329 95.418, 124.766 103.150 L 120.106 117.208 128.072 138.251 C 132.453 149.826, 135.872 159.461, 135.669 159.664 C 135.390 159.944, 102.196 150.370, 89.750 146.421 C 88.130 145.906, 88 147.133, 88 162.933 C 88 179.976, 88.003 180, 90.250 179.965 C 93.821 179.910, 160.990 170.343, 161.519 169.814 C 161.781 169.552, 161.352 164.424, 160.566 158.419 C 159.780 152.414, 158.571 133.275, 157.879 115.888 L 156.621 84.277 160.811 69.688 C 163.115 61.664, 165 54.615, 165 54.023 C 165 53.432, 162.534 49.264, 159.520 44.762 L 154.039 36.576 141.770 33.304 C 135.021 31.504, 129.192 30.024, 128.816 30.015 C 128.440 30.007, 124.457 37.005, 119.965 45.566 M 55 51.335 C 55 51.593, 56.452 52.311, 58.227 52.929 C 60.002 53.548, 61.015 53.643, 60.477 53.140 C 59.338 52.074, 55 50.644, 55 51.335 M 90 62.136 C 90 65.363, 90.316 65.425, 97.834 63.669 L 103.168 62.424 96.584 60.848 L 90 59.273 90 62.136 M 94.255 67.165 C 89.247 68.287, 89.218 68.367, 88.758 82.750 L 88.429 93 91.465 92.994 C 94.896 92.988, 106.061 91.273, 106.676 90.658 C 106.897 90.436, 105.761 86.935, 104.150 82.877 L 101.222 75.500 103.628 70.750 L 106.034 66 102.267 66.107 C 100.195 66.166, 96.590 66.642, 94.255 67.165 M 82.917 69.392 C 82.688 69.608, 74.175 71.476, 64 73.543 C 53.825 75.610, 45.168 77.588, 44.762 77.939 C 44.356 78.289, 49.443 79.654, 56.066 80.972 C 62.690 82.289, 68.277 83.639, 68.481 83.970 C 68.686 84.301, 61.279 88.156, 52.020 92.536 C 42.762 96.916, 35.262 100.579, 35.353 100.677 C 35.590 100.928, 85.255 94.087, 85.525 93.766 C 85.647 93.620, 85.965 87.987, 86.231 81.250 C 86.666 70.224, 86.545 69, 85.024 69 C 84.094 69, 83.146 69.176, 82.917 69.392 M 114.362 92.882 L 111.224 93.500 114.843 103.289 L 118.462 113.077 121.731 103.327 C 123.529 97.964, 125 93.222, 125 92.788 C 125 91.898, 119.091 91.950, 114.362 92.882 M 95.500 95.369 L 88.500 96.500 88.212 106.988 C 88.040 113.256, 88.287 117.078, 88.826 116.488 C 89.321 115.944, 93.004 111.225, 97.011 106 C 101.017 100.775, 104.733 95.938, 105.270 95.250 C 106.436 93.755, 105.406 93.767, 95.500 95.369 M 98.085 109.085 L 87.936 122.335 88.218 132.789 L 88.500 143.243 109.957 149.582 C 121.758 153.068, 131.483 155.826, 131.568 155.710 C 131.824 155.363, 119.408 123.075, 118.776 122.442 C 118.454 122.120, 117.882 123.263, 117.504 124.981 C 117.127 126.700, 116.375 127.958, 115.834 127.778 C 114.444 127.315, 114.448 127.045, 115.908 121.828 C 117.166 117.336, 117.072 116.779, 113.463 107.328 C 111.398 101.923, 109.378 97.125, 108.972 96.667 C 108.566 96.209, 103.667 101.797, 98.085 109.085 M 21.176 127.359 C 22.764 134.045, 40.618 191, 41.127 191 C 41.864 191, 69.641 144.280, 70.168 142.153 C 70.565 140.547, 51.898 134.548, 51.004 135.994 C 50.462 136.871, 48.367 136.207, 29.176 129.085 C 23.294 126.902, 20.948 126.396, 21.176 127.359 M 81.412 130.639 C 78.126 134.748, 75.623 138.970, 76.169 139.481 C 76.802 140.074, 84.390 141.944, 84.740 141.593 C 84.934 141.399, 84.959 137.987, 84.796 134.010 L 84.500 126.779 81.412 130.639" stroke="none" fill="black" fill-rule="evenodd"/>
</svg>