<svg xmlns="http://www.w3.org/2000/svg" width="200" height="200" viewBox="0 0 200 200" version="1.1">
	<path d="M 128.048 21.911 L 96.596 28.581 73.548 22.293 C 60.872 18.835, 49.753 16.117, 48.839 16.253 C 47.926 16.389, 42.638 22.693, 37.089 30.262 L 27 44.023 27 63.012 C 27 77.557, 27.292 81.991, 28.250 81.960 C 28.938 81.938, 39.819 78.177, 52.432 73.602 L 75.364 65.284 81.612 48.892 C 85.407 38.937, 87.502 32.134, 86.947 31.567 C 86.444 31.053, 85.858 30.828, 85.644 31.067 C 85.429 31.305, 82.694 38.250, 79.566 46.500 C 76.437 54.750, 73.441 61.941, 72.908 62.481 C 72.375 63.020, 62.503 66.900, 50.969 71.104 L 30 78.746 30 61.779 L 30 44.812 39.250 31.937 C 44.337 24.855, 48.950 19.045, 49.500 19.027 C 50.050 19.008, 60.808 21.776, 73.408 25.179 L 96.315 31.365 105.408 29.542 C 110.408 28.539, 124.843 25.562, 137.484 22.926 C 150.125 20.291, 160.535 18.217, 160.617 18.317 C 160.700 18.418, 160.977 25.475, 161.234 34 C 161.490 42.525, 161.521 47.168, 161.302 44.317 L 160.904 39.134 148.701 35.067 C 141.989 32.830, 136.030 31, 135.459 31 C 134.860 31, 132.761 42.857, 130.494 59.041 C 128.334 74.464, 126.256 87.586, 125.876 88.200 C 125.496 88.815, 120.397 90.326, 114.544 91.558 L 103.902 93.798 105.266 91.649 C 111.818 81.324, 122.170 63.853, 121.872 63.623 C 121.667 63.465, 112.537 64.723, 101.582 66.418 C 88.891 68.382, 81.513 69.954, 81.248 70.750 C 80.684 72.451, 82.097 72.357, 100.405 69.478 C 109.153 68.103, 116.432 67.098, 116.579 67.246 C 116.727 67.394, 113.499 72.967, 109.405 79.630 L 101.961 91.745 92.230 94.810 C 86.879 96.495, 81.263 98.177, 79.750 98.546 C 77.266 99.152, 75.734 102, 77.892 102 C 78.382 102, 89.268 99.761, 102.083 97.025 C 114.898 94.288, 125.476 92.151, 125.591 92.275 C 125.866 92.574, 124.163 103.184, 123.790 103.493 C 123.174 104.003, 71.274 109.263, 67.250 109.223 C 64.240 109.193, 63 109.592, 63 110.590 C 63 111.366, 63.337 112.002, 63.750 112.003 C 65.097 112.009, 102.432 119.099, 102.740 119.407 C 102.905 119.572, 96.394 120.468, 88.270 121.399 C 61.231 124.497, 60.676 125.229, 81.750 129.996 C 89.862 131.832, 97.079 133.623, 97.786 133.976 C 98.493 134.330, 93.430 135.688, 86.536 136.993 C 78.038 138.602, 74 139.791, 74 140.683 C 74 142.408, 73.211 142.479, 97.986 138.548 C 109.803 136.672, 119.544 135.220, 119.633 135.319 C 119.837 135.547, 117.978 147.368, 117.703 147.597 C 117.427 147.827, 41.502 151.018, 36.550 151.008 C 34.087 151.003, 32.958 151.352, 33.550 151.936 C 34.073 152.450, 46.803 159.859, 61.839 168.400 L 89.178 183.928 123.970 176.822 L 158.763 169.716 159.495 144.339 L 160.227 118.962 163.945 115.731 L 167.664 112.500 165.453 64 C 164.238 37.325, 163.188 15.387, 163.121 15.250 C 162.829 14.649, 157.714 15.620, 128.048 21.911 M 136.969 34.323 C 135.649 41.836, 129.352 87.624, 129.601 87.899 C 129.939 88.270, 136.825 86.925, 153.341 83.260 L 160.183 81.742 159.559 65.621 C 159.215 56.754, 158.702 47.620, 158.417 45.322 L 157.899 41.143 147.449 37.644 C 141.702 35.720, 136.986 34.225, 136.969 34.323 M 162.328 64.500 C 162.333 68.350, 162.513 69.802, 162.730 67.728 C 162.946 65.653, 162.943 62.503, 162.722 60.728 C 162.501 58.952, 162.324 60.650, 162.328 64.500 M 163 82.295 C 163 84.147, 161.565 84.582, 142.228 88.580 C 127.753 91.573, 128.878 90.757, 127.512 99.250 C 126.790 103.741, 126.009 103.634, 144 101.500 C 162.966 99.250, 161.299 98.628, 160.454 107.646 L 159.738 115.291 162.275 113.396 L 164.812 111.500 164.271 96.500 C 163.973 88.250, 163.565 81.313, 163.365 81.083 C 163.164 80.854, 163 81.399, 163 82.295 M 140 104.682 C 133.125 105.463, 127.229 106.417, 126.898 106.801 C 126.283 107.516, 122.806 131.146, 123.253 131.579 C 123.389 131.710, 128.271 131.050, 134.102 130.112 C 144.399 128.456, 144.870 128.265, 150.457 123.492 C 157.049 117.861, 158 115.962, 158 108.435 C 158 102.079, 159.731 102.440, 140 104.682 M 96.226 109.274 C 86.175 110.380, 78.075 111.403, 78.226 111.547 C 78.377 111.691, 86.487 113.278, 96.250 115.073 C 107.798 117.196, 114 118.764, 114 119.560 C 114 121.198, 112.208 121.548, 93.151 123.639 C 82.928 124.760, 77.495 125.725, 78.651 126.213 C 79.668 126.642, 86.350 128.422, 93.500 130.167 C 107.566 133.601, 117.641 134.134, 119.570 131.546 C 120.158 130.756, 121.198 125.698, 121.879 120.305 C 122.561 114.912, 123.347 109.713, 123.627 108.750 C 124.281 106.498, 120.864 106.563, 96.226 109.274 M 151.500 126.101 C 145.319 131.214, 144.664 131.463, 133.255 133.020 C 128.171 133.715, 123.614 134.782, 123.129 135.391 C 122.644 136.001, 121.940 139.038, 121.565 142.140 L 120.884 147.779 127.287 147.265 C 132.318 146.861, 133.810 147.064, 134.250 148.209 C 134.667 149.295, 132.983 150.256, 127.667 151.968 C 123.738 153.233, 120.042 154.928, 119.452 155.735 C 118.695 156.770, 73.994 170, 71.253 170 C 71.114 170, 71 169.386, 71 168.635 C 71 167.424, 84.784 162.550, 111.250 154.405 C 123.526 150.626, 118.271 150.352, 72.279 152.370 C 56.757 153.051, 43.839 153.828, 43.572 154.095 C 43.304 154.362, 53.560 160.527, 66.363 167.795 L 89.640 181.009 122.570 174.254 L 155.500 167.500 156.256 156.500 C 156.672 150.450, 156.897 140.205, 156.756 133.732 L 156.500 121.965 151.500 126.101" stroke="none" fill="black" fill-rule="evenodd"/>
</svg>