<svg xmlns="http://www.w3.org/2000/svg" width="200" height="200" viewBox="0 0 200 200" version="1.1">
	<path d="M 166.500 13.634 C 164.300 13.791, 136.175 14.660, 104 15.566 C 71.825 16.471, 45.330 17.372, 45.122 17.567 C 44.914 17.763, 46.217 21.576, 48.017 26.042 L 51.290 34.161 49.895 43.805 L 48.500 53.449 44.500 55.707 C 42.300 56.949, 40.050 58.142, 39.500 58.358 C 38.863 58.608, 38.906 59.183, 39.618 59.943 C 40.482 60.865, 41.572 60.788, 44.407 59.603 L 48.078 58.070 47.552 61.285 C 47.264 63.053, 46.106 71.250, 44.980 79.500 C 42.129 100.386, 42.534 99.152, 37.473 102.354 C 35.013 103.910, 33 105.517, 33 105.925 C 33 107.726, 34.406 107.693, 37.584 105.818 L 41 103.802 40.925 106.651 C 40.883 108.218, 40.321 113.309, 39.675 117.965 L 38.500 126.430 24 138.262 C 16.025 144.770, 8.150 151.157, 6.500 152.455 L 3.500 154.816 17.750 161.569 C 30.377 167.553, 32 168.602, 32 170.776 C 32 173.090, 32.128 173.146, 34.250 171.758 C 36.350 170.385, 37.631 170.811, 53.434 178.143 C 62.748 182.464, 70.644 186, 70.981 186 C 71.317 186, 72.387 177.787, 73.357 167.750 C 74.328 157.712, 75.368 148.047, 75.668 146.271 C 76.212 143.058, 76.348 143.179, 103.716 171.021 C 118.841 186.410, 131.598 199, 132.064 199 C 133.062 199, 193 133.150, 193 132.053 C 193 131.642, 183.550 127.118, 172 122 C 152.785 113.485, 148.760 111.218, 152.250 110.878 C 152.938 110.811, 150.926 110.379, 147.781 109.918 C 144.636 109.457, 140.361 108.202, 138.281 107.130 C 134.601 105.232, 134.567 105.165, 137 104.606 C 138.375 104.290, 151.875 102.179, 167 99.914 C 182.125 97.649, 194.641 95.664, 194.813 95.501 C 194.986 95.339, 181.627 85.846, 165.127 74.405 C 148.627 62.965, 135.302 53.320, 135.517 52.973 C 135.731 52.625, 144.044 46.791, 153.990 40.007 C 165.501 32.155, 171.725 27.325, 171.116 26.716 C 170.507 26.107, 163.316 30.392, 151.329 38.508 C 140.973 45.520, 131.969 51.762, 131.320 52.379 C 130.433 53.222, 137.301 58.459, 159.001 73.486 C 174.874 84.478, 187.712 93.622, 187.529 93.805 C 187.346 93.988, 174.091 96.118, 158.074 98.540 L 128.953 102.942 118.547 98.358 L 108.141 93.774 105.940 88.351 C 104.729 85.369, 103.979 82.688, 104.273 82.394 C 104.567 82.100, 117.463 82.419, 132.930 83.103 C 152.973 83.990, 161.362 84.038, 162.127 83.273 C 163.531 81.869, 164.874 82.225, 129.143 74.527 C 112.447 70.929, 98.385 67.738, 97.893 67.434 C 95.917 66.213, 97.333 62.153, 104.446 48.642 L 111.892 34.500 133.196 26.588 C 144.913 22.237, 155.068 18.239, 155.762 17.706 C 156.456 17.172, 162.194 16.507, 168.512 16.228 C 177.285 15.841, 180 15.399, 180 14.361 C 180 13.009, 177.312 12.864, 166.500 13.634 M 89.148 18.579 C 67.504 19.290, 49.561 20.106, 49.274 20.393 C 48.987 20.679, 49.949 23.902, 51.411 27.554 C 53.949 33.895, 54.020 34.553, 52.972 42.201 C 52.369 46.606, 52.087 50.420, 52.345 50.678 C 52.603 50.936, 54.184 50.439, 55.857 49.574 C 59.648 47.613, 60.368 47.599, 59.638 49.500 C 59.322 50.325, 59.234 51, 59.444 51 C 61.379 51, 110.492 31.831, 111.127 30.827 C 111.589 30.097, 112.087 29.229, 112.234 28.898 C 112.380 28.566, 120.375 25.926, 130 23.031 C 139.625 20.136, 147.688 17.594, 147.917 17.383 C 148.530 16.819, 133.232 17.130, 89.148 18.579 M 83 45.174 C 69.525 50.180, 58.365 54.386, 58.201 54.521 C 58.036 54.655, 56.363 58.756, 54.484 63.633 L 51.067 72.500 53.783 69.034 C 55.278 67.128, 57.625 64.293, 59 62.735 L 61.500 59.900 76 63.014 C 83.975 64.727, 91.323 66.366, 92.328 66.656 C 93.682 67.047, 94.086 66.706, 93.883 65.342 C 93.603 63.453, 94.617 61.269, 103.210 45.250 C 105.940 40.163, 108.021 36.016, 107.836 36.036 C 107.651 36.055, 96.475 40.167, 83 45.174 M 52.145 56.910 C 50.894 57.684, 49.182 66, 50.274 66 C 50.871 66, 54.157 56.824, 53.718 56.385 C 53.566 56.233, 52.858 56.469, 52.145 56.910 M 55.439 71.750 C 51.750 76.563, 48.389 80.950, 47.971 81.500 C 46.661 83.221, 45.234 96.969, 46.439 96.260 C 47.022 95.916, 53.547 91.603, 60.937 86.675 L 74.375 77.714 86.687 78.296 C 93.459 78.615, 99 78.689, 99 78.459 C 99 77.684, 95.786 70, 95.462 70 C 95.286 70, 87.941 68.425, 79.139 66.500 C 70.338 64.575, 62.914 63, 62.642 63 C 62.370 63, 59.128 66.938, 55.439 71.750 M 100.695 74.906 L 102.229 78.812 114.865 79.425 C 121.814 79.762, 131.325 80.245, 136 80.498 C 144.147 80.939, 143.587 80.752, 122.500 76.001 C 110.400 73.275, 100.199 71.034, 99.830 71.022 C 99.462 71.010, 99.851 72.758, 100.695 74.906 M 91.500 86.371 C 98.100 89.303, 103.617 91.614, 103.760 91.507 C 103.903 91.401, 103.258 89.257, 102.327 86.745 C 100.362 81.442, 99.157 80.988, 87.125 81.020 L 79.500 81.041 91.500 86.371 M 60.571 91.950 C 52.360 96.866, 45.335 101.476, 44.960 102.194 C 44.063 103.911, 41.671 122.005, 42.263 122.597 C 42.515 122.849, 47.496 119.173, 53.332 114.428 L 63.942 105.801 69.721 109.905 C 75.394 113.934, 75.512 113.967, 76.150 111.754 C 76.508 110.514, 76.845 108.198, 76.900 106.606 L 77 103.713 83.750 104.329 C 87.463 104.668, 94.911 105.251, 100.302 105.624 L 110.105 106.303 108.407 101.901 C 107.474 99.481, 106.211 96.952, 105.601 96.282 C 104.531 95.106, 77.745 82.994, 76.241 83.006 C 75.833 83.009, 68.782 87.034, 60.571 91.950 M 110 98.351 C 110 98.544, 110.494 100.119, 111.098 101.851 C 112.029 104.523, 112.673 104.985, 115.348 104.900 C 117.082 104.845, 119.602 104.493, 120.949 104.117 C 123.137 103.507, 122.730 103.144, 117.133 100.717 C 110.827 97.982, 110 97.708, 110 98.351 M 123 107 C 121.932 107.690, 123.084 107.969, 127 107.969 C 130.916 107.969, 132.068 107.690, 131 107 C 130.175 106.467, 128.375 106.031, 127 106.031 C 125.625 106.031, 123.825 106.467, 123 107 M 79.667 107.667 C 79.300 108.033, 79 110.220, 79 112.525 C 79 116.837, 79.942 117.785, 91.633 125.243 C 92.311 125.676, 95.352 124.106, 98.902 121.493 C 102.259 119.022, 105.330 117, 105.726 117 C 106.121 117, 108.076 118.893, 110.069 121.208 L 113.693 125.415 127.842 119.036 C 135.623 115.527, 141.843 112.509, 141.663 112.330 C 141.335 112.001, 85.451 107, 82.113 107 C 81.134 107, 80.033 107.300, 79.667 107.667 M 53.500 117.612 C 48.550 121.711, 43.679 125.883, 42.676 126.884 C 41.291 128.265, 40.265 132.887, 38.409 146.101 C 37.065 155.671, 36.086 164.264, 36.233 165.198 C 36.434 166.475, 41.087 163.559, 55 153.437 L 73.500 139.977 74.634 128.738 C 75.258 122.557, 75.708 117.472, 75.634 117.438 C 75.560 117.404, 73.190 115.717, 70.366 113.688 C 67.542 111.660, 64.617 110.036, 63.866 110.079 C 63.115 110.123, 58.450 113.513, 53.500 117.612 M 131 120.529 C 123.575 124.017, 117.050 127.052, 116.500 127.273 C 115.950 127.494, 122.384 135.854, 130.798 145.850 C 141.588 158.669, 145.673 164.188, 144.658 164.578 C 143.810 164.903, 134.760 159.142, 122.584 150.524 C 111.235 142.490, 101.367 135.694, 100.656 135.421 C 99.572 135.005, 82.562 142.105, 81.072 143.595 C 80.524 144.142, 131.104 195, 132.195 195 C 132.889 195, 188.243 134.423, 188.763 133.094 C 189.084 132.273, 147.722 113.962, 145.841 114.094 C 145.104 114.145, 138.425 117.041, 131 120.529 M 77.495 128.057 C 77.103 132.489, 76.977 136.310, 77.215 136.549 C 77.454 136.787, 80.450 134.901, 83.873 132.357 L 90.098 127.731 84.799 123.898 C 81.884 121.789, 79.209 120.050, 78.854 120.032 C 78.499 120.015, 77.887 123.626, 77.495 128.057 M 100.186 123.861 L 94.892 127.811 97.169 129.406 C 100.130 131.480, 101.626 131.370, 106.686 128.705 L 110.873 126.500 108.176 123.206 L 105.479 119.912 100.186 123.861 M 107.264 131.309 L 103.027 133.527 118.764 144.626 C 127.419 150.731, 134.645 155.605, 134.821 155.458 C 135.407 154.971, 113.520 129.141, 112.500 129.115 C 111.950 129.102, 109.594 130.089, 107.264 131.309 M 84.198 135.427 C 80.182 138.366, 76.582 141.103, 76.198 141.510 C 75.016 142.761, 79.904 140.953, 88.902 136.810 C 96.905 133.125, 97.366 132.753, 95.559 131.426 C 94.491 130.642, 93.141 130.019, 92.559 130.041 C 91.976 130.064, 88.214 132.487, 84.198 135.427 M 23.212 142.233 C 15.464 148.430, 9.097 153.756, 9.062 154.070 C 8.975 154.872, 31.936 165.397, 32.514 164.820 C 33.034 164.300, 37.911 131.664, 37.533 131.233 C 37.405 131.086, 30.960 136.036, 23.212 142.233 M 55.707 156.207 C 46.530 162.889, 39.130 168.444, 39.261 168.554 C 40.556 169.627, 68.442 181.891, 68.792 181.541 C 69.336 180.997, 73.129 144.795, 72.688 144.355 C 72.525 144.192, 64.884 149.525, 55.707 156.207" stroke="none" fill="black" fill-rule="evenodd"/>
</svg>