<svg xmlns="http://www.w3.org/2000/svg" width="200" height="200" viewBox="0 0 200 200" version="1.1">
	<path d="M 157 16.044 C 147.925 16.418, 122.725 16.838, 101 16.979 C 79.275 17.120, 57.157 17.520, 51.850 17.867 L 42.199 18.500 46.583 26 C 50.773 33.169, 50.967 33.857, 50.983 41.577 L 51 49.653 37.498 53.519 C 22.842 57.715, 21.443 58.289, 22.338 59.738 C 22.698 60.321, 27.966 59.590, 35.716 57.882 C 42.747 56.332, 49.063 55.049, 49.750 55.032 C 50.636 55.009, 51 57.079, 51 62.148 L 51 69.296 43 68.680 C 38.600 68.340, 35 68.217, 35 68.405 C 35 68.594, 38.621 71.125, 43.047 74.031 L 51.094 79.314 50.797 84.407 C 50.634 87.208, 50.050 89.427, 49.500 89.338 C 48.950 89.249, 46.700 88.841, 44.500 88.432 L 40.500 87.688 45.250 93.254 L 50 98.819 49.900 120.659 C 49.796 143.575, 48.964 151.788, 47.688 142.500 C 47.310 139.750, 45.570 128.613, 43.820 117.750 C 40.326 96.052, 39.226 93.980, 36.383 103.750 C 27.592 133.967, 16.218 175.551, 16.630 175.964 C 17.352 176.686, 77.833 179.501, 78.491 178.843 C 78.786 178.548, 80.001 165.525, 81.190 149.903 C 82.380 134.281, 83.477 121.334, 83.629 121.131 C 83.780 120.929, 93.645 128.496, 105.551 137.949 C 117.457 147.401, 127.305 154.992, 127.436 154.817 C 128.075 153.962, 152.054 76.721, 151.769 76.435 C 151.587 76.254, 147.177 75.834, 141.969 75.502 C 127.771 74.598, 125.619 74.163, 127.013 72.485 C 129.423 69.580, 126.909 69.012, 122.197 71.397 L 117.500 73.775 98.500 72.425 C 88.050 71.683, 78.375 71.035, 77 70.985 C 75.345 70.925, 80.199 68.018, 91.358 62.387 L 108.216 53.880 115.011 60.440 C 121.821 67.015, 124 68.254, 124 65.552 C 124 64.142, 119.206 48.216, 118.350 46.782 C 118.114 46.387, 115.903 47.045, 113.437 48.243 L 108.952 50.422 104.826 46.296 L 100.700 42.170 104.653 40.986 C 108.228 39.915, 111.040 40.348, 134.053 45.515 C 148.049 48.658, 159.558 51.290, 159.630 51.365 C 159.701 51.439, 156.375 74.520, 152.239 102.656 L 144.718 153.812 149.991 164.156 C 157.364 178.617, 162.160 187.174, 162.630 186.703 C 163.640 185.693, 182 100.554, 182 96.881 C 182 94.597, 180.622 76.927, 178.937 57.614 C 177.252 38.301, 176.138 21.090, 176.460 19.366 C 176.897 17.035, 176.636 16.074, 175.442 15.616 C 174.559 15.277, 173.761 15.082, 173.668 15.182 C 173.576 15.282, 166.075 15.670, 157 16.044 M 85.750 19.750 C 64.438 19.900, 47 20.283, 47 20.599 C 47 20.916, 48.575 23.991, 50.500 27.434 C 53.634 33.037, 54 34.478, 54 41.201 L 54 48.710 73.566 42.956 C 84.327 39.791, 93.402 36.931, 93.732 36.601 C 94.063 36.270, 93.100 36, 91.593 36 C 89.551 36, 88.937 35.566, 89.181 34.297 C 89.454 32.882, 95.349 31.539, 124.005 26.366 C 142.977 22.940, 159.400 19.943, 160.500 19.705 C 162.541 19.263, 153.816 19.269, 85.750 19.750 M 167 20.275 C 167 21.066, 157.976 24.356, 143.250 28.935 C 130.188 32.996, 118.375 36.751, 117 37.280 C 114.936 38.074, 118.670 39.178, 138.404 43.608 C 151.551 46.559, 162.429 49.096, 162.577 49.244 C 162.726 49.392, 159.411 72.862, 155.211 101.398 L 147.575 153.282 154.486 166.797 C 158.287 174.230, 161.519 179.904, 161.669 179.406 C 161.819 178.908, 165.928 160.500, 170.799 138.500 L 179.656 98.500 176.384 61 C 174.584 40.375, 173.086 22.488, 173.055 21.250 C 173.011 19.429, 172.428 19, 170 19 C 168.235 19, 167 19.525, 167 20.275 M 121.500 29.569 C 93.001 34.843, 95.540 34.038, 102.363 35.634 L 108.226 37.005 124.363 31.975 C 147.555 24.745, 147.557 24.747, 121.500 29.569 M 97.144 38.467 C 98.426 39.831, 99.198 39.980, 100.644 39.139 C 102.254 38.204, 102.279 38.057, 100.832 38.030 C 99.914 38.014, 98.339 37.711, 97.332 37.358 C 95.625 36.760, 95.612 36.836, 97.144 38.467 M 83.645 42.793 C 78.774 44.243, 75.242 45.581, 75.795 45.765 C 77.253 46.251, 93.262 42.138, 94.421 40.979 C 95.941 39.459, 93.420 39.883, 83.645 42.793 M 93 44.709 C 90.525 45.489, 80.850 47.818, 71.500 49.887 L 54.500 53.647 54.500 61.573 L 54.500 69.500 62.179 69.791 L 69.858 70.082 87.929 61.036 C 97.868 56.060, 106 51.861, 106 51.703 C 106 51.545, 104.088 49.588, 101.750 47.354 L 97.500 43.292 93 44.709 M 71.813 46.683 C 72.534 46.972, 73.397 46.936, 73.729 46.604 C 74.061 46.272, 73.471 46.036, 72.417 46.079 C 71.252 46.127, 71.015 46.364, 71.813 46.683 M 113.246 51.323 C 111.007 52.566, 111.024 52.607, 115.641 57.038 C 118.198 59.492, 120.032 60.759, 119.717 59.854 C 119.401 58.949, 118.589 56.361, 117.913 54.104 C 116.557 49.579, 116.475 49.529, 113.246 51.323 M 46 72.385 C 46 72.597, 47.125 73.507, 48.500 74.408 C 50.883 75.969, 51 75.951, 51 74.023 C 51 72.532, 50.343 72, 48.500 72 C 47.125 72, 46 72.173, 46 72.385 M 53.801 74.901 C 53.551 76.605, 53.606 77.980, 53.923 77.955 C 55.575 77.825, 63.255 73.084, 61.875 73.045 C 60.981 73.020, 58.901 72.730, 57.253 72.401 C 54.501 71.850, 54.219 72.054, 53.801 74.901 M 61.205 77.303 L 52.910 81.489 53.205 85.972 L 53.500 90.454 62.885 92.684 L 72.269 94.913 91.648 85.804 C 102.307 80.793, 110.909 76.577, 110.764 76.434 C 110.619 76.291, 103.300 75.679, 94.500 75.074 C 85.700 74.469, 76.475 73.781, 74 73.546 C 70.218 73.186, 68.176 73.786, 61.205 77.303 M 97.282 86.172 C 86.712 91.190, 78.328 95.721, 78.649 96.242 C 78.971 96.762, 80.367 96.972, 81.752 96.707 C 83.136 96.442, 86.664 96.907, 89.591 97.740 L 94.913 99.254 106.456 88.476 C 112.805 82.549, 118 77.541, 118 77.349 C 118 76.470, 115.291 77.624, 97.282 86.172 M 110.546 88.246 C 103.971 94.507, 99.021 99.876, 99.546 100.176 C 100.071 100.477, 107.138 102.431, 115.250 104.519 C 125.037 107.038, 130 108.768, 130 109.658 C 130 110.396, 129.803 111, 129.562 111 C 128.924 111, 98.797 104.035, 96.865 103.441 C 94.299 102.652, 83.818 112.704, 84.198 115.589 C 84.413 117.221, 90.383 122.517, 104.918 133.972 C 116.148 142.823, 125.645 149.712, 126.022 149.282 C 126.399 148.852, 131.544 133.030, 137.456 114.122 C 149.210 76.531, 149.044 78.044, 141.401 78.015 C 139.146 78.007, 133.971 77.744, 129.901 77.432 L 122.500 76.863 110.546 88.246 M 48.500 93 C 48.840 93.550, 49.316 94, 49.559 94 C 49.802 94, 50 93.550, 50 93 C 50 92.450, 49.523 92, 48.941 92 C 48.359 92, 48.160 92.450, 48.500 93 M 53 96.012 C 53 97.485, 53.828 99.440, 54.841 100.356 C 56.563 101.915, 57.013 101.884, 61.841 99.877 C 64.678 98.698, 67 97.420, 67 97.037 C 67 96.654, 63.850 95.664, 60 94.837 L 53 93.334 53 96.012 M 64.128 101.710 C 58.338 104.552, 56.386 105.098, 55.034 104.253 C 53.433 103.254, 53.266 104.602, 52.658 123.339 C 52.299 134.427, 52.004 149.012, 52.003 155.750 C 52 165.971, 51.752 168, 50.500 168 C 49.675 168, 48.988 167.662, 48.972 167.250 C 48.895 165.162, 39.191 106.858, 38.866 106.533 C 38.658 106.325, 34.260 121.202, 29.093 139.593 C 23.926 157.984, 19.879 173.197, 20.099 173.399 C 20.651 173.905, 75.388 176.727, 75.957 176.279 C 76.208 176.081, 77.441 163, 78.696 147.210 C 80.785 120.924, 80.843 118.399, 79.373 117.305 C 77.920 116.223, 77.969 115.855, 79.884 113.420 C 82.692 109.851, 82.942 100.411, 80.250 99.621 C 74.060 97.802, 71.384 98.149, 64.128 101.710 M 84.846 104.815 L 84.466 108.805 87.072 106.949 C 90.926 104.204, 92.612 102.004, 90.872 101.986 C 90.118 101.979, 88.538 101.715, 87.363 101.399 C 85.481 100.894, 85.181 101.301, 84.846 104.815" stroke="none" fill="black" fill-rule="evenodd"/>
</svg>