<svg xmlns="http://www.w3.org/2000/svg" width="200" height="200" viewBox="0 0 200 200" version="1.1">
	<path d="M 99.093 26.314 C 95.023 34.116, 91.613 40.611, 91.516 40.747 C 91.313 41.030, 80.393 39.149, 77.750 38.377 C 76.252 37.939, 76 36.577, 76 28.914 C 76 20.144, 75.954 19.972, 73.750 20.477 C 70.128 21.307, 28.630 29, 27.777 29 C 27.350 29, 27 29.618, 27 30.373 C 27 31.677, 32.541 32.930, 61.273 38.129 C 64.998 38.803, 67.698 39.669, 67.273 40.054 C 66.848 40.439, 54.630 43.171, 40.122 46.127 L 13.744 51.500 32.622 60.644 L 51.500 69.787 46 70.390 C 42.975 70.722, 39.150 71.107, 37.500 71.246 C 35.641 71.404, 34.500 72.059, 34.500 72.972 C 34.500 73.984, 38.249 75.579, 46.500 78.078 C 53.100 80.078, 58.837 81.526, 59.250 81.298 C 61.219 80.206, 59.401 79.017, 52.750 77.049 C 42.025 73.875, 41.902 73.725, 49.338 72.903 C 55.794 72.190, 56.587 72.339, 63.578 75.568 L 70.980 78.987 68.861 83.348 C 66.183 88.862, 59.355 92.482, 49.679 93.518 L 43 94.233 43 98.116 C 43 100.252, 43.238 102, 43.529 102 C 43.819 102, 46.731 100.650, 50 99 C 53.269 97.350, 57.313 96, 58.988 96 L 62.034 96 59.588 100.750 C 57.804 104.215, 54.710 107.393, 48.148 112.500 L 39.153 119.500 25.073 148.913 C 17.328 165.089, 11.106 178.434, 11.246 178.568 C 11.386 178.702, 25.655 175.479, 42.955 171.406 C 60.255 167.333, 75.195 164, 76.155 164 C 77.115 164, 82.079 165.813, 87.186 168.028 C 92.294 170.243, 97.023 171.931, 97.695 171.778 C 98.368 171.625, 106.474 162.459, 115.709 151.410 C 124.944 140.360, 134.584 129.009, 137.130 126.185 L 141.760 121.051 142.299 123.775 C 142.596 125.274, 145.401 141.125, 148.534 159 C 151.667 176.875, 154.621 191.920, 155.098 192.433 C 155.576 192.947, 156.255 193.078, 156.607 192.726 C 156.959 192.374, 161.188 173.013, 166.005 149.701 L 174.762 107.316 177.546 73.156 C 179.077 54.368, 180.143 38.828, 179.915 38.622 C 179.114 37.900, 144.079 24, 143.059 24 C 142.377 24, 141.938 34.895, 141.764 56.131 L 141.500 88.262 132.763 74.253 C 124.728 61.370, 123.382 58.418, 116.010 37.527 C 111.601 25.033, 107.655 14.207, 107.243 13.469 C 106.753 12.594, 103.923 17.053, 99.093 26.314 M 102.807 25.066 C 100.842 28.605, 98.079 33.804, 96.666 36.621 L 94.097 41.741 98.299 42.322 C 107.218 43.556, 113 45.193, 113 46.485 C 113 47.727, 109.646 48.946, 93.189 53.683 C 87.253 55.392, 86.696 55.816, 83.831 60.809 C 82.156 63.729, 80.964 66.297, 81.182 66.515 C 81.400 66.733, 87.636 66.266, 95.039 65.476 C 111.772 63.691, 114 63.667, 114 65.277 C 114 65.979, 107.250 69.904, 99 74 C 90.750 78.096, 84 81.748, 84 82.116 C 84 82.485, 84.787 83.096, 85.750 83.474 C 87.209 84.047, 86.670 84.889, 82.500 88.542 C 79.277 91.365, 78.211 92.780, 79.500 92.521 C 80.600 92.301, 90.203 91.889, 100.839 91.607 C 115.885 91.208, 120.073 91.367, 119.707 92.322 C 118.238 96.149, 74.615 159, 73.428 159 C 72.643 159, 72 158.842, 72 158.648 C 72 158.454, 75.571 150.129, 79.935 140.148 C 84.300 130.167, 87.669 122, 87.423 122 C 87.176 122, 74.315 130.800, 58.843 141.556 C 40.422 154.362, 30.373 160.773, 29.729 160.129 C 29.086 159.486, 32.908 151.274, 40.803 136.336 C 47.434 123.790, 52.693 113.359, 52.490 113.157 C 52.287 112.954, 49.654 114.715, 46.638 117.071 C 41.281 121.254, 40.864 121.964, 28.573 147.839 C 21.653 162.406, 16.108 174.441, 16.250 174.584 C 16.393 174.727, 29.558 171.742, 45.505 167.951 C 61.452 164.160, 75.255 161.045, 76.178 161.029 C 77.101 161.013, 82.188 162.866, 87.482 165.146 C 93.069 167.552, 97.466 168.916, 97.961 168.396 C 98.429 167.903, 104.817 160.284, 112.156 151.464 C 129.419 130.718, 142.255 116, 143.084 116 C 143.796 116, 144.529 119.787, 151.069 157.250 C 153.445 170.863, 155.662 182, 155.995 182 C 156.328 182, 160.075 165.013, 164.321 144.250 C 171.652 108.395, 172.164 105.019, 174.507 77 C 175.863 60.775, 176.979 45.861, 176.987 43.857 L 177 40.214 161.750 34.104 C 153.363 30.743, 146.168 27.995, 145.763 27.997 C 145.357 27.999, 144.907 43.806, 144.763 63.124 L 144.500 98.248 133.135 80.041 C 122.326 62.724, 121.409 60.823, 114.389 41.167 C 110.329 29.800, 106.866 20.080, 106.693 19.566 C 106.519 19.053, 104.771 21.528, 102.807 25.066 M 51.500 27.493 C 42.700 29.291, 36.021 30.816, 36.657 30.881 C 37.293 30.947, 45.024 32.350, 53.837 34 C 75.320 38.022, 74.422 38.096, 73.636 32.360 C 73.286 29.809, 73 26.884, 73 25.860 C 73 23.359, 70.976 23.512, 51.500 27.493 M 51 46.544 C 36.975 49.494, 24.825 52.082, 24 52.295 C 23.175 52.508, 30.150 56.392, 39.500 60.925 L 56.500 69.167 65 68.505 C 76.991 67.572, 77.193 67.485, 80.163 61.915 C 82.321 57.866, 82.510 57.010, 81.163 57.395 C 80.248 57.655, 74.054 59.473, 67.397 61.434 C 53.615 65.495, 54 65.429, 54 63.724 C 54 62.941, 59.891 60.720, 69.250 57.974 L 84.500 53.500 87.253 48.364 L 90.005 43.228 85.253 42.542 C 82.639 42.165, 79.600 41.704, 78.500 41.518 C 77.400 41.332, 65.025 43.593, 51 46.544 M 90.647 47.614 C 89.694 49.613, 89.073 51.407, 89.268 51.601 C 89.462 51.795, 93.419 50.767, 98.061 49.316 C 106.272 46.749, 106.405 46.658, 103 45.952 C 92.196 43.711, 92.530 43.666, 90.647 47.614 M 91.500 68.554 C 85.450 69.246, 80.172 69.854, 79.770 69.906 C 79.369 69.958, 78.120 71.804, 76.995 74.010 L 74.949 78.020 77.550 79.205 C 79.898 80.275, 81.431 79.745, 93.326 73.753 C 100.572 70.102, 105.600 67.156, 104.500 67.206 C 103.400 67.256, 97.550 67.863, 91.500 68.554 M 68.250 70.737 C 65.362 70.939, 63.002 71.419, 63.004 71.802 C 63.006 72.186, 65.097 73.359, 67.650 74.410 C 72.220 76.289, 72.314 76.289, 73.613 74.410 C 74.338 73.359, 75.415 71.938, 76.005 71.250 C 76.811 70.311, 76.633 70.046, 75.289 70.185 C 74.305 70.287, 71.138 70.535, 68.250 70.737 M 72 83 C 70.774 85.290, 71.703 85.541, 74.250 83.608 C 76.384 81.988, 76.492 81, 74.535 81 C 73.730 81, 72.589 81.900, 72 83 M 73.875 87.001 C 67.430 90.329, 65.559 93, 69.672 93 C 71.142 93, 74.406 91.381, 77.141 89.295 C 84.932 83.353, 83.240 82.165, 73.875 87.001 M 88.262 94.958 L 74.023 95.500 66.721 101.224 C 59.972 106.514, 58.950 107.839, 53.222 118.724 C 49.813 125.201, 44.085 136.033, 40.494 142.795 C 36.351 150.595, 34.610 154.731, 35.732 154.109 C 36.704 153.569, 50.100 144.368, 65.500 133.662 C 80.900 122.957, 93.619 114.309, 93.764 114.446 C 93.909 114.583, 91.082 121.392, 87.482 129.579 C 83.882 137.766, 81.348 144.022, 81.852 143.482 C 83.293 141.936, 115 95.106, 115 94.522 C 115 93.987, 112.855 94.022, 88.262 94.958 M 46 96.969 C 46 97.501, 46.675 97.678, 47.500 97.362 C 48.325 97.045, 49 96.609, 49 96.393 C 49 96.177, 48.325 96, 47.500 96 C 46.675 96, 46 96.436, 46 96.969 M 63.959 98.076 C 62.950 99.963, 63.032 100.053, 64.869 99.070 C 67.568 97.626, 68.482 96, 66.594 96 C 65.756 96, 64.570 96.934, 63.959 98.076" stroke="none" fill="black" fill-rule="evenodd"/>
</svg>