<svg xmlns="http://www.w3.org/2000/svg" width="200" height="200" viewBox="0 0 200 200" version="1.1">
	<path d="M 40.848 22.387 C 34.743 27.399, 30.367 31.614, 31.124 31.753 C 31.881 31.893, 43.050 31.172, 55.945 30.152 C 79.112 28.319, 79.429 28.321, 82.695 30.248 C 84.513 31.320, 86 32.521, 86 32.915 C 86 33.310, 72.672 38.328, 56.382 44.067 C 30.852 53.060, 24.301 55.943, 26.126 57.381 C 26.332 57.542, 39.883 56.960, 56.240 56.086 C 73.261 55.177, 87.375 54.848, 89.240 55.318 C 91.033 55.769, 94.866 56.815, 97.757 57.642 L 103.014 59.146 99.207 62.323 C 95.494 65.421, 94.506 65.650, 59.700 71.500 C 40.065 74.800, 24 77.872, 24 78.326 C 24 79.143, 28.809 85.691, 38.209 97.674 L 43.052 103.849 58.776 98.304 C 67.424 95.255, 77.904 91.621, 82.065 90.229 L 89.629 87.697 94.686 91.103 L 99.744 94.509 95.622 99.124 C 93.355 101.662, 85.950 107.667, 79.167 112.467 L 66.834 121.195 68.866 123.358 L 70.898 125.521 58.199 139.181 C 50.666 147.285, 45.251 152.366, 44.887 151.671 C 44.551 151.027, 43.747 143.750, 43.102 135.500 C 41.421 114.010, 40.963 111, 39.371 111 C 38.617 111, 37.998 111.112, 37.996 111.250 C 37.994 111.388, 33.523 128.816, 28.061 149.981 C 22.598 171.145, 18.242 188.575, 18.381 188.714 C 18.729 189.063, 72.899 138.461, 76 134.890 L 78.500 132.012 97.697 149.726 C 108.256 159.468, 116.717 167.616, 116.501 167.832 C 116.285 168.048, 113.797 167.671, 110.973 166.994 C 107.398 166.136, 105.520 166.080, 104.792 166.808 C 104.063 167.537, 104.924 168.165, 107.623 168.877 C 115.294 170.900, 151.938 180, 152.411 180 C 152.678 180, 160.982 169.268, 170.865 156.152 L 188.834 132.304 178.624 120.288 C 173.008 113.679, 166.594 106.073, 164.370 103.386 L 160.326 98.500 163.469 78.750 C 166.205 61.556, 166.411 59, 165.056 58.996 C 164.200 58.994, 155.625 60.183, 146 61.639 L 128.500 64.285 120.799 72.393 C 115.751 77.706, 113.081 79.897, 113.049 78.750 C 113.022 77.787, 112.662 76.993, 112.250 76.984 C 111.838 76.975, 106.653 78.649, 100.728 80.702 C 90.395 84.285, 89.846 84.370, 87.254 82.797 C 85.768 81.896, 84.413 80.740, 84.243 80.230 C 84.073 79.720, 86.817 76.771, 90.340 73.678 L 96.745 68.055 109.873 65.871 C 118.448 64.444, 123 63.258, 123 62.451 C 123 61.749, 119.921 60.461, 115.873 59.469 L 108.746 57.722 114.075 53.023 L 119.405 48.325 112.452 44.295 C 108.629 42.079, 103.025 38.835, 100 37.086 L 94.500 33.907 99 34.488 C 110.955 36.029, 194.854 44.997, 197.333 44.998 C 199.139 44.999, 200.017 44.552, 199.755 43.764 C 199.500 43.001, 183.902 39.463, 158.965 34.514 L 118.587 26.500 126.994 25.216 C 131.617 24.511, 135.580 23.753, 135.800 23.533 C 137.473 21.860, 133.049 21.598, 119.827 22.586 L 104.500 23.731 78.224 18.503 L 51.948 13.275 40.848 22.387 M 45.235 22.209 C 41.240 25.561, 38.090 28.401, 38.235 28.519 C 38.450 28.694, 57.457 27.320, 89.500 24.813 C 92.426 24.584, 88.397 23.477, 74.500 20.692 C 64.050 18.598, 54.825 16.711, 54 16.500 C 53.175 16.288, 49.231 18.857, 45.235 22.209 M 100.500 28.502 C 99.950 28.692, 96.822 29.150, 93.548 29.521 C 89.015 30.034, 88.004 30.423, 89.306 31.151 C 90.246 31.678, 91.390 31.877, 91.847 31.594 C 92.304 31.312, 107.004 32.638, 124.512 34.540 C 142.020 36.443, 157.280 37.948, 158.423 37.885 C 159.565 37.822, 149.700 35.596, 136.500 32.939 C 115.540 28.721, 103.996 27.298, 100.500 28.502 M 63.821 44.300 C 49.697 49.346, 38.299 53.633, 38.492 53.826 C 38.686 54.019, 49.791 53.658, 63.172 53.023 L 87.500 51.870 96.500 54.347 L 105.500 56.825 109.750 53.345 C 112.088 51.432, 114 49.499, 114 49.050 C 114 48.238, 91.302 34.943, 90.119 35.062 C 89.779 35.097, 77.944 39.254, 63.821 44.300 M 161.750 38.662 C 162.438 38.940, 163.563 38.940, 164.250 38.662 C 164.938 38.385, 164.375 38.158, 163 38.158 C 161.625 38.158, 161.063 38.385, 161.750 38.662 M 103.914 62.002 L 101.500 64.091 107 63.433 C 114.501 62.534, 115.125 61.795, 109.414 60.573 C 107.073 60.073, 105.746 60.417, 103.914 62.002 M 144.500 64.621 L 129.500 67.044 121.468 75.679 L 113.436 84.313 114.312 92.907 C 114.794 97.633, 115.258 101.536, 115.344 101.581 C 119.598 103.779, 151 125.257, 151 125.968 C 151 128.058, 148.612 126.770, 132.387 115.924 C 123.274 109.833, 115.718 104.995, 115.597 105.174 C 115.475 105.354, 116.753 119.890, 118.438 137.477 L 121.500 169.455 136.500 173.175 C 148.073 176.045, 151.756 176.621, 152.618 175.697 C 153.947 174.274, 183.279 135.058, 184.365 133.252 C 184.846 132.453, 180.248 126.296, 171.558 116.104 C 162.459 105.432, 158.003 99.429, 158.009 97.851 C 158.013 96.558, 159.134 88.525, 160.500 80 C 161.866 71.475, 162.987 63.938, 162.991 63.250 C 163.002 61.670, 162.567 61.702, 144.500 64.621 M 58.500 74.267 C 42 77.044, 28.351 79.433, 28.168 79.574 C 27.486 80.101, 43.375 100, 44.478 100 C 45.753 100, 82.703 87.231, 84.859 86.046 C 85.840 85.506, 85.163 84.646, 82.427 82.955 L 78.635 80.611 85.046 74.806 C 88.572 71.613, 90.792 69.049, 89.979 69.108 C 89.165 69.168, 75 71.489, 58.500 74.267 M 100.101 83.712 L 92.701 86.266 95.101 88.088 C 101.459 92.916, 101.862 92.900, 106.624 87.640 C 110.738 83.096, 111.431 80.897, 108.691 81.079 C 108.036 81.122, 104.170 82.307, 100.101 83.712 M 107.585 90.478 C 104.438 94.603, 104.573 94.988, 110.250 98.108 C 112.231 99.198, 112.433 97.585, 111.189 90.583 L 110.493 86.665 107.585 90.478 M 102.630 97.479 C 102.962 98.343, 98.811 104.663, 92.297 113.212 C 86.309 121.070, 81.092 128.020, 80.704 128.656 C 79.994 129.818, 116.716 164.617, 117.658 163.675 C 118.130 163.203, 113.319 108.234, 112.479 104.500 C 112.231 103.400, 109.789 101.045, 107.052 99.268 C 104.236 97.438, 102.317 96.662, 102.630 97.479 M 86.437 113.250 C 74.971 125.046, 74.657 125.470, 76.343 126.870 C 77.661 127.963, 81.244 123.840, 93.807 106.775 C 96.303 103.383, 94.411 105.046, 86.437 113.250 M 74.711 118.781 C 72.055 120.562, 71.237 121.637, 71.976 122.376 C 72.716 123.116, 73.983 122.479, 76.214 120.247 C 80.274 116.188, 79.583 115.514, 74.711 118.781 M 30.761 150.496 C 26.542 166.956, 23.182 180.504, 23.295 180.602 C 23.689 180.946, 71.874 135.475, 73.992 132.760 C 76.153 129.990, 75.976 128, 73.570 128 C 72.848 128, 65.787 134.969, 57.879 143.487 C 49.970 152.004, 43.236 158.979, 42.913 158.987 C 42.591 158.994, 41.742 151.777, 41.027 142.950 C 38.935 117.121, 39.404 116.777, 30.761 150.496" stroke="none" fill="black" fill-rule="evenodd"/>
</svg>