<svg xmlns="http://www.w3.org/2000/svg" width="200" height="200" viewBox="0 0 200 200" version="1.1">
	<path d="M 56 19.057 C 39.225 20.043, 24.488 20.883, 23.250 20.925 L 21 21 21.022 62.750 C 21.038 94.683, 20.525 112.784, 18.838 139.733 C 17.625 159.111, 16.923 175.256, 17.278 175.611 C 17.808 176.142, 35.614 172.748, 63.224 166.854 L 67.948 165.845 62.111 157.165 L 56.275 148.485 64.521 139.743 C 69.056 134.934, 73.167 131, 73.656 131 C 74.144 131, 78.356 134.831, 83.014 139.514 C 87.673 144.197, 91.995 147.832, 92.619 147.593 C 93.243 147.353, 100.447 142.271, 108.627 136.299 C 116.807 130.327, 125.003 124.382, 126.839 123.089 L 130.179 120.736 125.259 128.618 C 91.841 182.153, 92.266 181.428, 93.730 182.333 C 94.207 182.628, 105.375 173.947, 118.548 163.043 C 131.722 152.139, 142.602 143.308, 142.727 143.419 C 142.851 143.529, 142.024 146.905, 140.887 150.921 C 139.751 154.936, 139.199 158.567, 139.661 158.988 C 141.534 160.700, 171.087 177.247, 171.512 176.821 C 172.070 176.263, 183.966 97.633, 183.554 97.221 C 183.394 97.060, 169.141 96.608, 151.881 96.215 L 120.500 95.500 148.987 88.680 C 164.654 84.929, 177.549 81.779, 177.641 81.680 C 177.733 81.581, 175.066 66.988, 171.714 49.250 L 165.619 17 162.559 17.026 C 160.877 17.040, 147.125 18.568, 132 20.422 L 104.500 23.792 99.265 20.396 C 95.461 17.928, 93.002 17.036, 90.265 17.132 C 88.194 17.204, 72.775 18.071, 56 19.057 M 53.500 22.008 C 37 22.959, 23.318 23.796, 23.096 23.869 C 22.678 24.005, 23.809 48.180, 24.251 48.536 C 24.388 48.646, 39.688 49.052, 58.250 49.437 L 92 50.138 92 43.569 C 92 38.598, 91.659 37, 90.597 37 C 89.125 37, 46.865 42.606, 41.250 43.546 C 38.751 43.965, 38 43.734, 38 42.545 C 38 41.695, 38.337 41, 38.750 41 C 39.163 40.999, 50.975 39.425, 65 37.500 C 79.025 35.575, 90.838 34.001, 91.250 34 C 91.662 34, 92 31.975, 92 29.500 C 92 25.731, 92.311 25, 93.918 25 C 94.973 25, 96.580 24.715, 97.488 24.366 C 98.861 23.839, 98.664 23.418, 96.320 21.873 C 93.002 19.685, 93.858 19.682, 53.500 22.008 M 132.658 23.005 C 120.094 24.571, 109.608 26.058, 109.355 26.312 C 109.102 26.565, 110.381 27.668, 112.197 28.763 C 115.284 30.624, 116.075 30.674, 124.284 29.539 L 133.067 28.324 136.361 32.912 C 145.419 45.530, 151 53.914, 151 54.902 C 151 55.506, 150.363 56, 149.584 56 C 148.492 56, 148.006 58.516, 147.456 67 C 147.064 73.050, 146.463 77.983, 146.121 77.962 C 145.780 77.941, 134.124 76.440, 120.220 74.625 L 94.939 71.326 95.626 93.663 C 96.225 113.169, 96.122 116, 94.810 116 C 93.705 116, 92.450 112.370, 90.057 102.250 C 83.752 75.583, 82.399 70.633, 81.317 70.272 C 80.717 70.072, 75.684 74.991, 70.133 81.204 C 61.800 90.531, 60.038 93.063, 60.021 95.729 C 60.002 98.592, 59.238 99.469, 53.284 103.463 C 44.046 109.661, 42.978 107.952, 50.669 99.279 L 56.681 92.500 57.341 78.583 C 57.704 70.928, 58.154 64.512, 58.342 64.325 C 58.529 64.137, 63.242 64.519, 68.813 65.172 C 77.938 66.243, 79.128 66.194, 80.801 64.680 C 83.201 62.508, 84 62.559, 84 64.883 C 84 66.718, 86.496 67.957, 90.250 67.986 C 91.759 67.998, 92 66.989, 92 60.655 L 92 53.310 78.342 52.655 C 70.830 52.295, 55.530 52, 44.342 52 L 24 52 24.025 76.250 C 24.039 90.043, 23.101 115.912, 21.850 136.242 C 20.640 155.900, 19.850 172.183, 20.093 172.426 C 20.560 172.893, 61.809 164.524, 62.514 163.819 C 62.741 163.593, 60.694 160.053, 57.966 155.954 C 55.238 151.854, 53.117 148.201, 53.253 147.835 C 53.389 147.469, 57.925 142.616, 63.334 137.052 L 73.168 126.935 82.834 135.815 L 92.500 144.695 113.465 129.422 C 124.996 121.021, 134.814 114.385, 135.283 114.675 C 136.607 115.493, 136.078 116.436, 117.892 145.645 C 108.484 160.756, 100.947 173.268, 101.143 173.449 C 101.339 173.631, 111.625 165.305, 124 154.947 C 136.375 144.590, 146.786 136.090, 147.136 136.058 C 147.485 136.026, 146.482 140.809, 144.905 146.686 C 143.328 152.563, 142.142 157.453, 142.269 157.553 C 143.656 158.641, 169.346 172.983, 169.540 172.778 C 169.684 172.625, 172.230 156.300, 175.197 136.500 C 180.525 100.943, 180.566 100.492, 178.546 99.850 C 177.421 99.492, 166.375 99.152, 154 99.095 C 124.883 98.960, 109 98.056, 109 96.534 C 109 95.869, 114.868 93.976, 122.750 92.099 C 176.075 79.394, 174.002 79.978, 173.966 77.663 C 173.948 76.473, 171.579 63.125, 168.702 48 L 163.471 20.500 159.486 20.330 C 157.293 20.236, 145.221 21.440, 132.658 23.005 M 95.250 27.662 C 94.563 27.940, 94 29.318, 94 30.726 C 94 33.263, 94.052 33.280, 100.147 32.642 C 103.527 32.289, 107.127 32, 108.147 32 C 110.842 32, 110.419 30.679, 107.096 28.716 C 104.365 27.103, 98.033 26.539, 95.250 27.662 M 129.500 31.500 C 128.950 31.689, 126.332 32.135, 123.682 32.493 L 118.863 33.143 130.682 40.865 C 137.182 45.112, 143.168 48.997, 143.985 49.498 C 144.802 49.999, 143.866 48.179, 141.906 45.454 C 139.945 42.729, 136.838 38.362, 135.001 35.750 C 133.164 33.138, 131.400 31.036, 131.080 31.079 C 130.761 31.122, 130.050 31.312, 129.500 31.500 M 101.750 35.253 L 95 36.234 95 43.007 L 95 49.780 115.250 50.498 C 126.388 50.893, 136.621 51.055, 137.990 50.858 C 140.065 50.560, 138.360 49.124, 127.775 42.250 C 113.982 33.294, 114.419 33.411, 101.750 35.253 M 95 60.811 L 95 68.622 119.250 71.698 C 132.588 73.390, 143.725 74.564, 144 74.306 C 144.275 74.048, 144.652 69.446, 144.839 64.078 L 145.177 54.319 131.431 53.659 C 123.870 53.297, 112.580 53, 106.342 53 L 95 53 95 60.811 M 60.038 77.636 L 60.075 88.500 63.288 84.839 C 65.054 82.825, 68.871 78.479, 71.770 75.180 L 77.040 69.183 73.270 68.618 C 71.196 68.308, 67.362 67.765, 64.750 67.413 L 60 66.773 60.038 77.636 M 87.662 80.193 C 93.265 103.701, 92.984 103.332, 92.715 86.821 C 92.584 78.748, 92.257 71.938, 91.988 71.688 C 91.720 71.438, 90.084 70.930, 88.352 70.560 L 85.205 69.886 87.662 80.193" stroke="none" fill="black" fill-rule="evenodd"/>
</svg>