<svg xmlns="http://www.w3.org/2000/svg" width="200" height="200" viewBox="0 0 200 200" version="1.1">
	<path d="M 38.725 35.992 C 28.949 50.828, 20.729 63.544, 20.458 64.250 C 20.109 65.159, 23.582 66.477, 32.362 68.767 C 45.820 72.276, 52.423 72.659, 76.843 71.346 C 86.059 70.851, 89 70.366, 89 69.343 C 89 68.247, 86.227 68.092, 74.250 68.522 C 66.138 68.813, 56.941 69.255, 53.813 69.504 C 49.569 69.841, 45.129 69.175, 36.313 66.877 C 29.816 65.183, 24.355 63.660, 24.178 63.493 C 23.474 62.829, 58.101 12, 59.260 11.995 C 61.846 11.985, 125 26.436, 125 27.038 C 125 28.115, 98.373 32.833, 80 35.011 C 58.194 37.596, 57 37.833, 57 39.579 C 57 40.723, 59.209 41, 68.344 41 C 74.584 41, 84.477 41.293, 90.328 41.651 L 100.967 42.302 106.498 53.803 C 109.540 60.129, 111.891 65.443, 111.722 65.611 C 111.554 65.780, 106.959 62.786, 101.513 58.959 C 96.066 55.131, 91.274 52, 90.864 52 C 87.865 52, 90.707 54.772, 101.097 61.985 C 107.698 66.566, 113.586 71.226, 114.182 72.339 C 115.119 74.091, 114.675 74.871, 110.882 78.134 C 107.202 81.300, 105.940 81.833, 103 81.460 C 101.075 81.215, 88.475 80.326, 75 79.483 C 61.525 78.640, 49.263 77.747, 47.750 77.500 L 45 77.050 45 117.525 L 45 158 47.750 157.980 C 49.263 157.970, 56.350 157.299, 63.500 156.490 C 78.624 154.780, 82.788 154.639, 81.450 155.885 C 80.927 156.371, 68.800 160.890, 54.500 165.927 C 40.200 170.963, 27.825 175.341, 27 175.655 C 25.440 176.248, 66.506 184.205, 68.806 183.755 C 69.525 183.615, 73.125 177.875, 76.806 171 L 83.500 158.500 92.500 155.367 C 98.112 153.413, 104.692 151.960, 109.981 151.508 C 115.989 150.994, 119.171 150.224, 120.893 148.869 C 123.836 146.555, 120.658 144.002, 150.619 172.750 C 169.198 190.577, 176 196.164, 176 193.598 C 176 193.377, 169.272 179.100, 161.050 161.872 C 144.235 126.639, 144.881 130.335, 154.339 123.480 L 159.697 119.597 160.316 89.549 C 160.864 62.978, 161.231 57.995, 163.487 46.500 C 164.890 39.350, 166.283 31.700, 166.582 29.500 C 166.881 27.300, 167.500 23.813, 167.957 21.750 C 168.457 19.493, 168.414 18, 167.850 18 C 167.335 18, 159.883 19.575, 151.290 21.500 C 142.697 23.425, 134.657 25, 133.423 25 C 132.189 25, 115.096 21.400, 95.438 17 C 75.780 12.600, 58.977 9.004, 58.098 9.009 C 57.117 9.015, 49.633 19.439, 38.725 35.992 M 152.500 23.963 C 145.900 25.492, 141.175 26.994, 142 27.300 C 146.283 28.891, 162.450 31.941, 163.060 31.273 C 163.760 30.507, 165.410 20.916, 164.811 21.091 C 164.640 21.141, 159.100 22.434, 152.500 23.963 M 120.500 31.154 C 113.900 32.745, 101.752 34.972, 93.504 36.103 C 85.256 37.233, 78.319 38.348, 78.087 38.579 C 77.856 38.811, 83.306 39, 90.199 39 L 102.732 39 105.769 45.750 C 107.439 49.462, 110.922 56.859, 113.509 62.187 L 118.211 71.874 137.856 54.782 C 148.660 45.381, 157.950 37.276, 158.500 36.771 C 159.109 36.212, 156.668 36.128, 152.250 36.556 C 147.182 37.047, 145 36.924, 145 36.148 C 145 34.997, 147.350 34.250, 152.500 33.767 C 155.014 33.530, 145.372 30.816, 134 28.558 C 133.175 28.394, 127.100 29.562, 120.500 31.154 M 140.871 55.616 C 129.667 65.355, 120.373 73.829, 120.218 74.447 C 119.988 75.363, 143.309 125.629, 144.539 126.869 C 144.741 127.072, 147.569 125.278, 150.825 122.881 L 156.744 118.524 157.430 89.512 C 157.961 67.108, 158.573 58.027, 160.117 49.642 C 161.217 43.670, 161.920 38.586, 161.679 38.346 C 161.438 38.105, 152.075 45.876, 140.871 55.616 M 113.500 79.474 L 110.500 81.928 113.668 81.964 C 115.411 81.984, 117.548 82.273, 118.418 82.607 C 120.471 83.395, 120.396 82.070, 118.228 79.260 L 116.500 77.021 113.500 79.474 M 48 117.595 C 48 146.847, 48.272 155.002, 49.250 155.011 C 49.938 155.017, 58.058 154.253, 67.297 153.314 L 84.093 151.606 88.797 142.813 C 93.235 134.515, 95.059 132.668, 96.504 135.007 C 96.847 135.561, 98.465 136.706, 100.101 137.552 C 102.604 138.847, 101.623 137.092, 93.905 126.478 C 83.752 112.513, 82.925 108.531, 91.843 116.549 L 97 121.185 97 107.515 L 97 93.845 91.588 98.469 C 88.018 101.519, 85.934 102.702, 85.466 101.945 C 84.694 100.695, 97.647 87, 99.601 87 C 100.236 87, 101.315 86.325, 102 85.500 C 103.031 84.257, 102.923 84, 101.372 84.001 C 98.693 84.003, 56.233 81.094, 51.750 80.602 L 48 80.190 48 117.595 M 103.535 88.104 L 100 91.207 100 109.278 L 100 127.349 97.322 124.924 L 94.645 122.500 97.035 126 C 98.349 127.925, 101.853 132.804, 104.820 136.842 C 111.653 146.141, 110.742 147.937, 102.152 142.103 C 98.829 139.846, 95.748 138.001, 95.305 138.002 C 94.640 138.004, 89.464 146.865, 88.123 150.297 C 87.381 152.196, 99.557 149.820, 110.775 145.877 C 116.977 143.697, 122.500 142.191, 123.049 142.530 C 124.037 143.141, 142 130.233, 142 128.912 C 142 128.164, 123.734 89.600, 122.030 86.750 C 121.193 85.351, 119.586 85, 114.026 85 C 107.671 85, 106.764 85.268, 103.535 88.104 M 134.664 138.501 L 125.827 145.183 141.164 159.829 C 149.599 167.884, 159.561 177.389, 163.301 180.951 L 170.102 187.427 165.205 176.964 C 162.511 171.209, 156.525 158.697, 151.903 149.160 L 143.500 131.819 134.664 138.501 M 117.500 146.464 C 115.850 147.219, 115.201 147.874, 116.059 147.919 C 116.916 147.963, 118.491 147.339, 119.559 146.532 C 121.970 144.708, 121.377 144.689, 117.500 146.464 M 58.204 167.486 C 47.042 171.486, 37.703 174.964, 37.452 175.215 C 37.200 175.466, 43.990 176.926, 52.541 178.459 C 61.091 179.993, 68.222 181.079, 68.387 180.873 C 69.540 179.440, 79.134 160.805, 78.853 160.543 C 78.659 160.362, 69.367 163.487, 58.204 167.486" stroke="none" fill="black" fill-rule="evenodd"/>
</svg>