<svg xmlns="http://www.w3.org/2000/svg" width="200" height="200" viewBox="0 0 200 200" version="1.1">
	<path d="M 62.142 33.250 C 64.925 52.123, 65.635 50.362, 54.531 52.117 L 45.062 53.614 39.881 40.557 C 37.031 33.376, 34.429 27.200, 34.100 26.833 C 33.770 26.466, 29.761 31.367, 25.191 37.724 C 19.909 45.072, 17.231 49.631, 17.838 50.238 C 18.747 51.147, 21.292 48.112, 29.551 36.271 C 31.173 33.946, 32.725 32.037, 33 32.030 C 33.661 32.012, 42.067 53.267, 41.588 53.746 C 41.384 53.949, 35.431 55.057, 28.359 56.206 C 9.291 59.306, 8.742 61.070, 26.543 62.043 C 32.846 62.387, 38.218 62.884, 38.481 63.148 C 38.745 63.411, 36.307 69.673, 33.064 77.063 L 27.167 90.500 27.723 100.309 L 28.279 110.118 36.389 114.174 C 40.850 116.404, 45.040 118.664, 45.700 119.196 C 46.584 119.907, 44.388 123.932, 37.360 134.481 L 27.820 148.799 30.049 155.721 L 32.279 162.643 43.389 168.464 C 49.500 171.665, 59.081 176.714, 64.681 179.683 L 74.862 185.081 74.342 142.791 L 73.822 100.500 78.373 90 C 80.876 84.225, 82.941 79.763, 82.962 80.084 C 82.983 80.406, 86.118 93.605, 89.928 109.416 L 96.856 138.163 87.259 165.112 C 80.786 183.288, 77.990 192.390, 78.673 193.073 C 79.355 193.755, 87.794 182.004, 104.592 156.975 L 129.500 119.866 130.294 138.143 C 130.730 148.196, 131.243 156.576, 131.433 156.766 C 131.623 156.956, 143.313 160.209, 157.410 163.995 C 171.508 167.781, 183.880 171.144, 184.903 171.469 C 186.014 171.822, 186.976 171.504, 187.293 170.680 C 187.651 169.747, 182.684 165.995, 171.971 159.105 L 156.119 148.910 159.461 139.705 C 161.299 134.642, 166.041 121.725, 169.997 111 C 173.954 100.275, 177.188 90.600, 177.184 89.500 C 177.177 87.738, 174.467 78.486, 162.956 40.923 L 160.021 31.346 149.527 28.148 L 139.033 24.951 125.014 27.602 C 111.212 30.213, 110.778 30.376, 97.083 38.127 C 89.432 42.457, 82.796 45.978, 82.336 45.950 C 81.876 45.923, 77 40.330, 71.500 33.521 C 66 26.713, 61.238 21.110, 60.918 21.071 C 60.597 21.032, 61.148 26.512, 62.142 33.250 M 123.802 30.550 C 113.390 32.616, 110.872 33.561, 100.911 39.139 C 94.756 42.586, 90.204 45.568, 90.797 45.766 C 91.389 45.963, 94.460 45.647, 97.621 45.062 C 107.828 43.175, 106.910 42.593, 118.919 58.571 L 129.870 73.143 132.965 63.114 C 138.401 45.499, 138.800 47.594, 140.562 103 L 141.150 121.500 137.105 117 L 133.060 112.500 133.030 133.573 L 133 154.647 154.313 160.323 C 166.034 163.446, 176.047 166, 176.562 166 C 177.077 166, 171.987 162.419, 165.249 158.041 C 158.512 153.664, 153 149.883, 153 149.640 C 153 149.397, 157.923 135.804, 163.941 119.434 L 174.881 89.671 166.840 63.086 C 162.417 48.464, 158.420 35.792, 157.958 34.926 C 157.074 33.269, 140.929 27.884, 137.500 28.102 C 136.400 28.172, 130.236 29.273, 123.802 30.550 M 65.789 39.750 C 66.602 45.112, 67.359 49.615, 67.472 49.755 C 67.773 50.130, 78.268 48.066, 78.808 47.525 C 79.216 47.117, 65.344 30, 64.605 30 C 64.444 30, 64.976 34.388, 65.789 39.750 M 96 48.073 C 93.525 48.542, 90.061 49.184, 88.302 49.499 L 85.105 50.071 111.140 81.535 C 125.459 98.841, 137.401 113, 137.679 113 C 138.393 113, 136.856 69.109, 136.035 66.039 C 135.461 63.892, 135.074 64.546, 133.519 70.291 C 132.509 74.024, 131.314 77.306, 130.865 77.583 C 130.416 77.861, 124.831 71.093, 118.453 62.544 C 105.617 45.336, 106.711 46.041, 96 48.073 M 74 54.435 C 66.428 58.837, 65.051 58.875, 65.015 54.683 C 65.005 53.425, 64.461 53.024, 63.250 53.380 C 62.288 53.662, 57.817 54.415, 53.317 55.052 C 47.432 55.885, 44.958 56.667, 44.509 57.836 C 44.166 58.730, 44.361 59.620, 44.943 59.814 C 46.768 60.423, 46.092 63, 44.107 63 C 42.635 63, 40.842 66.109, 36.033 77.005 L 29.851 91.011 30.542 99.844 L 31.233 108.677 38.866 112.423 C 43.065 114.483, 47.524 116.824, 48.776 117.624 L 51.051 119.080 40.961 133.864 L 30.871 148.648 32.654 154.700 L 34.438 160.752 52.379 170.126 C 62.247 175.282, 70.726 179.659, 71.222 179.854 C 71.756 180.063, 71.832 164.090, 71.410 140.727 L 70.696 101.246 76.507 87.373 C 79.704 79.743, 82.642 73.128, 83.037 72.673 C 83.432 72.217, 86.103 81.667, 88.972 93.673 C 91.841 105.678, 95.456 120.599, 97.005 126.831 L 99.822 138.163 95.911 149.081 C 93.760 155.087, 90.192 165.048, 87.982 171.218 C 85.772 177.388, 84.356 182, 84.834 181.468 C 85.312 180.935, 96.153 164.897, 108.925 145.826 L 132.145 111.151 107.948 81.826 C 94.639 65.697, 83.244 51.955, 82.625 51.288 C 81.756 50.351, 79.795 51.067, 74 54.435 M 68.500 53 C 67.718 54.266, 69.042 54.266, 71 53 C 72.293 52.165, 72.266 52.029, 70.809 52.015 C 69.879 52.007, 68.840 52.450, 68.500 53 M 35.500 57.727 C 30.155 58.488, 30.284 60, 35.693 60 C 39.298 60, 40.954 59.562, 41.362 58.500 C 41.957 56.948, 41.445 56.880, 35.500 57.727" stroke="none" fill="black" fill-rule="evenodd"/>
</svg>