<svg xmlns="http://www.w3.org/2000/svg" width="200" height="200" viewBox="0 0 200 200" version="1.1">
	<path d="M 60.972 11.750 C 56.355 54.585, 55.394 62.068, 54.500 62.141 C 53.950 62.186, 50.342 54.895, 46.482 45.938 C 39.792 30.417, 36.939 25.949, 37.049 31.167 C 37.076 32.450, 38.339 40.617, 39.856 49.316 L 42.614 65.131 36.269 75.694 C 32.779 81.504, 30.054 86.356, 30.212 86.475 C 30.370 86.595, 35.607 86.179, 41.848 85.550 L 53.196 84.407 52.609 87.954 C 52.286 89.904, 52.017 93.037, 52.011 94.916 C 52.001 98.010, 50.517 99.763, 36.218 113.566 L 20.437 128.800 18.763 155.612 C 17.843 170.358, 17.260 182.593, 17.468 182.801 C 17.676 183.009, 25.341 178.803, 34.501 173.455 L 51.155 163.730 72.828 171.966 C 84.747 176.496, 98.378 181.604, 103.117 183.319 L 111.734 186.436 139.117 181.591 C 184.942 173.484, 188.369 172.786, 186.767 171.890 C 185.951 171.433, 176.332 167.875, 165.391 163.983 L 145.500 156.906 111.231 154.601 C 92.383 153.332, 76.751 152.084, 76.493 151.826 C 76.235 151.569, 81.871 142.012, 89.016 130.589 C 96.161 119.167, 101.820 109.524, 101.592 109.160 C 101.364 108.797, 95.396 105.643, 88.332 102.151 C 75.832 95.973, 75.373 95.631, 71.237 89.401 C 68.900 85.881, 67.328 82.988, 67.744 82.973 C 68.160 82.958, 76.600 82.104, 86.500 81.074 C 96.400 80.044, 104.594 79.288, 104.709 79.393 C 104.825 79.499, 105.679 94.191, 106.608 112.043 C 107.537 129.894, 108.568 144.786, 108.898 145.137 C 109.229 145.487, 117.150 145.382, 126.500 144.904 C 167.176 142.823, 182.388 141.945, 182.671 141.662 C 182.838 141.496, 179.907 135.541, 176.158 128.430 L 169.343 115.500 150.876 108 C 140.719 103.875, 131.353 100.026, 130.063 99.447 C 127.995 98.519, 130.275 97.407, 149.359 90.031 C 161.262 85.432, 171.026 81.405, 171.057 81.084 C 171.713 74.325, 175.494 20.828, 175.328 20.661 C 174.931 20.264, 110.693 27.050, 107.557 27.820 C 104.931 28.464, 106.893 29.547, 125.795 37.886 C 137.445 43.025, 146.784 47.541, 146.549 47.921 C 146.314 48.301, 139.083 53.962, 130.480 60.500 L 114.838 72.387 95.419 69.990 C 84.738 68.672, 76 67.219, 76 66.761 C 76 66.304, 80.741 59.639, 86.536 51.952 C 92.331 44.264, 97.282 37.418, 97.538 36.737 C 97.849 35.913, 93.247 33.863, 83.752 30.594 C 75.913 27.896, 68.938 25.485, 68.250 25.237 C 67.563 24.989, 67 25.472, 67 26.310 C 67 27.356, 70.373 28.973, 77.750 31.465 C 83.662 33.461, 89.723 35.636, 91.217 36.297 L 93.935 37.500 82.467 52.729 C 76.160 61.104, 71 68.328, 71 68.781 C 71 69.812, 113.427 75.434, 115.423 74.668 C 117.683 73.801, 152 47.851, 152 47.009 C 152 46.600, 143.900 42.758, 134 38.472 C 124.100 34.187, 116 30.392, 116 30.040 C 116 29.316, 170.272 23.547, 171.637 24.126 C 172.131 24.335, 171.635 36.518, 170.510 51.824 C 168.909 73.590, 168.195 79.317, 167 79.977 C 165.832 80.621, 141.016 90.329, 123.111 97.146 C 121.798 97.647, 120.992 98.326, 121.322 98.656 C 121.652 98.985, 132.128 103.390, 144.603 108.445 L 167.285 117.634 172.628 127.567 C 175.567 133.030, 177.978 137.975, 177.986 138.556 C 177.995 139.246, 166.455 140.162, 144.750 141.196 C 126.463 142.067, 111.415 142.707, 111.311 142.618 C 111.208 142.529, 110.357 127.841, 109.420 109.978 C 108.484 92.115, 107.444 77.205, 107.109 76.844 C 106.774 76.484, 98.625 77.026, 89 78.050 C 63.876 80.723, 65.956 81.010, 61.455 74.250 L 57.626 68.500 60.890 38.500 C 62.685 22, 64.405 6.588, 64.713 4.250 C 65.157 0.873, 64.960 -0, 63.755 -0 C 62.558 -0, 61.972 2.472, 60.972 11.750 M 42.388 46.500 C 42.634 48.150, 43.396 53.184, 44.081 57.687 L 45.327 65.874 40.137 74.557 L 34.947 83.241 43.724 82.519 C 48.551 82.122, 52.703 81.602, 52.951 81.364 C 53.199 81.126, 53.681 78.399, 54.022 75.304 C 54.600 70.050, 54.333 69.043, 49.987 60.089 C 47.427 54.815, 44.570 48.925, 43.637 47 L 41.941 43.500 42.388 46.500 M 56.986 74.518 C 56.979 75.608, 56.701 77.513, 56.370 78.750 C 55.839 80.731, 56.139 81, 58.883 81 C 60.598 81, 62 80.751, 62 80.447 C 62 80.143, 60.875 78.238, 59.500 76.215 C 57.569 73.373, 56.997 72.987, 56.986 74.518 M 59.317 83.718 C 55.652 84.177, 54.977 86.010, 55.161 95 C 55.273 100.488, 48.378 154.955, 47.454 155.879 C 45.361 157.972, 45.489 151.654, 47.989 129.500 C 49.540 115.750, 50.610 104.295, 50.365 104.044 C 50.121 103.793, 43.896 109.643, 36.531 117.044 L 23.141 130.500 21.657 154 C 20.841 166.925, 20.338 177.666, 20.540 177.870 C 20.741 178.073, 27.115 174.613, 34.703 170.179 C 42.291 165.746, 49.206 161.851, 50.068 161.522 C 50.930 161.194, 65.166 166.047, 81.703 172.306 L 111.770 183.685 144.067 177.865 C 161.830 174.664, 176.776 171.908, 177.280 171.740 C 177.784 171.572, 170.165 168.670, 160.348 165.291 L 142.500 159.147 107 156.967 C 87.475 155.768, 71.384 154.682, 71.243 154.554 C 71.102 154.425, 77.075 144.547, 84.516 132.602 C 91.958 120.657, 97.851 110.573, 97.613 110.192 C 97.374 109.811, 91.816 106.853, 85.261 103.618 L 73.343 97.736 68.645 90.368 C 66.061 86.316, 63.622 83.072, 63.224 83.160 C 62.826 83.248, 61.067 83.499, 59.317 83.718" stroke="none" fill="black" fill-rule="evenodd"/>
</svg>