<svg xmlns="http://www.w3.org/2000/svg" width="200" height="200" viewBox="0 0 200 200" version="1.1">
	<path d="M 44.973 30.196 L 37.675 46.392 40.500 71.946 C 42.054 86.001, 43.429 97.639, 43.555 97.809 C 43.681 97.979, 52.881 93.565, 64 88 C 75.119 82.435, 84.343 78.021, 84.498 78.191 C 85.074 78.822, 87.280 131.054, 86.752 131.581 C 85.651 132.682, 73.637 135.034, 72.974 134.278 C 72.599 133.850, 69.928 124.500, 67.039 113.500 C 64.150 102.500, 61.451 92.889, 61.043 92.142 C 60.275 90.738, 58.777 93.249, 45.963 117.431 C 40.333 128.056, 16.719 184.948, 17.559 185.863 C 17.742 186.062, 25.004 180.560, 33.696 173.636 L 49.500 161.047 61.376 161.024 L 73.253 161 94.946 172.062 L 116.638 183.125 145.568 181.980 C 161.480 181.350, 174.595 180.738, 174.713 180.620 C 174.832 180.502, 174.382 174.649, 173.714 167.614 L 172.500 154.823 143.631 154.953 L 114.762 155.083 115.430 151.292 C 115.798 149.206, 117.241 141.368, 118.637 133.873 L 121.175 120.245 130.837 119.637 C 136.152 119.303, 148.262 118.735, 157.750 118.376 C 170.860 117.880, 175 117.412, 175 116.429 C 175 114.850, 175.324 114.951, 155 110.157 C 139.519 106.506, 137.851 105.877, 128 99.987 C 112.329 90.618, 112.328 91.001, 128.036 90.991 L 141.500 90.982 153.500 75.343 C 160.100 66.741, 165.833 59.144, 166.239 58.460 C 166.666 57.742, 163.176 48.867, 157.989 37.476 C 153.045 26.619, 149 16.865, 149 15.801 C 149 14.428, 148.491 14.015, 147.250 14.379 C 146.287 14.661, 130.988 17.616, 113.250 20.946 C 90.027 25.305, 78.654 27, 72.617 27 C 64.832 27, 64.192 27.156, 63.661 29.190 C 63.130 31.219, 65.583 67.689, 66.590 72.750 C 67.010 74.859, 67.553 75.003, 75.269 75.053 L 83.500 75.106 65 84.447 C 54.825 89.585, 46.335 93.634, 46.134 93.445 C 45.597 92.941, 41.086 54.163, 41.040 49.646 C 41.012 46.981, 43.037 41.272, 47.602 31.146 C 51.233 23.091, 54.431 15.938, 54.709 15.250 C 54.987 14.563, 54.552 14, 53.743 14 C 52.809 14, 49.606 19.916, 44.973 30.196 M 124 36.135 C 112.175 45.514, 102.387 53.296, 102.249 53.428 C 102.111 53.560, 107.897 58.356, 115.108 64.084 L 128.217 74.500 107.600 74.770 L 86.983 75.041 87.467 78.770 C 88.603 87.530, 90.185 133.207, 89.376 133.910 C 87.882 135.209, 71.795 138.199, 70.998 137.326 C 70.584 136.871, 68.117 128.400, 65.516 118.500 C 62.915 108.600, 60.486 99.948, 60.117 99.274 C 58.837 96.931, 42.327 130, 32.671 154.250 C 27.470 167.313, 23.405 178, 23.639 178 C 23.872 178, 29.528 173.613, 36.208 168.250 L 48.354 158.500 60.711 158.146 L 73.069 157.792 95.138 169.003 L 117.207 180.213 137.853 179.579 C 149.209 179.230, 161.569 178.683, 165.320 178.364 L 172.139 177.783 171.601 174.142 C 171.304 172.139, 170.764 167.404, 170.400 163.619 L 169.739 156.738 140.869 157.469 L 112 158.200 112.037 155.850 C 112.079 153.127, 118.558 118.107, 119.122 117.549 C 119.330 117.343, 128.838 116.847, 140.250 116.447 C 151.662 116.046, 161 115.410, 161 115.033 C 161 114.656, 155.782 113.142, 149.404 111.669 C 138.381 109.123, 136.984 108.496, 121.154 98.997 L 104.500 89.004 122.031 89.002 L 139.562 89 151.728 73.113 L 163.894 57.225 155.266 38.113 C 150.520 27.601, 146.381 19.018, 146.069 19.041 C 145.756 19.063, 135.825 26.755, 124 36.135 M 114.500 23.507 L 98.500 26.777 108 26.839 C 116.658 26.896, 118.209 26.599, 125.500 23.486 C 135.149 19.366, 134.761 19.367, 114.500 23.507 M 126.072 26.083 L 116.644 30 97.989 30 C 81.132 30, 68.770 31.165, 66.747 32.944 C 66.117 33.498, 68.738 70.954, 69.463 71.767 C 69.594 71.915, 81.074 71.915, 94.974 71.767 L 120.247 71.500 109.015 62.645 C 99.740 55.333, 98.019 53.569, 99.141 52.523 C 99.888 51.827, 108.375 45.063, 118 37.494 C 127.625 29.924, 135.928 23.341, 136.450 22.865 C 138.149 21.317, 135.752 22.061, 126.072 26.083" stroke="none" fill="black" fill-rule="evenodd"/>
</svg>