<svg xmlns="http://www.w3.org/2000/svg" width="200" height="200" viewBox="0 0 200 200" version="1.1">
	<path d="M 83 9.080 C 83 11.014, 80.765 29.491, 80.493 29.802 C 80.348 29.968, 76.265 28.506, 71.420 26.552 C 66.575 24.598, 62.498 23, 62.361 23 C 62.223 23, 59.948 26.610, 57.305 31.023 L 52.500 39.045 45.001 30.773 C 40.877 26.223, 35.600 20.475, 33.274 18 L 29.046 13.500 28.923 24 C 28.856 29.775, 28.503 43.725, 28.139 55 C 27.563 72.833, 27.706 76.343, 29.239 81.978 C 31.134 88.949, 31.475 92.232, 29.838 87.750 C 28.777 84.846, 27.242 84.159, 26.484 86.250 C 25.963 87.686, 15.963 173.320, 16.287 173.576 C 16.591 173.817, 81.413 156.816, 81.926 156.360 C 82.160 156.152, 79.092 145.893, 75.108 133.561 L 67.864 111.140 73.347 90.320 C 77.118 75.997, 79.331 65.131, 80.436 55.500 C 81.320 47.800, 82.292 39.851, 82.595 37.836 L 83.147 34.172 87.872 36.135 C 92.584 38.094, 92.605 38.123, 95.622 47.300 L 98.648 56.500 95.344 72.500 C 93.527 81.300, 92.032 89.414, 92.020 90.530 C 92.009 91.647, 93.568 96.279, 95.485 100.824 L 98.970 109.087 96.654 112.794 C 95.380 114.832, 91.140 121.991, 87.233 128.702 L 80.129 140.904 101.674 165.202 C 113.525 178.566, 123.830 190.143, 124.575 190.929 C 125.736 192.154, 130.204 189.519, 155.937 172.429 C 172.442 161.468, 185.845 152.213, 185.723 151.863 C 185.600 151.512, 176.631 141.201, 165.792 128.949 C 154.952 116.698, 146.336 106.265, 146.644 105.767 C 146.952 105.268, 147.946 104.546, 148.852 104.161 C 149.759 103.777, 155.474 100.924, 161.554 97.821 L 172.609 92.180 171.259 78.340 L 169.909 64.500 173.636 43.765 C 175.686 32.360, 177.144 22.811, 176.877 22.543 C 176.396 22.063, 133.080 13.384, 125.678 12.285 L 121.856 11.717 122.385 15.109 C 122.676 16.974, 123.197 25.160, 123.543 33.299 L 124.172 48.099 120.336 46.469 C 118.226 45.572, 112 43.043, 106.500 40.848 C 101 38.653, 95.997 36.327, 95.382 35.679 C 94.767 35.031, 92.391 28.538, 90.102 21.250 C 87.243 12.150, 85.479 8, 84.469 8 C 83.661 8, 83 8.486, 83 9.080 M 125.558 23.147 C 125.840 27.741, 126.313 35.127, 126.609 39.561 L 127.148 47.622 141.153 54.035 C 148.856 57.562, 155.393 60.827, 155.679 61.290 C 157.122 63.625, 153.875 62.896, 142.247 58.277 C 130.148 53.471, 129.483 53.318, 129.159 55.269 C 128.972 56.400, 129.565 68.250, 130.477 81.602 C 131.725 99.875, 131.856 106.401, 131.006 107.988 C 130.166 109.559, 130.189 115.766, 131.099 132.299 C 132.659 160.675, 132.735 167.383, 131.500 168 C 130.884 168.308, 130.116 163.660, 129.500 155.902 C 128.501 143.314, 128.496 143.298, 123.790 135.689 L 119.079 128.074 123.125 118.959 L 127.171 109.844 125.962 83.672 C 125.297 69.277, 124.456 55.949, 124.093 54.053 C 123.455 50.721, 123.036 50.446, 111.593 45.831 C 105.082 43.205, 98.943 40.799, 97.952 40.485 C 96.320 39.967, 96.400 40.673, 98.805 48.009 L 101.459 56.104 97.933 73.637 L 94.408 91.170 98.179 100.177 L 101.951 109.185 93.473 123.518 C 88.810 131.401, 84.732 138.534, 84.411 139.370 C 84.022 140.386, 90.868 148.845, 105.047 164.866 L 126.266 188.841 153.383 170.797 C 168.297 160.873, 180.855 152.432, 181.288 152.039 C 181.978 151.413, 172.924 140.807, 147.781 112.791 L 140.862 105.082 155.181 97.928 C 163.057 93.993, 169.543 90.712, 169.595 90.637 C 169.648 90.562, 169.115 84.650, 168.412 77.500 L 167.133 64.500 170.675 44.692 C 172.623 33.797, 174.055 24.745, 173.858 24.577 C 173.661 24.409, 163.600 22.374, 151.500 20.055 C 139.400 17.736, 128.498 15.604, 127.273 15.317 C 125.078 14.802, 125.054 14.910, 125.558 23.147 M 84.995 17.500 C 84.905 18.600, 84.503 22.135, 84.101 25.355 L 83.372 31.210 86.673 32.784 C 88.489 33.650, 90.252 34.081, 90.592 33.742 C 90.931 33.403, 89.847 29.159, 88.183 24.313 C 86.519 19.466, 85.084 16.400, 84.995 17.500 M 31.992 22.500 C 31.953 23.600, 31.511 35.750, 31.010 49.500 L 30.099 74.500 39.729 110.271 C 46.550 135.609, 49.047 146.353, 48.292 147.108 C 47.536 147.864, 44.508 140.056, 37.910 120.338 C 32.787 105.027, 28.444 93.203, 28.260 94.062 C 27.706 96.649, 19.249 169.480, 19.471 169.755 C 19.652 169.979, 78.148 154.961, 78.729 154.540 C 78.856 154.449, 75.833 144.728, 72.013 132.937 L 65.068 111.500 70.586 90.171 C 74.554 74.837, 76.663 64.173, 78.090 52.236 C 79.182 43.103, 79.946 34.995, 79.788 34.218 C 79.630 33.441, 75.818 31.322, 71.318 29.508 L 63.137 26.211 59.068 33.238 C 56.831 37.103, 55 40.603, 55 41.017 C 55 41.431, 58.375 45.503, 62.500 50.066 C 66.625 54.629, 70 58.731, 70 59.181 C 70 61.531, 66.783 59.109, 60.519 52.043 C 56.679 47.711, 53.232 44.357, 52.858 44.588 C 52.485 44.819, 48.665 51.081, 44.369 58.504 C 40.074 65.927, 35.936 72, 35.173 72 C 33.328 72, 33.489 71.658, 42.888 55.621 L 51.022 41.742 46.537 36.621 C 34.163 22.496, 32.065 20.459, 31.992 22.500 M 124.777 122.313 L 122.055 128.125 124.736 132.313 C 128.173 137.681, 127.959 137.401, 128.250 136.917 C 128.387 136.688, 128.275 132, 128 126.500 L 127.500 116.500 124.777 122.313" stroke="none" fill="black" fill-rule="evenodd"/>
</svg>