<svg xmlns="http://www.w3.org/2000/svg" width="200" height="200" viewBox="0 0 200 200" version="1.1">
	<path d="M 109.029 18.750 C 109.045 19.712, 109.687 29.045, 110.457 39.489 C 111.227 49.932, 111.776 58.544, 111.678 58.627 C 111.458 58.812, 75.657 45.825, 75.090 45.354 C 74.864 45.166, 78.579 39.160, 83.344 32.007 C 88.110 24.853, 91.894 19.001, 91.754 19.002 C 91.614 19.004, 82.999 22.266, 72.609 26.252 L 53.718 33.500 47.382 51 L 41.046 68.500 41.023 94.650 L 41 120.800 29.519 134.585 C 23.204 142.167, 18.150 148.483, 18.287 148.620 C 18.425 148.758, 31.354 145.726, 47.019 141.882 C 75.005 135.015, 99.044 129.711, 99.611 130.278 C 99.770 130.436, 93.509 134.423, 85.700 139.138 C 36.712 168.710, 23 177.338, 23 178.590 C 23 179.366, 23.113 180, 23.251 180 C 25.338 180, 73.469 165.459, 77.262 163.682 C 80.143 162.333, 88.800 158.247, 96.500 154.601 C 111.161 147.659, 111.458 148.181, 98.273 157.719 C 95.399 159.799, 93.186 161.950, 93.356 162.499 C 93.644 163.426, 132.815 187.950, 134.063 187.985 C 134.373 187.993, 138.078 177.281, 142.298 164.180 C 148.744 144.164, 151.739 136.705, 161.051 117.486 C 167.145 104.905, 171.919 93.912, 171.659 93.056 C 171.400 92.200, 166.731 81.411, 161.285 69.080 L 151.384 46.660 135.594 41.003 L 119.803 35.345 115.756 26.172 C 112.057 17.790, 108.957 14.369, 109.029 18.750 M 70 30.052 C 63.125 32.717, 57.151 35.037, 56.724 35.208 C 56.297 35.378, 53.259 42.930, 49.974 51.989 L 44 68.460 43.988 94.980 L 43.977 121.500 34.893 132.322 C 29.897 138.274, 26.016 143.349, 26.267 143.601 C 26.519 143.852, 38.599 141.177, 53.112 137.655 C 88.643 129.032, 106.836 125.436, 108.169 126.769 C 108.895 127.495, 108.495 128.274, 106.857 129.323 C 105.561 130.153, 88.525 140.597, 69 152.533 C 49.475 164.468, 34.400 174.010, 35.500 173.737 C 36.600 173.465, 44.925 171.118, 54 168.522 C 68.017 164.512, 74.404 161.937, 96.445 151.407 C 114.183 142.933, 122.616 139.378, 123.105 140.169 C 123.555 140.897, 118.826 145.202, 110.355 151.775 C 102.950 157.522, 97.028 162.340, 97.195 162.482 C 97.955 163.125, 132.290 184, 132.588 184 C 132.773 184, 136.094 174.213, 139.969 162.250 C 145.609 144.842, 149.236 135.879, 158.140 117.353 L 169.266 94.207 159.495 71.853 C 154.121 59.559, 149.261 49.202, 148.696 48.838 C 148.131 48.475, 140.951 45.791, 132.741 42.875 L 117.815 37.573 114.905 31.537 C 113.305 28.216, 112.188 26.625, 112.423 28 C 112.658 29.375, 113.163 36.575, 113.545 44 C 113.927 51.425, 114.595 58.159, 115.030 58.965 C 115.464 59.770, 117.204 60.895, 118.895 61.465 C 123.228 62.924, 123.162 64.445, 118.750 64.810 C 115.838 65.051, 115 65.546, 115 67.025 C 115 68.409, 118.014 70.617, 126.027 75.105 C 132.093 78.501, 137.259 81.611, 137.509 82.015 C 137.759 82.419, 136.059 83.046, 133.732 83.408 C 131.404 83.770, 126.688 84.547, 123.250 85.136 L 117 86.205 117 92.124 C 117 97.467, 116.757 98.154, 114.500 99.182 C 113.125 99.808, 112 100.620, 112 100.986 C 112 101.352, 115.006 104.090, 118.680 107.071 L 125.360 112.491 98.430 116.242 C 83.619 118.306, 70.858 119.754, 70.072 119.460 C 67.648 118.554, 70.377 116.914, 88.250 108.537 C 97.463 104.219, 105 100.373, 105 99.991 C 105 99.608, 102.338 97.204, 99.085 94.648 L 93.170 90.001 85.377 91.492 C 81.090 92.312, 77.284 92.650, 76.917 92.242 C 76.551 91.834, 74.883 87.900, 73.210 83.500 C 71.537 79.100, 69.225 73.108, 68.072 70.184 C 66.747 66.821, 66.440 65.142, 67.239 65.615 C 67.932 66.025, 74.249 71.043, 81.275 76.764 C 95.580 88.413, 92.979 87.625, 108 84.857 L 113.500 83.843 113.164 77.413 C 112.831 71.026, 112.801 70.968, 108.576 68.492 C 104.492 66.098, 103.649 66, 87.162 66 C 72.716 66, 70 65.767, 70 64.527 C 70 63.313, 72.477 63.006, 84.108 62.777 L 98.217 62.500 85.358 55.345 L 72.500 48.190 69.632 52.595 C 66.788 56.962, 65 58.173, 65 55.732 C 65 55.035, 66.125 52.809, 67.500 50.785 C 68.875 48.762, 70 46.407, 70 45.553 C 70 44.699, 70.563 43.989, 71.250 43.976 C 71.938 43.963, 75.315 39.688, 78.755 34.476 C 82.195 29.264, 84.445 25.047, 83.755 25.103 C 83.065 25.160, 76.875 27.387, 70 30.052 M 88 53.491 C 88 53.713, 91.810 55.972, 96.466 58.510 C 103.191 62.176, 105.710 63.053, 108.716 62.775 L 112.500 62.425 109.500 61.123 C 104.202 58.824, 88 53.072, 88 53.491 M 73.917 77.790 C 79.008 90.705, 78.443 89.962, 82.678 89.300 C 90.416 88.089, 90.619 87.742, 85.840 83.899 C 83.453 81.980, 79.341 78.670, 76.701 76.545 L 71.903 72.679 73.917 77.790 M 116 78.032 L 116 83.230 121.750 82.518 C 130.654 81.414, 130.895 80.763, 123.818 76.924 C 120.346 75.041, 117.167 73.350, 116.753 73.167 C 116.339 72.983, 116 75.173, 116 78.032 M 103.750 88.242 C 100.588 88.784, 98 89.519, 98 89.877 C 98 90.234, 100.446 92.437, 103.435 94.771 C 108.354 98.613, 109.114 98.905, 111.435 97.848 C 113.674 96.828, 114 96.064, 114 91.839 C 114 86.352, 114.256 86.442, 103.750 88.242 M 94.209 108.752 C 86.420 112.397, 80.189 115.523, 80.364 115.697 C 80.645 115.978, 115.169 111.280, 117.384 110.658 C 117.870 110.522, 116.041 108.546, 113.319 106.267 L 108.370 102.124 94.209 108.752" stroke="none" fill="black" fill-rule="evenodd"/>
</svg>