<svg xmlns="http://www.w3.org/2000/svg" width="200" height="200" viewBox="0 0 200 200" version="1.1">
	<path d="M 44.179 33.441 L 11.064 49.920 15.137 59.710 C 17.377 65.095, 23.255 79.175, 28.198 91 C 33.142 102.825, 37.411 113.175, 37.684 114 C 37.958 114.825, 34.914 109.765, 30.920 102.755 C 26.925 95.745, 23.508 90.159, 23.325 90.342 C 22.735 90.932, 19.922 177.255, 20.474 177.808 C 20.768 178.101, 36.869 176.398, 56.254 174.022 L 91.500 169.703 115.965 159.789 C 135.127 152.023, 140.870 150.077, 142.465 150.807 C 143.584 151.321, 149.842 154.969, 156.371 158.916 C 162.900 162.862, 168.350 165.958, 168.481 165.796 C 168.907 165.270, 170.886 117.553, 170.498 117.165 C 170.292 116.958, 164.515 117.737, 157.662 118.895 C 142.900 121.389, 142 121.428, 142 119.579 C 142 117.661, 144.952 117.207, 162.500 116.433 C 170.750 116.069, 179.217 115.485, 181.315 115.136 L 185.131 114.500 173.565 100.812 C 167.204 93.283, 162 86.737, 162 86.265 C 162 85.792, 163.800 83.648, 166 81.500 C 168.200 79.352, 170 77.243, 170 76.814 C 170 76.385, 167.712 74.874, 164.916 73.457 C 161.290 71.620, 159.999 70.444, 160.416 69.359 C 160.737 68.521, 161 66.523, 161 64.918 C 161 62.991, 161.509 62, 162.500 62 C 164.215 62, 164.557 59.352, 162.913 58.804 C 162.132 58.544, 162.138 56.201, 162.937 50.471 C 164.035 42.588, 164.004 42.362, 160.138 30 C 154.267 11.229, 154.228 11.292, 149.046 48.102 L 147.835 56.704 137.979 54.902 C 128.611 53.188, 127.037 52.501, 106.253 41.049 C 94.225 34.422, 83.900 29, 83.308 29 C 82.717 29, 81.979 29.974, 81.667 31.164 C 81.218 32.883, 80.814 33.091, 79.709 32.173 C 77.664 30.476, 76.884 31.893, 78.502 34.365 C 79.769 36.302, 78.749 39.790, 67.499 71.966 C 60.679 91.473, 55.293 107.626, 55.530 107.864 C 55.768 108.101, 72.691 109.466, 93.138 110.898 C 137.350 113.992, 139.484 115.114, 104.833 117.040 L 82.165 118.300 79.109 126.344 C 77.429 130.767, 76.262 134.595, 76.516 134.850 C 76.947 135.281, 108.076 130.507, 112.500 129.332 C 113.600 129.039, 108.672 134.680, 101.549 141.866 C 94.426 149.052, 88.801 155.096, 89.049 155.297 C 89.520 155.679, 137.136 145.197, 137.759 144.574 C 137.955 144.378, 138.778 139.805, 139.588 134.412 C 140.399 129.018, 141.160 124.541, 141.281 124.462 C 141.907 124.054, 167.464 120.131, 167.735 120.402 C 168.164 120.831, 166.094 160.239, 165.618 160.716 C 165.411 160.922, 159.992 157.921, 153.576 154.046 C 147.159 150.171, 141.559 147, 141.130 147 C 140.702 147, 129.360 151.461, 115.926 156.914 L 91.500 166.828 57.714 171.044 C 39.131 173.363, 23.683 175.016, 23.384 174.718 C 22.937 174.270, 24.638 108.961, 25.300 101.141 C 25.439 99.502, 29.013 105.077, 37 119.390 C 43.325 130.725, 49.063 139.999, 49.750 139.999 C 50.438 140, 51 139.751, 51 139.448 C 51 139.144, 42.900 119.380, 33 95.527 C 23.100 71.675, 15 51.869, 15 51.514 C 15 50.762, 71.287 22.954, 71.790 23.457 C 71.976 23.643, 70.554 26.879, 68.629 30.648 C 65.337 37.094, 64.151 38.271, 48.612 50.500 C 39.527 57.650, 32.073 64.111, 32.047 64.857 C 31.969 67.100, 33.952 65.760, 51.077 51.996 L 67.500 38.797 72.812 28.293 C 75.733 22.516, 77.937 17.603, 77.709 17.376 C 77.481 17.148, 62.393 24.377, 44.179 33.441 M 155.107 25.500 C 155.055 26.050, 154.051 33.188, 152.877 41.361 C 150.550 57.562, 150.626 57.953, 156.143 57.985 C 159.278 58.003, 159.605 57.313, 160.451 48.924 C 161.005 43.424, 160.674 41.206, 158.151 33.500 C 156.530 28.550, 155.160 24.950, 155.107 25.500 M 83.770 33.773 C 83.451 34.990, 85.102 37.534, 88.764 41.468 L 94.234 47.345 106.617 49.540 C 113.428 50.747, 119 51.615, 119 51.468 C 119 51.321, 113.037 47.937, 105.750 43.947 C 98.463 39.958, 90.643 35.627, 88.373 34.324 C 84.512 32.107, 84.215 32.071, 83.770 33.773 M 81.227 41.008 C 75.103 57.834, 58.870 105.197, 59.142 105.449 C 59.339 105.631, 73.675 106.741, 91 107.916 C 108.325 109.090, 124.975 110.258, 128 110.510 C 131.025 110.763, 123.150 108.727, 110.500 105.987 C 97.850 103.247, 85.944 100.655, 84.043 100.225 C 80.771 99.487, 81.720 98.971, 101.798 90.561 C 113.465 85.675, 122.753 81.419, 122.438 81.105 C 122.124 80.790, 115.034 77.748, 106.683 74.343 C 91.144 68.008, 87.276 65.092, 94.177 64.915 C 96.005 64.868, 106.500 64.080, 117.500 63.165 L 137.500 61.500 132.662 58.771 C 128.979 56.694, 123.686 55.316, 110.472 52.995 L 93.118 49.947 87.626 44.232 C 82.171 38.555, 82.128 38.534, 81.227 41.008 M 139.500 59.346 C 141.717 61.109, 147 61.569, 147 60 C 147 59.450, 146.381 59, 145.625 59 C 144.869 59, 142.731 58.720, 140.875 58.378 C 137.654 57.785, 137.591 57.829, 139.500 59.346 M 150 64.015 C 150 65.013, 155.786 68.989, 157.250 68.996 C 157.662 68.998, 158 67.650, 158 66 C 158 63.167, 157.778 63, 154 63 C 151.800 63, 150 63.457, 150 64.015 M 116.039 65.890 C 94.959 67.728, 94.963 66.799, 116 75.177 C 122.875 77.915, 128.862 80.504, 129.303 80.931 C 129.745 81.358, 121.093 85.458, 110.076 90.043 C 99.059 94.628, 90.148 98.463, 90.273 98.566 C 90.398 98.669, 100.596 100.893, 112.936 103.507 L 135.373 108.261 138.460 104.880 C 141.393 101.669, 141.667 100.629, 143.933 84.103 C 146.249 67.221, 146.265 66.667, 144.468 65.353 C 142.273 63.748, 140.131 63.788, 116.039 65.890 M 149 68.400 C 149 68.642, 148.068 75.219, 146.928 83.015 C 145.789 90.811, 145.028 97.361, 145.237 97.570 C 145.446 97.779, 148.001 95.537, 150.914 92.587 L 156.211 87.223 156.491 79.574 L 156.771 71.924 152.886 69.942 C 150.749 68.851, 149 68.157, 149 68.400 M 159.444 76.365 C 159.114 77.681, 158.991 79.969, 159.172 81.448 L 159.500 84.138 162.864 80.654 L 166.228 77.169 163.137 75.571 C 160.121 74.011, 160.030 74.031, 159.444 76.365 M 151.745 95.828 C 146.754 100.897, 143.968 104.574, 143.534 106.666 L 142.878 109.833 148.629 111.027 C 151.793 111.684, 155.083 112.652, 155.940 113.179 C 156.904 113.771, 161.793 113.825, 168.724 113.319 L 179.949 112.500 169.623 100.328 L 159.298 88.156 151.745 95.828 M 134.762 114.707 C 136.006 114.946, 137.806 114.937, 138.762 114.687 C 139.718 114.437, 138.700 114.241, 136.500 114.252 C 134.300 114.263, 133.518 114.468, 134.762 114.707 M 125.946 121.573 C 122.642 124.998, 122.603 125.124, 125 124.612 C 126.375 124.319, 130.088 123.579, 133.250 122.968 C 137.879 122.075, 139 121.482, 139 119.929 C 139 118.291, 138.274 118, 134.196 118 C 129.997 118, 128.958 118.450, 125.946 121.573 M 101 120.045 C 95.225 120.436, 89.097 120.810, 87.383 120.877 C 84.613 120.986, 84.029 121.573, 82.124 126.157 C 80.945 128.993, 80.118 131.452, 80.287 131.620 C 80.455 131.789, 88.897 130.551, 99.047 128.869 C 116.958 125.901, 117.602 125.711, 120.983 122.406 L 124.467 119 117.983 119.168 C 114.418 119.260, 106.775 119.655, 101 120.045 M 127.253 126.870 L 119.007 128.500 107.991 139.496 C 101.932 145.543, 97.318 150.585, 97.737 150.700 C 98.157 150.814, 106.813 149.016, 116.973 146.704 L 135.447 142.500 136.100 138.500 C 138.047 126.586, 138.131 124.999, 136.811 125.120 C 136.090 125.187, 131.789 125.974, 127.253 126.870" stroke="none" fill="black" fill-rule="evenodd"/>
</svg>