<svg xmlns="http://www.w3.org/2000/svg" width="200" height="200" viewBox="0 0 200 200" version="1.1">
	<path d="M 140 19.717 C 116.814 26.289, 109.644 27.956, 106.500 27.508 C 104.300 27.194, 98.225 26.740, 93 26.500 C 86.248 26.190, 83.231 25.650, 82.570 24.635 C 81.899 23.604, 81.065 23.464, 79.570 24.133 C 78.198 24.746, 70.421 24.252, 56.500 22.665 C 44.950 21.349, 35.393 20.355, 35.263 20.457 C 34.755 20.852, 25.981 59.442, 26.233 60.173 C 26.380 60.601, 30.550 58.359, 35.500 55.193 C 40.450 52.026, 52.226 44.583, 61.669 38.653 L 78.837 27.870 92.974 29.497 C 104.566 30.832, 109.375 31.927, 119.685 35.585 C 134.739 40.925, 137.403 42.335, 131 41.572 C 117.525 39.967, 111.603 40.617, 81.076 47.050 C 64.534 50.536, 51.007 53.639, 51.015 53.944 C 51.023 54.250, 57.349 57.136, 65.073 60.358 C 72.797 63.581, 78.929 66.404, 78.700 66.634 C 78.471 66.863, 68.882 69.211, 57.392 71.852 L 36.500 76.653 36.590 82.577 C 36.639 85.834, 37.728 101.678, 39.009 117.784 L 41.339 147.068 51.419 146.551 C 60.117 146.106, 57.934 146.593, 35.500 150.105 C 21.200 152.343, 9.305 154.368, 9.067 154.604 C 7.364 156.291, 14.833 156.967, 46.490 157.990 C 66.285 158.630, 82.935 159.497, 83.490 159.917 C 84.046 160.337, 88.843 164.140, 94.150 168.369 L 103.800 176.058 137.900 163.377 C 156.827 156.338, 172 150.159, 172 149.490 C 172 148.134, 163.439 147, 153.197 147 C 149.616 147, 141.544 146.042, 135.259 144.870 C 125.860 143.119, 124.068 142.511, 125.165 141.446 C 125.899 140.733, 137.300 132.196, 150.500 122.473 C 163.700 112.751, 174.626 104.678, 174.780 104.535 C 175.014 104.316, 157.894 89.963, 153.120 86.376 C 151.854 85.425, 154.050 81.164, 167.418 58.623 C 176.606 43.131, 182.974 31.375, 182.644 30.515 C 182.229 29.432, 176.304 33.433, 160.449 45.504 C 139.778 61.243, 137.098 62.830, 128.196 64.611 C 126.438 64.962, 125 65.593, 125 66.012 C 125 66.622, 140.629 79.922, 146.812 84.574 C 147.989 85.459, 146.102 89.253, 136.066 106.185 L 123.893 126.723 104.890 120.654 C 89.705 115.805, 86.340 114.418, 88.140 113.752 C 92.850 112.010, 132 86.675, 132 85.370 C 132 84.616, 131.773 84, 131.496 84 C 130.342 84, 89.274 89.010, 86.766 89.456 C 84.625 89.838, 86.251 88.023, 94.266 81.082 C 99.895 76.208, 111.475 66.103, 120 58.627 L 135.500 45.033 141.191 45.017 C 147.746 44.997, 149.604 43.432, 145.091 41.728 C 143.391 41.087, 142 40.292, 142 39.963 C 142 39.634, 148.525 33.645, 156.500 26.654 C 170.207 14.637, 172.041 12.648, 170.250 11.737 C 169.838 11.527, 156.225 15.118, 140 19.717 M 138.161 22.997 C 124.774 26.763, 113.670 29.997, 113.484 30.183 C 113.298 30.369, 118.737 32.476, 125.571 34.866 L 137.997 39.211 148.127 30.356 C 153.698 25.485, 159.661 20.281, 161.378 18.791 C 163.095 17.300, 164.050 16.096, 163.500 16.115 C 162.950 16.134, 151.547 19.230, 138.161 22.997 M 36.988 23.775 C 36.982 24.174, 35.404 31.210, 33.483 39.412 C 31.562 47.613, 30.135 54.468, 30.311 54.645 C 30.488 54.821, 40.400 48.833, 52.338 41.338 C 64.276 33.843, 73.921 27.604, 73.772 27.474 C 73.622 27.344, 66.525 26.502, 58 25.603 C 49.475 24.704, 41.263 23.762, 39.750 23.509 C 38.237 23.257, 36.995 23.376, 36.988 23.775 M 157.500 51.004 C 144.891 60.727, 138.446 65.066, 135.980 65.491 C 129.595 66.592, 129.793 67.246, 138.723 74.515 C 143.442 78.357, 147.864 81.835, 148.551 82.243 C 149.418 82.760, 153.542 76.661, 162.073 62.243 C 168.824 50.835, 174.996 40.487, 175.789 39.250 C 176.581 38.013, 176.841 37.028, 176.365 37.062 C 175.889 37.096, 167.400 43.370, 157.500 51.004 M 87 48.508 C 73.525 51.395, 61.600 53.933, 60.500 54.148 C 59.247 54.393, 63.730 56.735, 72.500 60.417 C 80.200 63.651, 86.844 66.596, 87.264 66.962 C 87.684 67.328, 77.334 70.040, 64.264 72.988 C 51.194 75.937, 40.107 78.686, 39.626 79.098 C 38.857 79.758, 42.070 128.056, 43.669 139.859 L 44.260 144.218 53.380 143.626 C 58.396 143.300, 69.362 142.743, 77.750 142.388 C 90.637 141.844, 93 141.966, 93 143.180 C 93 144.298, 86.517 145.566, 63.750 148.902 C 47.663 151.259, 32.700 153.513, 30.500 153.911 C 28.081 154.349, 37.767 154.950, 55 155.431 L 83.500 156.228 94 164.616 C 100.628 169.910, 105.053 172.785, 106 172.412 C 106.825 172.086, 120.325 167.023, 136 161.160 L 164.500 150.500 154 149.870 C 145.122 149.337, 124.798 146.172, 118.743 144.381 C 117.490 144.010, 124.611 138.236, 143.527 124.284 C 158.125 113.517, 169.941 104.372, 169.785 103.963 C 169.063 102.075, 150.715 87.887, 149.974 88.644 C 149.514 89.115, 143.768 98.500, 137.207 109.500 C 130.318 121.050, 124.691 129.447, 123.889 129.375 C 121.435 129.153, 65.531 110.919, 64.663 110.057 C 62.737 108.145, 66.621 107.995, 76.961 109.583 L 87.945 111.269 102.722 101.981 C 123.464 88.944, 124.808 88, 122.631 88 C 121.623 88, 111.506 89.123, 100.149 90.496 C 88.792 91.869, 78.414 93.107, 77.087 93.246 C 72.559 93.723, 73.850 91.108, 79.572 88.215 C 83.108 86.426, 94.146 77.590, 108.609 64.969 C 121.442 53.770, 131.842 44.533, 131.721 44.442 C 131.599 44.352, 127 44.048, 121.500 43.768 C 112.193 43.294, 109.802 43.622, 87 48.508" stroke="none" fill="black" fill-rule="evenodd"/>
</svg>