<svg xmlns="http://www.w3.org/2000/svg" width="200" height="200" viewBox="0 0 200 200" version="1.1">
	<path d="M 31 8.082 C 31 8.677, 36.453 15.224, 43.118 22.631 C 49.782 30.038, 55.070 36.238, 54.868 36.410 C 54.665 36.581, 45.969 36.328, 35.541 35.847 C 25.114 35.366, 16.264 35.091, 15.874 35.236 C 15.485 35.381, 22.100 44.837, 30.576 56.250 C 39.052 67.662, 45.742 77, 45.443 77 C 45.145 77, 43.531 76.292, 41.857 75.426 C 40.184 74.561, 38.565 74.101, 38.261 74.405 C 37.957 74.709, 39.384 78.955, 41.433 83.839 L 45.157 92.721 39.675 103.650 C 34.946 113.080, 33.081 118.746, 26.082 144.941 C 21.620 161.640, 18.132 175.466, 18.331 175.665 C 18.655 175.989, 57.924 157.409, 58.830 156.504 C 59.034 156.300, 58.923 155.684, 58.583 155.135 C 58.224 154.553, 50.605 157.667, 40.339 162.591 C 30.645 167.241, 22.579 170.912, 22.415 170.748 C 22.251 170.585, 25.451 157.996, 29.525 142.773 C 35.489 120.489, 37.876 113.216, 41.775 105.450 L 46.617 95.805 53.316 111.711 L 60.016 127.617 83.708 145.308 C 111.453 166.026, 103.190 163.960, 146.500 161.009 C 162.450 159.922, 176.625 159.043, 178 159.056 C 180.490 159.080, 180.488 159.086, 177.568 160.667 C 175.956 161.540, 165.076 167.798, 153.392 174.574 L 132.149 186.893 96.583 175.028 C 75.556 168.012, 60.769 163.565, 60.409 164.148 C 60.074 164.690, 59.957 165.280, 60.150 165.459 C 60.342 165.638, 76.618 171.228, 96.317 177.882 L 132.133 189.980 159.527 174.240 C 174.594 165.583, 186.939 157.938, 186.960 157.250 C 186.985 156.484, 185.666 156, 183.558 156 C 180.060 156, 123.887 159.569, 114.204 160.407 L 108.908 160.865 85.598 143.436 L 62.288 126.007 55.477 109.873 C 51.731 100.999, 48.667 93.219, 48.667 92.584 C 48.667 91.613, 69.604 47.309, 70.639 46.089 C 70.831 45.864, 71.793 46.407, 72.777 47.298 C 74.463 48.824, 74.487 49.796, 73.200 64.208 C 72.147 75.996, 72.054 84.493, 72.794 101.294 C 73.322 113.280, 73.922 123.223, 74.127 123.388 C 74.332 123.553, 89.244 131.209, 107.264 140.402 L 140.028 157.116 143.264 154.857 C 163.304 140.867, 191.022 120.689, 190.677 120.343 C 190.435 120.101, 172.361 121.302, 150.512 123.012 C 128.663 124.721, 110.596 125.930, 110.364 125.697 C 110.132 125.465, 110.249 118.463, 110.624 110.137 L 111.308 95 123.404 95.032 L 135.500 95.064 138.578 99.558 L 141.656 104.052 158.078 89.920 C 167.110 82.148, 174.848 75.465, 175.274 75.070 C 175.700 74.675, 166.179 68.396, 154.117 61.116 L 132.186 47.880 119.093 55.905 C 111.892 60.319, 106 63.701, 106 63.420 C 106 63.139, 108.222 59.617, 110.938 55.592 C 116.830 46.860, 112.407 47.858, 156.247 45.368 C 185.555 43.703, 190.430 43.096, 188.667 41.333 C 188.240 40.907, 171.893 40.174, 152.341 39.706 L 116.790 38.854 99.018 30.427 C 89.244 25.792, 80.802 22, 80.259 22 C 79.716 22, 77.190 26.306, 74.645 31.570 L 70.019 41.140 51.518 24.070 C 41.342 14.681, 32.563 7, 32.009 7 C 31.454 7, 31 7.487, 31 8.082 M 76.572 33.856 L 72.139 42.684 74.745 45.291 L 77.352 47.897 76.058 63.571 C 75.165 74.388, 74.989 85.790, 75.491 100.372 L 76.218 121.500 108.072 137.758 L 139.925 154.016 161.030 138.908 C 172.637 130.599, 181.992 123.692, 181.817 123.559 C 181.643 123.426, 164.904 124.612, 144.620 126.195 C 124.337 127.779, 107.645 128.945, 107.527 128.787 C 107.409 128.629, 107.525 120.239, 107.783 110.142 L 108.253 91.784 122.706 92.158 C 134.550 92.464, 137.317 92.816, 138.039 94.106 C 138.524 94.972, 139.726 96.633, 140.710 97.797 C 142.497 99.911, 142.523 99.895, 156.681 87.707 C 164.480 80.993, 170.889 75.275, 170.924 75 C 170.958 74.725, 162.267 69.209, 151.609 62.742 L 132.233 50.984 116.541 60.617 C 106.970 66.493, 100.490 69.890, 99.928 69.328 C 99.366 68.766, 102.028 63.939, 106.753 56.953 L 114.500 45.500 125 44.734 C 130.775 44.312, 139.325 43.587, 144 43.122 C 151.759 42.350, 150.958 42.265, 134.806 42.138 L 117.113 42 104.306 35.890 C 97.263 32.530, 89.139 28.711, 86.253 27.404 L 81.006 25.028 76.572 33.856 M 54.959 31.500 C 55.752 32.600, 57.515 34.733, 58.877 36.240 C 60.239 37.746, 61.162 39.146, 60.927 39.349 C 60.692 39.553, 51.776 39.319, 41.114 38.830 C 30.451 38.340, 21.526 38.140, 21.281 38.385 C 21.036 38.631, 27.688 47.945, 36.064 59.085 L 51.292 79.338 53.808 74.419 C 55.192 71.714, 59.088 63.650, 62.466 56.500 L 68.607 43.500 61.063 36.500 C 56.913 32.650, 54.167 30.400, 54.959 31.500 M 43 79.832 C 43 80.354, 43.822 82.619, 44.828 84.864 L 46.655 88.946 48.324 85.447 C 49.991 81.951, 49.990 81.947, 47.352 80.944 C 45.900 80.392, 44.327 79.702, 43.856 79.411 C 43.385 79.120, 43 79.309, 43 79.832" stroke="none" fill="black" fill-rule="evenodd"/>
</svg>