<svg xmlns="http://www.w3.org/2000/svg" width="200" height="200" viewBox="0 0 200 200" version="1.1">
	<path d="M 35.869 26.256 L 29.238 39.500 23.091 70.636 L 16.944 101.772 20.029 125.136 C 21.730 138.019, 23.649 148.991, 24.307 149.595 C 26.608 151.708, 57.763 171, 58.873 171 C 59.490 171, 67.719 168.703, 77.160 165.895 C 91.427 161.652, 95.146 160.141, 99.183 156.950 L 104.040 153.110 112.270 156.935 C 116.797 159.038, 125.900 163.335, 132.500 166.484 C 152.789 176.162, 158.978 179.001, 159.754 178.982 C 160.164 178.972, 165.038 168.299, 170.584 155.265 L 180.667 131.565 173.383 113.780 L 166.098 95.994 175.451 75.747 C 180.595 64.611, 184.510 55.216, 184.152 54.868 C 183.793 54.520, 171.347 46.992, 156.494 38.139 L 129.487 22.041 113.494 24.011 C 104.697 25.094, 95.917 25.985, 93.983 25.990 C 92.048 25.996, 80.251 23.075, 67.766 19.500 C 55.282 15.925, 44.490 13.003, 43.784 13.006 C 43.078 13.009, 39.516 18.972, 35.869 26.256 M 38.135 27.750 C 32.272 39.463, 32.234 39.599, 25.993 70.500 L 19.732 101.500 22.449 122.500 C 23.943 134.050, 25.393 144.475, 25.670 145.666 C 26.016 147.150, 31.213 151.011, 42.160 157.916 C 50.952 163.462, 58.675 167.997, 59.323 167.994 C 59.970 167.991, 67.786 165.815, 76.691 163.159 C 90.170 159.138, 93.810 157.629, 98.414 154.153 L 103.944 149.977 131.222 162.905 C 146.225 170.015, 158.587 175.746, 158.693 175.641 C 158.798 175.535, 163.117 165.567, 168.289 153.491 L 177.692 131.534 170.399 113.754 L 163.106 95.975 172.095 76.459 C 177.038 65.725, 180.810 56.502, 180.478 55.964 C 179.664 54.647, 173.722 51.526, 172.622 51.837 C 172.138 51.974, 163.363 51.185, 153.122 50.084 C 142.880 48.982, 121 46.718, 104.500 45.051 C 88 43.384, 73.037 41.819, 71.250 41.573 C 66.312 40.893, 67.107 43.436, 74.289 51.298 L 80.500 58.095 99.434 61.349 C 110.641 63.276, 118.531 65.092, 118.767 65.802 C 119.330 67.490, 117.295 67.334, 101.109 64.450 C 93.239 63.048, 86.401 62.035, 85.914 62.200 C 85.428 62.365, 89.236 67, 94.376 72.500 L 103.722 82.500 127.358 66.750 C 140.357 58.088, 151.445 51, 151.997 51 C 154.996 51, 151.180 54.906, 135.388 68 C 125.770 75.975, 117.473 82.650, 116.950 82.833 C 116.428 83.017, 116.005 82.567, 116.012 81.833 C 116.018 81.100, 118.943 78.078, 122.512 75.119 C 126.080 72.159, 129 69.570, 129 69.364 C 129 69.159, 123.836 72.430, 117.525 76.633 L 106.050 84.275 108.915 87.888 C 115.076 95.657, 114.067 95.370, 132.488 94.575 C 146.823 93.956, 149 94.060, 149 95.364 C 149 97.155, 148.632 97.272, 134.273 100.078 L 123.047 102.271 125.924 105.886 C 127.506 107.874, 130.017 110.625, 131.502 112 C 132.988 113.375, 138.277 118.909, 143.255 124.297 C 153.130 134.985, 154.016 138.407, 145.344 132.363 C 141.132 129.427, 135.097 127.299, 111.409 120.396 C 95.563 115.778, 82.506 112, 82.394 112 C 82.282 112, 83.718 115.891, 85.585 120.646 C 91.852 136.609, 90.231 136.578, 77.966 120.500 C 72.932 113.900, 68.697 108.380, 68.556 108.234 C 67.755 107.399, 49.810 102.806, 39.750 100.861 C 31.974 99.357, 28 98.150, 28 97.294 C 28 96.293, 31.394 96, 43 96 C 51.250 96, 58 95.604, 58 95.120 C 58 94.636, 53.275 88.046, 47.500 80.476 C 41.725 72.906, 37 66.327, 37 65.856 C 37 64.215, 39.238 65.021, 43.038 68.030 C 46.910 71.097, 87.379 91, 89.742 91 C 91.126 91, 100.952 84.848, 100.982 83.963 C 100.992 83.667, 95.938 78.177, 89.750 71.763 L 78.500 60.100 72.855 59.448 C 67.568 58.837, 67.171 58.604, 66.605 55.773 C 66.272 54.110, 66 51.403, 66 49.757 C 66 47.459, 64.377 44.965, 59 39 L 52 31.235 68.046 29.433 C 76.871 28.442, 83.508 27.315, 82.796 26.930 C 81.422 26.187, 45.943 16, 44.729 16 C 44.336 16, 41.369 21.287, 38.135 27.750 M 114.899 26.533 C 109.069 27.242, 103.223 27.974, 101.908 28.161 C 100.593 28.347, 114.119 32.644, 131.966 37.709 C 149.813 42.774, 164.542 46.791, 164.698 46.635 C 165.381 45.952, 129.049 25.012, 127.370 25.122 C 126.342 25.189, 120.730 25.824, 114.899 26.533 M 76.500 31.079 C 68.250 32.098, 60.601 33.059, 59.502 33.216 C 57.721 33.469, 57.909 33.936, 61.224 37.500 C 63.958 40.438, 64.953 41.032, 64.973 39.738 C 64.995 38.277, 65.641 38.067, 68.750 38.508 C 74.978 39.390, 150.202 47.006, 151.911 46.927 C 152.785 46.886, 139.550 42.841, 122.500 37.938 C 105.450 33.035, 91.500 29.069, 91.500 29.125 C 91.500 29.181, 84.750 30.061, 76.500 31.079 M 69 52.785 C 69 55.325, 69.493 56.086, 71.457 56.579 C 75.819 57.673, 76.163 56.550, 72.541 53.040 L 69 49.608 69 52.785 M 53.646 84.103 L 61.675 94.500 73.504 94.783 C 80.010 94.939, 85.719 94.681, 86.189 94.211 C 86.830 93.570, 53.557 76.628, 46.696 74.103 C 46.103 73.884, 49.230 78.384, 53.646 84.103 M 98.750 89.112 C 96.138 90.831, 94 92.625, 94 93.099 C 94 94.494, 98.105 95.128, 105.031 94.803 L 111.500 94.500 107.500 90.244 L 103.500 85.987 98.750 89.112 M 119 98.031 C 119 99.833, 121.341 99.996, 127 98.589 L 132.500 97.221 125.750 97.111 C 121.708 97.044, 119 97.414, 119 98.031 M 44.083 98.388 C 44.313 98.601, 48.550 99.784, 53.500 101.015 C 58.450 102.247, 63.152 103.505, 63.949 103.811 C 64.887 104.171, 64.599 103.246, 63.130 101.183 C 60.884 98.028, 60.788 98, 52.265 98 C 47.536 98, 43.854 98.175, 44.083 98.388 M 65.027 98.750 C 65.042 99.162, 66.279 100.959, 67.777 102.742 C 70.662 106.176, 77.909 108.730, 76.764 105.909 C 76.449 105.134, 75.917 103.821, 75.581 102.991 C 75.186 102.015, 75.948 100.875, 77.735 99.767 C 80.493 98.057, 80.482 98.053, 72.750 98.027 C 68.487 98.012, 65.012 98.338, 65.027 98.750 M 82.178 100.161 C 79.386 101.949, 78.958 102.704, 79.498 104.894 C 79.852 106.327, 80.447 107.815, 80.821 108.200 C 81.194 108.585, 94.100 112.536, 109.500 116.981 C 124.900 121.426, 138.374 125.331, 139.442 125.660 C 140.510 125.988, 136.509 121.063, 130.551 114.715 L 119.718 103.174 114.566 103.705 C 110.165 104.160, 108.511 103.782, 103.235 101.119 C 95.478 97.203, 87.374 96.834, 82.178 100.161 M 107.414 99.877 C 112.045 101.922, 117.735 101.590, 115.903 99.383 C 115.159 98.486, 112.776 98.026, 109.128 98.074 L 103.500 98.148 107.414 99.877 M 75.215 112.264 C 76.551 114.044, 78.705 116.957, 80.001 118.738 C 81.297 120.518, 82.507 121.827, 82.689 121.645 C 82.871 121.463, 82.066 119.020, 80.901 116.217 C 79.294 112.348, 78.061 110.868, 75.784 110.075 L 72.785 109.029 75.215 112.264" stroke="none" fill="black" fill-rule="evenodd"/>
</svg>