<svg xmlns="http://www.w3.org/2000/svg" width="200" height="200" viewBox="0 0 200 200" version="1.1">
	<path d="M 122.500 24.052 C 115.900 24.456, 96.775 26.438, 80 28.456 C 51.361 31.901, 48.805 32.058, 38.116 31.030 C 31.854 30.428, 26.515 30.151, 26.251 30.415 C 25.987 30.679, 23.797 40.031, 21.385 51.196 L 16.998 71.498 24.442 107.499 C 28.536 127.299, 33.330 151.150, 35.094 160.500 C 36.858 169.850, 38.423 177.651, 38.570 177.836 C 38.718 178.020, 49.432 169.331, 62.381 158.526 L 85.923 138.880 114.178 161.554 C 129.718 174.025, 142.898 184.403, 143.466 184.617 C 144.035 184.830, 153.569 169.988, 164.654 151.633 L 184.808 118.262 174.837 83.431 L 164.866 48.600 169.383 35.800 L 173.899 23 154.200 23.158 C 143.365 23.246, 129.100 23.648, 122.500 24.052 M 94.989 29.487 C 79.858 31.288, 66.583 32.943, 65.489 33.165 C 64.395 33.388, 73.171 34.454, 84.990 35.535 C 102.744 37.158, 106.532 37.774, 106.780 39.077 C 107.030 40.389, 104.652 40.958, 92.621 42.468 C 84.668 43.466, 77.729 44.556, 77.199 44.891 C 76.411 45.390, 78.348 63.783, 79.272 64.573 C 79.398 64.680, 86.925 63.698, 96 62.391 C 114.185 59.772, 112.695 60.492, 121.188 50.239 L 123.876 46.994 138.188 50.061 C 156.098 53.899, 156 53.870, 156 55.421 C 156 56.336, 150.021 57.540, 135.327 59.585 L 114.654 62.462 111.077 66.319 C 104.547 73.360, 103.828 73, 124.435 73 L 142.970 73 151.552 84.599 C 156.273 90.979, 159.941 96.393, 159.704 96.630 C 159.466 96.867, 146.949 96.602, 131.886 96.040 C 116.824 95.479, 103.519 95.015, 102.320 95.010 C 100.351 95.001, 100.227 95.304, 101.039 98.136 C 101.534 99.861, 102.213 101.546, 102.549 101.882 C 102.884 102.218, 111.786 103.024, 122.330 103.673 C 136.324 104.535, 144.335 105.548, 152 107.427 C 157.775 108.842, 163.512 110.233, 164.750 110.519 C 165.988 110.804, 167 111.423, 167 111.894 C 167 112.595, 156.436 129.692, 138.618 157.826 L 135.879 162.153 120.805 139.826 C 112.515 127.547, 104.984 116.600, 104.070 115.500 C 103.157 114.400, 101.842 112.375, 101.149 111 C 98.616 105.977, 97.591 105.322, 91.127 104.592 L 84.753 103.873 85.480 111.634 C 86.193 119.242, 86.133 119.549, 82.404 127.198 C 80.311 131.489, 78.015 135, 77.300 135 C 75.499 135, 75.527 134.902, 79.861 126.228 L 83.721 118.500 82.720 111.250 C 81.773 104.392, 81.577 103.995, 79.109 103.915 C 77.674 103.869, 67.960 103.306, 57.521 102.665 L 38.543 101.500 37.329 96.026 C 36.662 93.015, 36.229 90.437, 36.369 90.298 C 36.508 90.158, 46.359 90.372, 58.259 90.772 L 79.895 91.500 79.328 87 C 79.016 84.525, 78.457 80.925, 78.087 79 L 77.412 75.500 50.704 75 C 33.934 74.686, 23.984 74.128, 23.962 73.500 C 23.943 72.950, 34.091 71.091, 46.511 69.369 C 58.932 67.647, 69.344 65.989, 69.649 65.684 C 69.954 65.379, 65.612 58.386, 59.999 50.144 L 49.795 35.159 45.147 34.614 C 28.432 32.651, 28.301 32.656, 27.699 35.167 C 27.391 36.450, 25.498 45.215, 23.493 54.645 L 19.846 71.790 26.873 105.645 C 30.738 124.265, 35.393 147.089, 37.218 156.365 L 40.535 173.229 62.921 154.566 C 75.576 144.015, 85.885 136.126, 86.639 136.415 C 87.373 136.697, 100.371 146.917, 115.523 159.127 C 131.142 171.713, 143.425 180.931, 143.885 180.413 C 146.459 177.516, 181.377 118.360, 181.278 117.064 C 181.212 116.204, 176.835 100.383, 171.552 81.907 L 161.947 48.315 165.944 37.157 L 169.940 26 146.220 26.106 C 126.145 26.196, 118.272 26.715, 94.989 29.487 M 54 35.913 C 54 36.200, 58.365 42.862, 63.699 50.718 C 72.421 63.560, 76.038 67.399, 75.980 63.750 C 75.958 62.320, 74.296 50.034, 73.499 45.400 L 72.966 42.300 83.733 40.943 C 89.655 40.196, 93.825 39.445, 93 39.273 C 89.224 38.484, 54 35.450, 54 35.913 M 121.580 54.043 C 119.526 56.317, 118.072 58.405, 118.350 58.683 C 119.039 59.372, 145 55.687, 145 54.900 C 145 54.556, 141.127 53.504, 136.393 52.564 C 131.659 51.624, 127.230 50.642, 126.551 50.381 C 125.872 50.121, 123.635 51.768, 121.580 54.043 M 94.250 65.318 C 80.625 67.290, 80 67.482, 80 69.690 C 80 71.786, 80.450 72, 84.853 72 C 87.523 72, 92.385 72.280, 95.658 72.622 L 101.609 73.244 105.898 68.122 C 108.256 65.305, 109.807 63.057, 109.343 63.128 C 108.879 63.198, 102.088 64.183, 94.250 65.318 M 58.500 70.463 L 50.500 71.719 62.333 71.860 C 71.401 71.967, 74.071 71.708, 73.756 70.750 C 73.199 69.054, 68.082 68.958, 58.500 70.463 M 46.750 72.662 C 47.438 72.940, 48.563 72.940, 49.250 72.662 C 49.938 72.385, 49.375 72.158, 48 72.158 C 46.625 72.158, 46.063 72.385, 46.750 72.662 M 81.167 75.852 C 81.350 76.321, 83.750 80.140, 86.500 84.339 C 90.395 90.287, 92.025 91.977, 93.875 91.987 C 96.347 92.001, 96.405 91.234, 94.450 84.414 C 94.048 83.009, 94.692 81.331, 96.426 79.270 C 97.842 77.588, 99 75.939, 99 75.606 C 99 75.273, 94.912 75, 89.917 75 C 84.921 75, 80.983 75.384, 81.167 75.852 M 100.226 78.979 C 97.073 82.777, 96.993 83.088, 98.072 87.372 L 99.192 91.821 109.346 92.385 C 114.931 92.695, 127.568 93.221, 137.430 93.554 L 155.359 94.160 152.860 90.830 C 151.486 88.998, 148.477 84.980, 146.174 81.900 L 141.987 76.301 132.243 75.656 C 126.885 75.301, 118.225 75.016, 113 75.023 L 103.500 75.036 100.226 78.979 M 82.020 86 C 82.034 90.501, 83.192 92.259, 85.863 91.837 C 87.949 91.508, 87.929 91.392, 85.004 87 L 82.009 82.500 82.020 86 M 40.178 95.687 C 40.489 98.403, 40.741 98.521, 47.500 99.117 C 51.350 99.456, 60.462 100.059, 67.750 100.458 L 81 101.181 80.985 98.841 C 80.976 97.553, 80.639 96.002, 80.235 95.394 C 79.767 94.690, 72.294 94.031, 59.678 93.581 L 39.855 92.874 40.178 95.687 M 83.513 97.100 C 84.428 101.314, 85.395 101.965, 90.759 101.985 L 95.018 102 92.759 98.512 C 91.332 96.309, 89.702 95.020, 88.332 95.012 C 87.139 95.006, 85.401 94.707, 84.469 94.350 C 83.003 93.787, 82.874 94.157, 83.513 97.100 M 94.892 96.750 C 96.657 99.962, 98.936 102.514, 98.968 101.315 C 99.037 98.756, 96.968 95, 95.490 95 C 94.304 95, 94.161 95.420, 94.892 96.750 M 103.462 107.145 C 104.911 112.286, 106.691 113.842, 121.567 122.967 C 130.055 128.174, 137 133.011, 137 133.717 C 137 134.423, 136.717 135, 136.372 135 C 135.846 135, 120.751 125.752, 112.048 120.098 C 110.520 119.106, 114.479 125.727, 122.548 137.659 C 132.097 151.781, 135.786 156.510, 136.588 155.657 C 138.762 153.346, 163.107 113.774, 162.642 113.308 C 162.378 113.045, 156.839 111.563, 150.331 110.015 C 141.832 107.994, 134.557 107.019, 124.500 106.555 C 116.800 106.200, 108.767 105.658, 106.649 105.350 C 102.986 104.817, 102.831 104.905, 103.462 107.145" stroke="none" fill="black" fill-rule="evenodd"/>
</svg>