<svg xmlns="http://www.w3.org/2000/svg" width="200" height="200" viewBox="0 0 200 200" version="1.1">
	<path d="M 142 22.868 L 120.500 26.559 108.500 25.182 L 96.500 23.805 72.500 28.563 C 52.540 32.520, 45.891 33.420, 33 33.910 L 17.500 34.500 32.807 47 C 41.225 53.875, 48.581 59.664, 49.152 59.865 C 49.724 60.066, 50.036 59.541, 49.846 58.698 C 49.655 57.855, 44.019 52.683, 37.320 47.206 L 25.139 37.246 36.320 36.739 C 43.804 36.400, 55.435 34.672, 71.500 31.515 L 95.500 26.798 109 28.003 L 122.500 29.208 143.666 25.604 C 155.308 23.622, 165.261 22, 165.784 22 C 166.307 22, 169.971 27.023, 173.927 33.163 C 180.860 43.923, 181.054 44.390, 179.310 46.118 C 173.860 51.518, 146.453 73.798, 146.191 73.040 C 145.904 72.210, 149.319 47.933, 150.593 41.750 C 151.295 38.338, 151.385 38.342, 135.158 41.177 L 122.699 43.354 123.387 71.427 C 123.766 86.867, 124.526 108.356, 125.076 119.180 L 126.075 138.860 120.512 159.680 C 117.452 171.131, 114.845 180.847, 114.717 181.271 C 114.590 181.695, 111.028 176.055, 106.803 168.738 L 99.119 155.434 100.614 136.967 C 101.436 126.810, 102.336 105, 102.614 88.500 L 103.120 58.500 89.732 44.543 L 76.344 30.585 70.648 53.543 L 64.953 76.500 68.234 99.992 L 71.516 123.484 76.258 124.350 C 78.866 124.826, 81 125.555, 81 125.969 C 81 126.382, 71.458 132.442, 59.796 139.434 L 38.592 152.147 28.046 147.447 C 22.246 144.861, 16.869 142.410, 16.098 141.998 C 15.117 141.475, 19.401 137.719, 30.395 129.468 C 41.018 121.494, 45.916 117.224, 45.546 116.260 C 45.246 115.477, 45 105.423, 45 93.918 C 45 75.105, 44.833 73, 43.342 73 C 41.830 73, 41.738 74.928, 42.297 94.927 L 42.910 116.855 26.455 129.154 C 17.405 135.919, 10.009 141.689, 10.019 141.977 C 10.030 142.265, 13.517 144.042, 17.769 145.926 C 22.021 147.810, 28.472 150.680, 32.103 152.304 L 38.707 155.255 62.603 141.013 C 75.747 133.180, 87.101 126.205, 87.835 125.514 C 88.921 124.493, 87.974 124.033, 82.766 123.050 C 79.244 122.386, 75.823 121.508, 75.163 121.101 C 74.462 120.667, 72.698 111.298, 70.909 98.498 L 67.852 76.636 72.562 57.568 C 75.152 47.081, 77.597 38.136, 77.995 37.690 C 78.394 37.245, 83.502 41.970, 89.348 48.190 L 99.977 59.500 99.926 84 C 99.897 97.760, 99.083 118.801, 98.068 132 L 96.261 155.500 105.302 171.500 C 115.481 189.516, 114.845 188.488, 115.454 187.879 C 115.704 187.630, 118.805 176.642, 122.347 163.463 L 128.785 139.500 127.375 108 C 126.599 90.675, 126.085 69.528, 126.232 61.007 L 126.500 45.514 133 44.342 C 136.575 43.698, 141.338 42.891, 143.585 42.549 L 147.671 41.927 145.328 58.213 C 144.039 67.171, 142.311 75.777, 141.488 77.339 C 140.665 78.900, 140.310 80.693, 140.700 81.324 C 141.090 81.955, 141.299 83.828, 141.163 85.486 C 141.005 87.426, 143.604 94.809, 148.459 106.210 C 152.606 115.951, 156 124.423, 156 125.037 C 156 125.651, 150.825 132.069, 144.500 139.300 C 138.175 146.531, 133 152.718, 133 153.051 C 133 153.772, 178.167 158.895, 179.250 158.296 C 179.662 158.068, 179.979 146.996, 179.953 133.691 L 179.906 109.500 162.469 95.500 C 151.387 86.602, 145.117 80.913, 145.266 79.890 C 145.395 79.004, 154.353 70.851, 165.173 61.771 L 184.846 45.262 176.603 32.381 C 169.960 22, 167.889 19.469, 165.930 19.339 C 164.594 19.250, 153.825 20.839, 142 22.868 M 144 86.268 C 144 87.555, 146.958 95.559, 150.573 104.054 C 154.189 112.549, 157.742 120.905, 158.469 122.623 L 159.791 125.745 148.838 138.373 C 142.814 145.318, 138.023 151.059, 138.193 151.131 C 138.362 151.203, 147.162 152.231, 157.750 153.417 L 177 155.572 176.944 133.036 L 176.888 110.500 171.694 106.403 C 168.837 104.150, 161.438 98.172, 155.250 93.117 C 145.406 85.077, 144 84.221, 144 86.268" stroke="none" fill="black" fill-rule="evenodd"/>
</svg>