<svg xmlns="http://www.w3.org/2000/svg" width="200" height="200" viewBox="0 0 200 200" version="1.1">
	<path d="M 63.500 21.152 L 33.500 26.075 28.250 31.584 C 25.363 34.614, 23.005 37.410, 23.011 37.797 C 23.017 38.183, 36.180 47.096, 52.261 57.602 L 81.500 76.703 110 82.451 C 125.675 85.613, 142.610 89.347, 147.634 90.749 L 156.768 93.297 157.419 101.399 C 157.777 105.854, 158.331 112.039, 158.652 115.143 L 159.234 120.785 146.867 121.483 C 140.065 121.867, 132.728 122.028, 130.563 121.841 L 126.626 121.500 122.652 108.765 C 118.788 96.383, 118.593 96.017, 115.589 95.553 C 110.229 94.724, 62.020 92.647, 61.447 93.220 C 61.146 93.521, 63.446 100.457, 66.558 108.634 C 74.241 128.818, 75.227 131.642, 74.185 130.490 C 73.693 129.946, 69.217 124.100, 64.240 117.500 C 56.915 107.787, 29.055 78.169, 28.980 80.014 C 28.969 80.281, 27.211 100.075, 25.073 124 C 22.934 147.925, 21.288 167.607, 21.414 167.738 C 21.540 167.869, 28.285 167.643, 36.403 167.235 L 51.162 166.493 97.734 177.138 L 144.306 187.784 149.489 182.142 C 169.888 159.935, 170.219 159.518, 167.671 159.196 C 165.322 158.900, 165.239 158.560, 164.093 144.696 C 163.447 136.888, 162.673 128.813, 162.372 126.750 L 161.824 123 167.912 123 C 175.125 123, 174.988 123.466, 171.559 110.635 C 170.216 105.611, 168.628 99.606, 168.031 97.290 C 167.072 93.574, 166.536 93.004, 163.461 92.427 C 161.545 92.067, 159.800 91.486, 159.583 91.135 C 159.367 90.784, 158.858 86.270, 158.454 81.104 L 157.719 71.712 167.445 76.970 C 174.041 80.537, 177.498 81.902, 178.189 81.211 C 178.879 80.521, 176.196 78.583, 169.853 75.190 C 164.709 72.437, 159.738 69.581, 158.808 68.843 C 157.517 67.819, 156.880 64.771, 156.125 56.016 C 155.581 49.699, 155.273 44.394, 155.440 44.226 C 155.608 44.059, 158.350 47.539, 161.533 51.961 C 164.717 56.382, 167.924 60, 168.661 60 C 169.397 60, 170 59.732, 170 59.404 C 170 57.974, 152.462 35.169, 152.124 36.159 C 151.917 36.763, 152.303 43.526, 152.982 51.188 C 153.660 58.849, 153.999 65.334, 153.734 65.599 C 153.263 66.070, 124.299 50.699, 122.763 49.163 C 122.335 48.735, 130.168 42.343, 140.169 34.958 L 158.354 21.530 154.427 20.886 C 147.799 19.797, 111.063 17.604, 110.409 18.257 C 110.071 18.595, 107.229 27.119, 104.094 37.199 C 99.108 53.226, 90.956 72.077, 89.057 71.968 C 88.351 71.927, 66 35.435, 66.001 34.324 C 66.002 33.871, 72.864 30.250, 81.251 26.278 C 89.788 22.235, 96.642 18.383, 96.823 17.528 C 97.244 15.542, 98.567 15.398, 63.500 21.152 M 111.620 21.786 C 105.044 44.725, 100.355 57.911, 95.917 65.957 C 93.122 71.023, 90.985 75.306, 91.167 75.475 C 91.350 75.644, 101.850 77.871, 114.500 80.426 C 127.150 82.980, 141.490 86.202, 146.366 87.586 C 151.242 88.970, 155.449 89.885, 155.714 89.619 C 155.980 89.354, 155.875 84.839, 155.481 79.587 L 154.765 70.038 135.888 59.769 C 125.506 54.121, 117.020 49.275, 117.030 49 C 117.040 48.725, 124.679 42.904, 134.005 36.064 C 143.330 29.224, 150.857 23.534, 150.730 23.420 C 150.604 23.306, 143.075 22.698, 134 22.068 C 124.925 21.438, 116.288 20.731, 114.806 20.497 C 112.879 20.193, 111.972 20.560, 111.620 21.786 M 57.282 25.082 L 34.064 28.960 30.559 32.730 C 28.631 34.803, 27.042 36.786, 27.027 37.136 C 26.980 38.247, 81.494 73.656, 84.360 74.376 C 87.714 75.217, 88.628 77.056, 73.598 52.722 C 67.219 42.394, 62 33.573, 62 33.119 C 62 32.666, 67.287 29.781, 73.750 26.708 C 80.818 23.347, 84.504 21.137, 83 21.162 C 81.625 21.185, 70.052 22.949, 57.282 25.082 M 31 87.090 C 31 89.108, 25.209 155.167, 24.540 160.783 L 24.029 165.066 38.265 164.439 L 52.500 163.812 96.500 173.946 C 120.700 179.519, 141.208 184.174, 142.073 184.290 C 142.959 184.408, 148.039 179.697, 153.708 173.500 L 163.770 162.500 154.135 161.867 C 148.836 161.520, 128.863 161.182, 109.750 161.117 C 90.637 161.053, 75 160.709, 75 160.353 C 75 159.997, 80.215 151.734, 86.588 141.992 L 98.176 124.279 105.739 123.639 C 109.898 123.288, 115.709 123, 118.651 123 C 121.593 123, 124 122.663, 124 122.252 C 124 120.976, 116.787 99.538, 116.125 98.847 C 115.352 98.039, 66.205 95.461, 65.476 96.190 C 65.187 96.480, 68.727 106.665, 73.344 118.823 C 84.565 148.374, 84.188 148.738, 66.681 125.250 C 54.290 108.627, 31 83.718, 31 87.090 M 160.421 103.809 C 160.798 109.139, 161.370 115.217, 161.692 117.315 L 162.276 121.129 166.388 120.450 C 168.650 120.077, 170.589 119.697, 170.697 119.605 C 171.021 119.332, 165.338 97.355, 164.658 96.256 C 164.313 95.698, 163.064 94.989, 161.883 94.680 C 159.761 94.125, 159.743 94.236, 160.421 103.809 M 136.399 124.912 L 129.298 125.500 145.399 139.726 C 154.255 147.551, 161.610 153.401, 161.744 152.726 C 161.878 152.052, 161.428 145.425, 160.744 138 L 159.500 124.500 151.500 124.412 C 147.100 124.364, 140.305 124.589, 136.399 124.912 M 111.805 125.943 C 105.373 126.281, 99.922 126.769, 99.693 127.028 C 98.344 128.554, 79.965 157.290, 80.206 157.496 C 80.368 157.633, 99.131 158.067, 121.902 158.460 L 163.305 159.175 144.011 142.088 C 133.400 132.689, 124.444 125.074, 124.109 125.165 C 123.774 125.255, 118.237 125.606, 111.805 125.943" stroke="none" fill="black" fill-rule="evenodd"/>
</svg>