<svg xmlns="http://www.w3.org/2000/svg" width="200" height="200" viewBox="0 0 200 200" version="1.1">
	<path d="M 72.500 19.766 L 34.500 26.250 29.246 33.321 C 26.356 37.210, 24.331 40.709, 24.746 41.097 C 25.161 41.485, 39.450 45.051, 56.500 49.022 C 73.550 52.993, 87.667 56.392, 87.871 56.575 C 88.075 56.758, 86.985 58.895, 85.449 61.323 L 82.656 65.738 63.578 66.460 C 53.085 66.857, 44.341 67.338, 44.146 67.528 C 43.952 67.719, 44.571 72.196, 45.522 77.478 C 46.473 82.761, 47.035 87.298, 46.771 87.562 C 46.507 87.826, 39.008 88.329, 30.107 88.679 C 21.205 89.030, 13.739 89.613, 13.515 89.975 C 12.764 91.191, 31.859 159.295, 33.188 160.137 C 33.910 160.595, 35.764 160.976, 37.310 160.985 C 38.855 160.993, 56.634 167.075, 76.818 174.500 C 97.002 181.925, 114.187 187.983, 115.008 187.963 C 115.829 187.942, 133.144 182.202, 153.487 175.207 C 182.464 165.244, 190.551 162.095, 190.825 160.668 C 191.148 158.995, 190.540 158.892, 183.338 159.403 C 179.027 159.709, 160.807 160.232, 142.849 160.566 L 110.199 161.172 94.599 149.463 C 86.020 143.023, 79 137.457, 79 137.094 C 79 136.732, 86.009 134.706, 94.576 132.593 C 103.143 130.480, 109.780 128.409, 109.326 127.991 C 108.872 127.573, 99.050 120.580, 87.500 112.451 C 75.950 104.323, 66.334 97.542, 66.130 97.383 C 65.927 97.224, 66.622 95.620, 67.675 93.817 C 69.977 89.875, 71.836 89.467, 90.791 88.739 L 104.083 88.230 106.560 93.119 L 109.038 98.009 117.769 97.484 C 122.571 97.195, 129.762 96.749, 133.750 96.492 C 137.738 96.235, 141.006 96.132, 141.014 96.263 C 141.152 98.589, 147.921 133.254, 148.314 133.647 C 150.493 135.826, 150.194 129.565, 146.865 103.302 C 144.787 86.911, 143.068 72.283, 143.044 70.795 C 143.006 68.438, 143.481 68.009, 146.750 67.458 C 152.794 66.438, 154.134 65.901, 153.713 64.665 C 153.455 63.908, 151.368 63.619, 147.761 63.839 L 142.206 64.179 141.607 60.339 C 139.962 49.798, 136.885 22.853, 137.173 21.500 C 137.408 20.390, 141.695 22.964, 152.474 30.692 L 167.448 41.426 159.195 43.075 C 154.655 43.983, 150.719 44.948, 150.447 45.220 C 150.175 45.492, 155.588 58.868, 162.476 74.944 C 169.364 91.020, 174.998 104.697, 174.996 105.336 C 174.994 105.976, 169.460 115.050, 162.698 125.500 L 150.405 144.500 122.702 144.110 C 97.431 143.754, 95 143.865, 95 145.375 C 95 146.884, 97.548 147.007, 123.676 146.765 L 152.352 146.500 165.531 126.140 L 178.710 105.780 166.278 76.800 C 159.441 60.861, 154.071 47.596, 154.345 47.321 C 154.848 46.818, 157.690 46.143, 168.283 44.009 L 174.065 42.845 153.934 28.354 C 142.862 20.385, 133.633 14.034, 133.425 14.242 C 133.217 14.450, 134.425 25.542, 136.109 38.891 C 137.793 52.240, 139.020 63.294, 138.836 63.456 C 138.651 63.618, 131.380 64.072, 122.678 64.465 L 106.856 65.180 108.424 62.147 C 109.287 60.478, 109.657 58.921, 109.246 58.687 C 108.836 58.452, 105.006 57.494, 100.735 56.558 C 95.380 55.385, 93.183 54.491, 93.655 53.678 C 94.032 53.030, 95.616 50.616, 97.175 48.312 C 98.735 46.009, 99.671 43.926, 99.255 43.684 C 98.840 43.441, 94.563 42.666, 89.750 41.961 C 84.938 41.255, 81.014 40.413, 81.030 40.089 C 81.047 39.765, 88.418 34.108, 97.410 27.518 C 107.266 20.296, 113.566 15.033, 113.273 14.268 C 113.005 13.571, 112.272 13.063, 111.643 13.141 C 111.014 13.218, 93.400 16.200, 72.500 19.766 M 70.359 22.921 C 52.132 26.030, 36.585 29.099, 35.811 29.742 C 35.037 30.384, 33.008 32.854, 31.302 35.229 L 28.199 39.549 57.350 46.356 C 73.382 50.100, 87.416 53.376, 88.535 53.636 C 90.096 53.999, 91.092 53.182, 92.808 50.128 C 94.039 47.938, 94.698 45.948, 94.273 45.706 C 93.848 45.464, 89.675 44.698, 85 44.003 C 80.325 43.308, 75.937 42.443, 75.248 42.079 C 74.477 41.672, 80.374 36.735, 90.622 29.209 C 99.766 22.494, 106.404 17.060, 105.374 17.134 C 104.343 17.207, 88.587 19.812, 70.359 22.921 M 90.004 59.385 C 89.283 60.548, 88.032 62.519, 87.222 63.765 L 85.750 66.031 94.625 65.397 C 100.929 64.946, 103.863 64.306, 104.754 63.185 C 106.461 61.037, 105.560 60.453, 97.906 58.743 C 91.481 57.307, 91.280 57.323, 90.004 59.385 M 110.009 67.900 C 106.976 68.305, 105.418 69.028, 105.209 70.126 C 104.885 71.835, 104.029 71.929, 127 67.729 C 130.726 67.048, 115.221 67.204, 110.009 67.900 M 84.439 68.765 C 83.856 69.169, 80.824 73.444, 77.702 78.265 L 72.025 87.030 84.763 86.482 C 91.768 86.181, 99.404 85.733, 101.732 85.489 L 105.963 85.043 108.161 90.153 L 110.359 95.263 117.831 94.632 C 121.940 94.284, 128.721 93.993, 132.901 93.985 C 137.080 93.976, 141.032 93.631, 141.683 93.217 C 142.588 92.641, 142.514 89.768, 141.370 81.002 C 140.547 74.698, 139.672 69.339, 139.427 69.094 C 139.182 68.848, 130.389 70.106, 119.889 71.889 C 109.388 73.672, 100.585 74.918, 100.325 74.658 C 100.065 74.398, 100.572 72.794, 101.452 71.093 L 103.051 68 94.276 68.015 C 89.449 68.024, 85.023 68.361, 84.439 68.765 M 51.656 69.739 C 47.251 70.083, 46.861 70.316, 47.348 72.309 C 47.642 73.514, 48.416 77.597, 49.067 81.383 L 50.252 88.266 56.876 87.640 C 60.519 87.296, 64.670 87.011, 66.100 87.007 C 68.249 87.001, 69.679 85.528, 74.350 78.510 C 77.457 73.840, 80 69.790, 80 69.510 C 80 68.958, 59.541 69.123, 51.656 69.739 M 52.664 90.706 C 51.373 91.039, 50.976 91.821, 51.327 93.340 C 51.602 94.528, 52.863 101.274, 54.129 108.331 L 56.433 121.163 65.672 127.974 L 74.912 134.785 88.956 131.268 C 96.680 129.334, 102.982 127.470, 102.960 127.126 C 102.937 126.782, 93.722 120.029, 82.481 112.120 C 70.193 103.475, 62.299 97.294, 62.685 96.620 C 63.039 96.004, 64.185 94.263, 65.232 92.750 L 67.136 90 60.818 90.116 C 57.343 90.180, 53.674 90.445, 52.664 90.706 M 23.915 91.740 L 16.330 92.078 25.293 124.921 L 34.256 157.763 38.378 158.339 C 40.645 158.655, 58.472 164.784, 77.992 171.957 C 97.513 179.131, 114.126 185, 114.910 185 C 116.470 185, 180.091 163.243, 180.902 162.432 C 181.177 162.157, 177.149 162.164, 171.951 162.449 C 166.753 162.733, 150.575 163.208, 136 163.504 L 109.500 164.042 92.049 151.021 C 82.450 143.859, 74.125 138.005, 73.549 138.012 C 72.972 138.018, 70.025 138.688, 67 139.500 C 63.975 140.312, 61.388 140.982, 61.250 140.988 C 61.112 140.995, 61 140.390, 61 139.645 C 61 138.855, 63.190 137.704, 66.250 136.886 L 71.500 135.482 62.805 129.164 C 53.077 122.096, 54.389 124.781, 50.513 104 C 49.641 99.325, 48.710 94.487, 48.445 93.250 C 47.923 90.818, 46.533 90.733, 23.915 91.740" stroke="none" fill="black" fill-rule="evenodd"/>
</svg>