<svg xmlns="http://www.w3.org/2000/svg" width="200" height="200" viewBox="0 0 200 200" version="1.1">
	<path d="M 60.875 25.662 L 48.079 38.323 35.554 32.662 C 28.665 29.548, 22.534 27, 21.931 27 C 18.486 27, 24.801 31.440, 53.217 49 C 70.572 59.725, 84.667 68.619, 84.539 68.764 C 84.411 68.909, 78.289 68.144, 70.935 67.065 C 63.582 65.985, 57.390 65.277, 57.176 65.491 C 56.961 65.705, 56.544 69.756, 56.249 74.492 C 55.895 80.169, 55.335 82.965, 54.606 82.697 C 49.674 80.887, 42.819 78.861, 42.593 79.148 C 42.441 79.342, 40.005 84, 37.179 89.500 L 32.042 99.500 27.506 134.500 C 25.011 153.750, 22.729 170.571, 22.433 171.880 C 21.750 174.909, 21.821 174.888, 39.077 167 L 52.654 160.794 89.198 175.956 L 125.743 191.119 156.356 175.309 C 173.194 166.614, 186.977 158.938, 186.985 158.250 C 187.005 156.618, 185.100 156.662, 140.829 159.321 L 104.157 161.523 98.829 156.835 C 95.031 153.495, 93.931 152.005, 95 151.650 C 95.825 151.377, 109.438 150.597, 125.250 149.918 C 148.011 148.940, 154 148.403, 154 147.341 C 154 145.686, 152.056 145.690, 120 147.416 C 106.525 148.141, 95.370 148.626, 95.210 148.494 C 94.284 147.726, 76.814 94.853, 77.319 94.347 C 77.657 94.010, 89.036 97.546, 102.608 102.206 L 127.282 110.678 113.163 114.561 C 105.398 116.697, 99.372 118.765, 99.772 119.157 C 100.556 119.925, 131.318 131.016, 131.674 130.659 C 131.934 130.399, 134.072 114.070, 134.575 108.500 C 135.888 93.947, 137.246 82.284, 137.776 81 C 138.116 80.175, 138.441 77.925, 138.497 76 C 138.553 74.075, 138.689 70.633, 138.799 68.351 L 139 64.202 152.250 68.554 L 165.500 72.906 165.241 93.203 C 165.099 104.366, 164.715 121.938, 164.389 132.250 C 163.878 148.445, 163.999 151, 165.284 151 C 166.552 151, 166.862 146.756, 167.385 122.250 C 167.722 106.438, 168.239 88.475, 168.535 82.333 L 169.072 71.165 154.536 66.358 C 140.053 61.569, 140 61.541, 140 58.504 L 140 55.456 160.053 48.581 C 171.082 44.800, 179.745 41.384, 179.303 40.990 C 177.834 39.679, 141.957 23.709, 141.503 24.164 C 141.257 24.409, 140.335 30.886, 139.453 38.555 C 138.571 46.225, 137.545 52.791, 137.174 53.146 C 136.803 53.502, 133.364 54.907, 129.532 56.268 L 122.564 58.744 129.810 61.078 C 134.975 62.741, 136.904 63.807, 136.528 64.788 C 136.238 65.544, 135.993 67.814, 135.985 69.832 C 135.957 76.540, 136.502 76.463, 113.063 73.079 C 101.386 71.393, 91.404 69.750, 90.881 69.427 C 90.359 69.104, 92.196 64.536, 94.965 59.276 C 97.734 54.016, 100 49.513, 100 49.268 C 100 49.024, 98.088 49.109, 95.750 49.458 C 92.189 49.988, 91.751 49.881, 93.051 48.796 C 93.903 48.083, 104.141 40.160, 115.801 31.188 C 127.460 22.217, 137 14.454, 137 13.938 C 137 11.905, 134.297 13.368, 120.723 22.750 C 112.964 28.113, 106.304 32.405, 105.923 32.289 C 105.543 32.172, 98.663 27.785, 90.636 22.539 C 82.609 17.292, 75.508 13, 74.857 13 C 74.205 13, 67.913 18.698, 60.875 25.662 M 61.997 28.538 C 51.836 38.753, 49.065 41.021, 47.174 40.675 C 45.895 40.440, 45.220 40.577, 45.674 40.979 C 46.391 41.614, 83.435 64.553, 86.718 66.395 C 87.520 66.845, 89.140 64.687, 91.468 60.064 C 93.410 56.206, 95 52.889, 95 52.693 C 95 52.496, 92.525 52.541, 89.500 52.792 C 86.475 53.042, 84 53.001, 84 52.700 C 84 52.399, 88.725 48.505, 94.500 44.047 C 100.275 39.588, 105 35.776, 105 35.575 C 105 35.113, 77.467 17.116, 75.757 16.460 C 75.062 16.194, 68.871 21.629, 61.997 28.538 M 142.076 39.586 C 141.395 45.958, 141.032 51.366, 141.270 51.603 C 141.818 52.151, 172 41.733, 172 40.996 C 172 40.458, 145.061 27.993, 143.907 27.998 C 143.581 27.999, 142.757 33.214, 142.076 39.586 M 133.166 57.876 C 132.102 58.551, 132.169 58.851, 133.498 59.361 C 136.085 60.354, 137 60.129, 137 58.500 C 137 56.849, 135.239 56.562, 133.166 57.876 M 59 74.399 C 59 77.940, 58.752 81.482, 58.450 82.271 C 58.047 83.320, 59.941 84.430, 65.502 86.404 C 69.683 87.888, 73.697 89.330, 74.422 89.608 C 75.284 89.939, 77.340 87.013, 80.375 81.138 L 85.011 72.161 82.255 71.622 C 80.740 71.326, 75.900 70.600, 71.500 70.010 C 67.100 69.419, 62.487 68.717, 61.250 68.449 C 59.099 67.983, 59 68.246, 59 74.399 M 83.372 81.255 C 80.887 86.204, 79.224 90.586, 79.676 90.994 C 80.624 91.846, 131.174 109.188, 131.503 108.774 C 131.910 108.260, 134.913 79.579, 134.593 79.259 C 134.417 79.084, 124.875 77.606, 113.387 75.975 C 101.899 74.344, 91.463 72.840, 90.196 72.633 C 88.181 72.304, 87.324 73.387, 83.372 81.255 M 39.455 91.090 L 34.945 100.070 30.482 133.285 C 28.027 151.553, 26.015 167.266, 26.010 168.202 C 26.002 169.603, 27.806 169.065, 36.250 165.147 C 41.888 162.531, 47.914 159.819, 49.641 159.119 C 52.637 157.906, 54.467 158.546, 89.194 172.954 L 125.605 188.061 152.231 174.293 C 166.875 166.720, 178.724 160.391, 178.561 160.228 C 178.398 160.065, 161.381 160.933, 140.745 162.158 L 103.225 164.384 78.363 142.519 L 53.500 120.654 53.997 110.577 C 54.271 105.035, 54.496 97.170, 54.497 93.099 L 54.500 85.699 49.232 83.904 L 43.965 82.110 39.455 91.090 M 57.617 96.194 C 57.259 101.312, 56.735 108.650, 56.452 112.500 L 55.937 119.500 73.117 134.500 C 82.566 142.750, 90.887 149.850, 91.609 150.278 C 92.330 150.705, 88.664 138.424, 83.460 122.987 C 78.257 107.550, 74 94.299, 74 93.541 C 74 92.727, 71.240 91.252, 67.250 89.935 C 63.538 88.710, 59.998 87.523, 59.383 87.298 C 58.639 87.025, 58.050 89.993, 57.617 96.194 M 118 116.049 C 112.775 117.599, 108.275 118.923, 108 118.991 C 107.725 119.060, 112.373 120.929, 118.330 123.145 C 124.286 125.361, 129.293 127.022, 129.457 126.837 C 129.620 126.652, 130.070 123.463, 130.456 119.750 C 131.292 111.727, 131.932 111.917, 118 116.049" stroke="none" fill="black" fill-rule="evenodd"/>
</svg>