<svg xmlns="http://www.w3.org/2000/svg" width="200" height="200" viewBox="0 0 200 200" version="1.1">
	<path d="M 80 16.180 C 42.156 17.553, 25.696 17.803, 21.037 17.078 C 16.257 16.333, 14.387 16.374, 13.856 17.234 C 13.460 17.873, 10.181 18.585, 6.568 18.815 C 2.137 19.097, 0 19.647, 0 20.506 C 0 21.478, 2.010 21.653, 8.515 21.247 L 17.031 20.716 38.988 33.358 C 51.065 40.311, 61.445 46, 62.056 46 C 65.346 46, 60.482 42.542, 43.225 32.613 C 32.692 26.552, 24.266 21.401, 24.501 21.166 C 24.736 20.930, 42.502 23.834, 63.980 27.619 C 97.704 33.561, 102.790 34.683, 101.266 35.843 C 99.993 36.810, 97.404 37.042, 92 36.670 L 84.500 36.155 87.734 38.886 L 90.967 41.618 78.031 48.982 L 65.095 56.346 64.798 60.479 L 64.500 64.612 42 59.327 C 29.625 56.420, 18.966 54.145, 18.314 54.271 C 17.661 54.397, 20.691 59.900, 25.046 66.500 C 30.865 75.318, 33.433 78.414, 34.732 78.174 C 35.705 77.995, 42.713 76.033, 50.307 73.814 C 57.900 71.595, 64.216 69.942, 64.342 70.140 C 64.783 70.832, 62.462 140.872, 61.983 141.328 C 61.717 141.581, 54.338 130.570, 45.585 116.859 C 36.832 103.148, 29.362 92.283, 28.984 92.715 C 28.069 93.763, 18.375 171.708, 19.073 172.406 C 19.373 172.707, 31.742 174.108, 46.559 175.520 C 70.485 177.800, 143.869 180.916, 175.250 180.983 C 190.073 181.015, 185.030 178.981, 146.750 169.489 L 110.500 160.500 92.732 133.256 L 74.964 106.012 89.085 92.256 C 96.851 84.690, 103.533 78.375, 103.933 78.223 C 104.501 78.007, 117.092 87.267, 121.310 91.003 C 121.756 91.398, 118.951 94.071, 115.077 96.943 C 109.528 101.056, 107.823 102.944, 107.044 105.833 C 106.501 107.850, 105.373 111.750, 104.539 114.500 C 102.989 119.607, 102.748 129.262, 103.874 141.044 L 104.500 147.588 138.500 142.197 C 157.200 139.233, 172.620 136.693, 172.766 136.554 C 172.913 136.415, 171.386 131.607, 169.374 125.870 L 165.715 115.439 146.662 103.970 C 136.184 97.661, 127.690 92.050, 127.788 91.500 C 127.886 90.950, 129.886 89.107, 132.233 87.405 L 136.500 84.310 146.870 86.757 L 157.241 89.204 158.772 93.102 C 159.614 95.246, 160.573 96.993, 160.902 96.985 C 161.649 96.967, 178.078 50.745, 177.532 50.199 C 177.313 49.980, 171.454 54.170, 164.511 59.511 C 157.568 64.852, 151.715 69.048, 151.502 68.836 C 150.918 68.252, 141 44.924, 141 44.135 C 141 43.756, 144.488 43.764, 148.750 44.152 C 160.814 45.250, 164 45.159, 164 43.715 C 164 42.817, 156.389 41.112, 138.750 38.060 C 124.862 35.657, 113.124 33.485, 112.665 33.234 C 112.206 32.983, 115.270 30.817, 119.474 28.421 C 125.937 24.737, 129.763 23.468, 144.253 20.200 C 153.677 18.074, 161.564 15.809, 161.778 15.167 C 162.302 13.594, 145.621 13.800, 80 16.180 M 89.500 18.594 C 69.700 19.315, 50.350 20.038, 46.500 20.202 C 40.145 20.473, 42.543 21.032, 72.500 26.274 C 90.650 29.449, 106.020 32.037, 106.656 32.024 C 107.292 32.011, 111.792 29.656, 116.656 26.792 C 123.376 22.835, 127.781 21.054, 135 19.376 L 144.500 17.168 135 17.226 C 129.775 17.258, 109.300 17.873, 89.500 18.594 M 105.298 36.524 C 103.974 37.492, 105.609 37.856, 113.913 38.445 C 119.550 38.845, 124.358 38.975, 124.598 38.736 C 124.838 38.496, 120.961 37.631, 115.983 36.815 C 108.918 35.656, 106.573 35.592, 105.298 36.524 M 127.269 39.693 C 128.242 39.947, 129.592 39.930, 130.269 39.656 C 130.946 39.382, 130.150 39.175, 128.500 39.195 C 126.850 39.215, 126.296 39.439, 127.269 39.693 M 97.459 41.067 C 97.096 41.653, 96.957 42.260, 97.150 42.414 C 99.902 44.626, 119.425 58, 119.900 58 C 120.258 58, 123.903 54.625, 128 50.500 C 132.097 46.375, 135.011 42.994, 134.475 42.988 C 133.939 42.981, 126.075 42.311, 117 41.500 C 97.159 39.726, 98.272 39.751, 97.459 41.067 M 81 50.411 L 68.500 57.586 68.194 61.762 L 67.888 65.938 72.694 64.486 C 75.337 63.688, 84.025 61.163, 92 58.876 C 99.975 56.588, 106.857 54.401, 107.294 54.014 C 107.731 53.627, 104.806 51.044, 100.794 48.273 L 93.500 43.235 81 50.411 M 130 52.500 C 125.430 57.101, 122.945 60.315, 123.537 60.860 C 125.841 62.977, 143.056 74.997, 143.742 74.967 C 144.159 74.948, 145.564 74.047, 146.865 72.964 L 149.229 70.994 144.007 58.747 C 141.135 52.011, 138.479 46.168, 138.105 45.763 C 137.731 45.357, 134.084 48.389, 130 52.500 M 108.645 57.337 C 108.346 59.077, 107.791 62.713, 107.412 65.417 L 106.723 70.334 109.611 68.258 C 111.200 67.117, 113.738 64.879, 115.252 63.285 L 118.003 60.387 113.596 57.281 L 109.190 54.175 108.645 57.337 M 162.923 64.050 C 157.740 67.927, 153.376 71.449, 153.225 71.876 C 153.073 72.303, 154.707 76.599, 156.855 81.423 L 160.760 90.195 162.376 85.847 C 166.064 75.928, 172.739 57, 172.550 57 C 172.438 57, 168.106 60.172, 162.923 64.050 M 23.618 59.250 C 27.396 65.667, 34.305 75, 35.278 75 C 35.948 75, 42.280 73.328, 49.350 71.285 C 58.616 68.607, 61.687 67.353, 60.352 66.794 C 58.785 66.136, 24.494 58, 23.291 58 C 23.066 58, 23.213 58.563, 23.618 59.250 M 89.750 62.246 C 82.188 64.468, 76 66.560, 76 66.893 C 76.001 67.471, 101.090 73.364, 102.721 73.169 C 103.149 73.118, 103.810 70.922, 104.189 68.288 C 104.568 65.655, 105.119 62.263, 105.414 60.750 C 105.769 58.929, 105.536 58.035, 104.725 58.103 C 104.051 58.159, 97.313 60.024, 89.750 62.246 M 113.443 68.201 L 106.708 74.500 120.104 77.728 C 127.472 79.503, 134.175 80.951, 135 80.945 C 136.509 80.933, 141.622 77.208, 140.892 76.652 C 140.676 76.488, 136.450 73.498, 131.500 70.006 C 126.550 66.515, 121.977 63.263, 121.339 62.780 C 120.570 62.199, 117.902 64.031, 113.443 68.201 M 66.498 96.250 C 66.087 111.238, 65.469 129.774, 65.125 137.442 L 64.500 151.384 52.039 131.942 C 45.185 121.249, 37.553 109.351, 35.080 105.502 L 30.582 98.503 26.346 131.502 C 24.016 149.651, 22.086 165.867, 22.055 167.538 L 22 170.576 53.750 173.272 C 71.213 174.754, 96.075 176.204, 109 176.494 C 121.925 176.783, 140.375 177.233, 150 177.493 L 167.500 177.966 138.504 170.543 C 113.284 164.087, 109.247 162.789, 107.504 160.575 C 106.402 159.176, 97.889 146.290, 88.587 131.940 L 71.675 105.850 86.512 90.988 C 100.093 77.384, 101.144 76.078, 98.925 75.562 C 97.591 75.252, 90.734 73.649, 83.686 71.999 C 76.639 70.350, 70.056 69, 69.059 69 C 67.370 69, 67.194 70.876, 66.498 96.250 M 147.943 75.569 C 146.836 76.903, 147.079 77.497, 149.570 79.533 C 153.622 82.846, 154.273 82.590, 152.513 78.378 C 151.681 76.386, 151 74.586, 151 74.378 C 151 73.421, 149.116 74.155, 147.943 75.569 M 110.607 79.005 C 111.098 79.495, 114.397 82.137, 117.939 84.877 L 124.377 89.859 128.167 87.179 C 130.252 85.706, 131.967 84.234, 131.979 83.909 C 131.990 83.584, 129.637 82.777, 126.750 82.115 C 123.862 81.453, 118.848 80.282, 115.607 79.513 C 112.366 78.743, 110.116 78.515, 110.607 79.005 M 141.441 80.429 C 139.275 82.022, 139.328 82.059, 146.500 83.940 C 152.486 85.510, 152.722 85.276, 148.428 82.028 C 143.836 78.554, 143.953 78.580, 141.441 80.429 M 116.847 99.028 C 110.438 103.950, 110.252 104.224, 108.149 111.899 C 105.610 121.162, 104.972 143.981, 107.250 144.023 C 111.723 144.105, 168.988 134.360, 168.937 133.525 C 168.903 132.961, 167.665 129.125, 166.187 125 L 163.500 117.500 144.097 105.750 C 133.426 99.287, 124.402 94, 124.045 94 C 123.688 94, 120.448 96.263, 116.847 99.028" stroke="none" fill="black" fill-rule="evenodd"/>
</svg>