<svg xmlns="http://www.w3.org/2000/svg" width="200" height="200" viewBox="0 0 200 200" version="1.1">
	<path d="M 59 22.866 L 59 26.756 39.500 27.487 C 28.775 27.889, 20 28.518, 20 28.884 C 20 31.844, 34.957 69.771, 38.078 74.725 C 40.235 78.150, 42 81.427, 42 82.010 C 42 82.592, 39.009 88.278, 35.353 94.645 L 28.706 106.221 26.586 127.055 L 24.466 147.889 35.390 160.194 C 41.398 166.963, 48.223 174.636, 50.557 177.248 L 54.801 181.995 77.644 176.454 C 90.208 173.407, 100.828 170.572, 101.244 170.156 C 101.661 169.739, 101.703 153.776, 101.338 134.683 L 100.675 99.967 92.588 93.845 C 88.139 90.479, 85.175 87.961, 86 88.250 C 89.882 89.613, 116.603 101.380, 117.372 102.066 C 117.865 102.506, 117.535 118.799, 116.608 139.672 C 114.616 184.565, 114.580 189.307, 116.245 188.752 C 116.930 188.523, 123.482 176.975, 130.806 163.088 L 144.123 137.839 142.154 98.169 C 141.071 76.351, 140.256 58.473, 140.343 58.439 C 140.429 58.406, 142.863 58.562, 145.750 58.786 L 151 59.193 150.982 65.847 C 150.972 69.506, 150.312 87.125, 149.515 105 C 148.154 135.521, 148.171 137.597, 149.783 139.092 C 154.935 143.869, 177.143 162.181, 177.405 161.868 C 177.574 161.666, 174.441 146.200, 170.442 127.500 L 163.171 93.500 173.691 65.124 C 181.364 44.427, 183.881 36.545, 182.994 35.996 C 182.325 35.583, 171.345 32.036, 158.594 28.113 L 135.410 20.982 124.955 23.338 C 118.596 24.772, 114.255 25.320, 113.874 24.739 C 113.476 24.131, 105.855 24.164, 92.977 24.830 L 72.707 25.878 65.854 22.426 L 59 18.975 59 22.866 M 62 25 C 62 25.550, 63.013 25.993, 64.250 25.985 C 66.069 25.972, 66.213 25.784, 65 25 C 63.061 23.747, 62 23.747, 62 25 M 124 26.329 C 118.775 27.523, 114.510 28.950, 114.523 29.500 C 114.707 37.548, 116.225 65.674, 116.668 69.250 C 117.141 73.057, 116.962 74, 115.766 74 C 114.116 74, 113.555 68.927, 112.361 43.201 C 111.909 33.471, 111.346 29.033, 110.599 29.312 C 109.994 29.538, 103.771 30.977, 96.768 32.510 L 84.037 35.298 78.128 32.149 C 73.892 29.891, 70.879 29, 67.481 29 L 62.742 29 63.432 36.750 C 63.811 41.013, 64.432 45.893, 64.811 47.595 L 65.500 50.691 85.473 47.401 C 96.458 45.592, 105.637 44.304, 105.871 44.538 C 106.604 45.270, 95.310 73.397, 94.125 73.792 C 92.219 74.427, 92.833 71.909, 97.479 60.054 C 99.942 53.768, 101.748 48.415, 101.492 48.159 C 101.107 47.774, 80.377 50.780, 70.905 52.594 L 68.311 53.091 70.905 66.001 C 72.332 73.101, 73.950 79.308, 74.500 79.793 C 75.050 80.279, 85.737 85.103, 98.250 90.513 C 120.886 100.301, 121 100.365, 120.973 103.425 C 120.959 105.116, 120.296 120.225, 119.500 137 C 118.704 153.775, 118.044 170.650, 118.032 174.500 L 118.011 181.500 129.626 159.500 L 141.240 137.500 139.249 96.500 C 138.153 73.950, 137.354 55.382, 137.473 55.238 C 137.775 54.874, 153.411 57.084, 153.889 57.559 C 154.103 57.771, 153.527 75.583, 152.608 97.142 C 151.690 118.700, 151.290 136.687, 151.719 137.111 C 156.035 141.382, 172.571 154.622, 172.804 153.994 C 172.971 153.543, 170.332 140.198, 166.938 124.337 C 163.545 108.477, 160.772 94.600, 160.775 93.500 C 160.779 92.400, 165.081 80.025, 170.334 66 C 175.588 51.975, 180.025 39.909, 180.193 39.188 C 180.405 38.282, 173.679 35.735, 158.500 30.973 C 146.400 27.177, 135.825 24.091, 135 24.115 C 134.175 24.139, 129.225 25.136, 124 26.329 M 87 27.941 L 77.500 28.500 80.700 30.250 C 84.725 32.451, 85.444 32.420, 97 29.550 C 105.731 27.382, 106.095 27.199, 101.500 27.287 C 98.750 27.340, 92.225 27.634, 87 27.941 M 40.063 30.167 C 31.573 30.647, 24.430 31.236, 24.190 31.477 C 23.076 32.591, 37.440 68.830, 41.457 75.040 L 45.795 81.745 38.557 94.623 L 31.319 107.500 29.618 125 C 28.682 134.625, 27.718 143.448, 27.475 144.606 C 27.141 146.204, 30.440 150.548, 41.147 162.606 C 48.909 171.348, 55.340 178.600, 55.437 178.723 C 55.534 178.846, 65.263 176.583, 77.056 173.694 L 98.500 168.442 98.763 135.289 L 99.027 102.136 87.414 93.500 C 81.028 88.751, 75.583 85.083, 75.316 85.350 C 75.049 85.617, 75.769 90.436, 76.915 96.057 C 79.658 109.506, 79.639 109.728, 75.557 111.674 C 72.679 113.047, 72.188 113.742, 72.569 115.908 C 73.194 119.459, 78 160.728, 78 162.541 C 78 163.344, 77.435 164, 76.745 164 C 75.721 164, 60.165 126.172, 58.377 119.335 C 57.996 117.876, 59.099 116.878, 63.445 114.746 C 66.875 113.064, 69 111.384, 69 110.354 C 69 109.437, 66.975 91.429, 64.500 70.336 C 62.025 49.243, 60 31.314, 60 30.493 C 60 29.568, 59.144 29.056, 57.750 29.147 C 56.513 29.228, 48.554 29.687, 40.063 30.167 M 66.117 59.500 C 65.932 61.722, 71.942 109.275, 72.474 109.807 C 72.789 110.123, 73.747 109.681, 74.602 108.826 C 76.009 107.420, 75.682 104.944, 71.178 82.886 C 68.440 69.474, 66.162 58.950, 66.117 59.500 M 64.765 117.061 L 61.029 119.033 63.420 125.266 C 64.734 128.695, 67.492 135.898, 69.549 141.273 C 71.605 146.648, 73.429 150.905, 73.600 150.733 C 74.153 150.180, 69.712 114.998, 69.095 115.044 C 68.768 115.069, 66.819 115.976, 64.765 117.061" stroke="none" fill="black" fill-rule="evenodd"/>
</svg>