<svg xmlns="http://www.w3.org/2000/svg" width="200" height="200" viewBox="0 0 200 200" version="1.1">
	<path d="M 11.036 12.365 C 11.841 13.116, 18.800 18.813, 26.500 25.026 C 46.162 40.892, 46.179 40.816, 25.669 28.774 C 19.162 24.954, 13.723 21.979, 13.581 22.164 C 13.439 22.349, 20.228 34.611, 28.666 49.413 C 37.104 64.214, 43.894 76.426, 43.754 76.549 C 43.614 76.672, 37.313 79.614, 29.750 83.086 C 22.188 86.558, 16 89.764, 16 90.210 C 16 90.657, 19.825 103.348, 24.500 118.413 L 33 145.804 33 157.402 C 33 163.781, 33.240 169, 33.534 169 C 33.828 169, 45.416 171.059, 59.284 173.575 C 80.757 177.471, 90.582 178.649, 125.476 181.516 C 148.012 183.367, 166.603 184.730, 166.789 184.544 C 166.975 184.359, 164.971 178.085, 162.335 170.603 L 157.544 157 140.772 157 C 131.547 157, 124 156.766, 124 156.480 C 124 155.783, 146.072 102.609, 146.573 102.100 C 146.789 101.881, 153.724 108.113, 161.983 115.951 C 170.242 123.788, 176.976 129.593, 176.946 128.850 C 176.916 128.108, 174.518 114.450, 171.617 98.500 L 166.343 69.500 155.822 69.820 L 145.300 70.140 144.256 62.820 C 143.271 55.914, 143.330 55.415, 145.302 54 C 146.452 53.175, 150.454 50.351, 154.196 47.724 L 161 42.948 161 32.367 C 161 24.291, 160.704 21.909, 159.750 22.307 C 159.063 22.594, 142.117 30.522, 122.094 39.925 C 102.071 49.328, 85.441 56.775, 85.139 56.472 C 84.521 55.855, 82.116 35.704, 82.592 35.135 C 82.759 34.934, 88.207 36.361, 94.698 38.305 C 101.189 40.250, 107.234 41.989, 108.131 42.170 C 109.791 42.506, 143.463 17.129, 142.558 16.225 C 142.201 15.867, 27.516 11.325, 11.536 11.036 C 9.828 11.005, 9.763 11.178, 11.036 12.365 M 20.060 16.202 C 21.469 17.466, 30.806 25.149, 40.810 33.275 C 57.736 47.023, 60.771 50, 57.862 50 C 57.237 50, 48.887 45.450, 39.308 39.888 C 29.728 34.327, 21.716 29.951, 21.503 30.164 C 21.182 30.485, 45.283 73.617, 46.417 74.751 C 47.143 75.476, 82 58.676, 81.991 57.604 C 81.987 56.997, 81.323 50.902, 80.516 44.059 C 79.709 37.216, 79.217 31.449, 79.423 31.243 C 79.629 31.037, 86.374 32.858, 94.412 35.290 L 109.026 39.710 122.673 29.105 C 135.083 19.462, 136.057 18.480, 133.410 18.277 C 131.810 18.155, 110.475 17.371, 86 16.537 C 61.525 15.702, 36.100 14.768, 29.500 14.462 L 17.500 13.904 20.060 16.202 M 121.545 43.205 C 101.769 52.485, 85.503 60.173, 85.399 60.289 C 85.294 60.405, 86.165 64.720, 87.334 69.878 L 89.460 79.255 84.236 89.300 C 81.363 94.825, 79.122 99.445, 79.256 99.568 C 79.390 99.690, 88.500 98.263, 99.500 96.397 C 110.500 94.531, 120.164 93.120, 120.976 93.261 C 121.788 93.403, 111.574 102.514, 98.278 113.509 C 84.981 124.504, 74.422 133.614, 74.812 133.753 C 75.201 133.893, 83.984 131.581, 94.327 128.615 C 112.971 123.270, 113.141 123.242, 113.943 125.362 C 114.387 126.538, 116.203 132.675, 117.977 139 C 119.751 145.325, 121.534 150.855, 121.940 151.289 C 122.346 151.723, 127.749 139.798, 133.945 124.789 C 140.142 109.780, 145.379 97.322, 145.584 97.105 C 145.789 96.888, 151.860 102.431, 159.077 109.423 C 166.293 116.415, 172.357 121.977, 172.551 121.782 C 172.745 121.588, 170.905 110.420, 168.462 96.965 C 166.020 83.509, 164.016 72.269, 164.010 71.986 C 164.005 71.704, 159.490 71.882, 153.978 72.381 C 148.466 72.881, 143.726 73.059, 143.444 72.777 C 143.162 72.495, 142.500 69.393, 141.972 65.882 C 141.444 62.372, 140.807 58.318, 140.556 56.873 C 140.147 54.520, 141.082 53.555, 149.554 47.591 L 159.008 40.936 158.365 33.718 C 158.012 29.748, 157.672 26.462, 157.611 26.417 C 157.550 26.371, 141.320 33.926, 121.545 43.205 M 65 69.556 C 56.475 73.615, 49.075 77.092, 48.555 77.283 C 48.035 77.474, 49.797 81.201, 52.470 85.565 L 57.330 93.500 62.489 125 L 67.648 156.500 93.824 156.767 C 108.221 156.913, 120 156.778, 120 156.467 C 120 154.187, 111.509 127, 110.797 127 C 110.300 127, 100.403 129.725, 88.803 133.057 C 73.991 137.310, 67.399 138.799, 66.657 138.057 C 65.993 137.393, 65.954 136.682, 66.550 136.146 C 67.072 135.676, 77.760 126.849, 90.300 116.529 C 102.840 106.210, 112.942 97.609, 112.749 97.415 C 112.556 97.222, 104.546 98.395, 94.949 100.021 C 85.352 101.647, 76.700 102.982, 75.723 102.988 C 74.272 102.998, 75.118 100.747, 80.320 90.750 L 86.695 78.500 84.735 70.250 C 83.657 65.713, 82.263 62.039, 81.638 62.088 C 81.012 62.136, 73.525 65.496, 65 69.556 M 32.199 84.966 C 25.434 88.157, 19.714 90.953, 19.487 91.179 C 19.261 91.406, 22.884 103.874, 27.538 118.888 C 35.817 145.595, 36 146.405, 36 156.386 L 36 166.588 62.750 171.271 C 77.463 173.847, 95.800 176.433, 103.500 177.018 C 139.027 179.715, 154.828 181.010, 158.750 181.544 C 161.088 181.862, 163 181.863, 163 181.545 C 163 181.228, 161.364 176.232, 159.365 170.444 L 155.730 159.921 138.615 160.003 C 129.202 160.048, 108.882 160.066, 93.461 160.042 L 65.421 160 60.215 127.892 L 55.009 95.784 50.254 87.399 C 47.639 82.787, 45.275 79.047, 45 79.089 C 44.725 79.130, 38.965 81.775, 32.199 84.966" stroke="none" fill="black" fill-rule="evenodd"/>
</svg>