<svg xmlns="http://www.w3.org/2000/svg" width="200" height="200" viewBox="0 0 200 200" version="1.1">
	<path d="M 120.095 22.001 C 118.222 30.250, 116.510 37, 116.290 37 C 116.070 37, 107.974 32.163, 98.299 26.250 C 88.624 20.337, 80.450 15.500, 80.134 15.500 C 79.819 15.500, 77.724 21.449, 75.477 28.720 C 73.231 35.991, 71.125 42.209, 70.796 42.537 C 70.062 43.272, 35.244 40.163, 32.594 39.127 C 31.131 38.555, 32.524 37.724, 38.594 35.550 C 42.942 33.992, 46.858 32.400, 47.296 32.013 C 47.734 31.625, 39.730 27.790, 29.509 23.491 C 16.656 18.084, 10.606 15.994, 9.887 16.713 C 9.168 17.432, 13.419 19.674, 23.674 23.987 C 31.828 27.416, 39.105 30.551, 39.845 30.954 C 40.709 31.424, 38.921 32.523, 34.845 34.029 C 22.619 38.544, 21.650 39.050, 22.885 40.285 C 23.530 40.930, 33.914 42.394, 46.594 43.627 C 59.003 44.834, 69.329 45.996, 69.541 46.208 C 69.753 46.420, 69.325 48.597, 68.589 51.047 C 67.759 53.810, 66.613 69.160, 65.569 91.500 C 64.644 111.300, 63.789 128.175, 63.669 129 C 63.549 129.825, 61.212 121.796, 58.475 111.157 C 55.739 100.518, 53.208 91.340, 52.851 90.762 C 52.128 89.588, 30.559 96.550, 29.162 98.408 C 28.710 99.009, 26.654 114.800, 24.593 133.500 C 22.533 152.200, 20.600 169.181, 20.298 171.235 L 19.749 174.970 35.969 167.891 L 52.189 160.813 88.746 175.911 L 125.302 191.010 156.645 175.755 C 173.884 167.365, 187.991 159.938, 187.994 159.250 C 188.002 157.593, 186.929 157.614, 143.515 160.104 L 106.529 162.225 102.767 157.862 C 100.698 155.463, 99.004 153.176, 99.003 152.780 C 99.001 152.385, 106.163 142.815, 114.917 131.514 C 129.528 112.653, 130.878 111.195, 131.365 113.734 C 131.657 115.255, 132.197 126.063, 132.564 137.750 C 132.932 149.438, 133.518 158.990, 133.866 158.979 C 134.552 158.956, 178.188 98.936, 178.754 97.237 C 178.943 96.670, 175.264 93.440, 170.579 90.057 C 165.894 86.675, 161.791 83.472, 161.462 82.938 C 160.741 81.772, 158.024 58.037, 158.010 52.785 C 158 49.114, 158.113 49.009, 167.574 43.909 C 172.840 41.070, 176.777 38.402, 176.324 37.980 C 174.638 36.409, 145.775 24.873, 144.660 25.325 C 144.022 25.583, 134.185 34.165, 122.800 44.397 C 111.415 54.629, 101.884 63, 101.619 63 C 101.354 63, 100.823 59.390, 100.438 54.978 C 100.053 50.566, 99.338 46.709, 98.849 46.407 C 98.360 46.105, 92.569 45.343, 85.980 44.714 C 79.391 44.085, 74.002 43.330, 74.004 43.035 C 74.006 42.741, 75.693 37.222, 77.754 30.772 L 81.500 19.044 99.296 30.022 C 109.083 36.060, 117.439 41, 117.864 41 C 118.499 41, 126.042 10.210, 126.010 7.750 C 126.004 7.338, 125.438 7, 124.750 7.001 C 123.957 7.002, 122.255 12.487, 120.095 22.001 M 122.373 48.416 L 99.500 68.832 98.869 65.166 C 98.522 63.150, 97.930 58.522, 97.554 54.882 L 96.869 48.264 87.185 47.571 C 81.858 47.189, 76.536 46.643, 75.357 46.357 C 71.149 45.336, 70.227 51.710, 67.964 97.500 C 66.136 134.479, 65.315 142.657, 63.603 140.933 C 63.239 140.567, 61.296 133.237, 51.911 96.827 L 50.964 93.154 41.232 96.416 C 35.242 98.424, 31.387 100.259, 31.206 101.189 C 30.486 104.882, 23.290 169.537, 23.563 169.851 C 23.731 170.044, 30.201 167.407, 37.940 163.991 L 52.011 157.780 88.613 172.870 L 125.215 187.960 152.111 174.817 C 166.904 167.588, 178.838 161.505, 178.631 161.297 C 178.423 161.090, 161.709 161.851, 141.487 162.987 C 121.265 164.124, 104.655 164.929, 104.575 164.777 C 104.496 164.625, 102.723 162.356, 100.637 159.736 L 96.843 154.972 94.955 157.236 L 93.067 159.500 93.016 154.500 C 92.967 149.687, 92.558 148.980, 82.067 135.550 C 71.250 121.703, 71.183 121.583, 72.952 119.334 C 73.933 118.087, 80.034 111.540, 86.511 104.784 L 98.288 92.500 97.608 115.500 C 97.234 128.150, 96.661 141.088, 96.335 144.250 C 96.008 147.412, 96.137 149.973, 96.621 149.940 C 97.104 149.907, 105.375 139.580, 115 126.992 C 124.625 114.404, 132.790 104.081, 133.145 104.052 C 133.499 104.024, 134.067 111.087, 134.405 119.750 C 134.744 128.412, 135.354 139.100, 135.761 143.500 L 136.500 151.500 155.821 124.802 C 166.448 110.117, 175.135 97.822, 175.127 97.478 C 175.118 97.135, 171.327 94, 166.703 90.512 C 157.255 83.385, 158.140 85.514, 156.405 65.750 C 156.030 61.487, 155.407 58, 155.020 58 C 154.633 58, 151.474 64.075, 148 71.500 C 143.745 80.594, 141.164 84.993, 140.092 84.980 C 139.216 84.969, 131.128 82.597, 122.117 79.709 L 105.735 74.459 137.617 57.099 C 155.153 47.551, 169.841 39.434, 170.257 39.062 C 170.854 38.529, 147.484 28, 145.701 28 C 145.450 28, 134.952 37.187, 122.373 48.416 M 135.275 61.471 C 125.802 66.662, 116.832 71.548, 115.342 72.329 C 112.697 73.715, 112.940 73.845, 125.720 77.874 C 132.918 80.143, 139.101 82, 139.461 82 C 139.821 82, 142.161 77.612, 144.661 72.250 C 152.215 56.047, 153.922 51.999, 153.195 52.016 C 152.813 52.026, 144.749 56.280, 135.275 61.471 M 84.750 110.607 C 79.388 116.179, 75 121.042, 75 121.413 C 75 121.784, 79.162 127.453, 84.250 134.009 L 93.500 145.931 94.258 130.215 C 94.675 121.572, 94.900 111.345, 94.758 107.488 L 94.500 100.476 84.750 110.607" stroke="none" fill="black" fill-rule="evenodd"/>
</svg>