<svg xmlns="http://www.w3.org/2000/svg" width="200" height="200" viewBox="0 0 200 200" version="1.1">
	<path d="M 99.500 14.648 C 41.987 17.859, 37.901 17.969, 28.026 16.584 C 22.266 15.775, 17.404 15.263, 17.221 15.445 C 16.901 15.766, 33.513 43.564, 35.133 45.417 C 35.596 45.947, 36.179 45.698, 36.513 44.826 C 36.842 43.970, 34.480 38.823, 31.046 32.914 C 27.721 27.192, 25 22.170, 25 21.755 C 25 19.972, 39.658 21.227, 70.718 25.670 C 88.988 28.283, 103.437 30.730, 102.828 31.107 C 102.218 31.483, 98.408 32.102, 94.360 32.481 C 88.628 33.018, 87 33.518, 87 34.742 C 87 36.145, 89.670 36.252, 111.750 35.737 C 135.640 35.180, 146 35.537, 146 36.918 C 146 37.280, 136.296 38.526, 124.435 39.686 C 112.575 40.847, 102.758 41.955, 102.621 42.148 C 102.483 42.342, 93.625 54.417, 82.935 68.982 C 66.161 91.838, 59.543 101.871, 57.808 107.075 C 57.570 107.789, 51.696 103.855, 43.612 97.569 C 36.027 91.671, 29.675 86.993, 29.496 87.173 C 29.033 87.638, 21.235 171.382, 21.591 172.061 C 21.753 172.370, 28.323 171.830, 36.193 170.860 C 44.062 169.890, 52.591 169.075, 55.146 169.048 C 57.701 169.022, 81.986 173.253, 109.112 178.451 C 136.238 183.649, 158.575 187.758, 158.751 187.583 C 158.926 187.408, 157.407 181.600, 155.375 174.677 C 152.009 163.204, 151.452 162.042, 149.091 161.559 C 147.666 161.268, 129.175 158.750, 108 155.963 C 86.825 153.176, 68.671 150.568, 67.659 150.167 C 65.748 149.412, 93.504 141.622, 109.584 138.401 L 117.668 136.782 133.474 146.951 C 142.167 152.545, 149.598 156.756, 149.988 156.310 C 150.378 155.865, 157.503 145.375, 165.821 133 L 180.945 110.500 178.375 83.631 L 175.806 56.761 180.922 44.631 C 183.736 37.959, 186.030 32.275, 186.020 32 C 186.010 31.725, 173.951 31.626, 159.223 31.781 C 144.495 31.935, 130.776 31.710, 128.737 31.281 C 125.252 30.547, 126.476 29.993, 149.014 22.092 C 174.616 13.118, 178.204 10.899, 166.750 11.121 C 163.313 11.188, 133.050 12.775, 99.500 14.648 M 107 17.054 C 79.225 18.598, 55.825 19.942, 55 20.040 C 52.535 20.333, 112.128 28.929, 116.879 28.966 C 119.829 28.989, 127.829 26.671, 141.379 21.868 C 152.446 17.945, 161.688 14.570, 161.917 14.368 C 162.146 14.166, 161.246 14.055, 159.917 14.123 C 158.588 14.191, 134.775 15.510, 107 17.054 M 165.500 34.933 L 157.500 35.500 164.424 36.348 C 168.233 36.815, 171.927 37.419, 172.635 37.690 C 173.373 37.973, 174.220 40.811, 174.621 44.342 L 175.320 50.500 178.040 44.414 C 179.537 41.067, 181.070 37.354, 181.448 36.164 C 182.216 33.744, 182.251 33.747, 165.500 34.933 M 146.967 49.684 C 141.760 56.142, 135.374 63.997, 132.775 67.139 L 128.049 72.853 113.025 66.814 C 103.053 62.806, 98 60.273, 98 59.281 C 98 58.459, 98.563 58.010, 99.250 58.283 C 99.938 58.556, 106.245 61.079, 113.266 63.890 C 120.288 66.700, 126.441 69, 126.939 69 C 127.919 69, 151.063 40.729, 150.524 40.191 C 150.346 40.012, 140.142 40.852, 127.850 42.057 C 110.738 43.734, 105.108 44.628, 103.829 45.874 C 99.010 50.562, 64.323 99.322, 61.791 104.965 C 60.190 108.533, 58.708 111.625, 58.497 111.836 C 58.286 112.047, 52.193 107.640, 44.957 102.043 C 37.722 96.445, 31.699 92.008, 31.574 92.183 C 31.449 92.357, 29.787 109.713, 27.880 130.750 C 24.829 164.411, 24.599 169.003, 25.957 169.027 C 26.806 169.041, 34.475 168.308, 43 167.396 L 58.500 165.739 82 170.334 C 130.752 179.867, 154.161 184.172, 154.641 183.692 C 154.913 183.420, 153.847 178.997, 152.272 173.864 L 149.407 164.531 144.954 163.800 C 140.174 163.015, 58.645 152, 57.616 152 C 57.277 152, 57 151.357, 57 150.571 C 57 149.705, 59.069 148.547, 62.250 147.634 C 76.040 143.672, 102.359 136.946, 109.792 135.483 L 118.083 133.851 132.987 143.426 C 141.183 148.692, 148.111 153, 148.381 153 C 148.651 153, 155.452 143.307, 163.493 131.459 L 178.114 109.918 176.057 88.617 C 174.926 76.902, 173.982 66.233, 173.960 64.908 L 173.920 62.500 172.588 65 C 171.855 66.375, 166.848 77.997, 161.461 90.827 L 151.666 114.153 146.471 108.322 L 141.277 102.490 120.888 103.662 C 109.675 104.306, 99.037 104.871, 97.250 104.916 C 90.630 105.087, 94.008 102.150, 109.957 93.867 C 118.733 89.310, 125.793 85.460, 125.645 85.311 C 125.497 85.163, 119.329 87.222, 111.938 89.887 C 104.352 92.621, 98.094 94.361, 97.567 93.882 C 97.053 93.415, 96.904 92.763, 97.235 92.432 C 98.071 91.595, 145.192 75.060, 146.833 75.027 C 150.911 74.945, 144.986 78.743, 124.267 89.493 C 111.553 96.088, 101.239 101.573, 101.346 101.680 C 101.453 101.787, 110.723 101.372, 121.946 100.758 L 142.352 99.641 146.639 104.377 L 150.926 109.112 152.497 105.306 C 153.361 103.213, 158.343 91.345, 163.569 78.933 L 173.071 56.366 172.285 48.473 L 171.500 40.579 168.016 39.868 C 166.100 39.477, 162.710 38.884, 160.484 38.550 L 156.435 37.943 146.967 49.684" stroke="none" fill="black" fill-rule="evenodd"/>
</svg>