<svg xmlns="http://www.w3.org/2000/svg" width="200" height="200" viewBox="0 0 200 200" version="1.1">
	<path d="M 72 18.838 C 72 19.690, 65.311 20, 46.950 20 C 24.274 20, 21.986 20.152, 22.797 21.601 C 23.583 23.007, 26.641 23.184, 47.877 23.054 L 72.062 22.906 71.570 25.203 C 71.299 26.466, 70.540 33.350, 69.883 40.500 C 68.039 60.553, 71.650 57.674, 40.928 63.586 C 20.905 67.439, 14.429 69.039, 14.205 70.189 C 13.953 71.485, 17.553 71.897, 38.908 73.015 C 52.657 73.735, 64.448 74.659, 65.109 75.067 C 66.035 75.639, 65.815 80.609, 64.154 96.655 C 62.968 108.120, 61.998 118.089, 61.999 118.809 C 61.999 119.529, 56.172 115.392, 49.049 109.616 C 38.809 101.311, 35.990 99.468, 35.581 100.807 C 33.766 106.739, 17 172.384, 17 173.556 C 17 174.350, 17.470 175, 18.045 175 C 18.619 175, 40.005 176.585, 65.569 178.521 L 112.048 182.042 137.024 172.272 C 150.761 166.898, 162 162.248, 162 161.939 C 162 161.629, 155.137 159.190, 146.750 156.518 C 138.363 153.847, 131.190 151.399, 130.811 151.080 C 130.432 150.761, 140.493 146.924, 153.168 142.554 C 165.843 138.184, 176.407 134.104, 176.643 133.487 C 176.880 132.871, 172.816 121.596, 167.611 108.433 L 158.149 84.500 169.177 63.152 C 176.261 49.439, 179.860 41.460, 179.240 40.840 C 178.620 40.220, 169.410 49.552, 153.484 66.937 L 128.692 94 111.346 94 C 101.806 94, 94 93.776, 94 93.502 C 94 93.229, 96.250 88.953, 99 84 C 101.750 79.047, 104 74.812, 104 74.587 C 104 74.363, 100.287 73.924, 95.750 73.611 C 91.213 73.298, 83.563 72.767, 78.750 72.431 L 70 71.820 70 67.492 C 70 61.217, 70.722 59.988, 74.357 60.079 C 76.086 60.122, 76.938 60.385, 76.250 60.662 C 75.235 61.072, 74.359 64, 75.252 64 C 75.391 64, 80.103 63.124, 85.724 62.053 C 94.734 60.336, 98.817 60.171, 120.222 60.662 L 144.500 61.219 151.975 53.610 C 157.212 48.278, 158.901 46, 157.615 46 C 156.606 46, 142.668 48.492, 126.640 51.538 C 110.613 54.584, 96.397 56.947, 95.049 56.788 C 93.303 56.583, 96.099 54.990, 104.767 51.250 C 111.460 48.362, 117.588 46, 118.385 46 C 119.181 46, 119.983 45.650, 120.167 45.223 C 120.350 44.796, 126.350 41.907, 133.500 38.803 C 140.823 35.625, 146.500 32.579, 146.500 31.830 C 146.500 30.774, 143.876 30.575, 133.750 30.865 C 121.321 31.221, 121 31.177, 121 29.115 C 121 26.279, 118.225 26.397, 117.820 29.250 C 117.482 31.628, 117.480 31.628, 85.250 32.874 C 83.277 32.951, 82 33.522, 82 34.329 C 82 35.194, 86.974 36.986, 96.250 39.462 C 104.088 41.554, 111.082 43.572, 111.793 43.947 C 112.550 44.345, 107.161 47.175, 98.793 50.773 C 86.659 55.990, 83.465 56.962, 77.646 57.209 L 70.793 57.500 71.341 53.500 C 71.643 51.300, 72.442 43.595, 73.117 36.379 L 74.344 23.257 80.922 22.636 C 84.540 22.294, 107.412 22.011, 131.750 22.007 C 170.414 22.001, 176 21.811, 176 20.500 C 176 19.224, 173.407 19, 158.663 19 C 149.128 19, 125.728 18.702, 106.663 18.338 C 80.621 17.841, 72 17.965, 72 18.838 M 128.250 33.743 C 121.951 34.042, 121 34.334, 121 35.962 C 121 36.993, 120.727 38.548, 120.393 39.418 C 119.474 41.813, 121.621 41.305, 130.500 37.028 C 134.900 34.908, 137.825 33.224, 137 33.285 C 136.175 33.347, 132.238 33.553, 128.250 33.743 M 102 34.941 L 92.500 35.500 104.088 38.750 C 110.461 40.538, 116.199 42, 116.838 42 C 117.527 42, 118 40.372, 118 38 C 118 34.115, 117.907 34.005, 114.750 34.191 C 112.963 34.297, 107.225 34.634, 102 34.941 M 131 53.470 C 121.925 55.250, 113.600 56.946, 112.500 57.237 C 111.400 57.529, 117.946 57.820, 127.047 57.884 L 143.594 58 147.500 54 C 152.238 49.148, 152.920 49.170, 131 53.470 M 152.656 71.770 L 132.812 93.500 140.455 94 L 148.098 94.500 138.073 100.466 L 128.048 106.432 132.646 109.294 C 135.232 110.903, 136.863 112.531, 136.372 113.013 C 135.892 113.484, 128.750 116.166, 120.500 118.972 C 106.823 123.623, 105.059 124.502, 100.500 128.933 C 95.564 133.730, 95.398 133.801, 87.500 134.439 C 83.100 134.795, 77.588 135.343, 75.250 135.656 C 71.875 136.110, 71 135.916, 71 134.718 C 71 133.309, 74.848 131.745, 98.500 123.541 C 102.747 122.068, 105.119 120.030, 114.250 110.011 C 120.162 103.524, 125 97.942, 125 97.608 C 125 97.274, 116.869 97, 106.932 97 L 88.863 97 93.932 87.626 C 96.719 82.471, 99 77.811, 99 77.271 C 99 76.382, 70.289 74.378, 69.458 75.209 C 69.271 75.395, 67.981 86.510, 66.591 99.909 C 65.201 113.307, 63.932 124.401, 63.771 124.562 C 63.610 124.723, 57.646 120.124, 50.518 114.341 C 43.390 108.559, 37.451 104.204, 37.322 104.664 C 31.891 123.934, 20.300 171.568, 20.945 171.966 C 21.437 172.270, 42.125 174.008, 66.920 175.828 L 112.001 179.138 133.027 170.895 C 144.591 166.362, 153.703 162.337, 153.276 161.951 C 152.849 161.565, 145.975 159.112, 138 156.500 C 130.025 153.888, 123.174 151.458, 122.776 151.102 C 122.378 150.745, 133.628 146.450, 147.776 141.559 C 161.924 136.667, 173.622 132.580, 173.772 132.477 C 173.922 132.374, 169.769 121.433, 164.544 108.164 L 155.044 84.039 156.887 80.770 C 159.735 75.716, 172.983 49.998, 172.727 50.020 C 172.602 50.031, 163.570 59.818, 152.656 71.770 M 47.804 65.008 C 37.521 67.092, 28.553 68.982, 27.873 69.209 C 27.194 69.435, 35.597 70.129, 46.545 70.751 C 57.494 71.373, 66.512 71.796, 66.586 71.691 C 67.175 70.852, 67.748 61.025, 67.203 61.110 C 66.816 61.170, 58.087 62.924, 47.804 65.008 M 132.763 96.892 C 129.662 97.396, 127.724 98.948, 121.383 106 C 117.179 110.675, 112.606 115.720, 111.220 117.211 L 108.700 119.923 119.850 116.239 C 125.982 114.213, 131 112.288, 131 111.962 C 131 111.635, 129.200 110.357, 127 109.120 C 124.800 107.884, 123 106.719, 123 106.531 C 123 106.344, 126.600 104.080, 131 101.500 C 135.400 98.920, 139 96.628, 139 96.405 C 139 95.951, 138.129 96.019, 132.763 96.892 M 90 129.584 L 83.500 132.012 89 131.452 C 92.521 131.093, 95.210 130.192, 96.472 128.946 C 98.963 126.488, 98.047 126.578, 90 129.584" stroke="none" fill="black" fill-rule="evenodd"/>
</svg>