<svg xmlns="http://www.w3.org/2000/svg" width="200" height="200" viewBox="0 0 200 200" version="1.1">
	<path d="M 131 20.038 C 124.125 22.150, 118.297 23.905, 118.050 23.939 C 117.802 23.972, 118.095 24.495, 118.700 25.100 C 119.500 25.900, 122.313 25.478, 129.016 23.549 C 134.084 22.091, 138.381 21.048, 138.564 21.231 C 138.747 21.414, 119.894 38.956, 96.667 60.212 C 73.440 81.469, 53.619 99.763, 52.620 100.867 C 48.068 105.897, 53.635 104.088, 78.760 92.370 C 93.467 85.511, 106.238 79.830, 107.139 79.745 C 108.041 79.660, 114.003 82.002, 120.389 84.949 C 131.051 89.869, 132 90.529, 132 93.031 C 132 94.529, 131.438 96.198, 130.750 96.740 C 130.063 97.281, 114.088 99.668, 95.250 102.044 C 76.413 104.420, 61.012 106.619, 61.027 106.932 C 61.042 107.244, 62.310 109.014, 63.845 110.865 L 66.636 114.230 97.568 112.865 C 114.581 112.114, 128.624 111.760, 128.776 112.079 C 128.928 112.397, 127.691 121.733, 126.026 132.825 C 124.362 143.917, 123 153.932, 123 155.080 C 123 159.568, 125.712 155.820, 131.797 142.923 L 138.129 129.500 137.548 121.107 C 136.828 110.722, 136.173 108, 134.392 108 C 132.514 108, 132.568 102.575, 134.464 100.679 C 135.354 99.789, 139.082 98.935, 143.964 98.503 C 148.384 98.112, 152 97.465, 152 97.066 C 152 96.666, 148.400 94.720, 144 92.742 C 136.064 89.173, 136 89.114, 136 85.398 L 136 81.651 138.250 83.663 C 139.488 84.770, 146.657 90.940, 154.182 97.375 L 167.864 109.074 162.832 123.287 C 160.065 131.104, 156.225 142.030, 154.300 147.567 L 150.800 157.633 134.821 164.041 C 126.032 167.565, 118.668 170.728, 118.457 171.070 C 118.245 171.412, 128.743 173.224, 141.786 175.096 L 165.500 178.500 155.500 179.150 C 137.318 180.331, 61.648 181.315, 53.500 180.476 L 45.500 179.652 65 177.382 C 75.725 176.134, 84.838 175.087, 85.250 175.056 C 85.662 175.025, 86 174.408, 86 173.684 C 86 172.902, 76.497 168.541, 62.572 162.934 C 49.687 157.745, 39.450 153.222, 39.822 152.882 C 40.195 152.542, 47.475 151.281, 56 150.080 C 84.325 146.088, 92.137 144.736, 91.314 143.967 C 90.867 143.547, 75.875 137.023, 58 129.468 C 40.125 121.913, 25.390 115.645, 25.255 115.538 C 25.120 115.431, 36.953 104.861, 51.550 92.050 C 66.147 79.239, 77.890 68.557, 77.647 68.314 C 77.403 68.070, 70.970 66.634, 63.352 65.123 L 49.500 62.375 59.500 60.600 C 77.533 57.399, 77.648 58.246, 58.120 50.461 L 40.765 43.542 57.133 40.283 C 90.366 33.665, 94 32.787, 94 31.370 C 94 30.616, 93.662 30.023, 93.250 30.051 C 92.838 30.080, 78.775 32.950, 62 36.429 C 36.713 41.674, 31.927 42.928, 34 43.768 C 35.375 44.326, 42.933 47.360, 50.795 50.512 C 58.658 53.664, 64.958 56.373, 64.795 56.531 C 64.633 56.690, 59.367 57.755, 53.094 58.899 C 46.821 60.043, 41.488 61.178, 41.244 61.423 C 39.863 62.804, 43.413 64.007, 56.223 66.499 C 64.075 68.026, 70.827 69.563, 71.227 69.914 C 71.626 70.266, 60.489 80.611, 46.477 92.903 C 32.465 105.195, 21 115.580, 21 115.980 C 21 116.381, 34.713 122.511, 51.474 129.604 C 68.234 136.697, 81.959 142.741, 81.974 143.035 C 81.988 143.330, 69.765 145.335, 54.812 147.490 L 27.623 151.410 31.562 153.164 C 33.728 154.129, 45.257 158.867, 57.183 163.693 C 69.108 168.519, 78.746 172.587, 78.600 172.733 C 78.454 172.879, 66.672 174.343, 52.417 175.986 C 17.488 180.012, 18 179.932, 18 181.407 C 18 183.630, 95.775 184.343, 141 182.536 C 161.625 181.711, 179.512 181.028, 180.750 181.018 C 181.988 181.008, 183 180.379, 183 179.621 C 183 178.129, 183.091 178.146, 149.250 173.408 C 138.113 171.849, 129 170.306, 129 169.979 C 129 169.652, 134.400 167.205, 141 164.541 C 147.600 161.877, 153 159.601, 153 159.484 C 153 159.273, 169.689 111.974, 170.611 109.570 C 170.874 108.886, 163.495 101.788, 153.972 93.563 L 136.860 78.786 137.503 74.643 C 138.660 67.187, 138.477 67.356, 146.775 66.054 C 157.601 64.356, 159 63.952, 159 62.530 C 159 61.769, 155.627 60.537, 150.414 59.394 C 145.691 58.359, 141.472 57.284, 141.038 57.006 C 140.603 56.728, 140.843 52.675, 141.571 48 C 142.299 43.325, 143.115 38.038, 143.384 36.250 C 143.735 33.927, 143.484 33, 142.505 33 C 140.936 33, 140.987 32.852, 137.539 47.427 C 135.644 55.435, 135.263 58.544, 136.112 59.069 C 137.980 60.224, 136.294 64.711, 133.759 65.333 C 132.516 65.639, 129.137 66.196, 126.250 66.573 C 123.362 66.950, 121 67.610, 121 68.040 C 121 68.470, 122.462 70.046, 124.250 71.542 C 134.248 79.910, 134.075 79.677, 133.403 83.879 L 132.777 87.794 120.196 81.856 L 107.614 75.919 84.557 86.613 C 71.876 92.494, 61.050 97.494, 60.500 97.724 C 59.213 98.261, 60.350 97.203, 106.831 54.593 C 128.374 34.844, 146 18.081, 146 17.343 C 146 15.518, 145.306 15.643, 131 20.038 M 139.603 61.592 C 138.654 64.066, 139.302 64.284, 145.186 63.471 C 150.697 62.710, 150.310 62.091, 143.377 60.578 C 140.950 60.049, 140.109 60.275, 139.603 61.592 M 129.750 68.716 C 128.238 68.945, 127 69.440, 127 69.816 C 127 70.643, 134.017 76.341, 134.427 75.848 C 134.587 75.656, 134.977 73.813, 135.296 71.750 C 135.917 67.720, 136.006 67.769, 129.750 68.716 M 134.656 94.206 C 133.896 97.115, 134.025 97.180, 139.009 96.383 L 143.285 95.699 139.893 93.891 C 135.531 91.568, 135.343 91.579, 134.656 94.206 M 98.320 104.357 C 81.171 106.636, 66.819 108.827, 66.427 109.226 C 64.652 111.035, 71.169 111.183, 99.571 109.981 C 129.383 108.719, 130 108.650, 130.014 106.596 C 130.021 105.443, 130.299 103.487, 130.630 102.250 C 130.962 101.013, 130.843 100.048, 130.367 100.107 C 129.890 100.166, 115.469 102.079, 98.320 104.357 M 131.979 111.750 C 131.967 112.162, 130.858 119.678, 129.514 128.452 C 128.170 137.225, 127.212 144.545, 127.385 144.718 C 127.558 144.891, 129.498 141.088, 131.696 136.267 C 135.461 128.009, 135.649 127.152, 134.931 121.500 C 134.512 118.200, 134.131 114.487, 134.084 113.250 C 134.010 111.260, 132.033 109.852, 131.979 111.750" stroke="none" fill="black" fill-rule="evenodd"/>
</svg>