<svg xmlns="http://www.w3.org/2000/svg" width="200" height="200" viewBox="0 0 200 200" version="1.1">
	<path d="M 69.635 35.987 L 53.886 66.923 33.193 84.630 C 21.812 94.368, 12.305 102.493, 12.067 102.685 C 11.828 102.876, 12.132 103.532, 12.742 104.142 C 13.554 104.954, 22.105 103.441, 44.676 98.492 C 61.629 94.774, 76.068 91.517, 76.761 91.255 C 77.557 90.953, 77.809 91.334, 77.443 92.287 C 77.125 93.117, 69.209 99.296, 59.853 106.019 C 48.005 114.531, 43.159 118.559, 43.888 119.288 C 44.617 120.017, 48.176 119.779, 55.612 118.504 C 65.995 116.724, 66.326 116.725, 67.644 118.528 C 69.250 120.724, 69.326 122.013, 68.047 125.375 C 67.264 127.435, 66.036 128.089, 61.144 129.051 L 55.193 130.222 54.504 143.361 C 54.125 150.588, 53.969 160.664, 54.158 165.752 C 54.346 170.841, 54.500 175.006, 54.500 175.007 C 54.500 175.009, 46.032 176.088, 35.682 177.406 C 25.333 178.724, 16.588 180.079, 16.249 180.418 C 13.928 182.738, 21.556 183.118, 82.091 183.693 L 146.500 184.306 159.245 177.403 C 166.254 173.606, 171.992 169.873, 171.995 169.107 C 172 167.671, 165.878 167.740, 122.135 169.668 L 107.770 170.301 108.518 167.900 C 110.867 160.359, 123.882 123.663, 123.910 124.500 C 123.929 125.050, 122.661 133.600, 121.092 143.500 C 119.523 153.400, 118.362 161.639, 118.512 161.809 C 119.019 162.384, 159 141.996, 159 141.162 C 159 138.938, 156.606 139.843, 140.373 148.206 C 130.753 153.161, 122.647 156.981, 122.360 156.693 C 121.878 156.212, 125.513 130.623, 126.599 126.843 C 127.018 125.387, 128.072 125.590, 135.288 128.515 C 140.962 130.816, 143.809 131.521, 144.500 130.797 C 145.167 130.099, 145.167 129.609, 144.500 129.326 C 143.950 129.092, 139.900 127.435, 135.500 125.643 C 130.825 123.739, 127.500 121.799, 127.500 120.975 C 127.500 119.945, 133.405 118.328, 149.438 114.968 C 161.688 112.401, 171.551 109.847, 171.772 109.185 C 172.069 108.292, 165.765 108, 146.167 108 L 120.167 108 118.743 103.750 L 117.320 99.500 127.732 87.750 C 133.459 81.288, 138.397 76, 138.705 76 C 139.013 76, 149.337 79.009, 161.646 82.687 C 176.723 87.191, 184.356 89.044, 185.037 88.363 C 185.718 87.682, 178.798 81.669, 163.831 69.935 C 151.612 60.356, 132.261 44.527, 120.828 34.759 C 109.396 24.992, 99.826 17, 99.563 17 C 99.300 17, 98.103 20.262, 96.903 24.250 L 94.722 31.500 90.388 18.610 C 88.005 11.521, 85.904 5.570, 85.719 5.386 C 85.535 5.202, 78.297 18.972, 69.635 35.987 M 70.175 40.901 L 55.950 68.802 37.486 84.579 C 27.331 93.256, 19.200 100.534, 19.418 100.751 C 19.635 100.968, 30.650 98.751, 43.895 95.823 L 67.978 90.500 77.739 69.133 C 83.522 56.474, 88.156 47.577, 89.109 47.303 C 90.085 47.022, 91.215 44.771, 91.980 41.582 C 93.192 36.530, 93.091 35.867, 89.403 24.662 C 87.292 18.248, 85.303 13, 84.982 13 C 84.662 13, 77.998 25.556, 70.175 40.901 M 98.328 29.250 L 96.355 36.500 99.319 45.518 L 102.283 54.536 117.229 62.896 C 132.156 71.245, 132.181 71.254, 137.731 70.602 C 142.677 70.021, 143.146 70.119, 142.001 71.499 C 141.294 72.351, 140.892 73.211, 141.107 73.410 C 141.323 73.609, 149.755 76.251, 159.844 79.280 C 169.933 82.309, 177.808 84.452, 177.344 84.042 C 176.880 83.631, 167.804 76.451, 157.175 68.085 C 146.546 59.719, 129.712 45.928, 119.767 37.437 C 109.821 28.947, 101.373 22, 100.992 22 C 100.612 22, 99.413 25.262, 98.328 29.250 M 93.630 45.250 C 92.644 48.929, 92.878 49.623, 95.500 50.818 C 98.370 52.126, 98.395 52.052, 96.842 46.866 C 95.529 42.483, 94.509 41.970, 93.630 45.250 M 91.524 53.220 C 89.496 59.161, 82.983 83.316, 83.318 83.651 C 83.847 84.180, 105.214 78.974, 106.246 78.065 C 106.656 77.704, 105.374 72.578, 103.397 66.674 C 99.995 56.514, 99.593 55.833, 95.882 53.940 C 92.905 52.421, 91.855 52.248, 91.524 53.220 M 80.152 70.652 C 76.201 79.259, 73.087 86.390, 73.234 86.500 C 73.380 86.609, 74.876 86.326, 76.559 85.870 C 79.520 85.068, 79.750 84.574, 83.779 70.325 C 86.069 62.231, 87.805 55.472, 87.639 55.306 C 87.473 55.140, 84.104 62.045, 80.152 70.652 M 104.247 60.250 C 104.500 60.938, 105.729 64.650, 106.977 68.500 C 108.226 72.350, 109.610 75.896, 110.053 76.379 C 110.510 76.878, 114.817 76.281, 120.009 74.998 L 129.159 72.737 116.980 65.868 C 110.281 62.091, 104.573 59, 104.293 59 C 104.014 59, 103.993 59.563, 104.247 60.250 M 121.014 77.660 C 115.797 79.023, 111.413 80.253, 111.274 80.393 C 111.134 80.533, 112.211 84.192, 113.667 88.524 L 116.315 96.399 120.408 91.877 C 122.658 89.389, 126.907 84.574, 129.849 81.177 C 136.176 73.870, 135.917 73.767, 121.014 77.660 M 97.500 83.436 C 90.644 85.108, 88.530 86.014, 88.627 87.243 C 88.697 88.130, 86.658 90.285, 84.096 92.034 L 79.438 95.212 75.745 108.356 C 72.056 121.483, 71.806 126, 74.768 126 C 76.560 126, 119.262 117.071, 119.736 116.597 C 119.912 116.421, 119.605 115.090, 119.053 113.639 C 118.098 111.128, 117.704 111, 110.926 111 L 103.802 111 108.989 105.013 L 114.175 99.026 111.275 90.326 C 109.680 85.540, 107.953 81.539, 107.438 81.434 C 106.922 81.328, 102.450 82.230, 97.500 83.436 M 63.085 107.023 C 56.256 111.959, 50.502 116.165, 50.297 116.370 C 50.092 116.574, 54.206 115.963, 59.440 115.011 L 68.954 113.280 69.640 115.390 C 70.299 117.420, 70.352 117.405, 71.022 115 C 71.404 113.625, 72.647 109.237, 73.782 105.250 C 74.917 101.263, 75.768 98.011, 75.673 98.024 C 75.578 98.037, 69.913 102.087, 63.085 107.023 M 112.004 105.496 C 109.171 108.511, 109.639 109.222, 113.895 108.371 C 116.148 107.920, 116.944 107.295, 116.555 106.282 C 116.250 105.487, 116 104.423, 116 103.918 C 116 102.303, 114.416 102.928, 112.004 105.496 M 121.915 113.250 C 122.489 114.771, 123.532 115.462, 125.132 115.383 C 126.435 115.319, 127.725 115.569, 128 115.940 C 128.275 116.310, 134.125 115.391, 141 113.896 L 153.500 111.179 137.282 111.089 L 121.064 111 121.915 113.250 M 96.131 124.545 C 84.928 126.943, 75.579 129.088, 75.355 129.312 C 75.132 129.535, 78.510 139.344, 82.862 151.109 C 89.665 169.499, 90.545 172.584, 89.138 173.101 C 88.237 173.432, 76.949 175.007, 64.054 176.601 C 48.873 178.478, 41.647 179.722, 43.554 180.131 C 45.174 180.479, 69 180.814, 96.500 180.876 L 146.500 180.989 155.250 176.440 C 160.063 173.938, 164 171.630, 164 171.312 C 164 170.767, 147.497 171.240, 117.282 172.650 L 104.063 173.267 112.532 147.905 C 117.189 133.957, 121 121.972, 121 121.272 C 121 119.417, 118.635 119.728, 96.131 124.545 M 63.607 150.730 C 60.366 162.153, 57.521 172.210, 57.285 173.079 C 56.899 174.500, 58.335 174.470, 71.640 172.783 C 79.771 171.752, 86.566 170.767, 86.740 170.594 C 87.563 169.770, 72.136 130.470, 70.895 130.230 C 69.880 130.033, 67.892 135.625, 63.607 150.730 M 60.250 132.119 L 57 133.057 57 147.695 C 57 155.746, 57.173 162.146, 57.385 161.917 C 57.829 161.436, 66 132.791, 66 131.715 C 66 130.813, 64.378 130.927, 60.250 132.119" stroke="none" fill="black" fill-rule="evenodd"/>
</svg>