<svg xmlns="http://www.w3.org/2000/svg" width="200" height="200" viewBox="0 0 200 200" version="1.1">
	<path d="M 158 9.374 C 158 9.580, 158.655 11.605, 159.456 13.874 L 160.911 18 103.678 18 C 53.496 18, 46.171 17.808, 44.223 16.443 C 42.211 15.034, 42 15.034, 42 16.443 C 42 17.731, 40.524 18, 33.469 18 C 27.526 18, 24.814 18.379, 24.532 19.250 C 24.309 19.938, 23.964 35.472, 23.766 53.771 L 23.406 87.041 27.218 88.183 C 30.758 89.244, 30.992 89.546, 30.499 92.413 C 29.496 98.251, 25 128.875, 25 129.867 C 25 130.512, 26.138 130.534, 28.243 129.930 C 30.027 129.419, 31.989 129, 32.604 129 C 33.331 129, 32.374 135.690, 29.864 148.170 C 27.742 158.714, 26.118 167.438, 26.253 167.559 C 26.862 168.097, 75.980 166.354, 76.561 165.773 C 76.919 165.414, 75.099 155.400, 72.515 143.518 C 68.057 123.015, 67.634 119, 69.931 119 C 70.478 119, 73.332 118.099, 76.274 116.999 C 81.588 115.010, 81.691 114.890, 92.492 98.013 C 98.470 88.671, 103.541 81.208, 103.761 81.428 C 104.231 81.897, 101.062 156.554, 100.448 159.500 C 100.218 160.600, 96.811 163.750, 92.875 166.500 C 88.939 169.250, 86.345 171.600, 87.110 171.722 C 90.702 172.297, 176.327 175.006, 176.774 174.559 C 177.054 174.279, 171.356 166.151, 164.111 156.497 L 150.938 138.945 164.436 97.347 L 177.935 55.749 171.467 38.299 C 167.910 28.701, 165 20.708, 165 20.536 C 165 20.363, 166.575 19.927, 168.500 19.566 C 170.694 19.154, 172 18.337, 172 17.375 C 172 16.170, 171.304 15.989, 168.750 16.530 C 166.963 16.909, 165.106 17.282, 164.625 17.360 C 164.144 17.437, 163.094 15.588, 162.292 13.250 C 161.490 10.912, 160.196 9, 159.417 9 C 158.637 9, 158 9.168, 158 9.374 M 26.676 52.700 C 26.007 85.562, 26.093 86.418, 30 85.735 C 31.170 85.531, 32.402 79.420, 35.596 57.987 C 37.849 42.869, 40.014 28.363, 40.407 25.750 L 41.123 21 34.223 21 L 27.323 21 26.676 52.700 M 43.599 23.679 C 43.275 25.231, 41.199 38.875, 38.987 54 C 36.775 69.125, 34.717 82.862, 34.413 84.527 C 33.888 87.408, 34.107 87.643, 38.930 89.378 C 41.719 90.381, 44 91.527, 44 91.927 C 44 92.326, 42.614 99.520, 40.920 107.913 C 39.226 116.306, 38.085 123.419, 38.385 123.718 C 38.857 124.190, 47.068 122.385, 60.250 118.911 C 63.976 117.929, 64 117.890, 64.005 112.711 C 64.008 109.845, 64.302 103.089, 64.659 97.697 L 65.309 87.894 75.590 71.197 L 85.872 54.500 79.686 53.806 C 76.284 53.424, 68.134 53.027, 61.575 52.923 C 48.821 52.720, 44.866 52.098, 44.232 50.195 C 43.945 49.336, 46.175 48.978, 52.167 48.922 C 58.335 48.865, 62.622 48.151, 68.667 46.172 L 76.834 43.500 61.983 32.744 C 53.814 26.828, 46.469 21.734, 45.661 21.423 C 44.644 21.033, 44.007 21.730, 43.599 23.679 M 51.550 21.832 C 52.268 22.461, 71.378 36.293, 79.500 42.063 C 80.639 42.872, 106.090 35.473, 106.949 34.082 C 107.258 33.582, 116.959 30.617, 128.505 27.492 C 140.052 24.368, 149.688 21.629, 149.917 21.406 C 150.146 21.183, 127.893 21, 100.467 21 C 73.040 21, 51.028 21.374, 51.550 21.832 M 141.678 27.472 C 131.876 30.408, 123.589 33.078, 123.261 33.405 C 122.934 33.732, 129.090 34, 136.940 34 C 147.926 34, 151.113 34.288, 150.777 35.250 C 150.536 35.938, 146.330 55.062, 141.430 77.750 C 136.530 100.438, 132.291 118.984, 132.011 118.965 C 131.730 118.945, 126.325 110.554, 120 100.318 C 110.045 84.206, 104.398 75.612, 106.462 79.714 C 107.038 80.858, 104.661 140.193, 103.420 155.668 C 102.857 162.686, 102.760 162.894, 98.776 165.655 L 94.708 168.474 98.104 169.159 C 101.503 169.844, 171.020 172.313, 171.565 171.768 C 171.724 171.609, 167.116 165.184, 161.325 157.489 C 155.534 149.795, 150.140 142.526, 149.338 141.335 C 147.998 139.344, 148.974 135.813, 161.455 97.510 L 175.029 55.851 168.768 38.925 C 164.393 27.098, 162.055 22.020, 161.004 22.066 C 160.177 22.103, 151.480 24.535, 141.678 27.472 M 98 40.203 C 90.575 42.479, 84.275 44.538, 84 44.780 C 83.725 45.021, 84.615 45.957, 85.978 46.859 C 87.341 47.762, 89.203 49.237, 90.116 50.137 C 91.452 51.456, 95.895 52.026, 112.926 53.066 C 130.983 54.169, 134.034 54.583, 133.782 55.896 C 133.593 56.875, 130.081 58.506, 124.125 60.381 C 114.921 63.279, 114.708 63.418, 111.319 68.715 C 109.424 71.678, 108.014 74.668, 108.187 75.359 C 108.969 78.497, 130.560 111.746, 131.127 110.686 C 132.093 108.879, 147.299 37.966, 146.823 37.489 C 146.593 37.260, 138.552 36.846, 128.953 36.569 L 111.500 36.066 98 40.203 M 72.503 47.912 L 66.506 49.660 71.392 50.330 C 74.080 50.699, 78.579 50.998, 81.390 50.995 L 86.500 50.990 83.500 48.531 C 79.983 45.648, 80.220 45.661, 72.503 47.912 M 78.623 71.460 L 67.893 88.943 67.285 103.140 C 66.773 115.119, 66.899 117.256, 68.089 116.814 C 68.865 116.527, 71.804 115.534, 74.620 114.608 C 79.739 112.926, 79.744 112.920, 90.960 95.342 L 102.179 77.759 97.690 67.629 C 95.050 61.670, 93.565 57.116, 94.084 56.567 C 95.175 55.413, 94.768 54.938, 100.740 64.348 L 105.720 72.196 109.610 66.436 C 113.069 61.315, 114.109 60.493, 119 59.019 C 126.230 56.840, 124.349 56.309, 106.500 55.490 C 98.800 55.137, 91.792 54.652, 90.927 54.413 C 89.787 54.097, 86.404 58.784, 78.623 71.460 M 30.860 108.673 C 29.421 118.478, 28.386 126.659, 28.560 126.854 C 28.733 127.049, 30.141 126.790, 31.688 126.278 C 34.406 125.379, 34.609 124.820, 37.761 109.486 C 39.555 100.761, 40.666 93.266, 40.230 92.830 C 39.794 92.394, 38.096 91.769, 36.457 91.441 L 33.476 90.845 30.860 108.673 M 49.824 124.364 C 43.402 126.099, 37.845 127.821, 37.476 128.191 C 37.106 128.561, 35.125 136.983, 33.073 146.907 L 29.342 164.951 51.421 164.337 C 63.564 163.999, 73.621 163.626, 73.769 163.509 C 73.917 163.391, 72.004 154.050, 69.519 142.749 C 67.034 131.449, 65 121.933, 65 121.602 C 65 120.547, 61.790 121.132, 49.824 124.364" stroke="none" fill="black" fill-rule="evenodd"/>
</svg>