<svg xmlns="http://www.w3.org/2000/svg" width="200" height="200" viewBox="0 0 200 200" version="1.1">
	<path d="M 147.985 23.175 L 146.737 28.753 141.619 29.368 C 138.803 29.706, 134.700 29.957, 132.500 29.927 C 128.630 29.872, 128.826 29.714, 138.500 25.062 C 153.594 17.803, 148.319 17.637, 132.296 24.866 L 119.174 30.787 103.995 31.806 L 88.815 32.826 62.658 28.428 C 48.271 26.009, 35.487 24.023, 34.250 24.015 L 32 24 32 55.561 L 32 87.122 41.996 104.395 L 51.992 121.669 65.746 124.485 C 73.311 126.034, 80.072 127.594, 80.772 127.953 C 81.471 128.311, 73.821 130.066, 63.772 131.852 C 53.722 133.639, 41.563 135.810, 36.750 136.677 C 27.080 138.420, 25.190 140.386, 32.250 141.358 C 34.588 141.680, 46.625 143.114, 59 144.545 C 71.375 145.975, 82.251 147.450, 83.168 147.823 C 84.449 148.343, 81.709 151.165, 71.342 160 C 52.104 176.396, 53.779 175.470, 40.575 176.991 C 34.272 177.717, 28.526 178.691, 27.807 179.156 C 23.997 181.617, 32.167 181.969, 93 181.966 L 156.500 181.963 167.282 172.847 C 173.212 167.833, 177.930 163.597, 177.767 163.434 C 177.604 163.271, 163.097 164.888, 145.528 167.028 C 127.959 169.167, 113.477 170.810, 113.346 170.679 C 112.627 169.960, 145.713 140.174, 152.361 135.555 C 159.382 130.677, 159.970 130.031, 157.861 129.509 C 156.562 129.188, 146.950 127.166, 136.500 125.015 C 126.050 122.865, 118.175 121.038, 119 120.955 C 119.825 120.871, 128.121 120.285, 137.436 119.652 L 154.371 118.500 158.663 104 C 161.023 96.025, 164.583 83.875, 166.573 77 L 170.191 64.500 160.996 43.500 C 148.368 14.660, 149.496 16.423, 147.985 23.175 M 149.662 27.438 C 149.333 28.297, 149.499 29, 150.031 29 C 150.564 29, 151 29.675, 151 30.500 C 151 31.325, 150.438 32.002, 149.750 32.004 C 148.942 32.006, 144.870 46.227, 138.226 72.254 C 132.576 94.389, 127.667 113.584, 127.318 114.909 L 126.684 117.318 139.084 116.617 C 145.904 116.232, 151.765 115.598, 152.108 115.208 C 152.791 114.434, 167 66.601, 167 65.076 C 167 64.560, 163.234 55.528, 158.631 45.006 C 153.504 33.286, 150.030 26.480, 149.662 27.438 M 35 56.942 L 35 86.885 44.138 102.692 C 49.164 111.387, 53.371 118.620, 53.487 118.766 C 53.664 118.988, 89.893 127, 90.723 127 C 91.392 127, 90.923 130.003, 90.250 130.028 C 88.255 130.101, 40.834 138.832, 40.474 139.193 C 40.246 139.421, 51.184 140.881, 64.780 142.439 C 78.376 143.996, 89.853 145.585, 90.284 145.969 C 91.246 146.826, 55.692 177.243, 52.668 178.150 C 51.476 178.508, 74.140 178.845, 103.033 178.900 L 155.565 179 162.332 173.383 C 166.054 170.294, 168.944 167.611, 168.754 167.421 C 168.564 167.231, 154.367 168.767, 137.204 170.833 C 120.042 172.900, 106 174.331, 106 174.014 C 106 172.808, 143.198 138.548, 148.066 135.270 C 150.872 133.380, 153.017 131.689, 152.834 131.512 C 152.650 131.335, 141.813 129.057, 128.750 126.449 C 113.341 123.373, 105 121.281, 105 120.490 C 105 119.084, 111.589 118, 120.140 118 C 123.363 118, 126 117.759, 126 117.464 C 126 117.088, 96.621 73.919, 94.576 71.290 C 93.448 69.838, 88.128 74.906, 76.500 88.510 C 63.788 103.382, 60 106.932, 60 103.972 C 60 103.102, 81.271 65.163, 85.674 58.182 C 87.132 55.868, 87.144 55.876, 91.237 61.682 C 93.493 64.882, 95.391 67.591, 95.455 67.702 C 95.603 67.959, 126.317 58.016, 126.767 57.567 C 126.950 57.383, 123.842 54.863, 119.859 51.967 L 112.618 46.700 89.756 54.497 C 74.456 59.715, 66.562 61.962, 65.890 61.290 C 63.926 59.326, 81.851 47.353, 97.195 40.380 C 111.181 34.024, 111.377 33.892, 106 34.447 C 93.298 35.759, 85.002 35.140, 61.324 31.112 C 48.027 28.851, 36.665 27, 36.074 27 C 35.333 27, 35 36.274, 35 56.942 M 128 33.043 C 118.986 33.740, 117.635 34.169, 101.601 41.433 C 86.736 48.168, 75.296 54.630, 76.358 55.692 C 76.554 55.887, 84.683 53.300, 94.424 49.942 C 104.164 46.585, 112.772 44.082, 113.551 44.381 C 117.176 45.772, 133.202 58.434, 131.909 58.886 C 131.134 59.157, 123.023 61.881, 113.884 64.939 L 97.269 70.500 111.340 90.931 L 125.410 111.361 128.687 98.431 C 130.489 91.319, 135.051 73.463, 138.825 58.750 L 145.685 32 141.593 32.154 C 139.342 32.238, 133.225 32.638, 128 33.043 M 80.465 72.750 C 76.778 79.213, 72.873 86.075, 71.787 88 C 70.134 90.930, 70.635 90.604, 74.865 86 C 77.643 82.975, 81.848 78.147, 84.208 75.270 C 86.569 72.394, 89.490 69.763, 90.701 69.424 L 92.901 68.808 90.318 64.904 C 88.897 62.757, 87.607 61, 87.451 61 C 87.295 61, 84.151 66.287, 80.465 72.750" stroke="none" fill="black" fill-rule="evenodd"/>
</svg>