<svg xmlns="http://www.w3.org/2000/svg" width="200" height="200" viewBox="0 0 200 200" version="1.1">
	<path d="M 70.767 21.351 C 44.367 27.929, 30.029 31.940, 30.017 32.750 C 30.008 33.438, 30.465 34, 31.033 34 C 31.602 34, 42.009 31.507, 54.160 28.460 C 66.311 25.413, 76.409 23.076, 76.599 23.266 C 76.790 23.456, 76.371 26.737, 75.669 30.556 L 74.393 37.500 70.734 37.808 C 68.721 37.978, 62.230 37.667, 56.310 37.119 C 50.389 36.570, 45.376 36.291, 45.170 36.497 C 44.963 36.703, 43.411 47.387, 41.720 60.237 L 38.646 83.602 40.904 86.656 C 42.146 88.336, 46.004 97.538, 49.478 107.105 C 53.721 118.790, 56.321 124.606, 57.397 124.823 C 59.863 125.321, 59.365 128.882, 56.750 129.454 C 55.513 129.724, 50 130.449, 44.500 131.065 C 39 131.681, 34.396 132.285, 34.269 132.407 C 33.865 132.795, 52.398 174, 52.977 174 C 53.282 174, 55.054 165.032, 56.913 154.071 C 58.773 143.110, 60.632 133.596, 61.044 132.928 C 61.799 131.707, 96.533 127.200, 97.528 128.194 C 97.804 128.470, 96.560 132.845, 94.765 137.916 L 91.500 147.135 72.315 165.068 C 61.763 174.930, 52.712 183, 52.200 183 C 51.689 183, 43.744 174.895, 34.544 164.988 L 17.817 146.976 19.443 101.738 C 20.337 76.857, 21.782 50.501, 22.653 43.168 C 23.792 33.580, 23.932 29.532, 23.151 28.751 C 22.370 27.970, 21.939 28.063, 21.616 29.083 C 20.178 33.617, 17.904 64.754, 17.022 92 C 16.461 109.325, 15.726 128.953, 15.388 135.618 L 14.775 147.735 33.029 167.368 C 43.069 178.165, 51.594 187, 51.974 187 C 52.353 187, 61.844 178.456, 73.064 168.014 L 93.464 149.027 97.515 138.264 L 101.565 127.500 106.176 126.602 C 108.713 126.108, 111.418 125.947, 112.189 126.242 C 113.088 126.587, 116.412 137.959, 121.451 157.934 C 125.774 175.069, 129.649 188.731, 130.062 188.294 C 131.529 186.743, 171.947 130.492, 171.948 130 C 171.949 129.725, 168.248 126.987, 163.725 123.915 C 157.594 119.752, 150.154 116.214, 134.500 110.017 C 122.950 105.444, 113.101 101.348, 112.613 100.915 C 112.110 100.468, 112.770 97.302, 114.137 93.605 L 116.547 87.084 140.969 98.047 C 154.400 104.077, 165.691 108.670, 166.058 108.255 C 166.737 107.489, 173.093 62.759, 172.594 62.260 C 172.444 62.111, 163.834 63.566, 153.459 65.494 C 136.920 68.568, 132.620 69.001, 118.548 69.008 C 105.407 69.014, 101.323 69.375, 96 71 C 85.800 74.115, 86.609 75.036, 84.364 57.750 C 83.275 49.362, 82.451 42.384, 82.533 42.243 C 82.614 42.101, 96.141 44.068, 112.591 46.614 L 142.500 51.243 160.700 41.872 C 170.710 36.717, 178.585 32.205, 178.200 31.845 C 177.174 30.886, 114.496 10.982, 112.876 11.101 C 112.119 11.157, 93.170 15.769, 70.767 21.351 M 94.933 18.167 L 79.366 22.146 80.655 30.247 C 81.364 34.702, 82.372 38.612, 82.896 38.936 C 83.419 39.259, 97.100 41.494, 113.297 43.902 L 142.747 48.281 157.445 40.546 C 165.530 36.291, 171.999 32.679, 171.822 32.518 C 170.863 31.645, 114.002 14.015, 112.403 14.094 C 111.356 14.146, 103.495 15.979, 94.933 18.167 M 77.622 35.825 C 77.179 37.104, 77.083 38.417, 77.409 38.742 C 78.445 39.779, 79.174 38.250, 78.794 35.836 L 78.426 33.500 77.622 35.825 M 45.687 51.161 C 41.307 84.117, 41.392 82.685, 43.635 85.734 C 44.754 87.255, 47.882 94.683, 50.585 102.240 C 53.288 109.797, 55.769 115.985, 56.097 115.990 C 56.426 115.996, 57.282 103.625, 58 88.500 C 58.718 73.375, 59.574 61.005, 59.903 61.011 C 60.231 61.017, 62.052 63.717, 63.949 67.012 C 65.846 70.307, 67.685 72.664, 68.036 72.251 C 68.387 71.838, 69.675 65.425, 70.899 58 C 72.122 50.575, 73.331 43.771, 73.587 42.881 C 73.982 41.504, 72.666 41.162, 64.776 40.595 C 59.674 40.228, 53.661 39.679, 51.414 39.375 L 47.327 38.822 45.687 51.161 M 73.291 59.750 L 70.215 77.500 72.919 81.963 C 75.547 86.299, 76.097 86.617, 92.250 93.104 L 108.877 99.782 111.607 92.295 C 113.109 88.177, 114.825 84.624, 115.419 84.401 C 116.014 84.177, 127.038 88.720, 139.917 94.497 C 152.796 100.274, 163.545 104.788, 163.804 104.529 C 164.214 104.119, 169.927 65.670, 169.618 65.395 C 169.553 65.337, 161.400 66.832, 151.500 68.716 C 134.889 71.877, 132.401 72.106, 119.267 71.676 C 105.795 71.234, 104.510 71.364, 95.267 74.087 C 89.895 75.670, 85.215 76.973, 84.867 76.983 C 84.518 76.992, 83.190 69.125, 81.915 59.500 C 79.996 45.015, 79.319 42, 77.982 42 C 76.672 42, 75.787 45.348, 73.291 59.750 M 61.616 75.040 C 60.785 82.855, 58.809 122.143, 59.226 122.560 C 59.574 122.907, 67.096 80.415, 67.026 78.500 C 67.006 77.950, 65.911 75.718, 64.593 73.540 L 62.196 69.581 61.616 75.040 M 65.383 105.250 C 63.156 118.037, 61.414 128.617, 61.511 128.761 C 61.868 129.288, 98.526 124.697, 99.279 124.031 C 100.101 123.304, 108.119 102.779, 107.728 102.404 C 107.602 102.284, 99.973 99.177, 90.774 95.500 C 75.990 89.590, 73.803 88.418, 71.942 85.407 C 70.784 83.533, 69.745 82, 69.634 82 C 69.522 82, 67.609 92.463, 65.383 105.250 M 107.182 112.250 C 105.528 116.787, 103.855 121.306, 103.465 122.290 C 102.812 123.936, 103.271 124.028, 109.128 123.430 L 115.500 122.780 123.016 152.993 L 130.532 183.205 149.266 157.192 C 159.570 142.885, 168 130.949, 168 130.667 C 168 130.385, 165.092 128.122, 161.537 125.637 C 157.186 122.595, 148.084 118.323, 133.678 112.560 C 121.909 107.852, 111.810 104, 111.235 104 C 110.660 104, 108.836 107.713, 107.182 112.250 M 47.217 133.385 C 42.661 133.998, 38.917 134.950, 38.898 135.500 C 38.813 137.873, 51.438 164.966, 52.076 163.782 C 52.456 163.077, 53.743 156.650, 54.935 149.500 C 56.128 142.350, 57.354 135.488, 57.660 134.250 C 58.039 132.717, 57.784 132.043, 56.858 132.135 C 56.111 132.210, 51.772 132.772, 47.217 133.385" stroke="none" fill="black" fill-rule="evenodd"/>
</svg>