<svg xmlns="http://www.w3.org/2000/svg" width="200" height="200" viewBox="0 0 200 200" version="1.1">
	<path d="M 30.910 45.282 C 22.985 64.093, 16.500 79.920, 16.500 80.453 C 16.500 80.987, 21.337 82.925, 27.250 84.761 L 38 88.100 38 93.700 L 38 99.299 28.875 98.652 L 19.751 98.004 20.274 100.752 C 20.561 102.263, 22.500 112.821, 24.583 124.214 C 26.977 137.316, 28.846 145.111, 29.667 145.426 C 30.537 145.759, 31.446 144.200, 32.418 140.712 C 37.080 123.971, 36.914 123.983, 36.697 140.417 L 36.500 155.334 49 162.021 L 61.500 168.709 88.500 172.423 C 103.350 174.465, 128.100 178.082, 143.500 180.460 C 158.900 182.837, 171.787 184.494, 172.138 184.141 C 172.488 183.789, 174.629 167.525, 176.896 148 C 180.236 119.222, 181.298 105.494, 182.504 75.500 C 183.323 55.150, 183.994 35.784, 183.996 32.464 L 184 26.428 157.750 28.664 C 122.167 31.696, 125.600 31.933, 126.345 26.500 C 126.798 23.198, 126.622 22, 125.687 22 C 124.987 22, 119.349 24.036, 113.159 26.524 L 101.904 31.048 82.790 28.524 C 72.278 27.136, 62.898 26, 61.946 26 C 60.633 26, 59.801 27.691, 58.500 33 C 57.557 36.850, 56.459 40, 56.061 40 C 55.663 40, 53.377 33.675, 50.983 25.944 C 48.588 18.214, 46.334 11.707, 45.975 11.484 C 45.615 11.262, 38.836 26.471, 30.910 45.282 M 36.732 38.550 C 31.913 49.964, 28.146 59.479, 28.361 59.694 C 29.133 60.466, 53.262 50.284, 54.066 48.846 C 54.584 47.920, 53.150 41.899, 50.192 32.586 L 45.495 17.796 36.732 38.550 M 114.500 29 L 107.500 31.895 115.250 31.948 C 119.513 31.976, 123.006 31.663, 123.014 31.250 C 123.021 30.837, 123.299 29.488, 123.630 28.250 C 124.421 25.301, 123.201 25.401, 114.500 29 M 60.138 37.250 C 57.437 47.544, 57.431 48.315, 60.059 47.481 C 63.676 46.333, 96.525 33.100, 95.885 33.049 C 95.546 33.022, 88.623 32.100, 80.500 31 C 72.377 29.900, 64.959 29, 64.017 29 C 62.712 29, 61.786 30.968, 60.138 37.250 M 162.250 30.921 C 150.041 31.872, 144 32.721, 144 33.487 C 144 34.116, 148.660 48.871, 154.356 66.275 C 162.993 92.664, 164.352 97.635, 162.545 96.209 C 161.352 95.269, 154.417 89.100, 147.134 82.500 C 139.850 75.900, 133.523 70.369, 133.072 70.209 C 132.622 70.049, 130.113 76.011, 127.496 83.459 C 124.517 91.936, 122.226 97, 121.369 97 C 119.742 97, 119.743 97.024, 121.017 76.065 L 122.017 59.631 114.863 53.065 C 110.928 49.454, 107.141 46.164, 106.447 45.752 C 105.638 45.272, 98.349 50.610, 86.079 60.669 C 70.018 73.836, 67.074 76.658, 67.616 78.365 C 68.640 81.591, 82.234 99.175, 83.024 98.295 C 83.416 97.858, 84.546 95.250, 85.534 92.500 C 86.522 89.750, 87.651 87.128, 88.042 86.673 C 88.434 86.218, 90.848 89.688, 93.407 94.383 C 95.967 99.078, 98.509 103.196, 99.056 103.535 C 101.154 104.831, 110.972 105.268, 112.349 104.126 C 113.407 103.248, 114.005 103.301, 114.877 104.352 C 115.643 105.274, 119.562 105.952, 126.760 106.406 C 132.667 106.778, 139.613 107.344, 142.195 107.663 L 146.890 108.243 152.445 131.039 C 155.500 143.576, 158 154.547, 158 155.417 C 158 159.334, 157.405 158.686, 118.101 112 C 116.943 110.625, 116.213 110.175, 116.478 111 C 116.743 111.825, 119.671 122.552, 122.985 134.837 C 128.521 155.362, 129.301 159.922, 127.034 158.521 C 126.578 158.239, 119.751 146.559, 111.861 132.565 L 97.516 107.121 92.804 106.473 C 90.212 106.117, 87.695 106.070, 87.210 106.370 C 86.725 106.670, 85.017 111.724, 83.414 117.602 C 81.174 125.817, 79.110 130.608, 74.493 138.314 C 68.839 147.748, 66 150.922, 66 147.809 C 66 147.062, 69.150 137.793, 73 127.212 C 76.850 116.631, 80 107.389, 80 106.674 C 80 105.706, 75.714 105.067, 63.250 104.175 C 40.239 102.528, 42.506 102.109, 41.209 108.250 C 40.598 111.138, 39.798 122.520, 39.430 133.543 L 38.760 153.587 50.618 159.850 L 62.476 166.113 84.488 169.076 C 96.595 170.705, 120.675 174.201, 138 176.845 C 155.325 179.489, 169.663 181.530, 169.863 181.380 C 170.062 181.230, 171.976 166.346, 174.116 148.304 C 177.205 122.256, 178.324 107.912, 179.547 78.656 C 180.394 58.392, 180.955 39.042, 180.794 35.656 L 180.500 29.500 162.250 30.921 M 129.392 33.713 C 126.290 34.105, 126.283 34.119, 125.642 41.704 C 124.420 56.158, 124.676 58.316, 127.990 61.490 C 129.634 63.065, 131.139 64.162, 131.335 63.927 C 131.809 63.360, 142 34.384, 142 33.606 C 142 32.974, 134.754 33.035, 129.392 33.713 M 80.695 42.390 C 69.403 46.850, 59.906 50.759, 59.590 51.076 C 59.074 51.593, 65.389 71.722, 66.377 72.710 C 66.600 72.934, 70.770 69.816, 75.642 65.783 C 80.514 61.749, 89.260 54.550, 95.078 49.785 L 105.657 41.123 113.691 48.515 L 121.725 55.908 122.362 49.807 C 122.713 46.452, 122.999 41.635, 122.997 39.103 L 122.994 34.500 112.110 34.390 L 101.225 34.279 80.695 42.390 M 138.184 53.251 C 135.865 59.988, 133.974 65.806, 133.983 66.180 C 134.004 67.041, 158.200 89.134, 158.640 88.693 C 159.061 88.272, 143.964 42.742, 143.074 41.751 C 142.704 41.338, 140.503 46.513, 138.184 53.251 M 54.064 60.069 C 52.826 64.706, 49.899 75.588, 47.561 84.250 C 43.426 99.568, 43.367 100.001, 45.405 100.039 C 46.557 100.061, 54.925 100.691, 64 101.439 C 73.075 102.187, 80.676 102.631, 80.891 102.425 C 81.107 102.219, 77.325 96.781, 72.487 90.341 C 66.770 82.729, 63.583 77.559, 63.380 75.566 C 63.208 73.880, 61.548 67.806, 59.692 62.069 L 56.317 51.639 54.064 60.069 M 38.148 59.329 L 25.795 64.500 22.898 71.349 C 21.304 75.116, 20 78.527, 20 78.929 C 20 79.332, 24.702 81.093, 30.448 82.844 L 40.896 86.028 41.198 91.264 L 41.500 96.500 43.727 88 C 44.952 83.325, 47.497 73.763, 49.383 66.750 C 51.594 58.528, 52.402 54.028, 51.656 54.079 C 51.020 54.122, 44.941 56.485, 38.148 59.329 M 123.766 74.250 C 123.496 80.438, 123.392 85.641, 123.534 85.813 C 123.677 85.985, 125.229 81.815, 126.985 76.545 L 130.177 66.964 127.838 65.015 C 126.552 63.943, 125.220 63.052, 124.878 63.033 C 124.537 63.015, 124.036 68.063, 123.766 74.250 M 87.087 96.104 C 86.411 98.361, 85.637 100.781, 85.369 101.482 C 85.036 102.348, 86.366 102.978, 89.532 103.452 C 92.090 103.836, 94.415 103.918, 94.699 103.634 C 95.152 103.181, 89.276 92, 88.585 92 C 88.437 92, 87.763 93.847, 87.087 96.104 M 23.307 102.598 C 23.604 103.644, 25.084 111.475, 26.596 120 C 28.109 128.525, 29.641 135.850, 30.001 136.278 C 30.833 137.266, 36.751 114.971, 37.620 107.574 L 38.275 102 35.277 102 C 33.628 102, 30.139 101.707, 27.524 101.348 C 23.178 100.752, 22.815 100.860, 23.307 102.598 M 101.160 107.831 C 101.950 109.852, 122.482 145.851, 122.713 145.620 C 122.964 145.369, 113.100 108.714, 112.704 108.427 C 111.740 107.725, 100.900 107.165, 101.160 107.831 M 120.131 109.760 C 120.625 111.060, 153.428 149.882, 153.762 149.561 C 154.220 149.121, 144.936 111.533, 144.203 110.859 C 142.995 109.750, 119.724 108.687, 120.131 109.760 M 77.588 122.525 C 73.372 134.401, 73.537 133.740, 75.351 131.500 C 77.044 129.409, 81.460 116.126, 80.710 115.377 C 80.473 115.140, 79.068 118.356, 77.588 122.525" stroke="none" fill="black" fill-rule="evenodd"/>
</svg>