<svg xmlns="http://www.w3.org/2000/svg" width="200" height="200" viewBox="0 0 200 200" version="1.1">
	<path d="M 31.724 35.750 C 25.912 52.113, 20.848 66.287, 20.471 67.250 C 20.003 68.446, 20.263 69, 21.295 69 C 22.125 69, 23.247 67.763, 23.788 66.250 C 24.328 64.737, 28.693 52.475, 33.486 39 C 38.280 25.525, 42.839 12.964, 43.618 11.086 L 45.035 7.673 104.670 8.322 C 137.469 8.679, 164.559 9.225, 164.869 9.536 C 165.179 9.846, 167.265 23.674, 169.503 40.266 L 173.574 70.431 168.239 98.466 L 162.905 126.500 170.535 145.835 C 174.731 156.469, 177.965 165.368, 177.722 165.611 C 177.479 165.854, 165.603 166.336, 151.330 166.682 L 125.379 167.311 111.264 159.609 L 97.149 151.908 96.613 145.704 C 96.318 142.292, 95.828 132.037, 95.524 122.917 L 94.971 106.333 100.736 106.761 C 103.906 106.997, 108.686 107.484, 111.358 107.845 L 116.216 108.500 126.110 125.500 C 131.551 134.850, 136.678 142.645, 137.502 142.823 C 138.326 143.001, 139 142.884, 139 142.563 C 139 142.242, 136.979 134.705, 134.509 125.814 C 132.039 116.923, 130.127 109.564, 130.259 109.461 C 130.392 109.359, 136.945 109.792, 144.822 110.425 C 157.413 111.437, 161.478 111.145, 159.691 109.358 C 159.411 109.077, 152.503 108.147, 144.341 107.290 C 136.178 106.434, 129.341 105.596, 129.146 105.429 C 128.561 104.927, 121.016 77.621, 121.014 76 C 121.013 74.933, 125.340 73.201, 136 70 C 144.243 67.525, 150.991 65.217, 150.994 64.871 C 150.997 64.525, 149.537 61.802, 147.750 58.819 C 145.401 54.898, 143.146 48.090, 139.614 34.251 L 134.727 15.107 112.756 36.303 L 90.785 57.500 91.461 80.402 L 92.136 103.305 84.400 102.651 C 80.145 102.291, 76.467 101.801, 76.227 101.561 C 75.987 101.321, 76.440 97.286, 77.234 92.594 C 78.519 84.996, 78.500 83.001, 77.067 74.316 L 75.457 64.567 71.479 63.106 C 69.290 62.303, 67.347 61.535, 67.160 61.399 C 66.973 61.264, 73.164 53.368, 80.919 43.853 C 93.946 27.867, 95.858 24.996, 93.633 24.765 C 92.592 24.657, 41.033 54.317, 41.014 55.034 C 41.006 55.328, 45.770 57.136, 51.601 59.052 L 62.201 62.536 50.351 77.215 C 38.689 91.661, 38.495 91.841, 38.193 88.500 C 37.942 85.733, 36.621 83.984, 31.059 79.052 C 24.630 73.352, 22 71.850, 22 73.878 C 22 74.361, 24.925 77.324, 28.500 80.462 C 34.870 86.055, 35 86.269, 35 91.162 C 35 95.929, 34.631 96.608, 26.863 106.108 C 22.388 111.581, 18.902 116.235, 19.116 116.450 C 19.331 116.664, 22.277 116.514, 25.662 116.114 C 35.949 114.901, 35.626 114.403, 36.231 132.423 L 36.755 148.019 47.055 160.759 C 52.719 167.767, 57.499 173.688, 57.677 173.917 C 58.464 174.932, 59.449 171.970, 65.174 151.368 C 68.516 139.341, 71.357 129.375, 71.487 129.222 C 71.616 129.069, 72.910 129.395, 74.361 129.947 L 77 130.950 77 117.846 L 77 104.742 84.250 105.455 C 88.237 105.848, 91.672 106.341, 91.883 106.551 C 92.093 106.761, 92.676 117.392, 93.177 130.177 C 93.678 142.961, 94.180 153.478, 94.294 153.548 C 94.407 153.618, 101.375 157.390, 109.778 161.931 L 125.057 170.187 153.528 169.456 C 169.188 169.054, 182 168.426, 182 168.060 C 182 167.695, 178.361 158.194, 173.914 146.948 L 165.829 126.500 171.083 98.414 L 176.338 70.327 172.168 39.414 C 169.875 22.411, 167.999 7.938, 167.999 7.250 C 168 6.263, 154.763 6, 105.146 6 L 42.291 6 31.724 35.750 M 112.873 39.770 L 93.305 59.500 94.174 81.438 C 94.652 93.504, 95.187 103.521, 95.364 103.697 C 95.540 103.874, 102.468 104.229, 110.759 104.487 L 125.833 104.956 123.828 97.728 C 122.725 93.753, 120.742 86.708, 119.420 82.074 C 118.099 77.440, 117.213 73.454, 117.450 73.216 C 117.688 72.978, 124.303 70.789, 132.150 68.350 C 139.997 65.911, 146.581 63.752, 146.781 63.552 C 146.981 63.353, 145.994 61.367, 144.589 59.141 C 142.981 56.593, 140.493 48.868, 137.877 38.296 C 135.592 29.058, 133.433 21.172, 133.081 20.770 C 132.729 20.369, 123.635 28.919, 112.873 39.770 M 66.687 42.790 L 46.874 54.370 54.687 57.171 C 58.984 58.711, 63.010 59.865, 63.634 59.736 C 64.899 59.473, 88.434 30.939, 87.249 31.105 C 86.837 31.163, 77.584 36.421, 66.687 42.790 M 51.280 80.257 L 38.060 96.500 38.030 105.215 C 38.004 112.677, 38.265 114.071, 39.843 114.916 C 42.399 116.284, 68.242 125.092, 68.612 124.721 C 68.778 124.555, 70.509 115.213, 72.459 103.960 L 76.005 83.500 74.431 74.925 C 72.920 66.694, 72.726 66.303, 69.607 65.175 C 67.820 64.529, 65.940 64.003, 65.429 64.007 C 64.918 64.011, 58.551 71.323, 51.280 80.257 M 29.756 106.773 L 25.012 112.816 30.507 113.158 L 36.003 113.500 35.883 110 C 35.817 108.075, 35.479 105.202, 35.132 103.615 L 34.500 100.730 29.756 106.773 M 120 108.907 C 120 109.775, 132.370 130.964, 132.690 130.644 C 132.857 130.477, 132.360 128.126, 131.586 125.420 C 130.812 122.714, 129.466 117.962, 128.594 114.860 C 127.095 109.531, 126.815 109.197, 123.504 108.811 C 121.577 108.586, 120 108.629, 120 108.907 M 72.645 119.811 C 72.174 123.283, 72.062 126.395, 72.395 126.728 C 73.677 128.011, 74.090 125.995, 73.801 119.866 L 73.500 113.500 72.645 119.811 M 39 132.046 L 39 146.227 48.157 157.696 L 57.313 169.166 62.667 150.333 C 65.612 139.975, 67.904 130.662, 67.760 129.637 C 67.562 128.220, 64.510 126.721, 55.011 123.378 C 48.142 120.961, 41.729 118.731, 40.761 118.424 C 39.136 117.908, 39 118.962, 39 132.046" stroke="none" fill="black" fill-rule="evenodd"/>
</svg>