<svg xmlns="http://www.w3.org/2000/svg" width="200" height="200" viewBox="0 0 200 200" version="1.1">
	<path d="M 156.439 21.653 C 152.073 25.287, 146.544 29.867, 144.154 31.829 L 139.809 35.398 138.003 33.004 L 136.198 30.611 133.510 33.806 C 132.032 35.563, 130.525 36.995, 130.161 36.990 C 129.797 36.984, 126.831 32.685, 123.568 27.437 C 120.306 22.188, 117.313 17.694, 116.917 17.449 C 116.522 17.204, 107.964 32.049, 97.900 50.438 C 87.836 68.827, 79.320 83.698, 78.976 83.485 C 78.631 83.272, 77.520 79.363, 76.506 74.799 C 75.492 70.235, 74.303 66.021, 73.862 65.435 C 73.422 64.849, 67.423 62.641, 60.531 60.529 C 53.639 58.417, 48 56.392, 48 56.029 C 48 55.666, 58.687 52.526, 71.750 49.052 C 84.813 45.578, 96.036 42.454, 96.691 42.111 C 97.346 41.767, 84.999 35.762, 69.253 28.764 C 53.507 21.767, 40.545 16.145, 40.448 16.271 C 40.351 16.397, 34.088 32.405, 26.530 51.845 C 16.786 76.910, 13.100 87.500, 13.858 88.258 C 14.615 89.015, 15.196 88.624, 15.855 86.913 C 29.224 52.217, 41.393 21.330, 41.926 20.743 C 42.616 19.983, 89 39.952, 89 41.010 C 89 41.320, 77.412 44.658, 63.250 48.428 C 49.087 52.198, 37.348 55.409, 37.162 55.563 C 36.976 55.716, 44.683 58.351, 54.287 61.418 L 71.750 66.994 74.309 77.199 C 75.717 82.812, 76.661 87.740, 76.407 88.150 C 76.154 88.561, 68.960 94.766, 60.421 101.940 L 44.895 114.983 41.249 113.460 C 39.244 112.622, 37.543 111.838, 37.471 111.718 C 36.584 110.253, 35.331 89.414, 35.729 82.750 C 36.200 74.851, 36.079 74, 34.482 74 C 32.837 74, 32.749 75.254, 33.227 91.917 C 33.686 107.922, 33.566 109.880, 32.107 110.262 C 30.036 110.803, 20.350 134.750, 21.669 136.069 C 22.223 136.623, 25.253 134.769, 29.342 131.375 C 33.058 128.290, 36.229 125.931, 36.387 126.133 C 36.545 126.335, 37.496 133.765, 38.499 142.645 L 40.324 158.791 57.412 163.250 C 66.810 165.703, 74.629 167.388, 74.787 166.995 C 74.944 166.602, 73.065 158.988, 70.612 150.074 C 66.927 136.689, 66.328 133.357, 67.173 130.934 C 68.383 127.462, 69.332 127.356, 75.500 130 C 78.066 131.100, 80.308 132, 80.482 132 C 80.656 132, 79.517 127.879, 77.951 122.843 C 75.378 114.566, 75.234 113.375, 76.454 110.456 C 77.778 107.288, 77.963 107.211, 86.022 106.498 C 91.527 106.011, 94.458 106.123, 94.901 106.840 C 95.264 107.427, 98.663 120.979, 102.455 136.954 C 106.246 152.929, 109.548 166, 109.793 166 C 110.038 166, 115.722 162.100, 122.426 157.334 L 134.614 148.668 139.522 136.192 L 144.430 123.716 147.968 131.108 C 149.914 135.174, 155.064 145.925, 159.413 155 C 163.761 164.075, 167.454 171.050, 167.619 170.500 C 168.533 167.441, 179.049 90.569, 178.683 89.616 C 178.428 88.952, 169.491 87.221, 157.372 85.487 L 136.500 82.500 147.253 82 L 158.007 81.500 146.107 62.827 L 134.207 44.154 136.617 41.890 C 138.061 40.534, 139.362 40.002, 139.865 40.563 C 140.326 41.078, 147.573 51.738, 155.969 64.250 C 164.365 76.763, 171.605 87, 172.058 87 C 172.511 87, 173.085 86.662, 173.333 86.250 C 173.865 85.363, 165.601 16.267, 164.875 15.542 C 164.602 15.268, 160.806 18.018, 156.439 21.653 M 152.494 28.530 C 147.011 33.149, 142.400 37.301, 142.247 37.758 C 142.095 38.214, 148.277 48.004, 155.985 59.514 C 163.693 71.023, 169.991 79.554, 169.980 78.470 C 169.948 75.383, 163.219 20.886, 162.821 20.487 C 162.625 20.292, 157.978 23.911, 152.494 28.530 M 103.530 45.798 C 96.398 58.834, 89.004 72.412, 87.097 75.972 L 83.630 82.444 91.565 76.021 C 99.591 69.523, 116.977 52.343, 124.068 43.903 L 127.930 39.307 122.980 31.469 C 120.258 27.158, 117.686 23.286, 117.263 22.863 C 116.841 22.441, 110.661 32.762, 103.530 45.798 M 133.652 37.600 C 132.635 38.995, 132.070 40.403, 132.396 40.729 C 133.229 41.562, 137 37.972, 137 36.345 C 137 34.298, 135.703 34.785, 133.652 37.600 M 126.490 45.010 C 124.915 46.655, 124.082 48, 124.639 48 C 125.925 48, 130.508 43.174, 129.848 42.514 C 129.576 42.243, 128.065 43.366, 126.490 45.010 M 118 57.441 C 100.755 72.024, 86.682 87.652, 82.742 96.595 C 81.147 100.215, 80.114 103.447, 80.446 103.779 C 80.971 104.305, 155.922 95.791, 163.250 94.373 C 165.314 93.974, 166 94.235, 166 95.421 C 166 96.289, 165.662 97.012, 165.250 97.027 C 162.265 97.136, 99.773 107.893, 99.284 108.383 C 98.749 108.917, 109.238 155.619, 110.902 160.115 C 111.386 161.422, 113.448 160.372, 121.705 154.615 L 131.911 147.500 137.536 133.500 C 140.630 125.800, 143.494 119.153, 143.901 118.729 C 144.308 118.305, 149.303 127.652, 155 139.500 C 160.697 151.348, 165.665 160.695, 166.041 160.271 C 166.903 159.297, 176.273 91.940, 175.635 91.302 C 175.376 91.043, 161.290 88.847, 144.332 86.421 C 108.715 81.328, 107.781 81.156, 108.233 79.800 C 108.452 79.144, 116.507 78.839, 130.917 78.942 L 153.261 79.102 151.126 75.801 C 149.951 73.985, 145.280 66.556, 140.745 59.291 C 136.210 52.026, 132.275 46.069, 132 46.053 C 131.725 46.038, 125.425 51.162, 118 57.441 M 83.630 86.250 C 80.577 89.138, 77.790 91.558, 77.438 91.629 C 77.086 91.701, 70.288 97.209, 62.331 103.870 C 48.788 115.206, 48.011 116.044, 50.182 116.968 C 51.457 117.511, 55.852 119.256, 59.949 120.846 L 67.397 123.736 69.753 118.652 C 71.939 113.933, 72.060 111.926, 70.417 107.644 C 69.989 106.530, 70.723 105.870, 73.064 105.263 C 75.921 104.523, 76.711 103.484, 79.758 96.462 C 81.658 92.083, 84.832 86.813, 86.810 84.750 C 92.122 79.211, 90.031 80.197, 83.630 86.250 M 29.270 121.193 C 27.493 125.692, 26.187 129.520, 26.366 129.699 C 26.546 129.879, 28.813 128.332, 31.405 126.263 C 35.894 122.678, 36.089 122.315, 35.522 118.595 C 34.310 110.642, 33.265 111.076, 29.270 121.193 M 38 117.629 C 38 119.760, 38.254 119.935, 40 119 C 41.100 118.411, 42 117.548, 42 117.081 C 42 116.615, 41.100 115.998, 40 115.710 C 38.403 115.293, 38 115.680, 38 117.629 M 42.160 120.750 L 38.895 123.500 40.913 139.882 C 42.022 148.892, 43.062 156.396, 43.224 156.557 C 43.386 156.719, 49.702 158.410, 57.259 160.314 C 66.168 162.559, 70.999 163.376, 70.997 162.638 C 70.996 162.012, 69.233 155.209, 67.080 147.520 C 63.414 134.430, 63.256 133.323, 64.596 130.117 C 65.382 128.234, 65.871 126.537, 65.681 126.347 C 65.397 126.064, 45.947 118, 45.547 118 C 45.480 118, 43.955 119.237, 42.160 120.750 M 71.692 121 C 70.195 124.415, 70.218 124.532, 72.667 125.828 C 76.077 127.633, 76.466 126.871, 74.717 121.813 L 73.227 117.500 71.692 121" stroke="none" fill="black" fill-rule="evenodd"/>
</svg>