<svg xmlns="http://www.w3.org/2000/svg" width="200" height="200" viewBox="0 0 200 200" version="1.1">
	<path d="M 121.500 23.189 C 95.185 30.156, 91.123 31.494, 88.432 34.085 L 85.364 37.039 68.932 37.584 C 50.549 38.193, 50.899 38.704, 64.432 31.009 C 68.794 28.529, 72.544 25.938, 72.765 25.250 C 73.287 23.625, 69.165 23.659, 42 25.500 C 30.175 26.302, 19.262 26.967, 17.750 26.979 C 15.902 26.993, 15 27.526, 15 28.604 C 15 29.989, 16.059 30.127, 22.750 29.617 C 44.785 27.936, 64.136 26.803, 64.506 27.172 C 64.735 27.402, 60.452 30.044, 54.988 33.044 C 49.524 36.045, 45.041 39.134, 45.027 39.908 C 45.004 41.093, 48.021 41.211, 64.082 40.652 L 83.164 39.989 78.557 45.382 C 73.496 51.306, 70.423 52.569, 58.321 53.699 C 52.027 54.287, 49.607 55.521, 51.932 56.958 C 52.585 57.362, 56.567 57.471, 60.780 57.200 L 68.440 56.709 61.839 64.104 L 55.238 71.500 48.557 110.500 C 44.881 131.950, 41.672 150.211, 41.424 151.081 C 41.017 152.507, 39.966 152.472, 30.736 150.724 C 25.106 149.658, 20.345 148.641, 20.156 148.465 C 19.966 148.289, 20.325 124.883, 20.953 96.453 C 21.581 68.022, 21.841 44.507, 21.531 44.197 C 21.220 43.887, 20.572 44.053, 20.089 44.567 C 19.261 45.447, 16.588 149.921, 17.373 150.706 C 18.234 151.568, 42.559 155.782, 43.148 155.171 C 43.504 154.802, 46.792 136.950, 50.455 115.500 C 54.118 94.050, 57.426 75.511, 57.807 74.303 C 58.188 73.094, 61.425 68.719, 65 64.579 L 71.500 57.053 83.250 57.027 C 89.713 57.012, 95 57.264, 95 57.587 C 95 57.910, 89.517 67.314, 82.815 78.485 L 70.630 98.795 64.925 100.523 L 59.219 102.250 58.521 127.375 C 58.138 141.194, 57.976 154.912, 58.162 157.861 L 58.500 163.222 72.500 167.432 L 86.500 171.642 94.500 169.839 C 98.900 168.847, 106.480 167.257, 111.344 166.306 L 120.187 164.576 145.594 169.632 C 159.567 172.412, 171.029 174.645, 171.065 174.594 C 171.265 174.308, 180.822 56.488, 180.659 56.325 C 180.551 56.218, 172.821 60.801, 163.481 66.510 L 146.500 76.891 145.771 71.195 C 145.370 68.063, 144.775 62.913, 144.449 59.750 L 143.856 54 122.372 54 L 100.887 54 102.660 50.999 C 103.635 49.348, 105.123 47.800, 105.966 47.559 C 106.810 47.318, 118.075 45.042, 131 42.500 C 158.727 37.048, 158 37.236, 158 35.515 C 158 34.184, 147.602 34.161, 128.504 35.450 C 123.562 35.784, 122.859 35.648, 124.504 34.678 C 125.602 34.031, 132.995 29.901, 140.933 25.501 C 155.119 17.637, 158.554 14.874, 153.833 15.123 C 152.550 15.191, 138 18.821, 121.500 23.189 M 116.707 27.401 C 102.335 31.180, 92.237 34.346, 91.207 35.394 C 89.588 37.040, 90.193 37.093, 103 36.425 L 116.500 35.721 129.250 28.768 C 140.955 22.385, 143.310 20.875, 141.250 21.072 C 140.838 21.111, 129.793 23.959, 116.707 27.401 M 118.732 38.718 C 115.622 39.188, 106.664 43.996, 109 43.941 C 109.825 43.921, 116.575 42.622, 124 41.053 L 137.500 38.201 129.500 38.251 C 125.100 38.278, 120.254 38.488, 118.732 38.718 M 91.414 39.724 C 88.080 40.030, 86.429 41.011, 82.451 45.050 C 79.769 47.772, 78.008 50, 78.538 50.001 C 79.067 50.001, 84.450 49.037, 90.500 47.859 C 98.312 46.338, 102.225 45.072, 104 43.492 C 105.375 42.269, 107.400 40.771, 108.500 40.164 C 110.088 39.288, 108.957 39.091, 103 39.205 C 98.875 39.284, 93.661 39.518, 91.414 39.724 M 86 51.500 L 75.500 53.787 86.715 53.893 C 96.840 53.990, 98.030 53.812, 98.965 52.066 C 100.987 48.287, 100.792 48.278, 86 51.500 M 96.687 60.750 C 95.401 62.813, 89.433 72.723, 83.424 82.773 L 72.500 101.046 67.344 102.676 L 62.189 104.306 61.527 117.403 C 61.163 124.606, 61.008 137.422, 61.183 145.883 L 61.500 161.266 74.147 165.048 L 86.795 168.831 102.958 165.203 L 119.121 161.576 143.589 166.426 C 157.046 169.094, 168.229 171.102, 168.439 170.888 C 168.774 170.548, 177.841 61.787, 177.574 61.319 C 177.517 61.219, 170.502 65.394, 161.985 70.597 C 150.935 77.348, 146.555 80.550, 146.693 81.778 C 146.799 82.725, 147.168 88.675, 147.513 95 L 148.140 106.500 140.570 134.366 C 136.407 149.693, 133 162.405, 133 162.616 C 133 162.827, 132.383 163, 131.629 163 C 130.049 163, 129.820 160.705, 127.382 120.500 C 126.482 105.650, 125.628 93.363, 125.484 93.195 C 125.341 93.027, 118.761 96.852, 110.862 101.695 L 96.500 110.500 101.716 110.801 L 106.933 111.102 110.512 122.173 C 112.480 128.261, 113.930 133.403, 113.734 133.599 C 113.421 133.913, 75.841 124.725, 72.030 123.404 C 71.113 123.086, 73.481 121.172, 78.320 118.320 C 82.588 115.805, 85.862 113.529, 85.596 113.263 C 85.330 112.997, 80.700 112.463, 75.306 112.076 L 65.500 111.373 97 95.843 L 128.500 80.314 128.810 83.657 C 128.981 85.496, 129.293 87, 129.503 87 C 129.713 87, 132.888 85.117, 136.558 82.816 L 143.232 78.631 142.519 68.566 C 142.127 63.030, 141.598 58.163, 141.344 57.750 C 141.090 57.337, 131.464 57, 119.954 57 L 99.025 57 96.687 60.750 M 135.783 86.349 L 129.066 90.500 129.033 96.141 C 129 101.844, 131.871 150.757, 132.334 152.377 C 132.765 153.885, 145.453 105.636, 145.318 103 C 144.777 92.416, 143.702 82.017, 143.157 82.099 C 142.796 82.153, 139.477 84.066, 135.783 86.349 M 100.500 97.304 L 76.500 109.500 84.157 109.790 L 91.813 110.081 108.877 99.790 C 122.779 91.407, 125.947 89.083, 125.971 87.250 C 125.987 86.013, 125.662 85.024, 125.250 85.054 C 124.838 85.083, 113.700 90.596, 100.500 97.304 M 84.588 117.563 C 80.342 120.250, 78.220 122.130, 79.088 122.435 C 82.659 123.692, 109.287 130.046, 109.613 129.720 C 109.816 129.518, 108.840 125.958, 107.445 121.810 L 104.909 114.268 99.705 113.643 C 92.229 112.745, 92.180 112.757, 84.588 117.563" stroke="none" fill="black" fill-rule="evenodd"/>
</svg>