<svg xmlns="http://www.w3.org/2000/svg" width="200" height="200" viewBox="0 0 200 200" version="1.1">
	<path d="M 81.407 6.170 C 82.338 10.633, 85.243 37.091, 84.846 37.487 C 84.396 37.937, 44.648 39.967, 44.234 39.562 C 44.088 39.418, 49.399 36.494, 56.038 33.062 C 62.880 29.526, 67.930 26.321, 67.698 25.662 C 67.446 24.947, 65.211 24.557, 61.894 24.647 C 13.953 25.956, 9 26.243, 9 27.705 C 9 28.982, 11.578 29.101, 27.750 28.568 C 38.063 28.228, 49.875 27.722, 54 27.444 L 61.500 26.937 48.718 33.621 C 41.687 37.298, 36.103 40.800, 36.309 41.403 C 36.748 42.694, 39.047 42.713, 65.750 41.639 L 86 40.824 86 43.865 C 86 47.389, 89.002 46.285, 48.750 57.556 C 33.221 61.904, 24 64.955, 24 65.743 C 24 67.436, 24.300 67.420, 57.930 64.010 C 74.116 62.369, 87.563 61.229, 87.811 61.478 C 88.281 61.948, 83.590 64.165, 58.150 75.499 L 43.021 82.239 42.760 125.620 L 42.500 169.001 31 155.513 L 19.500 142.026 20.663 105.763 C 22.282 55.270, 22.283 51, 20.675 51 C 19.613 51, 19.091 60.128, 18.044 96.970 L 16.738 142.939 22.942 150.220 C 26.355 154.224, 32.601 161.639, 36.823 166.699 C 41.045 171.758, 44.833 175.921, 45.240 175.949 C 45.647 175.977, 46.097 155.224, 46.240 129.831 L 46.500 83.662 68.449 73.910 C 84.453 66.798, 90.606 63.594, 91.167 62.079 C 92.068 59.643, 92.837 59.351, 92.639 61.519 C 92.543 62.571, 101.548 67.344, 121.956 77.058 C 138.156 84.769, 151.575 91.241, 151.774 91.441 C 151.973 91.640, 147.209 107.216, 141.185 126.055 C 132.516 153.172, 130.030 159.910, 129.252 158.403 C 128.711 157.356, 127.068 152.853, 125.601 148.395 C 124.133 143.937, 122.385 139.608, 121.716 138.775 C 121.047 137.943, 116.992 134.658, 112.705 131.476 C 108.418 128.294, 105.268 125.379, 105.705 124.999 C 106.142 124.619, 110.775 122.819, 116 121 C 121.225 119.181, 125.877 117.361, 126.339 116.957 C 126.992 116.385, 125.371 90.098, 124.634 89.312 C 124.537 89.209, 113.087 89.661, 99.190 90.317 C 80.484 91.199, 73.711 91.849, 73.112 92.818 C 72.667 93.539, 70.650 99.706, 68.630 106.524 L 64.958 118.919 70.979 128.307 C 74.291 133.471, 77 138.023, 77 138.422 C 77 138.822, 72.062 144.628, 66.026 151.325 C 59.991 158.021, 55.378 163.595, 55.776 163.712 C 56.174 163.829, 70.419 165.556, 87.430 167.551 L 118.360 171.177 146.356 169.079 C 161.754 167.925, 174.521 166.813, 174.727 166.607 C 174.933 166.401, 175.309 148.742, 175.563 127.366 C 175.816 105.990, 176.212 83.065, 176.442 76.422 L 176.861 64.343 160.761 55.141 C 145.038 46.154, 141.323 44.997, 143.950 49.907 C 145.423 52.658, 146.130 52.493, 124.500 54.470 C 114.600 55.375, 105.713 56.272, 104.750 56.464 C 103.787 56.656, 103 56.661, 103 56.476 C 103 56.290, 107.541 52.282, 113.090 47.569 C 122.878 39.257, 123.333 39, 128.265 39 L 133.349 39 131.127 36.635 L 128.905 34.270 137.033 27.411 C 143.834 21.671, 144.863 20.428, 143.331 19.799 C 142.324 19.385, 128.675 15.861, 113 11.967 C 97.325 8.074, 83.695 4.653, 82.711 4.364 C 81.273 3.943, 81.017 4.298, 81.407 6.170 M 85.367 14.250 C 85.726 17.688, 86.521 24.413, 87.134 29.195 L 88.248 37.891 103.874 37.299 C 112.468 36.974, 120.352 36.402, 121.394 36.029 C 123.386 35.314, 138.837 22.906, 138.940 21.937 C 138.993 21.444, 87.416 8, 85.469 8 C 85.054 8, 85.009 10.813, 85.367 14.250 M 90.250 40.662 C 89.563 40.940, 89 42.263, 89 43.602 C 89 46.364, 88.442 46.412, 101.500 42.520 L 109.500 40.136 100.500 40.147 C 95.550 40.153, 90.938 40.385, 90.250 40.662 M 101.500 45.362 L 90.500 48.518 90.182 52.391 C 89.789 57.172, 90.735 58.203, 94.772 57.396 C 97.179 56.914, 108.638 48.383, 114.917 42.397 C 115.855 41.502, 111.921 42.372, 101.500 45.362 M 63.269 56.262 C 51.592 59.622, 42.142 62.466, 42.269 62.581 C 42.676 62.949, 87.038 58.295, 87.497 57.836 C 88.385 56.948, 86.704 50.002, 85.619 50.076 C 85.004 50.117, 74.946 52.901, 63.269 56.262 M 148.951 52.909 C 149.892 54.666, 149.785 55.003, 148.285 55.019 C 142.309 55.085, 98.909 59.952, 97.557 60.708 C 96.305 61.409, 102.907 64.927, 125.433 75.563 C 144.837 84.726, 154.947 90.014, 154.945 91 C 154.942 91.825, 149.585 109.150, 143.040 129.500 L 131.140 166.500 134.820 166.751 C 136.844 166.889, 145.893 166.439, 154.929 165.751 C 171.237 164.509, 171.362 164.481, 172.036 161.959 C 172.410 160.561, 172.892 138.311, 173.108 112.514 L 173.500 65.610 165 60.731 C 160.325 58.048, 154.550 54.720, 152.166 53.335 C 148.072 50.956, 147.894 50.933, 148.951 52.909 M 100.500 93.040 C 93.900 93.419, 85.539 93.790, 81.920 93.864 L 75.339 94 72.110 104.750 C 70.335 110.662, 68.674 116.221, 68.421 117.101 C 68.166 117.985, 70.862 123.135, 74.432 128.588 C 80.699 138.159, 80.849 138.537, 79.153 140.486 C 78.189 141.594, 73.649 146.676, 69.064 151.781 C 64.479 156.885, 60.902 161.206, 61.114 161.382 C 61.326 161.559, 73.650 163.123, 88.500 164.858 C 114.814 167.932, 128.988 168.769, 129.012 167.250 C 129.018 166.838, 126.943 160.562, 124.400 153.306 L 119.777 140.111 109.331 132.446 C 103.586 128.231, 99.159 124.508, 99.493 124.174 C 99.828 123.839, 105.366 121.708, 111.801 119.437 L 123.500 115.308 123.233 105.904 C 123.087 100.732, 122.741 95.487, 122.464 94.250 C 121.900 91.725, 122.662 91.767, 100.500 93.040" stroke="none" fill="black" fill-rule="evenodd"/>
</svg>