<svg xmlns="http://www.w3.org/2000/svg" width="200" height="200" viewBox="0 0 200 200" version="1.1">
	<path d="M 86.562 3.771 C 86.253 4.080, 86 12.040, 86 21.459 L 86 38.584 69.250 40.807 C 60.037 42.029, 51.808 43.022, 50.963 43.014 C 49.761 43.003, 49.019 40.224, 47.554 30.250 C 45.023 13.025, 44.724 12.339, 42.209 18 C 41.109 20.475, 34.717 33.750, 28.003 47.500 L 15.797 72.500 19.101 129.833 C 21.460 170.754, 22.705 186.753, 23.453 185.722 C 24.029 184.927, 30.800 172.305, 38.500 157.673 C 48.435 138.794, 52.699 131.566, 53.187 132.784 C 53.804 134.326, 59.062 177.630, 59.018 180.809 C 59.008 181.529, 59.438 181.847, 59.974 181.516 C 60.509 181.185, 68.427 169.876, 77.568 156.385 C 86.709 142.893, 94.339 132.006, 94.523 132.189 C 94.707 132.373, 96.054 139.263, 97.517 147.500 C 98.980 155.737, 100.348 162.754, 100.557 163.093 C 100.767 163.432, 107.279 166.320, 115.029 169.512 L 129.120 175.315 137.310 171.942 C 141.814 170.087, 152.454 165.620, 160.953 162.015 L 176.407 155.461 176.230 150.481 C 176.132 147.741, 175.512 122.213, 174.852 93.750 C 174.191 65.287, 173.392 42.009, 173.076 42.021 C 172.759 42.032, 168.584 49.345, 163.799 58.271 C 159.013 67.197, 152.478 79.298, 149.276 85.163 L 143.455 95.827 136.227 91.304 C 132.252 88.816, 129 86.454, 129 86.056 C 129 85.657, 134.431 77.719, 141.069 68.415 L 153.138 51.500 149.819 51.238 C 147.994 51.094, 140.313 51.565, 132.750 52.284 C 119.127 53.580, 119.001 53.573, 119.100 51.546 C 119.316 47.114, 120.732 45.023, 126.500 40.623 C 129.800 38.106, 133.625 35.107, 135 33.958 L 137.500 31.871 130.710 32.519 L 123.920 33.168 124.674 30.334 C 125.089 28.775, 125.445 26.209, 125.464 24.630 C 125.498 21.885, 124.669 21.359, 106.312 12.485 C 95.759 7.383, 86.871 3.462, 86.562 3.771 M 89 22.543 C 89 31.044, 89.324 38, 89.721 38 C 90.919 38, 120.485 33.828, 120.694 33.629 C 120.801 33.528, 121.476 31.245, 122.194 28.556 C 123.141 25.012, 123.192 23.565, 122.379 23.294 C 121.762 23.088, 114 19.357, 105.129 15.002 L 89 7.086 89 22.543 M 31.169 47.397 C 22.593 64.942, 18.992 73.357, 18.972 75.897 C 18.906 84.594, 24.391 174.582, 25.034 175.323 C 25.426 175.776, 31.316 165.545, 38.123 152.587 C 46.160 137.289, 50.995 129.110, 51.911 129.264 C 52.936 129.435, 53.908 126.761, 55.460 119.500 C 57.348 110.667, 58.389 108.216, 64.381 98.501 C 68.111 92.452, 71.301 87.365, 71.469 87.198 C 71.637 87.030, 76.437 88.557, 82.137 90.592 C 91.592 93.968, 93.654 94.333, 105.661 94.759 L 118.822 95.226 121.557 91.093 C 123.062 88.819, 124.114 86.814, 123.896 86.637 C 123.678 86.460, 120.210 84.210, 116.189 81.638 C 110.335 77.894, 108.997 76.584, 109.477 75.072 C 111.035 70.164, 114 58.904, 114 57.896 C 114 56.784, 112.758 56.835, 94.750 58.672 L 89 59.258 89 63.385 L 89 67.511 61.831 82.298 C 45.073 91.418, 34.057 96.851, 33.081 96.475 C 31.729 95.954, 31.790 95.700, 33.500 94.728 C 34.600 94.102, 46.750 87.441, 60.500 79.926 C 85.170 66.442, 85.504 66.216, 85.798 62.837 L 86.096 59.412 56.798 62.098 C 30.794 64.482, 24.095 64.572, 26.157 62.510 C 26.445 62.221, 39.865 59.077, 55.978 55.522 C 72.092 51.967, 85.468 48.865, 85.704 48.629 C 85.940 48.394, 85.990 46.674, 85.816 44.809 L 85.500 41.417 69.500 43.640 C 60.700 44.862, 52.100 45.893, 50.390 45.931 L 47.279 46 45.309 34.250 L 43.339 22.500 31.169 47.397 M 122.476 38.075 C 121.526 41.069, 122.137 41.142, 125.306 38.415 L 128.112 36 125.623 36 C 123.983 36, 122.910 36.707, 122.476 38.075 M 102.500 39.060 C 95.900 40.054, 90.162 40.897, 89.750 40.933 C 88.962 41.003, 88.668 48, 89.453 48 C 90.107 48, 118.476 41.822, 118.626 41.647 C 118.695 41.566, 119.063 40.487, 119.443 39.250 C 120.290 36.494, 119.602 36.486, 102.500 39.060 M 111.500 46.002 C 109.850 46.454, 104.112 47.801, 98.750 48.994 C 89.565 51.038, 89 51.310, 89 53.688 L 89 56.212 98.250 55.496 C 114.832 54.211, 115.247 54.069, 116.649 49.229 C 118.010 44.526, 117.669 44.312, 111.500 46.002 M 69 55.483 C 52.859 59.181, 53.431 59.540, 72.750 57.831 C 85.623 56.693, 86 56.593, 86 54.330 C 86 51.480, 86.679 51.434, 69 55.483 M 152.629 84.643 C 142.866 102.571, 135.078 117.748, 135.323 118.369 C 135.568 118.991, 138.970 123.494, 142.884 128.375 C 146.798 133.256, 150 137.361, 150 137.496 C 150 137.794, 125.647 130.885, 125.154 130.448 C 124.963 130.279, 126.254 127.427, 128.022 124.110 L 131.236 118.080 123.368 108.167 C 115.623 98.409, 115.422 98.244, 110.500 97.636 C 107.750 97.296, 102.481 97.013, 98.791 97.009 C 93.710 97.002, 89.775 96.176, 82.578 93.603 C 75.641 91.124, 72.828 90.516, 72.164 91.353 C 71.663 91.984, 68.768 96.550, 65.729 101.500 C 61.129 108.995, 59.848 112.150, 58.074 120.365 L 55.943 130.229 58.639 152.647 C 60.121 164.977, 61.642 174.713, 62.019 174.283 C 62.750 173.447, 92.147 130.289, 93.310 128.344 C 93.691 127.708, 93.327 123.658, 92.501 119.344 C 90.670 109.774, 90.634 108, 92.274 108 C 93.509 108, 99 121.169, 99 124.131 C 99 124.939, 98.498 126.102, 97.885 126.715 C 96.923 127.677, 99.362 145.051, 102.491 159.538 C 102.826 161.085, 106.065 162.858, 115.947 166.902 C 123.868 170.144, 129.655 171.973, 130.731 171.577 C 131.704 171.219, 141.834 167.022, 153.243 162.252 L 173.986 153.578 173.468 141.039 C 173.183 134.142, 172.501 111.427, 171.952 90.560 C 171.402 69.693, 170.824 52.491, 170.667 52.333 C 170.509 52.176, 162.392 66.715, 152.629 84.643 M 129.079 55.397 C 122.797 56.004, 117.510 56.950, 117.330 57.500 C 117.150 58.050, 115.922 62.426, 114.603 67.225 L 112.203 75.949 118.577 79.975 C 122.083 82.189, 125.327 84, 125.787 84 C 126.713 84, 126.947 83.692, 139.312 66.250 L 147.996 54 144.248 54.147 C 142.186 54.228, 135.360 54.790, 129.079 55.397 M 51.813 59.683 C 52.534 59.972, 53.397 59.936, 53.729 59.604 C 54.061 59.272, 53.471 59.036, 52.417 59.079 C 51.252 59.127, 51.015 59.364, 51.813 59.683 M 124.535 91.587 C 123.603 93.009, 123.049 94.382, 123.304 94.637 C 123.559 94.893, 126.633 94.966, 130.134 94.801 L 136.500 94.500 131.912 91.750 C 129.389 90.237, 127.078 89, 126.777 89 C 126.476 89, 125.467 90.164, 124.535 91.587 M 120 98.871 C 120 100.578, 132.292 115.108, 133.062 114.311 C 133.494 113.865, 135.721 110.013, 138.010 105.750 L 142.174 98 131.087 98 C 124.989 98, 120 98.392, 120 98.871 M 130.989 124.250 C 129.213 127.163, 128.542 129, 129.253 129 C 129.392 129, 132.549 129.870, 136.267 130.933 L 143.028 132.867 138.367 126.933 C 135.803 123.670, 133.540 121, 133.338 121 C 133.136 121, 132.079 122.463, 130.989 124.250" stroke="none" fill="black" fill-rule="evenodd"/>
</svg>