<svg xmlns="http://www.w3.org/2000/svg" width="200" height="200" viewBox="0 0 200 200" version="1.1">
	<path d="M 96.606 9.250 C 95.761 12.138, 93.816 18.718, 92.285 23.873 L 89.500 33.246 77.029 33.068 C 70.169 32.971, 64.364 32.697, 64.127 32.460 C 63.890 32.224, 65.373 29.506, 67.421 26.421 C 69.469 23.336, 70.897 20.564, 70.594 20.261 C 69.753 19.420, 20.841 33.312, 19.326 34.821 C 18.265 35.879, 18 44.897, 18 79.962 L 18 123.780 25.500 157.066 C 29.625 175.374, 33 190.498, 33 190.676 C 33 190.854, 33.625 191, 34.389 191 C 36.129 191, 35.736 193.378, 43.054 138.500 C 46.427 113.200, 49.356 91.938, 49.562 91.251 C 49.805 90.439, 52.705 91.759, 57.844 95.022 L 65.751 100.042 69.542 110.683 C 71.627 116.536, 73.332 121.814, 73.330 122.412 C 73.329 123.011, 69.375 134.659, 64.545 148.298 C 59.714 161.936, 55.928 173.186, 56.131 173.298 C 56.334 173.409, 72.564 173.366, 92.198 173.203 C 124.799 172.931, 127.939 172.757, 128.399 171.203 C 129.187 168.540, 140 112.066, 140 110.613 C 140 109.900, 138.219 108.783, 136.042 108.131 C 131.083 106.645, 130.714 106.030, 132.979 103.028 L 134.802 100.611 141.923 106.437 C 145.840 109.642, 149.221 112.548, 149.436 112.896 C 149.651 113.244, 147.653 129.048, 144.997 148.015 C 139.186 189.502, 139.217 189.204, 140.608 189.687 C 141.218 189.899, 149.503 177.613, 159.018 162.384 L 176.320 134.696 175.035 94.598 C 174.328 72.544, 173.469 50.800, 173.125 46.277 L 172.500 38.055 153.500 66.982 C 143.050 82.891, 134.275 95.925, 134 95.945 C 133.725 95.965, 128.887 92.156, 123.248 87.480 C 114.368 80.117, 113.145 78.741, 114.109 77.198 C 114.720 76.218, 124.643 70.552, 136.160 64.607 C 148.052 58.468, 156.929 53.301, 156.705 52.649 C 156.254 51.334, 156.060 51.344, 130.571 54.002 C 120.160 55.087, 111.453 55.786, 111.221 55.555 C 110.990 55.323, 111.299 53.623, 111.909 51.775 L 113.018 48.417 133.566 43.521 C 144.867 40.828, 154.340 38.258, 154.617 37.810 C 155.748 35.980, 149.085 35, 135.517 35 C 127.622 35, 120.488 34.741, 119.662 34.424 C 118.353 33.921, 118.405 33.137, 120.067 28.306 C 121.115 25.259, 121.749 22.403, 121.476 21.961 C 120.890 21.012, 99.191 4, 98.568 4 C 98.334 4, 97.451 6.362, 96.606 9.250 M 96.239 20.265 C 94.458 26.461, 93 32.101, 93 32.798 C 93 33.763, 95.667 33.998, 104.156 33.783 L 115.313 33.500 117.088 28.273 L 118.863 23.045 109.960 16.023 C 105.064 12.160, 100.702 9, 100.268 9 C 99.834 9, 98.021 14.069, 96.239 20.265 M 50.500 28.036 L 37.500 31.843 45.625 31.921 C 50.094 31.965, 55.120 32.274, 56.794 32.609 C 59.534 33.157, 60.095 32.810, 62.419 29.129 C 65.145 24.810, 65.467 23.929, 64.250 24.115 C 63.837 24.178, 57.650 25.943, 50.500 28.036 M 26.250 34.709 L 21 36.256 21 80.372 L 21 124.488 27.137 151.994 C 30.513 167.122, 33.563 179.828, 33.916 180.229 C 34.269 180.630, 37.448 159.592, 40.982 133.479 C 44.515 107.365, 47.775 86, 48.225 86 C 48.676 86, 53.391 88.906, 58.703 92.459 L 68.361 98.917 72.502 110.709 L 76.644 122.500 68.322 145.946 C 63.745 158.842, 60 169.741, 60 170.167 C 60 170.830, 124.973 170.153, 125.797 169.481 C 126.101 169.234, 137 113.225, 137 111.915 C 137 111.217, 131.564 109, 129.853 109 C 129.386 109, 121.016 120.989, 111.252 135.642 L 93.500 162.284 92.843 147.892 C 92.482 139.976, 91.498 128.554, 90.656 122.509 L 89.126 111.518 94.530 102.952 L 99.934 94.387 93.917 78.444 C 90.607 69.675, 87.584 62.224, 87.199 61.887 C 86.815 61.550, 74.575 62.539, 60 64.084 C 28.574 67.417, 30 67.341, 30 65.675 C 30 64.752, 38.173 62.573, 56.906 58.502 L 83.811 52.655 85.909 45.577 C 87.062 41.685, 88.005 37.938, 88.003 37.250 C 88.001 36.323, 85.048 36, 76.582 36 C 70.302 36, 64.469 35.734, 63.621 35.408 C 62.511 34.982, 60.761 36.876, 57.382 42.158 C 51.621 51.162, 52.155 50.555, 51.017 49.417 C 50.417 48.817, 51.528 46.155, 54.033 42.193 C 56.215 38.743, 58 35.713, 58 35.460 C 58 35.207, 52.600 35, 46 35 C 38.667 35, 34 34.611, 34 34 C 34 32.703, 32.632 32.828, 26.250 34.709 M 91.478 37.197 C 90.356 40.119, 87.071 51.405, 87.282 51.612 C 87.402 51.731, 92.675 50.614, 99 49.130 C 111.135 46.283, 111.402 46.101, 113.459 39.250 C 114.124 37.036, 113.992 37, 105.317 36.986 C 100.468 36.979, 95.493 36.703, 94.262 36.373 C 92.810 35.984, 91.832 36.273, 91.478 37.197 M 115.760 40.617 C 114.654 43.369, 114.534 44.569, 115.350 44.736 C 115.982 44.865, 122.350 43.444, 129.500 41.577 C 141.497 38.444, 142.106 38.175, 137.401 38.091 C 134.596 38.041, 128.931 37.715, 124.811 37.367 L 117.320 36.734 115.760 40.617 M 153.265 72.213 L 136.031 97.925 144.537 105.089 C 152.486 111.782, 153.007 112.457, 152.496 115.376 C 151.113 123.268, 143.030 181.364, 143.280 181.613 C 143.435 181.768, 150.342 171.006, 158.630 157.697 L 173.698 133.500 172.393 98 C 171.676 78.475, 170.956 58.900, 170.794 54.500 L 170.500 46.500 153.265 72.213 M 99 51.805 C 93.225 53.233, 88.377 54.472, 88.226 54.558 C 88.076 54.644, 88.255 55.500, 88.623 56.461 C 89.213 57.996, 90.213 58.127, 96.897 57.541 C 107.141 56.644, 107.516 56.484, 108.743 52.484 C 109.332 50.568, 109.742 49.047, 109.656 49.104 C 109.570 49.162, 104.775 50.377, 99 51.805 M 72.749 57.832 C 66.286 59.207, 61.158 60.491, 61.353 60.686 C 61.548 60.881, 67.173 60.505, 73.853 59.852 C 82.396 59.016, 86 58.286, 86 57.391 C 86 55.220, 84.848 55.258, 72.749 57.832 M 127.500 57.061 C 118.700 58.063, 111.021 58.910, 110.435 58.942 C 109.849 58.974, 108.322 61.969, 107.041 65.597 L 104.712 72.195 107.606 74.560 C 110.418 76.858, 110.545 76.872, 112.087 75.053 C 112.960 74.023, 121.510 69.097, 131.087 64.106 C 141.031 58.924, 147.428 55.076, 146 55.135 C 144.625 55.192, 136.300 56.059, 127.500 57.061 M 97.657 60.058 C 93.893 60.495, 90.705 60.998, 90.573 61.176 C 90.440 61.354, 92.905 68.209, 96.050 76.409 L 101.768 91.319 105.608 85.536 L 109.447 79.753 105.513 76.450 L 101.578 73.146 103.799 66.823 C 106.201 59.986, 106.400 58.930, 105.250 59.131 C 104.838 59.204, 101.421 59.621, 97.657 60.058 M 106.981 88.530 C 104.641 92.121, 102.979 95.312, 103.287 95.621 C 103.864 96.198, 127.077 104.993, 128.034 104.998 C 128.328 104.999, 129.415 103.568, 130.448 101.818 L 132.328 98.637 128.914 95.757 C 119.895 88.149, 112.227 82, 111.756 82 C 111.469 82, 109.320 84.938, 106.981 88.530 M 96.446 105.084 L 91.930 112.130 93.965 127.220 C 95.084 135.519, 96 144.827, 96.001 147.905 L 96.002 153.500 111 131 C 119.249 118.625, 125.999 108.205, 125.999 107.844 C 126 107.483, 124.088 106.519, 121.750 105.701 C 119.412 104.883, 113.779 102.824, 109.232 101.125 L 100.963 98.037 96.446 105.084" stroke="none" fill="black" fill-rule="evenodd"/>
</svg>