<svg xmlns="http://www.w3.org/2000/svg" width="200" height="200" viewBox="0 0 200 200" version="1.1">
	<path d="M 137.500 18.637 C 125.950 20.984, 116.388 22.926, 116.250 22.952 C 116.112 22.978, 116 23.626, 116 24.390 C 116 25.687, 111.132 27.292, 95.739 31.074 C 92.153 31.954, 90.838 32.799, 90.413 34.491 C 89.893 36.561, 88.013 37.106, 66.674 41.370 C 53.928 43.917, 43.084 46.001, 42.575 46.001 C 42.066 46, 48.951 40.532, 57.874 33.849 C 68.920 25.576, 73.772 21.372, 73.076 20.676 C 72.380 19.980, 66.418 23.938, 54.391 33.077 C 44.677 40.460, 36.231 46.819, 35.623 47.208 C 34.817 47.724, 34.822 48.222, 35.640 49.040 C 36.471 49.871, 43.346 48.842, 62.054 45.088 C 75.964 42.296, 87.493 40.160, 87.674 40.340 C 88.324 40.990, 82.610 55.211, 81.568 55.536 C 80.980 55.720, 71.612 56.174, 60.750 56.544 C 46.282 57.038, 41 57.544, 41 58.434 C 41 59.235, 45.010 60.159, 52.750 61.141 C 63.878 62.553, 64.912 62.529, 72.284 60.684 C 76.566 59.612, 80.272 58.939, 80.521 59.187 C 80.769 59.436, 78.783 65.346, 76.107 72.320 C 70.628 86.602, 64.006 96, 59.423 96 C 57.373 96, 57 96.484, 57 99.142 C 57 101.397, 55.775 103.727, 52.664 107.392 C 50.279 110.201, 47.642 113.625, 46.804 115 C 45.966 116.375, 41.987 132.232, 37.961 150.238 C 33.936 168.244, 30.506 182.839, 30.338 182.671 C 30.170 182.504, 28 168.551, 25.516 151.667 L 21 120.967 21.002 80.734 L 21.004 40.500 40.314 33.675 C 61.207 26.291, 62.431 25.753, 61.872 24.195 C 61.658 23.598, 52.389 26.429, 40 30.876 L 18.500 38.592 18.182 77.546 L 17.864 116.500 23.155 154.229 C 26.839 180.494, 28.847 192.111, 29.762 192.462 C 31.427 193.101, 30.528 196.460, 40.045 154 C 48.107 118.030, 48.284 117.424, 52.234 112.250 C 54.439 109.362, 56.557 107, 56.942 107 C 57.326 107, 58.462 120.612, 59.467 137.250 C 60.472 153.887, 61.565 167.767, 61.897 168.093 C 62.229 168.419, 75.709 166.954, 91.854 164.837 L 121.208 160.990 146.704 167.562 C 160.726 171.177, 172.397 173.936, 172.640 173.694 C 172.882 173.451, 173.175 138.883, 173.290 96.876 C 173.461 34.537, 173.260 20.500, 172.192 20.500 C 171.473 20.500, 166.747 28.150, 161.689 37.500 L 152.494 54.500 147.997 55.176 C 145.524 55.548, 135.105 55.885, 124.844 55.926 C 107.216 55.996, 106.214 55.899, 106.667 54.164 C 107.054 52.685, 110.686 51.490, 125.324 48.025 C 135.321 45.658, 143.844 43.418, 144.264 43.047 C 144.684 42.676, 138.539 39.741, 130.607 36.526 C 121.486 32.829, 116.355 30.240, 116.645 29.481 C 116.899 28.822, 126.194 25.896, 137.303 22.979 C 148.411 20.063, 157.888 17.339, 158.363 16.926 C 161.232 14.428, 156.165 14.844, 137.500 18.637 M 163.113 40.629 C 157.703 50.578, 156.061 54.420, 156.979 54.987 C 157.878 55.542, 157.232 56.713, 154.694 59.131 C 151.707 61.975, 139 83.569, 139 85.800 C 139 86.199, 141.925 87.363, 145.500 88.386 C 149.632 89.570, 152 90.773, 152 91.689 C 152 94.646, 137.753 156.539, 136.853 157.492 C 135.134 159.311, 134.401 156.256, 131.029 133.230 C 129.198 120.729, 127.430 109.972, 127.100 109.326 C 126.770 108.680, 121.160 118.040, 114.633 130.126 C 108.107 142.212, 102.649 151.965, 102.506 151.800 C 101.956 151.168, 94 123.172, 94 121.870 C 94 121.116, 97.618 114.930, 102.041 108.123 C 106.463 101.317, 109.912 95.579, 109.706 95.372 C 109.499 95.166, 99.243 95.719, 86.915 96.601 C 66.411 98.067, 64.307 98.390, 62.236 100.389 L 59.972 102.574 62.020 133.537 C 63.147 150.567, 64.165 164.753, 64.284 165.063 C 64.403 165.373, 77.208 163.956, 92.739 161.914 L 120.978 158.201 145.379 164.360 L 169.781 170.519 170.455 139.510 C 170.825 122.454, 170.987 90.173, 170.814 67.773 L 170.500 27.045 163.113 40.629 M 104.500 31.589 C 93.620 34.542, 92.574 34.908, 93.208 35.541 C 93.622 35.955, 102.156 34.472, 110.640 32.512 C 111.817 32.240, 113.040 31.338, 113.358 30.509 C 113.677 29.679, 113.839 29.033, 113.719 29.073 C 113.598 29.114, 109.450 30.246, 104.500 31.589 M 115.478 34.765 C 114.456 35.500, 108.780 48.113, 109.256 48.590 C 109.395 48.729, 115.582 47.392, 123.004 45.620 C 138.181 41.996, 138.102 42.403, 124.654 37.061 C 115.894 33.581, 116.807 33.810, 115.478 34.765 M 98.463 37.729 L 91.426 39.175 88.760 46.588 C 85.658 55.213, 85.250 54.959, 97.308 51.934 L 105.545 49.869 107.882 44.184 C 109.168 41.058, 110.444 37.938, 110.717 37.250 C 111.347 35.665, 107.839 35.802, 98.463 37.729 M 98 54.533 L 93.500 55.870 98.422 55.685 C 101.329 55.576, 103.512 54.988, 103.755 54.250 C 104.242 52.770, 103.872 52.789, 98 54.533 M 115.525 58.948 L 104.550 59.500 101.706 66.348 C 100.142 70.114, 99.006 73.295, 99.181 73.418 C 99.356 73.540, 105.125 75.435, 112 77.628 L 124.500 81.616 137.250 70.607 C 144.262 64.552, 150 59.238, 150 58.799 C 150 57.955, 133.872 58.024, 115.525 58.948 M 62.813 59.683 C 63.534 59.972, 64.397 59.936, 64.729 59.604 C 65.061 59.272, 64.471 59.036, 63.417 59.079 C 62.252 59.127, 62.015 59.364, 62.813 59.683 M 80.444 68.750 C 74.862 83.417, 73.560 86.138, 70.040 90.500 C 67.483 93.667, 67.140 94.567, 68.390 94.820 C 69.258 94.997, 79.498 94.429, 91.145 93.559 L 112.321 91.978 116.661 88.422 C 119.047 86.466, 121 84.546, 121 84.154 C 121 83.763, 115.175 81.520, 108.055 79.170 L 95.110 74.898 98.462 66.949 L 101.815 59 92.985 59 L 84.155 59 80.444 68.750 M 136.087 75.217 L 127.674 82.424 130.968 83.769 C 132.780 84.508, 134.766 84.908, 135.382 84.657 C 136.382 84.248, 145.594 67.993, 144.818 68.005 C 144.643 68.007, 140.714 71.253, 136.087 75.217 M 121.250 88.015 C 119.463 89.641, 118 91.119, 118 91.299 C 118 91.479, 120.138 91.597, 122.750 91.563 C 127.431 91.501, 127.507 91.551, 128.002 95 L 128.504 98.500 131.252 93.624 C 132.763 90.942, 134 88.408, 134 87.993 C 134 87.404, 126.215 84.895, 124.807 85.029 C 124.638 85.045, 123.037 86.389, 121.250 88.015 M 135.757 91.250 C 134.947 92.487, 133.157 95.750, 131.779 98.500 L 129.274 103.500 132.574 125.310 C 134.389 137.306, 136.027 147.580, 136.214 148.142 C 136.401 148.703, 139.404 136.501, 142.888 121.025 C 146.371 105.550, 149.059 92.753, 148.861 92.589 C 148.323 92.143, 138.756 89, 137.937 89 C 137.548 89, 136.567 90.013, 135.757 91.250 M 115.500 94.718 C 114.257 94.995, 110.311 100.123, 105.076 108.266 L 96.652 121.368 98.472 128.434 C 99.473 132.320, 101.015 137.628, 101.899 140.228 L 103.506 144.957 114.753 124.150 C 125.577 104.125, 126.694 101.191, 125.370 96.250 C 124.875 94.404, 124.115 94.024, 121.133 94.136 C 119.135 94.211, 116.600 94.473, 115.500 94.718" stroke="none" fill="black" fill-rule="evenodd"/>
</svg>