<svg xmlns="http://www.w3.org/2000/svg" width="200" height="200" viewBox="0 0 200 200" version="1.1">
	<path d="M 138.534 19.045 L 133.727 26.997 108.614 26.478 C 94.801 26.192, 80.297 25.753, 76.383 25.503 C 67.926 24.962, 69.272 23.775, 58.244 41.500 L 50.155 54.500 42.578 80.985 C 38.410 95.551, 35 108.039, 35 108.735 C 35 109.568, 36.538 110, 39.500 110 C 42.441 110, 43.995 110.433, 43.985 111.250 C 43.976 111.938, 42.244 122.763, 40.134 135.308 L 36.299 158.115 38.752 170.308 C 40.102 177.013, 41.351 182.654, 41.529 182.842 C 41.828 183.160, 92.949 159.583, 102.981 154.500 L 107.462 152.230 102.981 149.555 C 100.516 148.083, 93.628 144.051, 87.673 140.593 L 76.846 134.306 87.673 125.238 C 93.628 120.251, 98.812 116.470, 99.194 116.835 C 99.575 117.201, 107.161 130.775, 116.052 147 C 124.942 163.225, 132.583 176.893, 133.032 177.374 C 133.774 178.169, 188.689 165.725, 191.810 164.054 C 192.559 163.653, 181.325 159.157, 165.577 153.554 C 150.428 148.165, 138.256 143.396, 138.528 142.955 C 138.800 142.515, 145.117 138.407, 152.566 133.827 L 166.110 125.500 174.077 111.606 C 178.459 103.964, 181.885 97.552, 181.690 97.357 C 181.495 97.162, 172.645 98.137, 162.023 99.523 C 151.401 100.909, 142.494 101.827, 142.231 101.564 C 141.967 101.300, 142.331 95.888, 143.039 89.537 L 144.326 77.989 147.913 77.064 C 149.886 76.555, 153.521 75.756, 155.992 75.289 C 159.056 74.710, 160.592 73.881, 160.823 72.681 C 161.087 71.308, 160.650 71.028, 158.831 71.408 C 157.549 71.676, 153.868 72.181, 150.652 72.532 L 144.804 73.168 145.349 70.334 C 145.649 68.775, 146.185 65.138, 146.541 62.250 L 147.188 57 151.969 57 C 159.114 57, 162.950 56.033, 162.319 54.390 C 161.935 53.388, 159.847 53, 154.844 53 L 147.901 53 148.123 48.135 C 148.266 45.013, 147.508 41.033, 146.008 37.022 L 143.671 30.773 139.586 31.311 C 137.339 31.607, 122 33.268, 105.500 35.002 C 76.097 38.092, 69.772 39.204, 71.598 40.966 C 73.173 42.487, 111.288 55.162, 116.500 55.899 C 120.795 56.506, 119.737 56.712, 109 57.356 C 88.620 58.579, 90.656 57.345, 87.980 70.096 C 86.719 76.105, 85.948 81.281, 86.266 81.600 C 86.585 81.918, 95.416 81.239, 105.891 80.089 C 128.576 77.601, 131.841 77.563, 122.500 79.896 C 113.311 82.190, 72 99.814, 72 101.440 C 72 102.811, 80.989 103.441, 117.750 104.647 C 140.978 105.408, 138.661 103.929, 136.975 116.922 C 136.445 121.005, 136.175 124.508, 136.374 124.707 C 136.573 124.907, 140.428 120.713, 144.940 115.389 C 151.042 108.188, 152.806 105.492, 151.822 104.869 C 151.095 104.408, 150.725 103.993, 151 103.946 C 156.230 103.066, 177 100.507, 177 100.743 C 177 100.922, 174.097 106.116, 170.550 112.284 L 164.099 123.500 148.050 133.393 C 139.222 138.835, 132 143.568, 132 143.911 C 132 144.255, 143.270 148.541, 157.045 153.436 C 170.820 158.331, 182.271 162.630, 182.493 162.988 C 182.907 163.658, 135.116 175.491, 134.572 174.854 C 134.406 174.659, 126.743 160.775, 117.543 144 C 108.343 127.225, 100.500 113.165, 100.114 112.755 C 99.607 112.218, 80.190 127.345, 72.188 134.511 C 72.017 134.664, 78.430 138.530, 86.438 143.101 C 94.447 147.673, 101 151.668, 101 151.980 C 101 152.657, 43.955 179.299, 43.517 178.827 C 43.350 178.647, 42.288 173.938, 41.158 168.362 L 39.103 158.224 43.037 134.862 C 45.202 122.013, 46.978 110.487, 46.986 109.250 C 46.999 107.243, 46.507 107, 42.433 107 C 38.234 107, 37.920 106.829, 38.538 104.880 C 38.908 103.714, 42.254 92.127, 45.974 79.130 L 52.738 55.500 61.231 42 L 69.725 28.500 77.112 28.519 C 81.176 28.530, 95.926 28.755, 109.892 29.019 L 135.283 29.500 140.142 21.672 C 145.140 13.619, 145.594 12.485, 144.171 11.606 C 143.715 11.324, 141.178 14.671, 138.534 19.045 M 109 37.479 C 93.325 39.295, 80.275 40.865, 80 40.968 C 79.725 41.070, 87.365 43.820, 96.978 47.077 L 114.457 53 129.597 53 L 144.737 53 145.283 48.928 C 145.629 46.346, 145.187 42.961, 144.075 39.678 C 142.648 35.463, 141.874 34.470, 139.911 34.339 C 138.585 34.250, 124.675 35.663, 109 37.479 M 112.573 59.891 L 92.646 61.500 90.837 69.931 C 89.842 74.567, 89.180 78.514, 89.367 78.700 C 89.553 78.887, 101.288 77.799, 115.445 76.283 C 135.409 74.144, 141.358 73.187, 141.960 72.013 C 142.387 71.181, 143.043 67.688, 143.418 64.250 L 144.099 58 138.300 58.141 C 135.110 58.219, 123.533 59.007, 112.573 59.891 M 130.813 77.683 C 131.534 77.972, 132.397 77.936, 132.729 77.604 C 133.061 77.272, 132.471 77.036, 131.417 77.079 C 130.252 77.127, 130.015 77.364, 130.813 77.683 M 127.633 81.526 C 117.774 83.828, 80.406 98.735, 81.565 99.903 C 82.360 100.704, 137.320 102.818, 138.161 102.080 C 138.525 101.761, 139.455 96.438, 140.228 90.250 C 141.878 77.041, 143.127 77.907, 127.633 81.526 M 143.372 104.690 C 141.653 105.027, 141.114 106.083, 140.572 110.170 C 140.202 112.955, 140.084 115.417, 140.308 115.641 C 140.754 116.088, 150 105.546, 150 104.591 C 150 103.959, 146.856 104.006, 143.372 104.690" stroke="none" fill="black" fill-rule="evenodd"/>
</svg>