<svg xmlns="http://www.w3.org/2000/svg" width="200" height="200" viewBox="0 0 200 200" version="1.1">
	<path d="M 72.991 10.769 C 72.986 11.171, 74.167 16.614, 75.615 22.864 C 77.804 32.308, 78.016 34.375, 76.874 35.099 C 75.485 35.979, 54 36.392, 54 35.539 C 54 35.285, 54.913 31.162, 56.029 26.376 C 57.145 21.590, 57.932 17.348, 57.779 16.951 C 57.626 16.553, 48.686 22.230, 37.913 29.566 L 18.326 42.905 17.639 85.703 L 16.952 128.500 27.718 157.250 C 33.639 173.062, 39.022 186, 39.681 186 C 41.397 186, 41.762 181.720, 43.527 141 C 44.398 120.925, 45.317 103.109, 45.570 101.409 C 46.010 98.457, 47.027 97.849, 68.097 87.932 C 80.233 82.219, 90.313 77.303, 90.496 77.007 C 90.679 76.710, 89.940 72.715, 88.854 68.128 C 87.767 63.541, 87.091 59.576, 87.350 59.316 C 87.610 59.057, 93.023 59.165, 99.380 59.556 L 110.937 60.268 119.496 66.223 L 128.055 72.179 118.778 82.167 C 113.675 87.660, 107.323 94.482, 104.661 97.327 L 99.823 102.500 104.462 95.750 C 107.013 92.037, 108.609 89, 108.007 89 C 106.624 89, 52.864 101.785, 52.521 102.196 C 52.100 102.699, 59.561 154.895, 60.136 155.469 C 60.428 155.761, 65.092 154.201, 70.499 152 C 75.907 149.800, 80.834 148, 81.449 148 C 82.065 148, 88.403 153.171, 95.534 159.490 C 102.665 165.810, 108.769 170.985, 109.098 170.990 C 109.715 171, 140 125.866, 140 124.937 C 140 124.651, 136.145 117.235, 131.433 108.458 L 122.865 92.500 129.683 86.259 C 133.432 82.826, 136.726 80.014, 137.002 80.009 C 137.278 80.004, 139.457 94.512, 141.844 112.250 C 145.963 142.851, 146.497 145.535, 152.295 164.750 C 158.199 184.316, 160.215 188.268, 161.476 182.750 C 161.759 181.513, 165.132 163.586, 168.972 142.912 L 175.954 105.325 174.938 64.456 C 174.379 41.979, 173.827 23.498, 173.711 23.388 C 173.520 23.206, 161.409 36.152, 145.500 53.541 L 139.500 60.100 125.641 58.943 C 111.970 57.801, 111.708 57.734, 106.319 53.958 L 100.856 50.131 117.678 44.666 C 136.637 38.507, 139.068 36.594, 129.308 35.518 C 126.114 35.165, 122.892 34.792, 122.148 34.688 C 121.405 34.585, 128.310 31.350, 137.493 27.500 C 152.342 21.274, 156.308 18.975, 154.799 17.465 C 154.552 17.218, 137.959 15.673, 117.925 14.031 C 97.891 12.389, 79.588 10.818, 77.250 10.542 C 74.912 10.265, 72.996 10.367, 72.991 10.769 M 77.652 19.282 C 78.454 22.702, 79.573 27.637, 80.138 30.250 L 81.166 35 97.006 35 L 112.847 35 129.674 27.841 C 147.471 20.269, 149.828 19, 146.096 19 C 143.443 19, 86.584 14.291, 80.346 13.555 L 76.192 13.065 77.652 19.282 M 37.500 33.046 L 21.500 43.895 20.872 57.698 C 20.527 65.289, 20.183 84.325, 20.109 100 L 19.974 128.500 29.233 153.263 C 34.325 166.883, 38.596 177.683, 38.723 177.263 C 38.851 176.844, 39.860 158.753, 40.966 137.061 C 42.072 115.370, 43.320 97.282, 43.739 96.865 C 44.157 96.448, 53.943 91.604, 65.484 86.101 C 77.026 80.597, 86.647 75.559, 86.865 74.905 C 87.083 74.250, 86.454 70.179, 85.467 65.857 L 83.673 58 79.876 58 C 77.788 58, 68.540 60.454, 59.326 63.453 C 50.112 66.453, 42.396 68.730, 42.179 68.513 C 41.963 68.296, 43.265 65.532, 45.074 62.370 C 46.883 59.208, 47.897 56.466, 47.328 56.276 C 46.656 56.052, 46.941 53.215, 48.138 48.215 C 50.763 37.247, 50.979 37.754, 43.847 38.154 C 39.560 38.395, 37.563 38.121, 37.263 37.250 C 36.946 36.327, 38.684 36, 43.898 36 C 50.787 36, 50.977 35.932, 51.581 33.250 C 51.922 31.738, 52.635 28.767, 53.166 26.649 C 53.697 24.531, 53.989 22.663, 53.816 22.498 C 53.642 22.333, 46.300 27.080, 37.500 33.046 M 157.144 44.921 C 149.862 52.684, 144.177 59.477, 144.511 60.018 C 144.845 60.558, 147.904 61.008, 151.309 61.017 L 157.500 61.035 148.668 69.267 L 139.837 77.500 144.432 110.972 C 148.576 141.150, 149.521 146.063, 154.036 160.910 C 156.790 169.967, 159.166 177.500, 159.317 177.650 C 159.467 177.800, 162.621 161.628, 166.325 141.712 L 173.060 105.500 172.384 70 C 172.011 50.475, 171.409 33.669, 171.046 32.654 C 170.506 31.146, 167.959 33.393, 157.144 44.921 M 51.672 45.145 C 50.729 49.075, 50.079 52.410, 50.228 52.556 C 50.378 52.703, 56.407 53.322, 63.626 53.934 C 80.138 55.332, 82.537 54.705, 81.633 49.228 C 81.294 47.177, 80.542 43.813, 79.962 41.750 L 78.906 38 66.146 38 L 53.387 38 51.672 45.145 M 82.345 39.750 C 82.609 40.712, 83.366 43.891, 84.028 46.813 C 84.933 50.815, 85.594 51.986, 86.708 51.559 C 87.521 51.247, 89.269 50.720, 90.593 50.387 C 93.569 49.640, 93.637 48.667, 90.842 46.811 C 88.784 45.445, 89.071 45.211, 97.092 41.721 L 105.500 38.063 93.683 38.032 C 82.903 38.003, 81.907 38.154, 82.345 39.750 M 103.760 41.794 C 98.953 43.832, 95.016 45.807, 95.010 46.183 C 94.978 48.299, 100.107 47.423, 113.500 43.025 L 128.500 38.098 120.500 38.093 C 113.504 38.088, 111.403 38.552, 103.760 41.794 M 91.821 52.828 C 89.247 53.747, 86.869 54.778, 86.536 55.118 C 86.203 55.458, 90.034 56.058, 95.050 56.450 C 100.066 56.842, 104.366 56.968, 104.605 56.728 C 104.994 56.339, 97.436 50.888, 96.771 51.078 C 96.622 51.120, 94.394 51.908, 91.821 52.828 M 49.642 59.624 C 48.692 61.617, 48.060 63.394, 48.239 63.572 C 48.418 63.751, 53.275 62.424, 59.032 60.624 L 69.500 57.350 63.103 56.675 C 52.003 55.504, 51.561 55.600, 49.642 59.624 M 123.352 65.572 L 130.205 70.179 133.020 66.840 C 134.569 65.003, 135.535 63.220, 135.168 62.878 C 134.800 62.535, 130.450 61.965, 125.500 61.610 L 116.500 60.965 123.352 65.572 M 136.703 66.792 C 134.666 68.878, 133 70.892, 133 71.269 C 133 71.646, 134.109 72.680, 135.463 73.568 C 137.870 75.145, 138.065 75.061, 143.942 69.887 C 150.383 64.218, 150.384 63.043, 143.953 63.015 C 141.154 63.003, 139.625 63.800, 136.703 66.792 M 110.951 94.750 C 100.343 106.162, 90.620 116.609, 89.345 117.964 C 87.818 119.587, 86.690 120.090, 86.039 119.439 C 85.388 118.788, 88.103 114.108, 93.996 105.725 C 98.916 98.726, 102.758 93, 102.533 93 C 101.774 93, 55.603 104.063, 55.446 104.283 C 55.160 104.682, 61.949 151.283, 62.352 151.686 C 62.571 151.904, 67.193 150.302, 72.625 148.127 L 82.500 144.171 85.500 146.882 C 104.080 163.674, 107.908 166.992, 108.644 166.939 C 109.115 166.906, 115.708 157.405, 123.296 145.827 L 137.092 124.775 128.546 108.856 C 123.846 100.101, 119.986 92.614, 119.969 92.219 C 119.952 91.823, 123.439 88.265, 127.719 84.311 C 135.231 77.370, 135.431 77.068, 133.500 75.592 C 132.400 74.752, 131.216 74.049, 130.870 74.032 C 130.523 74.014, 121.560 83.338, 110.951 94.750" stroke="none" fill="black" fill-rule="evenodd"/>
</svg>