<svg xmlns="http://www.w3.org/2000/svg" width="200" height="200" viewBox="0 0 200 200" version="1.1">
	<path d="M 72 8.947 C 72 9.288, 74.475 15.041, 77.500 21.732 C 80.525 28.423, 83 34.033, 83.001 34.199 C 83.002 34.651, 64.262 34.059, 58.250 33.417 L 53 32.856 53 27.928 C 53 25.218, 52.550 23, 52 23 C 51.450 23, 51 25.067, 51 27.594 C 51 31.346, 50.634 32.283, 49 32.710 C 46.590 33.341, 46.605 33.105, 48.685 37.466 C 50.644 41.573, 53 42.136, 53 38.496 L 53 35.993 67.750 36.580 C 75.862 36.903, 83.030 37.328, 83.677 37.524 C 84.762 37.853, 89 46.231, 89 48.047 C 89 48.483, 86.862 49.523, 84.250 50.359 C 35.832 65.848, 32 67.185, 32 68.594 C 32 69.727, 32.790 69.959, 35.250 69.550 C 42.816 68.292, 68.579 65.005, 70.457 65.058 C 71.580 65.090, 66.941 67.312, 60.146 69.995 C 53.351 72.679, 47.569 75.098, 47.297 75.370 C 47.024 75.643, 46.231 92.786, 45.534 113.466 C 44.837 134.147, 44.094 151.211, 43.883 151.388 C 43.672 151.565, 38.589 154.984, 32.587 158.987 L 21.673 166.264 22.371 88.132 C 22.995 18.265, 22.907 10, 21.534 10 C 20.199 10, 20 13.027, 20 33.335 C 20 46.170, 19.701 82.429, 19.335 113.912 L 18.671 171.154 32.690 162.061 L 46.710 152.967 47.337 140.734 C 47.682 134.005, 48.264 116.942, 48.631 102.816 L 49.297 77.132 68.898 69.687 C 79.679 65.592, 90.470 61.998, 92.878 61.699 C 96.471 61.253, 99.688 62.046, 110.841 66.125 C 118.313 68.857, 124.544 71.211, 124.687 71.354 C 125.003 71.670, 111.489 93.911, 110.194 95.206 C 109.640 95.760, 103.228 92.943, 93.958 88.075 C 85.532 83.650, 78.560 80.135, 78.466 80.265 C 77.874 81.077, 53.268 157.563, 53.514 157.826 C 53.682 158.005, 61.046 155.418, 69.880 152.076 C 78.714 148.734, 86.292 146.009, 86.721 146.020 C 87.149 146.032, 90.512 150.194, 94.192 155.270 L 100.885 164.500 129.511 175.848 C 145.255 182.090, 158.296 187.037, 158.491 186.842 C 158.686 186.647, 162.543 172.090, 167.061 154.494 L 175.277 122.500 174.037 79.500 C 173.355 55.850, 172.584 36.279, 172.323 36.008 C 172.063 35.738, 171.453 36.188, 170.968 37.008 C 170.483 37.829, 163.845 46.375, 156.218 56 C 140.926 75.298, 141.386 74.994, 132.994 71.323 L 128.828 69.500 139.514 61.649 C 146.864 56.249, 149.876 53.476, 149.166 52.766 C 148.455 52.055, 140.700 52.712, 124.316 54.871 C 111.217 56.597, 99.728 58.007, 98.785 58.005 C 97.842 58.002, 96.595 57.112, 96.015 56.028 C 95.106 54.329, 95.513 53.689, 98.949 51.415 C 102.438 49.106, 106.178 48.290, 128.720 44.917 C 142.899 42.796, 155.287 41.047, 156.250 41.030 C 157.213 41.014, 158 40.389, 158 39.642 C 158 38.029, 150.156 37.034, 136.603 36.930 C 122.307 36.819, 122.305 36.556, 136.516 27.550 C 143.395 23.190, 148.681 19.330, 148.262 18.971 C 147.843 18.613, 136.250 16.831, 122.500 15.013 C 108.750 13.194, 91.763 10.946, 84.750 10.016 C 77.737 9.087, 72 8.606, 72 8.947 M 81.283 23.370 L 86.411 34.740 102.235 35.449 L 118.060 36.158 130.207 28.367 L 142.355 20.576 111.427 16.329 C 94.417 13.993, 79.522 12.063, 78.328 12.041 C 76.276 12.002, 76.440 12.631, 81.283 23.370 M 89.577 41.750 C 90.460 43.813, 91.389 45.997, 91.642 46.604 C 92.418 48.467, 101.963 46.134, 107.776 42.660 C 112.572 39.795, 112.852 39.439, 110.783 38.850 C 109.527 38.492, 103.881 38.155, 98.237 38.100 L 87.973 38 89.577 41.750 M 114 42.098 C 110.537 44.476, 110.076 45.069, 112 44.674 C 113.375 44.391, 120.350 43.336, 127.500 42.330 C 139.713 40.611, 140.197 40.460, 135.500 39.838 C 132.750 39.473, 127.800 39.138, 124.500 39.092 C 119.357 39.020, 117.858 39.450, 114 42.098 M 156.467 59.964 L 143.434 76.647 145.683 112.073 C 146.921 131.558, 147.737 148.063, 147.498 148.750 C 146.655 151.173, 145.253 149.949, 143.488 145.250 C 142.507 142.637, 139.033 133.628, 135.769 125.228 C 130.111 110.669, 129.652 109.863, 125.957 107.978 C 123.824 106.890, 121.688 106, 121.209 106 C 120.731 106, 115.425 112.308, 109.420 120.018 L 98.500 134.036 98.212 124.954 L 97.923 115.872 103.109 107.417 C 105.961 102.766, 108.116 98.799, 107.897 98.602 C 107.679 98.405, 101.340 95.014, 93.811 91.066 L 80.121 83.889 71.093 111.695 C 66.127 126.988, 60.960 142.738, 59.610 146.696 L 57.156 153.892 64.828 151.041 C 69.048 149.472, 75.987 146.836, 80.250 145.182 L 87.999 142.175 95.503 152.472 C 99.630 158.135, 103.793 162.993, 104.753 163.268 C 105.714 163.542, 117.807 168.250, 131.627 173.728 L 156.755 183.690 164.721 152.095 L 172.688 120.500 171.459 82.199 C 170.784 61.133, 170.066 43.759, 169.865 43.589 C 169.664 43.420, 163.635 50.788, 156.467 59.964 M 69.784 57.750 C 58.390 61.408, 49.166 64.500, 49.287 64.620 C 49.617 64.950, 85.219 60.059, 87.319 59.396 C 88.988 58.869, 89.003 58.722, 87.494 57.620 C 86.021 56.542, 86.117 56.275, 88.425 55.040 C 89.841 54.282, 91 53.063, 91 52.331 C 91 51.599, 90.888 51.022, 90.750 51.050 C 90.612 51.077, 81.178 54.092, 69.784 57.750 M 124 57.585 C 114.375 58.892, 105.825 60.090, 105 60.247 C 104.175 60.404, 108.645 62.412, 114.932 64.708 C 124.197 68.092, 126.567 68.633, 127.432 67.561 C 128.020 66.834, 131.762 63.899, 135.750 61.039 C 142.607 56.121, 143.986 54.862, 142.250 55.105 C 141.838 55.163, 133.625 56.279, 124 57.585 M 119.721 85.362 L 112.199 97.724 115.633 99.362 C 117.522 100.263, 119.469 101, 119.960 101 C 120.983 101, 139 78.514, 139 77.237 C 139 76.389, 130.473 72.986, 128.372 72.995 C 127.751 72.998, 123.859 78.563, 119.721 85.362 M 131.531 91.836 C 126.597 98.171, 122.997 103.507, 123.531 103.694 C 124.064 103.882, 126.258 105.040, 128.406 106.267 C 132.075 108.365, 132.662 109.407, 138.119 123.500 C 143.366 137.054, 143.930 138.084, 143.963 134.181 C 144.001 129.759, 141.080 81.976, 140.707 80.909 C 140.593 80.584, 136.464 85.501, 131.531 91.836 M 110.217 101.276 C 109.676 101.949, 107.381 105.545, 105.117 109.268 C 101.704 114.878, 101 116.915, 101 121.184 L 101 126.333 109.486 115.547 C 114.153 109.616, 117.724 104.363, 117.422 103.874 C 117.120 103.385, 115.597 102.326, 114.037 101.519 C 111.819 100.372, 110.987 100.319, 110.217 101.276" stroke="none" fill="black" fill-rule="evenodd"/>
</svg>