<svg xmlns="http://www.w3.org/2000/svg" width="200" height="200" viewBox="0 0 200 200" version="1.1">
	<path d="M 69 11.746 C 69 12.230, 70.350 13.919, 72 15.500 C 73.650 17.081, 75 18.740, 75 19.187 C 75 19.634, 68.813 20.049, 61.250 20.109 C 53.688 20.168, 44.828 20.506, 41.562 20.859 L 35.624 21.500 26.400 36.523 L 17.176 51.546 18.672 83.523 C 19.694 105.350, 19.976 125.102, 19.562 145.750 C 19.221 162.769, 19.338 176, 19.829 176 C 20.309 176, 27.293 172.591, 35.351 168.426 C 46.506 162.658, 50 160.393, 50 158.929 C 50 157.873, 48.624 142.782, 46.943 125.395 C 45.261 108.007, 44.149 93.518, 44.471 93.196 C 44.793 92.874, 52.806 93.824, 62.278 95.308 C 71.750 96.791, 80.462 98.004, 81.638 98.002 C 83.614 98, 84.021 96.694, 87.010 80.750 C 88.789 71.262, 90.527 63.186, 90.872 62.801 C 91.217 62.417, 93.461 61.789, 95.859 61.406 L 100.217 60.710 99.859 69.403 L 99.500 78.097 103.500 79.138 C 105.700 79.710, 113.350 81.826, 120.500 83.839 L 133.500 87.500 141.177 110 C 145.400 122.375, 148.887 132.962, 148.927 133.527 C 148.967 134.091, 140.031 139.698, 129.070 145.985 C 118.108 152.272, 109.332 157.728, 109.567 158.109 C 110.169 159.082, 158.256 187.542, 158.904 187.308 C 159.195 187.203, 162.735 175.053, 166.769 160.308 L 174.105 133.500 174.024 105 C 173.954 80.313, 170.787 21.471, 169.456 20.126 C 168.013 18.669, 165.287 23.565, 156.526 43.356 C 151.041 55.747, 146.440 65.774, 146.303 65.637 C 146.166 65.500, 146.448 63.838, 146.930 61.944 C 147.412 60.050, 148.100 57.196, 148.459 55.601 L 149.113 52.702 142.086 53.355 C 136.544 53.870, 135.165 53.735, 135.557 52.713 C 136.007 51.539, 129.879 33.546, 128.590 32.257 C 128.292 31.959, 127.389 32.262, 126.583 32.931 C 125.368 33.939, 124.658 33.409, 122.424 29.824 C 120.943 27.446, 119.592 25.338, 119.421 25.139 C 119.251 24.941, 116.299 25.728, 112.862 26.889 C 104.287 29.785, 103.610 29.700, 104.385 25.823 C 104.735 24.076, 105.187 22.479, 105.391 22.276 C 105.594 22.073, 118.425 23.117, 133.903 24.597 C 149.382 26.077, 162.343 26.990, 162.706 26.627 C 163.069 26.264, 162.947 25.596, 162.433 25.142 C 161.920 24.688, 141.475 21.506, 117 18.071 C 92.525 14.636, 71.713 11.609, 70.750 11.345 C 69.787 11.081, 69 11.261, 69 11.746 M 77 17 C 77.624 18.166, 79.094 19, 80.524 19 C 82.481 19, 82.939 19.471, 82.785 21.328 C 82.661 22.825, 84.179 25.497, 87.039 28.818 C 91.760 34.299, 91.747 34.296, 98.801 31.410 C 102.057 30.078, 102.098 29.981, 101.801 24.291 L 101.500 18.522 90 16.836 C 74.873 14.617, 75.719 14.606, 77 17 M 54.797 22.952 C 45.610 23.254, 37.687 23.950, 37.190 24.500 C 36.692 25.050, 32.614 31.518, 28.127 38.873 L 19.968 52.246 21.468 85.607 C 22.478 108.080, 22.757 127.646, 22.322 145.560 L 21.675 172.152 34.338 165.844 C 44.255 160.904, 47.004 159.099, 47.017 157.519 C 47.026 156.408, 45.615 140.749, 43.881 122.719 C 42.147 104.690, 40.902 89.770, 41.114 89.565 C 41.326 89.360, 49.600 90.488, 59.500 92.073 C 69.400 93.657, 78.405 94.964, 79.511 94.977 C 81.319 94.998, 81.832 93.376, 84.573 79 C 86.250 70.200, 87.370 63.001, 87.061 63.002 C 86.753 63.002, 81.146 66.570, 74.603 70.929 L 62.706 78.855 57.603 76.820 C 54.796 75.701, 48.675 73.319, 44 71.526 C 39 69.609, 35.500 67.697, 35.500 66.883 C 35.500 65.819, 41.431 64.808, 61.209 62.500 C 75.349 60.850, 87.328 59.050, 87.828 58.500 C 89.079 57.126, 92.365 39.399, 91.598 38.159 C 91.223 37.551, 82.260 40.070, 68.808 44.564 C 56.614 48.638, 46.402 51.735, 46.114 51.447 C 45.080 50.413, 44.759 38, 45.767 38 C 46.940 38, 47.967 41.356, 47.986 45.250 C 47.994 46.763, 48.413 48, 48.919 48 C 50.458 48, 86.438 35.771, 87.380 34.928 C 87.864 34.495, 85.884 31.409, 82.980 28.070 C 78.462 22.876, 77.253 22.029, 74.600 22.202 C 72.895 22.314, 63.983 22.651, 54.797 22.952 M 164.174 33.500 C 162.400 37.350, 157.020 49.238, 152.218 59.919 C 141.123 84.595, 138.795 86.351, 143.160 66.749 C 144.354 61.386, 145.091 56.758, 144.798 56.464 C 144.504 56.171, 134.980 56.942, 123.632 58.178 L 103 60.426 102.989 64.463 C 102.983 66.683, 102.707 70.141, 102.375 72.146 L 101.772 75.792 107.136 77.319 C 110.086 78.159, 117.767 80.281, 124.204 82.035 L 135.908 85.224 144.048 109.645 C 148.525 123.077, 151.975 134.614, 151.714 135.283 C 151.453 135.952, 143.085 141.176, 133.120 146.892 C 123.154 152.607, 115 157.579, 115 157.940 C 115 158.637, 154.504 182.297, 156.492 182.791 C 157.242 182.977, 160.245 173.427, 164.826 156.291 L 171.989 129.500 170.944 92.500 C 170.369 72.150, 169.337 48.975, 168.649 41 L 167.400 26.500 164.174 33.500 M 111 30.465 L 104.500 32.664 104.207 40.365 L 103.915 48.066 113.363 41.783 L 122.812 35.500 121.156 32.673 C 118.574 28.266, 117.921 28.124, 111 30.465 M 96.806 35.144 C 95.136 35.755, 94.313 36.653, 94.641 37.507 C 94.932 38.265, 94.457 42.334, 93.585 46.550 C 92.713 50.765, 92 54.637, 92 55.155 C 92 55.673, 94.025 54.703, 96.500 53 L 101 49.904 101 41.952 C 101 37.578, 100.662 34.036, 100.250 34.079 C 99.838 34.122, 98.288 34.601, 96.806 35.144 M 113.250 45.082 C 104.082 51.312, 103 52.363, 103 55.043 C 103 57.624, 103.311 57.972, 105.250 57.561 C 106.487 57.298, 112.450 56.596, 118.500 56 C 135.764 54.299, 134.678 55.313, 129.198 46.018 C 126.614 41.635, 124.275 38.064, 124 38.083 C 123.725 38.101, 118.888 41.251, 113.250 45.082 M 96 56.693 L 92.500 59.173 96 58.470 C 100.179 57.630, 100.270 57.564, 99.838 55.684 C 99.570 54.515, 98.779 54.723, 96 56.693 M 59.500 65.399 L 41.500 67.515 51.903 71.670 L 62.306 75.825 71.895 69.413 C 77.170 65.886, 80.588 63.064, 79.492 63.142 C 78.397 63.219, 69.400 64.235, 59.500 65.399" stroke="none" fill="black" fill-rule="evenodd"/>
</svg>