<svg xmlns="http://www.w3.org/2000/svg" width="200" height="200" viewBox="0 0 200 200" version="1.1">
	<path d="M 98 23.061 C 71.325 25.725, 48.712 27.925, 47.750 27.952 C 46.788 27.978, 46 28.629, 46 29.397 C 46 30.332, 48.070 31.146, 52.250 31.854 C 68.632 34.630, 72.387 35.410, 71 35.748 C 70.175 35.949, 61.637 38.481, 52.028 41.374 L 34.555 46.633 30.282 60.567 C 27.931 68.230, 26.119 74.759, 26.254 75.076 C 26.389 75.392, 38.382 70.999, 52.904 65.313 C 67.426 59.627, 79.442 55.109, 79.606 55.273 C 79.770 55.437, 74.308 60.280, 67.468 66.035 C 60.628 71.791, 55.025 76.725, 55.018 77 C 55.010 77.275, 58.684 80.408, 63.182 83.963 L 71.359 90.426 56.512 92.965 C 47.512 94.505, 41.501 95.996, 41.249 96.753 C 40.682 98.455, 43.042 98.357, 61.012 95.933 C 69.439 94.797, 77.322 94.115, 78.530 94.418 C 79.738 94.721, 88.326 93.670, 97.613 92.082 C 119.507 88.338, 123 87.854, 123 88.566 C 123 88.890, 118.417 95.870, 112.815 104.078 L 102.630 119 66.315 119 C 35.675 119, 30 119.221, 30 120.415 C 30 121.447, 31.957 121.996, 37.250 122.447 C 48.496 123.404, 122.509 128, 126.683 128 C 128.805 128, 129.992 128.365, 129.450 128.851 C 128.927 129.319, 118.827 133.236, 107.005 137.554 L 85.510 145.407 73.755 145.125 C 63.858 144.888, 62 145.080, 62 146.341 C 62 148.058, 59.254 147.403, 102.750 156.050 C 120.488 159.576, 135 162.717, 135 163.030 C 135 163.343, 117.113 166.443, 95.250 169.920 C 73.387 173.396, 54.263 176.468, 52.750 176.745 C 51.193 177.031, 50 177.902, 50 178.754 C 50 179.989, 51.030 180.150, 55.750 179.653 C 76.014 177.522, 83.152 177.724, 121.289 181.507 C 142.073 183.568, 159.307 185.026, 159.587 184.746 C 160.135 184.198, 158.142 111.246, 157.528 109.375 C 157.325 108.756, 150.823 106.508, 143.079 104.380 C 135.336 102.252, 129 100.195, 129 99.808 C 129 99.422, 135.750 95.654, 144 91.434 C 152.393 87.142, 159 83.154, 159 82.381 C 159 80.689, 159.870 80.678, 145.593 82.551 C 139.089 83.404, 133.590 83.924, 133.373 83.707 C 133.156 83.490, 147.159 76.652, 164.489 68.513 C 181.820 60.373, 196 53.415, 196 53.050 C 196 52.685, 187.338 51.333, 176.750 50.045 C 166.162 48.757, 157.113 47.360, 156.639 46.941 C 156.166 46.521, 158.804 41.839, 162.501 36.535 C 166.199 31.231, 168.996 26.663, 168.717 26.384 C 168.438 26.105, 157.700 28.338, 144.855 31.347 C 132.010 34.355, 121.360 36.681, 121.189 36.514 C 121.018 36.348, 127.455 32.750, 135.494 28.520 C 148.727 21.557, 152.125 18.777, 147.917 18.359 C 147.138 18.282, 124.675 20.398, 98 23.061 M 97.750 25.836 C 77.538 27.800, 61 29.701, 61 30.061 C 61 30.421, 65.075 31.273, 70.055 31.953 C 84.077 33.870, 82.552 35.231, 58.275 42.472 C 47.161 45.788, 37.656 48.950, 37.153 49.500 C 36.155 50.592, 29.917 70.250, 30.411 70.745 C 30.579 70.912, 44.545 65.637, 61.447 59.021 C 78.349 52.405, 92.496 47.189, 92.885 47.429 C 93.274 47.669, 96.047 46.507, 99.046 44.846 C 102.046 43.184, 110.350 38.746, 117.500 34.982 C 124.650 31.218, 132.975 26.765, 136 25.087 L 141.500 22.036 138 22.151 C 136.075 22.213, 117.963 23.872, 97.750 25.836 M 137.772 35.785 C 124.721 38.861, 114.191 41.525, 114.372 41.705 C 114.552 41.886, 121.855 42.934, 130.600 44.035 C 139.345 45.135, 147.689 46.278, 149.142 46.573 C 151.516 47.057, 152.351 46.306, 157.392 39.153 C 160.476 34.777, 163 30.926, 163 30.598 C 163 29.794, 164.481 29.489, 137.772 35.785 M 94.753 50.265 C 83.927 56.011, 80.884 58.254, 60.803 75.281 C 58.918 76.879, 58.865 77.187, 60.285 78.281 C 61.156 78.951, 65.243 82.112, 69.367 85.305 L 76.866 91.109 91.364 89.364 L 105.862 87.618 126.488 68.699 C 137.832 58.294, 146.927 49.594, 146.699 49.365 C 146.263 48.929, 110.597 44.003, 108 44.020 C 107.175 44.026, 101.214 46.836, 94.753 50.265 M 143.217 64.577 C 137.619 72.715, 133.178 79.511, 133.347 79.681 C 133.517 79.850, 144.195 75.013, 157.078 68.932 C 169.960 62.852, 182.300 57.086, 184.500 56.120 L 188.500 54.364 175 52.603 C 167.575 51.635, 159.676 50.604, 157.447 50.312 L 153.394 49.782 143.217 64.577 M 133.500 65.789 C 130.200 68.952, 123.675 75.059, 119 79.360 C 111.484 86.274, 110.847 87.118, 113.500 86.654 C 115.150 86.365, 118.576 85.856, 121.114 85.523 C 125.721 84.919, 125.738 84.902, 132.044 74.709 C 135.518 69.094, 139.006 63.487, 139.795 62.250 C 142.256 58.392, 139.745 59.803, 133.500 65.789 M 136.005 86.402 L 127.510 87.501 116.206 104.001 C 103.427 122.653, 104.827 121.706, 89.500 122.080 C 83.562 122.225, 86.397 122.610, 100.500 123.573 C 139.782 126.255, 138.134 126.072, 137.805 127.706 C 137.423 129.598, 88.121 147.955, 83.030 148.101 C 81.089 148.157, 94.348 151.213, 112.495 154.894 C 137.940 160.054, 145.558 161.941, 145.788 163.139 C 146.035 164.422, 142.468 165.266, 125.294 167.985 C 86.807 174.077, 84.075 174.614, 88 175.318 C 91.288 175.908, 153.276 182, 155.989 182 C 157.246 182, 157.008 159.279, 155.377 123.500 L 154.784 110.500 138.642 106.085 C 129.764 103.656, 122.124 101.345, 121.663 100.948 C 121.203 100.551, 127.166 97.010, 134.913 93.079 C 142.661 89.148, 149 85.722, 149 85.466 C 149 84.867, 146.448 85.050, 136.005 86.402" stroke="none" fill="black" fill-rule="evenodd"/>
</svg>