<svg xmlns="http://www.w3.org/2000/svg" width="200" height="200" viewBox="0 0 200 200" version="1.1">
	<path d="M 128 19.736 L 84.500 27.188 69.966 24.594 C 61.973 23.167, 54.548 22.004, 53.466 22.010 C 52.385 22.015, 43.400 25.362, 33.500 29.447 L 15.500 36.874 15.510 59.437 C 15.516 71.847, 15.629 104.558, 15.760 132.129 L 16 182.259 28.268 166.879 L 40.536 151.500 57.690 149 C 67.125 147.625, 75.090 146.253, 75.389 145.950 C 75.688 145.648, 72.341 132.148, 67.951 115.950 L 59.969 86.500 70.235 65.184 L 80.500 43.867 96.787 44.184 C 109.931 44.439, 113.256 44.789, 114.021 46 C 114.541 46.825, 114.827 47.950, 114.654 48.500 C 114.413 49.272, 80.336 68.775, 76.723 70.209 C 76.296 70.379, 76.493 86.376, 77.162 105.759 L 78.377 141 83.533 141 C 88.684 141, 120.323 138.977, 120.698 138.623 C 121.312 138.046, 136.995 86.495, 136.971 85.135 C 136.955 84.236, 134.935 79.679, 132.483 75.009 L 128.025 66.518 135.167 56.009 C 139.095 50.229, 142.747 45.050, 143.282 44.500 C 143.913 43.851, 144.041 55.702, 143.646 78.222 L 143.036 112.945 131.460 136.081 C 125.093 148.805, 120.022 159.294, 120.192 159.388 C 120.361 159.482, 127.053 165.955, 135.061 173.771 L 149.622 187.983 160.866 156.241 L 172.110 124.500 171.447 89.500 L 170.784 54.500 166.848 38.500 C 164.684 29.700, 162.698 21.777, 162.435 20.894 C 162.085 19.718, 163.235 18.813, 166.728 17.513 C 172.377 15.411, 173.777 14.341, 172.450 13.142 C 171.911 12.655, 152.670 15.509, 128 19.736 M 124.500 23.051 C 109.100 25.729, 95.600 28.063, 94.500 28.237 C 93.400 28.411, 98.549 29.717, 105.942 31.139 L 119.384 33.725 138.442 25.902 C 148.924 21.599, 156.375 18.102, 155 18.131 C 153.625 18.159, 139.900 20.373, 124.500 23.051 M 153.206 29.778 L 147.148 38.624 146.434 76.062 L 145.720 113.500 134.434 136.094 L 123.148 158.689 135.855 170.711 L 148.563 182.733 158.919 153.616 L 169.274 124.500 168.635 89.195 L 167.995 53.890 163.926 37.707 C 161.689 28.807, 159.724 21.391, 159.562 21.228 C 159.399 21.065, 156.539 24.913, 153.206 29.778 M 138 29.041 C 128.925 32.828, 120.424 35.943, 119.109 35.963 C 117.794 35.984, 109.365 34.640, 100.378 32.977 L 84.038 29.955 68.795 32.535 C 60.412 33.953, 53.484 35.201, 53.400 35.307 C 53.317 35.413, 52.959 36.445, 52.605 37.599 C 51.980 39.636, 52.359 39.720, 65.230 40.405 C 76.946 41.029, 78.617 40.920, 79.500 39.469 C 82.404 34.699, 80.558 34.844, 110.915 36.991 C 126.543 38.096, 140.315 39, 141.518 39 C 143.117 39, 145.027 37.049, 148.603 31.764 C 154.504 23.045, 155.187 21.977, 154.800 22.078 C 154.635 22.121, 147.075 25.255, 138 29.041 M 53 28.500 C 53 30.425, 53.470 32, 54.045 32 C 54.620 32, 59.683 31.228, 65.295 30.283 L 75.500 28.567 66.500 26.821 C 53.339 24.268, 53 24.310, 53 28.500 M 32.624 32.751 L 16.748 39.400 17.372 45.950 C 17.715 49.553, 18.295 79.765, 18.660 113.089 L 19.324 173.678 29.150 161.361 C 35.155 153.834, 39.855 148.851, 41.238 148.548 C 43.077 148.144, 71.499 144, 72.428 144 C 72.576 144, 69.171 131.003, 64.863 115.119 L 57.029 86.237 67.027 65.543 C 72.526 54.161, 76.768 44.433, 76.453 43.925 C 76.139 43.416, 70.509 43, 63.941 43 C 53.237 43, 52 43.181, 51.997 44.750 C 51.991 47.343, 48.142 106.248, 47.390 115.250 C 46.923 120.833, 46.358 123, 45.371 123 C 44.617 123, 44 122.848, 44 122.663 C 44 122.477, 41.300 104.254, 38 82.165 C 34.700 60.077, 32 41.415, 32 40.695 C 32 39.679, 34.026 39.481, 41 39.814 C 49.641 40.227, 50 40.160, 50 38.122 C 50 35.772, 48.964 35.611, 42.228 36.913 C 39.688 37.405, 37.722 37.360, 37.378 36.803 C 36.492 35.370, 37.230 35.036, 43.858 33.868 C 49.961 32.793, 50 32.765, 50 29.393 C 50 27.527, 49.663 26.023, 49.250 26.051 C 48.837 26.079, 41.356 29.094, 32.624 32.751 M 82.638 39.500 C 82.167 40.727, 83.120 41, 87.876 41 C 91.073 41, 98.489 41.294, 104.355 41.653 L 115.021 42.305 120.822 53.159 L 126.623 64.012 133.822 53.350 C 137.782 47.486, 140.830 42.497, 140.597 42.263 C 140.240 41.906, 89.822 38.065, 84.857 38.016 C 83.953 38.007, 82.955 38.675, 82.638 39.500 M 35.185 44.619 C 35.432 46.204, 37.621 60.922, 40.049 77.327 C 43.026 97.449, 44.680 106.235, 45.133 104.327 C 45.946 100.897, 49.468 44.128, 48.901 43.583 C 48.681 43.371, 45.403 42.869, 41.617 42.468 L 34.735 41.739 35.185 44.619 M 114.985 53.502 C 113.089 58.426, 96 107.359, 96 107.865 C 96 108.415, 99.778 103.032, 114.204 81.929 L 124.848 66.359 120.493 58.432 L 116.139 50.504 114.985 53.502 M 94.810 63.318 C 86.730 67.818, 79.817 71.813, 79.448 72.195 C 78.906 72.757, 80.772 138.323, 81.337 138.572 C 81.916 138.826, 118.202 136.132, 118.523 135.810 C 119.284 135.049, 134 87.222, 134 85.510 C 134 83.570, 127.092 69.986, 126.126 70.027 C 125.782 70.041, 117.876 81.244, 108.557 94.921 C 98.356 109.894, 91.122 119.600, 90.377 119.314 C 89.163 118.848, 89.836 116.751, 106.412 69.390 C 108.935 62.180, 111 55.992, 111 55.640 C 111 54.429, 109.458 55.160, 94.810 63.318" stroke="none" fill="black" fill-rule="evenodd"/>
</svg>