<svg xmlns="http://www.w3.org/2000/svg" width="200" height="200" viewBox="0 0 200 200" version="1.1">
	<path d="M 33.248 18.250 C 33.533 19.106, 41.261 20.295, 57.771 22.022 C 71.030 23.410, 82.133 24.799, 82.444 25.111 C 83.032 25.699, 78.360 49.973, 77.492 50.841 C 77.221 51.112, 63.387 48.393, 46.750 44.798 C 20.634 39.155, 12.741 38.074, 15.136 40.469 C 15.412 40.745, 29.911 44.732, 47.356 49.330 C 72.479 55.950, 79.231 57.410, 79.823 56.352 C 80.434 55.260, 81.612 55.234, 86.254 56.208 C 91.638 57.337, 91.906 57.535, 91.328 59.950 C 90.993 61.352, 90.620 62.625, 90.499 62.777 C 90.378 62.930, 77.573 60.535, 62.044 57.456 C 46.515 54.376, 33.592 52.074, 33.326 52.340 C 33.061 52.606, 30.674 65.088, 28.023 80.077 L 23.202 107.331 28.573 115.657 L 33.945 123.984 26.472 145.613 C 22.363 157.509, 19 167.638, 19 168.121 C 19 169.166, 27.924 169.224, 53.131 168.343 L 71.763 167.692 78.109 147.225 C 81.600 135.968, 84.973 126.051, 85.605 125.187 C 86.591 123.839, 88.127 124.877, 96.389 132.475 L 106.023 141.336 113.122 163.418 C 117.027 175.563, 120.402 185.802, 120.621 186.171 C 120.952 186.728, 134.950 180.850, 180.769 160.913 L 185.037 159.055 174.865 138.778 L 164.692 118.500 166.683 97 C 168.586 76.453, 168.602 74.781, 167.049 59.262 C 166.156 50.331, 164.991 42.635, 164.462 42.160 C 159.946 38.102, 144.770 26, 144.198 26 C 143.798 26, 137.710 31.774, 130.670 38.830 L 117.868 51.660 118.581 60.444 C 119.256 68.765, 119.194 69.199, 117.397 68.683 C 116.354 68.383, 112.899 67.622, 109.719 66.992 C 103.951 65.848, 103.940 65.839, 104.490 62.673 C 106.142 53.172, 109.832 25.498, 109.492 25.159 C 109.273 24.940, 104.313 24.222, 98.469 23.563 C 92.625 22.904, 87.533 21.863, 87.154 21.249 C 86.726 20.557, 77.664 19.536, 63.343 18.566 C 34.980 16.645, 32.707 16.621, 33.248 18.250 M 85.654 26.677 C 84.147 31.896, 80.908 50.317, 81.312 51.370 C 81.569 52.041, 84.739 53.178, 88.357 53.897 L 94.934 55.204 94.349 59.469 L 93.765 63.733 97.485 64.431 C 99.530 64.815, 101.319 64.987, 101.459 64.814 C 101.598 64.642, 102.707 56.850, 103.922 47.500 C 105.137 38.150, 106.339 29.766, 106.595 28.870 C 106.979 27.519, 105.897 27.128, 100.279 26.589 C 96.551 26.231, 91.853 25.694, 89.840 25.396 C 86.879 24.958, 86.080 25.202, 85.654 26.677 M 132.532 40.968 L 120.746 52.785 121.454 61.293 L 122.163 69.800 125.831 70.258 C 127.849 70.510, 129.601 70.642, 129.724 70.551 C 129.846 70.461, 128.834 68.748, 127.474 66.746 C 124.622 62.549, 124.494 62, 126.371 62 C 127.593 62, 136.328 74.005, 135.620 74.713 C 135.463 74.871, 132.773 74.486, 129.643 73.857 C 126.513 73.229, 123.658 73.009, 123.299 73.368 C 122.939 73.728, 123.208 80.879, 123.897 89.261 L 125.150 104.500 132.287 111.737 C 140.566 120.132, 140.511 122.142, 132.091 118.943 C 129.155 117.827, 126.651 117.046, 126.527 117.207 C 126.402 117.368, 127.114 126.500, 128.108 137.500 C 130.752 166.765, 131.714 164.801, 120.020 154.019 C 111.894 146.526, 110.213 145.345, 110.971 147.659 C 111.483 149.221, 114.228 157.700, 117.070 166.500 C 119.913 175.300, 122.355 182.632, 122.497 182.794 C 122.639 182.956, 135.298 177.625, 150.628 170.948 C 165.957 164.271, 179.044 158.585, 179.709 158.313 C 180.512 157.984, 177.692 151.376, 171.322 138.659 L 161.725 119.500 163.837 97.500 C 165.813 76.927, 165.856 74.624, 164.495 62 C 163.695 54.575, 163.031 47.570, 163.020 46.433 C 163.007 45.047, 159.925 41.862, 153.659 36.759 L 144.318 29.151 132.532 40.968 M 35 55.778 C 35 56.677, 27.210 101.443, 26.500 104.622 C 26.183 106.040, 27.845 109.551, 31.516 115.218 L 37.006 123.693 30.003 143.920 C 26.151 155.045, 23 164.565, 23 165.074 C 23 166.119, 52.810 166.334, 63.080 165.364 L 69.660 164.743 76.330 143.942 C 79.998 132.502, 83 122.501, 83 121.717 C 83 120.933, 74.888 112.950, 64.973 103.976 C 48.672 89.221, 44.981 84.985, 49.104 85.764 C 49.872 85.908, 58.375 88.904, 68 92.420 C 80.063 96.827, 85.691 98.454, 86.115 97.657 C 86.454 97.020, 86.994 94.149, 87.315 91.275 L 87.900 86.050 84.200 85.060 C 82.165 84.516, 72.850 82.248, 63.500 80.022 C 43.872 75.348, 41.999 74.692, 38.928 71.424 C 36.629 68.976, 36.997 66.762, 39.408 68.535 C 40.129 69.066, 41.801 70.270, 43.124 71.210 C 45.612 72.980, 87.044 83.284, 87.975 82.365 C 88.391 81.954, 90.843 66, 90.490 66 C 90.439 66, 78.068 63.525, 63 60.500 C 31.798 54.236, 35 54.776, 35 55.778 M 92.171 75.064 C 91.528 79.613, 91.170 83.504, 91.377 83.710 C 91.583 83.917, 93.306 84.338, 95.206 84.646 L 98.659 85.206 99.829 76.936 C 100.472 72.387, 100.830 68.496, 100.623 68.290 C 100.417 68.083, 98.694 67.662, 96.794 67.354 L 93.341 66.794 92.171 75.064 M 103.705 70.326 C 103.183 71.686, 101.682 84.368, 101.880 85.738 C 101.941 86.157, 103.455 86.869, 105.245 87.319 C 107.213 87.815, 111.214 90.780, 115.364 94.819 L 122.228 101.500 121.640 95.500 C 121.316 92.200, 120.752 85.555, 120.387 80.734 C 119.794 72.907, 119.496 71.917, 117.611 71.492 C 104.683 68.577, 104.386 68.552, 103.705 70.326 M 90.738 87.663 C 90.469 88.123, 89.938 91.074, 89.557 94.219 L 88.864 99.939 92.182 101.316 C 96.224 102.993, 96.516 102.599, 97.421 94.250 C 97.943 89.445, 97.799 87.997, 96.800 87.986 C 96.085 87.979, 94.538 87.715, 93.363 87.399 C 92.187 87.084, 91.006 87.202, 90.738 87.663 M 100.617 91.751 C 100.319 93.263, 99.791 96.584, 99.442 99.131 L 98.809 103.762 103.154 105.358 C 105.544 106.236, 110.591 108.090, 114.369 109.477 C 118.147 110.865, 121.635 112, 122.119 112 C 122.604 112, 123 110.753, 123 109.228 C 123 107.078, 121.149 104.637, 114.750 98.347 C 110.213 93.887, 105.298 89.960, 103.829 89.620 C 101.508 89.082, 101.088 89.361, 100.617 91.751 M 55.500 91.758 C 56.050 92.298, 62.572 98.237, 69.993 104.954 L 83.486 117.168 84.171 113.834 C 84.548 112, 85.001 108.549, 85.178 106.165 L 85.500 101.829 72.500 97.051 C 56.633 91.219, 54.172 90.453, 55.500 91.758 M 87.271 111.250 L 86.257 119.500 93.774 126.500 C 97.909 130.350, 101.877 133.846, 102.592 134.269 C 103.992 135.098, 104.163 135.763, 98.398 118 C 96.881 113.325, 95.695 108.679, 95.763 107.675 C 95.844 106.485, 94.701 105.355, 92.476 104.425 C 90.599 103.641, 88.889 103, 88.674 103 C 88.460 103, 87.828 106.713, 87.271 111.250 M 98.210 108.250 C 98.444 108.938, 100.819 116.339, 103.489 124.697 L 108.342 139.894 117.322 147.963 C 122.260 152.401, 126.437 155.896, 126.604 155.730 C 127.061 155.273, 123.509 116.164, 122.969 115.710 C 122.235 115.094, 99.603 106.983, 98.643 106.992 C 98.172 106.996, 97.977 107.563, 98.210 108.250 M 126 111.902 C 126 113.144, 127.113 114.192, 129.206 114.922 L 132.412 116.040 129.519 113.020 C 126.111 109.463, 126 109.427, 126 111.902" stroke="none" fill="black" fill-rule="evenodd"/>
</svg>