<svg xmlns="http://www.w3.org/2000/svg" width="200" height="200" viewBox="0 0 200 200" version="1.1">
	<path d="M 157.900 13.876 L 131.300 27.707 120.457 28.433 C 107.199 29.321, 23.487 29.266, 16.692 28.365 C 12.327 27.786, 11.836 27.911, 12.149 29.522 C 12.434 30.988, 19.083 33.140, 47.500 40.965 C 66.750 46.265, 83.175 50.881, 84 51.222 C 84.825 51.563, 71.525 51.878, 54.444 51.921 L 23.387 52 22.212 89.250 L 21.036 126.500 30.374 159 C 37.415 183.506, 40.116 191.580, 41.356 191.823 C 42.396 192.028, 43 191.480, 43 190.332 C 43 189.333, 44.601 170.738, 46.559 149.008 L 50.117 109.500 54.745 102 C 65.103 85.213, 63.705 86.799, 66.772 88.359 C 68.272 89.122, 70.513 90.059, 71.750 90.441 C 75.384 91.562, 74.517 88.483, 70.500 86 C 65.294 82.783, 66.084 81.801, 73.250 82.583 C 76.688 82.958, 79.666 83.408, 79.868 83.584 C 80.070 83.759, 80.472 88.895, 80.762 94.996 L 81.288 106.090 78.394 109.146 C 76.802 110.826, 70.662 116.492, 64.750 121.736 C 53.753 131.490, 51.637 134.577, 56.750 133.410 C 61.606 132.302, 79.445 127.922, 81.117 127.428 C 82.475 127.026, 82.809 128.127, 83.206 134.313 C 83.659 141.368, 84.158 142.607, 95.089 163.836 C 101.365 176.023, 106.991 185.996, 107.590 185.997 C 108.636 186, 109.992 154.414, 109.998 129.909 L 110 120.318 115.750 119.032 C 118.912 118.324, 122.063 117.529, 122.750 117.266 C 123.704 116.900, 124 119.418, 124 127.893 C 124 136.116, 124.325 138.998, 125.250 138.992 C 125.986 138.987, 129.790 129.295, 134.500 115.420 C 138.900 102.461, 142.819 91.331, 143.208 90.687 C 143.738 89.811, 144.204 89.804, 145.056 90.656 C 145.880 91.480, 146.066 100.339, 145.728 122.648 C 145.320 149.592, 144.933 155.526, 142.674 169.494 C 140.954 180.131, 140.422 185.822, 141.086 186.486 C 141.749 187.149, 142.401 186.984, 143.032 185.992 C 143.554 185.171, 151.461 172.027, 160.604 156.782 L 177.229 129.063 176.488 90.035 L 175.747 51.007 165.896 51.652 L 156.045 52.298 161.510 35.970 C 164.516 26.990, 166.841 19.507, 166.676 19.343 C 166.512 19.179, 163.139 21.059, 159.182 23.522 C 152.369 27.762, 151.601 27.999, 144.743 27.978 L 137.500 27.956 142.500 25.109 C 145.250 23.543, 157.175 17.265, 169 11.157 C 184.965 2.912, 189.728 0.052, 187.500 0.049 C 185.587 0.046, 174.862 5.056, 157.900 13.876 M 158.605 27.490 C 157.116 28.871, 155.492 30, 154.997 30 C 153.873 30, 112.865 55.198, 113.293 55.626 C 113.464 55.798, 121.231 55.286, 130.552 54.490 C 139.874 53.693, 148.698 53.032, 150.162 53.021 C 152.690 53.001, 153.058 52.304, 157.398 39.319 C 159.913 31.795, 161.823 25.490, 161.642 25.309 C 161.462 25.128, 160.095 26.110, 158.605 27.490 M 26.325 32.098 C 26.971 32.427, 41.308 36.446, 58.184 41.030 L 88.868 49.363 92.684 47.638 C 94.783 46.689, 102.643 42.670, 110.152 38.707 L 123.804 31.500 74.476 31.500 C 47.346 31.500, 25.678 31.769, 26.325 32.098 M 112.131 40.682 C 97.874 48.137, 94.130 50.493, 95.402 51.205 C 98.099 52.714, 96.189 53.998, 91.191 54.035 C 88.611 54.055, 85.385 54.688, 84.021 55.443 C 81.670 56.745, 81.556 57.217, 81.809 64.658 C 81.956 68.971, 82.328 74.362, 82.635 76.638 C 83.265 81.309, 83.129 81.257, 98.096 82.578 C 104.393 83.133, 106.144 82.951, 108.338 81.514 C 110.696 79.969, 111.669 79.916, 117.258 81.027 L 123.531 82.274 135.515 74.847 C 147.095 67.671, 147.574 67.236, 149.693 61.960 C 151.800 56.715, 151.813 56.488, 150.016 56.190 C 148.987 56.019, 139.430 56.582, 128.778 57.440 C 118.126 58.298, 108.643 59, 107.705 59 C 103.291 59, 107.522 55.554, 126 44.100 C 137 37.281, 146 31.544, 146 31.351 C 146 31.158, 142.512 31.017, 138.250 31.038 L 130.500 31.076 112.131 40.682 M 26.013 56.750 C 26.020 58.263, 25.511 74.391, 24.880 92.591 L 23.734 125.682 32.026 154.349 C 36.587 170.115, 40.419 182.899, 40.542 182.758 C 40.666 182.616, 42.217 166.075, 43.990 146 L 47.213 109.500 54.255 97.732 C 58.128 91.259, 61.118 85.789, 60.899 85.574 C 60.679 85.360, 57.873 84.025, 54.661 82.608 C 48.951 80.088, 47.219 77.142, 51.843 77.813 C 54.895 78.256, 54.530 77.491, 50.500 75 C 48.575 73.810, 47 72.512, 47 72.116 C 47 71.720, 54.200 67.673, 63 63.124 C 71.800 58.575, 79 54.661, 79 54.426 C 79 54.192, 67.075 54, 52.500 54 L 26 54 26.013 56.750 M 160.585 54.918 L 154.671 55.500 151.965 63.569 C 149.260 71.635, 149.259 71.650, 148.556 112.069 C 148.002 143.896, 147.450 155.150, 145.961 164.951 C 144.921 171.800, 144.211 177.545, 144.385 177.718 C 144.559 177.892, 151.293 167.038, 159.350 153.598 L 174 129.161 174 109.741 C 174 99.060, 173.704 82.148, 173.342 72.160 L 172.684 54 169.592 54.168 C 167.891 54.261, 163.838 54.598, 160.585 54.918 M 64.967 65.157 C 58.660 68.487, 53.122 71.564, 52.660 71.996 C 51.455 73.121, 60.391 79, 63.307 79 C 65.334 79, 66.733 77.359, 71.468 69.424 C 74.611 64.158, 77.014 59.681, 76.808 59.475 C 76.603 59.270, 71.274 61.826, 64.967 65.157 M 74.037 70.438 C 71.635 74.489, 69.731 78.186, 69.806 78.652 C 69.881 79.118, 72.238 79.741, 75.043 80.035 L 80.144 80.569 79.451 72.035 C 79.071 67.341, 78.679 63.404, 78.582 63.286 C 78.484 63.168, 76.439 66.386, 74.037 70.438 M 136.286 77.339 C 131.769 80.177, 128.057 82.760, 128.036 83.078 C 127.995 83.729, 137.211 86, 139.894 86 C 141.137 86, 142.153 84.355, 143.446 80.250 C 144.442 77.088, 145.473 73.938, 145.736 73.250 C 146.513 71.218, 144.948 71.896, 136.286 77.339 M 111.269 83.693 C 112.242 83.947, 113.592 83.930, 114.269 83.656 C 114.946 83.382, 114.150 83.175, 112.500 83.195 C 110.850 83.215, 110.296 83.439, 111.269 83.693 M 144.711 84.999 C 144.423 86.098, 144.596 87.250, 145.094 87.558 C 145.592 87.866, 146 86.966, 146 85.559 C 146 82.495, 145.430 82.247, 144.711 84.999 M 83.339 90.650 C 83.695 94.418, 83.989 98.994, 83.993 100.820 L 84 104.140 93.538 95.335 C 104.400 85.307, 104.551 85.849, 90.525 84.534 L 82.692 83.801 83.339 90.650 M 116.813 84.683 C 117.534 84.972, 118.397 84.936, 118.729 84.604 C 119.061 84.272, 118.471 84.036, 117.417 84.079 C 116.252 84.127, 116.015 84.364, 116.813 84.683 M 95.823 96.928 L 84.567 107.401 84.877 114.951 C 85.048 119.103, 85.383 122.700, 85.622 122.945 C 85.862 123.190, 90.655 122.275, 96.275 120.911 C 108.234 118.009, 107.689 118.884, 107.882 102.286 L 108 92.072 111.568 89.648 L 115.136 87.223 111.107 86.839 C 107.201 86.466, 106.738 86.772, 95.823 96.928 M 115.396 90.479 C 111.465 92.836, 111.264 93.201, 110.646 99.117 C 110.291 102.514, 110 107.927, 110 111.147 C 110 117.862, 110.071 117.897, 119 115.500 C 127.082 113.331, 126.873 113.197, 127.204 120.750 L 127.500 127.500 133.734 109.067 C 137.163 98.930, 139.822 90.489, 139.643 90.310 C 139.208 89.875, 125.157 88.067, 122 88.040 C 120.625 88.029, 117.653 89.126, 115.396 90.479 M 77 114.310 C 74.525 116.618, 69.666 121.042, 66.202 124.142 L 59.905 129.778 70.702 127.279 C 76.641 125.904, 81.755 124.492, 82.068 124.140 C 82.380 123.788, 82.380 120.488, 82.068 116.807 L 81.500 110.114 77 114.310 M 96.250 123.868 L 86 126.264 86.053 132.882 C 86.104 139.225, 86.515 140.311, 95.936 159 L 105.766 178.500 106.448 167 C 106.822 160.675, 106.987 147.844, 106.814 138.486 L 106.500 121.471 96.250 123.868" stroke="none" fill="black" fill-rule="evenodd"/>
</svg>