<svg xmlns="http://www.w3.org/2000/svg" width="200" height="200" viewBox="0 0 200 200" version="1.1">
	<path d="M 73.436 18.870 L 74.150 28 70.825 28.061 C 68.996 28.094, 55.350 29.116, 40.500 30.331 C 14.261 32.477, 13.508 32.599, 13.790 34.634 C 14.428 39.245, 32.696 115.029, 33.319 115.653 C 33.687 116.021, 45.346 112.904, 59.227 108.727 C 73.109 104.550, 84.598 101.264, 84.759 101.426 C 84.920 101.587, 85.576 105.639, 86.218 110.432 C 87.121 117.182, 87.113 119.312, 86.183 119.887 C 85.523 120.295, 70.811 121.460, 53.491 122.477 C 36.171 123.493, 22 124.656, 22 125.061 C 22 125.466, 29.949 136.052, 39.665 148.585 C 55.989 169.643, 57.364 171.738, 57.792 176.186 L 58.254 181 64.877 180.999 C 70.964 180.997, 127.461 178.984, 165.370 177.417 L 181.240 176.761 163.994 159.494 L 146.748 142.227 147.492 114.481 L 148.235 86.734 130.867 87.396 C 121.315 87.760, 110.800 88.295, 107.500 88.585 C 101.508 89.112, 101.497 89.108, 99.250 85.570 C 98.013 83.622, 97.001 81.684, 97.002 81.264 C 97.003 80.844, 106.116 78.462, 117.252 75.972 C 132.359 72.593, 137.500 71.070, 137.500 69.972 C 137.500 68.723, 133.722 68.459, 112.511 68.232 L 87.522 67.964 85.160 65.417 C 83.861 64.015, 83.040 62.627, 83.337 62.330 C 83.633 62.034, 90.991 60.312, 99.688 58.505 C 117.252 54.854, 138.276 47.417, 138.819 44.663 C 139.103 43.221, 136.969 43.013, 119.379 42.771 L 99.620 42.500 106.207 36.718 C 112.601 31.106, 113.054 30.894, 121.647 29.491 C 126.516 28.696, 132.525 27.443, 135 26.706 C 139.364 25.406, 139.946 25.514, 154.250 30.270 C 165.431 33.988, 168.993 35.577, 168.971 36.837 C 168.955 37.752, 167.671 43.009, 166.118 48.519 C 163.445 58.004, 163.320 59.338, 163.775 73.532 L 164.257 88.525 159.055 98.890 C 155.586 105.803, 154.187 109.587, 154.855 110.255 C 155.522 110.922, 157.753 107.470, 161.556 99.888 L 167.257 88.521 166.564 73.978 L 165.872 59.434 169.388 46.969 C 171.322 40.114, 172.589 34.215, 172.202 33.860 C 171.625 33.331, 125.331 17, 124.407 17 C 124.250 17, 122.140 18.715, 119.718 20.811 L 115.314 24.623 97.090 25.911 C 87.067 26.620, 78.559 26.897, 78.183 26.527 C 77.807 26.156, 77.050 22.434, 76.500 18.254 C 75.856 13.363, 75.005 10.493, 74.111 10.198 C 72.959 9.819, 72.844 11.302, 73.436 18.870 M 122.532 21.965 C 120.719 23.968, 120.735 23.998, 123.595 23.882 C 125.193 23.817, 127.850 23.459, 129.500 23.088 L 132.500 22.412 129.843 21.710 C 128.381 21.324, 126.553 20.766, 125.780 20.469 C 125.007 20.172, 123.545 20.845, 122.532 21.965 M 88.750 29.276 C 80.757 29.997, 78 30.599, 78 31.623 C 78 33.416, 78.866 33.365, 96 30.567 C 111.706 28.002, 108.732 27.472, 88.750 29.276 M 40.070 33.136 C 27.734 34.175, 17.467 35.199, 17.256 35.411 C 17.044 35.623, 17.178 37.430, 17.552 39.428 C 18.067 42.170, 18.634 42.937, 19.867 42.559 C 21.302 42.118, 73.087 34, 74.465 34 C 74.759 34, 75 33.325, 75 32.500 C 75 30.553, 69.518 30.653, 40.070 33.136 M 91.148 34.040 C 84.905 35.046, 79.575 36.092, 79.303 36.363 C 79.032 36.635, 79.113 38.239, 79.484 39.928 L 80.159 43 87.829 42.954 L 95.500 42.908 101.500 37.456 C 108.497 31.097, 108.796 31.196, 91.148 34.040 M 56.500 39.467 C 48.800 40.715, 41.600 41.968, 40.500 42.252 C 39.400 42.536, 46.860 42.820, 57.077 42.884 L 75.654 43 75.213 40 C 74.685 36.402, 75.311 36.420, 56.500 39.467 M 19.008 45 C 19.035 46.358, 34.846 112.180, 35.240 112.573 C 35.491 112.824, 46.452 109.756, 59.598 105.755 L 83.500 98.481 83.796 95.469 L 84.093 92.456 76.296 92.789 C 72.008 92.972, 61.075 93.492, 52 93.945 C 37.153 94.686, 32.386 94.280, 34.233 92.433 C 34.563 92.103, 45.234 89.458, 57.945 86.555 C 70.657 83.652, 81.303 81.031, 81.603 80.730 C 81.904 80.429, 81.842 78.126, 81.465 75.612 L 80.779 71.041 60.640 70.770 C 43.767 70.544, 40.500 70.263, 40.500 69.039 C 40.500 67.945, 45.023 66.674, 58.500 63.979 L 76.500 60.380 76.270 53.544 C 76.144 49.784, 75.810 46.476, 75.528 46.194 C 74.859 45.525, 18.994 44.345, 19.008 45 M 80.733 50.250 C 81.031 52.587, 81.378 54.627, 81.504 54.783 C 81.630 54.939, 83.931 53.044, 86.617 50.573 L 91.500 46.079 85.845 46.040 L 80.190 46 80.733 50.250 M 88.500 52.513 C 84.650 56.051, 82.043 58.958, 82.706 58.973 C 89.189 59.117, 127.224 48.988, 129.917 46.400 C 130.146 46.180, 122.496 46.018, 112.917 46.039 L 95.500 46.079 88.500 52.513 M 65 65.500 L 54.500 67.787 67.250 67.893 L 80 68 80 65.500 C 80 62.413, 79.176 62.413, 65 65.500 M 84.014 73.250 C 84.038 77.318, 85.205 80, 86.950 80 C 89.845 80, 90.006 78.909, 87.708 74.883 C 85.205 70.499, 83.994 69.964, 84.014 73.250 M 90.005 71.750 C 90.008 72.162, 91.043 73.791, 92.306 75.369 L 94.602 78.239 109.051 75.005 C 116.998 73.226, 123.687 71.598, 123.917 71.386 C 124.146 71.174, 116.608 71, 107.167 71 C 97.725 71, 90.002 71.338, 90.005 71.750 M 87.430 82.682 C 85.766 83.011, 85.445 83.672, 85.793 86.046 C 86.198 88.803, 86.519 89, 90.613 89 C 93.026 89, 95 88.753, 95 88.450 C 95 88.148, 94.313 86.573, 93.474 84.950 C 91.970 82.041, 91.521 81.872, 87.430 82.682 M 66.760 87.273 C 59.204 88.967, 53.184 90.517, 53.383 90.716 C 53.582 90.916, 60.328 90.768, 68.373 90.388 L 83 89.697 83 86.848 C 83 83.443, 83.950 83.418, 66.760 87.273 M 115.178 90.747 C 108.088 90.947, 103.982 91.447, 104.194 92.083 C 104.381 92.642, 108.351 98.686, 113.017 105.515 L 121.500 117.931 125.833 117.965 C 128.844 117.989, 130.040 118.381, 129.751 119.250 C 129.463 120.112, 123.555 120.982, 110.695 122.056 C 100.443 122.911, 91.813 123.854, 91.516 124.150 C 91.019 124.648, 92.428 137.685, 93.515 142.646 C 93.789 143.894, 93.420 145.009, 92.633 145.311 C 91.763 145.644, 88.545 141.933, 83.619 134.915 C 78.890 128.177, 75.297 124.001, 74.229 124.003 C 69.919 124.012, 27.653 127.013, 27.333 127.334 C 27.135 127.532, 34.403 137.325, 43.485 149.097 C 54.621 163.532, 60.002 171.314, 60.013 173 C 60.053 178.717, 57.291 178.526, 113.175 176.666 C 141.404 175.726, 166.786 174.719, 169.580 174.428 L 174.659 173.899 159.276 158.715 L 143.892 143.531 144.598 116.765 L 145.303 90 135.902 90.214 C 130.731 90.331, 121.405 90.571, 115.178 90.747 M 87 94.500 C 87 97.390, 87.057 97.401, 92.948 95.640 C 99.492 93.683, 99.323 92, 92.583 92 C 87.294 92, 87 92.132, 87 94.500 M 95.628 97.644 C 91.849 98.890, 88.549 100.117, 88.296 100.371 C 88.042 100.625, 88.379 105.164, 89.046 110.457 L 90.257 120.082 102.879 119.411 C 109.820 119.042, 116.062 118.444, 116.748 118.081 C 117.614 117.624, 115.707 114.096, 110.528 106.574 C 106.420 100.608, 102.934 95.648, 102.780 95.552 C 102.626 95.456, 99.408 96.398, 95.628 97.644 M 81.381 124.765 C 80.641 125.251, 81.953 127.875, 85.248 132.500 L 90.234 139.500 89.579 134.500 C 88.269 124.499, 88.059 123.999, 85.171 124.015 C 83.702 124.024, 81.996 124.361, 81.381 124.765" stroke="none" fill="black" fill-rule="evenodd"/>
</svg>