<svg xmlns="http://www.w3.org/2000/svg" width="200" height="200" viewBox="0 0 200 200" version="1.1">
	<path d="M 98.247 24.949 C 69.508 27.547, 45.688 29.979, 45.314 30.353 C 43.795 31.872, 47.138 32.815, 60 34.500 C 67.425 35.472, 73.848 36.578, 74.273 36.957 C 74.699 37.336, 61.311 43.415, 44.523 50.466 C 24.093 59.046, 14 63.772, 14 64.759 C 14 65.796, 14.667 66.058, 16.250 65.643 C 17.488 65.319, 28.777 62.697, 41.337 59.817 L 64.175 54.580 66.065 57.040 C 67.105 58.393, 67.966 59.731, 67.978 60.012 C 67.990 60.294, 65.075 61.363, 61.500 62.386 C 54.909 64.274, 53.135 66.335, 57.250 67.324 C 58.487 67.622, 63.275 68.433, 67.888 69.127 L 76.276 70.388 81.626 76.873 C 84.568 80.440, 86.819 83.514, 86.629 83.705 C 86.309 84.024, 64.019 80.711, 57.750 79.411 C 55.716 78.990, 55 79.233, 55 80.345 C 55 82.698, 64.141 85.007, 77.500 86.028 C 89.375 86.935, 89.529 86.979, 92.274 90.222 C 98.046 97.041, 100.509 95.311, 61.236 112.015 C 41.581 120.374, 25.389 127.315, 25.252 127.438 C 25.116 127.561, 34.870 136.642, 46.927 147.619 L 68.849 167.575 109.600 178.312 C 132.014 184.217, 150.666 188.700, 151.051 188.274 C 152.167 187.039, 161.259 158.926, 160.718 158.385 C 160.449 158.115, 154.545 158.501, 147.600 159.241 C 140.654 159.982, 135.090 160.304, 135.235 159.957 C 135.381 159.609, 143.997 145.737, 154.383 129.129 C 164.769 112.521, 173.074 98.740, 172.839 98.505 C 172.603 98.270, 163.768 96.638, 153.205 94.879 C 134.837 91.819, 134 91.581, 134 89.407 C 134 86.754, 134.554 86.553, 146.255 84.974 C 154.136 83.910, 157.112 82.778, 155.711 81.378 C 155.442 81.109, 150.784 80.169, 145.361 79.290 C 139.937 78.412, 134.938 77.257, 134.250 76.724 C 133.410 76.073, 133 72.728, 133 66.538 C 133 57.632, 133.086 57.282, 135.547 56.161 C 136.948 55.522, 138.511 55, 139.021 55 C 139.531 55, 142.690 59.077, 146.041 64.061 C 149.392 69.045, 152.666 72.935, 153.317 72.707 C 154.678 72.230, 154.751 72.993, 151.928 58.019 L 149.763 46.538 142.905 39.019 L 136.046 31.500 145.106 27.249 C 150.654 24.645, 154.005 22.513, 153.750 21.749 C 153.521 21.062, 152.697 20.438, 151.917 20.362 C 151.138 20.287, 126.986 22.350, 98.247 24.949 M 133.701 24.868 C 131.102 25.455, 131.006 25.644, 132.368 27.497 C 133.822 29.477, 133.882 29.471, 139.167 26.808 L 144.500 24.122 140.500 24.179 C 138.300 24.211, 135.240 24.521, 133.701 24.868 M 95.500 28.019 C 78.450 29.559, 63.150 30.980, 61.500 31.177 C 59.850 31.374, 64.694 32.399, 72.264 33.454 C 79.834 34.509, 85.684 35.676, 85.264 36.048 C 84.844 36.420, 72.908 41.582, 58.740 47.519 C 44.572 53.456, 33.103 58.436, 33.253 58.586 C 33.403 58.736, 39.978 57.315, 47.864 55.429 C 55.750 53.543, 62.944 52, 63.851 52 C 64.758 52, 66.866 53.627, 68.536 55.616 L 71.572 59.232 99.993 45.609 C 115.625 38.116, 128.828 31.572, 129.334 31.066 C 130.578 29.822, 129.272 24.972, 127.731 25.110 C 127.054 25.170, 112.550 26.480, 95.500 28.019 M 132.827 43.250 C 133.045 48.888, 133.329 53.618, 133.458 53.763 C 133.587 53.908, 135.292 53.358, 137.247 52.541 L 140.802 51.056 145.038 57.558 C 147.368 61.134, 149.463 63.871, 149.694 63.639 C 149.925 63.408, 149.460 59.756, 148.661 55.523 C 147.574 49.768, 146.491 47.028, 144.370 44.663 C 138.023 37.590, 133.552 33, 133.006 33 C 132.689 33, 132.608 37.612, 132.827 43.250 M 104.459 46.488 C 91.281 52.806, 78.800 58.770, 76.722 59.742 L 72.944 61.508 75.722 64.801 L 78.500 68.094 104.500 72.440 C 118.800 74.831, 130.667 76.630, 130.872 76.438 C 131.077 76.246, 130.926 72.276, 130.538 67.616 L 129.832 59.143 125.666 60.965 C 123.375 61.967, 117.573 64.610, 112.774 66.837 C 107.496 69.286, 103.801 70.487, 103.424 69.877 C 102.565 68.486, 102.099 68.764, 116.550 62.056 L 129.500 56.045 129.784 45.523 C 129.940 39.735, 129.696 35, 129.242 35 C 128.789 35, 117.636 40.169, 104.459 46.488 M 65 64.214 C 62.556 65.278, 62.590 65.320, 66.500 66.093 C 68.700 66.529, 71.357 66.911, 72.405 66.942 C 74.247 66.998, 74.250 66.934, 72.500 65 C 70.491 62.780, 68.722 62.595, 65 64.214 M 83.792 74.989 C 85.281 76.990, 87.465 79.837, 88.644 81.314 L 90.788 84 110.963 84 L 131.139 84 130.820 81.781 C 130.518 79.689, 129.085 79.327, 105.792 75.456 L 81.084 71.350 83.792 74.989 M 134 82.180 C 134 83.821, 134.451 84.112, 136.250 83.630 C 137.488 83.299, 139.850 83.007, 141.500 82.983 C 145.363 82.927, 143.030 81.505, 137.750 80.699 C 134.448 80.194, 134 80.371, 134 82.180 M 117.500 89.048 C 130.489 91.422, 131 91.420, 131 89 C 131 87.107, 130.370 87.006, 119.250 87.110 L 107.500 87.220 117.500 89.048 M 98.921 94.401 C 101.715 97.911, 104 101.282, 104 101.892 C 104 103.738, 102.255 103.140, 100.266 100.611 L 98.388 98.223 94.944 104.665 C 92.821 108.637, 90.233 111.898, 88.197 113.168 C 86.381 114.301, 85.031 115.359, 85.197 115.518 C 85.364 115.678, 94.275 114.744, 105 113.442 C 127.565 110.704, 131.327 110.520, 130.774 112.177 C 130.558 112.825, 115.108 119.104, 96.441 126.132 C 77.773 133.160, 63.175 138.933, 64 138.960 C 64.825 138.988, 79.675 140.353, 97 141.992 C 114.325 143.632, 129.355 144.979, 130.399 144.987 C 132.230 145, 132.279 144.086, 131.754 119.938 C 131.454 106.154, 131.038 94.705, 130.828 94.495 C 130.619 94.286, 123.484 92.966, 114.974 91.563 C 106.463 90.161, 98.227 88.789, 96.671 88.516 C 93.888 88.026, 93.923 88.120, 98.921 94.401 M 134.603 121.500 L 135.308 148 133.070 148 C 130.753 148, 70.526 142.511, 61.250 141.454 C 57.905 141.073, 56 140.383, 56 139.551 C 56 138.757, 68.043 133.712, 86.750 126.669 C 103.662 120.302, 117.050 115.074, 116.500 115.052 C 115.950 115.030, 108.075 115.907, 99 117 C 89.925 118.093, 81.487 118.990, 80.250 118.994 C 76.447 119.004, 77.744 116.667, 83.577 113 C 87.102 110.784, 89.859 108.124, 91.093 105.750 C 92.164 103.688, 92.771 102, 92.441 102 C 91.837 102, 33.564 126.673, 31.265 127.902 C 30.486 128.319, 37.409 135.292, 50.003 146.779 L 69.976 164.996 107.738 174.927 C 128.507 180.388, 146.353 185.002, 147.396 185.179 C 148.998 185.450, 149.907 183.667, 153.250 173.687 C 155.427 167.191, 157.023 161.690, 156.797 161.464 C 156.571 161.238, 150.580 161.696, 143.483 162.483 C 136.386 163.269, 130.434 163.767, 130.256 163.589 C 130.078 163.411, 138.738 149.196, 149.500 132 C 160.262 114.804, 168.940 100.622, 168.784 100.484 C 168.352 100.105, 137.402 95, 135.532 95 C 134.043 95, 133.960 97.353, 134.603 121.500" stroke="none" fill="black" fill-rule="evenodd"/>
</svg>