<svg xmlns="http://www.w3.org/2000/svg" width="200" height="200" viewBox="0 0 200 200" version="1.1">
	<path d="M 143.511 18.983 C 143.177 19.523, 148.213 27.706, 154.702 37.168 C 169.247 58.375, 168.832 57.707, 166.319 55.901 C 165.247 55.130, 157.233 48.650, 148.509 41.500 L 132.647 28.500 139.324 28.204 C 144.363 27.981, 146 27.552, 146 26.454 C 146 25.255, 143.670 25, 132.700 25 C 123.441 25, 119.023 24.623, 118.158 23.758 C 117.170 22.770, 116.738 22.805, 116.041 23.934 C 115.321 25.099, 108.917 25.433, 80.069 25.809 L 44.974 26.266 36.861 51.383 C 32.399 65.197, 28.510 76.907, 28.219 77.405 C 27.226 79.105, 30.446 76.609, 56.480 55.501 C 70.791 43.898, 82.960 34.126, 83.522 33.784 C 84.585 33.139, 84.531 45.688, 83.394 63.763 L 82.811 73.025 60.406 88.041 C 48.083 96.300, 38 103.371, 38 103.754 C 38 104.137, 39.118 107.387, 40.485 110.975 C 42.772 116.982, 43.114 120.179, 44.785 151.217 C 45.784 169.762, 46.894 185.227, 47.251 185.585 C 47.609 185.943, 63.561 183.968, 82.701 181.196 C 111.603 177.010, 120.889 176.056, 137.500 175.563 C 177.133 174.387, 187 173.773, 187 172.483 C 187 170.940, 185.238 170.666, 153.862 167.333 C 139.645 165.822, 128.348 164.301, 128.757 163.952 C 129.165 163.602, 139.596 159.557, 151.935 154.963 C 171.727 147.593, 174.024 146.515, 171.435 145.815 C 169.821 145.378, 160.175 143.376, 150 141.365 C 139.825 139.355, 131.169 137.422, 130.765 137.070 C 130.360 136.717, 139.016 132.620, 150 127.965 C 160.984 123.309, 169.978 119.256, 169.986 118.959 C 169.994 118.661, 162.238 116.893, 152.750 115.029 C 143.262 113.166, 134.614 111.338, 133.531 110.968 C 132.161 110.499, 137.866 108.201, 152.281 103.415 C 164.733 99.281, 173 96.030, 173 95.268 C 173 93.692, 172.839 93.693, 143.500 95.495 C 130.300 96.305, 118.686 96.976, 117.690 96.984 C 116.463 96.995, 120.891 91.225, 131.440 79.069 C 139.998 69.207, 147 60.712, 147 60.191 C 147 59.671, 142.818 54.127, 137.707 47.872 C 126.295 33.908, 126.778 34.715, 127.973 31.572 C 128.950 29, 129.164 29.145, 151.604 47.530 C 172.195 64.402, 176.067 67.097, 176.191 64.646 C 176.234 63.781, 145.129 18, 144.497 18 C 144.289 18, 143.845 18.442, 143.511 18.983 M 66.209 28.967 L 46.918 29.500 40.466 49 C 36.917 59.725, 34.123 68.806, 34.257 69.180 C 34.391 69.554, 44.175 61.977, 56 52.342 C 84.570 29.062, 83.486 29.866, 85.369 30.588 C 87.230 31.302, 87.508 40.238, 86.343 61.904 L 85.686 74.122 64.093 88.713 C 52.217 96.738, 42.159 103.599, 41.742 103.960 C 41.325 104.321, 42.049 107.290, 43.350 110.558 C 45.500 115.961, 45.874 119.495, 47.462 149.500 C 48.424 167.650, 49.346 182.646, 49.512 182.823 C 49.678 183.001, 63.918 181.067, 81.157 178.526 C 107.422 174.654, 116.469 173.747, 137 172.931 C 150.475 172.395, 162.400 171.850, 163.500 171.718 C 164.600 171.587, 155.600 170.353, 143.500 168.978 C 126.179 167.008, 121.500 166.170, 121.500 165.036 C 121.500 164.081, 128.640 160.895, 142.733 155.564 C 157.668 149.914, 163.410 147.326, 162.094 146.839 C 161.065 146.458, 151.736 144.474, 141.362 142.428 C 130.988 140.383, 122.149 138.402, 121.721 138.026 C 121.292 137.649, 129.753 133.583, 140.523 128.990 C 151.293 124.397, 160.276 120.362, 160.485 120.024 C 160.694 119.685, 152.121 117.684, 141.433 115.576 C 130.745 113.468, 122 111.451, 122 111.093 C 122 110.735, 130.757 107.549, 141.459 104.014 C 152.161 100.478, 160.824 97.505, 160.709 97.407 C 160.594 97.309, 150.375 97.863, 138 98.638 C 125.625 99.413, 114.318 99.924, 112.873 99.774 C 110.385 99.514, 110.771 98.892, 120.172 88 C 125.632 81.675, 133.263 72.801, 137.132 68.280 L 144.165 60.061 135.332 49.090 C 130.475 43.056, 126.275 38.093, 126 38.061 C 125.725 38.029, 119.778 53.414, 112.785 72.251 C 102.889 98.909, 99.278 110.027, 96.494 122.414 L 92.917 138.327 86.060 145.914 C 76.167 156.859, 74.170 158.605, 73.510 156.886 C 73.211 156.108, 74.336 151.428, 76.009 146.486 C 77.975 140.677, 79.267 134.465, 79.663 128.916 C 80.240 120.837, 80.056 119.671, 76.534 109.103 C 74.476 102.927, 72.985 97.682, 73.220 97.447 C 73.455 97.212, 79.166 98.075, 85.911 99.364 C 94.410 100.988, 98.298 101.369, 98.576 100.604 C 98.994 99.451, 115 29.081, 115 28.393 C 115 27.945, 94.487 28.186, 66.209 28.967 M 123.207 29.960 C 124.090 31.374, 124.645 31.583, 125.200 30.710 C 126.452 28.740, 126.122 28, 123.992 28 C 122.247 28, 122.144 28.258, 123.207 29.960 M 117.640 30 C 116.369 33.791, 106.883 77.217, 107.247 77.580 C 107.472 77.806, 111.293 68.278, 115.737 56.408 L 123.816 34.826 120.980 31.663 C 118.816 29.250, 118.023 28.856, 117.640 30 M 77 101.312 C 77 101.484, 78.383 105.647, 80.072 110.562 C 82.931 118.878, 83.101 120.146, 82.510 128.774 C 82.161 133.875, 81.004 140.583, 79.938 143.680 C 78.872 146.778, 78 149.559, 78 149.859 C 78 150.901, 86.040 142.549, 88.422 139.033 C 89.996 136.710, 91.919 130.535, 94.037 121 C 95.809 113.025, 97.444 106.014, 97.671 105.420 C 97.923 104.760, 94.447 103.690, 88.734 102.670 C 79.392 101.001, 77 100.725, 77 101.312" stroke="none" fill="black" fill-rule="evenodd"/>
</svg>