<svg xmlns="http://www.w3.org/2000/svg" width="200" height="200" viewBox="0 0 200 200" version="1.1">
	<path d="M 40 25.563 L 15.500 36.922 15.627 78.711 L 15.753 120.500 20.450 153.990 C 23.034 172.410, 25.299 187.632, 25.484 187.818 C 25.670 188.003, 27.597 185.082, 29.768 181.327 C 31.938 177.572, 37.992 167.075, 43.221 158 C 48.450 148.925, 56.855 135.200, 61.899 127.500 L 71.069 113.500 70.551 103.500 C 70.265 98, 69.825 88.100, 69.572 81.500 L 69.113 69.500 71.044 81.404 C 72.106 87.952, 73.112 93.446, 73.280 93.613 C 73.447 93.781, 79.190 90.564, 86.042 86.466 C 92.894 82.367, 99.022 79.010, 99.660 79.007 C 100.405 79.002, 101.043 82.130, 101.444 87.750 C 101.787 92.563, 102.258 97.697, 102.491 99.160 C 102.990 102.299, 103.607 102.025, 89.122 105.091 L 77.744 107.500 78.362 126 C 78.701 136.175, 79.273 153.670, 79.631 164.877 L 80.284 185.255 92.392 184.639 C 99.051 184.300, 113.050 183.775, 123.500 183.472 C 133.950 183.170, 144.345 182.697, 146.601 182.422 L 150.701 181.922 163.536 155.446 C 171.240 139.553, 175.996 128.630, 175.435 128.119 C 173.529 126.384, 137.044 100.094, 135.096 99.051 C 133.814 98.365, 133.299 97.384, 133.689 96.369 C 134.174 95.105, 133.855 94.911, 132.172 95.445 C 130.565 95.955, 127.644 94.535, 120.271 89.658 C 114.897 86.103, 108.765 81.683, 106.644 79.836 L 102.788 76.478 110.197 72.239 C 114.272 69.908, 118.087 68, 118.676 68 C 119.265 68, 132.940 73.614, 149.064 80.476 C 165.188 87.338, 178.533 92.800, 178.719 92.615 C 178.905 92.429, 174.298 83.866, 168.482 73.586 L 157.908 54.895 162.954 40.535 C 165.729 32.637, 168 25.911, 168 25.588 C 168 25.264, 159.787 24.992, 149.750 24.981 C 134.712 24.966, 128.596 25.431, 115 27.627 C 105.925 29.093, 98.165 30.584, 97.756 30.940 C 97.347 31.297, 97.714 39.989, 98.572 50.256 C 99.430 60.523, 99.990 70.249, 99.816 71.868 L 99.500 74.813 86 64.876 C 78.575 59.410, 71.774 54.078, 70.886 53.027 C 69.999 51.976, 68.967 48.809, 68.593 45.989 C 67.801 40.019, 65.673 39.609, 65.189 45.334 L 64.879 49.013 60.237 45.756 C 57.685 43.965, 55.239 42.250, 54.803 41.944 C 54.367 41.638, 56.299 36.238, 59.097 29.944 C 65.546 15.438, 66.111 13.977, 65.225 14.102 C 64.826 14.158, 53.475 19.316, 40 25.563 M 48.750 24.723 C 43.388 27.238, 39.024 29.567, 39.054 29.898 C 39.174 31.237, 51.301 39.098, 52.059 38.329 C 52.812 37.565, 60 21.346, 60 20.411 C 60 19.589, 58.325 20.231, 48.750 24.723 M 114.140 30.550 C 106.792 31.835, 100.608 33.059, 100.398 33.269 C 100.038 33.629, 102.927 72.260, 103.345 72.678 C 103.452 72.786, 105.894 71.515, 108.770 69.854 C 112.208 67.869, 114 66.178, 114 64.917 C 114 63.863, 114.213 63, 114.474 63 C 114.735 63, 127.658 68.405, 143.191 75.011 C 158.725 81.617, 171.709 86.905, 172.044 86.761 C 172.379 86.617, 168.672 79.475, 163.805 70.889 L 154.955 55.279 159.478 42.279 C 161.965 35.130, 164 28.992, 164 28.640 C 164 28.288, 155.787 28.048, 145.750 28.106 C 131.465 28.189, 124.598 28.720, 114.140 30.550 M 27.250 34.509 L 18 38.879 18.006 77.690 L 18.012 116.500 22.423 147.833 C 24.849 165.067, 26.989 179.322, 27.178 179.512 C 27.368 179.701, 32.441 171.226, 38.450 160.678 C 44.460 150.130, 53.584 135.168, 58.726 127.430 L 68.074 113.360 66.920 83.430 C 65.626 49.857, 66.671 53.800, 57.252 46.962 L 53.005 43.879 49.467 51.641 C 45.439 60.480, 45.482 60.416, 44.123 59.576 C 43.511 59.198, 44.623 55.670, 46.950 50.610 L 50.786 42.267 45.735 38.496 L 40.684 34.725 41.362 55.613 C 42.434 88.661, 43.252 101.068, 44.089 97 C 44.485 95.075, 45.334 90.912, 45.976 87.750 C 46.790 83.733, 47.608 82, 48.688 82 C 49.802 82, 50.065 82.627, 49.631 84.250 C 49.300 85.487, 47.834 92.462, 46.372 99.750 C 43.334 114.900, 41.599 116.876, 40.665 106.250 C 40.338 102.537, 39.522 83.863, 38.852 64.750 C 38.182 45.637, 37.378 30.031, 37.067 30.069 C 36.755 30.107, 32.337 32.105, 27.250 34.509 M 72.631 72.286 C 73.908 80.654, 74.964 88.050, 74.977 88.722 C 74.995 89.696, 93.207 79.693, 96.277 77.022 C 96.886 76.492, 76.344 60.536, 71.404 57.701 C 70.702 57.299, 71.144 62.544, 72.631 72.286 M 104.333 87.914 C 104.700 91.423, 105 95.802, 105 97.647 C 105 101.662, 104.982 101.660, 116.950 98.904 L 126.052 96.809 116.948 90.654 C 111.941 87.270, 106.904 83.833, 105.755 83.017 C 103.683 81.547, 103.672 81.587, 104.333 87.914 M 117.083 101.583 C 111.353 102.913, 106.452 104.215, 106.191 104.475 C 105.636 105.031, 109.824 161.641, 110.853 167.478 L 111.554 171.455 127.839 155.978 L 144.123 140.500 138.311 139.859 C 135.115 139.506, 129.912 139.168, 126.750 139.109 C 123.588 139.049, 121 138.597, 121 138.105 C 121 137.613, 123.025 128.816, 125.500 118.555 C 127.975 108.294, 130 99.696, 130 99.449 C 130 98.716, 128.037 99.040, 117.083 101.583 M 128.393 118.232 C 126.153 127.730, 124.509 135.723, 124.740 135.997 C 124.971 136.270, 131.039 136.720, 138.225 136.997 L 151.290 137.500 130.395 157.224 C 113.690 172.993, 109.364 176.603, 108.821 175.224 C 108.448 174.276, 106.976 158.228, 105.551 139.563 C 104.126 120.898, 102.822 105.489, 102.655 105.322 C 102.488 105.155, 97.660 106.041, 91.926 107.292 L 81.500 109.566 81.741 134.533 C 81.873 148.265, 82.259 164.625, 82.598 170.890 L 83.215 182.279 97.357 181.648 C 105.136 181.301, 119.872 180.724, 130.104 180.365 L 148.708 179.713 160.854 154.690 C 167.534 140.927, 172.887 129.573, 172.750 129.459 C 170.160 127.311, 134.558 101.768, 133.689 101.434 C 132.841 101.109, 131.219 106.254, 128.393 118.232" stroke="none" fill="black" fill-rule="evenodd"/>
</svg>