<svg xmlns="http://www.w3.org/2000/svg" width="200" height="200" viewBox="0 0 200 200" version="1.1">
	<path d="M 109.500 22.562 C 88.600 25.508, 69.588 28.189, 67.250 28.520 C 61.325 29.360, 61.725 31.561, 68.049 32.917 C 70.826 33.513, 73.751 34, 74.549 34 C 78.731 34, 73.460 36.502, 47.488 46.847 C 28.767 54.303, 19 58.683, 19 59.621 C 19 60.812, 21.708 61.004, 35.250 60.775 C 54.527 60.449, 57.331 58.750, 39.829 58 L 28.159 57.500 56.579 46.153 C 72.211 39.913, 85 34.442, 85 33.997 C 85 33.552, 82.841 32.891, 80.202 32.528 C 77.563 32.165, 74.887 31.548, 74.255 31.158 C 73.351 30.599, 120.748 23.553, 140.500 21.310 L 144.500 20.855 139 24.444 C 133.696 27.905, 131.839 28.233, 127.591 26.461 C 125.898 25.754, 125.751 26.003, 126.284 28.668 C 126.883 31.663, 126.811 31.716, 102.855 46.004 C 83.560 57.512, 78.639 60.056, 77.879 58.918 C 77.359 58.138, 76.456 56.664, 75.874 55.643 C 75.130 54.339, 74.500 54.100, 73.759 54.841 C 73.017 55.583, 73.222 56.689, 74.444 58.556 C 76.900 62.303, 75.365 63.373, 69.610 61.923 C 67.032 61.274, 64.768 60.914, 64.579 61.122 C 63.725 62.059, 57.024 76, 57.427 76 C 57.676 76, 61.550 73.794, 66.036 71.097 C 73.219 66.779, 74.562 66.301, 77.298 67.086 C 79.007 67.576, 80.944 68.544, 81.602 69.238 C 83.161 70.881, 95 87.935, 95 88.538 C 95 89.912, 87.247 88.510, 72.662 84.500 C 63.660 82.025, 56.019 80, 55.681 80 C 55.344 80, 57.172 83.600, 59.744 88 C 62.416 92.572, 65.079 95.991, 65.960 95.979 C 66.807 95.967, 72.675 95.125, 79 94.107 C 89.119 92.479, 91.057 92.422, 95.139 93.634 C 98.087 94.510, 100.414 95.983, 101.525 97.679 C 103.187 100.215, 103.340 100.256, 104.623 98.501 C 105.917 96.732, 106.710 96.856, 123.736 101.494 C 144.180 107.063, 145 107.393, 145 110.035 C 145 111.954, 144.104 112, 106.500 112 C 73.805 112, 68 112.215, 68 113.428 C 68 114.247, 70.453 115.787, 73.750 117.039 C 79.282 119.139, 80.430 119.198, 104 118.590 C 117.475 118.243, 132.614 117.685, 137.642 117.351 L 146.784 116.742 147.467 120.121 C 147.842 121.979, 148.350 124.222, 148.596 125.104 C 148.920 126.270, 147.467 127.393, 143.271 129.216 L 137.500 131.724 91.165 131.112 C 65.680 130.775, 44.692 130.638, 44.525 130.807 C 44.357 130.975, 45.154 133.325, 46.296 136.028 L 48.373 140.943 41.818 162.471 C 36.030 181.480, 35.474 184, 37.069 184 C 38.063 184, 60.452 180.423, 86.823 176.050 L 134.770 168.100 149.477 161.078 C 158.983 156.539, 164.029 153.604, 163.744 152.778 C 163.492 152.051, 162.050 151.605, 160.401 151.744 C 156.323 152.088, 97.002 158.927, 94.174 159.379 C 90.628 159.947, 92.153 158.973, 110.500 148.954 C 135.597 135.249, 137.113 134.648, 145.893 134.918 L 153.285 135.146 152.704 131.562 L 152.122 127.977 165.561 121.561 C 179.703 114.809, 182.581 112, 175.356 112 C 170.985 112, 148.973 106.189, 147.370 104.612 C 146.437 103.693, 143 90.618, 143 87.986 C 143 87.563, 146.344 88.249, 150.432 89.510 C 157.431 91.669, 159 91.740, 159 89.894 C 159 89.469, 155.190 87.959, 150.533 86.538 C 140.951 83.616, 142.131 85.363, 138.155 68.205 L 136.234 59.910 139.746 55.705 L 143.259 51.501 142.880 65.500 C 142.579 76.595, 142.773 79.500, 143.815 79.500 C 145.556 79.500, 161.339 42.827, 159.964 41.978 C 159.402 41.630, 153.803 38.906, 147.523 35.923 C 141.242 32.940, 136.080 30.259, 136.051 29.964 C 136.023 29.669, 139.817 27.194, 144.482 24.464 C 153.209 19.356, 155.118 16.920, 150.250 17.104 C 148.738 17.161, 130.400 19.617, 109.500 22.562 M 130.641 32.771 C 130.379 33.195, 131.341 38.642, 132.779 44.876 L 135.393 56.209 140.761 50.355 L 146.130 44.500 145.630 58 C 145.311 66.626, 145.468 70.900, 146.065 69.839 C 147.531 67.234, 157 44.911, 157 44.061 C 157 43.248, 133.795 32, 132.116 32 C 131.567 32, 130.904 32.347, 130.641 32.771 M 104.030 48.450 C 91.671 55.804, 81.419 62.243, 81.247 62.760 C 80.612 64.665, 84.301 66.295, 101.207 71.575 L 118.500 76.975 121.767 73.238 C 123.564 71.182, 126.869 67.154, 129.111 64.286 L 133.188 59.072 130.426 47.036 C 128.908 40.416, 127.403 35.018, 127.082 35.040 C 126.762 35.062, 116.388 41.097, 104.030 48.450 M 127.721 70.208 C 123.626 75.294, 122.314 77.590, 123.221 78.082 C 123.924 78.465, 127.711 79.678, 131.636 80.779 L 138.772 82.781 137.348 76.641 C 135.528 68.791, 133.982 62.996, 133.711 63.014 C 133.595 63.022, 130.899 66.259, 127.721 70.208 M 65.035 65.934 C 63.412 68.966, 63.780 69.243, 66.946 67.373 C 69.884 65.638, 70.141 64, 67.476 64 C 66.703 64, 65.605 64.870, 65.035 65.934 M 86.644 71.184 C 87.115 71.946, 89.907 76.087, 92.850 80.387 L 98.200 88.206 103.850 87.505 C 110.489 86.682, 110.953 86.457, 114.327 82.413 L 116.903 79.326 103.202 75.102 C 95.666 72.778, 88.665 70.634, 87.644 70.338 C 86.251 69.933, 86.001 70.144, 86.644 71.184 M 117.703 82.531 C 115.909 84.997, 115.910 85, 118.703 84.942 C 120.241 84.911, 123.300 84.554, 125.500 84.150 L 129.500 83.414 124.572 81.707 C 121.861 80.768, 119.611 80.014, 119.572 80.031 C 119.532 80.049, 118.691 81.174, 117.703 82.531 M 61 84.590 C 61 85.763, 66.139 93, 66.972 93 C 67.492 93, 71.404 92.482, 75.664 91.848 C 81.516 90.978, 82.881 90.500, 81.246 89.895 C 77.104 88.363, 61 84.143, 61 84.590 M 123.623 87.061 C 113.149 88.851, 109 90.679, 109 93.506 C 109 94.203, 115.583 96.495, 124.750 98.991 C 133.412 101.350, 141.227 103.479, 142.116 103.722 C 143.563 104.117, 143.521 103.239, 141.716 95.332 C 140.607 90.474, 139.654 86.424, 139.598 86.331 C 138.945 85.253, 132.478 85.548, 123.623 87.061 M 101.694 90.639 C 100.676 91.657, 101.952 93, 103.937 93 C 104.937 93, 106.315 92.325, 107 91.500 C 108.059 90.224, 107.803 90, 105.289 90 C 103.663 90, 102.046 90.288, 101.694 90.639 M 148 110.098 C 148 111.777, 148.733 111.986, 154.250 111.884 C 157.688 111.820, 159.607 111.542, 158.515 111.265 C 157.423 110.989, 154.610 110.185, 152.265 109.479 C 148.290 108.283, 148 108.325, 148 110.098 M 79 115.860 C 79.825 116.300, 87.925 116.365, 97 116.004 L 113.500 115.348 95.500 115.204 C 85.600 115.125, 78.175 115.421, 79 115.860 M 156.648 116.744 L 149.795 117.096 150.487 120.798 C 150.867 122.834, 151.302 124.626, 151.453 124.780 C 151.753 125.087, 167.949 117.385, 168.805 116.529 C 169.096 116.238, 168.021 116.088, 166.417 116.196 C 164.813 116.304, 160.416 116.550, 156.648 116.744 M 147 130.500 L 144.500 131.929 147.250 131.965 C 149.044 131.988, 150 131.478, 150 130.500 C 150 128.711, 150.129 128.711, 147 130.500 M 49.582 137.096 L 51.182 141.500 45.163 160.988 C 41.852 171.707, 39.274 180.607, 39.434 180.768 C 39.594 180.928, 61.050 177.488, 87.113 173.123 L 134.500 165.187 145 160.022 C 152.528 156.319, 154.509 155.005, 152 155.380 C 137.380 157.562, 85.575 163.051, 84.282 162.555 C 83.307 162.181, 83.029 161.576, 83.583 161.030 C 84.460 160.164, 117.068 142.087, 127.500 136.683 L 132.500 134.093 102.407 134.047 C 85.856 134.021, 66.839 133.706, 60.148 133.346 L 47.981 132.692 49.582 137.096" stroke="none" fill="black" fill-rule="evenodd"/>
</svg>