<svg xmlns="http://www.w3.org/2000/svg" width="200" height="200" viewBox="0 0 200 200" version="1.1">
	<path d="M 31.681 19.750 C 31.441 20.163, 27.290 33.100, 22.458 48.500 L 13.672 76.500 15.361 122 C 16.290 147.025, 17.039 169.068, 17.025 170.984 L 17 174.467 28.256 163.243 L 39.512 152.019 62.506 142.128 C 75.153 136.688, 85.633 132.354, 85.796 132.498 C 85.958 132.641, 81.082 140.486, 74.958 149.930 C 68.600 159.739, 64.063 167.721, 64.378 168.544 C 64.932 169.985, 74.347 164.203, 106.338 142.773 C 112.849 138.411, 118.302 134.991, 118.456 135.171 C 118.609 135.352, 109.820 145.400, 98.924 157.500 L 79.112 179.500 85.806 180.120 C 89.488 180.461, 102.041 181.069, 113.702 181.472 L 134.905 182.204 162.447 156.352 C 177.595 142.133, 189.992 130.200, 189.995 129.833 C 189.998 129.466, 181.051 126.184, 170.114 122.538 C 158.795 118.765, 149.491 115.095, 148.516 114.018 C 147.075 112.425, 146.982 111.584, 147.932 108.705 C 149.060 105.288, 149.069 105.283, 156.681 104.708 C 161.334 104.356, 164.626 103.619, 165.135 102.816 C 165.594 102.092, 165.976 87.175, 165.985 69.667 C 165.997 44.794, 165.729 37.924, 164.761 38.246 C 164.069 38.477, 159.797 52.861, 155.083 70.830 L 146.643 103 142.444 103 C 138.530 103, 137.858 102.560, 132.581 96.550 L 126.918 90.099 131.209 88.979 C 140.792 86.477, 143.540 85.628, 144.369 84.912 C 144.847 84.499, 137.872 81.836, 128.869 78.994 C 118.482 75.715, 111.653 73.002, 110.182 71.573 L 107.865 69.319 124.915 61.910 C 134.292 57.834, 141.972 53.938, 141.982 53.250 C 141.992 52.563, 141.438 52.015, 140.750 52.034 C 140.063 52.053, 126.714 54.713, 111.086 57.947 C 90.122 62.284, 82.042 63.586, 80.271 62.913 C 78.950 62.411, 71.599 62, 63.935 62 L 50 62 50 50.625 C 50 44.369, 50.263 37.937, 50.583 36.333 L 51.167 33.415 87.752 39.324 L 124.337 45.233 135.168 40.887 C 141.126 38.497, 146 36.306, 146 36.019 C 146 35.733, 135.153 32.636, 121.896 29.138 L 97.792 22.779 70.146 20.915 C 39.586 18.855, 32.331 18.635, 31.681 19.750 M 28.939 37.316 C 26.132 46.217, 22.141 58.900, 20.072 65.500 L 16.309 77.500 18.096 121 C 19.079 144.925, 19.910 165.393, 19.942 166.485 C 19.984 167.943, 22.324 166.009, 28.750 159.203 L 37.500 149.936 65 138.074 C 80.125 131.550, 92.645 126.347, 92.822 126.511 C 92.998 126.675, 88.250 134.390, 82.269 143.655 C 76.288 152.920, 71.026 161.107, 70.577 161.850 C 69.264 164.015, 72.339 162.115, 99.957 143.689 C 125.001 126.980, 129 124.666, 129 126.882 C 129 127.495, 119.050 139.048, 106.890 152.555 C 94.729 166.062, 84.942 177.260, 85.140 177.439 C 85.338 177.619, 96.368 178.156, 109.652 178.633 L 133.803 179.500 159.152 155.729 C 173.093 142.654, 184.617 131.616, 184.760 131.199 C 184.980 130.557, 171.981 125.805, 157.592 121.268 L 153.685 120.036 155.799 122.286 L 157.913 124.536 145.789 144.018 C 131.525 166.939, 133.198 164.598, 131.965 163.365 C 131.295 162.695, 132.960 154.798, 136.981 139.571 C 140.292 127.036, 143 116.642, 143 116.473 C 143 116.304, 137.375 114.291, 130.500 112 C 123.071 109.524, 118 107.308, 118 106.538 C 118 105.642, 120.692 104.973, 126.718 104.371 L 135.436 103.500 129.468 97.222 L 123.500 90.944 117.907 92.567 C 113.092 93.964, 110.207 96.056, 97.187 107.594 L 82.062 120.998 75.281 112.212 C 71.551 107.380, 64.225 97.682, 59 90.662 L 49.500 77.897 48.873 88.199 C 48.527 93.864, 48.190 104.463, 48.123 111.750 C 48.020 122.807, 47.752 125, 46.500 125 C 45.199 125, 45 120.895, 45 94.059 C 45 77.041, 45.395 62.874, 45.878 62.576 C 46.361 62.277, 47.084 54.151, 47.485 44.517 C 48.067 30.563, 48.498 27, 49.607 27 C 50.373 27, 51 27.900, 51 29 C 51 30.100, 51.496 31, 52.101 31 C 52.707 31, 68.795 33.501, 87.851 36.557 C 108.228 39.825, 123.736 41.859, 125.500 41.495 C 127.150 41.155, 130.726 39.872, 133.446 38.644 L 138.392 36.412 116.946 30.789 L 95.500 25.166 68 23.563 C 52.875 22.682, 39.047 21.774, 37.272 21.547 L 34.044 21.133 28.939 37.316 M 156.584 75.836 C 153.329 88.301, 150.464 99.287, 150.217 100.250 C 149.824 101.776, 150.555 102, 155.915 102 C 159.964 102, 162.229 101.566, 162.550 100.729 C 162.819 100.030, 162.917 89.044, 162.769 76.315 L 162.500 53.172 156.584 75.836 M 107 61.533 C 98.475 63.382, 90.825 65.053, 90 65.246 C 89.175 65.439, 91.650 66.653, 95.500 67.945 C 99.350 69.236, 103.018 70.483, 103.650 70.715 C 104.283 70.947, 104.733 70.383, 104.650 69.460 C 104.542 68.252, 107.015 66.696, 113.500 63.896 C 118.450 61.758, 123.400 59.587, 124.500 59.072 L 126.500 58.135 124.500 58.153 C 123.400 58.163, 115.525 59.684, 107 61.533 M 49.667 65.667 C 49.300 66.033, 49 67.158, 49 68.167 C 49 70.553, 50.811 70.482, 64.500 67.554 L 75.500 65.202 62.917 65.101 C 55.996 65.046, 50.033 65.300, 49.667 65.667 M 64.500 70.240 C 56.800 71.877, 50.327 73.378, 50.116 73.575 C 49.905 73.773, 57.068 83.632, 66.034 95.484 C 82.276 116.954, 82.344 117.026, 84.418 115.166 C 106.514 95.353, 111.813 91.244, 116.816 90.044 L 121.983 88.805 115.992 82.166 L 110 75.528 96.750 71.286 C 89.463 68.953, 82.375 67.094, 81 67.154 C 79.625 67.214, 72.200 68.602, 64.500 70.240 M 120.042 82.731 C 122.494 85.334, 124.541 87.587, 124.591 87.739 C 124.641 87.891, 127.341 87.197, 130.591 86.195 L 136.500 84.375 126.998 81.188 C 121.771 79.434, 117.065 78, 116.539 78 C 116.014 78, 117.590 80.129, 120.042 82.731 M 130.500 106.909 L 125.500 107.505 134.750 110.681 C 139.838 112.429, 144 113.681, 144 113.464 C 144 112.350, 137.631 106.022, 136.646 106.157 C 136.016 106.244, 133.250 106.582, 130.500 106.909 M 143 108 C 143.589 109.100, 144.227 110, 144.419 110 C 144.610 110, 145.002 109.100, 145.290 108 C 145.680 106.507, 145.320 106, 143.871 106 C 142.240 106, 142.100 106.319, 143 108 M 145.522 118.207 C 145.275 118.918, 143.243 126.475, 141.006 135 C 138.769 143.525, 136.687 151.400, 136.380 152.500 C 136.072 153.600, 139.911 147.988, 144.910 140.029 C 149.910 132.070, 154 125.269, 154 124.914 C 154 123.725, 149.865 118.998, 147.908 117.951 C 146.473 117.183, 145.854 117.250, 145.522 118.207" stroke="none" fill="black" fill-rule="evenodd"/>
</svg>