<svg xmlns="http://www.w3.org/2000/svg" width="200" height="200" viewBox="0 0 200 200" version="1.1">
	<path d="M 144.500 23.624 L 129.500 32.974 94 32.478 C 53.739 31.915, 11.387 32.956, 11.707 34.500 C 11.821 35.050, 26.559 37.725, 44.457 40.444 C 62.356 43.163, 77 45.646, 77 45.962 C 77 46.278, 68.562 49.200, 58.250 52.455 C 47.938 55.711, 39.339 58.488, 39.143 58.627 C 38.947 58.766, 35.652 68.695, 31.821 80.690 L 24.855 102.500 25.516 141 C 25.879 162.175, 26.250 179.571, 26.338 179.658 C 26.427 179.745, 35.950 177.720, 47.500 175.158 L 68.500 170.500 85.918 171 C 98.908 171.373, 103.445 171.828, 103.765 172.792 C 104.099 173.796, 104.513 173.819, 105.624 172.897 C 106.657 172.040, 111.270 171.868, 122.276 172.278 C 135.154 172.757, 140.120 172.470, 154.500 170.416 C 163.850 169.079, 172.091 167.768, 172.812 167.501 C 173.880 167.105, 173.999 159.888, 173.453 128.758 C 172.830 93.216, 172.610 89.759, 170.367 80.059 L 167.952 69.619 179.383 50.559 C 185.671 40.077, 190.733 31.414, 190.633 31.308 C 190.532 31.203, 179.886 32.203, 166.975 33.531 C 138.814 36.426, 138.900 36.423, 139.610 34.574 C 139.983 33.601, 139.324 33.045, 137.535 32.824 C 135.256 32.542, 135.997 31.847, 143.207 27.500 C 147.768 24.750, 152.428 22.616, 153.561 22.758 C 155.061 22.946, 156.246 21.907, 157.912 18.943 C 159.171 16.702, 160.044 14.735, 159.851 14.571 C 159.658 14.407, 152.750 18.481, 144.500 23.624 M 32.086 35.419 C 32.316 35.649, 43.303 37.465, 56.502 39.453 C 86.183 43.925, 86 43.888, 86 45.395 C 86 46.130, 76.975 49.475, 63.750 53.640 L 41.500 60.649 35 79.574 L 28.500 98.500 28.521 136.688 C 28.532 157.691, 28.832 175.165, 29.186 175.519 C 29.539 175.873, 38.530 174.261, 49.165 171.938 L 68.500 167.714 85.750 168.271 C 98.525 168.684, 102.999 168.526, 102.998 167.664 C 102.997 167.024, 100.977 155.025, 98.510 141 C 96.042 126.975, 94.018 115.183, 94.012 114.795 C 94.005 114.408, 95.688 113.786, 97.750 113.414 C 99.813 113.041, 102.400 112.274, 103.500 111.708 C 105.978 110.434, 132 84.970, 132 83.819 C 132 83.360, 129.684 78.911, 126.854 73.933 L 121.708 64.882 118.770 70.191 C 117.154 73.111, 113.344 80.450, 110.302 86.500 C 107.260 92.550, 104.625 97.660, 104.447 97.856 C 104.268 98.051, 96.196 92.488, 86.508 85.492 C 76.821 78.496, 68.741 72.936, 68.553 73.136 C 68.366 73.336, 67.635 77.615, 66.930 82.645 C 65.772 90.900, 65.896 94.454, 68.204 119.145 C 69.610 134.190, 70.611 146.666, 70.428 146.869 C 70.119 147.211, 56.206 144.111, 54.931 143.416 C 54.617 143.245, 56.272 131.269, 58.608 116.803 C 61.155 101.023, 62.667 88.700, 62.385 86 C 62.128 83.525, 61.716 79.882, 61.471 77.905 C 61.090 74.829, 61.385 74.146, 63.513 73.176 C 65.007 72.495, 66 71.209, 66 69.954 C 66 68.310, 66.432 68.002, 68.029 68.509 C 69.539 68.988, 76.641 65.132, 95.779 53.444 C 109.926 44.804, 122.159 37.120, 122.964 36.367 C 124.204 35.209, 117.325 35, 78.048 35 C 52.538 35, 31.855 35.188, 32.086 35.419 M 101.567 53.079 C 85.747 62.760, 72.907 71.089, 73.032 71.590 C 73.286 72.605, 103.026 94.335, 103.462 93.824 C 103.690 93.556, 117.882 65.850, 118.781 63.917 C 118.936 63.584, 112.186 64.589, 103.781 66.151 C 88.109 69.063, 84.362 69.154, 87.072 66.560 C 90.731 63.057, 133 37.123, 135.581 36.798 C 138.120 36.478, 137.969 36.368, 134.415 35.954 C 130.558 35.505, 128.721 36.463, 101.567 53.079 M 154.916 37.474 C 143.595 38.685, 133.695 40.042, 132.916 40.488 C 128.085 43.258, 95.078 64.411, 95.277 64.610 C 95.410 64.744, 110.815 61.969, 129.510 58.444 C 148.204 54.919, 163.580 52.027, 163.678 52.017 C 163.776 52.008, 164.410 54.587, 165.087 57.750 C 165.763 60.913, 166.597 63.829, 166.940 64.231 C 167.428 64.804, 183.418 39.438, 184.833 35.846 C 185.322 34.605, 177.992 35.004, 154.916 37.474 M 143 58.820 C 132.825 60.697, 124.333 62.385, 124.130 62.570 C 123.926 62.756, 126.168 67.189, 129.112 72.421 C 132.561 78.551, 134.809 81.591, 135.432 80.968 C 137.255 79.145, 138 80.003, 138 83.926 C 138 86.664, 139.162 89.856, 141.838 94.469 L 145.676 101.085 155.333 84.971 L 164.990 68.857 163.245 62.132 L 161.500 55.408 143 58.820 M 156.519 88.213 C 151.579 96.554, 147.644 104.306, 147.773 105.439 C 148.181 109.007, 144.318 167.015, 143.626 167.707 C 141.919 169.414, 141.149 164.835, 139.555 143.502 C 138.610 130.853, 137.716 120.382, 137.567 120.234 C 137.419 120.086, 130.693 130.885, 122.622 144.232 L 107.946 168.500 122.479 169.354 C 135.073 170.094, 138.979 169.923, 151.756 168.071 C 159.865 166.896, 167.512 165.715, 168.750 165.448 L 171 164.962 171 129.801 C 171 95.435, 170.942 94.396, 168.413 83.820 C 166.990 77.869, 165.752 73.011, 165.663 73.024 C 165.573 73.037, 161.458 79.872, 156.519 88.213 M 119.085 100.992 C 106.908 112.724, 104.061 114.983, 100.752 115.542 C 97.388 116.110, 96.905 116.508, 97.334 118.352 C 97.609 119.533, 99.478 130.175, 101.488 142 C 103.498 153.825, 105.348 164.132, 105.599 164.905 C 105.850 165.677, 113.073 154.720, 121.650 140.555 L 137.244 114.801 136.583 103.651 C 135.861 91.487, 135.205 86.972, 134.171 87.052 C 133.802 87.080, 127.013 93.353, 119.085 100.992 M 139.131 100 C 139.169 102.475, 139.523 105.625, 139.917 107 L 140.636 109.500 142.256 106.418 C 143.806 103.471, 143.772 103.166, 141.470 99.418 L 139.062 95.500 139.131 100 M 60.697 121.122 C 59.202 130.680, 57.984 139.212, 57.990 140.082 C 57.997 141.146, 59.553 142.018, 62.749 142.750 C 65.360 143.347, 67.548 143.761, 67.609 143.668 C 67.821 143.352, 64.104 105.812, 63.759 104.777 C 63.570 104.209, 62.192 111.564, 60.697 121.122 M 142.311 111.761 C 140.344 115.359, 140.313 116.047, 141.495 130 C 142.171 137.975, 142.786 143.592, 142.862 142.483 C 144.486 118.785, 145.039 108.706, 144.733 108.399 C 144.525 108.192, 143.436 109.705, 142.311 111.761" stroke="none" fill="black" fill-rule="evenodd"/>
</svg>