<svg xmlns="http://www.w3.org/2000/svg" width="200" height="200" viewBox="0 0 200 200" version="1.1">
	<path d="M 66 27.599 C 54.175 35.566, 43.841 42.741, 43.036 43.543 C 41.753 44.820, 42.999 45, 53.099 45 L 64.628 45 61.954 61.604 C 60.484 70.736, 58.770 78.524, 58.146 78.910 C 57.522 79.295, 48.909 80.873, 39.006 82.417 C 25.654 84.497, 21 85.581, 21 86.611 C 21 87.770, 26.894 88, 56.645 88 L 92.290 88 91.693 95.118 C 91.365 99.034, 90.940 102.393, 90.749 102.584 C 90.558 102.775, 86.017 103.240, 80.658 103.616 L 70.915 104.301 56.457 115.167 C 47.694 121.753, 41.991 126.715, 41.978 127.766 C 41.954 129.598, 49.165 187.329, 49.468 187.739 C 49.566 187.871, 57.246 185.734, 66.536 182.989 C 75.825 180.245, 83.780 178, 84.213 178 C 84.646 178, 85 179.800, 85 182 C 85 184.200, 85.211 186, 85.469 186 C 85.727 186, 90.256 182.625, 95.533 178.500 C 100.810 174.375, 105.661 170.999, 106.314 170.997 C 106.966 170.995, 117.779 173.054, 130.342 175.572 C 142.905 178.090, 153.325 180.003, 153.498 179.825 C 153.670 179.646, 154.536 164.502, 155.422 146.172 L 157.033 112.844 145.930 100.422 L 134.828 88 141.914 88 C 147.546 88, 149 87.692, 149 86.500 C 149 85.293, 147.455 85, 141.099 85 L 133.198 85 131.138 81.509 L 129.078 78.018 131.289 77.535 C 136.588 76.377, 157.078 73, 158.810 73 C 160.284 73, 161.461 74.974, 164.027 81.750 C 167.687 91.413, 168.661 93.048, 169.483 90.906 C 170.312 88.744, 162.484 69.467, 160.860 69.671 C 160.112 69.766, 152.380 71.060, 143.677 72.549 C 133.253 74.331, 127.517 74.917, 126.866 74.266 C 126.215 73.615, 126.919 68.741, 128.930 59.981 C 130.608 52.668, 132.098 46.571, 132.241 46.431 C 132.383 46.292, 141.725 44.555, 153 42.572 C 175.647 38.588, 176 38.503, 176 37.031 C 176 36.354, 168.370 36.001, 153.750 36.002 L 131.500 36.005 115.332 25.002 C 106.440 18.951, 98.902 14, 98.582 14 C 98.262 14, 97.955 15.462, 97.900 17.250 C 97.845 19.038, 97.508 21.497, 97.150 22.716 C 96.579 24.664, 96.083 24.210, 93.052 18.966 C 91.155 15.685, 89.130 13.025, 88.552 13.056 C 87.973 13.087, 77.825 19.632, 66 27.599 M 68.005 29.565 L 49.509 42 65.104 42 C 73.681 42, 84.086 41.714, 88.226 41.364 L 95.754 40.727 96.345 35.735 C 96.886 31.169, 96.587 30.155, 92.854 23.871 C 90.609 20.092, 88.261 17.029, 87.636 17.065 C 87.011 17.100, 78.177 22.725, 68.005 29.565 M 100 24.594 C 100 29.118, 100.619 31.222, 103.234 35.594 L 106.467 41 115.221 41 L 123.975 41 121.368 46.750 C 116.273 57.986, 116.343 57.090, 120.065 63.313 C 122.107 66.726, 123.692 68.473, 124.072 67.730 C 124.418 67.053, 125.760 61.629, 127.056 55.675 C 128.547 48.821, 129.977 44.551, 130.955 44.034 C 131.805 43.586, 137.363 42.424, 143.307 41.453 C 156.577 39.286, 155.559 38.038, 140.500 38.012 L 129.500 37.993 115.670 28.496 C 108.064 23.273, 101.426 19, 100.920 19 C 100.414 19, 100 21.517, 100 24.594 M 99 38 C 99 40.346, 99.442 41, 101.026 41 C 102.955 41, 102.977 40.857, 101.500 38 C 100.647 36.350, 99.735 35, 99.474 35 C 99.213 35, 99 36.350, 99 38 M 113.750 43.805 C 111.138 43.972, 109 44.342, 109 44.627 C 109 46.104, 114.310 53.926, 115.016 53.490 C 115.974 52.898, 119.482 44.067, 118.894 43.728 C 118.677 43.602, 116.362 43.637, 113.750 43.805 M 72.323 44.735 L 67.146 45.099 79.718 61.571 C 86.633 70.630, 92.440 77.894, 92.621 77.712 C 92.802 77.531, 93.414 71.784, 93.981 64.941 C 94.547 58.099, 95.224 50.587, 95.486 48.250 L 95.962 44 86.731 44.185 C 81.654 44.287, 75.170 44.534, 72.323 44.735 M 97.003 63.463 C 95.941 79.246, 95.934 83.216, 96.969 84.463 C 97.671 85.308, 98.572 86, 98.972 86 C 100.121 86, 113.180 57.913, 112.661 56.559 C 112.404 55.890, 110.562 52.790, 108.566 49.671 C 105.353 44.647, 104.560 44, 101.625 44 L 98.312 44 97.003 63.463 M 66.914 50 C 66.831 50.275, 65.580 57.475, 64.132 66 L 61.500 81.500 52.500 83.059 L 43.500 84.618 56.500 85.305 C 75.951 86.333, 91.777 86.169, 92.542 84.933 C 93.066 84.083, 84.018 71.457, 68.282 51.078 C 67.612 50.210, 66.996 49.725, 66.914 50 M 108.787 73.226 C 105.645 79.926, 103.180 85.513, 103.308 85.641 C 103.436 85.770, 109.496 85.610, 116.773 85.286 L 130.005 84.698 128.036 81.599 C 126.640 79.402, 125.437 78.597, 123.903 78.835 C 122.013 79.127, 121.825 78.833, 122.412 76.495 C 122.927 74.441, 122.212 72.330, 119.334 67.410 C 117.272 63.884, 115.340 61.010, 115.042 61.022 C 114.744 61.034, 111.929 66.525, 108.787 73.226 M 94.494 95.059 C 94.104 98.942, 93.965 102.298, 94.185 102.518 C 94.555 102.889, 119.787 101.591, 131.750 100.586 C 134.680 100.339, 137 100.561, 137 101.086 C 137 101.604, 132.283 109.095, 126.518 117.732 C 120.753 126.369, 116.366 133.732, 116.768 134.094 C 117.171 134.455, 122.563 136.419, 128.750 138.458 C 134.938 140.497, 139.993 142.466, 139.984 142.833 C 139.975 143.200, 133.020 148.900, 124.529 155.500 C 116.037 162.100, 109.069 167.730, 109.045 168.012 C 108.995 168.586, 150.313 176.959, 150.830 176.480 C 151.295 176.048, 154.135 116.857, 153.787 114.845 C 153.629 113.935, 148.550 107.529, 142.500 100.609 L 131.500 88.026 116.785 88.013 C 102.609 88, 102.027 88.081, 100.884 90.216 L 99.699 92.432 98.227 90.216 C 97.418 88.997, 96.407 88, 95.980 88 C 95.552 88, 94.884 91.177, 94.494 95.059 M 112.712 104.403 C 98.859 105.257, 94.714 105.832, 93.977 107 C 93.156 108.301, 92.834 112.087, 92.563 123.659 C 92.499 126.365, 94.122 127.143, 111.024 132.508 C 112.551 132.992, 114.576 130.592, 121.998 119.503 C 131.312 105.587, 132.858 102.885, 131.357 103.153 C 130.886 103.236, 122.495 103.799, 112.712 104.403 M 75.643 106.735 C 72.631 107.046, 68.854 109.335, 58.393 117.189 C 46.144 126.386, 45.003 127.513, 45.036 130.373 C 45.091 135.090, 51.558 182.892, 52.233 183.566 C 52.556 183.889, 60.173 181.976, 69.160 179.314 L 85.500 174.476 86.661 159.488 C 87.300 151.245, 88.117 141.020, 88.478 136.766 L 89.135 129.032 85.567 127.331 C 83.605 126.395, 82 125.008, 82 124.247 C 82 122.935, 83.204 123.037, 87.708 124.728 C 89.138 125.265, 89.676 123.008, 90.444 113.250 L 91.014 106 85.257 106.168 C 82.091 106.261, 77.765 106.516, 75.643 106.735 M 91.925 130.288 C 91.590 131.233, 88.422 172.593, 88.661 172.902 C 88.831 173.124, 91.938 172.502, 95.563 171.520 C 101.397 169.941, 104.058 168.236, 118.724 156.674 L 135.294 143.613 126.897 140.690 C 122.279 139.083, 116.250 137.668, 113.500 137.546 C 110.331 137.406, 105.479 135.997, 100.250 133.700 C 95.713 131.707, 91.966 130.171, 91.925 130.288 M 91.750 175.303 C 88.766 176.138, 88 176.837, 88 178.723 C 88 181.077, 88.029 181.071, 92 177.880 C 95.262 175.259, 97.049 173.470, 95.750 174.126 C 95.612 174.196, 93.813 174.725, 91.750 175.303" stroke="none" fill="black" fill-rule="evenodd"/>
</svg>