<svg xmlns="http://www.w3.org/2000/svg" width="200" height="200" viewBox="0 0 200 200" version="1.1">
	<path d="M 127.471 10.411 L 128.180 20.822 121.840 21.432 C 118.353 21.768, 100.215 23.181, 81.532 24.573 C 62.850 25.964, 47.397 27.269, 47.193 27.474 C 46.988 27.679, 48.583 30.468, 50.736 33.673 C 52.890 36.878, 54.950 40.011, 55.315 40.637 C 55.762 41.404, 51.752 42.824, 42.974 45.007 C 35.822 46.785, 29.789 48.532, 29.569 48.889 C 29.348 49.246, 32.953 51.105, 37.579 53.019 C 42.205 54.934, 45.992 56.745, 45.995 57.044 C 45.998 57.343, 42.175 58.833, 37.500 60.356 C 31.632 62.267, 29 63.609, 29 64.690 C 29 66.081, 31.105 66.174, 47.881 65.531 C 60.270 65.055, 66.976 65.152, 67.385 65.814 C 67.727 66.368, 65.004 69.212, 61.333 72.133 L 54.659 77.444 58.080 78.132 C 59.961 78.511, 77.250 80.926, 96.500 83.498 C 115.750 86.070, 131.554 88.248, 131.620 88.337 C 131.686 88.427, 132.050 93.285, 132.429 99.133 L 133.118 109.765 124.309 108 C 119.464 107.029, 113.888 105.950, 111.919 105.603 L 108.337 104.973 103.008 118.480 C 98.488 129.937, 97.501 131.722, 96.508 130.243 C 95.865 129.284, 89.789 119.500, 83.007 108.500 C 76.226 97.500, 70.604 88.392, 70.514 88.259 C 70.425 88.127, 64.595 90.337, 57.558 93.172 L 44.764 98.324 38.487 111.565 L 32.211 124.806 30.044 147.008 C 28.852 159.220, 28.018 169.324, 28.189 169.463 C 28.360 169.602, 35.965 169.498, 45.089 169.232 L 61.678 168.749 80.589 153.281 C 90.990 144.773, 99.847 137.597, 100.271 137.334 C 100.694 137.071, 100.261 138.801, 99.308 141.178 C 98.355 143.555, 94.373 153.600, 90.460 163.500 L 83.344 181.500 86.422 181.723 C 88.115 181.845, 106.332 180.495, 126.905 178.723 L 164.310 175.500 170.648 145.713 L 176.986 115.926 168.059 102.588 L 159.132 89.249 151.316 88.123 C 147.017 87.504, 141.363 86.712, 138.750 86.363 L 134 85.728 134 81.756 C 134 78.143, 134.204 77.832, 136.250 78.324 C 141.051 79.477, 155.117 81.216, 155.615 80.718 C 155.904 80.430, 153.115 75.650, 149.417 70.097 L 142.695 60 137.847 60 L 133 60 133 56.188 C 133 53.094, 133.577 51.949, 136.066 50.110 C 139.599 47.497, 138.050 46.765, 152.515 57.888 C 158.051 62.145, 162.491 64.900, 162.991 64.388 C 163.488 63.879, 157.990 57.336, 150.108 49.056 C 140.425 38.886, 136.121 34.996, 135.557 35.907 C 135.021 36.774, 136.860 39.368, 141.129 43.767 C 147.117 49.937, 147.233 50.142, 143.054 47.167 L 138.608 44.001 135.814 46.678 C 134.278 48.150, 132.844 49.162, 132.628 48.927 C 132.411 48.692, 132.043 44.344, 131.810 39.264 L 131.385 30.028 134.943 28.879 C 147.840 24.714, 155 21.667, 155 20.345 C 155 18.867, 151.446 18.904, 135.888 20.546 L 131.276 21.032 130.638 16.377 C 130.287 13.816, 130 9.084, 130 5.860 C 130 1.126, 129.689 0, 128.381 0 C 126.946 0, 126.842 1.190, 127.471 10.411 M 131.345 24.543 C 130.394 27.022, 131.336 27.109, 137.080 25.070 L 142.500 23.146 137.219 23.073 C 133.333 23.019, 131.781 23.408, 131.345 24.543 M 86.500 26.781 C 67.800 28.166, 52.326 29.443, 52.113 29.619 C 51.900 29.796, 53.649 32.892, 56 36.500 C 58.351 40.108, 60.100 43.199, 59.887 43.370 C 59.674 43.541, 54.364 44.978, 48.086 46.563 L 36.673 49.447 43.586 52.593 L 50.500 55.740 62.500 51.509 C 69.100 49.183, 86.533 43.054, 101.240 37.890 C 125.501 29.370, 127.981 28.291, 127.990 26.250 C 128.002 23.513, 131.204 23.472, 86.500 26.781 M 96 42.588 C 78.125 48.855, 61.503 54.730, 59.063 55.645 L 54.626 57.308 59.941 59.654 C 65.949 62.306, 68.431 62.410, 100.163 61.347 L 119.647 60.695 124.764 56.097 L 129.882 51.500 129.191 41.347 L 128.500 31.195 96 42.588 M 126.306 58.468 L 123.500 60.937 126.750 60.968 C 129.558 60.996, 130 60.660, 130 58.500 C 130 55.408, 129.786 55.406, 126.306 58.468 M 44.575 60.579 C 42.416 61.369, 40.429 62.238, 40.158 62.508 C 39.888 62.779, 43.567 63, 48.333 63 C 57.218 63, 58.936 62.203, 54.453 60.161 C 51.253 58.702, 49.494 58.777, 44.575 60.579 M 121.526 63.732 C 120.441 64.008, 117.564 65.862, 115.134 67.854 L 110.715 71.475 118.107 72.688 C 122.173 73.355, 126.737 74.137, 128.250 74.425 C 130.912 74.933, 131 74.810, 131 70.557 C 131 64.195, 130.289 62.981, 126.643 63.116 C 124.914 63.180, 122.612 63.457, 121.526 63.732 M 133.481 68.750 C 133.873 71.912, 134.380 74.693, 134.609 74.929 C 135.048 75.382, 150.355 77.935, 150.704 77.613 C 150.816 77.510, 148.791 74.187, 146.204 70.229 C 141.562 63.128, 141.443 63.033, 137.135 63.017 L 132.770 63 133.481 68.750 M 80 65 C 76.425 65.360, 73.798 65.732, 74.161 65.827 C 74.525 65.922, 82.077 67.135, 90.943 68.522 L 107.064 71.043 111.032 67.854 C 113.214 66.100, 115 64.516, 115 64.333 C 115 63.770, 86.894 64.306, 80 65 M 66.016 71.844 L 61.532 75.738 64.516 76.329 C 70.633 77.540, 131.046 85.285, 131.374 84.900 C 131.562 84.680, 131.516 82.902, 131.272 80.949 L 130.828 77.399 119.219 75.692 L 107.610 73.986 104.427 77.071 L 101.244 80.156 88.372 74.659 C 70.706 67.116, 71.364 67.199, 66.016 71.844 M 92 73.081 C 100.246 76.938, 100.673 77.019, 102.447 75.058 C 104.227 73.092, 104.721 73.248, 91 71.437 L 87.500 70.975 92 73.081 M 135.459 104.750 C 136.121 119.620, 136.434 121.445, 141.077 137.420 C 143.781 146.725, 145.856 154.477, 145.688 154.645 C 145.520 154.814, 143.158 154.109, 140.441 153.079 L 135.500 151.207 134.356 135.354 C 133.422 122.400, 132.064 114.276, 130.490 112.222 C 130.071 111.675, 110.537 108.130, 110.139 108.528 C 109.261 109.406, 100.250 133, 100.792 133 C 101.111 133, 102.411 132.023, 103.682 130.829 C 104.952 129.636, 106.181 128.848, 106.412 129.079 C 106.643 129.311, 102.425 140.637, 97.039 154.250 C 88.985 174.608, 87.554 179, 88.977 179 C 92.658 179, 161.451 172.883, 161.810 172.523 C 162.019 172.314, 164.849 159.644, 168.100 144.367 L 174.009 116.591 165.852 104.276 C 160.645 96.415, 156.936 91.796, 155.597 91.503 C 152.766 90.885, 138.241 89, 136.306 89 C 134.944 89, 134.842 90.894, 135.459 104.750 M 57.198 96.185 L 46.897 100.243 40.942 112.786 L 34.987 125.329 32.948 145.786 C 31.826 157.037, 31.097 166.430, 31.327 166.660 C 31.557 166.891, 38.378 166.766, 46.484 166.383 L 61.222 165.686 78.861 151.247 C 88.562 143.305, 96.500 136.505, 96.500 136.136 C 96.500 134.595, 69.469 92.005, 68.528 92.063 C 67.963 92.098, 62.864 93.953, 57.198 96.185 M 137.612 141.500 C 138.002 146.119, 138.738 148.922, 139.778 149.740 C 140.645 150.421, 141.497 150.837, 141.671 150.663 C 141.845 150.488, 140.870 146.781, 139.505 142.423 L 137.022 134.500 137.612 141.500" stroke="none" fill="black" fill-rule="evenodd"/>
</svg>