<svg xmlns="http://www.w3.org/2000/svg" width="200" height="200" viewBox="0 0 200 200" version="1.1">
	<path d="M 121 28.053 C 85.658 48.590, 74.348 54.678, 66.044 57.638 L 55.588 61.364 39.544 59.581 C 30.720 58.601, 23.394 57.701, 23.265 57.581 C 23.136 57.462, 32.584 55.202, 44.261 52.559 C 55.938 49.916, 66.356 47.434, 67.414 47.043 C 68.921 46.485, 66.155 44.517, 54.583 37.916 L 39.831 29.500 60.165 28.888 C 71.349 28.551, 89.162 28.214, 99.750 28.138 C 116.950 28.015, 119 27.824, 119 26.343 C 119 24.840, 117.448 24.747, 102.340 25.343 C 93.177 25.704, 73.040 26.014, 57.590 26.032 C 25.089 26.069, 26.101 24.889, 47.961 37.261 C 55.945 41.780, 61.808 45.626, 60.989 45.808 C 28.868 52.958, 14.500 56.726, 14.500 58 C 14.500 59.134, 18.387 59.907, 32.332 61.548 C 42.139 62.703, 50.466 64.136, 50.835 64.733 C 51.205 65.332, 60.692 66.786, 71.984 67.974 C 83.247 69.159, 92.545 70.212, 92.646 70.314 C 92.748 70.416, 92.204 71.990, 91.438 73.812 L 90.044 77.124 80.772 76.532 C 69.732 75.827, 54.500 77.778, 54.500 79.897 C 54.500 80.759, 59.760 83.015, 68.835 86.048 C 76.720 88.682, 83.370 91.037, 83.614 91.281 C 84.262 91.929, 77.827 108, 76.919 108 C 76.497 108, 67.382 105.975, 56.663 103.500 C 45.945 101.025, 36.497 99, 35.667 99 C 34.774 99, 33.877 100.326, 33.468 102.250 C 33.087 104.038, 30.112 116.719, 26.855 130.431 C 22.053 150.649, 21.176 155.596, 22.217 156.599 C 24.458 158.761, 51.283 177, 52.219 177 C 52.713 177, 60.007 170.961, 68.426 163.580 L 83.736 150.161 85.552 138.580 C 86.551 132.211, 87.648 127, 87.990 127 C 88.332 127, 93.727 140.613, 99.978 157.250 C 106.228 173.887, 111.474 187.670, 111.633 187.879 C 111.907 188.235, 177.993 166.072, 178.942 165.306 C 179.292 165.023, 166.221 117.991, 159.359 94.847 C 158.088 90.559, 157.588 90.053, 152.990 88.399 C 148.478 86.777, 148.001 86.313, 148.015 83.552 C 148.035 79.635, 148.829 78.520, 152.438 77.337 C 156.652 75.957, 156.710 74.224, 152.568 73.447 L 149.009 72.779 149.643 67.140 C 149.992 64.038, 150.353 61.400, 150.444 61.278 C 150.536 61.156, 153.439 62.393, 156.895 64.028 C 168.458 69.496, 169.338 67.389, 158.423 60.371 L 150.846 55.500 151.458 47 C 151.795 42.325, 152.352 35.575, 152.697 32 L 153.324 25.500 148.912 29.058 C 146.485 31.015, 141.238 35.228, 137.250 38.421 C 133.262 41.613, 130 44.396, 130 44.605 C 130 44.813, 133.150 47.079, 137 49.639 C 140.850 52.199, 144 54.410, 144 54.553 C 144 54.696, 143.178 54.598, 142.174 54.335 C 141.106 54.056, 134.361 57.036, 125.924 61.515 L 111.500 69.173 104.250 68.501 C 100.263 68.132, 97 67.494, 97 67.085 C 97 66.676, 89.557 65.517, 80.460 64.511 C 71.363 63.504, 63.751 62.406, 63.543 62.070 C 63.336 61.734, 66.616 60.224, 70.833 58.715 C 79.110 55.751, 167.320 5.239, 167.212 3.525 C 167.178 2.989, 166.779 2.470, 166.325 2.372 C 165.871 2.274, 145.475 13.831, 121 28.053 M 141.717 38.212 L 133.993 44.316 140.584 48.738 C 144.208 51.169, 147.355 52.978, 147.576 52.757 C 148.071 52.262, 150.130 32.797, 149.730 32.396 C 149.571 32.238, 145.965 34.855, 141.717 38.212 M 128.004 63.361 C 121.681 66.723, 117.181 69.591, 118.004 69.735 C 118.827 69.878, 125.350 70.625, 132.500 71.395 C 142.231 72.443, 145.685 72.506, 146.235 71.647 C 146.639 71.016, 146.976 67.985, 146.985 64.911 C 146.998 59.884, 146.743 59.204, 144.453 58.161 C 143.052 57.522, 141.365 57.056, 140.703 57.124 C 140.041 57.192, 134.327 59.999, 128.004 63.361 M 94.436 73.489 C 93.745 75.134, 93.352 76.760, 93.563 77.102 C 93.774 77.444, 98.797 78.030, 104.724 78.405 C 110.651 78.780, 117.075 79.299, 119 79.560 C 121.368 79.880, 119.750 78.911, 114 76.565 C 109.325 74.658, 105.598 72.668, 105.719 72.143 C 105.839 71.618, 103.632 71.033, 100.816 70.843 C 95.943 70.515, 95.633 70.643, 94.436 73.489 M 112 72.284 C 112.275 72.586, 117.225 74.667, 123 76.910 L 133.500 80.987 139.750 78.912 C 143.188 77.771, 146 76.504, 146 76.098 C 146 75.691, 139.813 74.806, 132.250 74.131 C 124.688 73.456, 116.925 72.641, 115 72.319 C 113.075 71.998, 111.725 71.982, 112 72.284 M 64.500 79.914 C 61.834 80.516, 62.725 81.004, 72.502 84.296 C 78.553 86.333, 83.997 88, 84.600 88 C 85.203 88, 86.386 86.245, 87.228 84.101 L 88.760 80.202 85.755 79.601 C 81.911 78.832, 68.412 79.031, 64.500 79.914 M 89.987 84.530 C 88.867 87.144, 88.074 89.382, 88.225 89.503 C 88.376 89.624, 100.763 93.800, 115.751 98.783 C 146.905 109.141, 143.416 109.489, 144.466 95.918 L 145.053 88.337 138.276 85.763 C 132.885 83.715, 128.331 82.957, 116 82.054 C 107.475 81.431, 98.593 80.663, 96.262 80.348 L 92.025 79.777 89.987 84.530 M 140.512 81.364 L 137.524 82.638 140.945 83.831 C 144.476 85.062, 145.947 84.308, 145.985 81.250 C 146.004 79.689, 144.359 79.724, 140.512 81.364 M 147.576 92.250 C 146.553 97.228, 145.930 109.001, 146.689 109.015 C 147.135 109.024, 148.123 109.425, 148.884 109.907 C 150.006 110.617, 149.791 111.418, 147.746 114.142 C 145.427 117.231, 145.092 119.060, 143.570 137 C 141.285 163.917, 140.983 166, 139.371 166 C 138.617 166, 137.997 165.438, 137.993 164.750 C 137.990 164.063, 137.074 155.887, 135.958 146.583 L 133.929 129.666 138.523 122.756 C 146.245 111.144, 147.304 112.110, 115.014 101.286 C 99.897 96.218, 87.249 92.393, 86.907 92.786 C 86.565 93.179, 84.825 97.100, 83.041 101.500 C 81.256 105.900, 79.421 109.898, 78.963 110.385 C 78.486 110.892, 69.338 109.232, 57.537 106.496 C 46.211 103.871, 36.792 101.898, 36.607 102.112 C 36.421 102.325, 33.502 114.177, 30.120 128.450 C 25.197 149.224, 24.223 154.634, 25.235 155.577 C 25.931 156.225, 32.265 160.687, 39.312 165.494 L 52.124 174.232 54.312 172.289 C 57.319 169.618, 80.426 149.676, 80.810 149.420 C 80.980 149.307, 82.285 142.078, 83.709 133.357 C 85.134 124.636, 86.569 117.195, 86.899 116.821 C 87.230 116.448, 93.306 131.595, 100.402 150.481 C 107.902 170.445, 113.764 184.664, 114.402 184.447 C 115.006 184.242, 129 179.505, 145.500 173.921 C 162 168.337, 175.631 163.652, 175.792 163.509 C 175.952 163.366, 171.506 147.242, 165.911 127.677 C 155.842 92.469, 155.707 92.094, 152.720 91.052 C 148.532 89.592, 148.101 89.693, 147.576 92.250 M 139.147 126.696 C 136.871 130.169, 136.845 130.481, 137.994 140.375 C 138.641 145.944, 139.273 150.604, 139.399 150.730 C 139.525 150.857, 140.155 144.813, 140.800 137.300 C 141.445 129.787, 141.861 123.528, 141.724 123.391 C 141.588 123.255, 140.428 124.742, 139.147 126.696" stroke="none" fill="black" fill-rule="evenodd"/>
</svg>