<svg xmlns="http://www.w3.org/2000/svg" width="200" height="200" viewBox="0 0 200 200" version="1.1">
	<path d="M 102.500 25.054 C 87.650 25.429, 69.763 25.795, 62.750 25.868 C 52.720 25.972, 50 26.291, 50 27.362 C 50 28.470, 48.550 28.378, 42.250 26.870 C 33.233 24.712, 30.683 24.550, 31.223 26.169 C 31.437 26.812, 42.072 29.685, 54.856 32.552 C 67.640 35.420, 78.279 37.946, 78.500 38.166 C 78.720 38.387, 62.916 42.827, 43.379 48.033 C 23.842 53.240, 7.331 57.819, 6.687 58.208 C 5.920 58.673, 5.858 59.231, 6.508 59.830 C 7.111 60.385, 17.106 59.618, 32 57.872 C 45.475 56.293, 57.175 55.124, 58 55.273 C 58.825 55.422, 56.462 56.872, 52.750 58.495 C 42.748 62.867, 43.726 64, 57.500 64 C 63.825 64, 69 64.393, 69 64.874 C 69 66.224, 63.958 75.096, 60.972 79 C 59.499 80.925, 52.616 94.650, 45.675 109.500 L 33.056 136.500 36.037 156.425 C 37.676 167.384, 39.242 176.576, 39.517 176.851 C 39.793 177.126, 45.988 175.489, 53.285 173.213 L 66.553 169.074 88.026 174.662 L 109.500 180.249 148.500 178.106 C 169.950 176.927, 188.063 175.971, 188.750 175.981 C 189.438 175.991, 190 175.359, 190 174.575 C 190 172.945, 189.944 172.928, 154.706 163.443 L 128.912 156.500 135.706 150.025 C 152.040 134.457, 176.112 110.787, 175.819 110.579 C 175.016 110.009, 111.629 92.038, 111.362 92.304 C 111.197 92.470, 116.222 98.965, 122.530 106.737 L 134 120.868 118.518 128.991 L 103.036 137.113 87.268 128.896 C 78.596 124.376, 71.404 120.618, 71.287 120.543 C 71.170 120.468, 71.716 117.973, 72.501 114.998 C 73.853 109.869, 75.111 108.405, 96.706 86.794 L 119.484 64 127.742 64 C 132.284 64, 135.995 64.112, 135.990 64.250 C 135.984 64.388, 134.452 69.563, 132.586 75.751 C 130.481 82.732, 129.572 87.236, 130.193 87.619 C 131.396 88.363, 131.247 88.512, 144.342 73.500 L 154.809 61.500 147.314 61.206 C 141.028 60.960, 139.915 60.663, 140.414 59.363 C 140.741 58.511, 141.280 56.731, 141.613 55.407 C 141.945 54.083, 142.348 53, 142.509 53 C 142.670 53, 147.507 55.700, 153.258 59 C 159.009 62.300, 164.229 65, 164.857 65 C 167.607 65, 165.419 62.606, 157.331 56.763 C 152.563 53.318, 147.655 49.600, 146.424 48.500 L 144.186 46.500 146.781 37.738 C 150.325 25.771, 149.075 25.097, 140.964 34.600 C 137.409 38.764, 134.394 42.471, 134.263 42.836 C 134.133 43.201, 135.610 44.526, 137.546 45.781 C 140.167 47.479, 140.847 48.451, 140.209 49.590 C 139.739 50.431, 134.662 53.328, 128.927 56.027 L 118.500 60.934 96.750 60.967 C 84.787 60.985, 75 60.723, 75 60.385 C 75 59.893, 76.660 56.566, 80.570 49.225 C 80.650 49.074, 94.393 44.051, 111.108 38.063 C 132.071 30.554, 141.600 26.683, 141.823 25.588 C 142.095 24.256, 141.128 24.030, 135.823 24.186 C 132.345 24.289, 117.350 24.679, 102.500 25.054 M 91.500 28.054 C 48.640 29.137, 51.046 28.610, 69.493 32.875 C 80.606 35.444, 85.572 37.019, 85.766 38.036 C 85.979 39.157, 79.492 41.255, 58.092 46.986 C 42.718 51.104, 30.302 54.636, 30.501 54.834 C 31.498 55.831, 68.960 50.723, 73 49.039 C 75.475 48.008, 89.644 42.821, 104.486 37.512 C 119.328 32.204, 131.666 27.667, 131.903 27.431 C 132.140 27.194, 129.221 27.084, 125.417 27.186 C 121.612 27.289, 106.350 27.679, 91.500 28.054 M 141.020 38.630 C 138.132 41.920, 137.979 42.407, 139.392 43.821 C 140.250 44.679, 141.187 45.147, 141.473 44.860 C 142.094 44.239, 144.936 35, 144.506 35 C 144.342 35, 142.773 36.634, 141.020 38.630 M 61.500 57.463 L 52.500 61.824 58.500 61.901 C 68.878 62.034, 71.522 61.226, 73.367 57.357 C 74.265 55.473, 75 53.722, 75 53.466 C 75 51.984, 69.365 53.652, 61.500 57.463 M 131.500 57.926 L 125.500 60.847 131.152 60.923 C 136.560 60.997, 136.849 60.871, 137.850 58 C 138.425 56.350, 138.582 55.001, 138.198 55.003 C 137.814 55.005, 134.800 56.320, 131.500 57.926 M 69.413 70.750 C 67.345 74.463, 64.440 79.075, 62.956 81 C 61.472 82.925, 54.788 96.296, 48.101 110.714 L 35.943 136.928 38.612 155.214 C 40.080 165.271, 41.358 173.603, 41.453 173.730 C 41.548 173.856, 47.136 172.214, 53.869 170.081 L 66.112 166.203 87.806 171.763 L 109.500 177.322 144.751 175.496 C 164.140 174.491, 179.837 173.504, 179.635 173.302 C 179.433 173.100, 167.620 169.799, 153.384 165.967 C 139.148 162.135, 126.732 158.662, 125.792 158.250 C 124.429 157.651, 128.796 152.961, 147.435 135 C 160.278 122.625, 170.647 112.350, 170.477 112.168 C 169.864 111.507, 119.536 97.131, 119.159 97.508 C 118.946 97.721, 122.714 102.756, 127.532 108.697 C 132.349 114.639, 136.697 120.022, 137.193 120.660 C 137.829 121.477, 132.920 124.520, 120.548 130.975 L 103 140.131 85.500 131 C 75.875 125.978, 68 121.591, 68 121.250 C 68 120.910, 68.735 117.902, 69.634 114.566 C 71.232 108.632, 71.749 108.016, 93.376 86.250 L 115.483 64 94.328 64 L 73.172 64 69.413 70.750 M 136.561 72.189 C 135.177 76.694, 134.148 80.443, 134.273 80.520 C 134.398 80.598, 137.796 76.913, 141.823 72.331 L 149.147 64 144.111 64 L 139.076 64 136.561 72.189" stroke="none" fill="black" fill-rule="evenodd"/>
</svg>