<svg xmlns="http://www.w3.org/2000/svg" width="200" height="200" viewBox="0 0 200 200" version="1.1">
	<path d="M 143.341 20.982 L 120.183 27.843 70.175 29.172 C 42.670 29.902, 19.829 30.837, 19.417 31.250 C 19.004 31.662, 18.995 32.328, 19.395 32.729 C 19.796 33.130, 38.626 34.463, 61.240 35.693 C 94.440 37.498, 102.648 38.219, 103.869 39.440 C 104.700 40.272, 105.183 41.148, 104.940 41.387 C 104.369 41.951, 81.554 51.889, 81.340 51.668 C 81.250 51.576, 81.614 49.104, 82.147 46.176 C 82.681 43.248, 82.979 40.444, 82.809 39.946 C 82.531 39.131, 28.523 75.251, 25.071 78.560 C 23.976 79.609, 22.876 90.639, 20.368 125.715 C 18.567 150.897, 17.072 173.970, 17.047 176.988 L 17 182.476 32.417 167.083 L 47.834 151.690 75.040 170.936 C 97.413 186.763, 102.468 189.944, 103.493 188.841 C 104.178 188.104, 112.927 177.479, 122.935 165.231 C 132.942 152.983, 141.507 143.195, 141.968 143.480 C 142.428 143.765, 149.937 153.265, 158.653 164.592 L 174.500 185.186 175.119 180.843 C 175.459 178.454, 176.328 161.752, 177.049 143.726 L 178.360 110.951 171.542 70.226 C 167.792 47.827, 164.449 29.186, 164.112 28.803 C 163.775 28.420, 158.283 36.520, 151.907 46.803 L 140.314 65.500 132.407 65.270 C 124.156 65.030, 119.386 64.280, 120.300 63.367 C 120.594 63.072, 118.397 58.667, 115.418 53.578 C 112.438 48.488, 110 43.878, 110 43.333 C 110 42.787, 123.271 36.527, 139.490 29.421 C 155.710 22.314, 168.985 15.938, 168.990 15.250 C 168.996 14.563, 168.438 14.027, 167.750 14.061 C 167.063 14.094, 156.079 17.209, 143.341 20.982 M 130.500 27.528 L 119.500 30.832 88.500 31.619 C 56.112 32.441, 56.319 32.804, 90.134 34.474 C 104.216 35.169, 104.816 35.287, 106.053 37.598 C 106.760 38.919, 107.620 40, 107.964 40 C 108.309 40, 116.670 36.413, 126.545 32.029 C 136.420 27.645, 143.825 24.095, 143 24.140 C 142.175 24.186, 136.550 25.710, 130.500 27.528 M 152.682 50.785 L 142.961 66.500 145.730 67.006 C 148.470 67.507, 148.507 67.615, 149.138 77.006 C 149.489 82.228, 149.827 90.662, 149.888 95.750 C 149.987 103.937, 149.799 105, 148.250 104.997 C 147.287 104.995, 139.337 104.305, 130.582 103.464 C 121.827 102.624, 114.340 102.288, 113.944 102.718 C 113.548 103.148, 113.026 107.167, 112.783 111.649 L 112.342 119.797 119.421 120.386 C 123.315 120.710, 134.600 121.473, 144.500 122.080 C 160.853 123.085, 165.428 123.905, 163.793 125.540 C 163.478 125.855, 151.510 128.397, 137.197 131.189 L 111.174 136.265 110.466 146.883 C 109.275 164.718, 108.549 170.322, 107.380 170.709 C 106.752 170.917, 103.232 164.224, 99.380 155.499 C 94.366 144.144, 92.093 140.021, 91 140.299 C 90.175 140.509, 80.388 142.412, 69.250 144.528 C 58.113 146.644, 49.025 148.628, 49.055 148.937 C 49.144 149.863, 100.327 185.500, 101.567 185.500 C 102.195 185.500, 111.159 175.150, 121.487 162.500 C 131.814 149.850, 140.559 139.168, 140.920 138.762 C 141.281 138.356, 148.534 147.042, 157.038 158.064 L 172.500 178.104 172.783 174.302 C 172.939 172.211, 173.674 157.675, 174.418 142 L 175.769 113.500 169.342 74.541 C 165.807 53.113, 162.799 35.466, 162.659 35.325 C 162.518 35.185, 158.028 42.141, 152.682 50.785 M 94 49.345 C 87.675 52.191, 81.938 54.879, 81.250 55.318 C 79.762 56.270, 79.566 60, 81.003 60 C 81.555 60, 89.947 60.908, 99.652 62.017 C 109.358 63.127, 117.436 63.897, 117.604 63.729 C 118.088 63.246, 106.847 43.990, 106.137 44.086 C 105.787 44.133, 100.325 46.500, 94 49.345 M 63.676 55.171 C 55.522 60.679, 49.021 65.355, 49.229 65.563 C 49.437 65.770, 55.993 63.141, 63.798 59.720 C 77.212 53.841, 78.023 53.325, 78.596 50.304 C 78.930 48.546, 79.044 46.669, 78.851 46.133 C 78.658 45.597, 71.829 49.664, 63.676 55.171 M 68.218 60.694 C 63.664 62.661, 60.119 64.453, 60.342 64.676 C 60.921 65.255, 75.331 61.944, 76.344 60.999 C 76.808 60.566, 77.033 59.516, 76.844 58.665 C 76.559 57.384, 75.072 57.734, 68.218 60.694 M 79.502 64.250 C 79.263 64.938, 78.366 69.775, 77.509 75 C 74.872 91.065, 75.324 89.993, 71.171 90.052 C 67.967 90.098, 68.656 90.530, 76.580 93.446 C 83.250 95.901, 88.167 96.976, 95.108 97.496 L 104.557 98.205 108.799 93.602 C 111.132 91.071, 113.303 89, 113.623 89 C 114.654 89, 136.050 69.717, 135.561 69.228 C 135.072 68.738, 86.241 63.055, 82.219 63.020 C 80.964 63.009, 79.742 63.563, 79.502 64.250 M 58.016 68.589 C 48.400 70.921, 40.178 72.610, 39.745 72.342 C 39.311 72.074, 36.042 73.936, 32.478 76.478 C 27.253 80.207, 25.999 81.623, 25.996 83.801 C 25.994 85.285, 24.646 105.400, 23 128.500 C 21.354 151.600, 20.006 171.608, 20.004 172.962 C 20.001 175.015, 22.776 172.684, 36.750 158.890 C 45.963 149.797, 58.787 137.731, 65.250 132.077 C 71.713 126.423, 77 121.393, 77 120.898 C 77 120.404, 74.467 120, 71.371 120 L 65.742 120 66.345 115.250 C 66.676 112.638, 67.250 107.429, 67.620 103.676 C 67.989 99.922, 68.863 96.280, 69.562 95.581 C 70.589 94.554, 69.596 93.874, 64.374 92.031 C 60.799 90.768, 58.082 89.249, 58.288 88.625 C 58.504 87.972, 61.616 87.378, 65.702 87.209 L 72.743 86.918 74.511 75.931 C 75.483 69.889, 76.103 64.811, 75.889 64.647 C 75.675 64.483, 67.632 66.257, 58.016 68.589 M 127.626 80.780 C 116.387 90.670, 114.456 92.802, 114.193 95.609 C 113.910 98.630, 114.146 98.929, 117.193 99.411 C 120.884 99.995, 142.657 102, 145.303 102 C 146.794 102, 146.999 100.697, 146.991 91.250 C 146.987 85.338, 146.704 78.179, 146.363 75.342 C 145.824 70.857, 145.418 70.122, 143.247 69.707 C 141.186 69.313, 138.470 71.238, 127.626 80.780 M 109 97.500 C 107.980 98.729, 108.049 99, 109.378 99 C 110.270 99, 111 98.325, 111 97.500 C 111 96.675, 110.830 96, 110.622 96 C 110.415 96, 109.685 96.675, 109 97.500 M 70.093 107.113 C 69.448 112.140, 69.128 116.461, 69.381 116.715 C 69.635 116.968, 72.465 117.384, 75.671 117.639 L 81.500 118.103 89.302 111.040 C 95.691 105.256, 96.777 103.860, 95.302 103.330 C 94.311 102.975, 91.475 101.918, 89 100.982 C 86.525 100.046, 81.522 98.986, 77.883 98.626 L 71.265 97.971 70.093 107.113 M 97 101 C 97.825 101.533, 98.950 101.969, 99.500 101.969 C 100.050 101.969, 99.825 101.533, 99 101 C 98.175 100.467, 97.050 100.031, 96.500 100.031 C 95.950 100.031, 96.175 100.467, 97 101 M 103.532 102.250 C 103.309 102.938, 101.960 106.825, 100.535 110.888 C 99.110 114.952, 98.069 118.383, 98.222 118.513 C 98.375 118.643, 101.030 119.056, 104.122 119.431 L 109.743 120.112 110.221 111.306 C 110.535 105.513, 110.322 102.249, 109.599 101.765 C 107.830 100.583, 103.973 100.891, 103.532 102.250 M 92.173 111.972 C 86.261 117.348, 85.998 117.767, 88.173 118.349 C 93.744 119.841, 94.624 119.297, 96.950 112.917 C 98.170 109.572, 99.018 106.696, 98.834 106.527 C 98.650 106.357, 95.653 108.808, 92.173 111.972 M 68.573 132.705 C 58.195 142.014, 56.223 144.186, 58.573 143.717 C 60.183 143.397, 68.107 141.885, 76.183 140.358 L 90.866 137.581 90.353 135.013 C 90.070 133.601, 90.722 130.123, 91.800 127.284 C 94.073 121.301, 93.770 120.966, 86.168 121.054 C 81.647 121.107, 81.092 121.474, 68.573 132.705 M 94.536 127.882 C 92.559 134.412, 92.975 137.427, 95.745 136.638 C 96.710 136.363, 100.109 135.620, 103.297 134.988 L 109.095 133.838 108.797 128.169 L 108.500 122.500 102.421 122.207 L 96.343 121.913 94.536 127.882 M 111.856 127.865 C 111.574 131.937, 111.811 132.991, 113 132.953 C 113.825 132.926, 122.825 131.207, 133 129.132 L 151.500 125.359 142 124.690 C 136.775 124.322, 127.935 123.730, 122.356 123.375 L 112.211 122.729 111.856 127.865 M 100.353 138.362 L 95.207 139.500 100.283 151 C 103.075 157.325, 105.503 162.688, 105.679 162.917 C 106.493 163.974, 106.814 161.630, 107.483 149.750 C 108.070 139.331, 107.954 137.021, 106.851 137.112 C 106.108 137.174, 103.184 137.736, 100.353 138.362" stroke="none" fill="black" fill-rule="evenodd"/>
</svg>