<svg xmlns="http://www.w3.org/2000/svg" width="200" height="200" viewBox="0 0 200 200" version="1.1">
	<path d="M 130.187 33.602 L 115.092 49.322 106.296 46.052 C 101.458 44.253, 95.885 42.307, 93.912 41.727 L 90.324 40.673 69.912 58.938 C 51.099 75.771, 47.084 80, 49.912 80 C 50.494 80, 63.915 75.440, 79.735 69.866 C 104.045 61.302, 109.065 59.195, 112.149 56.262 L 115.797 52.792 129.149 57.811 C 136.492 60.571, 143.850 63.376, 145.500 64.044 C 148.278 65.168, 146.838 65.615, 126 70.094 C 113.625 72.753, 103.388 74.945, 103.250 74.964 C 103.112 74.984, 103 72.525, 103 69.500 C 103 66.475, 102.778 64, 102.506 64 C 102.234 64, 98.972 67.144, 95.256 70.986 L 88.500 77.972 79.483 79.891 C 74.524 80.946, 63.837 82.138, 55.733 82.539 C 44.305 83.105, 41 83.575, 41 84.634 C 41 85.386, 41.112 86.006, 41.250 86.014 C 44.138 86.180, 75.272 90.938, 75.598 91.264 C 75.851 91.518, 63.355 105.353, 47.828 122.008 C 32.301 138.663, 19.464 151.887, 19.301 151.395 C 19.139 150.903, 21.444 129.370, 24.423 103.545 C 29.018 63.715, 30.109 56.393, 31.613 55.294 C 32.587 54.581, 36.693 52.311, 40.736 50.249 L 48.087 46.500 47.794 35.748 C 47.632 29.834, 47.838 24.997, 48.251 24.998 C 48.665 24.999, 60.737 27.065, 75.078 29.590 C 89.420 32.114, 101.427 33.906, 101.760 33.573 C 102.094 33.240, 101.947 32.565, 101.433 32.074 C 100.630 31.306, 49.638 22, 46.232 22 C 45.328 22, 45 25.041, 45 33.428 L 45 44.855 36 49.664 C 31.050 52.309, 27 55.066, 27 55.790 C 27 57.342, 16.327 150.722, 15.507 156.342 C 15.199 158.455, 15.326 160.030, 15.788 159.842 C 16.251 159.654, 30.893 144.175, 48.325 125.445 L 80.020 91.390 88.760 92.629 C 93.567 93.311, 98.287 93.898, 99.250 93.934 C 100.694 93.988, 101 94.950, 101 99.428 L 101 104.856 95.250 105.540 C 90.443 106.112, 85.893 108.201, 67.500 118.280 C 55.400 124.911, 44.858 130.919, 44.072 131.631 C 40.934 134.479, 46.429 133.943, 73.586 128.753 L 101.500 123.419 102.172 130.459 L 102.844 137.500 96.882 143.079 L 90.919 148.659 66.710 149.926 C 53.394 150.623, 42.345 151.342, 42.156 151.524 C 41.966 151.707, 43.766 153.082, 46.156 154.581 C 48.545 156.080, 54.550 159.859, 59.500 162.978 C 64.450 166.097, 69.003 168.943, 69.618 169.302 C 70.233 169.661, 75.579 165.690, 81.500 160.477 C 92.240 151.021, 92.276 151, 97.632 151 C 100.584 151, 103 151.318, 103 151.707 C 103 153.447, 106.158 177.633, 106.534 178.772 C 106.989 180.148, 105.895 180.711, 136.495 163.340 C 148.550 156.496, 154.697 153.516, 155.116 154.312 C 155.461 154.965, 156.055 159.550, 156.436 164.500 C 157.074 172.770, 158.108 176.225, 159.524 174.810 C 160.970 173.364, 167.824 144.509, 166.863 143.915 C 166.174 143.489, 167.875 130.284, 171.912 104.734 C 175.260 83.538, 178 65.457, 178 64.556 C 178 63.282, 162.263 43.592, 146.201 24.769 C 144.984 23.342, 144.952 22.763, 146.020 21.476 C 146.898 20.418, 146.988 19.588, 146.298 18.898 C 145.609 18.209, 140.416 22.949, 130.187 33.602 M 140.159 29.576 C 138.210 32.341, 136.374 33.974, 135.564 33.663 C 134.433 33.229, 118 48.711, 118 50.210 C 118 51.052, 146.043 61.290, 146.660 60.674 C 147.408 59.925, 145.014 27.998, 144.077 26.236 C 143.633 25.400, 142.305 26.532, 140.159 29.576 M 148.356 38.500 C 148.688 42.350, 149.258 49.424, 149.625 54.220 L 150.291 62.941 153.645 64.048 C 157.604 65.354, 158.063 67, 154.469 67 C 153.076 67, 151.707 67.601, 151.425 68.335 C 151.143 69.070, 151.495 76.157, 152.206 84.085 L 153.500 98.500 156.250 98.816 C 159.370 99.175, 160.087 102, 157.059 102 C 155.991 102, 154.848 102.438, 154.517 102.972 C 154.187 103.507, 154.698 113.182, 155.654 124.472 C 157.356 144.563, 157.440 145, 159.637 145 C 160.872 145, 162.137 144.587, 162.450 144.081 C 163.133 142.976, 175.007 68.630, 174.983 65.613 C 174.973 64.397, 169.844 57.346, 162.898 49 C 146.445 29.230, 147.633 30.088, 148.356 38.500 M 76 57.083 C 68.025 64.235, 60.375 71.212, 59 72.588 C 56.317 75.271, 54.386 75.870, 96.366 60.984 C 105.943 57.588, 112 54.092, 112 51.961 C 112 51.197, 93.441 43.977, 91.635 44.039 C 91.011 44.061, 83.975 49.930, 76 57.083 M 125.500 73.039 L 103.500 77.725 103.730 84.509 C 103.856 88.240, 104.100 91.434, 104.272 91.605 C 104.743 92.076, 150.156 98.189, 150.438 97.820 C 150.755 97.404, 148.166 68.803, 147.788 68.548 C 147.629 68.441, 137.600 70.462, 125.500 73.039 M 96.811 73.390 L 94.121 76.636 97.061 76.204 C 99.535 75.841, 100 75.316, 100 72.887 C 100 71.299, 99.888 70.032, 99.750 70.072 C 99.612 70.112, 98.290 71.605, 96.811 73.390 M 94.626 79.487 C 90.852 80.313, 88.998 81.451, 86.414 84.527 L 83.076 88.500 85.581 89.175 C 86.959 89.546, 90.992 90.161, 94.543 90.542 L 101 91.233 100.985 85.866 C 100.964 78.637, 100.524 78.196, 94.626 79.487 M 75.500 83.523 C 72.750 84.230, 67.575 84.911, 64 85.038 L 57.500 85.268 68.302 86.813 L 79.104 88.358 82.283 85.179 C 85.460 82.001, 85.461 82, 82.981 82.119 C 81.616 82.184, 78.250 82.816, 75.500 83.523 M 104 100.012 L 104 105.024 107.750 104.500 C 113.353 103.717, 140.951 101, 143.296 101 C 148.378 101, 143.089 99.977, 125.645 97.585 C 115.274 96.163, 106.162 95, 105.395 95 C 104.387 95, 104 96.392, 104 100.012 M 125 105.383 L 104.500 107.500 104.776 113.443 C 104.928 116.711, 105.153 119.477, 105.276 119.589 C 105.399 119.700, 111.070 118.722, 117.877 117.415 C 124.684 116.108, 130.647 115.282, 131.127 115.579 C 132.372 116.348, 132.207 118, 130.885 118 C 129.861 118, 107.353 137.217, 105.840 139.383 C 105.336 140.103, 105.803 147.047, 106.392 147.602 C 106.597 147.796, 154.403 144.930, 154.551 144.715 C 154.633 144.597, 153.886 135.500, 152.892 124.500 C 151.898 113.500, 151.066 104.162, 151.042 103.750 C 150.987 102.769, 149.241 102.879, 125 105.383 M 91.813 108.868 C 89.415 109.432, 52.766 129.145, 53.288 129.590 C 53.405 129.689, 64.411 127.685, 77.746 125.135 L 101.992 120.500 101.996 114.250 L 102 108 98.250 108.118 C 96.188 108.183, 93.291 108.521, 91.813 108.868 M 114 120.845 L 105.500 122.500 105.201 129.391 L 104.902 136.283 111.040 130.891 C 114.415 127.926, 118.825 124.054, 120.839 122.288 C 125.031 118.609, 125.250 118.655, 114 120.845 M 99.038 145.041 L 95.576 148 99.288 148 C 102.746 148, 103 147.795, 103 145 C 103 143.350, 102.888 142.018, 102.750 142.041 C 102.612 142.063, 100.942 143.413, 99.038 145.041 M 123.250 149.301 L 106 150.266 106.020 152.883 C 106.039 155.411, 107.395 166.178, 108.509 172.643 L 109.051 175.787 131.769 162.913 C 144.264 155.832, 154.640 149.580, 154.827 149.019 C 155.221 147.837, 148.319 147.898, 123.250 149.301 M 160.678 149.658 C 157.889 151.122, 157.864 151.217, 158.551 157.820 C 158.933 161.494, 159.356 164.628, 159.491 164.784 C 159.625 164.941, 160.669 161.352, 161.810 156.810 C 162.950 152.267, 163.797 148.466, 163.692 148.363 C 163.586 148.260, 162.230 148.843, 160.678 149.658 M 61.508 152.748 C 56.562 152.933, 52.203 153.403, 51.821 153.792 C 51.092 154.537, 66.891 164.926, 69.807 165.620 C 70.864 165.871, 74.317 163.405, 79 159.055 L 86.500 152.087 78.500 152.249 C 74.100 152.338, 66.453 152.563, 61.508 152.748" stroke="none" fill="black" fill-rule="evenodd"/>
</svg>