<svg xmlns="http://www.w3.org/2000/svg" width="200" height="200" viewBox="0 0 200 200" version="1.1">
	<path d="M 57 26.431 C 51.801 27.904, 48.131 28.482, 47.550 27.920 C 46.181 26.594, 45 26.789, 45 28.340 C 45 29.235, 38.944 31.275, 26.750 34.487 C 16.712 37.131, 8.080 39.671, 7.567 40.131 C 4.863 42.553, 9.723 41.891, 25.667 37.667 C 35.377 35.094, 43.537 33.204, 43.801 33.467 C 44.064 33.731, 42.409 55.353, 40.124 81.518 L 35.968 129.090 28.978 143.045 C 25.133 150.720, 21.704 157, 21.358 157 C 20.651 157, 21.701 90.566, 22.635 76.250 C 23.140 68.500, 22.999 67, 21.766 67 C 20.062 67, 19.465 78.630, 18.358 133.385 C 17.791 161.375, 17.901 166.203, 19.096 165.821 C 19.868 165.575, 24.606 157.386, 29.626 147.625 L 38.751 129.876 42.082 90.938 C 43.914 69.522, 45.692 52, 46.032 52 C 46.373 52, 47.137 59.537, 47.731 68.750 C 48.705 83.866, 48.569 88.293, 46.334 114.130 L 43.857 142.761 47.855 150.630 L 51.852 158.500 63.958 165.385 C 70.616 169.171, 76.201 172.096, 76.368 171.885 C 76.535 171.673, 81.038 158.106, 86.375 141.736 C 95.502 113.739, 96.195 112.034, 98.039 113.021 C 99.118 113.598, 100 114.286, 100 114.549 C 100 114.813, 97.500 120.559, 94.445 127.318 L 88.890 139.609 96.992 161.977 C 101.448 174.279, 105.461 185.002, 105.910 185.804 C 106.506 186.868, 111.208 180.993, 123.244 164.148 L 139.761 141.032 153.010 161.053 C 160.297 172.064, 166.418 180.915, 166.613 180.721 C 166.807 180.526, 169.801 168.697, 173.266 154.434 L 179.567 128.500 174.921 87 C 170.846 50.595, 169.731 42.873, 167.373 34.750 C 167.094 33.788, 166.258 33, 165.515 33 C 164 33, 164.255 31.931, 156.925 69 C 154.043 83.575, 151.609 95.609, 151.517 95.742 C 151.425 95.875, 147.558 94.473, 142.925 92.627 C 138.291 90.781, 130.069 87.571, 124.653 85.494 L 114.806 81.718 115.417 78.664 C 115.753 76.984, 116.463 73.995, 116.994 72.023 L 117.960 68.436 130.078 69.787 C 136.743 70.529, 142.352 70.981, 142.543 70.790 C 143.077 70.257, 154.101 29.760, 153.782 29.506 C 153.627 29.384, 137.075 28.303, 117 27.106 C 96.925 25.908, 77.125 24.724, 73 24.475 C 67.098 24.119, 63.689 24.536, 57 26.431 M 56.562 29.440 C 52.196 30.644, 48.491 32.050, 48.328 32.564 C 48.165 33.079, 48.824 45.578, 49.791 60.341 L 51.550 87.181 49.135 114.700 L 46.719 142.218 50.072 149.149 C 53.400 156.028, 53.503 156.125, 63.855 162.065 C 69.591 165.356, 74.476 167.857, 74.711 167.622 C 74.946 167.388, 79.315 154.356, 84.421 138.664 L 93.704 110.132 79.753 101.665 C 64.677 92.514, 64.836 92.921, 75.601 91.035 C 79.785 90.302, 83.870 90.279, 88.601 90.963 C 99.998 92.611, 99.644 92.737, 101.500 86.353 C 102.806 81.859, 102.883 80.546, 101.875 79.923 C 101.178 79.492, 91.928 75.846, 81.318 71.820 C 70.709 67.794, 62.022 63.951, 62.014 63.280 C 62.004 62.398, 65.500 61.982, 74.629 61.780 L 87.258 61.500 77.999 51.213 C 72.907 45.555, 68.921 40.745, 69.142 40.525 C 69.804 39.863, 125.266 31.933, 125.762 32.429 C 126.014 32.681, 124.591 39.775, 122.600 48.193 C 120.608 56.612, 118.984 64.001, 118.990 64.613 C 118.999 65.593, 139.693 68.663, 140.514 67.807 C 141.270 67.018, 150.202 32.869, 149.767 32.433 C 149.182 31.848, 74.344 26.972, 68.500 27.138 C 66.300 27.200, 60.928 28.236, 56.562 29.440 M 99.500 38.479 C 87.400 40.272, 76.656 41.910, 75.626 42.119 C 74.115 42.426, 75.527 44.465, 82.888 52.610 L 92.026 62.721 102.049 63.860 C 107.561 64.487, 112.905 65, 113.924 65 C 115.480 65, 116.295 62.800, 119.019 51.250 C 120.803 43.688, 122.476 36.938, 122.738 36.250 C 123 35.563, 122.828 35.049, 122.357 35.110 C 121.886 35.170, 111.600 36.687, 99.500 38.479 M 160.065 67.271 C 157.107 82.247, 154.502 95.014, 154.277 95.642 C 154.053 96.270, 155.923 97.569, 158.434 98.528 C 164.850 100.978, 164.646 103.414, 158.100 102.514 L 153.200 101.840 152.183 106.670 C 151.623 109.326, 149.945 117.800, 148.452 125.500 C 146.960 133.200, 145.188 139.906, 144.516 140.403 C 143.620 141.064, 146.127 145.665, 153.896 157.614 C 159.728 166.584, 164.750 173.940, 165.056 173.961 C 165.361 173.983, 168.134 163.762, 171.217 151.250 L 176.822 128.500 172.038 85.889 C 169.408 62.453, 166.848 42.550, 166.350 41.660 C 165.720 40.535, 163.808 48.327, 160.065 67.271 M 73 65.367 C 73 65.569, 76.938 67.208, 81.750 69.009 C 86.563 70.810, 92.668 73.125, 95.318 74.154 L 100.137 76.025 95.378 70.512 L 90.619 65 81.809 65 C 76.964 65, 73 65.165, 73 65.367 M 100.415 72.104 C 109.001 81.413, 112.236 82.180, 113.356 75.173 C 113.708 72.974, 114.249 70.516, 114.558 69.710 C 115.143 68.185, 114.188 67.959, 100.508 66.394 L 94.515 65.709 100.415 72.104 M 104.575 85.734 C 102.376 92.188, 102.530 93, 105.953 93 C 108.514 93, 109.044 92.502, 109.947 89.250 C 111.409 83.986, 111.307 83.461, 108.575 82.216 C 106.280 81.171, 106.066 81.359, 104.575 85.734 M 113.690 85.750 C 113.455 86.162, 112.958 88.188, 112.586 90.250 C 112.091 92.994, 112.257 94.010, 113.205 94.037 C 113.917 94.058, 122.375 95.131, 132 96.422 C 141.625 97.713, 149.622 98.662, 149.771 98.531 C 150.085 98.253, 115.838 85, 114.808 85 C 114.428 85, 113.926 85.338, 113.690 85.750 M 76.012 93.833 C 73.732 94.522, 74.306 95.068, 82.868 100.364 C 88.006 103.543, 92.788 106.365, 93.492 106.635 C 94.333 106.958, 95.466 105.078, 96.786 101.168 L 98.798 95.210 96.052 94.660 C 90.735 93.597, 78.471 93.091, 76.012 93.833 M 101.333 96.270 C 101.014 96.786, 99.950 99.863, 98.967 103.110 C 97.192 108.973, 97.194 109.022, 99.292 110.492 C 101.327 111.917, 101.524 111.711, 104.702 104.851 C 106.516 100.935, 108 97.393, 108 96.979 C 108 95.837, 101.995 95.199, 101.333 96.270 M 107.575 105.102 C 105.538 109.558, 104.013 113.305, 104.186 113.429 C 107.057 115.476, 141.329 136.071, 142.163 136.250 C 142.905 136.410, 144.511 130.726, 146.614 120.500 C 148.424 111.700, 149.926 103.807, 149.952 102.960 C 149.991 101.707, 146.610 101.008, 131.750 99.201 C 121.713 97.980, 113 96.985, 112.389 96.990 C 111.778 96.996, 109.612 100.646, 107.575 105.102 M 97.162 127.906 L 91.823 139.808 99.048 159.654 C 103.021 170.569, 106.489 180.075, 106.753 180.778 C 107.173 181.890, 138 139.691, 138 138.005 C 138 137.464, 103.650 115.997, 102.794 116.002 C 102.632 116.003, 100.098 121.360, 97.162 127.906" stroke="none" fill="black" fill-rule="evenodd"/>
</svg>