<svg xmlns="http://www.w3.org/2000/svg" width="200" height="200" viewBox="0 0 200 200" version="1.1">
	<path d="M 135.734 22.044 L 112.968 28.898 72.234 30.932 C 15.576 33.761, 13 33.965, 13 35.619 C 13 36.631, 14.538 37.007, 18.750 37.026 C 27.602 37.067, 93.178 39.843, 93.516 40.192 C 93.833 40.517, 98 57.750, 98 58.732 C 98 59.048, 82.700 59.054, 64 58.747 C 37.214 58.306, 30 58.452, 30 59.435 C 30 60.695, 57.727 61.992, 84.795 61.998 L 96.089 62 90.596 67.363 L 85.103 72.727 75.692 72.234 C 67.313 71.796, 65.373 72.045, 57.997 74.501 C 52.812 76.228, 50.234 77.527, 51.106 77.975 C 51.873 78.368, 57.450 79.728, 63.500 80.998 C 69.550 82.267, 74.875 83.635, 75.334 84.037 C 75.793 84.439, 70.224 92.271, 62.958 101.440 L 49.747 118.113 48.058 115.306 C 47.129 113.763, 39.728 100.463, 31.612 85.750 C 18.230 61.495, 14.982 56.506, 15.009 60.250 C 15.014 60.938, 22.214 74.483, 31.009 90.351 C 39.804 106.219, 47 119.606, 47 120.101 C 47 120.595, 44.638 121.003, 41.750 121.006 C 30.905 121.018, 20 122.275, 20 123.512 C 20 124.616, 40.220 128.010, 46.750 128.003 C 47.987 128.001, 49 128.315, 49 128.700 C 49 129.086, 46.245 133.578, 42.878 138.685 L 36.757 147.968 44.128 156.612 C 48.183 161.366, 52.694 166.660, 54.152 168.378 C 55.611 170.095, 57.044 171.267, 57.337 170.982 C 59.194 169.175, 77.158 136.034, 79.959 129.250 L 83.364 121 90.281 121 L 97.198 121 96.549 138.250 C 96.192 147.738, 95.197 161.713, 94.339 169.306 C 93.481 176.899, 92.942 183.275, 93.141 183.475 C 93.341 183.674, 103.793 175.886, 116.369 166.169 C 128.944 156.451, 140.025 147.920, 140.992 147.211 C 142.556 146.065, 145.064 148.127, 163.625 165.824 C 182.468 183.788, 184.524 185.472, 184.747 183.113 C 184.882 181.676, 183.742 165.304, 182.213 146.730 L 179.432 112.960 182.136 110.369 L 184.840 107.779 181.447 101.605 L 178.053 95.431 175.528 64.965 C 174.140 48.209, 173.003 33.712, 173.002 32.750 C 173.001 31.788, 172.438 31.023, 171.750 31.052 C 171.063 31.081, 165.213 33.668, 158.752 36.802 L 147.003 42.500 161.106 69 L 175.209 95.500 175.649 104 L 176.088 112.500 159.362 127.169 L 142.636 141.839 133.724 133.693 L 124.811 125.547 139.156 121.950 C 147.045 119.971, 154.738 118.039, 156.250 117.657 C 157.762 117.275, 159 116.317, 159 115.530 C 159 114.359, 157.495 114.196, 150.750 114.637 C 146.213 114.934, 132.938 115.702, 121.250 116.344 L 100 117.511 100 109.170 L 100 100.830 122.750 101.436 C 135.262 101.769, 148.988 102.288, 153.250 102.590 C 159.761 103.050, 161 102.894, 161 101.616 C 161 99.785, 161.460 99.912, 127.750 92.437 L 101 86.505 101 81.121 L 101 75.736 123.250 76.434 L 145.500 77.131 148.750 69.315 C 150.537 65.016, 152 61.162, 152 60.750 C 152 60.337, 141.650 60, 129 60 C 116.350 60, 106.029 59.663, 106.065 59.250 C 106.101 58.837, 118.689 49.275, 134.038 38 C 149.387 26.725, 161.958 16.938, 161.973 16.250 C 162.015 14.295, 159.974 14.746, 135.734 22.044 M 132.380 25.962 L 113.261 31.735 86.380 32.990 C 57.485 34.340, 45.695 35.720, 61.500 35.904 C 66.450 35.961, 76.221 36.300, 83.213 36.657 L 95.927 37.305 98.104 46.902 C 99.301 52.181, 100.555 57.028, 100.891 57.674 C 101.274 58.412, 110.886 51.875, 126.756 40.085 C 140.646 29.766, 152.309 21.025, 152.672 20.661 C 153.767 19.566, 152.262 19.959, 132.380 25.962 M 160.500 39.053 C 156.100 41.189, 152.106 43.082, 151.625 43.260 C 150.887 43.533, 173.633 88, 174.511 88 C 174.677 88, 174.656 87.213, 174.465 86.250 C 174.274 85.287, 173.389 74.375, 172.498 62 C 170.778 38.124, 170.393 34.950, 169.231 35.085 C 168.829 35.132, 164.900 36.918, 160.500 39.053 M 101 67.380 L 101 72.693 113.157 73.346 C 119.843 73.706, 129.458 74, 134.524 74 L 143.733 74 145.876 68.843 C 147.055 66.007, 147.903 63.594, 147.760 63.481 C 147.617 63.369, 137.037 63.004, 124.250 62.672 L 101 62.067 101 67.380 M 93.728 68.073 C 91.678 69.763, 90 71.563, 90 72.073 C 90 72.583, 91.800 73, 94 73 L 98 73 98 69 C 98 66.800, 97.878 65, 97.728 65 C 97.578 65, 95.778 66.383, 93.728 68.073 M 62.750 75.689 C 61.788 75.941, 61 76.487, 61 76.903 C 61 77.609, 74.956 81, 77.863 81 C 79.178 81, 82.904 77.168, 82.967 75.750 C 83.002 74.959, 65.744 74.907, 62.750 75.689 M 84.651 78.391 C 83.189 80.308, 82.331 82.080, 82.746 82.327 C 83.161 82.575, 86.188 83.331, 89.474 84.006 C 92.760 84.682, 96.023 85.455, 96.724 85.724 C 97.656 86.082, 98 84.837, 98 81.107 L 98 76 94.082 76 C 91.927 76, 89.521 75.754, 88.737 75.452 C 87.873 75.121, 86.260 76.282, 84.651 78.391 M 65.755 102.250 L 52.057 119.500 55.778 119.764 C 57.825 119.910, 64.438 119.685, 70.474 119.264 L 81.449 118.500 85.668 108.500 L 89.887 98.500 93.996 98.190 L 98.105 97.880 97.802 93.222 L 97.500 88.564 90 86.823 C 85.875 85.865, 81.815 85.064, 80.977 85.041 C 80.139 85.018, 73.290 92.763, 65.755 102.250 M 100.582 91.434 C 100.277 92.570, 100.021 94.466, 100.014 95.648 C 100.001 97.703, 100.568 97.824, 113.250 98.474 C 120.537 98.848, 130.100 99.007, 134.500 98.827 L 142.500 98.500 121.819 93.934 C 101.474 89.442, 101.128 89.401, 100.582 91.434 M 90.530 104.250 C 89.778 106.037, 88.226 109.675, 87.081 112.333 C 85.937 114.991, 85 117.354, 85 117.583 C 85 117.812, 87.700 118, 91 118 L 97 118 97 109.500 C 97 101.055, 96.984 101, 94.449 101 C 92.518 101, 91.565 101.790, 90.530 104.250 M 179.030 106.450 C 179.008 108.601, 179.299 109.101, 180.104 108.296 C 180.895 107.505, 180.903 106.670, 180.134 105.346 C 179.193 103.728, 179.057 103.864, 179.030 106.450 M 161 129.170 C 152.475 136.785, 145.500 143.443, 145.500 143.967 C 145.500 144.924, 181.231 179.103, 181.720 178.613 C 181.988 178.345, 177.193 118.371, 176.747 116.413 C 176.611 115.815, 169.525 121.556, 161 129.170 M 116.500 119.244 C 107.700 119.761, 100.346 120.333, 100.158 120.517 C 99.970 120.700, 99.422 130.672, 98.940 142.675 C 98.459 154.679, 97.621 167.408, 97.078 170.963 C 96.536 174.517, 96.226 177.560, 96.391 177.724 C 96.656 177.989, 128.259 153.889, 137.070 146.702 L 140.500 143.904 130.016 134.010 C 122.758 127.161, 119.989 123.955, 121.016 123.591 C 121.832 123.302, 126.775 121.966, 132 120.624 C 143.040 117.786, 142.366 117.726, 116.500 119.244 M 60.267 122.541 C 49.689 123.141, 40.775 123.892, 40.458 124.209 C 40.141 124.526, 43.058 125.104, 46.941 125.494 C 50.823 125.884, 54 126.397, 54 126.635 C 54 126.872, 50.869 131.733, 47.043 137.437 L 40.085 147.807 48.158 157.153 C 52.598 162.294, 56.338 166.622, 56.469 166.770 C 56.984 167.355, 74.428 135.444, 77.202 128.841 C 78.825 124.979, 80.006 121.736, 79.826 121.634 C 79.647 121.532, 70.845 121.940, 60.267 122.541" stroke="none" fill="black" fill-rule="evenodd"/>
</svg>