<svg xmlns="http://www.w3.org/2000/svg" width="200" height="200" viewBox="0 0 200 200" version="1.1">
	<path d="M 137.815 18.932 C 137.572 28.298, 137.158 36.175, 136.896 36.437 C 136.635 36.699, 129.245 34.699, 120.475 31.992 C 110.431 28.893, 104.178 27.422, 103.581 28.019 C 103.060 28.540, 102.828 29.136, 103.067 29.342 C 103.305 29.549, 110.025 31.694, 118 34.109 C 127.719 37.052, 131.599 38.604, 129.767 38.815 C 127.476 39.079, 44.549 33.442, 40.002 32.713 C 39.178 32.581, 46.058 29.596, 55.290 26.080 C 71.200 20.020, 73.957 18.624, 72.632 17.298 C 72.319 16.986, 63.078 20.166, 52.095 24.365 C 41.112 28.564, 31.450 32, 30.622 32 C 29.795 32, 28.893 32.364, 28.618 32.810 C 28.342 33.255, 23.478 35.349, 17.809 37.464 C 12.139 39.578, 7.109 41.653, 6.631 42.073 C 6.153 42.494, 9.657 48.387, 14.418 55.169 C 22.252 66.328, 22.875 67.548, 20.978 68 C 17.738 68.773, 18.546 70.445, 22.428 71 C 26.243 71.546, 26.706 72.128, 44.653 98.943 L 52.981 111.385 45.241 115.833 C 40.983 118.279, 34.563 121.979, 30.973 124.054 L 24.447 127.827 22.007 144.164 C 20.665 153.149, 19.652 160.714, 19.756 160.977 C 19.957 161.485, 57.177 166.202, 57.507 165.761 C 57.615 165.617, 61.421 160.207, 65.966 153.739 C 70.510 147.270, 74.541 141.784, 74.924 141.547 C 75.306 141.311, 78.482 148.178, 81.981 156.809 C 91.154 179.431, 91.077 179.256, 91.540 178.793 C 91.773 178.561, 96.011 158.600, 100.958 134.435 C 112.189 79.574, 110.786 85.250, 112.510 87.711 C 113.685 89.388, 113.742 93.150, 112.864 111.105 L 111.818 132.500 118.375 156.882 C 121.981 170.293, 125.114 181.447, 125.337 181.670 C 125.693 182.026, 193.050 170.024, 193.787 169.474 C 193.945 169.356, 189.343 150.414, 183.561 127.380 L 173.049 85.500 157.112 44 C 147.140 18.033, 140.629 2.388, 139.717 2.202 C 138.498 1.952, 138.186 4.699, 137.815 18.932 M 140.661 16.967 C 140.298 20.446, 140 26.565, 140 30.563 L 140 37.833 144.188 39.229 C 150.099 41.200, 150.288 43, 144.583 43 C 140.077 43, 140 43.055, 140 46.257 C 140 49.495, 140.027 49.512, 144.414 49.163 C 147.811 48.893, 149.538 49.338, 151.914 51.094 C 153.611 52.349, 155 54.028, 155 54.824 C 155 56.284, 151.897 56.183, 143.407 54.446 L 140.314 53.813 139.662 63.656 C 139.304 69.070, 139.012 80.475, 139.014 89 L 139.017 104.500 144.892 108.285 L 150.767 112.069 156.883 128.349 C 160.248 137.303, 163 144.937, 163 145.314 C 163 148.372, 157.367 142.408, 138.406 119.273 L 116.500 92.547 115.877 103.523 C 114.367 130.136, 114.497 131.468, 120.968 155.867 C 124.231 168.168, 127.059 178.392, 127.252 178.586 C 127.553 178.886, 182.440 168.995, 188.657 167.520 C 190.769 167.019, 190.598 166.163, 180.395 126.107 C 170.203 86.099, 169.678 84.434, 156.368 49.853 C 148.884 30.409, 142.437 13.631, 142.041 12.570 C 141.558 11.273, 141.106 12.714, 140.661 16.967 M 21 39.159 C 15.225 41.369, 10.341 43.333, 10.147 43.525 C 9.625 44.040, 25.289 66.173, 26.506 66.641 C 27.482 67.015, 77.937 59.398, 78.548 58.784 C 79.106 58.223, 84.020 44.687, 83.760 44.427 C 83.614 44.281, 72.696 42.326, 59.497 40.083 C 46.299 37.840, 34.600 35.811, 33.500 35.573 C 32.400 35.335, 26.775 36.949, 21 39.159 M 72.500 39.401 C 80.698 40.908, 84.727 41.273, 85.217 40.553 C 86.160 39.169, 81.851 38.366, 70 37.716 L 60.500 37.196 72.500 39.401 M 87 40.448 C 87 41.302, 87.112 42.001, 87.250 42.003 C 87.388 42.005, 97.850 43.804, 110.500 46 C 123.150 48.196, 134.315 49.995, 135.310 49.997 C 136.791 49.999, 137.064 49.318, 136.810 46.250 L 136.500 42.500 120 41.353 C 110.925 40.722, 99.787 39.911, 95.250 39.551 C 88.179 38.989, 87 39.117, 87 40.448 M 88.481 49.223 C 89.746 57.358, 89.593 57.196, 95.337 56.468 C 110.880 54.498, 114.500 53.559, 114.500 51.500 C 114.500 49.474, 112.379 48.924, 91.658 45.569 L 87.815 44.947 88.481 49.223 M 83.796 53.130 C 82.258 57.599, 82.270 57.742, 84.117 57.259 C 86.730 56.576, 86.952 55.988, 86.114 51.975 L 85.389 48.500 83.796 53.130 M 119 51.676 C 119 52.574, 119.960 52.767, 122.250 52.331 C 126.650 51.494, 126.688 51.299, 122.551 50.816 C 120.124 50.533, 119 50.805, 119 51.676 M 146 51.393 C 146 51.609, 146.698 52.054, 147.552 52.382 C 148.442 52.723, 148.843 52.555, 148.493 51.989 C 147.906 51.038, 146 50.583, 146 51.393 M 126.247 54.462 C 122.258 55.128, 118.818 55.859, 118.603 56.086 C 118.388 56.314, 117.894 63.925, 117.505 73 L 116.798 89.500 119.399 91.924 C 120.830 93.258, 122 94.006, 122 93.588 C 122 93.170, 124.959 94.483, 128.576 96.505 C 132.192 98.528, 135.299 100.029, 135.480 99.841 C 135.662 99.654, 136.139 89.037, 136.541 76.250 C 137.245 53.851, 137.203 53.005, 135.386 53.126 C 134.349 53.195, 130.236 53.796, 126.247 54.462 M 100.750 58.308 C 97.037 58.862, 94 59.705, 94 60.182 C 94 61.160, 108.188 78.809, 109.067 78.925 C 109.378 78.966, 110.454 74.612, 111.457 69.250 C 112.461 63.888, 113.491 58.938, 113.748 58.250 C 114.295 56.784, 110.863 56.799, 100.750 58.308 M 80.492 62.250 C 80.246 62.938, 76.873 72.239, 72.996 82.919 C 69.119 93.600, 66.071 102.690, 66.223 103.120 C 66.375 103.550, 71.900 100.785, 78.500 96.976 C 85.100 93.167, 90.915 89.901, 91.423 89.718 C 91.948 89.528, 91.348 83.261, 90.031 75.192 L 87.716 61 84.327 61 C 82.462 61, 80.737 61.563, 80.492 62.250 M 91 62.972 C 91 63.690, 91.921 69.677, 93.047 76.276 C 94.173 82.874, 94.960 88.893, 94.797 89.651 C 94.634 90.409, 87.550 94.997, 79.056 99.848 L 63.611 108.666 61.722 114.333 C 59.738 120.286, 58.723 121.140, 57.069 118.250 C 54.390 113.571, 54.817 113.486, 40.881 121.490 C 33.521 125.718, 27.407 129.267, 27.293 129.379 C 26.676 129.981, 22.723 158.057, 23.190 158.523 C 24.017 159.350, 55.085 163.066, 56.072 162.455 C 56.539 162.167, 61.018 156.096, 66.024 148.965 C 71.031 141.834, 75.436 136.006, 75.814 136.013 C 76.191 136.019, 79.615 143.667, 83.422 153.008 C 87.228 162.348, 90.484 169.850, 90.656 169.678 C 90.828 169.506, 94.818 150.495, 99.523 127.432 C 104.227 104.370, 108.247 85, 108.454 84.388 C 108.662 83.776, 105.002 78.601, 100.321 72.888 C 90.141 60.461, 91 61.374, 91 62.972 M 54.209 65.549 C 46.350 66.820, 39.375 68.081, 38.709 68.351 C 38.044 68.621, 41.917 68.878, 47.315 68.921 C 55.236 68.985, 58.130 68.583, 62.315 66.837 C 66.471 65.103, 70.963 62.586, 68.950 63.119 C 68.703 63.185, 62.069 64.278, 54.209 65.549 M 67 67.681 L 59.500 71.231 44.196 71.052 L 28.891 70.872 42.099 90.347 L 55.307 109.821 58.423 108.335 C 61.124 107.047, 62.021 105.497, 65.165 96.675 C 67.160 91.079, 70.612 81.438, 72.836 75.250 C 75.345 68.272, 76.428 64.025, 75.690 64.065 C 75.036 64.101, 71.125 65.728, 67 67.681 M 113.111 74.769 C 112.260 79.527, 112.163 82.468, 112.816 83.636 C 113.553 84.952, 113.969 83.506, 114.507 77.771 C 115.460 67.595, 114.689 65.936, 113.111 74.769 M 126.117 99.735 C 129.034 103.854, 156.376 136.957, 156.642 136.691 C 156.796 136.537, 155.027 131.310, 152.711 125.076 L 148.500 113.740 136.617 105.761 C 130.082 101.373, 125.357 98.661, 126.117 99.735 M 57.446 112.087 C 57.077 112.685, 57.215 113.615, 57.753 114.153 C 58.392 114.792, 58.920 114.414, 59.272 113.066 C 59.840 110.895, 58.595 110.228, 57.446 112.087" stroke="none" fill="black" fill-rule="evenodd"/>
</svg>