<svg xmlns="http://www.w3.org/2000/svg" width="200" height="200" viewBox="0 0 200 200" version="1.1">
	<path d="M 128.500 17.571 C 99.644 22.531, 82.843 24.968, 77.422 24.981 C 71.289 24.995, 67.919 25.571, 63.422 27.370 C 60.165 28.674, 53.788 30.304, 49.250 30.993 C 43.514 31.863, 41 32.664, 41 33.622 C 41 34.452, 42.093 35.010, 43.750 35.026 C 45.772 35.045, 44.248 36.058, 38 38.853 L 29.500 42.655 28.991 88.077 L 28.482 133.500 24.647 159.784 C 21.103 184.074, 20.697 190.806, 22.919 188.417 C 24.413 186.810, 55.189 115.824, 57.954 107.608 L 60.609 99.717 72.595 115.108 C 79.187 123.574, 84.891 131.004, 85.270 131.621 C 85.695 132.313, 78.351 138.049, 66.062 146.621 C 55.120 154.254, 46.466 160.775, 46.833 161.110 C 47.200 161.446, 59.802 163.200, 74.837 165.007 L 102.174 168.294 125.837 164.998 C 138.852 163.185, 150.068 161.411, 150.763 161.054 C 151.457 160.698, 141.654 155.993, 128.977 150.598 C 112.757 143.696, 106.191 140.451, 106.814 139.645 C 107.300 139.015, 113.230 131.075, 119.990 122 C 126.750 112.925, 132.616 105.124, 133.025 104.665 C 133.435 104.206, 134.290 107.806, 134.927 112.665 C 135.564 117.524, 136.440 123.077, 136.873 125.003 C 137.605 128.253, 178.767 190.566, 179.619 189.714 C 179.826 189.507, 180.908 175.398, 182.024 158.360 L 184.053 127.382 175.027 108.611 L 166 89.839 166 51.996 L 166 14.153 171.167 13.326 C 176.759 12.432, 179.203 9.935, 174.333 10.090 C 172.775 10.140, 152.150 13.507, 128.500 17.571 M 131 19.966 C 115.875 22.597, 102.600 24.979, 101.500 25.259 C 100.400 25.539, 110.188 25.820, 123.250 25.884 C 144.633 25.988, 147 26.165, 147 27.654 C 147 29.172, 144.337 29.258, 114.750 28.691 C 85.394 28.129, 81.603 28.248, 72.500 30.011 L 62.500 31.949 86.363 31.469 L 110.227 30.989 123.143 36.638 C 136.190 42.344, 138.206 43.637, 136.095 44.941 C 135.456 45.336, 122.011 46.523, 106.217 47.580 L 77.500 49.500 89.500 50.114 C 96.100 50.452, 107.800 50.797, 115.500 50.880 C 123.200 50.963, 130.006 51.361, 130.625 51.765 C 131.455 52.308, 131.433 54.666, 130.540 60.785 C 129.874 65.342, 129.668 68.717, 130.081 68.285 C 130.845 67.485, 160.412 19.940, 162.129 16.750 C 163.423 14.345, 163.157 14.372, 131 19.966 M 136.119 64.069 L 109.737 106.702 93.334 109.483 C 84.312 111.013, 76.719 112.052, 76.459 111.793 C 76.200 111.533, 84.428 99.057, 94.744 84.068 L 113.500 56.815 119.723 63.657 C 123.146 67.421, 126.007 70.275, 126.081 70 C 126.403 68.804, 128.728 54.487, 128.620 54.368 C 128.425 54.153, 60.016 51.981, 53.750 51.991 C 49.430 51.998, 48 51.645, 48 50.572 C 48 48.807, 49.716 48.613, 88.500 46.001 C 105 44.890, 121.160 43.707, 124.410 43.374 L 130.320 42.766 120.410 38.338 L 110.500 33.909 81.775 34.554 L 53.049 35.199 42.275 40.014 L 31.500 44.829 31.828 85.165 L 32.155 125.500 28.578 150.815 C 26.610 164.738, 25.007 176.438, 25.016 176.815 C 25.025 177.192, 31.563 162.654, 39.545 144.509 C 53.882 111.920, 58.663 99.170, 57.592 96.378 C 57.063 95.001, 71.364 56.477, 73.112 54.567 C 75.909 51.511, 74.636 57.451, 68.550 75.850 L 61.681 96.614 75.903 114.911 C 83.726 124.974, 89.985 133.309, 89.813 133.433 C 89.641 133.557, 81.180 139.463, 71.012 146.557 L 52.524 159.455 74.512 162.171 C 86.605 163.665, 98.525 164.913, 101 164.944 C 103.475 164.976, 113.949 163.799, 124.277 162.330 L 143.053 159.658 123.277 151.224 C 112.399 146.585, 103.155 142.470, 102.733 142.078 C 102.196 141.579, 131.695 101.139, 135.448 97.230 C 135.590 97.081, 136.611 103.650, 137.717 111.827 L 139.728 126.694 158.467 154.411 C 168.773 169.655, 177.334 181.986, 177.490 181.814 C 177.647 181.641, 178.538 169.350, 179.471 154.500 L 181.167 127.500 172.334 109.500 L 163.500 91.500 163 56.468 L 162.500 21.437 136.119 64.069 M 97.225 85.250 C 88.406 98.037, 81.260 108.569, 81.345 108.653 C 81.577 108.881, 108.285 104.064, 108.471 103.761 C 108.559 103.617, 112.577 97.098, 117.400 89.273 L 126.170 75.046 120.407 68.523 C 117.238 64.935, 114.333 62, 113.953 62 C 113.572 62, 106.045 72.463, 97.225 85.250" stroke="none" fill="black" fill-rule="evenodd"/>
</svg>