<svg xmlns="http://www.w3.org/2000/svg" width="200" height="200" viewBox="0 0 200 200" version="1.1">
	<path d="M 100.500 21.090 C 86.750 24.311, 67.915 28.055, 58.645 29.411 C 49.375 30.767, 41.567 32.100, 41.295 32.372 C 41.022 32.644, 41.138 33.415, 41.552 34.085 C 42.118 35, 46.422 35.161, 58.902 34.732 L 75.500 34.163 70.644 36.384 L 65.788 38.605 77.564 44.131 L 89.340 49.657 77.628 53.953 C 71.186 56.316, 65.773 58.080, 65.598 57.875 C 65.424 57.669, 62.344 53.080, 58.755 47.679 L 52.229 37.857 37.562 57.982 C 29.496 69.051, 22.681 78.667, 22.419 79.351 C 22.156 80.035, 23.297 83.584, 24.953 87.237 C 27.578 93.025, 28.375 97.133, 31.151 119.190 C 34.543 146.129, 34.544 146.459, 31.339 176.250 C 30.844 180.845, 31.006 182, 32.143 182 C 33.017 182, 41.254 166.542, 53.533 141.857 C 70.689 107.365, 73.544 102.191, 73.810 105.107 C 73.980 106.973, 75.105 118.773, 76.310 131.329 L 78.500 154.159 92 159.935 L 105.500 165.711 106.109 158.605 C 106.443 154.697, 107.300 140.341, 108.011 126.703 C 108.723 113.064, 109.623 102.264, 110.010 102.703 C 110.397 103.141, 116.674 119.925, 123.959 140 C 131.244 160.075, 137.367 176.671, 137.565 176.880 C 138.169 177.515, 193 166.662, 193 165.907 C 193 165.520, 183.550 160.173, 172 154.024 C 160.450 147.874, 151 142.701, 151 142.527 C 151 142.353, 155.527 139.377, 161.059 135.914 C 166.592 132.450, 171.350 129.243, 171.632 128.786 C 171.914 128.329, 169.750 122.124, 166.823 114.997 L 161.500 102.038 144.309 102.019 C 131.671 102.005, 126.904 101.669, 126.311 100.750 C 125.867 100.063, 121.440 89.600, 116.474 77.500 L 107.444 55.500 102.725 53 C 100.129 51.625, 98.004 50.257, 98.003 49.960 C 97.998 49.136, 115.920 42.832, 116.762 43.361 C 117.168 43.616, 123.347 56.464, 130.493 71.913 C 137.639 87.361, 143.971 100, 144.564 100 C 145.873 100, 190.156 80.137, 191.335 79.021 C 192.248 78.156, 192.492 78.254, 163.128 67.649 L 142.756 60.292 150.628 57.452 C 174.308 48.907, 180.604 46.405, 180.697 45.500 C 180.753 44.950, 174.656 41.343, 167.149 37.485 C 156.764 32.148, 153.570 30.055, 153.794 28.735 C 153.955 27.781, 153.473 27, 152.721 27 C 151.969 27, 143.995 29.700, 135 33 C 126.005 36.300, 118.569 39, 118.475 39 C 118.381 39, 117.475 37.162, 116.462 34.917 L 114.621 30.833 103.891 31.167 C 97.990 31.350, 93.348 31.315, 93.576 31.089 C 93.803 30.862, 101.944 27.712, 111.667 24.089 C 127.993 18.004, 133.728 14.821, 127.833 15.117 C 126.550 15.182, 114.250 17.870, 100.500 21.090 M 93 25.638 C 87.225 26.998, 78.675 28.952, 74 29.981 L 65.500 31.851 74.114 31.926 C 81.851 31.992, 83.838 31.584, 93.614 27.913 C 109.084 22.105, 109.020 21.865, 93 25.638 M 133.750 36.317 C 126.188 39.150, 120 41.784, 120 42.171 C 120 42.947, 144.546 95.880, 145.217 96.551 C 145.659 96.993, 182.991 80.355, 184.206 79.174 C 184.832 78.566, 178.682 76.195, 144.673 63.937 C 139.818 62.187, 136.218 60.405, 136.673 59.978 C 137.128 59.550, 145.938 56.159, 156.250 52.442 C 166.563 48.725, 174.998 45.417, 174.996 45.092 C 174.992 44.525, 148.631 30.912, 147.870 31.083 C 147.666 31.129, 141.313 33.484, 133.750 36.317 M 78.500 36.414 L 72.500 38.724 82.500 43.471 L 92.500 48.218 102.399 44.859 C 114.849 40.634, 115.421 40.236, 114.084 36.720 L 113.050 34 98.775 34.052 C 86.336 34.097, 83.728 34.400, 78.500 36.414 M 38.158 61.607 L 24.815 80.104 27.875 87.302 C 30.506 93.491, 31.376 98.022, 34.080 119.632 C 37.192 144.495, 37.211 144.916, 35.828 158.808 C 35.060 166.532, 34.699 172.686, 35.027 172.483 C 35.355 172.280, 44.353 154.314, 55.022 132.557 C 65.692 110.801, 74.673 93, 74.980 93 C 75.288 93, 76.768 106.093, 78.270 122.096 C 79.772 138.098, 81.201 151.516, 81.446 151.913 C 82.231 153.183, 102.053 161.280, 102.727 160.606 C 103.084 160.249, 104.215 145.230, 105.241 127.229 C 106.891 98.263, 107.733 91.400, 109.429 93.095 C 109.683 93.349, 116.460 111.527, 124.490 133.490 C 132.520 155.453, 139.242 173.575, 139.427 173.760 C 139.851 174.185, 181.885 166.158, 184.234 165.204 C 185.491 164.694, 180.482 161.614, 166.009 154 C 155.032 148.225, 146.039 143.220, 146.025 142.878 C 146.011 142.536, 151.190 138.962, 157.533 134.936 C 163.877 130.910, 168.877 127.140, 168.645 126.558 C 168.413 125.976, 166.331 120.938, 164.019 115.361 L 159.815 105.223 142.011 104.500 L 124.206 103.778 114.794 80.639 L 105.382 57.500 99.143 54.399 L 92.903 51.297 80.707 55.727 C 73.999 58.163, 68.324 60.343, 68.095 60.571 C 67.867 60.800, 71.614 66.893, 76.422 74.111 C 82.387 83.065, 84.840 87.560, 84.141 88.259 C 83.442 88.958, 78.253 85.399, 67.809 77.057 C 59.389 70.333, 52.364 64.462, 52.198 64.010 C 52.032 63.559, 53.607 62.637, 55.698 61.963 C 63.600 59.414, 63.531 59.789, 57.737 50.994 C 54.857 46.622, 52.275 43.060, 52 43.077 C 51.725 43.095, 45.496 51.434, 38.158 61.607 M 59.611 63.324 L 56.721 64.558 66.321 72.279 C 71.601 76.525, 76.175 80, 76.486 80 C 76.797 80, 74.328 75.950, 71 71 C 67.672 66.050, 64.398 62.020, 63.724 62.045 C 63.051 62.070, 61.200 62.645, 59.611 63.324" stroke="none" fill="black" fill-rule="evenodd"/>
</svg>