<svg xmlns="http://www.w3.org/2000/svg" width="200" height="200" viewBox="0 0 200 200" version="1.1">
	<path d="M 55.295 18.179 C 43.858 28.178, 30.886 39.606, 26.469 43.574 L 18.439 50.790 20.711 87.103 L 22.983 123.417 34.235 157.222 C 40.909 177.273, 45.926 190.858, 46.567 190.613 C 47.161 190.385, 63.323 178.675, 82.483 164.591 C 101.642 150.508, 117.399 139.101, 117.499 139.242 C 117.670 139.487, 115.904 163.120, 114.546 178.750 C 114.029 184.705, 114.175 186, 115.366 186 C 116.190 186, 124.374 173.680, 134.311 157.483 L 151.805 128.967 160.987 145.977 C 166.037 155.332, 170.550 163.222, 171.016 163.510 C 173.493 165.041, 172.430 160.046, 166.073 140.282 C 160.148 121.864, 158.917 116.807, 158.095 107.537 L 157.124 96.573 165.812 84.738 C 170.590 78.229, 176.419 70.253, 178.764 67.014 L 183.028 61.125 156.454 35.812 C 141.838 21.891, 129.483 10.359, 128.999 10.186 C 128.514 10.014, 125.063 13.951, 121.329 18.936 C 117.595 23.921, 114.306 27.992, 114.020 27.982 C 113.734 27.973, 106.307 21.673, 97.515 13.982 C 85.359 3.348, 80.879 -0, 78.810 -0 C 76.711 -0, 71.335 4.156, 55.295 18.179 M 53 23.670 C 39.525 35.529, 26.861 46.644, 24.858 48.370 L 21.216 51.507 23.511 87.504 L 25.807 123.500 35.996 154.500 C 41.600 171.550, 46.489 185.823, 46.860 186.218 C 47.232 186.613, 61.028 177.014, 77.518 164.888 C 116.627 136.128, 120.029 133.689, 120.425 134.129 C 120.723 134.460, 118.932 159.832, 117.619 173.892 C 117.331 176.976, 117.489 178.903, 117.989 178.392 C 118.470 177.902, 125.917 166.025, 134.539 152 L 150.215 126.500 147.073 120.394 C 141.705 109.962, 143.341 110.693, 127.217 111.524 L 113.057 112.253 97.114 133.501 L 81.171 154.749 70.520 155.475 C 64.661 155.875, 59.662 155.996, 59.411 155.744 C 59.159 155.493, 62.992 146.335, 67.929 135.393 L 76.905 115.500 72.702 115.232 C 70.391 115.085, 66.515 115.315, 64.088 115.745 C 59.679 116.525, 59.676 116.529, 57.334 123.513 C 56.046 127.356, 54.750 131.149, 54.454 131.942 C 54.109 132.865, 52.524 131.070, 50.047 126.952 C 46.462 120.991, 45.925 119, 47.902 119 C 48.332 119, 49.533 120.575, 50.570 122.500 C 51.607 124.425, 52.717 126, 53.037 126 C 53.356 126, 54.353 123.701, 55.252 120.892 L 56.885 115.784 51.298 116.482 L 45.710 117.180 46.374 108.340 C 46.738 103.478, 47.317 96.406, 47.660 92.623 L 48.283 85.747 57.643 86.434 L 67.004 87.121 67.994 84.516 C 70.464 78.020, 70.380 77.821, 62.662 71.809 C 57.910 68.109, 53.667 65.693, 50.530 64.903 C 46.358 63.853, 45.932 63.523, 47.383 62.462 C 48.875 61.371, 48.501 60.769, 43.980 56.983 L 38.900 52.730 64.664 38.912 C 78.834 31.312, 90.553 25.220, 90.706 25.373 C 90.860 25.526, 89.417 30.308, 87.500 36 C 85.583 41.692, 84.124 46.434, 84.258 46.539 C 84.391 46.645, 87.888 47.026, 92.028 47.387 L 99.557 48.043 105.926 39.443 L 112.296 30.842 109.898 28.520 C 102.938 21.780, 79.560 2.007, 78.607 2.054 C 77.998 2.083, 66.475 11.811, 53 23.670 M 122.168 22.098 L 116.127 30.196 125.321 38.348 C 130.378 42.832, 138.861 50.275, 144.173 54.889 C 157.834 66.757, 156.438 67.921, 139.237 59.008 L 125.697 51.993 113.098 51.381 L 100.500 50.770 92.831 61.133 C 88.613 66.832, 85.292 71.625, 85.452 71.785 C 85.611 71.944, 93.337 74.249, 102.621 76.906 L 119.500 81.738 119.158 87.078 C 118.970 90.015, 118.262 96.213, 117.585 100.852 L 116.353 109.287 127.814 108.673 C 134.117 108.335, 139.502 107.831, 139.780 107.553 C 140.058 107.276, 139.759 106.415, 139.117 105.641 C 138.205 104.542, 138.290 104.103, 139.505 103.636 C 140.541 103.239, 141.451 103.896, 142.230 105.605 C 143.210 107.757, 143.870 108.076, 146.324 107.585 C 147.933 107.263, 150.567 107, 152.177 107 L 155.105 107 154.893 101.121 L 154.681 95.242 166.929 78.637 C 173.666 69.504, 179.025 61.663, 178.839 61.213 C 178.334 59.992, 129.672 14, 128.885 14 C 128.513 14, 125.490 17.644, 122.168 22.098 M 80.500 33.361 C 78.300 34.649, 69.151 39.645, 60.170 44.462 L 43.839 53.220 47.170 56.069 C 49.001 57.637, 51.026 58.937, 51.669 58.959 C 52.311 58.982, 57.486 56.234, 63.169 52.854 C 71.299 48.017, 74.279 46.746, 77.157 46.889 L 80.814 47.070 83.053 40.285 C 84.285 36.553, 85.500 32.938, 85.753 32.250 C 86.427 30.422, 85.005 30.723, 80.500 33.361 M 108.572 40.250 L 103.078 47.500 108.789 48.141 C 111.930 48.494, 117.145 48.832, 120.377 48.891 C 125.268 48.982, 127.501 49.689, 133.689 53.104 C 137.779 55.362, 141.308 57.025, 141.532 56.801 C 141.962 56.371, 115.516 33, 114.600 33 C 114.307 33, 111.594 36.263, 108.572 40.250 M 64.287 55.285 C 56.978 59.651, 54.350 61.717, 55.043 62.552 C 56.025 63.735, 72.781 68.628, 73.345 67.897 C 73.514 67.679, 74.928 63.900, 76.486 59.500 C 78.045 55.100, 79.521 50.938, 79.767 50.250 C 80.824 47.293, 73.891 49.548, 64.287 55.285 M 79.290 59.552 L 76.143 69.104 78.656 70.059 C 80.037 70.584, 81.505 70.806, 81.917 70.551 C 83.034 69.861, 97 51.456, 97 50.674 C 97 50.303, 93.723 50, 89.718 50 L 82.436 50 79.290 59.552 M 66.983 71.942 C 70.486 74.846, 72 75.026, 72 72.539 C 72 71.800, 70.583 70.702, 68.851 70.098 C 63.790 68.334, 63.261 68.856, 66.983 71.942 M 74.217 74.424 C 73.364 76.295, 73.418 77.102, 74.454 77.962 C 75.489 78.821, 76.291 78.446, 77.961 76.323 C 80.004 73.725, 80.024 73.530, 78.313 72.855 C 75.551 71.767, 75.401 71.824, 74.217 74.424 M 79.883 78.513 C 76.894 82.675, 76.641 82.811, 74.486 81.399 C 72.335 79.990, 72.170 80.073, 71.112 83.108 C 70.501 84.863, 70 86.633, 70 87.041 C 70 87.450, 74.504 88.107, 80.008 88.501 C 85.512 88.895, 90.248 89.592, 90.531 90.051 C 90.815 90.509, 88.989 95.463, 86.473 101.059 C 83.958 106.655, 82.035 111.363, 82.200 111.521 C 82.365 111.679, 87.450 111.424, 93.500 110.955 C 99.550 110.486, 106.172 110.079, 108.215 110.051 C 110.959 110.013, 112.230 109.439, 113.079 107.853 C 114.550 105.105, 117.242 84.809, 116.250 83.952 C 115.837 83.596, 111.225 82.114, 106 80.658 C 100.775 79.203, 93.467 77.143, 89.759 76.079 L 83.019 74.147 79.883 78.513 M 50.644 90.750 C 50.375 91.713, 49.851 97.338, 49.481 103.250 L 48.808 114 51.654 113.930 C 57.433 113.787, 58.205 112.851, 62.077 101.284 L 65.779 90.226 62.140 89.624 C 55.202 88.477, 51.171 88.871, 50.644 90.750 M 68.494 91.264 C 68.257 91.944, 66.467 96.957, 64.518 102.404 C 62.569 107.851, 61.174 112.507, 61.416 112.750 C 61.659 112.993, 65.649 112.876, 70.283 112.490 L 78.708 111.788 82.854 102.480 C 85.134 97.360, 87 92.936, 87 92.647 C 87 92.359, 85.088 91.891, 82.750 91.609 C 70.097 90.078, 68.919 90.050, 68.494 91.264 M 145.167 110.834 C 146.209 113.441, 151.579 122.995, 152 122.991 C 152.275 122.989, 153.184 121.753, 154.021 120.244 C 155.186 118.142, 155.320 116.622, 154.595 113.750 C 153.679 110.127, 153.498 110, 149.240 110 C 146.816 110, 144.983 110.375, 145.167 110.834 M 89.329 113.919 C 84.835 114.239, 80.833 114.827, 80.435 115.227 C 78.566 117.108, 63.199 152.544, 64.116 152.860 C 64.690 153.058, 68.520 152.905, 72.626 152.520 L 80.093 151.821 93.696 133.660 C 101.177 123.672, 107.737 114.938, 108.272 114.250 C 109.334 112.885, 104.952 112.809, 89.329 113.919 M 155.023 123.944 C 153.895 126.668, 154.201 127.631, 159.133 136.879 C 162.064 142.375, 164.606 146.727, 164.783 146.551 C 165.153 146.180, 157.058 121, 156.568 121 C 156.389 121, 155.694 122.325, 155.023 123.944" stroke="none" fill="black" fill-rule="evenodd"/>
</svg>