<svg xmlns="http://www.w3.org/2000/svg" width="200" height="200" viewBox="0 0 200 200" version="1.1">
	<path d="M 43.556 20.295 C 42.599 26.220, 37.991 73.460, 37.996 77.304 C 37.999 80.238, 45.210 115.699, 48.650 129.695 C 48.946 130.902, 49.881 132.027, 50.726 132.195 C 51.605 132.369, 43.863 139.057, 32.631 147.825 C 21.834 156.253, 13 163.566, 13 164.075 C 13 166.237, 15.967 164.355, 30.679 152.860 L 46.217 140.720 54.255 141.340 C 58.676 141.681, 62.523 142.189, 62.803 142.470 C 63.083 142.750, 62.583 150.950, 61.692 160.692 C 60.801 170.435, 60.236 178.569, 60.435 178.769 C 60.635 178.968, 66.764 171.340, 74.055 161.816 C 81.346 152.292, 87.426 144.353, 87.566 144.173 C 87.707 143.993, 93.684 145.333, 100.848 147.152 C 108.013 148.970, 114.228 150.105, 114.659 149.674 C 115.881 148.452, 114.015 147.711, 101.845 144.590 C 95.605 142.990, 90.349 141.564, 90.163 141.421 C 89.978 141.277, 91.601 138.916, 93.769 136.174 L 97.710 131.187 115.280 139.069 C 134.883 147.862, 135.088 147.936, 135.655 146.409 C 136.297 144.682, 113.213 119, 111.018 119 C 108.099 119, 107.678 117.249, 110.218 115.667 C 112.830 114.041, 125.790 110.457, 126.499 111.165 C 127.373 112.039, 145 149.072, 145 150.034 C 145 150.559, 139.795 159.376, 133.434 169.628 C 126.322 181.089, 122.225 188.625, 122.796 189.196 C 123.366 189.766, 127.532 187.847, 133.612 184.213 C 139.050 180.961, 151.825 173.447, 162 167.513 C 172.175 161.580, 181.039 156.225, 181.698 155.613 C 182.618 154.757, 181.108 148.378, 175.160 128 L 167.425 101.500 144.172 101 L 120.920 100.500 141.885 89.534 C 153.416 83.502, 162.666 78.269, 162.441 77.905 C 162.216 77.540, 157.637 76.459, 152.266 75.502 C 146.895 74.545, 142.341 73.619, 142.146 73.444 C 141.952 73.269, 144.718 69.380, 148.294 64.801 C 152.988 58.789, 155.795 56.114, 158.397 55.173 C 161.991 53.874, 163.398 51, 160.441 51 C 159.460 51, 162.609 46.122, 168.940 37.832 C 174.472 30.590, 178.842 24.508, 178.651 24.317 C 177.839 23.505, 112.002 44.598, 112.001 45.671 C 112 47.110, 113.481 47.409, 133.500 50.006 C 152.568 52.480, 154.563 52.870, 153.395 53.896 C 152.903 54.328, 143.725 57.945, 133 61.934 C 122.275 65.923, 113.163 69.504, 112.751 69.892 C 112.339 70.280, 117.623 71.625, 124.492 72.880 L 136.981 75.163 128.035 86.901 C 123.114 93.357, 117.900 99.180, 116.446 99.843 C 114.673 100.650, 114.001 101.559, 114.402 102.605 C 115.481 105.416, 108.408 112.764, 103.155 114.289 C 98.777 115.560, 97.727 115.438, 85.500 112.225 C 78.350 110.347, 72.442 108.740, 72.370 108.655 C 71.713 107.870, 84.866 81.623, 87.683 78.098 C 89.704 75.569, 91.725 73.006, 92.175 72.403 C 92.699 71.698, 89.508 68.859, 83.246 64.461 C 77.886 60.696, 72.514 56.870, 71.308 55.960 C 69.174 54.347, 69.734 54.016, 92.808 43.238 C 115.789 32.503, 116.635 32.197, 121 33.042 C 129.276 34.644, 129.355 34.605, 128.632 29.329 C 128.279 26.760, 127.822 24.489, 127.615 24.281 C 127.408 24.074, 124.737 25.132, 121.679 26.631 L 116.121 29.357 81.310 23.607 C 62.165 20.444, 45.954 17.685, 45.287 17.474 C 44.570 17.248, 43.862 18.403, 43.556 20.295 M 45.955 22.750 C 45.931 23.712, 44.643 36.650, 43.094 51.500 L 40.277 78.500 45.743 103.500 C 48.749 117.250, 51.297 128.598, 51.405 128.718 C 52.104 129.491, 60.120 126.139, 63.144 123.808 C 67.339 120.575, 68 120.406, 68 122.567 C 68 123.579, 68.620 123.962, 69.750 123.647 C 70.713 123.378, 72.503 122.871, 73.730 122.518 C 74.956 122.166, 75.856 121.343, 75.730 120.689 C 75.576 119.896, 76.832 119.589, 79.500 119.767 C 83.644 120.043, 93.039 117.717, 91.419 116.816 C 90.914 116.534, 85.662 115.042, 79.750 113.499 C 73.838 111.956, 69 110.271, 69 109.755 C 69 107.144, 82.238 80.546, 85.549 76.506 C 87.866 73.678, 88.957 71.581, 88.323 71.173 C 82.576 67.473, 64.074 54.385, 64.047 54 C 64.027 53.725, 74.652 48.573, 87.657 42.551 C 100.663 36.528, 110.898 31.484, 110.402 31.340 C 108.154 30.689, 49.589 21, 47.900 21 C 46.774 21, 45.982 21.713, 45.955 22.750 M 123.244 28.664 C 121.668 29.300, 122.626 31, 124.559 31 C 125.352 31, 126 30.325, 126 29.500 C 126 27.958, 125.427 27.784, 123.244 28.664 M 145.764 36.832 C 132.159 41.050, 121.022 44.753, 121.014 45.063 C 120.999 45.670, 156.004 50.390, 156.406 49.835 C 156.540 49.651, 159.736 45.450, 163.509 40.500 C 167.281 35.550, 170.790 30.938, 171.306 30.250 C 171.823 29.563, 171.852 29.037, 171.372 29.082 C 170.893 29.127, 159.369 32.615, 145.764 36.832 M 136 63.617 C 129.675 66.050, 123.825 68.319, 123 68.660 C 122.175 69, 125.325 70.094, 130 71.089 L 138.500 72.899 140.749 70.199 C 144.887 65.233, 149.133 58.999, 148.312 59.097 C 147.865 59.150, 142.325 61.184, 136 63.617 M 132.723 85.058 C 128.996 89.976, 126.249 94, 126.618 94 C 127.836 94, 154.943 79.610, 154.521 79.188 C 154.048 78.715, 142.013 76.059, 140.500 76.093 C 139.950 76.105, 136.450 80.140, 132.723 85.058 M 115.581 107.482 C 114.106 109.417, 113.260 111, 113.702 111 C 114.145 111, 117.549 110.130, 121.268 109.066 L 128.029 107.133 129.412 110.316 C 130.173 112.067, 134.667 121.491, 139.398 131.259 C 144.129 141.026, 148 149.530, 148 150.156 C 148 150.782, 143.805 158.091, 138.678 166.397 C 133.551 174.704, 128.997 182.107, 128.558 182.850 C 127.895 183.969, 128.164 183.983, 130.129 182.934 C 133.469 181.151, 176.159 155.936, 178.098 154.600 C 179.524 153.619, 178.925 150.849, 172.567 129 L 165.438 104.500 141.851 104.232 L 118.265 103.964 115.581 107.482 M 90.078 120.823 L 84.656 122.524 90.686 125.126 L 96.717 127.728 99.358 124.417 C 100.811 122.597, 102 120.633, 102 120.053 C 102 118.507, 96.283 118.877, 90.078 120.823 M 102.503 124.585 C 100.983 126.578, 100.153 128.542, 100.635 129.009 C 101.422 129.773, 127.928 142, 128.797 142 C 129.503 142, 123.192 134.473, 116.849 127.750 C 109.202 119.645, 106.693 119.091, 102.503 124.585 M 72.500 125.830 L 67.500 127.500 66.985 133.290 C 66.388 139.993, 65.680 139.562, 78.659 140.398 L 86.818 140.923 90.927 135.480 L 95.037 130.037 88.380 127.018 C 80.843 123.601, 79.481 123.499, 72.500 125.830 M 62 128.738 C 61.175 129.058, 58.155 131.224, 55.289 133.553 C 50.525 137.424, 50.268 137.838, 52.289 138.380 C 53.505 138.706, 56.638 138.979, 59.250 138.986 L 64 139 64 135.082 C 64 132.927, 64.273 130.452, 64.607 129.582 C 65.234 127.948, 64.585 127.738, 62 128.738 M 66 143.875 C 66 144.853, 65.517 150.454, 64.926 156.323 C 64.335 162.192, 63.998 167.694, 64.176 168.549 C 64.369 169.475, 68.507 164.818, 74.403 157.039 C 79.850 149.853, 84.125 143.817, 83.903 143.625 C 83.681 143.434, 79.563 143.012, 74.750 142.687 C 66.810 142.152, 66 142.262, 66 143.875" stroke="none" fill="black" fill-rule="evenodd"/>
</svg>