<svg xmlns="http://www.w3.org/2000/svg" width="200" height="200" viewBox="0 0 200 200" version="1.1">
	<path d="M 54.586 12.747 C 54.264 13.070, 54 13.622, 54 13.976 C 54 14.329, 65.686 19.959, 79.969 26.486 L 105.937 38.353 111.219 44.850 C 118.212 53.452, 123.999 62.945, 123.999 65.817 C 124 68.335, 123.244 68.293, 116.128 65.380 C 114.273 64.621, 112.650 64, 112.520 64 C 112.391 64, 111.483 69.962, 110.504 77.250 C 109.524 84.537, 108.422 91.075, 108.055 91.778 C 107.642 92.572, 105.705 90.112, 102.944 85.287 L 98.500 77.517 97.806 82.008 C 97.425 84.479, 96.861 95.950, 96.553 107.500 C 96.245 119.050, 95.657 129.660, 95.246 131.078 C 94.836 132.496, 90.945 136.748, 86.600 140.528 C 82.255 144.307, 79.105 147.534, 79.600 147.699 C 84.073 149.185, 116.587 157.654, 116.873 157.408 C 117.079 157.231, 119.201 138.055, 121.590 114.793 C 123.979 91.532, 125.948 72.407, 125.967 72.294 C 125.985 72.181, 127.800 72.724, 130 73.500 C 132.200 74.276, 134 74.715, 134 74.475 C 134 74.235, 132.391 71.523, 130.424 68.448 L 126.848 62.858 128.083 49.919 C 128.819 42.220, 129.824 36.561, 130.566 35.945 C 131.445 35.215, 137.938 36.099, 152.558 38.940 C 163.968 41.156, 173.469 43.135, 173.671 43.338 C 173.874 43.540, 171.348 51.085, 168.057 60.103 C 162.874 74.310, 161.871 78.236, 160.546 89.500 C 159.705 96.650, 158.339 106.325, 157.510 111 C 156.620 116.021, 156.002 125.542, 156.001 134.263 L 156 149.027 163.060 163.120 C 166.943 170.871, 169.975 177.358, 169.798 177.536 C 169.620 177.713, 153.506 174.153, 133.987 169.624 L 98.500 161.390 67.122 169.233 C 49.863 173.547, 35.526 176.860, 35.262 176.595 C 34.997 176.331, 38.816 163.275, 43.749 147.584 C 51.884 121.703, 52.568 118.925, 51.108 117.669 C 50.224 116.908, 46.013 113.957, 41.750 111.112 C 37.487 108.267, 34 105.327, 34 104.580 C 34 103.273, 35.971 92.057, 38.074 81.396 C 39.032 76.540, 39.286 76.231, 43.291 75.032 C 52.689 72.218, 76 63.738, 76 63.134 C 76 62.458, 63.983 54.494, 53.253 48.060 L 47.006 44.314 53.700 40.316 C 60.076 36.508, 62.567 34, 59.972 34 C 58.815 34, 42 43.795, 42 44.469 C 42 44.654, 47.737 48.193, 54.750 52.336 C 61.763 56.478, 68.343 60.493, 69.372 61.259 C 71.062 62.516, 69.549 63.234, 53.872 68.614 L 36.500 74.575 33.678 89.879 C 32.126 98.296, 31.073 105.747, 31.337 106.436 C 31.602 107.126, 35.684 110.315, 40.409 113.525 C 45.134 116.735, 49.004 119.842, 49.010 120.430 C 49.015 121.019, 44.890 134.663, 39.843 150.750 C 34.796 166.838, 30.921 180.255, 31.233 180.566 C 31.544 180.877, 46.693 177.320, 64.898 172.661 L 97.997 164.190 136.243 173.017 C 157.278 177.872, 174.631 181.703, 174.804 181.529 C 174.977 181.356, 171.492 173.971, 167.060 165.119 L 159 149.024 159.017 133.762 C 159.027 125.036, 159.672 114.646, 160.523 109.500 C 161.342 104.550, 162.662 95.100, 163.456 88.500 C 164.690 78.252, 165.841 73.945, 171.342 59 C 174.884 49.375, 177.662 41.369, 177.516 41.208 C 177.369 41.047, 166.978 38.917, 154.424 36.474 C 133.563 32.415, 131.401 32.162, 129.300 33.539 C 128.035 34.368, 126.970 35.148, 126.934 35.273 C 126.898 35.398, 126.316 40.675, 125.642 47 L 124.415 58.500 121.458 53.967 C 119.831 51.474, 116.025 46.424, 113 42.746 L 107.500 36.057 87.500 26.876 C 57.162 12.950, 55.218 12.116, 54.586 12.747 M 112.642 81.750 C 110.375 98.933, 109.951 101.088, 108.959 100.475 C 108.521 100.204, 106.444 96.949, 104.344 93.241 L 100.525 86.500 99.791 93 C 99.387 96.575, 99.114 104.450, 99.186 110.500 C 99.257 116.550, 98.977 124.445, 98.563 128.045 C 97.812 134.580, 97.801 134.598, 91.405 139.926 C 87.882 142.861, 85.001 145.541, 85.003 145.881 C 85.006 146.526, 114.038 154.300, 114.538 153.790 C 114.819 153.504, 123.004 74.659, 123.001 72.263 C 123 71.208, 117.059 68, 115.106 68 C 114.749 68, 113.640 74.188, 112.642 81.750" stroke="none" fill="black" fill-rule="evenodd"/>
</svg>