<svg xmlns="http://www.w3.org/2000/svg" width="200" height="200" viewBox="0 0 200 200" version="1.1">
	<path d="M 25.596 20.135 C 24.863 23.600, 19.079 99.412, 19.514 99.847 C 19.717 100.050, 26.322 102.217, 34.191 104.661 C 42.061 107.106, 48.908 109.513, 49.406 110.010 C 49.947 110.549, 42.012 121.978, 29.724 138.358 C 11.160 163.103, 8.620 167, 11.051 167 C 11.446 167, 16.854 160.475, 23.068 152.500 C 29.283 144.525, 34.854 138, 35.447 138 C 36.041 138, 38.921 139.612, 41.847 141.583 C 44.773 143.554, 47.385 144.948, 47.652 144.682 C 47.918 144.415, 50.065 141.457, 52.423 138.109 L 56.710 132.021 54.710 121.989 C 53.610 116.472, 52.966 111.700, 53.281 111.386 C 53.595 111.072, 56.286 111.523, 59.261 112.387 L 64.670 113.960 67.295 122.665 L 69.920 131.371 62.960 159.159 C 59.132 174.442, 56 187.671, 56 188.557 C 56 189.442, 56.562 189.985, 57.250 189.763 C 57.938 189.541, 69.129 177.322, 82.120 162.609 L 105.740 135.859 93.370 113.482 C 79.972 89.246, 80.140 89.794, 82.321 77.500 C 83.493 70.893, 84.144 69.727, 93.923 56.725 C 99.621 49.149, 104.404 43.074, 104.553 43.225 C 105.494 44.185, 124.971 123.238, 124.467 124.053 C 124.124 124.609, 114.415 138.432, 102.892 154.772 C 91.369 171.112, 82.306 184.602, 82.752 184.751 C 83.198 184.899, 96.731 179.435, 112.826 172.608 L 142.089 160.195 162.206 163.103 C 173.270 164.702, 182.432 165.896, 182.566 165.755 C 182.701 165.615, 178.133 150.875, 172.417 133 C 166.700 115.125, 162.018 99.923, 162.012 99.217 C 162.005 98.512, 166.928 81.428, 172.952 61.253 C 178.976 41.078, 183.813 24.501, 183.702 24.415 C 183.288 24.097, 114.178 29.834, 106 30.865 C 101.325 31.455, 94.021 32.072, 89.768 32.237 C 82.484 32.520, 82.194 32.452, 84.768 31.073 L 87.500 29.608 83.500 28.881 C 78.921 28.048, 34.132 19.405, 29.298 18.421 C 26.492 17.850, 26.034 18.062, 25.596 20.135 M 27.999 22.183 C 27.997 24.140, 23.165 85.582, 22.492 92.193 L 21.913 97.887 34.820 101.943 C 41.918 104.175, 47.958 106, 48.241 106 C 48.524 106, 48.100 102.963, 47.298 99.250 C 46.496 95.537, 45.286 86.971, 44.608 80.214 L 43.376 67.927 47.438 66.115 C 49.672 65.118, 57.575 61.527, 65 58.136 L 78.500 51.969 78.164 47.137 L 77.828 42.305 84.664 41.660 C 88.424 41.305, 93.822 41.011, 96.661 41.007 C 101.210 41.001, 102.134 40.629, 104.452 37.874 C 105.899 36.155, 106.895 34.562, 106.666 34.333 C 106.438 34.104, 98.537 34.402, 89.109 34.993 L 71.967 36.069 52.779 43.534 C 42.226 47.641, 33.234 51, 32.796 51 C 32.358 51, 32.005 50.438, 32.012 49.750 C 32.019 49.063, 38.545 46.025, 46.514 43 L 61.003 37.500 52.502 37.211 C 38.780 36.745, 42.739 34.077, 57.375 33.927 C 66.216 33.836, 74.730 32.670, 76.029 31.371 C 76.672 30.728, 69.145 28.918, 54.256 26.133 C 41.740 23.792, 30.712 21.649, 29.750 21.371 C 28.713 21.071, 28 21.402, 27.999 22.183 M 164.747 28.435 C 157.182 29.080, 150.620 30.033, 150.163 30.553 C 149.706 31.074, 146.979 47.025, 144.102 66 C 141.225 84.975, 138.551 101.547, 138.160 102.827 C 137.598 104.665, 134.691 98.475, 124.305 73.327 C 113.819 47.935, 110.791 41.500, 109.331 41.500 C 108.324 41.500, 107.552 41.950, 107.615 42.500 C 107.678 43.050, 112.328 61.547, 117.948 83.606 L 128.166 123.711 108.629 151.356 C 97.883 166.560, 89.459 179, 89.908 179 C 90.357 179, 101.863 174.275, 115.476 168.500 C 129.652 162.487, 141.569 158.012, 143.364 158.028 C 145.089 158.044, 153.700 159.116, 162.500 160.411 C 171.300 161.706, 178.592 162.689, 178.704 162.596 C 178.815 162.503, 174.380 148.197, 168.846 130.805 L 158.785 99.184 169.028 64.842 C 181.429 23.262, 180.412 26.973, 179.367 27.132 C 178.890 27.205, 172.311 27.791, 164.747 28.435 M 123.176 33.005 C 113.309 33.614, 111.572 33.990, 109.676 35.931 L 107.500 38.158 109.955 37.829 C 112.288 37.516, 113.004 38.931, 124.357 66.265 C 130.927 82.086, 136.441 94.892, 136.610 94.723 C 137.030 94.304, 146 36.142, 146 33.841 C 146 31.771, 144.243 31.707, 123.176 33.005 M 82.170 44.874 C 81.438 45.338, 80.988 46.843, 81.170 48.219 L 81.500 50.721 88.500 47.444 L 95.500 44.167 89.500 44.099 C 86.200 44.061, 82.901 44.410, 82.170 44.874 M 89.750 49.875 L 82 53.421 82.015 58.461 C 82.042 67.186, 83.032 66.964, 90.922 56.466 C 94.906 51.167, 98.015 46.718, 97.832 46.580 C 97.650 46.441, 94.013 47.924, 89.750 49.875 M 63 62.110 C 54.475 65.978, 47.223 69.448, 46.884 69.822 C 45.508 71.335, 50.151 104.274, 52.033 106.352 C 52.457 106.821, 58.923 99.071, 66.402 89.130 C 81.108 69.583, 80.904 70.059, 79.176 59.288 L 78.500 55.077 63 62.110 M 67.500 92.114 C 61.450 100.352, 56.367 107.472, 56.204 107.936 C 56.041 108.399, 58.180 109.323, 60.957 109.990 C 63.734 110.656, 66.326 111.718, 66.717 112.350 C 67.108 112.983, 68.614 117.499, 70.062 122.387 L 72.696 131.274 66.309 156.764 C 62.796 170.784, 60.079 182.412, 60.271 182.605 C 60.703 183.036, 102 136.325, 102 135.405 C 102 135.041, 96.553 124.911, 89.896 112.894 L 77.793 91.045 78.498 84.022 C 78.886 80.160, 79.045 77.030, 78.851 77.067 C 78.658 77.104, 73.550 83.875, 67.500 92.114 M 43.500 124.187 C 40.200 128.653, 37.174 132.853, 36.775 133.520 C 35.952 134.897, 45.573 141.382, 47.068 140.458 C 47.566 140.150, 49.284 137.994, 50.885 135.668 L 53.795 131.437 52.260 123.719 C 51.415 119.473, 50.448 116.015, 50.112 116.033 C 49.775 116.051, 46.800 119.720, 43.500 124.187" stroke="none" fill="black" fill-rule="evenodd"/>
</svg>