<svg xmlns="http://www.w3.org/2000/svg" width="200" height="200" viewBox="0 0 200 200" version="1.1">
	<path d="M 124.956 40.500 C 113.232 52.875, 103.465 63, 103.252 63 C 102.870 63, 107.546 54.185, 118.365 34.512 C 121.386 29.019, 123.729 24.396, 123.571 24.238 C 123.414 24.081, 116.133 24.824, 107.392 25.890 C 98.652 26.956, 91.351 27.680, 91.169 27.500 C 90.987 27.319, 91.340 26.233, 91.954 25.086 C 92.934 23.255, 92.791 22.998, 90.785 22.983 C 88.673 22.968, 18.710 30.115, 18.330 30.385 C 18 30.620, 27.030 121.363, 27.423 121.756 C 27.642 121.976, 32.654 121.437, 38.560 120.560 C 44.466 119.683, 49.421 119.088, 49.572 119.239 C 49.723 119.389, 42.027 127.610, 32.471 137.506 C 16.381 154.169, 13.310 158, 16.044 158 C 16.619 158, 22.131 153.824, 28.294 148.720 C 44.098 135.631, 42.999 136.380, 44.004 138.006 C 44.701 139.135, 46.981 138.717, 56.603 135.701 C 63.064 133.675, 68.559 132.226, 68.814 132.481 C 69.225 132.891, 55.752 186.878, 54.286 190.696 C 53.879 191.757, 54.247 192.099, 55.527 191.851 C 56.689 191.627, 64.268 180.052, 76.521 159.788 L 95.696 128.076 107.487 141.788 C 113.972 149.330, 119.552 155.602, 119.889 155.726 C 120.225 155.851, 126.350 144.458, 133.500 130.409 C 140.650 116.360, 146.740 104.705, 147.032 104.508 C 147.325 104.312, 146.335 117.280, 144.833 133.326 C 143.331 149.371, 141.785 166.296, 141.398 170.935 L 140.695 179.370 153.597 169.477 C 160.694 164.036, 168.744 157.826, 171.487 155.676 L 176.474 151.767 176.138 145.133 C 175.953 141.485, 174.776 122.075, 173.522 102 L 171.243 65.500 167.098 52.627 C 163.456 41.317, 162.038 38.434, 155.415 28.877 C 151.269 22.895, 147.516 18, 147.074 18 C 146.633 18, 136.679 28.125, 124.956 40.500 M 121.892 47.727 C 108.476 61.877, 96.600 74.417, 95.500 75.596 C 94.400 76.774, 91.934 79.388, 90.019 81.405 C 86.754 84.844, 87.945 84.388, 109.247 74.036 C 121.736 67.966, 132.415 63, 132.977 63 C 135.340 63, 133.522 65.789, 125.370 74.670 C 120.623 79.841, 116.910 84.210, 117.120 84.378 C 117.329 84.547, 124.925 85.469, 134 86.427 C 143.075 87.386, 150.792 88.470, 151.149 88.835 C 151.506 89.201, 150.050 107.950, 147.914 130.500 C 145.779 153.050, 144.141 171.851, 144.275 172.280 C 144.410 172.708, 151.040 168.035, 159.010 161.894 L 173.500 150.729 173.305 146.114 C 173.198 143.576, 172.138 124.850, 170.951 104.500 L 168.793 67.500 164.544 54 C 160.880 42.358, 159.414 39.232, 153.898 31.286 C 150.379 26.219, 147.226 22.056, 146.892 22.036 C 146.558 22.016, 135.308 33.577, 121.892 47.727 M 51.717 29.491 C 35.336 31.275, 21.775 32.906, 21.581 33.117 C 21.046 33.700, 29.417 117.762, 30.075 118.414 C 30.392 118.728, 35.658 118.232, 41.779 117.312 L 52.908 115.640 60.179 108.320 L 67.450 101 63.925 101 C 61.986 101, 59.973 100.595, 59.450 100.101 C 58.928 99.606, 54.296 98.064, 49.158 96.675 C 44.020 95.286, 39.559 93.892, 39.245 93.578 C 38.931 93.264, 41.268 87.584, 44.439 80.956 L 50.204 68.906 49.852 53.299 C 49.585 41.452, 49.801 37.589, 50.750 37.263 C 51.719 36.930, 52 40.755, 52 54.255 L 52 71.677 47.057 81.784 L 42.115 91.891 47.307 93.385 C 61.689 97.520, 60.692 97.535, 70.085 93.028 C 76.661 89.873, 80.213 87.321, 85.560 81.913 L 92.500 74.894 82.030 65.099 L 71.560 55.305 78.280 43.696 C 81.976 37.311, 85 31.933, 85 31.744 C 85 31.556, 78.588 32.196, 70.750 33.167 C 53.400 35.316, 51.711 35.370, 52.248 33.750 C 52.519 32.931, 58.674 31.753, 70.081 30.337 C 90.258 27.831, 88 28.251, 88 27 C 88 25.632, 85.753 25.786, 51.717 29.491 M 103.005 29.110 C 95.033 30.132, 88.390 31.313, 88.242 31.734 C 88.094 32.155, 85.048 37.450, 81.471 43.500 L 74.969 54.500 84.092 63.250 C 89.110 68.063, 93.566 72, 93.994 72 C 94.423 72, 99.715 62.888, 105.755 51.750 C 119.638 26.147, 119.216 26.977, 118.285 27.126 C 117.853 27.195, 110.977 28.087, 103.005 29.110 M 102.500 80.388 C 87.708 87.667, 78.455 92.826, 76.573 94.843 C 74.963 96.568, 73.838 98.156, 74.073 98.373 C 74.570 98.832, 147.160 102.201, 147.495 101.781 C 147.619 101.627, 147.981 99.183, 148.301 96.350 L 148.882 91.200 145.691 90.640 C 143.936 90.332, 135.750 89.336, 127.500 88.427 C 119.250 87.517, 112.323 86.610, 112.107 86.410 C 111.891 86.211, 114.366 83.074, 117.607 79.440 C 123.507 72.826, 126.570 68.969, 125.872 69.035 C 125.667 69.054, 115.150 74.163, 102.500 80.388 M 69.613 96.437 C 68.025 97.139, 67.190 98, 67.759 98.351 C 68.327 98.702, 69.851 98.107, 71.146 97.028 C 73.859 94.768, 73.610 94.672, 69.613 96.437 M 63.807 108.736 L 57.500 115.142 61 114.587 C 62.925 114.282, 67.164 113.576, 70.419 113.019 C 73.675 112.461, 76.546 112.213, 76.800 112.467 C 77.054 112.720, 76.508 115.925, 75.588 119.588 C 74.668 123.251, 74.121 126.454, 74.372 126.705 C 74.623 126.956, 83.872 124.355, 94.925 120.925 C 105.977 117.494, 114.896 114.563, 114.745 114.411 C 114.593 114.259, 104.489 111.479, 92.291 108.233 L 70.114 102.331 63.807 108.736 M 103.748 108.237 C 119.765 112.552, 126.997 114.928, 126.998 115.875 C 127 116.894, 126.158 117.081, 123.750 116.598 C 121.419 116.129, 117.108 116.984, 108.500 119.621 C 101.900 121.643, 96.327 123.442, 96.115 123.617 C 95.725 123.941, 105.755 135.962, 114.738 145.938 L 119.635 151.376 131.399 128.547 C 139.287 113.240, 142.787 105.486, 142.021 105.013 C 141.394 104.625, 132.694 104.010, 122.690 103.646 C 112.685 103.283, 99.100 102.757, 92.500 102.479 L 80.500 101.974 103.748 108.237 M 60.500 117.358 C 54.628 118.476, 54.275 118.735, 44 129.456 C 37.165 136.588, 35.176 139.081, 38.301 136.597 C 42.735 133.074, 43.236 132.904, 44.853 134.367 C 46.461 135.822, 47.569 135.647, 58.451 132.221 L 70.298 128.490 72.008 122.245 L 73.717 116 70.109 116.108 C 68.124 116.167, 63.800 116.730, 60.500 117.358 M 83.073 127.420 L 72.646 130.735 66.357 155.118 C 62.897 168.528, 60.165 179.838, 60.284 180.252 C 60.403 180.665, 68.257 168.178, 77.737 152.502 C 87.217 136.826, 94.642 124.024, 94.237 124.052 C 93.832 124.081, 88.808 125.596, 83.073 127.420" stroke="none" fill="black" fill-rule="evenodd"/>
</svg>