<svg xmlns="http://www.w3.org/2000/svg" width="200" height="200" viewBox="0 0 200 200" version="1.1">
	<path d="M 97.750 17.951 C 68.188 20.545, 43.723 22.944, 43.383 23.284 C 43.044 23.623, 38.107 36.177, 32.413 51.181 C 25.852 68.471, 22.410 78.810, 23.014 79.414 C 23.538 79.938, 24.133 80.172, 24.336 79.933 C 24.606 79.616, 38.684 42.590, 44.685 26.415 C 44.927 25.763, 53.361 24.633, 65.794 23.587 C 77.182 22.629, 101.349 20.566, 119.498 19.003 C 137.646 17.441, 152.591 16.257, 152.707 16.374 C 152.824 16.491, 149.238 22.744, 144.738 30.271 C 140.237 37.797, 136.279 43.628, 135.942 43.228 C 135.605 42.827, 133.586 37.663, 131.456 31.750 C 128.670 24.016, 127.122 21, 125.940 21 C 125.036 21, 108.379 23.925, 88.923 27.500 C 69.468 31.075, 53.201 34, 52.775 34 C 52.349 34, 52 34.675, 52 35.500 C 52 36.325, 52.275 37, 52.610 37 C 53.605 37, 92.295 43.020, 94.807 43.566 C 96.658 43.968, 96.979 44.504, 96.433 46.283 C 95.515 49.271, 95.738 49.206, 91.904 47.607 L 88.500 46.188 69.558 59.344 C 55.161 69.344, 51.146 72.577, 52.824 72.822 C 54.038 72.999, 62.169 72.436, 70.893 71.572 C 93.690 69.313, 91.910 69.001, 90.714 75.048 C 89.734 80.003, 89.660 80.084, 86.693 79.432 C 83.851 78.808, 83.003 79.466, 72.585 90.368 L 61.500 101.968 45.500 91.582 C 35.771 85.267, 29.128 81.550, 28.550 82.098 C 27.950 82.668, 27.950 83.309, 28.550 83.838 C 30.089 85.197, 59.748 103.966, 61.291 104.558 C 62.188 104.902, 66.661 100.855, 73.555 93.464 C 84.104 82.153, 84.512 81.839, 88.179 82.188 L 91.952 82.548 93.035 77.024 C 94.639 68.845, 94.517 69, 99.327 69 L 103.716 69 104.908 78.250 C 105.563 83.338, 106.320 88.655, 106.589 90.067 C 107.041 92.438, 105.878 93.395, 91.289 102.662 C 82.605 108.178, 74.955 113.001, 74.289 113.380 C 73.623 113.759, 71.172 112.688, 68.841 111 C 66.510 109.311, 64.077 108.058, 63.434 108.215 C 62.792 108.372, 56.849 113.700, 50.228 120.055 L 38.191 131.610 34.595 155.218 C 32.618 168.203, 31 179.260, 31 179.791 C 31 180.321, 41.867 176.527, 55.150 171.360 C 68.432 166.193, 79.478 162.145, 79.698 162.364 C 79.917 162.583, 76.037 167.404, 71.077 173.077 C 66.116 178.750, 62.177 183.511, 62.324 183.657 C 62.559 183.893, 169.416 178.446, 177.840 177.768 C 180.933 177.520, 179.480 176.353, 158.205 162 L 135.230 146.500 152.914 134.925 C 162.640 128.559, 172.038 122.500, 173.799 121.460 C 175.560 120.420, 177 119.324, 177 119.025 C 177 117.746, 128.147 109.947, 120.295 109.973 L 112.091 110 111.522 106.750 C 111.210 104.963, 110.852 101.312, 110.727 98.638 L 110.500 93.775 128 82.563 C 137.625 76.396, 145.625 71.645, 145.777 72.006 C 145.930 72.367, 143.792 79.080, 141.027 86.923 C 138.262 94.766, 136 101.367, 136 101.592 C 136 101.816, 136.637 102, 137.416 102 C 138.564 102, 158.301 67.737, 160.461 61.992 C 160.924 60.761, 160.151 60.525, 156.264 60.712 C 153.644 60.837, 157.452 59.915, 164.726 58.661 C 185.074 55.155, 184.440 54.326, 158.500 50.527 C 148.050 48.996, 139.193 47.464, 138.817 47.122 C 138.441 46.780, 141.396 41.100, 145.383 34.500 C 149.370 27.900, 153.882 20.363, 155.411 17.750 L 158.190 13 154.845 13.118 C 153.005 13.183, 127.313 15.358, 97.750 17.951 M 101 27.981 C 90.275 30.043, 77 32.552, 71.500 33.555 L 61.500 35.378 75 37.550 C 82.425 38.745, 90.577 40.028, 93.116 40.402 L 97.731 41.082 98.377 37.041 C 99.269 31.466, 101.582 31.727, 102.448 37.500 C 102.819 39.975, 103.432 42.012, 103.811 42.026 C 104.190 42.040, 111.025 43.116, 119 44.418 C 126.975 45.720, 133.613 46.683, 133.750 46.559 C 133.888 46.434, 132.129 41.308, 129.841 35.166 C 125.973 24.785, 125.499 24.008, 123.090 24.115 C 121.666 24.179, 111.725 25.918, 101 27.981 M 99 47.441 C 99 48.784, 99.450 50.160, 100 50.500 C 100.583 50.861, 101 49.844, 101 48.059 C 101 46.377, 100.550 45, 100 45 C 99.450 45, 99 46.098, 99 47.441 M 104.181 48.517 L 104.500 52.312 116.315 56.834 L 128.131 61.356 147.065 58.490 C 157.479 56.914, 166 55.351, 166 55.018 C 166 54.684, 153.287 52.479, 137.750 50.117 C 122.213 47.755, 108.232 45.575, 106.681 45.273 C 103.949 44.739, 103.873 44.839, 104.181 48.517 M 74.267 59.357 C 66.439 64.863, 60.139 69.462, 60.267 69.578 C 60.605 69.885, 90.300 67.048, 91.572 66.587 C 92.569 66.227, 95.632 52.219, 94.852 51.584 C 94.659 51.426, 93.150 50.858, 91.500 50.322 C 88.697 49.411, 87.567 50.003, 74.267 59.357 M 97.527 55.250 C 97.246 56.487, 96.610 59.413, 96.114 61.750 L 95.213 66 99.244 66 L 103.275 66 102.604 60.288 C 102 55.146, 100.900 53.060, 98.769 53.015 C 98.367 53.007, 97.808 54.013, 97.527 55.250 M 105 57.375 C 105 58.131, 105.281 60.156, 105.625 61.875 C 106.221 64.854, 106.466 64.995, 110.875 64.901 C 113.419 64.847, 117.975 64.509, 121 64.151 L 126.500 63.500 116.400 59.750 C 104.951 55.499, 105 55.509, 105 57.375 M 146.813 61.683 C 147.534 61.972, 148.397 61.936, 148.729 61.604 C 149.061 61.272, 148.471 61.036, 147.417 61.079 C 146.252 61.127, 146.015 61.364, 146.813 61.683 M 130 66.042 C 120.375 67.032, 111.263 67.877, 109.750 67.921 C 106.523 68.014, 106.407 69.234, 108.325 82.811 L 109.500 91.123 129.992 78.037 C 141.262 70.839, 150.617 65.351, 150.780 65.841 C 150.944 66.331, 149.713 70.470, 148.045 75.039 C 146.378 79.608, 145.135 83.469, 145.284 83.618 C 145.598 83.932, 156 65.454, 156 64.582 C 156 63.688, 149.127 64.074, 130 66.042 M 94.710 103.748 C 88.225 107.876, 83.050 111.380, 83.210 111.535 C 83.369 111.691, 89.274 111.567, 96.331 111.260 L 109.162 110.702 108.470 104.601 C 108.089 101.245, 107.490 97.992, 107.139 97.372 C 106.730 96.649, 102.261 98.942, 94.710 103.748 M 52.184 121.824 L 40.867 132.552 37.564 154.026 C 35.747 165.837, 34.423 175.683, 34.621 175.907 C 34.819 176.131, 46.263 171.907, 60.053 166.519 C 76.811 159.972, 85.457 157.057, 86.127 157.727 C 86.797 158.397, 83.978 162.331, 77.625 169.592 C 72.398 175.566, 68.211 180.545, 68.322 180.655 C 68.733 181.066, 170.967 175.366, 171.427 174.907 C 171.690 174.643, 162.691 168.231, 151.428 160.658 C 140.166 153.084, 131.171 146.533, 131.439 146.099 C 131.707 145.665, 140.481 139.754, 150.937 132.962 C 161.393 126.171, 169.805 120.471, 169.630 120.296 C 169.455 120.122, 159.454 118.249, 147.406 116.136 C 131.062 113.268, 123.779 112.413, 118.720 112.765 C 113.047 113.160, 112.018 113.503, 112.417 114.868 C 113.349 118.056, 116.321 145.012, 115.798 145.535 C 115.506 145.828, 103.751 138.177, 89.676 128.533 C 75.601 118.890, 63.954 111.021, 63.793 111.048 C 63.632 111.074, 58.408 115.923, 52.184 121.824 M 94 114.025 C 88.225 114.426, 81.503 114.810, 79.062 114.877 L 74.625 115 93.562 127.900 C 103.978 134.994, 112.606 140.282, 112.735 139.650 C 112.865 139.017, 112.190 132.875, 111.235 126 C 109.224 111.513, 111.126 112.834, 94 114.025" stroke="none" fill="black" fill-rule="evenodd"/>
</svg>