<svg xmlns="http://www.w3.org/2000/svg" width="200" height="200" viewBox="0 0 200 200" version="1.1">
	<path d="M 80.199 18.727 C 80.365 19.550, 85 22.824, 90.500 26.003 C 106.680 35.356, 104.672 35.661, 70.495 29.038 C 56.198 26.267, 43.600 24.002, 42.500 24.004 C 40.956 24.008, 38.906 27.018, 33.500 37.221 C 29.650 44.488, 24.782 53.670, 22.681 57.626 L 18.863 64.820 33.931 95.957 C 42.219 113.082, 48.981 127.411, 48.957 127.797 C 48.886 128.979, 38.817 136.436, 35.857 137.500 C 32.479 138.714, 27.577 144.977, 28.939 146.339 C 29.532 146.932, 31.676 145.803, 34.692 143.310 C 38.874 139.855, 48.351 136, 52.666 136 C 53.235 136, 57.662 142.542, 62.505 150.537 C 67.348 158.532, 71.666 165.293, 72.100 165.562 C 72.534 165.830, 75.052 164.744, 77.695 163.149 C 80.338 161.553, 91.417 155.712, 102.316 150.169 L 122.133 140.089 121.562 145.295 C 120.413 155.774, 118.885 175.218, 119.188 175.500 C 119.674 175.951, 180.937 158.396, 181.765 157.568 C 182.169 157.163, 179.153 147, 175.062 134.984 L 167.623 113.135 175.812 84.242 C 180.315 68.351, 184 55.109, 184 54.816 C 184 54.523, 177.678 53.253, 169.951 51.992 C 158.350 50.099, 156.003 49.435, 156.484 48.180 C 156.805 47.344, 156.596 46.368, 156.019 46.012 C 155.442 45.655, 162.156 39.544, 170.937 32.432 L 186.905 19.500 174.702 18.853 C 167.991 18.497, 143.915 17.987, 121.199 17.719 C 84.902 17.291, 79.934 17.413, 80.199 18.727 M 95.705 25.749 C 105.264 31.081, 105.810 31.553, 104.319 33.200 C 103.009 34.648, 102.972 35.039, 104.114 35.417 C 106.421 36.182, 148.754 44, 150.584 44 C 152.011 44, 180.455 22.011, 179.739 21.461 C 179.607 21.360, 158.350 21.003, 132.500 20.667 L 85.500 20.057 95.705 25.749 M 38.233 34.250 C 36.062 38.237, 31.519 46.721, 28.138 53.102 L 21.991 64.704 28.136 77.602 L 34.281 90.500 43.216 72.008 C 48.130 61.838, 52.300 53.366, 52.484 53.183 C 52.667 52.999, 59.237 52.402, 67.084 51.856 L 81.350 50.863 88.231 44.492 C 92.016 40.988, 95.200 37.796, 95.306 37.399 C 95.487 36.725, 47.479 27.035, 43.840 27.011 C 42.805 27.004, 40.697 29.725, 38.233 34.250 M 92.604 44.126 C 88.927 47.495, 86.049 50.329, 86.209 50.424 C 86.369 50.518, 89.872 50.349, 93.994 50.048 C 101.381 49.508, 101.496 49.457, 102.021 46.500 L 102.553 43.500 112.526 43.801 C 118.012 43.966, 126.325 44.752, 131 45.547 C 139.118 46.929, 146.803 47.465, 145.917 46.588 C 145.399 46.075, 103.039 38, 100.868 38 C 100 38, 96.281 40.757, 92.604 44.126 M 104.638 47.500 C 104.168 48.726, 105.107 48.998, 109.781 48.991 C 112.927 48.987, 117.975 48.670, 121 48.287 C 125.890 47.669, 126.167 47.516, 123.500 46.914 C 121.850 46.541, 117.061 46.183, 112.857 46.118 C 106.908 46.026, 105.086 46.332, 104.638 47.500 M 118.012 51.217 C 110.594 51.726, 104.383 52.284, 104.209 52.457 C 103.573 53.093, 98.939 83.558, 99.215 85.290 C 99.431 86.649, 104.562 82.959, 120.500 69.982 C 132.050 60.578, 142.159 52.235, 142.964 51.442 C 144.242 50.184, 143.604 50.019, 137.964 50.146 C 134.409 50.227, 125.430 50.709, 118.012 51.217 M 124.125 70.408 L 100.749 89.500 109.375 89.789 C 114.119 89.948, 118 90.451, 118 90.908 C 118 92.064, 111.755 92.976, 103.750 92.989 L 97 93 97 96.333 C 97 100.723, 96.098 101.441, 93.569 99.065 L 91.489 97.111 72.495 112.568 C 62.048 121.070, 53.395 128.357, 53.266 128.763 C 53.138 129.168, 53.429 130.126, 53.913 130.892 C 54.634 132.033, 60.774 130.623, 87.868 123.097 C 106.059 118.044, 123.217 113.234, 125.997 112.408 L 131.051 110.907 130.375 98.954 C 129.770 88.239, 129.871 87, 131.350 87 C 132.788 87, 133 88.480, 133 98.500 C 133 105.418, 133.394 110, 133.989 110 C 134.534 110, 139.787 108.650, 145.663 107 C 158.196 103.481, 157 103.643, 157 105.465 C 157 107.041, 137.006 114.092, 131.500 114.457 C 126.774 114.770, 57 134.382, 57 135.397 C 57 136.092, 71.041 159.860, 72.662 161.910 C 72.840 162.135, 77.827 159.758, 83.743 156.628 C 102.697 146.599, 147.948 124, 149.076 124 C 152.136 124, 148.208 127.063, 137.927 132.695 C 131.642 136.137, 125.997 139.752, 125.383 140.727 C 124.401 142.284, 121.577 170.911, 122.331 171.664 C 122.688 172.021, 177.873 156.460, 178.511 155.823 C 178.762 155.572, 175.781 145.819, 171.886 134.149 L 164.805 112.932 172.506 85.716 C 176.741 70.747, 180.273 58.083, 180.353 57.573 C 180.465 56.867, 154.839 51.720, 154.407 52.362 C 154.356 52.438, 152.790 55.313, 150.926 58.750 C 149.063 62.188, 146.967 65, 146.269 65 C 144.680 65, 144.679 65.026, 146.556 57.784 C 147.412 54.481, 147.974 51.675, 147.806 51.547 C 147.638 51.420, 136.981 59.907, 124.125 70.408 M 91.186 53.067 L 81.872 53.677 74.214 61.089 C 70.003 65.165, 66.319 68.664, 66.028 68.864 C 65.738 69.064, 70.450 73.896, 76.500 79.603 C 86.395 88.937, 87.875 89.981, 91.231 89.990 C 94.286 89.998, 95.055 89.592, 95.475 87.750 C 96.342 83.950, 101.038 52.695, 100.761 52.573 C 100.617 52.509, 96.309 52.732, 91.186 53.067 M 61.951 54.740 L 54.401 55.077 45.783 73.038 L 37.165 91 54.832 90.991 C 64.550 90.987, 74.916 90.693, 77.868 90.338 L 83.236 89.693 72.486 79.597 L 61.735 69.500 69.618 61.766 L 77.500 54.032 73.500 54.217 C 71.300 54.319, 66.103 54.554, 61.951 54.740 M 50.940 93.959 L 36.379 94.500 43.940 110.290 L 51.500 126.081 69.500 111.477 C 79.400 103.445, 87.946 96.433, 88.492 95.895 C 91.398 93.029, 84.947 92.696, 50.940 93.959 M 47.497 133.003 C 45.708 134.980, 45.725 134.992, 48.841 133.906 C 50.577 133.300, 51.747 132.399, 51.440 131.903 C 50.579 130.509, 49.475 130.817, 47.497 133.003" stroke="none" fill="black" fill-rule="evenodd"/>
</svg>