<svg xmlns="http://www.w3.org/2000/svg" width="200" height="200" viewBox="0 0 200 200" version="1.1">
	<path d="M 163.893 21.070 C 156.527 29.935, 149.935 37.910, 149.245 38.792 C 148.104 40.250, 146.694 40.083, 133.895 36.975 L 119.802 33.552 120.418 28.908 L 121.034 24.264 116.393 23.741 C 113.841 23.453, 111.471 22.802, 111.126 22.293 C 110.782 21.784, 94.075 19.730, 74 17.728 C 39.770 14.315, 37.420 14.195, 36.206 15.794 C 35.494 16.732, 31.729 23.575, 27.838 31 L 20.763 44.500 30.417 84.501 L 40.070 124.503 35.539 148.001 C 33.046 160.926, 31.005 172.044, 31.003 172.708 C 31.001 173.462, 39.317 171.096, 53.112 166.417 L 75.225 158.918 82.134 163.959 C 85.934 166.732, 89.320 169, 89.659 169 C 89.998 169, 89.970 165.625, 89.596 161.500 C 89.222 157.375, 89.069 154, 89.255 154 C 89.632 154, 128.577 140.539, 131.095 139.539 C 132.508 138.977, 132.769 141.151, 133.392 158.667 C 133.779 169.536, 134.323 178.657, 134.602 178.935 C 134.881 179.214, 135.422 178.974, 135.804 178.403 C 136.187 177.831, 143.634 168.704, 152.354 158.119 C 161.073 147.534, 168.005 138.671, 167.757 138.424 C 167.509 138.176, 159.782 135.838, 150.585 133.228 C 141.388 130.619, 133.932 128.037, 134.017 127.492 C 134.102 126.946, 140.546 118.204, 148.336 108.065 C 156.126 97.925, 162.867 89.026, 163.315 88.288 C 163.993 87.172, 159.711 87.062, 137.887 87.636 L 111.643 88.326 114.998 84.152 C 117.033 81.619, 118.972 80.141, 119.927 80.395 C 123.504 81.343, 172.988 87.345, 173.447 86.886 C 173.998 86.335, 178.095 5.761, 177.597 5.264 C 177.426 5.093, 171.260 12.206, 163.893 21.070 M 162.673 26.961 L 151.018 40.928 155.259 42.023 C 162.603 43.921, 163 44.102, 163 45.567 C 163 46.698, 161.217 47, 154.542 47 L 146.084 47 133.443 62.068 C 126.491 70.355, 120.970 77.303, 121.175 77.508 C 122.010 78.344, 170.078 84.256, 170.730 83.603 C 171.347 82.987, 175.086 13.906, 174.538 13.248 C 174.423 13.109, 169.084 19.280, 162.673 26.961 M 31.126 30.675 C 27.207 38.196, 24 44.775, 24 45.295 C 24 45.814, 28.252 63.848, 33.449 85.370 L 42.898 124.500 38.549 147 C 36.156 159.375, 34.274 169.582, 34.365 169.682 C 34.494 169.824, 64.037 159.934, 70.928 157.442 C 71.858 157.106, 70.025 155.227, 65.668 152.050 L 58.979 147.174 69.585 134.515 C 75.418 127.553, 80.009 121.675, 79.787 121.453 C 79.565 121.232, 75.697 121.637, 71.192 122.354 C 64.622 123.399, 63 123.407, 63 122.396 C 63 120.827, 64.457 120.395, 74.589 118.962 C 79.038 118.332, 83.091 117.521, 83.595 117.158 C 84.690 116.373, 94.383 104.974, 95.295 103.401 C 95.660 102.771, 92.560 99.887, 88.039 96.651 L 80.147 91 70.573 91 C 59.734 91, 58.059 89.630, 65.048 86.478 C 67.275 85.474, 69.284 84.350, 69.513 83.979 C 69.742 83.609, 64.108 79.074, 56.994 73.903 C 49.879 68.731, 44.045 64.237, 44.029 63.915 C 44.013 63.593, 50.970 62.050, 59.488 60.486 C 68.006 58.922, 74.869 57.538, 74.738 57.409 C 74.537 57.211, 39.516 52, 38.388 52 C 38.175 52, 38 51.376, 38 50.613 C 38 49.525, 41.231 49.070, 53.023 48.499 L 68.046 47.771 61.009 42.507 L 53.972 37.242 69.236 33.013 C 77.631 30.687, 84.641 28.654, 84.813 28.496 C 85.059 28.269, 39.709 17, 38.549 17 C 38.386 17, 35.046 23.154, 31.126 30.675 M 80 24.022 C 90.042 26.508, 92.007 26.720, 95.500 25.695 C 99.394 24.553, 99.157 24.478, 86.500 22.845 C 68.224 20.488, 66.779 20.750, 80 24.022 M 102.352 26.808 L 97.500 28.239 107 30.536 C 112.225 31.799, 116.576 32.757, 116.669 32.664 C 116.762 32.572, 117.143 31.279, 117.516 29.791 C 118.092 27.498, 117.838 27.013, 115.847 26.598 C 110.185 25.417, 106.893 25.469, 102.352 26.808 M 74.762 34.250 L 60.024 38.350 66.607 43.150 C 72.977 47.794, 73.373 47.934, 78.845 47.484 C 81.955 47.227, 91.588 46.741, 100.250 46.404 L 116 45.789 116.150 41.895 C 116.233 39.753, 116.345 37.469, 116.400 36.819 C 116.498 35.664, 95.671 30.062, 91.500 30.121 C 90.400 30.137, 82.868 31.995, 74.762 34.250 M 118.848 41.438 L 118.495 45.876 130.498 45.355 C 143.291 44.800, 145 44.548, 145 43.217 C 145 42.469, 123.286 36.990, 120.351 36.997 C 119.711 36.999, 119.045 38.969, 118.848 41.438 M 119.251 48.824 C 118.539 49.276, 117.355 54.514, 116.501 60.995 C 114.670 74.873, 114.641 77, 116.278 77 C 117.360 77, 137.902 53.344, 140.300 49.336 C 140.946 48.256, 139.129 48.003, 130.800 48.015 C 125.135 48.024, 119.938 48.388, 119.251 48.824 M 86.003 49.941 L 76.506 50.500 89.503 59.918 C 96.651 65.098, 102.910 69.694, 103.412 70.130 C 104.171 70.790, 86.702 79.749, 78.012 83.156 L 75.523 84.132 78.012 86.044 C 80.183 87.712, 82.269 87.958, 94.394 87.978 L 108.288 88 111.516 84.266 C 114.331 81.010, 114.545 80.388, 113.191 79.397 C 111.789 78.372, 111.803 76.914, 113.333 64.381 C 114.266 56.746, 115.022 50.163, 115.014 49.750 C 114.999 48.945, 101.423 49.034, 86.003 49.941 M 63 50.881 L 54.500 51.262 65.500 53.016 C 71.550 53.981, 76.638 54.646, 76.808 54.494 C 76.977 54.342, 75.852 53.382, 74.308 52.359 C 71.983 50.820, 70.039 50.565, 63 50.881 M 65.623 62.050 C 57.440 63.629, 50.615 65.052, 50.455 65.211 C 50.296 65.370, 55.314 69.263, 61.607 73.862 C 74.754 83.469, 71.631 83.348, 89.283 74.935 L 99.067 70.272 91.291 64.636 C 87.014 61.536, 82.837 59.040, 82.008 59.089 C 81.178 59.138, 73.805 60.470, 65.623 62.050 M 70 87 C 68.895 87.714, 69.553 87.969, 72.500 87.969 C 75.447 87.969, 76.105 87.714, 75 87 C 74.175 86.467, 73.050 86.031, 72.500 86.031 C 71.950 86.031, 70.825 86.467, 70 87 M 113.363 90.727 C 109.846 91.047, 108.609 91.836, 105.113 95.981 C 100.520 101.429, 100.295 102.170, 102.642 104.118 C 104.089 105.319, 104.976 104.716, 110.128 99.027 C 113.844 94.923, 116.317 92.924, 116.919 93.536 C 117.519 94.147, 115.466 97.163, 111.311 101.776 L 104.756 109.051 101.517 106.581 L 98.278 104.110 93.224 110.305 C 90.444 113.712, 88.244 116.564, 88.335 116.643 C 88.426 116.721, 95.244 115.696, 103.488 114.365 C 111.731 113.034, 118.991 112.070, 119.621 112.222 C 120.250 112.375, 113.402 120.375, 104.401 130 C 90.154 145.235, 85.875 150.978, 88.750 151.008 C 89.162 151.012, 99.523 147.573, 111.773 143.364 C 124.023 139.156, 134.308 135.975, 134.628 136.294 C 134.947 136.614, 135.525 144.542, 135.912 153.912 C 136.299 163.282, 136.833 171.166, 137.099 171.432 C 137.365 171.698, 143.343 164.911, 150.383 156.350 C 157.424 147.789, 162.805 140.426, 162.342 139.989 C 161.879 139.551, 154.649 137.271, 146.275 134.921 C 137.901 132.571, 130.524 130.324, 129.882 129.927 C 129.112 129.451, 133.713 122.666, 143.357 110.052 C 151.411 99.517, 158 90.696, 158 90.449 C 158 89.927, 119.503 90.167, 113.363 90.727 M 86.413 91.859 C 86.705 92.331, 89.431 94.431, 92.472 96.525 L 98 100.333 101.459 96.416 C 103.361 94.262, 104.935 92.162, 104.958 91.750 C 104.981 91.338, 100.698 91, 95.441 91 C 90.184 91, 86.121 91.386, 86.413 91.859 M 103.500 117.070 C 100.750 117.529, 95.476 118.415, 91.780 119.038 L 85.059 120.171 75.368 131.835 C 70.037 138.251, 65.055 144.232, 64.295 145.126 C 63.071 146.568, 63.628 147.265, 69.181 151.239 L 75.448 155.726 80.474 153.996 C 85.004 152.437, 85.470 151.999, 85.200 149.555 C 84.949 147.291, 86.930 144.668, 97.200 133.666 C 103.965 126.418, 110.357 119.478, 111.405 118.244 C 113.300 116.012, 113.298 116.001, 110.905 116.118 C 109.582 116.182, 106.250 116.611, 103.500 117.070 M 82.250 156.343 C 80.463 156.863, 79.010 157.562, 79.021 157.895 C 79.033 158.228, 80.833 159.767, 83.021 161.315 L 87 164.130 86.900 161.815 C 86.845 160.542, 86.508 158.577, 86.150 157.448 C 85.581 155.652, 85.095 155.514, 82.250 156.343" stroke="none" fill="black" fill-rule="evenodd"/>
</svg>