<svg xmlns="http://www.w3.org/2000/svg" width="200" height="200" viewBox="0 0 200 200" version="1.1">
	<path d="M 114 18.007 C 114 19.543, 110.973 39.361, 110.696 39.638 C 110.562 39.771, 97.051 38.424, 80.672 36.643 L 50.892 33.405 43.196 36.592 C 38.724 38.445, 35.365 40.454, 35.177 41.390 C 34.884 42.847, 38.446 43, 72.744 43 L 110.634 43 110.067 47.250 L 109.500 51.500 77.750 52.376 C 60.288 52.858, 46.025 53.533, 46.056 53.876 C 46.087 54.219, 50.256 63.500, 55.320 74.500 L 64.527 94.500 83.891 94.772 L 103.255 95.044 102.745 99.571 C 102.464 102.061, 101.952 104.382, 101.606 104.727 C 101.261 105.073, 96.452 104.287, 90.920 102.981 C 83.161 101.150, 80.687 100.888, 80.100 101.838 C 79.516 102.783, 73.661 102.038, 54.920 98.636 C 41.489 96.198, 28.587 93.892, 26.250 93.513 L 22 92.824 22 132.035 C 22 169.233, 22.090 171.175, 23.750 169.875 C 24.712 169.121, 30.450 164.188, 36.500 158.913 C 45.819 150.788, 50.011 146.015, 63.934 127.679 L 80.368 106.035 84.434 106.678 C 93.961 108.185, 94.833 106.158, 73.388 132.347 C 62.647 145.462, 54.141 156.474, 54.484 156.818 C 54.828 157.161, 67.806 158.420, 83.326 159.615 L 111.544 161.788 137.620 173.843 C 151.961 180.474, 164.268 186.034, 164.967 186.199 C 165.831 186.404, 169.860 174.827, 177.562 150 C 183.791 129.925, 188.902 112.825, 188.919 112 C 188.937 111.175, 183.635 106.900, 177.136 102.500 C 168.214 96.460, 165.431 94.071, 165.776 92.750 C 166.135 91.375, 165.600 91, 163.273 91 C 161.335 91, 157.757 89.222, 152.907 85.849 C 148.833 83.016, 145.413 80.642, 145.308 80.573 C 145.202 80.505, 147.088 72.597, 149.500 63 C 151.912 53.403, 153.658 45.325, 153.381 45.048 C 153.104 44.771, 150.542 44.260, 147.689 43.913 C 144.835 43.566, 152.063 43.218, 163.750 43.141 C 181.910 43.020, 185 42.782, 185 41.500 C 185 40.195, 180.375 40, 149.372 40 L 113.744 40 114.339 36.250 C 114.666 34.188, 115.237 29.900, 115.608 26.722 C 115.979 23.544, 116.651 20.716, 117.102 20.437 C 117.553 20.158, 130.826 22.449, 146.598 25.528 C 166.269 29.367, 175.598 30.802, 176.305 30.095 C 177.730 28.670, 178.223 28.793, 146.109 22.534 C 116.208 16.706, 114 16.394, 114 18.007 M 47 38.029 L 42.500 39.888 62 39.822 L 81.500 39.756 70.500 38.452 C 64.450 37.734, 57.700 36.927, 55.500 36.658 C 52.898 36.340, 49.927 36.820, 47 38.029 M 113 45.918 C 113 47.523, 112.727 49.548, 112.393 50.418 C 111.872 51.776, 112.875 52, 119.476 52 C 129.135 52, 129.067 53.422, 119.238 56.979 C 115.316 58.398, 111.883 59.783, 111.609 60.058 C 110.889 60.777, 108.836 74.169, 109.364 74.697 C 109.607 74.940, 115.196 74.600, 121.784 73.940 L 133.763 72.741 138.265 75.838 L 142.767 78.936 146.764 62.968 C 149.319 52.761, 150.353 46.995, 149.631 46.988 C 149.009 46.981, 140.639 46.081, 131.030 44.988 C 121.422 43.894, 113.435 43, 113.280 43 C 113.126 43, 113 44.313, 113 45.918 M 113.750 54.689 C 112.787 54.941, 112 55.579, 112 56.109 C 112 56.662, 112.954 56.574, 114.250 55.900 C 118 53.949, 117.862 53.615, 113.750 54.689 M 58.401 55.936 L 50.301 56.500 58.329 74.250 L 66.357 92 85.084 92 L 103.812 92 104.478 86.750 C 104.845 83.862, 105.334 80.817, 105.566 79.982 C 105.909 78.746, 102.838 77.921, 88.994 75.528 C 79.647 73.913, 72.003 72.346, 72.006 72.046 C 72.009 71.746, 76.847 69.739, 82.756 67.587 C 105.450 59.323, 109 57.811, 109 56.412 C 109 55.234, 105.475 55.031, 87.750 55.186 C 76.063 55.289, 62.855 55.626, 58.401 55.936 M 96 65.608 C 89.675 68.014, 83.825 70.270, 83 70.623 C 82.175 70.975, 86.900 72.278, 93.500 73.517 C 100.100 74.756, 105.634 75.650, 105.798 75.504 C 106.281 75.072, 108.212 61.875, 107.840 61.541 C 107.653 61.372, 102.325 63.202, 96 65.608 M 117.058 77.122 C 112.965 77.596, 109.292 78.325, 108.895 78.742 C 108.499 79.159, 107.857 82.549, 107.468 86.275 L 106.762 93.051 123.069 92.775 L 139.377 92.500 140.736 87.131 C 141.484 84.178, 141.962 81.685, 141.798 81.591 C 141.634 81.496, 139.843 80.200, 137.817 78.710 C 133.767 75.730, 130.935 75.514, 117.058 77.122 M 142.735 90 C 141.903 93.300, 141.511 95.981, 141.862 95.958 C 142.213 95.935, 145.836 95.112, 149.913 94.130 L 157.326 92.343 151.500 88.172 C 148.296 85.877, 145.353 84, 144.960 84 C 144.567 84, 143.566 86.700, 142.735 90 M 105.595 99.134 C 105.231 101.407, 105.093 103.426, 105.287 103.620 C 105.481 103.814, 113.258 102.292, 122.570 100.237 L 139.500 96.500 130.500 95.856 C 125.550 95.502, 118.070 95.164, 113.878 95.106 L 106.256 95 105.595 99.134 M 25 130.485 L 25 165.186 30.190 160.843 C 42.315 150.697, 46.913 145.643, 61.641 126.268 C 70.182 115.031, 77.020 105.712, 76.835 105.560 C 76.651 105.408, 65.925 103.390, 53 101.077 C 40.075 98.763, 28.488 96.625, 27.250 96.327 L 25 95.783 25 130.485 M 129.500 101.471 C 103.800 107.334, 104.606 106.445, 121.263 110.573 L 128.025 112.249 139.763 105.479 C 153.901 97.324, 155.969 95.960, 153.973 96.112 C 153.163 96.173, 142.150 98.584, 129.500 101.471 M 147.254 104.250 C 139.426 108.787, 133.016 112.745, 133.010 113.044 C 133.005 113.343, 138.175 114.850, 144.500 116.393 C 150.825 117.935, 156.007 119.491, 156.017 119.849 C 156.049 121.136, 142.727 151, 142.120 150.998 C 141.779 150.997, 134.768 145.165, 126.539 138.037 L 111.578 125.079 106.539 127.981 C 102.413 130.357, 101.409 131.482, 101 134.191 C 100.527 137.323, 100.152 137.590, 94 139.182 C 80.530 142.667, 79.300 140.612, 90.897 134 C 98.554 129.634, 98.807 129.369, 99.395 125.110 C 100.441 117.523, 100.115 115.456, 97.479 112.981 C 95.291 110.924, 94.776 110.803, 93.567 112.056 C 90.305 115.438, 59.015 154.349, 59.316 154.649 C 59.497 154.831, 71.434 155.891, 85.843 157.007 L 112.039 159.034 138.152 171.051 C 152.515 177.660, 164.361 182.940, 164.478 182.784 C 164.595 182.628, 169.511 166.792, 175.403 147.593 C 184.167 119.036, 185.877 112.461, 184.808 111.445 C 182.614 109.362, 163.123 96, 162.279 96 C 161.844 96, 155.083 99.713, 147.254 104.250 M 98 108.878 C 98 109.360, 98.675 110.315, 99.500 111 C 100.753 112.040, 101 111.896, 101 110.122 C 101 108.902, 100.362 108, 99.500 108 C 98.675 108, 98 108.395, 98 108.878 M 104 111.910 C 104 114.689, 109.425 121, 111.813 121 C 113.157 121, 124.269 114.935, 123.794 114.461 C 123.631 114.298, 119.110 113.050, 113.749 111.689 L 104 109.213 104 111.910 M 121.166 119.470 L 114.046 123.604 127.504 135.302 C 134.906 141.736, 141.143 147, 141.365 147 C 141.586 147, 141.993 146.213, 142.270 145.250 C 142.547 144.287, 145.015 138.521, 147.754 132.436 L 152.736 121.372 140.511 118.353 L 128.285 115.335 121.166 119.470 M 102.489 122.065 C 102.111 124.303, 102.010 126.343, 102.265 126.599 C 102.791 127.125, 109.014 123.769, 108.938 123 C 108.911 122.725, 107.604 121.486, 106.033 120.247 L 103.177 117.994 102.489 122.065 M 95.559 134.532 C 93.662 135.967, 93.668 136, 95.809 136 C 97.090 136, 98 135.377, 98 134.500 C 98 132.690, 97.993 132.691, 95.559 134.532" stroke="none" fill="black" fill-rule="evenodd"/>
</svg>