<svg xmlns="http://www.w3.org/2000/svg" width="200" height="200" viewBox="0 0 200 200" version="1.1">
	<path d="M 52 20.350 C 52 21.815, 58.555 22.370, 90.750 23.630 C 100.237 24.002, 108 24.511, 108 24.761 C 108 25.012, 105.888 28.093, 103.307 31.609 L 98.614 38 58.807 38 C 24.090 38, 19 38.192, 19 39.500 C 19 40.521, 20.037 41.007, 22.250 41.022 C 24.038 41.034, 38.550 41.701, 54.500 42.504 C 70.450 43.308, 83.838 43.973, 84.250 43.983 C 84.662 43.992, 85 43.325, 85 42.500 C 85 41.347, 86.284 41, 90.558 41 L 96.116 41 88.443 51.010 C 84.076 56.707, 79.851 61.225, 78.635 61.497 C 77.461 61.760, 65.925 63.820, 53 66.075 C 40.075 68.330, 29.433 70.248, 29.351 70.338 C 29.039 70.679, 20 119.266, 20 120.603 C 20 122.387, 41.010 154, 42.196 154 C 42.680 154, 52.333 145.675, 63.647 135.500 C 74.961 125.325, 84.561 117, 84.980 117 C 85.399 117, 87.405 120.734, 89.439 125.298 L 93.136 133.596 75.515 163.945 C 63.219 185.123, 58.211 194.611, 58.943 195.343 C 59.676 196.076, 60.371 195.901, 61.246 194.767 C 64.358 190.733, 121.510 126.177, 121.754 126.420 C 121.905 126.571, 120.945 133.401, 119.621 141.597 C 118.298 149.794, 117.357 156.653, 117.531 156.841 C 118.379 157.752, 183.294 182.039, 183.727 181.606 C 184.336 180.997, 179.171 119.837, 178.449 119.116 C 178.168 118.834, 173.114 119.546, 167.219 120.698 C 161.323 121.850, 156.351 122.653, 156.170 122.483 C 155.860 122.192, 163.869 115.606, 168.332 112.480 C 170.033 111.288, 171.404 105.441, 177.152 74.847 C 180.895 54.924, 183.854 38.533, 183.729 38.421 C 182.864 37.654, 124.819 21.847, 124.402 22.265 C 124.112 22.555, 125.904 29.462, 128.385 37.615 C 130.865 45.768, 132.806 52.513, 132.697 52.603 C 132.589 52.694, 128.717 54.660, 124.092 56.974 L 115.685 61.181 116.344 49.632 L 117.004 38.084 109.548 37.792 L 102.091 37.500 108.119 29.750 C 112.781 23.755, 113.733 21.995, 112.323 21.978 C 111.320 21.965, 97.900 21.302, 82.500 20.504 C 67.100 19.706, 53.938 19.042, 53.250 19.027 C 52.563 19.012, 52 19.607, 52 20.350 M 128.366 27.750 C 130.313 34.548, 135.267 50.557, 135.502 50.812 C 135.661 50.983, 140.315 48.853, 145.846 46.077 C 159.424 39.263, 159.944 40.894, 147.780 52.146 L 138.242 60.970 146.766 89.235 C 151.455 104.781, 155.442 117.679, 155.627 117.899 C 155.812 118.118, 157.659 117.095, 159.732 115.627 C 168.294 109.558, 167.349 112.157, 174.005 76.386 C 177.370 58.299, 180.326 42.793, 180.572 41.930 C 180.937 40.654, 176.204 39.013, 155.260 33.156 C 141.092 29.194, 129.132 25.963, 128.683 25.976 C 128.233 25.989, 128.091 26.788, 128.366 27.750 M 90.766 52.406 L 82.045 63.812 75.272 64.956 C 71.548 65.585, 60.188 67.555, 50.029 69.333 L 31.558 72.566 27.320 95.033 C 24.989 107.390, 23.064 118.400, 23.042 119.500 C 23.020 120.600, 27.395 128.092, 32.764 136.148 L 42.525 150.796 60.811 134.398 C 70.869 125.379, 78.513 118, 77.799 118 C 77.085 118, 66.841 119.369, 55.035 121.042 C 43.229 122.714, 32.781 123.952, 31.816 123.791 C 30.515 123.575, 35.074 117.490, 49.483 100.209 C 60.164 87.400, 69.262 77.029, 69.701 77.164 C 70.375 77.371, 87.664 114.130, 94.156 129.161 L 96.170 133.822 82.154 157.911 C 74.446 171.160, 68.294 182, 68.483 182 C 68.672 182, 81.510 167.570, 97.013 149.933 C 112.515 132.296, 125.393 118.059, 125.630 118.297 C 125.867 118.534, 124.957 125.652, 123.607 134.114 C 122.257 142.576, 121.005 150.799, 120.826 152.387 C 120.502 155.254, 120.618 155.320, 137 161.600 C 146.075 165.078, 153.756 167.941, 154.069 167.962 C 154.383 167.983, 152.033 149.887, 148.849 127.750 C 145.664 105.612, 143.045 86.958, 143.029 86.295 C 142.962 83.517, 136.242 83.866, 121.332 87.421 C 105.513 91.193, 103.427 91.500, 102.613 90.184 C 102.336 89.735, 108.509 83.683, 116.331 76.736 C 134.417 60.673, 135.067 59.971, 134.360 57.267 C 133.806 55.150, 133.506 55.230, 123.913 60.044 C 118.481 62.770, 113.734 65, 113.364 65 C 112.995 65, 112.983 59.600, 113.338 53 L 113.983 41 106.735 41 L 99.486 41 90.766 52.406 M 140.837 51.521 C 137.092 53.472, 136.279 54.351, 136.708 55.991 C 137.197 57.861, 137.629 57.682, 141.871 53.846 C 144.417 51.543, 146.688 49.511, 146.917 49.330 C 148.377 48.175, 144.759 49.479, 140.837 51.521 M 122.231 75.087 C 114.932 81.639, 109.610 87, 110.404 87 C 111.197 87, 117.551 85.612, 124.523 83.917 C 131.495 82.221, 138.233 81.093, 139.495 81.409 L 141.790 81.985 139.119 73.050 C 137.649 68.135, 136.234 63.903, 135.974 63.644 C 135.713 63.386, 129.529 68.535, 122.231 75.087 M 52.144 101.230 C 43.335 111.807, 36.211 120.544, 36.313 120.646 C 36.687 121.018, 82.978 114.355, 83.475 113.858 C 84.147 113.187, 69.891 82, 68.913 82 C 68.500 82, 60.953 90.654, 52.144 101.230 M 149.669 113.500 C 150.328 120.377, 151.487 123.481, 152.458 120.964 C 152.783 120.120, 152.160 116.745, 151.072 113.464 L 149.094 107.500 149.669 113.500 M 164.500 123.864 C 157.250 125.388, 156.476 125.778, 156.242 128.023 C 156.100 129.385, 156.325 139.257, 156.742 149.959 L 157.500 169.418 168.902 173.724 C 175.173 176.091, 180.469 177.865, 180.669 177.664 C 180.870 177.464, 180.013 164.970, 178.766 149.900 C 176.154 118.354, 177.658 121.098, 164.500 123.864 M 152.252 129.500 C 152.263 131.700, 152.468 132.482, 152.707 131.238 C 152.946 129.994, 152.937 128.194, 152.687 127.238 C 152.437 126.282, 152.241 127.300, 152.252 129.500 M 153.079 137.583 C 153.127 138.748, 153.364 138.985, 153.683 138.188 C 153.972 137.466, 153.936 136.603, 153.604 136.271 C 153.272 135.939, 153.036 136.529, 153.079 137.583" stroke="none" fill="black" fill-rule="evenodd"/>
</svg>