<svg xmlns="http://www.w3.org/2000/svg" width="200" height="200" viewBox="0 0 200 200" version="1.1">
	<path d="M 101.496 17.250 C 101.169 19.038, 100.349 24.100, 99.675 28.500 C 98.729 34.669, 98.100 36.444, 96.929 36.253 C 96.094 36.118, 83.554 32.395, 69.061 27.981 C 54.569 23.567, 42.608 20.078, 42.482 20.228 C 42.355 20.377, 41.732 35.125, 41.097 53 C 40.462 70.875, 39.716 87.325, 39.439 89.555 C 38.968 93.350, 39.480 94.386, 47.468 105.781 C 52.161 112.476, 56 118.423, 56 118.996 C 56 119.969, 47.304 137.926, 46.325 138.977 C 46.080 139.239, 44.383 137.670, 42.553 135.490 L 39.226 131.527 37.175 138.513 C 33.541 150.896, 25 181.631, 25 182.326 C 25 182.697, 25.572 183, 26.271 183 C 26.970 183, 31.798 174.450, 37 164 C 42.202 153.550, 46.692 145.029, 46.979 145.064 C 47.266 145.099, 54.230 153.041, 62.455 162.713 C 76.184 178.857, 77.465 180.093, 78.080 177.792 C 78.449 176.413, 79.798 168.471, 81.077 160.142 C 82.356 151.814, 83.776 145, 84.231 145 C 84.686 145, 89.474 147.866, 94.872 151.368 L 104.685 157.736 108.835 149.368 C 112.531 141.916, 113.287 140.999, 115.743 140.986 C 122.421 140.953, 123.004 140.334, 122.340 133.979 L 121.734 128.177 127.117 127.627 C 137.921 126.524, 148 125.928, 148 126.393 C 148 126.656, 141.493 137.700, 133.539 150.935 C 125.585 164.171, 119.398 174.987, 119.789 174.972 C 123.320 174.831, 172.190 167.143, 172.683 166.650 C 173.405 165.929, 171.157 111.823, 170.372 111.039 C 170.099 110.766, 158.927 112.135, 145.547 114.081 L 121.218 117.620 120.719 112.560 C 120.444 109.777, 120.295 107.412, 120.388 107.305 C 120.481 107.198, 134.396 106.790, 151.310 106.399 C 172.685 105.905, 181.952 105.357, 181.701 104.603 C 181.263 103.289, 164.148 101.352, 138.500 99.714 L 119.500 98.500 119.198 93.250 C 119.016 90.089, 119.309 88, 119.935 88 C 121.010 88, 164.461 55.680, 165.376 54.201 C 165.659 53.743, 156.128 49.608, 144.195 45.013 C 132.263 40.417, 121.317 36.076, 119.871 35.366 C 118.425 34.655, 113.995 29.557, 110.027 24.037 C 106.058 18.517, 102.649 14, 102.451 14 C 102.253 14, 101.823 15.462, 101.496 17.250 M 103.728 21.683 C 103.468 22.133, 102.955 24.750, 102.590 27.500 C 102.224 30.250, 101.699 33.655, 101.423 35.067 C 100.929 37.595, 101.187 37.715, 118.461 42.960 C 139.749 49.424, 140.584 50.467, 126.500 52.992 C 119.530 54.242, 119.456 54.289, 109 64.240 L 98.500 74.234 107.500 68.091 L 116.500 61.949 117.141 67.724 C 117.494 70.901, 117.832 76.088, 117.891 79.250 C 117.968 83.289, 118.393 85, 119.319 85 C 120.246 85, 157.657 57.527, 160.740 54.582 C 160.872 54.456, 151.018 50.561, 138.841 45.927 L 116.702 37.500 110.746 29.500 C 103.614 19.920, 104.304 20.688, 103.728 21.683 M 44.978 25.250 C 44.966 25.938, 44.311 41.556, 43.524 59.958 L 42.092 93.417 53.677 109.958 C 60.049 119.056, 65.775 127.056, 66.403 127.736 C 67.227 128.629, 69.811 128.798, 75.699 128.344 C 82.276 127.836, 83.850 127.404, 83.832 126.107 C 83.820 125.223, 84.529 120.450, 85.407 115.500 C 86.285 110.550, 87.208 105.306, 87.457 103.846 L 87.912 101.192 76.456 100.476 C 68.675 99.990, 65 99.379, 65 98.572 C 65 97.878, 70.103 96.157, 77.246 94.441 L 89.493 91.500 90.089 87.750 C 90.770 83.464, 90.278 83.207, 86.727 86 C 85.329 87.100, 83.693 88, 83.092 88 C 80.776 88, 82.198 85.477, 86.995 81.079 C 91.915 76.568, 92.009 76.369, 93.323 67.737 C 94.527 59.831, 94.503 59.017, 93.079 59.412 C 92.210 59.653, 89.925 60.143, 88 60.500 C 86.075 60.857, 83.713 61.371, 82.750 61.642 C 81.640 61.955, 81 61.584, 81 60.629 C 81 59.641, 83.482 58.330, 88.230 56.812 L 95.461 54.500 96.631 47.500 C 97.275 43.650, 97.509 40.200, 97.151 39.833 C 96.525 39.192, 47.170 24, 45.712 24 C 45.321 24, 44.990 24.563, 44.978 25.250 M 100 42.360 C 100 43.109, 99.705 45.875, 99.344 48.508 L 98.688 53.295 101.594 52.584 C 103.192 52.192, 108.278 50.702, 112.895 49.273 L 121.291 46.674 111.895 43.850 C 101.166 40.626, 100 40.480, 100 42.360 M 125.064 49.422 C 124.212 50.450, 124.514 50.624, 126.491 50.246 C 129.375 49.695, 129.558 49.428, 127.573 48.666 C 126.788 48.365, 125.659 48.705, 125.064 49.422 M 116.500 51 C 114.870 51.701, 114.812 51.872, 116.191 51.930 C 117.121 51.968, 118.160 51.550, 118.500 51 C 119.211 49.850, 119.176 49.850, 116.500 51 M 103.020 57.380 L 97.540 58.536 96.380 65.518 C 95.743 69.358, 95.303 72.594, 95.402 72.708 C 95.502 72.823, 99.615 69.133, 104.542 64.507 C 114.360 55.291, 114.298 55.002, 103.020 57.380 M 104.652 73.519 C 93.558 81.389, 94.184 80.691, 93.123 86.371 C 92.267 90.954, 92.320 91.137, 94.364 90.637 C 95.539 90.350, 100.848 89.123, 106.162 87.910 L 115.823 85.705 115.267 78.102 C 114.394 66.184, 114.765 66.345, 104.652 73.519 M 102.608 91.531 C 93.843 93.578, 91.068 94.923, 91.015 97.149 C 90.998 97.893, 115.848 99.486, 116.547 98.786 C 116.800 98.534, 116.719 96.228, 116.367 93.663 C 115.622 88.225, 116.308 88.332, 102.608 91.531 M 81.500 96.506 L 76.500 97.821 82.421 97.660 C 86.148 97.559, 88.495 97.037, 88.754 96.250 C 89.251 94.744, 88.042 94.787, 81.500 96.506 M 90.547 102.250 C 90.332 102.938, 89.893 105.300, 89.572 107.500 L 88.989 111.500 91.018 107.750 L 93.048 104 105.024 104 C 111.611 104, 117 103.611, 117 103.136 C 117 100.916, 91.233 100.054, 90.547 102.250 M 120 103 C 120 103.632, 126.156 103.948, 136.750 103.859 C 149.039 103.756, 152.035 103.516, 148 102.958 C 139.638 101.802, 120 101.832, 120 103 M 91.235 114.220 C 88.871 119.825, 88.482 121.573, 89.542 121.815 C 90.882 122.123, 111.202 119.409, 115.798 118.309 C 117.878 117.811, 118.068 117.272, 117.798 112.630 L 117.500 107.500 105.902 107.220 L 94.305 106.939 91.235 114.220 M 143 117.122 C 122.289 120.224, 120.991 120.495, 121.015 121.719 C 121.078 124.915, 122.613 125.126, 137.425 123.972 C 145.528 123.341, 152.363 123.029, 152.613 123.280 C 152.864 123.530, 146.754 134.257, 139.036 147.118 C 131.318 159.978, 125.442 170.647, 125.979 170.826 C 126.954 171.151, 168.997 165.119, 169.980 164.513 C 170.359 164.279, 168.693 120.710, 168.077 114.750 C 167.958 113.598, 164.100 113.963, 143 117.122 M 100.750 123.337 C 93.188 124.485, 87 125.840, 87 126.347 C 87 127.269, 112.255 126.399, 116.750 125.322 C 118.100 124.999, 119 124.027, 119 122.892 C 119 120.592, 118.797 120.597, 100.750 123.337 M 53.032 131.937 L 48.045 141.874 61.772 157.924 C 77.574 176.399, 75.769 176.600, 79.014 156.003 L 81.141 142.506 79.070 141.131 C 76.211 139.232, 76.461 137.648, 79.500 138.411 C 81.459 138.902, 82.003 138.655, 82.014 137.269 C 82.021 136.296, 82.316 134.420, 82.670 133.099 L 83.312 130.699 74.578 131.243 L 65.845 131.788 62.329 126.894 C 60.395 124.202, 58.634 122, 58.415 122 C 58.197 122, 55.774 126.472, 53.032 131.937 M 113 128.560 C 112.175 128.740, 105.775 129.183, 98.777 129.543 L 86.053 130.198 85.439 133.849 C 85.102 135.857, 84.611 138.282, 84.349 139.237 C 83.991 140.546, 86.292 142.553, 93.687 147.380 L 103.500 153.785 107.472 145.893 L 111.444 138 115.853 138 L 120.262 138 119.642 134.250 C 119.301 132.188, 119.017 129.938, 119.011 129.250 C 119.001 128.084, 116.494 127.796, 113 128.560 M 36.274 151.717 C 34.020 159.847, 32.267 166.593, 32.378 166.707 C 32.489 166.820, 35.322 161.408, 38.674 154.680 L 44.768 142.446 42.570 139.690 L 40.372 136.933 36.274 151.717" stroke="none" fill="black" fill-rule="evenodd"/>
</svg>