<svg xmlns="http://www.w3.org/2000/svg" width="200" height="200" viewBox="0 0 200 200" version="1.1">
	<path d="M 143.993 35.017 L 131.553 65 124.776 65 C 121.049 65, 118 64.701, 118 64.336 C 118 63.971, 120.475 58.997, 123.500 53.281 C 129.317 42.290, 129.938 40.426, 127.467 41.374 C 126.624 41.698, 120.099 41.444, 112.967 40.809 C 103.433 39.961, 100 39.304, 100 38.328 C 100 36.724, 99.471 36.677, 96.894 38.057 C 94.207 39.495, 80.983 38.207, 81.612 36.569 C 81.863 35.915, 92.290 32.744, 104.784 29.522 C 117.278 26.300, 128.963 23.268, 130.750 22.785 C 132.537 22.301, 134 21.252, 134 20.453 C 134 19.482, 132.922 18.998, 130.750 18.993 C 128.963 18.990, 103.918 18.309, 75.096 17.481 C 46.274 16.653, 22.532 16.134, 22.338 16.329 C 22.143 16.523, 23.281 20.916, 24.867 26.091 L 27.749 35.500 39.125 36.623 C 45.381 37.240, 56.496 38.312, 63.825 39.005 L 77.151 40.264 76.501 42.882 C 75.175 48.229, 73.352 50.411, 67.500 53.652 C 64.200 55.480, 61.120 56.982, 60.656 56.988 C 60.192 56.995, 60.129 54.696, 60.517 51.880 C 61.551 44.361, 58.839 45.869, 57.516 53.548 L 56.500 59.440 40.500 68.179 C 31.700 72.986, 24.151 76.937, 23.725 76.959 C 23.299 76.982, 22.554 75.988, 22.070 74.750 C 18.322 65.165, 12.810 54.790, 11.933 55.667 C 10.888 56.712, 11.436 58.208, 18.411 73.330 L 22.023 81.160 31.446 76.080 C 36.629 73.286, 41.040 71, 41.248 71 C 41.456 71, 36.989 92.712, 31.321 119.250 C 25.653 145.788, 21.125 168.124, 21.258 168.886 C 21.391 169.648, 26.931 164.454, 33.569 157.343 L 45.639 144.414 46.756 137.457 C 47.371 133.631, 49.991 117.377, 52.579 101.337 L 57.285 72.174 62.154 71.837 C 65.112 71.632, 66.880 71.892, 66.659 72.500 C 66.458 73.050, 64.834 77.908, 63.049 83.296 L 59.804 93.092 63.445 117.796 C 65.448 131.383, 67.262 143.021, 67.476 143.658 C 67.744 144.452, 71.264 143.747, 78.683 141.414 C 84.632 139.543, 89.829 138.122, 90.231 138.256 C 90.633 138.390, 86.226 145.433, 80.437 153.906 C 73.631 163.869, 70.255 169.655, 70.883 170.283 C 71.511 170.911, 76.498 167.088, 84.998 159.464 C 95.689 149.874, 98.971 146.257, 102.581 140.087 L 107.020 132.500 125.154 126.851 L 143.288 121.203 142.649 130.851 C 142.298 136.158, 142.008 142.917, 142.005 145.872 C 142 151.244, 141.999 151.245, 133.849 159.595 C 127.965 165.623, 126.109 168.105, 127.178 168.515 C 127.992 168.827, 142.348 163.693, 159.079 157.106 C 175.811 150.519, 190.835 144.625, 192.468 144.007 C 195.337 142.921, 194.426 142.369, 164.968 127.327 C 148.210 118.771, 134.172 111.472, 133.772 111.107 C 133.371 110.742, 145.192 106.413, 160.039 101.487 C 176.891 95.896, 186.871 92.105, 186.599 91.398 C 186.360 90.775, 179.757 71.419, 171.924 48.383 C 164.092 25.347, 157.403 6.170, 157.059 5.767 C 156.715 5.363, 150.835 18.526, 143.993 35.017 M 155.716 14.207 C 155.423 14.918, 150.418 26.914, 144.592 40.865 C 138.766 54.816, 134 66.732, 134 67.346 C 134 67.960, 138.120 72.600, 143.156 77.657 L 152.312 86.851 148.906 87.435 C 147.033 87.756, 141.257 88.681, 136.071 89.490 C 130.885 90.299, 126.385 91.329, 126.071 91.778 C 125.757 92.228, 124.094 94.599, 122.376 97.048 C 119.531 101.103, 107.755 128.063, 108.497 128.823 C 108.920 129.256, 141 119.037, 141 118.469 C 141 118.224, 137.553 116.290, 133.340 114.170 C 129.127 112.050, 126.089 110.080, 126.590 109.793 C 127.090 109.505, 139.988 105.122, 155.250 100.052 C 170.512 94.982, 183 90.513, 183 90.121 C 183 89.160, 157.145 13.812, 156.643 13.310 C 156.425 13.092, 156.008 13.496, 155.716 14.207 M 26 19.443 C 26 20.962, 29.245 31.526, 29.945 32.284 C 30.677 33.078, 68.342 36.998, 75.250 36.999 C 77.877 37, 79 36.561, 79 35.535 C 79 33.381, 80.647 32.794, 101.750 27.433 C 112.338 24.744, 121 22.266, 121 21.927 C 121 21.588, 107.162 21.009, 90.250 20.641 C 73.338 20.273, 51.963 19.684, 42.750 19.333 C 33.537 18.982, 26 19.031, 26 19.443 M 79.093 44.162 C 78.487 45.901, 78.109 47.443, 78.254 47.587 C 78.398 47.732, 81.213 46.314, 84.508 44.438 L 90.500 41.025 85.348 41.013 C 80.459 41.001, 80.139 41.162, 79.093 44.162 M 85.522 46.993 L 76.544 51.910 73.841 59.955 L 71.138 68 77.819 67.912 C 81.493 67.864, 86.750 67.527, 89.500 67.162 L 94.500 66.500 95.500 54.250 C 96.167 46.083, 96.167 42.013, 95.500 42.038 C 94.950 42.059, 90.460 44.289, 85.522 46.993 M 98.281 54.179 C 97.723 60.955, 97.321 66.577, 97.389 66.672 C 97.456 66.767, 101.250 66.588, 105.820 66.275 L 114.130 65.705 119.096 55.808 C 121.828 50.365, 123.831 45.535, 123.547 45.075 C 123.263 44.616, 118.636 43.926, 113.265 43.541 C 107.894 43.157, 102.554 42.621, 101.398 42.350 C 99.388 41.879, 99.251 42.400, 98.281 54.179 M 66.126 57.480 C 62.620 59.370, 59.622 61.047, 59.465 61.208 C 59.307 61.368, 58.863 63.188, 58.478 65.250 L 57.777 69 62.798 69 L 67.819 69 70.341 61.500 C 71.728 57.375, 72.781 54.010, 72.681 54.023 C 72.582 54.035, 69.632 55.591, 66.126 57.480 M 50.075 66.045 C 42.877 69.988, 42.873 70, 48.858 70 C 53.555 70, 54.146 69.747, 55.058 67.349 C 56.670 63.107, 55.837 62.889, 50.075 66.045 M 104.435 91.131 C 96.070 107.847, 92.558 113.958, 91.769 113.169 C 90.980 112.380, 91.154 106.352, 92.397 91.431 C 93.343 80.075, 93.895 70.561, 93.623 70.289 C 93.351 70.017, 87.937 70.119, 81.593 70.515 L 70.057 71.236 66.381 82.407 L 62.704 93.578 66.171 117.039 C 70.196 144.281, 68.068 141.953, 84.254 136.822 L 94.159 133.682 105.329 117.328 C 114.633 103.706, 117.616 98.343, 123.181 85.236 C 126.855 76.581, 129.892 69.162, 129.931 68.750 C 129.969 68.338, 126.852 68, 123.004 68 L 116.008 68 104.435 91.131 M 97.514 69.977 C 97.006 70.799, 93.942 101.470, 94.065 104.500 C 94.108 105.546, 111.855 71.058, 111.947 69.750 C 112.026 68.627, 98.214 68.845, 97.514 69.977 M 130.492 74.602 C 125.134 87.192, 124.909 88.001, 126.765 87.980 C 129.410 87.950, 145.007 85.326, 145.505 84.828 C 145.746 84.587, 142.840 81.311, 139.047 77.547 L 132.151 70.703 130.492 74.602 M 47.250 72.723 C 45.462 72.945, 43.991 73.211, 43.979 73.313 C 43.967 73.416, 39.733 93.300, 34.569 117.500 C 29.405 141.700, 25.282 161.605, 25.406 161.733 C 25.530 161.861, 29.534 157.738, 34.304 152.572 L 42.976 143.178 48.488 109.165 C 51.520 90.457, 54 74.442, 54 73.576 C 54 72.001, 53.538 71.943, 47.250 72.723 M 104.619 123.178 C 101.541 127.676, 99.178 131.511, 99.367 131.700 C 99.555 131.889, 100.757 131.656, 102.037 131.182 C 103.690 130.570, 105.298 128.101, 107.587 122.660 C 109.359 118.447, 110.675 115, 110.511 115 C 110.348 115, 107.696 118.680, 104.619 123.178 M 145.985 122.667 C 145.977 123.675, 145.526 131.012, 144.982 138.971 L 143.994 153.443 138.747 158.779 C 134.726 162.868, 134.084 163.895, 136 163.173 C 144.980 159.789, 185.764 143.631, 186.944 142.989 C 187.933 142.451, 181.952 138.949, 167.944 131.864 C 156.700 126.177, 147.162 121.369, 146.750 121.179 C 146.338 120.989, 145.993 121.658, 145.985 122.667 M 98.418 135.420 C 96.229 136.373, 92.911 140.349, 86.974 149.131 L 78.613 161.500 86.556 154.363 C 96.001 145.877, 96.856 144.911, 100.373 138.750 C 103.291 133.638, 103.132 133.368, 98.418 135.420" stroke="none" fill="black" fill-rule="evenodd"/>
</svg>