<svg xmlns="http://www.w3.org/2000/svg" width="200" height="200" viewBox="0 0 200 200" version="1.1">
	<path d="M 105.566 29.736 L 101.868 44.586 96.043 47.160 L 90.219 49.735 89.620 46.117 C 89.291 44.128, 89.017 37.888, 89.011 32.250 C 89.005 26.612, 88.716 22, 88.368 22 C 85.963 22, 28 42.544, 28 43.396 C 28 43.987, 33.441 49.926, 40.092 56.592 L 52.184 68.713 44.062 75.107 C 37.816 80.023, 36.039 81.962, 36.371 83.500 C 36.608 84.600, 38.729 101.925, 41.085 122 C 43.440 142.075, 45.455 158.633, 45.562 158.795 C 45.775 159.118, 69.504 155.219, 72.142 154.427 C 73.582 153.994, 73.474 155.170, 71.259 164.001 C 69.871 169.538, 68.907 174.230, 69.117 174.428 C 69.498 174.785, 99.228 170.012, 99.800 169.502 C 99.964 169.355, 98.975 165.244, 97.601 160.367 C 96.227 155.490, 95.417 151.221, 95.802 150.879 C 96.746 150.039, 138.020 143.148, 137.583 143.903 C 129.996 157.020, 121 173.337, 121 173.983 C 121 174.818, 177.770 156.401, 179.232 155.091 C 179.877 154.513, 167.892 121.558, 166.547 120.214 C 166.258 119.925, 158.704 120.219, 149.761 120.867 C 118.815 123.111, 118.460 123.108, 132.982 120.718 L 146.465 118.500 160.693 95.591 C 168.519 82.992, 174.704 72.329, 174.436 71.897 C 174.169 71.465, 169.912 68.780, 164.975 65.931 C 160.039 63.082, 156 60.598, 156 60.411 C 156 60.224, 158.475 55.989, 161.500 51 C 164.525 46.011, 167 41.559, 167 41.107 C 167 40.507, 121.269 19.691, 110.382 15.334 C 109.675 15.052, 107.902 20.354, 105.566 29.736 M 108.243 30.695 C 106.534 37.171, 105.219 42.552, 105.320 42.654 C 105.422 42.755, 108.837 41.295, 112.909 39.409 C 116.981 37.523, 120.480 36.147, 120.684 36.351 C 121.113 36.779, 118.955 88.335, 118.488 88.828 C 118.317 89.009, 113.660 85.049, 108.140 80.030 L 98.103 70.903 96.966 75.201 C 96.340 77.566, 95.004 82.506, 93.997 86.179 L 92.167 92.859 98.833 93.540 C 110.907 94.773, 113.503 95.610, 121.837 100.956 C 126.374 103.866, 129.935 106.399, 129.750 106.583 C 129.565 106.768, 119.759 110.581, 107.957 115.057 C 84.756 123.856, 81.425 125.358, 87 124.507 C 88.925 124.212, 102.623 122.183, 117.440 119.996 C 132.256 117.810, 144.696 115.679, 145.083 115.260 C 146.355 113.887, 171 73.826, 170.986 73.155 C 170.978 72.795, 166.722 70.065, 161.527 67.088 C 156.332 64.112, 152.218 61.412, 152.384 61.088 C 152.550 60.765, 155.006 56.613, 157.843 51.861 C 160.679 47.110, 163 42.832, 163 42.354 C 163 41.707, 121.671 22.881, 112.659 19.423 C 111.722 19.063, 110.470 22.260, 108.243 30.695 M 59.500 34.516 C 46.300 39.090, 34.600 43.085, 33.500 43.393 C 31.813 43.865, 33.435 45.893, 43.844 56.335 L 56.188 68.718 48.344 75.028 C 44.030 78.499, 40.177 81.608, 39.783 81.937 C 39.171 82.447, 47.488 154.873, 48.235 155.540 C 48.381 155.670, 54.350 154.801, 61.500 153.609 L 74.500 151.442 76.170 145.471 C 79.249 134.463, 79.744 135, 66.500 135 C 51 135, 51.222 133.671, 67.750 127.507 C 74.763 124.892, 80.848 122.438, 81.273 122.054 C 81.698 121.669, 83.407 116.212, 85.071 109.927 C 86.736 103.642, 88.314 97.766, 88.578 96.869 C 88.970 95.541, 87.985 95.115, 83.280 94.579 C 80.101 94.216, 76.305 93.686, 74.844 93.401 L 72.188 92.882 76.929 82.746 C 79.537 77.171, 82.195 72.435, 82.835 72.222 C 84.775 71.575, 84.181 73.818, 80.121 82.483 L 76.242 90.761 80.760 91.381 C 90.165 92.670, 89.488 93.290, 92.601 80.527 L 95.399 69.054 93.013 66.514 C 91.377 64.772, 90.950 63.650, 91.656 62.944 C 92.361 62.239, 93.087 62.400, 93.965 63.458 C 96.080 66.007, 96.682 65.304, 98.422 58.250 C 99.338 54.538, 100.326 50.704, 100.617 49.730 C 101.081 48.181, 100.419 48.287, 95.324 50.572 C 92.121 52.009, 88.938 53.416, 88.250 53.699 C 87.334 54.076, 86.998 52.649, 86.994 48.357 C 86.983 37.504, 85.746 25.996, 84.602 26.099 C 83.996 26.154, 72.700 29.942, 59.500 34.516 M 110.807 43.327 L 104.114 46.464 101.472 57.112 L 98.830 67.761 103.665 72.236 C 106.324 74.698, 110.153 78.143, 112.173 79.892 L 115.847 83.073 116.385 77.786 C 117.047 71.285, 118.228 39.964, 117.806 40.095 C 117.637 40.148, 114.488 41.602, 110.807 43.327 M 88.369 108.426 L 85.301 120.852 90.298 118.883 C 94.592 117.190, 112.051 110.533, 121.453 107.004 L 124.407 105.895 118.453 102.013 C 113.610 98.855, 111.042 97.933, 104.678 97.066 C 90.497 95.134, 91.891 94.163, 88.369 108.426 M 118.709 125.864 C 83.887 128.516, 82.085 128.830, 82.015 132.250 C 81.993 133.337, 86.771 133.173, 87.167 132.073 C 87.405 131.410, 148.547 133.129, 153.833 133.948 C 154.017 133.977, 154.008 134.475, 153.815 135.055 C 153.577 135.768, 143.301 136.084, 122.156 136.029 C 92.614 135.952, 90.877 136.047, 91.360 137.723 C 91.642 138.701, 92.428 141.431, 93.107 143.792 C 94.222 147.668, 94.592 148.032, 96.921 147.548 C 102.682 146.352, 140.181 140, 141.484 140 C 142.375 140, 139.847 145.383, 134.556 154.750 C 129.974 162.863, 126.317 169.605, 126.429 169.733 C 126.663 170.001, 175.282 153.912, 175.924 153.355 C 176.157 153.152, 173.848 146.352, 170.793 138.243 L 165.240 123.500 159.370 123.357 C 156.141 123.279, 137.844 124.407, 118.709 125.864 M 67.588 130.447 C 64.754 131.698, 64.852 131.751, 71.310 132.443 C 78.298 133.191, 80 132.799, 80 130.441 C 80 128.594, 71.779 128.598, 67.588 130.447 M 81.649 135.759 C 81.074 136.689, 78 148.434, 78 149.700 C 78 150.242, 80.669 150.213, 84.578 149.629 L 91.156 148.646 90.486 145.073 C 89.208 138.253, 87.310 135, 84.610 135 C 83.239 135, 81.907 135.342, 81.649 135.759 M 84.287 152.379 C 80.871 152.995, 77.666 153.950, 77.165 154.500 C 75.993 155.788, 72.594 169.927, 73.289 170.622 C 73.579 170.912, 78.807 170.354, 84.908 169.381 C 93.558 168.002, 95.992 167.270, 95.965 166.056 C 95.898 163.096, 92.322 151.608, 91.413 151.433 C 90.911 151.336, 87.704 151.762, 84.287 152.379" stroke="none" fill="black" fill-rule="evenodd"/>
</svg>