<svg xmlns="http://www.w3.org/2000/svg" width="200" height="200" viewBox="0 0 200 200" version="1.1">
	<path d="M 88.716 23.509 C 76.184 24.183, 65.756 24.911, 65.541 25.126 C 65.326 25.341, 65.773 28.194, 66.533 31.467 C 67.294 34.739, 67.807 37.526, 67.673 37.660 C 67.539 37.794, 62.818 35.165, 57.182 31.818 C 51.545 28.471, 46.775 25.905, 46.581 26.116 C 45.901 26.857, 28 61.106, 28 61.668 C 28 61.980, 29.742 66.120, 31.872 70.868 C 35.744 79.499, 35.745 79.504, 39.822 116 C 42.065 136.075, 44.148 158.088, 44.451 164.917 C 44.753 171.747, 45.196 177.530, 45.435 177.768 C 45.674 178.007, 51.232 173.656, 57.787 168.098 L 69.705 157.994 81.880 156.137 C 88.577 155.116, 94.214 154.555, 94.409 154.890 C 94.603 155.226, 95.512 158.875, 96.430 163 C 99.232 175.600, 100.025 178, 101.386 178 C 102.331 178, 103.005 174.621, 103.813 165.834 C 104.428 159.143, 105.285 153.359, 105.716 152.981 C 106.580 152.224, 136.978 147.645, 137.523 148.189 C 137.709 148.376, 134.107 154.710, 129.518 162.264 C 124.929 169.819, 121.506 176, 121.913 176 C 122.526 176, 170.320 158.595, 179.230 155.127 L 181.960 154.065 171.331 138.782 C 165.486 130.377, 160.657 123.431, 160.601 123.346 C 160.546 123.262, 147.675 123.805, 132 124.554 C 116.325 125.302, 101.700 125.895, 99.500 125.871 C 97.300 125.847, 107.314 123.690, 121.754 121.076 C 136.194 118.463, 148.185 116.139, 148.400 115.912 C 150.988 113.184, 178.032 66.648, 177.382 66.041 C 176.897 65.589, 166.829 60.782, 155.008 55.359 L 133.516 45.500 142.508 44.856 C 147.454 44.502, 155.325 44.157, 160 44.091 C 168.606 43.968, 172.366 42.914, 170.492 41.150 C 169.946 40.637, 158.643 36.118, 145.374 31.108 C 125.982 23.787, 120.292 22.028, 116.374 22.141 C 113.693 22.219, 101.247 22.834, 88.716 23.509 M 88.250 26.282 C 73.356 27.020, 69 27.538, 69 28.569 C 69 29.302, 69.492 32.194, 70.093 34.997 C 71.501 41.564, 74.203 43.319, 93.494 50.202 C 101.455 53.041, 107.814 55.519, 107.626 55.707 C 107.438 55.895, 100.808 58.654, 92.894 61.838 C 84.706 65.131, 78.385 68.245, 78.229 69.063 C 78.038 70.064, 80.946 71.530, 87.822 73.897 C 97.448 77.211, 97.950 77.276, 108.345 76.580 C 117.208 75.986, 119 76.105, 119 77.283 C 119 78.387, 116.513 78.832, 107.759 79.293 C 97.076 79.857, 96.101 79.739, 88.115 76.921 C 83.493 75.289, 79.587 74.079, 79.435 74.231 C 79.283 74.384, 80.047 78.379, 81.134 83.110 L 83.109 91.711 104.173 96.925 C 127.346 102.662, 130 103.485, 130 104.937 C 130 106.199, 126.368 107.095, 105.198 111.052 C 92.443 113.436, 88.025 114.623, 88.389 115.572 C 88.661 116.279, 89.187 118.479, 89.558 120.459 C 90.065 123.157, 90.643 123.941, 91.867 123.585 C 92.765 123.323, 105.425 121.004, 120 118.430 C 134.575 115.857, 146.837 113.245, 147.249 112.626 C 154.957 101.050, 174.120 67.748, 173.426 67.138 C 172.917 66.691, 162.262 61.660, 149.750 55.958 C 137.238 50.257, 127 45.071, 127 44.435 C 127 43.111, 134.233 42.068, 144.500 41.910 C 148.350 41.851, 153.953 41.509, 156.951 41.151 L 162.402 40.500 141.901 32.750 C 118.677 23.971, 123.404 24.541, 88.250 26.282 M 44.694 35.258 C 43.151 38.141, 39.407 45.324, 36.374 51.219 L 30.860 61.939 34.600 70.219 C 38.249 78.302, 38.432 79.291, 42.221 111.500 C 44.357 129.650, 46.418 150.965, 46.802 158.867 L 47.500 173.235 58.123 164.276 L 68.747 155.316 79.623 153.652 C 85.605 152.737, 91.336 151.991, 92.357 151.994 C 93.422 151.998, 94.018 151.467, 93.754 150.750 C 93.502 150.063, 92.255 144.877, 90.984 139.226 L 88.673 128.953 79.836 129.620 C 72.269 130.191, 71 130.067, 71 128.752 C 71 127.713, 72.535 126.927, 75.750 126.320 L 80.500 125.424 70.298 121.497 C 64.687 119.338, 60.265 117.402, 60.471 117.195 C 60.678 116.989, 65.269 115.972, 70.673 114.936 C 76.078 113.900, 81.465 112.819, 82.643 112.534 L 84.787 112.015 82.919 103.758 C 81.892 99.216, 81.040 95.211, 81.026 94.858 C 81.012 94.504, 77.850 93.443, 74 92.500 C 69.314 91.352, 67 90.302, 67 89.325 C 67 88.408, 67.651 88.054, 68.750 88.373 C 74.239 89.966, 79.246 91.088, 79.543 90.791 C 80.110 90.224, 76.227 73.822, 75.332 73.003 C 74.874 72.584, 72.700 71.655, 70.500 70.937 L 66.500 69.633 70.245 68.066 C 72.305 67.205, 73.992 65.946, 73.995 65.269 C 73.998 64.592, 72.840 59.089, 71.421 53.040 L 68.843 42.043 58.875 36.022 C 53.392 32.710, 48.590 30.004, 48.203 30.008 C 47.817 30.013, 46.237 32.376, 44.694 35.258 M 74.150 52.775 C 76.719 64.441, 76.993 65.219, 78.340 64.685 C 78.978 64.432, 83.775 62.533, 89 60.464 C 94.225 58.396, 98.830 56.418, 99.234 56.068 C 99.638 55.718, 95.588 53.924, 90.234 52.081 C 84.880 50.237, 78.639 47.676, 76.364 46.389 L 72.228 44.049 74.150 52.775 M 84.369 97.250 C 84.700 98.487, 85.486 102.088, 86.116 105.250 C 86.972 109.554, 87.689 111, 88.965 111 C 89.903 111, 97.607 109.653, 106.085 108.008 C 114.563 106.362, 121.725 104.983, 122 104.944 C 123.828 104.684, 87.205 95, 84.393 95 C 84.049 95, 84.038 96.013, 84.369 97.250 M 78.500 116.096 C 68.854 118.255, 68.950 117.934, 77.012 121.075 C 87.566 125.187, 87.774 125.122, 86.375 118.125 C 85.700 114.752, 85.145 114.609, 78.500 116.096 M 134.500 127.073 C 125.700 127.522, 115.829 128.027, 112.565 128.195 L 106.630 128.500 118.315 134.823 C 124.742 138.301, 130 141.489, 130 141.907 C 130 143.851, 128.174 143.510, 118.426 139.740 C 112.675 137.517, 107.653 136.013, 107.267 136.400 C 106.714 136.953, 105.010 149.065, 105.404 149.641 C 105.457 149.718, 113.825 148.530, 124 147 C 134.175 145.470, 142.659 144.366, 142.854 144.546 C 143.048 144.726, 139.766 150.583, 135.561 157.561 C 131.356 164.539, 128.068 170.401, 128.254 170.588 C 128.854 171.187, 176.397 153.314, 176.660 152.390 C 176.799 151.901, 172.985 145.875, 168.183 139 L 159.452 126.500 154.976 126.378 C 152.514 126.310, 143.300 126.623, 134.500 127.073 M 100.920 130.094 C 102.522 130.734, 103.687 130.713, 104.370 130.030 C 105.077 129.323, 104.318 129.020, 101.950 129.063 C 98.708 129.123, 98.646 129.185, 100.920 130.094 M 92.313 132.250 C 92.604 133.488, 93.661 138.213, 94.662 142.750 C 96.207 149.754, 96.785 150.998, 98.491 150.985 C 102.002 150.958, 102.691 149.677, 103.382 141.900 L 104.056 134.299 98.439 132.150 C 91.533 129.507, 91.667 129.504, 92.313 132.250 M 98.401 153.765 C 97.618 154.289, 97.775 156.509, 98.950 161.500 L 100.597 168.500 101.290 163 C 102.522 153.220, 101.950 151.392, 98.401 153.765" stroke="none" fill="black" fill-rule="evenodd"/>
</svg>