<svg xmlns="http://www.w3.org/2000/svg" width="200" height="200" viewBox="0 0 200 200" version="1.1">
	<path d="M 72.640 22.113 C 53.767 31.615, 51.013 33.289, 52.484 34.364 C 53.668 35.230, 54.561 38.337, 55.415 44.555 L 56.643 53.500 41.633 68.044 L 26.623 82.589 22.312 132.044 C 19.941 159.245, 18.114 182.449, 18.251 183.609 C 18.456 185.343, 24.821 180.480, 54 156.297 C 73.525 140.116, 90.322 126.420, 91.326 125.863 C 92.941 124.966, 93.026 125.084, 92.062 126.884 C 90.800 129.242, 85.997 133.006, 81.060 135.506 C 77.874 137.119, 77.753 137.346, 79.425 138.569 C 81.083 139.781, 79.864 141.543, 64.454 160.195 C 55.227 171.363, 46.766 181.518, 45.652 182.763 C 44.364 184.202, 43.975 185.375, 44.582 185.982 C 45.190 186.590, 55.545 181.296, 73.019 171.442 C 88.134 162.919, 101.175 156.111, 102 156.314 C 102.825 156.517, 111.150 162.074, 120.500 168.664 C 129.850 175.254, 138.022 180.952, 138.660 181.327 C 139.540 181.842, 160.733 166.306, 166.269 161.087 C 166.930 160.463, 160.538 127.205, 159.571 126.237 C 159.377 126.044, 144.042 127.959, 125.492 130.494 C 106.942 133.028, 91.030 134.958, 90.132 134.782 C 89.214 134.603, 93.314 131.690, 99.500 128.126 L 110.500 121.789 142.935 115.376 C 160.774 111.849, 175.574 108.759, 175.823 108.510 C 176.073 108.261, 173.973 102.887, 171.158 96.568 L 166.039 85.080 172.019 57.493 C 178.378 28.162, 178.708 25.969, 176.750 26.054 C 176.063 26.084, 169.460 33.432, 162.079 42.383 C 149.545 57.581, 148.547 58.547, 146.988 56.988 C 145.802 55.802, 142.765 55.139, 136.485 54.696 C 127.763 54.081, 127.594 54.018, 123.346 49.849 C 120.979 47.526, 119.145 45.530, 119.271 45.413 C 119.397 45.297, 122.578 45.784, 126.339 46.496 C 134.311 48.004, 134.147 48.658, 128.726 36.946 L 125.230 29.393 147.622 21.468 C 159.938 17.109, 169.842 13.083, 169.632 12.522 C 169.422 11.960, 168.631 11.627, 167.875 11.783 C 163.520 12.679, 122.023 27.638, 122.012 28.316 C 122.006 28.764, 123.546 32.477, 125.435 36.566 C 127.324 40.654, 128.599 44, 128.267 44 C 127.935 44, 124.702 43.502, 121.082 42.894 C 115.182 41.903, 113.930 41.251, 109 36.606 C 98.639 26.845, 99.669 27.155, 95.933 32.681 C 94.142 35.332, 92.636 37.569, 92.588 37.653 C 92.540 37.737, 88.712 37.149, 84.082 36.345 L 75.663 34.884 68.558 41.942 C 64.650 45.824, 60.949 49, 60.333 49 C 58.797 49, 58.311 47.416, 57.487 39.726 L 56.778 33.104 76.389 23.314 C 87.175 17.929, 96 12.956, 96 12.262 C 96 11.568, 95.662 11.024, 95.250 11.054 C 94.838 11.083, 84.663 16.060, 72.640 22.113 M 97.654 35.008 C 95.624 38.445, 95.580 38.411, 103.840 39.837 L 109.181 40.760 104.882 36.380 C 102.518 33.971, 100.324 32, 100.007 32 C 99.690 32, 98.632 33.354, 97.654 35.008 M 162.897 45.677 C 156.629 53.200, 150.967 60.096, 150.316 61.003 C 149.375 62.311, 149.635 64.382, 151.574 71.051 C 152.917 75.672, 153.895 79.816, 153.746 80.261 C 153.598 80.705, 150.917 78.787, 147.788 75.999 L 142.099 70.928 125.997 90.214 L 109.896 109.500 117.656 109.796 C 124.484 110.056, 126.002 109.773, 130.297 107.435 C 136.682 103.960, 138.465 105.488, 133.077 109.818 C 130.899 111.568, 128.303 113.003, 127.309 113.007 C 126.314 113.010, 124.150 113.907, 122.500 115 C 120.850 116.093, 119.878 116.990, 120.339 116.993 C 121.979 117.006, 171.420 106.913, 171.857 106.476 C 172.102 106.232, 170.247 101.368, 167.737 95.668 L 163.172 85.305 168.553 60.402 C 171.513 46.706, 174.132 34.712, 174.373 33.750 C 174.615 32.788, 174.696 32, 174.553 32 C 174.411 32, 169.165 38.155, 162.897 45.677 M 71.144 43.354 L 65.856 48.708 70.568 49.354 C 73.159 49.709, 77.428 50, 80.054 50 C 84.695 50, 84.913 49.862, 87.849 45.091 L 90.869 40.183 84.603 39.091 C 81.156 38.491, 77.908 38, 77.384 38 C 76.860 38, 74.052 40.409, 71.144 43.354 M 90.629 45.548 C 89.050 48.047, 87.927 50.260, 88.133 50.466 C 88.339 50.672, 95.031 51.336, 103.004 51.942 C 110.977 52.547, 118.843 53.268, 120.484 53.543 C 123.448 54.040, 123.437 54.012, 118.670 49.173 C 114.046 44.478, 113.539 44.243, 104.629 42.651 C 99.545 41.743, 94.961 41.001, 94.442 41.002 C 93.924 41.003, 92.208 43.048, 90.629 45.548 M 62 62.210 C 62 67.991, 62.288 74.824, 62.641 77.394 L 63.281 82.068 72.714 67.940 C 77.901 60.170, 81.955 53.622, 81.723 53.389 C 81.490 53.157, 76.957 52.681, 71.650 52.332 L 62 51.698 62 62.210 M 84.661 54.970 C 81.848 58.411, 62.723 88.054, 63.096 88.394 C 63.318 88.597, 72.275 89.544, 83 90.500 C 93.725 91.456, 102.668 92.390, 102.874 92.576 C 104.553 94.096, 99.371 96.643, 81.546 103.061 C 57.640 111.668, 57.563 111.559, 86.823 110.485 L 106.145 109.776 123.214 89.330 C 132.603 78.085, 139.882 68.539, 139.392 68.117 C 138.901 67.695, 135.921 64.963, 132.768 62.047 L 127.036 56.744 106.474 55.092 C 88.027 53.610, 85.783 53.597, 84.661 54.970 M 42.781 70.785 L 29.159 84.500 25.098 131.936 C 22.865 158.025, 21.142 179.459, 21.269 179.568 C 21.396 179.676, 36.890 167.033, 55.700 151.472 C 79.092 132.122, 90.939 122.953, 93.186 122.459 C 96.428 121.747, 96.938 121.310, 101.186 115.606 L 103.341 112.713 77.511 113.106 C 59.177 113.386, 51.571 113.178, 51.304 112.391 C 51.084 111.743, 59.731 108.090, 72.152 103.586 C 83.825 99.353, 93.976 95.553, 94.709 95.143 C 95.442 94.733, 89.620 93.834, 81.771 93.145 C 73.922 92.456, 65.813 91.635, 63.750 91.319 L 60 90.744 59.981 84.122 C 59.962 77.860, 57.620 58.287, 56.790 57.456 C 56.577 57.244, 50.273 63.242, 42.781 70.785 M 135.958 61.370 C 141.020 66.627, 142.317 66.972, 144.500 63.641 C 146.695 60.290, 145.485 58, 141.518 58 C 139.721 58, 136.731 57.716, 134.875 57.370 L 131.500 56.739 135.958 61.370 M 145.170 67.295 C 144.274 68.375, 144.596 69.199, 146.654 71.087 L 149.282 73.500 148.570 70.500 C 147.642 66.587, 146.585 65.591, 145.170 67.295 M 104.100 116.694 C 102.426 118.726, 101.168 120.501, 101.305 120.638 C 102.105 121.439, 110.914 118.516, 115.323 115.988 L 120.500 113.019 113.823 113.009 C 107.337 113, 107.059 113.106, 104.100 116.694 M 96.872 125.664 C 95.628 127.172, 95.710 127.216, 97.750 126.129 C 100.077 124.889, 100.650 124, 99.122 124 C 98.640 124, 97.627 124.749, 96.872 125.664 M 119.712 133.940 C 96.811 137.130, 85.497 139.107, 84.597 140.073 C 82.187 142.662, 53.375 177.584, 52.558 178.906 C 51.562 180.517, 50.486 181.085, 78.500 165.217 C 90.600 158.364, 100.950 152.738, 101.500 152.717 C 102.050 152.695, 107.225 156.029, 113 160.126 C 118.775 164.223, 127.130 170.119, 131.566 173.227 L 139.632 178.879 151.566 169.349 C 158.130 164.107, 163.607 159.715, 163.738 159.588 C 163.869 159.461, 162.551 152.527, 160.809 144.179 C 157.933 130.401, 157.450 129.011, 155.571 129.116 C 154.432 129.181, 138.296 131.351, 119.712 133.940" stroke="none" fill="black" fill-rule="evenodd"/>
</svg>