<svg xmlns="http://www.w3.org/2000/svg" width="200" height="200" viewBox="0 0 200 200" version="1.1">
	<path d="M 132.985 10.666 C 132.955 16.149, 133.027 16.131, 108.181 16.841 L 85.092 17.500 92.818 27.500 C 97.067 33, 104.209 42.251, 108.688 48.057 L 116.833 58.614 106.166 66.671 C 95.810 74.493, 90.203 78, 88.054 78 C 87.479 78, 82.006 67.987, 75.893 55.750 C 69.779 43.512, 64.632 33.342, 64.455 33.150 C 64.278 32.957, 63.662 33.091, 63.086 33.447 C 62.445 33.843, 66.465 42.940, 73.454 56.908 L 84.870 79.723 69.935 86.802 C 56.156 93.333, 52.311 96.013, 56.750 95.992 C 57.712 95.987, 72.675 93.553, 90 90.583 C 107.325 87.613, 121.591 85.270, 121.701 85.376 C 121.812 85.482, 111.012 90.012, 97.701 95.443 C 63.710 109.311, 62.477 109.877, 63.666 111.066 C 64.358 111.758, 73.286 110.787, 91.503 108.037 C 106.253 105.810, 118.484 104.151, 118.683 104.349 C 119.057 104.724, 113.269 145.090, 112.778 145.523 C 112.625 145.658, 107.685 147.130, 101.801 148.794 L 91.102 151.820 80.801 150.442 C 67.842 148.708, 68 148.707, 68 150.480 C 68 151.293, 69.880 152.918, 72.178 154.091 C 75.230 155.648, 75.971 156.428, 74.928 156.989 C 74.142 157.411, 65.082 159.456, 54.792 161.532 L 36.085 165.309 30.542 161.033 C 27.494 158.681, 25 156.660, 25 156.542 C 25 156.424, 35.800 152.093, 49 146.917 C 62.200 141.741, 73 137.227, 73 136.885 C 73 136.544, 67.938 130.754, 61.750 124.018 C 55.563 117.283, 49.116 110.136, 47.424 108.136 C 44.831 105.072, 20.917 52.600, 21.038 50.241 C 21.059 49.834, 33.207 41.400, 48.033 31.500 C 62.859 21.600, 74.992 13.238, 74.995 12.917 C 75.015 10.687, 70.674 13.202, 45.448 30.035 L 17.106 48.947 25.113 67.223 C 29.516 77.275, 35.179 90.260, 37.697 96.077 C 42.046 106.123, 42.943 107.380, 55.561 121.077 C 62.868 129.010, 68.544 135.779, 68.173 136.119 C 67.803 136.460, 56.813 140.959, 43.750 146.117 C 30.688 151.275, 20.030 155.721, 20.067 155.998 C 20.103 156.274, 23.555 159.152, 27.737 162.393 L 35.341 168.286 65.920 162.009 C 96.160 155.801, 99.812 155.322, 107.371 156.575 L 111.242 157.217 110.655 161.358 C 110.333 163.636, 109.760 167.750, 109.383 170.500 L 108.697 175.500 115.519 167 C 119.270 162.325, 122.376 158.447, 122.420 158.381 C 122.464 158.316, 136.450 159.995, 153.500 162.113 C 170.550 164.232, 185.138 165.733, 185.917 165.450 C 189.402 164.183, 183.615 162.786, 155 157.986 C 132.161 154.154, 124.064 153.136, 122.764 153.934 C 120.167 155.528, 115 155.284, 115 153.567 C 115 151.978, 115.828 151.664, 124.500 149.957 C 128.644 149.141, 132.361 147.479, 136.517 144.584 C 139.826 142.279, 143.201 140.079, 144.017 139.694 C 144.833 139.310, 149.282 136.182, 153.903 132.742 L 162.307 126.487 173.379 90.624 L 184.452 54.761 177.726 48.389 C 174.027 44.885, 171 41.596, 171 41.082 C 171 40.568, 170.350 40.001, 169.556 39.823 C 168.762 39.645, 164.037 35.755, 159.056 31.178 C 151.028 23.800, 150 22.467, 150 19.428 C 150 16.104, 149.881 16, 146.059 16 C 143.891 16, 141.860 15.583, 141.545 15.073 C 141.230 14.563, 139.178 12.725, 136.986 10.989 L 133 7.832 132.985 10.666 M 135 14.500 C 135 15.325, 135.730 16, 136.622 16 C 137.951 16, 138.020 15.729, 137 14.500 C 136.315 13.675, 135.585 13, 135.378 13 C 135.170 13, 135 13.675, 135 14.500 M 93.158 19.858 C 90.956 20.476, 91.696 21.655, 105.408 39.397 C 113.433 49.782, 120 58.590, 120 58.970 C 120 59.350, 117.992 61.103, 115.537 62.866 C 108.675 67.794, 109.196 68.305, 117.200 64.495 C 121.215 62.584, 124.832 60.453, 125.237 59.760 C 125.642 59.067, 127.262 49.612, 128.836 38.750 L 131.699 19 113.600 19.100 C 103.645 19.155, 94.446 19.496, 93.158 19.858 M 131.582 38.548 C 130.032 49.300, 128.929 58.234, 129.132 58.403 C 129.334 58.572, 133.708 56.746, 138.850 54.346 L 148.200 49.981 147.850 36.895 L 147.500 23.809 144.500 21.410 C 142.606 19.895, 140.191 19.008, 137.951 19.005 L 134.401 19 131.582 38.548 M 150.589 36.111 C 150.965 41.275, 151.377 45.629, 151.506 45.787 C 151.635 45.944, 153.936 45.228, 156.620 44.195 C 159.304 43.162, 162.349 42.011, 163.386 41.637 C 165.234 40.972, 165.234 40.916, 163.386 38.867 C 162.349 37.717, 158.892 34.514, 155.704 31.749 L 149.907 26.722 150.589 36.111 M 148 53.021 C 137.825 57.889, 129.175 62.014, 128.779 62.186 C 128.186 62.444, 124.907 81.131, 125.361 81.663 C 125.437 81.753, 127.521 81.456, 129.991 81.003 C 138.126 79.513, 138.212 81.718, 130.154 85.195 C 124.739 87.531, 124.260 88.005, 123.665 91.609 C 122.219 100.362, 122.188 100.320, 129.500 99.537 C 133.075 99.154, 136 99.136, 136 99.497 C 136 99.859, 132.827 105.587, 128.949 112.226 C 125.071 118.866, 122.259 124.657, 122.699 125.097 C 123.999 126.392, 142.010 136, 143.139 136 C 145.049 136, 159.219 125.615, 160.132 123.546 C 161.219 121.083, 181 56.974, 181 55.913 C 181 54.494, 169.492 44.041, 168 44.104 C 167.175 44.140, 158.175 48.152, 148 53.021 M 110.541 70.678 C 102.870 74.265, 94.640 78.800, 92.253 80.756 C 89.174 83.279, 87.602 84.002, 86.844 83.244 C 86.086 82.486, 83.147 83.455, 76.731 86.578 C 71.757 88.999, 67.519 91.148, 67.314 91.353 C 67.108 91.558, 79.082 89.651, 93.923 87.113 C 108.763 84.576, 121.322 82.050, 121.831 81.500 C 122.693 80.568, 125.360 65.027, 124.761 64.428 C 124.611 64.278, 118.213 67.091, 110.541 70.678 M 99.267 97.767 C 87.592 102.500, 78.221 106.555, 78.443 106.776 C 78.814 107.148, 99.198 104.306, 113.645 101.868 L 119.791 100.831 120.478 95.331 C 120.856 92.307, 121.014 89.680, 120.829 89.496 C 120.644 89.311, 110.941 93.033, 99.267 97.767 M 125.250 102.723 C 123.463 102.945, 121.998 103.436, 121.996 103.813 C 121.994 104.191, 121.338 108.531, 120.538 113.459 C 119.738 118.386, 119.198 122.531, 119.337 122.670 C 119.655 122.988, 131 103.502, 131 102.637 C 131 102.287, 130.438 102.072, 129.750 102.160 C 129.063 102.248, 127.037 102.502, 125.250 102.723 M 117.202 135.686 C 116.563 140.464, 116.143 144.455, 116.270 144.555 C 116.696 144.891, 137.492 138.807, 138.216 138.134 C 138.912 137.487, 121.061 127, 119.264 127 C 118.769 127, 117.841 130.909, 117.202 135.686 M 123.830 145.344 C 116.710 147.352, 111.312 150.011, 117 148.709 C 118.375 148.394, 121.300 147.821, 123.500 147.435 C 127.410 146.748, 133 144.418, 133 143.474 C 133 142.804, 132.417 142.923, 123.830 145.344 M 107.500 150 C 106.239 150.542, 106.055 150.859, 107 150.859 C 107.825 150.859, 109.400 150.473, 110.500 150 C 111.761 149.458, 111.945 149.141, 111 149.141 C 110.175 149.141, 108.600 149.527, 107.500 150 M 77.500 154 C 77.840 154.550, 78.965 155, 80 155 C 81.035 155, 82.160 154.550, 82.500 154 C 82.862 153.415, 81.824 153, 80 153 C 78.176 153, 77.138 153.415, 77.500 154 M 108.750 153.662 C 109.438 153.940, 110.563 153.940, 111.250 153.662 C 111.938 153.385, 111.375 153.158, 110 153.158 C 108.625 153.158, 108.063 153.385, 108.750 153.662 M 113.625 160.125 C 112.580 165.350, 112.958 165.644, 116.057 162.019 C 118.724 158.897, 118.849 158.465, 117.266 157.839 C 114.453 156.727, 114.283 156.833, 113.625 160.125" stroke="none" fill="black" fill-rule="evenodd"/>
</svg>