<svg xmlns="http://www.w3.org/2000/svg" width="200" height="200" viewBox="0 0 200 200" version="1.1">
	<path d="M 69.007 25.632 C 69.010 26.109, 69.907 27.850, 71 29.500 C 73.562 33.368, 73.512 34.164, 70.750 33.485 C 65.063 32.088, 27.984 26.433, 28.227 27 C 28.377 27.351, 36.756 35.257, 46.847 44.569 L 65.193 61.500 75.347 62.656 C 80.931 63.292, 86.699 63.854, 88.165 63.906 C 90.230 63.979, 91.381 64.988, 93.284 68.392 L 95.739 72.785 58.953 73.142 C 38.720 73.339, 21.829 73.838, 21.417 74.250 C 21.004 74.662, 21 75.334, 21.408 75.742 C 22.061 76.394, 51.890 77.660, 73 77.930 L 80.500 78.026 58.048 89.869 C 45.699 96.383, 35.434 102.198, 35.236 102.791 C 35.038 103.385, 40.117 114.025, 46.522 126.435 L 58.167 149 74.306 149 C 88.945 149, 90.246 149.140, 88.301 150.502 C 86.898 151.484, 79.485 152.717, 66.846 154.068 C 56.224 155.204, 47.390 156.277, 47.213 156.454 C 46.598 157.068, 39.065 186.399, 39.429 186.762 C 39.630 186.964, 50.509 179.829, 63.603 170.909 L 87.411 154.689 113.456 151.957 C 127.780 150.454, 139.542 149.286, 139.592 149.362 C 139.643 149.438, 145.718 160.173, 153.092 173.219 C 164.586 193.551, 169 199.918, 169 196.163 C 169 194.677, 145.880 146.544, 144.865 145.917 C 144.317 145.578, 149.430 134.903, 156.442 121.747 C 163.349 108.788, 169 97.770, 169 97.263 C 169 96.757, 157.758 92.807, 144.019 88.486 C 130.279 84.165, 119.201 80.465, 119.402 80.264 C 119.781 79.886, 183.768 74.032, 187.750 74.012 C 189.049 74.005, 190 73.384, 190 72.542 C 190 71.054, 187.128 70.053, 166.013 64.178 L 155.525 61.259 159.013 59.133 C 160.931 57.964, 162.838 57.006, 163.250 57.004 C 163.662 57.002, 164 56.325, 164 55.500 C 164 53.569, 164.157 53.545, 156.426 56.640 C 150.283 59.099, 149.459 59.197, 144.415 58.068 C 141.437 57.402, 139 56.531, 139 56.132 C 139 55.734, 146.445 48.961, 155.545 41.082 C 164.644 33.202, 171.872 26.539, 171.607 26.274 C 171.342 26.009, 160.773 26.333, 148.119 26.994 C 126.026 28.148, 109.682 27.774, 77.250 25.374 C 72.713 25.038, 69.003 25.154, 69.007 25.632 M 74 28.453 C 74 30.391, 76.730 34.135, 78.421 34.515 C 80.918 35.076, 110.510 40, 111.386 40 C 111.724 40, 112 40.617, 112 41.371 C 112 42.360, 109.704 42.952, 103.750 43.498 C 99.213 43.913, 95.950 44.413, 96.500 44.607 C 102.140 46.603, 133.643 55.014, 134.644 54.792 C 136.157 54.457, 165.009 29.677, 164.491 29.158 C 164.302 28.969, 155.453 29.312, 144.824 29.918 C 129.258 30.807, 120.638 30.731, 100.500 29.527 C 71.224 27.776, 74 27.888, 74 28.453 M 44.500 38.625 C 48.900 42.764, 55.668 49.013, 59.541 52.511 L 66.582 58.871 77.361 60.031 C 83.290 60.670, 88.288 61.036, 88.467 60.846 C 88.647 60.656, 85.925 55.550, 82.419 49.500 C 78.913 43.450, 75.918 38.151, 75.764 37.725 C 75.481 36.943, 42.206 30.991, 38.500 31.060 C 37.011 31.088, 38.546 33.022, 44.500 38.625 M 81.663 42.750 C 83.174 45.362, 86.250 50.650, 88.499 54.500 L 92.589 61.500 108.076 63.135 C 126.589 65.089, 127.152 65.195, 126.224 66.579 C 125.709 67.346, 121.223 67.234, 110.719 66.193 C 102.590 65.387, 95.676 64.990, 95.355 65.311 C 95.034 65.632, 95.760 67.493, 96.967 69.447 L 99.163 73 107.332 72.951 C 114.925 72.905, 116.521 72.489, 130 67.036 C 138.221 63.710, 143.850 60.929, 143 60.612 C 142.175 60.305, 139.700 59.622, 137.500 59.094 C 120.606 55.042, 86 44.441, 86 43.317 C 86 42.518, 87.279 41.961, 89.250 41.900 C 97.388 41.651, 97.494 40.422, 89.484 39.202 C 78.230 37.489, 78.539 37.349, 81.663 42.750 M 139.500 69.505 C 130.752 74.211, 128.222 75.965, 130.165 75.980 C 132.838 76, 177.185 72.195, 180 71.704 C 180.825 71.560, 175.200 69.697, 167.500 67.563 C 159.800 65.429, 153.050 63.541, 152.500 63.367 C 151.950 63.193, 146.100 65.956, 139.500 69.505 M 126 71.522 C 117.079 75.190, 114.407 75.852, 108.230 75.920 L 100.959 76 103 80 C 105.302 84.513, 105.064 84.384, 108.332 82.895 C 109.937 82.163, 110.601 81.191, 110.295 80.021 C 109.917 78.575, 110.707 78.121, 114.619 77.534 C 118.854 76.899, 137 68.756, 137 67.490 C 137 67.220, 136.887 67.046, 136.750 67.102 C 136.613 67.158, 131.775 69.147, 126 71.522 M 64.500 89.536 C 50.750 96.884, 39.150 103.036, 38.722 103.207 C 38.294 103.379, 42.794 113.069, 48.722 124.740 L 59.500 145.962 76.579 145.981 L 93.657 146 107.809 133.814 C 115.592 127.111, 121.777 121.444, 121.553 121.220 C 121.207 120.874, 83.939 129.264, 80.227 130.523 C 77.989 131.282, 80.507 127.833, 86.176 122.372 C 89.104 119.551, 96 113.973, 101.500 109.977 C 113.380 101.344, 112.441 102.107, 111.874 101.541 C 111.500 101.167, 59.325 113.100, 55.333 114.472 C 54.691 114.693, 53.925 114.248, 53.632 113.484 C 53.253 112.496, 60.323 108.289, 78.059 98.949 L 103.019 85.805 100.350 80.902 C 96.108 73.108, 94.532 73.487, 64.500 89.536 M 111.405 84.275 C 109.257 85.362, 107.358 86.374, 107.184 86.524 C 107.011 86.675, 108.299 89.332, 110.048 92.430 C 112.719 97.163, 113.568 97.965, 115.363 97.452 C 116.538 97.116, 118.250 96.634, 119.166 96.380 C 120.082 96.126, 121.163 96.455, 121.569 97.111 C 122.244 98.204, 120.743 99.844, 117.197 101.888 C 116.210 102.457, 116.910 104.402, 120.080 109.901 C 123.366 115.601, 124.669 117.058, 126.133 116.676 C 128.564 116.040, 129.366 117.440, 127.908 119.775 C 126.930 121.342, 127.801 123.463, 133.488 133.369 C 137.195 139.824, 140.514 144.832, 140.864 144.498 C 141.214 144.163, 146.957 133.677, 153.626 121.195 L 165.753 98.500 154.126 94.713 C 147.732 92.630, 136.382 88.984, 128.905 86.612 L 115.309 82.298 111.405 84.275 M 85.259 98.252 C 74.702 103.833, 66.173 108.506, 66.305 108.638 C 66.584 108.917, 109.323 98.895, 109.863 98.424 C 110.063 98.249, 108.927 95.856, 107.339 93.106 L 104.452 88.105 85.259 98.252 M 103 112.143 C 93.917 118.831, 86.707 125.040, 87.316 125.649 C 87.709 126.042, 120.023 118.311, 120.664 117.670 C 121.342 116.991, 114.746 105.727, 113.479 105.400 C 112.941 105.261, 108.225 108.295, 103 112.143 M 111.136 134.532 L 97.875 146 117.438 146 C 128.197 146, 137 145.751, 137 145.447 C 137 145.034, 125.486 124.518, 124.560 123.282 C 124.470 123.162, 118.429 128.224, 111.136 134.532 M 93.500 150 C 92.789 151.151, 96.871 151.166, 105 150.042 C 110.452 149.288, 110.429 149.280, 102.309 149.141 C 97.765 149.063, 93.843 149.445, 93.500 150 M 143 149.535 C 143 149.830, 144.346 152.417, 145.991 155.285 C 149.633 161.637, 149.946 160.800, 146.483 153.967 C 144.238 149.537, 143 147.961, 143 149.535 M 65.298 156.908 C 56.937 157.822, 49.827 158.840, 49.497 159.169 C 48.821 159.846, 43.167 181, 43.662 181 C 43.838 181, 51.973 175.562, 61.741 168.916 C 77.744 158.027, 82.306 154.752, 80.950 155.123 C 80.703 155.191, 73.659 155.994, 65.298 156.908" stroke="none" fill="black" fill-rule="evenodd"/>
</svg>