<svg xmlns="http://www.w3.org/2000/svg" width="200" height="200" viewBox="0 0 200 200" version="1.1">
	<path d="M 119.422 35.058 C 105.034 50.412, 99.448 55.761, 98.799 54.808 C 98.309 54.088, 93.636 45.031, 88.414 34.680 C 79.081 16.179, 76.221 12.609, 76.733 20.094 C 77.891 37.038, 80.294 56.567, 81.301 57.207 C 81.960 57.626, 83.362 57.976, 84.417 57.985 C 85.471 57.993, 86.142 58.192, 85.907 58.426 C 85.430 58.903, 46.745 64.113, 46.466 63.738 C 46.369 63.607, 47.128 53.600, 48.154 41.500 C 49.180 29.400, 49.902 18.744, 49.760 17.819 C 49.614 16.880, 42.088 27.134, 32.689 41.077 C 21.644 57.461, 16.327 66.171, 17.189 66.468 C 17.910 66.716, 28.400 69.159, 40.500 71.896 L 62.500 76.872 66.254 81.186 C 68.465 83.728, 69.492 85.600, 68.754 85.744 C 68.064 85.878, 56.925 85.165, 44 84.158 C 31.075 83.152, 20.323 82.469, 20.106 82.642 C 19.501 83.123, 25.228 181.407, 25.905 182.168 C 26.232 182.535, 34.711 175.183, 44.747 165.831 L 62.993 148.826 77.247 162.396 L 91.500 175.966 92.126 169.233 C 92.470 165.530, 92.807 156.162, 92.876 148.417 C 92.944 140.671, 93.243 134.090, 93.540 133.793 C 93.837 133.496, 98.540 134.371, 103.990 135.738 L 113.900 138.223 138.700 165.229 C 157.637 185.851, 163.573 191.756, 163.808 190.208 C 163.977 189.093, 163.415 176.840, 162.558 162.980 C 161.701 149.120, 161 136.232, 161 134.341 C 161 131.040, 160.693 130.756, 153.414 127.299 L 145.828 123.696 154.044 119.419 C 158.562 117.066, 162.704 114.696, 163.249 114.151 C 163.794 113.606, 165.719 99.937, 167.527 83.776 C 171.001 52.731, 170.961 46.972, 167.248 42.590 C 162.055 36.462, 140.594 14, 139.932 14 C 139.505 14, 130.276 23.476, 119.422 35.058 M 124.944 33.250 C 117.066 41.638, 108.866 50.358, 106.721 52.628 C 103.019 56.549, 102.951 56.732, 105.380 56.268 C 107.368 55.888, 112.181 58.399, 126.969 67.533 C 137.436 73.998, 146 79.898, 146 80.644 C 146 82.357, 147.290 82.415, 128.247 79.856 C 119.308 78.655, 111.726 77.941, 111.398 78.269 C 111.070 78.597, 112.090 81.258, 113.666 84.183 L 116.531 89.500 128.016 89.240 C 134.332 89.097, 140.963 88.739, 142.750 88.445 C 145.151 88.049, 146 88.283, 146 89.339 C 146 90.860, 142.963 91.372, 126.763 92.582 L 118.027 93.234 135.048 126.537 C 146.229 148.412, 151.685 160.077, 150.948 160.532 C 149.617 161.355, 149.806 161.551, 142.606 151.865 L 136.931 144.230 128.741 142.173 C 124.236 141.042, 120.402 140.264, 120.221 140.446 C 120.040 140.627, 129.009 150.707, 140.153 162.847 C 151.297 174.987, 160.568 184.766, 160.755 184.578 C 161.123 184.210, 158.157 132.803, 157.747 132.444 C 157.611 132.325, 153.773 130.532, 149.218 128.460 C 144.663 126.388, 141.069 124.292, 141.233 123.802 C 141.396 123.313, 146.023 120.531, 151.515 117.620 L 161.500 112.328 164.718 84.414 C 166.765 66.655, 167.716 54.524, 167.330 51.069 C 166.736 45.744, 166.473 45.371, 153.760 31.819 C 146.630 24.219, 140.452 18, 140.031 18 C 139.611 18, 132.821 24.863, 124.944 33.250 M 80.127 27 C 80.139 28.375, 80.678 35.125, 81.324 42 L 82.500 54.500 87.500 56.170 C 93.640 58.220, 96.016 58.384, 95.947 56.750 C 95.837 54.124, 80.106 24.542, 80.127 27 M 34.019 43.971 C 27.348 53.956, 21.671 62.693, 21.405 63.387 C 21.057 64.294, 27.002 66.018, 42.603 69.535 L 64.285 74.422 68.893 80.141 C 73.825 86.263, 74.453 86.534, 85.630 87.344 L 91.760 87.789 92.449 79.893 C 93.097 72.464, 93.267 72.023, 95.319 72.441 C 101.187 73.636, 105 74.027, 105 73.435 C 105 73.075, 103.646 70.242, 101.992 67.140 C 99.177 61.862, 98.729 61.482, 95 61.226 C 92.809 61.076, 80.380 62.331, 67.380 64.015 C 54.381 65.700, 43.635 66.948, 43.500 66.789 C 43.365 66.630, 44.026 57.500, 44.967 46.500 C 45.909 35.500, 46.560 26.346, 46.414 26.158 C 46.269 25.970, 40.691 33.986, 34.019 43.971 M 102.526 59.959 C 102.200 60.486, 103.476 63.980, 105.361 67.725 L 108.789 74.532 122.941 76.386 C 130.724 77.406, 137.267 78.066, 137.480 77.853 C 137.693 77.640, 131.130 73.311, 122.896 68.233 C 108.933 59.622, 103.978 57.609, 102.526 59.959 M 95 81.858 L 95 87.715 101.147 88.358 C 104.527 88.711, 108.584 89, 110.161 89 L 113.029 89 110.066 83.130 C 106.928 76.913, 105.536 76.038, 98.750 76.014 L 95 76 95 81.858 M 23 89.909 C 23 92.540, 23.287 98.731, 23.637 103.666 L 24.274 112.640 35.278 115.346 C 41.330 116.834, 46.424 117.909, 46.597 117.736 C 46.771 117.562, 44.642 113.016, 41.867 107.633 C 39.091 102.251, 37.039 97.627, 37.307 97.359 C 37.575 97.092, 46.278 96.178, 56.647 95.329 C 67.016 94.479, 75.700 93.595, 75.944 93.364 C 76.189 93.133, 75.514 92.077, 74.444 91.017 C 72.760 89.347, 69.624 88.882, 51 87.539 C 39.175 86.686, 28.038 85.794, 26.250 85.557 L 23 85.126 23 89.909 M 77 89.693 C 77 91.928, 79.820 93, 85.700 93 C 90.633 93, 92 92.675, 92 91.500 C 92 90.336, 90.676 90, 86.082 90 C 82.827 90, 79.452 89.727, 78.582 89.393 C 77.712 89.059, 77 89.194, 77 89.693 M 96.750 91.706 C 97.987 91.944, 100.013 91.944, 101.250 91.706 C 102.487 91.467, 101.475 91.272, 99 91.272 C 96.525 91.272, 95.513 91.467, 96.750 91.706 M 98.862 94.722 L 95.225 95.107 94.535 102.474 C 94.112 106.988, 94.241 110.549, 94.870 111.670 C 95.434 112.677, 100.096 118.450, 105.229 124.500 L 114.563 135.500 126.531 138.751 C 133.619 140.677, 139.057 142.716, 139.865 143.751 C 142.236 146.790, 140.807 143.760, 128 118.600 L 115.500 94.042 109 94.189 C 105.425 94.270, 100.863 94.510, 98.862 94.722 M 85.769 95.892 L 82.037 96.500 86.975 102 L 91.913 107.500 91.957 101.250 C 91.987 96.821, 91.636 95.041, 90.750 95.142 C 90.063 95.220, 87.821 95.557, 85.769 95.892 M 59.500 97.738 C 49.600 98.538, 41.340 99.347, 41.144 99.536 C 40.948 99.724, 43.129 104.299, 45.990 109.701 L 51.191 119.523 71.095 124.582 L 91 129.640 90.993 120.570 L 90.986 111.500 85.018 104.008 C 81.736 99.888, 78.702 96.464, 78.275 96.399 C 77.849 96.335, 69.400 96.937, 59.500 97.738 M 24.664 120.750 C 24.868 123.362, 25.704 136.939, 26.521 150.920 C 27.339 164.902, 28.153 176.486, 28.331 176.664 C 28.509 176.842, 36.187 170.015, 45.395 161.494 C 54.602 152.972, 62.535 146, 63.024 146 C 63.513 146, 69.643 151.481, 76.646 158.179 C 83.650 164.878, 89.483 169.940, 89.607 169.429 C 89.732 168.918, 90.051 160.394, 90.316 150.486 L 90.797 132.471 73.649 128.066 C 64.217 125.643, 55.668 123.448, 54.651 123.188 C 52.898 122.739, 52.884 122.876, 54.401 125.808 C 56.231 129.348, 56.428 131, 55.020 131 C 54.482 131, 53.076 129.088, 51.897 126.750 C 50.719 124.412, 49.645 122.373, 49.511 122.217 C 49.063 121.696, 27.522 116.046, 25.897 116.023 C 24.597 116.004, 24.364 116.898, 24.664 120.750 M 94 123.103 L 94 130.634 101.250 132.330 C 105.237 133.263, 108.854 134.020, 109.287 134.013 C 109.930 134.002, 100.782 122.846, 95.365 117.036 C 94.203 115.789, 94 116.691, 94 123.103" stroke="none" fill="black" fill-rule="evenodd"/>
</svg>