<svg xmlns="http://www.w3.org/2000/svg" width="200" height="200" viewBox="0 0 200 200" version="1.1">
	<path d="M 86.623 9.540 C 86.280 10.433, 86 11.978, 86 12.973 C 86 14.634, 84.390 14.836, 66.250 15.456 C 55.388 15.826, 45.996 16.289, 45.381 16.483 C 44.765 16.678, 41.228 22.601, 37.521 29.645 C 30.968 42.099, 30.592 43.225, 23.935 70.338 L 17.088 98.222 36.544 124.008 C 47.245 138.190, 56 149.966, 56 150.177 C 56 150.389, 50.150 153.459, 43 157 C 35.850 160.541, 30 163.677, 30.001 163.969 C 30.002 164.261, 50.345 168.878, 75.208 174.229 L 120.414 183.959 136.457 173.516 C 145.281 167.773, 158.983 158.836, 166.907 153.656 L 181.315 144.237 148.907 124.914 C 124.457 110.336, 113.102 104.187, 102.661 99.873 C 95.049 96.728, 88.601 93.934, 88.331 93.664 C 87.902 93.236, 96.571 64.096, 97.362 63.304 C 97.528 63.139, 101.167 62.707, 105.449 62.345 C 112.792 61.724, 113.202 61.795, 112.672 63.593 C 112.362 64.642, 109.985 72.588, 107.390 81.252 C 104.794 89.916, 102.857 97.140, 103.085 97.306 C 103.588 97.672, 183.382 95.930, 183.780 95.545 C 183.934 95.395, 178.451 83.174, 171.596 68.387 L 159.132 41.500 160.242 33.259 C 161.276 25.579, 160.972 22.695, 159.302 24.364 C 158.919 24.748, 158.090 28.898, 157.461 33.586 L 156.318 42.111 168.056 67.305 C 174.512 81.162, 179.692 92.611, 179.566 92.748 C 179.315 93.020, 106.582 94.922, 106.366 94.661 C 106.119 94.365, 115.770 63.181, 116.449 62.083 C 116.817 61.487, 118.542 61, 120.282 61 L 123.445 61 120.973 59.332 C 119.613 58.414, 118.322 57.524, 118.105 57.353 C 117.888 57.183, 118.740 53.424, 120 49 C 121.260 44.576, 122.045 40.711, 121.744 40.411 C 121.444 40.111, 115.472 38.339, 108.474 36.474 C 101.475 34.609, 95.648 32.951, 95.524 32.791 C 94.776 31.824, 92.013 18.654, 92.464 18.203 C 92.918 17.749, 133.771 16.300, 152.750 16.065 C 156.784 16.015, 158 15.643, 158 14.459 C 158 13.132, 156.443 12.991, 146.750 13.444 C 140.563 13.733, 125.505 14.220, 113.289 14.526 L 91.078 15.082 90.243 11.859 C 89.301 8.223, 87.557 7.106, 86.623 9.540 M 52.385 18.737 L 46.271 19.088 39.962 30.794 C 33.882 42.076, 33.408 43.496, 26.889 70 C 21.397 92.326, 20.348 97.830, 21.312 99.254 C 24.939 104.611, 58.591 148.901, 59.069 148.946 C 59.383 148.976, 61.280 140.563, 63.286 130.250 L 66.933 111.500 64.398 101.500 C 62.585 94.349, 59.884 87.681, 54.919 78.096 C 51.099 70.724, 48.239 64.424, 48.562 64.096 C 48.885 63.768, 55.303 63.050, 62.825 62.500 C 75.895 61.544, 76.514 61.400, 76.820 59.250 C 77.120 57.131, 76.771 56.993, 70.820 56.874 C 67.344 56.805, 57.975 56.468, 50 56.124 L 35.501 55.500 59.141 42.719 L 82.782 29.938 83.472 25.341 C 83.851 22.813, 84.398 20.127, 84.687 19.372 C 85.120 18.246, 82.822 18.035, 71.857 18.193 C 64.511 18.299, 55.748 18.544, 52.385 18.737 M 87.663 18.736 C 87.325 19.282, 86.759 22.202, 86.403 25.225 C 85.763 30.674, 85.782 30.725, 88.629 31.272 C 90.208 31.575, 91.663 31.662, 91.863 31.466 C 92.318 31.017, 89.998 20.981, 89.010 19.122 C 88.570 18.295, 88.031 18.141, 87.663 18.736 M 84.656 34.678 C 83.449 38.871, 80.867 53.200, 81.249 53.582 C 81.477 53.810, 85.114 54.289, 89.332 54.645 C 96.940 55.288, 97 55.275, 96.983 52.897 C 96.954 48.840, 93.197 35.741, 91.810 34.862 C 91.090 34.405, 89.974 34.024, 89.332 34.015 C 88.689 34.007, 87.492 33.742, 86.672 33.428 C 85.759 33.077, 84.977 33.563, 84.656 34.678 M 63.683 43.303 L 46.866 52.500 50.683 53.192 C 54.861 53.950, 78 54.266, 78 53.565 C 78 53.074, 80.717 39.693, 81.516 36.250 C 81.803 35.013, 81.692 34.024, 81.269 34.053 C 80.846 34.082, 72.932 38.244, 63.683 43.303 M 98.073 43.211 C 99.114 47.220, 99.973 51.477, 99.983 52.671 C 99.999 54.676, 100.576 54.867, 107.540 55.171 L 115.079 55.500 117.054 49.098 C 118.140 45.577, 118.910 42.577, 118.764 42.433 C 118.619 42.288, 114.225 40.984, 109 39.536 C 103.775 38.087, 98.753 36.681, 97.840 36.412 C 96.323 35.964, 96.343 36.550, 98.073 43.211 M 80 59.134 C 80 61.154, 80.369 61.242, 86.864 60.778 C 98.910 59.916, 98.823 57.043, 86.750 57.015 C 80.520 57.001, 80 57.165, 80 59.134 M 98.500 59 C 97.780 60.165, 102.198 60.183, 109.500 59.046 C 114.363 58.289, 114.289 58.264, 106.809 58.134 C 102.579 58.060, 98.840 58.450, 98.500 59 M 83.801 63.733 C 80.457 63.998, 78.958 64.595, 78.604 65.803 C 76.637 72.516, 69.897 111.453, 70.373 113.351 C 70.911 115.495, 71.662 115.780, 78.234 116.335 C 82.230 116.672, 93.228 117.250, 102.674 117.618 C 127.635 118.591, 128.041 119.605, 106.061 126.074 C 97.790 128.508, 91.017 130.737, 91.011 131.026 C 91.005 131.315, 104.371 133.023, 120.712 134.822 C 137.054 136.620, 150.579 138.246, 150.767 138.434 C 151.226 138.892, 137.186 158.767, 135.798 159.625 C 134.544 160.400, 57.933 164.266, 57.256 163.589 C 57.009 163.343, 57.269 160.978, 57.833 158.333 C 58.397 155.689, 58.679 153.345, 58.459 153.125 C 58.239 152.905, 53.537 154.894, 48.011 157.544 C 42.485 160.195, 38.309 162.675, 38.732 163.056 C 39.154 163.437, 57.625 167.628, 79.778 172.368 L 120.056 180.986 146.278 163.865 C 160.700 154.449, 173.298 146.190, 174.273 145.512 C 175.821 144.436, 172.087 141.927, 144.773 125.693 C 120.257 111.123, 110.421 105.863, 99.250 101.349 C 90.387 97.767, 85 95.058, 85 94.182 C 85 93.408, 87.025 86.375, 89.500 78.553 C 91.975 70.732, 94 64.033, 94 63.666 C 94 63.006, 92.884 63.013, 83.801 63.733 M 72 64.601 C 70.625 64.767, 65.579 65.189, 60.786 65.538 L 52.073 66.173 58.413 78.837 C 61.900 85.802, 65.330 94.088, 66.036 97.250 C 66.741 100.412, 67.612 103, 67.972 103 C 68.331 103, 70.116 95.071, 71.938 85.380 C 73.760 75.689, 75.471 66.914, 75.742 65.880 C 76.012 64.846, 75.843 64.067, 75.367 64.150 C 74.890 64.232, 73.375 64.435, 72 64.601 M 64.282 139.500 C 62.058 151.050, 60.360 160.637, 60.508 160.805 C 60.842 161.184, 132.074 157.960, 133.625 157.495 C 134.844 157.130, 146.451 141.083, 145.859 140.580 C 145.662 140.412, 132.225 138.847, 116 137.102 C 99.775 135.356, 85.487 133.711, 84.250 133.445 C 79.027 132.323, 82.520 130.279, 97.250 125.837 L 112.500 121.238 105 120.633 C 100.875 120.300, 90.935 119.684, 82.912 119.264 L 68.324 118.500 64.282 139.500" stroke="none" fill="black" fill-rule="evenodd"/>
</svg>