<svg xmlns="http://www.w3.org/2000/svg" width="200" height="200" viewBox="0 0 200 200" version="1.1">
	<path d="M 50.433 10.109 C 49.629 11.410, 49.713 11.487, 58.932 17.881 C 63.597 21.116, 66.716 22.684, 67.309 22.091 C 67.902 21.498, 70.294 22.143, 73.732 23.823 L 79.211 26.500 78.531 35.239 L 77.852 43.978 85.995 54.494 C 91.244 61.272, 93.670 65.154, 92.819 65.415 C 89.849 66.328, 41.719 68.115, 40.986 67.340 C 40.550 66.878, 38.297 59.467, 35.981 50.872 C 31.450 34.060, 30.617 31.939, 29.166 33.508 C 28.454 34.279, 22 68.548, 22 71.560 C 22 71.932, 25.745 71.925, 30.323 71.543 L 38.645 70.850 40.893 79.054 C 42.130 83.566, 42.772 87.581, 42.321 87.975 C 41.869 88.369, 35.200 91.326, 27.500 94.547 C 19.800 97.768, 13.324 100.526, 13.108 100.677 C 12.893 100.827, 19.305 109.731, 27.358 120.463 C 35.411 131.195, 41.986 140.319, 41.970 140.738 C 41.953 141.157, 34.773 148.025, 26.015 156 C 14.084 166.864, 10.572 170.579, 12.012 170.815 C 13.966 171.136, 61.532 167.408, 68.080 166.421 C 71.433 165.916, 72.041 165.205, 77.684 155.191 L 83.709 144.500 86.532 124.750 C 88.085 113.888, 89.726 105, 90.178 105 C 90.929 105, 116.358 121.984, 121.806 126.124 L 124.112 127.876 96.608 157.157 C 81.481 173.261, 69.246 186.579, 69.419 186.753 C 69.593 186.926, 84.982 182.738, 103.617 177.446 L 137.500 167.825 155.750 167.960 L 174 168.094 174.009 163.797 C 174.014 161.434, 173.073 147.125, 171.917 132 L 169.817 104.500 160.299 86.076 L 150.782 67.653 159.141 60.084 C 163.738 55.921, 169.631 50.487, 172.236 48.008 L 176.972 43.500 156.907 31 C 145.872 24.125, 136.291 18.371, 135.616 18.214 C 134.683 17.997, 133.961 28.055, 132.602 60.214 C 131.619 83.471, 130.691 102.628, 130.539 102.785 C 130.388 102.942, 129.937 98.892, 129.537 93.787 C 129.138 88.681, 128.652 84.246, 128.457 83.931 C 128.263 83.616, 112.893 85.283, 94.302 87.635 C 75.711 89.987, 58.925 91.922, 57 91.934 C 55.075 91.946, 52.441 91.141, 51.146 90.145 L 48.792 88.334 58.646 84.253 C 66.462 81.016, 74.031 79.072, 95.250 74.855 L 122 69.538 121.914 66.519 C 121.867 64.859, 121.305 59.242, 120.664 54.037 L 119.500 44.574 103 36.027 C 93.925 31.326, 78.533 23.332, 68.796 18.261 C 57.739 12.504, 50.844 9.443, 50.433 10.109 M 136.694 31.233 C 136.361 36.330, 135.325 60.075, 134.390 84 C 133.455 107.925, 132.291 127.946, 131.803 128.492 C 130.068 130.433, 129.380 126.911, 128.144 109.754 C 127.461 100.264, 126.666 91.130, 126.378 89.456 L 125.855 86.413 90.023 90.909 L 54.192 95.405 50.097 92.567 L 46.001 89.729 32.251 95.477 C 24.688 98.638, 18.189 101.512, 17.808 101.862 C 17.318 102.314, 41.460 135.839, 44.242 138.571 C 44.384 138.710, 50.350 133.487, 57.500 126.964 C 65.167 119.969, 70.868 115.472, 71.398 116 C 72.074 116.674, 57.637 136.013, 48.255 147 C 48.020 147.275, 46.985 146.461, 45.955 145.190 L 44.083 142.880 30.375 155.597 L 16.668 168.314 22.084 167.716 C 25.063 167.386, 37.014 166.333, 48.642 165.375 L 69.784 163.632 75.260 154.066 L 80.737 144.500 84.062 122.217 C 86.160 108.152, 87.776 100.087, 88.443 100.348 C 89.892 100.916, 125.186 124.924, 126.783 126.429 C 127.809 127.395, 122.915 133.111, 102.378 154.935 C 88.249 169.949, 77.547 181.975, 78.595 181.659 C 79.643 181.342, 92.650 177.594, 107.500 173.328 L 134.500 165.573 153.025 165.036 L 171.549 164.500 169.298 134.759 L 167.047 105.018 157.524 86.674 C 152.286 76.584, 148 67.879, 148 67.329 C 148 66.778, 153.403 61.490, 160.006 55.577 C 166.609 49.665, 171.775 44.445, 171.486 43.977 C 171.197 43.510, 164.332 38.980, 156.230 33.911 C 148.129 28.842, 140.554 24.080, 139.399 23.330 C 137.329 21.986, 137.289 22.105, 136.694 31.233 M 81.418 35.139 C 81.047 38.899, 80.786 42.318, 80.836 42.737 C 80.887 43.157, 85.044 48.814, 90.073 55.308 C 95.103 61.802, 99.048 67.286, 98.839 67.494 C 98.631 67.702, 85.917 68.566, 70.585 69.415 C 55.253 70.263, 42.505 71.162, 42.256 71.411 C 41.403 72.263, 45.440 86, 46.542 86 C 47.147 86, 51.884 84.171, 57.071 81.935 C 64.634 78.674, 71.644 76.831, 92.500 72.618 L 118.500 67.365 118.358 62.126 C 118.280 59.245, 117.921 54.521, 117.559 51.628 L 116.902 46.368 99.497 37.336 L 82.091 28.304 81.418 35.139 M 29.669 43.500 C 29.331 45.150, 28.353 50.550, 27.496 55.500 C 26.638 60.450, 25.717 65.513, 25.449 66.750 C 24.992 68.862, 25.286 68.999, 30.231 68.985 C 33.129 68.976, 35.988 68.639, 36.585 68.235 C 37.330 67.730, 36.513 63.270, 33.977 54 C 30.934 42.880, 30.175 41.029, 29.669 43.500 M 50.594 136.905 C 47.962 139.577, 46.240 142.030, 46.768 142.357 C 47.731 142.952, 56.586 133.252, 55.798 132.465 C 55.568 132.235, 53.226 134.232, 50.594 136.905" stroke="none" fill="black" fill-rule="evenodd"/>
</svg>