<svg xmlns="http://www.w3.org/2000/svg" width="200" height="200" viewBox="0 0 200 200" version="1.1">
	<path d="M 98 63.996 C 86.424 66.453, 80 72.985, 80 82.298 C 80 86.368, 80.445 87.120, 85.969 92.389 C 89.252 95.520, 94.387 99.204, 97.381 100.574 L 102.825 103.067 100.444 109.143 C 99.134 112.485, 97.508 115.958, 96.831 116.860 C 93.281 121.589, 90.008 124.435, 85.500 126.714 C 82.750 128.103, 80.368 129.356, 80.207 129.496 C 79.631 130, 83.388 137, 84.235 137 C 86.044 137, 91.659 133.591, 95.574 130.116 C 97.814 128.127, 101.717 124.818, 104.248 122.763 C 107.510 120.114, 110.292 116.331, 113.809 109.763 C 120.339 97.565, 121.618 92.350, 120.139 83.951 C 117.902 71.247, 117.537 70.561, 111.240 67.247 C 104.090 63.485, 102.382 63.066, 98 63.996 M 95.059 67.650 C 92.616 68.505, 89.515 69.927, 88.167 70.810 C 84.838 72.992, 82.113 79.323, 82.887 83.077 C 83.784 87.427, 91.464 94.647, 98.961 98.187 C 102.557 99.885, 105.662 101.412, 105.859 101.580 C 106.057 101.748, 104.980 105.174, 103.466 109.193 C 100.137 118.032, 95.465 124.079, 89.188 127.672 C 86.609 129.148, 84.332 130.481, 84.126 130.635 C 83.921 130.788, 84.025 131.624, 84.358 132.492 C 84.905 133.916, 85.234 133.921, 87.732 132.541 C 89.254 131.700, 94.267 127.747, 98.872 123.756 C 106.278 117.337, 107.835 115.360, 112.372 106.617 C 117.156 97.397, 117.498 96.256, 117.470 89.617 C 117.454 85.703, 116.860 80.194, 116.151 77.375 C 114.907 72.433, 114.632 72.139, 108.451 69.125 C 101.143 65.562, 101.054 65.552, 95.059 67.650" stroke="none" fill="black" fill-rule="evenodd"/>
</svg>